<?xml version="1.0" encoding="utf-8"?>
<!-- Generator: Adobe Illustrator 28.3.0, SVG Export Plug-In . SVG Version: 6.00 Build 0)  -->
<svg version="1.1" id="Arrow" xmlns="http://www.w3.org/2000/svg" xmlns:xlink="http://www.w3.org/1999/xlink" x="0px" y="0px"
	 viewBox="0 0 67.449 100" enable-background="new 0 0 67.449 100" xml:space="preserve">
<g id="Arrow_00000020397672834255792160000004086874866268817295_">
	<g>
		<path fill="#F9822B" d="M61.949,66.835c-0.504,0-0.986,0.101-1.439,0.271c-0.12-2.562-0.27-5.656-0.266-5.745
			c-0.075-1.63-2.534-1.614-2.594,0.012c0,0-0.233,5.909-0.297,8.147c-0.007,0.257-0.353,0.776-0.791,0.66
			c-0.708-0.188-1.719-0.464-2.16-0.62c-1.43-0.505-2.491,1.448-1.244,2.277l2.599,1.84c1.436,1.017,1.479,3.151,0.075,4.212
			c-1.935,1.462-4.381,1.757-7.321,0.391V59.894c0-2.284,1.823-4.15,4.106-4.204l4.421-0.149c5.313,0,8.638-5.747,5.99-10.353
			L37.365,3.013c-1.565-2.723-5.494-2.723-7.059,0L4.636,45.187c-2.648,4.606,0.676,10.353,5.99,10.353l4.42,0.149
			c2.283,0.054,4.106,1.92,4.106,4.204v18.289c-3.035,1.481-5.55,1.203-7.532-0.294c-1.404-1.061-1.361-3.195,0.075-4.212
			l2.599-1.84c1.248-0.829,0.186-2.782-1.244-2.277c-0.441,0.156-1.452,0.432-2.16,0.62c-0.438,0.116-0.784-0.403-0.791-0.66
			c-0.064-2.238-0.296-8.147-0.296-8.147c-0.06-1.626-2.52-1.642-2.594-0.012c0.004,0.089-0.146,3.183-0.266,5.745
			c-0.453-0.17-0.934-0.271-1.439-0.271c-2.501,0-4.529,2.267-4.529,5.065c0,2.362,1.452,4.329,3.408,4.89
			c1.631,6.986,7.04,11.592,14.768,11.594v3.48c0,3.949,3.201,7.15,7.15,7.15h15.06c3.949,0,7.15-3.201,7.15-7.15v-3.482
			c7.616-0.085,12.941-4.67,14.558-11.592c1.956-0.56,3.408-2.528,3.408-4.89C66.478,69.103,64.45,66.835,61.949,66.835z"/>
	</g>
	<g>
		<path fill="#C46A33" d="M20.044,55.98l0.085,3.915c0-2.29-2.807-4.15-5.077-4.208l-4.424-0.137c-4.756,0-7.908-4.6-6.616-8.867
			c0.822,2.76,3.347,4.952,6.616,4.952l4.424,0.137C17.322,51.83,20.044,53.69,20.044,55.98z"/>
		<path fill="#C46A33" d="M47.614,55.98l-0.085,3.915c0-2.29,2.807-4.15,5.077-4.208l4.424-0.137c4.756,0,7.908-4.6,6.616-8.867
			c-0.822,2.76-3.347,4.952-6.616,4.952l-4.424,0.137C50.335,51.83,47.614,53.69,47.614,55.98z"/>
		<path fill="#C46A33" d="M66.224,69.916c-0.528,1.468-2.105,5.285-4.574,5.09c-1.061,6.895-5.422,10.67-14.153,10.673l0.037,2.263
			c0,3.954-2.331,7.164-6.285,7.164H26.307c-3.954,0-6.176-3.21-6.176-7.164l0.105-2.263c-8.731-0.003-13.269-3.778-14.331-10.673
			c-2.469,0.195-4.046-3.622-4.574-5.09c-0.215,0.626-0.352,1.292-0.352,1.977c0,2.368,1.448,4.345,3.406,4.893
			c1.41,6.064,5.686,10.319,11.83,11.341c-0.976,0.099-1.007,0.207,2.839,0.247v3.484c0,3.954,3.19,7.164,7.144,7.164h0.11h14.942
			h0.11c3.954,0,7.144-3.21,7.144-7.164v-3.484c3.846-0.039,3.814-0.148,2.839-0.247c6.144-1.022,10.42-5.277,11.83-11.341
			c1.957-0.548,3.406-2.525,3.406-4.893C66.576,71.208,66.439,70.542,66.224,69.916z M19.143,88.373v0.467
			c-0.02-0.156-0.038-0.312-0.047-0.471C19.112,88.37,19.126,88.373,19.143,88.373z M48.412,88.84v-0.467
			c0.016,0,0.031-0.004,0.047-0.004C48.45,88.529,48.432,88.685,48.412,88.84z"/>
	</g>
	<g>
		<path fill="#FFFFFF" d="M63.652,50.597c-0.137-0.509-0.212-2.06-0.687-2.359C59.262,45.905,35.953,6.144,35.953,6.144
			c-1.005-1.522-3.237-1.522-4.242,0c0,0-24.017,41.029-27.012,42.103c-0.528,0.189-0.55,1.841-0.687,2.35
			c-0.529-1.703-0.391-3.641,0.626-5.402l25.661-42.18c1.566-2.721,5.5-2.721,7.066,0l25.661,42.18
			C64.044,46.956,64.181,48.894,63.652,50.597z"/>
		<path fill="#FFFFFF" d="M55.843,79.979c-1.906,1.509-5.353,1.491-8.309,0.121v-2.056c2.956,1.37,6.371,1.306,8.309-0.162
			c0.039-0.039,1.831-1.068,1.871-1.127C57.713,76.755,57.713,78.498,55.843,79.979z"/>
		<path fill="#FFFFFF" d="M57.605,70.862c0,0,5.599-4.662,7.886,0.792c0,0,0.573-7.181-4.651-4.429
			c-0.153,0.081-0.076-7.505-2.326-6.362C58.197,61.025,57.783,70.744,57.605,70.862z"/>
		<path fill="#FFFFFF" d="M11.82,79.979c1.906,1.509,5.353,1.491,8.309,0.121v-2.056c-2.956,1.37-6.371,1.306-8.309-0.162
			c-0.039-0.039-1.831-1.068-1.871-1.127C9.95,76.755,9.95,78.498,11.82,79.979z"/>
		<path fill="#FFFFFF" d="M10.058,70.862c0,0-5.874-4.662-8.161,0.792c0,0-0.298-7.181,4.926-4.429
			c0.153,0.081,0.076-7.505,2.326-6.362C9.466,61.025,9.88,70.744,10.058,70.862z"/>
	</g>
	<g>
		<path fill="#231F20" d="M41.632,49.364c-0.559,1.136-1.667,1.847-2.903,1.947c-0.125,0.01-0.254,0.005-0.378-0.015
			c-1.329-0.209-2.463-1.047-3.061-2.206c0.803-0.352,0.959-1.253,2.153-2.623c0.001-0.002,0.002-0.003,0.003-0.005
			c0.393-0.442,0.299-0.943-0.062-1.398c-0.592-0.757-1.916-1.377-2.956-1.377c-0.003,0-0.007,0.001-0.01,0.001
			s-0.007-0.001-0.01-0.001c-1.04,0-2.364,0.62-2.956,1.377c-0.361,0.454-0.455,0.956-0.062,1.398
			c0.001,0.002,0.002,0.003,0.003,0.005c1.194,1.37,1.351,2.27,2.153,2.623c-0.598,1.159-1.732,1.997-3.061,2.206
			c-0.124,0.02-0.253,0.025-0.378,0.015c-1.236-0.1-2.344-0.811-2.903-1.947l-0.744,0.372c0.548,1.116,1.5,1.879,2.662,2.251
			c0.787,0.252,1.638,0.333,3.153-0.384c0.849-0.402,1.948-1.623,2.077-1.769c0.03-0.008,0.048-0.012,0.064-0.017
			c0.017,0.005,0.034,0.009,0.064,0.017c0.129,0.145,1.228,1.367,2.077,1.769c1.515,0.717,2.366,0.635,3.153,0.384
			c1.162-0.372,2.114-1.135,2.662-2.251L41.632,49.364z"/>
		<path fill="#231F20" d="M24.683,41.95c-0.726,0.212-1.187,0.453-1.659,0.61c-0.489,0.161-1.063,0.478-1.738,0.511
			c-2.048,0.101-3.787-1.478-3.888-3.525c-0.101-2.045,1.475-3.787,3.523-3.888c1.83-0.09,3.17,1.239,3.804,2.893
			c0.239,0.624,1.004,2.355,1.004,2.355S25.99,41.569,24.683,41.95z"/>
		<path fill="#231F20" d="M42.916,41.372c0.72,0.23,1.175,0.483,1.643,0.653c0.485,0.174,1.05,0.505,1.725,0.556
			c2.044,0.154,3.824-1.38,3.978-3.424c0.153-2.042-1.377-3.824-3.421-3.977c-1.827-0.137-3.201,1.157-3.877,2.794
			c-0.255,0.617-1.065,2.328-1.065,2.328S41.62,40.957,42.916,41.372z"/>
		<path fill="#231F20" d="M61.44,65.884l-0.059-0.998c-0.078-1.781-0.157-3.327-0.157-3.562c-0.059-1.253-1.018-2.153-2.27-2.153
			h-0.02c-1.272,0-2.212,0.92-2.271,2.173c0,0-0.196,5.324-0.274,7.771c-0.626-0.157-1.311-0.352-1.664-0.47
			c-1.116-0.411-2.31,0.098-2.858,1.174c-0.509,1.037-0.215,2.192,0.724,2.819l2.603,1.84c0.431,0.313,0.685,0.783,0.685,1.311
			s-0.215,0.998-0.646,1.311c-1.605,1.233-3.543,1.409-5.735,0.529V59.894c0-1.762,1.37-3.19,3.151-3.23l4.384-0.137
			c2.858,0,5.402-1.488,6.831-3.954c1.429-2.466,1.429-5.402,0-7.888L38.207,2.525C37.307,0.94,35.662,0,33.842,0
			c-1.84,0-3.465,0.94-4.365,2.505l-25.68,42.2c-1.429,2.466-1.429,5.402,0,7.868c1.429,2.466,3.973,3.954,6.792,3.954l4.443,0.137
			c1.762,0.039,3.132,1.468,3.132,3.23v17.655c-2.29,0.959-4.287,0.822-5.95-0.45c-0.411-0.313-0.646-0.783-0.646-1.311
			c0.02-0.529,0.254-0.998,0.685-1.311l2.584-1.82c0.959-0.646,1.253-1.801,0.744-2.838c-0.528-1.077-1.722-1.566-2.858-1.174
			c-0.333,0.117-1.037,0.313-1.664,0.47c-0.039-1.233-0.098-3.171-0.156-4.795c-0.059-1.644-0.118-2.975-0.118-2.975
			c-0.059-1.253-0.998-2.173-2.27-2.173c0,0,0,0-0.02,0c-1.253,0-2.212,0.9-2.27,2.192c0,0.176-0.078,1.801-0.157,3.621l-0.039,0.9
			C2.819,65.531,0,68.369,0,71.893c0,2.525,1.429,4.776,3.562,5.637c1.84,7.007,7.359,11.45,14.602,11.803v2.525
			c0,4.482,3.66,8.143,8.143,8.143h15.052c4.482,0,8.142-3.66,8.142-8.143v-2.525c7.125-0.45,12.566-4.874,14.386-11.803
			c2.134-0.861,3.562-3.112,3.562-5.637C67.449,68.369,64.651,65.531,61.44,65.884z M62.791,75.847l-0.548,0.157l-0.117,0.568
			c-1.566,6.694-6.675,10.746-13.623,10.824l-0.959,0.02v4.443c0,3.406-2.779,6.185-6.185,6.185H26.307
			c-3.406,0-6.185-2.779-6.185-6.185v-4.443h-0.979c-7.066-0.02-12.214-4.071-13.799-10.844l-0.137-0.568l-0.548-0.157
			c-1.585-0.45-2.701-2.075-2.701-3.954c0-2.251,1.585-4.071,3.543-4.071c0.372,0,0.724,0.059,1.096,0.196l1.253,0.47l0.176-3.406
			c0.117-2.858,0.157-3.504,0.157-3.641c0-0.039,0-0.039,0-0.039c0-0.078,0.098-0.294,0.333-0.274c0.294,0,0.313,0.196,0.313,0.294
			c0,0,0.235,5.892,0.294,8.123c0.02,0.47,0.313,0.998,0.724,1.311c0.391,0.294,0.861,0.391,1.292,0.274
			c0.744-0.196,1.781-0.489,2.231-0.646c0.274-0.098,0.411,0.098,0.45,0.196c0.117,0.215,0,0.294-0.098,0.352l-2.584,1.84
			c-0.959,0.685-1.507,1.722-1.527,2.897c-0.02,1.155,0.509,2.212,1.429,2.897c1.664,1.272,4.502,2.368,8.534,0.391l0.548-0.254
			V59.894c0-2.838-2.212-5.109-5.05-5.187l-4.443-0.137c-2.153,0-4.071-1.116-5.128-2.975c-1.077-1.84-1.077-4.071-0.02-5.892
			l25.68-42.2c0.548-0.979,1.546-1.546,2.682-1.546c1.116,0,2.114,0.568,2.682,1.566l25.661,42.161
			c1.057,1.84,1.057,4.071-0.02,5.911c-1.057,1.859-2.975,2.975-5.167,2.975l-4.404,0.137c-2.838,0.078-5.05,2.349-5.05,5.187V78.9
			l0.548,0.274c3.934,1.82,6.694,0.724,8.338-0.509c0.92-0.685,1.429-1.762,1.409-2.897c-0.02-1.174-0.568-2.212-1.507-2.897
			l-2.623-1.859c-0.078-0.039-0.196-0.117-0.078-0.333c0.039-0.078,0.176-0.294,0.45-0.196c0.45,0.157,1.507,0.45,2.231,0.646
			c0.45,0.098,0.9,0.02,1.292-0.274c0.431-0.313,0.705-0.842,0.724-1.311c0.059-2.231,0.294-8.123,0.294-8.143
			c0-0.078,0.02-0.274,0.333-0.274c0.372,0,0.313,0.176,0.313,0.176c0,0.098,0,0.117,0.157,3.68l0.176,3.504l1.253-0.47
			c2.408-0.9,4.639,1.214,4.639,3.876C65.492,73.772,64.396,75.396,62.791,75.847z"/>
	</g>
	<g>
		<path fill="#FFFFFF" d="M35.679,45.343c0,0.31-0.559,0.562-1.249,0.562c-0.69,0-1.249-0.252-1.249-0.562
			c0-0.311,0.559-0.562,1.249-0.562C35.12,44.781,35.679,45.032,35.679,45.343z"/>
		<path fill="#FFFFFF" d="M20.189,40.668c0.022,0.437-0.315,0.808-0.752,0.83c-0.437,0.022-0.808-0.315-0.83-0.752
			c-0.022-0.437,0.315-0.808,0.752-0.83C19.796,39.895,20.168,40.231,20.189,40.668z"/>
		<path fill="#FFFFFF" d="M23.253,38.124c0.037,0.755-0.545,1.397-1.299,1.434c-0.755,0.037-1.397-0.545-1.434-1.299
			c-0.037-0.755,0.545-1.397,1.299-1.434C22.574,36.787,23.216,37.369,23.253,38.124z"/>
		<path fill="#FFFFFF" d="M47.442,40.206c-0.033,0.436,0.294,0.816,0.73,0.849c0.436,0.033,0.816-0.294,0.849-0.73
			c0.033-0.436-0.294-0.816-0.73-0.849C47.855,39.443,47.475,39.77,47.442,40.206z"/>
		<path fill="#FFFFFF" d="M44.444,37.584c-0.057,0.754,0.508,1.411,1.262,1.467c0.754,0.057,1.411-0.508,1.467-1.262
			c0.057-0.754-0.508-1.411-1.262-1.467C45.158,36.265,44.501,36.83,44.444,37.584z"/>
	</g>
</g>
</svg>
