<?xml version="1.0" encoding="utf-8"?>
<!-- Generator: Adobe Illustrator 28.3.0, SVG Export Plug-In . SVG Version: 6.00 Build 0)  -->
<svg version="1.1" id="black_swan" xmlns="http://www.w3.org/2000/svg" xmlns:xlink="http://www.w3.org/1999/xlink" x="0px" y="0px"
	 viewBox="0 0 490 461.261" enable-background="new 0 0 490 461.261" xml:space="preserve">
<g id="black_swan_00000110434212170952619460000000545685673588775613_">
	<g>
		<path fill="#4C4C4C" d="M450.283,9.093c-12.297-6.249-27.36-5.687-39.111-4.498c-20.52,2.267-39.895,10.632-54.554,23.551
			c-23.486,20.281-35.491,54.517-32.114,91.585c2.323,23.604,10.046,46.577,17.515,68.793c1.093,3.251,2.184,6.497,3.258,9.74
			l0.04,0.121l0.097,0.084c1.339,1.166,2.67,2.365,3.953,3.56c5.607,5.323,9.59,10.232,12.376,15.279
			c-2.666-2.291-5.289-4.633-7.841-6.911c-7.46-6.661-15.173-13.549-23.906-19.057c-16.526-10.687-33.826-16.738-51.42-17.984
			c-17.623-1.249-35.567,2.32-53.363,10.612c-0.742,0.381-1.528,0.778-2.337,1.188c-3.115,1.576-6.644,3.362-9.425,5.085
			l-1.021,0.633l1.181,0.222c3.372,0.633,6.303,1.682,8.91,3.192c-2.081,0.012-4.142-0.016-6.148-0.042
			c-4.854-0.064-9.439-0.125-14.263,0.316c-14.98,1.384-29.24,8.534-40.15,20.131c-1.797,1.877-3.413,3.923-4.976,5.902
			c-2.11,2.671-4.285,5.424-6.916,7.759c0.591-2.925,1.856-5.89,3.846-9.025l0.589-0.928l-1.076,0.221
			c-1.429,0.294-2.568,0.57-3.575,0.865c-10.882,2.927-21.033,9.449-29.346,18.853c-3.624,3.914-6.386,8.067-9.31,12.465
			c-1.788,2.689-3.629,5.457-5.687,8.162c0.469-3.512,1.655-7.065,3.603-10.81l0.459-0.882l-0.972,0.212
			c-1.076,0.234-2.235,0.541-3.454,0.915c-5.87,1.946-11.623,5.099-18.106,9.923c-3.595,2.668-7.474,6.026-11.533,9.984
			c-1.709,1.685-3.885,3.956-5.989,6.154c-1.756,1.833-3.414,3.564-4.803,4.962c-11.964,11.801-24.218,19.513-36.422,22.92
			c-4.088,1.148-8.044,1.788-11.757,1.901l-1.534,0.047l1.3,0.815c1.727,1.082,3.51,2.124,5.302,3.1
			c12.661,6.706,26.648,10.656,40.446,11.423c9.98,0.672,20.606-0.369,31.581-3.096c3.508-0.865,6.95-2.029,10.279-3.156
			c3.901-1.32,7.919-2.679,12.062-3.557c-6.974,5.732-15.803,8.448-24.989,10.925c-8.517,2.25-17.405,3.3-26.413,3.112l-1.884-0.039
			l1.648,0.913c8.509,4.712,19.524,6.899,31.853,6.329c6.39-0.308,13.285-1.419,21.084-3.396c2.217-0.584,4.43-1.276,6.571-1.946
			c4.205-1.315,8.54-2.671,13.029-3.232c-2.233,1.873-4.866,3.496-8.158,5.041c-9.728,4.016-19.782,6.649-29.075,7.614l-0.975,0.102
			l0.693,0.693c7.45,7.438,17.175,13.103,28.906,16.839c10.018,3.191,21.254,4.924,33.395,5.152
			c6.691,0.153,13.895-0.202,22.038-1.081c1.108-0.139,2.214-0.283,3.319-0.426c5.442-0.706,11.05-1.433,16.674-1.584
			c-3.524,1.561-7.418,2.813-11.833,3.807l-2.481,0.559l2.518,0.357c15.602,2.215,29.766,1.425,42.098-2.345
			c21.518-6.53,34.58-21.612,44.415-36.019c-1.143,4.027-3.022,8.058-5.602,12.018l-0.501,0.77l0.917-0.049
			c13.828-0.746,25.598-3.39,35.981-8.081c18.71-8.306,31.598-22.306,42.744-46.56c-0.908,7.564-4,15.366-9.215,23.237
			c-10.14,15.689-26.557,27.327-45.047,31.932c-8.79,2.293-18.135,3.322-27.769,3.059l-0.232-0.006l-0.145,0.181
			c-1.501,1.879-3.173,3.747-4.972,5.555c-13.27,13.668-32.456,21.595-52.645,21.748c-7.381,0.171-15.056-0.536-22.804-2.093
			l-2.86-0.575l2.538,1.438c9.456,5.355,20.904,9.365,36.048,12.624c1.397,0.237,2.798,0.49,4.2,0.743
			c1.725,0.311,3.509,0.634,5.26,0.921c1.598,0.275,3.191,0.534,4.784,0.792c3.067,0.498,6.217,1.01,9.357,1.634
			c-3.672,0.443-7.517,0.627-11.468,0.546l-0.837-0.017l0.426,0.72c2.241,3.787,5.583,7.363,9.66,10.34
			c0.642,0.484,1.335,0.928,2.06,1.318l0.156,0.096c2.617,1.397,5.596,2.091,8.587,2.091c3.228,0,6.469-0.81,9.277-2.421
			c7.575-4.311,13.636-9.181,18.015-14.474l1.012-1.223l-1.513,0.481c-3.683,1.172-7.255,1.86-10.852,2.086
			c1.765-0.821,3.519-1.616,5.231-2.392c3.471-1.574,6.75-3.06,10.037-4.711l0.125-0.063l0.207-0.359
			c0.02-0.034,0.04-0.068,0.059-0.102l0.313,0.169l0.219-0.112c1.127-0.578,2.127-1.107,3.064-1.62
			c5.45-3.056,10.645-6.792,15.671-10.405c7.76-5.579,15.785-11.349,24.987-14.804c1.418-0.561,2.847-1.044,3.933-1.401l2.057-0.677
			l-2.153-0.23c-6.031-0.644-10.936-1.83-15.257-3.701c5.437-0.178,10.82,0.139,16.043,0.448c3.117,0.184,6.34,0.374,9.562,0.46
			c2.909,0.056,5.955,0.031,9.047-0.073v0.004l0.484-0.019c16.497-0.627,31.21-3.833,43.721-9.524
			c20.356-8.88,36.195-27.481,42.366-49.746c4.308-13.843,4.794-27.601,1.407-39.781c-7.133-26.811-27.645-47.732-44.708-62.955
			c-23.18-21.882-37.61-48.928-40.632-76.154c-1.201-11.434-0.8-27.891,7.937-41.362c5.255-8.31,14.047-14.244,23.525-15.873
			c3.148-0.582,6.534-0.78,10.059-0.589l0.928,0.05l-0.514-0.774c-1.011-1.522-1.907-3.087-2.676-4.674
			c2.088,1.945,4.089,3.799,6.148,5.612l0.19,0.172h0.002c1.156,1.011,2.138,1.858,3.152,2.692
			c7.739,6.577,16.35,11.162,25.593,13.628c4.517,1.211,9.102,1.934,13.26,2.092l0.273,0.01l0.143-0.233
			c0.78-1.272,1.452-2.733,1.997-4.342l0.077-0.227l-0.14-0.195c-0.009-0.013-0.018-0.025-0.027-0.037l0.311-0.213l0.047-0.156
			c1.156-3.817,1.598-8.088,1.987-11.856l0.143-1.368l0.028-0.386c0.192-2.67,0.389-5.422,0.194-8.107
			c4.134,2.327,9.234,3.71,14.819,4.011l0.458,0.025l0.032-0.457C467.629,26.402,461.187,14.376,450.283,9.093z M449.402,33.733
			c-0.54-0.17-1.216-0.284-1.991-0.215l-0.108,0.01l-0.093,0.057c-1.043,0.637-2.237,0.974-3.453,0.974h-0.081
			c-1.776-0.025-3.44-0.737-4.683-2.005c-1.236-1.268-1.907-2.949-1.891-4.731c0.016-1.104,0.302-2.185,0.826-3.126l0.044-0.079
			l0.011-0.089c0.111-0.877,0.128-2.047-0.242-3.226c0.768,0.348,1.83,0.674,3.026,0.638l0.094-0.003l0.086-0.04
			c0.909-0.417,1.885-0.632,2.891-0.641c3.666,0.049,6.615,3.072,6.574,6.737c-0.016,1.29-0.404,2.538-1.121,3.609l-0.065,0.097
			l-0.012,0.115C449.146,32.477,449.211,33.124,449.402,33.733z M377.058,332.917c2.018-0.874,4.04-1.712,6.012-2.53
			c5.214-2.162,10.606-4.397,15.721-7.222c17.603-9.708,30.901-24.859,37.436-42.649c1.076-2.7,1.877-5.525,2.653-8.256
			c0.825-2.907,1.674-5.897,2.858-8.745c0.464,5.076-0.749,10.241-2.038,14.703c-5.847,20.383-20.262,37.681-39.547,47.46
			C392.934,329.319,385.177,332.669,377.058,332.917z M310.103,188.339c-13.24-5.316-26.772-8.034-39.741-8.034
			c-3.973,0-7.896,0.255-11.737,0.769h-0.002c-4.797,0.663-9.004,1.559-12.852,2.738c-1.054,0.299-2.093,0.613-3.128,0.925
			c-2.705,0.816-5.286,1.594-8.025,2.105c2.941-2.271,6.445-4.044,10.451-5.285c20.439-7.029,44.547-5.514,66.143,4.154
			c7.056,3.155,14.965,7.003,20.806,13.087c-2.821-1.313-5.591-2.708-8.286-4.065C319.341,192.523,314.803,190.238,310.103,188.339z
			 M338.354,295.237c-0.914,1.647-1.884,3.181-2.901,4.586l-0.002,0.003c-11.547,16.172-32.721,28.045-52.505,29.73
			C307.7,321.154,324.618,310.686,338.354,295.237z M126.305,319.094c-0.206,0.13-0.41,0.258-0.612,0.383
			c-12.498,7.355-31.323,10.39-44.924,7.429c3.152-0.43,6.304-0.814,9.372-1.188c6.516-0.794,13.253-1.615,19.893-2.87
			c3.907-0.717,7.753-1.667,11.472-2.586C123.075,319.874,124.68,319.477,126.305,319.094z M114.889,253.94
			c5.827-10.728,18.654-23.75,30.742-28.54c-2.804,2.729-5.736,5.343-8.587,7.882c-2.3,2.049-4.677,4.168-6.966,6.327
			c-2.986,2.668-5.943,5.524-8.803,8.285c-1.258,1.215-2.514,2.427-3.767,3.62c-0.338,0.311-0.674,0.625-1.009,0.939
			C115.973,252.947,115.439,253.447,114.889,253.94z M184.176,351.913c-0.318,0.083-0.633,0.164-0.943,0.244
			c-20.897,4.989-48.392,1.257-66.966-8.842c12.04,3.238,27.236,6.818,43.159,8.227
			C167.819,352.261,176.357,352.135,184.176,351.913z M270.173,386.617c-3.582,3.368-8.8,5.518-14.024,5.771
			C260.227,390.054,264.755,388.191,270.173,386.617z"/>
		<path fill="#4C4C4C" d="M319.923,455.579c-2.644-1.402-11.967-1.462-23.772-1.538c-5.104-0.033-10.383-0.067-15.779-0.209
			c-18.866-0.496-24.518-12.937-24.749-13.466l-0.867,0.341l2.149,6.127l0.001,0.002l2.05,5.837l15.314,6.3l0.072,0.029
			l23.283,1.455l0.033,0.002l27.32-2.206l-5.053-2.673L319.923,455.579z"/>
	</g>
	<g>
		<path fill="#898989" d="M432.639,210.284c-10.985-14.232-21.011-24.128-29.856-32.859c-13.467-13.292-24.103-23.792-31.374-42.781
			c-5.21-13.607-15.945-47.676-3.141-70.111c6.136-10.752,16.937-17.507,32.103-20.078l2.749-0.466l-2.751-0.454
			c-0.158-0.026-15.845-2.475-28.565,7.422c-9.325,7.256-14.754,19.16-16.135,35.381c-1.447,16.99,2.148,30.242,6.249,42.033
			c8.609,24.756,25.177,42.243,45.943,62.531c24.958,24.385,54.005,62.698,18.261,113.666
			c-18.322,26.125-46.279,34.041-66.506,36.081c-21.956,2.215-39.809-1.82-39.988-1.861l-0.215,0.908
			c0.182,0.044,14.349,3.415,33.213,3.415c5.49,0,11.379-0.285,17.434-1.021c15.798-1.92,29.643-6.483,41.149-13.562
			c14.396-8.857,25.145-21.693,31.95-38.16c0.043-0.111,4.331-11.205,5.166-26.536C449.095,249.672,447,228.889,432.639,210.284z"/>
		<path fill="#898989" d="M252.845,267.895c0.097-1.56,0.198-3.174,0.437-4.729c1.204-7.813,6.161-14.878,13.142-18.917
			c-3.407,4.273-6.982,10.098-6.13,16.353c0.622,4.571,3.796,8.816,8.084,10.816c4.283,1.997,9.682,1.754,13.754-0.62
			c1.514-0.882,2.843-2.024,4.129-3.129c1.049-0.901,2.133-1.833,3.296-2.6c2.243-1.48,5.78-2.623,8.364-0.969
			c2.448,1.567,2.844,4.896,2.862,6.742c0.037,3.864-1.47,9.013-5.842,10.808l-2.417,0.992l2.61-0.095
			c10.776-0.392,18.778-5.112,23.782-14.027c4.659-8.299,4.894-17.049,4.894-18.72c0-11.776-4.58-22.961-12.897-31.494
			c-9.45-9.695-22.959-15.121-39.069-15.691c-12.683-0.449-27.957,3.698-38.926,10.564l-0.366,0.231
			c-0.874,0.553-1.7,1.076-2.631,1.364c-1.382,0.428-2.922,0.296-4.411,0.17l-0.441-0.037c-20.137-1.642-40.751,8.457-51.3,25.141
			l-0.134,0.213c-0.677,1.074-1.376,2.185-2.424,2.826c-0.832,0.509-1.871,0.708-2.875,0.901l-0.326,0.063l0,0
			c-14.096,2.76-25.577,13.245-29.963,27.362l-0.668,2.15l1.467-1.708c10.994-12.8,26.382-14.826,33.857-8.688
			c4.416,3.626,6.341,11.062-1.5,21.053l-0.592,0.754h0.959c12.296,0,17.607-4.762,22.744-9.369
			c2.462-2.208,5.009-4.492,8.295-6.163c2.819-1.434,12.345-4.849,18.906-1.827c3.148,1.45,5.231,4.2,6.19,8.173
			c0.572,2.37-0.06,4.821-1.827,7.089c-3.183,4.084-9.598,7.09-15.254,7.146l-2.083,0.021l1.894,0.869
			c0.074,0.034,5.3,2.376,12.883,2.376c3.327,0,7.108-0.451,11.106-1.745c8.257-2.672,15.221-9.09,17.33-15.969
			C252.523,273.071,252.687,270.439,252.845,267.895z"/>
		<path fill="#898989" d="M314.564,450.341c-0.92-1.203-1.433-3.537-0.001-4.79c0.395-0.348,0.83-0.637,1.328-0.882l2.228-1.09
			l-2.408-0.597c-3.23-0.808-6.516-1.341-9.765-1.584c-4.428-0.354-8.536-0.019-12.884,0.336c-1.402,0.116-2.784,0.227-4.169,0.316
			c6.607-3.588,15.768-4.649,24.949-2.825l3.415,0.685l-2.652-2.257c-7.693-6.565-17.203-5.476-26.406-4.421
			c-6.383,0.726-12.412,1.412-16.549-1.19c-8.935-5.639-8.086-25.415-7.306-33.656l0.231-2.483l-1.611,1.601
			c-3.773,1.081-7.961,1.06-11.802-0.06l-1.759-0.522l0.665,1.715c1.413,3.653,2.381,7.05,2.963,10.403
			c1.058,4.874,0.833,10.151,0.614,15.273c-0.334,7.68-0.679,15.621,3.297,22.599l0.845-0.385l-0.743-2.116
			c3.177,4.072,10.056,10.007,23.305,10.356c5.405,0.142,10.688,0.176,15.797,0.209c11.214,0.072,20.899,0.135,23.34,1.429
			l0.498-0.785C317.67,453.884,315.949,452.209,314.564,450.341z"/>
	</g>
	<g>
		<path fill="#F4463D" d="M451.051,61.662l-0.292,0.754c-0.579,1.493-1.298,2.829-2.135,3.972l-0.263,0.359l0.363,0.257
			c3.143,2.23,5.899,4.426,8.19,6.525l1.255,1.16c1.617,1.485,3.629,3.333,5.6,5.01l0.62-0.614
			c-3.83-4.59-8.278-10.387-12.866-16.767L451.051,61.662z"/>
		<path fill="#F4463D" d="M480.385,78.465L480.385,78.465c-9.424-14.022-12.716-28.945-13.693-34.71l-0.054-0.314l-0.315-0.046
			c-4.939-0.718-8.849-1.897-12.308-3.712l-0.656-0.345l0.015,0.741c0.133,6.649-0.234,12.026-1.157,16.921l-0.034,0.181
			l0.106,0.151c2.894,4.122,17.741,24.983,25.837,30.84c3.668,2.647,6.069,3.318,7.14,3.318c0.169,0,0.304-0.016,0.405-0.044
			l0.229-0.062l0.073-0.227C486.132,90.665,486.605,87.73,480.385,78.465z M466.994,60.679c-0.81-0.381-1.449-1.012-1.825-1.812
			c-0.378-0.805-0.456-1.706-0.229-2.577c0.813,0.382,1.454,1.016,1.83,1.819C467.145,58.911,467.222,59.81,466.994,60.679z"/>
	</g>
	<g>
		<path fill="#FFFFFF" d="M263.206,397.916c0,0-5.609,29.129,6.665,36.389c8.016,4.742,18.157,0.351,30.789,0.965
			c14.3,0.695,15.685,5.244,15.685,5.244l-4.845-7.487l-16.19-1.773c0,0-17.017,3.9-21.626-0.591s-8.627-12.408-7.681-26.353
			C266.947,390.366,263.206,397.916,263.206,397.916z"/>
		<path fill="#FFFFFF" d="M285.467,443.273c0,0,25.476,1.027,30.493,3.103l3.482-3.103
			C319.442,443.273,295.341,437.737,285.467,443.273z"/>
		<path fill="#FFFFFF" d="M16.547,304.713c0,0,21.759,4.69,46.654-19.26s34.845-34.351,45.496-37.511h-6.838
			c0,0-20.326,9.603-32.773,25.044C56.638,288.428,31.917,303.509,16.547,304.713z"/>
		<path fill="#FFFFFF" d="M104.878,260.539c0,0,3.144-3.599,8.549-10.066c8.426-10.082,20.09-24.646,38.416-28.465l4.339-3.753
			C156.181,218.255,124.453,217.897,104.878,260.539z"/>
		<path fill="#FFFFFF" d="M149.393,229.539c0,0,5.311-3.517,17.018-14.992c13.616-13.346,29.523-16.716,38.286-17.66
			c11.725-1.263,19.423-2.15,19.423-2.15S175.444,176.127,149.393,229.539z"/>
		<path fill="#FFFFFF" d="M216.633,191.885c0,0,29.155-19.057,64.876-15.915c20.151,1.772,42.13,13.582,59.742,26.253
			c12.512,9.002,21.997,16.98,21.997,16.98s-39.841-49.625-86.579-48.295s-67.636,20.691-67.636,20.691L216.633,191.885z"/>
		<path fill="#FFFFFF" d="M328.351,86.143c7.276-47.572,41.495-68.144,59.978-74.04C408.12,5.79,462.082-6.55,466.225,39.694
			l2.892-1.763c0,0,1.286-47.45-73.327-33.626l-27.526,10.668c0,0-49.096,36.733-46.513,87.24
			c2.583,50.508,23.97,95.905,23.97,95.905C340.327,163.189,320.889,134.929,328.351,86.143z"/>
		<path fill="#FFFFFF" d="M160.776,336.248c27.23,10.62,63.233,4.437,78.482-0.509c-10.412,9.195-23.464,15.046-36.946,18.39
			s-27.445,4.287-41.333,4.547c-14.757,0.276-30.165-0.365-43.135-7.408c-3.257-1.768-22.792-14.303-16.217-18.624
			c1.845-1.213,5.981-1.163,8.175-1.682c2.851-0.674,5.676-1.459,8.473-2.328c5.54-1.721,14.637-4.539,19.994-6.76
			C138.269,321.873,143.63,329.561,160.776,336.248z"/>
		<path fill="#FFFFFF" d="M153.879,333.222c18.829,7.343,43.724,3.068,54.269-0.352c-7.199,6.358-16.225,10.404-25.547,12.716
			s-18.977,2.964-28.581,3.144c-10.204,0.191-20.858-0.253-29.827-5.122c-2.252-1.223-15.76-9.89-11.213-12.878
			c1.276-0.838,4.136-0.805,5.653-1.163c1.972-0.466,3.925-1.009,5.859-1.61c3.831-1.19,10.121-3.138,13.825-4.675
			C138.316,323.281,142.024,328.598,153.879,333.222z"/>
		<path fill="#FFFFFF" d="M146.437,327.081c10.153,4.225,24.153,3.613,30.149,2.641c-4.259,2.447-9.438,3.775-14.709,4.32
			c-5.272,0.544-10.66,0.336-16-0.079c-5.674-0.441-11.572-1.187-16.352-3.808c-1.2-0.658-7.054-2.645-4.406-3.735
			c0.743-0.306,2.701-0.55,3.558-0.631c1.114-0.105,2.159-0.717,3.258-0.884c2.176-0.33,4.149-2.542,6.269-3.032
			C138.204,321.873,140.044,324.421,146.437,327.081z"/>
		<path fill="#FFFFFF" d="M448.702,35.543c-0.325,0.005-0.651,0.032-0.974,0.072c-1.277,0.158-2.532,0.517-3.815,0.586
			c-1.93,0.105-3.878-0.475-5.398-1.623c-1.52-1.148-2.599-2.857-2.967-4.731c-0.382-1.942,0.111-4.078,0.453-5.978
			c0.17-0.944,0.072-1.931-0.036-2.882c-0.073-0.645-0.248-1.413-0.478-2.014c0,0,2.539,0.909,3.868,1.111
			c2.174,0.329,4.42-0.496,6.6-0.209c2.04,0.268,3.869,1.54,4.942,3.267s1.413,3.87,1.086,5.901
			c-0.184,1.145-0.569,2.254-0.781,3.395c-0.118,0.634-0.18,1.285-0.123,1.926c0.052,0.582,0.334,1.782,0.334,1.782
			c-0.575-0.097-1.114-0.46-1.732-0.546C449.358,35.554,449.03,35.538,448.702,35.543z"/>
		<path fill="#FFFFFF" d="M445.364,32.591l-0.15,0.015c-0.057,0.006-0.113,0.015-0.191,0.01c-1.929-0.022-3.501-1.52-3.655-3.411
			c0.447,0.263,0.96,0.409,1.489,0.415c1.689,0.043,3.043-1.318,3.062-2.982c0.006-0.497-0.106-0.975-0.322-1.403
			c1.506,0.222,2.768,1.375,3.091,2.89l0.86,4.131l0.015-4.281c0.018-1.545-0.568-3.007-1.651-4.118
			c-1.084-1.112-2.533-1.736-4.156-1.754c-3.156,0-5.76,2.571-5.807,5.732c-0.019,1.548,0.567,3.013,1.648,4.121
			c1.083,1.112,2.534,1.734,4.083,1.753c0.029,0,0.058,0.001,0.086,0.001c0.601,0,1.192-0.09,1.758-0.266l3.602-1.124
			L445.364,32.591z"/>
		<path fill="#FFFFFF" d="M466.26,43.829c0,0-1.523-2.729-1.447-0.674c0.233,6.285,4.142,25.427,21.072,46.302l1.858-2.703
			C487.742,86.755,467.58,50.394,466.26,43.829z"/>
	</g>
	<path fill="#231F20" d="M464.666,55.707c-0.867,2.286,0.271,4.756,2.602,5.553C468.143,58.965,466.987,56.504,464.666,55.707z
		 M449.678,31.863c0.762-1.139,1.183-2.47,1.2-3.863c0.044-3.924-3.11-7.156-7.034-7.209c-1.086,0.009-2.137,0.245-3.092,0.683
		c-2.312,0.07-4.047-1.314-4.047-1.314c0.92,1.454,0.964,3.127,0.815,4.31c-0.561,1.007-0.867,2.155-0.885,3.346
		c-0.018,1.901,0.701,3.705,2.023,5.063c1.331,1.358,3.11,2.12,5.01,2.146h0.088c1.323,0,2.593-0.368,3.697-1.042
		c1.656-0.149,2.803,0.639,2.935,0.727C449.687,33.676,449.599,32.634,449.678,31.863z M449.117,28.035
		c-0.394-1.848-2.023-3.25-3.994-3.276c-0.14,0-0.263,0-0.394,0.018c0.473,0.473,0.762,1.13,0.753,1.857
		c-0.018,1.428-1.191,2.567-2.619,2.549c-0.753-0.009-1.436-0.342-1.901-0.876c-0.026,0.184-0.044,0.368-0.044,0.552
		c-0.026,2.295,1.805,4.17,4.099,4.196c0.123,0.009,0.245-0.018,0.377-0.026c-0.534,0.166-1.112,0.254-1.708,0.245
		c-1.428-0.018-2.768-0.587-3.775-1.621c-0.999-1.025-1.542-2.374-1.524-3.81c0.044-2.935,2.444-5.3,5.369-5.3h0.07
		c2.961,0.035,5.335,2.479,5.3,5.431C449.126,28,449.117,28.018,449.117,28.035z M254.429,392.869
		c6.272,0.201,13.113-2.4,17.274-7.165C265.597,387.359,259.824,389.54,254.429,392.869z M279.481,330.212
		c21.032-0.499,44.148-13.025,56.35-30.115c1.839-2.54,3.381-5.282,4.695-8.103C323.935,311.966,303.823,322.346,279.481,330.212z
		 M159.467,351.077c-15.837-1.402-31.175-4.914-46.53-9.154c19.026,11.755,48.729,15.863,70.409,10.687
		c1.568-0.403,3.127-0.815,4.66-1.279C178.396,351.629,168.98,351.892,159.467,351.077z M113.427,255.791
		c1.577-1.244,2.961-2.61,4.397-3.933c4.161-3.959,8.295-8.085,12.57-11.904c5.632-5.317,11.589-10.187,17.064-15.706
		C134.327,228.479,119.252,243.414,113.427,255.791z M109.949,322.39c-10.52,1.988-20.97,2.847-31.622,4.389
		c14.313,4.047,34.872,0.596,47.608-6.903c0.928-0.578,1.848-1.165,2.742-1.804C122.283,319.49,116.3,321.225,109.949,322.39z
		 M311.4,185.286c-20.681-9.259-44.857-11.606-66.485-4.17c-4.327,1.34-8.453,3.416-11.93,6.464
		c4.529-0.631,8.593-2.093,12.911-3.32c4.178-1.279,8.479-2.129,12.789-2.724c17.353-2.321,35.056,0.736,51.243,7.235
		c8.243,3.329,15.75,7.735,23.931,11.379C327.973,193.152,319.608,188.956,311.4,185.286z M441.987,261.8
		c-2.803,5.948-3.775,12.474-6.193,18.544c-6.657,18.123-20.375,33.12-37.228,42.413c-7.647,4.222-15.68,7.025-23.703,10.617
		c9.013,0.359,17.598-3.294,25.499-7.279c19.297-9.784,33.803-26.892,39.786-47.748C441.689,273.012,442.916,267.354,441.987,261.8z
		 M464.666,55.707c-0.867,2.286,0.271,4.756,2.602,5.553C468.143,58.965,466.987,56.504,464.666,55.707z M449.678,31.863
		c0.762-1.139,1.183-2.47,1.2-3.863c0.044-3.924-3.11-7.156-7.034-7.209c-1.086,0.009-2.137,0.245-3.092,0.683
		c-2.312,0.07-4.047-1.314-4.047-1.314c0.92,1.454,0.964,3.127,0.815,4.31c-0.561,1.007-0.867,2.155-0.885,3.346
		c-0.018,1.901,0.701,3.705,2.023,5.063c1.331,1.358,3.11,2.12,5.01,2.146h0.088c1.323,0,2.593-0.368,3.697-1.042
		c1.656-0.149,2.803,0.639,2.935,0.727C449.687,33.676,449.599,32.634,449.678,31.863z M449.117,28.035
		c-0.394-1.848-2.023-3.25-3.994-3.276c-0.14,0-0.263,0-0.394,0.018c0.473,0.473,0.762,1.13,0.753,1.857
		c-0.018,1.428-1.191,2.567-2.619,2.549c-0.753-0.009-1.436-0.342-1.901-0.876c-0.026,0.184-0.044,0.368-0.044,0.552
		c-0.026,2.295,1.805,4.17,4.099,4.196c0.123,0.009,0.245-0.018,0.377-0.026c-0.534,0.166-1.112,0.254-1.708,0.245
		c-1.428-0.018-2.768-0.587-3.775-1.621c-0.999-1.025-1.542-2.374-1.524-3.81c0.044-2.935,2.444-5.3,5.369-5.3h0.07
		c2.961,0.035,5.335,2.479,5.3,5.431C449.126,28,449.117,28.018,449.117,28.035z M441.987,261.8
		c-2.803,5.948-3.775,12.474-6.193,18.544c-6.657,18.123-20.375,33.12-37.228,42.413c-7.647,4.222-15.68,7.025-23.703,10.617
		c9.013,0.359,17.598-3.294,25.499-7.279c19.297-9.784,33.803-26.892,39.786-47.748C441.689,273.012,442.916,267.354,441.987,261.8z
		 M279.481,330.212c21.032-0.499,44.148-13.025,56.35-30.115c1.839-2.54,3.381-5.282,4.695-8.103
		C323.935,311.966,303.823,322.346,279.481,330.212z M311.4,185.286c-20.681-9.259-44.857-11.606-66.485-4.17
		c-4.327,1.34-8.453,3.416-11.93,6.464c4.529-0.631,8.593-2.093,12.911-3.32c4.178-1.279,8.479-2.129,12.789-2.724
		c17.353-2.321,35.056,0.736,51.243,7.235c8.243,3.329,15.75,7.735,23.931,11.379C327.973,193.152,319.608,188.956,311.4,185.286z
		 M254.429,392.869c6.272,0.201,13.113-2.4,17.274-7.165C265.597,387.359,259.824,389.54,254.429,392.869z M159.467,351.077
		c-15.837-1.402-31.175-4.914-46.53-9.154c19.026,11.755,48.729,15.863,70.409,10.687c1.568-0.403,3.127-0.815,4.66-1.279
		C178.396,351.629,168.98,351.892,159.467,351.077z M113.427,255.791c1.577-1.244,2.961-2.61,4.397-3.933
		c4.161-3.959,8.295-8.085,12.57-11.904c5.632-5.317,11.589-10.187,17.064-15.706C134.327,228.479,119.252,243.414,113.427,255.791z
		 M109.949,322.39c-10.52,1.988-20.97,2.847-31.622,4.389c14.313,4.047,34.872,0.596,47.608-6.903
		c0.928-0.578,1.848-1.165,2.742-1.804C122.283,319.49,116.3,321.225,109.949,322.39z M109.949,322.39
		c-10.52,1.988-20.97,2.847-31.622,4.389c14.313,4.047,34.872,0.596,47.608-6.903c0.928-0.578,1.848-1.165,2.742-1.804
		C122.283,319.49,116.3,321.225,109.949,322.39z M113.427,255.791c1.577-1.244,2.961-2.61,4.397-3.933
		c4.161-3.959,8.295-8.085,12.57-11.904c5.632-5.317,11.589-10.187,17.064-15.706C134.327,228.479,119.252,243.414,113.427,255.791z
		 M159.467,351.077c-15.837-1.402-31.175-4.914-46.53-9.154c19.026,11.755,48.729,15.863,70.409,10.687
		c1.568-0.403,3.127-0.815,4.66-1.279C178.396,351.629,168.98,351.892,159.467,351.077z M254.429,392.869
		c6.272,0.201,13.113-2.4,17.274-7.165C265.597,387.359,259.824,389.54,254.429,392.869z M311.4,185.286
		c-20.681-9.259-44.857-11.606-66.485-4.17c-4.327,1.34-8.453,3.416-11.93,6.464c4.529-0.631,8.593-2.093,12.911-3.32
		c4.178-1.279,8.479-2.129,12.789-2.724c17.353-2.321,35.056,0.736,51.243,7.235c8.243,3.329,15.75,7.735,23.931,11.379
		C327.973,193.152,319.608,188.956,311.4,185.286z M279.481,330.212c21.032-0.499,44.148-13.025,56.35-30.115
		c1.839-2.54,3.381-5.282,4.695-8.103C323.935,311.966,303.823,322.346,279.481,330.212z M441.987,261.8
		c-2.803,5.948-3.775,12.474-6.193,18.544c-6.657,18.123-20.375,33.12-37.228,42.413c-7.647,4.222-15.68,7.025-23.703,10.617
		c9.013,0.359,17.598-3.294,25.499-7.279c19.297-9.784,33.803-26.892,39.786-47.748C441.689,273.012,442.916,267.354,441.987,261.8z
		 M449.678,31.863c0.762-1.139,1.183-2.47,1.2-3.863c0.044-3.924-3.11-7.156-7.034-7.209c-1.086,0.009-2.137,0.245-3.092,0.683
		c-2.312,0.07-4.047-1.314-4.047-1.314c0.92,1.454,0.964,3.127,0.815,4.31c-0.561,1.007-0.867,2.155-0.885,3.346
		c-0.018,1.901,0.701,3.705,2.023,5.063c1.331,1.358,3.11,2.12,5.01,2.146h0.088c1.323,0,2.593-0.368,3.697-1.042
		c1.656-0.149,2.803,0.639,2.935,0.727C449.687,33.676,449.599,32.634,449.678,31.863z M449.117,28.035
		c-0.394-1.848-2.023-3.25-3.994-3.276c-0.14,0-0.263,0-0.394,0.018c0.473,0.473,0.762,1.13,0.753,1.857
		c-0.018,1.428-1.191,2.567-2.619,2.549c-0.753-0.009-1.436-0.342-1.901-0.876c-0.026,0.184-0.044,0.368-0.044,0.552
		c-0.026,2.295,1.805,4.17,4.099,4.196c0.123,0.009,0.245-0.018,0.377-0.026c-0.534,0.166-1.112,0.254-1.708,0.245
		c-1.428-0.018-2.768-0.587-3.775-1.621c-0.999-1.025-1.542-2.374-1.524-3.81c0.044-2.935,2.444-5.3,5.369-5.3h0.07
		c2.961,0.035,5.335,2.479,5.3,5.431C449.126,28,449.117,28.018,449.117,28.035z M464.666,55.707
		c-0.867,2.286,0.271,4.756,2.602,5.553C468.143,58.965,466.987,56.504,464.666,55.707z M464.666,55.707
		c-0.867,2.286,0.271,4.756,2.602,5.553C468.143,58.965,466.987,56.504,464.666,55.707z M449.678,31.863
		c0.762-1.139,1.183-2.47,1.2-3.863c0.044-3.924-3.11-7.156-7.034-7.209c-1.086,0.009-2.137,0.245-3.092,0.683
		c-2.312,0.07-4.047-1.314-4.047-1.314c0.92,1.454,0.964,3.127,0.815,4.31c-0.561,1.007-0.867,2.155-0.885,3.346
		c-0.018,1.901,0.701,3.705,2.023,5.063c1.331,1.358,3.11,2.12,5.01,2.146h0.088c1.323,0,2.593-0.368,3.697-1.042
		c1.656-0.149,2.803,0.639,2.935,0.727C449.687,33.676,449.599,32.634,449.678,31.863z M449.117,28.035
		c-0.394-1.848-2.023-3.25-3.994-3.276c-0.14,0-0.263,0-0.394,0.018c0.473,0.473,0.762,1.13,0.753,1.857
		c-0.018,1.428-1.191,2.567-2.619,2.549c-0.753-0.009-1.436-0.342-1.901-0.876c-0.026,0.184-0.044,0.368-0.044,0.552
		c-0.026,2.295,1.805,4.17,4.099,4.196c0.123,0.009,0.245-0.018,0.377-0.026c-0.534,0.166-1.112,0.254-1.708,0.245
		c-1.428-0.018-2.768-0.587-3.775-1.621c-0.999-1.025-1.542-2.374-1.524-3.81c0.044-2.935,2.444-5.3,5.369-5.3h0.07
		c2.961,0.035,5.335,2.479,5.3,5.431C449.126,28,449.117,28.018,449.117,28.035z M441.987,261.8
		c-2.803,5.948-3.775,12.474-6.193,18.544c-6.657,18.123-20.375,33.12-37.228,42.413c-7.647,4.222-15.68,7.025-23.703,10.617
		c9.013,0.359,17.598-3.294,25.499-7.279c19.297-9.784,33.803-26.892,39.786-47.748C441.689,273.012,442.916,267.354,441.987,261.8z
		 M279.481,330.212c21.032-0.499,44.148-13.025,56.35-30.115c1.839-2.54,3.381-5.282,4.695-8.103
		C323.935,311.966,303.823,322.346,279.481,330.212z M311.4,185.286c-20.681-9.259-44.857-11.606-66.485-4.17
		c-4.327,1.34-8.453,3.416-11.93,6.464c4.529-0.631,8.593-2.093,12.911-3.32c4.178-1.279,8.479-2.129,12.789-2.724
		c17.353-2.321,35.056,0.736,51.243,7.235c8.243,3.329,15.75,7.735,23.931,11.379C327.973,193.152,319.608,188.956,311.4,185.286z
		 M254.429,392.869c6.272,0.201,13.113-2.4,17.274-7.165C265.597,387.359,259.824,389.54,254.429,392.869z M159.467,351.077
		c-15.837-1.402-31.175-4.914-46.53-9.154c19.026,11.755,48.729,15.863,70.409,10.687c1.568-0.403,3.127-0.815,4.66-1.279
		C178.396,351.629,168.98,351.892,159.467,351.077z M113.427,255.791c1.577-1.244,2.961-2.61,4.397-3.933
		c4.161-3.959,8.295-8.085,12.57-11.904c5.632-5.317,11.589-10.187,17.064-15.706C134.327,228.479,119.252,243.414,113.427,255.791z
		 M109.949,322.39c-10.52,1.988-20.97,2.847-31.622,4.389c14.313,4.047,34.872,0.596,47.608-6.903
		c0.928-0.578,1.848-1.165,2.742-1.804C122.283,319.49,116.3,321.225,109.949,322.39z M109.949,322.39
		c-10.52,1.988-20.97,2.847-31.622,4.389c14.313,4.047,34.872,0.596,47.608-6.903c0.928-0.578,1.848-1.165,2.742-1.804
		C122.283,319.49,116.3,321.225,109.949,322.39z M113.427,255.791c1.577-1.244,2.961-2.61,4.397-3.933
		c4.161-3.959,8.295-8.085,12.57-11.904c5.632-5.317,11.589-10.187,17.064-15.706C134.327,228.479,119.252,243.414,113.427,255.791z
		 M159.467,351.077c-15.837-1.402-31.175-4.914-46.53-9.154c19.026,11.755,48.729,15.863,70.409,10.687
		c1.568-0.403,3.127-0.815,4.66-1.279C178.396,351.629,168.98,351.892,159.467,351.077z M254.429,392.869
		c6.272,0.201,13.113-2.4,17.274-7.165C265.597,387.359,259.824,389.54,254.429,392.869z M311.4,185.286
		c-20.681-9.259-44.857-11.606-66.485-4.17c-4.327,1.34-8.453,3.416-11.93,6.464c4.529-0.631,8.593-2.093,12.911-3.32
		c4.178-1.279,8.479-2.129,12.789-2.724c17.353-2.321,35.056,0.736,51.243,7.235c8.243,3.329,15.75,7.735,23.931,11.379
		C327.973,193.152,319.608,188.956,311.4,185.286z M279.481,330.212c21.032-0.499,44.148-13.025,56.35-30.115
		c1.839-2.54,3.381-5.282,4.695-8.103C323.935,311.966,303.823,322.346,279.481,330.212z M441.987,261.8
		c-2.803,5.948-3.775,12.474-6.193,18.544c-6.657,18.123-20.375,33.12-37.228,42.413c-7.647,4.222-15.68,7.025-23.703,10.617
		c9.013,0.359,17.598-3.294,25.499-7.279c19.297-9.784,33.803-26.892,39.786-47.748C441.689,273.012,442.916,267.354,441.987,261.8z
		 M449.678,31.863c0.762-1.139,1.183-2.47,1.2-3.863c0.044-3.924-3.11-7.156-7.034-7.209c-1.086,0.009-2.137,0.245-3.092,0.683
		c-2.312,0.07-4.047-1.314-4.047-1.314c0.92,1.454,0.964,3.127,0.815,4.31c-0.561,1.007-0.867,2.155-0.885,3.346
		c-0.018,1.901,0.701,3.705,2.023,5.063c1.331,1.358,3.11,2.12,5.01,2.146h0.088c1.323,0,2.593-0.368,3.697-1.042
		c1.656-0.149,2.803,0.639,2.935,0.727C449.687,33.676,449.599,32.634,449.678,31.863z M449.117,28.035
		c-0.394-1.848-2.023-3.25-3.994-3.276c-0.14,0-0.263,0-0.394,0.018c0.473,0.473,0.762,1.13,0.753,1.857
		c-0.018,1.428-1.191,2.567-2.619,2.549c-0.753-0.009-1.436-0.342-1.901-0.876c-0.026,0.184-0.044,0.368-0.044,0.552
		c-0.026,2.295,1.805,4.17,4.099,4.196c0.123,0.009,0.245-0.018,0.377-0.026c-0.534,0.166-1.112,0.254-1.708,0.245
		c-1.428-0.018-2.768-0.587-3.775-1.621c-0.999-1.025-1.542-2.374-1.524-3.81c0.044-2.935,2.444-5.3,5.369-5.3h0.07
		c2.961,0.035,5.335,2.479,5.3,5.431C449.126,28,449.117,28.018,449.117,28.035z M464.666,55.707
		c-0.867,2.286,0.271,4.756,2.602,5.553C468.143,58.965,466.987,56.504,464.666,55.707z M464.666,55.707
		c-0.867,2.286,0.271,4.756,2.602,5.553C468.143,58.965,466.987,56.504,464.666,55.707z M449.678,31.863
		c0.762-1.139,1.183-2.47,1.2-3.863c0.044-3.924-3.11-7.156-7.034-7.209c-1.086,0.009-2.137,0.245-3.092,0.683
		c-2.312,0.07-4.047-1.314-4.047-1.314c0.92,1.454,0.964,3.127,0.815,4.31c-0.561,1.007-0.867,2.155-0.885,3.346
		c-0.018,1.901,0.701,3.705,2.023,5.063c1.331,1.358,3.11,2.12,5.01,2.146h0.088c1.323,0,2.593-0.368,3.697-1.042
		c1.656-0.149,2.803,0.639,2.935,0.727C449.687,33.676,449.599,32.634,449.678,31.863z M449.117,28.035
		c-0.394-1.848-2.023-3.25-3.994-3.276c-0.14,0-0.263,0-0.394,0.018c0.473,0.473,0.762,1.13,0.753,1.857
		c-0.018,1.428-1.191,2.567-2.619,2.549c-0.753-0.009-1.436-0.342-1.901-0.876c-0.026,0.184-0.044,0.368-0.044,0.552
		c-0.026,2.295,1.805,4.17,4.099,4.196c0.123,0.009,0.245-0.018,0.377-0.026c-0.534,0.166-1.112,0.254-1.708,0.245
		c-1.428-0.018-2.768-0.587-3.775-1.621c-0.999-1.025-1.542-2.374-1.524-3.81c0.044-2.935,2.444-5.3,5.369-5.3h0.07
		c2.961,0.035,5.335,2.479,5.3,5.431C449.126,28,449.117,28.018,449.117,28.035z M435.794,280.344
		c-6.657,18.123-20.375,33.12-37.228,42.413c-7.647,4.222-15.68,7.025-23.703,10.617c9.013,0.359,17.598-3.294,25.499-7.279
		c19.297-9.784,33.803-26.892,39.786-47.748c1.542-5.335,2.768-10.993,1.839-16.547
		C439.184,267.748,438.212,274.274,435.794,280.344z M279.481,330.212c21.032-0.499,44.148-13.025,56.35-30.115
		c1.839-2.54,3.381-5.282,4.695-8.103C323.935,311.966,303.823,322.346,279.481,330.212z M333.86,200.151
		c-5.886-6.999-14.252-11.195-22.459-14.865c-20.681-9.259-44.857-11.606-66.485-4.17c-4.327,1.34-8.453,3.416-11.93,6.464
		c4.529-0.631,8.593-2.093,12.911-3.32c4.178-1.279,8.479-2.129,12.789-2.724c17.353-2.321,35.056,0.736,51.243,7.235
		C318.172,192.101,325.678,196.507,333.86,200.151z M271.702,385.703c-6.105,1.656-11.878,3.837-17.274,7.165
		C260.7,393.07,267.542,390.469,271.702,385.703z M159.467,351.077c-15.837-1.402-31.175-4.914-46.53-9.154
		c19.026,11.755,48.729,15.863,70.409,10.687c1.568-0.403,3.127-0.815,4.66-1.279C178.396,351.629,168.98,351.892,159.467,351.077z
		 M130.394,239.954c5.632-5.317,11.589-10.187,17.064-15.706c-13.13,4.231-28.206,19.166-34.031,31.543
		c1.577-1.244,2.961-2.61,4.397-3.933C121.985,247.899,126.119,243.773,130.394,239.954z M128.677,318.071
		c-6.394,1.419-12.377,3.153-18.728,4.318c-10.52,1.988-20.97,2.847-31.622,4.389c14.313,4.047,34.872,0.596,47.608-6.903
		C126.864,319.298,127.784,318.711,128.677,318.071z M483.656,76.265c-10.582-15.758-13.139-33.461-13.288-34.556
		c0.762-7.051-0.307-14.217-3.302-20.681c-6.158-13.709-21.382-19.84-35.485-20.743c-51.261-3.6-97.598,27.12-108.233,78.468
		c-9.443,38.936,3.626,77.504,16.074,114.224c-20.086-15.452-44.7-25.525-70.321-24.728l-5.615,0.263
		c-2.794,0.315-5.588,0.631-8.365,1.051c-2.54,0.552-5.737,1.051-8.243,1.726c-5.396,1.401-10.765,3.162-15.925,5.282
		c-1.717,0.771-6,2.68-7.638,3.434c-3.749,2.006-8.593,4.432-12.114,6.815l-4.704,2.961l0.096,0.149
		c-1.612-0.035-3.232,0-4.827,0.088c-17.747,0.78-33.777,9.872-44.498,23.896c-2.856,0.201-5.72,0.517-8.514,1.218
		c-12.517,2.786-23.537,10.529-31.63,20.331c-1.91,2.453-3.828,4.993-5.571,7.647c-4.616,0.306-9.04,1.936-13.253,3.802
		c-9.635,4.494-17.983,11.265-25.534,18.605c-7.954,8.067-15.828,17.02-25.341,23.292c-9.635,6.622-21.067,11.676-32.927,11.536
		c-1.734-0.018-3.53-0.184-5.203-0.569L0,297.18c3.618,3.11,9.233,8.392,13.183,10.949c12.675,8.689,27.47,13.945,42.676,15.627
		c0.841,0.815,1.734,1.568,2.68,2.295c10.406,7.647,22.792,10.336,35.345,9.942c1.27,1.656,2.645,3.153,4.143,4.625
		c21.049,19.937,51.804,23.747,79.703,20.725c2.102,1.936,4.353,3.6,6.762,5.151c11.895,7.682,25.779,11.729,39.646,13.901
		c2.584,0.394,5.186,0.674,7.787,0.867c3.101,5.807,7.586,10.739,13.017,14.208c3.232,6.867,5.326,14.243,5.405,21.864
		c0.105,8.243-1.27,16.372,0.885,24.728c4.476,19.324,27.058,19.63,43.106,19.061c12.5-0.254,28.188-0.613,40.574-0.219
		c-3.661-2.225-9.416-5.475-12.789-8.067c-1.708-1.375-3.968-2.978-4.879-4.905c2.444-1.042,5.702-0.631,8.497-0.526l8.83,0.613
		c-3.25-1.901-9.04-5.965-12.491-7.297c-0.07-0.026-0.149-0.052-0.228-0.087c-9.329-13.674-22.967-12.123-34.013-10.862
		c-6.026,0.692-11.23,1.288-14.331-0.674c-7.262-4.581-6.473-24.369-5.448-32.743c1.393-0.753,2.742-1.586,4.091-2.426
		c7.524-4.809,14.436-10.722,19.192-18.448c11.589-5.413,22.021-14.068,32.892-20.471c9.819-5.843,20.813-9.049,32.156-10.59
		c25.114-0.745,50.919-7.568,69.253-25.446c13.814-13.288,21.706-31.578,24.763-50.297c3.118-19.017-2.847-38.516-12.912-54.537
		c-6.211-9.977-13.814-19.052-22.065-27.382c-2.838-2.926-7.13-6.824-10.161-9.627c-15.136-13.586-27.601-30.431-35.108-49.307
		c-9.224-22.626-13.052-57.532,9.031-73.79c3.495-2.479,7.551-4.099,11.79-4.967c4.24-0.832,8.619-0.85,12.92-0.35
		c0.394,0.455,0.788,0.902,1.191,1.331c9.583,9.933,23.037,16.591,36.904,17.177c1.997,1.27,7.673,5.01,12.255,9.206l1.174,1.086
		c6.21,5.711,11.387,10.476,15.084,10.476c0.42,0,0.815-0.07,1.191-0.201c1.463,1.437,2.864,2.663,4.117,3.574
		c3.74,2.698,6.964,4.073,9.434,4.073c1.358,0,2.496-0.412,3.363-1.261C491.505,91.393,489.884,85.533,483.656,76.265z
		 M271.168,432.803c4.406,2.777,10.608,2.067,17.169,1.323c9.031-1.034,18.298-2.085,25.683,4.213
		c-9.741-1.936-20.804-0.955-28.468,4.774c7.025-0.193,13.455-1.366,20.322-0.815c3.25,0.245,6.464,0.771,9.618,1.559
		c-0.499,0.245-1.007,0.561-1.524,1.016c-1.787,1.559-1.34,4.423-0.123,6.018c1.612,2.172,3.53,3.898,5.597,5.448h-0.85
		c-5.177,0.035-18.999,0.298-24.351,0.403c-11.475,0.175-28.363,1.025-35.818-9.136c-7.524-11.501-1.734-26.016-4.511-38.761
		c-0.622-3.609-1.682-7.121-3.004-10.538c4.064,1.191,8.462,1.209,12.517,0c0.009,0,0.009,0,0.017-0.009
		C262.645,406.726,261.795,426.891,271.168,432.803z M448.32,58.545c-0.508,1.498-1.147,2.934-1.953,4.248
		c-4.389-0.166-8.908-0.937-13.157-2.076c-9.39-2.505-18.001-7.235-25.411-13.533c-1.077-0.885-2.128-1.796-3.18-2.715
		c0-0.009,0.009-0.079,0.009-0.079c-0.035,0-0.07-0.009-0.105-0.009c-2.628-2.312-5.212-4.739-7.884-7.227
		c0.981,2.391,2.216,4.678,3.653,6.841c-3.39-0.184-6.806-0.026-10.17,0.596c-9.732,1.673-18.561,7.743-23.835,16.083
		c-7.936,12.237-9.487,27.566-8.006,41.66c3.276,29.511,19.499,56.359,40.775,76.444c19.166,17.099,37.824,37.351,44.577,62.736
		c3.618,13.008,2.584,26.716-1.402,39.523c-6.026,21.741-21.303,40.381-42.107,49.456c-13.612,6.193-28.582,8.917-43.552,9.487
		v-0.009c-0.018,0.009-0.035,0.009-0.052,0.009c-3.153,0.114-6.307,0.149-9.451,0.088c-9.259-0.245-18.185-1.34-27.549-0.823
		c5.431,2.68,11.238,3.915,17.142,4.546c-1.331,0.438-2.654,0.893-3.959,1.41c-15.233,5.72-26.892,17.484-40.714,25.236
		c-1.007,0.552-2.023,1.086-3.048,1.612c-0.114-0.061-0.499-0.272-0.499-0.272c-0.131,0.245-0.28,0.491-0.421,0.736
		c-5.597,2.812-11.379,5.238-17.317,8.067c4.642-0.044,9.04-0.85,13.253-2.19c-4.87,5.886-11.3,10.617-17.887,14.366
		c-5.282,3.031-12.062,3.18-17.414,0.324c-0.018-0.044-0.035-0.088-0.061-0.131c0,0-0.035,0.018-0.079,0.044
		c-0.701-0.377-1.375-0.806-2.015-1.288c-3.828-2.794-7.192-6.237-9.539-10.205c4.748,0.096,9.495-0.175,14.19-0.92
		c-5.606-1.244-11.168-2.015-16.775-2.978c-3.153-0.517-6.316-1.13-9.46-1.664c-12.333-2.654-24.868-6.324-35.896-12.57
		c7.498,1.507,15.189,2.277,22.906,2.102c19.542-0.149,39.251-7.761,52.969-21.89c1.752-1.761,3.434-3.626,5.002-5.589
		c9.329,0.254,18.763-0.692,27.899-3.075c18.395-4.581,35.029-16.205,45.322-32.13c5.159-7.787,9.04-16.766,9.521-26.173
		c-9.478,21.435-21.592,39.032-43.631,48.817c-11.265,5.089-23.475,7.375-35.818,8.041c2.935-4.502,5.194-9.425,6.289-14.707
		c-11.694,17.58-24.903,31.718-45.628,38.008c-13.577,4.152-27.89,4.318-41.897,2.33c4.783-1.077,9.46-2.566,13.884-4.756
		c-7.498-0.009-14.812,1.112-22.205,2.041c-7.297,0.788-14.655,1.244-21.969,1.077c-21.96-0.412-46.084-5.983-61.982-21.855
		c10.117-1.051,20.164-3.915,29.204-7.647c3.399-1.594,6.605-3.504,9.381-6.088c-7.358,0.622-14.068,3.486-21.119,5.343
		c-6.876,1.743-13.91,3.04-20.988,3.381c-10.774,0.499-22.161-1.042-31.604-6.272c8.935,0.184,17.887-0.841,26.541-3.127
		c9.39-2.531,19.157-5.483,26.498-12.167c-8.348,1.472-15.907,5.037-24.08,7.051c-10.222,2.54-20.918,3.793-31.438,3.083
		c-14.024-0.78-27.855-4.8-40.259-11.37c-1.769-0.963-3.539-1.997-5.273-3.083c4.021-0.123,8.032-0.841,11.869-1.918
		c14.085-3.933,26.331-12.885,36.623-23.037c3.11-3.127,7.7-8.068,10.792-11.116c3.53-3.442,7.507-6.99,11.484-9.942
		c5.545-4.126,11.449-7.691,17.975-9.854c1.086-0.333,2.242-0.648,3.407-0.902c-2.041,3.924-3.495,8.094-3.819,12.596
		c5.851-7.367,9.723-15.136,15.969-21.881c7.752-8.768,17.791-15.671,29.125-18.719c1.165-0.342,2.356-0.613,3.548-0.858
		c-2.023,3.188-3.6,6.631-4.126,10.459c5.151-4.178,8.392-9.811,12.903-14.523c10.433-11.089,24.588-18.579,39.856-19.989
		c7.376-0.674,14.436-0.166,21.969-0.289c-3.188-2.137-6.736-3.407-10.424-4.099c3.477-2.155,8.111-4.397,11.729-6.254
		c35.607-16.59,71.267-14.024,104.317,7.349c12.333,7.779,22.31,18.036,33.505,27.47c-3.25-6.719-8.19-12.412-13.56-17.51
		c-1.296-1.209-2.619-2.4-3.968-3.574c-8.488-25.648-18.097-51.471-20.751-78.433c-3.005-32.979,6.21-68.955,31.955-91.186
		c15.058-13.271,34.398-21.242,54.3-23.44c12.903-1.305,27.093-1.524,38.848,4.45c11.335,5.492,17.011,18.009,16.153,30.185
		c-5.37-0.289-10.818-1.612-15.39-4.406c0.333,3.057,0.079,6.254-0.14,9.32c-0.447,4.205-0.832,8.9-2.111,13.122l-0.561,0.385
		C448.057,58.177,448.163,58.326,448.32,58.545z M458.385,74.294l-1.174-1.086c-2.716-2.488-5.729-4.783-8.234-6.561
		c0.937-1.279,1.647-2.672,2.19-4.073c3.048,4.24,7.901,10.818,12.885,16.792C462.055,77.667,459.997,75.775,458.385,74.294z
		 M485.557,91.025c-0.482,0.131-2.803-0.053-7.174-3.206c-7.796-5.641-21.872-25.236-25.735-30.737
		c1.06-5.624,1.279-11.3,1.165-17.011c3.889,2.041,8.111,3.127,12.447,3.758c0.85,5.01,4.099,20.506,13.761,34.88
		C486.144,87.828,485.68,90.64,485.557,91.025z M464.666,55.707c-0.867,2.286,0.271,4.756,2.602,5.553
		C468.143,58.965,466.987,56.504,464.666,55.707z M449.678,31.863c0.762-1.139,1.183-2.47,1.2-3.863
		c0.044-3.924-3.11-7.156-7.034-7.209c-1.086,0.009-2.137,0.245-3.092,0.683c-2.312,0.07-4.047-1.314-4.047-1.314
		c0.92,1.454,0.964,3.127,0.815,4.31c-0.561,1.007-0.867,2.155-0.885,3.346c-0.018,1.901,0.701,3.705,2.023,5.063
		c1.331,1.358,3.11,2.12,5.01,2.146h0.088c1.323,0,2.593-0.368,3.697-1.042c1.656-0.149,2.803,0.639,2.935,0.727
		C449.687,33.676,449.599,32.634,449.678,31.863z M449.117,28.035c-0.394-1.848-2.023-3.25-3.994-3.276c-0.14,0-0.263,0-0.394,0.018
		c0.473,0.473,0.762,1.13,0.753,1.857c-0.018,1.428-1.191,2.567-2.619,2.549c-0.753-0.009-1.436-0.342-1.901-0.876
		c-0.026,0.184-0.044,0.368-0.044,0.552c-0.026,2.295,1.805,4.17,4.099,4.196c0.123,0.009,0.245-0.018,0.377-0.026
		c-0.534,0.166-1.112,0.254-1.708,0.245c-1.428-0.018-2.768-0.587-3.775-1.621c-0.999-1.025-1.542-2.374-1.524-3.81
		c0.044-2.935,2.444-5.3,5.369-5.3h0.07c2.961,0.035,5.335,2.479,5.3,5.431C449.126,28,449.117,28.018,449.117,28.035z
		 M400.362,326.095c19.297-9.784,33.803-26.892,39.786-47.748c1.542-5.335,2.768-10.993,1.839-16.547
		c-2.803,5.948-3.775,12.474-6.193,18.544c-6.657,18.123-20.375,33.12-37.228,42.413c-7.647,4.222-15.68,7.025-23.703,10.617
		C383.877,333.733,392.461,330.081,400.362,326.095z M279.481,330.212c21.032-0.499,44.148-13.025,56.35-30.115
		c1.839-2.54,3.381-5.282,4.695-8.103C323.935,311.966,303.823,322.346,279.481,330.212z M333.86,200.151
		c-5.886-6.999-14.252-11.195-22.459-14.865c-20.681-9.259-44.857-11.606-66.485-4.17c-4.327,1.34-8.453,3.416-11.93,6.464
		c4.529-0.631,8.593-2.093,12.911-3.32c4.178-1.279,8.479-2.129,12.789-2.724c17.353-2.321,35.056,0.736,51.243,7.235
		C318.172,192.101,325.678,196.507,333.86,200.151z M271.702,385.703c-6.105,1.656-11.878,3.837-17.274,7.165
		C260.7,393.07,267.542,390.469,271.702,385.703z M159.467,351.077c-15.837-1.402-31.175-4.914-46.53-9.154
		c19.026,11.755,48.729,15.863,70.409,10.687c1.568-0.403,3.127-0.815,4.66-1.279C178.396,351.629,168.98,351.892,159.467,351.077z
		 M113.427,255.791c1.577-1.244,2.961-2.61,4.397-3.933c4.161-3.959,8.295-8.085,12.57-11.904
		c5.632-5.317,11.589-10.187,17.064-15.706C134.327,228.479,119.252,243.414,113.427,255.791z M78.328,326.778
		c14.313,4.047,34.872,0.596,47.608-6.903c0.928-0.578,1.848-1.165,2.742-1.804c-6.394,1.419-12.377,3.153-18.728,4.318
		C99.429,324.378,88.979,325.237,78.328,326.778z M109.949,322.39c-10.52,1.988-20.97,2.847-31.622,4.389
		c14.313,4.047,34.872,0.596,47.608-6.903c0.928-0.578,1.848-1.165,2.742-1.804C122.283,319.49,116.3,321.225,109.949,322.39z
		 M113.427,255.791c1.577-1.244,2.961-2.61,4.397-3.933c4.161-3.959,8.295-8.085,12.57-11.904
		c5.632-5.317,11.589-10.187,17.064-15.706C134.327,228.479,119.252,243.414,113.427,255.791z M159.467,351.077
		c-15.837-1.402-31.175-4.914-46.53-9.154c19.026,11.755,48.729,15.863,70.409,10.687c1.568-0.403,3.127-0.815,4.66-1.279
		C178.396,351.629,168.98,351.892,159.467,351.077z M254.429,392.869c6.272,0.201,13.113-2.4,17.274-7.165
		C265.597,387.359,259.824,389.54,254.429,392.869z M311.4,185.286c-20.681-9.259-44.857-11.606-66.485-4.17
		c-4.327,1.34-8.453,3.416-11.93,6.464c4.529-0.631,8.593-2.093,12.911-3.32c4.178-1.279,8.479-2.129,12.789-2.724
		c17.353-2.321,35.056,0.736,51.243,7.235c8.243,3.329,15.75,7.735,23.931,11.379C327.973,193.152,319.608,188.956,311.4,185.286z
		 M279.481,330.212c21.032-0.499,44.148-13.025,56.35-30.115c1.839-2.54,3.381-5.282,4.695-8.103
		C323.935,311.966,303.823,322.346,279.481,330.212z M441.987,261.8c-2.803,5.948-3.775,12.474-6.193,18.544
		c-6.657,18.123-20.375,33.12-37.228,42.413c-7.647,4.222-15.68,7.025-23.703,10.617c9.013,0.359,17.598-3.294,25.499-7.279
		c19.297-9.784,33.803-26.892,39.786-47.748C441.689,273.012,442.916,267.354,441.987,261.8z M449.678,31.863
		c0.762-1.139,1.183-2.47,1.2-3.863c0.044-3.924-3.11-7.156-7.034-7.209c-1.086,0.009-2.137,0.245-3.092,0.683
		c-2.312,0.07-4.047-1.314-4.047-1.314c0.92,1.454,0.964,3.127,0.815,4.31c-0.561,1.007-0.867,2.155-0.885,3.346
		c-0.018,1.901,0.701,3.705,2.023,5.063c1.331,1.358,3.11,2.12,5.01,2.146h0.088c1.323,0,2.593-0.368,3.697-1.042
		c1.656-0.149,2.803,0.639,2.935,0.727C449.687,33.676,449.599,32.634,449.678,31.863z M449.117,28.035
		c-0.394-1.848-2.023-3.25-3.994-3.276c-0.14,0-0.263,0-0.394,0.018c0.473,0.473,0.762,1.13,0.753,1.857
		c-0.018,1.428-1.191,2.567-2.619,2.549c-0.753-0.009-1.436-0.342-1.901-0.876c-0.026,0.184-0.044,0.368-0.044,0.552
		c-0.026,2.295,1.805,4.17,4.099,4.196c0.123,0.009,0.245-0.018,0.377-0.026c-0.534,0.166-1.112,0.254-1.708,0.245
		c-1.428-0.018-2.768-0.587-3.775-1.621c-0.999-1.025-1.542-2.374-1.524-3.81c0.044-2.935,2.444-5.3,5.369-5.3h0.07
		c2.961,0.035,5.335,2.479,5.3,5.431C449.126,28,449.117,28.018,449.117,28.035z M464.666,55.707
		c-0.867,2.286,0.271,4.756,2.602,5.553C468.143,58.965,466.987,56.504,464.666,55.707z M464.666,55.707
		c-0.867,2.286,0.271,4.756,2.602,5.553C468.143,58.965,466.987,56.504,464.666,55.707z M449.678,31.863
		c0.762-1.139,1.183-2.47,1.2-3.863c0.044-3.924-3.11-7.156-7.034-7.209c-1.086,0.009-2.137,0.245-3.092,0.683
		c-2.312,0.07-4.047-1.314-4.047-1.314c0.92,1.454,0.964,3.127,0.815,4.31c-0.561,1.007-0.867,2.155-0.885,3.346
		c-0.018,1.901,0.701,3.705,2.023,5.063c1.331,1.358,3.11,2.12,5.01,2.146h0.088c1.323,0,2.593-0.368,3.697-1.042
		c1.656-0.149,2.803,0.639,2.935,0.727C449.687,33.676,449.599,32.634,449.678,31.863z M449.117,28.035
		c-0.394-1.848-2.023-3.25-3.994-3.276c-0.14,0-0.263,0-0.394,0.018c0.473,0.473,0.762,1.13,0.753,1.857
		c-0.018,1.428-1.191,2.567-2.619,2.549c-0.753-0.009-1.436-0.342-1.901-0.876c-0.026,0.184-0.044,0.368-0.044,0.552
		c-0.026,2.295,1.805,4.17,4.099,4.196c0.123,0.009,0.245-0.018,0.377-0.026c-0.534,0.166-1.112,0.254-1.708,0.245
		c-1.428-0.018-2.768-0.587-3.775-1.621c-0.999-1.025-1.542-2.374-1.524-3.81c0.044-2.935,2.444-5.3,5.369-5.3h0.07
		c2.961,0.035,5.335,2.479,5.3,5.431C449.126,28,449.117,28.018,449.117,28.035z M441.987,261.8
		c-2.803,5.948-3.775,12.474-6.193,18.544c-6.657,18.123-20.375,33.12-37.228,42.413c-7.647,4.222-15.68,7.025-23.703,10.617
		c9.013,0.359,17.598-3.294,25.499-7.279c19.297-9.784,33.803-26.892,39.786-47.748C441.689,273.012,442.916,267.354,441.987,261.8z
		 M279.481,330.212c21.032-0.499,44.148-13.025,56.35-30.115c1.839-2.54,3.381-5.282,4.695-8.103
		C323.935,311.966,303.823,322.346,279.481,330.212z M311.4,185.286c-20.681-9.259-44.857-11.606-66.485-4.17
		c-4.327,1.34-8.453,3.416-11.93,6.464c4.529-0.631,8.593-2.093,12.911-3.32c4.178-1.279,8.479-2.129,12.789-2.724
		c17.353-2.321,35.056,0.736,51.243,7.235c8.243,3.329,15.75,7.735,23.931,11.379C327.973,193.152,319.608,188.956,311.4,185.286z
		 M254.429,392.869c6.272,0.201,13.113-2.4,17.274-7.165C265.597,387.359,259.824,389.54,254.429,392.869z M159.467,351.077
		c-15.837-1.402-31.175-4.914-46.53-9.154c19.026,11.755,48.729,15.863,70.409,10.687c1.568-0.403,3.127-0.815,4.66-1.279
		C178.396,351.629,168.98,351.892,159.467,351.077z M113.427,255.791c1.577-1.244,2.961-2.61,4.397-3.933
		c4.161-3.959,8.295-8.085,12.57-11.904c5.632-5.317,11.589-10.187,17.064-15.706C134.327,228.479,119.252,243.414,113.427,255.791z
		 M109.949,322.39c-10.52,1.988-20.97,2.847-31.622,4.389c14.313,4.047,34.872,0.596,47.608-6.903
		c0.928-0.578,1.848-1.165,2.742-1.804C122.283,319.49,116.3,321.225,109.949,322.39z M109.949,322.39
		c-10.52,1.988-20.97,2.847-31.622,4.389c14.313,4.047,34.872,0.596,47.608-6.903c0.928-0.578,1.848-1.165,2.742-1.804
		C122.283,319.49,116.3,321.225,109.949,322.39z M113.427,255.791c1.577-1.244,2.961-2.61,4.397-3.933
		c4.161-3.959,8.295-8.085,12.57-11.904c5.632-5.317,11.589-10.187,17.064-15.706C134.327,228.479,119.252,243.414,113.427,255.791z
		 M159.467,351.077c-15.837-1.402-31.175-4.914-46.53-9.154c19.026,11.755,48.729,15.863,70.409,10.687
		c1.568-0.403,3.127-0.815,4.66-1.279C178.396,351.629,168.98,351.892,159.467,351.077z M254.429,392.869
		c6.272,0.201,13.113-2.4,17.274-7.165C265.597,387.359,259.824,389.54,254.429,392.869z M311.4,185.286
		c-20.681-9.259-44.857-11.606-66.485-4.17c-4.327,1.34-8.453,3.416-11.93,6.464c4.529-0.631,8.593-2.093,12.911-3.32
		c4.178-1.279,8.479-2.129,12.789-2.724c17.353-2.321,35.056,0.736,51.243,7.235c8.243,3.329,15.75,7.735,23.931,11.379
		C327.973,193.152,319.608,188.956,311.4,185.286z M279.481,330.212c21.032-0.499,44.148-13.025,56.35-30.115
		c1.839-2.54,3.381-5.282,4.695-8.103C323.935,311.966,303.823,322.346,279.481,330.212z M441.987,261.8
		c-2.803,5.948-3.775,12.474-6.193,18.544c-6.657,18.123-20.375,33.12-37.228,42.413c-7.647,4.222-15.68,7.025-23.703,10.617
		c9.013,0.359,17.598-3.294,25.499-7.279c19.297-9.784,33.803-26.892,39.786-47.748C441.689,273.012,442.916,267.354,441.987,261.8z
		 M449.678,31.863c0.762-1.139,1.183-2.47,1.2-3.863c0.044-3.924-3.11-7.156-7.034-7.209c-1.086,0.009-2.137,0.245-3.092,0.683
		c-2.312,0.07-4.047-1.314-4.047-1.314c0.92,1.454,0.964,3.127,0.815,4.31c-0.561,1.007-0.867,2.155-0.885,3.346
		c-0.018,1.901,0.701,3.705,2.023,5.063c1.331,1.358,3.11,2.12,5.01,2.146h0.088c1.323,0,2.593-0.368,3.697-1.042
		c1.656-0.149,2.803,0.639,2.935,0.727C449.687,33.676,449.599,32.634,449.678,31.863z M449.117,28.035
		c-0.394-1.848-2.023-3.25-3.994-3.276c-0.14,0-0.263,0-0.394,0.018c0.473,0.473,0.762,1.13,0.753,1.857
		c-0.018,1.428-1.191,2.567-2.619,2.549c-0.753-0.009-1.436-0.342-1.901-0.876c-0.026,0.184-0.044,0.368-0.044,0.552
		c-0.026,2.295,1.805,4.17,4.099,4.196c0.123,0.009,0.245-0.018,0.377-0.026c-0.534,0.166-1.112,0.254-1.708,0.245
		c-1.428-0.018-2.768-0.587-3.775-1.621c-0.999-1.025-1.542-2.374-1.524-3.81c0.044-2.935,2.444-5.3,5.369-5.3h0.07
		c2.961,0.035,5.335,2.479,5.3,5.431C449.126,28,449.117,28.018,449.117,28.035z M464.666,55.707
		c-0.867,2.286,0.271,4.756,2.602,5.553C468.143,58.965,466.987,56.504,464.666,55.707z M464.666,55.707
		c-0.867,2.286,0.271,4.756,2.602,5.553C468.143,58.965,466.987,56.504,464.666,55.707z M449.678,31.863
		c0.762-1.139,1.183-2.47,1.2-3.863c0.044-3.924-3.11-7.156-7.034-7.209c-1.086,0.009-2.137,0.245-3.092,0.683
		c-2.312,0.07-4.047-1.314-4.047-1.314c0.92,1.454,0.964,3.127,0.815,4.31c-0.561,1.007-0.867,2.155-0.885,3.346
		c-0.018,1.901,0.701,3.705,2.023,5.063c1.331,1.358,3.11,2.12,5.01,2.146h0.088c1.323,0,2.593-0.368,3.697-1.042
		c1.656-0.149,2.803,0.639,2.935,0.727C449.687,33.676,449.599,32.634,449.678,31.863z M449.117,28.035
		c-0.394-1.848-2.023-3.25-3.994-3.276c-0.14,0-0.263,0-0.394,0.018c0.473,0.473,0.762,1.13,0.753,1.857
		c-0.018,1.428-1.191,2.567-2.619,2.549c-0.753-0.009-1.436-0.342-1.901-0.876c-0.026,0.184-0.044,0.368-0.044,0.552
		c-0.026,2.295,1.805,4.17,4.099,4.196c0.123,0.009,0.245-0.018,0.377-0.026c-0.534,0.166-1.112,0.254-1.708,0.245
		c-1.428-0.018-2.768-0.587-3.775-1.621c-0.999-1.025-1.542-2.374-1.524-3.81c0.044-2.935,2.444-5.3,5.369-5.3h0.07
		c2.961,0.035,5.335,2.479,5.3,5.431C449.126,28,449.117,28.018,449.117,28.035z M441.987,261.8
		c-2.803,5.948-3.775,12.474-6.193,18.544c-6.657,18.123-20.375,33.12-37.228,42.413c-7.647,4.222-15.68,7.025-23.703,10.617
		c9.013,0.359,17.598-3.294,25.499-7.279c19.297-9.784,33.803-26.892,39.786-47.748C441.689,273.012,442.916,267.354,441.987,261.8z
		 M279.481,330.212c21.032-0.499,44.148-13.025,56.35-30.115c1.839-2.54,3.381-5.282,4.695-8.103
		C323.935,311.966,303.823,322.346,279.481,330.212z M311.4,185.286c-20.681-9.259-44.857-11.606-66.485-4.17
		c-4.327,1.34-8.453,3.416-11.93,6.464c4.529-0.631,8.593-2.093,12.911-3.32c4.178-1.279,8.479-2.129,12.789-2.724
		c17.353-2.321,35.056,0.736,51.243,7.235c8.243,3.329,15.75,7.735,23.931,11.379C327.973,193.152,319.608,188.956,311.4,185.286z
		 M254.429,392.869c6.272,0.201,13.113-2.4,17.274-7.165C265.597,387.359,259.824,389.54,254.429,392.869z M159.467,351.077
		c-15.837-1.402-31.175-4.914-46.53-9.154c19.026,11.755,48.729,15.863,70.409,10.687c1.568-0.403,3.127-0.815,4.66-1.279
		C178.396,351.629,168.98,351.892,159.467,351.077z M113.427,255.791c1.577-1.244,2.961-2.61,4.397-3.933
		c4.161-3.959,8.295-8.085,12.57-11.904c5.632-5.317,11.589-10.187,17.064-15.706C134.327,228.479,119.252,243.414,113.427,255.791z
		 M109.949,322.39c-10.52,1.988-20.97,2.847-31.622,4.389c14.313,4.047,34.872,0.596,47.608-6.903
		c0.928-0.578,1.848-1.165,2.742-1.804C122.283,319.49,116.3,321.225,109.949,322.39z"/>
</g>
</svg>
