<svg width="45" height="35" viewBox="0 0 45 35" fill="none" xmlns="http://www.w3.org/2000/svg">
<path d="M15.7069 34.2224L0.280719 18.7496C0.191753 18.6604 0.121153 18.5543 0.0729769 18.4375C0.0248009 18.3207 0 18.1954 0 18.0689C0 17.9424 0.0248009 17.8171 0.0729769 17.7003C0.121153 17.5835 0.191753 17.4774 0.280719 17.3882L4.17514 13.4567C4.54727 13.0815 5.14874 13.0815 5.52088 13.4567L15.6767 23.6366C16.0488 24.0119 16.6546 24.0075 17.0267 23.6323L39.4672 0.785263C39.8394 0.405643 40.4451 0.405643 40.8216 0.780899L44.7204 4.71237C45.0925 5.08762 45.0925 5.69414 44.7247 6.0694L20.2764 30.9454L20.2807 30.9498L17.057 34.218C16.6849 34.5933 16.0791 34.5933 15.7069 34.2224Z" fill="#00B88F"/>
</svg>
