<?xml version="1.0" encoding="utf-8"?>
<!-- Generator: Adobe Illustrator 28.3.0, SVG Export Plug-In . SVG Version: 6.00 Build 0)  -->
<svg version="1.1" id="cockatoo" xmlns="http://www.w3.org/2000/svg" xmlns:xlink="http://www.w3.org/1999/xlink" x="0px" y="0px"
	 viewBox="0 0 359.45 490" enable-background="new 0 0 359.45 490" xml:space="preserve">
<g id="cockatoo_00000062160842400178238810000009818287937054208674_">
	<g>
		<path fill="#FFFFFF" d="M357.002,484.79c-0.214-1.557-0.782-3.268-1.257-4.595c-2.801-7.17-6.371-14.482-9.825-21.558
			l-0.226-0.461c-8.624-17.329-17.753-34.413-24.743-47.361c-5.691-10.539-11.704-21.504-17.871-32.591l-0.278-0.505l-0.55-0.171
			c-23.776-7.401-45.392-20.297-62.51-37.295l-0.334-0.331l-0.466-0.07c-2.346-0.345-4.73-0.818-7.088-1.406l-4.521-1.124
			l3.108,3.471c6.097,6.809,18.141,21.065,30.474,40.215l-0.002,0.002l0.603,0.941c9.213,14.417,17.006,29.108,23.16,43.661
			c0.586,1.417,5.97,14.062,14.43,21.791l9.024,8.247l-6.874-10.111c-4.403-6.476-8.14-13.83-11.108-21.861
			c-1.192-3.161-2.131-6.098-2.834-8.872c2.345,6.135,4.828,12.4,8.003,18.353c6.539,12.586,18.324,29.15,37.338,36.592l0.117,0.044
			l0.083,0.083c6.402,6.315,11.812,11.486,18.259,15.769c1.165,0.733,2.878,1.729,4.297,1.922l1.422,0.193l0.19-1.419
			C357.087,485.896,357.078,485.314,357.002,484.79z M321.693,457.612c-5.343-3.797-10.923-10.73-15.639-17.984
			C310.818,446.092,315.839,452.222,321.693,457.612z"/>
		<path fill="#FFFFFF" d="M26.864,51.557l-0.581,0.32l-1.254,0.686c-0.85-0.244-1.628-0.45-2.318-0.618c-0.004,0-0.004,0-0.004,0
			c-1.094-0.265-1.952-0.437-2.486-0.534c-3.318,1.892-20.015,12.691-15.753,36.32v0.013c0.198,1.09,0.437,2.209,0.728,3.353
			c0.151-0.955,0.433-2.263,0.968-3.702c0.008,1.031,0.055,1.914,0.101,2.604c0.076,1.06,0.164,1.674,0.172,1.712l0.021,0.13
			l-0.017,0.156l-0.198,2.032l-0.471,4.812l-1.758-6.605C-3.361,64.8,15.628,52.378,19.511,50.165l0.45-0.257l0.517,0.093
			c0.841,0.151,2.192,0.429,3.862,0.879L26.864,51.557z"/>
		<path fill="#FFFFFF" d="M116.854,355.576c-0.947,0.602-1.931,1.073-2.945,1.443c-0.004,0.004-0.004,0.004-0.008,0.004
			c-4.194,1.544-8.885,1.418-13.289,1.645c-5.242,0.265-10.66,0.467-15.632,1.922c-4.707,1.3-8.519,4.144-9.591,9.019
			c-0.13,0.589-0.236,1.186-0.311,1.792c0,0.004,0,0.004,0,0.008c-0.189,1.493-0.215,3.025-0.122,4.564
			c0.303-0.4,0.656-0.833,1.06-1.291c-0.067,0.703-0.017,1.136-0.017,1.148l0.48,3.546l0.177,1.329l0.303,2.242l0.097,0.711
			l-0.244-0.576l-0.715-1.699l-0.442-1.052l-0.299-0.703v-0.004l-1.119-2.654l-0.273-0.656l-0.48-1.132l-0.004-0.198
			c-0.05-2.07,0.114-3.933,0.509-5.687c1.3-5.894,5.936-8.573,9.6-9.781l0.122-0.034l7.092-1.174l4.876-0.808
			c1.413-0.093,2.793-0.164,3.967-0.223l0.896-0.042c0.782-0.042,1.573-0.072,2.373-0.101c2.84-0.101,5.759-0.21,8.477-0.858
			l-3.811-0.501l-0.416-0.055l5.41-0.673h0.004l2.844-0.353C115.996,354.966,116.48,355.26,116.854,355.576z"/>
		<path fill="#FFFFFF" d="M129.053,345.391l-2.776,1.977c-0.147,0.105-0.307,0.219-0.48,0.332c-0.046,0.029-0.097,0.063-0.143,0.093
			c-0.412,0.269-0.904,0.484-1.468,0.656c0.311-0.509,0.61-1.022,0.896-1.54c-0.496,0.008-1.031,0.013-1.599,0.008h-0.004
			c-3.5-0.017-8.258-0.324-13.339-1.472c-0.757-0.177-1.498-0.345-2.221-0.509c-9.852-2.28-16.208-3.752-22.375,4.51v0.004
			c-0.433,0.576-0.858,1.199-1.287,1.872c0.463,0,1.01,0,1.628,0.004c-0.568,0.45-0.892,0.749-0.904,0.761l-1.771,1.67v-3.462
			l0.172-0.265c7.008-10.622,14.109-8.981,24.857-6.495l2.221,0.513c5.788,1.308,11.131,1.498,14.593,1.426L129.053,345.391z"/>
		<path fill="#FFFFFF" d="M334.852,381.354c-1.412-1.606-2.715-3.265-3.801-4.673c-11.132-14.995-20.067-31.245-28.707-46.96
			c-0.562-1.037-1.112-2.076-1.662-3.114c-0.335-0.633-0.671-1.267-1.009-1.899l-0.824-1.543l0.435,1.694
			c2.053,8.001,4.174,16.266,4.053,24.811c-2.839-6.344-4.515-13.015-6.138-19.476c-0.645-2.566-1.311-5.219-2.043-7.828
			c-11.485-42.126-28.447-81.195-50.413-116.121c-23.533-37.419-52.1-68.835-84.903-93.375
			c-7.609-5.835-12.862-12.468-15.614-19.712c-0.688-1.851-1.108-3.413-1.327-4.937c-1.198-4.87-2.421-9.081-3.742-12.876
			c-3.94-11.02-9.133-23.652-17.846-34.289c3.672,2.373,7.12,5.824,10.266,10.276l0.068,0.096l0.118-0.008
			c13.155-0.887,19.627-6.364,22.74-10.804l0.405-0.577l-0.655,0.261c-5.218,2.081-11.291,2.593-17.619,1.495
			c0.597-0.142,1.198-0.282,1.8-0.423c5.186-1.211,10.549-2.463,15.149-5.048c2.546-1.329,4.86-3.151,6.692-5.269l0.737-0.852
			l-0.994,0.529c-11.32,6.017-25.375,7.091-37.856,2.948c8.612,0.146,15.91,0.069,23.397-1.53
			c10.115-2.133,19.47-8.014,25.667-16.135l0.59-0.774l-0.857,0.461c-3.908,2.101-8.516,3.721-13.694,4.812
			c-13.357,2.694-28.623,1.555-46.674-3.48c-3.745-1.008-7.472-2.293-11.076-3.536c-3.58-1.235-7.282-2.511-10.998-3.514
			c-14.584-4.08-27.976-3.935-38.728,0.419C37.997,15.18,29.452,24.726,24.39,38.777c-1.098,3.038-1.966,6.172-2.512,9.064
			l-0.038,0.204l0.203,0.041c6.02,1.233,25.807,6.553,27.665,23.244c0.27,2.437-0.155,4.559-1.264,6.305l-0.049,0.077l0.023,0.089
			c2.362,8.989-0.466,17.979-6.724,21.375c-1.203,0.643-2.366,1.177-3.556,1.634l-0.289,0.111l0.209,0.228
			c3.378,3.679,12.912,12.456,13.689,13.155c0.182,0.174,0.365,0.347,0.55,0.521c0.425,0.4,0.861,0.81,1.282,1.252
			c-1.502-0.261-3.039-0.723-4.578-1.378l-0.216-0.092l-0.068,0.225c-6.509,21.558-6.585,40.013-0.227,54.855
			c2.554,5.744,5.999,10.695,9.918,16.026c-2.161-1.255-4.192-2.817-6.049-4.655l-0.358-0.354v0.504
			c-0.009,12.049,2.224,42.486,23.109,64.839l1.033,1.105l-0.692-1.345c-2.44-4.742-3.791-8.622-4.329-12.461
			c3.004,3.722,5.421,7.869,7.762,11.886c1.643,2.819,3.342,5.734,5.233,8.487c0.082,0.12,10.113,14.297,14.76,19.804
			c5.51,6.653,11.338,12.881,16.852,18.01c2.262,2.147,4.633,4.245,6.925,6.273c2.261,2.001,4.599,4.069,6.831,6.184
			c1.49,1.407,2.726,2.676,3.837,3.939c-3.105-1.216-6.175-2.812-9.359-4.866l-0.544-0.351l0.31,0.802
			c0.098,0.254,0.198,0.514,0.307,0.779l0.111,0.279c0.094,0.24,0.191,0.485,0.293,0.734c0.127,0.32,0.259,0.637,0.397,0.968
			l0.083,0.2c0.083,0.201,0.169,0.404,0.258,0.612l0.21,0.497c0.098,0.23,0.201,0.467,0.305,0.707l0.351,0.802
			c0.054,0.119,0.108,0.239,0.161,0.361c1.924,4.292,4.123,8.598,6.538,12.798c0.251,0.442,0.513,0.886,0.776,1.332l0.218,0.369
			c0.335,0.571,0.674,1.129,1.045,1.741l0.093,0.117c3.638,6.354,10.42,11.504,15.58,14.216l0.199,0.105l0.091-0.205
			c2.33-5.246,4.22-8.215,7.222-11.347c0.759-0.772,2.378-2.034,2.394-2.047l0.194-0.152l-0.18-0.168
			c-1.571-1.467-3.73-3.688-5.336-6.125c6.518,4.675,13.035,8.534,19.897,11.784c7.363,3.282,15.048,5.836,22.828,7.585
			c0.071,0.022,0.152,0.04,0.236,0.059l1.128,0.251l-0.968-0.633c-2.894-1.893-5.198-3.659-7.189-5.518
			c5.408,1.154,10.147,3.507,14.474,5.891c5.213,2.833,9.862,5.461,14.21,8.034c7.709,4.653,17.752,10.952,27.07,18.423
			c0.596,0.47,1.179,0.949,1.759,1.428l1.275,1.054l-0.971-1.34c-11.695-16.137-21.608-26.759-24.367-29.63l-0.033-0.035
			l-0.045-0.016c-15.575-5.76-30.724-16.523-45.027-31.992l-0.039-0.042l-0.054-0.016c-8.946-2.748-17.445-6.448-25.264-10.999
			c-16.038-9.212-29.064-22.846-36.678-38.389l-0.022-0.044l-1.688-1.302c-2.05-1.579-4.171-3.212-6.237-4.869
			c-24.04-18.71-36.271-41.27-38.491-70.999c-1.397-16.946,5.099-30.074,17.819-36.015c10.124-4.599,21.184-5.585,29.806-2.693
			c-2,0.225-4,0.402-5.943,0.573c-4.329,0.383-8.804,0.778-13.192,1.71c-24.409,5.333-26.624,25.317-24.184,41.138
			c4.046,31.317,18.366,48.777,38.621,65.357l0.607,0.497l-0.277-0.734c-1.199-3.176-2.224-6.47-3.046-9.79
			c-1.087-4.483-1.886-9.24-0.481-13.754c1.417,3.462,2.249,6.835,3.128,10.397c0.204,0.829,0.41,1.663,0.626,2.507
			c7.264,27,28.314,48.881,59.273,61.613l0.796,0.327l-0.555-0.657c-0.546-0.647-1.088-1.291-1.626-1.941
			c-2.902-3.538-5.721-7.224-8.375-10.956c-2.295-3.225-4.78-7.112-6.006-11.653c3.853,3.508,7.035,7.669,10.117,11.699
			c2.208,2.888,4.492,5.874,7.006,8.604c17.756,20.231,35.221,33.226,53.397,39.729c1.611,0.551,3.335,1.069,5.424,1.628
			l0.694,0.186l-0.485-0.531c-2.088-2.287-4.099-4.638-5.976-6.984l-0.353-0.448c-1.749-2.216-3.558-4.507-5.146-6.893
			c-1.817-2.805-2.944-5.346-3.521-7.95c2.491,1.828,4.449,4.092,6.095,6.082c4.678,6.35,10.023,12.436,15.887,18.086l0.039,0.038
			l0.053,0.014c0.002,0,0.003,0,0.004,0.001v0.037l0.064,0.062c23.709,22.767,55.568,38.084,89.709,43.129l0,0
			c1.486,0.218,2.701,0.381,3.821,0.514l0.545,0.065L334.852,381.354z M85.614,51.861l-0.026,0.062
			c-0.345,1.396-0.959,2.671-1.826,3.788c-1.667,2.15-4.073,3.529-6.769,3.882c-0.471,0.053-0.901,0.079-1.314,0.079
			c-2.262,0-4.411-0.735-6.215-2.127c-1.466-1.132-2.597-2.65-3.268-4.39l-0.046-0.071c-0.733-0.752-1.92-1.641-3.604-1.927
			c0.83-0.413,2.127-1.278,3.02-2.924l0.024-0.073c0.234-1.798,0.936-3.499,2.032-4.921c1.666-2.153,4.071-3.532,6.772-3.883
			c2.693-0.348,5.369,0.379,7.534,2.049c1.193,0.92,2.156,2.091,2.86,3.479l0.036,0.051c1.185,1.229,3.047,2.709,5.45,3.179
			C89.104,48.578,87.003,49.666,85.614,51.861z M92.726,220.88l-0.005-0.007c-5.07-7.465-8.766-16.116-10.986-25.71
			c-1.266-5.708-2.403-12.355-1.427-18.779c0.374,1.685,0.734,3.353,1.093,5.011c0.691,3.196,1.343,6.215,2.075,9.299
			c1.669,6.906,4.253,14.063,7.902,21.881c2.079,4.42,4.558,8.307,7.182,12.422c1.42,2.227,2.883,4.521,4.273,6.903
			C98.868,228.949,95.388,225.156,92.726,220.88z M153.613,283.758c-5.178-2.838-10.296-6.796-14.798-11.442
			c-5.976-6.367-9.956-12.086-12.444-17.896c1.401,1.52,2.796,3.046,4.191,4.571c4.637,5.069,9.432,10.311,14.361,15.241
			c2.637,2.631,5.373,5.161,8.019,7.608c1.152,1.066,2.337,2.16,3.52,3.27C155.398,284.641,154.409,284.156,153.613,283.758z
			 M215.763,323.826c-10.734-3.086-26.245-17.391-32.572-27.678c2.996,2.164,5.748,4.551,8.29,6.826
			c1.205,1.056,2.403,2.114,3.6,3.171c7.109,6.28,14.453,12.766,22.661,18.069C217.067,324.1,216.399,323.962,215.763,323.826z
			 M285.666,311.678c-0.384-1.169-0.768-2.34-1.161-3.512c-2.155-6.288-4.507-12.899-6.989-19.65l-0.185-0.504
			c-2.294-6.255-4.667-12.723-7.081-19.065l-0.719-1.858c-2.115-5.459-4.299-11.094-5.67-16.963
			c3.694,5.352,6.28,11.23,9.019,17.766v0.001c2.932,6.927,5.451,13.309,7.699,19.509c2.139,5.876,4.208,12.214,6.512,19.946
			c1.736,5.76,3.614,12.441,4.167,19.42C289.001,321.839,287.307,316.678,285.666,311.678z"/>
		<circle fill="#FFFFFF" cx="75.83" cy="49.637" r="9.193"/>
		<path fill="#FFFFFF" d="M125.082,346.91c0,0-6.369,4.013-25.444,0.814c-8.379-1.405-14.919,3.599-15.382,3.599
			c0.429-0.673,1.287-1.876,1.287-1.876c6.167-8.262,12.523-6.79,22.375-4.51c0.724,0.164,1.464,0.332,2.221,0.509
			C115.222,346.594,122.133,346.293,125.082,346.91z"/>
		<path fill="#FFFFFF" d="M116.854,355.576c0,0-1.776,4.021-11.01,4.404c-16.947,0.704-24.487,3.527-27.633,7.061
			c-3.286,3.691-2.952,8.533-3.255,8.932c-0.093-1.54-0.067-3.071,0.122-4.564c0-0.004,0-0.004,0-0.008
			c0.076-0.606,0.181-1.203,0.311-1.792c1.073-4.876,4.884-7.719,9.591-9.019c4.972-1.456,10.391-1.657,15.632-1.922
			c4.404-0.227,9.095-0.101,13.289-1.645c0.004,0,0.004,0,0.008-0.004C114.923,356.648,115.907,356.177,116.854,355.576
			C116.48,355.26,116.854,355.576,116.854,355.576z"/>
		<path fill="#FFFFFF" d="M25.03,52.563l-0.459,0.252C3.776,65.571,5.347,90.141,5.195,91.096c-0.29-1.144-0.53-2.263-0.728-3.353
			V87.73C0.206,64.102,16.903,53.303,20.222,51.41c0.534,0.097,1.392,0.269,2.486,0.534c0,0,0,0,0.004,0
			C23.402,52.113,24.18,52.319,25.03,52.563z"/>
	</g>
	<g>
		<path fill="#A5A5A5" d="M46.39,80.619l-0.235-1.462l-1.277,0.752c-4.452,2.621-11.68,2.736-18.67,2.848
			c-2.084,0.036-4.24,0.073-6.268,0.184c-3.989,0.235-7.327,2.332-9.92,6.233L9.588,89.82l0.514,0.584
			c2.52,2.866,9.427,9.531,19.106,9.531c3.749,0,7.533-1.022,11.246-3.037C44.369,94.783,47.665,88.513,46.39,80.619z"/>
		<path fill="#A5A5A5" d="M47.204,72.747c0,0.13-0.004,0.257-0.008,0.383c-0.067,1.535-0.543,2.789-1.447,3.824
			c-3.311,3.752-11.951,3.891-19.57,4.017c-1.88,0.029-4.219,0.067-6.344,0.189C12.49,81.581,8.51,87.226,6.441,91.996
			c-0.038,0.088-0.854,2.028-0.854,2.028l-0.395,0.947c0,0-0.677-4.96-0.724-7.227c0.198,1.09-0.691-23.13,20.104-34.928
			l0.861-0.474c-0.85-0.244,0.136-0.687,0.852-0.464c8.031,2.478,19.553,8.047,20.853,19.738
			C47.183,72.006,47.204,72.389,47.204,72.747z"/>
		<path fill="#A5A5A5" d="M163.14,377.606l-1.662-2.099l-0.244-0.307c-3.062-3.845-9.343-10.378-16.978-10.904
			c-3.117-0.063-6.07,0.791-8.922,1.62c-1.228,0.366-2.427,0.715-3.639,1.001c-4.198,1.09-8.22,1.712-12.279,1.897
			c-4.16,0.248-8.657-0.088-12.544-0.421c-8.943-0.589-17.832,1.906-24.378,6.857c-2.217,1.666-4.181,3.5-5.839,5.456
			c-0.126,0.147-0.248,0.294-0.37,0.442l-0.189,0.236l-0.593,0.728l-0.614,0.761l-0.383-2.192c-0.017-0.105-0.038-0.215-0.055-0.32
			c-0.181-1.098-0.32-2.124-0.408-3.096c-0.034-0.324-0.059-0.639-0.08-0.951c-0.034-0.459-0.05-0.904-0.063-1.338l-0.084-3.34
			l0.694,1.649c0.118-0.568,0.299-1.199,0.568-1.876c-0.189,1.493-0.267,4.042-0.174,5.582c0.303-0.4-0.944-0.106-0.54-0.565
			c0.122-1.325,1.819-7.661,3.809-9.954c3.105-3.572,9.883-6.627,26.845-6.736c7.505-0.05,10.403-5.04,10.403-5.04
			c0.576,0.269,1.06,0.564,1.434,0.879c-0.947,0.602-1.931,1.073-2.945,1.443c0.408-0.236,0.766-0.471,1.073-0.69
			c-0.185-0.025-0.37-0.046-0.551-0.067c-2.305-0.278-4.573-0.417-6.853-0.484c-2.225-0.067-4.468-0.067-6.764-0.067l-1.775,0.013
			c-5.608,0.046-11.964,0.097-17.344,2.221l-2.179,0.85l0.871-2.171c0.576-1.451,1.266-2.886,2.057-4.261
			c0.21-0.366,0.416-0.711,0.614-1.035c0.05-0.084,2.246-1.695,2.486-1.876c-0.433,0.576-0.858,1.199-1.287,1.872
			c0,0,6.337-8.83,20.413-4.959c6.867,1.888,19.382,0.559,18.814,0.554c0.492-0.139,0.913-0.32,1.254-0.538
			c0.21-0.135,0.395-0.257,0.564-0.379l0.164-0.118h1.35l-0.85,1.519c-0.055,0.101-0.114,0.202-0.168,0.299
			c-0.395,0.703-0.791,1.367-1.19,1.99c5.704-3.298,9.394-11.249,10.563-16.293l0.433-1.889l1.3,1.435
			c3.879,4.266,8.35,7.05,11.421,8.641l0.799,0.412l-0.311,0.841c-1.317,3.492-1.691,6.785-1.111,9.781
			c0.004,0.013,0.008,0.025,0.008,0.038l0.097-1.064l1.355,0.736c4.867,2.667,8.632,6.352,10.891,10.664
			c1.405,2.638,2.343,5.633,2.755,8.775c0.122,0.913,0.198,1.838,0.231,2.772l0.093,2.785L163.14,377.606z"/>
		<path fill="#A5A5A5" d="M125.322,296.359c-21.745-20.933-35.849-40.6-44.276-52.35c-5.249-7.319-8.14-11.35-10.029-11.961
			l-0.984-0.318l0.168,1.021c0.203,1.235,0.721,1.702,1.179,2.114c0.375,0.337,0.728,0.656,1.047,1.517l0.029,0.078l0.049,0.069
			c2.101,2.951,3.927,6.079,5.692,9.104c1.561,2.681,3.33,5.72,5.264,8.531l0.657,0.981l0.233,0.214
			c0.03,0.023,0.061,0.046,0.092,0.069l-0.075,0.104l0.407,0.57c4.463,6.565,9.131,12.768,13.494,17.934
			c5.547,6.697,11.399,12.95,16.916,18.078c2.178,2.067,4.455,4.088,6.658,6.041l0.292,0.259c0.135,0.116,0.268,0.234,0.401,0.352
			c0.138,0.122,0.275,0.244,0.415,0.364l0.77,0.509c1.253,0.811,2.834,2.556,4.362,4.245c2.057,2.272,3.999,4.418,5.709,5.122
			l1.772,0.728l-0.992-1.639C132.585,304.818,127.444,298.403,125.322,296.359z"/>
		<path fill="#A5A5A5" d="M161.369,325.842c-0.78-1.135-1.691-1.341-2.314-1.315c-2.878,0.12-6.027,5.226-8.753,10.003
			c-0.299,0.524-0.604,1.059-0.814,1.4c-12.973-7.836-21.861-31.415-21.95-31.655l-0.076-0.203l-0.184-0.114
			c-0.173-0.107-0.631-0.352-1.366-0.744c-0.598-0.319-1.342-0.716-1.508-0.822l-2.629-1.698l1.254,3.222
			c0.086,0.227,0.172,0.454,0.264,0.677l0.094,0.232c0.102,0.267,0.204,0.526,0.316,0.786c0.124,0.309,0.248,0.619,0.385,0.94
			l0.095,0.227c0.094,0.234,0.195,0.477,0.302,0.719l0.165,0.391c0.077,0.187,0.16,0.378,0.243,0.569l0.58,1.324
			c1.928,4.295,4.142,8.627,6.58,12.87c0.238,0.422,0.492,0.852,0.745,1.283l0.25,0.424c0.345,0.591,0.691,1.166,1.033,1.724
			c0.065,0.114,0.138,0.235,0.217,0.358c0.559,1.353,5.014,11.367,16.111,15.838l0.969,0.412l0.366-0.995
			c0.696-1.862,1.015-2.684,1.16-3.045l2.001-0.328l-1.598-0.596c0.661-1.018,2.416-3.32,3.758-5.081
			C161.787,326.451,161.731,326.369,161.369,325.842z"/>
		<path fill="#A5A5A5" d="M244.225,359.633l-0.053-0.069l-0.069-0.052c-27.104-20.322-48.811-27.63-53.893-26.869l-1.238,0.184
			c-4.691-1.441-9.33-3.174-13.824-5.175c-3.647-1.728-15.916-7.483-20.658-8.964l-1.895-0.592l1.206,1.578
			c0.972,1.272,2.94,2.501,4.378,3.399c0.311,0.194,0.666,0.416,0.934,0.595l-0.114,0.106l0.674,0.441
			c4.853,3.177,9.739,5.921,14.949,8.393c7.431,3.309,15.152,5.875,22.922,7.623c0.104,0.028,0.217,0.056,0.313,0.071l5.078,0.991
			l-4.33-2.832c-1.173-0.767-2.246-1.513-3.236-2.248c0.874,0.349,1.796,0.711,2.733,1.079c2.851,1.12,5.799,2.279,6.967,2.921
			c5.158,2.803,9.798,5.427,14.18,8.018c7.682,4.635,17.691,10.91,26.987,18.358c0.432,0.343,0.856,0.691,1.277,1.036l6.618,5.481
			l-4.682-6.466C247.697,364.226,245.94,361.867,244.225,359.633z"/>
		<path fill="#A5A5A5" d="M51.2,178.784v2.424c-0.008,12.143,2.25,42.822,23.322,65.384l4.98,5.324l-3.34-6.478
			c-1.251-2.433-2.201-4.622-2.905-6.69l-0.032-0.094l-0.059-0.079c-14.486-19.508-17.265-42.844-17.616-55.206
			c0.84,1.25,1.996,2.748,3.087,3.424l1.946,1.205l-1.053-2.032c-0.855-1.649-1.753-3.326-2.705-5.102
			c-2.13-3.975-4.332-8.085-6.027-11.89c-5.822-13.599-5.491-31.069,1.011-53.403c0.558,0.578,1.339,1.25,2.207,1.426l1.876,0.371
			l-1.294-1.424c-0.11-0.121-1.015-1.251-2.063-2.559c-3.282-4.096-9.39-11.721-11.669-14.17l-0.135-0.145l-0.193-0.042
			c-0.839-0.182-1.264,0.32-1.492,0.59c-0.053,0.063-0.142,0.167-0.175,0.182c0,0-0.025,0.006-0.09-0.008l-0.188-0.04l-0.178,0.072
			c-0.086,0.035-0.17,0.071-0.255,0.108c-0.101,0.044-0.203,0.088-0.313,0.13l-1.387,0.543l1.008,1.089
			c3.251,3.541,6.714,6.815,10.915,10.64l0.072,0.066l0.166,0.077l-0.013,0.043l2.19,2.009c-0.472-0.16-0.959-0.346-1.478-0.567
			l-1.047-0.443l-0.322,1.086c-6.561,21.746-6.627,40.386-0.193,55.408c1.606,3.615,3.638,7.132,6.586,11.401
			c0.053,0.095,0.217,0.385,0.458,0.783c-0.626-0.522-1.256-1.094-1.878-1.709L51.2,178.784z"/>
		<path fill="#A5A5A5" d="M304.968,377.165l-0.302-0.114c-0.477-0.18-47.926-18.269-64.782-39.521l-0.189-0.239h-10.921l-0.65-1.271
			l-0.273-0.071c-15.305-4.028-40.82-26.217-41.076-26.441l-3.878-2.29l-3.869-5.483l-0.216-0.06
			c-35.849-10.034-57.044-41.436-57.254-41.753l-2-2.132l-2.894-7.265l-0.242-0.103c-0.136-0.058-13.807-6.074-29.045-29.769
			c-15.232-23.685-16.1-41.704-16.107-41.884l-0.227-5.82l-1.025,5.733c-0.086,0.482-2.049,11.991,3.197,28.328
			c3.075,9.577,8.011,18.807,14.671,27.434c7.856,10.176,18.147,19.532,30.61,27.841c7.225,18.054,23.427,30.207,36.407,37.439
			c10.307,5.743,20.106,9.289,25.579,11.037c8.964,12.091,20.739,19.744,29.595,24.2c11.067,5.568,20.102,7.489,20.192,7.508
			l1.214,0.253l0.491,0.603l0.076,0.078c0.431,0.373,43.412,37.316,73.903,40.738l0.92,0.104L304.968,377.165z"/>
		<path fill="#A5A5A5" d="M90.613,45.925c-1.205-0.698-2.36-1.401-3.238-2.329c-0.212-0.226-0.426-0.457-0.642-0.69
			c-1.733-1.87-3.697-3.989-6.11-5.136c-2.616-1.244-5.718-1.487-8.513-0.667c-2.761,0.812-5.274,2.683-6.894,5.133
			c-0.63,0.953-1.128,1.984-1.61,2.98c-0.323,0.668-0.656,1.358-1.019,1.999c-0.252,0.436-0.489,0.811-0.721,1.14
			c-0.285,0.393-0.564,0.725-0.853,1.018c-0.277,0.283-0.632,0.501-1.009,0.733c-0.378,0.233-0.768,0.473-1.106,0.797l-0.686,0.658
			l0.873,0.377c0.016,0.007,1.604,0.694,2.28,1.107c0.669,0.411,1.323,0.965,2,1.696c0.364,0.392,0.716,0.811,1.059,1.232
			l0.084,0.103c0.113,0.139,0.225,0.277,0.335,0.415c0.569,0.705,1.157,1.435,1.809,2.103c2.251,2.311,5.24,3.775,8.199,4.016
			c0.305,0.025,0.609,0.038,0.912,0.038c2.904,0,5.715-1.146,7.658-3.156c1.142-1.181,1.964-2.61,2.76-3.992
			c0.821-1.427,1.597-2.774,2.688-3.857c1.32-1.312,4.501-3.444,4.533-3.465l1.138-0.761L90.613,45.925z M68.264,43.758
			c1.44-2.54,4.492-3.634,7.422-3.634c2.078,0,4.05,0.671,5.702,1.938c4.081,3.156,4.839,9.043,1.689,13.125
			c-1.523,1.981-3.731,3.248-6.215,3.568c-0.388,0.049-0.796,0.074-1.211,0.074C74.074,58.83,62.426,54.052,68.264,43.758z"/>
		<path fill="#A5A5A5" d="M153.998,252.66l1.225,2.549c3.739,7.775,11.295,13.758,19.721,15.613c1.32,0.291,2.561,0.435,3.71,0.435
			c2.336,0,4.291-0.598,5.758-1.778c2.431-1.957,3.465-5.557,2.634-9.171c-1.082-4.705-5.443-10.877-9.332-13.208l-0.632-0.379
			l-0.277,0.683c-0.648,1.596-0.603,3.22-0.559,4.789c0.051,1.85,0.1,3.597-0.962,5.214c-1.981,3.018-6.321,3.701-9.586,2.814
			c-3.624-0.984-6.75-3.53-9.507-5.776L153.998,252.66z"/>
		<path fill="#A5A5A5" d="M262.339,317.657c1.038,0.228,2.013,0.342,2.918,0.342c1.851,0,3.403-0.476,4.57-1.415
			c1.934-1.557,2.758-4.414,2.098-7.279c-0.85-3.694-4.274-8.539-7.328-10.37l-0.632-0.379l-0.277,0.683
			c-0.516,1.27-0.48,2.549-0.446,3.785c0.039,1.417,0.077,2.755-0.725,3.978c-1.505,2.294-4.815,2.81-7.309,2.133
			c-2.793-0.758-5.214-2.73-7.349-4.47l-2.193-1.786l1.225,2.549C249.82,311.518,255.739,316.204,262.339,317.657z"/>
		<path fill="#A5A5A5" d="M210.584,261.652l1.225,2.549c2.485,5.167,7.506,9.143,13.105,10.375c0.882,0.194,1.713,0.291,2.484,0.291
			c1.585,0,2.916-0.409,3.919-1.216c1.662-1.337,2.37-3.787,1.806-6.242c-0.722-3.139-3.634-7.259-6.23-8.816l-0.632-0.379
			l-0.277,0.683c-0.443,1.091-0.412,2.181-0.383,3.234c0.033,1.181,0.064,2.295-0.596,3.301c-1.245,1.898-3.991,2.32-6.061,1.759
			c-2.336-0.634-4.371-2.292-6.166-3.754L210.584,261.652z"/>
		<path fill="#A5A5A5" d="M182.416,278.109l1.226,2.549c2.485,5.167,7.506,9.143,13.105,10.375c0.883,0.194,1.713,0.291,2.484,0.291
			c1.586,0,2.916-0.409,3.919-1.216c1.662-1.337,2.37-3.787,1.806-6.242c-0.722-3.139-3.634-7.259-6.23-8.816l-0.632-0.379
			l-0.277,0.683c-0.443,1.091-0.412,2.181-0.383,3.234c0.032,1.18,0.064,2.295-0.596,3.301c-1.245,1.897-3.991,2.32-6.061,1.759
			c-2.338-0.635-4.371-2.292-6.166-3.754L182.416,278.109z"/>
		<path fill="#A5A5A5" d="M206.33,251.254c0.694,0.153,1.347,0.229,1.955,0.228c1.262,0,2.324-0.327,3.127-0.974
			c1.33-1.07,1.898-3.026,1.449-4.981c-0.567-2.465-2.854-5.7-4.895-6.923l-0.632-0.379l-0.277,0.683
			c-0.355,0.873-0.331,1.733-0.307,2.565c0.025,0.93,0.048,1.734-0.439,2.477c-0.928,1.414-2.988,1.725-4.542,1.305
			c-1.783-0.484-3.347-1.759-4.728-2.883l-2.192-1.786l1.225,2.549C198.018,247.179,201.948,250.29,206.33,251.254z"/>
		<path fill="#A5A5A5" d="M231.211,288.626l-0.277,0.683c-0.355,0.873-0.331,1.733-0.308,2.564c0.026,0.931,0.048,1.734-0.439,2.477
			c-0.928,1.414-2.987,1.725-4.542,1.304c-1.781-0.484-3.346-1.758-4.727-2.883l-2.193-1.785l1.225,2.548
			c1.945,4.044,5.875,7.155,10.256,8.119c0.694,0.153,1.347,0.229,1.955,0.228c1.262,0,2.324-0.327,3.127-0.973
			c1.33-1.071,1.898-3.026,1.449-4.981c-0.567-2.464-2.854-5.7-4.894-6.923L231.211,288.626z"/>
		<path fill="#A5A5A5" d="M154.808,241.764c0.694,0.153,1.348,0.228,1.955,0.228c1.262,0,2.324-0.327,3.127-0.974
			c1.33-1.07,1.898-3.025,1.449-4.981l0,0c-0.567-2.464-2.855-5.699-4.895-6.923l-0.632-0.379l-0.277,0.683
			c-0.355,0.873-0.331,1.733-0.308,2.564c0.026,0.931,0.048,1.734-0.439,2.477c-0.928,1.414-2.986,1.726-4.542,1.304
			c-1.782-0.484-3.347-1.758-4.728-2.883l-2.193-1.786l1.226,2.549C146.497,237.688,150.427,240.799,154.808,241.764z"/>
		<path fill="#A5A5A5" d="M257.148,284.178c0.694,0.153,1.348,0.229,1.955,0.228c1.262,0,2.324-0.327,3.127-0.973
			c1.33-1.071,1.899-3.026,1.449-4.981c-0.567-2.465-2.854-5.7-4.895-6.923l-0.632-0.379l-0.277,0.683
			c-0.355,0.873-0.331,1.733-0.307,2.565c0.025,0.93,0.048,1.734-0.439,2.477c-0.928,1.414-2.987,1.725-4.542,1.304
			c-1.782-0.484-3.347-1.758-4.727-2.883l-2.193-1.786l1.225,2.549C248.836,280.102,252.766,283.213,257.148,284.178z"/>
	</g>
	<g>
		<path fill="#777777" d="M163.384,372.318v5.313c0,0-0.088-0.109-0.252-0.307c-0.307-0.358-0.879-1.01-1.653-1.817
			c-2.087-2.158-5.654-5.414-9.566-7.05c-6.167-2.583-11.186-3.445-11.186-3.445l-13.764,4.144l-16.494,0.29H99.287l-11.043,3.168
			L76.957,382.95l-0.147,0.135l-0.467,0.429l-0.841-1.401l-1.052-1.75l-1.123-1.872c0,0,0.219-0.463,0.715-1.224
			c0.059-0.093,0.122-0.189,0.194-0.294c0.202-0.299,0.437-0.631,0.719-0.997c0.303-0.4,0.656-0.833,1.06-1.291
			c3.626-4.102,11.35-10.13,25.707-10.672c15.872-0.606,12.09,3.58,32.307-2.007c15.964-4.413,22.384,3.197,27.562,8.544
			c0.412,0.425,0.816,0.833,1.216,1.22C163.001,371.957,163.191,372.142,163.384,372.318z"/>
		<path fill="#777777" d="M116.854,355.576l-2.423,0.686l-5.334,1.506l-18.295,0.543l-1.304,0.038l-9.553,1.632l-1.165-2.213
			l3.845-6.436c0,0,0.151,0,0.433-0.004h0.151c0.265-0.004,0.618-0.004,1.047-0.004c0.463,0,1.01,0,1.628,0.004
			c7.025,0.055,23.44,0.488,29.535,3.37C115.996,354.966,116.48,355.26,116.854,355.576z"/>
		<path fill="#777777" d="M47.75,75.67l-4.951,4.501L27.323,82.17l-5.586,0.69l-4.501,0.555l-2.448,0.303l-1.468,1.771l-2.936,3.542
			L9.66,89.906l-0.252,0.307l-3.163,3.815L5.81,94.55l-0.787-1.868c0,0,0.017-0.61,0.172-1.586c0.151-0.955,0.433-2.263,0.968-3.702
			c1.346-3.63,4.274-8.081,10.635-9.713c10.773-2.764,26.027-0.467,29.295-6.234c0.21-0.366,0.37-0.761,0.475-1.195l0.627,2.877
			L47.75,75.67z"/>
		<path fill="#777777" d="M10.382,89.033c0,0,10.957,10.048,23.167,6.882s11.649-15.462,11.649-15.462l0.647-0.817l1.541,7.687
			c0,0-4.436,16.46-19.176,13.476C13.471,97.814,8.678,89.132,8.678,89.132L10.382,89.033z"/>
	</g>
	<g>
		<path fill="#F7B626" d="M98.492,61.314c2.858-1.342,6.161-1.921,9.212-1.108c3.051,0.813,5.767,3.164,6.547,6.223
			c1.028,4.03-1.369,8.174-4.332,11.094c-3.834,3.778-8.844,6.421-14.182,7.112c-5.338,0.692-10.973-0.643-15.238-3.927
			c-1.569-1.208-3.039-2.882-3.027-4.862c0.029-4.761,6.218-5.47,9.441-7.024C91.073,66.813,94.298,63.284,98.492,61.314z"/>
		<path fill="#F7B626" d="M120.846,33.448c12.597,4.573,27.389,3.788,39.27-2.53c-1.852,2.142-4.131,3.917-6.63,5.22
			c-5.396,3.033-11.835,4.222-17.863,5.685c6.181,1.227,12.803,1.029,18.709-1.326c-3.048,4.351-9.473,9.831-22.581,10.715
			c-3.048-4.313-6.577-7.994-10.677-10.547c-6.455-6.813-15.47-14.533-25.583-17.985c0,0,22.71,2.05,44.498-0.564
			c0.008,0.008,0.008,0.008,0.015,0c5.792,0.16,11.584-0.244,17.299-1.395c4.71-0.991,9.458-2.522,13.756-4.832
			c-6.219,8.147-15.47,13.931-25.545,16.057C137.383,33.684,129.267,33.608,120.846,33.448z"/>
	</g>
	<path fill="#231F20" d="M84.976,44.789c-0.681-1.342-1.649-2.57-2.919-3.55c-2.204-1.699-4.922-2.448-7.69-2.091
		c-2.751,0.358-5.212,1.767-6.912,3.963c-1.144,1.485-1.838,3.21-2.074,5.023c-1.35,2.49-3.689,3.147-3.689,3.147
		c2.082,0.084,3.483,1.106,4.308,1.952c0.677,1.754,1.805,3.298,3.336,4.48c1.838,1.418,4.047,2.171,6.344,2.171
		c0.442,0,0.888-0.029,1.338-0.08c2.76-0.362,5.212-1.771,6.912-3.963c0.917-1.182,1.527-2.503,1.864-3.866
		c1.948-3.079,5.393-3.946,5.393-3.946C88.375,47.797,86.208,46.068,84.976,44.789z M75.679,52.66
		c-1.678-1.296-1.99-3.702-0.694-5.38c0.686-0.892,1.683-1.392,2.726-1.477c-0.181-0.194-0.387-0.374-0.61-0.543
		c-2.688-2.082-6.558-1.578-8.632,1.115c-0.244,0.303-0.442,0.631-0.618,0.972c0.282-1.018,0.753-1.981,1.418-2.831
		c1.599-2.074,4.001-3.159,6.44-3.159c1.729,0,3.475,0.551,4.951,1.687c3.546,2.743,4.202,7.85,1.464,11.392
		c-1.325,1.725-3.239,2.818-5.397,3.096c-2.145,0.273-4.282-0.307-5.995-1.632c-0.206-0.151-0.395-0.32-0.581-0.496
		c2.646,1.611,6.129,1.001,8.064-1.502c0.122-0.16,0.227-0.311,0.332-0.48C77.568,53.56,76.524,53.316,75.679,52.66z
		 M91.567,212.485c-3.269-7.004-6.066-14.303-7.888-21.841c-1.199-5.052-2.225-10.121-3.399-15.35
		c-1.249,6.592-0.185,13.445,1.249,19.915c2.112,9.129,5.746,18.022,11.017,25.783c2.835,4.556,6.571,8.565,10.958,11.657
		C99.522,225.66,94.941,219.657,91.567,212.485z M145.073,274.084c-6.659-6.659-12.927-13.731-19.342-20.668
		c2.856,7.219,7.669,13.436,12.931,19.044c4.337,4.476,9.381,8.485,14.854,11.484c1.296,0.648,2.608,1.275,3.95,1.822
		C153.263,281.794,149.119,278.122,145.073,274.084z M191.62,302.815c-2.924-2.617-5.877-5.153-9.12-7.416
		c5.852,10.138,21.917,25.387,33.212,28.631c0.997,0.215,1.986,0.412,2.97,0.534C208.791,318.317,200.378,310.488,191.62,302.815z
		 M287.293,307.287c-1.998-6.705-4.123-13.381-6.516-19.957c-2.385-6.579-4.977-13.079-7.702-19.519
		c-2.701-6.445-5.481-12.885-9.65-18.669c1.493,6.912,4.11,13.344,6.63,19.881c2.478,6.508,4.871,13.041,7.265,19.565
		c2.398,6.52,4.733,13.066,6.987,19.645c2.225,6.647,4.198,13.276,7.24,19.645C291.133,320.786,289.312,313.988,287.293,307.287z
		 M323.63,457.433c-11.69-10.441-19.999-23.852-29.043-36.548c4.114,11.421,21.08,40.237,33.986,41.108
		C326.815,460.398,325.22,458.934,323.63,457.433z M323.63,457.433c-11.69-10.441-19.999-23.852-29.043-36.548
		c4.114,11.421,21.08,40.237,33.986,41.108C326.815,460.398,325.22,458.934,323.63,457.433z M287.293,307.287
		c-1.998-6.705-4.123-13.381-6.516-19.957c-2.385-6.579-4.977-13.079-7.702-19.519c-2.701-6.445-5.481-12.885-9.65-18.669
		c1.493,6.912,4.11,13.344,6.63,19.881c2.478,6.508,4.871,13.041,7.265,19.565c2.398,6.52,4.733,13.066,6.987,19.645
		c2.225,6.647,4.198,13.276,7.24,19.645C291.133,320.786,289.312,313.988,287.293,307.287z M191.62,302.815
		c-2.924-2.617-5.877-5.153-9.12-7.416c5.852,10.138,21.917,25.387,33.212,28.631c0.997,0.215,1.986,0.412,2.97,0.534
		C208.791,318.317,200.378,310.488,191.62,302.815z M145.073,274.084c-6.659-6.659-12.927-13.731-19.342-20.668
		c2.856,7.219,7.669,13.436,12.931,19.044c4.337,4.476,9.381,8.485,14.854,11.484c1.296,0.648,2.608,1.275,3.95,1.822
		C153.263,281.794,149.119,278.122,145.073,274.084z M91.567,212.485c-3.269-7.004-6.066-14.303-7.888-21.841
		c-1.199-5.052-2.225-10.121-3.399-15.35c-1.249,6.592-0.185,13.445,1.249,19.915c2.112,9.129,5.746,18.022,11.017,25.783
		c2.835,4.556,6.571,8.565,10.958,11.657C99.522,225.66,94.941,219.657,91.567,212.485z M84.976,44.789
		c-0.681-1.342-1.649-2.57-2.919-3.55c-2.204-1.699-4.922-2.448-7.69-2.091c-2.751,0.358-5.212,1.767-6.912,3.963
		c-1.144,1.485-1.838,3.21-2.074,5.023c-1.35,2.49-3.689,3.147-3.689,3.147c2.082,0.084,3.483,1.106,4.308,1.952
		c0.677,1.754,1.805,3.298,3.336,4.48c1.838,1.418,4.047,2.171,6.344,2.171c0.442,0,0.888-0.029,1.338-0.08
		c2.76-0.362,5.212-1.771,6.912-3.963c0.917-1.182,1.527-2.503,1.864-3.866c1.948-3.079,5.393-3.946,5.393-3.946
		C88.375,47.797,86.208,46.068,84.976,44.789z M75.679,52.66c-1.678-1.296-1.99-3.702-0.694-5.38
		c0.686-0.892,1.683-1.392,2.726-1.477c-0.181-0.194-0.387-0.374-0.61-0.543c-2.688-2.082-6.558-1.578-8.632,1.115
		c-0.244,0.303-0.442,0.631-0.618,0.972c0.282-1.018,0.753-1.981,1.418-2.831c1.599-2.074,4.001-3.159,6.44-3.159
		c1.729,0,3.475,0.551,4.951,1.687c3.546,2.743,4.202,7.85,1.464,11.392c-1.325,1.725-3.239,2.818-5.397,3.096
		c-2.145,0.273-4.282-0.307-5.995-1.632c-0.206-0.151-0.395-0.32-0.581-0.496c2.646,1.611,6.129,1.001,8.064-1.502
		c0.122-0.16,0.227-0.311,0.332-0.48C77.568,53.56,76.524,53.316,75.679,52.66z M56.202,184.291
		c-0.004-0.004-0.008-0.004-0.013-0.008c-0.008-0.004-0.017-0.013-0.025-0.017c-0.139-0.097-0.278-0.198-0.412-0.303
		c-0.017-0.008-0.029-0.021-0.046-0.034c-0.05-0.034-0.097-0.072-0.143-0.105c0.004,0.088,0.008,0.177,0.008,0.265
		c0.341,0.257,0.686,0.501,1.039,0.736C56.471,184.649,56.336,184.468,56.202,184.291z M51.961,115.722
		c-0.059-0.013-0.118-0.029-0.181-0.05c-0.021,0.067-0.038,0.135-0.059,0.202c0.181,0.055,0.366,0.101,0.551,0.143
		C52.163,115.92,52.058,115.823,51.961,115.722z M84.976,44.789c-0.681-1.342-1.649-2.57-2.919-3.55
		c-2.204-1.699-4.922-2.448-7.69-2.091c-2.751,0.358-5.212,1.767-6.912,3.963c-1.144,1.485-1.838,3.21-2.074,5.023
		c-1.35,2.49-3.689,3.147-3.689,3.147c2.082,0.084,3.483,1.106,4.308,1.952c0.677,1.754,1.805,3.298,3.336,4.48
		c1.838,1.418,4.047,2.171,6.344,2.171c0.442,0,0.888-0.029,1.338-0.08c2.76-0.362,5.212-1.771,6.912-3.963
		c0.917-1.182,1.527-2.503,1.864-3.866c1.948-3.079,5.393-3.946,5.393-3.946C88.375,47.797,86.208,46.068,84.976,44.789z
		 M75.679,52.66c-1.678-1.296-1.99-3.702-0.694-5.38c0.686-0.892,1.683-1.392,2.726-1.477c-0.181-0.194-0.387-0.374-0.61-0.543
		c-2.688-2.082-6.558-1.578-8.632,1.115c-0.244,0.303-0.442,0.631-0.618,0.972c0.282-1.018,0.753-1.981,1.418-2.831
		c1.599-2.074,4.001-3.159,6.44-3.159c1.729,0,3.475,0.551,4.951,1.687c3.546,2.743,4.202,7.85,1.464,11.392
		c-1.325,1.725-3.239,2.818-5.397,3.096c-2.145,0.273-4.282-0.307-5.995-1.632c-0.206-0.151-0.395-0.32-0.581-0.496
		c2.646,1.611,6.129,1.001,8.064-1.502c0.122-0.16,0.227-0.311,0.332-0.48C77.568,53.56,76.524,53.316,75.679,52.66z
		 M91.567,212.485c-3.269-7.004-6.066-14.303-7.888-21.841c-1.199-5.052-2.225-10.121-3.399-15.35
		c-1.249,6.592-0.185,13.445,1.249,19.915c2.112,9.129,5.746,18.022,11.017,25.783c2.835,4.556,6.571,8.565,10.958,11.657
		C99.522,225.66,94.941,219.657,91.567,212.485z M145.073,274.084c-6.659-6.659-12.927-13.731-19.342-20.668
		c2.856,7.219,7.669,13.436,12.931,19.044c4.337,4.476,9.381,8.485,14.854,11.484c1.296,0.648,2.608,1.275,3.95,1.822
		C153.263,281.794,149.119,278.122,145.073,274.084z M191.62,302.815c-2.924-2.617-5.877-5.153-9.12-7.416
		c5.852,10.138,21.917,25.387,33.212,28.631c0.997,0.215,1.986,0.412,2.97,0.534C208.791,318.317,200.378,310.488,191.62,302.815z
		 M287.293,307.287c-1.998-6.705-4.123-13.381-6.516-19.957c-2.385-6.579-4.977-13.079-7.702-19.519
		c-2.701-6.445-5.481-12.885-9.65-18.669c1.493,6.912,4.11,13.344,6.63,19.881c2.478,6.508,4.871,13.041,7.265,19.565
		c2.398,6.52,4.733,13.066,6.987,19.645c2.225,6.647,4.198,13.276,7.24,19.645C291.133,320.786,289.312,313.988,287.293,307.287z
		 M323.63,457.433c-11.69-10.441-19.999-23.852-29.043-36.548c4.114,11.421,21.08,40.237,33.986,41.108
		C326.815,460.398,325.22,458.934,323.63,457.433z M287.293,307.287c-1.998-6.705-4.123-13.381-6.516-19.957
		c-2.385-6.579-4.977-13.079-7.702-19.519c-2.701-6.445-5.481-12.885-9.65-18.669c1.493,6.912,4.11,13.344,6.63,19.881
		c2.478,6.508,4.871,13.041,7.265,19.565c2.398,6.52,4.733,13.066,6.987,19.645c2.225,6.647,4.198,13.276,7.24,19.645
		C291.133,320.786,289.312,313.988,287.293,307.287z M182.5,295.399c5.852,10.138,21.917,25.387,33.212,28.631
		c0.997,0.215,1.986,0.412,2.97,0.534c-9.89-6.247-18.303-14.076-27.062-21.749C188.696,300.199,185.743,297.662,182.5,295.399z
		 M125.73,253.416c2.856,7.219,7.669,13.436,12.931,19.044c4.337,4.476,9.381,8.485,14.854,11.484
		c1.296,0.648,2.608,1.275,3.95,1.822c-4.202-3.971-8.346-7.644-12.393-11.682C138.413,267.424,132.145,260.353,125.73,253.416z
		 M83.68,190.644c-1.199-5.052-2.225-10.121-3.399-15.35c-1.249,6.592-0.185,13.445,1.249,19.915
		c2.112,9.129,5.746,18.022,11.017,25.783c2.835,4.556,6.571,8.565,10.958,11.657c-3.984-6.987-8.565-12.99-11.939-20.163
		C88.299,205.481,85.501,198.182,83.68,190.644z M83.928,55.84c0.917-1.182,1.527-2.503,1.864-3.866
		c1.948-3.079,5.393-3.946,5.393-3.946c-2.81-0.231-4.977-1.96-6.209-3.239c-0.681-1.342-1.649-2.57-2.919-3.55
		c-2.204-1.699-4.922-2.448-7.69-2.091c-2.751,0.358-5.212,1.767-6.912,3.963c-1.144,1.485-1.838,3.21-2.074,5.023
		c-1.35,2.49-3.689,3.147-3.689,3.147c2.082,0.084,3.483,1.106,4.308,1.952c0.677,1.754,1.805,3.298,3.336,4.48
		c1.838,1.418,4.047,2.171,6.344,2.171c0.442,0,0.888-0.029,1.338-0.08C79.776,59.441,82.229,58.031,83.928,55.84z M75.679,52.66
		c-1.678-1.296-1.99-3.702-0.694-5.38c0.686-0.892,1.683-1.392,2.726-1.477c-0.181-0.194-0.387-0.374-0.61-0.543
		c-2.688-2.082-6.558-1.578-8.632,1.115c-0.244,0.303-0.442,0.631-0.618,0.972c0.282-1.018,0.753-1.981,1.418-2.831
		c1.599-2.074,4.001-3.159,6.44-3.159c1.729,0,3.475,0.551,4.951,1.687c3.546,2.743,4.202,7.85,1.464,11.392
		c-1.325,1.725-3.239,2.818-5.397,3.096c-2.145,0.273-4.282-0.307-5.995-1.632c-0.206-0.151-0.395-0.32-0.581-0.496
		c2.646,1.611,6.129,1.001,8.064-1.502c0.122-0.16,0.227-0.311,0.332-0.48C77.568,53.56,76.524,53.316,75.679,52.66z
		 M56.189,184.283c-0.008-0.004-0.017-0.013-0.025-0.017c-0.139-0.097-0.278-0.198-0.412-0.303
		c-0.017-0.008-0.029-0.021-0.046-0.034c-0.05-0.034-0.097-0.072-0.143-0.105c0.004,0.088,0.008,0.177,0.008,0.265
		c0.341,0.257,0.686,0.501,1.039,0.736c-0.139-0.177-0.273-0.358-0.408-0.534C56.198,184.287,56.193,184.287,56.189,184.283z
		 M51.78,115.672c-0.021,0.067-0.038,0.135-0.059,0.202c0.181,0.055,0.366,0.101,0.551,0.143c-0.109-0.097-0.215-0.193-0.311-0.294
		C51.902,115.71,51.844,115.693,51.78,115.672z M323.63,457.433c-11.69-10.441-19.999-23.852-29.043-36.548
		c4.114,11.421,21.08,40.237,33.986,41.108C326.815,460.398,325.22,458.934,323.63,457.433z M357.991,479.421
		c-3.004-7.707-6.6-14.967-10.163-22.3c-12.948-25.905-26.776-51.343-40.805-76.671c10.647,2.915,21.576,4.724,32.564,5.317
		l5.107,0.151c-3.908-3.445-7.644-7.118-10.778-11.421c-15.005-20.554-26.847-43.316-38.575-65.852l-0.227,0.114
		c-22.733-77.719-67.795-150.003-133.075-198.737c-7.151-5.54-13.596-12.885-15.527-21.908
		c-2.238-10.037-6.133-22.931-12.389-33.283c19.241-2.065,24.811-13.647,26.178-17.672c3.702-2.835,6.558-6.874,7.442-11.438
		c0.61-0.517,1.207-1.052,1.779-1.607c3.702-3.576,6.794-7.803,8.906-12.507c0.639-1.477,3.622-9.852,4.194-11.606
		c-0.787,0.825-6.617,7.795-7.454,8.451c-11.219,9.457-27.07,10.706-41.184,9.465c-11.362-1.06-22.573-4.038-33.347-7.824
		C89.531,6.074,77.934,3.062,65.953,3.458c-26.422,0.58-43.279,19.944-47.776,44.751c-4.686,2.827-26.801,18.228-14.5,50.657
		l2.465,6.516l1.191-6.874c0.008-0.055,0.442-2.431,1.645-5.246c3.34,3.386,10.664,9.452,20.365,9.452
		c1.531,0,3.134-0.16,4.779-0.505c1.106,1.813,2.368,3.315,3.757,4.787c2.234,2.276,4.703,4.35,7.429,6.011
		c-0.913,2.41-1.674,4.808-2.377,7.269c-5.044,18.291-5.683,40.422,5.603,56.471c-0.147,1.977-0.841,14.353,2.667,29.922
		c3.336,14.808,11.261,35.193,30.057,49.845c7.383,12.347,16.558,23.924,26.961,33.868c3.285,3.134,6.668,6.218,10.256,9.023
		c0.551,1.843,4.552,14.585,14.757,30.6c0,0-1.237,5.385-2.347,7.74c-1.502,3.193-3.811,5.275-3.811,5.275
		c-2.94,0.16-9.251,0.252-16.095-1.296c-0.749-0.168-1.481-0.337-2.196-0.505c-11.421-2.642-20.453-4.733-28.761,9.747
		c-2.133,3.706-3.168,7.034-3.618,8.805c-0.269,0.206-0.534,0.395-0.795,0.623c-8.422,7.757-4.762,20.289-1.531,29.586l2.141-3.866
		c6.205-10.386,18.61-15.859,30.524-14.93c2.057,0.147,4.274,0.366,6.331,0.446c8.611,0.517,17.269-1.174,25.438-3.689
		c1.973-0.517,3.887-0.93,5.662-0.854c3.681,0.168,7.219,2.537,10.075,4.867c2.987,2.549,5.671,5.717,7.669,9.095l2.558,4.455
		l0.968-4.981c1.09-6.411,0.118-13.087-2.919-18.854c-2.848-5.448-7.711-9.671-13.146-12.393c0.299-1.333,0.854-3.138,1.254-4.299
		c0.126-0.349,0.257-0.69,0.387-1.026c1.081,0.442,1.767,0.669,1.889,0.707c0,0-0.189-2.192,1.876-6.104
		c0.042-0.08,0.084-0.16,0.126-0.236c2.608-4.863,4.148-5.725,7.883-9.726c3.285,2.532,6.933,4.657,10.538,6.588
		c8.569,4.375,17.874,7.324,27.314,9.053c2.402,0.404,4.817,0.707,7.227,1.022c0.126,0.084,0.265,0.16,0.395,0.244
		c6.15,3.731,12.254,7.543,18.219,11.531c10.386,6.895,20.63,14.151,29.67,22.763l3.504,3.643
		c7.951,12.473,16.019,26.999,22.809,43.043c0.383,0.959,9.444,23.326,24.273,28.399c6.76,7.53,14.967,13.583,24.714,16.966
		c4.552,4.526,9.183,8.88,14.282,12.885c2.873,2.099,5.595,4.421,9.246,5.191c1.456,0.336,3.475-0.416,4.068-2.002
		C360.111,485.037,358.815,482.021,357.991,479.421z M333.566,468.559l-0.412-0.151c-16.452-6.44-28.572-20.524-36.565-35.908
		c-5.069-9.503-8.254-19.532-12.351-29.598c0.076,7.328,2.002,14.471,4.568,21.282c2.831,7.652,6.571,15.258,11.266,22.161
		c-8.641-7.892-14-21.109-14.084-21.307c-6.92-16.36-15.157-31.168-23.267-43.855l0.017-0.017c-0.029-0.046-0.067-0.084-0.105-0.13
		c-8.111-12.679-16.091-23.234-22.497-31.092l-0.004-0.004c-0.004-0.004-0.004-0.004-0.008-0.008
		c-3.378-4.139-6.323-7.53-8.615-10.092c2.385,0.593,4.796,1.073,7.223,1.43c17.529,17.407,39.472,30.292,63.096,37.646
		c0.938,1.683,1.872,3.37,2.802,5.056c5.073,9.15,10.096,18.32,15.06,27.524c8.451,15.653,16.797,31.39,24.723,47.317
		c3.483,7.135,7.156,14.627,9.999,21.904c0.517,1.447,0.989,2.94,1.174,4.274c0.051,0.366,0.067,0.825,0.021,1.157
		c-1.119-0.151-2.638-1.026-3.727-1.712c-6.583-4.375-12.359-9.999-18.013-15.577L333.566,468.559z M162.03,374.573
		c-4.489-5.641-10.845-10.815-17.706-11.287c-4.632-0.109-8.603,1.632-12.864,2.646c-3.984,1.035-8.001,1.683-12.094,1.872
		c-4.068,0.236-8.333-0.067-12.406-0.416c-8.792-0.581-17.975,1.683-25.08,7.055c-1.96,1.468-3.782,3.113-5.401,4.934
		c-0.29,0.311-0.564,0.631-0.825,0.955c-0.055,0.059-0.105,0.118-0.151,0.177c-0.05-0.294-0.101-0.585-0.147-0.879v-0.004
		c-0.185-1.216-0.328-2.436-0.4-3.651c-0.093-1.54-0.067-3.071,0.122-4.564c0-0.004,0-0.004,0-0.008
		c0.076-0.606,0.181-1.203,0.311-1.792c1.073-4.876,4.884-7.719,9.591-9.019c4.972-1.456,10.391-1.657,15.632-1.922
		c4.404-0.227,9.095-0.101,13.289-1.645c0.004,0,0.004,0,0.008-0.004c1.014-0.37,1.998-0.841,2.945-1.443
		c-1.434-0.231-2.861-0.404-4.278-0.526h-0.004c-4.017-0.358-7.984-0.353-12.044-0.353c-6.15,0.067-13.167-0.076-19.204,2.301
		c0.475-1.182,1.09-2.528,1.885-3.929c0.038-0.067,0.076-0.135,0.114-0.202c0.311-0.543,0.623-1.056,0.934-1.544
		c0.429-0.673,0.854-1.296,1.287-1.872v-0.004c6.167-8.262,12.523-6.79,22.375-4.51c0.724,0.164,1.464,0.332,2.221,0.509
		c5.082,1.148,9.839,1.456,13.339,1.472c0,0,1.106,0,1.603-0.008c-0.286,0.517-2.402,3.879-3.306,5.006
		c7.736-1.838,12.826-11.585,14.379-18.291c3.904,4.291,8.367,7.135,11.707,8.855c-1.266,3.37-1.822,6.882-1.153,10.336
		c0.374,1.531,0.984,2.987,1.914,4.198c-0.084-1.296-0.059-2.562,0.055-3.794c4.375,2.394,8.161,5.814,10.479,10.243
		c1.169,2.196,1.977,4.602,2.436,7.084C161.84,371.877,161.988,373.223,162.03,374.573z M20.222,51.41
		c0.534,0.097,1.392,0.269,2.486,0.534c0,0,0,0,0.004,0c0.69,0.168,1.468,0.374,2.318,0.618c7.311,2.124,19.599,7.374,21.063,18.884
		c0.017,0.093,0.029,0.189,0.038,0.282c0.215,1.943-0.16,3.437-1.144,4.556c-3.008,3.416-11.417,3.55-18.829,3.672
		c-2.242,0.038-4.358,0.076-6.382,0.193c-7.08,0.408-11.198,5.3-13.512,9.848c-0.324,0.635-0.61,1.262-0.867,1.872
		c-0.072-0.261-0.139-0.517-0.202-0.774c-0.29-1.144-0.53-2.263-0.728-3.353v-0.013C0.206,64.102,16.903,53.303,20.222,51.41z
		 M139.991,22.115c0.004,0.004,0.004,0.004,0.008,0h0.004c0.803,0.025,1.607,0.034,2.41,0.034c0.467,0,0.934-0.004,1.401-0.013
		c0.471-0.004,0.938-0.017,1.405-0.034c0.492-0.017,0.984-0.038,1.477-0.063c0.345-0.017,0.686-0.038,1.026-0.063
		c0.084,0,0.168-0.008,0.252-0.013c0.017,0,0.029,0,0.046-0.004c0.593-0.042,1.19-0.093,1.788-0.143
		c0.055-0.004,0.105-0.008,0.16-0.017c0.593-0.059,1.182-0.122,1.775-0.189c0.307-0.038,0.618-0.076,0.93-0.118
		c0.618-0.084,1.237-0.172,1.855-0.269c0.311-0.05,0.618-0.101,0.925-0.156c0.206-0.034,0.412-0.072,0.618-0.109
		c0.412-0.076,0.82-0.151,1.233-0.236c4.707-0.993,9.457-2.524,13.752-4.833c-6.218,8.148-15.468,13.933-25.543,16.057
		c-8.132,1.737-16.246,1.662-24.668,1.502c12.595,4.573,27.39,3.786,39.27-2.528c-1.851,2.141-4.131,3.916-6.63,5.221
		c-5.397,3.033-11.833,4.219-17.862,5.683c6.18,1.228,12.801,1.031,18.707-1.325c-3.05,4.35-9.474,9.831-22.582,10.714
		c-0.379-0.538-0.77-1.068-1.165-1.586c-0.198-0.257-0.395-0.509-0.597-0.761c-0.522-0.66-1.06-1.304-1.615-1.922
		c-0.004-0.004-0.008-0.013-0.013-0.017c-0.029-0.034-0.059-0.067-0.093-0.101c-0.093-0.105-0.185-0.206-0.282-0.311
		c-0.172-0.189-0.345-0.374-0.522-0.559c-0.219-0.227-0.437-0.454-0.656-0.673c-0.223-0.223-0.446-0.442-0.673-0.656
		c-0.227-0.215-0.454-0.429-0.686-0.635c-0.206-0.189-0.412-0.37-0.623-0.551c-0.063-0.059-0.126-0.114-0.194-0.164
		c-0.172-0.147-0.345-0.294-0.522-0.437c-0.067-0.055-0.135-0.109-0.206-0.164c-0.194-0.156-0.387-0.307-0.585-0.454
		c-0.244-0.185-0.488-0.366-0.736-0.543c-0.501-0.366-1.01-0.707-1.527-1.031c-0.004,0-0.004-0.004-0.008-0.004
		c-0.236-0.147-0.48-0.29-0.719-0.433c8.687,10.218,14.151,22.678,18.631,35.21c1.464,4.207,2.667,8.51,3.736,12.856
		c0.244,1.712,0.736,3.353,1.334,4.96c3.046,8.018,8.969,14.656,15.683,19.805c68.115,50.956,113.08,128.102,135.241,209.384
		c2.667,9.503,4.329,19.061,8.573,28.168c0.29-8.796-1.868-17.323-4.038-25.783c0.892,1.67,1.767,3.344,2.671,5.014
		c8.842,16.082,17.752,32.207,28.723,46.985c1.22,1.582,2.469,3.159,3.811,4.686c-1.279-0.151-2.553-0.328-3.815-0.513
		c-33.25-4.913-65.343-19.784-89.594-43.072c0-0.008,0.017-0.114,0.017-0.114c-0.059-0.017-0.114-0.021-0.177-0.038
		c-5.759-5.549-11.089-11.577-15.863-18.059c-1.969-2.381-3.971-4.627-6.579-6.44c0.618,3.201,1.998,5.982,3.66,8.548
		c1.7,2.553,3.609,4.947,5.511,7.358c1.918,2.398,3.921,4.733,5.986,6.996c-1.822-0.488-3.626-1.014-5.41-1.624
		c-21.223-7.593-38.613-22.927-53.307-39.669c-6.188-6.718-10.752-14.698-17.656-20.781c1.102,4.611,3.513,8.603,6.209,12.393
		c2.667,3.748,5.465,7.408,8.384,10.967c0.538,0.652,1.081,1.296,1.628,1.943c-27.508-11.312-51.179-31.841-59.15-61.473
		c-1.174-4.594-2.074-8.969-3.98-13.449c-1.67,4.745-0.846,9.684,0.299,14.404c0.825,3.327,1.843,6.604,3.054,9.814
		c-21.58-17.664-34.705-35.492-38.546-65.221c-3.062-19.86,2.743-36.258,24.02-40.906c6.617-1.405,13.226-1.569,20.016-2.385
		c-9.781-3.643-21.475-1.847-30.818,2.398c-13.516,6.314-18.556,19.523-18.097,33.498c0,0.004,0,0.004,0,0.008
		c0.029,0.9,0.08,1.809,0.156,2.718c2.263,30.309,14.686,52.559,38.571,71.148c2.612,2.095,5.263,4.114,7.888,6.142
		c7.93,16.187,21.185,29.531,36.762,38.479c8.001,4.657,16.528,8.321,25.308,11.017c12.65,13.68,27.579,25.564,45.108,32.047
		c0.787,0.816,2.179,2.288,4.043,4.362c3.147,3.496,7.644,8.699,12.868,15.371c0.004,0.004,0.004,0.004,0.004,0.008
		c2.352,2.999,4.846,6.297,7.433,9.865c-0.58-0.48-1.165-0.959-1.763-1.43c-8.535-6.844-17.731-12.788-27.091-18.438
		c-4.686-2.772-9.436-5.439-14.219-8.039c-4.825-2.659-9.718-4.998-15.249-6.058c2.406,2.331,5.027,4.266,7.749,6.045
		c-0.076-0.017-0.151-0.034-0.219-0.055c-7.799-1.754-15.502-4.32-22.805-7.576c-7.336-3.475-14.084-7.551-20.726-12.389
		c0.093,0.16,0.189,0.32,0.29,0.48c0.362,0.576,0.757,1.148,1.186,1.712l0.004,0.004c0.82,1.09,1.742,2.15,2.684,3.13
		c0.589,0.618,1.186,1.207,1.771,1.75c0,0-1.636,1.275-2.415,2.065c-2.835,2.957-4.804,5.868-7.265,11.409
		c-4.274-2.246-11.665-7.345-15.569-14.265l-0.021,0.008c-0.358-0.589-0.703-1.157-1.043-1.737c-0.337-0.572-0.673-1.136-0.993-1.7
		c-2.743-4.77-4.892-9.129-6.529-12.78c-0.093-0.215-0.194-0.429-0.286-0.639c-0.181-0.421-0.362-0.833-0.53-1.228
		c-0.16-0.383-0.32-0.749-0.467-1.106c-0.168-0.404-0.328-0.783-0.48-1.165c-0.143-0.349-0.273-0.686-0.404-1.014
		c-0.139-0.336-0.261-0.66-0.383-0.976c1.388,0.896,2.81,1.742,4.274,2.516c1.073,0.572,2.171,1.111,3.29,1.607
		c0,0,0.004,0,0.004,0.004c0.854,0.374,1.725,0.728,2.608,1.056c-1.401-1.653-2.882-3.155-4.396-4.585
		c-4.497-4.261-9.267-8.195-13.756-12.456c-5.906-5.494-11.682-11.77-16.835-17.992c-4.636-5.494-14.543-19.485-14.749-19.788
		c-4.724-6.878-8.089-14.496-13.47-20.954c0.076,0.665,0.177,1.325,0.299,1.977c0.097,0.513,0.206,1.031,0.328,1.536
		c0,0.004,0,0.004,0,0.008c0.825,3.399,2.209,6.613,3.815,9.734c-21.004-22.481-23.061-53.362-23.053-64.695
		c1.047,1.039,2.171,2.007,3.357,2.882c0.341,0.257,0.686,0.501,1.039,0.736c0.004,0.004,0.004,0.008,0.008,0.008
		c0.816,0.555,1.662,1.068,2.537,1.535c-4.017-5.443-7.749-10.647-10.47-16.768c-7.391-17.252-5.086-37.082,0.236-54.708
		c0.909,0.387,1.843,0.719,2.802,0.98c0.181,0.055,0.366,0.101,0.551,0.143c0.614,0.151,1.237,0.273,1.868,0.362
		c-0.724-0.825-1.502-1.51-2.246-2.225c-0.711-0.639-10.281-9.444-13.68-13.146c1.001-0.383,2.011-0.833,3.041-1.363
		c0.177-0.093,0.358-0.185,0.538-0.282c6.348-3.445,9.192-12.616,6.827-21.614c1.127-1.775,1.573-3.933,1.296-6.44
		c-1.868-16.781-21.505-22.131-27.832-23.427c0.572-3.033,1.456-6.133,2.503-9.032C35.109,9.642,60.185,2.28,88.459,10.189
		c7.45,2.011,14.601,5.04,22.077,7.05c9.532,2.663,19.485,4.602,29.447,4.876C139.987,22.119,139.987,22.119,139.991,22.115z
		 M10.992,89.548c1.948-2.856,4.825-5.351,9.007-5.595c1.935-0.109,4.017-0.147,6.226-0.185c7.067-0.114,14.315-0.248,18.972-2.877
		c0.067-0.034,0.13-0.072,0.194-0.109c1.153,7.135-1.59,13.163-5.418,15.224c-14.829,8.052-26.039-2.781-29.11-6.268
		C10.904,89.674,10.946,89.611,10.992,89.548z M294.587,420.885c4.114,11.421,21.08,40.237,33.986,41.108
		c-1.758-1.594-3.353-3.058-4.943-4.56C311.94,446.992,303.632,433.581,294.587,420.885z M277.319,288.588
		c2.398,6.52,4.733,13.066,6.987,19.645c2.225,6.647,4.198,13.276,7.24,19.645c-0.412-7.092-2.234-13.891-4.253-20.592
		c-1.998-6.705-4.123-13.381-6.516-19.957c-2.385-6.579-4.977-13.079-7.702-19.519c-2.701-6.445-5.481-12.885-9.65-18.669
		c1.493,6.912,4.11,13.344,6.63,19.881C272.531,275.531,274.925,282.064,277.319,288.588z M215.711,324.03
		c0.997,0.215,1.986,0.412,2.97,0.534c-9.89-6.247-18.303-14.076-27.062-21.749c-2.924-2.617-5.877-5.153-9.12-7.416
		C188.351,305.537,204.417,320.786,215.711,324.03z M153.515,283.944c1.296,0.648,2.608,1.275,3.95,1.822
		c-4.202-3.971-8.346-7.644-12.393-11.682c-6.659-6.659-12.927-13.731-19.342-20.668c2.856,7.219,7.669,13.436,12.931,19.044
		C142.999,276.936,148.042,280.945,153.515,283.944z M83.68,190.644c-1.199-5.052-2.225-10.121-3.399-15.35
		c-1.249,6.592-0.185,13.445,1.249,19.915c2.112,9.129,5.746,18.022,11.017,25.783c2.835,4.556,6.571,8.565,10.958,11.657
		c-3.984-6.987-8.565-12.99-11.939-20.163C88.299,205.481,85.501,198.182,83.68,190.644z M84.976,44.789
		c-0.681-1.342-1.649-2.57-2.919-3.55c-2.204-1.699-4.922-2.448-7.69-2.091c-2.751,0.358-5.212,1.767-6.912,3.963
		c-1.144,1.485-1.838,3.21-2.074,5.023c-1.35,2.49-3.689,3.147-3.689,3.147c2.082,0.084,3.483,1.106,4.308,1.952
		c0.677,1.754,1.805,3.298,3.336,4.48c1.838,1.418,4.047,2.171,6.344,2.171c0.442,0,0.888-0.029,1.338-0.08
		c2.76-0.362,5.212-1.771,6.912-3.963c0.917-1.182,1.527-2.503,1.864-3.866c1.948-3.079,5.393-3.946,5.393-3.946
		C88.375,47.797,86.208,46.068,84.976,44.789z M75.679,52.66c-1.678-1.296-1.99-3.702-0.694-5.38
		c0.686-0.892,1.683-1.392,2.726-1.477c-0.181-0.194-0.387-0.374-0.61-0.543c-2.688-2.082-6.558-1.578-8.632,1.115
		c-0.244,0.303-0.442,0.631-0.618,0.972c0.282-1.018,0.753-1.981,1.418-2.831c1.599-2.074,4.001-3.159,6.44-3.159
		c1.729,0,3.475,0.551,4.951,1.687c3.546,2.743,4.202,7.85,1.464,11.392c-1.325,1.725-3.239,2.818-5.397,3.096
		c-2.145,0.273-4.282-0.307-5.995-1.632c-0.206-0.151-0.395-0.32-0.581-0.496c2.646,1.611,6.129,1.001,8.064-1.502
		c0.122-0.16,0.227-0.311,0.332-0.48C77.568,53.56,76.524,53.316,75.679,52.66z M323.63,457.433
		c-11.69-10.441-19.999-23.852-29.043-36.548c4.114,11.421,21.08,40.237,33.986,41.108
		C326.815,460.398,325.22,458.934,323.63,457.433z M51.961,115.722c-0.059-0.013-0.118-0.029-0.181-0.05
		c-0.021,0.067-0.038,0.135-0.059,0.202c0.181,0.055,0.366,0.101,0.551,0.143C52.163,115.92,52.058,115.823,51.961,115.722z
		 M56.202,184.291c-0.004-0.004-0.008-0.004-0.013-0.008c-0.008-0.004-0.017-0.013-0.025-0.017
		c-0.139-0.097-0.278-0.198-0.412-0.303c-0.017-0.008-0.029-0.021-0.046-0.034c-0.05-0.034-0.097-0.072-0.143-0.105
		c0.004,0.088,0.008,0.177,0.008,0.265c0.341,0.257,0.686,0.501,1.039,0.736C56.471,184.649,56.336,184.468,56.202,184.291z
		 M84.976,44.789c-0.681-1.342-1.649-2.57-2.919-3.55c-2.204-1.699-4.922-2.448-7.69-2.091c-2.751,0.358-5.212,1.767-6.912,3.963
		c-1.144,1.485-1.838,3.21-2.074,5.023c-1.35,2.49-3.689,3.147-3.689,3.147c2.082,0.084,3.483,1.106,4.308,1.952
		c0.677,1.754,1.805,3.298,3.336,4.48c1.838,1.418,4.047,2.171,6.344,2.171c0.442,0,0.888-0.029,1.338-0.08
		c2.76-0.362,5.212-1.771,6.912-3.963c0.917-1.182,1.527-2.503,1.864-3.866c1.948-3.079,5.393-3.946,5.393-3.946
		C88.375,47.797,86.208,46.068,84.976,44.789z M75.679,52.66c-1.678-1.296-1.99-3.702-0.694-5.38
		c0.686-0.892,1.683-1.392,2.726-1.477c-0.181-0.194-0.387-0.374-0.61-0.543c-2.688-2.082-6.558-1.578-8.632,1.115
		c-0.244,0.303-0.442,0.631-0.618,0.972c0.282-1.018,0.753-1.981,1.418-2.831c1.599-2.074,4.001-3.159,6.44-3.159
		c1.729,0,3.475,0.551,4.951,1.687c3.546,2.743,4.202,7.85,1.464,11.392c-1.325,1.725-3.239,2.818-5.397,3.096
		c-2.145,0.273-4.282-0.307-5.995-1.632c-0.206-0.151-0.395-0.32-0.581-0.496c2.646,1.611,6.129,1.001,8.064-1.502
		c0.122-0.16,0.227-0.311,0.332-0.48C77.568,53.56,76.524,53.316,75.679,52.66z M91.567,212.485
		c-3.269-7.004-6.066-14.303-7.888-21.841c-1.199-5.052-2.225-10.121-3.399-15.35c-1.249,6.592-0.185,13.445,1.249,19.915
		c2.112,9.129,5.746,18.022,11.017,25.783c2.835,4.556,6.571,8.565,10.958,11.657C99.522,225.66,94.941,219.657,91.567,212.485z
		 M145.073,274.084c-6.659-6.659-12.927-13.731-19.342-20.668c2.856,7.219,7.669,13.436,12.931,19.044
		c4.337,4.476,9.381,8.485,14.854,11.484c1.296,0.648,2.608,1.275,3.95,1.822C153.263,281.794,149.119,278.122,145.073,274.084z
		 M191.62,302.815c-2.924-2.617-5.877-5.153-9.12-7.416c5.852,10.138,21.917,25.387,33.212,28.631
		c0.997,0.215,1.986,0.412,2.97,0.534C208.791,318.317,200.378,310.488,191.62,302.815z M287.293,307.287
		c-1.998-6.705-4.123-13.381-6.516-19.957c-2.385-6.579-4.977-13.079-7.702-19.519c-2.701-6.445-5.481-12.885-9.65-18.669
		c1.493,6.912,4.11,13.344,6.63,19.881c2.478,6.508,4.871,13.041,7.265,19.565c2.398,6.52,4.733,13.066,6.987,19.645
		c2.225,6.647,4.198,13.276,7.24,19.645C291.133,320.786,289.312,313.988,287.293,307.287z M323.63,457.433
		c-11.69-10.441-19.999-23.852-29.043-36.548c4.114,11.421,21.08,40.237,33.986,41.108
		C326.815,460.398,325.22,458.934,323.63,457.433z M287.293,307.287c-1.998-6.705-4.123-13.381-6.516-19.957
		c-2.385-6.579-4.977-13.079-7.702-19.519c-2.701-6.445-5.481-12.885-9.65-18.669c1.493,6.912,4.11,13.344,6.63,19.881
		c2.478,6.508,4.871,13.041,7.265,19.565c2.398,6.52,4.733,13.066,6.987,19.645c2.225,6.647,4.198,13.276,7.24,19.645
		C291.133,320.786,289.312,313.988,287.293,307.287z M191.62,302.815c-2.924-2.617-5.877-5.153-9.12-7.416
		c5.852,10.138,21.917,25.387,33.212,28.631c0.997,0.215,1.986,0.412,2.97,0.534C208.791,318.317,200.378,310.488,191.62,302.815z
		 M145.073,274.084c-6.659-6.659-12.927-13.731-19.342-20.668c2.856,7.219,7.669,13.436,12.931,19.044
		c4.337,4.476,9.381,8.485,14.854,11.484c1.296,0.648,2.608,1.275,3.95,1.822C153.263,281.794,149.119,278.122,145.073,274.084z
		 M91.567,212.485c-3.269-7.004-6.066-14.303-7.888-21.841c-1.199-5.052-2.225-10.121-3.399-15.35
		c-1.249,6.592-0.185,13.445,1.249,19.915c2.112,9.129,5.746,18.022,11.017,25.783c2.835,4.556,6.571,8.565,10.958,11.657
		C99.522,225.66,94.941,219.657,91.567,212.485z M84.976,44.789c-0.681-1.342-1.649-2.57-2.919-3.55
		c-2.204-1.699-4.922-2.448-7.69-2.091c-2.751,0.358-5.212,1.767-6.912,3.963c-1.144,1.485-1.838,3.21-2.074,5.023
		c-1.35,2.49-3.689,3.147-3.689,3.147c2.082,0.084,3.483,1.106,4.308,1.952c0.677,1.754,1.805,3.298,3.336,4.48
		c1.838,1.418,4.047,2.171,6.344,2.171c0.442,0,0.888-0.029,1.338-0.08c2.76-0.362,5.212-1.771,6.912-3.963
		c0.917-1.182,1.527-2.503,1.864-3.866c1.948-3.079,5.393-3.946,5.393-3.946C88.375,47.797,86.208,46.068,84.976,44.789z
		 M75.679,52.66c-1.678-1.296-1.99-3.702-0.694-5.38c0.686-0.892,1.683-1.392,2.726-1.477c-0.181-0.194-0.387-0.374-0.61-0.543
		c-2.688-2.082-6.558-1.578-8.632,1.115c-0.244,0.303-0.442,0.631-0.618,0.972c0.282-1.018,0.753-1.981,1.418-2.831
		c1.599-2.074,4.001-3.159,6.44-3.159c1.729,0,3.475,0.551,4.951,1.687c3.546,2.743,4.202,7.85,1.464,11.392
		c-1.325,1.725-3.239,2.818-5.397,3.096c-2.145,0.273-4.282-0.307-5.995-1.632c-0.206-0.151-0.395-0.32-0.581-0.496
		c2.646,1.611,6.129,1.001,8.064-1.502c0.122-0.16,0.227-0.311,0.332-0.48C77.568,53.56,76.524,53.316,75.679,52.66z M84.976,44.789
		c-0.681-1.342-1.649-2.57-2.919-3.55c-2.204-1.699-4.922-2.448-7.69-2.091c-2.751,0.358-5.212,1.767-6.912,3.963
		c-1.144,1.485-1.838,3.21-2.074,5.023c-1.35,2.49-3.689,3.147-3.689,3.147c2.082,0.084,3.483,1.106,4.308,1.952
		c0.677,1.754,1.805,3.298,3.336,4.48c1.838,1.418,4.047,2.171,6.344,2.171c0.442,0,0.888-0.029,1.338-0.08
		c2.76-0.362,5.212-1.771,6.912-3.963c0.917-1.182,1.527-2.503,1.864-3.866c1.948-3.079,5.393-3.946,5.393-3.946
		C88.375,47.797,86.208,46.068,84.976,44.789z M75.679,52.66c-1.678-1.296-1.99-3.702-0.694-5.38
		c0.686-0.892,1.683-1.392,2.726-1.477c-0.181-0.194-0.387-0.374-0.61-0.543c-2.688-2.082-6.558-1.578-8.632,1.115
		c-0.244,0.303-0.442,0.631-0.618,0.972c0.282-1.018,0.753-1.981,1.418-2.831c1.599-2.074,4.001-3.159,6.44-3.159
		c1.729,0,3.475,0.551,4.951,1.687c3.546,2.743,4.202,7.85,1.464,11.392c-1.325,1.725-3.239,2.818-5.397,3.096
		c-2.145,0.273-4.282-0.307-5.995-1.632c-0.206-0.151-0.395-0.32-0.581-0.496c2.646,1.611,6.129,1.001,8.064-1.502
		c0.122-0.16,0.227-0.311,0.332-0.48C77.568,53.56,76.524,53.316,75.679,52.66z M91.567,212.485
		c-3.269-7.004-6.066-14.303-7.888-21.841c-1.199-5.052-2.225-10.121-3.399-15.35c-1.249,6.592-0.185,13.445,1.249,19.915
		c2.112,9.129,5.746,18.022,11.017,25.783c2.835,4.556,6.571,8.565,10.958,11.657C99.522,225.66,94.941,219.657,91.567,212.485z
		 M145.073,274.084c-6.659-6.659-12.927-13.731-19.342-20.668c2.856,7.219,7.669,13.436,12.931,19.044
		c4.337,4.476,9.381,8.485,14.854,11.484c1.296,0.648,2.608,1.275,3.95,1.822C153.263,281.794,149.119,278.122,145.073,274.084z
		 M191.62,302.815c-2.924-2.617-5.877-5.153-9.12-7.416c5.852,10.138,21.917,25.387,33.212,28.631
		c0.997,0.215,1.986,0.412,2.97,0.534C208.791,318.317,200.378,310.488,191.62,302.815z M287.293,307.287
		c-1.998-6.705-4.123-13.381-6.516-19.957c-2.385-6.579-4.977-13.079-7.702-19.519c-2.701-6.445-5.481-12.885-9.65-18.669
		c1.493,6.912,4.11,13.344,6.63,19.881c2.478,6.508,4.871,13.041,7.265,19.565c2.398,6.52,4.733,13.066,6.987,19.645
		c2.225,6.647,4.198,13.276,7.24,19.645C291.133,320.786,289.312,313.988,287.293,307.287z M323.63,457.433
		c-11.69-10.441-19.999-23.852-29.043-36.548c4.114,11.421,21.08,40.237,33.986,41.108
		C326.815,460.398,325.22,458.934,323.63,457.433z M84.976,44.789c-0.681-1.342-1.649-2.57-2.919-3.55
		c-2.204-1.699-4.922-2.448-7.69-2.091c-2.751,0.358-5.212,1.767-6.912,3.963c-1.144,1.485-1.838,3.21-2.074,5.023
		c-1.35,2.49-3.689,3.147-3.689,3.147c2.082,0.084,3.483,1.106,4.308,1.952c0.677,1.754,1.805,3.298,3.336,4.48
		c1.838,1.418,4.047,2.171,6.344,2.171c0.442,0,0.888-0.029,1.338-0.08c2.76-0.362,5.212-1.771,6.912-3.963
		c0.917-1.182,1.527-2.503,1.864-3.866c1.948-3.079,5.393-3.946,5.393-3.946C88.375,47.797,86.208,46.068,84.976,44.789z
		 M75.679,52.66c-1.678-1.296-1.99-3.702-0.694-5.38c0.686-0.892,1.683-1.392,2.726-1.477c-0.181-0.194-0.387-0.374-0.61-0.543
		c-2.688-2.082-6.558-1.578-8.632,1.115c-0.244,0.303-0.442,0.631-0.618,0.972c0.282-1.018,0.753-1.981,1.418-2.831
		c1.599-2.074,4.001-3.159,6.44-3.159c1.729,0,3.475,0.551,4.951,1.687c3.546,2.743,4.202,7.85,1.464,11.392
		c-1.325,1.725-3.239,2.818-5.397,3.096c-2.145,0.273-4.282-0.307-5.995-1.632c-0.206-0.151-0.395-0.32-0.581-0.496
		c2.646,1.611,6.129,1.001,8.064-1.502c0.122-0.16,0.227-0.311,0.332-0.48C77.568,53.56,76.524,53.316,75.679,52.66z
		 M91.567,212.485c-3.269-7.004-6.066-14.303-7.888-21.841c-1.199-5.052-2.225-10.121-3.399-15.35
		c-1.249,6.592-0.185,13.445,1.249,19.915c2.112,9.129,5.746,18.022,11.017,25.783c2.835,4.556,6.571,8.565,10.958,11.657
		C99.522,225.66,94.941,219.657,91.567,212.485z M287.293,307.287c-1.998-6.705-4.123-13.381-6.516-19.957
		c-2.385-6.579-4.977-13.079-7.702-19.519c-2.701-6.445-5.481-12.885-9.65-18.669c1.493,6.912,4.11,13.344,6.63,19.881
		c2.478,6.508,4.871,13.041,7.265,19.565c2.398,6.52,4.733,13.066,6.987,19.645c2.225,6.647,4.198,13.276,7.24,19.645
		C291.133,320.786,289.312,313.988,287.293,307.287z M145.073,274.084c-6.659-6.659-12.927-13.731-19.342-20.668
		c2.856,7.219,7.669,13.436,12.931,19.044c4.337,4.476,9.381,8.485,14.854,11.484c1.296,0.648,2.608,1.275,3.95,1.822
		C153.263,281.794,149.119,278.122,145.073,274.084z M323.63,457.433c-11.69-10.441-19.999-23.852-29.043-36.548
		c4.114,11.421,21.08,40.237,33.986,41.108C326.815,460.398,325.22,458.934,323.63,457.433z M191.62,302.815
		c-2.924-2.617-5.877-5.153-9.12-7.416c5.852,10.138,21.917,25.387,33.212,28.631c0.997,0.215,1.986,0.412,2.97,0.534
		C208.791,318.317,200.378,310.488,191.62,302.815z"/>
</g>
</svg>
