<?xml version="1.0" encoding="utf-8"?>
<!-- Generator: Adobe Illustrator 28.3.0, SVG Export Plug-In . SVG Version: 6.00 Build 0)  -->
<svg version="1.1" id="coyote" xmlns="http://www.w3.org/2000/svg" xmlns:xlink="http://www.w3.org/1999/xlink" x="0px" y="0px"
	 viewBox="0 0 381.3 490" style="enable-background:new 0 0 381.3 490;" xml:space="preserve">
<style type="text/css">
	.st0{fill:#D69A72;}
	.st1{fill:#FFCEA6;}
	.st2{fill:#AD704E;}
	.st3{fill:#FFFFFF;}
	.st4{fill:#231F20;}
</style>
<g id="coyote_00000077320642281224754650000004544317380502303896_">
	<g>
		<path class="st0" d="M116.1,163.2l-0.1-0.9l-0.9,0.2c-2.2,0.6-4.6,1.3-7,2.1l-2,0.7l2,0.9c2.5,1.1,5.5,2.4,8.7,4.1l2.2,1.1
			l-1.1-2.3c-0.6-1.2-1-2.3-1.3-3.5C116.4,164.9,116.2,164.1,116.1,163.2z"/>
		<path class="st0" d="M167.9,162.3l-0.1,0.9c-0.1,0.8-0.3,1.7-0.5,2.5c-0.3,1.2-0.7,2.3-1.3,3.5l-1.1,2.3l2.3-1.2
			c3.2-1.6,6.2-3,8.7-4.1l2-0.9l-2-0.7c-2.4-0.8-4.7-1.5-6.9-2.1L167.9,162.3z"/>
		<path class="st0" d="M218.4,456c-0.9-2.2-2.2-4.3-3.7-5.8c-2.2-2.3-4.7-3.3-6.4-2.6c-0.8,0.3-1.4,0.9-1.8,1.7l-0.5,0.9l-0.8-0.6
			c-0.5-0.4-1-0.7-1.5-1c-1.7-0.9-3.2-1.1-4.5-0.6c-0.7,0.3-1.3,0.8-1.8,1.4l-0.6,0.9l-0.7-0.8c-1.5-1.6-3-2.3-4.5-2.1
			c-1.5,0.3-5.1,4.1-5.1,8.1v0.5l0.5,0.2c1.3,0.7,2.5,1.7,3.7,3.1c0.2,0.2,0.4,0.5,0.6,0.8c1.5,2.1,2.8,4.7,3.5,7.6
			c0.5,2,0.8,4.1,0.8,6c0,0.4,0,0.8,0,1.2v1.5l1.2-0.6c1.6-0.8,2.9-2.9,3.6-5.7l0.4-1.5l1.1,1.2c2.6,2.7,5.5,3.9,7.6,3.1
			c1.7-0.7,2.5-2.4,2.9-3.7l0.3-1l1,0.5c1.3,0.7,2.6,0.8,3.6,0.4c1.5-0.6,2.2-2.1,2.5-3.3c0.4-1.3,0.4-3,0.2-4.8
			C219.5,459.2,219,457.6,218.4,456z"/>
		<path class="st0" d="M189.6,461.2c-1.5-2.1-3.1-3.1-4-3.5c-1-0.5-2-0.6-2.9-0.4c-0.9,0.2-1.7,0.8-2.4,1.7l-0.6,0.8l-0.7-0.7
			c-0.5-0.5-1-1-1.5-1.3c-0.4-0.3-0.7-0.5-1-0.6c-1.4-0.7-2.7-1-3.9-0.7c-0.6,0.1-1.1,0.4-1.6,0.8l-0.2,0.2l-0.9,3.2l-1.2-3.4
			l-0.1-0.2c-1.3-1.6-2.7-2.4-4.2-2.4c-2.1,0-3.7,1.6-4.7,3l-1.3,3.5l-0.9-2.8l-0.3-0.2c-0.4-0.2-0.7-0.3-1-0.4
			c-3.8-1-9.4,3.6-11.8,12.5c-1.4,5.3-1.1,10.6,0.8,13.8c0.9,1.5,2,2.4,3.3,2.7c2.6,0.7,5.6-1.1,8.1-4.6l1.3-3.9l0.7,4.3l0.1,0.2
			c1.6,2.9,3.6,4.5,5.6,4.5c2.3,0,4.5-2,6-5.4l0.2-0.5l0.1-0.7h-0.1l0.7-3l1.3,3.7l0.1,0.2c2.4,3,5.2,4.4,7.6,3.8
			c1.4-0.4,2.6-1.4,3.4-3l0.3-4.2l1.9,3.4l0.2,0.1c1.2,0.6,2.3,0.8,3.3,0.6c1.8-0.4,2.8-2.1,3.3-3.4c0.3-0.6,0.5-1.4,0.6-2.1
			c0.2-0.9,0.3-2,0.3-3.1c0-1.8-0.2-3.7-0.7-5.6C192.1,465.5,191,463.1,189.6,461.2z"/>
		<path class="st0" d="M128.5,457.8L128.5,457.8c-0.3,0.1-0.7,0.2-1,0.4l-0.3,0.2l-0.9,2.8l-1.3-3.4l-0.1-0.1c-1-1.4-2.6-3-4.7-3
			c-1.5,0-2.9,0.8-4.2,2.4l-1.3,3.6l-0.9-3.2l-0.2-0.2c-0.5-0.4-1.1-0.7-1.7-0.8c-1.2-0.3-2.5-0.1-3.9,0.6c-0.4,0.2-0.7,0.4-1.1,0.7
			c-0.5,0.3-1,0.8-1.5,1.3l-0.7,0.7l-0.6-0.8c-0.7-0.9-1.5-1.5-2.4-1.7c-0.9-0.2-1.9-0.1-3,0.4c-0.7,0.3-2.3,1.3-3.9,3.5
			c-1.4,1.9-2.5,4.3-3.2,7c-0.1,0.5-0.2,0.9-0.3,1.4c0,0.2-0.1,0.3-0.1,0.5l-0.1,0.5c0,0.1,0,0.2-0.1,0.3c0,0.2,0,0.4-0.1,0.7
			l-0.1,0.7c0,0.1,0,0.2,0,0.4l0,0.4c0,0.2,0,0.4,0,0.5c0,1.1,0.1,2.2,0.3,3.1c0.2,0.8,0.4,1.5,0.6,2.2c0.5,1.3,1.5,2.9,3.3,3.4
			c1,0.3,2.2,0.1,3.3-0.6l0.2-0.1l1.8-3.4l0.2,3.8l0.1,0.3c0.9,1.6,2.1,2.7,3.5,3c2.3,0.6,5.1-0.8,7.6-3.8l1.4-3.9l0.7,3h-0.3
			l0.6,1.2c1.6,3.4,3.8,5.4,6,5.4c2.1,0,4.1-1.6,5.6-4.5l0.8-4.5l1.3,3.7l0.1,0.2c2.5,3.5,5.6,5.3,8.1,4.6c1.3-0.3,2.4-1.2,3.3-2.7
			c1.9-3.2,2.2-8.5,0.9-13.8C137.9,461.4,132.3,456.8,128.5,457.8z"/>
		<path class="st0" d="M93.4,460.1L93.4,460.1c0.2-0.3,0.4-0.5,0.6-0.8c1.1-1.4,2.3-2.4,3.6-3l0.5-0.2l0-0.5c0-4.1-3.6-7.8-5.1-8.1
			c-1.8-0.2-3.4,1-4.5,2.2l-0.7,0.8l-0.6-0.9c-0.5-0.7-1.1-1.2-1.8-1.4c-1.6-0.6-3.3,0-4.4,0.6c-0.5,0.3-1,0.6-1.5,1l-0.8,0.6
			l-0.5-0.9c-0.5-0.9-1.1-1.4-1.8-1.7c-1.8-0.7-4.2,0.3-6.5,2.6c-1.5,1.6-2.8,3.6-3.7,5.8c-0.7,1.6-1.1,3.2-1.3,4.8
			c-0.2,1.7-0.2,3.4,0.2,4.7c0.3,1.2,1,2.7,2.5,3.3c1.3,0.5,2.7,0.1,3.6-0.4l1-0.5l0.3,1c0.4,1.3,1.2,3,2.9,3.7
			c2.1,0.8,5-0.3,7.6-3.1l1.1-1.2l0.4,1.5c0.7,2.9,2,4.9,3.6,5.7l1.5,0.8l-0.3-1.7c0-0.4,0-0.7,0-1.1c0-2,0.3-4,0.8-6
			C90.7,464.9,91.9,462.2,93.4,460.1z"/>
		<path class="st0" d="M353.5,341.3c11.1-9.3,24.3-25,24.5-47c0.1-7.3-1.2-14.8-3.7-21.6l-1.2-3.3l-0.4,3.5
			c-1.1,9.3-4.1,18.5-8.8,27.1c-1.8,3.3-3.7,6.1-5.8,8.5c1-2.3,2.1-4.6,3.2-6.9c2.4-5.1,4.9-10.3,6.5-15.8
			c7.3-22.8,1.4-47.8-15.7-66.8c-1.7-1.9-3.4-3.7-5-5.3l-2.2-2.1l0.8,3c2.9,10.7,0.1,23.4-7.2,33.2c-0.8,1.1-1.8,2.3-2.7,3.6
			c-0.7,0.9-1.3,1.7-1.9,2.5c-5.2,7-8.7,13.5-10.8,19.7c-0.9,2.6-1.7,5-2.8,7.5c-0.8-3.4,0-8,2.4-13.8l0.7-1.7l-1.8,0.6
			c-7.4,2.5-14,6-19.4,10.3c-8,6.3-14.5,14.9-18.7,24.9c-1.9,4.6-3.4,9.3-4.8,13.9c0.1-4.6,1.2-9.5,3.3-14.8l0.6-1.5l-1.6,0.4
			c-8,1.9-22.9,6.8-32.2,18.8l-0.2,0.3l0,0.3c1,9.5-0.1,18.3-3.1,26.1l-0.5,1.3l1.4-0.2c5.5-0.8,11.3-0.5,16.5,0.8
			c17.8,4.7,20.4,23.7,20.7,31.6c0.5,8-0.6,16.1-3.2,23.6c-3.7,11-10.3,20.8-19.2,28.4l2.2-10.4l-2.3,3.1c-3.5,4.7-6.7,8.7-9.9,12.2
			l-2.2,2.4l2-10l-2.3,3.4c-2.8,4.1-6.1,8.1-9.7,12c-5.3,5.6-11.2,10.4-17.6,14.3l-0.5,0.3l0.2,0.6c0.2,0.8,0.4,1.6,0.5,2.3
			c0.1,0.5,0.1,1.1,0.1,1.7l0,0.7l0.7,0.1c5.7,0.7,11.3,1.1,16.7,1.1c29.9,0,54.3-10.9,72.5-32.5c11.5-13.7,17.4-28.3,19.9-35.8
			l0.7-2.2l-2,1.2c-2.3,1.4-4.7,2.6-7,3.7c-3.1,1.3-6.2,2.1-9.2,2.5c1.4-0.7,2.8-1.4,4.2-2c2.6-1.2,5.2-2.5,7.8-3.9
			c12.9-7.2,22.9-20.3,27.3-35.9c1.6-5.4,2.6-10.7,3.1-15.9l0.2-2l-1.5,1.2c-0.7,0.6-1.5,1.2-2.2,1.7l-1,0.8
			c-7.8,5.7-14.7,9.6-21.3,12c2.3-1.5,4.6-3,6.9-4.5C342.8,349.2,348.5,345.6,353.5,341.3z M372.3,305.9c-2.3,8.6-7,17-13.7,24.4
			c-2.4,2.7-4.6,4.7-6.8,6.3c0.6-0.7,1.2-1.4,1.7-2.1c3-3.5,5.8-6.8,8.3-10.6c5.5-8.1,9.2-16.6,11-25.1c0.1-0.4,0.2-0.8,0.3-1.2
			c0.2-0.8,0.4-1.5,0.6-2.3C374,298.9,373.2,302.5,372.3,305.9z M268.3,454.3c19.2-7.2,33.8-17.6,43.4-30.8c0.8-1.1,1.7-2.2,2.5-3.3
			c0.4-0.6,0.8-1.1,1.2-1.7c-0.9,2.2-2.1,4.5-3.7,6.7c-9.5,13.6-24.7,24.4-43,30.4c-5.1,1.7-10.8,3.5-16.6,3.9
			c2-0.7,4.1-1.3,6.1-1.9C261.6,456.6,265,455.6,268.3,454.3z M284.5,309.8c0.8-3.2,2.2-6.1,3.6-9c2.2-4.3,4.5-8,7-11.4
			c1.6-2.2,9.7-12.6,17.6-15.4c-0.9,0.8-1.8,1.5-2.7,2.1c-9.5,7.2-16.1,17.3-20.8,25.3c-0.5,0.8-0.9,1.7-1.4,2.5
			C286.7,306,285.7,308,284.5,309.8z"/>
		<path class="st0" d="M228.5,450.2c8.1-6.4,15.1-14.2,20.7-23.1c1.5-2.3,4-7.2,6-11.4l-3.2,15.8l2.2-2.7
			c4.4-5.5,8.7-11.4,12.6-16.8l-2.8,13.1l2.2-2.7c10.2-12.7,15.5-28.7,14.6-44c-0.5-9.3-2.6-16.3-6.5-21.4
			c-7.7-10.3-21.7-10-27.3-9.4c-2.5,0.3-4.8,0.6-7.4,0.9c-1.3,0.2-2.7,0.4-4.1,0.5c2.1-1,4.3-1.9,6.8-2.5l0.4-0.1l0.2-0.4
			c7.2-16.1,3.4-33.6,0.6-42.7l-0.8-2.5l-0.8,2.5c-0.8,2.5-1.7,4.7-2.8,6.7c0.3-1.6,0.6-3.1,0.9-4.6l0-0.1c0.5-2.4,1-4.9,1.4-7.4
			c2-12.2,1.3-25.6-2.2-39.6c-1.3-4.9-2.7-9.5-4.3-13.6l-0.9-2.4l-0.7,2.4c-0.9,3.2-1.9,6.3-3.1,9.4l0,0.1
			c-0.7,5.1-7.8,51.9-29.2,109.4c-2,5.3-3.9,11-5.6,17l-1.6,5.5l3.1-4.8c0.6-0.9,1-1.6,1.5-2.2l0.8-1.1c2.6-3.5,5.3-7.1,8.8-9.5
			c-1.1,1.5-2.2,3-3.3,4.4c-3.4,4.3-6.6,9.1-9.8,14.5c-0.9,1.6-1.8,3.1-2.7,4.8l-0.1,0.1c-6.6,27.2-8.5,51.6-9,60.9l0,0.5l1.6,0.2
			l0.1-0.5c0.3-1.7,1.1-3.4,2.3-4.9c1.4-1.8,3-3,4.2-3.2c1.6-0.2,3.2,0.3,4.8,1.5l0.5,0.4l0.5-0.4c0.4-0.3,0.9-0.6,1.4-0.8
			c1.8-0.7,3.8-0.5,6,0.7c0.1,0.1,0.2,0.1,0.4,0.2l0.6,0.3l0.5-0.5c0.5-0.5,1.1-0.9,1.8-1.2c2.5-1,5.6,0.1,8.4,3
			c1.6,1.6,2.9,3.7,3.9,6l0.4,0.9l0.8-0.5C223.6,453.8,226.1,452.1,228.5,450.2z M276.4,383.1l0,1.1c-0.2,3.8-0.3,7.7-1.6,11.3
			c-0.1-1.9,0-3.7,0.1-5.7c0.1-0.9,0.1-1.9,0.2-2.8c0.3-7.5-0.4-13.4-2-18.7c-2-6.5-6.2-11.6-11.5-14c-2.3-1-4.6-1.7-7.1-2.2
			c6.5-0.4,13.1,3.8,16.6,8.7C274.9,366.3,276.7,373.8,276.4,383.1z"/>
		<path class="st0" d="M76.9,446c0.7,0.3,1.3,0.7,1.8,1.2l0.5,0.5l0.6-0.3c0.1-0.1,0.3-0.2,0.4-0.2c2.1-1.1,4.1-1.4,5.9-0.6
			c0.5,0.2,1,0.5,1.4,0.8l0.5,0.4l0.5-0.4c1.5-1.2,3.2-1.8,4.8-1.6c1.2,0.2,2.8,1.4,4.2,3.2c1.1,1.5,1.9,3.2,2.3,4.9l0.1,0.5
			l1.6-0.2l0-0.5c-0.5-9-2.3-32.8-8.7-59.6l-0.6-1.2c-0.9-1.6-1.8-3.3-2.8-4.9c-3.2-5.5-6.4-10.2-9.8-14.5c-1.1-1.4-2.2-2.9-3.3-4.4
			c3.5,2.4,6.2,6,8.8,9.5l0.8,1.1c0.7,1,1.5,2.1,2.2,3.3l3.2,5l-1.6-5.7c-1.8-6.3-3.8-12.4-5.9-18.1C62,306,54.5,259.4,53.7,254.2
			l0-0.1c-1.1-2.9-2.1-5.9-3-9l-0.7-2.4L49,245c-6.6,17-9,34.6-6.9,50.7c0.4,3.3,1.1,6.5,1.8,9.7c0.3,1.5,0.6,3.1,0.9,4.7
			c-1.1-2-2.1-4.3-2.8-6.7l-0.8-2.6l-0.8,2.5c-2.8,9-6.6,26.5,0.5,42.5l0.2,0.4l0.4,0.1c2.7,0.6,5.2,1.5,7.5,2.6
			c-1.4-0.2-2.8-0.4-4.2-0.6c-2.5-0.3-4.9-0.7-7.3-0.9c-5.7-0.6-19.7-1-27.3,9.4c-3.9,5.1-6,12.3-6.5,21.4c-1,15.3,4.4,31.4,14.6,44
			l2.2,2.7l-2.8-13.1c3.9,5.4,8.2,11.3,12.6,16.8l2.2,2.7l-3.2-15.8c2.1,4.3,4.5,9,6,11.3c5.6,8.9,12.6,16.7,20.7,23.1
			c2.4,1.9,4.9,3.6,7.4,5.2l0.8,0.5l0.4-0.9c1-2.3,2.3-4.4,3.9-6C71.3,446.1,74.4,445,76.9,446z M9.1,387c0,1,0.1,1.9,0.2,2.9
			c0.1,1.9,0.2,3.8,0.1,5.6c-1.3-3.6-1.5-7.5-1.6-11.3l0-1c-0.3-9.3,1.5-16.9,5.4-22.4c3.1-4.4,9.1-8.8,15.7-8.8c0.3,0,0.6,0,0.9,0
			c-2.5,0.6-4.8,1.2-7.1,2.2l0,0c-5.3,2.4-9.5,7.6-11.5,14C9.5,373.5,8.8,379.5,9.1,387z"/>
		<path class="st0" d="M195.1,286.8c-5.6,9.5-15.3,23.2-29.3,35l-0.3,0.3v0.4c0,3.6-0.3,87.5-12.7,132.4l-0.4,1.3l1.3-0.2
			c0.9-0.1,1.8-0.1,2.6,0.1c0.4,0.1,0.7,0.2,1,0.4l0.6,0.3l0.4-0.5c1.7-2.1,3.7-3.3,5.8-3.3c1.8,0,3.6,0.8,5.1,2.5l0.5,0.5l0.6-0.4
			c0.6-0.3,1.1-0.6,1.8-0.7c1.6-0.4,3.4-0.1,5.2,0.8c0.4,0.2,0.8,0.4,1.2,0.8l0.2,0.1c0.1,0.1,0.3,0.2,0.4,0.3l0.5,0.4l0.5-0.5
			c0.2-0.2,0.4-0.3,0.7-0.5l0.4-0.2l0-0.5c0.4-8.3,2.9-52,17.9-92.2c15.8-42.2,23.8-78.8,27.1-96.8l0.9-5.1L223,269l-2.8-19.4
			l-1,4.6c-2.7,12.4-9.2,35.3-23.6,48.7l-1.9,1.8l3.8-21.8L195.1,286.8z"/>
		<path class="st0" d="M64.6,254.1l-1-4.6L60.8,269l-1.3-2.3c-0.1-0.1-0.1-0.3-0.2-0.4l-2.5-4.3l1,4.9c3.6,18,11.9,54.5,27.6,96.5
			c15,40.2,17.6,83.9,17.9,92.2l0,0.5l0.4,0.2c0.3,0.2,0.5,0.3,0.7,0.5l0.5,0.4l0.5-0.4c0.2-0.1,0.4-0.3,0.5-0.4
			c0.5-0.3,0.9-0.6,1.3-0.8c1.7-0.9,3.5-1.2,5.1-0.8c0.6,0.2,1.2,0.4,1.8,0.7l0.6,0.4l0.5-0.5c1.5-1.6,3.3-2.5,5.1-2.5
			c2.1,0,4.1,1.1,5.8,3.3l0.4,0.5l0.6-0.3c0.3-0.1,0.7-0.3,1-0.3c0.8-0.2,1.7-0.2,2.6-0.1l1.3,0.2l-0.4-1.3
			c-12.1-43.7-12.7-123-12.7-131.9l0-0.4l-0.3-0.3c-14.3-11.9-24.1-25.9-29.9-35.6l-2.3-3.9l3.8,21.8l-1.9-1.8
			C73.9,289.5,67.3,266.6,64.6,254.1z"/>
		<path class="st0" d="M198.5,276.7l2.9-6.5l-5.1,29.7l2-2.4c16.8-19.8,20.9-53.9,21-54.3l0.8-6.8l3.9,27.2l1.2-2.5
			c14.7-30.1,9.6-62.6,9.5-62.9l-1.2-7.1l8.7,20.1l0.2-3.5c2.2-35.6-12-55.1-16.4-60.2l-1-1.2l-0.4,1.5c-0.4,1.6-0.9,3-1.5,4.3
			c-4.9,10.2-12.6,18.7-21.6,23.9l-0.2-9.1l-1.3,1.1c-1.6,1.3-3.3,2.5-5.3,3.8l-0.8,0.5c-2.2,1.5-4.5,2.9-6.8,4.2l0.3,0.4l0,0
			l-0.4-0.3c-4.5,2.6-8.6,4.6-12.7,6.2c3-2.1,6.1-4,9.1-5.9c2.5-1.5,5-3.1,7.5-4.8l1.3-0.9l0,0l0.3-0.2c4.5-3.1,8-6,10.9-9.1
			c0.1,2.3,0.2,5.6,0.3,8.3l0.1,1.6l1.3-1c6.5-5,12-11.8,15.8-19.7c2.5-5.3,3.2-11.9,2.1-19l-0.7-4.3l-1,4.2
			c-1.6,7-5.2,12.8-10.6,17.4l-1,0.9l-3.1-10.2l-0.9,2.4c-1.3,3.6-3.7,8.7-8.3,13.2c-1.2,1.2-2.5,2.3-3.9,3.3l-1.2,0.9l0.1,0.1
			l-0.2,0l-0.3,0.2c-3.1,2-6.3,3.6-8.9,4.8l-1.7,0.8l1.7,0.8c2.7,1.2,5.4,2.6,8,4.2l-2.4-1c-2.6-1-5.4-2.2-8.3-3.3l-0.3-0.1
			l-0.3,0.1c-0.4,0.2-0.8,0.4-1.2,0.5c-5,2.2-10.6,4.6-16.7,8.3l-0.1-0.2l-0.8,0.7c-2.5,2.3-5.5,4-8.7,4.9
			c-3.4,1.1-6.9,1.5-10.4,1.3c-7,0.5-14.1-1.8-19.1-6.2l-0.3-0.2l-0.5-0.2l0,0c-6.1-3.7-11.8-6.2-16.7-8.3l-1.6-0.7l-0.3,0.1
			c-2.8,1-5.5,2.2-8.1,3.2l-2.6,1c2.5-1.5,5.2-3,7.9-4.2l1.7-0.8l-1.7-0.8c-3.8-1.7-6.5-3.2-8.9-4.8l-1.6-1.1
			c-1.4-1.1-2.7-2.1-3.9-3.3c-4.6-4.5-7-9.7-8.3-13.2l-0.9-2.4L74,150.2l-1-0.9c-5.5-4.6-9.1-10.5-10.6-17.7l-0.9-4.3l-0.7,4.3
			c-1.2,7.2-0.5,13.9,2,19.3c3.8,7.8,9.3,14.6,15.8,19.7l1.3,1l0.1-1.6c0.1-2.7,0.2-5.9,0.3-8.3c2.9,3.1,6.4,6,10.9,9.1l0.3,0.2l0,0
			l1.3,0.9c2.4,1.6,5,3.2,7.4,4.7l0.3-0.4l-0.1,0.5c3,1.9,6.1,3.8,9,5.8c-1.3-0.5-2.6-1-4-1.7c-4.8-2.2-9.7-4.9-15.2-8.6l0,0
			l-1.7-1.1c-1.4-1-3.1-2.2-4.7-3.4l-1.3-1l-0.2,9l-1.7-1c-8.2-5.1-18.1-16-21.4-27l-0.4-1.5l-1,1.2c-4.4,5.1-18.5,24.7-16.3,60.1
			l0.2,3.5l8.7-20.1l-1.2,7.1c-0.1,0.3-5.1,32.9,9.5,62.9l1.2,2.5l3.9-27.2l0.8,6.8c0,0.3,4.2,34.5,21,54.3l2,2.4l-5.1-29.7l2.9,6.5
			c0.2,0.4,18.7,40.8,56,58.1l0.6,0.3l0.5-0.3C179.9,317.5,198.4,277.1,198.5,276.7z M230.3,161.3c0.9,1.6,1.6,3.2,2.2,4.6
			c1.4,3.3,2.3,5.8,3.1,8.2c1.4,4.7,2.5,9,2.6,13.2c-0.7-2.1-1.3-4.1-1.9-6.2c-0.6-2.2-1.3-4.4-2-6.5c-0.4-1.6-1-3.3-1.6-5.1
			l-0.5,0.2l0,0l0.5-0.2C231.8,166.8,230.9,163.9,230.3,161.3z M228.2,238.6c0.4-4,0.7-8.2,1-12.4l0.2-1.8c0.4-4.5,0.7-8.8,1.6-13.1
			c0.5,5.4,0.1,10.6-0.4,15C229.9,230.5,229.2,234.6,228.2,238.6z M46,187.4c0.1-4.2,1.2-8.5,2.6-13.2c0.9-3.1,2.1-6,3.1-8.3
			c0.6-1.4,1.3-3,2.2-4.6c-0.6,2.7-1.6,5.6-2.4,8.2c-0.6,1.8-1.1,3.5-1.6,5c-0.7,2.2-1.4,4.4-2,6.6C47.2,183.2,46.6,185.3,46,187.4z
			 M56,238.6c-1.1-4-1.7-8.1-2.3-12.3c-0.5-4.5-0.9-9.7-0.4-15.1c0.8,4.3,1.2,8.7,1.6,13.3l0.1,1.6C55.3,230.3,55.6,234.5,56,238.6z
			"/>
		<path class="st0" d="M52.8,33.9c2.6,5.6,5.3,11.2,8,16.7c2,4,4,8.2,6,12.3c1.4,2.9,2.9,6.3,4.1,9.9l0.1,0.3
			c0.8,2.6,1.6,5.2,1.7,7.9c-0.7-1.7-1.6-3.4-2.4-5c-0.4-0.8-0.8-1.6-1.2-2.4l-1.4-2.7l-0.4,1c-3.4,7.7-11.4,27.2-11.5,42.9l0,1.3
			l12.4-13.7l-2.3,6c-0.1,0.2-8.4,22.8,6.4,37.6l0.6,0.6l4.9-16.1l0.7,5.8c0.1,0.4,1.5,10.4,9.2,18c1.7,1.7,3.5,3.1,5.7,4.5l0.2,0.1
			l0.2-0.1c5.4-1.7,18.2-5.1,28.8-2.1c-2-0.1-4.1-0.1-6.3,0l-0.1,0l0.1-0.4l-1,0.1c-6.3,0.4-12.6,1.5-19,2.6l-2.3,0.4l2.1,1.1
			c2.7,1.5,5.6,2.8,8.4,4l0.3,0.1l0.3-0.1c3.5-1.3,7-2.2,10.2-2.7l0.7-0.1l0-0.8c0-1,0-2.1,0.2-3.1c0.3,1,0.6,2,0.9,3l0.1,0.4l0.4,0
			c1.8-0.2,3.5-0.2,5.1,0c-1.5,0.2-3,0.5-4.6,0.9l-0.5,0.1l0.2,0.5c1.6,4.7,3.6,7.9,6.4,10.4c4.3,3.8,10.6,6.2,18,6.6
			c7.3-0.4,13.7-2.7,18-6.6c3.5-3.2,5.3-7.2,6.4-10.4l0.2-0.5l-0.5-0.1c-1.6-0.4-3.1-0.7-4.6-0.9c1.6-0.1,3.3-0.1,5.1,0l0.4,0
			l0.1-0.4c0.3-1,0.6-2,0.9-3c0.1,1,0.2,2.1,0.2,3.1l0,0.8l0.7,0.1c3.2,0.5,6.7,1.4,10.2,2.7l0.3,0.1l0.3-0.1c3.2-1.4,5.9-2.6,8.4-4
			l2.1-1.1l-2.3-0.4c-6.4-1.2-12.7-2.3-19-2.6l-1.1-0.1l0.1,0.4l-0.1,0c-2.2-0.1-4.3-0.1-6.3,0c10.6-3,23.4,0.3,28.8,2.1l0.2,0.1
			l0.2-0.1c2.2-1.4,4-2.9,5.7-4.5c7.7-7.6,9.2-17.6,9.2-18l0.7-5.8l4.9,16.1l0.6-0.6c14.6-14.6,6.5-37.3,6.4-37.6l-2.2-6l12.4,13.7
			l0-1.3c-0.1-15.6-8.1-35.2-11.5-42.9l-0.4-1l-1.4,2.7c-0.4,0.8-0.8,1.6-1.2,2.3c-0.8,1.6-1.7,3.3-2.4,5c0.1-2.7,0.9-5.3,1.7-7.9
			l0.1-0.2c1.2-3.6,2.8-7,4.2-9.9c1.9-4.1,4-8.3,5.9-12.3c2.7-5.5,5.4-11.1,8-16.7c2.6-5.6,5.8-12.6,7.8-19.6
			c0.6-2.4,1.2-4.8,0.9-7.3c-0.2-1.1-0.3-2-1.6-2.5c-2.2-0.6-4.5-0.2-7,0.4c-2.9,0.7-6,1.7-9.9,3.2c-13.4,5.4-26.3,12.3-38.1,19
			c-5.4,3.1-11,6.4-17.2,8.7c1.5-1.4,3.1-2.8,5-4.2l1.7-1.3l-2.1,0.4c-4.2,0.8-7.2,0.8-9.1,0.2l-1.8-0.6l5.3-5.8l-1-0.1
			c-9.9-0.6-21.8,3.7-21.9,3.8l-0.4,0.2l-0.4-0.2c-0.1,0-12.3-4.6-21-4.2l-0.9,0l4.6,6.3l-1.6,0.6c-1.8,0.6-5,0.5-9.4-0.4l-2.2-0.5
			l1.8,1.4c2,1.5,3.8,3,5.3,4.5c-6.2-2.3-11.8-5.5-17.2-8.7C88.9,20.4,76,13.4,62.6,8c-3.9-1.5-7.1-2.5-9.9-3.2
			c-2.4-0.5-4.8-0.9-7-0.3c-1.2,0.5-1.4,1.4-1.6,2.5c-0.2,2.4,0.3,4.8,1,7.2C46.8,20.8,49.6,27,52.8,33.9z M165,90.3
			c2.9-5.8,8.5-11.6,14.4-13.3c-2.8,2.3-5.4,4.8-7.9,7.3C169.4,86.2,167.2,88.3,165,90.3z M163.5,115.2c-1.6,0-2.7,0.2-2.9,0.3
			l-1,0.2l0.2-0.8c0.2-1.1,2.5-10.7,10.3-14.8c8.1-4.2,18.1-0.7,18.2-0.7l0.8,0.3l-0.6,0.6c-0.1,0.1-1.6,1.7-3.1,4.5
			c-0.2,0.4-0.4,0.8-0.6,1.2l-0.2,0.4c-1.5,2.9-3.3,6.5-6.9,8.3c-1.7,0.9-3.5,1.3-5.7,1.3c-1.5,0-3-0.2-4.4-0.4l-0.2,0
			c-0.5-0.1-1-0.1-1.5-0.2C165,115.2,164.2,115.2,163.5,115.2z M161.9,86.9c-0.9,2-1.9,4.1-2.9,6.1l-0.1,0.3
			c-0.1,0.3-0.3,0.6-0.4,0.8c1.4-8.3,5.6-18,11.9-23.1C167,76,164.4,81.5,161.9,86.9z M154.8,157.5c0,0.2-0.1,0.5-0.3,0.7
			c-0.2,0.2-0.4,0.3-0.7,0.3c0,0,0,0,0,0c-0.2,0-0.5-0.1-0.7-0.3c-0.4-0.4-0.4-0.9,0-1.3c0.2-0.2,0.4-0.3,0.7-0.3
			c0.2,0,0.5,0.1,0.7,0.3v0C154.7,157.1,154.8,157.3,154.8,157.5z M144.3,159.5l-0.2,0.2l0,0.5c0.2,2.8,0.4,7.1,4,7.7
			c3.3,0.3,6.4-1.5,8.6-3.7c-0.4,1.9-1.9,3.4-2.5,4c-1.7,1.5-4,2.3-6.2,2.2c-3.1-0.1-4.7-2.3-5.5-4.2l-0.5-1.1l-0.5,1.1
			c-0.8,1.8-2.4,4.1-5.5,4.1c-2.4,0.1-4.9-0.9-6.7-2.6c-1-1-1.8-2.2-2.1-3.5c1.6,1.6,3.7,2.9,6,3.5l0,0c1.7,0.4,3.1,0.3,4.2-0.5
			c2-1.5,2.3-4.7,2.4-7.3l0-0.2l-0.2-0.2c-6.1-5-8.9-9-8-11.7c1.1-3.5,8-4.1,10-4.2l0.2,0c0,0,0.1,0,0.2,0c0,0,0,0,0,0l0.3,0
			c2.1,0.1,8.9,0.7,10,4.2C153.2,150.5,150.4,154.6,144.3,159.5z M132.5,162.2c-0.4,0.4-0.9,0.4-1.3,0c-0.4-0.4-0.4-1,0-1.3
			c0.2-0.2,0.4-0.3,0.6-0.3c0.3,0,0.5,0.1,0.7,0.3C132.8,161.3,132.8,161.9,132.5,162.2z M130.6,158.2c-0.2,0.2-0.4,0.3-0.6,0.3
			c0,0,0,0,0,0c-0.2,0-0.5-0.1-0.7-0.3c-0.4-0.4-0.4-0.9,0-1.3c0.4-0.4,0.9-0.4,1.3,0c0.2,0.2,0.3,0.4,0.3,0.7
			C130.8,157.8,130.7,158,130.6,158.2z M208.7,61.1c0.6-2,1.5-3.9,2.4-5.8l0.2-0.5c2-4.2,4.1-8.4,6.2-12.5c2-3.9,4-7.9,5.9-11.9
			c1.3-2.9,2.7-6,3.6-9.1c0.2-0.6,0.4-1.7,0.3-2.3l0-0.4l-0.4,0c-0.3,0-0.6,0-0.9,0c-5.3,0-13.2,4.5-18.5,7.6
			c-0.6,0.3-1.1,0.6-1.6,0.9c-3.5,2.1-7.2,4.5-11.3,7.3c-3.1,2.2-6.5,4.6-10.7,6c2.4-3.7,5.7-6.2,8.9-8.5l0,0
			c4-2.9,7.7-5.4,11.3-7.7l0.9-0.5c5.9-3.7,18.3-11.3,24.4-8.1c3.9,2.6,0.3,10.1-1.9,14.6c-0.4,0.8-0.7,1.4-0.9,2
			c-2.3,4.6-4.8,9.1-7.2,13.5c-1.9,3.4-3.9,6.9-5.7,10.5c-1.1,2.3-2.3,4.6-3.5,6.8c-0.7,1.2-1.4,2.5-2,3.8
			C207.7,64.7,208.2,62.8,208.7,61.1z M57.1,18.5l-0.4,0l0,0.4c0,0.6,0.1,1.6,0.3,2.3c0.8,3.2,2.3,6.4,3.6,9.2c1.9,4,3.9,8,5.9,11.9
			c2,4,4.2,8.2,6.1,12.4l0.2,0.5c0.9,1.9,1.8,3.8,2.4,5.8c0.5,1.7,0.9,3.6,0.7,5.4c-0.7-1.3-1.4-2.6-2-3.8c-1.2-2.2-2.4-4.5-3.6-6.8
			c-1.8-3.5-3.8-7.1-5.7-10.5c-2.4-4.4-4.9-8.9-7.2-13.5c-0.2-0.6-0.6-1.3-1-2c-2.1-4.5-5.7-11.9-1.9-14.5c6.1-3.2,18.4,4.4,24.4,8
			l0.9,0.5c3.6,2.3,7.3,4.8,11.3,7.7c3.2,2.3,6.5,4.8,8.9,8.5c-4.2-1.4-7.5-3.7-10.7-6c-4.1-2.8-7.8-5.2-11.3-7.3
			c-0.5-0.3-1.1-0.6-1.6-0.9C70.8,22.8,62.4,17.9,57.1,18.5z M104.5,76.9c5.9,1.7,11.5,7.5,14.4,13.3c-2.2-1.9-4.4-4-6.4-6
			C109.9,81.8,107.3,79.2,104.5,76.9z M124.9,93.1l0-0.1c-1-2-2-4.1-2.9-6.1c-2.5-5.3-5.1-10.9-8.5-15.9c6.3,5,10.5,14.7,11.9,23.1
			C125.2,93.8,125,93.4,124.9,93.1z M124,114.8l0.2,0.8l-0.8-0.2l0,0h-0.1c-0.5-0.1-2.4-0.4-5.4-0.2c-0.5,0-1,0.1-1.5,0.2l-0.2,0
			c-1.3,0.2-2.8,0.4-4.4,0.4c-2.2,0-4-0.4-5.7-1.3c-3.6-1.9-5.4-5.5-6.9-8.4c-0.3-0.5-0.5-1-0.8-1.5c-1.5-2.8-3.1-4.4-3.1-4.5
			l-0.6-0.6l0.8-0.3c0.1,0,10.1-3.6,18.2,0.7C121.8,104.3,124,114.7,124,114.8z"/>
	</g>
	<g>
		<path class="st1" d="M86.9,156.7c3.1,2.5,6.9,3.9,10.5,5.2c0.5,0.2,1,0.4,1.5,0.6c4.8,1.8,8.6,3.6,12.1,5.6
			c2.3,1.4,4.6,2.9,6.8,4.4c2.6,1.8,5.2,3.6,8,5.1c4,2.2,10,5.1,16.1,4.5c0.6,0.1,1.1,0.1,1.7,0.1c5.5,0,10.8-2.6,14.4-4.6
			c2.8-1.5,5.4-3.4,8-5.1c2.2-1.5,4.5-3,6.8-4.4c3.5-2,7.3-3.8,12.1-5.6c0.5-0.2,1-0.4,1.5-0.6c3.7-1.4,7.4-2.8,10.5-5.2
			c3.8-3,12-15.9,9.3-28.9l-0.2-1.2l-0.7,1c-11.1,16.9-24.8,16.4-34.8,16c-3.9-0.1-7.2-0.3-9.5,0.8c-1.8,0.8-3.3,1.6-4.8,2.4
			c-4.2,2.2-7.8,4-12.8,4.1v-0.1l-0.5,0c-0.4,0-0.7,0.1-1,0.1c-0.3,0-0.7,0-1-0.1l-0.5,0v0c-5-0.1-8.6-2-12.8-4.1
			c-1.5-0.8-3.1-1.6-4.8-2.4c-2.3-1-5.6-0.9-9.5-0.8c-10,0.4-23.7,0.9-34.8-16l-0.7-1l-0.2,1.2C74.9,140.8,83.1,153.7,86.9,156.7z"
			/>
		<path class="st1" d="M221.5,367.2c-3.6-1.5-7.9-1.2-11.3,0.7c4.8-6.8,7.7-15,8.3-23.5c0.3-4.5,0.8-19.1-6.7-20l-0.4-0.1l-0.1,0.4
			c-3.9,13-8.3,25.8-12.9,38.2c-14.1,37.7-17.2,78.6-17.9,90.2l0,0.2l0.2,0.2c0.2,0.2,0.4,0.4,0.6,0.6l0.2,0.1
			c0.1,0.1,0.3,0.2,0.4,0.2l0.1,0.1l0,0l0.5,0.2c0.2,0.1,0.5,0.1,0.7,0.2c0.1,0,0.1,0,0.2,0c0.1,0,0.2,0,0.4,0c0.1,0,0.2,0,0.3,0
			c0.4,0,0.8,0,1.3-0.1l0.6-0.1c0.3-0.1,0.6-0.1,0.9-0.2l0.8-0.2l0.1-0.3c0.7-3.2,3.4-5.6,4.1-5.7c1.4-0.2,2.7,0.9,3.6,1.8l1.5,1.7
			l1.4-1.8c0.4-0.5,0.8-0.9,1.4-1.1c1.3-0.5,2.7,0,3.6,0.5c0.2,0.1,0.4,0.2,0.7,0.4l0.4,0.2l0.3-0.3c9.9-11.5,18.5-26.9,25.8-45.7
			C241.2,376,221.7,367.3,221.5,367.2z"/>
		<path class="st1" d="M86.2,363c-4.6-12.4-9-25.2-12.9-38.2l-0.1-0.4l-0.4,0.1c-7.5,0.9-7,15.5-6.7,20c0.6,8.5,3.5,16.7,8.3,23.5
			c-3.4-1.9-7.7-2.2-11.3-0.7c-0.2,0.1-19.7,8.8-8.8,37c7.2,18.8,15.9,34.1,25.8,45.7l0.3,0.3l0.4-0.2c0.2-0.1,0.4-0.3,0.7-0.4
			c0.9-0.5,2.3-1,3.6-0.5c0.5,0.2,1,0.6,1.4,1.1l1.4,1.8l1.5-1.7c0.9-0.9,2.2-2,3.6-1.9c0.9,0.2,4,3.1,4.3,6.6l0,0.4l1,0.2
			c0.3,0,0.6,0,1,0c0.2,0,0.4,0,0.7,0c0.3,0,0.6,0,0.8-0.1l0.5-0.1c0.9-0.2,1.8-0.4,2.8-0.8l0.3-0.1l0-0.4
			C103.6,442.5,100.6,401.3,86.2,363z"/>
		<path class="st1" d="M160.6,258.9c0,0,0.1,0,0.1,0c10.6,0,21.3-4.8,28.2-12.8c7.6-8.7,10.7-21.2,8.1-32.5l-0.9-4l-0.1,4.1
			c-0.1,3.8-1.8,7.5-4.8,10.4c-3,2.8-6.9,4.4-10.6,4.2c-2.5-0.1-4.7-0.9-6.2-2.3c-2.4-2.2-2.8-5.9-2.7-8.5
			c0.2-10,6.4-19.6,15.4-23.9l3.5-1.7l-3.9,0.8c-7.3,1.4-14.3,5.1-19.7,10.3c-1.5,1.5-3,3.1-4.4,4.7c-1.9,2.1-3.8,4.3-6,6.2
			c-6.1,5.2-14.5,7.5-22.4,6.2c-2-0.3-5.1-2.1-8.1-3.8c-4.1-2.4-8.1-4.6-10.1-3.9c-2.4,0.9-3.5,3.2-4.5,5.4c-1.4,3-2.6,5.7-6.9,6.1
			c-2.9,0.3-6-1.1-8.2-3.6c-2.2-2.5-3.2-5.7-2.5-8.6l0.9-4.3l-1.9,4c-4.4,9.5-3.5,21.2,2.3,29.8c5.7,8.5,15.9,13.7,26.1,13.5
			c-0.7,2.5-2.5,4.3-4.5,6.3c-1.4,1.4-2.8,2.9-3.8,4.6c-3.7,6.3-1,14.1,3.1,18.8c4.5,5.1,11,8,16.7,10.5l0.5-0.9
			c-3-1.8-4.7-5.4-4.6-9.5c0.1-4,2.1-7.6,5.1-9.2c3.1-1.7,7.1-1.4,10.5,0.8c3.4,2.1,5.5,5.6,5.4,9.1c-0.1,3.6-2,6.9-3.9,10.2
			c-0.4,0.7-0.9,1.5-1.3,2.2c-2.1,3.8-4,9.2-1.4,13.6l0.8,1.3l0.1-1.5c0.6-6.9,6.2-11.3,12.2-16c4.6-3.7,9.5-7.4,11.9-12.6
			c2-4.3,2-9.5,0-14.3C166.8,263.9,164,260.8,160.6,258.9z"/>
		<path class="st1" d="M143.2,336.4l-1.3,0.6l-1.3-0.7c-6.3-2.9-12.6-6.7-18.5-11.3l-1.4-1.1l0,1.7c0.1,14.9,1.4,91.2,13.4,131.4
			l0.1,0.3l0.2,0.2c2.9,2.1,5.5,5.9,7,10.5l0.8,2.4l0.8-2.4c1.5-4.6,4.1-8.4,7-10.5l0.2-0.2l0.1-0.3
			c12.1-40.4,13.3-116.9,13.4-131.9l0-1.7l-1.4,1.1C156.2,329.4,149.8,333.4,143.2,336.4z"/>
	</g>
	<g>
		<path class="st2" d="M203.3,35.3c4.4-2.2,8.5-4.2,9.3-2.9c0.8,1.3-1,6.8-2.7,12c-2.8,8.7-6,18.5-2.9,22.4l0.5,0.6l22.2-44.8
			l0.1-0.1l-1-7.2l-12.2,1.8l-35.4,24.4l1.4,0.1C189.3,42.2,197.1,38.4,203.3,35.3z"/>
		<path class="st2" d="M76.5,66.8c3.1-3.9-0.1-13.7-2.9-22.4c-1.7-5.2-3.5-10.7-2.7-12c0.8-1.3,4.9,0.7,9.3,2.9
			c6.2,3.1,14,6.9,20.7,6.3l1.4-0.1L67,17.1l-0.1-0.1l-12.2-1.8l-1,7.2L76,67.4L76.5,66.8z"/>
		<path class="st2" d="M219.2,456.8l-0.5,4.1c0,0.3-0.1,0.6-0.2,0.9c-0.2,0.6-0.4,1.1-0.6,1.6c-0.3,0.5-0.7,0.9-1.2,1.1
			c-0.7,0.3-1.7,0.2-3.8-0.4l-2.1-1.1l-0.5,2.9c-0.3,1.1-0.8,2.1-2.1,2.7c-2.2,0.9-4.5-0.9-6.1-2.5l-2.7-2.5l-0.2,0.8
			c-0.7,2.6-2.1,6.4-3,7c-0.1,0-0.2,0.1-0.2,0.1c-0.4,0.3-0.6,0.9-0.6,2.2c0,0.4,0,0.8,0,1.2v1.5l1.2-0.6c1.6-0.8,2.9-2.9,3.6-5.7
			l0.4-1.5l1.1,1.1c2.6,2.7,5.5,3.9,7.6,3.1c1.7-0.7,2.5-2.4,2.9-3.7l0.3-1l1,0.5c1.3,0.7,2.6,0.8,3.6,0.4c0.7-0.3,1.3-0.8,1.7-1.5
			c0.3-0.5,0.6-1.1,0.8-1.8c0.3-1.3,0.4-2.9,0.2-4.6L219.2,456.8z"/>
		<path class="st2" d="M192.5,471.9c-0.1,0.5-0.1,0.9-0.2,1.3c-0.1,0.7-0.3,1.4-0.6,2c-0.4,1.1-1.3,2.4-2.7,2.8
			c-2.5,0.7-5.1-3.6-5.8-5.3l-0.8-1.9l-0.1,2c-0.2,3.1-1.1,8.1-2.9,8.4c-4.9,0.7-7.8-8.7-7.8-8.8l-0.6-1.9l-0.4,1.9
			c-0.6,2.9-3,10.4-6.4,10.4c0,0,0,0,0,0c-3.2,0-5-7.8-5.5-10.8l-0.4-2.6l-0.6,2.6c0,0.1-2.7,11.3-9.2,10.3
			c-0.9-0.1-1.8-0.9-2.6-2.2c-0.8-1.4-1.3-3.2-1.5-5.2l-1,0c-0.3,3.7,0.3,6.9,1.6,9.2c0.9,1.5,2,2.4,3.3,2.7
			c2.6,0.6,5.6-1.1,8.1-4.6l1.3-3.9l0.7,4.3l0.1,0.2c1.6,2.9,3.5,4.5,5.6,4.5c2.3,0,4.5-2,6-5.4l0.2-0.5l0.1-0.7h-0.1l0.7-3l1.3,3.7
			l0.1,0.2c2.4,3,5.2,4.4,7.6,3.8c1.4-0.4,2.6-1.4,3.4-3l0.3-4.2l1.9,3.4l0.2,0.1c1.2,0.6,2.3,0.8,3.3,0.6c1.8-0.4,2.8-2.1,3.3-3.4
			c0.3-0.7,0.5-1.4,0.6-2.1c0.2-0.9,0.3-2,0.3-3.1v0c0-0.6,0-1.2-0.1-1.8L192.5,471.9z"/>
		<path class="st2" d="M140,475c-0.2,2.1-0.7,3.9-1.5,5.2c-0.8,1.3-1.7,2.1-2.6,2.2c-6.2,1.1-8.9-9.6-9-9.7l-0.6-2.4l-0.4,2.4
			c-0.5,2.8-2.4,10.1-5.7,10.2c0,0,0,0,0,0c-3.2,0-5.7-7.5-6.4-10.4l-0.5-1.9l-0.5,1.9c0,0.1-2.1,7.6-5.5,9
			c-0.9,0.4-1.8,0.3-2.7-0.3c-1.2-0.7-2.1-5.5-2.3-8.3l-0.2-1.7l-0.8,1.5c0,0.1-3,5.6-6.1,5.3c-1-0.1-1.9-1-2.6-2.8
			c-0.2-0.6-0.4-1.2-0.6-2c-0.1-0.4-0.1-0.9-0.2-1.3l-1,0l0,0.5c0,0.1,0,0.3,0,0.4l0,0.4c0,0.2,0,0.4,0,0.5c0,1.1,0.1,2.2,0.3,3.1
			c0.2,0.8,0.4,1.5,0.6,2.2c0.5,1.3,1.5,2.9,3.3,3.4c1,0.3,2.1,0.1,3.3-0.6l0.2-0.1l1.8-3.4l0.2,3.8l0.1,0.3c0.9,1.6,2.1,2.7,3.5,3
			c2.3,0.6,5.1-0.8,7.6-3.8l1.4-3.9l0.7,3h-0.3l0.6,1.2c1.6,3.4,3.8,5.4,6,5.4c2.1,0,4.1-1.6,5.6-4.5l0.8-4.5l1.3,3.7l0.1,0.2
			c2.5,3.5,5.6,5.3,8.1,4.6c1.3-0.3,2.4-1.2,3.3-2.7c1.3-2.3,1.9-5.5,1.6-9.2L140,475z"/>
		<path class="st2" d="M89.1,473.8c0-0.5,0-1,0.1-1.5l0-0.3l-0.8-0.4c-1.3-0.7-2.5-2.5-3.1-5.1l-0.9-3.3l-2.3,2.5
			c-2.3,2.4-4.8,3.5-6.5,2.8c-1.3-0.5-2-2-2.3-3.1l-0.6-2.2l-2,1.1c-0.8,0.4-1.8,0.8-2.8,0.4c-1.1-0.4-1.6-1.7-1.9-2.6
			c-0.1-0.3-0.1-0.6-0.2-0.9l-0.5-3.8l-0.5,3.8c-0.2,1.7-0.1,3.3,0.2,4.6c0.3,1.2,1,2.7,2.5,3.3c1,0.4,2.3,0.3,3.6-0.4l1-0.5l0.3,1
			c0.4,1.3,1.2,3,2.9,3.7c2.1,0.8,5-0.3,7.6-3.1l1.1-1.2l0.4,1.5c0.7,2.9,2,4.9,3.6,5.7l1.5,0.8l-0.3-1.7
			C89.1,474.5,89.1,474.1,89.1,473.8z"/>
		<path class="st2" d="M330.2,394.9c-0.7,0.4-1.3,0.8-2,1.2H328l-0.1,0.3c-11.2,21-14,25.7-16.1,28.9c-9.5,13.6-24.7,24.4-43,30.4
			c-5.2,1.7-10.9,3.5-16.8,3.9l1.9-0.7l-4.3,0.5c-16.1,2-27.5-1.7-27.6-1.8l-0.5-0.2l-0.4,1.2l0,0.1c0.1,0.6,0.3,1.3,0.3,1.9
			c0.1,0.6,0.1,1.1,0.1,1.7l0,0.7l0.7,0.1c5.7,0.7,11.3,1,16.7,1c29.9,0,54.3-10.9,72.5-32.5c11.6-13.7,17.5-28.3,19.9-35.8l0.7-2.2
			L330.2,394.9z"/>
		<path class="st2" d="M143.1,470.3c1.3-3,4.4-9,8.5-11.8l0.2-0.1l0-0.2c0.1-0.4,9.5-44.4,10.2-59.3c0.7-14.8,3.3-58.7,3.3-59.2
			v-17.3l-2.8,3.2l0,0.2c-0.1,1-6,103.3-16.8,128.4c-0.4,0.4-2.3,2.1-3.4,3.9c-1.1-1.8-3-3.5-3.4-3.9
			c-10.8-25.1-16.7-127.4-16.8-128.4l0-0.2l-2.8-3.2l0,17.4c0,0.4,2.7,44.3,3.3,59.1c0.7,14.8,10.1,58.8,10.2,59.3l0,0.2l0.2,0.1
			c4.1,2.9,7.1,8.8,8.5,11.8l0,4.4l0.9-2.3l0.9,2.3V470.3z"/>
		<path class="st2" d="M122.4,175.5l-0.5-0.2l0,0c-6.1-3.7-11.7-6.2-16.7-8.3l-1.6-0.7l-0.3,0.1c-1.9,0.7-3.7,1.4-5.6,2.2l-1,0.4
			l1,0.5c0.8,0.4,6.7,3,7.2,3.2c5,2.2,10.7,4.7,17,8.5l0.4,0.2c4.7,4.1,11.2,6.4,17.8,6.4c0.6,0,1.2,0,1.9-0.1
			c3.5,0.2,7.1-0.2,10.6-1.3c3.3-1,6.4-2.7,9-5l0,0l0.4-0.3c6.3-3.8,12-6.3,17-8.5c0.4-0.2,6.2-2.8,7.1-3.2l1-0.5l-1-0.4
			c-1.8-0.7-3.7-1.5-5.6-2.2l-0.3-0.1l-0.3,0.1c-0.4,0.2-0.8,0.4-1.2,0.5c-5,2.2-10.6,4.6-16.7,8.3l-0.1-0.2l-0.7,0.7
			c-2.5,2.3-5.5,4-8.7,4.9c-3.4,1.1-6.9,1.5-10.4,1.3c-7,0.5-14.1-1.8-19.1-6.2L122.4,175.5z"/>
		<path class="st2" d="M221.4,132c-1.6,7-5.2,12.8-10.6,17.4l-1,0.8l-3.1-10.2l-0.8,2.4c-1.3,3.6-3.7,8.7-8.3,13.2
			c-1.3,1.2-2.5,2.3-3.9,3.3l-1.6,1.1c-3.1,2.1-6.6,3.7-8.9,4.8l-1.7,0.8l1.7,0.8c1.5,0.7,2.9,1.4,4.3,2.1l0.2,0.1l0.2-0.1
			c1.5-0.8,9-6,10.3-7.3c4.5-4.5,7-9.6,8.4-13.2l2.7,8.7l2.2-1.8c5.4-4.5,9-10.3,10.7-17.1c0.2,1.1,0.3,2.1,0.3,3l1,0
			c0.2-2.8,0-5.8-0.4-8.8l-0.7-4.3L221.4,132z"/>
		<path class="st2" d="M72.4,154.9l2.2,1.8l2.7-8.7c1.3,3.6,3.8,8.7,8.4,13.2c1.3,1.2,8.5,6.4,10.3,7.3l0.2,0.1l0.2-0.1
			c1.4-0.7,2.8-1.4,4.3-2.1l1.7-0.8l-1.7-0.8c-3.8-1.7-6.4-3.1-8.9-4.8l-0.1-0.1l-0.3-0.1l0,0l-1.2-0.9c-1.5-1.1-2.7-2.2-3.9-3.3
			c-4.6-4.5-7-9.7-8.3-13.2l-0.8-2.4L74,150.2l-1-0.8c-5.5-4.6-9.1-10.5-10.6-17.7l-0.9-4.3l-0.7,4.3c-0.5,3.1-0.7,6.2-0.5,9.1h1
			c0.1-1.1,0.2-2.2,0.4-3.3C63.3,144.5,66.9,150.4,72.4,154.9z"/>
		<path class="st2" d="M172.2,118.8c3.2,0.4,7.8-0.1,11.3-4.1c0.9-1,1.7-2.6,2.7-4.4c2.2-4.2,5-9.3,10-11.5l1.3-0.5l-1.3-0.4
			c-0.1,0-7.5-2.3-13-3c-6.1-0.9-12.5,0.9-17.6,4.9c-6.4,5-8.5,12.7-10,18.3c-0.1,0.5-0.3,1-0.4,1.5l-0.3,1l0.9-0.4
			C155.8,120.2,162,117.7,172.2,118.8z"/>
		<path class="st2" d="M88,98l-1.3,0.4l1.3,0.5c5,2.1,7.8,7.3,10,11.5c1,1.8,1.8,3.4,2.7,4.4c3.5,4,8.1,4.5,11.3,4.1
			c10.2-1.1,16.4,1.4,16.4,1.4l0.9,0.4l-0.3-1c-0.1-0.5-0.3-1-0.4-1.5c-1.5-5.6-3.6-13.3-10-18.3c-5.1-4-11.5-5.8-17.6-4.9
			C95.5,95.7,88,98,88,98z"/>
	</g>
	<g>
		<path class="st3" d="M181.1,99.3l-0.7,0l0.4,0.6c0.3,0.4,0.5,0.8,0.7,1.1c0.8,1.6,1.2,3.4,1.1,5.1l-0.1,1.6l0.7-1.5
			c0.1-0.2,0.2-0.4,0.3-0.6c0.3-0.5,0.5-1,0.8-1.5c0.9-1.6,1.7-2.8,2.3-3.5l0.3-0.4l-0.5-0.1C185.5,99.9,183.5,99.4,181.1,99.3z"/>
		<path class="st3" d="M178.5,99.4l-0.1-0.1l-0.1,0c-1.2,0.1-2.2,0.2-3.2,0.4l-1,0.2l0.9,0.4c1,0.5,1.9,1.3,2.5,2.2c0,0,0,0.1,0,0.1
			c-0.9-0.1-1.9,0.1-2.7,0.6c-1,0.6-1.6,1.5-1.9,2.6c-0.3,1.1-0.1,2.3,0.5,3.2c0.5,0.8,1.2,1.3,2,1.7c-2.8,1.6-6.4,0.7-8.1-2
			c-0.6-1-0.9-2.2-0.9-3.4l0.1-1l-0.7,0.8c-0.7,0.8-1.3,1.7-1.9,2.6l-0.1,0.1l0,0.1c0.2,0.6,0.4,1.2,0.7,1.7
			c1.1,2.1,2.9,3.6,5.1,4.3c0.9,0.3,1.8,0.4,2.6,0.4c1.4,0,2.8-0.3,4-1c4.3-2.2,5.9-7.5,3.7-11.8C179.8,100.8,179.2,100,178.5,99.4z
			"/>
		<path class="st3" d="M163.5,110.3c0-0.1-0.1-0.1-0.1-0.2l-0.3-0.6l-0.3,0.6c-0.6,1.4-1.1,2.6-1.3,3.4l-0.2,0.5l0.5,0
			c0.6-0.1,1.2-0.1,1.8-0.1c0.7,0,1.4,0,2.2,0.1l1.1,0.1l-0.9-0.7C164.9,112.6,164.1,111.5,163.5,110.3z"/>
		<path class="st3" d="M121.1,110.2l-0.3-0.6l-0.3,0.6c0,0,0,0.1-0.1,0.1l0,0.1c-0.6,1.2-1.5,2.3-2.5,3.1l-0.9,0.7l1.1-0.1
			c1.8-0.2,3.1-0.1,3.9,0l0.5,0l-0.2-0.5C122.1,112.8,121.7,111.6,121.1,110.2z"/>
		<path class="st3" d="M119.1,109.7c0.3-0.5,0.5-1.1,0.7-1.7l0-0.1l-0.1-0.1c-0.6-1-1.2-1.8-1.9-2.6l-0.7-0.8l0.1,1
			c0.1,1.2-0.2,2.4-0.9,3.4c-1.7,2.7-5.3,3.6-8.1,2c0.8-0.3,1.5-0.9,2-1.7c0.6-1,0.8-2.1,0.5-3.2c-0.3-1.1-0.9-2-1.9-2.6
			c-0.8-0.5-1.8-0.7-2.7-0.6c0,0,0-0.1,0-0.1c0.6-1,1.5-1.8,2.5-2.2l0.9-0.4l-1-0.2c-1-0.2-2-0.3-3.2-0.4l-0.1,0l-0.1,0.1
			c-0.7,0.7-1.3,1.4-1.7,2.2c-2.2,4.3-0.6,9.6,3.7,11.8c1.3,0.7,2.6,1,4,1c0.9,0,1.8-0.1,2.6-0.4C116.2,113.3,118,111.8,119.1,109.7
			z"/>
		<path class="st3" d="M103.5,99.2l-0.7,0c-2.3,0.1-4.2,0.5-5.4,0.8l-0.5,0.1l0.3,0.4c0.6,0.7,1.4,1.9,2.3,3.5
			c0.2,0.4,0.4,0.7,0.6,1.1l0.2,0.4c0.1,0.1,0.1,0.3,0.2,0.4l0.8,1.6l-0.1-1.6c-0.1-1.8,0.3-3.6,1.1-5.2l0,0
			c0.2-0.4,0.4-0.7,0.7-1.1L103.5,99.2z"/>
		<path class="st3" d="M161.3,31.3l-2.2-0.8l5.5-6.2c-9.5-0.5-23.1,3.9-23.1,3.9l0,0.4l-0.5-0.2c-0.1-0.1-12.2-4.6-20.8-4.2l4.5,6.1
			l-2.2,0.8c-2.2,0.8-5.9,0.4-9.6-0.4l0,0c0.2,0.1,0.4,0.3,0.6,0.4c1.6,1.1,6.6,3.7,14.6,0.3l-1.9-3.4c0.2,0.1,4.7,1.3,8.8,2.7
			c4.7,1.5,9.8,1.5,14.5,0c3.9-1.3,7.8-2.6,8-2.6l-1.9,3.4c8,3.4,13,0.8,14.6-0.3c0.2-0.1,0.4-0.3,0.6-0.4l0,0
			C167.2,31.7,163.5,32.1,161.3,31.3z"/>
		<path class="st3" d="M184.5,26.7c0,0,8.7-3.1,18.6-7.3c12.4-5.3,28-12.6,32.1-10.1c2.5,1.5-3.7,15.3-8.5,27.6
			c-4.2,10.9-8,21.5-8,21.5l20.6-35.6l3.1-16.4l-5.5-4.7l-26.6,8.8L184.5,26.7z"/>
		<path class="st3" d="M99.1,26.7c0,0-8.7-3.1-18.6-7.3c-12.4-5.3-28-12.6-32.1-10.1c-2.5,1.5,3.7,15.3,8.5,27.6
			c4.2,10.9,8,21.5,8,21.5L44.3,22.8L41.2,6.3l5.5-4.7l26.6,8.8L99.1,26.7z"/>
		<path class="st3" d="M219.2,464.5c0,0,0-0.1,0-0.1c-0.2-1.6-0.6-3.1-1.3-4.7c-0.9-2.2-2.1-4.1-3.6-5.7c-2.1-2.1-4.3-3.1-5.9-2.4
			c-0.7,0.3-1.2,0.8-1.6,1.5l-0.8,1.4l-1.3-1c-0.5-0.4-1-0.7-1.4-0.9c-1.5-0.8-2.9-1-4.1-0.6c-0.6,0.2-1.1,0.7-1.6,1.3l-1,1.3
			l-1.1-1.2c-1.4-1.5-2.7-2.2-4.1-2c-0.8,0.2-3,2.1-4,4.7c-0.1-0.1-0.3-0.2-0.4-0.2l-0.2-0.1v-0.2c0-3.9,3.5-7.4,4.7-7.6
			c1.3-0.2,2.7,0.5,4.1,2l1.1,1.2l1-1.3c0.4-0.6,1-1,1.6-1.3c1.1-0.4,2.5-0.2,4.1,0.6c0.4,0.2,0.9,0.5,1.4,0.9l1.3,1l0.8-1.4
			c0.4-0.8,0.9-1.2,1.6-1.5c1.6-0.6,3.8,0.3,5.9,2.4c1.4,1.5,2.7,3.5,3.6,5.7c0.6,1.6,1.1,3.1,1.3,4.7
			C219.3,462.2,219.4,463.4,219.2,464.5z"/>
		<path class="st3" d="M193.1,473.7L193.1,473.7c0,0.6,0,1.1-0.1,1.7c-0.1-1.2-0.3-2.4-0.6-3.7c-0.7-2.6-1.8-4.9-3.1-6.8
			c-1.4-2-3-2.9-3.8-3.3c-0.9-0.4-1.8-0.5-2.6-0.3c-0.8,0.2-1.5,0.7-2.1,1.5l-1,1.3c0,0-4.2-5.6-7.2-3.6c-1.5,1-2.9,5.3-2.9,5.3
			s-2.1-7.5-5.6-7.1c-3.7,0.4-6.1,7.6-6.1,7.6s-1.1-3.3-2.3-4.4c-2.7-2.6-8.9,3.8-11.2,12.2c-0.4,1.5-0.7,3.1-0.8,4.6
			c-0.2-2.5,0-5.2,0.8-8c2.2-8.4,7.5-13.1,11.2-12.2c0.3,0.1,0.6,0.2,0.9,0.4l0.1,0.1l1.3,4l1.8-4.7c0.9-1.3,2.4-2.8,4.3-2.8
			c1.3,0,2.6,0.8,3.8,2.2l0.1,0.1l1.7,4.8l1.3-4.5l0.1-0.1c0.5-0.4,1-0.6,1.5-0.7c1.1-0.3,2.3-0.1,3.6,0.6c0.3,0.2,0.6,0.4,1,0.6
			c0.5,0.3,1,0.8,1.5,1.3l1.1,1.1l1-1.3c0.6-0.8,1.3-1.3,2.1-1.5c0.8-0.2,1.7-0.1,2.6,0.3c0.3,0.2,0.8,0.4,1.4,0.9v0.2l0.2,0.1
			c0.2,0.1,0.3,0.2,0.5,0.3c0.5,0.5,1.1,1.1,1.7,1.9c1.4,1.9,2.5,4.2,3.1,6.8C192.8,470.1,193.1,471.9,193.1,473.7z"/>
		<path class="st3" d="M140.5,478.5c-0.1-1.5-0.4-3-0.8-4.5c-2.2-8.4-8.1-14.3-11.2-12.2c-0.9,0.7-2.3,4.4-2.3,4.4s-2.2-7.8-6.1-7.6
			c-3.5,0.2-5.6,7.1-5.6,7.1s-1.8-7.1-6.4-4.7c-0.4,0.2-0.7,0.4-1,0.6c-0.5,0.3-1,0.7-1.5,1.3l-1.1,1.1l-1-1.3
			c-0.6-0.8-1.3-1.3-2.1-1.5c-0.8-0.2-1.6-0.1-2.6,0.3c-0.6,0.3-2.2,1.2-3.7,3.3c-1.4,1.9-2.5,4.2-3.1,6.8c-0.1,0.5-0.2,0.9-0.3,1.4
			c0,0.2-0.1,0.3-0.1,0.5l-0.1,0.5c0,0.1,0,0.2-0.1,0.3c0,0.2,0,0.4-0.1,0.7l0,0.2c0-0.5-0.1-1.1-0.1-1.7c0-0.2,0-0.3,0-0.5l0-0.4
			c0-0.1,0-0.3,0-0.4l0.1-0.7c0-0.2,0-0.4,0.1-0.7c0-0.1,0-0.2,0.1-0.3l0.1-0.5c0-0.2,0-0.3,0.1-0.5c0.1-0.5,0.2-0.9,0.3-1.4
			c0.7-2.6,1.8-4.9,3.1-6.8c0.6-0.8,1.2-1.4,1.7-1.9c0.2-0.1,0.3-0.2,0.5-0.3l0.2-0.1V459c0.6-0.4,1.1-0.7,1.4-0.9
			c1-0.4,1.8-0.5,2.6-0.3c0.8,0.2,1.5,0.7,2.1,1.5l1,1.3l1.1-1.1c0.5-0.5,1-0.9,1.5-1.3c0.3-0.2,0.7-0.4,1-0.6
			c1.2-0.7,2.4-0.9,3.5-0.6c0.5,0.1,1,0.4,1.5,0.7l0.1,0.1l1.3,4.5l1.7-4.9c1.2-1.5,2.5-2.2,3.8-2.2c1.9,0,3.4,1.5,4.3,2.8l0,0.1
			l1.7,4.7l1.3-4l0.1-0.1c0.3-0.2,0.6-0.3,0.9-0.4c3.6-0.9,9,3.8,11.2,12.2C140.5,473.2,140.7,476,140.5,478.5z"/>
		<path class="st3" d="M97.6,455.5v0.2l-0.2,0.1c-0.1,0.1-0.3,0.2-0.4,0.2c-1.1-2.6-3.2-4.5-4.1-4.7c-1.6-0.2-3.1,1-4,2l-1.1,1.2
			l-1-1.3c-0.4-0.6-1-1-1.6-1.3c-1.4-0.6-3,0-4,0.6c-0.5,0.2-1,0.6-1.5,0.9l-1.3,1l-0.8-1.4c-0.4-0.7-0.9-1.2-1.6-1.5
			c-1.6-0.6-3.8,0.3-5.9,2.5c-1.4,1.5-2.7,3.5-3.6,5.6c-0.6,1.5-1.1,3.1-1.3,4.7c0,0,0,0.1,0,0.1c-0.2-1.1-0.2-2.3,0-3.6
			c0.2-1.6,0.7-3.2,1.3-4.7c0.9-2.2,2.1-4.1,3.6-5.6c2.1-2.2,4.3-3.1,5.9-2.5c0.6,0.3,1.2,0.7,1.6,1.5l0.8,1.4l1.3-1
			c0.5-0.4,1-0.7,1.5-0.9c1-0.6,2.6-1.1,4-0.6c0.6,0.2,1.1,0.7,1.6,1.3l1,1.3l1.1-1.2c0.9-1,2.4-2.2,4-2
			C94.1,448.1,97.6,451.6,97.6,455.5z"/>
		<path class="st3" d="M52.7,350.4c-0.8-0.2-24.4-3.5-33.6,4c-0.2,0.2-0.5,0.3-0.7,0.5c-0.2,0.1-0.3,0.2-0.5,0.3
			c-0.2,0.1-0.3,0.2-0.5,0.3c-0.4,0.3-1.6,1.3-1.8,1.5c-2,1.8-3.8,3.9-5.3,6.6C4,374.8,4.3,400.7,18.8,422c0,0-0.1,0.1-0.2,0.4
			l-0.1-0.1C8.4,409.6,3.1,393.7,4.1,378.5c0.5-9.1,2.6-16.2,6.4-21.2c7.5-10.1,21.3-9.8,26.9-9.2c2.4,0.3,4.8,0.6,7.3,0.9
			c2.1,0.3,4.3,0.6,6.5,0.8L52.7,350.4z"/>
		<path class="st3" d="M322.3,266.3l-0.3,0.7c-0.7,1.6-0.7,1.4-1.1,2.8c-0.1,0-13.4,5-26.3,19.4c-2,2.3-3.5,5.1-5.1,8
			c-3.8,6-7.7,13.3-11.6,22.3l0.1-2c0,0.3,0,0.5,0,0.8c1.8-5.8,3.5-11.3,5.7-16.8c4.2-9.9,10.6-18.5,18.5-24.7
			c5.4-4.3,11.9-7.7,19.3-10.2L322.3,266.3z"/>
		<path class="st3" d="M352.1,345.5c0,0,0.9,33.6-41.8,56.4l5.5-1.4l22.8-12.3l11.7-17.3l6.7-22.2l0.8-8.8L352.1,345.5z"/>
		<path class="st3" d="M281.1,302.7c0,0-19.9,3.4-31.8,19l-1.2-4.6l11-11l16.7-6.6l7.3-0.9L281.1,302.7z"/>
		<path class="st3" d="M231.4,350.4c0.8-0.2,24.4-3.5,33.6,4c0.2,0.2,0.5,0.3,0.7,0.5c0.2,0.1,0.3,0.2,0.5,0.3
			c0.2,0.1,0.3,0.2,0.5,0.3c0.4,0.3,1.6,1.3,1.8,1.5c2,1.8,3.8,3.9,5.3,6.6c6.5,11.3,6.1,37.1-8.4,58.4c0,0,0.1,0.1,0.2,0.4l0.1-0.1
			c10.1-12.6,15.4-28.5,14.5-43.7c-0.5-9.1-2.6-16.2-6.4-21.2c-7.5-10.1-21.3-9.8-26.9-9.2c-2.4,0.3-4.8,0.6-7.3,0.9
			c-2.1,0.3-4.3,0.6-6.5,0.8L231.4,350.4z"/>
		<path class="st3" d="M215.2,73.8c0,0,11.1,26.7,10.2,39.9l3.4,2.7v-11.8L223.7,84l-7.1-15L215.2,73.8z"/>
		<path class="st3" d="M69,73.8c0,0-11.1,26.7-10.2,39.9l-3.4,2.7v-11.8L60.5,84l7.1-15L69,73.8z"/>
		<path class="st3" d="M232.7,248.5c0,0,11.4,31.9,5.4,64.3c0,0,10-22.3,4.2-46.7c-5.8-24.4-9.2-25.2-9.2-25.2L232.7,248.5z"/>
		<path class="st3" d="M240.9,306.5c0,0,7.7,20.9-1.3,40.3l6.1-1.4l2.3-22.2l-2-13.1l-3.1-9.5L240.9,306.5z"/>
		<path class="st3" d="M51.2,248.5c0,0-11.4,31.9-5.4,64.3c0,0-10-22.3-4.2-46.7s9.2-25.2,9.2-25.2L51.2,248.5z"/>
		<path class="st3" d="M43,306.5c0,0-7.7,20.9,1.3,40.3l-6.1-1.4l-2.3-22.2l2-13.1l3.1-9.5L43,306.5z"/>
		<path class="st3" d="M225.2,147.9c0,0,15.3,26.6,14.9,50.4l-8-12.8c0,0,3.8,41.1-6.7,66.4l-5.5-22.1c0,0-8.9,47-18.8,58.2
			l2.3-24.2c0,0-22.5,48.2-61.5,67.2l-0.5,5.2c0,0,28.8-14.7,44.2-36.3c15.4-21.6,14.3-24.3,14.3-24.3l-4.7,25.9
			c0,0,13.7-14.6,19.1-31.2c5.4-16.6,5.9-23.4,5.9-23.4l3.8,17.6c0,0,8.3-14.7,11.3-34.2s1-28.6,1-28.6l5.8,10.6c0,0,2.8-17-1-33.4
			s-13-31.5-13-31.5L225.2,147.9z"/>
		<path class="st3" d="M58.7,148.3c0,0-15.3,26.6-14.9,50.4l8-12.8c0,0-3.8,41.1,6.7,66.4l5.5-22.1c0,0,8.9,47,18.8,58.2l-2.3-24.2
			c0,0,22.5,48.2,61.5,67.2l0.5,5.2c0,0-28.8-14.7-44.2-36.3c-15.4-21.6-14.3-24.3-14.3-24.3l4.7,25.9c0,0-13.7-14.6-19.1-31.2
			c-5.4-16.6-5.9-23.4-5.9-23.4l-3.8,17.6c0,0-8.3-14.7-11.3-34.2c-3-19.5-1-28.6-1-28.6l-5.8,10.6c0,0-2.8-17,1-33.4
			s13-31.5,13-31.5L58.7,148.3z"/>
		<path class="st3" d="M222.7,270.5c-7.6,38.4-22.5,80.6-31.6,107.5c-9.3,27.4-13.2,78.2-13.2,78.2l1.8,1.9l3-1.9
			c0,0,1.3-27.4,6.3-52.8c5-25.5,15.6-53.3,15.6-53.3l17.3-57.1l6.1-30.2C227.8,262.7,223.2,268.2,222.7,270.5z"/>
		<path class="st3" d="M61.6,270.5C69.2,308.8,84,351.1,93.2,378c9.3,27.4,13.2,78.2,13.2,78.2l-1.8,1.9l-3-1.9
			c0,0-1.3-27.4-6.3-52.8c-5-25.5-15.6-53.3-15.6-53.3l-17.3-57.1l-6.1-30.2C56.4,262.7,61.1,268.2,61.6,270.5z"/>
		<path class="st3" d="M377.5,294.2c-0.2,21.8-13.3,37.4-24.3,46.6c0.7-0.6,22.5-21.2,22.5-45.9c0-9.7-2.4-23.6-2.4-23.6l0.5,1.4
			C376.3,279.5,377.6,287,377.5,294.2z"/>
		<path class="st3" d="M367.2,285.6c-1.6,5.6-4.1,10.8-6.4,15.8c-0.9,1.9,2.7-8.8,4.5-14.3c13-40.2-18.6-73.1-19.5-73.9l0.9,0.9
			c1.6,1.6,3.3,3.3,5,5.3C368.6,238.2,374.5,263,367.2,285.6z"/>
	</g>
	<path class="st4" d="M130.9,156.5c-0.6-0.6-1.5-0.6-2,0c-0.6,0.6-0.6,1.5,0,2c0.6,0.6,1.5,0.6,2,0
		C131.5,158,131.5,157.1,130.9,156.5z M132.8,160.6c-0.6-0.6-1.5-0.6-2,0c-0.6,0.6-0.6,1.5,0,2c0.6,0.6,1.5,0.6,2,0
		C133.4,162,133.4,161.1,132.8,160.6z M163.7,92c6.3-5,11.2-11.2,17.7-16C173.7,76.9,166.4,85.1,163.7,92z M229.5,15
		c-6.7-3.5-20,5.1-25.8,8.6c-3.9,2.5-7.6,5.1-11.3,7.7c-3.7,2.6-7.3,5.5-9.7,9.8c4.7-1.3,8.4-3.8,12.1-6.4c3.7-2.5,7.5-5,11.3-7.3
		c5.1-2.9,14.9-9,20.7-8.4c0,0.6-0.1,1.6-0.3,2.2c-0.8,3.1-2.2,6.1-3.6,9.1c-3.9,8.1-8.2,16.1-12,24.3c-1,2.1-2,4.1-2.6,6.4
		c-0.6,2.3-1.2,4.8-0.4,7.1c2-4,4.3-7.8,6.2-11.9c4.2-8,8.9-15.8,12.9-24C228.6,28.2,234.4,18.3,229.5,15z M157.6,96.8
		c0.7-1.2,1.3-2.4,1.8-3.6c4.1-8.2,7.4-16.8,13-24.2C163.7,74,158.5,87.2,157.6,96.8z M153,160.6c-0.6-0.6-1.5-0.6-2,0
		c-0.6,0.6-0.6,1.5,0,2c0.6,0.6,1.5,0.5,2,0C153.6,162,153.6,161.1,153,160.6z M188.5,98.9c-0.4-0.2-10.4-3.6-18.6,0.7
		c-8.2,4.3-10.5,14.7-10.6,15.1l-0.3,1.6l1.6-0.4c0,0,1.9-0.5,5.2-0.1c0.6,0.1,1.2,0.1,1.8,0.2c1.4,0.2,2.9,0.4,4.4,0.4
		c2,0,4-0.3,5.9-1.3c3.7-1.9,5.6-5.6,7.1-8.6c0.3-0.5,0.5-1,0.8-1.5c1.5-2.8,3-4.3,3.1-4.4l1.2-1.2L188.5,98.9z M179.6,99.6
		c-0.3,0-0.6,0-0.9,0C179,99.6,179.3,99.6,179.6,99.6z M163.6,113.6c-0.7,0-1.3,0-1.8,0.1c0.3-0.9,0.7-2.1,1.3-3.4
		c0,0.1,0.1,0.1,0.1,0.2c0.7,1.3,1.5,2.3,2.6,3.2C165,113.7,164.2,113.6,163.6,113.6z M176.4,113.1c-2,1-4.3,1.2-6.4,0.6
		c-2.1-0.7-3.9-2.1-4.9-4.1c-0.3-0.5-0.5-1.1-0.6-1.7c0.5-0.9,1.1-1.7,1.8-2.6c-0.1,1.2,0.2,2.5,0.9,3.6c1.8,2.9,5.7,3.9,8.7,2
		c0.2-0.1,0.3-0.2,0.5-0.3c-1-0.2-1.9-0.8-2.5-1.8c-1.1-1.8-0.6-4.2,1.3-5.4c1-0.6,2.1-0.7,3.1-0.4c-0.1-0.2-0.2-0.5-0.4-0.7
		c-0.7-1.1-1.6-1.9-2.7-2.4c1.1-0.2,2.1-0.3,3.1-0.4c0.6,0.6,1.2,1.3,1.6,2.2C182.1,105.9,180.5,111,176.4,113.1z M184,104
		c-0.3,0.5-0.5,1-0.8,1.5c-0.1,0.2-0.2,0.4-0.3,0.6c0.1-1.8-0.3-3.7-1.2-5.3c-0.2-0.4-0.5-0.8-0.7-1.2c2.2,0.1,4.1,0.5,5.3,0.8
		C185.7,101.3,184.9,102.5,184,104z M154.9,156.5c-0.6-0.6-1.5-0.6-2,0c-0.6,0.6-0.6,1.5,0,2c0.6,0.6,1.5,0.6,2,0
		C155.5,158,155.5,157.1,154.9,156.5z M12.4,360.2c-4.7,6.6-5.8,15.1-5.6,22.9c0.2,5.2,0.3,10.6,3,15.3c0.8-3.9,0.2-7.7,0.1-11.5
		c-0.2-6.2,0.1-12.5,2-18.4c1.8-5.7,5.5-11,11-13.5c3.5-1.5,6.9-2.2,10.7-3C25.9,349.1,17,353.8,12.4,360.2z M50.9,165.6
		c-1.2,2.7-2.2,5.5-3.1,8.3c-1.6,5.7-3.3,11.7-2.3,17.6c2-5.5,3.5-11.2,5.3-16.7c1.4-5,4.1-11.8,4.6-17
		C53.3,160.2,52,162.9,50.9,165.6z M271.7,360.2c-4.6-6.4-13.5-11.1-21.3-8.2c3.8,0.8,7.3,1.5,10.7,3c5.5,2.5,9.3,7.8,11,13.5
		c1.9,5.9,2.2,12.2,2,18.4c-0.1,3.9-0.7,7.7,0.1,11.5c2.7-4.7,2.7-10,3-15.3C277.5,375.4,276.4,366.9,271.7,360.2z M55.8,226.1
		c-0.6-6.5-1-13-2.8-19.4c-1.3,6.6-1,13.2-0.2,19.7c0.9,6.5,2,13.1,4.7,19.2C56.8,239.1,56.3,232.5,55.8,226.1z M12.4,360.2
		c-4.7,6.6-5.8,15.1-5.6,22.9c0.2,5.2,0.3,10.6,3,15.3c0.8-3.9,0.2-7.7,0.1-11.5c-0.2-6.2,0.1-12.5,2-18.4c1.8-5.7,5.5-11,11-13.5
		c3.5-1.5,6.9-2.2,10.7-3C25.9,349.1,17,353.8,12.4,360.2z M50.9,165.6c-1.2,2.7-2.2,5.5-3.1,8.3c-1.6,5.7-3.3,11.7-2.3,17.6
		c2-5.5,3.5-11.2,5.3-16.7c1.4-5,4.1-11.8,4.6-17C53.3,160.2,52,162.9,50.9,165.6z M55.8,226.1c-0.6-6.5-1-13-2.8-19.4
		c-1.3,6.6-1,13.2-0.2,19.7c0.9,6.5,2,13.1,4.7,19.2C56.8,239.1,56.3,232.5,55.8,226.1z M91.4,31.3c-3.7-2.7-7.5-5.3-11.3-7.7
		C74.3,20.1,61,11.5,54.3,15c-4.9,3.3,0.9,13.2,2.7,17.2c4,8.2,8.7,15.9,12.9,24c1.9,4.1,4.2,7.8,6.2,11.9c0.7-2.3,0.2-4.8-0.4-7.1
		C75,58.7,74,56.6,73,54.6c-3.9-8.2-8.2-16.2-12-24.3c-1.4-3-2.7-6-3.6-9.1c-0.2-0.6-0.3-1.6-0.3-2.2c5.7-0.6,15.6,5.5,20.7,8.4
		c3.8,2.3,7.6,4.8,11.3,7.3c3.7,2.6,7.4,5.1,12.1,6.4C98.7,36.8,95.1,34,91.4,31.3z M102.4,76c6.5,4.8,11.4,11,17.7,16
		C117.4,85.1,110.1,76.9,102.4,76z M111.4,69c5.6,7.3,8.9,16,13,24.2c0.6,1.2,1.1,2.4,1.8,3.6C125.3,87.2,120.1,74,111.4,69z
		 M124.5,114.7c-0.1-0.4-2.4-10.8-10.6-15.1c-8.2-4.3-18.2-0.9-18.6-0.7l-1.6,0.5l1.2,1.2c0,0,1.6,1.6,3.1,4.4
		c0.2,0.5,0.5,1,0.8,1.5c1.5,3,3.4,6.7,7.1,8.6c2,1,4,1.3,5.9,1.3c1.5,0,3-0.2,4.4-0.4c0.6-0.1,1.2-0.2,1.8-0.2
		c3.3-0.3,5.2,0.1,5.2,0.1l1.6,0.4L124.5,114.7z M102.1,100.8c-0.9,1.7-1.3,3.5-1.2,5.3c-0.1-0.2-0.2-0.4-0.3-0.6
		c-0.3-0.5-0.5-1-0.8-1.5c-0.8-1.5-1.7-2.7-2.3-3.5c1.2-0.3,3.1-0.7,5.3-0.8C102.5,100,102.3,100.4,102.1,100.8z M105.1,99.6
		c-0.3,0-0.6,0-0.9,0C104.5,99.6,104.8,99.6,105.1,99.6z M113.9,113.7c-2.1,0.7-4.4,0.5-6.4-0.6c-4.1-2.1-5.7-7.2-3.6-11.3
		c0.4-0.8,1-1.5,1.6-2.2c1,0,2.1,0.2,3.1,0.4c-1.1,0.5-2,1.3-2.7,2.4c-0.1,0.2-0.3,0.5-0.4,0.7c1-0.3,2.2-0.2,3.1,0.4
		c1.8,1.1,2.4,3.6,1.3,5.4c-0.6,0.9-1.5,1.5-2.5,1.8c0.2,0.1,0.3,0.2,0.5,0.3c2.9,1.8,6.8,0.9,8.6-2c0.7-1.1,1-2.4,0.9-3.6
		c0.7,0.8,1.3,1.7,1.8,2.6c-0.2,0.6-0.4,1.1-0.6,1.6C117.8,111.5,116,113,113.9,113.7z M118.1,113.7c1.1-0.9,1.9-2,2.6-3.2
		c0-0.1,0.1-0.1,0.1-0.2c0.6,1.3,1,2.5,1.3,3.4C121.1,113.6,119.7,113.6,118.1,113.7z M130.9,156.5c-0.6-0.6-1.5-0.6-2,0
		c-0.6,0.6-0.6,1.5,0,2c0.6,0.6,1.5,0.6,2,0C131.5,158,131.5,157.1,130.9,156.5z M132.8,160.6c-0.6-0.6-1.5-0.6-2,0
		c-0.6,0.6-0.6,1.5,0,2c0.6,0.6,1.5,0.6,2,0C133.4,162,133.4,161.1,132.8,160.6z M153,160.6c-0.6-0.6-1.5-0.6-2,0
		c-0.6,0.6-0.6,1.5,0,2c0.6,0.6,1.5,0.5,2,0C153.6,162,153.6,161.1,153,160.6z M154.9,156.5c-0.6-0.6-1.5-0.6-2,0
		c-0.6,0.6-0.6,1.5,0,2c0.6,0.6,1.5,0.6,2,0C155.5,158,155.5,157.1,154.9,156.5z M148.2,167.4c-3.3-0.6-3.4-4.7-3.6-7.5
		c18.4-14.9,1.3-16.6-2.3-16.8v0c0,0-0.1,0-0.4,0c-0.2,0-0.4,0-0.4,0v0c-3.6,0.2-20.7,1.9-2.3,16.8c-0.1,3.9-0.9,8.7-5.9,7.4
		c-2.6-0.7-5-2.3-6.8-4.5c0,4.7,4.7,8.3,9.4,8.1c3-0.1,4.9-2,5.9-4.5c1,2.5,3,4.4,6,4.5c2.5,0.1,4.9-0.9,6.6-2.3
		c1.6-1.5,3-3.6,2.8-5.8C155.1,165.4,151.6,167.8,148.2,167.4z M157.6,96.8c0.7-1.2,1.3-2.4,1.8-3.6c4.1-8.2,7.4-16.8,13-24.2
		C163.7,74,158.5,87.2,157.6,96.8z M163.7,92c6.3-5,11.2-11.2,17.7-16C173.7,76.9,166.4,85.1,163.7,92z M188.5,98.9
		c-0.4-0.2-10.4-3.6-18.6,0.7c-8.2,4.3-10.5,14.7-10.6,15.1l-0.3,1.6l1.6-0.4c0,0,1.9-0.5,5.2-0.1c0.6,0.1,1.2,0.1,1.8,0.2
		c1.4,0.2,2.9,0.4,4.4,0.4c2,0,4-0.3,5.9-1.3c3.7-1.9,5.6-5.6,7.1-8.6c0.3-0.5,0.5-1,0.8-1.5c1.5-2.8,3-4.3,3.1-4.4l1.2-1.2
		L188.5,98.9z M179.6,99.6c-0.3,0-0.6,0-0.9,0C179,99.6,179.3,99.6,179.6,99.6z M163.6,113.6c-0.7,0-1.3,0-1.8,0.1
		c0.3-0.9,0.7-2.1,1.3-3.4c0,0.1,0.1,0.1,0.1,0.2c0.7,1.3,1.5,2.3,2.6,3.2C165,113.7,164.2,113.6,163.6,113.6z M176.4,113.1
		c-2,1-4.3,1.2-6.4,0.6c-2.1-0.7-3.9-2.1-4.9-4.1c-0.3-0.5-0.5-1.1-0.6-1.7c0.5-0.9,1.1-1.7,1.8-2.6c-0.1,1.2,0.2,2.5,0.9,3.6
		c1.8,2.9,5.7,3.9,8.7,2c0.2-0.1,0.3-0.2,0.5-0.3c-1-0.2-1.9-0.8-2.5-1.8c-1.1-1.8-0.6-4.2,1.3-5.4c1-0.6,2.1-0.7,3.1-0.4
		c-0.1-0.2-0.2-0.5-0.4-0.7c-0.7-1.1-1.6-1.9-2.7-2.4c1.1-0.2,2.1-0.3,3.1-0.4c0.6,0.6,1.2,1.3,1.6,2.2
		C182.1,105.9,180.5,111,176.4,113.1z M184,104c-0.3,0.5-0.5,1-0.8,1.5c-0.1,0.2-0.2,0.4-0.3,0.6c0.1-1.8-0.3-3.7-1.2-5.3
		c-0.2-0.4-0.5-0.8-0.7-1.2c2.2,0.1,4.1,0.5,5.3,0.8C185.7,101.3,184.9,102.5,184,104z M229.5,15c-6.7-3.5-20,5.1-25.8,8.6
		c-3.9,2.5-7.6,5.1-11.3,7.7c-3.7,2.6-7.3,5.5-9.7,9.8c4.7-1.3,8.4-3.8,12.1-6.4c3.7-2.5,7.5-5,11.3-7.3c5.1-2.9,14.9-9,20.7-8.4
		c0,0.6-0.1,1.6-0.3,2.2c-0.8,3.1-2.2,6.1-3.6,9.1c-3.9,8.1-8.2,16.1-12,24.3c-1,2.1-2,4.1-2.6,6.4c-0.6,2.3-1.2,4.8-0.4,7.1
		c2-4,4.3-7.8,6.2-11.9c4.2-8,8.9-15.8,12.9-24C228.6,28.2,234.4,18.3,229.5,15z M231.1,206.7c-1.8,6.4-2.2,12.9-2.8,19.4
		c-0.4,6.4-1,13.1-1.7,19.5c2.7-6,3.8-12.7,4.7-19.2C232,219.8,232.4,213.2,231.1,206.7z M236.4,173.9c-0.9-2.8-2-5.6-3.1-8.3
		c-1.1-2.7-2.4-5.4-4.5-7.8c0.5,5.3,3.2,11.9,4.6,17c1.8,5.5,3.2,11.3,5.3,16.7C239.7,185.6,238.1,179.6,236.4,173.9z M271.7,360.2
		c-4.6-6.4-13.5-11.1-21.3-8.2c3.8,0.8,7.3,1.5,10.7,3c5.5,2.5,9.3,7.8,11,13.5c1.9,5.9,2.2,12.2,2,18.4c-0.1,3.9-0.7,7.7,0.1,11.5
		c2.7-4.7,2.7-10,3-15.3C277.5,375.4,276.4,366.9,271.7,360.2z M294.4,288.9c-2.7,3.7-5,7.6-7.1,11.6c-2.1,4-4,8.2-4.3,12.8
		c2.8-3.6,4.7-7.5,6.9-11.4c5.5-9.4,11.8-18.5,20.6-25.1c1.7-1.3,3.4-2.6,5.1-4.3C307.8,273.2,298.9,282.9,294.4,288.9z M311,423
		c-10.5,14.6-26.4,24.3-43,30.6c-6.8,2.6-13.8,4.1-20.6,6.8c7.4,0.7,14.7-1.6,21.6-3.9c17-5.7,33-15.9,43.4-30.7
		c2.4-3.4,4.3-7.2,5.2-11.3C315.2,417.2,313.2,420.2,311,423z M311,423c-10.5,14.6-26.4,24.3-43,30.6c-6.8,2.6-13.8,4.1-20.6,6.8
		c7.4,0.7,14.7-1.6,21.6-3.9c17-5.7,33-15.9,43.4-30.7c2.4-3.4,4.3-7.2,5.2-11.3C315.2,417.2,313.2,420.2,311,423z M310.5,276.8
		c1.7-1.3,3.4-2.6,5.1-4.3c-7.7,0.7-16.7,10.4-21.2,16.4c-2.7,3.7-5,7.6-7.1,11.6c-2.1,4-4,8.2-4.3,12.8c2.8-3.6,4.7-7.5,6.9-11.4
		C295.4,292.5,301.8,283.4,310.5,276.8z M271.7,360.2c-4.6-6.4-13.5-11.1-21.3-8.2c3.8,0.8,7.3,1.5,10.7,3c5.5,2.5,9.3,7.8,11,13.5
		c1.9,5.9,2.2,12.2,2,18.4c-0.1,3.9-0.7,7.7,0.1,11.5c2.7-4.7,2.7-10,3-15.3C277.5,375.4,276.4,366.9,271.7,360.2z M12.4,360.2
		c-4.7,6.6-5.8,15.1-5.6,22.9c0.2,5.2,0.3,10.6,3,15.3c0.8-3.9,0.2-7.7,0.1-11.5c-0.2-6.2,0.1-12.5,2-18.4c1.8-5.7,5.5-11,11-13.5
		c3.5-1.5,6.9-2.2,10.7-3C25.9,349.1,17,353.8,12.4,360.2z M236.4,173.9c-0.9-2.8-2-5.6-3.1-8.3c-1.1-2.7-2.4-5.4-4.5-7.8
		c0.5,5.3,3.2,11.9,4.6,17c1.8,5.5,3.2,11.3,5.3,16.7C239.7,185.6,238.1,179.6,236.4,173.9z M228.3,226.1c-0.4,6.4-1,13.1-1.7,19.5
		c2.7-6,3.8-12.7,4.7-19.2c0.7-6.6,1.1-13.2-0.2-19.7C229.3,213.1,228.9,219.5,228.3,226.1z M53.1,206.7c-1.3,6.6-1,13.2-0.2,19.7
		c0.9,6.5,2,13.1,4.7,19.2c-0.7-6.4-1.3-13-1.7-19.5C55.3,219.5,54.8,213.1,53.1,206.7z M50.9,165.6c-1.2,2.7-2.2,5.5-3.1,8.3
		c-1.6,5.7-3.3,11.7-2.3,17.6c2-5.5,3.5-11.2,5.3-16.7c1.4-5,4.1-11.8,4.6-17C53.3,160.2,52,162.9,50.9,165.6z M229.5,15
		c-6.7-3.5-20,5.1-25.8,8.6c-3.9,2.5-7.6,5.1-11.3,7.7c-3.7,2.6-7.3,5.5-9.7,9.8c4.7-1.3,8.4-3.8,12.1-6.4c3.7-2.5,7.5-5,11.3-7.3
		c5.1-2.9,14.9-9,20.7-8.4c0,0.6-0.1,1.6-0.3,2.2c-0.8,3.1-2.2,6.1-3.6,9.1c-3.9,8.1-8.2,16.1-12,24.3c-1,2.1-2,4.1-2.6,6.4
		c-0.6,2.3-1.2,4.8-0.4,7.1c2-4,4.3-7.8,6.2-11.9c4.2-8,8.9-15.8,12.9-24C228.6,28.2,234.4,18.3,229.5,15z M169.9,99.6
		c-8.2,4.3-10.5,14.7-10.6,15.1l-0.3,1.6l1.6-0.4c0,0,1.9-0.5,5.2-0.1c0.6,0.1,1.2,0.1,1.8,0.2c1.4,0.2,2.9,0.4,4.4,0.4
		c2,0,4-0.3,5.9-1.3c3.7-1.9,5.6-5.6,7.1-8.6c0.3-0.5,0.5-1,0.8-1.5c1.5-2.8,3-4.3,3.1-4.4l1.2-1.2l-1.6-0.5
		C188.1,98.8,178.1,95.3,169.9,99.6z M179.6,99.6c-0.3,0-0.6,0-0.9,0C179,99.6,179.3,99.6,179.6,99.6z M163.6,113.6
		c-0.7,0-1.3,0-1.8,0.1c0.3-0.9,0.7-2.1,1.3-3.4c0,0.1,0.1,0.1,0.1,0.2c0.7,1.3,1.5,2.3,2.6,3.2C165,113.7,164.2,113.6,163.6,113.6z
		 M176.4,113.1c-2,1-4.3,1.2-6.4,0.6c-2.1-0.7-3.9-2.1-4.9-4.1c-0.3-0.5-0.5-1.1-0.6-1.7c0.5-0.9,1.1-1.7,1.8-2.6
		c-0.1,1.2,0.2,2.5,0.9,3.6c1.8,2.9,5.7,3.9,8.7,2c0.2-0.1,0.3-0.2,0.5-0.3c-1-0.2-1.9-0.8-2.5-1.8c-1.1-1.8-0.6-4.2,1.3-5.4
		c1-0.6,2.1-0.7,3.1-0.4c-0.1-0.2-0.2-0.5-0.4-0.7c-0.7-1.1-1.6-1.9-2.7-2.4c1.1-0.2,2.1-0.3,3.1-0.4c0.6,0.6,1.2,1.3,1.6,2.2
		C182.1,105.9,180.5,111,176.4,113.1z M184,104c-0.3,0.5-0.5,1-0.8,1.5c-0.1,0.2-0.2,0.4-0.3,0.6c0.1-1.8-0.3-3.7-1.2-5.3
		c-0.2-0.4-0.5-0.8-0.7-1.2c2.2,0.1,4.1,0.5,5.3,0.8C185.7,101.3,184.9,102.5,184,104z M163.7,92c6.3-5,11.2-11.2,17.7-16
		C173.7,76.9,166.4,85.1,163.7,92z M172.4,69c-8.7,4.9-13.9,18.2-14.8,27.7c0.7-1.2,1.3-2.4,1.8-3.6C163.5,85,166.9,76.4,172.4,69z
		 M148.2,167.4c-3.3-0.6-3.4-4.7-3.6-7.5c18.4-14.9,1.3-16.6-2.3-16.8v0c0,0-0.1,0-0.4,0c-0.2,0-0.4,0-0.4,0v0
		c-3.6,0.2-20.7,1.9-2.3,16.8c-0.1,3.9-0.9,8.7-5.9,7.4c-2.6-0.7-5-2.3-6.8-4.5c0,4.7,4.7,8.3,9.4,8.1c3-0.1,4.9-2,5.9-4.5
		c1,2.5,3,4.4,6,4.5c2.5,0.1,4.9-0.9,6.6-2.3c1.6-1.5,3-3.6,2.8-5.8C155.1,165.4,151.6,167.8,148.2,167.4z M152.9,158.6
		c0.6,0.6,1.5,0.6,2,0c0.6-0.6,0.6-1.5,0-2c-0.6-0.6-1.5-0.6-2,0C152.4,157.1,152.4,158,152.9,158.6z M151,160.6
		c-0.6,0.6-0.6,1.5,0,2c0.6,0.6,1.5,0.5,2,0c0.6-0.6,0.5-1.5,0-2C152.5,160,151.6,160,151,160.6z M130.8,162.6c0.6,0.6,1.5,0.6,2,0
		c0.6-0.6,0.6-1.5,0-2c-0.6-0.6-1.5-0.6-2,0C130.2,161.1,130.2,162,130.8,162.6z M130.9,158.6c0.6-0.6,0.6-1.5,0-2
		c-0.6-0.6-1.5-0.6-2,0c-0.6,0.6-0.6,1.5,0,2C129.5,159.1,130.4,159.1,130.9,158.6z M113.9,99.6c-8.2-4.3-18.2-0.9-18.6-0.7
		l-1.6,0.5l1.2,1.2c0,0,1.6,1.6,3.1,4.4c0.2,0.5,0.5,1,0.8,1.5c1.5,3,3.4,6.7,7.1,8.6c2,1,4,1.3,5.9,1.3c1.5,0,3-0.2,4.4-0.4
		c0.6-0.1,1.2-0.2,1.8-0.2c3.3-0.3,5.2,0.1,5.2,0.1l1.6,0.4l-0.3-1.6C124.4,114.3,122.1,103.9,113.9,99.6z M102.1,100.8
		c-0.9,1.7-1.3,3.5-1.2,5.3c-0.1-0.2-0.2-0.4-0.3-0.6c-0.3-0.5-0.5-1-0.8-1.5c-0.8-1.5-1.7-2.7-2.3-3.5c1.2-0.3,3.1-0.7,5.3-0.8
		C102.5,100,102.3,100.4,102.1,100.8z M105.1,99.6c-0.3,0-0.6,0-0.9,0C104.5,99.6,104.8,99.6,105.1,99.6z M113.9,113.7
		c-2.1,0.7-4.4,0.5-6.4-0.6c-4.1-2.1-5.7-7.2-3.6-11.3c0.4-0.8,1-1.5,1.6-2.2c1,0,2.1,0.2,3.1,0.4c-1.1,0.5-2,1.3-2.7,2.4
		c-0.1,0.2-0.3,0.5-0.4,0.7c1-0.3,2.2-0.2,3.1,0.4c1.8,1.1,2.4,3.6,1.3,5.4c-0.6,0.9-1.5,1.5-2.5,1.8c0.2,0.1,0.3,0.2,0.5,0.3
		c2.9,1.8,6.8,0.9,8.6-2c0.7-1.1,1-2.4,0.9-3.6c0.7,0.8,1.3,1.7,1.8,2.6c-0.2,0.6-0.4,1.1-0.6,1.6C117.8,111.5,116,113,113.9,113.7z
		 M118.1,113.7c1.1-0.9,1.9-2,2.6-3.2c0-0.1,0.1-0.1,0.1-0.2c0.6,1.3,1,2.5,1.3,3.4C121.1,113.6,119.7,113.6,118.1,113.7z M111.4,69
		c5.6,7.3,8.9,16,13,24.2c0.6,1.2,1.1,2.4,1.8,3.6C125.3,87.2,120.1,74,111.4,69z M102.4,76c6.5,4.8,11.4,11,17.7,16
		C117.4,85.1,110.1,76.9,102.4,76z M91.4,31.3c-3.7-2.7-7.5-5.3-11.3-7.7C74.3,20.1,61,11.5,54.3,15c-4.9,3.3,0.9,13.2,2.7,17.2
		c4,8.2,8.7,15.9,12.9,24c1.9,4.1,4.2,7.8,6.2,11.9c0.7-2.3,0.2-4.8-0.4-7.1C75,58.7,74,56.6,73,54.6c-3.9-8.2-8.2-16.2-12-24.3
		c-1.4-3-2.7-6-3.6-9.1c-0.2-0.6-0.3-1.6-0.3-2.2c5.7-0.6,15.6,5.5,20.7,8.4c3.8,2.3,7.6,4.8,11.3,7.3c3.7,2.6,7.4,5.1,12.1,6.4
		C98.7,36.8,95.1,34,91.4,31.3z M374,265.3c0.1-12.6-3.3-25.1-10.6-36.5c-5.4-8.5-12.1-16-20.2-21.9l-6.6-4.6l4.1,6.9
		c2.6,5.8,3.2,12.5,2.2,18.8c-1.2,8-5.6,15.3-10.8,21.5c-0.9,1.2-2.2,3-3.1,4.2c-1.5,2.2-3.5,5.4-5.3,8.8
		c-16.1,3.7-30.5,14.1-38.5,28.7c-0.9,1.6-1.7,3.3-2.5,5c-7.3,1.4-23.2,5.8-34,17.8c-1.3-8.1-3.7-14.2-4.5-16.2
		c0.7-3.7,1.1-7.4,1.3-11.1c0.7-16.1-2.7-32.5-10.1-46.9c2.8-12.3,3.1-23.4,2.8-31.2l5.5,12.7l0.7-6.4c5.5-47.7-16.4-69.3-18.1-70.9
		c1-7.3-0.4-14.9-3.2-21.6c0-3-0.4-5.8-0.8-8.1l8,8.8l0.4-3.9c1.9-19.2-10.3-46-12.8-51.1c5.5-10.8,11.1-21.6,16.5-32.5
		c3.1-6.6,6.2-13.1,8.2-20.2c0.8-2.8,1.4-5.8,1.1-8.8c-0.7-7.4-8.2-7.2-13.7-5.8c-10.7,2.7-20.5,7.8-30.1,12.8
		c-6.4,3.4-12.6,6.9-18.8,10.6c-0.6,0.4-1.3,0.8-1.9,1.1c-4.1,1.3-10.1,2.9-14,3l5.4-5.9l-3-0.6c-10-2-23.1,2.2-26.1,3.3
		c-3-1.1-16.4-5.6-24.9-3.7l-2.6,0.6l4.6,6.3c-4.1-0.2-10.9-2.1-15.7-3.7c-0.2-0.1-0.5-0.3-0.7-0.4c-6.2-3.7-12.4-7.2-18.8-10.6
		c-9.6-5-19.4-10.1-30.1-12.8c-5.6-1.3-13-1.6-13.7,5.8c-0.3,3,0.4,6,1.2,8.8c2.1,7.1,5.1,13.6,8.2,20.2c5.4,10.9,11,21.6,16.5,32.5
		c-2.4,5.1-14.6,31.8-12.8,51.1l0.4,3.9l8-8.8c-0.4,2.2-0.7,4.9-0.8,7.8c-2.9,6.9-4.2,14.5-3.3,22c-2.4,2.3-23.4,24-18,70.8l0.7,6.4
		l5.5-12.7c-0.3,7.7,0.1,18.9,2.8,31.2c-3,5.8-5.2,11.8-6.9,18c-3.3,12.5-4.3,25.7-2.1,38.5c0.1,0.5,0.2,1,0.2,1.4
		c-1.8,4.2-10.2,26.3-2.1,47.3c-5.5-0.7-11.1-0.3-16.1,0.9c-14.9,3.9-20.8,18.3-21.3,32.4c-0.5,8.1,0.6,16.3,3.2,24
		c4,11.9,11.5,22.5,21.3,30.4c-0.4-1.8-1.2-5.5-1.9-9.1c3.2,4.2,6.4,8.3,9.9,12.3l4.2,4.8l-1.3-6.3l-0.6-2.8
		c2.9,4.3,6.2,8.3,9.8,12.1c5.3,5.5,11.3,10.4,17.8,14.4c-0.2,0.8-0.4,1.6-0.5,2.5c-0.3,2.1-0.2,4,0.2,5.7v0
		c0.7,2.5,2.1,4.3,4.1,5.1c1.2,0.5,2.6,0.5,4,0.2c0.9,1.8,2.1,3,3.8,3.7c2.5,1,5.6,0.3,8.4-1.8c1.4,3.2,3.5,5.1,6.2,5.4
		c0,0,0.1,0,0.2,0c0.1,0.4,0.3,0.8,0.4,1.2c1.1,2.6,2.9,4.4,5.1,4.9c1.4,0.4,3,0.2,4.5-0.4c1.2,1.9,2.8,3.1,4.7,3.6
		c3,0.8,6.2-0.5,9.1-3.4c2,3.4,4.7,5.3,7.6,5.3c2.6,0,5.1-1.6,7-4.4c2.9,3.2,6.3,4.6,9.5,3.8c2-0.5,3.7-1.8,4.9-3.9
		c0.2-0.4,0.4-0.7,0.6-1.1c0.2,0.4,0.4,0.8,0.6,1.1c1.2,2.1,2.9,3.4,4.9,3.9c3.1,0.8,6.5-0.6,9.5-3.8c1.9,2.8,4.4,4.4,7,4.4
		c2.9,0,5.6-1.9,7.6-5.3c2.8,2.9,6.1,4.1,9.1,3.4c1.9-0.5,3.5-1.7,4.7-3.6c1.5,0.7,3,0.8,4.5,0.4c2.2-0.6,4-2.3,5.1-4.9
		c0.2-0.4,0.3-0.8,0.4-1.2c0.1,0,0.1,0,0.2,0c2.6-0.3,4.8-2.3,6.1-5.4c2.8,2.2,5.9,2.9,8.4,1.8c1.6-0.7,2.9-1.9,3.8-3.7
		c1.4,0.4,2.7,0.3,4-0.2c2-0.8,3.4-2.6,4-5.1l0,0c0-0.2,0.1-0.4,0.1-0.5c5.7,0.7,11.2,1,16.5,1c14.5,0,27.8-2.5,39.8-7.5
		c13.5-5.6,25.3-14.4,35.1-26c14.9-17.7,20.4-36.3,21.6-40.7c4.5-3.4,8.6-7.5,11.9-12.2c8.2-11.7,12.3-26,12.2-40.2
		c0.7-0.6,1.4-1.3,1.8-1.6c0.9-0.9,3.1-3.2,4-4.1c2.4-2.8,5-6,7-9.1C383.8,307.3,384.2,284,374,265.3z M346.7,214
		c1.6,1.6,3.3,3.3,5,5.3c17,18.9,22.8,43.7,15.6,66.3c-1.6,5.6-4.1,10.8-6.4,15.8c-0.9,1.9,2.7-8.8,4.5-14.3
		c13-40.2-18.6-73.1-19.5-73.9L346.7,214z M220.2,150.7c-3.7,7.5-9,14.3-15.6,19.4c-0.1-3.6-0.3-8.3-0.4-10.3
		c-3.6,4.1-7.7,7.4-12.1,10.5c-2.6-1.6-5.5-3.2-8.5-4.6c3.2-1.5,6.2-3,9-4.8c0.5,0.1,0.9,0.2,1.4,0.3c6.6,1.3,6.3,1.3,0.4-1.3
		c-0.1,0-0.1,0-0.2-0.1c1.4-1,2.7-2.1,4-3.4c4.6-4.5,7.1-9.7,8.5-13.6l2.7,8.9l2-1.7c6.3-5.2,9.4-11.6,10.9-17.8
		C223.2,138.5,222.9,145,220.2,150.7z M168.8,161.1c0-1.3,0-2.6-0.2-3.9c6.3,0.4,12.6,1.5,18.9,2.6c-2.6,1.4-5.3,2.7-8.3,4
		C175.8,162.6,172.2,161.6,168.8,161.1z M175.5,165.4c-2.8,1.2-5.7,2.5-8.8,4.1c1-2,1.6-4.1,1.9-6.3
		C170.9,163.9,173.2,164.7,175.5,165.4z M56.2,114.7c0.1-15.6,8.1-35.1,11.5-42.7c0.3,0.6,0.6,1.2,0.9,1.8c1.6,3.2,3.4,6.2,4.4,9.7
		c0.6-3.7-0.6-7.4-1.7-10.8c-1.2-3.4-2.6-6.7-4.2-10c-4.6-9.7-9.5-19.2-14-29c-2.9-6.4-5.9-12.9-7.7-19.6c-0.6-2.4-1.2-4.7-0.9-7.1
		C44.8,6,44.9,5.3,45.8,5c2.1-0.6,4.4-0.1,6.7,0.4c3.3,0.7,6.6,1.9,9.9,3.2c13.1,5.2,25.7,12,38.1,19c6.2,3.6,12.3,7.1,19.3,9.5
		c-2.1-2.3-4.5-4.2-6.9-6.1c3.7,0.8,7.4,1.2,9.6,0.4l2.2-0.8l-4.5-6.1c8.6-0.4,20.7,4.1,20.8,4.2l0.6,0.2l0.6-0.2
		c0.1,0,11.9-4.4,21.7-3.7l-5.1,5.6l2.5,0.9c0.9,0.3,2.1,0.5,3.4,0.5c1.8,0,3.9-0.3,5.9-0.6c-2.3,1.8-4.5,3.7-6.6,5.8
		c7-2.3,13.1-5.9,19.3-9.5c12.3-7,24.9-13.8,38.1-19c3.3-1.3,6.6-2.4,9.9-3.2c2.3-0.5,4.6-0.9,6.7-0.4c1,0.4,1.1,1,1.3,2.1
		c0.2,2.3-0.3,4.7-0.9,7.1c-1.9,6.7-4.8,13.2-7.7,19.6c-4.5,9.7-9.4,19.2-14,29c-1.5,3.2-3,6.5-4.2,10c-1.1,3.5-2.2,7.1-1.7,10.8
		c1-3.4,2.9-6.5,4.4-9.7c0.3-0.6,0.6-1.2,0.9-1.8c3.4,7.6,11.4,27.1,11.5,42.7l-13.3-14.6l3.2,8.4c0.1,0.2,8.2,22.5-6.3,37
		l-5.4-17.5l-1,8.1c0,0.1-1.3,10.1-9.1,17.7c-1.8,1.7-3.6,3.2-5.6,4.4c-10.2-3.3-23.1-5.1-32.5-0.8c3.3-0.4,6.6-0.4,9.9-0.3
		c-0.3,1.2-0.7,2.4-1.1,3.6c-3-0.3-6-0.1-8.8,0.5c2.8,0.2,5.5,0.7,8.2,1.3c-1.3,3.8-3.1,7.4-6.2,10.2c-4.7,4.3-11.4,6.1-17.7,6.4
		c-6.3-0.3-12.9-2.2-17.7-6.4c-3.1-2.8-4.9-6.4-6.2-10.2c2.7-0.6,5.4-1.1,8.2-1.3c-2.8-0.6-5.8-0.8-8.8-0.5
		c-0.4-1.2-0.7-2.4-1.1-3.6c3.3-0.1,6.6-0.1,9.9,0.3c-9.4-4.3-22.3-2.5-32.5,0.8c-2-1.3-3.8-2.7-5.6-4.4c-7.8-7.6-9.1-17.6-9.1-17.7
		l-1-8.2l-5.4,17.6c-14.5-14.5-6.4-36.8-6.3-37l3.2-8.5L56.2,114.7z M115.1,161.1c-3.5,0.5-7,1.5-10.4,2.8c-2.9-1.3-5.7-2.5-8.3-4
		c6.3-1.2,12.6-2.3,18.9-2.6C115.1,158.5,115,159.8,115.1,161.1z M115.3,163.3c0.1,0.9,0.3,1.8,0.5,2.6c0.3,1.3,0.8,2.5,1.3,3.6
		c-3.1-1.6-6-2.9-8.8-4.1C110.6,164.7,112.9,163.9,115.3,163.3z M61.5,131.9c1.4,6.3,4.5,12.8,10.9,18.1l2,1.7l2.7-8.9
		c1.4,3.9,3.9,9.1,8.5,13.6c1.3,1.3,2.6,2.4,4,3.4c-0.1,0-0.1,0-0.2,0.1c-6.1,2.7-6,2.5,0.4,1.3c0.5-0.1,0.9-0.2,1.4-0.3
		c2.8,1.9,5.8,3.4,9,4.8c-3.1,1.4-6,3-8.6,4.6c-4.4-3.1-8.6-6.4-12.2-10.5c-0.1,2.1-0.3,6.7-0.4,10.4c-6.6-5.1-11.9-11.9-15.6-19.4
		C60.8,144.9,60.5,138.2,61.5,131.9z M42.1,207.6c-2.2-34.8,11.3-53.9,16.1-59.5C61.4,158.9,71,170,80,175.6l3,1.7l0.1-3.4l0.1-5.4
		c1.5,1.2,3.1,2.3,4.7,3.4c0.2,0.1,0.4,0.3,0.7,0.4c-2.6,1.9-2.4,1.8,0.8,0.5c5,3.3,10.2,6.3,15.6,8.8c3,1.3,6,2.5,9.2,3.4
		c-1.3-1.1-2.6-2-4-2.9c-5.5-3.8-11.4-7.2-16.9-10.9c3.5-1.4,6.9-2.8,10.4-4.1c0.4,0.2,0.8,0.4,1.3,0.5c5.2,2.2,11,4.8,17.3,8.7
		l0-0.1c5.2,4.6,12.5,6.9,19.6,6.4c1.7,0.1,3.3,0.1,5.1-0.1c5.3-0.6,10.6-2.7,14.5-6.2l0,0c6.3-3.9,12.2-6.5,17.3-8.7
		c0.4-0.2,0.8-0.4,1.2-0.5c3.5,1.3,6.9,2.7,10.4,4.1c-7,4.7-14.4,8.7-21,13.9c6.3-1.8,12.3-4.6,18-8c2.3-1.4,4.7-2.8,7-4.3
		c3.3,1.4,3.4,1.3,0.8-0.5c1.8-1.2,3.6-2.5,5.3-3.9c0.1,3.3,0.2,7.4,0.2,8.8c10.2-5.5,18.1-14.6,23.2-24.9c0.7-1.4,1.2-2.9,1.6-4.4
		c4.7,5.5,18.4,24.6,16.2,59.6l-10.1-23.3l2.3,13.9c0.1,0.3,5.2,32.4-9.5,62.4l-4.5-30.9l-1.5,13.3c0,0.4-4.1,34.1-20.8,53.8
		l5.8-33.4l-5.7,12.8c-0.2,0.4-18.3,40.4-55.7,57.7l-0.2,0.1l-0.2-0.1c-37.3-17.3-55.5-57.3-55.6-57.7l-5.7-12.7l5.8,33.3
		c-16.7-19.7-20.7-53.5-20.8-53.8l-1.5-13.3l-4.5,30.9c-14.6-30-9.5-62.1-9.5-62.4l2.3-13.9L42.1,207.6z M196.2,303.5
		c14.3-13.4,21-35.8,23.9-49.2l2.5,17.2l2.5-4.4c0.1-0.2,0.3-0.5,0.4-0.7c-3.4,18.3-11.4,54.7-27.1,96.7c-15.2,40.6-17.7,85-18,92.5
		c-0.3,0.2-0.6,0.4-0.8,0.6c-0.2-0.2-0.4-0.3-0.6-0.4c-0.5-0.4-0.9-0.6-1.3-0.8c-1.9-1-3.9-1.3-5.8-0.9c-0.7,0.2-1.4,0.5-2,0.8
		c-1.7-1.8-3.6-2.7-5.7-2.7c-2.4,0-4.6,1.3-6.4,3.6c-0.4-0.2-0.7-0.3-1.1-0.4c-1-0.2-2-0.3-2.9-0.1c12.4-44.9,12.7-127.7,12.7-132.7
		c14.3-12,24-26.1,29.4-35.2l-3.4,19.8L196.2,303.5z M88,287.3c5.5,9.3,15.5,23.6,30.1,35.8c0,8.7,0.6,88.4,12.7,132.1
		c-1-0.2-2-0.1-3,0.1c-0.4,0.1-0.8,0.2-1.1,0.4c-1.8-2.3-4.1-3.6-6.4-3.6c-2.1,0-4,0.9-5.7,2.7c-0.6-0.4-1.3-0.7-2-0.8
		c-1.8-0.5-3.8-0.2-5.7,0.9c-0.4,0.2-0.9,0.5-1.4,0.8c-0.2,0.1-0.4,0.3-0.6,0.4c-0.3-0.2-0.5-0.4-0.8-0.6c-0.3-7.5-2.8-51.9-18-92.5
		c-15.6-41.8-23.9-77.9-27.5-96.4c0.1,0.2,0.2,0.3,0.3,0.5l2.5,4.4l2.5-17.2c2.8,13.3,9.5,35.8,23.8,49.2l3.8,3.5L88,287.3z
		 M63.8,454.7c-2.5-1.6-5-3.3-7.3-5.2c-8.1-6.4-15-14.2-20.5-22.9c-2.4-3.5-6.9-13.2-8.8-17l2.6,12.8l1.2,6
		c-5.2-6.4-10.2-13.4-14.9-20c0.7,3.1,1.8,8.7,2.9,13.6C9,409.8,3.5,394.2,4.4,378.5c0.4-7.3,1.9-15.1,6.3-21
		c6-8.1,16.9-10.1,26.6-9.1c5.1,0.5,10,1.4,15.4,1.9c-3.2-2.3-7.1-3.8-11.1-4.8c-7-15.9-3.2-33.3-0.4-41.9c1.2,3.7,2.8,7.3,5.2,10.5
		c-0.9-6.3-2.5-12.3-3.4-18.5c-2.2-17,0.7-34.4,6.9-50.3c0.8,3,1.8,6,3,9.1c0.6,3.8,8.2,51.4,30,109.8c2.2,6,4.2,12,5.9,18
		c-0.7-1.1-1.5-2.2-2.2-3.3c-3.6-4.8-7.2-10-12.8-12.5c1.5,2.6,3.2,5,5.1,7.3c3.6,4.6,6.8,9.4,9.7,14.4c1.2,2,2.2,4,3.3,5.9
		c6.4,27,8.2,51,8.7,59.4c-0.4-1.8-1.2-3.6-2.4-5.2c-1.5-2-3.3-3.3-4.8-3.5c-1.9-0.2-3.7,0.4-5.4,1.7c-0.5-0.4-1-0.7-1.6-0.9
		c-2-0.8-4.3-0.6-6.6,0.7c-0.2,0.1-0.3,0.2-0.5,0.2c-0.6-0.6-1.3-1.1-2.1-1.4c-2.8-1.1-6.3,0.1-9.3,3.2
		C66.3,450.1,64.9,452.3,63.8,454.7z M89.1,467.5c-0.5,2.1-0.8,4.2-0.8,6.2v0c0,0.4,0,0.8,0,1.2c0,0,0,0.1,0,0.1
		c-1.4-0.7-2.5-2.6-3.2-5.2l-0.8-3l-2.1,2.3c-2.3,2.5-4.9,3.6-6.7,2.9c-1.4-0.6-2.1-2-2.4-3.2l-0.6-2l-1.9,1
		c-0.8,0.4-1.9,0.8-2.9,0.4c-1.2-0.5-1.7-1.7-2-2.7c-0.3-1.2-0.4-2.8-0.2-4.4c0.2-1.5,0.6-3.1,1.3-4.6c0.9-2.2,2.1-4.1,3.5-5.5
		c2-2,4.1-3,5.5-2.4c0.6,0.2,1,0.7,1.4,1.3l1,1.8l1.6-1.3c0.5-0.4,0.9-0.7,1.4-0.9c1-0.5,2.4-1.1,3.7-0.5c0.5,0.2,1,0.6,1.4,1.1
		l1.2,1.7l1.4-1.5c0.9-1,2.3-2.1,3.7-1.9c1,0.2,4.4,3.6,4.4,7.3c-1.4,0.7-2.7,1.8-3.9,3.3c0,0,0,0,0,0c-0.2,0.2-0.4,0.5-0.6,0.8
		C91.1,461.8,89.9,464.6,89.1,467.5z M138.7,483.7c-0.7,1.3-1.7,2-2.8,2.3c-2.2,0.6-4.9-1.1-7.2-4.3l-2.3-6.9l-1.2,7.6
		c-1.4,2.6-3.1,4.1-4.9,4.1c-1.9,0-3.8-1.8-5.3-4.9h0.1l-1.7-6.8l-2.2,6.3c-2.2,2.7-4.7,4.1-6.7,3.6c-1.4-0.4-2.3-1.5-2.9-2.6
		l-0.4-6.8l-3.1,5.8c-0.8,0.4-1.7,0.7-2.7,0.5c-1.4-0.4-2.3-1.8-2.7-2.9c-0.2-0.6-0.4-1.3-0.6-2c-0.2-0.9-0.3-1.9-0.3-3
		c0-0.2,0-0.5,0-0.8c0-0.2,0-0.4,0-0.6c0-0.2,0-0.5,0.1-0.7c0-0.2,0-0.4,0.1-0.7c0-0.2,0.1-0.3,0.1-0.5c0-0.3,0.1-0.5,0.1-0.8
		c0.1-0.4,0.2-0.9,0.3-1.3c0.7-2.5,1.7-4.9,3.1-6.7c1.4-2,3-2.9,3.6-3.2c0.8-0.4,1.6-0.5,2.4-0.3c0.7,0.2,1.4,0.6,1.9,1.4l1.2,1.6
		l1.4-1.4c0.5-0.5,0.9-0.9,1.4-1.2c0.4-0.3,0.7-0.4,1-0.6c1.2-0.6,2.4-1.1,3.3-0.6c1.8,1,2.9,6.1,2.9,6.1s1.3-7.9,5.6-7.9
		c3.9,0,6.1,8.3,6.1,8.3s1.1-4.7,2.3-5.2c3.3-1.2,8.6,3.7,10.7,11.9C140.8,475.6,140.5,480.7,138.7,483.7z M142.2,467.8
		c-1.6-4.9-4.3-8.7-7.3-10.9c-11.9-39.7-13.2-114.1-13.4-131.1c5.6,4.3,11.8,8.2,18.7,11.4l1.7,0.8l1.7-0.8
		c7.1-3.3,13.6-7.4,19.3-11.9c-0.1,16-1.4,91.5-13.4,131.6C146.5,459.1,143.8,463,142.2,467.8z M192.7,473.8c0,1.1-0.1,2.1-0.3,3
		c-0.1,0.7-0.3,1.4-0.6,2c-0.5,1.1-1.3,2.5-2.8,2.9c-1,0.2-1.9-0.1-2.7-0.5l-3.1-5.8l-0.4,6.8c-0.6,1.1-1.5,2.2-2.9,2.6
		c-2,0.5-4.5-0.8-6.7-3.6l-2.2-6.3l-1.7,6.8h0.1c-1.4,3.1-3.3,4.9-5.3,4.9c-1.7,0-3.5-1.5-4.9-4.1l-1.2-7.6l-2.3,6.9
		c-2.3,3.2-5,4.8-7.2,4.3c-1.1-0.3-2-1.1-2.8-2.3c-1.8-3-2.1-8.1-0.8-13.2c2.2-8.2,7.3-12.7,10.7-11.9c1.5,0.3,2.3,5.2,2.3,5.2
		s1.4-8.3,6.1-8.3c3.9,0,5.6,7.9,5.6,7.9s0.6-5.1,2.9-6.1c0.9-0.4,2.1-0.1,3.3,0.6c0.3,0.1,0.6,0.3,1,0.6c0.5,0.3,1,0.7,1.4,1.2
		l1.4,1.4l1.2-1.6c0.5-0.7,1.2-1.2,1.9-1.4c0.7-0.2,1.5-0.1,2.4,0.3c0.7,0.3,2.2,1.2,3.6,3.2c1.4,1.9,2.4,4.2,3.1,6.7
		C192.5,470.2,192.7,472,192.7,473.8L192.7,473.8z M218.7,465.4c-0.3,1-0.8,2.3-2,2.7c-1,0.4-2.1,0-2.9-0.4l-1.9-1l-0.6,2
		c-0.3,1.1-1,2.6-2.4,3.2c-1.8,0.7-4.3-0.4-6.7-2.9l-2.1-2.3l-0.8,3c-0.7,2.6-1.8,4.5-3.2,5.2v-0.1c0-0.4,0-0.8,0-1.2v0
		c0-2.1-0.3-4.2-0.8-6.2c-0.8-2.9-2-5.7-3.7-7.9c-0.2-0.3-0.4-0.5-0.6-0.8c0,0,0,0,0,0c-1.2-1.4-2.5-2.5-3.9-3.2
		c0-3.7,3.4-7.1,4.4-7.3c1.5-0.2,2.9,0.9,3.7,1.9l1.4,1.5l1.2-1.7c0.4-0.5,0.9-0.9,1.4-1.1c1.3-0.5,2.8,0,3.8,0.6
		c0.4,0.2,0.9,0.5,1.4,0.9l1.6,1.3l1-1.8c0.4-0.7,0.8-1.1,1.4-1.4c1.4-0.6,3.6,0.3,5.5,2.4c1.4,1.5,2.6,3.4,3.5,5.6
		c0.6,1.5,1.1,3.1,1.3,4.6C219,462.6,219,464.1,218.7,465.4z M216.6,448.4c-3-3.1-6.5-4.3-9.3-3.2c-0.8,0.3-1.5,0.8-2.1,1.4
		c-0.1-0.1-0.3-0.2-0.4-0.2c-2.3-1.3-4.6-1.5-6.7-0.7c-0.6,0.2-1.1,0.5-1.6,0.9c-1.7-1.4-3.6-2-5.4-1.7c-1.5,0.2-3.2,1.5-4.8,3.5
		c-1.2,1.6-2,3.4-2.4,5.2c0.5-8.5,2.3-33.2,9-60.7c0.9-1.6,1.7-3.1,2.6-4.7c2.9-5,6.1-9.9,9.7-14.4c1.8-2.3,3.6-4.7,5.1-7.3
		c-5.6,2.5-9.2,7.8-12.8,12.5c-0.5,0.7-1,1.5-1.5,2.2c1.6-5.6,3.5-11.3,5.6-16.9c21.4-57.4,28.5-104.3,29.3-109.6
		c1.2-3.2,2.3-6.3,3.1-9.4c1.7,4.4,3.1,8.9,4.3,13.5c3.2,12.8,4.4,26.2,2.2,39.2c-0.9,5.5-2.2,10.7-3,16.2c2.4-3.2,4-6.7,5.2-10.5
		c2.7,8.6,6.6,26.2-0.5,42.1c-3.8,0.9-7.4,2.4-10.4,4.6c5.3-0.5,10.3-1.4,15.4-1.9c9.7-1.1,20.5,0.9,26.6,9.1c4.4,5.8,6,13.7,6.3,21
		c1,15.7-4.6,31.3-14.4,43.5c1-4.8,2.2-10.4,2.9-13.6c-4.8,6.6-9.7,13.6-14.9,20l1.2-6l2.6-12.8c-2,3.8-6.5,13.6-8.8,17
		c-5.5,8.7-12.4,16.5-20.5,22.9c-2.3,1.8-4.8,3.6-7.3,5.2C219.6,452.3,218.2,450.1,216.6,448.4z M352.5,359.1
		c-4.2,14.7-13.5,27.8-26.9,35.3c-5.1,2.8-10.4,5-15.5,7.8c4.6,0,9.2-1.1,13.5-2.8c2.5-1.1,4.9-2.3,7.2-3.8
		c-2.4,7.3-8.3,21.9-19.8,35.5c-21.3,25.3-51.1,35.7-88.4,31.2c0-0.6-0.1-1.2-0.1-1.8c-0.1-0.8-0.3-1.6-0.5-2.4
		c6.5-4,12.5-8.9,17.8-14.4c3.6-3.8,6.9-7.8,9.8-12.1l-0.6,2.8l-1.2,6.3l4.2-4.8c3.5-4,6.8-8.1,9.9-12.3c-0.8,3.6-1.6,7.3-1.9,9.1
		c9.8-7.9,17.3-18.4,21.3-30.4c2.6-7.7,3.7-15.9,3.2-24c-0.5-14.1-6.4-28.5-21.3-32.4c-5.2-1.3-11.1-1.7-16.8-0.9
		c3.5-9.1,4-18.5,3.1-26.5c9.1-11.8,23.6-16.7,31.7-18.5c-2.5,6.4-4,13.2-3.1,20c1.9-6.3,3.8-12.4,6.2-18.5
		c4-9.5,10.3-18.2,18.4-24.6c5.7-4.5,12.3-7.8,19.2-10.1c-2.5,5.9-3.9,12.1-1.7,16.4c0.4-0.8,0.7-1.5,1-2.3c1.5-2.1,4.7-6.2,8.4-9.1
		c5.1-4,10.7-5.7,10.7-5.7c2.7,7.9-1.6,17.2-6.2,24.3c-4.5,7.1-11.2,12.5-18.1,17.2c5.8-0.2,11.9-0.1,17.3-2.3
		c9.9-4,10.2-12.2,10.2-12.2c1.8,16.6-26.2,26-34.7,35c-11.9,12.6-11.9,26.3-11.9,26.3c9.7-12.9,26.4-14.7,41.2-16.4
		c0.3,6.9-5.2,15.6-12.3,21.5c9.8-2.5,18.6-7.8,26.7-13.7c0.7-0.5,2.1-1.6,3.2-2.5C355,348.6,354,354,352.5,359.1z M353.2,340.8
		c1.3-1.2,22.4-21.5,22.5-45.9c0-9.7-2.4-23.6-2.4-23.6l0.5,1.4c2.5,6.8,3.7,14.2,3.7,21.4C377.3,316,364.2,331.6,353.2,340.8z
		 M268,453.6c-6.8,2.6-13.8,4.1-20.6,6.8c7.4,0.7,14.7-1.6,21.6-3.9c17-5.7,33-15.9,43.4-30.7c2.4-3.4,4.3-7.2,5.2-11.3
		c-2.4,2.9-4.4,5.8-6.6,8.7C300.5,437.6,284.6,447.3,268,453.6z M310.5,276.8c1.7-1.3,3.4-2.6,5.1-4.3c-7.7,0.7-16.7,10.4-21.2,16.4
		c-2.7,3.7-5,7.6-7.1,11.6c-2.1,4-4,8.2-4.3,12.8c2.8-3.6,4.7-7.5,6.9-11.4C295.4,292.5,301.8,283.4,310.5,276.8z M272.2,368.5
		c1.9,5.9,2.2,12.2,2,18.4c-0.1,3.9-0.7,7.7,0.1,11.5c2.7-4.7,2.7-10,3-15.3c0.2-7.8-0.9-16.3-5.6-22.9c-4.6-6.4-13.5-11.1-21.3-8.2
		c3.8,0.8,7.3,1.5,10.7,3C266.7,357.6,270.4,362.8,272.2,368.5z M238.7,191.6c1-6-0.7-12-2.3-17.6c-0.9-2.8-2-5.6-3.1-8.3
		c-1.1-2.7-2.4-5.4-4.5-7.8c0.5,5.3,3.2,11.9,4.6,17C235.3,180.4,236.7,186.1,238.7,191.6z M231.1,206.7c-1.8,6.4-2.2,12.9-2.8,19.4
		c-0.4,6.4-1,13.1-1.7,19.5c2.7-6,3.8-12.7,4.7-19.2C232,219.8,232.4,213.2,231.1,206.7z M206.1,27.4c5.1-2.9,14.9-9,20.7-8.4
		c0,0.6-0.1,1.6-0.3,2.2c-0.8,3.1-2.2,6.1-3.6,9.1c-3.9,8.1-8.2,16.1-12,24.3c-1,2.1-2,4.1-2.6,6.4c-0.6,2.3-1.2,4.8-0.4,7.1
		c2-4,4.3-7.8,6.2-11.9c4.2-8,8.9-15.8,12.9-24c1.7-4,7.6-13.9,2.7-17.2c-6.7-3.5-20,5.1-25.8,8.6c-3.9,2.5-7.6,5.1-11.3,7.7
		c-3.7,2.6-7.3,5.5-9.7,9.8c4.7-1.3,8.4-3.8,12.1-6.4C198.5,32.1,202.2,29.7,206.1,27.4z M169.9,99.6c-8.2,4.3-10.5,14.7-10.6,15.1
		l-0.3,1.6l1.6-0.4c0,0,1.9-0.5,5.2-0.1c0.6,0.1,1.2,0.1,1.8,0.2c1.4,0.2,2.9,0.4,4.4,0.4c2,0,4-0.3,5.9-1.3
		c3.7-1.9,5.6-5.6,7.1-8.6c0.3-0.5,0.5-1,0.8-1.5c1.5-2.8,3-4.3,3.1-4.4l1.2-1.2l-1.6-0.5C188.1,98.8,178.1,95.3,169.9,99.6z
		 M179.6,99.6c-0.3,0-0.6,0-0.9,0C179,99.6,179.3,99.6,179.6,99.6z M163.6,113.6c-0.7,0-1.3,0-1.8,0.1c0.3-0.9,0.7-2.1,1.3-3.4
		c0,0.1,0.1,0.1,0.1,0.2c0.7,1.3,1.5,2.3,2.6,3.2C165,113.7,164.2,113.6,163.6,113.6z M176.4,113.1c-2,1-4.3,1.2-6.4,0.6
		c-2.1-0.7-3.9-2.1-4.9-4.1c-0.3-0.5-0.5-1.1-0.6-1.7c0.5-0.9,1.1-1.7,1.8-2.6c-0.1,1.2,0.2,2.5,0.9,3.6c1.8,2.9,5.7,3.9,8.7,2
		c0.2-0.1,0.3-0.2,0.5-0.3c-1-0.2-1.9-0.8-2.5-1.8c-1.1-1.8-0.6-4.2,1.3-5.4c1-0.6,2.1-0.7,3.1-0.4c-0.1-0.2-0.2-0.5-0.4-0.7
		c-0.7-1.1-1.6-1.9-2.7-2.4c1.1-0.2,2.1-0.3,3.1-0.4c0.6,0.6,1.2,1.3,1.6,2.2C182.1,105.9,180.5,111,176.4,113.1z M184,104
		c-0.3,0.5-0.5,1-0.8,1.5c-0.1,0.2-0.2,0.4-0.3,0.6c0.1-1.8-0.3-3.7-1.2-5.3c-0.2-0.4-0.5-0.8-0.7-1.2c2.2,0.1,4.1,0.5,5.3,0.8
		C185.7,101.3,184.9,102.5,184,104z M163.7,92c6.3-5,11.2-11.2,17.7-16C173.7,76.9,166.4,85.1,163.7,92z M172.4,69
		c-8.7,4.9-13.9,18.2-14.8,27.7c0.7-1.2,1.3-2.4,1.8-3.6C163.5,85,166.9,76.4,172.4,69z M136,170.9c3-0.1,4.9-2,5.9-4.5
		c1,2.5,3,4.4,6,4.5c2.5,0.1,4.9-0.9,6.6-2.3c1.6-1.5,3-3.6,2.8-5.8c-2.2,2.7-5.6,5-9.1,4.7c-3.3-0.6-3.4-4.7-3.6-7.5
		c18.4-14.9,1.3-16.6-2.3-16.8v0c0,0-0.1,0-0.4,0c-0.2,0-0.4,0-0.4,0v0c-3.6,0.2-20.7,1.9-2.3,16.8c-0.1,3.9-0.9,8.7-5.9,7.4
		c-2.6-0.7-5-2.3-6.8-4.5C126.5,167.5,131.3,171,136,170.9z M152.9,158.6c0.6,0.6,1.5,0.6,2,0c0.6-0.6,0.6-1.5,0-2
		c-0.6-0.6-1.5-0.6-2,0C152.4,157.1,152.4,158,152.9,158.6z M151,160.6c-0.6,0.6-0.6,1.5,0,2c0.6,0.6,1.5,0.5,2,0
		c0.6-0.6,0.5-1.5,0-2C152.5,160,151.6,160,151,160.6z M130.8,162.6c0.6,0.6,1.5,0.6,2,0c0.6-0.6,0.6-1.5,0-2c-0.6-0.6-1.5-0.6-2,0
		C130.2,161.1,130.2,162,130.8,162.6z M130.9,158.6c0.6-0.6,0.6-1.5,0-2c-0.6-0.6-1.5-0.6-2,0c-0.6,0.6-0.6,1.5,0,2
		C129.5,159.1,130.4,159.1,130.9,158.6z M113.9,99.6c-8.2-4.3-18.2-0.9-18.6-0.7l-1.6,0.5l1.2,1.2c0,0,1.6,1.6,3.1,4.4
		c0.2,0.5,0.5,1,0.8,1.5c1.5,3,3.4,6.7,7.1,8.6c2,1,4,1.3,5.9,1.3c1.5,0,3-0.2,4.4-0.4c0.6-0.1,1.2-0.2,1.8-0.2
		c3.3-0.3,5.2,0.1,5.2,0.1l1.6,0.4l-0.3-1.6C124.4,114.3,122.1,103.9,113.9,99.6z M102.1,100.8c-0.9,1.7-1.3,3.5-1.2,5.3
		c-0.1-0.2-0.2-0.4-0.3-0.6c-0.3-0.5-0.5-1-0.8-1.5c-0.8-1.5-1.7-2.7-2.3-3.5c1.2-0.3,3.1-0.7,5.3-0.8
		C102.5,100,102.3,100.4,102.1,100.8z M105.1,99.6c-0.3,0-0.6,0-0.9,0C104.5,99.6,104.8,99.6,105.1,99.6z M113.9,113.7
		c-2.1,0.7-4.4,0.5-6.4-0.6c-4.1-2.1-5.7-7.2-3.6-11.3c0.4-0.8,1-1.5,1.6-2.2c1,0,2.1,0.2,3.1,0.4c-1.1,0.5-2,1.3-2.7,2.4
		c-0.1,0.2-0.3,0.5-0.4,0.7c1-0.3,2.2-0.2,3.1,0.4c1.8,1.1,2.4,3.6,1.3,5.4c-0.6,0.9-1.5,1.5-2.5,1.8c0.2,0.1,0.3,0.2,0.5,0.3
		c2.9,1.8,6.8,0.9,8.6-2c0.7-1.1,1-2.4,0.9-3.6c0.7,0.8,1.3,1.7,1.8,2.6c-0.2,0.6-0.4,1.1-0.6,1.6C117.8,111.5,116,113,113.9,113.7z
		 M118.1,113.7c1.1-0.9,1.9-2,2.6-3.2c0-0.1,0.1-0.1,0.1-0.2c0.6,1.3,1,2.5,1.3,3.4C121.1,113.6,119.7,113.6,118.1,113.7z
		 M126.2,96.8c-0.9-9.6-6.1-22.8-14.8-27.7c5.6,7.3,8.9,16,13,24.2C124.9,94.4,125.5,95.6,126.2,96.8z M102.4,76
		c6.5,4.8,11.4,11,17.7,16C117.4,85.1,110.1,76.9,102.4,76z M75.6,60.9C75,58.7,74,56.6,73,54.6c-3.9-8.2-8.2-16.2-12-24.3
		c-1.4-3-2.7-6-3.6-9.1c-0.2-0.6-0.3-1.6-0.3-2.2c5.7-0.6,15.6,5.5,20.7,8.4c3.8,2.3,7.6,4.8,11.3,7.3c3.7,2.6,7.4,5.1,12.1,6.4
		c-2.4-4.3-6-7.1-9.7-9.8c-3.7-2.7-7.5-5.3-11.3-7.7C74.3,20.1,61,11.5,54.3,15c-4.9,3.3,0.9,13.2,2.7,17.2c4,8.2,8.7,15.9,12.9,24
		c1.9,4.1,4.2,7.8,6.2,11.9C76.8,65.7,76.3,63.2,75.6,60.9z M52.9,226.4c0.9,6.5,2,13.1,4.7,19.2c-0.7-6.4-1.3-13-1.7-19.5
		c-0.6-6.5-1-13-2.8-19.4C51.8,213.2,52.1,219.8,52.9,226.4z M50.9,165.6c-1.2,2.7-2.2,5.5-3.1,8.3c-1.6,5.7-3.3,11.7-2.3,17.6
		c2-5.5,3.5-11.2,5.3-16.7c1.4-5,4.1-11.8,4.6-17C53.3,160.2,52,162.9,50.9,165.6z M12.4,360.2c-4.7,6.6-5.8,15.1-5.6,22.9
		c0.2,5.2,0.3,10.6,3,15.3c0.8-3.9,0.2-7.7,0.1-11.5c-0.2-6.2,0.1-12.5,2-18.4c1.8-5.7,5.5-11,11-13.5c3.5-1.5,6.9-2.2,10.7-3
		C25.9,349.1,17,353.8,12.4,360.2z M91.4,31.3c-3.7-2.7-7.5-5.3-11.3-7.7C74.3,20.1,61,11.5,54.3,15c-4.9,3.3,0.9,13.2,2.7,17.2
		c4,8.2,8.7,15.9,12.9,24c1.9,4.1,4.2,7.8,6.2,11.9c0.7-2.3,0.2-4.8-0.4-7.1C75,58.7,74,56.6,73,54.6c-3.9-8.2-8.2-16.2-12-24.3
		c-1.4-3-2.7-6-3.6-9.1c-0.2-0.6-0.3-1.6-0.3-2.2c5.7-0.6,15.6,5.5,20.7,8.4c3.8,2.3,7.6,4.8,11.3,7.3c3.7,2.6,7.4,5.1,12.1,6.4
		C98.7,36.8,95.1,34,91.4,31.3z M102.4,76c6.5,4.8,11.4,11,17.7,16C117.4,85.1,110.1,76.9,102.4,76z M111.4,69
		c5.6,7.3,8.9,16,13,24.2c0.6,1.2,1.1,2.4,1.8,3.6C125.3,87.2,120.1,74,111.4,69z M124.5,114.7c-0.1-0.4-2.4-10.8-10.6-15.1
		c-8.2-4.3-18.2-0.9-18.6-0.7l-1.6,0.5l1.2,1.2c0,0,1.6,1.6,3.1,4.4c0.2,0.5,0.5,1,0.8,1.5c1.5,3,3.4,6.7,7.1,8.6c2,1,4,1.3,5.9,1.3
		c1.5,0,3-0.2,4.4-0.4c0.6-0.1,1.2-0.2,1.8-0.2c3.3-0.3,5.2,0.1,5.2,0.1l1.6,0.4L124.5,114.7z M102.1,100.8
		c-0.9,1.7-1.3,3.5-1.2,5.3c-0.1-0.2-0.2-0.4-0.3-0.6c-0.3-0.5-0.5-1-0.8-1.5c-0.8-1.5-1.7-2.7-2.3-3.5c1.2-0.3,3.1-0.7,5.3-0.8
		C102.5,100,102.3,100.4,102.1,100.8z M105.1,99.6c-0.3,0-0.6,0-0.9,0C104.5,99.6,104.8,99.6,105.1,99.6z M113.9,113.7
		c-2.1,0.7-4.4,0.5-6.4-0.6c-4.1-2.1-5.7-7.2-3.6-11.3c0.4-0.8,1-1.5,1.6-2.2c1,0,2.1,0.2,3.1,0.4c-1.1,0.5-2,1.3-2.7,2.4
		c-0.1,0.2-0.3,0.5-0.4,0.7c1-0.3,2.2-0.2,3.1,0.4c1.8,1.1,2.4,3.6,1.3,5.4c-0.6,0.9-1.5,1.5-2.5,1.8c0.2,0.1,0.3,0.2,0.5,0.3
		c2.9,1.8,6.8,0.9,8.6-2c0.7-1.1,1-2.4,0.9-3.6c0.7,0.8,1.3,1.7,1.8,2.6c-0.2,0.6-0.4,1.1-0.6,1.6C117.8,111.5,116,113,113.9,113.7z
		 M118.1,113.7c1.1-0.9,1.9-2,2.6-3.2c0-0.1,0.1-0.1,0.1-0.2c0.6,1.3,1,2.5,1.3,3.4C121.1,113.6,119.7,113.6,118.1,113.7z
		 M130.9,156.5c-0.6-0.6-1.5-0.6-2,0c-0.6,0.6-0.6,1.5,0,2c0.6,0.6,1.5,0.6,2,0C131.5,158,131.5,157.1,130.9,156.5z M132.8,160.6
		c-0.6-0.6-1.5-0.6-2,0c-0.6,0.6-0.6,1.5,0,2c0.6,0.6,1.5,0.6,2,0C133.4,162,133.4,161.1,132.8,160.6z M153,160.6
		c-0.6-0.6-1.5-0.6-2,0c-0.6,0.6-0.6,1.5,0,2c0.6,0.6,1.5,0.5,2,0C153.6,162,153.6,161.1,153,160.6z M154.9,156.5
		c-0.6-0.6-1.5-0.6-2,0c-0.6,0.6-0.6,1.5,0,2c0.6,0.6,1.5,0.6,2,0C155.5,158,155.5,157.1,154.9,156.5z M148.2,167.4
		c-3.3-0.6-3.4-4.7-3.6-7.5c18.4-14.9,1.3-16.6-2.3-16.8v0c0,0-0.1,0-0.4,0c-0.2,0-0.4,0-0.4,0v0c-3.6,0.2-20.7,1.9-2.3,16.8
		c-0.1,3.9-0.9,8.7-5.9,7.4c-2.6-0.7-5-2.3-6.8-4.5c0,4.7,4.7,8.3,9.4,8.1c3-0.1,4.9-2,5.9-4.5c1,2.5,3,4.4,6,4.5
		c2.5,0.1,4.9-0.9,6.6-2.3c1.6-1.5,3-3.6,2.8-5.8C155.1,165.4,151.6,167.8,148.2,167.4z M157.6,96.8c0.7-1.2,1.3-2.4,1.8-3.6
		c4.1-8.2,7.4-16.8,13-24.2C163.7,74,158.5,87.2,157.6,96.8z M163.7,92c6.3-5,11.2-11.2,17.7-16C173.7,76.9,166.4,85.1,163.7,92z
		 M188.5,98.9c-0.4-0.2-10.4-3.6-18.6,0.7c-8.2,4.3-10.5,14.7-10.6,15.1l-0.3,1.6l1.6-0.4c0,0,1.9-0.5,5.2-0.1
		c0.6,0.1,1.2,0.1,1.8,0.2c1.4,0.2,2.9,0.4,4.4,0.4c2,0,4-0.3,5.9-1.3c3.7-1.9,5.6-5.6,7.1-8.6c0.3-0.5,0.5-1,0.8-1.5
		c1.5-2.8,3-4.3,3.1-4.4l1.2-1.2L188.5,98.9z M179.6,99.6c-0.3,0-0.6,0-0.9,0C179,99.6,179.3,99.6,179.6,99.6z M163.6,113.6
		c-0.7,0-1.3,0-1.8,0.1c0.3-0.9,0.7-2.1,1.3-3.4c0,0.1,0.1,0.1,0.1,0.2c0.7,1.3,1.5,2.3,2.6,3.2C165,113.7,164.2,113.6,163.6,113.6z
		 M176.4,113.1c-2,1-4.3,1.2-6.4,0.6c-2.1-0.7-3.9-2.1-4.9-4.1c-0.3-0.5-0.5-1.1-0.6-1.7c0.5-0.9,1.1-1.7,1.8-2.6
		c-0.1,1.2,0.2,2.5,0.9,3.6c1.8,2.9,5.7,3.9,8.7,2c0.2-0.1,0.3-0.2,0.5-0.3c-1-0.2-1.9-0.8-2.5-1.8c-1.1-1.8-0.6-4.2,1.3-5.4
		c1-0.6,2.1-0.7,3.1-0.4c-0.1-0.2-0.2-0.5-0.4-0.7c-0.7-1.1-1.6-1.9-2.7-2.4c1.1-0.2,2.1-0.3,3.1-0.4c0.6,0.6,1.2,1.3,1.6,2.2
		C182.1,105.9,180.5,111,176.4,113.1z M184,104c-0.3,0.5-0.5,1-0.8,1.5c-0.1,0.2-0.2,0.4-0.3,0.6c0.1-1.8-0.3-3.7-1.2-5.3
		c-0.2-0.4-0.5-0.8-0.7-1.2c2.2,0.1,4.1,0.5,5.3,0.8C185.7,101.3,184.9,102.5,184,104z M229.5,15c-6.7-3.5-20,5.1-25.8,8.6
		c-3.9,2.5-7.6,5.1-11.3,7.7c-3.7,2.6-7.3,5.5-9.7,9.8c4.7-1.3,8.4-3.8,12.1-6.4c3.7-2.5,7.5-5,11.3-7.3c5.1-2.9,14.9-9,20.7-8.4
		c0,0.6-0.1,1.6-0.3,2.2c-0.8,3.1-2.2,6.1-3.6,9.1c-3.9,8.1-8.2,16.1-12,24.3c-1,2.1-2,4.1-2.6,6.4c-0.6,2.3-1.2,4.8-0.4,7.1
		c2-4,4.3-7.8,6.2-11.9c4.2-8,8.9-15.8,12.9-24C228.6,28.2,234.4,18.3,229.5,15z M50.9,165.6c-1.2,2.7-2.2,5.5-3.1,8.3
		c-1.6,5.7-3.3,11.7-2.3,17.6c2-5.5,3.5-11.2,5.3-16.7c1.4-5,4.1-11.8,4.6-17C53.3,160.2,52,162.9,50.9,165.6z M55.8,226.1
		c-0.6-6.5-1-13-2.8-19.4c-1.3,6.6-1,13.2-0.2,19.7c0.9,6.5,2,13.1,4.7,19.2C56.8,239.1,56.3,232.5,55.8,226.1z M231.1,206.7
		c-1.8,6.4-2.2,12.9-2.8,19.4c-0.4,6.4-1,13.1-1.7,19.5c2.7-6,3.8-12.7,4.7-19.2C232,219.8,232.4,213.2,231.1,206.7z M236.4,173.9
		c-0.9-2.8-2-5.6-3.1-8.3c-1.1-2.7-2.4-5.4-4.5-7.8c0.5,5.3,3.2,11.9,4.6,17c1.8,5.5,3.2,11.3,5.3,16.7
		C239.7,185.6,238.1,179.6,236.4,173.9z M12.4,360.2c-4.7,6.6-5.8,15.1-5.6,22.9c0.2,5.2,0.3,10.6,3,15.3c0.8-3.9,0.2-7.7,0.1-11.5
		c-0.2-6.2,0.1-12.5,2-18.4c1.8-5.7,5.5-11,11-13.5c3.5-1.5,6.9-2.2,10.7-3C25.9,349.1,17,353.8,12.4,360.2z M271.7,360.2
		c-4.6-6.4-13.5-11.1-21.3-8.2c3.8,0.8,7.3,1.5,10.7,3c5.5,2.5,9.3,7.8,11,13.5c1.9,5.9,2.2,12.2,2,18.4c-0.1,3.9-0.7,7.7,0.1,11.5
		c2.7-4.7,2.7-10,3-15.3C277.5,375.4,276.4,366.9,271.7,360.2z M294.4,288.9c-2.7,3.7-5,7.6-7.1,11.6c-2.1,4-4,8.2-4.3,12.8
		c2.8-3.6,4.7-7.5,6.9-11.4c5.5-9.4,11.8-18.5,20.6-25.1c1.7-1.3,3.4-2.6,5.1-4.3C307.8,273.2,298.9,282.9,294.4,288.9z M311,423
		c-10.5,14.6-26.4,24.3-43,30.6c-6.8,2.6-13.8,4.1-20.6,6.8c7.4,0.7,14.7-1.6,21.6-3.9c17-5.7,33-15.9,43.4-30.7
		c2.4-3.4,4.3-7.2,5.2-11.3C315.2,417.2,313.2,420.2,311,423z M311,423c-10.5,14.6-26.4,24.3-43,30.6c-6.8,2.6-13.8,4.1-20.6,6.8
		c7.4,0.7,14.7-1.6,21.6-3.9c17-5.7,33-15.9,43.4-30.7c2.4-3.4,4.3-7.2,5.2-11.3C315.2,417.2,313.2,420.2,311,423z M294.4,288.9
		c-2.7,3.7-5,7.6-7.1,11.6c-2.1,4-4,8.2-4.3,12.8c2.8-3.6,4.7-7.5,6.9-11.4c5.5-9.4,11.8-18.5,20.6-25.1c1.7-1.3,3.4-2.6,5.1-4.3
		C307.8,273.2,298.9,282.9,294.4,288.9z M124.5,114.7c-0.1-0.4-2.4-10.8-10.6-15.1c-8.2-4.3-18.2-0.9-18.6-0.7l-1.6,0.5l1.2,1.2
		c0,0,1.6,1.6,3.1,4.4c0.2,0.5,0.5,1,0.8,1.5c1.5,3,3.4,6.7,7.1,8.6c2,1,4,1.3,5.9,1.3c1.5,0,3-0.2,4.4-0.4c0.6-0.1,1.2-0.2,1.8-0.2
		c3.3-0.3,5.2,0.1,5.2,0.1l1.6,0.4L124.5,114.7z M102.1,100.8c-0.9,1.7-1.3,3.5-1.2,5.3c-0.1-0.2-0.2-0.4-0.3-0.6
		c-0.3-0.5-0.5-1-0.8-1.5c-0.8-1.5-1.7-2.7-2.3-3.5c1.2-0.3,3.1-0.7,5.3-0.8C102.5,100,102.3,100.4,102.1,100.8z M105.1,99.6
		c-0.3,0-0.6,0-0.9,0C104.5,99.6,104.8,99.6,105.1,99.6z M113.9,113.7c-2.1,0.7-4.4,0.5-6.4-0.6c-4.1-2.1-5.7-7.2-3.6-11.3
		c0.4-0.8,1-1.5,1.6-2.2c1,0,2.1,0.2,3.1,0.4c-1.1,0.5-2,1.3-2.7,2.4c-0.1,0.2-0.3,0.5-0.4,0.7c1-0.3,2.2-0.2,3.1,0.4
		c1.8,1.1,2.4,3.6,1.3,5.4c-0.6,0.9-1.5,1.5-2.5,1.8c0.2,0.1,0.3,0.2,0.5,0.3c2.9,1.8,6.8,0.9,8.6-2c0.7-1.1,1-2.4,0.9-3.6
		c0.7,0.8,1.3,1.7,1.8,2.6c-0.2,0.6-0.4,1.1-0.6,1.6C117.8,111.5,116,113,113.9,113.7z M118.1,113.7c1.1-0.9,1.9-2,2.6-3.2
		c0-0.1,0.1-0.1,0.1-0.2c0.6,1.3,1,2.5,1.3,3.4C121.1,113.6,119.7,113.6,118.1,113.7z M111.4,69c5.6,7.3,8.9,16,13,24.2
		c0.6,1.2,1.1,2.4,1.8,3.6C125.3,87.2,120.1,74,111.4,69z M102.4,76c6.5,4.8,11.4,11,17.7,16C117.4,85.1,110.1,76.9,102.4,76z
		 M148.2,167.4c-3.3-0.6-3.4-4.7-3.6-7.5c18.4-14.9,1.3-16.6-2.3-16.8v0c0,0-0.1,0-0.4,0c-0.2,0-0.4,0-0.4,0v0
		c-3.6,0.2-20.7,1.9-2.3,16.8c-0.1,3.9-0.9,8.7-5.9,7.4c-2.6-0.7-5-2.3-6.8-4.5c0,4.7,4.7,8.3,9.4,8.1c3-0.1,4.9-2,5.9-4.5
		c1,2.5,3,4.4,6,4.5c2.5,0.1,4.9-0.9,6.6-2.3c1.6-1.5,3-3.6,2.8-5.8C155.1,165.4,151.6,167.8,148.2,167.4z M91.4,31.3
		c-3.7-2.7-7.5-5.3-11.3-7.7C74.3,20.1,61,11.5,54.3,15c-4.9,3.3,0.9,13.2,2.7,17.2c4,8.2,8.7,15.9,12.9,24
		c1.9,4.1,4.2,7.8,6.2,11.9c0.7-2.3,0.2-4.8-0.4-7.1C75,58.7,74,56.6,73,54.6c-3.9-8.2-8.2-16.2-12-24.3c-1.4-3-2.7-6-3.6-9.1
		c-0.2-0.6-0.3-1.6-0.3-2.2c5.7-0.6,15.6,5.5,20.7,8.4c3.8,2.3,7.6,4.8,11.3,7.3c3.7,2.6,7.4,5.1,12.1,6.4
		C98.7,36.8,95.1,34,91.4,31.3z M231.1,206.7c-1.8,6.4-2.2,12.9-2.8,19.4c-0.4,6.4-1,13.1-1.7,19.5c2.7-6,3.8-12.7,4.7-19.2
		C232,219.8,232.4,213.2,231.1,206.7z M236.4,173.9c-0.9-2.8-2-5.6-3.1-8.3c-1.1-2.7-2.4-5.4-4.5-7.8c0.5,5.3,3.2,11.9,4.6,17
		c1.8,5.5,3.2,11.3,5.3,16.7C239.7,185.6,238.1,179.6,236.4,173.9z"/>
</g>
</svg>
