<?xml version="1.0" encoding="utf-8"?>
<!-- Generator: Adobe Illustrator 28.3.0, SVG Export Plug-In . SVG Version: 6.00 Build 0)  -->
<svg version="1.1" id="crocodile" xmlns="http://www.w3.org/2000/svg" xmlns:xlink="http://www.w3.org/1999/xlink" x="0px" y="0px"
	 viewBox="0 0 490 114.9" style="enable-background:new 0 0 490 114.9;" xml:space="preserve">
<style type="text/css">
	.st0{fill:#686868;}
	.st1{fill:#FFCEA6;}
	.st2{fill:#CC946E;}
	.st3{fill:#FFFFFF;}
	.st4{fill:#231F20;}
</style>
<g id="crocodile_00000017501787477267624670000004459870280620233405_">
	<path class="st0" d="M487,19L487,19c-0.6-1-1.6-1.9-2.8-2.6c-3.3-2-7.7-2.3-11.1-0.6c-2.3,1.3-5,2.1-7.8,2.4
		c-2.7,0.3-5.4,0.3-8.2,0c-7.5-0.8-14.1-2.9-19.5-6.1l-1.9-1.1l0,0.8l0,0c-0.2-0.4-0.5-0.7-0.7-1.1l0,0l-0.1-0.2
		c0,0-0.1-0.1-0.1-0.1l-0.2-0.3c-0.9-1.4-1.7-2.4-2.7-3.3c-3.4-3.4-8.5-4.9-13.7-4.2c-3,0.4-5.4,1.7-7.7,3.4l1.1-1.2L410,4.2
		c-6.4-2.3-11.3-2.3-13.7-2.1l-1.3,0.1l1.1,5.8l-0.6-0.4c-3.1-2-8-2.7-11.6-2.9l-3.1-0.2l5.1,4.9l-1.5-0.6
		c-6.2-2.3-13.4-1.6-17.3-0.9L365,8.3l3.6,4l-12.8,1.2l3,1.6c-6-2.2-12.2-3.3-17.8-4.2l-2.6-0.4l1.4,2.2c0.5,0.8,1.1,1.7,1.6,2.5
		l0.1,0.2c0.2,0.3,0.4,0.6,0.6,1c-8.6-4-16.5-6.8-23.9-8.6c-1.4-0.3-2.9-0.7-4.6-1l-2.7-0.5l3.6,5.5l-1.4-1
		c-5.8-3.7-12.9-6.3-21.9-7.9c-6.1-1-12.5-1.4-19.2-1l-3.4,0.2l5.6,3.8c1.2,0.8,2.4,1.6,3.5,2.4c-3-0.9-6.1-1.9-8.4-2.4
		c-14.7-3.4-28.6-4.1-41.4-2.3L224,4.3l15.4,7.2c-15.5-3.1-32.8-5.4-49.9-3.9c-4.3,0.4-8.2,1-11.8,1.9l-3.1,0.8l2.8,1.4
		c2,1,4.2,2.1,6.4,3.2c0.5,0.2,0.9,0.5,1.4,0.7c-13.5-2.1-29.8-3.7-46.3-1.8c-3.9,0.5-7.5,1.1-10.8,2l-3,0.8L128,18
		c2.1,1.1,4.5,2.3,7,3.5l1.7,0.9l-2.3-0.4c-9.6-1.8-19.4-2.6-29.3-2.4c-9.7,0.3-17.9,1.5-25.2,3.9l-3,1l2.9,1.2
		c3.1,1.3,6.9,2.9,10.4,4.4c-13.3-0.8-27.3-0.8-41,2c-3.3,0.7-6,1.5-8.5,2.5l-3.3,1.3l15.4,4.2c-3.1,0-6.2,0.1-7.8,0.3
		c-5.9,0.5-11.3,1.6-16.2,3.3c-6.7,2.3-12,5.5-15.5,9.6l-1.9,2.2l9.5-0.8c-2.8,1.6-5.8,3.5-7.6,5.6c-2.4,2.4-3.3,4.7-2.7,6.8
		c0.5,1.9,2.1,3.6,4.6,5c-0.8-0.4-1.7-1-2.5-1.6c-1.2-0.9-2-1.9-2.4-3l-1-3l-1.6,2.7c-5.1,8.2-7,15.3-5.9,21.8
		c2.8,12.8,17,17.1,27.6,19.3c7.4,1.4,15.1,2.1,23.5,2.1c7.3,0,15.2-0.5,23.9-1.6c7.9-0.9,15.9-1.6,23.7-1.8
		c13.5-0.4,25.2,0.2,35.6,1.8c2.2,0.4,4,0.7,5.6,1.1l6.9,1.5l-5.8-4.2c-1.3-0.9-2.7-1.8-4.2-2.6l0,0c-10.4-5.5-22.1-7.6-32.8-8.7
		l9.9-2.7l-4.7-1.7c-6.4-2.2-13.7-3.1-23.1-2.8c-3.4,0.1-6.5,0.4-9.3,0.9l-0.1,0l6.1-4.9l-3-0.7c-9.8-2.3-20.1-2.7-29.6-1.2
		c-1.2,0.2-3,0.6-4.9,1.1l9.8-5.6l-3.6-0.9c-2.1-0.5-4.3-0.9-6.5-1c-2.2-0.1-4.4-0.2-6.6-0.1l0,0l-1.2,0.1c-2.2,0.2-4.4,0.4-6.7,0.8
		c2.2-0.6,4.4-1,6.6-1.2l0.9-0.1l0.1-0.9c0.1-0.7,0.3-1.3,0.7-1.9c2.1-3.6,8.1-5.8,17.7-6.5c8.5-0.7,24.3,1.7,44.2,4.7
		c26.8,4,63.4,9.5,98.7,9.5c3.6,0,7.1-0.1,10.5-0.2l3.3-0.1l-2.7-2c-1.6-1.2-3.3-2.5-5.1-4.1c-0.6-0.6-1.7-1.4-2.2-1.8
		c-4.2-2.9-8.9-4.5-13.6-5.6c4,0.4,8,1.5,11.6,3.4c2.3,1.1,4.3,2.8,6.3,4.4c1,0.8,2,1.6,3.1,2.4c4.8,3.5,12.1,8.3,20.4,9.8
		c1.7,0.3,3.4,0.5,5.2,0.5c3.3,0,6.5-0.5,9.8-1c2.5-0.4,5.2-0.8,7.8-1c2-0.1,4.1,0,6.2,0.5l4.7,0.9l-3-2.4c0.3,0.2,0.5,0.3,0.8,0.5
		l1.1,0.7l0.6-1.1c0.2-0.4,0.5-0.8,0.9-1.1c0.4-0.4,0.9-0.7,1.6-0.9l2.6-1c0.6,0.2,1.2,0.4,1.8,0.6l0.4,0.1c0.1,0,0.2,0,0.3,0l3,0.4
		l-1.9-2.3c-2-2.3-4.5-4-7.6-5.1c0.2,0,0.4,0.1,0.6,0.1l4.7,0.8c0.2,0.3,0.3,0.6,0.4,1c0.1,0.2,0.2,0.4,0.6,0.5l1.6,0.8l0.1-1
		c5.9,0.2,35.5,0.5,58.2-7.6l1.4-0.5l-0.8-1.2c-3.6-5.3-1.6-11.4,0.7-15.6c0.8-1.4,1.8-2.9,2.9-4.4c-3.8,6.3-6,12.4-4,17.5
		c2,5.1,8,8.4,18.3,10c9.7,1.5,19.9,2.5,32.2,3.2c6.5,0.4,14.6,0.9,21.2,4.1c0.7,0.3,1.3,0.6,2,1l5.8,3.2l-4.4-5c0,0,0-0.1-0.1-0.1
		c0.4,0.3,0.8,0.7,1.1,1l1.1,1.2l0.8-1.4c0.4-0.7,0.8-1.2,1.4-1.6l1.5-1.1l-1.7-0.9c-0.7-0.3-1.4-0.7-2.1-1.1
		c0.7,0.1,1.4,0.3,2.1,0.5l5.4,1.7l-4.3-3.7c-0.6-0.5-1.3-1-2.1-1.5l5,1.8l-4.1-3.9c-3-2.8-6.6-3.1-11.1-3.4
		c-1.7-0.1-3.6-0.3-5.7-0.6c-3-0.4-6-1.1-8.9-2c-8-3-16.5-5-24.4-6.5c1.4,0.1,2.9,0.2,4.4,0.4l0.1,0l0.6,0l0.3-0.4
		c0-0.1,0.1-0.1,0.1-0.1c1.3-1.2,2.5-2.6,3.5-4.1c-0.5,1.3-1,2.5-1.7,3.4l-1,1.5l1.8,0.3c2.3,0.4,4.6,0.9,7.2,1.6l1.4,0.2v-0.2
		c5.8,0.1,29.9-0.4,51.9-13.2l5.1-3l-2.8,0.4c0.6-0.1,1.3-0.3,1.9-0.4l0.6-0.1c3.1-0.5,6.3-0.9,9.8-1.3c8.5-1.3,16.7-2.8,23.6-7.4
		c0.7-0.5,1.3-1,1.8-1.5l3.4-3.2l-4.5,1.2c-4,1.1-9,2.3-13.9,3.5c-3.3,0.8-6.5,1.6-9.2,2.3c-7.1,1.9-13,2.9-18.3,3.3
		c-8.3,0.6-19.4-0.2-28-3.7c5,1.3,10.3,2.4,15.6,2.7c1.3,0.1,3.2,0.2,4.8,0.2l1.4,0l3-0.1c1.3,0,3.1-0.2,4.6-0.3
		c0.5-0.1,1.1-0.1,1.5-0.2c1.4-0.2,2.8-0.4,4.2-0.7l0.1,0c0.6-0.1,1.1-0.2,1.7-0.3c3.5-0.8,7.8-1.9,11.6-2.8
		c1.2-0.3,2.3-0.6,3.4-0.9c2.5-0.6,5.1-1.2,7.6-1.8l0.2,0c1.4-0.3,2.9-0.7,4.3-1c1.4-0.4,2.9-0.7,4.3-1.1c4.5-1.1,9.1-2.1,13.1-4.5
		c1-0.7,1.7-1.4,2-2.2l0.7-1.6c0.5-0.7,0.9-1.5,1.3-2.2c0.3-0.5,0.5-0.9,0.8-1.4c0.2-0.3,0.2-0.5,0.3-0.9
		C487.6,20.1,487.3,19.5,487,19z M427.3,11.8l0,0.3l0.2,0.2c0.1,0.2,0.3,0.4,0.5,0.6c-0.2,0.1-0.4,0.3-0.7,0.5l-0.2,0.2l-0.1,0.2
		c-0.4,1-1,2-1.9,2.6c-1,0.8-2.2,1.2-3.4,1.2c-1.8,0-3.4-0.8-4.4-2.2c-0.6-0.8-1-1.7-1.1-2.6l0-0.2l-0.1-0.3
		c-0.3-0.4-0.6-0.9-1.1-1.4c0.5-0.2,1-0.5,1.4-0.9l0.2-0.2l0.1-0.2c0.4-0.8,0.9-1.5,1.6-2.1c1.2-0.9,2.7-1.3,4.1-1.1
		c1.5,0.2,2.8,0.9,3.7,2.1C426.9,9.5,427.3,10.6,427.3,11.8z M94.1,44.4c0.5-0.1,1-0.1,1.5-0.1C95.2,44.4,94.7,44.4,94.1,44.4
		L94.1,44.4z M157.7,36.3c0.6-0.1,1.2-0.1,1.7-0.1c-0.5,0.1-1.1,0.1-1.6,0.1L157.7,36.3z M257.2,23.8c0.6-0.1,1.2-0.1,1.8-0.1
		c-0.5,0-1.1,0.1-1.6,0.1L257.2,23.8z M237.5,25.3c0.6-0.1,1.2-0.1,1.7-0.1c-0.5,0.1-1.1,0.1-1.6,0.1L237.5,25.3z M217.8,27.3
		c0.6-0.1,1.1-0.1,1.7-0.1c-0.4,0-0.8,0.1-1.2,0.1L217.8,27.3z M337,27.3c-0.4,0-0.8,0-1.2-0.1l-0.2,0C336,27.2,336.5,27.2,337,27.3
		z M295.7,23.7c0.6,0,1.2,0,1.8,0.1c-0.4,0-0.8,0-1.2-0.1L295.7,23.7z M315.9,25.4c0.5,0,1,0.1,1.5,0.1c-0.4,0-0.9-0.1-1.4-0.1
		L315.9,25.4z M32,66l-0.1,0.1c0.4-0.5,0.8-0.9,1.3-1.3C32.8,65.2,32.4,65.6,32,66z M17.4,81.8l-0.1,0.1l2.7-2.6l-1.1,1.9l0.7-0.1
		C18.9,81.2,18.2,81.5,17.4,81.8z M268.9,73.3c-2.5-1.6-5.8-2.1-9.1-2.1c-3.2,0-6.4,0.5-9.1,0.8l-1.5,0.2c-7,1.3-11.7-1.3-16.1-8.9
		c-1-1.7-1.9-3.4-2.9-5.1c-1.5-2.7-3-5.4-4.7-8.1c-6.3-9.9-13.7-16-22.7-18.8c-6-1.9-12.5-2.2-19.7-1c6.3-2,13.5-2.1,20.2,0
		c8.9,2.7,17.2,9.4,23.5,19.1c1.8,2.7,3.5,5.6,5,8.4c0.9,1.6,1.8,3.2,2.7,4.7c1.8,2.9,3.8,6.2,7.4,7.7c2.8,1.2,5.7,0.8,8.5,0.3
		c0.8-0.1,1.6-0.2,2.4-0.3c2.8-0.3,5.3-0.4,7.7-0.3c2.7,0.1,8.8,0.8,11.7,5.4L268.9,73.3z"/>
	<g>
		<path class="st1" d="M207,75.3c-0.6-0.5-1.6-1.3-2.1-1.7c-7.1-4.9-15.8-6.2-24.1-7C162.3,66,143.4,65,123.5,64
			c-19.7-1-40.1-2-60.6-2.8c-14.6-0.5-21.6,4.1-24.5,6.8c-2.3,2.3-3.7,4.9-3.7,7.4l0,0.2l0.2,0c1.7-0.3,1.9-0.3,2.7-0.4
			c0.3,0,0.8,0,1.6-0.1l0.1,0l0-0.1c0.1-0.8,0.4-1.6,0.8-2.3c2.3-3.9,8.5-6.2,18.5-7c8.6-0.7,24.4,1.7,44.4,4.7
			c27.1,4.1,63.4,9.5,98.5,9.5c3.5,0,7-0.1,10.5-0.2l0.5,0l-0.4-0.3C210.5,78.2,208.9,76.9,207,75.3z"/>
		<path class="st1" d="M331.4,59.4l0-0.2l-0.2,0c-0.2,0-0.3,0.1-0.5,0.1c-38.2,9.7-63.4,8.9-93.9,4.4l-0.4-0.1l0.2,0.3
			c1.3,2,3,4.2,5.7,5.3c2.5,1.1,5.3,0.7,8,0.3c0.8-0.1,1.6-0.2,2.4-0.3c2.8-0.3,5.4-0.4,7.9-0.3c3.2,0.1,10.9,1,13.5,7.8
			c0,0.1,0.1,0.1,0.1,0.1l0.2,0.1l0-0.4c2.6,0.1,34.6,1.2,58.9-7.6l0.2-0.1l-0.1-0.2C331.5,66,330.9,62.9,331.4,59.4z"/>
		<path class="st1" d="M249.5,58.6c1.1,0.4,2.2,0.8,3.6,0.8c0.1,0,0.2,0,0.2,0l0.5,0c1.3,0,2.5-0.1,3.5-0.5c1.5-0.7,2.9-2,2.9-3.3
			c0-1.3-1.6-2.6-3.1-3.2c-1.3-0.5-2.8-0.8-4.1-0.7c-1.6,0.1-3.1,0.3-4.1,0.8c-1.6,0.7-2.3,2.3-2.3,3.5
			C246.7,57.3,248.1,58.1,249.5,58.6z"/>
		<path class="st1" d="M274.2,53.5c0.8,0.4,1.8,0.7,2.9,0.7c0.1,0,0.2,0,0.3,0c1.3,0,2.5-0.4,3.4-0.9c1-0.6,1.5-1.3,1.5-2
			c0-0.8-0.6-1.4-1.6-1.9c-1-0.4-2.2-0.7-3.5-0.6c-2.6,0.1-4.4,1.2-4.3,2.8C272.9,52.4,273.4,53.1,274.2,53.5z"/>
		<path class="st1" d="M272.6,64.5c0.4,0.2,0.8,0.2,1.3,0.2c0.5,0,0.9-0.1,1.4-0.1c0.4,0,0.9-0.1,1.4-0.1l0.4,0
			c1.3,0,2.5-0.1,3.5-0.5c1.5-0.7,2.2-1.6,2.1-2.9c0-1.4-0.8-2.4-2.2-3c-1.1-0.4-2.5-0.6-4-0.6c-1.2,0-2.2,0.6-3.1,1
			c-0.2,0.1-0.4,0.2-0.6,0.3c-1.5,0.7-2.3,1.3-2.3,2.6C270.4,62.9,271.2,63.9,272.6,64.5z"/>
		<path class="st1" d="M316.3,55.3c0.6,0.3,1.4,0.5,2.3,0.5c0.1,0,0.2,0,0.3,0c1.1,0,2.1-0.3,2.9-0.7c0.9-0.4,1.3-1,1.3-1.6
			c0-1.3-2.2-2.5-4.4-2.4c-1,0-1.9,0.3-2.6,0.9c-0.6,0.5-1,1.1-0.9,1.8C315.3,54.4,315.7,54.9,316.3,55.3z"/>
		<path class="st1" d="M296.6,57.5c0,1.2,1.4,2.8,3.1,3.4c0.5,0.2,1.1,0.3,1.8,0.3c0.5,0,1,0,1.5-0.1c0.4,0,0.7,0,1.1-0.1
			c0.4,0,0.8,0,1.2,0c1.2,0,2.3,0,3.1-0.4c1.6-0.7,2.2-2.4,2.2-3.6c0-1.2-0.8-2.8-2.5-3.4c-1.4-0.5-3-0.8-4.3-0.8
			c-1.6,0.1-3.1,0.8-4.1,1.3C298,54.8,296.5,56.2,296.6,57.5z"/>
		<path class="st1" d="M296.4,49.8c0.4,0.2,1,0.3,1.6,0.3c0.1,0,0.1,0,0.2,0c1.4,0,2.3-0.7,2.3-1.5c0-0.9-1.1-1.5-2.4-1.5
			c-0.7,0-1.3,0.2-1.7,0.5c-0.5,0.3-0.8,0.7-0.7,1.1C295.6,49.2,295.9,49.5,296.4,49.8z"/>
		<path class="st1" d="M259.1,49.2c0.1,0,0.1,0,0.2,0c1.6-0.1,3.3-0.7,3.3-1.7c0-1-1.7-2-3.4-2c-1.7,0.1-2.7,1.2-2.7,2.2
			C256.5,48.7,257.5,49.2,259.1,49.2z"/>
		<path class="st1" d="M470.6,35.6c-4,1.1-9.1,2.3-14,3.5c-3.3,0.8-6.5,1.6-9.1,2.3c-7.2,1.9-13.1,3-18.5,3.3
			c-11.3,0.8-27.5-0.9-36-8.2l0,0c-4.6-2.3-8.3-2.8-11.1-1.6c-4.2,1.9-5.7,7.4-6.8,11.8c-0.2,0.8-0.4,1.5-0.6,2.3
			c-0.4,3.4-1.5,8.4-3.5,11.4l-0.1,0.2l0.3,0c2.3,0.4,4.7,0.9,7.3,1.6l0.2,0v0c2.5,0.1,28.8,0.7,52.4-13.1l0.7-0.4l-0.9,0.1
			c-3,0.4-5.8,0.9-8.4,1.4c3.7-1.9,8-3.3,13.5-4.2l0.1,0c0,0,0,0,0,0l0,0l0.1,0c3.2-0.6,6.3-0.9,9.8-1.3c8.4-1.3,16.5-2.8,23.1-7.2
			c0.6-0.5,1.2-0.9,1.7-1.4l0.5-0.5L470.6,35.6z"/>
		<path class="st1" d="M120.5,62.2c1.3,0,2.7-0.6,2.7-1.5c0-0.9-1.4-1.5-2.7-1.5c-1.3,0-2.7,0.6-2.7,1.5
			C117.8,61.5,119.2,62.2,120.5,62.2z"/>
		<path class="st1" d="M174.3,62.8c1.4,0,2.4-0.6,2.4-1.4c0-0.8-1-1.4-2.4-1.4c-1.4,0-2.5,0.6-2.5,1.4
			C171.8,62.1,172.9,62.8,174.3,62.8z"/>
		<path class="st1" d="M156.1,60.5c1.1,0.5,2.3,0.5,3.8,0.5c0.3,0,0.6,0,0.9,0c0.3,0,0.6,0,0.8,0c0.8,0,1.5-0.1,2.2-0.3
			c1.7-0.8,2.8-1.9,2.8-3c0-1.2-1.1-2.5-2.7-3.2c-1-0.4-2.5-1-4-1c-1.2,0-2.2,0.5-3.2,1c-0.2,0.1-0.5,0.2-0.7,0.3
			c-1.4,0.6-2.1,1.6-2.1,2.9C153.9,59,154.6,59.9,156.1,60.5z"/>
		<path class="st1" d="M139.6,60.8c2.4,0,4.9-1,4.9-2.6c0-1.4-2.4-2.8-4.9-2.8c-2.5,0-4.8,1.3-4.8,2.8
			C134.8,59.6,137,60.8,139.6,60.8z"/>
	</g>
	<g>
		<path class="st2" d="M212,77.4c-26.4,1.9-69-3.9-103.3-8.5c-20.3-2.8-37.9-5.2-47.5-5.3c-13.4-0.2-19.2,3.2-21.8,6
			c-2.8,3.1-2.4,6.1-2.4,6.3l0.2,0l2.3,0.8c0,0,0,0,0,0l0.2,0l0,0c0,0,0,0,0,0l0.2,0c1.8-9.6,16.9-11.8,44.7-6.8
			c0.8,0.1,1.5,0.3,1.9,0.3c5.1,0.8,55.1,7.6,55.6,7.6c13.5,2.5,69.4,3.8,69.9,3.9l0,0l3.7-2L212,77.4L212,77.4z"/>
		<path class="st2" d="M428.4,48L428.4,48c-21.4,13.4-57.9,12.4-58.3,12.4l-1,0l9.2,3.5l0.1,0c0.5,0,1.1,0,1.6,0
			c30.2,0,54.2-15.4,54.4-15.6l0.5-0.3H428.4z"/>
		<path class="st2" d="M333.1,66.4c-19.7,8.6-60.9,8.2-61.7,8.2c-0.6-0.1-1.9-0.2-2,0.3c-0.1,0.4,0.3,1,4.2,2.9
			c1.2,0.6,3.3,0.8,6.2,0.8c16,0,53.4-7.4,55.2-7.8l0.2,0l-1.8-4.5L333.1,66.4z"/>
	</g>
	<g>
		<path class="st3" d="M173.6,33.9c0,0,28.3-9.5,44.6,10.4c15.3,18.8,13.7,28.7,25.6,30c4.6,0.5,11.5-1.3,14.9-1.3
			c6-0.1,9.6,1.4,9.6,1.4l-3.3-3.7c0,0-8.8-1.1-19,2c0,0-7.5,1.3-13.4-12.1C226.6,47.1,206.6,16.1,173.6,33.9z"/>
		<path class="st3" d="M351.7,59.8c0,0,24,5.4,35.1,9.5c11.7,4.2,21,1.3,25.2,4.6l0-2.2l-23-5.2C389,66.6,357.4,59.2,351.7,59.8z"/>
		<path class="st3" d="M437,13.1c0,0,8.3,7.8,24.9,7.5c12.2-0.2,12.2-6,20.3-3.1c2.9,1.1,4.8,3.1,4.8,3.1l-1.4-4.3l-10.5-2.1l-9.4,4
			l-21.4-3.8l-8.9-3.4L437,13.1z"/>
		<path class="st3" d="M406.3,11.3c4.8-3.3,9.9-9.5,19.7-6c6.2,2.2,8.1,7.9,10.8,10.3l-3.7-8.5L422.7,2l-9.3,1.9L406.3,11.3z"/>
		<path class="st3" d="M409.7,5.3c0,0-9.2-0.9-11.4-0.8l-0.4,5.9c0,0-5.7-2.6-10.5-3l3.4,5c0,0-13.5-4.1-21-2.7l1.3,3.4l-9.5,2.7
			l-3.8-1.9l10.4-1.9l-2.3-3.9l12.9-1.3l5-2.3l11.9,1.4L395.1,2l10.3,0.5L409.7,5.3z"/>
		<path class="st3" d="M8.9,68c0,0-0.7,5.3,7.8,8.8l-5.9,9.3c0,0,27.5-7.7,36.9-6.3l-11.3,8.8c0,0,28.9-4.6,40.9-2.1L73.4,92
			c0,0,23.9-0.9,32.1,1.3l-7.8,3.5c0,0,40,7.5,44.4,11.8l1.1-1.6l-16.9-7.5l-20-3.6l8.7-2.7l-10.4-3.4l-22.2-1.1l0-2.1l1.2-2.3
			l-18-2.6L54.3,82l-0.1-2.9l-4-2.7L38.3,77L22,78.8l0-4.4L8.9,68z"/>
		<path class="st3" d="M14.2,54.1c0,0,20.5-12.9,47.2-12.8l-15.1-5.9c0,0,31.5-6.3,50.7-3.7l-12-7.2c0,0,33.2-5,59.7,0.7l-12.5-7.9
			c0,0,35.4-3.5,60.5,0.9l-9.1-6.6c0,0,36-4.1,65.6,3.4l-14-8.5c0,0,25.9-1.6,49.6,5.6l-6.9-6.6c0,0,18.6-2.6,40.8,10.9l-1.7-5.5
			c0,0,16.1,3.1,28.3,8.4l-1-4.7c0,0,11.8,0.7,23.6,6.5l-10.4-6.9L338.1,10l2.5,5.4l-29.1-10l0.4,4c0,0-21.4-10.1-42.4-7.6l5.7,5.1
			c0,0-31.9-8.3-50.3-3.3l7.6,5.2c0,0-41.7-5.1-57.3,1l5.6,4.5c0,0-31.2-4.1-56,2.3l7.4,4.7c0,0-31.1-7.3-55.6,2.8l9.6,4.2
			c0,0-38.6-0.1-48.9,7l12.1,4.8C49.4,40.1,23.1,39.9,14.2,54.1z"/>
		<path class="st3" d="M420.5,14.3c0.5,0,1.1-0.2,1.5-0.6c1.2-0.9,1.4-2.6,0.5-3.8c-0.3-0.4-0.7-0.7-1.2-0.9c1.2-0.8,2.8-0.8,4,0
			l1.9,1.3l-1.5-1.7c-0.9-1-2-1.6-3.3-1.8c-0.2,0-0.4,0-0.7,0c-1.2,0-2.3,0.4-3.2,1.1c-1.1,0.9-1.8,2.1-2,3.5
			c-0.2,1.4,0.2,2.8,1.1,3.9c1,1.3,2.6,2,4.2,2c1.1,0,2.3-0.4,3.2-1.1c0.3-0.3,0.6-0.6,0.9-0.9l1.5-1.8l-1.9,1.4
			C423.9,16.1,421.7,15.8,420.5,14.3z"/>
		<path class="st3" d="M429.5,11.6c-0.1-1.5-0.6-2.9-1.6-4.2c-1.2-1.6-3.1-2.7-5.1-2.9c-2-0.3-4,0.3-5.7,1.5c-1,0.8-1.8,1.7-2.3,2.8
			c-1.8,1.4-3.9,1.4-4.1,1.4c1.6,0.6,2.7,1.8,3.4,2.9c0.2,1.3,0.7,2.5,1.5,3.6c1.5,2,3.8,3,6.1,3c1.6,0,3.3-0.5,4.7-1.6
			c1.2-0.9,2.1-2.2,2.6-3.6c1.3-1.2,2.8-1.2,2.8-1.2C430.7,13,429.9,12.2,429.5,11.6z"/>
	</g>
	<path class="st4" d="M78.7,53.7c2.4,1,5.2,0.8,7.5-0.6C83.8,52.1,80.9,52.3,78.7,53.7z M98.9,51.1c2.4,1,5.2,0.8,7.5-0.6
		C104,49.5,101.1,49.7,98.9,51.1z M118.8,50.3c2.4,1,5.2,0.8,7.5-0.6C123.9,48.6,121,48.9,118.8,50.3z M135.8,48.8
		c2.5,0.8,5.3,0.4,7.4-1.2C140.7,46.7,138,47.2,135.8,48.8z M154,46.8c2.5,1,5.3,0.6,7.4-0.8C159,45,156.2,45.3,154,46.8z
		 M230.5,37.6c2.4,1,5.2,0.8,7.5-0.6C235.5,36,232.7,36.2,230.5,37.6z M218.4,28.4c2.6-0.2,5.2-0.7,7.6-1.8
		c-4.1-1.2-8.5-0.6-12.6,0.1c2,1.4,4.1,3.1,6.5,3.9C219.4,29.9,218.9,29.2,218.4,28.4C218.4,28.5,218.4,28.4,218.4,28.4z M246,35.6
		c2.4,1,5.2,0.8,7.5-0.6C251,34,248.2,34.2,246,35.6z M37.3,60.5c-4,1.8-6.8,5.3-9.3,8.7c2.2-0.4,4.7-0.8,6.7-1.9
		c-0.6-0.2-1.2-0.3-1.9-0.4C34.6,65,36.3,62.9,37.3,60.5z M101.8,43.8c-4.1-1.3-8.6-0.6-12.7,0.3c1.9,1.1,4.1,2.5,6.3,3.1
		c-0.3-0.6-0.7-1.1-1.1-1.6C96.8,45.5,99.4,45,101.8,43.8z M165.4,35.7c-4.1-1.3-8.6-0.6-12.7,0.3c1.9,1.1,4.1,2.5,6.3,3.1
		c-0.3-0.6-0.7-1.1-1.1-1.6C160.4,37.3,163,36.8,165.4,35.7z M245.3,24.7c-4.1-1.3-8.6-0.6-12.7,0.3c1.9,1.1,4.1,2.5,6.3,3.1
		c-0.3-0.6-0.7-1.1-1.1-1.6C240.3,26.3,242.9,25.8,245.3,24.7z M257.4,24.9c2.6-0.1,5.2-0.5,7.6-1.6c-4.1-1.4-8.7-0.8-12.9,0
		c1.6,0.9,3.5,2.1,5.2,2.7c1.2,0.4,1.2,0.4,0.5-0.6C257.6,25.3,257.5,25.1,257.4,24.9z M306.1,35c2.2,1.4,5,1.7,7.5,0.7
		C311.4,34.3,308.6,34,306.1,35z M261.2,33.9c2.3,1.2,5.2,1.2,7.5,0C266.3,32.6,263.5,32.6,261.2,33.9z M78.6,46.4
		c-4.1-1.1-8.3-0.2-12.3,0.9c1.3,0.8,3,1.9,4.5,2.4c0.3,0.1,0.6,0.2,1,0.3c-0.3-0.5-0.6-1-0.9-1.4C73.5,48.3,76.2,47.7,78.6,46.4z
		 M49.7,54.7c2.6-0.8,5.1-2,7.1-3.9c-4.2-0.1-8.2,1.7-11.8,3.7c1.5,0.5,3.3,1.1,4.9,1.3c0.3,0,0.7,0.1,1,0.1
		C50.5,55.5,50.1,55.1,49.7,54.7z M144.6,38.9c-4-1.3-8.3-0.7-12.3,0.2c1.3,0.9,2.9,2,4.3,2.6c0.3,0.1,0.6,0.3,0.9,0.4
		c-0.2-0.5-0.5-1-0.8-1.5C139.4,40.6,142.1,40.1,144.6,38.9z M124.8,41.2c-4-1.3-8.3-0.7-12.3,0.2c1.3,0.9,2.9,2,4.3,2.6
		c0.3,0.1,0.6,0.3,0.9,0.4c-0.2-0.5-0.5-1-0.8-1.5C119.6,42.9,122.3,42.5,124.8,41.2z M284.9,23.3c-3.9-1.6-8.3-1.3-12.3-0.6
		c1.2,1,2.7,2.2,4.1,2.9c0.3,0.1,0.6,0.3,0.9,0.4c-0.2-0.5-0.5-1-0.7-1.5C279.6,24.7,282.4,24.4,284.9,23.3z M276.2,32.9
		c2.3,1.3,5.1,1.5,7.5,0.4C281.4,31.9,278.6,31.7,276.2,32.9z M303.8,24.1c-4-1.8-8.5-1.7-12.7-1.5c1.9,1.6,3.9,3.4,6.2,4.4
		c-0.3-0.8-0.7-1.5-1.1-2.1C298.8,25.1,301.4,24.9,303.8,24.1z M291.9,33.5c2.2,1.4,5,1.7,7.5,0.7C297.1,32.8,294.3,32.5,291.9,33.5
		z M322.5,36.6c2.2,1.5,5,1.8,7.4,0.8C327.8,36,325,35.7,322.5,36.6z M323.5,26.1c-3.9-2-8.6-2.1-12.9-1.9c1.8,1.3,3.9,3.1,6.1,3.9
		c-0.2-0.5-0.5-1-0.8-1.5C318.4,26.8,321,26.8,323.5,26.1z M342.9,27.6c-4.2-2-9.1-1.6-13.6-1.2c2.1,1,4.7,2.5,7,2.9
		c-0.2-0.3-0.4-0.6-0.6-0.8C338.1,28.6,340.6,28.4,342.9,27.6z M362.4,28.3c-3.8-1.8-8.1-1.7-12.2-1.3c1.1,1,2.4,2.4,3.8,3.2
		c1,0.6,1,0.6,0.6-0.5c-0.1-0.2-0.2-0.5-0.3-0.7C357,29.3,359.8,29.2,362.4,28.3z M381.5,25.9c-4.3-1.1-8.8-0.1-12.9,1
		c1.6,0.7,3.8,1.7,5.5,2.1c0.3,0.1,0.7,0.1,1.1,0.2c-0.3-0.4-0.7-0.8-1-1.2C376.7,27.8,379.2,27.2,381.5,25.9z M428.5,11.6
		c-0.1-1.3-0.5-2.6-1.4-3.7c-1.1-1.4-2.7-2.3-4.5-2.6c-1.8-0.2-3.6,0.3-5,1.4c-0.9,0.7-1.5,1.5-2,2.5c-1.6,1.2-3.5,1.3-3.6,1.3
		c1.4,0.5,2.4,1.6,3,2.6c0.2,1.1,0.6,2.2,1.3,3.2c1.3,1.7,3.3,2.6,5.4,2.6c1.4,0,2.9-0.5,4.1-1.4c1.1-0.8,1.8-1.9,2.3-3.2
		c1.2-1,2.5-1,2.5-1C429.6,12.9,428.9,12.2,428.5,11.6z M424.8,16c-2.2,1.7-5.3,1.3-7-0.9c-0.8-1.1-1.2-2.4-1-3.7
		c0.2-1.3,0.8-2.5,1.9-3.3c0.9-0.7,1.9-1,3-1c0.2,0,0.4,0,0.6,0c1.2,0.2,2.3,0.8,3.1,1.7c-1.4-0.9-3.2-0.9-4.6,0.1
		c-0.1,0.1-0.2,0.1-0.3,0.2c0.6,0.1,1.2,0.4,1.6,0.9c0.8,1.1,0.6,2.6-0.4,3.4c-0.6,0.4-1.3,0.6-1.9,0.5c0.1,0.1,0.2,0.3,0.3,0.4
		c1.3,1.7,3.7,2,5.4,0.7C425.4,15.5,425.1,15.7,424.8,16z M428.5,11.6c-0.1-1.3-0.5-2.6-1.4-3.7c-1.1-1.4-2.7-2.3-4.5-2.6
		c-1.8-0.2-3.6,0.3-5,1.4c-0.9,0.7-1.5,1.5-2,2.5c-1.6,1.2-3.5,1.3-3.6,1.3c1.4,0.5,2.4,1.6,3,2.6c0.2,1.1,0.6,2.2,1.3,3.2
		c1.3,1.7,3.3,2.6,5.4,2.6c1.4,0,2.9-0.5,4.1-1.4c1.1-0.8,1.8-1.9,2.3-3.2c1.2-1,2.5-1,2.5-1C429.6,12.9,428.9,12.2,428.5,11.6z
		 M424.8,16c-2.2,1.7-5.3,1.3-7-0.9c-0.8-1.1-1.2-2.4-1-3.7c0.2-1.3,0.8-2.5,1.9-3.3c0.9-0.7,1.9-1,3-1c0.2,0,0.4,0,0.6,0
		c1.2,0.2,2.3,0.8,3.1,1.7c-1.4-0.9-3.2-0.9-4.6,0.1c-0.1,0.1-0.2,0.1-0.3,0.2c0.6,0.1,1.2,0.4,1.6,0.9c0.8,1.1,0.6,2.6-0.4,3.4
		c-0.6,0.4-1.3,0.6-1.9,0.5c0.1,0.1,0.2,0.3,0.3,0.4c1.3,1.7,3.7,2,5.4,0.7C425.4,15.5,425.1,15.7,424.8,16z M381.5,25.9
		c-4.3-1.1-8.8-0.1-12.9,1c1.6,0.7,3.8,1.7,5.5,2.1c0.3,0.1,0.7,0.1,1.1,0.2c-0.3-0.4-0.7-0.8-1-1.2
		C376.7,27.8,379.2,27.2,381.5,25.9z M362.4,28.3c-3.8-1.8-8.1-1.7-12.2-1.3c1.1,1,2.4,2.4,3.8,3.2c1,0.6,1,0.6,0.6-0.5
		c-0.1-0.2-0.2-0.5-0.3-0.7C357,29.3,359.8,29.2,362.4,28.3z M342.9,27.6c-4.2-2-9.1-1.6-13.6-1.2c2.1,1,4.7,2.5,7,2.9
		c-0.2-0.3-0.4-0.6-0.6-0.8C338.1,28.6,340.6,28.4,342.9,27.6z M322.5,36.6c2.2,1.5,5,1.8,7.4,0.8C327.8,36,325,35.7,322.5,36.6z
		 M323.5,26.1c-3.9-2-8.6-2.1-12.9-1.9c1.8,1.3,3.9,3.1,6.1,3.9c-0.2-0.5-0.5-1-0.8-1.5C318.4,26.8,321,26.8,323.5,26.1z M306.1,35
		c2.2,1.4,5,1.7,7.5,0.7C311.4,34.3,308.6,34,306.1,35z M303.8,24.1c-4-1.8-8.5-1.7-12.7-1.5c1.9,1.6,3.9,3.4,6.2,4.4
		c-0.3-0.8-0.7-1.5-1.1-2.1C298.8,25.1,301.4,24.9,303.8,24.1z M291.9,33.5c2.2,1.4,5,1.7,7.5,0.7C297.1,32.8,294.3,32.5,291.9,33.5
		z M276.2,32.9c2.3,1.3,5.1,1.5,7.5,0.4C281.4,31.9,278.6,31.7,276.2,32.9z M284.9,23.3c-3.9-1.6-8.3-1.3-12.3-0.6
		c1.2,1,2.7,2.2,4.1,2.9c0.3,0.1,0.6,0.3,0.9,0.4c-0.2-0.5-0.5-1-0.7-1.5C279.6,24.7,282.4,24.4,284.9,23.3z M261.2,33.9
		c2.3,1.2,5.2,1.2,7.5,0C266.3,32.6,263.5,32.6,261.2,33.9z M257.4,24.9c2.6-0.1,5.2-0.5,7.6-1.6c-4.1-1.4-8.7-0.8-12.9,0
		c1.6,0.9,3.5,2.1,5.2,2.7c1.2,0.4,1.2,0.4,0.5-0.6C257.6,25.3,257.5,25.1,257.4,24.9z M246,35.6c2.4,1,5.2,0.8,7.5-0.6
		C251,34,248.2,34.2,246,35.6z M245.3,24.7c-4.1-1.3-8.6-0.6-12.7,0.3c1.9,1.1,4.1,2.5,6.3,3.1c-0.3-0.6-0.7-1.1-1.1-1.6
		C240.3,26.3,242.9,25.8,245.3,24.7z M230.5,37.6c2.4,1,5.2,0.8,7.5-0.6C235.5,36,232.7,36.2,230.5,37.6z M218.4,28.4
		c2.6-0.2,5.2-0.7,7.6-1.8c-4.1-1.2-8.5-0.6-12.6,0.1c2,1.4,4.1,3.1,6.5,3.9C219.4,29.9,218.9,29.2,218.4,28.4
		C218.4,28.5,218.4,28.4,218.4,28.4z M165.4,35.7c-4.1-1.3-8.6-0.6-12.7,0.3c1.9,1.1,4.1,2.5,6.3,3.1c-0.3-0.6-0.7-1.1-1.1-1.6
		C160.4,37.3,163,36.8,165.4,35.7z M154,46.8c2.5,1,5.3,0.6,7.4-0.8C159,45,156.2,45.3,154,46.8z M144.6,38.9
		c-4-1.3-8.3-0.7-12.3,0.2c1.3,0.9,2.9,2,4.3,2.6c0.3,0.1,0.6,0.3,0.9,0.4c-0.2-0.5-0.5-1-0.8-1.5C139.4,40.6,142.1,40.1,144.6,38.9
		z M135.8,48.8c2.5,0.8,5.3,0.4,7.4-1.2C140.7,46.7,138,47.2,135.8,48.8z M118.8,50.3c2.4,1,5.2,0.8,7.5-0.6
		C123.9,48.6,121,48.9,118.8,50.3z M124.8,41.2c-4-1.3-8.3-0.7-12.3,0.2c1.3,0.9,2.9,2,4.3,2.6c0.3,0.1,0.6,0.3,0.9,0.4
		c-0.2-0.5-0.5-1-0.8-1.5C119.6,42.9,122.3,42.5,124.8,41.2z M98.9,51.1c2.4,1,5.2,0.8,7.5-0.6C104,49.5,101.1,49.7,98.9,51.1z
		 M101.8,43.8c-4.1-1.3-8.6-0.6-12.7,0.3c1.9,1.1,4.1,2.5,6.3,3.1c-0.3-0.6-0.7-1.1-1.1-1.6C96.8,45.5,99.4,45,101.8,43.8z
		 M78.7,53.7c2.4,1,5.2,0.8,7.5-0.6C83.8,52.1,80.9,52.3,78.7,53.7z M78.6,46.4c-4.1-1.1-8.3-0.2-12.3,0.9c1.3,0.8,3,1.9,4.5,2.4
		c0.3,0.1,0.6,0.2,1,0.3c-0.3-0.5-0.6-1-0.9-1.4C73.5,48.3,76.2,47.7,78.6,46.4z M49.7,54.7c2.6-0.8,5.1-2,7.1-3.9
		c-4.2-0.1-8.2,1.7-11.8,3.7c1.5,0.5,3.3,1.1,4.9,1.3c0.3,0,0.7,0.1,1,0.1C50.5,55.5,50.1,55.1,49.7,54.7z M37.3,60.5
		c-4,1.8-6.8,5.3-9.3,8.7c2.2-0.4,4.7-0.8,6.7-1.9c-0.6-0.2-1.2-0.3-1.9-0.4C34.6,65,36.3,62.9,37.3,60.5z M37.3,60.5
		c-4,1.8-6.8,5.3-9.3,8.7c2.2-0.4,4.7-0.8,6.7-1.9c-0.6-0.2-1.2-0.3-1.9-0.4C34.6,65,36.3,62.9,37.3,60.5z M49.7,54.7
		c2.6-0.8,5.1-2,7.1-3.9c-4.2-0.1-8.2,1.7-11.8,3.7c1.5,0.5,3.3,1.1,4.9,1.3c0.3,0,0.7,0.1,1,0.1C50.5,55.5,50.1,55.1,49.7,54.7z
		 M78.6,46.4c-4.1-1.1-8.3-0.2-12.3,0.9c1.3,0.8,3,1.9,4.5,2.4c0.3,0.1,0.6,0.2,1,0.3c-0.3-0.5-0.6-1-0.9-1.4
		C73.5,48.3,76.2,47.7,78.6,46.4z M78.7,53.7c2.4,1,5.2,0.8,7.5-0.6C83.8,52.1,80.9,52.3,78.7,53.7z M101.8,43.8
		c-4.1-1.3-8.6-0.6-12.7,0.3c1.9,1.1,4.1,2.5,6.3,3.1c-0.3-0.6-0.7-1.1-1.1-1.6C96.8,45.5,99.4,45,101.8,43.8z M98.9,51.1
		c2.4,1,5.2,0.8,7.5-0.6C104,49.5,101.1,49.7,98.9,51.1z M124.8,41.2c-4-1.3-8.3-0.7-12.3,0.2c1.3,0.9,2.9,2,4.3,2.6
		c0.3,0.1,0.6,0.3,0.9,0.4c-0.2-0.5-0.5-1-0.8-1.5C119.6,42.9,122.3,42.5,124.8,41.2z M118.8,50.3c2.4,1,5.2,0.8,7.5-0.6
		C123.9,48.6,121,48.9,118.8,50.3z M135.8,48.8c2.5,0.8,5.3,0.4,7.4-1.2C140.7,46.7,138,47.2,135.8,48.8z M144.6,38.9
		c-4-1.3-8.3-0.7-12.3,0.2c1.3,0.9,2.9,2,4.3,2.6c0.3,0.1,0.6,0.3,0.9,0.4c-0.2-0.5-0.5-1-0.8-1.5C139.4,40.6,142.1,40.1,144.6,38.9
		z M154,46.8c2.5,1,5.3,0.6,7.4-0.8C159,45,156.2,45.3,154,46.8z M165.4,35.7c-4.1-1.3-8.6-0.6-12.7,0.3c1.9,1.1,4.1,2.5,6.3,3.1
		c-0.3-0.6-0.7-1.1-1.1-1.6C160.4,37.3,163,36.8,165.4,35.7z M218.4,28.4c2.6-0.2,5.2-0.7,7.6-1.8c-4.1-1.2-8.5-0.6-12.6,0.1
		c2,1.4,4.1,3.1,6.5,3.9C219.4,29.9,218.9,29.2,218.4,28.4C218.4,28.5,218.4,28.4,218.4,28.4z M230.5,37.6c2.4,1,5.2,0.8,7.5-0.6
		C235.5,36,232.7,36.2,230.5,37.6z M245.3,24.7c-4.1-1.3-8.6-0.6-12.7,0.3c1.9,1.1,4.1,2.5,6.3,3.1c-0.3-0.6-0.7-1.1-1.1-1.6
		C240.3,26.3,242.9,25.8,245.3,24.7z M246,35.6c2.4,1,5.2,0.8,7.5-0.6C251,34,248.2,34.2,246,35.6z M257.4,24.9
		c2.6-0.1,5.2-0.5,7.6-1.6c-4.1-1.4-8.7-0.8-12.9,0c1.6,0.9,3.5,2.1,5.2,2.7c1.2,0.4,1.2,0.4,0.5-0.6
		C257.6,25.3,257.5,25.1,257.4,24.9z M261.2,33.9c2.3,1.2,5.2,1.2,7.5,0C266.3,32.6,263.5,32.6,261.2,33.9z M284.9,23.3
		c-3.9-1.6-8.3-1.3-12.3-0.6c1.2,1,2.7,2.2,4.1,2.9c0.3,0.1,0.6,0.3,0.9,0.4c-0.2-0.5-0.5-1-0.7-1.5
		C279.6,24.7,282.4,24.4,284.9,23.3z M276.2,32.9c2.3,1.3,5.1,1.5,7.5,0.4C281.4,31.9,278.6,31.7,276.2,32.9z M291.9,33.5
		c2.2,1.4,5,1.7,7.5,0.7C297.1,32.8,294.3,32.5,291.9,33.5z M303.8,24.1c-4-1.8-8.5-1.7-12.7-1.5c1.9,1.6,3.9,3.4,6.2,4.4
		c-0.3-0.8-0.7-1.5-1.1-2.1C298.8,25.1,301.4,24.9,303.8,24.1z M306.1,35c2.2,1.4,5,1.7,7.5,0.7C311.4,34.3,308.6,34,306.1,35z
		 M323.5,26.1c-3.9-2-8.6-2.1-12.9-1.9c1.8,1.3,3.9,3.1,6.1,3.9c-0.2-0.5-0.5-1-0.8-1.5C318.4,26.8,321,26.8,323.5,26.1z
		 M322.5,36.6c2.2,1.5,5,1.8,7.4,0.8C327.8,36,325,35.7,322.5,36.6z M342.9,27.6c-4.2-2-9.1-1.6-13.6-1.2c2.1,1,4.7,2.5,7,2.9
		c-0.2-0.3-0.4-0.6-0.6-0.8C338.1,28.6,340.6,28.4,342.9,27.6z M362.4,28.3c-3.8-1.8-8.1-1.7-12.2-1.3c1.1,1,2.4,2.4,3.8,3.2
		c1,0.6,1,0.6,0.6-0.5c-0.1-0.2-0.2-0.5-0.3-0.7C357,29.3,359.8,29.2,362.4,28.3z M381.5,25.9c-4.3-1.1-8.8-0.1-12.9,1
		c1.6,0.7,3.8,1.7,5.5,2.1c0.3,0.1,0.7,0.1,1.1,0.2c-0.3-0.4-0.7-0.8-1-1.2C376.7,27.8,379.2,27.2,381.5,25.9z M428.5,11.6
		c-0.1-1.3-0.5-2.6-1.4-3.7c-1.1-1.4-2.7-2.3-4.5-2.6c-1.8-0.2-3.6,0.3-5,1.4c-0.9,0.7-1.5,1.5-2,2.5c-1.6,1.2-3.5,1.3-3.6,1.3
		c1.4,0.5,2.4,1.6,3,2.6c0.2,1.1,0.6,2.2,1.3,3.2c1.3,1.7,3.3,2.6,5.4,2.6c1.4,0,2.9-0.5,4.1-1.4c1.1-0.8,1.8-1.9,2.3-3.2
		c1.2-1,2.5-1,2.5-1C429.6,12.9,428.9,12.2,428.5,11.6z M424.8,16c-2.2,1.7-5.3,1.3-7-0.9c-0.8-1.1-1.2-2.4-1-3.7
		c0.2-1.3,0.8-2.5,1.9-3.3c0.9-0.7,1.9-1,3-1c0.2,0,0.4,0,0.6,0c1.2,0.2,2.3,0.8,3.1,1.7c-1.4-0.9-3.2-0.9-4.6,0.1
		c-0.1,0.1-0.2,0.1-0.3,0.2c0.6,0.1,1.2,0.4,1.6,0.9c0.8,1.1,0.6,2.6-0.4,3.4c-0.6,0.4-1.3,0.6-1.9,0.5c0.1,0.1,0.2,0.3,0.3,0.4
		c1.3,1.7,3.7,2,5.4,0.7C425.4,15.5,425.1,15.7,424.8,16z M428.5,11.6c-0.1-1.3-0.5-2.6-1.4-3.7c-1.1-1.4-2.7-2.3-4.5-2.6
		c-1.8-0.2-3.6,0.3-5,1.4c-0.9,0.7-1.5,1.5-2,2.5c-1.6,1.2-3.5,1.3-3.6,1.3c1.4,0.5,2.4,1.6,3,2.6c0.2,1.1,0.6,2.2,1.3,3.2
		c1.3,1.7,3.3,2.6,5.4,2.6c1.4,0,2.9-0.5,4.1-1.4c1.1-0.8,1.8-1.9,2.3-3.2c1.2-1,2.5-1,2.5-1C429.6,12.9,428.9,12.2,428.5,11.6z
		 M424.8,16c-2.2,1.7-5.3,1.3-7-0.9c-0.8-1.1-1.2-2.4-1-3.7c0.2-1.3,0.8-2.5,1.9-3.3c0.9-0.7,1.9-1,3-1c0.2,0,0.4,0,0.6,0
		c1.2,0.2,2.3,0.8,3.1,1.7c-1.4-0.9-3.2-0.9-4.6,0.1c-0.1,0.1-0.2,0.1-0.3,0.2c0.6,0.1,1.2,0.4,1.6,0.9c0.8,1.1,0.6,2.6-0.4,3.4
		c-0.6,0.4-1.3,0.6-1.9,0.5c0.1,0.1,0.2,0.3,0.3,0.4c1.3,1.7,3.7,2,5.4,0.7C425.4,15.5,425.1,15.7,424.8,16z M368.6,26.9
		c1.6,0.7,3.8,1.7,5.5,2.1c0.3,0.1,0.7,0.1,1.1,0.2c-0.3-0.4-0.7-0.8-1-1.2c2.6-0.3,5.1-0.9,7.4-2.2
		C377.2,24.8,372.7,25.8,368.6,26.9z M350.3,27c1.1,1,2.4,2.4,3.8,3.2c1,0.6,1,0.6,0.6-0.5c-0.1-0.2-0.2-0.5-0.3-0.7
		c2.7,0.3,5.5,0.2,8.1-0.7C358.6,26.5,354.3,26.6,350.3,27z M329.3,26.4c2.1,1,4.7,2.5,7,2.9c-0.2-0.3-0.4-0.6-0.6-0.8
		c2.4,0.2,4.9,0,7.3-0.8C338.7,25.6,333.8,25.9,329.3,26.4z M322.5,36.6c2.2,1.5,5,1.8,7.4,0.8C327.8,36,325,35.7,322.5,36.6z
		 M323.5,26.1c-3.9-2-8.6-2.1-12.9-1.9c1.8,1.3,3.9,3.1,6.1,3.9c-0.2-0.5-0.5-1-0.8-1.5C318.4,26.8,321,26.8,323.5,26.1z M306.1,35
		c2.2,1.4,5,1.7,7.5,0.7C311.4,34.3,308.6,34,306.1,35z M291.1,22.7c1.9,1.6,3.9,3.4,6.2,4.4c-0.3-0.8-0.7-1.5-1.1-2.1
		c2.6,0.2,5.2,0,7.6-0.8C299.9,22.4,295.4,22.4,291.1,22.7z M291.9,33.5c2.2,1.4,5,1.7,7.5,0.7C297.1,32.8,294.3,32.5,291.9,33.5z
		 M276.2,32.9c2.3,1.3,5.1,1.5,7.5,0.4C281.4,31.9,278.6,31.7,276.2,32.9z M272.6,22.8c1.2,1,2.7,2.2,4.1,2.9
		c0.3,0.1,0.6,0.3,0.9,0.4c-0.2-0.5-0.5-1-0.7-1.5c2.7,0.1,5.5-0.1,8-1.2C281,21.7,276.7,22.1,272.6,22.8z M261.2,33.9
		c2.3,1.2,5.2,1.2,7.5,0C266.3,32.6,263.5,32.6,261.2,33.9z M257.4,24.9c2.6-0.1,5.2-0.5,7.6-1.6c-4.1-1.4-8.7-0.8-12.9,0
		c1.6,0.9,3.5,2.1,5.2,2.7c1.2,0.4,1.2,0.4,0.5-0.6C257.6,25.3,257.5,25.1,257.4,24.9z M246,35.6c2.4,1,5.2,0.8,7.5-0.6
		C251,34,248.2,34.2,246,35.6z M232.5,25c1.9,1.1,4.1,2.5,6.3,3.1c-0.3-0.6-0.7-1.1-1.1-1.6c2.6-0.1,5.2-0.6,7.6-1.8
		C241.1,23.4,236.7,24.1,232.5,25z M230.5,37.6c2.4,1,5.2,0.8,7.5-0.6C235.5,36,232.7,36.2,230.5,37.6z M213.3,26.8
		c2,1.4,4.1,3.1,6.5,3.9c-0.4-0.8-0.9-1.5-1.4-2.2c0,0,0,0-0.1-0.1c2.6-0.2,5.2-0.7,7.6-1.8C221.8,25.4,217.5,26,213.3,26.8z
		 M152.6,36c1.9,1.1,4.1,2.5,6.3,3.1c-0.3-0.6-0.7-1.1-1.1-1.6c2.6-0.1,5.2-0.6,7.6-1.8C161.2,34.4,156.8,35.1,152.6,36z M154,46.8
		c2.5,1,5.3,0.6,7.4-0.8C159,45,156.2,45.3,154,46.8z M132.2,39.1c1.3,0.9,2.9,2,4.3,2.6c0.3,0.1,0.6,0.3,0.9,0.4
		c-0.2-0.5-0.5-1-0.8-1.5c2.7,0,5.4-0.5,7.9-1.7C140.6,37.6,136.2,38.2,132.2,39.1z M135.8,48.8c2.5,0.8,5.3,0.4,7.4-1.2
		C140.7,46.7,138,47.2,135.8,48.8z M118.8,50.3c2.4,1,5.2,0.8,7.5-0.6C123.9,48.6,121,48.9,118.8,50.3z M124.8,41.2
		c-4-1.3-8.3-0.7-12.3,0.2c1.3,0.9,2.9,2,4.3,2.6c0.3,0.1,0.6,0.3,0.9,0.4c-0.2-0.5-0.5-1-0.8-1.5C119.6,42.9,122.3,42.5,124.8,41.2
		z M98.9,51.1c2.4,1,5.2,0.8,7.5-0.6C104,49.5,101.1,49.7,98.9,51.1z M101.8,43.8c-4.1-1.3-8.6-0.6-12.7,0.3
		c1.9,1.1,4.1,2.5,6.3,3.1c-0.3-0.6-0.7-1.1-1.1-1.6C96.8,45.5,99.4,45,101.8,43.8z M78.7,53.7c2.4,1,5.2,0.8,7.5-0.6
		C83.8,52.1,80.9,52.3,78.7,53.7z M66.3,47.3c1.3,0.8,3,1.9,4.5,2.4c0.3,0.1,0.6,0.2,1,0.3c-0.3-0.5-0.6-1-0.9-1.4
		c2.7-0.2,5.4-0.8,7.8-2.2C74.5,45.3,70.3,46.1,66.3,47.3z M45,54.6c1.5,0.5,3.3,1.1,4.9,1.3c0.3,0,0.7,0.1,1,0.1
		c-0.4-0.4-0.8-0.8-1.2-1.2c2.6-0.8,5.1-2,7.1-3.9C52.5,50.7,48.6,52.5,45,54.6z M27.9,69.1c2.2-0.4,4.7-0.8,6.7-1.9
		c-0.6-0.2-1.2-0.3-1.9-0.4c1.9-1.8,3.5-3.9,4.5-6.4C33.3,62.2,30.4,65.7,27.9,69.1z M481.2,12.6c-3-0.7-6.3-0.4-9.1,0.9
		c-2.2,1.3-4.6,2-7.1,2.3c-10,1-20.8-1.5-29.2-7.1c-0.6-1.2-1.4-2.3-2.3-3.3c-5.5-6.1-14.9-6.6-21.2-2.4
		c-10.5-4.1-17.6-2.7-17.9-2.6L393,0.8l0.7,3.8C388,2.5,380.4,2.8,380,2.8l-3.5,0.1l3,2.9c-7.7-1.1-15,0.8-15.4,0.9l-2.3,0.6
		l3.1,3.5l-10.7,1c-5.4-2-11.2-3-16.2-3.2l-3.1-0.3c0.5,0.9,1.5,2.4,2.5,4c-1-0.4-2-0.8-3-1.2c-8.7-3.4-17.8-5.9-27.1-7
		c0.4,0.6,1,1.5,1.6,2.5c-12.6-6.1-27.4-7.3-41.2-6.1l-4.1,0.4l3.4,2.3l1.1,0.8c-10.4-2.3-21.2-3.3-31.8-2.8
		c-5.9,0.2-12.1,1.4-17.9,2.6c1.3,0.6,4.5,2.1,7.8,3.6c-12.1-1.8-24.4-2.5-36.7-1.5c-6.5,0.5-13.1,2-19.4,4.2l3.3,1.6l1.6,0.8
		c-16.8-1.9-35.3-2.2-50.8,2.8l-3.4,1.1c0.8,0.4,2.7,1.3,4.7,2.4c-6.7-0.8-13.5-1.1-20.3-1c-10,0.3-20.1,1.6-29.4,5.4l-3.4,1.3
		c1,0.4,4.6,1.9,8.1,3.4c-14.7-0.3-32.6,0.8-44.3,6.9l-3.2,1.8l3.6,1l5.4,1.5c-4.6,0.6-9,1.6-13.4,3C21.1,44.4,14,48.4,9.8,55.1
		l-1.6,2.5l3-0.3l1.8-0.2c-20,24.6-18.5,45.9,16.1,52.7c15.8,3,32.1,2.5,47.9,0.5c3.9-0.5,7.9-0.8,11.8-1.2
		c11.8-0.9,23.7-1.2,35.5-0.2c7.7,0.7,15.6,1.6,23,4l5.3,1.9l-3.7-4.2c-8-9-22.6-13.2-35.2-15.2l2.3-0.6l3.6-1l-3.3-1.8
		c-2.9-1.5-6-2.6-9.2-3.3c-7.7-1.7-15.5-1.9-23.3-1.2l1.9-1.5l2.3-1.8l-2.9-0.8c-9.5-2.6-19.6-3.5-29.4-2.4c2-1.1,3.9-2.2,4.9-2.8
		c-2.5-0.9-5.6-1.9-8.2-2.4c-3.4-0.6-6.8-0.9-10.2-0.8c0.1-0.3,0.2-0.5,0.4-0.8c1-1.7,4.5-4.6,16.3-5.6c8.3-0.7,24,1.7,43.8,4.7
		c27.3,4.1,63.6,9.5,98.9,9.5c4.9,0,9.8-0.1,14.6-0.3c1.7,1.1,3.5,2.2,5.3,3.1c7.1,3.8,15.5,5.4,23.5,3.9c3.9-0.6,7.6-1.5,11.3-1.8
		c3.6-0.3,7.2,0.3,10.6,1.7l4.2,1.7c-0.5-0.8-2.4-4.1-2.9-4.8c-0.1-0.1-0.2-0.2-0.3-0.3c0.1-0.3,0.3-0.8,0.7-1.2
		c1-0.9,2.9-1.1,5.4-0.7l0-0.1c1.9,0.9,3.8,1.7,5.7,2.5l-0.7-2.8c-0.4-1.6-1.1-3-1.9-4.2c0.8,0,1.9,0,3,0c11.1,0,35.8-0.9,55.3-8.2
		c5.4,4.9,13.1,6.1,20,7.1c9.5,1.4,19.2,2.2,28.8,2.6c4.8,0.3,9.5,0.4,14.1,1.4c5.4,1,10.5,3.8,15.2,6.8l-0.5-2.8
		c0-0.3-0.1-0.5-0.2-0.8c0.3-1.1,0.8-2.5,1.7-3c0.7-0.4,1.7-0.3,3,0.3l0,0l4.2,1.9l-2.2-3.8c-0.2-0.6-0.4-1.1-0.7-1.6
		c-4.4-12.5-10.8-11.3-22.4-12.7c-2.9-0.4-5.8-1-8.6-1.9c0,0-0.1,0-0.1,0c11.6-0.8,31.8-4.1,50-16.7l0,0c1.6-0.2,3.3-0.3,4.9-0.5
		c9.7-0.8,20.1-1.9,28.3-7.7c1.8-1.4,3.7-3.2,4.5-5.5c5.1-1.5,11.3-3.8,11.1-8.9c0.2-0.1,0.3-0.2,0.5-0.3
		C494.1,20.5,486.9,13.7,481.2,12.6z M47,78c2.1,0.2,4.2,0.5,6.2,1c-5.3,3-12.7,7.3-16.8,9.6c3.6-0.9,12.3-3.6,16-4.2
		c9.6-1.6,19.6-1.1,29.1,1.1c-2.7,2.2-6.3,4.9-8.1,6.4l5.6-0.9c3-0.5,6.1-0.7,9.1-0.8c7.6-0.3,15.4,0.2,22.6,2.7
		c0.1,0,0.3,0.1,0.4,0.1c-4.5,1.2-10.2,2.8-13.4,3.7c13.7,1,28.1,2.8,40.4,9.3c1.4,0.8,2.7,1.6,4,2.5c-1.9-0.4-3.8-0.8-5.7-1.1
		c-11.9-1.9-23.9-2.2-35.9-1.8c-8,0.3-15.9,0.9-23.9,1.8c-15.6,1.9-31.5,2.4-47-0.5c-10.5-2.2-23.9-6.4-26.4-18.2
		C2,81.7,4.9,74.5,8.9,68c0.5,1.3,1.4,2.6,2.9,3.7c2.8,2.1,6,3.3,9.3,4.2l-4.8,4.7l-5.5,5.4l7.2-3c6.8-2.7,14.1-4.6,21.5-5.1
		c0,0.1,0,0.1,0.1,0.2l0.4-0.2C42.3,77.8,44.7,77.8,47,78z M486.4,20.9c-1.3,2.2-3.8,2.2-6.3,2.5c-1.3,0.1-2.7,0.3-4.1,0.5
		c-1.4,0.2-2.8,0.6-4.2,1c-2.6,0.8-4.9,2.2-7.4,2.7c-3.7,0.7-7.6-0.2-11.3-1.1c-4-1.2-8.8-1.7-12.8,0.8c-2.3,1.4-4.4,2.4-7.1,2.8
		c-4,0.5-7.9-0.1-11.9-0.6c3.8,1.6,7.9,2.8,12.1,2.7c7.8-0.3,8.9-5.7,17.9-2.9c4.4,1.2,9,2.4,13.7,1.6c2.8-0.5,5.2-1.9,7.8-2.7
		c1.2-0.4,2.5-0.7,3.7-0.8c2.2-0.4,4.6-0.4,6.8-0.8c-0.3,0.7-0.8,1.2-1.6,1.7c-5.1,2.9-11.3,3.8-17,5.4c-4,1-8,1.9-12,2.9
		c-4.6,1.2-10.3,2.7-14.9,3.7c-2,0.3-4,0.7-6,1c-1.7,0.2-4.3,0.5-6,0.5l-3,0.1c-1.7,0-4.4,0-6-0.2c-8.1-0.5-16-2.8-23.8-5
		c8.7,7.5,25,9,36.1,8.3c6.2-0.4,12.5-1.7,18.5-3.3c6.5-1.7,16.3-3.9,23.1-5.8c-0.5,0.5-1.1,1-1.7,1.4c-6.7,4.5-15.1,6-23.1,7.2
		c-3.3,0.4-6.6,0.7-9.8,1.3l0-0.1c0,0-0.1,0.1-0.1,0.1c-5.1,0.9-10,2.3-14.5,4.8c3.2-0.7,6.4-1.2,9.5-1.6
		C406,63.4,378.6,62,378.4,62v0c-2.4-0.6-4.8-1.2-7.3-1.6c2.2-3.2,3.2-8.5,3.5-11.4c-1.9,3.8-4,7.6-7.1,10.6
		c-0.1,0.1-0.2,0.2-0.2,0.3c-5.2-0.7-10.4-0.7-15.5,0.1c11.9,1.9,23.7,4.1,35,8.3c3,1,6,1.7,9.1,2.1c7.5,1.1,12.4,0.2,16.2,3.7
		c-3.1-1.1-6.6-1.2-9.6-0.5c3.9,0.4,8,1.6,11,4.1c-3-0.9-6.4-1.2-9.3-0.9c3,0.8,5.7,2.2,8.4,3.6c-0.7,0.5-1.3,1.3-1.7,2
		c-2.6-2.8-7-4.2-10.7-4.4c1.2,0.5,2.4,1,3.5,1.5c1.7,0.9,3.2,2,4.5,3.4c-0.7-0.4-1.4-0.7-2.1-1.1c-6.7-3.2-14.4-3.7-21.6-4.2
		c-10.7-0.6-21.4-1.5-32.1-3.2c-27.5-4.3-18.6-20-6.1-36.1c-8.5,6.1-19.8,20-12.9,30.4c-25.2,9-58.6,7.6-59,7.5l0,0.3c0,0,0,0,0,0
		c-2.1-5.7-8.1-7.8-13.7-7.9c-2.7-0.1-5.3,0-7.9,0.3c-3.4,0.3-7,1.4-10.3,0c-3.2-1.3-5-4.2-6.9-7.2c-2.5-4.2-4.9-8.8-7.8-13.2
		c-5.7-8.8-13.9-16.5-24.1-19.5c-10-3.1-21.6-1.7-30,4.7c21.5-6.9,38.5-2.5,51,16.9c2.8,4.2,5,8.7,7.5,13.1c4,6.9,8.8,11,17.3,9.5
		c5.4-0.7,13.8-2.3,18.8,0.9c-3.1-0.5-6.4-0.2-9.3,1c6.1,0.1,11.6,1.5,15.2,5.9c-0.2,0-0.3,0-0.5-0.1c-4.4-1.5-9-2.4-13.6-2.7
		c1.5,0.5,2.9,1,4.4,1.5c1.3,0.5,2.6,1,3.9,1.6c-0.7,0.3-1.4,0.6-1.9,1.1c-0.5,0.4-0.9,0.9-1.1,1.4c-1-0.6-2-1.1-3-1.5
		c-2.4-0.9-4.9-1.3-7.3-1.2c2.3,0.6,4.5,1.5,6.4,2.9c0.3,0.2,0.6,0.4,0.9,0.7c-2.1-0.4-4.3-0.6-6.5-0.5c-7.8,0.5-15,3.1-22.6,1.6
		c-7.3-1.3-13.9-5.2-19.9-9.6c-3.2-2.3-6-5.1-9.6-6.9c-7.1-3.6-15.5-4.6-23.2-2.7c8.4,0.7,17,2.1,24,6.9c0.6,0.4,1.6,1.2,2.1,1.7
		c1.7,1.4,3.4,2.8,5.2,4.1c-38.3,1.3-79-4.8-109-9.3c-20-3-35.8-5.4-44.5-4.7c-10.1,0.8-16.3,3.2-18.6,7.1c-0.5,0.8-0.7,1.6-0.8,2.4
		c-5.4,0.4-10.8,1.5-15.9,3.1c1.5-1.5,2.9-2.9,3.8-3.7c-6.2-1.5-21.4-4.8-12.9-13.3c2.8-3.1,8.4-5.9,11.9-8c-2.9,0.2-7.9,0.7-11.8,1
		c3.9-4.5,9.4-7.4,15-9.3c5.1-1.7,10.5-2.7,15.9-3.2c3.4-0.4,12.9-0.3,16.3-0.3c-4.9-1.3-13.9-3.8-20.3-5.6c2.7-1.1,5.5-1.8,8.3-2.5
		C64.9,30,81.3,30.5,97,31.7c-3.9-1.6-11.4-4.8-16.7-7.1c8-2.6,16.4-3.6,24.8-3.9c9.7-0.2,19.5,0.6,29,2.3l10.7,2
		c-3.9-2-11.1-5.5-16.2-8.1c3.5-0.9,7-1.5,10.6-2c17.8-2,36.1,0,53.6,3c-3.5-1.8-10-5-14.7-7.4c3.8-0.9,7.7-1.5,11.6-1.9
		c19.9-1.8,40.2,1.7,59.6,6c-5-2.3-14.5-6.7-21.2-9.8c13.6-2,27.6-0.8,41,2.3c4.4,0.9,11.3,3.3,15.7,4.7c-3-2.1-8.5-5.9-12.7-8.7
		c6.3-0.3,12.7-0.1,18.9,1c7.5,1.4,15,3.6,21.4,7.8l6.3,4.4l-4.1-6.4L313.3,8c1.5,0.3,3.1,0.6,4.6,0.9c9.5,2.2,18.7,6,27.4,10.3
		c-1-1.6-3-4.6-4.5-7.1c9.5,1.5,19,3.6,27.2,8.9c-2.1-2.7-5-4.9-8.2-6.7l11.3-1.1l-3.7-4.2c3.7-0.6,10.7-1.4,16.6,0.9l6.8,2.6
		l-6.9-6.7c3.4,0.2,8.2,0.8,11.1,2.7l2.9,1.9l-1.3-7.2c2.2-0.2,6.9-0.1,13.2,2.1c-1.5,1.6-2.7,3.7-3.3,6c3.5-3.3,7.2-7,12.1-7.6
		c4.6-0.6,9.5,0.6,12.7,3.9c2.3,2.4,4.6,6.4,5.7,7.9c0.2-0.8,0.2-1.6,0.2-2.4c6.1,3.6,13,5.5,19.9,6.3c2.8,0.3,5.6,0.3,8.5,0
		c2.8-0.3,5.7-1.2,8.2-2.6c3.1-1.5,7-1.2,10,0.6c1,0.6,1.9,1.4,2.4,2.2C486.3,20.1,486.5,20.5,486.4,20.9z M428.5,11.6
		c-0.1-1.3-0.5-2.6-1.4-3.7c-1.1-1.4-2.7-2.3-4.5-2.6c-1.8-0.2-3.6,0.3-5,1.4c-0.9,0.7-1.5,1.5-2,2.5c-1.6,1.2-3.5,1.3-3.6,1.3
		c1.4,0.5,2.4,1.6,3,2.6c0.2,1.1,0.6,2.2,1.3,3.2c1.3,1.7,3.3,2.6,5.4,2.6c1.4,0,2.9-0.5,4.1-1.4c1.1-0.8,1.8-1.9,2.3-3.2
		c1.2-1,2.5-1,2.5-1C429.6,12.9,428.9,12.2,428.5,11.6z M424.8,16c-2.2,1.7-5.3,1.3-7-0.9c-0.8-1.1-1.2-2.4-1-3.7
		c0.2-1.3,0.8-2.5,1.9-3.3c0.9-0.7,1.9-1,3-1c0.2,0,0.4,0,0.6,0c1.2,0.2,2.3,0.8,3.1,1.7c-1.4-0.9-3.2-0.9-4.6,0.1
		c-0.1,0.1-0.2,0.1-0.3,0.2c0.6,0.1,1.2,0.4,1.6,0.9c0.8,1.1,0.6,2.6-0.4,3.4c-0.6,0.4-1.3,0.6-1.9,0.5c0.1,0.1,0.2,0.3,0.3,0.4
		c1.3,1.7,3.7,2,5.4,0.7C425.4,15.5,425.1,15.7,424.8,16z M368.6,26.9c1.6,0.7,3.8,1.7,5.5,2.1c0.3,0.1,0.7,0.1,1.1,0.2
		c-0.3-0.4-0.7-0.8-1-1.2c2.6-0.3,5.1-0.9,7.4-2.2C377.2,24.8,372.7,25.8,368.6,26.9z M350.3,27c1.1,1,2.4,2.4,3.8,3.2
		c1,0.6,1,0.6,0.6-0.5c-0.1-0.2-0.2-0.5-0.3-0.7c2.7,0.3,5.5,0.2,8.1-0.7C358.6,26.5,354.3,26.6,350.3,27z M329.3,26.4
		c2.1,1,4.7,2.5,7,2.9c-0.2-0.3-0.4-0.6-0.6-0.8c2.4,0.2,4.9,0,7.3-0.8C338.7,25.6,333.8,25.9,329.3,26.4z M322.5,36.6
		c2.2,1.5,5,1.8,7.4,0.8C327.8,36,325,35.7,322.5,36.6z M323.5,26.1c-3.9-2-8.6-2.1-12.9-1.9c1.8,1.3,3.9,3.1,6.1,3.9
		c-0.2-0.5-0.5-1-0.8-1.5C318.4,26.8,321,26.8,323.5,26.1z M306.1,35c2.2,1.4,5,1.7,7.5,0.7C311.4,34.3,308.6,34,306.1,35z
		 M291.1,22.7c1.9,1.6,3.9,3.4,6.2,4.4c-0.3-0.8-0.7-1.5-1.1-2.1c2.6,0.2,5.2,0,7.6-0.8C299.9,22.4,295.4,22.4,291.1,22.7z
		 M291.9,33.5c2.2,1.4,5,1.7,7.5,0.7C297.1,32.8,294.3,32.5,291.9,33.5z M276.2,32.9c2.3,1.3,5.1,1.5,7.5,0.4
		C281.4,31.9,278.6,31.7,276.2,32.9z M272.6,22.8c1.2,1,2.7,2.2,4.1,2.9c0.3,0.1,0.6,0.3,0.9,0.4c-0.2-0.5-0.5-1-0.7-1.5
		c2.7,0.1,5.5-0.1,8-1.2C281,21.7,276.7,22.1,272.6,22.8z M261.2,33.9c2.3,1.2,5.2,1.2,7.5,0C266.3,32.6,263.5,32.6,261.2,33.9z
		 M252.1,23.4c1.6,0.9,3.5,2.1,5.2,2.7c1.2,0.4,1.2,0.4,0.5-0.6c-0.1-0.2-0.3-0.3-0.4-0.5c2.6-0.1,5.2-0.5,7.6-1.6
		C260.8,21.9,256.3,22.6,252.1,23.4z M246,35.6c2.4,1,5.2,0.8,7.5-0.6C251,34,248.2,34.2,246,35.6z M232.5,25
		c1.9,1.1,4.1,2.5,6.3,3.1c-0.3-0.6-0.7-1.1-1.1-1.6c2.6-0.1,5.2-0.6,7.6-1.8C241.1,23.4,236.7,24.1,232.5,25z M230.5,37.6
		c2.4,1,5.2,0.8,7.5-0.6C235.5,36,232.7,36.2,230.5,37.6z M213.3,26.8c2,1.4,4.1,3.1,6.5,3.9c-0.4-0.8-0.9-1.5-1.4-2.2
		c0,0,0,0-0.1-0.1c2.6-0.2,5.2-0.7,7.6-1.8C221.8,25.4,217.5,26,213.3,26.8z M152.6,36c1.9,1.1,4.1,2.5,6.3,3.1
		c-0.3-0.6-0.7-1.1-1.1-1.6c2.6-0.1,5.2-0.6,7.6-1.8C161.2,34.4,156.8,35.1,152.6,36z M154,46.8c2.5,1,5.3,0.6,7.4-0.8
		C159,45,156.2,45.3,154,46.8z M132.2,39.1c1.3,0.9,2.9,2,4.3,2.6c0.3,0.1,0.6,0.3,0.9,0.4c-0.2-0.5-0.5-1-0.8-1.5
		c2.7,0,5.4-0.5,7.9-1.7C140.6,37.6,136.2,38.2,132.2,39.1z M135.8,48.8c2.5,0.8,5.3,0.4,7.4-1.2C140.7,46.7,138,47.2,135.8,48.8z
		 M118.8,50.3c2.4,1,5.2,0.8,7.5-0.6C123.9,48.6,121,48.9,118.8,50.3z M124.8,41.2c-4-1.3-8.3-0.7-12.3,0.2c1.3,0.9,2.9,2,4.3,2.6
		c0.3,0.1,0.6,0.3,0.9,0.4c-0.2-0.5-0.5-1-0.8-1.5C119.6,42.9,122.3,42.5,124.8,41.2z M98.9,51.1c2.4,1,5.2,0.8,7.5-0.6
		C104,49.5,101.1,49.7,98.9,51.1z M101.8,43.8c-4.1-1.3-8.6-0.6-12.7,0.3c1.9,1.1,4.1,2.5,6.3,3.1c-0.3-0.6-0.7-1.1-1.1-1.6
		C96.8,45.5,99.4,45,101.8,43.8z M78.7,53.7c2.4,1,5.2,0.8,7.5-0.6C83.8,52.1,80.9,52.3,78.7,53.7z M66.3,47.3
		c1.3,0.8,3,1.9,4.5,2.4c0.3,0.1,0.6,0.2,1,0.3c-0.3-0.5-0.6-1-0.9-1.4c2.7-0.2,5.4-0.8,7.8-2.2C74.5,45.3,70.3,46.1,66.3,47.3z
		 M45,54.6c1.5,0.5,3.3,1.1,4.9,1.3c0.3,0,0.7,0.1,1,0.1c-0.4-0.4-0.8-0.8-1.2-1.2c2.6-0.8,5.1-2,7.1-3.9
		C52.5,50.7,48.6,52.5,45,54.6z M27.9,69.1c2.2-0.4,4.7-0.8,6.7-1.9c-0.6-0.2-1.2-0.3-1.9-0.4c1.9-1.8,3.5-3.9,4.5-6.4
		C33.3,62.2,30.4,65.7,27.9,69.1z M37.3,60.5c-4,1.8-6.8,5.3-9.3,8.7c2.2-0.4,4.7-0.8,6.7-1.9c-0.6-0.2-1.2-0.3-1.9-0.4
		C34.6,65,36.3,62.9,37.3,60.5z M49.7,54.7c2.6-0.8,5.1-2,7.1-3.9c-4.2-0.1-8.2,1.7-11.8,3.7c1.5,0.5,3.3,1.1,4.9,1.3
		c0.3,0,0.7,0.1,1,0.1C50.5,55.5,50.1,55.1,49.7,54.7z M78.6,46.4c-4.1-1.1-8.3-0.2-12.3,0.9c1.3,0.8,3,1.9,4.5,2.4
		c0.3,0.1,0.6,0.2,1,0.3c-0.3-0.5-0.6-1-0.9-1.4C73.5,48.3,76.2,47.7,78.6,46.4z M78.7,53.7c2.4,1,5.2,0.8,7.5-0.6
		C83.8,52.1,80.9,52.3,78.7,53.7z M101.8,43.8c-4.1-1.3-8.6-0.6-12.7,0.3c1.9,1.1,4.1,2.5,6.3,3.1c-0.3-0.6-0.7-1.1-1.1-1.6
		C96.8,45.5,99.4,45,101.8,43.8z M98.9,51.1c2.4,1,5.2,0.8,7.5-0.6C104,49.5,101.1,49.7,98.9,51.1z M124.8,41.2
		c-4-1.3-8.3-0.7-12.3,0.2c1.3,0.9,2.9,2,4.3,2.6c0.3,0.1,0.6,0.3,0.9,0.4c-0.2-0.5-0.5-1-0.8-1.5C119.6,42.9,122.3,42.5,124.8,41.2
		z M118.8,50.3c2.4,1,5.2,0.8,7.5-0.6C123.9,48.6,121,48.9,118.8,50.3z M135.8,48.8c2.5,0.8,5.3,0.4,7.4-1.2
		C140.7,46.7,138,47.2,135.8,48.8z M144.6,38.9c-4-1.3-8.3-0.7-12.3,0.2c1.3,0.9,2.9,2,4.3,2.6c0.3,0.1,0.6,0.3,0.9,0.4
		c-0.2-0.5-0.5-1-0.8-1.5C139.4,40.6,142.1,40.1,144.6,38.9z M154,46.8c2.5,1,5.3,0.6,7.4-0.8C159,45,156.2,45.3,154,46.8z
		 M165.4,35.7c-4.1-1.3-8.6-0.6-12.7,0.3c1.9,1.1,4.1,2.5,6.3,3.1c-0.3-0.6-0.7-1.1-1.1-1.6C160.4,37.3,163,36.8,165.4,35.7z
		 M218.4,28.4c2.6-0.2,5.2-0.7,7.6-1.8c-4.1-1.2-8.5-0.6-12.6,0.1c2,1.4,4.1,3.1,6.5,3.9C219.4,29.9,218.9,29.2,218.4,28.4
		C218.4,28.5,218.4,28.4,218.4,28.4z M230.5,37.6c2.4,1,5.2,0.8,7.5-0.6C235.5,36,232.7,36.2,230.5,37.6z M245.3,24.7
		c-4.1-1.3-8.6-0.6-12.7,0.3c1.9,1.1,4.1,2.5,6.3,3.1c-0.3-0.6-0.7-1.1-1.1-1.6C240.3,26.3,242.9,25.8,245.3,24.7z M246,35.6
		c2.4,1,5.2,0.8,7.5-0.6C251,34,248.2,34.2,246,35.6z M257.4,24.9c2.6-0.1,5.2-0.5,7.6-1.6c-4.1-1.4-8.7-0.8-12.9,0
		c1.6,0.9,3.5,2.1,5.2,2.7c1.2,0.4,1.2,0.4,0.5-0.6C257.6,25.3,257.5,25.1,257.4,24.9z M261.2,33.9c2.3,1.2,5.2,1.2,7.5,0
		C266.3,32.6,263.5,32.6,261.2,33.9z M284.9,23.3c-3.9-1.6-8.3-1.3-12.3-0.6c1.2,1,2.7,2.2,4.1,2.9c0.3,0.1,0.6,0.3,0.9,0.4
		c-0.2-0.5-0.5-1-0.7-1.5C279.6,24.7,282.4,24.4,284.9,23.3z M276.2,32.9c2.3,1.3,5.1,1.5,7.5,0.4C281.4,31.9,278.6,31.7,276.2,32.9
		z M291.9,33.5c2.2,1.4,5,1.7,7.5,0.7C297.1,32.8,294.3,32.5,291.9,33.5z M303.8,24.1c-4-1.8-8.5-1.7-12.7-1.5
		c1.9,1.6,3.9,3.4,6.2,4.4c-0.3-0.8-0.7-1.5-1.1-2.1C298.8,25.1,301.4,24.9,303.8,24.1z M306.1,35c2.2,1.4,5,1.7,7.5,0.7
		C311.4,34.3,308.6,34,306.1,35z M323.5,26.1c-3.9-2-8.6-2.1-12.9-1.9c1.8,1.3,3.9,3.1,6.1,3.9c-0.2-0.5-0.5-1-0.8-1.5
		C318.4,26.8,321,26.8,323.5,26.1z M322.5,36.6c2.2,1.5,5,1.8,7.4,0.8C327.8,36,325,35.7,322.5,36.6z M342.9,27.6
		c-4.2-2-9.1-1.6-13.6-1.2c2.1,1,4.7,2.5,7,2.9c-0.2-0.3-0.4-0.6-0.6-0.8C338.1,28.6,340.6,28.4,342.9,27.6z M362.4,28.3
		c-3.8-1.8-8.1-1.7-12.2-1.3c1.1,1,2.4,2.4,3.8,3.2c1,0.6,1,0.6,0.6-0.5c-0.1-0.2-0.2-0.5-0.3-0.7C357,29.3,359.8,29.2,362.4,28.3z
		 M381.5,25.9c-4.3-1.1-8.8-0.1-12.9,1c1.6,0.7,3.8,1.7,5.5,2.1c0.3,0.1,0.7,0.1,1.1,0.2c-0.3-0.4-0.7-0.8-1-1.2
		C376.7,27.8,379.2,27.2,381.5,25.9z M428.5,11.6c-0.1-1.3-0.5-2.6-1.4-3.7c-1.1-1.4-2.7-2.3-4.5-2.6c-1.8-0.2-3.6,0.3-5,1.4
		c-0.9,0.7-1.5,1.5-2,2.5c-1.6,1.2-3.5,1.3-3.6,1.3c1.4,0.5,2.4,1.6,3,2.6c0.2,1.1,0.6,2.2,1.3,3.2c1.3,1.7,3.3,2.6,5.4,2.6
		c1.4,0,2.9-0.5,4.1-1.4c1.1-0.8,1.8-1.9,2.3-3.2c1.2-1,2.5-1,2.5-1C429.6,12.9,428.9,12.2,428.5,11.6z M424.8,16
		c-2.2,1.7-5.3,1.3-7-0.9c-0.8-1.1-1.2-2.4-1-3.7c0.2-1.3,0.8-2.5,1.9-3.3c0.9-0.7,1.9-1,3-1c0.2,0,0.4,0,0.6,0
		c1.2,0.2,2.3,0.8,3.1,1.7c-1.4-0.9-3.2-0.9-4.6,0.1c-0.1,0.1-0.2,0.1-0.3,0.2c0.6,0.1,1.2,0.4,1.6,0.9c0.8,1.1,0.6,2.6-0.4,3.4
		c-0.6,0.4-1.3,0.6-1.9,0.5c0.1,0.1,0.2,0.3,0.3,0.4c1.3,1.7,3.7,2,5.4,0.7C425.4,15.5,425.1,15.7,424.8,16z M428.5,11.6
		c-0.1-1.3-0.5-2.6-1.4-3.7c-1.1-1.4-2.7-2.3-4.5-2.6c-1.8-0.2-3.6,0.3-5,1.4c-0.9,0.7-1.5,1.5-2,2.5c-1.6,1.2-3.5,1.3-3.6,1.3
		c1.4,0.5,2.4,1.6,3,2.6c0.2,1.1,0.6,2.2,1.3,3.2c1.3,1.7,3.3,2.6,5.4,2.6c1.4,0,2.9-0.5,4.1-1.4c1.1-0.8,1.8-1.9,2.3-3.2
		c1.2-1,2.5-1,2.5-1C429.6,12.9,428.9,12.2,428.5,11.6z M424.8,16c-2.2,1.7-5.3,1.3-7-0.9c-0.8-1.1-1.2-2.4-1-3.7
		c0.2-1.3,0.8-2.5,1.9-3.3c0.9-0.7,1.9-1,3-1c0.2,0,0.4,0,0.6,0c1.2,0.2,2.3,0.8,3.1,1.7c-1.4-0.9-3.2-0.9-4.6,0.1
		c-0.1,0.1-0.2,0.1-0.3,0.2c0.6,0.1,1.2,0.4,1.6,0.9c0.8,1.1,0.6,2.6-0.4,3.4c-0.6,0.4-1.3,0.6-1.9,0.5c0.1,0.1,0.2,0.3,0.3,0.4
		c1.3,1.7,3.7,2,5.4,0.7C425.4,15.5,425.1,15.7,424.8,16z M381.5,25.9c-4.3-1.1-8.8-0.1-12.9,1c1.6,0.7,3.8,1.7,5.5,2.1
		c0.3,0.1,0.7,0.1,1.1,0.2c-0.3-0.4-0.7-0.8-1-1.2C376.7,27.8,379.2,27.2,381.5,25.9z M362.4,28.3c-3.8-1.8-8.1-1.7-12.2-1.3
		c1.1,1,2.4,2.4,3.8,3.2c1,0.6,1,0.6,0.6-0.5c-0.1-0.2-0.2-0.5-0.3-0.7C357,29.3,359.8,29.2,362.4,28.3z M342.9,27.6
		c-4.2-2-9.1-1.6-13.6-1.2c2.1,1,4.7,2.5,7,2.9c-0.2-0.3-0.4-0.6-0.6-0.8C338.1,28.6,340.6,28.4,342.9,27.6z M322.5,36.6
		c2.2,1.5,5,1.8,7.4,0.8C327.8,36,325,35.7,322.5,36.6z M323.5,26.1c-3.9-2-8.6-2.1-12.9-1.9c1.8,1.3,3.9,3.1,6.1,3.9
		c-0.2-0.5-0.5-1-0.8-1.5C318.4,26.8,321,26.8,323.5,26.1z M306.1,35c2.2,1.4,5,1.7,7.5,0.7C311.4,34.3,308.6,34,306.1,35z
		 M303.8,24.1c-4-1.8-8.5-1.7-12.7-1.5c1.9,1.6,3.9,3.4,6.2,4.4c-0.3-0.8-0.7-1.5-1.1-2.1C298.8,25.1,301.4,24.9,303.8,24.1z
		 M291.9,33.5c2.2,1.4,5,1.7,7.5,0.7C297.1,32.8,294.3,32.5,291.9,33.5z M276.2,32.9c2.3,1.3,5.1,1.5,7.5,0.4
		C281.4,31.9,278.6,31.7,276.2,32.9z M284.9,23.3c-3.9-1.6-8.3-1.3-12.3-0.6c1.2,1,2.7,2.2,4.1,2.9c0.3,0.1,0.6,0.3,0.9,0.4
		c-0.2-0.5-0.5-1-0.7-1.5C279.6,24.7,282.4,24.4,284.9,23.3z M261.2,33.9c2.3,1.2,5.2,1.2,7.5,0C266.3,32.6,263.5,32.6,261.2,33.9z
		 M257.4,24.9c2.6-0.1,5.2-0.5,7.6-1.6c-4.1-1.4-8.7-0.8-12.9,0c1.6,0.9,3.5,2.1,5.2,2.7c1.2,0.4,1.2,0.4,0.5-0.6
		C257.6,25.3,257.5,25.1,257.4,24.9z M246,35.6c2.4,1,5.2,0.8,7.5-0.6C251,34,248.2,34.2,246,35.6z M245.3,24.7
		c-4.1-1.3-8.6-0.6-12.7,0.3c1.9,1.1,4.1,2.5,6.3,3.1c-0.3-0.6-0.7-1.1-1.1-1.6C240.3,26.3,242.9,25.8,245.3,24.7z M230.5,37.6
		c2.4,1,5.2,0.8,7.5-0.6C235.5,36,232.7,36.2,230.5,37.6z M218.4,28.4c2.6-0.2,5.2-0.7,7.6-1.8c-4.1-1.2-8.5-0.6-12.6,0.1
		c2,1.4,4.1,3.1,6.5,3.9C219.4,29.9,218.9,29.2,218.4,28.4C218.4,28.5,218.4,28.4,218.4,28.4z M165.4,35.7
		c-4.1-1.3-8.6-0.6-12.7,0.3c1.9,1.1,4.1,2.5,6.3,3.1c-0.3-0.6-0.7-1.1-1.1-1.6C160.4,37.3,163,36.8,165.4,35.7z M154,46.8
		c2.5,1,5.3,0.6,7.4-0.8C159,45,156.2,45.3,154,46.8z M144.6,38.9c-4-1.3-8.3-0.7-12.3,0.2c1.3,0.9,2.9,2,4.3,2.6
		c0.3,0.1,0.6,0.3,0.9,0.4c-0.2-0.5-0.5-1-0.8-1.5C139.4,40.6,142.1,40.1,144.6,38.9z M135.8,48.8c2.5,0.8,5.3,0.4,7.4-1.2
		C140.7,46.7,138,47.2,135.8,48.8z M118.8,50.3c2.4,1,5.2,0.8,7.5-0.6C123.9,48.6,121,48.9,118.8,50.3z M124.8,41.2
		c-4-1.3-8.3-0.7-12.3,0.2c1.3,0.9,2.9,2,4.3,2.6c0.3,0.1,0.6,0.3,0.9,0.4c-0.2-0.5-0.5-1-0.8-1.5C119.6,42.9,122.3,42.5,124.8,41.2
		z M98.9,51.1c2.4,1,5.2,0.8,7.5-0.6C104,49.5,101.1,49.7,98.9,51.1z M101.8,43.8c-4.1-1.3-8.6-0.6-12.7,0.3
		c1.9,1.1,4.1,2.5,6.3,3.1c-0.3-0.6-0.7-1.1-1.1-1.6C96.8,45.5,99.4,45,101.8,43.8z M78.7,53.7c2.4,1,5.2,0.8,7.5-0.6
		C83.8,52.1,80.9,52.3,78.7,53.7z M78.6,46.4c-4.1-1.1-8.3-0.2-12.3,0.9c1.3,0.8,3,1.9,4.5,2.4c0.3,0.1,0.6,0.2,1,0.3
		c-0.3-0.5-0.6-1-0.9-1.4C73.5,48.3,76.2,47.7,78.6,46.4z M49.7,54.7c2.6-0.8,5.1-2,7.1-3.9c-4.2-0.1-8.2,1.7-11.8,3.7
		c1.5,0.5,3.3,1.1,4.9,1.3c0.3,0,0.7,0.1,1,0.1C50.5,55.5,50.1,55.1,49.7,54.7z M37.3,60.5c-4,1.8-6.8,5.3-9.3,8.7
		c2.2-0.4,4.7-0.8,6.7-1.9c-0.6-0.2-1.2-0.3-1.9-0.4C34.6,65,36.3,62.9,37.3,60.5z"/>
</g>
</svg>
