<?xml version="1.0" encoding="utf-8"?>
<!-- Generator: Adobe Illustrator 28.3.0, SVG Export Plug-In . SVG Version: 6.00 Build 0)  -->
<svg version="1.1" id="elephant" xmlns="http://www.w3.org/2000/svg" xmlns:xlink="http://www.w3.org/1999/xlink" x="0px" y="0px"
	 viewBox="0 0 490 326.776" enable-background="new 0 0 490 326.776" xml:space="preserve">
<g id="elephant_00000003094879372504474210000016303349150073229722_">
	<g>
		<path fill="#A3A3A3" d="M453.514,124.26c-0.402-19.763-5.595-39.557-14.274-57.26c-12.434-24.699-35.13-39.086-62.303-42.49
			c-13.093-1.746-26.438-1.206-39.513,0.641c-13.326,1.601-25.779,5.997-39.055,8.264c3.655-2.418,7.643-4.138,11.75-5.514
			c-1.011,0.019-2.047,0.031-3.096,0.031c-8.534,0-18.136-0.678-25.12-3.102c-11.436-3.975-27.28-7.153-35.758-8.698
			c2.55,2.154,4.911,4.534,7.034,7.115c6.619,8.503,10.946,19.399,9.96,30.363c-0.59,7.322-3.762,14.324-8.283,20.026
			c-4.289,5.646-10.268,9.885-15.518,14.35c-2.562,2.248-5.03,4.597-7.391,7.052c-9.79,9.91-16.566,22.005-26.024,32.398
			c-5.47,5.916-12.302,10.676-19.794,13.665c-3.931,1.658-7.957,2.933-11.963,2.744c3.856,5.916,12.164,19.273,22.25,39.218
			c-0.565-3.291-1.199-6.562-1.953-9.803c-0.948-3.868-1.928-7.624-1.846-11.894c2.776,3.278,3.956,7.247,4.867,11.178
			c0.942,3.938,1.727,7.906,2.405,11.888c3.875,23.864,5.018,48.098,4.05,72.25c-0.132,4.025-0.597,8.126-1.118,12.12
			c-1.539,11.869-3.649,23.788-4.565,35.663c-0.063,0.973-0.126,1.966-0.169,2.97c2.06-0.082,4.873,0.264,7.203,2.223
			c1.162,0.98,2.066,2.248,2.713,3.787c0.992-1.57,2.305-2.656,3.868-3.152c2.198-0.685,4.503-0.006,6.179,1.827
			c2.851,3.109,3.473,10.123,3.561,11.285c2.989,0.019,5.752-0.094,7.913-0.257c3.912-0.32,7.837-0.848,11.517-1.884
			c1.557-0.44,3.554-1.137,4.641-2.148c0.207-0.188,0.276-0.383,0.358-0.628c0.301-1.174,0.107-2.43-0.1-3.724
			c-0.546-3.222-2.047-8.252-2.87-11.524c-3.127-11.725-5.099-23.826-5.225-35.984c-0.201-12.17,1.432-24.272,4.038-36.128
			c4.39-19.518,11.21-38.408,13.533-58.321c1.243-7.969,1.08-15.919,3.586-23.738c1.984,8.095,0.791,16.164,0.063,24.196
			c-1.375,13.282-4.961,26.25-8.729,39.029c5.815,0.207,25.785,1.482,53.278,9.282c29.252,8.302,62.052-1.118,69.085-3.347
			c-2.725-14.601-3.655-29.453-1.155-44.261c1.017-6.694,2.7-13.382,6.362-19.229c-0.559,6.851-2.054,13.2-3.109,19.731
			c-1.005,6.519-1.394,13.125-1.3,19.719c0.258,19.957,5.997,39.325,12.089,58.246c0.867,2.807,2.141,6.87,2.864,9.728
			c2.6,10.004,2.248,20.742-0.239,30.677c-1.099,4.923-2.914,9.721-4.145,14.594c2.06-0.082,4.886,0.264,7.216,2.223
			c1.168,0.98,2.066,2.248,2.719,3.787c0.992-1.57,2.305-2.656,3.868-3.152c2.192-0.685,4.503-0.006,6.179,1.827
			c2.393,2.619,3.215,7.988,3.466,10.324c5.162-0.377,10.305-1.112,15.386-2.066c4.371-0.766,8.698-2.211,8.855-7.291
			c0.239-4.779-1.049-9.552-2.047-14.306c-1.488-6.493-3.058-13.031-4.396-19.618c-2.016-9.91-3.661-19.863-4.704-29.93
			c-2.311-24.196,10.318-46.076,19.53-67.49C448.176,163.628,453.96,144.217,453.514,124.26z M365.332,218.483
			c-5.865,2.273-12.158,3.278-18.356,4.17c-10.914,1.313-22.005,1.086-32.875-0.458c-6.173-0.992-12.629-1.62-18.124-4.854
			c6.336-0.038,12.246,1.526,18.469,2.135c6.123,0.666,12.277,1.061,18.425,1.068c9.213,0.057,18.45-0.728,27.443-2.769
			c3.002-0.672,5.953-1.419,9.194-1.583C368.208,217.114,366.801,217.887,365.332,218.483z M437.827,175.008
			c6.487-16.956,11.605-34.822,11.429-53.109c-0.107-3.636-0.289-7.222-0.044-11.009c1.532,3.466,2.11,7.216,2.298,10.933
			c0.779,18.639-4.038,37.114-11.147,54.208c-2.97,6.795-5.633,13.835-10.682,19.449
			C431.735,188.302,435.227,181.928,437.827,175.008z"/>
		<path fill="#A3A3A3" d="M113.748,262.593c-0.075-0.76-0.421-1.683-0.685-1.802c-0.063-0.031-0.509-0.006-1.388,0.666
			c-0.201,0.151-0.477,0.477-0.779,0.823c-1.287,1.507-3.429,4.025-8.34,3.749c-2.418-0.144-4.226-1.495-5.551-2.487
			c-0.527-0.396-1.419-1.043-1.702-1.049c0,0.006-0.163,0.069-0.471,0.477c-0.659,0.892-0.245,4.967,0.063,7.944
			c0.628,6.192,1.281,12.591-2.154,15.317c-1.721,1.363-4.157,1.513-7.241,0.452c-14.4-4.967-8.484-34.904-0.986-59.144
			c4.427-14.312,5.112-31.82,5.168-40.091c-6.833,8.082-15.926,16.742-27.606,24.014c0.188,8.905-0.245,18.136-0.678,27.073
			c-0.747,15.605-1.451,30.351,1.13,41.95c2.807,12.623,9.175,19.643,20.045,22.086c7.825,1.758,14.299,0.578,19.248-3.517
			C114.193,288.837,113.773,263.736,113.748,262.593z M97.357,300.216c-5.796,3.052-13.037,2.311-18.683-0.615
			c-2.832-1.4-5.627-3.09-7.121-6.029c3.014,0.892,5.432,2.393,8.233,3.554c6.713,2.807,14.111,2.87,20.221-1.338
			c1.331-0.741,2.55-1.57,3.988-2.217C102.833,296.624,100.246,298.79,97.357,300.216z M96.961,266.11
			c3.51,1.13,7.021,2.116,10.519,0.829c1.237-0.358,2.298-1.011,3.542-1.526C108.604,271.416,100.108,271.473,96.961,266.11z"/>
		<path fill="#A3A3A3" d="M250.096,25.653c-8.459-10.362-21.056-17.251-34.2-19.461C202.451,4,188.729,7.203,176.622,13.219
			c-6.248,3.002-11.693,7.329-18.293,9.652c3.115-4.371,7.63-7.373,12.208-10.004c6.173-3.548,12.792-6.475,19.681-8.396
			c-5.2-0.804-12.867-1.57-22.13-1.262c-16.164,0.546-40.643,4.584-65.424,20.736c-19.248,12.547-32.498,45.831-38.32,96.252
			c-3.774,32.643-3.291,62.861-3.052,71.346c13.087-11.429,24.762-25.352,29.641-41.139l0.333-1.074l1.13-0.031
			c0.1,0,10.337-0.308,18.846-5.237l3.454-1.997l-1.168,3.812c-0.019,0.082-0.107,0.358-0.251,0.791
			c0.22-0.132,0.44-0.257,0.659-0.396c6.544-3.931,10.431-10.933,12.239-18.23c0.791-3.19,0.973-6.154,2.581-9.219
			c1.325,2.273,1.413,4.923,1.074,7.448c-0.32,2.493-0.804,4.961-1.583,7.366c-0.408,1.325-0.923,2.619-1.526,3.875
			c4.358-2.393,7.341-6.581,9.03-11.624c0.76-2.305,1.476-4.603,2.725-7.065c0.98,2.468,0.842,5.099,0.245,7.611
			c6.751-3.391,12.528-3.554,16.158-3.109c-2.148-6.971-3.178-14.456-3.881-20.416c-0.697-6.971-1.331-14.136,0.71-20.956
			c1.344,5.093,1.79,10.249,2.179,15.461c0.71,8.484,1.94,17.094,4.521,25.145c3.404,10.651,10.079,21.22,22.702,16.309
			c16.836-5.696,24.554-16.548,34.508-30.395c4.107-5.627,8.472-11.178,13.351-16.277c4.722-5.049,10.381-9.702,15.681-13.954
			C262.166,63.59,263.805,43.714,250.096,25.653z M115.223,82.31c0.107,1.149-0.056,2.317-0.484,3.423
			c-0.735,1.884-2.154,3.366-4.006,4.182c-0.973,0.427-2.01,0.641-3.046,0.641c-0.923,0-1.853-0.17-2.744-0.515
			c-1.388-0.546-2.562-1.463-3.404-2.65c-0.735-0.358-1.809-0.653-3.09-0.333c0,0,1.319-0.823,1.821-2.594c0,0,0,0,0-0.006
			c-0.283-1.4-0.163-2.845,0.364-4.208c1.513-3.887,5.909-5.821,9.79-4.308c1.193,0.465,2.223,1.199,3.027,2.154
			c0,0,0,0,0.006,0.006c1.118,0.565,2.776,1.137,4.553,0.766C118.011,78.869,116.027,80.037,115.223,82.31z M184.296,135.086
			c-5.087,4.936-13.106,4.408-17.91-0.641c-1.658-1.664-2.964-3.699-3.397-6.035c6.28,5.401,10.644,9.213,19.254,6.355l1.564-0.49
			C185.702,133.629,185.721,133.567,184.296,135.086z M235.539,81.94c3.347-3.529,8.34-8.17,11.21-12.007
			c7.197-9.231,9.866-20.755,5.765-31.87c-1.645-4.521-4.032-8.654-6.066-13.031c3.799,3.253,6.644,7.486,8.484,12.114
			c2.449,6.041,3.247,12.817,1.777,19.21C254.417,66.573,245.38,78.235,235.539,81.94z"/>
	</g>
	<g>
		<path fill="#D6D6D6" d="M223.359,29.701c4.679,2.822,8.688,7.289,9.545,12.686c0.548,3.453-0.539,7.216-2.784,9.816
			c-1.28,1.482-3.565,1.236-4.689-0.367c-0.286-0.407-0.664-0.748-1.108-0.957c-1.598-0.754-3.517-0.239-5.067,0.611
			c-1.678,0.921-3.215,2.333-3.693,4.187s0.455,4.132,2.3,4.644c1.134,0.315,2.531,0.005,3.36,0.841
			c0.601,0.605,0.63,1.587,0.557,2.41c-0.147,1.637-0.668,3.234-1.568,4.609c-2.807,4.289-12.414,9.656-12.504,6.059l0,0
			c-0.253-2.066-2.596-3.144-4.327-1.989c-2.28,1.522-4.19,3.601-5.476,6.022c-0.982,1.848-1.612,4.031-1.006,6.034
			c0.348,1.149,1.219,2.166,2.275,2.703c1.21,0.615,1.787,2.02,1.309,3.291c-0.691,1.839-1.362,3.686-2.27,5.426
			c-2.512,4.81-7.086,8.735-12.454,9.527s-11.326-2.095-13.237-7.174c-1.422-3.78-0.526-8.072,1.172-11.736
			s4.149-6.926,6.038-10.496c2.729-5.158,4.25-10.95,4.408-16.783c0.132-4.863-0.667-9.729-0.338-14.582
			C185.055,25.969,209.747,21.491,223.359,29.701z"/>
		<path fill="#D6D6D6" d="M109.226,148.587c-2.474,6.412-8.66,20.397-20.07,34.571c-13.131,16.309-35.883,35.99-71.377,40.951
			c0.003,0,0.003-0.003,0.006-0.003c0.587-0.129,38.279-8.522,60.56-33.365c17.474-19.483,25.521-35.12,28.231-41.099
			C107.452,149.328,108.34,148.977,109.226,148.587z"/>
		<path fill="#D6D6D6" d="M111.022,147.017c0,0-10.356,30.932-29.299,46.722c-18.943,15.791-48,33.732-63.945,30.37
			c0.003,0,0.003-0.003,0.006-0.003c0.587-0.129,38.279-8.522,60.56-33.365c17.474-19.483,25.521-35.12,28.231-41.099
			c0.772-1.705,1.112-2.625,1.112-2.625L111.022,147.017L111.022,147.017z"/>
		<path fill="#D6D6D6" d="M450.807,100.635c-0.509-0.025-1.017-0.069-1.526-0.144c-6.933-1.005-12.93-6.343-15.16-12.98
			c-1.112-3.322-1.375-6.939-2.92-10.092s-5.074-5.809-8.409-4.716c-3.699,1.206-4.32,7.26-0.955,9.2
			c-1.589,3.868-7.404,4.295-10.701,1.721c-3.297-2.581-4.591-6.927-5.376-11.034c-0.779-4.113-1.306-8.446-3.649-11.913
			c-2.349-3.467-7.266-5.646-10.82-3.435c-2.638,1.639-3.586,4.98-4.057,8.051s-0.76,6.368-2.7,8.792
			c-1.941,2.424-6.292,3.146-7.938,0.515c2.28-3.58-3.058-8.365-6.858-6.468c-3.793,1.89-4.314,7.592-1.821,11.021
			c2.499,3.429,6.958,4.867,11.191,5.15c4.233,0.283,8.478-0.37,12.71-0.132c4.898,0.27,9.891,1.859,13.357,5.325
			c3.466,3.467,5.049,9.031,3.002,13.489c-3.266,7.109-14.249,7.687-20.008,2.386c-1.4-1.287-2.569-2.813-4.038-4.025
			c-5.3-4.377-13.163-3.674-19.669-1.457c-6.506,2.211-12.71,5.715-19.562,6.292c-9.998,0.842-19.643-4.867-26.08-12.56
			c-3.071-3.667-5.627-7.85-9.407-10.783s-9.351-4.314-13.32-1.645c-1.866,1.255-2.82,3.574-2.827,5.806
			c-0.011,3.48-3.519,5.903-6.698,4.488c-5.101-2.27-9.891-6.596-13.059-10.673c-6.214-7.996-9.783-18.583-10.373-27.202
			c-1.9-27.735-21.993-39.188-21.993-39.188c8.252,1.708,32.82,7.65,40.757,10.407c6.983,2.424,16.585,3.102,25.12,3.102
			c1.049,0,2.085-0.013,3.096-0.031c-4.107,1.375-8.095,3.096-11.75,5.514c13.276-2.267,25.729-6.663,39.055-8.264
			c13.075-1.846,26.419-2.386,39.513-0.641C404.11,27.914,426.806,42.301,439.24,67C444.439,77.613,448.39,88.973,450.807,100.635z"
			/>
	</g>
	<g>
		<path fill="#666666" d="M487.601,250.051c-0.169-2.946-0.661-5.854-1.463-8.648c-2.836-9.797-8.894-19.211-17.461-27.167
			c-13.446-14.729-15.552-36.692-15.884-54.18l-0.124-6.504l-1.835,6.24c-0.433,1.469-0.851,2.812-1.28,4.113
			c-0.731,2.272-1.541,4.599-2.408,6.914l-0.082,0.219l0.023,0.232c2.24,22.114,7.158,30.839,10.764,37.236
			c2.222,3.954,4.14,7.368,4.493,12.58c1.014,14.938,5.146,20.789,8.434,23.066c0.767,0.532,1.566,0.929,2.445,1.211l2.649,0.851
			l-1.502-2.343c-0.781-1.218-1.437-2.486-1.957-3.795c1.256,1.577,2.569,3.167,4.027,4.68c3.142,3.121,6.461,5.243,9.864,6.306
			l1.379,0.432L487.601,250.051z"/>
		<path fill="#666666" d="M119.656,78.176c-2.076,0.433-4.013-0.235-5.319-0.895c-0.007-0.007-0.007-0.007-0.007-0.007
			c-0.939-1.115-2.142-1.973-3.536-2.516c-4.534-1.768-9.669,0.492-11.437,5.032c-0.616,1.592-0.756,3.279-0.425,4.915
			c0,0.007,0,0.007,0,0.007c-0.587,2.069-2.127,3.03-2.127,3.03c1.497-0.374,2.751-0.029,3.609,0.389
			c0.983,1.386,2.355,2.457,3.976,3.096c1.042,0.403,2.127,0.602,3.206,0.602c1.211,0,2.421-0.249,3.558-0.748
			c2.164-0.954,3.822-2.685,4.68-4.886c0.499-1.291,0.69-2.655,0.565-3.998C117.338,79.54,119.656,78.176,119.656,78.176z"/>
		<path fill="#666666" d="M250.121,209.951c0,0,21.448,1.252,34.572,4.541c14.613,3.662,50.535,14.776,88.164,1.005l1.342,3.682
			c0,0-22.12,7.178-37.648,7.178c-15.528,0-43.801-5.42-43.801-5.42s-35.158-9.375-44.973-6.592L250.121,209.951z"/>
		<path fill="#666666" d="M254.649,192.564v-14.179c0,0-10.946,37.806-13.857,50.533c-2.524,11.038-10.803,40.699,1.954,83.229
			c0.83,2.766-0.736,5.7-3.502,6.532c-3.621,1.09-9.553,2.179-18.742,2.128c-1.218-0.007,1.782,4.535,1.782,4.535
			c18.93,0,23.898-4.432,25.175-7.093l0,0l0,0c0.548-1.142,0.417-1.958,0.417-1.958l-0.866-1.728
			c-0.653-4.328-2.206-12.33-5.804-23.28c-5.601-17.048,0.416-50.933,0.416-50.933L254.649,192.564z"/>
		<path fill="#666666" d="M445.938,172.383c6.831-16.719,14.759-56.866,4.802-72.082c0,0,7.951,43.32-22.397,102.176
			c-23.062,44.726-0.504,79.235,0.197,108.801c0.052,2.175-1.265,4.18-3.314,4.912c-8.208,2.932-19.433,2.813-19.433,2.813v5.123
			h9.392c17.937-2.508,19.003-9.317,18.483-12.439c0.129-3.362-0.33-9.072-2.691-18.455c-4.629-18.395-9.52-44.872-8.19-58.457
			C424.521,217.067,432.413,205.481,445.938,172.383z"/>
		<path fill="#666666" d="M114.696,142.063c0,0,12.532-12.388,14.777-21.653l-2.616,13.057c0,0,8.946-3.881,11.621-14.646v4.618
			c0,0,9.372-4.162,16.973-2.715l1.81,4.981c0,0-15.056-1-21.282,3.705c0,0-5.288,9.805-12.922,10.859c0,0-5.757,7.948-11.023,8.317
			L114.696,142.063z"/>
		<polygon fill="#666666" points="176.397,142.786 196.38,176.536 197.713,187.448 172.178,142.786 		"/>
		<path fill="#666666" d="M246.146,16.133c0,0,31.113,25.812,15.379,52.902c-8.645,14.884-23.963,20.401-35.261,36.399
			c-14.318,20.273-29.86,39.449-49.949,40.06l-2.169-2.708c0,0,17.994-1.181,29.596-15.286s21.617-28.66,27.754-34.579
			C237.955,86.692,284.274,58.571,246.146,16.133z"/>
		<path fill="#666666" d="M88.08,187.867c0,0-0.112,23.975-5.209,39.706c-7.409,22.87-12.756,53.491-0.648,59.283
			c14.038,6.715,15.007-4.933,14.254-11.446c-0.754-6.513-4.216-17.573-4.414-8.494c0,0,5.05,19.244-3.158,19.341
			c-11.577,0.137-13.807-22.062-1.673-62.147c0,0,5.221-30.773,3.645-38.546L88.08,187.867z"/>
	</g>
	<g>
		<path fill="#FFFFFF" d="M63.001,191.937c0,0-1.384-73.918,11.298-116.51c4.419-14.839,10.944-33.075,22.223-44.237
			C114.142,13.752,154.881,0,189.458,6.28l8.254-1.91c0,0-40.97-8.738-71.059,5.731S83.669,32.787,75.55,60.488
			S53.751,159.591,60.71,193.74L63.001,191.937z"/>
		<path fill="#FFFFFF" d="M63.797,208.795c0,0-0.425,16.036-0.904,34.51c-0.507,19.556,0.195,43.356,6.994,52.751
			c0,0-6.352-3.453-9.177-14.948s-0.705-50.186-0.705-50.186l0.705-19.901L63.797,208.795z"/>
		<path fill="#FFFFFF" d="M94.585,262.422c0,0,1.379,4.129,9.41,6.188c0,0,7.479-0.759,9.76-8.127l-2.732-0.759
			c0,0-2.82,5.635-7.03,5.201c-4.21-0.433-7.894-3.576-7.894-3.576L94.585,262.422z"/>
		<path fill="#FFFFFF" d="M158.328,22.871c0,0,34.233-18.657,56.885-14.995c25.894,4.186,41.548,24.167,42.233,42.203
			C258.22,70.47,233.004,81.939,221,98.3c-6.634,9.041-25.924,38.116-39.564,40.955l-7.29,3.53
			c17.269,2.616,41.537-30.445,41.537-30.445s18.905-25.058,32.373-34.182c13.469-9.124,14.101-32.127,14.101-32.127
			S251.697,1.26,202.425,3.139C202.425,3.139,170.11,10.997,158.328,22.871z"/>
		<path fill="#FFFFFF" d="M247.337,18.009c0,0,26.002,5.84,36.211,9.05c12.321,3.873,27.871,1.9,27.871,1.9l3.417-2.504
			c0,0-27.898-0.601-39.481-5.253s-32.364-6.778-32.364-6.778L247.337,18.009z"/>
		<path fill="#FFFFFF" d="M298.37,33.415c0,0,49.464-10.702,76.304-6.762c19.612,2.879,63.017,11.553,78.865,80.28
			c0,0-5.674-42.838-27.892-61.301s-54.136-26.727-75.415-23.69C350.232,21.942,307.058,29.021,298.37,33.415z"/>
		<path fill="#FFFFFF" d="M200.96,191.542c0,0,10.163,39.08,3.645,83.286c-2.015,13.663-3.645,34.741-3.645,34.741h-4.671
			c0,0,1.214-29.442,4.96-44.157C204.994,250.698,200.96,191.542,200.96,191.542z"/>
		<path fill="#FFFFFF" d="M373.918,181.839c0,0-0.931,22.31,6.669,47.115c5.949,19.415,13.886,37.735,11.488,55.638
			c-2.077,15.509-5.814,24.978-5.814,24.978h-5.014c0,0,7.693-28.889,7.313-35.325s-12.523-47.886-12.523-47.886
			S369.653,192.554,373.918,181.839z"/>
		<path fill="#FFFFFF" d="M452.919,164.085c0,0-3.132,34.548,14.719,52.914c13.384,13.771,16.197,22.907,18.965,33.109
			c0,0,1.279-5.698-1.83-13.497c-3.109-7.799-8.795-16.56-15.178-21.88c0,0-18.001-20.298-16.056-57.787L452.919,164.085z"/>
		<path fill="#FFFFFF" d="M206.062,321.536c-2.801-0.823-5.206-1.978-6.826-3.573c-0.308-0.345-0.609-1.168-0.785-2.003
			c-0.327-1.727-0.44-3.542-0.446-5.382c1.501-0.088,3.611,0.094,5.263,1.488C205.283,313.755,206.231,317.008,206.062,321.536z"/>
		<path fill="#FFFFFF" d="M209.17,322.296c0.056-0.961,0.069-1.884,0.038-2.757h0.006c0.521-3.938,2.204-5.809,3.598-6.248
			c1.03-0.32,2.066,0.019,2.92,0.948c1.752,1.915,2.525,6.889,2.719,9.087C215.35,323.194,212.134,322.886,209.17,322.296z"/>
		<path fill="#FFFFFF" d="M392.034,322.026c-5.036-0.904-9.483-2.97-9.194-7.655c0.1-1.256,0.283-2.499,0.515-3.736
			c1.482-0.176,3.994-0.176,5.909,1.432C391.349,313.818,392.291,317.241,392.034,322.026z"/>
		<path fill="#FFFFFF" d="M404.374,322.629c-0.364,0.013-0.728,0.038-1.099,0.044c-1.984,0.031-5.005,0.063-8.12-0.232
			c0.063-1.011,0.082-1.984,0.05-2.901h0.006c0.521-3.938,2.198-5.809,3.598-6.248c1.024-0.32,2.066,0.019,2.92,0.948
			C403.313,315.972,404.098,320.205,404.374,322.629z"/>
		<path fill="#FFFFFF" d="M106.576,149.642c-2.71,5.978-10.757,21.615-28.231,41.099c-22.281,24.843-59.973,33.236-60.56,33.365
			c6.927-3.504,17.455-9.269,28.492-16.896c17.37-12.007,39.544-31.198,47.325-54.836
			C95.822,152.217,100.993,151.652,106.576,149.642z"/>
		<path fill="#FFFFFF" d="M113.371,82.989c0,0.697-0.132,1.394-0.389,2.06c-0.553,1.413-1.62,2.531-3.008,3.14
			s-2.933,0.647-4.346,0.094c1.966,0.264,3.931-0.835,4.679-2.769c0.05-0.132,0.1-0.258,0.138-0.389
			c-0.653,0.289-1.413,0.333-2.129,0.05c-1.407-0.546-2.11-2.135-1.564-3.542c0.295-0.754,0.879-1.3,1.576-1.57
			c-0.163-0.088-0.345-0.176-0.527-0.245c-2.267-0.879-4.817,0.245-5.696,2.506c-0.031,0.082-0.063,0.17-0.082,0.251
			c0.038-0.553,0.157-1.105,0.371-1.639c0.873-2.248,3.027-3.624,5.3-3.624c0.685,0,1.375,0.126,2.054,0.383
			c1.413,0.553,2.525,1.62,3.14,3.008C113.207,81.437,113.371,82.21,113.371,82.989z"/>
	</g>
	<path fill="#231F20" d="M96.961,266.11c3.51,1.13,7.021,2.116,10.519,0.829c1.237-0.358,2.298-1.011,3.542-1.526
		C108.604,271.416,100.108,271.473,96.961,266.11z M78.674,299.6c5.646,2.926,12.886,3.668,18.683,0.615
		c2.889-1.426,5.476-3.592,6.638-6.644c-1.438,0.647-2.656,1.476-3.988,2.217c-6.11,4.208-13.508,4.145-20.221,1.338
		c-2.801-1.162-5.219-2.663-8.233-3.554C73.048,296.511,75.842,298.2,78.674,299.6z M235.539,81.94
		c9.841-3.705,18.877-15.367,21.169-25.584c1.47-6.393,0.672-13.169-1.777-19.21c-1.84-4.628-4.685-8.861-8.484-12.114
		c2.035,4.377,4.421,8.509,6.066,13.031c4.101,11.115,1.432,22.639-5.765,31.87C243.879,73.77,238.887,78.41,235.539,81.94z
		 M184.296,135.086c1.426-1.52,1.407-1.457-0.49-0.81l-1.564,0.49c-8.61,2.857-12.974-0.955-19.254-6.355
		c0.433,2.336,1.74,4.371,3.397,6.035C171.19,139.495,179.209,140.022,184.296,135.086z M449.212,110.89
		c-0.245,3.787-0.063,7.373,0.044,11.009c0.176,18.287-4.942,36.153-11.429,53.109c-2.6,6.92-6.092,13.295-8.145,20.472
		c5.049-5.614,7.712-12.654,10.682-19.449c7.109-17.094,11.925-35.569,11.147-54.208
		C451.322,118.106,450.744,114.357,449.212,110.89z M332.871,220.543c-6.148-0.006-12.302-0.402-18.425-1.068
		c-6.223-0.609-12.133-2.173-18.469-2.135c5.495,3.234,11.951,3.862,18.124,4.854c10.87,1.545,21.961,1.771,32.875,0.458
		c6.198-0.892,12.491-1.897,18.356-4.17c1.47-0.597,2.876-1.369,4.176-2.292c-3.24,0.163-6.192,0.911-9.194,1.583
		C351.322,219.814,342.084,220.599,332.871,220.543z M490,253.632c-1.137,0.038-2.631,0.113-3.699-0.094
		c-3.9-0.697-7.354-2.813-10.067-5.658c-0.17,0.006-0.339,0.013-0.528,0.013c-1.57,0-3.824-0.364-6.148-1.978
		c-5.344-3.705-8.49-12.007-9.351-24.68c-0.32-4.741-1.966-7.661-4.239-11.699c-3.347-5.947-7.812-13.879-10.312-32.147
		c-3.303,8.12-7.021,16.07-10.556,24.058c-6.625,14.94-12.585,30.91-10.933,47.463c1.721,16.585,5.269,32.838,9.137,49.058
		c1.061,5.018,2.43,10.123,2.135,15.411c-0.37,6.889-5.696,9.665-11.85,10.644c-3.322,0.634-6.669,1.168-10.035,1.576
		c-9.257,1.011-31.004,3.19-34.2-8.371c-0.496-1.941-0.245-3.824,0.006-5.721c0.546-3.51,1.545-6.776,2.493-9.985
		c0.961-3.215,1.909-6.38,2.682-9.564c2.405-9.52,2.776-19.411,0.364-28.913c-0.653-2.688-1.953-6.814-2.769-9.539
		c-3.435-10.487-6.606-21.257-8.829-32.178c-5.57,1.746-23.317,6.738-43.601,6.738c-8.773,0-18.011-0.936-26.941-3.466
		c-28.812-8.176-49.159-9.093-53.341-9.194c-0.484,1.62-0.967,3.241-1.444,4.854c-4.302,15.291-7.272,31.035-6.952,46.955
		c0.144,11.907,2.091,23.707,5.175,35.205c0.867,3.466,2.336,8.258,2.952,11.794c0.389,2.28,0.722,5.306-1.112,7.172
		c-1.859,1.765-3.856,2.311-6.079,3.04c-4.038,1.149-8.095,1.696-12.164,2.054c-9.294,0.666-25.735,0.779-32.869-5.909
		c-3.266-3.379-2.355-11.963-2.185-16.347c1.055-14.098,3.762-27.814,5.237-41.793c1.457-23.072,0.81-46.408-2.11-69.368
		c-13.979-28.856-25.408-46.201-28.021-50.044c-0.954-0.327-1.909-0.754-2.851-1.306c-5.168-3.184-8.61-8.742-10.971-15.028
		c-3.127-0.659-10.192-1.206-18.695,4.151c-2.455,5.759-7.146,10.305-13.452,11.423c-3.071,4.113-7.272,7.335-12.239,8.836
		c-2.713,6.795-8.547,19.348-18.833,32.511c0.113,5.03,0.232,26.997-5.294,44.863c-2.832,9.162-6.412,22.482-7.379,33.936
		c-1.036,12.321,1.112,19.486,6.393,21.308c2.01,0.691,3.441,0.71,4.264,0.057c2.091-1.652,1.451-7.944,0.98-12.541
		c-0.471-4.609-0.842-8.252,0.54-10.123c0.741-0.998,1.595-1.576,2.543-1.714c1.532-0.232,2.807,0.722,4.038,1.639
		c1.168,0.873,2.374,1.777,3.85,1.859c3.353,0.201,4.634-1.313,5.771-2.644c0.408-0.484,0.798-0.936,1.262-1.287
		c1.689-1.287,3.228-1.633,4.578-1.03c2.16,0.973,2.487,3.887,2.531,4.465v0.063c0.038,1.124,0.728,27.625-13.05,39.017
		c-4.057,3.354-8.936,5.036-14.557,5.036c-2.336,0-4.804-0.289-7.391-0.873c-26.558-5.972-25.132-35.739-23.619-67.251
		c0.396-8.277,0.798-16.811,0.703-25.057c-13.32,7.699-29.798,13.514-49.9,14.827L0,228.744l8.346-3.598
		c0.421-0.182,26.777-11.731,50.032-31.11l-0.144,0.006c-0.013-0.352-1.469-35.576,2.983-74.172
		c6.016-52.129,19.386-85.293,39.733-98.556c25.434-16.579,50.566-20.705,67.163-21.245c16.108-0.521,27.274,2.06,29.811,2.713
		c2.587-0.414,5.206-0.678,7.837-0.76c12.277-0.402,24.699,3.234,34.966,10.042l0.006-0.063c0.257,0.044,25.691,4.126,42.201,9.866
		c13.357,4.641,37.912,2.449,42.647,1.972c23.6-5.131,48.65-6.192,71.672,1.89c35.387,12.61,50.628,43.407,57.48,78.266
		c2.349,12.221,2.638,24.78,1.049,37.101c-2.167,22.526-1.294,54.635,14.425,71.641c7.712,7.077,14.99,17.37,17.992,28.096
		c1.049,3.642,1.589,7.454,1.62,11.272C489.818,252.112,490,253.632,490,253.632z M89.683,187.448
		c-6.833,8.082-15.926,16.742-27.606,24.014c0.188,8.905-0.245,18.136-0.678,27.073c-0.747,15.605-1.451,30.351,1.13,41.95
		c2.807,12.623,9.175,19.643,20.045,22.086c7.825,1.758,14.299,0.578,19.248-3.517c12.371-10.217,11.951-35.318,11.926-36.461
		c-0.075-0.76-0.421-1.683-0.685-1.802c-0.063-0.031-0.509-0.006-1.388,0.666c-0.201,0.151-0.477,0.477-0.779,0.823
		c-1.287,1.507-3.429,4.025-8.34,3.749c-2.418-0.144-4.226-1.495-5.551-2.487c-0.527-0.396-1.419-1.043-1.702-1.049
		c0,0.006-0.163,0.069-0.471,0.477c-0.659,0.892-0.245,4.967,0.063,7.944c0.628,6.192,1.281,12.591-2.154,15.317
		c-1.721,1.363-4.157,1.513-7.241,0.452c-14.4-4.967-8.484-34.904-0.986-59.144C88.942,213.227,89.626,195.719,89.683,187.448z
		 M109.226,148.588c-6.537,2.876-13.056,3.605-15.624,3.787c-7.781,23.637-29.955,42.829-47.325,54.836
		c-11.04,7.63-21.571,13.395-28.498,16.899c35.494-4.961,58.246-24.642,71.377-40.951C100.566,168.985,106.752,155,109.226,148.588z
		 M181.112,138.867c16.836-5.696,24.554-16.548,34.508-30.395c4.107-5.627,8.472-11.178,13.351-16.277
		c4.722-5.049,10.381-9.702,15.681-13.954c17.515-14.651,19.154-34.527,5.445-52.588c-8.459-10.362-21.056-17.251-34.2-19.461
		C202.451,4,188.729,7.203,176.622,13.219c-6.248,3.002-11.693,7.329-18.293,9.652c3.115-4.371,7.63-7.373,12.208-10.004
		c6.173-3.548,12.792-6.475,19.681-8.396c-5.2-0.804-12.867-1.57-22.13-1.262c-16.164,0.546-40.643,4.584-65.424,20.736
		c-19.248,12.547-32.498,45.831-38.32,96.252c-3.774,32.643-3.291,62.861-3.052,71.346c13.087-11.429,24.762-25.352,29.641-41.139
		l0.333-1.074l1.13-0.031c0.1,0,10.337-0.308,18.846-5.237l3.454-1.997l-1.168,3.812c-0.019,0.082-0.107,0.358-0.251,0.791
		c0.22-0.132,0.44-0.257,0.659-0.396c6.544-3.931,10.431-10.933,12.239-18.23c0.791-3.19,0.973-6.154,2.581-9.219
		c1.325,2.273,1.413,4.923,1.074,7.448c-0.32,2.493-0.804,4.961-1.583,7.366c-0.408,1.325-0.923,2.619-1.526,3.875
		c4.358-2.393,7.341-6.581,9.03-11.624c0.76-2.305,1.476-4.603,2.725-7.065c0.98,2.468,0.842,5.099,0.245,7.611
		c6.751-3.391,12.528-3.554,16.158-3.109c-2.148-6.971-3.178-14.456-3.881-20.416c-0.697-6.971-1.331-14.136,0.71-20.956
		c1.344,5.093,1.79,10.249,2.179,15.461c0.71,8.484,1.94,17.094,4.521,25.145C161.814,133.209,168.489,143.778,181.112,138.867z
		 M203.267,312.066c-1.652-1.394-3.762-1.576-5.263-1.488c0.006,1.84,0.119,3.655,0.446,5.382c0.176,0.835,0.477,1.658,0.785,2.003
		c1.62,1.595,4.025,2.751,6.826,3.573C206.231,317.008,205.283,313.755,203.267,312.066z M218.452,323.326
		c-0.195-2.198-0.967-7.172-2.719-9.087c-0.854-0.929-1.89-1.269-2.92-0.948c-1.394,0.44-3.077,2.311-3.598,6.248h-0.006
		c0.031,0.873,0.019,1.796-0.038,2.757C212.134,322.886,215.35,323.194,218.452,323.326z M389.265,312.066
		c-1.915-1.608-4.427-1.608-5.909-1.432c-0.232,1.237-0.414,2.481-0.515,3.737c-0.289,4.685,4.157,6.751,9.194,7.655
		C392.291,317.241,391.349,313.818,389.265,312.066z M404.374,322.629c-0.276-2.424-1.061-6.657-2.644-8.39
		c-0.854-0.929-1.896-1.269-2.92-0.948c-1.4,0.44-3.077,2.311-3.598,6.248h-0.006c0.031,0.917,0.013,1.89-0.05,2.901
		c3.115,0.295,6.135,0.264,8.12,0.232C403.645,322.666,404.01,322.641,404.374,322.629z M453.514,124.26
		c-0.402-19.763-5.595-39.557-14.274-57.26c-12.434-24.699-35.13-39.086-62.303-42.49c-13.093-1.746-26.438-1.206-39.513,0.641
		c-13.326,1.601-25.779,5.997-39.055,8.264c3.655-2.418,7.643-4.138,11.75-5.514c-1.011,0.019-2.047,0.031-3.096,0.031
		c-8.534,0-18.136-0.678-25.12-3.102c-11.436-3.975-27.28-7.153-35.758-8.698c2.55,2.154,4.911,4.534,7.034,7.115
		c6.619,8.503,10.946,19.399,9.96,30.363c-0.59,7.322-3.762,14.324-8.283,20.026c-4.289,5.646-10.268,9.885-15.518,14.35
		c-2.562,2.248-5.03,4.597-7.391,7.052c-9.79,9.91-16.566,22.005-26.024,32.398c-5.47,5.916-12.302,10.676-19.794,13.665
		c-3.931,1.658-7.957,2.933-11.963,2.744c3.856,5.916,12.164,19.273,22.25,39.218c-0.565-3.291-1.199-6.562-1.953-9.803
		c-0.948-3.868-1.928-7.624-1.846-11.894c2.776,3.278,3.956,7.247,4.867,11.178c0.942,3.938,1.727,7.906,2.405,11.888
		c3.875,23.864,5.018,48.098,4.05,72.25c-0.132,4.025-0.597,8.126-1.118,12.12c-1.539,11.869-3.649,23.788-4.565,35.663
		c-0.063,0.973-0.126,1.966-0.169,2.97c2.06-0.082,4.873,0.264,7.203,2.223c1.162,0.98,2.066,2.248,2.713,3.787
		c0.992-1.57,2.305-2.656,3.868-3.152c2.198-0.685,4.503-0.006,6.179,1.827c2.851,3.109,3.473,10.123,3.561,11.285
		c2.989,0.019,5.752-0.094,7.913-0.257c3.912-0.32,7.837-0.848,11.517-1.884c1.557-0.44,3.554-1.137,4.641-2.148
		c0.207-0.188,0.276-0.383,0.358-0.628c0.301-1.174,0.107-2.43-0.1-3.724c-0.546-3.222-2.047-8.252-2.87-11.524
		c-3.127-11.725-5.099-23.826-5.225-35.984c-0.201-12.17,1.432-24.272,4.038-36.128c4.39-19.518,11.21-38.408,13.533-58.321
		c1.243-7.969,1.08-15.919,3.586-23.738c1.984,8.095,0.791,16.164,0.063,24.196c-1.375,13.282-4.961,26.25-8.729,39.029
		c5.815,0.207,25.785,1.482,53.278,9.282c29.252,8.302,62.051-1.118,69.085-3.347c-2.725-14.601-3.655-29.453-1.155-44.261
		c1.017-6.694,2.7-13.382,6.362-19.229c-0.559,6.851-2.054,13.2-3.108,19.731c-1.005,6.519-1.394,13.125-1.3,19.719
		c0.258,19.957,5.997,39.325,12.089,58.246c0.867,2.807,2.141,6.87,2.864,9.728c2.6,10.004,2.248,20.742-0.239,30.677
		c-1.099,4.923-2.914,9.721-4.145,14.594c2.06-0.082,4.886,0.264,7.216,2.223c1.168,0.98,2.066,2.248,2.719,3.787
		c0.992-1.57,2.305-2.656,3.868-3.152c2.192-0.685,4.503-0.006,6.179,1.827c2.393,2.619,3.215,7.988,3.466,10.324
		c5.162-0.377,10.305-1.112,15.386-2.066c4.371-0.766,8.698-2.211,8.855-7.291c0.239-4.779-1.049-9.552-2.047-14.306
		c-1.488-6.493-3.058-13.031-4.396-19.618c-2.016-9.91-3.661-19.863-4.704-29.93c-2.311-24.196,10.318-46.076,19.53-67.49
		C448.176,163.628,453.96,144.217,453.514,124.26z M486.603,250.109c-0.163-2.845-0.634-5.671-1.426-8.428
		c-2.983-10.305-9.432-19.518-17.238-26.771c-13.169-14.425-15.788-35.952-16.146-54.836c-0.408,1.388-0.835,2.769-1.287,4.138
		c-0.754,2.342-1.564,4.66-2.424,6.958c2.217,21.885,7.071,30.514,10.626,36.819c2.286,4.069,4.264,7.58,4.635,13.031
		c0.986,14.538,4.898,20.158,8.007,22.312c0.76,0.527,1.495,0.86,2.179,1.08c-0.842-1.312-1.551-2.694-2.104-4.12
		c-0.647-1.539-1.036-3.171-1.3-4.804c0.728,0.854,1.369,1.727,1.991,2.6c1.614,2.047,3.222,4.082,5.03,5.96
		C479.827,246.711,483.004,248.985,486.603,250.109z M118.011,78.869c0,0-1.984,1.168-2.788,3.441
		c0.107,1.149-0.056,2.317-0.484,3.423c-0.735,1.884-2.154,3.366-4.006,4.182c-0.973,0.427-2.01,0.641-3.046,0.641
		c-0.923,0-1.853-0.17-2.744-0.515c-1.388-0.546-2.562-1.463-3.404-2.65c-0.735-0.358-1.809-0.653-3.09-0.333
		c0,0,1.319-0.823,1.821-2.594c0,0,0,0,0-0.006c-0.283-1.4-0.163-2.845,0.364-4.208c1.513-3.887,5.909-5.821,9.79-4.308
		c1.193,0.465,2.223,1.199,3.027,2.154c0,0,0,0,0.006,0.006C114.576,78.668,116.234,79.239,118.011,78.869z M113.371,82.989
		c0-0.779-0.163-1.551-0.484-2.286c-0.615-1.388-1.727-2.455-3.14-3.008c-0.678-0.257-1.369-0.383-2.054-0.383
		c-2.273,0-4.427,1.375-5.3,3.624c-0.214,0.534-0.333,1.086-0.371,1.639c0.019-0.082,0.05-0.17,0.082-0.251
		c0.879-2.261,3.429-3.385,5.696-2.506c0.182,0.069,0.364,0.157,0.527,0.245c-0.697,0.27-1.281,0.816-1.576,1.57
		c-0.546,1.407,0.157,2.995,1.564,3.542c0.716,0.283,1.476,0.239,2.129-0.05c-0.038,0.132-0.088,0.257-0.138,0.389
		c-0.747,1.934-2.713,3.033-4.679,2.769c1.413,0.553,2.958,0.515,4.346-0.094s2.455-1.727,3.008-3.14
		C113.239,84.383,113.371,83.686,113.371,82.989z"/>
</g>
</svg>
