<?xml version="1.0" encoding="utf-8"?>
<!-- Generator: Adobe Illustrator 28.3.0, SVG Export Plug-In . SVG Version: 6.00 Build 0)  -->
<svg version="1.1" id="giraffe" xmlns="http://www.w3.org/2000/svg" xmlns:xlink="http://www.w3.org/1999/xlink" x="0px" y="0px"
	 viewBox="0 0 400.569 490" enable-background="new 0 0 400.569 490" xml:space="preserve">
<g id="giraffe_00000181059309326714230700000016880686456161696403_">
	<path fill="#FFCEA6" d="M360.554,251.647c-4.702-13.669-13.674-25.249-25.945-33.488c-11.994-8.053-26.21-11.82-41.109-10.894
		c-2.307,0.143-4.647,0.35-6.91,0.551c-3.367,0.299-6.837,0.606-10.275,0.706c1.907-1.336,4.088-2.263,6.365-2.701l1.326-0.255
		l-1.288-0.402c-3.211-1.001-6.5-1.863-9.681-2.696c-8.058-2.111-16.391-4.294-23.751-8.875c-5.44-3.386-9.717-7.687-14.244-12.24
		c-0.494-0.497-0.99-0.996-1.487-1.493c-0.147-0.149-0.295-0.297-0.444-0.445l-0.206-0.205c-3.431-3.431-6.929-6.379-10.692-9.013
		c-5.955-4.168-12.741-7.777-20.169-10.728c-2.634-1.049-5.192-2.965-7.666-4.818c-0.556-0.417-1.102-0.825-1.636-1.214
		c-3.295-2.394-6.524-4.987-9.647-7.494c-5.786-4.639-11.621-9.747-17.839-15.617l-0.242-0.227
		c-0.252-0.236-0.505-0.473-0.757-0.715c-1.405-1.332-2.692-2.568-3.934-3.778c-0.491-0.475-0.979-0.952-1.49-1.453
		c-5.478-5.373-11.017-11.081-16.465-16.966c-0.457-0.491-0.914-0.985-1.369-1.484c-0.911-0.989-1.82-1.989-2.728-2.992
		c-0.661-0.728-1.318-1.46-1.974-2.194l-0.869-0.978c-0.457-0.511-0.908-1.023-1.359-1.535c-0.379-0.426-0.755-0.853-1.131-1.283
		c-6.556-7.487-12.53-15.237-19.102-23.863c-4.014-5.27-8.261-10.439-12.622-15.362c-4.205-4.754-8.629-9.41-13.149-13.838
		c-2.296-2.248-4.629-4.456-6.936-6.563l-0.078-0.071c-3.679-3.349-5.84-4.853-6.802-4.742c-0.705,0.084-1.314,0.834-1.67,1.569
		c-0.1-0.607,0.028-1.18,0.186-1.608c0.568-1.537,2.015-2.768,3.088-3.146c0.836-0.296,1.759-0.368,2.736-0.443
		c0.874-0.068,1.778-0.138,2.614-0.385c2.974-0.88,5.054-3.404,6.029-4.83c1.557-2.274,2.573-4.851,3.555-7.344l0.155-0.394
		l-0.419-0.065c-6.301-0.98-12.111,0.853-15.943,5.026c-0.937,1.02-1.736,2.234-2.508,3.407c-0.528,0.801-1.073,1.63-1.647,2.368
		c-1.261,1.628-3.2,2.986-5.088,3.597l1.567-3.518l-0.247-0.157c-2.094-1.327-4.132-2.044-6.547-2.712l-0.471-0.13l0.043,0.487
		c0.073,0.822,0.192,1.755,0.308,2.657c0.081,0.634,0.165,1.284,0.231,1.895c-0.943-0.64-2.762-2.188-2.867-4.644
		c-0.088-2.065-0.009-4.199,1.154-5.816l0.596-0.83l-1.064,0.337c-1.116,0.354-2.27,0.72-3.17,0.154l-0.509-0.321l-0.01,0.602
		c-0.089,5.172-2.291,8.017-6.548,8.466c0.53-0.944,1.07-1.705,1.545-2.358l0.5-0.685l-0.834,0.152
		c-8.784,1.603-13.765,10.58-15.497,14.361c-2.625,5.513-7.36,9.986-11.646,13.634c-0.851,0.725-1.715,1.442-2.581,2.162
		c-3.843,3.192-7.817,6.493-10.828,10.587c-3.196,4.346-4.978,9.239-5.155,14.148c-0.006,0.161,0.012,0.525,0.124,0.747
		c0.736,1.476,3.721,0.764,6.239-0.022l0.268-0.083c2.789-0.837,5.364-2.049,7.975-3.323c5.142-2.509,10.148-5.375,14.897-8.526
		c-1.58,2.659-3.957,5.088-7.083,7.236c-3.199,2.2-6.808,3.863-10.305,5.475l-1.384,0.638l1.523,0.009
		c5.027,0.041,10.352-1.494,15.822-4.532c4.066-2.263,7.784-5.097,11.361-7.955l-3.891,5.248l0.846-0.155
		c3.771-0.692,7.687-0.782,11.474-0.869c2.717-0.063,5.527-0.127,8.278-0.412c5.321-0.554,12.381-2.314,16.719-7.468
		c-0.715,3.064-2.943,5.787-5.843,7.012l-0.45,0.19l0.335,0.355c5.984,6.334,11.616,13.708,18.262,23.908
		c12.403,19.039,22.818,39.245,32.226,58.245c5.898,11.913,12.583,25.415,19.996,38.031c3.905,6.641,7.684,12.509,11.551,17.938
		c2.096,2.941,4.258,5.807,6.427,8.519c0.648,0.807,1.351,1.58,2.032,2.326c1.239,1.36,2.52,2.766,3.459,4.392l0.79,1.367
		l-0.159-1.571c-0.118-1.164-0.441-2.387-0.753-3.571c-0.255-0.968-0.519-1.968-0.67-2.931c-0.046-0.296-0.065-0.728-0.084-1.186
		c-0.028-0.654-0.059-1.386-0.177-2.047c5.832,6.325,6.599,17.504,6.542,27.751c-0.022,3.735-0.216,7.538-0.405,11.215
		c-0.344,6.721-0.701,13.672-0.017,20.51c1.252,12.55,6.097,24.345,14.812,36.059l0.238,0.319c1.175,1.571,2.496,3.337,2.711,5.227
		c-1.185-0.374-3.442-1.673-3.606-2.357c0-0.002-0.001-0.003-0.001-0.005l-0.661,0.151l0,0l0,0
		c1.683,7.353,3.939,17.054,6.466,26.886c0.346,1.312,0.701,2.621,1.056,3.929c1.668,6.149,3.393,12.508,4.075,19.007
		c0.28,2.377,0.398,4.771,0.512,7.086c0.074,1.515,0.152,3.082,0.273,4.586c0.239,3.892,1.05,7.813,1.835,11.604
		c0.377,1.824,0.768,3.71,1.083,5.541c2.292,18.099,1.054,36.049-0.624,52.745c-0.771,6.502-1.603,12.84-3.284,18.897
		c-0.409,1.363-0.945,2.942-1.815,4.327c-0.176,0.284-0.351,0.568-0.527,0.844c-0.175,0.276-0.354,0.553-0.537,0.831
		c-0.336,0.517-0.693,1.051-1.091,1.631l-0.02,0.029c-0.014,0.02-0.028,0.039-0.035,0.05c-0.44,0.646-0.886,1.285-1.337,1.922
		l-0.043,0.062c-0.032,0.045-0.063,0.092-0.102,0.144l-0.209,0.296c-0.632,0.895-1.261,1.785-1.884,2.686
		c-0.279,0.401-0.558,0.81-0.836,1.222c-0.241,0.369-0.485,0.736-0.729,1.105c-1.394,2.102-2.836,4.275-3.739,6.643l-0.175,0.46
		h3.574l0.088-0.206c1.081-2.533,3.236-7.196,5.702-10.418c2.995,2.147,7.482,4.625,12.321,4.704
		c1.159,0.014,2.292-0.101,3.362-0.355l0.256-0.069l0.005-0.263c0.003-0.172,0.006-0.342,0.017-0.53v-0.026
		c0.006-0.152,0.013-0.301,0.022-0.474l0.005-0.049c0.003-0.077,0.006-0.158,0.013-0.242l0.004-0.048
		c0.001-0.017,0.002-0.033,0.003-0.05l0.003-0.044c0.01-0.151,0.023-0.303,0.04-0.463l0.033-0.357
		c0.017-0.167,0.037-0.338,0.057-0.509c0.01-0.087,0.023-0.175,0.036-0.267c0.04-0.298,0.084-0.593,0.135-0.895
		c0.019-0.122,0.041-0.243,0.067-0.389c0.025-0.142,0.054-0.282,0.082-0.423l0.014-0.07c0.511-2.367,1.39-4.486,2.603-6.281
		c1.049-1.37,2.047-2.865,1.748-4.747c-0.288-1.871-0.619-4.072-0.887-6.216c-2.955-23.852-2.327-47.215,1.868-69.439
		c0.844-4.449,1.302-8.446,1.403-12.218c0.085-2.57,0.001-5.108-0.088-7.795c-0.051-1.54-0.104-3.131-0.122-4.727
		c-0.071-4.104,0.26-8.41,0.986-12.799c1.092-6.989,3.264-13.819,5.364-20.424c1.661-5.223,3.378-10.624,4.554-16.076
		c0.753-3.504,1.18-7.076,1.594-10.532c0.291-2.43,0.592-4.943,1.003-7.407c0.226-1.362,0.749-4.068,1.114-5.686
		c0.289,1.568,0.715,3.982,0.745,4.765c0.072,1.944,0.049,3.961-0.068,5.997c-0.212,3.721-0.713,7.666-1.49,11.728
		c-0.108,0.565-0.22,1.126-0.335,1.687c-0.071,0.344-0.149,0.689-0.227,1.034l-0.074,0.33l0.281,0.102
		c1.972,0.714,4.107,1.361,6.346,1.923c20.568,5.192,47.371,3.138,71.7-5.496l1.856-0.659h-1.675
		c-0.195-1.666-1.031-10.379-1.074-11.249c-0.214-4.594-0.2-8.659,0.043-12.426c0.304-4.693,0.99-9.119,2.041-13.154
		c0.562-2.157,1.239-4.248,2.015-6.213c0.095-0.24,0.581-1.015,1.079-1.776c-0.05,1.2-0.12,2.913-0.133,3.282
		c-0.064,1.976-0.413,3.967-0.751,5.892c-0.069,0.391-0.137,0.781-0.204,1.173c-0.474,2.806-0.838,5.626-1.082,8.381
		c-1.382,15.631,1.117,31.503,7.64,48.523c0.71,1.855,1.521,3.713,2.305,5.51c1.271,2.912,2.585,5.922,3.499,8.991
		c2.763,9.274,4.986,19.494,6.608,30.375c0.574,3.878,1.4,7.766,2.199,11.526c0.44,2.071,0.895,4.212,1.299,6.304
		c1.802,13.553,0.203,27.756-1.207,40.279l-0.448,3.259c-1.057,7.711-2.254,16.45-4.484,24.809c-0.082,0.306-0.161,0.616-0.24,0.927
		c-0.384,1.502-0.782,3.056-1.501,4.395c-0.867,1.614-1.958,3.158-3.013,4.65l-0.156,0.221c-0.513,0.728-1.034,1.45-1.556,2.172
		c-1.696,2.351-3.45,4.782-4.905,7.358l-0.419,0.74h3.283l0.09-0.201c1.174-2.641,3.009-6.312,5.155-9.012
		c3.029,2.056,7.549,4.384,12.352,4.215c0.167-0.005,0.347-0.001,0.531,0.005c0.776,0.024,1.738,0.049,2.294-0.738
		c0.318-0.452,0.428-0.973,0.535-1.476l0.015-0.069c0.605-2.827,1.743-5.27,2.883-7.487c1.016-1.975,1.937-4.126,1.801-6.465
		c0-0.014,0-0.017-0.319-5.484c-0.142-2.649-0.37-8.182-0.441-11.08c-0.518-16.313,1.047-33.025,4.652-49.676
		c0.559-2.691,1.785-8.09,2.419-10.794c1.33-5.686,1.412-11.009,0.245-15.817c-0.426-1.88-0.983-3.728-1.573-5.684
		c-0.481-1.596-0.979-3.245-1.399-4.916c-1.857-7.412-2.282-14.38-1.266-20.71c0.52-3.237,1.436-6.723,2.8-10.654l0,0
		c1.723-4.976,3.712-9.939,5.636-14.738c4.063-10.134,8.264-20.614,10.155-31.738c0.727-4.283,1.107-8.51,1.13-12.563
		C363.654,264.303,362.626,257.664,360.554,251.647z M357.483,293.938c-0.625,1.393-1.388,2.978-2.406,4.493
		c0.087-1.572,0.381-3.077,0.689-4.654c0.075-0.386,0.151-0.773,0.22-1.145c2.911-11.982,3.54-23.438,1.871-34.052
		c-0.317-2.322-0.868-4.572-1.401-6.748c-0.442-1.806-0.897-3.662-1.221-5.572c1.275,1.711,2.046,3.628,2.587,5.17
		c1.116,3.497,1.94,6.959,2.45,10.291C361.96,272.513,360.991,283.664,357.483,293.938z M301.364,310.938
		c-2.502,1.591-5.233,2.446-7.837,3.128l-0.002,0.001c-2.75,0.737-6,1.574-9.253,2.181c-2.893,0.555-5.962,1.014-9.38,1.403
		l-0.446,0.05c-2.809,0.317-5.476,0.617-8.198-0.03c2.299-1.146,4.705-1.588,7.238-2.054c0.355-0.065,0.712-0.131,1.068-0.198
		l9.249-1.712c1.257-0.228,2.515-0.449,3.774-0.671c1.794-0.315,3.65-0.641,5.477-0.985
		C295.561,311.53,298.366,310.948,301.364,310.938z M194.162,348.328c-2.003-3.614-3.149-7.546-4.314-11.886
		c-0.134-0.612-0.273-1.225-0.412-1.838c-0.782-3.458-1.588-7.021-1.651-10.614c1.717,3.19,2.768,6.721,3.789,10.147
		c0.171,0.573,0.341,1.146,0.51,1.702C193.206,340.202,194.139,344.189,194.162,348.328z M86.227,17.847l1.267,0.096l-0.361,1.046
		c-0.828,2.167-2.292,3.902-4.029,4.828c0.683-1.101,1.253-2.276,1.701-3.506l0.194-0.533l-0.561,0.081
		c-3.141,0.454-6.204,1.777-9.121,3.939C77.235,19.624,82.171,17.495,86.227,17.847z M42.238,46.938l0.019-0.069l-0.01-0.071
		c-0.139-0.984-0.004-1.988,0.389-2.904c1.187-2.75,4.392-4.021,7.143-2.834c0.796,0.342,1.478,0.855,2.028,1.525l0.038,0.047
		l0.052,0.03c0.669,0.394,1.615,0.814,2.697,0.893c-0.532,0.479-1.163,1.213-1.522,2.213l-0.022,0.061l0.002,0.065
		c0.026,0.792-0.12,1.569-0.433,2.308c-0.58,1.334-1.642,2.363-2.989,2.9c-1.33,0.534-2.831,0.516-4.16-0.057
		c-0.933-0.405-1.734-1.068-2.318-1.916l-0.044-0.064l-0.067-0.038c-0.4-0.23-0.968-0.465-1.661-0.513
		C41.704,48.146,42.044,47.626,42.238,46.938z"/>
	<g>
		<path fill="#D69A72" d="M345.348,340.618c-3.933,17.316,4.367,26.61,4.995,35.569c0.607,8.694-4.198,29.293-6.954,44.642
			c-2.757,15.35-0.336,46.934-0.336,46.934l-6.256,15.323l-0.909-0.081h-0.003c0.01-0.122,0.017-0.247,0.02-0.37
			c0.003-0.027,0.007-0.058,0.007-0.085c0.007-0.081,0.014-0.166,0.02-0.251c0.007-0.108,0.017-0.217,0.027-0.329
			c0-0.017,0.003-0.037,0.003-0.054c0.007-0.098,0.014-0.193,0.027-0.292c0.003-0.03,0.007-0.064,0.01-0.098
			c0.009-0.096,0.024-0.193,0.035-0.289c0.002-0.02,0.005-0.04,0.006-0.06c0.002-0.019,0.005-0.036,0.007-0.054
			c0.012-0.093,0.019-0.185,0.033-0.278c0-0.014,0.003-0.024,0.007-0.034v-0.01l-0.007-0.017c-0.865,0.207-1.729,0.315-2.58,0.342
			c0.095-2.143,0.749-6.147,3.852-10.688c2.485-3.642,1.726-17.533,1.35-25.637c-1.414-30.405,9.504-59.297,8.189-66.658
			c-1.533-8.599-10.454-31.971-2.987-46.867c2.957-5.903,7.07-18.842,10.816-31.761v-0.003c0.851-2.923,1.678-5.842,2.468-8.68
			v-0.003c0.631-2.245,1.234-4.432,1.804-6.531c0.007-0.007,0.007-0.014,0.007-0.024c0.854-3.119,1.638-6.039,2.323-8.619v-0.01
			c0.051-0.19,0.102-0.373,0.149-0.559c0.743-2.794,1.36-5.167,1.817-6.937c0.546-2.106,0.861-3.36,0.892-3.469
			c0,0.003,0,0.003,0,0.003c0.007,0.183,0.071,2.56,0.102,5.852v0.047c0.051,6.195-0.037,15.574-0.919,19.571
			C360.481,303.235,349.285,323.302,345.348,340.618z"/>
		<path fill="#D69A72" d="M227.422,302.489v0.003c-0.658,10.284-5.588,25.271-5.588,25.271c-5.974,16.757-6.788,46.117-6.788,46.117
			s-1.878,16.086-4.866,38.902c-2.987,22.82,2.767,52.956,2.767,52.956l-4.15,7.663l-1.149,9.684h-1.563
			c-0.014-0.193-0.027-0.383-0.037-0.576c0-0.017-0.003-0.037-0.003-0.054c-0.007-0.095-0.01-0.19-0.014-0.285v-0.041
			c-0.007-0.146-0.014-0.292-0.017-0.437c-0.003-0.02-0.003-0.037,0-0.054v-0.01c-0.003-0.064-0.003-0.132-0.007-0.2
			c-0.003-0.186-0.007-0.37-0.007-0.556c0-0.193,0.003-0.39,0.007-0.583c-1.102,0.261-2.197,0.363-3.279,0.346
			c0.495-2.947,1.668-8.097,4.296-12.871c2.319-4.215-1.756-19.707-0.675-51.105c0.376-10.874,5.479-33.924,5.093-39.641
			c-0.42-6.219-0.458-12.342-0.088-18.168c0.529-8.399,1.902-16.174,4.191-22.711c4.622-13.204,10.85-39,11.233-40.601
			c0.003-0.007,0.003-0.01,0.003-0.017c0-0.01,0.003-0.017,0.007-0.027c0.007-0.024,0.01-0.034,0.01-0.034
			c0.319,0.821,0.519,1.821,0.617,2.953C227.524,299.634,227.517,301.014,227.422,302.489z"/>
		<path fill="#D69A72" d="M55.685,43.17c0,0-1.641,0.895-2.292,2.713c0.027,0.821-0.122,1.655-0.461,2.455
			c-0.617,1.417-1.743,2.509-3.174,3.079c-0.692,0.278-1.411,0.414-2.136,0.414c-0.773,0-1.546-0.156-2.285-0.475
			c-1.031-0.448-1.865-1.166-2.462-2.034c-0.556-0.319-1.411-0.624-2.468-0.4c0,0,1.099-0.637,1.505-2.075
			c-0.142-1.01-0.02-2.075,0.414-3.086c1.261-2.923,4.666-4.272,7.588-3.011c0.868,0.373,1.594,0.936,2.156,1.621
			C52.912,42.865,54.227,43.414,55.685,43.17z"/>
		<path fill="#D69A72" d="M306.575,314.387c0,0-0.024,0.007-0.068,0.024c-0.821,0.251-9.074,2.78-20.768,4.944
			c-6.7,1.241-14.533,2.363-22.745,2.869c-7.453,0.461-15.214,0.414-22.731-0.512c-5.218-0.641-10.318-1.709-15.112-3.32
			l1.505-5.137c0,0,0.298,0.149,0.882,0.403c5.205,2.238,33.212,12.529,76.803-3.798L306.575,314.387z"/>
		<path fill="#D69A72" d="M336.048,481.123c-0.005,0.038-0.009,0.076-0.014,0.114c0.002-0.02,0.005-0.04,0.006-0.06
			C336.042,481.159,336.045,481.141,336.048,481.123z"/>
		<path fill="#D69A72" d="M347.552,388.122c-0.631,2.692-1.858,8.097-2.421,10.803c-3.526,16.289-5.188,33.094-4.659,49.756
			c0.068,2.78,0.292,8.3,0.441,11.088l0.319,5.466c0.041,1.6-0.258,3.221-0.848,4.747c-0.427,1.194-1.16,2.292-1.838,3.384
			c-0.122,0.21-0.241,0.424-0.353,0.637c-0.095,0.176-0.183,0.353-0.268,0.532c-0.088,0.176-0.17,0.359-0.251,0.539
			c-0.037,0.078-0.071,0.159-0.105,0.237c-0.007,0.014-0.014,0.031-0.02,0.047c-0.088,0.207-0.173,0.41-0.251,0.617
			c-0.044,0.112-0.085,0.224-0.125,0.336c-0.017,0.041-0.03,0.081-0.044,0.122c-0.02,0.061-0.041,0.119-0.061,0.18
			c-0.064,0.183-0.126,0.366-0.183,0.553c-0.01,0.031-0.02,0.061-0.031,0.095c-0.007,0.024-0.014,0.051-0.024,0.075
			c-0.017,0.068-0.037,0.132-0.058,0.2c-0.02,0.068-0.041,0.139-0.058,0.207c-0.027,0.095-0.054,0.187-0.078,0.281
			c-0.017,0.061-0.031,0.119-0.044,0.176c-0.03,0.108-0.058,0.214-0.081,0.322c-0.071,0.298-0.139,0.6-0.197,0.902
			c-0.024,0.115-0.044,0.234-0.064,0.353c-0.007,0.034-0.014,0.071-0.02,0.105c-0.017,0.085-0.03,0.166-0.044,0.251
			c-0.017,0.119-0.037,0.234-0.054,0.356c-0.017,0.102-0.031,0.207-0.044,0.312l-0.007-0.017c-0.865,0.207-1.729,0.315-2.58,0.342
			c0.095-2.143,0.749-6.147,3.852-10.688c2.485-3.642,1.726-17.533,1.35-25.637c-1.414-30.405,9.504-59.297,8.189-66.658
			c-1.533-8.599-10.454-31.971-2.987-46.867c1.031-0.756,2.072-1.628,3.099-2.635c-0.298,0.841-0.597,1.685-0.885,2.54
			c-0.061,0.183-0.122,0.366-0.183,0.549c-0.017,0.041-0.03,0.085-0.044,0.129c-0.102,0.302-0.2,0.607-0.298,0.912
			c-0.075,0.231-0.146,0.458-0.217,0.688c-0.007,0.014-0.01,0.027-0.014,0.041c-0.054,0.176-0.109,0.356-0.166,0.536
			c-0.027,0.085-0.051,0.17-0.078,0.258c-0.02,0.061-0.037,0.125-0.058,0.19c-0.064,0.217-0.125,0.434-0.19,0.651
			c-0.01,0.034-0.02,0.068-0.031,0.102c-0.071,0.247-0.139,0.495-0.207,0.746c-0.017,0.058-0.034,0.119-0.051,0.18
			c-0.031,0.108-0.061,0.217-0.088,0.332c-0.051,0.19-0.102,0.38-0.149,0.57c-0.024,0.095-0.047,0.186-0.071,0.281
			c-0.048,0.186-0.092,0.37-0.136,0.556c-0.014,0.047-0.024,0.092-0.034,0.139c-0.031,0.139-0.064,0.278-0.095,0.42
			c-0.017,0.061-0.031,0.122-0.044,0.183c-0.007,0.031-0.014,0.061-0.02,0.095c-0.037,0.173-0.075,0.346-0.112,0.522
			c-0.017,0.078-0.034,0.153-0.047,0.231c-0.01,0.044-0.02,0.088-0.027,0.132c-0.034,0.173-0.068,0.346-0.102,0.515
			c-0.031,0.163-0.061,0.326-0.092,0.492c-0.01,0.058-0.02,0.115-0.03,0.173c-0.01,0.051-0.017,0.105-0.027,0.156
			c-0.024,0.149-0.051,0.298-0.071,0.451c-0.024,0.122-0.041,0.244-0.058,0.363c-0.017,0.109-0.034,0.22-0.047,0.332
			c-0.01,0.054-0.017,0.109-0.024,0.159c-0.024,0.17-0.047,0.339-0.068,0.509c-0.007,0.064-0.017,0.129-0.024,0.193
			c-0.024,0.186-0.044,0.37-0.061,0.556c-0.02,0.183-0.037,0.37-0.054,0.553c-0.007,0.078-0.014,0.153-0.02,0.231
			c-0.007,0.115-0.017,0.234-0.027,0.349c-0.003,0.075-0.01,0.153-0.014,0.231c-0.02,0.281-0.034,0.563-0.044,0.848
			c-0.01,0.22-0.017,0.441-0.02,0.661c-0.047,5.195,0.536,10.443,1.851,15.468c0.922,3.669,2.19,7.148,2.97,10.593
			C349.051,377.624,348.759,382.962,347.552,388.122z"/>
		<path fill="#D69A72" d="M213.273,376.539c-0.109,4.076-0.631,8.124-1.397,12.166c-4.327,22.921-4.733,46.446-1.872,69.544
			c0.258,2.062,0.57,4.157,0.888,6.225c0.278,1.75-0.665,3.16-1.682,4.489c-1.329,1.967-2.184,4.184-2.665,6.415
			c-0.034,0.17-0.068,0.336-0.098,0.505c-0.024,0.132-0.047,0.264-0.068,0.397c-0.054,0.302-0.098,0.6-0.136,0.902
			c-0.014,0.092-0.027,0.183-0.037,0.275c-0.02,0.17-0.041,0.342-0.058,0.512c-0.003,0.044-0.01,0.088-0.014,0.132
			c-0.007,0.075-0.014,0.153-0.02,0.227c-0.017,0.159-0.031,0.315-0.041,0.471c-0.003,0.034-0.003,0.068-0.007,0.102
			c0,0.014-0.003,0.027-0.003,0.041c-0.007,0.085-0.01,0.17-0.014,0.251c-0.003,0.014-0.003,0.024-0.003,0.037
			c-0.01,0.163-0.017,0.322-0.024,0.485v0.041c-0.01,0.176-0.014,0.353-0.017,0.529v0.003c-1.102,0.261-2.197,0.363-3.279,0.346
			c0.495-2.947,1.668-8.097,4.296-12.871c2.319-4.215-1.756-19.707-0.675-51.105c0.376-10.874,5.479-33.924,5.093-39.641
			c-0.42-6.219-0.458-12.342-0.088-18.168c0.946,1.01,1.641,2.628,1.709,5.184C213.11,368.327,213.408,372.464,213.273,376.539z"/>
	</g>
	<g>
		<path fill="#AD704E" d="M233.054,175.104c-5.751-5.493-12.837-11.155-24.054-15.672c-20.853-8.389-67.258-53.146-97.375-93.91
			c-12.22-16.547-23.437-26.678-33.005-34.28c1.668-0.102,3.465-0.373,5.086-1.051l-0.183,0.21
			c9.569,7.975,25.295,26.346,40.499,44.113c10.749,12.559,21.863,25.546,31.093,35.236c17.069,17.917,34.796,30.028,49.037,39.76
			C218.21,159.12,229.06,166.539,233.054,175.104z"/>
		<path fill="#AD704E" d="M70.611,21.172c-0.482,0.719-0.943,1.451-1.383,2.163c-0.176,0.278-0.353,0.543-0.522,0.8
			c-4.076-2.401-6.876-3.289-8.416-3.614c0.251-0.882,0.665-1.736,1.336-2.536c0.278-0.251,0.556-0.509,0.834-0.773
			C63.755,17.734,66.617,18.968,70.611,21.172z"/>
		<path fill="#AD704E" d="M51.365,20.304c-2.529-0.102-5.012,0.468-7.324,1.444c-0.78,0.339-1.526,0.719-2.245,1.139
			c-1.689-1.105-4.171-1.404-6.266-1.411c0.929-0.943,2.211-1.899,3.886-2.394l4.13-1.227l-5.256-2.618
			c3.309-1.492,8.992-3.025,13.353,1.146C51.915,17.686,51.854,18.995,51.365,20.304z"/>
		<path fill="#AD704E" d="M165.22,155.068c1.138-0.929,2.062-2.057,2.98-3.185c1.931-2.376,3.911-4.726,5.281-7.492
			c1.076-2.172,0.82-3.877-0.809-5.659c-1.798-1.969-3.916-3.554-6.194-4.918c-0.976-0.584-2.054-0.94-3.22-0.925
			c-1.535-0.056-2.775,0.669-3.861,1.613c-3.599,3.124-6.85,6.598-9.924,10.23c-1.261,1.491-1.176,2.746,0.21,4.114
			c3.487,3.442,7.738,5.564,12.38,6.969C163.242,156.173,164.283,155.833,165.22,155.068z"/>
		<path fill="#AD704E" d="M142.883,156.002c1.415,2.506,3.368,4.505,5.784,6.054c0.66,0.423,1.387,0.673,2.183,0.676
			c1.38,0.004,2.902-1.026,3.271-2.212c0.339-1.095-0.268-2.362-1.545-3.222c-0.098-0.066-0.196-0.137-0.301-0.189
			c-2.182-1.077-4.359-2.165-6.553-3.216c-0.643-0.308-1.347-0.489-2.076-0.404c-0.983,0.115-1.401,0.754-1.115,1.697
			C142.616,155.468,142.738,155.745,142.883,156.002z"/>
		<path fill="#AD704E" d="M312.728,308.5c1.415,2.506,3.368,4.505,5.784,6.054c0.66,0.423,1.387,0.673,2.183,0.676
			c1.38,0.004,2.902-1.026,3.271-2.212c0.339-1.095-0.268-2.362-1.545-3.222c-0.098-0.066-0.196-0.137-0.301-0.189
			c-2.182-1.077-4.359-2.165-6.553-3.216c-0.643-0.308-1.347-0.489-2.076-0.404c-0.983,0.115-1.401,0.754-1.115,1.697
			C312.461,307.966,312.583,308.243,312.728,308.5z"/>
		<path fill="#AD704E" d="M98.142,116.232c0.203,0.407,0.406,0.815,0.606,1.225c0.014,0.014,0.029,0.026,0.043,0.041
			c5.234,5.48,8.223,12.352,10.902,19.328c0.703-3.313,1.332-6.642,2.035-9.955c0.685-3.225,0.079-6.13-1.599-8.886
			c-0.294-0.483-0.57-0.977-0.875-1.452c-3.23-5.041-6.836-9.808-10.596-14.459c-1.25-1.547-2.492-3.113-4.112-4.312
			c-0.806-0.702-1.723-0.866-2.75-0.602c-0.993,0.256-1.898,0.691-2.748,1.251c-0.441,0.291-0.797,0.623-1.08,0.998
			c3.608,4.773,6.609,9.858,9.325,15.148C97.653,115.068,97.946,115.626,98.142,116.232z"/>
		<path fill="#AD704E" d="M200.283,159.759c-0.141-0.768-0.287-1.536-0.439-2.301c-6.098-4.441-12.027-9.283-17.691-14.289
			c-0.07,0.079-0.142,0.152-0.209,0.237c-2.835,3.586-5.17,7.475-7.11,11.606c-0.379,0.806-0.671,1.65-0.883,2.521
			c-0.562,2.311,0.032,4.222,1.911,5.717c1.447,1.15,3.035,2.088,4.595,3.068c0.586,0.404,1.184,0.793,1.755,1.217
			c2.506,1.86,2.941,3.155,2.034,6.14c-0.604,1.991-1.282,3.96-1.861,5.957c-0.354,1.225,0.076,1.93,1.309,1.977
			c4.062,0.152,7.847-0.582,10.626-3.915c2.333-2.798,4.264-5.863,5.773-9.183c0.676-1.489,0.934-3.049,0.777-4.693
			C200.741,162.452,200.53,161.103,200.283,159.759z"/>
		<path fill="#AD704E" d="M117.324,145.782c2.897,0.175,5.634,0.72,7.916,2.759c0.964,0.861,2.155,1.481,3.286,2.134
			c1.546,0.894,3.135,1.722,4.925,2.026c1.589,0.27,2.459-0.483,2.465-2.081c-0.038-0.928-0.218-1.836-0.499-2.713
			c-1.677-5.23-3.935-10.198-6.726-14.932c-0.801-1.358-1.892-2.038-3.436-2.187c-2.355-0.227-4.598-0.893-6.776-1.828
			c-2.555-1.098-3.345-0.642-3.751,2.14c-0.566,3.868-0.612,7.758-0.373,11.656C114.514,145.373,114.745,145.628,117.324,145.782z"
			/>
		<path fill="#AD704E" d="M84.101,57.728c1.631,0.098,3.172,0.405,4.456,1.553c0.543,0.485,1.213,0.834,1.85,1.201
			c0.87,0.503,1.765,0.969,2.772,1.14c0.894,0.152,1.384-0.272,1.388-1.172c-0.022-0.523-0.122-1.033-0.281-1.527
			c-0.944-2.944-2.215-5.741-3.786-8.405c-0.451-0.764-1.065-1.147-1.934-1.231c-1.326-0.128-2.588-0.503-3.814-1.029
			c-1.438-0.618-1.883-0.361-2.112,1.204c-0.319,2.177-0.344,4.367-0.21,6.561C82.519,57.497,82.649,57.64,84.101,57.728z"/>
		<path fill="#AD704E" d="M144.977,142.307c1.258-1.437,2.283-3.04,3.365-4.606c2.004-2.898,2.826-6.124,2.777-9.61
			c0.009-1.911-0.352-3.742-1.536-5.295c-2.857-3.747-6.135-7.109-9.562-10.329c-1.202-1.13-2.677-1.518-4.295-1.309
			c-1.893,0.246-3.747,0.683-5.531,1.363c-1.595,0.609-2.064,1.372-2.008,3.07c0.137,4.21,1.086,8.097,4.099,11.295
			c1.787,1.898,2.66,4.255,2.859,6.871c0.087,1.153,0.284,2.303,0.517,3.437c0.336,1.631,0.715,3.26,1.697,4.66
			C139.366,144.715,142.7,144.911,144.977,142.307z"/>
		<path fill="#AD704E" d="M149.347,209.342c2.021,1.255,3.803,3.021,5.322,5.464c0.631,1.015,0.962,2.08,1.048,3.138
			c1.037-0.047,2.071-0.111,3.1-0.193c-1.142-3.607-2.721-7.022-4.647-10.282c-0.428-0.724-1.125-0.714-1.817-0.588
			c-1.369,0.25-2.693,0.617-3.973,1.094C148.696,208.443,149.02,208.904,149.347,209.342z"/>
		<path fill="#AD704E" d="M170.766,196.801c2.125-2.854,3.748-6.005,4.998-9.337c0.794-2.116,0.799-4.252,0.006-6.375
			c-0.704-1.887-1.747-3.577-3.023-5.128c-0.329-0.683-0.922-1.156-1.388-1.729c-2.344-2.888-4.804-5.672-7.583-8.153
			c-1.228-1.097-2.008-1.182-3.383-0.263c-3.328,2.227-6.34,4.822-8.793,8.017c-0.837,1.091-1.172,2.336-0.955,3.696
			c0.287,1.794,0.733,3.548,1.391,5.246c0.03,0.206,0.034,0.42,0.095,0.615c1.82,5.818,3.61,11.645,5.488,17.444
			c0.895,2.765,1.85,3.163,4.632,2.24c0.141-0.047,0.283-0.095,0.42-0.152C165.893,201.571,168.676,199.608,170.766,196.801z"/>
		<path fill="#AD704E" d="M200.114,360.332c0.49-0.658,0.864-1.384,1.152-2.152c0.183-0.488,0.184-0.98,0.001-1.469
			c-0.162-0.435-0.403-0.824-0.697-1.182c-0.076-0.157-0.212-0.266-0.32-0.398c-0.54-0.665-1.107-1.307-1.747-1.879
			c-0.283-0.253-0.463-0.272-0.779-0.061c-0.767,0.513-1.461,1.111-2.026,1.847c-0.193,0.251-0.27,0.538-0.22,0.852
			c0.066,0.413,0.169,0.818,0.32,1.209c0.007,0.047,0.008,0.097,0.022,0.142c0.419,1.341,0.832,2.683,1.264,4.02
			c0.206,0.637,0.426,0.729,1.067,0.516c0.033-0.011,0.065-0.022,0.097-0.035C198.991,361.431,199.632,360.979,200.114,360.332z"/>
		<path fill="#AD704E" d="M189.709,206.331c1.655-1.519,1.969-3.968,0.846-5.914c-0.007-0.011-0.013-0.023-0.02-0.035
			c-0.854-1.495-1.675-3.012-2.673-4.423c-0.498-0.704-1.095-0.921-1.923-0.645c-3.432,1.14-6.555,2.832-9.306,5.197
			c-0.692,0.595-1.303,1.287-1.786,2.062c-2.623,4.211-7.15,12.023,2.728,12.618c0.954,0.057,1.7-0.868,2.537-1.32
			C182.881,212.373,186.851,208.954,189.709,206.331z"/>
		<path fill="#AD704E" d="M345.469,315.416c1.342-1.231,1.596-3.216,0.686-4.794c-0.005-0.009-0.011-0.019-0.016-0.028
			c-0.693-1.212-1.357-2.442-2.167-3.585c-0.404-0.571-0.888-0.746-1.559-0.523c-2.782,0.924-5.313,2.296-7.543,4.212
			c-0.561,0.483-1.056,1.043-1.447,1.671c-2.126,3.414-5.796,9.745,2.211,10.227c0.773,0.047,1.378-0.703,2.056-1.07
			C339.934,320.313,343.152,317.542,345.469,315.416z"/>
		<path fill="#AD704E" d="M121.868,161.347c2.851,5.581,5.344,11.385,7.928,17.1c3.291,7.277,8.12,13.293,12.592,19.838
			c1.044,1.528,1.991,3.119,2.931,4.713c1.018-1.063,1.946-2.215,2.77-3.461c1.359-2.056,1.717-4.275,0.906-6.641
			c-0.165-0.508-0.29-1.032-0.501-1.52c-1.75-4.038-3.309-8.144-4.486-12.39c-0.476-2.026-0.94-4.054-1.429-6.077
			c-0.809-3.352-1.388-6.755-2.27-10.093c-0.392-1.482-1.277-2.433-2.687-2.973c-1.171-0.448-2.36-0.828-3.59-1.053
			c-2.421-0.442-4.72-1.2-6.86-2.433c-0.695-0.4-1.424-0.745-2.159-1.067c-2.07-0.906-4.186-1.047-6.354-0.344
			c-0.093,0.03-0.163,0.075-0.247,0.111C120.54,156.337,122.031,158.523,121.868,161.347z"/>
		<path fill="#AD704E" d="M207.578,162.582c-0.15,0.381-0.283,0.783-0.387,1.219c-0.916,3.814-2.091,7.566-3.117,11.355
			c-0.57,2.1-1.607,3.888-3.249,5.323c-0.94,0.822-1.869,1.657-2.806,2.484c-0.562,0.494-0.784,1.076-0.604,1.833
			c0.264,1.114,0.233,2.238,0.051,3.367c-0.32,1.995-0.613,3.994-0.918,5.992c-0.158,0.583-0.211,1.162-0.013,1.754
			c0.838,2.503,3.51,3.324,5.553,1.694c0.278-0.222,0.542-0.463,0.795-0.714c2.402-2.386,4.257-5.179,5.995-8.06
			c0.329-0.377,0.612-0.779,0.713-1.283c0.118-0.167,0.236-0.333,0.354-0.5c0.44-0.551,0.822-1.136,1.047-1.811
			c0.123-0.199,0.247-0.4,0.369-0.6c0.446-0.513,0.739-1.118,1.033-1.724c0.033-0.049,0.056-0.103,0.073-0.159
			c0.654-0.887,1.384-1.7,2.289-2.342c0.354-0.208,0.716-0.402,1.06-0.625c1.617-1.049,3.6-1.519,4.89-3.086
			c0.881-0.999,1.693-2.048,2.276-3.254c0.707-1.087,1.403-2.182,2.125-3.26c0.154-0.23,0.308-0.461,0.462-0.692
			C219.358,168.439,213.077,165.766,207.578,162.582z"/>
		<path fill="#AD704E" d="M126.002,85.353c-2.109-2.613-4.324-5.213-6.197-8.012c-0.171,0.728-0.331,1.459-0.47,2.196
			c-0.422,2.237-0.574,4.475-0.091,6.724c0.493,2.295,1.139,4.551,1.771,6.811c0.688,2.984,1.488,5.936,2.459,8.844
			c0.465,1.394,1.31,2.262,2.769,2.584c1.188,0.261,2.356,0.62,3.527,0.956c3.114,0.894,5.741,0.06,7.964-2.225
			c0.249-0.256,0.498-0.511,0.757-0.756c0.457-0.433,0.761-0.899,0.925-1.398C134.811,95.952,130.329,90.715,126.002,85.353z"/>
		<path fill="#AD704E" d="M105.451,63.063c-2.193-2.745-4.737-5.848-6.615-9.157c0.099,0.536,0.197,1.073,0.297,1.609
			c0.472,2.542,0.825,5.12,1.838,7.525c1.169,2.77,3.024,4.923,5.92,5.961c1.617,0.58,3.255,0.529,4.699,0.01
			C109.221,67.438,107.127,65.161,105.451,63.063z"/>
		<path fill="#AD704E" d="M114.913,88.706c-0.335-2.414-0.48-4.854-1.016-7.242c-0.327-1.461-1.137-2.525-2.429-3.252
			c-1.177-0.662-2.45-1.072-3.74-1.436c-1.563-0.441-1.823-0.349-2.697,1.056c-1.341,2.154-2.327,4.48-3.319,6.81
			c-1.278,3-0.947,5.712,1.003,8.308c1.715,2.282,3.353,4.622,5.024,6.937c1.448,2.791,2.13,5.865,3.232,8.784
			c0.904,2.393,1.79,4.796,3.112,7.002c0.728,1.215,1.513,1.416,2.78,0.792c1.06-0.523,1.66-1.422,2.003-2.507
			c0.741-2.34,1.128-4.746,1.206-7.193c0.085-2.62-0.793-5.032-1.746-7.416c-1.157-2.895-2.595-5.687-3.209-8.781
			C115.05,89.947,114.999,89.324,114.913,88.706z"/>
		<path fill="#AD704E" d="M85.212,81.317c0.157,1.345,0.528,2.642,1.34,3.755c0.834,1.142,2.071,1.975,3.877,1.152
			c1.186-0.54,2.371-1.076,3.486-1.759c0.959-0.587,1.66-1.391,2.055-2.436c0.95-2.51,1.861-5.036,2.67-7.596
			c0.293-0.928,0.237-1.934-0.146-2.829c-0.229-0.534-0.51-1.038-0.819-1.526c-0.573-0.906-1.094-1.843-1.588-2.794
			c-0.005-0.009-0.01-0.019-0.015-0.028c-0.808-1.569-2.9-1.916-4.12-0.64c-0.178,0.186-0.349,0.363-0.512,0.52
			c-1.039,1.002-2.042,2.041-3.008,3.114c-1.315,1.46-2.56,2.983-3.73,4.562c-0.868,1.172-0.925,2.746-0.196,4.009
			C84.94,79.568,85.212,80.399,85.212,81.317z"/>
		<path fill="#AD704E" d="M70.404,68.539c-0.027,0.929-0.224,1.845-0.471,2.75c-0.088,0.329-0.298,0.481-0.637,0.312
			c-0.766-0.387-1.414-0.899-1.882-1.519c0.346-0.142,0.685-0.295,1.021-0.454c0.17-0.081,0.339-0.163,0.505-0.251
			c0.125-0.064,0.251-0.129,0.373-0.197c0.061-0.034,0.125-0.068,0.187-0.102c0.061-0.034,0.122-0.068,0.183-0.105
			c0.044-0.024,0.092-0.051,0.136-0.078c0.047-0.027,0.092-0.054,0.136-0.081c0.017-0.007,0.031-0.014,0.044-0.024
			c0.017-0.01,0.034-0.017,0.047-0.027c0.061-0.037,0.122-0.075,0.18-0.112c0.031-0.017,0.061-0.034,0.092-0.054
			C70.347,68.577,70.374,68.56,70.404,68.539z"/>
		<path fill="#AD704E" d="M71.592,50.999c-0.175,0.331-0.211,0.677,0,1.128c0.475,0.828,1.239,1.497,2.183,1.97
			c0.337,0.169,0.549,0.017,0.637-0.31c0.345-1.272,0.599-2.562,0.419-3.885c-0.133-0.975-0.86-1.28-1.673-0.716
			C72.485,49.652,71.974,50.275,71.592,50.999z"/>
		<path fill="#AD704E" d="M66.287,71.127c-0.973-0.574-1.686-0.565-2.325,0.055c-0.506,0.492-0.939,1.186-1.23,1.972
			c1.773-0.124,3.593-0.298,5.388-0.605C67.57,72.01,66.966,71.528,66.287,71.127z"/>
		<path fill="#AD704E" d="M67.685,50.925c-0.183,0.519-0.519,0.695-1.055,0.573c-0.831-0.19-1.77-0.865-2.499-1.692v-0.003
			c-0.051-0.203-0.105-0.41-0.156-0.617c-0.264-1.061-0.607-2.051-1.021-2.974v-0.007c0.092-0.4,0.268-0.783,0.532-1.143
			c0.637-0.861,1.478-0.929,2.265-0.207c0.478,0.437,0.909,1.119,1.316,2.075c0.417,0.993,0.688,2.024,0.729,3.106
			C67.807,50.335,67.787,50.636,67.685,50.925z"/>
		<path fill="#AD704E" d="M73.168,58.12c0.014,1.411-0.407,2.699-1.17,3.876c-0.288,0.441-0.702,0.678-1.204,0.427
			c-0.882-0.441-1.712-0.939-2.479-1.519c-0.854-1.6-1.75-3.56-2.597-5.924c0.085-0.173,0.186-0.346,0.302-0.512
			c0.478-0.695,1.038-0.871,1.807-0.553c1.529,0.637,2.977,1.428,4.354,2.346C72.842,56.702,73.161,57.343,73.168,58.12z"/>
		<path fill="#AD704E" d="M77.396,68.814c-0.039-0.455-0.089-0.91-0.157-1.364c-0.086-0.576-0.234-1.139-0.471-1.746
			c-0.056-0.107-0.136-0.277-0.231-0.438c-0.928-1.582-2.219-1.646-3.222-0.107c-1.319,2.024-1.915,4.265-1.913,6.645
			c1.643-0.479,3.224-1.124,4.676-2.012C76.557,69.499,76.995,69.171,77.396,68.814z"/>
		<path fill="#AD704E" d="M58.9,72.91c-1.19-0.105-2.384-0.207-3.57-0.281c-0.515-0.034-1.027-0.051-1.539-0.071
			c0.027-0.146,0.047-0.288,0.078-0.434c0.024-0.105,0.051-0.21,0.081-0.312c0.061-0.007,0.125-0.01,0.187-0.01
			c0.4-0.02,0.804-0.037,1.204-0.051c0.237-0.01,0.478-0.02,0.719-0.024c0.092-0.003,0.183-0.007,0.275-0.01
			c0.526-0.02,1.055-0.037,1.583-0.051c0.153,0.007,0.309,0.01,0.461,0.017h0.003C58.554,72.09,58.727,72.5,58.9,72.91z"/>
		<path fill="#AD704E" d="M82.194,24.576c0.956-1.35,1.729-2.835,2.292-4.381c-3.662,0.529-7.005,2.245-9.914,4.611
			c1.465-4.808,6.822-7.717,11.684-7.297l1.702,0.129l-0.509,1.472C86.527,21.525,84.696,23.749,82.194,24.576z M76.789,18.771
			c-4.415,3.038-6.375,10.193-12.091,11.84c0.604-1.37,1.322-2.543,2.082-3.669c-3.262-1.899-5.52-2.685-6.775-3.004
			c0.088,1.58,0.38,3.214,0.509,4.849c-4.571-2.326-3.947-9.107-1.2-12.695c0.895-1.058,2.028-1.912,2.841-3.058
			c0.421-0.543,0.854-1.166,1.241-1.831c-3.33,0.319-6.693,0.692-10.009,1.105c0.251,0.563,0.488,1.133,0.699,1.709
			c0.007,0.007,0.007,0.007,0.014,0.014l-0.007,0.007c0.278,0.773,0.488,1.573,0.57,2.401c0.529,4.516-2.516,10.199-7.453,10.45
			c0.604-1.166,1.227-2.068,1.865-2.943c-7.1,1.295-12.329,7.792-15.251,14.173c-2.645,5.554-7.31,9.982-11.732,13.746
			C15.017,57.948,6.811,63.8,4.397,73.084c-0.461,1.756-1.68,3.634-1.727,5.458c-0.007,0.19,0.376,1.234,0.437,1.356
			c1.614,1.763,11.819,2.835,13.948,1.913c2.346-0.976,6.571-1.5,6.578-1.506c2.496-1.424,8.358-2.963,8.358-2.963
			c0.245-3.025-2.781-5.412-1.728-7.578c4.787-9.854-7.667-13.656-7.667-13.656c7.332-5.34,12.998-11.532,17.811-21.552
			c3.741-7.79,18.98-10.419,32.124-2.356c0.38-1.478,1.601-2.665,3.208-3.038c2.835-0.692,6.3-0.705,8.239-2.57
			c3.106-2.794,5.032-6.748,6.551-10.64C85.829,15.238,80.729,16.079,76.789,18.771z"/>
		<path fill="#AD704E" d="M316.981,278.927c-0.054,1.054-0.573,1.828-1.444,2.374c-1.295,0.814-2.75,1.221-4.215,1.56
			c-1.21,0.281-2.421,0.515-3.635,0.705c-0.648,0.098-1.295,0.186-1.943,0.258c-0.498,0.058-0.997,0.108-1.495,0.146
			c-3.194,0.261-6.405,0.193-9.63-0.214c-0.851-0.109-1.689-0.312-2.479-0.678c-1.061-0.495-1.594-1.333-1.658-2.482
			c-0.051-0.892,0.119-1.753,0.356-2.604c0.044-0.166,0.088-0.329,0.139-0.492c0.4-1.411,0.929-2.77,1.658-4.052
			c0.353-0.624,0.797-1.17,1.356-1.621c1.472-1.183,2.94-2.377,4.425-3.543c0.437-0.342,0.922-0.634,1.407-0.905
			c0.983-0.556,1.973-0.593,3.014-0.078c1.404,0.692,2.828,1.319,4.286,1.868c0.197,0.075,0.397,0.149,0.597,0.22
			c0.261,0.095,0.526,0.186,0.79,0.275c0.281,0.098,0.566,0.19,0.848,0.278c1.017,0.315,2.048,0.593,3.096,0.821
			c1.607,0.349,2.716,1.312,3.391,2.797C316.622,275.265,317.08,277.035,316.981,278.927z"/>
		<path fill="#AD704E" d="M287.175,259.498c1.146,2.2,2.841,2.665,4.985,1.398c2.826-1.671,4.159-4.257,4.449-7.417
			c0.337-3.661,1.2-7.148,3.064-10.344c0.762-1.306,0.753-2.611,0.105-3.94c-0.974-1.996-1.853-4.03-2.641-6.109
			c-0.61-1.609-1.867-2.039-3.406-1.252c-0.439,0.225-0.874,0.515-1.213,0.869c-2.852,2.974-5.008,6.374-6.262,10.236
			c-0.823,4.922-0.822,9.735,0.178,14.538C286.581,258.185,286.841,258.857,287.175,259.498z"/>
		<path fill="#AD704E" d="M265.737,298.885c-1.055,1.814-1.546,3.791-1.736,5.869c-0.166,1.79-0.922,3.258-2.526,4.208
			c-1.217,0.719-2.177,0.454-2.828-0.793c-0.19-0.363-0.336-0.746-0.42-1.146c-0.566-2.726-0.566-5.456-0.102-8.25
			c0.37-1.143,0.882-2.214,1.516-3.214c0.183-0.295,0.38-0.58,0.583-0.861c0.441-0.604,0.926-1.18,1.455-1.733
			c0.193-0.2,0.441-0.366,0.688-0.492c0.875-0.448,1.587-0.203,1.933,0.709c0.448,1.18,0.946,2.333,1.499,3.465
			C266.168,297.403,266.171,298.142,265.737,298.885z"/>
		<path fill="#AD704E" d="M287.204,280.65c-0.288,1.373-0.397,2.757-0.41,4.157c-0.014,1.533-0.298,3.035-0.641,4.52
			c-0.047,0.197-0.108,0.393-0.183,0.58c-0.312,0.78-0.943,0.922-1.553,0.329c-0.553-0.539-0.868-1.221-1.051-1.967
			c-0.18-0.546-0.247-1.109-0.295-1.678c-0.031-0.366-0.058-0.732-0.085-1.099c-0.031-0.468-0.064-0.932-0.098-1.4
			c-0.061-0.78-0.132-1.556-0.231-2.333c-0.088-0.695,0.007-1.322,0.326-1.875c0.156-0.268,0.359-0.519,0.624-0.749
			c0.539-0.475,1.01-1.024,1.563-1.475c1.004-0.817,1.733-0.553,2.034,0.692c0.027,0.112,0.047,0.22,0.064,0.332
			C287.377,279.341,287.34,279.999,287.204,280.65z"/>
		<path fill="#AD704E" d="M316.603,242.344c-0.865-2.773-2.759-3.778-5.508-2.859c-1.571,0.525-3.088,1.208-4.646,1.775
			c-3.778,1.373-5.375,4.333-5.706,8.073c-0.28,3.161,0.935,6.018,2.274,8.8c1.67,3.469,4.01,5.001,8.924,4.146
			c1.38-0.24,2.212-1.113,2.508-2.469c0.12-0.547,0.231-1.116,0.212-1.67c-0.117-3.379,0.608-6.588,1.832-9.442
			C317.124,246.417,317.237,244.379,316.603,242.344z"/>
		<path fill="#AD704E" d="M238.866,313.536c-1.265,1.163-2.228,1.156-3.36,0.465c-0.909-0.556-1.794-1.156-2.302-2.126
			c-0.6-1.146-0.692-2.302,0.149-3.404c0.346-0.454,0.658-0.936,1.014-1.38c0.624-0.78,1.36-0.844,2.129-0.2
			c0.563,0.471,0.912,1.082,1.153,1.861c0.18,1.055,0.566,2.119,1.231,3.075c0.112,0.159,0.183,0.342,0.251,0.526
			C239.3,312.801,239.218,313.207,238.866,313.536z"/>
		<path fill="#AD704E" d="M352.168,234.284c-3.109-3.713-6.29-7.36-9.717-10.788c-1.541-1.541-3.117-2.966-4.733-4.296
			c-0.649,5.214-1.518,10.381-2.764,15.498c-1.423,5.844,0.01,11.379,2.521,16.649c1.415,2.97,3.912,3.64,6.829,2.121
			c1.482-0.772,2.675-1.948,4.016-2.916c2.952-2.13,3.952-4.893,3.249-8.438c-0.494-2.489-0.244-4.98,0.482-7.425
			C352.091,234.554,352.129,234.418,352.168,234.284z"/>
		<path fill="#AD704E" d="M320.625,209.299c1.43,3.199,2.929,6.376,3.492,9.899c0.212,1.326,0.518,2.641,0.847,3.944
			c0.72,2.85,1.356,5.73,2.434,8.473c0.695,1.77,1.863,1.911,3.07,0.428c0.963-1.183,1.422-2.601,1.489-4.084
			c0.179-3.945,1.058-7.653,2.597-11.197C330.29,213.703,325.703,211.262,320.625,209.299z"/>
		<path fill="#AD704E" d="M253.629,296.139c0,0-0.003,0-0.007,0c-0.19,0.085-0.403,0.132-0.631,0.136h-0.02
			c-1.112,0.014-2.221,0.003-3.33-0.027c-0.085-0.061-0.173-0.125-0.258-0.19c-0.559-0.407-1.122-0.814-1.685-1.214
			c-0.597-0.424-1.122-0.943-1.529-1.553c-0.434-0.651-0.926-1.255-1.546-1.736c-0.963-0.743-1.187-1.699-0.929-2.841
			c0.224-0.993,0.576-1.895,1.383-2.574c0.709-0.6,1.129-1.424,1.607-2.201c0.59-0.956,1.448-1.475,2.553-1.583
			c1.061-0.105,1.604,0.271,1.882,1.309c0.203,0.763,0.231,1.553,0.319,2.333c0.146,1.299,0.319,2.594,0.749,3.842
			c0.061,0.173,0.132,0.339,0.217,0.502c0.102,0.183,0.22,0.359,0.363,0.512c0.668,0.722,1.095,1.567,1.448,2.452
			c0.102,0.251,0.197,0.505,0.288,0.76c0.003,0.01,0.007,0.02,0.01,0.031C254.816,294.928,254.382,295.803,253.629,296.139z"/>
		<path fill="#AD704E" d="M339.623,283.695c1.221,0.453,2.131,0.141,2.824-0.967c0.419-0.668,0.63-1.41,0.83-2.178
			c1.078-6.29,0.099-12.184-3.558-17.504c-1.536-2.235-3.503-4.023-6.088-5.044c-4.259-1.681-8.205,0.789-8.506,5.34
			c-0.177,2.665,0.328,5.224,1.215,7.718c0.636,1.788,1.459,3.47,3.077,4.595c2.715,1.89,5.181,4.072,7.578,6.341
			C337.759,282.721,338.621,283.323,339.623,283.695z"/>
		<path fill="#AD704E" d="M318.625,248.111c-0.459,1.816-0.606,3.365-0.264,4.926c0.373,1.698,1.192,2.409,2.905,2.266
			c2.553-0.213,5.096-0.555,7.639-0.868c0.428-0.053,0.853-0.204,1.256-0.369c1.918-0.782,2.672-2.134,2.325-4.165
			c-0.079-0.461-0.187-0.924-0.351-1.361c-0.992-2.634-1.952-5.282-3.028-7.881c-0.723-1.747-1.916-3.144-3.676-3.977
			c-2.57-1.216-4.453-0.026-4.387,2.777c0.003,0.125,0.003,0.251,0.014,0.375c0.12,1.375-0.172,2.665-0.735,3.919
			C319.645,245.264,318.931,246.765,318.625,248.111z"/>
		<path fill="#AD704E" d="M287.902,305.287c-0.248,0.098-0.505,0.193-0.766,0.224c-1.55,0.19-3.096,0.4-4.652,0.529
			c-1.041,0.088-1.539-0.346-1.767-1.38c-0.21-0.949-0.119-1.892,0.159-3.001c0.186-0.817,0.62-1.733,1.034-2.652
			c0.342-0.763,0.519-1.55,0.448-2.387c-0.007-0.075-0.007-0.153-0.007-0.227c-0.041-1.709,1.105-2.431,2.669-1.692
			c1.071,0.509,1.8,1.356,2.241,2.421c0.654,1.583,1.238,3.197,1.841,4.798c0.102,0.268,0.166,0.549,0.214,0.831
			C289.53,303.988,289.069,304.809,287.902,305.287z"/>
		<path fill="#AD704E" d="M280.256,263.774c-0.458,1.526-0.431,3.021,0.387,4.445c1.716,2.994,1.556,5.971-0.081,8.931
			c-0.183,0.329-0.339,0.671-0.536,0.99c-0.566,0.919-1.044,1.855-1.434,2.811c-0.39,0.96-0.688,1.943-0.902,2.947
			c-0.288,1.37-0.41,2.78-0.376,4.232c0.014,0.526,0.047,1.055,0.102,1.59c0.261,2.58,0.281,5.191-0.753,7.673
			c-0.376,0.905-0.844,1.75-1.563,2.424c-1.587,1.485-3.581,1.278-4.845-0.498c-0.773-1.085-1.272-2.299-1.58-3.587
			c-0.458-1.909-0.739-3.832-0.81-5.761c-0.064-1.641,0.024-3.289,0.285-4.944c0.278-1.746,1.041-3.34,1.787-4.923
			c1.76-3.737,3.55-7.456,4.574-11.284c0.495-2.14,0.692-4.133,1.01-6.11c0.417-2.574,1.241-4.974,3.025-6.951
			c0.57-0.634,1.194-1.207,1.99-1.536c1.295-0.526,2.329,0.2,2.177,1.587c-0.2,1.817-0.973,3.486-1.536,5.205
			C280.873,261.936,280.534,262.845,280.256,263.774z"/>
		<path fill="#AD704E" d="M334.668,294.102c0.516-0.948,0.643-1.924,0.406-2.98c-0.346-1.543-0.903-3.004-1.606-4.412
			c-0.347-0.695-0.736-1.366-1.283-1.931c-0.975-1.005-2.08-1.156-3.279-0.438c-0.695,0.416-1.229,0.996-1.671,1.667
			c-0.916,1.391-1.342,2.952-1.527,4.578c-0.214,1.878-0.162,3.79-0.747,5.62c-0.321,1.187-0.588,2.38-0.541,3.624
			c0.056,1.467,0.646,2.656,1.857,3.494c1.565,1.083,3.324,1.645,5.215,1.757c1.345,0.08,1.922-0.509,1.927-1.866
			c0.003-0.887-0.155-1.76-0.276-2.635c-0.16-1.152-0.221-2.295,0.141-3.429C333.627,296.079,334.134,295.084,334.668,294.102z"/>
		<path fill="#AD704E" d="M241.877,282.043c-0.244,1.899-0.868,3.686-1.665,5.415c-0.183,0.393-0.458,0.729-0.817,0.983
			c-1.414,1.007-2.072,2.452-2.346,4.106c-0.061,0.376-0.119,0.756-0.173,1.136c-0.071,0.488-0.136,0.98-0.197,1.472
			c-0.278,2.224-1.424,3.886-3.282,5.076c-1.183,0.756-2.177,1.682-2.879,2.909c-0.224,0.387-0.512,0.739-0.851,1.034
			c-0.261,0.227-0.536,0.339-0.8,0.336c-0.329-0.007-0.641-0.193-0.885-0.546c-0.305-0.448-0.458-0.953-0.559-1.475
			c-0.01-0.058-0.02-0.112-0.031-0.17c-0.231-1.312-0.278-2.618,0.024-3.906c0.058-0.247,0.129-0.495,0.214-0.743
			c0.624-1.807,0.512-3.672,0.444-5.534c-0.02-0.61-0.031-1.221-0.014-1.828c0-0.075,0-0.149,0.003-0.224
			c0.024-0.641,0.075-1.282,0.163-1.919c0.17-1.2,0.57-2.309,1.19-3.336c0.542-0.899,1.139-1.77,1.705-2.652
			c0.478-0.746,1.149-1.119,2.045-1.065c0.224,0.017,0.451-0.007,0.671,0.02c1.692,0.203,3.333-0.044,4.94-0.573
			c0.509-0.166,1.031-0.295,1.573-0.281C241.409,280.314,242.009,280.992,241.877,282.043z"/>
		<path fill="#AD704E" d="M188.189,270.04c0.713,2.124,2.471,2.978,4.547,2.144c1.799-0.723,3.356-1.84,4.404-3.461
			c1.562-2.417,3.734-4.051,6.27-5.239c4.33-2.028,8.142-4.652,10.981-8.606c2.195-3.057,4.435-6.067,6.048-9.495
			c1.038-2.205,1.03-4.305-0.321-6.366c-1.191-1.815-1.841-3.825-2.161-5.96c-0.149-0.997-0.424-1.974-1.043-2.782
			c-1.654-2.158-2.754-4.576-3.629-7.135c-0.726-2.123-1.901-2.466-3.83-1.294c-0.135,0.082-0.262,0.176-0.392,0.266
			c-1.693,1.176-3.011,2.715-4.092,4.438c-1.862,2.967-3.931,5.782-6.049,8.566c-1.434,1.886-2.791,3.829-3.626,6.075
			c-1.194,3.211-2.684,6.284-4.266,9.317c-0.887,1.702-1.751,3.418-2.31,5.351c-0.189,0.986-0.273,2.06-0.246,3.14
			c0.046,1.846-0.089,3.674-0.377,5.499C187.805,266.344,187.57,268.197,188.189,270.04z"/>
		<path fill="#AD704E" d="M358.197,242.164c-0.325,0.415-0.584,0.919-0.768,1.51c-0.278,0.897-0.482,1.811-0.565,2.752
			c-0.448,5.131,1.188,9.658,3.993,13.819C360.552,254.093,359.649,248.042,358.197,242.164z"/>
		<path fill="#AD704E" d="M350.492,251.515c-1.864,1.128-3.455,2.579-4.643,4.431c-0.375,0.584-0.639,1.218-0.77,1.902
			c-0.175,0.64-0.227,1.294-0.197,1.953c0.197,4.323,2.654,7.453,5.571,10.282c0.974,0.945,2.238,0.723,3.184-0.278
			c0.94-0.995,1.422-2.237,1.525-3.561c0.359-4.605-0.56-9.093-1.482-13.557C353.327,250.983,352.033,250.582,350.492,251.515z"/>
		<path fill="#AD704E" d="M297.712,304.815c0,0.77-0.193,1.499-0.529,2.18c-0.278,0.566-0.736,0.692-1.16,0.258
			c-1.116-1.143-2.231-2.289-2.994-3.713c-0.22-0.41-0.312-0.868-0.224-1.336c0.088-0.475,0.42-0.78,0.885-0.685
			c1.394,0.285,2.706,0.743,3.581,1.98c0.132,0.186,0.241,0.39,0.312,0.61C297.671,304.337,297.715,304.575,297.712,304.815z"/>
		<path fill="#AD704E" d="M209.234,358.986c-0.044,0.532-0.237,1.034-0.617,1.434c-0.38,0.404-0.892,0.495-1.282,0.112
			c-0.736-0.712-1.397-1.468-1.811-2.363v-0.003c-0.248-0.539-0.407-1.122-0.437-1.777c-0.01-0.268,0.01-0.532,0.081-0.79
			c0.051-0.275,0.159-0.529,0.309-0.766c0.481-0.746,1.122-1.333,1.872-1.787c0.624-0.376,1.143-0.214,1.285,0.475
			c0.275,1.326,0.549,2.665,0.617,4.021C209.275,358.019,209.271,358.501,209.234,358.986z"/>
		<path fill="#AD704E" d="M252.187,279.827c1.373-0.211,2.689-0.648,3.886-1.34c1.762-1.018,3.588-1.741,5.656-1.8
			c1.105-0.031,1.883-0.666,2.294-1.674c0.401-0.983,0.784-1.982,1.061-3.004c0.408-1.504,1.15-2.748,2.373-3.728
			c1.372-1.1,2.375-2.483,2.95-4.155c0.285-0.828,0.523-1.672,0.813-2.498c0.86-2.449,1.735-4.893,2.604-7.338
			c0.037-0.283,0.088-0.561,0.107-0.841c0.055-0.812,0.197-1.693-0.562-2.254c-0.781-0.578-1.563-0.141-2.29,0.229
			c-1.976,1.007-3.641,2.435-5.166,4.013c-4.098,4.242-7.381,9.154-11.161,13.659c-1.267,1.511-2.34,3.174-3.327,4.883
			c-0.657,1.138-1.321,2.289-1.506,3.617C249.678,279.336,250.455,280.093,252.187,279.827z"/>
		<path fill="#AD704E" d="M253.303,265.003c2.031-3.337,3.814-6.859,6.576-9.681c2.27-2.319,3.62-5.063,4.375-8.17
			c1.069-4.968,0.615-9.954,0.131-14.937c-0.073-0.751-0.392-1.451-0.848-2.065c-0.729-0.983-1.686-1.065-2.557-0.216
			c-0.613,0.597-1.052,1.321-1.417,2.087c-0.833,1.751-1.631,3.519-2.478,5.264c-0.932,1.921-2.438,3.225-4.433,3.967
			c-0.674,0.251-1.347,0.51-2.035,0.72c-1.259,0.384-2.364,1.023-3.223,2.013c-1.467,1.689-3.29,2.617-5.507,2.902
			c-1.65,0.212-3.281,0.621-4.67,1.594c-3.279,2.297-6.539,4.622-9.784,6.968c-1.794,1.297-2.868,3.1-3.484,5.207
			c-0.971,3.321-0.873,6.69-0.37,10.051c0.402,2.688,2.087,4.063,4.824,4.21c1.83,0.099,3.531-0.425,5.208-1.043
			c3.212-1.184,6.497-1.85,9.935-1.49c3.2,0.336,5.587-1.062,7.398-3.547C251.825,267.627,252.523,266.285,253.303,265.003z"/>
		<path fill="#AD704E" d="M232.881,205.727c-1.19-0.183-2.313,0.111-3.361,0.632c-3.186,1.581-6.08,3.592-8.666,6.036
			c-0.754,0.713-1.38,1.542-1.773,2.514c-1.115,2.749-0.245,5.19,1.371,7.389c1.231,1.674,1.955,3.462,2.147,5.508
			c0.082,0.87,0.219,1.739,0.387,2.597c0.392,2.003,0.954,3.959,1.956,5.749c0.973,1.737,2.217,1.9,3.618,0.51
			c1.057-1.049,1.87-2.286,2.374-3.679c1.529-4.233,2.549-8.636,4.23-12.619c0.643-3.88,0.826-7.597,0.812-11.316
			C235.968,207.169,234.749,206.013,232.881,205.727z"/>
		<path fill="#AD704E" d="M212.359,325.357c-0.655-0.072-1.273,0.044-1.85,0.25c-1.753,0.627-3.346,1.424-4.769,2.394
			c-0.415,0.283-0.759,0.612-0.976,0.997c-0.613,1.09-0.135,2.058,0.754,2.93c0.677,0.664,1.076,1.373,1.182,2.184
			c0.045,0.345,0.121,0.69,0.213,1.03c0.216,0.794,0.525,1.57,1.077,2.28c0.535,0.689,1.22,0.754,1.991,0.202
			c0.582-0.416,1.029-0.906,1.306-1.459c0.842-1.679,1.402-3.425,2.328-5.004c0.354-1.539,0.455-3.013,0.447-4.488
			C214.058,325.929,213.387,325.47,212.359,325.357z"/>
		<path fill="#AD704E" d="M245.911,211.588c-1.295,1.321-2.489,2.73-3.559,4.234c-3.234,4.545-5.749,9.394-6.113,15.1
			c-0.216,3.395-1.457,6.294-3.943,8.661c-0.628,0.598-1.13,1.337-1.638,2.049c-0.692,0.971-1.285,2.008-1.603,3.167
			c-0.485,1.77,0.321,2.691,2.123,2.446c0.401-0.055,0.803-0.144,1.187-0.272c4.762-1.588,8.956-3.977,11.885-8.236
			c1.079-1.568,2.282-3.051,3.65-4.398c1.916-1.887,4.33-2.961,6.663-4.148c3.534-1.798,5.728-4.495,6.378-8.478
			c0.531-3.247,1.457-6.398,2.791-9.424c0.439-0.996,0.803-2.038,0.953-2.916c0.434-1.763,0.661-3.34,0.57-4.946
			c-0.079-1.394-0.613-1.992-1.971-2.199c-3.397-0.516-6.34,0.01-8.214,3.353c-1.328,2.369-3.444,3.74-6.113,4.262
			C247.751,210.08,246.766,210.717,245.911,211.588z"/>
		<path fill="#AD704E" d="M251.519,195.101c-0.436,1.125-0.796,2.276-1.029,3.472c-0.361,1.374-0.603,2.73-0.74,4.101
			c-0.051,0.51-0.176,1.132,0.391,1.445c0.561,0.31,1.025-0.092,1.436-0.421c1.461-1.168,2.677-2.583,3.511-4.236
			c0.49-0.971,1.121-1.744,1.89-2.363C255.207,196.524,253.342,195.871,251.519,195.101z"/>
		<path fill="#AD704E" d="M358.921,266.225c-0.893,1.033-1.48,2.234-1.848,3.543c-0.845,3.01-1.423,6.081-1.967,9.154
			c-0.281,1.585-0.659,3.222,0.104,4.789c0.94,1.933,1.429,3.986,1.77,6.092c0.075,0.465,0.143,0.945,0.336,1.378
			c0.329-1.163,0.639-2.336,0.927-3.521c1.822-7.49,2.706-14.987,2.731-22.371C360.248,265.131,359.601,265.438,358.921,266.225z"/>
		<path fill="#AD704E" d="M219.142,312.699c0.483-0.865,0.829-1.787,1.092-2.806c0.188-0.928,0.364-1.922,0.402-2.929
			c0.15-3.947,0.693-7.854,1.141-11.771c0.395-3.45,0.975-6.873,1.496-10.304c0.142-0.933,0.275-1.872,0.243-2.821
			c-0.015-0.434-0.044-0.888-0.505-1.114c-0.452-0.222-0.837-0.006-1.202,0.246c-0.41,0.283-0.765,0.631-1.04,1.042
			c-1.425,2.136-2.857,4.269-4.09,6.524c-1.272,2.325-1.257,4.628,0.187,6.889c0.515,0.807,0.69,1.701,0.643,2.651
			c-0.07,1.405-0.515,2.712-1.153,3.935c-1.141,2.187-1.334,4.484-0.828,6.833c0.427,1.981,0.234,3.83-0.705,5.614
			c-0.124,0.235-0.214,0.49-0.307,0.74c-0.195,0.521-0.357,1.054-0.407,1.609c-0.035,0.389-0.044,0.814,0.363,1.04
			c0.417,0.231,0.796,0.057,1.138-0.209c0.41-0.319,0.744-0.712,1.029-1.139C217.517,315.413,218.371,314.081,219.142,312.699z"/>
		<path fill="#AD704E" d="M350.586,285.627c0.104-2.611-0.358-5.183-0.699-7.76c-0.059-0.444-0.196-0.886-0.503-1.236
			c-0.33-0.376-0.698-0.339-0.952,0.09c-0.191,0.324-0.289,0.686-0.356,1.052c-0.62,3.408-1.334,6.796-2.078,10.178
			c-0.445,2.021-0.761,4.079-1.763,5.942c-0.774,1.439-1.251,2.995-1.568,4.595c-0.148,0.748-0.257,1.508-0.15,2.275
			c0.145,1.047,0.836,1.58,1.886,1.47c0.515-0.054,0.986-0.249,1.441-0.477c0.444-0.224,0.897-0.431,1.351-0.632
			c1.961-3.237,3.633-6.697,4.974-10.352c-0.259-0.638-0.534-1.269-0.869-1.872C350.73,287.877,350.539,286.801,350.586,285.627z"/>
		<path fill="#AD704E" d="M206.998,301.771c-0.939,0.448-1.767,1.067-2.501,1.806c-3.292,3.317-5.53,7.209-6.103,11.889
			c-0.086,0.706-0.182,1.411-0.284,2.114c-1.356,4.559,6.393,7.222,8.274,3.975c1.56-2.693-0.101-6.045,1.57-8.781
			c0.946-1.549,1.725-3.195,2.377-4.892c0.486-1.265,0.821-2.572,0.648-3.945C210.71,301.794,208.953,300.838,206.998,301.771z"/>
		<path fill="#AD704E" d="M320.195,291.047c0.097-0.521,0.11-1.052-0.02-1.576c-0.126-0.507-0.416-0.878-0.885-1.118
			c-0.653-0.334-1.336-0.354-2.035-0.22c-0.72,0.138-1.38,0.436-2.007,0.803c-1.552,0.91-2.811,2.148-3.925,3.543
			c-0.748,0.937-2.109,1.992-1.669,3.156c0.697,1.844,4.24,0.965,6.328,0.245C317.767,295.265,319.849,292.903,320.195,291.047z"/>
		<path fill="#AD704E" d="M339.597,350.336c-0.176,0.298-0.431,0.475-0.77,0.536c-0.349,0.068-0.699,0.037-1.038-0.047
			c-1.207-0.302-2.679-1.763-3.014-2.96c-0.393-1.404-0.831-3.767,0.407-4.154c0.783-0.244,1.424,0.692,2.014,1.221
			c0.875,0.787,1.638,1.665,2.177,2.719c0.217,0.427,0.387,0.875,0.451,1.353C339.882,349.468,339.845,349.919,339.597,350.336z"/>
		<path fill="#AD704E" d="M207.113,344.42c0.079-0.425,0.09-0.859-0.017-1.287c-0.103-0.414-0.34-0.717-0.723-0.913
			c-0.533-0.273-1.091-0.289-1.662-0.18c-0.588,0.113-1.127,0.356-1.639,0.656c-1.268,0.743-2.296,1.754-3.206,2.894
			c-0.611,0.766-1.723,1.627-1.363,2.578c0.569,1.506,3.463,0.788,5.169,0.2C205.13,347.866,206.831,345.936,207.113,344.42z"/>
		<path fill="#AD704E" d="M291.555,204.971c-4.27-0.167-8.317-1.705-12.542-1.862c-1.802-0.067-3.212-0.731-4.23-1.724
			c-1.664-0.283-3.324-0.589-4.977-0.926c-0.015,0.153-0.034,0.306-0.048,0.459c-0.81,9.389-1.516,18.775-0.579,28.207
			c0.33,3.327-0.013,6.7,0.478,10.027c0.262,1.774,0.649,3.512,1.635,5.053c1.497,2.34,4.487,2.9,6.716,1.261
			c0.945-0.695,1.702-1.563,2.35-2.533c1.032-1.545,1.808-3.224,2.489-4.938c1.135-2.856,2.75-5.304,5.309-7.111
			c1.983-1.401,2.906-3.458,3.179-5.839c0.217-1.896,0.417-3.796,0.723-5.678c0.493-3.036,1.619-5.84,3.326-8.405
			c1.235-1.856,2.019-3.836,2.197-5.994C295.571,205.036,293.561,205.05,291.555,204.971z"/>
		<path fill="#AD704E" d="M244.141,190.75c-0.639-0.563-1.257-1.357-1.88-2.205c-0.684-0.147-1.333-0.412-1.949-0.761
			c0.286,0.996,0.423,2.033,0.451,3.124c0.057,2.27,1.153,4.058,2.871,5.475c1.96,1.616,3.457,1.412,4.822-0.747
			c0.316-0.499,0.611-1.009,0.897-1.524C247.432,193.165,245.632,192.063,244.141,190.75z"/>
		<path fill="#AD704E" d="M228.982,189.834c-1.537-0.599-2.518-1.673-2.992-3.237c-0.256-0.848-0.482-1.708-0.784-2.54
			c-0.433-1.192-1.325-1.475-2.404-0.796c-0.611,0.384-1.101,0.907-1.567,1.451c-1.892,2.211-3.704,4.492-5.167,7.009
			c-1.461,2.514-3.123,4.812-5.394,6.679c-1.66,1.365-2.5,3.265-2.807,5.386c-0.363,2.502,0.934,3.801,3.454,3.466
			c0.243-0.032,0.484-0.09,0.723-0.148c1.78-0.433,3.447-1.173,5.128-1.876c1.758-0.734,3.544-1.359,5.502-1.34
			c3.944-0.209,6.998-1.87,9.358-4.584c0.871-1.38,1.698-2.789,2.48-4.225c0.21-1.413-0.516-2.623-2.061-3.611
			C231.366,190.772,230.174,190.298,228.982,189.834z"/>
		<path fill="#AD704E" d="M327.187,327.964c-0.614,0.512-0.783,1.17-0.875,1.855c-0.088,0.651-0.146,1.312-0.431,1.912
			c-0.037,0.081-0.075,0.159-0.132,0.234c-0.142,0.193-0.326,0.336-0.543,0.424c-0.641,0.275-1.573,0.095-2.635-0.526
			c-1.197-0.709-2.102-1.492-2.424-2.333c-0.441-1.153-1.333-2.272-2.418-3.398c-1.088-1.129-1.923-2.282-2.692-3.438
			c-0.19-0.281-0.356-0.566-0.404-0.841c-0.085-0.488,0.363-0.641,1.224-0.403c0.6,0.163,1.194,0.356,1.79,0.539
			c1.102,0.336,2.058,0.39,2.896,0.159c0.651-0.18,1.305-0.356,2.065-0.437c1.078-0.122,2.038,0.044,2.838,0.515
			c0.153,0.153,0.305,0.305,0.458,0.461c0.468,0.478,0.922,0.96,1.36,1.441C328.194,325.553,328.272,326.855,327.187,327.964z"/>
		<path fill="#AD704E" d="M312.968,206.602c-2.084-0.681-4.192-1.281-6.336-1.707c-0.296,0.167-0.577,0.386-0.842,0.669
			c-0.736,0.786-1.268,1.704-1.764,2.648c-0.902,1.717-1.804,3.435-2.716,5.147c-1.208,2.267-2.386,4.546-3.145,7.571
			c-0.495,1.674-0.54,3.809,0.613,5.862c1.278,2.278,2.172,4.712,2.919,7.208c0.421,1.406,0.743,2.854,1.484,4.145
			c0.772,1.346,1.802,1.698,3.25,1.134c0.588-0.228,1.118-0.555,1.629-0.923c1.254-0.903,2.278-2.049,3.344-3.15
			c0.892-0.922,1.944-1.57,3.183-1.904c0.785-0.212,1.577-0.402,2.362-0.613c3.066-0.826,4.24-2.116,4.339-5.298
			c0.189-6.095-1.219-11.81-4.613-16.934C315.646,208.909,314.412,207.616,312.968,206.602z"/>
		<path fill="#AD704E" d="M200.379,301.022c1.507-2.654,2.844-5.405,4.053-8.198c1.854-4.285,4.147-8.288,6.85-12.084
			c1.754-2.463,3.02-5.188,3.988-8.218c0.14-0.34,0.223-0.851,0.255-1.366c0.079-1.284-0.675-2.144-1.955-2.266
			c-0.664-0.064-1.3,0.057-1.908,0.307c-0.788,0.324-1.551,0.71-2.347,1.012c-2.084,0.789-3.695,2.057-4.583,4.174
			c-0.437,1.041-1.298,1.676-2.424,1.815c-1.736,0.215-3.257,0.947-4.748,1.793c-0.78,0.442-1.556,0.915-2.386,1.241
			c-1.847,0.726-2.998,2.065-3.671,3.877c-0.234,0.63-0.489,1.256-0.665,1.903c-1.26,4.626-1.645,9.353-1.557,14.127
			c0.028,1.512,0.3,2.99,1.005,4.357c1.399,2.71,4.136,3.364,6.596,1.568C198.356,303.986,199.486,302.595,200.379,301.022z"/>
		<path fill="#AD704E" d="M179.748,263.305c-1.199-1.982-2.947-2.25-4.717-0.762c-0.239,0.201-0.477,0.412-0.67,0.655
			c-1.975,2.486-3.615,5.186-4.851,8.104c-0.554,1.308-0.833,2.669-0.972,4.049c1.016,9.674,3.503,19.041,7.282,27.811
			c0.2-0.376,0.38-0.764,0.54-1.163c0.964-2.41,1.512-4.921,1.497-7.503c-0.026-4.5,0.731-8.903,1.412-13.322
			c0.586-3.801,1.273-7.589,1.628-11.421C181.104,267.51,180.953,265.298,179.748,263.305z"/>
		<path fill="#AD704E" d="M172.186,256.335c1.598-1.086,2.523-2.852,3.226-4.65c1.303-3.334,1.466-6.687-0.779-9.651
			c-1.49-1.967-3.272-3.711-4.97-5.52c-0.319,2.076-0.573,4.175-0.758,6.297c-0.515,5.909-0.48,11.74,0.059,17.441
			C169.612,258.747,170.605,257.409,172.186,256.335z"/>
		<path fill="#AD704E" d="M181.367,231.703c-0.107,2.025,0.891,2.878,2.907,2.595c2.087-0.293,4.033-0.988,5.738-2.269
			c2.243-1.685,4.487-3.371,6.732-5.053c0.958-0.717,1.901-1.453,2.726-2.323c1.185-1.251,2.067-2.671,2.316-4.413
			c0.186-1.297,0.597-2.522,1.108-3.724c0.457-1.075,0.927-2.154,0.977-3.349c0.106-2.552-1.481-3.973-3.987-3.534
			c-2.242,0.393-4.123,1.538-5.841,2.967c-1.905,1.585-3.315,3.572-4.512,5.72c-1.234,2.104-2.753,3.955-4.649,5.511
			C182.414,225.857,181.528,228.65,181.367,231.703z"/>
		<path fill="#AD704E" d="M252.056,313.018c-1.624-0.149-3.099-0.682-4.127-2.041c-0.79-1.044-1.746-1.892-2.845-2.594
			c-1.119-0.685-2.15-1.478-2.957-2.529c-0.726-0.946-1.299-1.973-1.461-3.177c-0.18-1.346,0.61-2.167,1.97-2.055
			c0.637,0.051,1.204,0.326,1.767,0.59c0.631,0.298,1.275,0.543,1.963,0.671c0.926,0.17,1.665,0.668,2.306,1.329
			c0.448,0.458,0.821,0.977,1.183,1.502c0.851,1.234,1.702,2.465,2.557,3.699c0.648,0.936,0.977,1.99,1.088,3.109
			C253.609,312.604,253.134,313.119,252.056,313.018z"/>
		<path fill="#AD704E" d="M340.743,328.71c-0.024,0.59-0.254,1.126-0.481,1.655c-0.251,0.593-0.454,1.197-0.546,1.838
			c-0.119,0.834-0.532,1.516-1.088,2.119c-0.017,0.02-0.034,0.041-0.054,0.061c-0.407,0.431-0.875,0.793-1.346,1.146
			c-1.109,0.831-2.218,1.661-3.323,2.496c-0.844,0.631-1.804,0.973-2.835,1.119c-0.993,0.139-1.489-0.281-1.434-1.282
			c0.078-1.506,0.515-2.886,1.736-3.886c0.322-0.264,0.62-0.542,0.898-0.841c0.536-0.57,0.993-1.197,1.394-1.878
			c0.593-1.061,1.288-2.041,2.228-2.824c0.848-0.705,1.777-1.272,2.886-1.465C340.015,326.75,340.798,327.452,340.743,328.71z"/>
		<path fill="#AD704E" d="M193.347,325.073c-0.927-0.056-1.458,0.531-1.598,1.71c-0.145,1.221-0.085,2.358,0.281,3.352
			c0.481,1.308,0.962,2.616,1.441,3.926c0.204,0.558,0.419,1.109,0.712,1.589c0.421,0.69,0.963,1.202,1.739,1.342
			c0.578,0.105,1.091,0.342,1.581,0.637c0.438,0.264,0.876,0.536,1.425,0.561c1.172,0.054,2.046-0.879,2.18-2.345
			c0.12-1.311-0.159-2.409-0.591-3.41c-0.48-1.111-1.213-1.93-2.05-2.624c-0.812-0.716-1.467-1.599-1.935-2.705
			C195.923,325.667,194.745,325.157,193.347,325.073z"/>
		<path fill="#AD704E" d="M82.507,61.329c-0.405,0.393-0.722,0.855-1.036,1.316c-0.662,0.973-1.343,1.937-1.777,3.04
			c-0.341,0.866-0.187,1.511,0.494,2.14c0.753,0.695,1.615,1.232,2.531,1.68c0.393,0.192,0.817,0.293,1.263,0.249
			c0.589-0.029,1.04-0.347,1.425-0.743c1.276-1.313,2.407-2.749,3.465-4.24c0.434-0.612,0.36-1.089-0.215-1.568
			c-1.447-1.204-3.144-1.877-4.966-2.263C83.229,60.841,82.841,61.005,82.507,61.329z"/>
		<path fill="#AD704E" d="M79.872,43.642c-0.186-1.17-0.56-2.289-1.064-3.362c-0.32-0.681-0.828-1.179-1.518-1.483
			c-0.613-0.271-1.259-0.415-1.925-0.471c-0.239-0.08-0.49-0.049-0.735-0.071c-1.233-0.113-2.469-0.174-3.706-0.088
			c-0.547,0.038-0.748,0.204-0.849,0.745c-0.243,1.311-0.325,2.632-0.133,3.959c0.065,0.453,0.284,0.822,0.659,1.087
			c0.494,0.349,1.016,0.65,1.573,0.888c0.056,0.041,0.108,0.09,0.169,0.12c1.81,0.919,3.615,1.846,5.433,2.747
			c0.867,0.429,1.184,0.294,1.611-0.583c0.021-0.045,0.043-0.089,0.061-0.135C79.876,45.912,80.055,44.793,79.872,43.642z"/>
		<path fill="#AD704E" d="M301.099,295.427c-0.553,0.654-1.18,1.234-1.79,1.831c-0.007,0.003-0.01,0.007-0.014,0.014
			c-0.797,0.776-2.007,0.929-2.943,0.326c-1.611-1.048-3.74-2.526-4.801-3.669c-0.319-0.346-0.854-0.59-0.946-1.055
			c-0.936-4.808,3.37-3.604,5.713-2.869c0.431,0.136,0.837,0.342,1.207,0.6c1.475,1.027,2.672,2.316,3.645,3.821
			C301.404,294.789,301.374,295.101,301.099,295.427z"/>
		<path fill="#AD704E" d="M276.713,307.108c-0.424,0.892-0.943,1.723-1.502,2.536c-0.108,0.163-0.183,0.346-0.332,0.482
			c-0.298,0.441-0.648,0.834-1.075,1.153c-0.478,0.359-1.021,0.519-1.617,0.478c-0.939-0.068-1.862-0.241-2.746-0.566
			c-0.868-0.319-1.577-0.878-2.16-1.594c-0.027-0.031-0.047-0.064-0.071-0.095c-0.444-0.637-0.414-0.912,0.22-1.346
			c1.329-0.912,2.675-1.804,4.015-2.702c0.044-0.031,0.098-0.048,0.149-0.071c0.38-0.295,0.793-0.539,1.227-0.746
			c0.326-0.159,0.668-0.166,1.007-0.037c0.997,0.383,1.882,0.953,2.696,1.631C276.862,306.507,276.896,306.711,276.713,307.108z"/>
		<path fill="#AD704E" d="M328.252,341.557c-0.271-0.868-0.81-1.272-1.584-1.173c-0.149,0.017-0.302,0.054-0.468,0.108
			c-0.583,0.197-1.149,0.448-1.729,0.661c-0.644,0.231-1.112,0.587-1.448,1.038c-0.403,0.536-0.61,1.207-0.678,1.967
			c-0.102,1.177,0.349,2.241,0.848,3.275c0.621,1.292,1.492,1.862,3.323,1.546c0.515-0.092,0.824-0.417,0.936-0.922
			c0.044-0.203,0.085-0.414,0.078-0.62c-0.034-0.943,0.112-1.851,0.38-2.692c0.003-0.017,0.01-0.034,0.014-0.051
			c0.085-0.264,0.183-0.522,0.288-0.773C328.445,343.073,328.489,342.314,328.252,341.557z"/>
		<g>
			<path fill="#AD704E" d="M64.131,49.802c-0.621-0.702-1.088-1.512-1.207-2.228c-0.078-0.471-0.071-0.926,0.031-1.363
				c0.414,0.922,0.756,1.912,1.021,2.974C64.026,49.392,64.081,49.599,64.131,49.802z"/>
			<path fill="#AD704E" d="M68.316,60.904c-0.953-0.719-1.807-1.556-2.536-2.546c-0.078-0.105-0.125-0.231-0.183-0.339
				c-0.376-1.068-0.353-2.085,0.122-3.038C66.566,57.343,67.461,59.303,68.316,60.904z"/>
			<path fill="#AD704E" d="M70.404,68.539c-0.031,0.02-0.058,0.037-0.088,0.058c-0.031,0.02-0.061,0.037-0.092,0.054
				c-0.058,0.037-0.119,0.075-0.18,0.112c-0.014,0.01-0.031,0.017-0.047,0.027c-0.014,0.01-0.027,0.017-0.044,0.024
				c-0.044,0.027-0.088,0.054-0.136,0.081c-0.044,0.027-0.092,0.054-0.136,0.078c-0.061,0.037-0.122,0.071-0.183,0.105
				c-0.061,0.034-0.125,0.068-0.187,0.102c-0.122,0.068-0.248,0.132-0.373,0.197c-0.166,0.088-0.336,0.17-0.505,0.251
				c-0.336,0.159-0.675,0.312-1.021,0.454c-0.112-0.146-0.214-0.295-0.302-0.451c-0.21-0.451-0.173-0.797,0.003-1.129
				c0.38-0.722,0.892-1.346,1.563-1.814c0.814-0.563,1.543-0.258,1.675,0.719C70.404,67.787,70.421,68.163,70.404,68.539z"/>
			<path fill="#AD704E" d="M68.282,64.24c-0.688,1.299-1.577,2.414-2.692,3.011c-1.119,0.478-1.729,0.173-1.929-0.783
				c-0.054-0.254-0.068-0.526-0.047-0.783c0.109-1.441,0.522-2.801,1.153-4.093c0.359-0.739,0.736-0.838,1.451-0.431
				c0.688,0.393,1.312,0.871,1.838,1.472C68.478,63.121,68.594,63.65,68.282,64.24z"/>
			<path fill="#AD704E" d="M62.982,62.239c-0.136,0.414-0.414,0.597-0.875,0.458c-1.994-0.61-3.855-3.353-3.642-5.381
				c0.186-1.733,1.397-2.923,3.133-3.075c0.749-0.064,1.18,0.254,1.658,1.465C63.792,57.679,63.721,59.968,62.982,62.239z"/>
			<path fill="#AD704E" d="M61.734,69.096c-0.183,0.519-0.519,0.695-1.055,0.573c-1.533-0.353-3.445-2.363-3.703-3.923
				c-0.149-0.905,0.01-1.763,0.563-2.513c0.634-0.861,1.478-0.932,2.265-0.207c0.475,0.437,0.905,1.119,1.316,2.075
				c0.417,0.993,0.685,2.024,0.729,3.106C61.86,68.506,61.836,68.807,61.734,69.096z"/>
			<path fill="#AD704E" d="M58.377,71.683c-0.153-0.007-0.309-0.01-0.461-0.017c-0.529,0.014-1.058,0.031-1.583,0.051
				c-0.092,0.003-0.183,0.007-0.275,0.01c-0.241,0.003-0.481,0.014-0.719,0.024c-0.4,0.014-0.804,0.031-1.204,0.051
				c-0.061,0-0.125,0.003-0.187,0.01c0.248-0.865,0.688-1.624,1.407-2.211c0.665-0.549,1.299-0.515,1.892,0.102
				c0.383,0.397,0.651,0.875,0.871,1.373C58.208,71.276,58.293,71.479,58.377,71.683z"/>
			<path fill="#AD704E" d="M53.661,67.678c0.007,1.309-0.587,2.384-1.441,3.326c-0.258,0.285-0.614,0.366-0.983,0.241
				c-0.264-0.088-0.536-0.193-0.766-0.342c-1.807-1.19-3.153-2.767-3.899-4.811c-0.515-1.417-0.088-2.536,1.194-3.33
				c0.715-0.441,1.166-0.315,1.539,0.444c0.136,0.268,0.237,0.553,0.407,0.949c0.075,0.943,0.729,1.383,1.743,1.431
				c0.258,0.01,0.515,0.105,0.763,0.183C53.166,66.064,53.657,66.685,53.661,67.678z"/>
			<path fill="#AD704E" d="M48.755,56.54c-0.007,1.682-0.359,3.279-1.126,4.778c-0.19,0.37-0.444,0.695-0.77,0.96
				c-1.516,1.227-3.258,0.776-4.045-1.031c-0.085-0.305-0.193-0.607-0.251-0.919c-0.326-1.851-0.129-3.665,0.434-5.442
				c0.237-0.746,0.529-0.919,1.305-0.868c1.153,0.075,2.262,0.346,3.32,0.814C48.368,55.163,48.758,55.709,48.755,56.54z"/>
			<path fill="#AD704E" d="M56.238,57.367c-0.498,1.573-1,3.15-1.546,4.706c-0.42,1.204-1.051,1.417-2.17,0.824
				c-0.78-0.414-1.451-1.163-1.807-2.014c-0.305-0.671-0.37-1.38-0.261-2.095c0.231-1.533,0.807-2.926,1.729-4.171
				c0.363-0.492,0.8-0.909,1.39-1.105c1.407-0.471,2.784,0.437,2.943,1.916C56.587,56.099,56.438,56.74,56.238,57.367z"/>
			<path fill="#AD704E" d="M59.696,52.776c-0.929-0.186-1.79-0.549-2.57-1.099c-0.441-0.312-0.702-0.715-0.661-1.282
				c0.139-2.065,0.346-4.116,0.868-6.124c0.139-0.532,0.248-1.214,0.953-1.234c0.641-0.017,0.746,0.644,0.98,1.099
				c0.051,0.098,0.088,0.207,0.18,0.424c0.671,2.123,1.356,4.364,1.817,6.67C61.541,52.627,61.08,53.057,59.696,52.776z"/>
		</g>
		<path fill="#AD704E" d="M57.014,42.672c-1.712,0.285-3.258-0.359-4.245-0.939c-0.661-0.807-1.512-1.465-2.529-1.906
			c-3.431-1.478-7.426,0.105-8.907,3.537c-0.509,1.187-0.654,2.435-0.485,3.621c-0.478,1.689-1.77,2.435-1.77,2.435
			c1.244-0.261,2.245,0.095,2.899,0.471c0.702,1.017,1.678,1.862,2.889,2.387c0.868,0.373,1.777,0.556,2.682,0.556
			c0.851,0,1.695-0.159,2.509-0.485c1.678-0.668,3.001-1.95,3.723-3.615c0.4-0.939,0.573-1.916,0.543-2.879
			C55.085,43.719,57.014,42.672,57.014,42.672z M53.393,45.883c0.027,0.821-0.122,1.655-0.461,2.455
			c-0.617,1.417-1.743,2.509-3.174,3.079c-0.692,0.278-1.411,0.414-2.136,0.414c-0.773,0-1.546-0.156-2.285-0.475
			c-1.031-0.448-1.865-1.166-2.462-2.034c-0.556-0.319-1.411-0.624-2.468-0.4c0,0,1.099-0.637,1.505-2.075
			c-0.142-1.01-0.02-2.075,0.414-3.086c1.261-2.923,4.666-4.272,7.588-3.011c0.868,0.373,1.594,0.936,2.156,1.621
			c0.841,0.495,2.156,1.044,3.615,0.8C55.685,43.17,54.044,44.065,53.393,45.883z"/>
	</g>
	<g>
		<path fill="#FFFFFF" d="M303.473,295.752c0.037-3.943,0.305-7.877,0.776-11.783c-3.194,0.261-6.405,0.193-9.63-0.214
			c-0.851-0.109-1.689-0.312-2.479-0.678c-1.061-0.495-1.594-1.333-1.658-2.482c-0.051-0.892,0.119-1.753,0.356-2.604
			c0.044-0.166,0.088-0.329,0.139-0.492c-1.251,0.424-2.496,0.821-3.709,1.183c0.109,0.658,0.071,1.316-0.064,1.967
			c-0.288,1.373-0.397,2.757-0.41,4.157c-0.014,1.533-0.298,3.035-0.641,4.52c-0.047,0.197-0.108,0.393-0.183,0.58
			c-0.312,0.78-0.943,0.922-1.553,0.329c-0.553-0.539-0.868-1.221-1.051-1.967c-0.18-0.546-0.247-1.109-0.295-1.678
			c-0.031-0.366-0.058-0.732-0.085-1.099c-1.58,1.099-3.523,1.96-5.673,2.638c0.014,0.526,0.047,1.055,0.102,1.59
			c0.261,2.58,0.281,5.191-0.753,7.673c-0.376,0.905-0.844,1.75-1.563,2.424c-1.587,1.485-3.581,1.278-4.845-0.498
			c-0.773-1.085-1.272-2.299-1.58-3.587c-0.458-1.909-0.739-3.832-0.81-5.761c-6.046,0.651-12.03,0.529-15.458,0.37
			c0.102,0.183,0.22,0.359,0.363,0.512c0.668,0.722,1.095,1.567,1.448,2.452c2.106,0.807,4.337,1.204,6.008,1.394
			c0.441-0.604,0.926-1.18,1.455-1.733c0.193-0.2,0.441-0.366,0.688-0.492c0.875-0.448,1.587-0.203,1.933,0.709
			c0.448,1.18,0.946,2.333,1.499,3.465c0.37,0.756,0.373,1.495-0.061,2.238c-1.055,1.814-1.546,3.791-1.736,5.869
			c-0.166,1.79-0.922,3.258-2.526,4.208c-1.217,0.719-2.177,0.454-2.828-0.793c-0.19-0.363-0.336-0.746-0.42-1.146
			c-0.566-2.726-0.566-5.456-0.102-8.25c0.37-1.143,0.882-2.214,1.516-3.214c-2.051,0.342-4.059,0.526-6.012,0.58
			c0,0-0.003,0-0.007,0c-0.19,0.085-0.403,0.132-0.631,0.136h-0.02c-1.112,0.014-2.221,0.003-3.33-0.027
			c-0.085-0.061-0.173-0.125-0.258-0.19c-4.774-0.298-9.057-1.285-12.508-2.374c-0.071,0.488-0.136,0.98-0.197,1.472
			c-0.278,2.224-1.424,3.886-3.282,5.076c-1.183,0.756-2.177,1.682-2.879,2.909c-0.224,0.387-0.512,0.739-0.851,1.034
			c-0.261,0.227-0.536,0.339-0.8,0.336c-0.326,3.062-0.76,6.117-1.329,9.148c5.205,2.238,33.212,12.529,76.803-3.798
			C303.717,305.182,303.418,300.462,303.473,295.752z M238.866,313.536c-1.265,1.163-2.228,1.156-3.36,0.465
			c-0.909-0.556-1.794-1.156-2.302-2.126c-0.6-1.146-0.692-2.302,0.149-3.404c0.346-0.454,0.658-0.936,1.014-1.38
			c0.624-0.78,1.36-0.844,2.129-0.2c0.563,0.471,0.912,1.082,1.153,1.861c0.18,1.055,0.566,2.119,1.231,3.075
			c0.112,0.159,0.183,0.342,0.251,0.526C239.3,312.801,239.218,313.207,238.866,313.536z M252.056,313.018
			c-1.624-0.149-3.099-0.682-4.127-2.041c-0.79-1.044-1.746-1.892-2.845-2.594c-1.119-0.685-2.15-1.478-2.957-2.529
			c-0.726-0.946-1.299-1.973-1.461-3.177c-0.18-1.346,0.61-2.167,1.97-2.055c0.637,0.051,1.204,0.326,1.767,0.59
			c0.631,0.298,1.275,0.543,1.963,0.671c0.926,0.17,1.665,0.668,2.306,1.329c0.448,0.458,0.821,0.977,1.183,1.502
			c0.851,1.234,1.702,2.465,2.557,3.699c0.648,0.936,0.977,1.99,1.088,3.109C253.609,312.604,253.134,313.119,252.056,313.018z
			 M276.713,307.108c-0.424,0.892-0.943,1.723-1.502,2.536c-0.108,0.163-0.183,0.346-0.332,0.482
			c-0.298,0.441-0.648,0.834-1.075,1.153c-0.478,0.359-1.021,0.519-1.617,0.478c-0.939-0.068-1.862-0.241-2.746-0.566
			c-0.868-0.319-1.577-0.878-2.16-1.594c-0.027-0.031-0.047-0.064-0.071-0.095c-0.444-0.637-0.414-0.912,0.22-1.346
			c1.329-0.912,2.675-1.804,4.015-2.702c0.044-0.031,0.098-0.048,0.149-0.071c0.38-0.295,0.793-0.539,1.227-0.746
			c0.326-0.159,0.668-0.166,1.007-0.037c0.997,0.383,1.882,0.953,2.696,1.631C276.862,306.507,276.896,306.711,276.713,307.108z
			 M287.902,305.287c-0.248,0.098-0.505,0.193-0.766,0.224c-1.55,0.19-3.096,0.4-4.652,0.529c-1.041,0.088-1.539-0.346-1.767-1.38
			c-0.21-0.949-0.119-1.892,0.159-3.001c0.186-0.817,0.62-1.733,1.034-2.652c0.342-0.763,0.519-1.55,0.448-2.387
			c-0.007-0.075-0.007-0.153-0.007-0.227c-0.041-1.709,1.105-2.431,2.669-1.692c1.071,0.509,1.8,1.356,2.241,2.421
			c0.654,1.583,1.238,3.197,1.841,4.798c0.102,0.268,0.166,0.549,0.214,0.831C289.53,303.988,289.069,304.809,287.902,305.287z
			 M297.183,306.996c-0.278,0.566-0.736,0.692-1.16,0.258c-1.116-1.143-2.231-2.289-2.994-3.713c-0.22-0.41-0.312-0.868-0.224-1.336
			c0.088-0.475,0.42-0.78,0.885-0.685c1.394,0.285,2.706,0.743,3.581,1.98c0.132,0.186,0.241,0.39,0.312,0.61
			c0.088,0.227,0.132,0.465,0.129,0.705C297.712,305.585,297.519,306.314,297.183,306.996z M301.099,295.427
			c-0.553,0.654-1.18,1.234-1.79,1.831c-0.007,0.003-0.01,0.007-0.014,0.014c-0.797,0.776-2.007,0.929-2.943,0.326
			c-1.611-1.048-3.74-2.526-4.801-3.669c-0.319-0.346-0.854-0.59-0.946-1.055c-0.936-4.808,3.37-3.604,5.713-2.869
			c0.431,0.136,0.837,0.342,1.207,0.6c1.475,1.027,2.672,2.316,3.645,3.821C301.404,294.789,301.374,295.101,301.099,295.427z"/>
		<path fill="#FFFFFF" d="M278.592,280.952c-0.39,0.96-0.688,1.943-0.902,2.947c1.953,0.373,3.835,0.326,5.198,0.193
			c-0.061-0.78-0.132-1.556-0.231-2.333c-0.088-0.695,0.007-1.322,0.326-1.875C281.382,280.301,279.897,280.656,278.592,280.952z"/>
		<path fill="#FFFFFF" d="M72.591,69.419c0,0-1.357,1.925-2.17,2.458c1.602,1.495,15.351,19.183,29.566,45.056
			c22.787,41.476,46.315,94.141,64.785,109.079c-25.119-35.946-30.853-50.908-52.767-94.242
			C94.707,97.566,74.602,73.692,72.591,69.419z"/>
		<path fill="#FFFFFF" d="M71.038,68.119c0.115-0.078,0.231-0.159,0.346-0.244c0.037-0.027,0.078-0.058,0.115-0.085
			c0.034-0.024,0.064-0.047,0.098-0.075c0.071-0.054,0.142-0.109,0.21-0.163c0.051-0.041,0.105-0.078,0.156-0.122
			c0.007-0.007,0.014-0.01,0.02-0.017c0.085-0.061,0.166-0.132,0.248-0.2c0.01-0.007,0.017-0.014,0.027-0.024
			c0.112-0.088,0.224-0.183,0.332-0.278c0,0-0.054-0.044-0.153-0.142c-0.505-0.485-2.207-2.272-4.123-5.866
			c-0.953-0.719-1.807-1.556-2.536-2.546c-0.078-0.105-0.125-0.231-0.183-0.339c-0.376-1.068-0.353-2.085,0.122-3.038
			c-0.556-1.55-1.095-3.265-1.587-5.174v-0.003c-0.621-0.702-1.088-1.512-1.207-2.228c-0.078-0.471-0.071-0.926,0.031-1.363v-0.007
			C57.313,33.69,38.85,34.1,38.698,47.707c-0.081,7.653-3.238,13.77-7.378,18.51c-1.305,1.502-2.713,2.862-4.15,4.093
			c0.193-0.119,0.387-0.234,0.58-0.349c0.512-0.312,1.024-0.62,1.533-0.929c0.01-0.007,0.02-0.014,0.031-0.017
			c0.434-0.264,0.868-0.522,1.302-0.78c0.112-0.071,0.22-0.139,0.336-0.207c0.275-0.163,0.553-0.322,0.827-0.485
			c0.129-0.075,0.258-0.153,0.383-0.231s0.251-0.159,0.373-0.244c0.064-0.044,0.129-0.092,0.193-0.142
			c0.007-0.003,0.01-0.007,0.017-0.01c0.003-0.003,0.007-0.003,0.01-0.007c0.003,0,0.003-0.003,0.007-0.007
			c0.031-0.02,0.061-0.044,0.088-0.068c0.007-0.007,0.017-0.014,0.024-0.02c0.244-0.186,0.471-0.4,0.678-0.641
			c0.068,0.665-0.251,1.336-0.556,1.912c-0.081,0.142-0.166,0.285-0.254,0.424c-0.037,0.061-0.075,0.119-0.112,0.176
			c-0.058,0.088-0.115,0.176-0.176,0.261c-0.064,0.098-0.132,0.193-0.203,0.288C32.17,69.346,32.085,69.458,32,69.57
			c-0.081,0.109-0.166,0.214-0.254,0.315c-0.02,0.024-0.037,0.044-0.058,0.068c-0.051,0.061-0.102,0.122-0.153,0.18
			c-0.054,0.061-0.105,0.119-0.159,0.18c-0.014,0.017-0.031,0.037-0.044,0.054c-0.01,0.014-0.024,0.027-0.037,0.037
			c-0.051,0.058-0.102,0.112-0.153,0.166s-0.102,0.109-0.156,0.163c-0.088,0.092-0.176,0.183-0.268,0.271
			c-0.183,0.183-0.373,0.363-0.566,0.539c-0.465,0.42-0.949,0.821-1.451,1.2c-0.166,0.129-0.332,0.254-0.502,0.376
			c-0.678,0.495-1.373,0.96-2.072,1.407c-3.147,2.021-6.402,3.832-9.799,5.405c-0.244,0.109-0.509,0.224-0.793,0.339
			c4.367,0.231,8.816-0.807,12.756-2.733c0.383-0.183,0.76-0.376,1.133-0.576c0.085-0.044,0.166-0.092,0.251-0.136
			c0.081-0.044,0.166-0.092,0.248-0.139c0.136-0.075,0.268-0.153,0.4-0.227c0.241-0.142,0.481-0.288,0.722-0.437
			c0.125-0.075,0.251-0.156,0.373-0.234c0.125-0.078,0.248-0.159,0.373-0.241c0.156-0.102,0.315-0.207,0.471-0.312
			c0.224-0.153,0.448-0.305,0.668-0.461c0.187-0.132,0.373-0.264,0.559-0.397c0.01-0.007,0.017-0.014,0.027-0.02
			c0.159-0.115,0.322-0.234,0.478-0.349c0.047-0.034,0.095-0.071,0.142-0.105c0.305-0.227,0.607-0.454,0.909-0.688
			c0.176-0.136,0.353-0.271,0.529-0.41c1.258-0.98,2.492-1.99,3.743-2.977c0.326-0.261,0.658-0.515,0.99-0.773
			c1.356-0.997,2.787-1.906,4.489-2.529c-1.282,2.597-3.262,4.469-5.31,6.347c0.604-0.058,1.204-0.115,1.807-0.17
			c0.451-0.044,0.902-0.085,1.353-0.122c0.526-0.047,1.055-0.095,1.583-0.136c0.526-0.044,1.051-0.085,1.58-0.125
			c0.278-0.024,0.556-0.044,0.834-0.068c0.02,0,0.041-0.003,0.061-0.003c0.075-0.007,0.146-0.01,0.22-0.017
			c0.529-0.041,1.061-0.078,1.594-0.112c0.217-0.017,0.437-0.031,0.654-0.044c0.431-0.031,0.858-0.058,1.288-0.081
			c0.559-0.034,1.116-0.068,1.675-0.095c0.604-0.034,1.21-0.064,1.814-0.088c0.248-0.865,0.688-1.624,1.407-2.211
			c0.665-0.549,1.299-0.515,1.892,0.102c0.383,0.397,0.651,0.875,0.871,1.373c0.088,0.2,0.173,0.403,0.258,0.607h0.003
			c0.18,0,0.356,0.003,0.532,0.003c0.186,0,0.376-0.003,0.563-0.007c0.044,0,0.085,0,0.125-0.003c0.095,0,0.19-0.007,0.285-0.01
			s0.19-0.01,0.285-0.014c0.336-0.017,0.668-0.041,0.997-0.071c0.051-0.003,0.098-0.007,0.149-0.014
			c0.047-0.003,0.098-0.01,0.146-0.017c0.034-0.003,0.064-0.007,0.098-0.01c0.095-0.007,0.19-0.017,0.281-0.031
			c0.041-0.007,0.085-0.01,0.125-0.017c0.064-0.007,0.125-0.014,0.186-0.024c0.112-0.017,0.22-0.031,0.332-0.047
			c0.085-0.014,0.17-0.027,0.254-0.041c0.214-0.034,0.424-0.071,0.634-0.112c0.2-0.037,0.4-0.078,0.6-0.122
			c0.01-0.003,0.02-0.003,0.031-0.007c0.122-0.027,0.244-0.054,0.366-0.085c0.088-0.02,0.173-0.041,0.261-0.064
			c0.275-0.068,0.549-0.142,0.824-0.224c0,0,0,0,0.003,0h0.003c0.041-0.014,0.078-0.024,0.119-0.037
			c0.02-0.007,0.041-0.014,0.061-0.02c0.156-0.047,0.309-0.095,0.465-0.149c0.047-0.014,0.095-0.031,0.142-0.047
			c0.129-0.041,0.254-0.085,0.38-0.132c0.264-0.095,0.526-0.193,0.783-0.298c-0.112-0.146-0.214-0.295-0.302-0.451
			c-0.21-0.451-0.173-0.797,0.003-1.129c0.38-0.722,0.892-1.346,1.563-1.814c0.814-0.563,1.543-0.258,1.675,0.719
			c0.051,0.38,0.068,0.756,0.051,1.132c0.129-0.081,0.258-0.163,0.383-0.248C70.872,68.234,70.954,68.177,71.038,68.119z
			 M39.077,49.419c0,0,1.292-0.746,1.77-2.435c-0.17-1.187-0.024-2.435,0.485-3.621c1.482-3.431,5.476-5.015,8.907-3.537
			c1.017,0.441,1.868,1.099,2.529,1.906c0.987,0.58,2.533,1.224,4.245,0.939c0,0-1.929,1.048-2.692,3.184
			c0.031,0.963-0.142,1.939-0.543,2.879c-0.722,1.665-2.045,2.947-3.723,3.615c-0.814,0.326-1.658,0.485-2.509,0.485
			c-0.905,0-1.814-0.183-2.682-0.556c-1.21-0.526-2.187-1.37-2.889-2.387C41.322,49.514,40.322,49.158,39.077,49.419z
			 M42.814,61.246c-0.085-0.305-0.193-0.607-0.251-0.919c-0.326-1.851-0.129-3.665,0.434-5.442c0.237-0.746,0.529-0.919,1.305-0.868
			c1.153,0.075,2.262,0.346,3.32,0.814c0.746,0.332,1.136,0.878,1.133,1.709c-0.007,1.682-0.359,3.279-1.126,4.778
			c-0.19,0.37-0.444,0.695-0.77,0.96C45.343,63.504,43.601,63.053,42.814,61.246z M52.22,71.005
			c-0.258,0.285-0.614,0.366-0.983,0.241c-0.264-0.088-0.536-0.193-0.766-0.342c-1.807-1.19-3.153-2.767-3.899-4.811
			c-0.515-1.417-0.088-2.536,1.194-3.33c0.715-0.441,1.166-0.315,1.539,0.444c0.136,0.268,0.237,0.553,0.407,0.949
			c0.075,0.943,0.729,1.383,1.743,1.431c0.258,0.01,0.515,0.105,0.763,0.183c0.949,0.295,1.441,0.916,1.444,1.909
			C53.668,68.987,53.074,70.062,52.22,71.005z M56.238,57.367c-0.498,1.573-1,3.15-1.546,4.706c-0.42,1.204-1.051,1.417-2.17,0.824
			c-0.78-0.414-1.451-1.163-1.807-2.014c-0.305-0.671-0.37-1.38-0.261-2.095c0.231-1.533,0.807-2.926,1.729-4.171
			c0.363-0.492,0.8-0.909,1.39-1.105c1.407-0.471,2.784,0.437,2.943,1.916C56.587,56.099,56.438,56.74,56.238,57.367z
			 M56.465,50.396c0.139-2.065,0.346-4.116,0.868-6.124c0.139-0.532,0.248-1.214,0.953-1.234c0.641-0.017,0.746,0.644,0.98,1.099
			c0.051,0.098,0.088,0.207,0.18,0.424c0.671,2.123,1.356,4.364,1.817,6.67c0.278,1.397-0.183,1.828-1.567,1.546
			c-0.929-0.186-1.79-0.549-2.57-1.099C56.685,51.365,56.424,50.962,56.465,50.396z M61.734,69.096
			c-0.183,0.519-0.519,0.695-1.055,0.573c-1.533-0.353-3.445-2.363-3.703-3.923c-0.149-0.905,0.01-1.763,0.563-2.513
			c0.634-0.861,1.478-0.932,2.265-0.207c0.475,0.437,0.905,1.119,1.316,2.075c0.417,0.993,0.685,2.024,0.729,3.106
			C61.86,68.506,61.836,68.807,61.734,69.096z M62.982,62.239c-0.136,0.414-0.414,0.597-0.875,0.458
			c-1.994-0.61-3.855-3.353-3.642-5.381c0.186-1.733,1.397-2.923,3.133-3.075c0.749-0.064,1.18,0.254,1.658,1.465
			C63.792,57.679,63.721,59.968,62.982,62.239z M68.282,64.24c-0.688,1.299-1.577,2.414-2.692,3.011
			c-1.119,0.478-1.729,0.173-1.929-0.783c-0.054-0.254-0.068-0.526-0.047-0.783c0.109-1.441,0.522-2.801,1.153-4.093
			c0.359-0.739,0.736-0.838,1.451-0.431c0.688,0.393,1.312,0.871,1.838,1.472C68.478,63.121,68.594,63.65,68.282,64.24z"/>
		<path fill="#FFFFFF" d="M189.114,471.927c0,0-0.553,0.661-1.394,1.739c-1.685,2.15-4.537,5.961-6.493,9.474
			c-1.173,2.109-2.024,4.113-2.109,5.585h4.388c0,0,0.02-0.054,0.061-0.156c0.115-0.302,0.4-1.027,0.821-2.014
			c1.173-2.75,3.398-7.524,5.947-10.752c0.77-0.973,1.567-1.804,2.374-2.401l-2.282-0.936L189.114,471.927z"/>
		<polygon fill="#FFFFFF" points="60.196,25.94 66.969,28.776 68.458,25.94 59.387,22.71 		"/>
		<path fill="#FFFFFF" d="M283,207.036l1.979-3.517l-31.442-9.213l-31.906-25.689c0,0-35.156-18.981-49.887-34.152
			c0,0-42.594-40.153-52.409-54.927S82.363,33.44,74.572,30.191l-1.449,2.907c0,0,16.642,10.82,32.956,33.309
			c18.988,26.176,48.295,57.829,62.367,70.418s28.791,25.041,41.983,29.658s29.789,23.776,34.972,27.821
			C255.393,202.103,283,207.036,283,207.036z"/>
		<path fill="#FFFFFF" d="M280.843,208.815c0,0,39.749-1.765,59.801,17.674c19.192,18.607,21.92,40.703,20.771,63.664
			c0,0,10.54-33.606-8.664-56.776C333.546,210.208,306.624,198.864,280.843,208.815z"/>
		<path fill="#FFFFFF" d="M320.226,471.927c0,0-0.848,1.017-2.051,2.584c-2.862,3.733-7.738,10.582-7.944,14.214h4.388
			c0,0,0.393-1.051,1.078-2.601c1.143-2.57,3.092-6.52,5.398-9.331c0.732-0.892,1.499-1.672,2.289-2.251l-1.485-1.231
			L320.226,471.927z"/>
		<path fill="#FFFFFF" d="M185.803,313.03c0,0-13.377-22.627-14.06-38.683c-0.66-15.515-2.367-42.869-2.367-42.869
			s-2.851,26.831-0.839,48.401C170.55,301.449,185.803,313.03,185.803,313.03z"/>
		<path fill="#FFFFFF" d="M396.033,401.38v0.014c0,0,4.845-4.995,2.638-23.176c-0.356-2.96-0.902-6.266-1.685-9.959
			c0,0,0.03-1.299-0.085-3.513c-0.39-7.751-2.513-26.743-13.688-40.594l-0.912,1.519l-0.214,0.359
			c0.041,0.061,0.081,0.122,0.122,0.186c0.071,0.108,0.146,0.22,0.22,0.336c0.305,0.471,0.641,0.993,0.99,1.56
			c0.088,0.142,0.176,0.285,0.268,0.431c0.105,0.173,0.214,0.349,0.326,0.532c0.142,0.237,0.288,0.482,0.437,0.732
			c0.122,0.207,0.248,0.417,0.37,0.631c0.18,0.305,0.359,0.617,0.539,0.936c0.237,0.417,0.478,0.848,0.722,1.289
			c0.19,0.349,0.383,0.709,0.576,1.075c0.108,0.197,0.214,0.397,0.315,0.597c0.105,0.2,0.21,0.403,0.315,0.61
			c0.085,0.163,0.17,0.329,0.254,0.495c0.02,0.041,0.044,0.085,0.064,0.129c0.108,0.21,0.214,0.42,0.319,0.637
			c0.037,0.071,0.071,0.146,0.108,0.22c0.163,0.332,0.329,0.671,0.492,1.014c0.407,0.858,0.814,1.743,1.207,2.652
			c0.075,0.17,0.146,0.336,0.217,0.505c0.058,0.125,0.108,0.247,0.159,0.373c0.102,0.241,0.203,0.481,0.302,0.722
			c0.01,0.02,0.017,0.044,0.027,0.064c0.153,0.376,0.305,0.756,0.454,1.136l0.122,0.315c0.092,0.231,0.18,0.465,0.268,0.702
			c0.19,0.502,0.373,1.01,0.553,1.522c0.085,0.234,0.163,0.468,0.244,0.705c0.03,0.095,0.064,0.19,0.095,0.285
			c0.132,0.4,0.264,0.804,0.393,1.21c0.014,0.044,0.027,0.088,0.041,0.132c0.081,0.261,0.163,0.526,0.241,0.79
			s0.156,0.529,0.231,0.797c0.047,0.159,0.092,0.315,0.132,0.475c0.027,0.092,0.051,0.183,0.075,0.275
			c0.044,0.159,0.088,0.322,0.129,0.485c0.041,0.156,0.081,0.309,0.119,0.465c0.064,0.241,0.122,0.485,0.18,0.726
			c0.064,0.271,0.129,0.543,0.19,0.817c0.071,0.315,0.139,0.631,0.203,0.949c0.041,0.19,0.078,0.38,0.115,0.573
			c0.007,0.041,0.017,0.085,0.024,0.125c0.044,0.22,0.085,0.441,0.122,0.665c0.024,0.119,0.044,0.234,0.061,0.353
			c0.007,0.044,0.017,0.088,0.024,0.132c0.024,0.129,0.044,0.261,0.064,0.393c0.014,0.078,0.027,0.159,0.037,0.241
			c0.007,0.024,0.01,0.051,0.014,0.075c0.031,0.214,0.064,0.424,0.092,0.638c0.027,0.193,0.054,0.387,0.078,0.58
			c0.003,0.027,0.007,0.058,0.01,0.085c0.007,0.051,0.014,0.105,0.02,0.156c0.003,0.007,0.003,0.017,0.003,0.024
			c0.034,0.278,0.064,0.553,0.095,0.831c-1.37-3.553-3.106-6.958-5.873-9.603c0.753,4.72,2.421,9.087,3.791,13.576
			c0.481,1.661,1.329,5.045,1.689,6.734c1.736,7.866,2.401,15.97,2.007,24.013c-0.003,0.037-0.007,0.075-0.01,0.115
			c-0.007,0.078-0.014,0.163-0.024,0.254c-0.007,0.061-0.01,0.125-0.017,0.193c0,0.01-0.003,0.02-0.003,0.031
			c-0.007,0.092-0.017,0.183-0.024,0.281c-0.007,0.071-0.014,0.142-0.02,0.214c-0.003,0.071-0.01,0.146-0.017,0.22
			c-0.01,0.098-0.017,0.2-0.027,0.305c-0.014,0.136-0.024,0.278-0.037,0.417c-0.01,0.125-0.02,0.248-0.031,0.373
			c-0.003,0.034-0.007,0.071-0.01,0.105c-0.003,0.027-0.007,0.054-0.007,0.081c-0.007,0.064-0.01,0.125-0.017,0.186
			c-0.007,0.064-0.01,0.125-0.017,0.19c-0.01,0.105-0.017,0.21-0.027,0.315c-0.003,0.027-0.003,0.051-0.007,0.078
			c-0.01,0.112-0.02,0.22-0.03,0.329v0.003c-0.01,0.119-0.02,0.234-0.031,0.346c-0.02,0.224-0.041,0.431-0.058,0.617
			c-0.003,0.044-0.007,0.092-0.014,0.136c0,0.01-0.003,0.02-0.003,0.031c-0.18-5.734-1.068-16.903-2.801-26.902
			c-1.953-11.24-5.429-20.789-4.255-22.243l3.106,2.099c-4.194-13.532-10.552-23.983-10.552-23.983l0.539-0.895
			c-0.319-0.485-0.604-0.905-0.844-1.255c-0.098-0.139-0.186-0.268-0.268-0.387c-0.207-0.292-0.366-0.512-0.468-0.651
			c-0.03-0.044-0.058-0.078-0.075-0.105c-0.037-0.051-0.058-0.078-0.064-0.085l-0.258-0.346l-0.068-0.427
			c-3.967-26.685-9.087-45.476-13.536-58.103c0.224,2.407,0.312,4.822,0.278,7.243c6.293,17.944,10.471,50.176,10.64,51.539
			l0.041,0.305l-0.068,0.305c-0.075,0.298-5.859,25.397,0.292,43.476c-0.271-3.262-0.176-6.537,0.746-9.731
			c1.736,4.062,2.319,8.138,3.14,12.363c0.231,1.038,0.814,3.56,1.044,4.557c0.285,0.929,1.017,3.513,1.295,4.476
			c2.557,7.663,6.137,15.285,11.786,21.151c0.122-0.827,0.244-1.607,0.319-2.075c0.007-0.064,0.014-0.132,0.02-0.21
			c0.003-0.034,0.007-0.071,0.01-0.108c0.051,1.624,0.044,2.814-0.014,3.411C396.036,401.377,396.033,401.38,396.033,401.38z"/>
		<path fill="#FFFFFF" d="M87.958,17.639c0,0-3.838,9.493-6.693,11.137c0,0,8.764-1.888,11.103-13.568
			c0,0-12.094-3.506-18.527,6.464C73.841,21.671,82.295,15.588,87.958,17.639z"/>
		<path fill="#FFFFFF" d="M36.299,37.148c5.019-9.462,10.91-10.26,10.91-10.26l5.018-4.001c0,0-9.629-2.179-16.695,8.715
			S7.656,61.662,7.656,61.662l-5.508,13.15c0,0-3.865,1.506-0.248,1.729c0,0,3.973-9.068,14.692-17.815
			C26.852,50.353,31.271,46.627,36.299,37.148z"/>
		<path fill="#FFFFFF" d="M47.805,43.612c0.136,0.061,0.271,0.136,0.4,0.21c-0.549,0.183-1.01,0.59-1.261,1.16
			c-0.461,1.065,0.034,2.306,1.105,2.767c0.542,0.237,1.133,0.224,1.634,0.02c-0.034,0.102-0.068,0.197-0.115,0.298
			c-0.658,1.526-2.299,2.319-3.865,1.953c0.061,0.034,0.115,0.061,0.176,0.088c1.078,0.468,2.279,0.488,3.377,0.048
			c1.099-0.434,1.96-1.268,2.428-2.353c0.963-2.238-0.068-4.842-2.306-5.805c-0.563-0.244-1.16-0.366-1.75-0.366
			c-0.549,0-1.105,0.102-1.634,0.312c-1.099,0.434-1.96,1.275-2.428,2.36c-0.21,0.481-0.319,0.99-0.346,1.492
			c0.041-0.142,0.075-0.278,0.129-0.414C44.089,43.666,46.083,42.873,47.805,43.612z"/>
		<path fill="#FFFFFF" d="M55.304,6.001c2.997-1.713,9.14-0.874,10.031,7.147c0,0,5.218-11.947-8.99-11.19
			c0,0-8.008,2.311-5.437,9.246C50.908,11.203,52.651,7.518,55.304,6.001z"/>
		<path fill="#FFFFFF" d="M207.023,467.764c-2.628,4.774-3.801,9.925-4.296,12.871c-4.961-0.081-9.562-2.76-12.393-4.832
			c0.77-0.973,1.567-1.804,2.374-2.401l-2.282-0.936c0.37-0.539,0.736-1.085,1.095-1.638c0.183-0.278,0.363-0.556,0.539-0.834
			s0.353-0.563,0.529-0.848c0.848-1.35,1.397-2.896,1.851-4.408c1.723-6.205,2.543-12.607,3.296-18.954
			c1.763-17.537,2.848-35.264,0.624-52.828c-0.977-5.669-2.563-11.379-2.916-17.123c-0.305-3.784-0.319-7.724-0.787-11.691
			c0,0,7.921,5.595,8.863,13.604c0,0,4.086-7.27,2.004-19.578c0.414,0.895,1.075,1.651,1.811,2.363
			c0.39,0.383,0.902,0.292,1.282-0.112c0.38-0.4,0.573-0.902,0.617-1.434c0.037-0.485,0.041-0.966,0.017-1.444
			c0.739,0.234,1.475,0.637,2.102,1.309c-0.37,5.825-0.332,11.949,0.088,18.168c0.387,5.717-4.717,28.767-5.093,39.641
			C205.267,448.057,209.343,463.549,207.023,467.764z"/>
		<path fill="#FFFFFF" d="M346.891,378.143c-1.533-8.599-10.454-31.971-2.987-46.867c-1.848,1.356-3.655,2.34-5.276,3.045
			c-0.017,0.02-0.034,0.041-0.054,0.061c-0.407,0.431-0.875,0.793-1.346,1.146c-1.109,0.831-2.218,1.661-3.323,2.496
			c-0.844,0.631-1.804,0.973-2.835,1.119c-0.993,0.139-1.489-0.281-1.434-1.282c0.078-1.506,0.515-2.886,1.736-3.886
			c0.322-0.264,0.62-0.542,0.898-0.841c-0.756-5.083-4.323-13.831-4.323-13.831c-0.919,0.919-1.58,2.075-2.041,3.384
			c0.468,0.478,0.922,0.96,1.36,1.441c0.929,1.424,1.007,2.726-0.078,3.835c-0.614,0.512-0.783,1.17-0.875,1.855
			c-0.088,0.651-0.146,1.312-0.431,1.912c-0.037,0.081-0.075,0.159-0.132,0.234c-0.142,0.193-0.326,0.336-0.543,0.424
			c0.298,2.933,0.899,5.778,1.461,7.995c0.773-0.098,1.312,0.305,1.584,1.173c0.237,0.756,0.193,1.516-0.041,2.363
			c-0.105,0.251-0.203,0.509-0.288,0.773c0.017,0.041,0.024,0.061,0.024,0.061c-0.014-0.003-0.024-0.007-0.037-0.01
			c-0.268,0.841-0.414,1.75-0.38,2.692c0.007,0.207-0.034,0.417-0.078,0.62c-0.112,0.505-0.42,0.831-0.936,0.922
			c-1.831,0.315-2.702-0.254-3.323-1.546c-0.498-1.034-0.949-2.099-0.848-3.275c0.068-0.76,0.275-1.431,0.678-1.967
			c-2.702-1.946-5.534-4.669-7.995-7.283c0.163,0.414,0.329,0.824,0.495,1.234s0.336,0.817,0.509,1.227
			c1.377,3.384,3.696,8.565,4.747,11.983c2.95,9.901,5.1,20.229,6.619,30.422c0.888,6.002,2.353,11.888,3.499,17.835
			c1.784,13.414,0.292,27.058-1.207,40.37c-1.512,10.938-2.855,21.904-6.219,32.497c-0.044,0.122-0.088,0.248-0.142,0.37
			c-0.048,0.122-0.105,0.244-0.163,0.366c-0.037,0.081-0.081,0.166-0.122,0.248c-0.207,0.4-0.441,0.79-0.688,1.17
			c-0.075,0.115-0.149,0.231-0.227,0.342c-0.075,0.115-0.149,0.227-0.231,0.339l1.485,1.231c-0.79,0.58-1.556,1.36-2.289,2.251
			c3.004,2.082,7.565,4.5,12.407,4.333c0.095-2.143,0.749-6.147,3.852-10.688c2.485-3.642,1.726-17.533,1.35-25.637
			C337.288,414.397,348.207,385.505,346.891,378.143z M337.79,350.824c-1.207-0.302-2.679-1.763-3.014-2.96
			c-0.393-1.404-0.831-3.767,0.407-4.154c0.783-0.244,1.424,0.692,2.014,1.221c0.875,0.787,1.638,1.665,2.177,2.719
			c0.217,0.427,0.387,0.875,0.451,1.353c0.058,0.465,0.02,0.915-0.227,1.333c-0.176,0.298-0.431,0.475-0.77,0.536
			C338.479,350.939,338.129,350.909,337.79,350.824z"/>
		<polygon fill="#FFFFFF" points="382.3,325.672 383.852,343.671 396.033,401.394 399.017,391.113 395.154,363.533 396.631,357.35 
			391.578,337.893 382.3,322.599 		"/>
	</g>
	<path fill="#231F20" d="M398.081,368.47c3.119-21.206-12.424-43.435-14.743-46.616c-8.809-58.87-22.887-79.336-24.047-80.943
		c-4.835-9.141-11.739-17.191-19.91-23.552c-11.942-9.358-27.282-14.051-42.404-13.556c-2.387,0.081-4.767,0.258-7.134,0.529
		c-2.502-0.902-11.061-3.879-22.304-6.47c-15.17-3.499-21.924-10.159-29.574-17.896c-1.519-12.485-14.302-21.233-31.9-33.256
		c-14.112-9.643-31.669-21.64-48.494-39.299c-9.169-9.623-20.256-22.575-30.971-35.101c-15.611-18.242-30.374-35.487-40.173-43.89
		c3.865-3.506,5.954-8.199,7.249-13.142l0.312-1.295l-1.18-0.346c-5.188-1.77-11.033-1.227-15.855,1.329
		c-1.689,0.827-3.079,2.062-4.286,3.465c-3.397-1.899-6.035-3.133-7.724-3.865c2.001-2.448,3.438-5.33,2.808-8.585
		c-1.255-4.95-8.416-7.046-12.844-5.459c-4.53,1.567-6.232,6.395-5.201,10.674c-6.002-2.285-12.749,0.461-16.031,2.713l-2.374,1.628
		l3.791,1.892c-3.119,2.129-4.483,5.12-4.557,5.283l-1.241,2.794l3.031-0.42c2.129-0.305,4.591-0.271,6.225,0.088
		c-3.587,2.997-6.32,7.012-8.314,11.217c-2.421,4.957-6.442,8.694-10.749,12.444c-7.432,6.32-16.323,13.176-18.696,23.328
		c-0.475,1.912-0.732,3.865-0.78,5.825c-0.034,0.882,0.007,1.729,0.407,2.597c1.709,3.384,6.002,2.923,9.928,1.695
		c1.241,0.4,2.496,0.658,3.798,0.841c7.948,1.078,15.821-2.129,21.897-7.141c3.587-0.149,7.175-0.346,10.755-0.522
		c3.743-0.19,7.493-0.38,11.196-0.495c3.058,0.095,6.246-0.353,9.148-1.472c8.931,7.487,32.171,41.048,55.811,92.323
		c15.828,34.335,37.685,60.721,42.879,66.757c0.258,2.611,0.359,5.256,0.339,7.907c-1.187,27.058-4.652,44.439,12.044,67.815
		c1.682,7.473,3.404,14.926,5.201,22.372c1.377,5.683,2.774,11.366,4.347,17.015c1.519,5.527,2.916,11.162,3.526,16.838
		c0.448,3.764,0.461,7.616,0.773,11.589c0.319,3.96,0.97,7.9,1.831,11.746c0.875,3.682,1.478,7.527,1.756,11.298
		c1.153,15.346,0.339,30.944-1.282,46.256c-0.732,6.178-1.519,12.383-3.18,18.371c-0.38,1.261-0.807,2.529-1.512,3.635
		c-3.045,4.93-6.809,9.508-9.711,14.594c-1.065,1.933-2.157,3.933-2.272,6.246l-0.136,1.695c1.98,0.007,31.357-0.007,33.209,0
		c-0.217-0.817-0.414-1.655-0.583-2.509c-1.099-5.52-1.051-11.661,2.095-16.377l0.393-0.556c0.081-0.109,0.109-0.163,0.224-0.305
		c1.363-1.722,2.007-3.988,1.75-6.171c-0.142-0.99-0.305-2.15-0.434-3.153c-2.943-23.681-2.828-47.952,1.628-71.409
		c0.8-4.205,1.356-8.504,1.424-12.824c0.109-4.32-0.237-8.565-0.312-12.654c-0.21-8.185,1.288-16.303,3.513-24.278
		c1.865-6.625,4.082-13.231,5.744-19.965c4.157,0.61,15.736,4.293,31.327,4.293c14.092,0,31.571-3.404,47.853-7.839
		c0.59,2.95,1.295,5.879,2.143,8.768c1.933,6.836,4.991,14.038,7.738,20.575c0.895,2.184,1.743,4.367,2.333,6.639
		c1.295,4.645,2.496,9.304,3.492,13.99c2.075,10.009,3.255,20.365,5.791,30.327c2.312,13.556,0.705,27.417-0.712,41.048
		c-1.431,10.613-2.753,21.484-5.927,31.697c-0.373,1.051-1.038,1.845-1.634,2.78c-0.593,0.868-1.404,1.824-2.319,2.875
		c-0.529,0.604-1.092,1.241-1.672,1.906c-3.048,3.523-6.486,7.911-7.158,13.197h33.127c-2.435-5.968-1.044-11.623,0.875-14.912
		c2.007-2.916,3.275-6.361,3.153-9.948l-0.319-5.554c-0.583-10.871-0.773-22.06,0.088-32.89c0.719-9.019,2.204-18.188,4.062-27.072
		c0.583-2.685,1.77-8.09,2.414-10.755c1.316-5.581,1.6-11.556,0.244-17.164c-0.854-3.743-2.123-7.202-2.997-10.681
		c-1.126-4.34-1.695-8.775-1.736-13.251l-0.007-1.343c0.129-5.812,1.946-11.366,3.906-16.852
		c3.832-10.376,8.463-20.399,11.793-31.039c1.811-5.588,3.214-11.4,4.008-17.286c4.516,16.947,7.575,39.482,7.955,42.337
		c-0.868,3.811-7.921,37.223,5.574,54.937c2.095,8.077,5.54,15.957,11.189,22.169c2.014,2.326,4.571,4.225,7.256,5.778
		c1.333-6.131,2.529-12.271,2.522-18.569C400.562,381.355,399.686,374.815,398.081,368.47z M124.022,74.514
		c10.749,12.559,21.863,25.546,31.093,35.236c17.069,17.917,34.796,30.028,49.037,39.76c14.058,9.609,24.908,17.028,28.903,25.593
		c-5.751-5.493-12.837-11.155-24.054-15.672c-20.853-8.389-67.258-53.146-97.375-93.91c-12.22-16.547-23.437-26.678-33.005-34.28
		c1.668-0.102,3.465-0.373,5.086-1.051l-0.183,0.21C93.092,38.376,108.818,56.747,124.022,74.514z M61.626,17.984
		c0.278-0.251,0.556-0.509,0.834-0.773c1.295,0.522,4.157,1.756,8.151,3.96c-0.481,0.719-0.943,1.451-1.383,2.163
		c-0.176,0.278-0.353,0.543-0.522,0.8c-4.076-2.401-6.876-3.289-8.416-3.615C60.541,19.638,60.954,18.784,61.626,17.984z
		 M35.531,21.476c0.929-0.943,2.211-1.899,3.886-2.394l4.13-1.227l-5.256-2.618c3.309-1.492,8.992-3.025,13.353,1.146
		c0.271,1.302,0.21,2.611-0.278,3.92c-2.529-0.102-5.011,0.468-7.324,1.444c-0.78,0.339-1.526,0.719-2.245,1.139
		C40.108,21.781,37.626,21.483,35.531,21.476z M362.147,283.884c-2.777,16.344-10.409,30.92-15.779,46.422
		c-1.21,3.492-2.228,7.06-2.814,10.713c-1.117,6.963-0.436,14.025,1.273,20.846c0.922,3.669,2.19,7.148,2.97,10.593
		c1.255,5.167,0.963,10.504-0.244,15.665c-0.631,2.692-1.858,8.097-2.421,10.803c-3.526,16.289-5.188,33.094-4.659,49.756
		c0.068,2.78,0.292,8.3,0.441,11.088c0,0,0.318,5.459,0.319,5.466c0.132,2.27-0.745,4.334-1.762,6.312
		c-1.258,2.447-2.334,4.862-2.914,7.57c-0.106,0.494-0.204,1.008-0.496,1.421c-0.566,0.803-1.708,0.561-2.559,0.59
		c-4.842,0.166-9.402-2.251-12.407-4.333c-2.306,2.811-4.255,6.761-5.398,9.331h-2.482c0.044-0.078,0.088-0.156,0.132-0.234
		c1.886-3.337,4.237-6.373,6.442-9.499c1.118-1.585,2.273-3.195,3.192-4.908c0.887-1.654,1.287-3.587,1.769-5.394
		c2.173-8.147,3.349-16.512,4.494-24.853c0.149-1.086,0.297-2.171,0.447-3.257c1.499-13.312,2.991-26.956,1.207-40.37
		c-1.146-5.947-2.611-11.834-3.499-17.835c-1.519-10.193-3.669-20.521-6.619-30.422c-1.486-4.987-3.953-9.669-5.813-14.526
		c-5.992-15.642-9.103-31.581-7.617-48.37c0.248-2.798,0.611-5.585,1.077-8.355c0.399-2.356,0.881-4.715,0.962-7.11
		c0.02-0.58,0.181-4.49,0.181-4.49s-1.58,2.332-1.783,2.846c-0.804,2.04-1.475,4.132-2.027,6.254
		c-1.126,4.322-1.763,8.763-2.051,13.216c-0.269,4.149-0.239,8.312-0.044,12.463c0.045,0.964,1.07,11.591,1.118,11.574
		c-27.472,9.748-53.746,9.969-71.504,5.486c-2.245-0.563-4.357-1.204-6.314-1.912c0.081-0.359,0.163-0.719,0.237-1.078
		c0.115-0.563,0.227-1.126,0.336-1.692c0.731-3.812,1.271-7.837,1.495-11.772c0.114-2.008,0.144-4.02,0.068-6.03
		c-0.046-1.227-1.015-6.227-1.015-6.227c-0.22,0.165-1.238,5.432-1.517,7.105c-0.996,5.974-1.315,11.976-2.594,17.925
		c-2.658,12.329-7.961,23.972-9.921,36.518c-0.699,4.225-1.065,8.572-0.99,12.858c0.047,4.293,0.346,8.429,0.21,12.505
		c-0.109,4.076-0.631,8.124-1.397,12.166c-4.327,22.921-4.733,46.446-1.872,69.544c0.258,2.062,0.57,4.157,0.888,6.225
		c0.278,1.75-0.665,3.16-1.682,4.489c-1.329,1.967-2.184,4.184-2.665,6.415c-0.034,0.17-0.068,0.336-0.098,0.505
		c-0.024,0.132-0.047,0.264-0.068,0.397c-0.051,0.302-0.095,0.6-0.136,0.902c-0.014,0.092-0.027,0.183-0.037,0.275
		c-0.02,0.17-0.041,0.342-0.058,0.512c-0.003,0.044-0.01,0.088-0.014,0.132c-0.007,0.075-0.014,0.153-0.02,0.227
		c-0.017,0.159-0.031,0.315-0.041,0.471c-0.003,0.034-0.003,0.068-0.007,0.102c0,0.014-0.003,0.027-0.003,0.041
		c-0.007,0.085-0.01,0.17-0.014,0.251c-0.003,0.014-0.003,0.024-0.003,0.037c-0.01,0.163-0.017,0.322-0.024,0.485v0.041
		c-0.01,0.176-0.014,0.353-0.017,0.532c-1.102,0.261-2.197,0.363-3.279,0.346c-4.961-0.081-9.562-2.76-12.393-4.832
		c-2.55,3.228-4.774,8.002-5.947,10.752h-2.858c1.044-2.74,2.808-5.195,4.435-7.683c0.275-0.407,0.553-0.814,0.831-1.214
		c0.692-1,1.39-1.987,2.092-2.98c0.051-0.068,0.098-0.139,0.146-0.207c0.451-0.637,0.899-1.278,1.339-1.926
		c0.017-0.027,0.037-0.051,0.054-0.078c0.37-0.539,0.736-1.085,1.095-1.638c0.183-0.278,0.363-0.556,0.539-0.834
		s0.353-0.563,0.529-0.848c0.848-1.35,1.397-2.896,1.851-4.408c1.723-6.205,2.543-12.607,3.296-18.954
		c1.763-17.537,2.848-35.264,0.624-52.828c-0.977-5.669-2.563-11.379-2.916-17.123c-0.305-3.784-0.319-7.724-0.787-11.691
		c-0.827-7.88-3.133-15.374-5.14-22.982c-2.292-8.918-4.408-17.896-6.463-26.875c0.235,1.027,3.393,2.611,4.307,2.721
		c-0.044-2.303-1.732-4.418-3.045-6.183c-7.942-10.674-13.414-22.528-14.747-35.892c-1.053-10.553,0.365-21.128,0.425-31.69
		c0.052-9.194-0.338-22.63-7.865-29.178c0.962,0.848,0.73,3.559,0.911,4.713c0.339,2.16,1.21,4.403,1.421,6.481
		c-1.476-2.552-3.693-4.48-5.519-6.76c-2.221-2.772-4.357-5.612-6.417-8.505c-4.121-5.787-7.936-11.788-11.535-17.913
		c-7.257-12.348-13.634-25.183-19.986-38.011c-9.877-19.946-20.101-39.639-32.245-58.279c-5.511-8.457-11.351-16.6-18.299-23.954
		c3.425-1.451,5.925-4.882,6.255-8.587c-3.811,5.403-10.725,7.707-17.301,8.391s-13.273,0.094-19.777,1.287l4.951-6.676
		c-4.274,3.444-8.574,6.907-13.372,9.573s-10.165,4.523-15.654,4.491c3.555-1.638,7.13-3.287,10.356-5.504
		c3.226-2.217,6.117-5.052,7.846-8.564c-5.105,3.465-10.457,6.565-16.002,9.27c-2.585,1.261-5.167,2.474-7.924,3.302
		c-1.034,0.311-5.349,1.793-6.106,0.278c-0.061-0.122-0.095-0.393-0.088-0.583c0.182-5.08,2.094-9.887,5.089-13.959
		c3.657-4.972,8.702-8.73,13.357-12.693c4.421-3.764,9.087-8.192,11.732-13.746c2.923-6.381,8.151-12.878,15.251-14.173
		c-0.637,0.875-1.261,1.777-1.865,2.943c7.167-0.362,7.441-6.682,7.481-8.846c1.058,0.669,2.367,0.226,3.542-0.146
		c-1.237,1.723-1.306,3.952-1.217,6.029c0.152,3.557,3.611,5.271,3.611,5.271c-0.144-1.611-0.464-3.614-0.608-5.225
		c2.369,0.657,4.381,1.357,6.458,2.673l-1.739,3.904c2.25-0.509,4.542-2.081,5.956-3.904s2.578-4.055,4.138-5.754
		c3.97-4.324,9.839-5.821,15.639-4.921c-0.989,2.512-1.991,5.049-3.517,7.276c-1.403,2.048-3.428,3.983-5.846,4.698
		c-1.695,0.501-3.703,0.244-5.37,0.832c-2,0.706-4.516,3.73-3.145,6.105c0.101-0.798,0.898-2.168,1.697-2.263
		c1.285-0.152,5.52,3.734,6.61,4.729c2.347,2.143,4.657,4.327,6.927,6.552c4.54,4.45,8.922,9.06,13.135,13.82
		c4.389,4.958,8.595,10.077,12.606,15.344c6.162,8.091,12.388,16.196,19.116,23.881c0.376,0.431,0.753,0.858,1.133,1.285
		c0.451,0.512,0.902,1.024,1.36,1.536c0.288,0.326,0.58,0.651,0.868,0.977c0.658,0.736,1.316,1.468,1.977,2.197
		c0.909,1.004,1.817,2.004,2.73,2.994c0.454,0.498,0.912,0.993,1.37,1.485c5.479,5.92,11.016,11.623,16.476,16.977
		c0.498,0.488,0.994,0.973,1.492,1.455c1.319,1.285,2.631,2.543,3.937,3.781c0.332,0.319,0.668,0.631,1,0.943
		c5.754,5.433,11.684,10.684,17.858,15.636c3.181,2.551,6.362,5.105,9.66,7.504c2.869,2.086,6.089,4.763,9.377,6.071
		c7.091,2.82,13.839,6.31,20.098,10.691c3.853,2.698,7.339,5.666,10.648,8.976c0.217,0.217,0.434,0.431,0.648,0.648
		c5.004,5.005,9.713,10,15.793,13.784c10.298,6.409,22.111,8.052,33.511,11.605c-2.676,0.518-5.222,1.695-7.35,3.399
		c6.1-0.097,12.165-0.904,18.254-1.282c14.614-0.908,28.723,2.663,40.901,10.838c12.014,8.065,21.114,19.655,25.814,33.316
		c2.169,6.303,3.077,12.96,3.037,19.619C363.247,275.573,362.845,279.772,362.147,283.884z M377.424,323.454
		c-0.17-1.363-4.347-33.595-10.64-51.539c0.034-2.421-0.054-4.835-0.278-7.243c4.449,12.627,9.569,31.418,13.536,58.103l0.068,0.427
		l1.438,9.311L377.424,323.454z M396.606,393.138c-0.054,1.539-0.201,3.046-0.507,4.455c-0.492-1.556-0.218-3.377-0.328-4.996
		c-0.15-2.204-0.335-4.406-0.549-6.605c-0.487-4.999-1.112-9.99-1.972-14.939c-1.953-11.24-5.429-20.789-4.255-22.243l3.106,2.099
		c-4.163-13.431-9.922-24.701-10.009-24.87c1.243,2.427,2.965,4.643,4.282,7.047c1.434,2.618,2.715,5.319,3.835,8.086
		c1.088,2.688,2.025,5.436,2.803,8.23c0.734,2.634,2.013,6.075,1.842,8.811c-0.951-1.522-1.483-3.383-2.409-4.961
		c-0.952-1.622-2.087-3.14-3.449-4.442c0.621,3.897,2.018,7.395,3.17,11.156c1.187,3.877,2.136,7.828,2.842,11.821
		c0.746,4.219,1.189,8.49,1.365,12.77C396.482,387.25,396.707,390.252,396.606,393.138z M84.486,20.195
		c-3.662,0.529-7.005,2.245-9.914,4.611c1.465-4.808,6.822-7.717,11.684-7.297l1.702,0.129l-0.509,1.472
		c-0.922,2.414-2.753,4.639-5.256,5.466C83.15,23.227,83.923,21.742,84.486,20.195z M192.413,335.757
		c1.166,4.537,2.251,9.033,2.068,13.794c-2.489-4.062-3.75-8.511-4.964-13.034c-0.997-4.537-2.218-9.094-2.062-13.787
		C189.883,326.744,191.063,331.315,192.413,335.757z M302.434,310.62c-2.702,1.961-5.753,2.969-8.821,3.774
		c-3.074,0.826-6.157,1.604-9.277,2.188c-3.113,0.597-6.254,1.046-9.406,1.407c-3.221,0.358-6.37,0.78-9.593-0.213
		c2.901-1.666,5.989-2.091,9.156-2.691l9.248-1.711c3.081-0.561,6.171-1.075,9.244-1.657
		C296.055,311.082,299.099,310.475,302.434,310.62z M358.145,251.328c1.078,3.377,1.926,6.836,2.462,10.342
		c1.689,10.796,0.719,22.067-2.814,32.409c-0.854,1.906-1.804,3.771-3.079,5.446c-0.027-2.414,0.509-4.645,0.943-6.971
		c2.685-11.054,3.642-22.63,1.865-33.921c-0.631-4.632-2.17-8.843-2.807-13.536C356.361,246.899,357.365,249.103,358.145,251.328z
		 M52.071,42.37c-0.563-0.685-1.288-1.248-2.156-1.621c-2.923-1.261-6.327,0.088-7.588,3.011c-0.434,1.01-0.556,2.075-0.414,3.086
		c-0.407,1.438-1.505,2.075-1.505,2.075c1.058-0.224,1.912,0.081,2.468,0.4c0.597,0.868,1.431,1.587,2.462,2.034
		c0.739,0.319,1.512,0.475,2.285,0.475c0.726,0,1.444-0.136,2.136-0.414c1.431-0.57,2.557-1.661,3.174-3.079
		c0.339-0.8,0.488-1.634,0.461-2.455c0.651-1.817,2.292-2.713,2.292-2.713C54.227,43.414,52.912,42.865,52.071,42.37z
		 M51.684,47.802c-0.468,1.085-1.329,1.919-2.428,2.353c-1.099,0.441-2.299,0.42-3.377-0.047c-0.061-0.027-0.115-0.054-0.176-0.088
		c1.567,0.366,3.208-0.427,3.865-1.953c0.047-0.102,0.081-0.197,0.115-0.298c-0.502,0.203-1.092,0.217-1.634-0.02
		c-1.071-0.461-1.567-1.702-1.105-2.767c0.251-0.57,0.712-0.977,1.261-1.16c-0.129-0.075-0.264-0.149-0.4-0.21
		c-1.722-0.739-3.716,0.054-4.455,1.77c-0.054,0.136-0.088,0.271-0.129,0.414c0.027-0.502,0.136-1.01,0.346-1.492
		c0.468-1.085,1.329-1.926,2.428-2.36c0.529-0.21,1.085-0.312,1.634-0.312c0.59,0,1.187,0.122,1.75,0.366
		C51.616,42.96,52.647,45.564,51.684,47.802z"/>
</g>
</svg>
