<?xml version="1.0" encoding="utf-8"?>
<!-- Generator: Adobe Illustrator 28.3.0, SVG Export Plug-In . SVG Version: 6.00 Build 0)  -->
<svg version="1.1" id="gorilla_00000028309817599951480060000013245328448207575992_"
	 xmlns="http://www.w3.org/2000/svg" xmlns:xlink="http://www.w3.org/1999/xlink" x="0px" y="0px" viewBox="0 0 490 571.038"
	 enable-background="new 0 0 490 571.038" xml:space="preserve">
<g id="gorilla">
	<g>
		<path fill="#4C4C4C" d="M485.316,423.528l0.787,1.024l-0.012-1.292c-0.184-19.879-5.754-37.07-16.106-49.714
			c-11.001-13.437-26.863-21.611-47.146-24.295c-2.196-0.274-4.129-0.441-5.91-0.514l-0.297-0.012l-0.118,0.273
			c-1.946,4.507-4.029,9.011-5.99,13.207l-0.064,0.138l0.036,0.148c1.528,6.236,1.779,13.026,2,19.018l0.012,0.314
			c0.104,8.992-0.944,18.713-3.112,28.887l-0.654,2.849c-0.548,2.384-1.227,5.339-1.685,7.342c-0.959-1.789-2.25-4.205-3.571-6.682
			l-0.637-1.193l-0.174,1.341c-0.109,0.838-0.239,1.699-0.386,2.556c-2.163,11.843-7.037,23.624-14.487,35.015l-0.058,0.088
			l-0.011,0.105c-1.638,16.389-6.136,30.52-13.37,42.001l-1.594,2.519l-3.266-4.564l-0.329,0.61
			c-2.852,5.289-6.165,10.472-9.846,15.406c-1.237,1.665-2.635,3.436-4.276,5.415l-0.731,0.882l1.131-0.178
			c1.24-0.195,2.487-0.252,3.709-0.169c4.72,0.335,8.499,2.691,10.838,4.609l0.515,0.423l0.176-0.643
			c2.727-9.967,14.136-13.457,14.62-13.601l1.398-0.416l0.643,1.301c2.988,6.012,6.883,8.289,8.938,9.111l0.341,0.136l11.215-18.61
			l1.197,3.514c2.697,7.902,7.85,12.691,12.468,16.559l0.295,0.247l0.28-0.263c2.023-1.904,4.1-3.832,6.183-5.742
			c14.517-14.255,24.155-27.097,30.33-40.408c1.488-3.097,2.557-6.335,3.59-9.467c0.935-2.833,1.899-5.751,3.174-8.568
			c1.37,4.818-0.27,9.927-1.726,14.468c-0.378,1.151-0.806,2.338-1.307,3.629l-0.816,2.102l1.537-1.651
			c15.123-16.249,18.119-43.787,18.41-46.873l0.013-0.138l-0.069-0.12c-1.388-2.398-2.654-4.557-4.097-6.692
			c-0.716-1.082-1.417-2.078-2.119-3.008c1.154,0.714,2.183,1.504,3.017,2.174C480.958,418.48,483.35,420.97,485.316,423.528z
			 M456.841,461.641c-0.495,4.399-2.517,8.371-4.477,12.222l-0.024,0.046c-3.225,6.307-7.097,12.435-11.503,18.207l-0.307,0.389
			c-3.921,4.967-7.964,10.09-13.211,13.88c1.85-3.157,3.984-6.047,6.057-8.856c0.332-0.45,0.664-0.899,0.993-1.348
			c2.799-3.754,5.409-7.732,7.934-11.579l0.057-0.087c2.514-3.838,5.023-7.875,7.458-11.998c0.463-0.781,0.913-1.563,1.361-2.341
			C452.922,467.153,454.578,464.279,456.841,461.641z"/>
		<path fill="#4C4C4C" d="M130.668,508.103c-3.68-4.933-6.993-10.116-9.845-15.405l-0.329-0.61l-3.266,4.564l-1.594-2.518
			c-7.234-11.481-11.732-25.613-13.37-42.002l-0.011-0.105l-0.058-0.088c-7.45-11.391-12.324-23.172-14.486-35.011
			c-0.147-0.853-0.277-1.714-0.386-2.56l-0.174-1.338l-4.209,7.869c-0.266-1.16-0.604-2.629-0.947-4.123
			c-0.534-2.324-1.082-4.704-1.389-6.059c-2.17-10.181-3.217-19.902-3.114-28.883l0.003-0.077
			c0.216-6.066,0.461-12.942,2.009-19.264l0.036-0.148l-0.065-0.138c-1.706-3.65-3.929-8.449-5.99-13.19l-0.118-0.273l-0.297,0.013
			c-9.339,0.416-19.044,2.632-28.061,6.408c-13.688,5.633-24.208,14.915-31.269,27.587c-6.286,11.28-9.685,25.303-9.83,40.553
			l-0.012,1.274l0.785-1.004c3.429-4.382,6.676-7.471,10.08-9.568c-2.287,3.025-4.202,6.299-6.065,9.481l-0.171,0.293l0.013,0.139
			c0.294,3.088,3.309,30.637,18.41,46.864l1.536,1.651l-0.817-2.103c-0.476-1.225-0.916-2.447-1.306-3.626
			c-1.457-4.544-3.097-9.654-1.727-14.471c1.28,2.824,2.247,5.752,3.185,8.592c1.032,3.124,2.099,6.354,3.576,9.437
			c6.178,13.317,15.816,26.159,30.343,40.424c2.054,1.882,4.13,3.81,6.173,5.732l0.28,0.263l0.294-0.247
			c4.624-3.874,9.783-8.667,12.468-16.559l1.197-3.514l11.224,18.61l0.341-0.136c2.045-0.816,5.926-3.085,8.93-9.112l0.643-1.3
			l1.398,0.416c0.484,0.144,11.894,3.636,14.62,13.601l0.176,0.643l0.516-0.423c2.339-1.918,6.118-4.275,10.837-4.609
			c1.22-0.084,2.471-0.027,3.719,0.169l1.135,0.177l-0.735-0.882C133.336,511.578,131.934,509.807,130.668,508.103z M62.67,506.367
			c-3.141-2.277-6.089-5.122-8.971-8.652l-0.006-0.007c-6.411-7.512-11.806-15.52-16.034-23.8l-0.024-0.048
			c-1.96-3.851-3.981-7.821-4.476-12.22c2.264,2.639,3.92,5.513,5.661,8.537c0.448,0.777,0.897,1.558,1.36,2.338
			c2.435,4.123,4.945,8.16,7.459,11.999l0.057,0.086c2.525,3.847,5.136,7.825,7.932,11.576c0.331,0.45,0.662,0.9,0.994,1.349
			C58.692,500.33,60.822,503.216,62.67,506.367z"/>
		<path fill="#4C4C4C" d="M368.944,484.241l0.369,0.525c0.822,1.168,1.875,2.664,2.849,4.058l0.389,0.558l0.34-0.59
			c4.372-7.589,7.694-16.417,9.874-26.237c1.118-4.934,1.948-10.274,2.466-15.872c0.099-1.153,0.18-2.297,0.259-3.436
			c0.273-3.875,0.532-7.557,1.456-11.325c1,2.82,1.445,5.94,1.426,9.912l-0.009,1.913l0.831-1.723
			c2.211-4.586,4.124-9.333,5.689-14.114c2.041-6.423,3.199-12.213,3.54-17.697c0.195-2.904-0.093-8.869-0.325-13.662
			c-0.047-0.985-0.092-1.898-0.128-2.711l7.272,13.603l0.233-1.191c1.666-8.507,2.586-16.734,2.732-24.444
			c0.288-7.525-0.758-14.95-1.77-22.13c-0.392-2.786-0.797-5.653-1.124-8.524c1.24,1.572,2.296,3.363,3.207,5.438l0.387,0.879
			l0.403-0.872c6.737-14.592,11.633-26.741,13.633-38.605l0.962-5.71l4.583,10.423l0.226-1.466
			c4.396-28.472-2.58-62.29-2.651-62.621l-0.887-4.266l6.944,4.825l-0.099-0.94c-5.883-55.885-47.255-84.369-47.672-84.65
			l-0.07-0.048l-0.084-0.017c-0.076-0.016-6.93-1.445-11.407-2.662c5.409-1.562,10.894-1.34,15.613-0.896l1.132,0.107l-0.775-0.832
			c-0.357-0.383-0.714-0.758-1.081-1.134c-4.601-4.656-10.028-8.009-15.693-9.695c-0.983-0.297-2.112-0.563-3.022-0.713
			l-0.048-0.008l-0.048,0.003c-0.735,0.043-1.484,0.069-2.232,0.077c-4.738,0.094-8.781-0.137-12.537-0.719
			c6.707-1.655,14.022-3.049,22.288-4.251l0.858-0.125l-0.615-0.61c-6.022-5.974-14.073-10.712-23.931-14.082
			c-9.313-3.13-19.586-4.983-29.707-5.36l-0.525-0.02l0.081,0.519c0.032,0.2,3.111,20.079,0.562,27.06l-0.004,0.013
			c-0.023,0.053-0.046,0.107-0.07,0.16l-5.803-7.751l-0.036,1.239c-0.005,0.18-0.636,18.21-10.291,32.085
			c-2.52,3.629-5.471,6.699-8.768,9.124l-0.114,0.084l-7.973,25.28l-8.753,3.982l-0.107,0.106
			c-0.166,0.197-16.869,19.739-36.171,19.756h-0.034c-19.339-0.017-36.022-19.575-36.188-19.773l-0.063-0.075l-8.78-3.996
			l-7.978-25.28l-0.114-0.084c-3.289-2.418-6.238-5.485-8.764-9.116c-9.654-13.875-10.29-31.913-10.295-32.093l-0.036-1.239
			l-5.798,7.751l-0.035-0.079l-0.004-0.093l-0.057-0.06c-2.505-7.014,0.552-26.789,0.584-26.989l0.005-0.046l-0.009-1.106
			l-0.626,0.657c-13.273,0.62-37.683,3.978-53.39,19.415l-0.622,0.612l0.864,0.125c2.935,0.425,6.214,0.976,10.024,1.684l1.315,0.25
			c3.603,0.685,7.311,1.389,10.964,2.319c-1.624,0.253-3.36,0.438-5.327,0.57c-3.496,0.192-6.574,0.218-9.41,0.078l-0.048-0.003
			l-0.048,0.008c-9.058,1.586-15.829,7.157-19.914,11.551l-0.759,0.816l1.11-0.09c1.944-0.158,3.725-0.262,5.438-0.319
			c3.981-0.055,7.27,0.331,10.211,1.2c-3.39,0.921-6.757,1.508-9.93,2.03c-0.643,0.088-1.539,0.63-1.654,0.701
			c-0.417,0.281-41.788,28.751-47.673,84.65l-0.099,0.939l6.944-4.816l-0.886,4.256c-0.072,0.334-7.042,34.21-2.652,62.624
			l0.226,1.466l4.582-10.423l0.962,5.71c1.983,11.816,6.884,23.978,13.633,38.605l0.403,0.872l0.386-0.879
			c0.911-2.074,1.966-3.865,3.206-5.437c-0.326,2.845-0.726,5.687-1.115,8.449c-1.015,7.207-2.066,14.659-1.777,22.195
			c0.147,7.719,1.066,15.946,2.733,24.453l0.233,1.191l7.272-13.605c-0.037,0.845-0.083,1.796-0.133,2.822
			c-0.229,4.736-0.514,10.629-0.32,13.549c0.341,5.487,1.499,11.276,3.542,17.704c1.563,4.776,3.477,9.524,5.688,14.111l0.831,1.723
			l-0.009-1.913c-0.018-3.971,0.426-7.091,1.427-9.912c0.923,3.768,1.183,7.45,1.456,11.325c0.08,1.138,0.161,2.283,0.26,3.438
			c0.518,5.598,1.347,10.937,2.465,15.868c2.18,9.82,5.503,18.649,9.875,26.239l0.34,0.59l0.39-0.558
			c1.127-1.613,2.354-3.358,3.217-4.583c1.987,3.934,4.325,8.414,6.839,12.468c4.38,7.135,9.55,14.043,15.806,21.116l0.623,0.705
			l0.129-0.931c0.514-3.693,1.302-7.593,2.483-12.276c3.489-14.263,9.758-28.615,20.275-46.388c0.045,0.552,0.089,1.116,0.134,1.691
			c0.384,4.921,0.819,10.498,2.226,14.763c2.344,7.694,6.913,14.737,12.867,19.831l0.623,0.533l0.088-0.816
			c0.908-8.452,3.023-17.188,6.289-25.975c3.463,2.344,6.817,5.302,10.805,9.523c2.094,2.202,4.268,4.562,6.462,7.015l1.106,1.237
			l-0.361-1.619c-0.23-1.029-0.345-1.97-0.353-2.892c-0.041-0.934,0.142-1.99,0.344-2.983c2.443-10.861,2.518-22.352,0.219-33.223
			c-1.859-9.624-6.106-17.751-10.602-26.354c-1.319-2.525-2.677-5.122-3.971-7.767c2.228,1.467,4.321,3.37,6.238,5.673l0.706,0.849
			l0.058-1.103c0.544-10.361-1.071-21.125-2.712-30.53c1.904,1.551,4.645,3.788,7.223,5.893l0.97,0.792l-0.275-1.222
			c-1.608-7.149-3.935-14.021-6.913-20.42c-1.906-4.243-4.225-8.486-6.895-12.615c-0.453-0.68-0.908-1.351-1.359-2.017
			c-2.074-3.06-4.043-5.967-5.639-9.338c3.845,1.963,6.586,5.245,8.78,8.252l0.685,0.939l0.095-1.159
			c1.197-14.573-0.318-29.495-4.502-44.339c-1.297-5.109-3.161-10.049-4.963-14.828c-1.538-4.078-3.123-8.28-4.361-12.598
			c6.48,6.949,9.65,16.183,12.72,25.129l0.401,1.166c5.478,17.535,6.755,35.099,3.696,50.79l-0.075,0.376l0.171,0.26
			c1.769,2.814,3.348,5.612,4.694,8.319c4.394,8.831,7.428,18.322,9.022,28.23c0.005,0.027,0.011,0.055,0.014,0.083l0.929,5.653
			c-0.969-0.792-2.162-1.77-3.442-2.819c-1.363-1.117-2.824-2.314-4.218-3.455l-0.816-0.668l0.112,1.049
			c0.361,3.373,0.584,6.464,0.681,9.448c0.172,5.887-0.136,10.688-0.97,15.106l-0.03,0.159l0.082,0.14
			c0.632,1.078,1.183,2.07,1.685,3.035c1.836,3.514,3.43,7.192,4.737,10.933c3.209,9.216,4.704,18.674,4.444,28.11
			c-0.159,5.155-0.806,10.438-1.923,15.717c-0.213,1.196-0.049,2.247,0.163,3.222c1.249,4.741,4.239,9.291,7.131,13.69
			c0.614,0.934,1.219,1.855,1.811,2.784c3.578,5.439,7.277,11.064,10.161,17.278c3.849,8.107,4.753,15.471,2.687,21.889
			l-0.182,0.565h22.183l-0.182-0.565c-2.07-6.428-1.166-13.793,2.689-21.893c2.779-6.024,6.375-11.5,9.854-16.796
			c1.851-2.817,3.764-5.73,5.537-8.701l0.123-0.219c1.868-3.308,3.633-6.433,3.841-9.961c0.034-0.587-0.069-1.149-0.168-1.692
			l-0.039-0.213c-2.506-11.835-2.405-24.021,0.289-35.234c0.744-2.828,1.553-5.528,2.405-8.023
			c1.839-5.367,3.976-10.067,6.353-13.973l0.086-0.142l-0.03-0.163c-0.819-4.372-1.125-9.156-0.962-15.053
			c0.098-2.998,0.32-6.088,0.681-9.449l0.113-1.051l-0.817,0.67c-2.699,2.214-5.655,4.634-7.661,6.274l0.922-5.612
			c1.586-9.94,4.628-19.48,9.044-28.354c1.363-2.743,2.969-5.582,4.771-8.44l0.092-0.145L293,361.412
			c-3.108-15.748-1.844-33.381,3.652-50.979l0.4-1.164c3.068-8.943,6.234-18.174,12.725-25.145
			c-1.237,4.314-2.821,8.515-4.359,12.592c-1.803,4.782-3.667,9.726-4.963,14.826c-2.789,9.956-4.409,20.013-4.817,29.89
			c-0.208,4.613-0.103,9.337,0.321,14.442l0.096,1.155l0.684-0.935c2.2-3.008,4.943-6.287,8.773-8.237
			c-1.596,3.372-3.566,6.279-5.64,9.341c-0.452,0.666-0.906,1.337-1.363,2.022c-2.666,4.123-4.984,8.366-6.889,12.605
			c-2.98,6.403-5.307,13.275-6.916,20.425l-0.275,1.222l0.971-0.792c2.579-2.105,5.315-4.338,7.223-5.892
			c-1.579,9.047-3.146,19.402-2.768,29.412l0.11,2.247l0.709-0.839c1.937-2.292,4.03-4.2,6.236-5.687
			c-1.712,3.54-3.483,6.896-5.202,10.154c-1.006,1.906-2.045,3.876-3.05,5.841c-7.86,15.806-10.026,34.035-6.097,51.334
			c0.452,1.859,0.449,3.994-0.009,5.859l-0.413,1.684l1.156-1.293c2.19-2.449,4.364-4.809,6.462-7.016
			c2.737-2.889,6.414-6.552,10.799-9.518l0.876,2.435c2.756,7.844,4.576,15.763,5.411,23.537l0.087,0.816l0.623-0.533
			c5.942-5.077,10.518-12.12,12.882-19.822c1.407-4.273,1.843-9.883,2.227-14.833c0.043-0.554,0.085-1.098,0.128-1.628
			c10.508,17.77,16.777,32.122,20.275,46.389c1.162,4.608,1.974,8.622,2.483,12.273l0.13,0.931l0.623-0.704
			c6.255-7.073,11.426-13.98,15.805-21.115C364.619,492.643,366.958,488.168,368.944,484.241z M395.827,189.152
			c12.94,11.042,26.617,35.466,29.78,53.208c-0.558-1.042-1.08-2.097-1.592-3.131c-0.361-0.728-0.722-1.456-1.09-2.172
			c-3.699-7.661-8.166-16.671-13.249-25.414c-2.497-4.43-5.262-8.78-7.936-12.988C399.771,195.559,397.748,192.375,395.827,189.152z
			 M347.433,504.842c-0.137,0.814-0.294,1.747-0.49,2.666c-0.233-1.051-0.459-2.096-0.68-3.118
			c-1.306-6.046-2.539-11.757-4.986-17.471c-1.707-4.566-3.956-8.845-6.13-12.983c-1.092-2.078-2.215-4.214-3.28-6.404
			C341.431,475.035,348.732,492.25,347.433,504.842z M365.717,149.208c-0.323-0.104-0.645-0.208-0.961-0.308
			c-2.022-0.677-4.065-1.4-6.04-2.098c-3.293-1.165-6.697-2.369-10.092-3.394c-3.068-1.045-6.219-1.929-9.266-2.784
			c-3.633-1.019-7.374-2.069-11.008-3.402c11.228-1.272,27.349,4.097,37.053,10.367c1.105,0.719,2.202,1.554,3.323,2.53
			C367.697,149.847,366.695,149.524,365.717,149.208z M309.695,485.079c-0.038,1.603-0.288,3.008-0.762,4.267
			c-0.188-0.57-0.319-1.116-0.427-1.608c-0.294-1.208-0.508-2.453-0.715-3.658c-0.223-1.296-0.453-2.635-0.778-3.911
			c-0.418-2.087-0.987-3.925-1.588-5.871c-0.308-0.995-0.623-2.015-0.921-3.083C308.367,473.878,309.728,480.21,309.695,485.079z
			 M185.495,471.216c-0.298,1.068-0.613,2.087-0.92,3.082c-0.602,1.946-1.17,3.784-1.584,5.849c-0.33,1.298-0.56,2.637-0.783,3.933
			c-0.207,1.205-0.421,2.45-0.717,3.667c-0.107,0.486-0.238,1.029-0.425,1.598c-0.473-1.258-0.724-2.663-0.761-4.259
			C180.272,480.216,181.633,473.886,185.495,471.216z M142.568,504.855c-1.306-12.59,5.994-29.813,15.564-37.322
			c-1.061,2.179-2.179,4.307-3.266,6.377c-2.178,4.146-4.43,8.433-6.139,12.999c-2.452,5.73-3.685,11.439-4.99,17.482
			c-0.221,1.021-0.446,2.066-0.679,3.117C142.859,506.587,142.703,505.655,142.568,504.855z M161.668,137.215
			c-3.635,1.334-7.379,2.384-11.014,3.404c-3.052,0.856-6.209,1.742-9.26,2.783c-3.169,0.921-6.305,2.049-9.337,3.139
			c-3.482,1.252-7.068,2.542-10.73,3.525c8.426-7.185,25.494-13.023,37.103-13.023C159.566,137.043,160.65,137.099,161.668,137.215z
			 M94.172,189.154c-1.92,3.221-3.943,6.404-5.911,9.5c-2.674,4.207-5.439,8.557-7.936,12.987
			c-5.084,8.745-9.55,17.755-13.244,25.406c-0.372,0.724-0.732,1.45-1.092,2.175c-0.512,1.032-1.035,2.086-1.592,3.128
			C67.569,224.61,81.243,200.195,94.172,189.154z M204.461,471.139c-0.486-3.185-0.798-6.402-1.1-9.529
			c-0.37-3.822-0.753-7.775-1.45-11.633c-0.672-4.851-1.818-9.72-2.927-14.428c-0.184-0.781-0.368-1.562-0.546-2.329
			c-0.122-0.604-0.256-1.2-0.391-1.795c-0.169-0.751-0.342-1.516-0.487-2.294c0.261,0.363,0.507,0.719,0.734,1.051
			C204.533,439.637,208.344,459.042,204.461,471.139z M286.639,461.611c-0.302,3.127-0.614,6.344-1.1,9.529
			c-3.883-12.092-0.076-31.501,6.154-40.952c0.256-0.368,0.502-0.72,0.748-1.059c-0.145,0.779-0.318,1.546-0.487,2.297
			c-0.134,0.593-0.268,1.187-0.389,1.788c-0.181,0.78-0.365,1.561-0.549,2.343c-1.108,4.706-2.254,9.573-2.923,14.404
			C287.392,453.836,287.009,457.788,286.639,461.611z"/>
		<path fill="#4C4C4C" d="M181.027,69.878L181.027,69.878c-7.704,12.478-11.433,26.197-11.085,40.775l0.095,3.969l0.762-3.896
			c4.712-24.087,19.432-35.832,30.951-41.442l1.592-0.775l2.614,5.68l0.437-0.397c3.326-3.023,10.415-8.553,20.519-11.628
			c8.282-2.516,15.234,1.604,17.839,3.492l0.254,0.184l0.254-0.185c2.599-1.89,9.539-6.012,17.83-3.492
			c10.105,3.075,17.193,8.605,20.518,11.628l0.436,0.396l2.623-5.679l1.584,0.775c11.519,5.611,26.239,17.355,30.951,41.442
			l0.762,3.897l0.095-3.969c0.348-14.578-3.382-28.297-11.086-40.775c-7.977-12.903-17.5-19.846-18.575-20.605l-12.889-8.849
			l33.386,13.394l-0.626-1.083c-5.764-9.985-14.259-17.028-24.568-20.367c-7.84-2.539-14.176-2.12-14.876-2.063l-14.65,1.273
			l13.95-4.636c8.315-2.757,15.429-3.778,19.934-4.149l0.845-0.069l-0.552-0.643c-10.064-11.728-24.84-9.375-27.7-8.784
			l-0.126,0.026l-0.091,0.091c-0.038,0.038-0.071,0.081-0.127,0.157l-0.546,0.68c-1.86,2.32-3.77,4.702-6.056,6.612
			c1.639-2.777,3.007-5.713,4.338-8.571c1.087-2.334,2.212-4.747,3.465-7.031l0.429-0.782l-0.88,0.147
			c-5.822,0.974-11.417,4.009-15.753,8.546c-0.286,0.301-0.681,0.738-0.915,1.037l-1.384,1.532l-1.384-1.523
			c-4.319-5.036-10.394-8.529-16.667-9.583l-0.873-0.147l0.421,0.779c0.946,1.752,1.819,3.586,2.663,5.36
			c0.251,0.527,0.501,1.053,0.755,1.58c0.403,0.819,0.795,1.642,1.186,2.464c0.981,2.062,1.988,4.178,3.179,6.2
			c-0.986-0.843-1.871-1.778-2.684-2.636c-1.575-1.792-2.845-3.312-3.998-4.782l-0.098-0.124l-0.155-0.032
			c-1.75-0.365-17.4-3.222-27.701,8.784l-0.552,0.643l0.845,0.069c4.505,0.371,11.62,1.392,19.934,4.149l14.178,4.705l-14.878-1.342
			c-1.03-0.092-25.377-1.941-39.445,22.43l-0.625,1.083l33.524-13.45l-13.044,8.916C198.526,50.035,188.996,56.988,181.027,69.878z"
			/>
		<path fill="#4C4C4C" d="M244.999,76.258l0.416,0.651V75.61c2.943-4.577,6.699-7.048,11.166-7.341
			c13.154-0.861,28.501,17.179,28.654,17.361l0.406,0.482l4.383-7.972c12.58,6.917,19.06,20.894,22.286,31.455
			c3.543,11.598,4.039,21.703,4.043,21.804l0.175,3.845l0.683-3.788c3.927-21.793-4.304-37.218-11.9-46.321
			c-8.223-9.853-17.508-14.626-17.601-14.673l-0.427-0.216l-2.503,6.48c-11.34-9.935-21.416-14.568-29.956-13.77
			c-5.724,0.534-8.865,3.39-9.827,4.422c-0.962-1.031-4.103-3.888-9.827-4.422c-8.541-0.798-18.616,3.835-29.956,13.77l-2.503-6.48
			l-0.427,0.216c-0.093,0.047-9.379,4.819-17.601,14.673c-7.596,9.103-15.827,24.527-11.9,46.321l0.683,3.787l0.175-3.844
			c0.005-0.101,0.5-10.206,4.043-21.804c3.226-10.561,9.706-24.538,22.286-31.455l4.383,7.972l0.406-0.482
			c0.154-0.182,15.51-18.223,28.654-17.361c4.468,0.293,8.224,2.764,11.167,7.341v1.299L244.999,76.258z"/>
	</g>
	<g>
		<path fill="#6D6D6D" d="M268.417,450.075l-0.392,1.339l1.081-0.883c3.678-3.007,7.476-7.522,11.288-13.418
			c6.17-9.534,10.307-19.521,10.348-19.621l0.037-0.09l-1.169-24.708l-10.127,4.897l13.496-35.944l0.031-0.083l-0.004-0.088
			c-1.683-38.925,15.048-72.932,17.687-78.032c6.627,9.777,3.18,35.135,3.144,35.395l-0.138,0.985l0.814-0.572
			c14.468-10.154,19.095-22.796,20.429-31.613c1.25-8.264-0.085-14.814-0.482-16.481c5.929-1.569,13.568,7.561,13.646,7.656
			l0.517,0.624l0.231-0.777c3.63-12.202,0.477-22.065-2.807-28.191c-2.665-4.97-5.774-8.289-7.242-9.706
			c7.39,0.249,12.362,4.154,12.414,4.196l0.763,0.61l-0.061-0.974c-1.014-16.232-6.352-29.892-15.867-40.6
			c-7.825-8.807-16.767-13.683-22.891-16.223l-0.317-0.132l-0.2,0.279c-5.487,7.655-12.28,12.805-12.348,12.856l-0.169,0.127
			l-0.004,0.211c-0.338,19.143-15.884,34.522-18.603,37.065l-2.376-4.41l-0.405,0.554c-8.53,11.682-28.129,15.148-33.328,15.889
			h-0.83c-5.2-0.741-24.802-4.207-33.328-15.889l-0.405-0.554l-2.376,4.41c-2.719-2.544-18.269-17.923-18.603-37.066l-0.004-0.211
			l-0.169-0.127c-0.068-0.051-6.861-5.197-12.348-12.843l-0.2-0.279l-0.317,0.132c-6.121,2.54-15.059,7.418-22.881,16.231
			c-9.501,10.705-14.833,24.358-15.847,40.579l-0.061,0.974l0.763-0.61c0.052-0.041,5.023-3.947,12.414-4.196
			c-1.468,1.416-4.578,4.736-7.242,9.706c-3.284,6.126-6.437,15.989-2.807,28.191l0.231,0.777l0.517-0.625
			c0.078-0.094,7.712-9.224,13.645-7.656c-0.397,1.666-1.732,8.217-0.481,16.481c1.335,8.817,5.963,21.459,20.433,31.613
			l0.814,0.572l-0.138-0.985c-0.036-0.26-3.486-25.615,3.14-35.393c2.528,4.866,19.323,38.784,17.696,77.821l-0.015,0.297
			l13.527,36.026l-10.126-4.896l-1.164,24.612l-0.004,0.096l0.037,0.089c0.041,0.1,4.191,10.113,10.375,19.66
			c3.805,5.88,7.594,10.381,11.262,13.379l1.08,0.883l-0.391-1.339c-0.043-0.146-4.059-14.145-0.483-23.376
			c1.934,6.189,11.7,36.06,23.444,47.674l0.449,0.436l0.44-0.438c11.74-11.615,21.504-41.483,23.438-47.672
			C272.477,435.93,268.46,449.929,268.417,450.075z"/>
		<path fill="#6D6D6D" d="M280.776,227.397l4.725-4.277c5.618-5.143,12.675-29.035,12.675-29.035l0.761-0.679
			c16.173-14.439,16.401-38.082,16.373-40.759l-0.201-7.321l5.822,10.886l0.296-1.019c4.014-13.797-3.535-23.376-3.605-23.461
			l-0.395-0.498l0.021-0.631c0.775-27.452-8.823-46.698-28.525-57.203l-0.404-0.215l-3.288,7.116l-1.745-1.971
			c-0.068-0.085-7.866-8.797-21.199-12.851c-8.69-2.648-15.859,3.813-15.911,3.866l-1.177,1.073l-1.18-1.089
			c-0.298-0.264-7.397-6.442-15.903-3.851c-13.086,3.979-20.857,12.472-21.184,12.834l-1.758,1.973l-3.28-7.101l-0.404,0.215
			c-19.709,10.503-29.309,29.749-28.534,57.205l0.021,0.629l-0.394,0.497c-0.313,0.394-7.629,9.797-3.615,23.472l0.298,1.014
			l5.843-10.921l-0.215,7.38c-0.027,2.648-1.055,27.288,15.118,41.727c0,0,3.787,8.336,6.004,13.697
			c1.376,3.54,3.823,11.216,9.442,16.359c0,0,3.149,2.948,3.505,1.368c5.019,6.07,17.147,17.769,36.244,20.422
			C264.095,243.615,275.758,233.466,280.776,227.397z M205.027,141.987c-3.81-4.665-8.129-9.952-8.129-20.211
			c0-9.437,9.844-23.04,25.876-23.756h0.001c6.602-0.306,10.914,1.334,14.754,2.796c2.916,1.109,5.434,2.066,8.673,2.093
			c3.097,0.035,5.378-0.84,8.039-1.867c3.576-1.377,7.633-2.938,14.663-2.606c14.993,0.697,24.199,14.064,24.199,23.34
			c0,10.26-4.319,15.547-8.129,20.211c-4.843,5.933-9.026,11.058-5.866,25.436l0.017,0.078l0.044,0.067
			c1.464,2.217,2.584,4.558,3.328,6.948c0.107,0.375,0.271,0.926,0.438,1.486c0.18,0.604,0.362,1.22,0.481,1.637
			c0.097,0.621,0.211,1.263,0.327,1.909c0.17,0.955,0.346,1.942,0.461,2.839c0.035,0.479,0.09,1.274,0.147,2.102
			c0.072,1.041,0.147,2.134,0.19,2.678l-0.009,0.557c-0.057,3.53-0.115,7.18-0.824,10.602c-3.39,18.671-20.563,26.391-35.507,27.389
			c-1.157,0.085-2.145,0.117-3.198,0.112c-1.053,0.009-2.043-0.027-3.203-0.112c-14.934-0.997-32.104-8.716-35.506-27.399
			c-0.707-3.403-0.765-7.058-0.821-10.593l-0.01-0.52c0.032-0.475,0.091-1.303,0.152-2.162c0.073-1.018,0.148-2.08,0.183-2.63
			c0.126-0.989,0.315-2.052,0.498-3.08c0.102-0.573,0.202-1.139,0.291-1.687c0.117-0.39,0.286-0.97,0.456-1.55
			c0.173-0.591,0.346-1.183,0.461-1.567c0.746-2.399,1.866-4.74,3.33-6.958l0.044-0.067l0.017-0.078
			C214.053,153.044,209.87,147.92,205.027,141.987z M205.254,221.14l0.295-1.741c0.341-1.868,0.786-4.021,1.519-6.196
			c0.757,2.257,1.202,4.459,1.512,6.187c0.022,0.136,0.046,0.272,0.07,0.408c0.023,0.132,0.047,0.264,0.068,0.397l0.038,0.119
			c0.214,0.443,3.297,6.625,10.938,12.489C215.298,229.749,209.316,225.305,205.254,221.14z M264.63,236.603
			c-12.937,6.805-18.806,7.578-19.613,7.656c-0.764-0.071-6.613-0.818-19.589-7.64c-0.023-0.014-0.29-0.182-0.753-0.48
			c5.195,3.023,11.859,5.597,20.272,6.725l0.057,0.008l0.057-0.008c8.589-1.152,15.352-3.812,20.592-6.917
			C265.015,236.361,264.643,236.595,264.63,236.603z M281.242,220.314l0.038-0.121c0.022-0.143,0.047-0.281,0.071-0.418
			c0.023-0.128,0.046-0.256,0.065-0.378c0.311-1.734,0.757-3.937,1.513-6.194c0.734,2.176,1.178,4.328,1.518,6.19l0.011,0.063
			c0.048,0.286,0.095,0.565,0.135,0.844l0.128,0.889c-1.002,1.025-2.162,2.115-3.487,3.27c-3.676,3.198-7.945,6.307-11.235,8.58
			C277.864,227.104,281.025,220.763,281.242,220.314z"/>
		<path fill="#6D6D6D" d="M431.151,528.753l-1.454-2.251l0.672,2.594c0.254,0.98,0.475,1.977,0.656,2.963l0.007,0.046
			c3.142,17.484-9.195,21.528-13.055,22.352c-0.181,0.04-0.338,0.071-0.468,0.095l-1.662-12.102l-0.861,0.055
			c-0.02,2.515-0.437,4.724-1.274,6.752l-0.058,0.066v0.084c-3.152,7.475-11.013,9.554-14.256,10.102
			c-0.296,0.051-0.541,0.085-0.724,0.109l-2.816-13.041l-0.29,2.65c-0.187,1.705-0.522,3.261-0.995,4.624l-0.024,0.077
			c-3.187,9.105-11.831,7.759-15.407,6.755c-0.443-0.124-0.78-0.236-0.979-0.306l-2.847-11.112l-0.394,1.756
			c-0.175,0.778-0.381,1.524-0.611,2.215l-0.08,0.24l0.003,0.003c-1.355,4.014-3.555,6.459-6.541,7.268
			c-7.764,2.104-18.918-7.138-22.153-10.021c-0.709-0.628-1.113-1.024-1.117-1.028l-0.245-0.241l-3.089,1.967l-0.054,0.1
			c-0.646,1.207-1.382,2.309-2.187,3.275c-5.325,6.387-12.724,6.087-15.657,5.662c-0.299-0.044-0.536-0.087-0.702-0.12l-0.745-4.325
			l-0.602,0.877c-1.061,1.544-2.429,2.744-4.069,3.566c-4.479,2.267-9.933,1.273-12.072,0.74c-0.363-0.089-0.643-0.168-0.823-0.221
			l-1.058-4.613l-0.552,0.919c-0.994,1.652-2.303,2.877-3.893,3.64c-3.674,1.781-8.015,0.716-9.71,0.177
			c-0.268-0.086-0.481-0.162-0.629-0.217l-0.825-7.038l-0.647,0.809c-0.606,0.757-1.217,1.48-1.817,2.147
			c-3.533,3.901-6.461,5.519-8.702,4.809c-3.44-1.089-4.578-7.447-4.908-10.129c-0.118-0.971-0.153-1.613-0.153-1.619l-2.406-6.639
			l-0.103-0.077c-0.256-0.19-0.493-0.395-0.708-0.61c-3.778-3.714-6.121-13.555-6.749-16.483c-0.162-0.754-0.243-1.199-0.244-1.202
			l-0.196-1.068l-0.592,0.909c-8.354,12.824,5.719,25.739,7.422,27.228c-0.31,8.691,1.376,14.135,5.012,16.182
			c1.153,0.649,2.386,0.893,3.589,0.893c3.255,0,6.296-1.789,6.951-2.2l14.884,0.747l18.467-1.296
			c0.649,0.342,1.293,0.63,1.918,0.857c0.234,0.085,0.469,0.167,0.695,0.232c1.357,0.42,2.694,0.608,4.003,0.608
			c9.758-0.001,17.872-10.455,19.742-13.061c9.306,16.414,28.814,12.742,29.957,12.508l21.653,0.152l18.844-5.556l13.984-3.096
			l0.075-0.056C442.871,547.297,431.27,528.937,431.151,528.753z"/>
		<path fill="#6D6D6D" d="M230.089,523.785l-0.195,1.068c-0.002,0.013-0.237,1.291-0.695,3.154l-0.06,0.244l0.002,0.002
			c-1.127,4.571-3.481,12.34-6.946,14.895l-0.107,0.079l-2.379,6.514l-0.026,0.126c-0.001,0.023-0.124,2.27-0.708,4.793
			l-0.202,0.201l0.122,0.135l-0.046,0.195c-0.699,2.739-2.032,5.929-4.492,6.494c-2.527,0.581-5.858-1.636-9.909-6.601
			c-0.095-0.112-0.184-0.224-0.277-0.34l-0.716-0.894l-0.826,7.036c-0.278,0.104-0.793,0.283-1.472,0.461
			c-2.415,0.639-6.942,1.297-10.389-1.359l-0.002-0.226h-0.278c-0.798-0.667-1.499-1.499-2.085-2.476l-0.552-0.919l-1.063,4.613
			c-0.295,0.088-0.863,0.247-1.62,0.404l-0.049,0.009c-2.931,0.612-8.43,1.19-12.598-1.747l-0.177-0.134
			c-0.968-0.707-1.816-1.587-2.52-2.616l-0.602-0.88l-0.746,4.328c-0.309,0.062-0.868,0.159-1.605,0.228
			c-3.459,0.319-12.031,0.074-16.921-9.019l-0.087-0.14l-3.074-1.954l-0.245,0.238c-0.009,0.009-0.9,0.871-2.357,2.104
			c-4.063,3.436-14.277,11.171-21.357,8.815c-3.292-1.096-5.567-4.286-6.761-9.478l-0.419-1.88l-2.849,11.119
			c-0.316,0.112-0.983,0.33-1.871,0.534c-2.333,0.534-6.771,1.089-10.284-1.21c-2.533-1.657-4.202-4.532-4.961-8.544
			c-0.112-0.596-0.205-1.227-0.285-1.932l-0.295-2.623l-2.81,13.017c-0.36-0.046-0.962-0.137-1.722-0.305
			c-3.601-0.776-12.189-3.578-14.171-12.804c-0.268-1.247-0.411-2.594-0.423-4.005l-0.861-0.055l-1.662,12.102
			c-0.331-0.06-0.842-0.166-1.472-0.34c-4.936-1.357-15.943-6.461-11.542-24.503l0.511-2.094l-1.279,1.735
			c-0.445,0.604-0.855,1.243-1.208,1.886l-0.075,0.128v0.027c-0.539,1.136-1.02,2.324-1.432,3.532l-0.043,0.08v0.044
			c-2.31,6.894-3.027,16.592,6.57,23.791l0.075,0.056l13.951,3.088l18.811,5.545l0.061,0.018l21.653-0.152
			c1.143,0.232,20.647,3.903,29.954-12.503c1.871,2.657,9.835,13.075,19.653,13.074c1.28,0,2.592-0.177,3.926-0.572h0.054l0.1-0.049
			c0.87-0.264,1.753-0.632,2.628-1.094l18.441,1.294l0.026,0.002l14.884-0.747c0.656,0.411,3.696,2.201,6.952,2.2
			c1.203,0,2.437-0.245,3.59-0.893c3.637-2.047,5.324-7.491,5.015-16.182c1.702-1.488,15.773-14.403,7.418-27.228L230.089,523.785z"
			/>
		<path fill="#6D6D6D" d="M257.606,121.489c0.626,2.139,1.87,4.044,3.602,5.516c2.094,1.788,4.762,2.772,7.512,2.772
			c0.371,0,0.676-0.013,0.952-0.041c3.084-0.246,5.894-1.684,7.911-4.047c1.279-1.496,2.156-3.305,2.539-5.237
			c0.961-1.342,2.581-3.052,4.916-3.748l2.472-0.737l-2.577-0.11c-0.03-0.001-3.054-0.153-5.48-2.192
			c-0.716-1.701-1.791-3.164-3.193-4.349c-2.373-2.021-5.378-2.992-8.456-2.732c-3.093,0.247-5.906,1.683-7.921,4.044
			c-1.484,1.75-2.409,3.87-2.677,6.137c-0.603,0.768-1.652,1.732-3.309,2.163l-2.602,0.678l2.684,0.172
			C253.998,119.782,255.921,119.922,257.606,121.489z"/>
		<path fill="#6D6D6D" d="M220.272,129.736c0.284,0.028,0.59,0.041,0.964,0.041c2.747,0,5.414-0.985,7.508-2.772
			c1.732-1.472,2.976-3.378,3.602-5.516c1.686-1.567,3.612-1.708,3.63-1.709l2.733-0.16l-2.649-0.69
			c-1.343-0.35-2.457-1.078-3.313-2.164c-0.269-2.272-1.193-4.391-2.678-6.137c-2.014-2.36-4.827-3.796-7.918-4.043
			c-3.08-0.26-6.084,0.71-8.451,2.73c-1.407,1.185-2.483,2.648-3.2,4.351c-2.426,2.039-5.45,2.19-5.48,2.192l-2.578,0.11
			l2.473,0.737c2.336,0.696,3.955,2.406,4.916,3.748c0.388,1.934,1.266,3.743,2.543,5.236
			C214.386,128.053,217.195,129.49,220.272,129.736z"/>
	</g>
	<g>
		<path fill="#939393" d="M244.983,19.061c0,0,8.142-9.636,14.253-10.89l-5.113,14.407l6.515-6.743c0,0,15.533-2.949,23.578,4.688
			l-23.8,10.04l9.044-0.421c0,0,25.549,6.149,32.523,16.619l-24.089-6.158c0,0,36.554,25.602,38.548,60.171l3.206,13.96l2.311-9.141
			c0,0-5.935-39.332-22.967-52.019l4.487-0.665l9.972,2.327c0,0-13.295-24.264-34.402-25.926l3.933-3.822l10.554-1.662
			c0,0-6.676-12.298-29.112-13.628l0.499-7.313c0,0-16.577,3.324-19.922,9.639L244.983,19.061z"/>
		<path fill="#939393" d="M415.29,351.453c0,0,65.183-0.486,67.75,70.215l-3.072-2.42c0,0-4.125,31.794-16.079,46.261l0.576-9.768
			c0,0-15.369,34.536-45.351,58.796l3.702,3.79l34.556-40.038l16.477-19.567l10.4-32.259l4.583-6.434
			c0,0-3.966-38.693-21.418-51.385c-17.452-12.692-12.604-10.665-12.604-10.665s-27.147-11.723-37.636-10.929L415.29,351.453z"/>
		<path fill="#939393" d="M321.959,134.963c0,0,35.853,2.539,53.118,19.632l-11.222,3.623c0,0,16.505,4.244,22.963,13.814h-7.769
			c0,0,44.544,33.494,49.206,85.29l-3.72-3.942c0,0,5.196,45.849,0.785,65.924l-1.598-8.518c0,0-8.416,30.272-17.566,43.048
			c0,0,0.173,36.947-4.316,50.414l-4.373-12.275c0,0,0.749,28.219-9.785,45.079l-0.812-6.522c0,0-8.511,42.7-17.316,57.242
			l-0.669-4.369c0,0-15.215,22.364-25.574,29.961l1.862,7.224l24.208-30.1h5.007l14.839-44.113l13.303-36.947l5.697-3.28
			l1.381-47.479l15.021-35.911l5.698,0.691c0,0,2.244-51.277-1.381-62.5l4.834-2.244c0,0-3.453-31.768-15.539-49.378
			s-29.523-35.394-29.523-35.394l3.798-4.834l-16.402-12.095l3.453-5.343c0,0-20.946-20.891-57.607-20.718L321.959,134.963
			L321.959,134.963z"/>
		<path fill="#939393" d="M245.006,19.061c0,0-8.142-9.636-14.253-10.89l5.113,14.407l-6.515-6.743c0,0-15.533-2.949-23.579,4.688
			l23.8,10.04l-9.044-0.421c0,0-25.549,6.149-32.523,16.619l24.089-6.158c0,0-36.554,25.602-38.548,60.171l-3.206,13.96
			l-2.311-9.141c0,0,5.935-39.332,22.968-52.019l-4.487-0.665l-9.972,2.327c0,0,13.295-24.264,34.402-25.926l-3.933-3.822
			l-10.554-1.662c0,0,6.676-12.298,29.112-13.628l-0.499-7.313c0,0,16.577,3.324,19.922,9.639L245.006,19.061z"/>
		<path fill="#939393" d="M74.699,351.453c0,0-65.183-0.486-67.75,70.215l3.072-2.42c0,0,4.125,31.794,16.079,46.261l-0.576-9.768
			c0,0,15.369,34.536,45.351,58.796l-3.702,3.79l-34.556-40.038L16.14,458.722l-10.4-32.259l-4.583-6.434
			c0,0,3.966-38.693,21.418-51.385s12.604-10.665,12.604-10.665s27.147-11.723,37.636-10.929L74.699,351.453z"/>
		<path fill="#939393" d="M168.029,134.963c0,0-35.853,2.539-53.118,19.632l11.222,3.623c0,0-16.505,4.244-22.963,13.814h7.769
			c0,0-44.544,33.494-49.206,85.29l3.72-3.942c0,0-5.196,45.849-0.785,65.924l1.598-8.518c0,0,8.416,30.272,17.566,43.048
			c0,0-0.173,36.947,4.316,50.414l4.373-12.275c0,0-0.749,28.219,9.785,45.079l0.812-6.522c0,0,8.511,42.7,17.316,57.242
			l0.669-4.369c0,0,15.215,22.364,25.574,29.961l-1.862,7.224l-24.208-30.1H115.6l-14.839-44.113L87.46,409.428l-5.697-3.28
			l-1.381-47.479l-15.021-35.911l-5.697,0.691c0,0-2.244-51.277,1.381-62.5l-4.834-2.244c0,0,3.453-31.768,15.539-49.378
			s29.523-35.394,29.523-35.394l-3.798-4.834l16.402-12.095l-3.453-5.343c0,0,20.946-20.891,57.607-20.718v4.02H168.029z"/>
		<path fill="#939393" d="M418.071,554.879c1.06-4.364,0.692-8.837-0.554-12.929c-1.35-4.429-4.196-10.087-9.499-10.26
			c3.897,4.931,6.328,11.696,6.073,17.782c0,0.004,0,0.009-0.004,0.013v0.004c0,0.004,0,0.004,0,0.004
			c-3.248,7.825-11.57,9.927-14.615,10.441c0.398-1.739,0.523-3.525,0.389-5.208c-0.484-6.799-3.201-15.545-9.723-18.686
			c2.016,3.962,3.028,8.322,4.109,12.561c0.415,1.83,0.679,3.655,0.735,5.389c0,0,0,0.004,0,0.009
			c-3.331,9.65-12.613,8.037-15.956,7.098c1.073-4.442,0.182-9.689-2.089-14.044c-1.427-2.552-3.46-5.017-6.22-6.151
			c2.02,4.07,3.404,8.175,4.005,12.47c0,0,0.004,0.004,0,0.009c-5.658,17.427-24.624,1.985-29.469-2.331
			c0.852-3.382,1.22-6.83,1.345-10.199c0.19-5.26,0.277-10.545,0.035-15.874c-0.017-0.502-0.052-1.004-0.078-1.505
			c0.528-0.536,1.064-1.055,1.583-1.6c3.573-2.846,7.172-4.178,10.718-3.936c6.652,0.45,11.22,6.237,11.255,6.298l3.884,5.061
			v-6.376c0-8.27,7.414-12.327,10.796-13.746c5.087,8.746,12.007,9.896,12.319,9.94l1.436,0.216l8.504-14.109
			c3.642,7.422,9.265,12.007,14.308,16.125c4.291,3.504,8.002,6.531,10.1,10.675v0.009
			C434.694,550.031,421.717,554.101,418.071,554.879z"/>
		<path fill="#939393" d="M341.962,540.714c-0.017,4.866-0.787,9.992-2.781,14.365c-5.532,6.635-13.305,6.211-16.051,5.813
			c1.445-2.682,2.483-5.744,3.132-8.958c1.341-6.384,1.626-13.002-0.182-19.343c-2.803,8.616-2.872,17.898-7.171,25.684
			c-0.497,0.96-1.047,1.817-1.639,2.574c-4.572,2.314-10.078,1.345-12.371,0.774c0.926-1.618,1.696-3.344,2.297-5.069
			c3.149-8.919,4.87-18.478,3.374-27.933c-3.495,8.59-4.498,17.699-8.063,26.065c-0.986,2.383-2.189,4.723-3.642,6.631
			c-3.793,1.838-8.184,0.787-10.031,0.199c3.162-7.236,4.472-17.206,5.428-23.284c0.666-4.524,0.96-9.092-0.087-13.824
			c-2.336,4.248-3.391,8.651-4.239,13.089c-0.9,4.421-1.825,8.824-2.837,13.158c-0.536,2.102-1.068,4.308-1.73,6.441
			c-11.09,12.249-13.768-0.74-14.36-5.558c0.458-2.972,1.198-5.939,1.834-8.832c1.92-8.789,4.862-17.699,4.663-26.835
			c-4.191,8.599-7.781,17.604-9.741,26.977c-3.815-3.75-6.142-13.313-6.869-16.7c0.588-1.959,1.401-3.984,2.431-6.073
			c2.69-5.684,6.332-11.047,9.948-16.523c0.363-0.58,0.744-1.159,1.116-1.73c3.495-4.066,7.042-8.097,10.614-12.068
			c4.282-4.602,8.556-9.507,13.348-13.599c2.69,9.101,4.066,18.677,4.351,28.15c11.644-6.142,19.957-17.431,23.08-30.087
			c1.194,2.31,2.336,4.645,3.443,6.99c3.824,8.132,7.128,16.488,9.308,25.208l0.934,3.789
			C342.04,520.203,342.178,530.419,341.962,540.714z"/>
		<path fill="#939393" d="M229.619,528.11c0.004,0.004,0.004,0.004,0,0.009c-1.107,4.555-3.525,12.691-7.167,15.377l-0.052,0.147
			c-1.925-9.659-5.597-18.928-9.905-27.773c-0.199,9.135,2.742,18.045,4.663,26.835c0.874,3.971,1.938,8.093,2.215,12.163
			c0,0,0,0.004,0,0.009c0,0,0.004,0.004,0,0.009c-1.363,5.744-5.139,12.877-15.247,0.484c-0.004-0.004-0.004-0.004-0.004-0.004
			c-0.441-1.579-0.83-3.175-1.22-4.71c-1.012-4.334-1.938-8.737-2.837-13.158c-0.848-4.438-1.903-8.841-4.239-13.089
			c-1.047,4.732-0.753,9.3-0.087,13.824c0.956,6.146,2.297,16.281,5.532,23.534c-2.535,0.67-7.314,1.358-10.93-1.566
			c0-0.004,0-0.004-0.004-0.004c-1.099-1.67-2.042-3.577-2.842-5.511c-3.564-8.365-4.568-17.474-8.062-26.065
			c-0.96,5.9-0.614,11.782,0.536,17.578c1.12,5.152,2.5,10.865,5.242,15.619c-2.976,0.623-8.772,1.241-13.11-1.942
			c-0.004-0.004-0.009-0.009-0.009-0.013c-2.474-3.573-4.074-8.482-5.082-13.863c-0.908-4.377-1.644-8.832-3.088-13.409
			c-1.808,6.341-1.523,12.959-0.182,19.343c0.679,3.093,1.67,6.237,3.175,9.07c-3.819,0.35-12.379-0.017-17.336-9.235
			c-1.081-3.542-1.527-7.37-1.54-11.056c-0.216-10.294-0.078-20.511,2.491-30.511l0.934-3.789c2.18-8.72,5.485-17.077,9.308-25.208
			c1.099-2.344,2.249-4.68,3.443-6.99c2.664,10.779,9.049,20.641,18.167,27.068c0.813,0.588,3.979,2.439,4.914,3.019l0.234-4.36
			c0.407-8.011,1.86-16.073,4.118-23.79c4.792,4.092,9.066,9.005,13.348,13.599c3.547,3.945,7.068,7.941,10.537,11.981
			c0.398,0.606,0.796,1.211,1.194,1.817c3.616,5.476,7.258,10.839,9.948,16.523C228.049,522.867,229.039,525.545,229.619,528.11z"/>
		<path fill="#939393" d="M144.82,551.363c-0.112,0.259-0.229,0.515-0.35,0.77c-6.497,5.493-24.369,18.448-28.82-0.9
			c0.216-0.982,0.463-1.925,0.709-2.803c0.735-2.5,1.557-4.957,2.924-7.526c-1.367,0.545-2.587,1.488-3.607,2.552
			c-4.131,4.429-6.203,11.748-4.645,17.877c-4.248,0.973-13.543,1.665-15.766-10.095c0.121-0.869,0.29-1.752,0.489-2.634
			c1.081-4.239,2.093-8.599,4.109-12.561c-6.523,3.149-9.239,11.886-9.723,18.686c-0.13,1.618-0.017,3.331,0.346,5.009
			c-4.031-0.869-12.496-3.798-14.503-13.136c0.463-5.268,2.712-10.744,5.999-14.91c-5.294,0.173-8.149,5.831-9.499,10.26
			c-1.224,4.014-1.596,8.396-0.61,12.678c-4.784-1.315-16.372-6.475-11.847-25.022c2.154-2.989,5.203-5.476,8.616-8.262
			c5.043-4.118,10.666-8.703,14.308-16.125l8.504,14.109l1.436-0.216c0.303-0.043,7.223-1.194,12.319-9.94
			c3.382,1.419,10.796,5.476,10.796,13.746v6.376l3.884-5.061c0.043-0.061,4.533-5.822,11.22-6.298
			c3.564-0.26,7.171,1.073,10.744,3.927c0.528,0.545,1.064,1.073,1.592,1.609c-0.026,0.502-0.061,1.003-0.078,1.505
			c-0.242,5.329-0.156,10.614,0.035,15.874C143.531,544.33,143.912,547.885,144.82,551.363z"/>
		<path fill="#939393" d="M289.21,121.775c0-7.543-7.976-18.867-20.485-19.456c-6.237-0.285-9.732,1.064-13.115,2.37
			c-2.742,1.055-5.571,2.145-9.447,2.111c-3.945-0.035-7.05-1.22-10.044-2.353c-3.616-1.375-7.353-2.794-13.175-2.543
			c-13.521,0.614-22.155,12.172-22.155,19.871c0,8.867,3.521,13.175,7.249,17.751c4.256,5.208,8.625,10.563,7.716,21.912
			c3.149-2.552,6.903-4.239,11.047-4.438c-6.886,4.256-12.076,10.061-14.853,17.5c-0.493,1.22-0.874,2.863-1.298,4.118
			c-0.251,1.401-0.606,2.898-0.831,4.299l-0.268,2.933c-1.67,20.658,9.386,32.899,29.586,35.684
			c1.877,0.251,3.945,0.407,5.796,0.398h0.13c1.851,0.009,3.919-0.147,5.796-0.398c20.217-2.794,31.255-15.035,29.586-35.693
			l-0.268-2.924c-0.216-1.401-0.571-2.898-0.831-4.299c-0.424-1.254-0.804-2.898-1.298-4.118c-2.777-7.448-7.967-13.236-14.853-17.5
			c4.144,0.199,7.898,1.886,11.047,4.438c-0.908-11.35,3.46-16.705,7.716-21.912C285.689,134.95,289.21,130.642,289.21,121.775z
			 M245.004,151.015c0,0,5.727-10.935,12.405,0c6.67,10.943-12.405,16.834-12.405,16.834s-19.084-5.891-12.414-16.834
			C239.269,140.08,245.004,151.015,245.004,151.015z M221.236,129.345c-0.307,0-0.614-0.009-0.921-0.039
			c-2.976-0.238-5.675-1.622-7.613-3.897c-1.276-1.492-2.106-3.261-2.465-5.13c-1.055-1.497-2.747-3.257-5.199-3.988
			c0,0,3.231-0.13,5.822-2.362c0.675-1.644,1.721-3.106,3.119-4.282c2.271-1.938,5.16-2.881,8.136-2.63
			c2.976,0.238,5.688,1.622,7.626,3.893c1.475,1.734,2.353,3.819,2.591,6.025c0.714,0.939,1.86,1.955,3.62,2.414
			c0,0-2.137,0.125-3.988,1.908c-0.593,2.106-1.799,3.975-3.499,5.42C226.427,128.415,223.883,129.345,221.236,129.345z
			 M263.456,183.819c1.86-0.666,3.642-1.289,5.372-3.002c0.19,5.32-5.796,8.019-10.147,9.23c-4.507,1.22-9.023,1.635-13.677,1.125
			c-6.99,0.917-23.841-1.055-23.833-10.355c1.73,1.713,3.512,2.336,5.372,3.002c3.824,1.358,8.011,1.886,12.094,2.353
			c2.093,0.234,4.256,0.424,6.315,0.675h0.095C251.155,186.102,257.634,185.851,263.456,183.819z M279.715,120.279
			c-0.355,1.869-1.185,3.638-2.461,5.13c-1.942,2.275-4.641,3.659-7.617,3.897c-0.307,0.03-0.614,0.039-0.917,0.039
			c-2.652,0-5.195-0.93-7.232-2.669c-1.7-1.445-2.907-3.313-3.499-5.42c-1.851-1.782-3.984-1.908-3.984-1.908
			c1.76-0.458,2.907-1.475,3.616-2.414c0.238-2.206,1.12-4.291,2.591-6.025c1.938-2.271,4.65-3.655,7.626-3.893
			c2.976-0.251,5.865,0.692,8.14,2.63c1.393,1.177,2.44,2.638,3.114,4.282c2.591,2.232,5.822,2.362,5.822,2.362
			C282.462,117.022,280.771,118.782,279.715,120.279z"/>
	</g>
	<g>
		<path fill="#FFFFFF" d="M274.304,122.815c-1.246,1.471-2.984,2.353-4.896,2.509c-1.912,0.164-3.78-0.441-5.242-1.687
			c-0.441-0.381-0.831-0.813-1.168-1.28c2.37,1.964,5.883,1.67,7.89-0.683c0.164-0.199,0.311-0.398,0.441-0.606
			c-0.952,0.13-1.946-0.138-2.725-0.804c-1.479-1.254-1.652-3.478-0.398-4.948c0.631-0.753,1.523-1.168,2.431-1.237
			c-0.13-0.13-0.26-0.242-0.389-0.363c-1.921-1.626-4.602-1.756-6.627-0.502c1.22-1.289,2.846-2.076,4.628-2.215
			c0.199-0.017,0.389-0.026,0.588-0.026c1.704,0,3.331,0.597,4.646,1.713c1.462,1.246,2.353,2.984,2.509,4.896
			C276.147,119.493,275.541,121.353,274.304,122.815z"/>
		<path fill="#FFFFFF" d="M227.002,122.356c-0.337,0.467-0.718,0.9-1.168,1.28c-1.462,1.246-3.313,1.843-5.242,1.687
			c-1.912-0.156-3.651-1.038-4.896-2.509c-1.237-1.462-1.843-3.322-1.687-5.234s1.047-3.651,2.509-4.896
			c1.315-1.116,2.941-1.713,4.645-1.713c0.199,0,0.389,0.009,0.588,0.026c1.782,0.138,3.408,0.926,4.628,2.215
			c-2.024-1.254-4.706-1.125-6.626,0.502c-0.13,0.121-0.26,0.234-0.389,0.363c0.908,0.069,1.799,0.484,2.431,1.237
			c1.254,1.471,1.081,3.694-0.398,4.948c-0.787,0.666-1.773,0.934-2.725,0.804c0.13,0.208,0.277,0.407,0.441,0.606
			C221.12,124.026,224.632,124.32,227.002,122.356z"/>
		<path fill="#FFFFFF" d="M263.197,157.002c0,0,7.12,4.989,11.642,14.846c5.414,11.803,7.303,29.849-8.499,44.723
			c0,0,17.311-3.06,16.641-29.784S263.197,157.002,263.197,157.002z"/>
		<path fill="#FFFFFF" d="M226.822,157.002c0,0-7.12,4.989-11.642,14.846c-5.414,11.803-7.303,29.849,8.499,44.723
			c0,0-17.311-3.06-16.641-29.784S226.822,157.002,226.822,157.002z"/>
		<path fill="#FFFFFF" d="M260.334,103.093c0,0,14.453-0.796,21.35,6.97c6.898,7.766,7.046,17.881,0.276,29.465
			c0,0,9.182-2.041,9.182-16.964s-15.404-20.687-15.404-20.687S267.158,99.409,260.334,103.093z"/>
		<path fill="#FFFFFF" d="M229.937,102.474c0,0-14.888-0.065-21.786,7.701s-7.046,17.881-0.276,29.465c0,0-9.182-2.041-9.182-16.964
			s15.404-20.687,15.404-20.687S223.113,98.791,229.937,102.474z"/>
	</g>
	<path fill="#231F20" d="M262.487,125.609c1.782,1.523,4.005,2.336,6.324,2.336c0.268,0,0.536-0.009,0.805-0.035
		c2.604-0.208,4.966-1.419,6.661-3.408c1.116-1.306,1.842-2.855,2.154-4.49c0.926-1.306,2.405-2.846,4.55-3.486
		c0,0-2.829-0.112-5.095-2.067c-0.588-1.436-1.505-2.716-2.725-3.746c-1.99-1.696-4.516-2.517-7.12-2.301
		c-2.604,0.208-4.974,1.419-6.67,3.408c-1.289,1.514-2.059,3.339-2.267,5.268c-0.623,0.822-1.626,1.713-3.166,2.111
		c0,0,1.868,0.112,3.486,1.67C259.944,122.711,261,124.346,262.487,125.609z M268.603,120.263c-1.479-1.254-1.652-3.478-0.398-4.948
		c0.631-0.753,1.523-1.168,2.431-1.237c-0.13-0.13-0.26-0.242-0.389-0.363c-1.921-1.626-4.602-1.756-6.627-0.502
		c1.22-1.289,2.846-2.076,4.628-2.215c0.199-0.017,0.389-0.026,0.588-0.026c1.704,0,3.331,0.597,4.646,1.713
		c1.462,1.246,2.353,2.984,2.509,4.896s-0.45,3.772-1.687,5.234c-1.246,1.471-2.984,2.353-4.896,2.509
		c-1.912,0.164-3.78-0.441-5.242-1.687c-0.441-0.381-0.831-0.813-1.168-1.28c2.37,1.964,5.883,1.67,7.89-0.683
		c0.164-0.199,0.311-0.398,0.441-0.606C270.377,121.197,269.382,120.929,268.603,120.263z M55.977,495.921
		c2.794,3.806,5.658,7.526,7.985,11.86c-4.1-2.682-7.561-6.073-10.597-9.793c-6.246-7.319-11.713-15.312-16.09-23.885
		c-2.206-4.334-4.429-8.685-4.646-13.703c3.383,3.607,5.467,7.751,7.924,11.895c2.396,4.057,4.87,8.045,7.448,11.981
		C50.579,488.205,53.165,492.15,55.977,495.921z M232.591,151.016c6.678-10.935,12.414,0,12.414,0s5.727-10.935,12.405,0
		c6.67,10.943-12.405,16.834-12.405,16.834S225.921,161.959,232.591,151.016z M211.569,120.003c0.311,1.644,1.038,3.192,2.154,4.498
		c1.696,1.99,4.057,3.201,6.661,3.408c0.268,0.026,0.536,0.035,0.805,0.035c2.318,0,4.542-0.813,6.324-2.336
		c1.488-1.263,2.543-2.907,3.062-4.741c1.618-1.557,3.486-1.67,3.486-1.67c-1.54-0.398-2.543-1.289-3.166-2.111
		c-0.208-1.929-0.978-3.754-2.266-5.268c-1.696-1.99-4.066-3.201-6.67-3.408c-2.604-0.216-5.138,0.606-7.12,2.301
		c-1.22,1.029-2.137,2.31-2.725,3.746c-2.266,1.955-5.095,2.067-5.095,2.067C209.164,117.166,210.643,118.706,211.569,120.003z
		 M214.009,117.581c0.156-1.912,1.047-3.651,2.509-4.896c1.315-1.116,2.941-1.713,4.645-1.713c0.199,0,0.389,0.009,0.588,0.026
		c1.782,0.138,3.408,0.926,4.628,2.215c-2.024-1.254-4.706-1.125-6.626,0.502c-0.13,0.121-0.26,0.234-0.389,0.363
		c0.908,0.069,1.799,0.484,2.431,1.237c1.254,1.471,1.081,3.694-0.398,4.948c-0.787,0.666-1.773,0.934-2.725,0.804
		c0.13,0.208,0.277,0.407,0.441,0.606c2.007,2.353,5.519,2.647,7.889,0.683c-0.337,0.467-0.718,0.9-1.168,1.28
		c-1.462,1.246-3.313,1.843-5.242,1.687c-1.912-0.156-3.651-1.038-4.896-2.509C214.458,121.353,213.853,119.493,214.009,117.581z
		 M245.048,186.847c6.107-0.744,12.587-0.995,18.409-3.028c1.86-0.666,3.642-1.289,5.372-3.002c0.19,5.32-5.796,8.019-10.147,9.23
		c-4.507,1.22-9.023,1.635-13.677,1.125c-6.99,0.917-23.841-1.055-23.833-10.355c1.73,1.713,3.512,2.336,5.372,3.002
		c3.824,1.358,8.011,1.886,12.094,2.353c2.093,0.234,4.256,0.424,6.315,0.675H245.048z M210.471,167.331
		c-1.462,2.215-2.621,4.62-3.382,7.068c-0.234,0.779-0.692,2.37-0.926,3.149c-0.251,1.549-0.597,3.253-0.796,4.81
		c-0.069,1.064-0.268,3.78-0.338,4.818c0.061,3.677,0.087,7.604,0.839,11.229c3.218,17.674,19.058,26.618,35.901,27.743
		c1.064,0.078,2.076,0.121,3.235,0.113c1.151,0.009,2.163-0.035,3.227-0.113c16.834-1.125,32.691-10.069,35.901-27.743
		c0.753-3.633,0.779-7.543,0.839-11.229c-0.078-1.047-0.259-3.737-0.337-4.818c-0.199-1.557-0.554-3.253-0.796-4.81
		c-0.225-0.796-0.701-2.362-0.926-3.149c-0.761-2.448-1.92-4.853-3.382-7.068c-3.114-14.17,1.012-19.231,5.779-25.07
		c3.858-4.723,8.227-10.078,8.227-20.485c0-9.447-9.36-23.063-24.611-23.772c-7.146-0.337-11.255,1.254-14.871,2.647
		c-2.578,0.995-4.818,1.86-7.846,1.825c-3.175-0.026-5.666-0.978-8.556-2.076c-3.841-1.462-8.201-3.123-14.897-2.811
		c-16.289,0.727-26.29,14.576-26.29,24.187c0,10.407,4.369,15.762,8.227,20.485C209.458,148.101,213.585,153.162,210.471,167.331z
		 M222.945,101.906c5.822-0.251,9.559,1.168,13.175,2.543c2.993,1.133,6.099,2.318,10.044,2.353
		c3.876,0.035,6.704-1.055,9.447-2.111c3.383-1.306,6.877-2.656,13.115-2.37c12.509,0.588,20.485,11.912,20.485,19.456
		c0,8.867-3.521,13.175-7.249,17.751c-4.256,5.208-8.625,10.563-7.717,21.912c-3.149-2.552-6.903-4.239-11.047-4.438
		c6.886,4.265,12.077,10.052,14.853,17.5c0.493,1.22,0.874,2.863,1.298,4.118c0.259,1.401,0.614,2.898,0.831,4.299l0.268,2.924
		c1.67,20.658-9.369,32.899-29.586,35.693c-1.877,0.251-3.945,0.407-5.796,0.398h-0.13c-1.851,0.009-3.919-0.147-5.796-0.398
		c-20.199-2.786-31.255-15.026-29.586-35.684l0.268-2.933c0.225-1.401,0.58-2.898,0.83-4.299c0.424-1.254,0.805-2.898,1.298-4.118
		c2.777-7.44,7.967-13.244,14.853-17.5c-4.144,0.199-7.898,1.886-11.047,4.438c0.908-11.35-3.46-16.705-7.717-21.912
		c-3.728-4.576-7.249-8.884-7.249-17.751C200.79,114.077,209.424,102.52,222.945,101.906z M198.014,433.307
		c-0.389-1.929-0.908-3.78-1.133-5.77c0.64,0.77,1.211,1.583,1.773,2.405c6.886,10.433,10.355,31.169,5.649,42.916
		c-1.323-7.613-1.453-15.251-2.82-22.821C200.704,444.415,199.302,438.844,198.014,433.307z M310.127,485.091
		c-0.043,1.825-0.355,3.659-1.22,5.398c-0.398-0.9-0.631-1.782-0.822-2.647c-0.614-2.526-0.865-5.104-1.497-7.587
		c-0.701-3.495-1.86-6.393-2.777-9.948C308.743,472.755,310.162,480.073,310.127,485.091z M346.919,509.365
		c-1.782-7.734-2.95-15.061-6.047-22.293c-2.742-7.336-6.773-13.703-10.13-20.892c10.822,7.267,18.452,25.874,17.12,38.721
		C347.619,506.346,347.343,507.972,346.919,509.365z M348.485,143.819c-7.241-2.466-14.689-3.962-21.843-6.782
		c11.627-2.111,29.196,3.858,38.998,10.191c1.635,1.064,3.166,2.327,4.602,3.685c-1.972-0.381-3.789-1.021-5.623-1.6
		C359.22,147.504,353.926,145.462,348.485,143.819z M449.447,472.296c2.457-4.144,4.542-8.287,7.924-11.895
		c-0.216,5.017-2.439,9.369-4.645,13.703c-3.287,6.427-7.172,12.544-11.549,18.279c-4.481,5.675-8.936,11.41-15.139,15.398
		c2.327-4.334,5.19-8.054,7.985-11.86c2.811-3.772,5.398-7.717,7.976-11.644C444.577,480.341,447.051,476.353,449.447,472.296z
		 M446.523,351.584c-8.884-3.702-18.236-6.004-27.821-6.626c2.76-6.687,5.078-13.184,6.678-19.637l4.36,9.896l1.471-6.324
		c5.623-24.196,1.644-53.963-0.363-65.849l5.753,3.997l-0.303-4.49c-2.171-31.826-15.563-55.174-26.411-69.154
		c-6.67-8.599-13.14-14.75-17.57-18.521c2.517,0.45,5.199,0.952,7.336,1.358c-2.535-3.685-5.407-8.287-8.59-11.436
		c-3.287-3.365-7.197-6.289-11.497-8.296c1.695-0.45,3.365-0.986,5-1.661l-2.215-2.292c-3.702-4.412-8.184-8.106-13.028-11.099
		c-14.317-8.651-31.074-12.241-47.657-12.76c6.246-27.639-1.626-48.366-9.481-61.014c-3.383-5.441-6.999-9.853-10.191-13.236
		l16.627,6.67l-2.206-4.896c-8.642-19.153-23.132-26.073-33.53-28.521c6.722-1.228,11.185-1.202,11.263-1.194l4.04,0.052L296,23.158
		c-8.685-13.461-22.639-14.62-29.871-14.179c1.107-1.713,2.119-3.495,2.924-5.398L270.559,0l-3.408,0.398
		c-8.305-0.017-16.341,3.711-22.146,9.585c-2.612-2.647-5.649-4.793-8.988-6.471c-4.066-2.016-8.616-3.114-13.166-3.114L219.441,0
		l1.505,3.581c0.831,1.886,1.834,3.668,2.933,5.398c-7.232-0.441-21.186,0.709-29.88,14.179l-2.18,3.382l4.023-0.043
		c0.061-0.009,4.542-0.035,11.272,1.194c-10.398,2.448-24.888,9.369-33.53,28.521l-2.206,4.896l16.635-6.67
		c-3.201,3.382-6.817,7.794-10.199,13.236c-7.855,12.647-15.718,33.375-9.481,60.996c-2.604,0.043-5.095,0.216-7.639,0.45
		c-13.954,1.419-27.933,4.931-40.018,12.327c-4.844,2.993-9.326,6.687-13.028,11.099l-2.215,2.292l3.339,1.194
		c0.562,0.182,1.133,0.329,1.704,0.484c-1.773,0.822-3.478,1.782-5.104,2.863c-4.654,3.123-8.556,7.293-11.661,11.903l-3.365,4.948
		c2.362-0.441,4.836-0.908,7.336-1.358c-4.438,3.772-10.9,9.922-17.57,18.521c-10.848,13.98-24.239,37.328-26.411,69.154
		l-0.303,4.49l5.762-3.997c-2.016,11.886-5.995,41.653-0.372,65.849l1.471,6.324l4.36-9.896c1.6,6.453,3.919,12.95,6.678,19.637
		c-9.585,0.623-18.937,2.924-27.821,6.626c-32.7,13.495-45.114,45.529-43.306,79.042l0.259,6.298l3.78-5.329
		c0.398-0.571,0.77-1.159,1.142-1.739c1.834,11.843,7.829,37.553,26.281,50.079c1.903,3.573,4.023,7.033,6.298,10.372
		c1.713,2.552,4.369,5.995,6.341,8.4c0.934,1.237,2.344,2.837,3.417,3.997c3.287,3.78,7.422,7.751,11.047,11.194
		c1.99,1.704,3.988,3.382,5.995,5.052c-6.263,5.156-12.353,10.744-12.336,21.255c0.017,7.864,2.379,13.945,7.033,18.089
		c5.658,5.035,13.141,5.744,16.947,5.744c0.381,0,0.727,0,1.029-0.017c3.53,3.045,8.27,4.767,12.942,4.957
		c2.163,0.182,4.299,0.043,6.436-0.164c6.28,3.486,14.006,2.301,20.468,0.329c3.945,1.938,8.919,2.024,13.054,1.09
		c7.171-1.523,13.253-6.488,16.722-12.846c4.654,9.957,15.718,13.599,25.693,10.493c5.32,3.798,12.578,3.426,18.357,0.614
		c0.199,0.139,0.389,0.294,0.588,0.424c4.273,2.811,9.879,2.102,13.945-0.727c0.061,0.06,0.121,0.112,0.182,0.173
		c2.189,1.817,5.294,2.171,7.915,2.05c1.341-0.026,2.786-0.26,4.161-0.874c5.303-2.344,6.09-9.057,5.934-14.023
		c-0.026-0.683-0.061-1.367-0.104-2.041c3.971-2.742,6.912-5.848,8.876-9.265h24.854c1.964,3.417,4.914,6.523,8.876,9.265
		c-0.043,0.675-0.078,1.358-0.104,2.041c-0.156,4.966,0.632,11.679,5.935,14.023c1.375,0.614,2.82,0.848,4.161,0.874
		c2.621,0.121,5.727-0.234,7.915-2.05c0.069-0.061,0.13-0.121,0.199-0.182c0.51,0.355,1.038,0.675,1.644,0.986
		c4.983,2.561,9.36,1.791,12.907-0.701c1.427,0.692,2.907,1.246,4.498,1.644c5.606,1.358,10.191,0.311,13.781-2.249
		c9.992,3.149,21.099-0.519,25.753-10.502c0.528,0.986,1.09,1.955,1.747,2.872c5.32,7.552,15.026,12.016,24.265,10.165
		c1.427-0.259,2.69-0.683,3.806-1.237c6.453,1.964,14.144,3.132,20.407-0.346c2.137,0.208,4.273,0.346,6.436,0.164
		c4.672-0.19,9.412-1.912,12.942-4.957c0.303,0.017,0.649,0.017,1.029,0.017c3.806,0,11.289-0.718,16.947-5.744
		c4.654-4.144,7.016-10.225,7.033-18.089c0.017-10.511-6.073-16.099-12.336-21.255c1.998-1.67,4.005-3.348,5.995-5.052
		c3.616-3.434,7.76-7.414,11.047-11.194c1.064-1.142,2.491-2.76,3.417-3.997c1.964-2.388,4.637-5.857,6.341-8.4
		c2.275-3.339,4.395-6.8,6.298-10.372c18.452-12.518,24.447-38.219,26.272-50.071c1.6,2.431,3.495,5.035,4.931,7.059l0.259-6.298
		C491.637,397.121,479.232,365.088,446.523,351.584z M181.395,70.106c8.279-13.391,18.357-20.407,18.452-20.476l16.289-11.134
		l-36.03,14.455c13.902-24.084,37.951-22.31,39.032-22.215l18.599,1.678l-17.725-5.883c-8.478-2.811-15.727-3.815-20.035-4.17
		c9.983-11.635,24.88-9.144,27.284-8.642c1.289,1.644,2.638,3.235,4.014,4.801c1.393,1.471,2.846,2.985,4.602,4.057
		c-2.266-3.313-3.806-6.981-5.571-10.563c-1.116-2.318-2.197-4.68-3.426-6.955c6.332,1.064,12.241,4.576,16.41,9.438l1.713,1.886
		l1.704-1.886c0.225-0.286,0.588-0.692,0.908-1.029c4.126-4.317,9.62-7.431,15.511-8.417c-3.158,5.753-5.364,12.033-9.005,17.526
		c3.434-2.249,5.986-5.588,8.521-8.737c0.035-0.043,0.061-0.087,0.095-0.121c2.388-0.493,17.293-3.002,27.284,8.642
		c-4.308,0.355-11.557,1.358-20.035,4.17l-17.44,5.796l18.314-1.592c1.073-0.087,25.13-1.869,39.032,22.215l-35.857-14.386
		l16.116,11.064c0.095,0.069,10.173,7.085,18.452,20.476c7.691,12.457,11.367,26.03,11.021,40.537
		c-4.637-23.703-18.789-35.71-31.186-41.748l-1.981-0.969l-2.561,5.545c-3.417-3.106-10.537-8.633-20.684-11.722
		c-8.339-2.535-15.294,1.436-18.21,3.555c-2.924-2.119-9.87-6.09-18.218-3.555c-10.147,3.088-17.267,8.616-20.684,11.722
		l-2.552-5.545l-1.99,0.969c-12.396,6.038-26.549,18.045-31.186,41.748C170.028,96.136,173.705,82.563,181.395,70.106z
		 M172.719,132.002l0.493-0.623l-0.026-0.787c-0.77-27.284,8.746-46.385,28.305-56.809l3.365,7.284l2.197-2.465
		c0.078-0.086,7.872-8.72,20.987-12.708c8.434-2.569,15.424,3.703,15.493,3.763l1.462,1.349l1.471-1.341
		c0.069-0.069,7.059-6.341,15.494-3.772c13.114,3.988,20.917,12.622,20.987,12.708l2.197,2.483l3.374-7.301
		c19.551,10.424,29.067,29.525,28.297,56.809l-0.026,0.787l0.493,0.623c0.087,0.104,7.448,9.602,3.53,23.072l-6.185-11.566
		l0.251,9.152c0,0.268,0.476,25.511-16.229,40.425c0.147-3.711-0.19-7.414-1.401-11.056c-2.535,7.751-3.071,15.45-5.485,23.072
		c-1.618,5.303-3.772,10.476-6.739,15.139c-0.043-0.303-0.095-0.606-0.147-0.917c-0.458-2.509-1.012-4.974-1.946-7.396
		c-0.926,2.422-1.488,4.888-1.938,7.396c-0.043,0.268-0.095,0.528-0.138,0.804c-0.372,0.77-9.334,18.755-35.849,22.31
		c-26.523-3.555-35.485-21.54-35.857-22.31c-0.043-0.268-0.095-0.536-0.138-0.804c-0.45-2.509-1.012-4.974-1.938-7.396
		c-0.934,2.422-1.488,4.888-1.946,7.396c-0.052,0.311-0.104,0.623-0.156,0.926c-1.938-3.045-3.529-6.306-4.844-9.689
		c-3.824-9.248-4.369-18.928-7.37-28.53c-1.211,3.642-1.549,7.344-1.401,11.056c-16.705-14.914-16.229-40.157-16.229-40.425
		l0.268-9.187l-6.211,11.609C165.262,141.734,172.381,132.426,172.719,132.002z M62.032,510.368
		c-11.981-11.765-23.132-24.957-30.243-40.287c-2.967-6.194-4.204-12.786-7.223-19.014c-1.981,5.225-0.234,10.727,1.384,15.77
		c0.407,1.229,0.848,2.448,1.315,3.651c-14.853-15.961-17.916-42.614-18.296-46.61c2.284-3.901,4.559-7.812,7.491-11.315
		c-4.862,2.44-8.789,6.488-12.12,10.744c0.277-29.058,12.18-55.953,40.831-67.744c8.781-3.677,18.391-5.952,27.916-6.376
		c1.869,4.299,3.884,8.685,5.995,13.201c-1.566,6.393-1.808,13.357-2.024,19.43c-0.112,9.732,1.099,19.49,3.123,28.989
		c0.58,2.552,1.998,8.694,2.595,11.315c0.978-1.825,2.526-4.723,4.118-7.699c0.112,0.865,0.242,1.721,0.389,2.578
		c2.31,12.647,7.535,24.447,14.55,35.174c1.479,14.802,5.45,29.516,13.435,42.19l1.938,3.062l2.119-2.967l1.116-1.557
		c2.907,5.389,6.22,10.554,9.879,15.459c1.375,1.851,2.82,3.659,4.299,5.433c-1.272-0.199-2.543-0.259-3.815-0.173
		c-4.767,0.337-8.582,2.656-11.082,4.706c-2.786-10.182-14.36-13.737-14.914-13.902l-1.747-0.519l-0.805,1.626
		c-2.941,5.9-6.73,8.114-8.703,8.902l-11.514-19.092l-1.497,4.395c-2.578,7.578-7.379,12.215-12.336,16.367
		C66.159,514.174,64.1,512.263,62.032,510.368z M135.892,562.29c-4.922,3.123-11.687,4.645-17.068,2.059
		c-5.415-3.08-3.927-10.727-2.466-15.917c0.735-2.5,1.557-4.957,2.924-7.526c-1.367,0.545-2.587,1.488-3.608,2.552
		c-5.017,5.381-6.998,15.035-3.123,21.627c0.069,0.095,0.138,0.182,0.208,0.277c-2.699,0.389-5.372,0.562-7.907,0.372
		c-9.741-0.614-10.995-8.78-9.101-17.129c1.081-4.239,2.094-8.599,4.109-12.561c-6.523,3.149-9.239,11.886-9.723,18.686
		c-0.251,3.175,0.415,6.722,2.094,9.611c-1.505-0.112-3.002-0.303-4.49-0.64c-15.641-3.512-13.876-21.731-5.761-32.008
		c-5.294,0.173-8.149,5.831-9.499,10.26c-1.419,4.654-1.696,9.801-0.035,14.715c0.329,1.029,0.761,1.998,1.28,2.907
		c-3.365-0.329-7.933-1.401-11.445-4.533c-3.677-3.287-5.554-8.279-5.562-14.845c-0.017-9.109,5.251-13.409,11.921-18.85
		c5.043-4.118,10.666-8.703,14.308-16.125l8.504,14.109l1.436-0.216c0.303-0.043,7.223-1.194,12.319-9.94
		c3.382,1.419,10.796,5.476,10.796,13.746v6.376l3.884-5.061c0.043-0.061,4.533-5.822,11.22-6.298
		c3.564-0.26,7.172,1.073,10.744,3.927c0.528,0.545,1.064,1.073,1.592,1.609c-0.026,0.502-0.061,1.004-0.078,1.505
		c-0.242,5.329-0.156,10.615,0.035,15.874c0.13,3.478,0.51,7.033,1.419,10.511C142.856,555.854,139.872,559.755,135.892,562.29z
		 M223.135,547.964c-1.583-11.22-5.692-21.938-10.64-32.094c-0.199,9.135,2.742,18.045,4.663,26.835
		c1.376,6.246,3.218,12.855,1.739,19.058c-0.623,2.612-2.526,4.377-5.268,4.273c-2.941,0.138-5.208-0.562-6.635-3.244
		c-2.024-3.582-3.062-8.054-4.092-12.137c-1.012-4.334-1.938-8.737-2.837-13.158c-0.848-4.438-1.903-8.841-4.239-13.089
		c-1.047,4.732-0.753,9.3-0.087,13.824c1.09,6.999,2.673,19.161,6.99,26.359c-7.492,3.832-12.319-2.846-15.234-9.905
		c-3.564-8.365-4.568-17.474-8.062-26.065c-0.96,5.9-0.614,11.782,0.536,17.578c1.376,6.332,3.149,13.513,7.353,18.72
		c-12.405,3.633-17.959-6.376-20.312-18.919c-0.908-4.377-1.644-8.832-3.088-13.409c-1.808,6.341-1.523,12.959-0.182,19.343
		c1.202,5.467,3.365,11.082,7.656,14.879c0.061,0.052,0.121,0.095,0.182,0.147c-3.919-0.078-7.708-0.701-11.047-2.163
		c-9.507-3.901-12.457-14.49-12.492-24.084c-0.216-10.295-0.078-20.511,2.491-30.511l0.934-3.789
		c2.18-8.72,5.485-17.077,9.308-25.208c1.099-2.344,2.249-4.68,3.443-6.99c2.664,10.779,9.049,20.641,18.167,27.068
		c0.813,0.588,3.979,2.44,4.914,3.019l0.234-4.36c0.407-8.011,1.86-16.073,4.118-23.79c4.793,4.092,9.066,9.005,13.348,13.599
		c3.547,3.945,7.068,7.941,10.537,11.981c0.398,0.606,0.796,1.211,1.194,1.817c3.616,5.476,7.258,10.839,9.948,16.523
		C232.106,531.13,231.596,540.334,223.135,547.964z M341.962,540.715c-0.035,9.594-2.984,20.182-12.492,24.084
		c-3.348,1.462-8.967,0.013-8.967,0.013c4.048-3.46,4.538-6.821,5.758-12.877c1.341-6.384,1.626-13.002-0.182-19.343
		c-2.803,8.616-2.872,17.898-7.171,25.684c-3.59,6.921-9.784,8.478-16.237,6.644c1.964-2.448,3.495-5.398,4.524-8.365
		c3.149-8.919,4.87-18.478,3.374-27.933c-3.495,8.59-4.498,17.699-8.062,26.065c-2.915,7.059-7.742,13.737-15.234,9.905
		c4.317-7.206,5.891-19.36,6.99-26.359c0.666-4.524,0.96-9.092-0.086-13.824c-2.336,4.248-3.391,8.651-4.239,13.089
		c-0.9,4.421-1.825,8.824-2.837,13.158c-1.038,4.083-2.068,8.555-4.092,12.137c-1.427,2.69-3.694,3.382-6.635,3.244
		c-2.742,0.104-4.645-1.661-5.268-4.273c-1.479-6.203,0.363-12.812,1.739-19.058c1.92-8.789,4.862-17.699,4.663-26.835
		c-4.948,10.156-9.057,20.874-10.64,32.094c-8.469-7.639-8.971-16.834-3.538-27.89c2.69-5.683,6.332-11.047,9.948-16.523
		c0.363-0.58,0.744-1.159,1.116-1.73c3.495-4.066,7.042-8.097,10.614-12.068c4.282-4.602,8.556-9.507,13.348-13.599
		c2.69,9.101,4.066,18.677,4.351,28.15c11.644-6.142,19.957-17.431,23.08-30.087c1.194,2.31,2.336,4.646,3.443,6.99
		c3.824,8.132,7.128,16.488,9.308,25.208l0.934,3.789C342.04,520.204,342.178,530.42,341.962,540.715z M343.484,505.221
		c-4.152-16.938-12.102-32.735-21.013-47.666c-0.476,5.381-0.761,12.587-2.448,17.708c-2.31,7.526-6.748,14.499-12.751,19.628
		c-0.865-8.062-2.734-15.952-5.433-23.634l-1.064-2.959c-4.248,2.794-7.915,6.28-11.332,9.888c-2.197,2.31-4.351,4.654-6.471,7.024
		c0.467-1.903,0.484-4.109,0.009-6.064c-3.876-17.068-1.739-35.347,6.064-51.039c2.915-5.701,5.986-11.185,8.902-17.353
		c-2.872,1.695-5.389,3.953-7.604,6.574c-0.562-10.545,1.09-21.307,2.907-31.61c-1.868,1.523-5.104,4.161-8.123,6.626
		c1.574-6.999,3.858-13.833,6.886-20.338c1.955-4.351,4.265-8.538,6.86-12.552c2.734-4.1,5.493-7.846,7.518-12.483
		c-4.299,1.817-7.336,5.225-10,8.867c-0.398-4.792-0.536-9.594-0.32-14.386c0.415-10.069,2.085-20.096,4.801-29.793
		c2.535-9.974,7.128-19.032,9.767-29.032c-7.656,7.431-11.012,17.829-14.395,27.665c-5.139,16.454-7.024,34.196-3.668,51.204
		c-1.73,2.742-3.348,5.571-4.793,8.478c-4.455,8.954-7.509,18.608-9.083,28.478l-1.107,6.739c1.938-1.583,5.415-4.429,8.547-6.998
		c-0.337,3.14-0.58,6.289-0.683,9.481c-0.138,5.009,0.017,10.069,0.969,15.147c-4.196,6.886-6.947,15.026-8.806,22.111
		c-2.786,11.592-2.76,23.79-0.294,35.434c0.104,0.58,0.234,1.185,0.199,1.791c-0.208,3.503-2.016,6.635-3.91,9.992
		c-5.087,8.521-11.134,16.263-15.407,25.528c-3.841,8.071-4.836,15.597-2.708,22.206h-20.995c2.128-6.609,1.125-14.135-2.708-22.206
		c-2.898-6.246-6.592-11.86-10.199-17.345c-3.261-5.121-7.379-10.649-8.876-16.333c-0.234-1.073-0.338-2.016-0.156-3.036
		c1.099-5.19,1.765-10.467,1.929-15.779c0.372-13.59-2.95-27.241-9.23-39.257c-0.536-1.03-1.107-2.05-1.696-3.054
		c0.96-5.087,1.125-10.173,0.978-15.199c-0.104-3.192-0.346-6.332-0.683-9.481c3.14,2.569,6.618,5.424,8.547,6.998l-1.107-6.739
		c-1.574-9.871-4.628-19.525-9.083-28.478c-1.445-2.907-3.062-5.735-4.793-8.478c3.357-17.007,1.471-34.759-3.668-51.204
		c-3.382-9.836-6.739-20.234-14.395-27.665c2.639,10.009,7.232,19.058,9.767,29.032c4.04,14.334,5.709,29.352,4.49,44.197
		c-2.665-3.651-5.71-7.059-10.009-8.884c2.024,4.637,4.784,8.383,7.518,12.483c2.595,4.014,4.905,8.201,6.86,12.552
		c3.028,6.505,5.311,13.339,6.886,20.338c-3.019-2.466-6.263-5.113-8.123-6.626c1.817,10.294,3.46,21.039,2.907,31.575
		c-2.145-2.578-4.645-4.844-7.604-6.54c5.692,11.912,12.682,22.405,15.182,35.347c2.301,10.883,2.223,22.198-0.216,33.046
		c-0.199,0.978-0.398,2.102-0.355,3.097c0.009,1.004,0.147,1.998,0.363,2.967c-2.119-2.37-4.273-4.715-6.471-7.024
		c-3.417-3.616-7.085-7.085-11.333-9.888c-3.235,8.59-5.528,17.492-6.505,26.592c-5.995-5.13-10.441-12.102-12.734-19.628
		c-1.696-5.139-1.972-12.275-2.457-17.708c-8.91,14.923-16.869,30.727-21.013,47.666c-1.012,4.014-1.912,8.149-2.492,12.319
		c-5.822-6.583-11.168-13.573-15.762-21.056c-2.569-4.144-4.948-8.711-7.146-13.08c-0.848,1.202-2.31,3.279-3.633,5.173
		c-4.654-8.08-7.803-16.999-9.827-26.117c-1.176-5.19-1.964-10.485-2.457-15.813c-0.467-5.459-0.528-10.718-2.068-16.116
		c-1.566,3.685-1.955,7.5-1.938,11.307c-2.197-4.559-4.109-9.3-5.666-14.057c-1.825-5.744-3.149-11.609-3.521-17.596
		c-0.268-4.048,0.398-14.014,0.528-18.21l-5.796,10.848l-1.791,3.348c-1.574-8.037-2.569-16.186-2.725-24.378
		c-0.415-10.848,1.912-21.22,3.045-31.999c-1.765,1.955-3.123,4.204-4.187,6.627c-6.306-13.668-11.531-26.177-13.599-38.496
		l-1.202-7.137l-4.568,10.39c-4.377-28.331,2.569-62.104,2.647-62.467l1.107-5.32l-7.059,4.896
		c5.865-55.711,47.06-84.051,47.484-84.336c0,0,0.9-0.554,1.471-0.631c3.841-0.631,7.561-1.298,11.35-2.431
		c-3.763-1.35-7.751-1.713-11.696-1.661c-1.843,0.061-3.659,0.173-5.467,0.32c5.268-5.666,12.016-10.078,19.672-11.419
		c3.149,0.156,6.315,0.095,9.455-0.078c2.44-0.164,4.87-0.433,7.301-0.917c-4.706-1.315-9.438-2.171-14.196-3.08
		c-3.305-0.614-6.696-1.202-10.044-1.687c13.634-13.4,34.551-18.452,53.289-19.3c-2.647,5.234-5.909,15.502-0.156,28.141
		l1.808,3.988l2.578-4.818c1.22,10.165,5.554,27.838,20.736,38.764c0.389,2.457,0.917,4.888,1.471,7.301
		c2.076,8.045,5.805,16.099,12.059,21.8l2.396,4.265c0,0,0.778-3.408,1.081-4.775c5.147,6.497,16.047,16.48,35.719,19.032
		l0.285,0.043l0.277-0.043c19.672-2.552,30.572-12.535,35.719-19.032l1.081,4.775l2.396-4.265c6.254-5.701,9.983-13.755,12.059-21.8
		c0.554-2.414,1.081-4.844,1.471-7.301c15.182-10.926,19.516-28.599,20.736-38.764l2.578,4.818l1.808-3.988
		c5.761-12.647,2.491-22.916-0.156-28.149c10,0.372,20.113,2.154,29.586,5.337c8.755,2.993,17.206,7.474,23.764,13.98
		c-8.149,1.185-16.315,2.69-24.3,4.758c4.836,0.934,9.723,1.168,14.62,1.073c0.753-0.009,1.505-0.035,2.249-0.078
		c0.943,0.156,2.05,0.424,2.967,0.701c5.9,1.756,11.194,5.216,15.511,9.585c0.363,0.372,0.718,0.744,1.073,1.125
		c-5.779-0.545-11.601-0.58-17.154,1.35c4.334,1.298,12.82,3.062,12.82,3.062c0.424,0.285,41.619,28.625,47.484,84.336l-7.059-4.905
		l1.107,5.329c0.078,0.363,7.025,34.118,2.647,62.467l-4.568-10.39l-1.202,7.137c-2.076,12.319-7.293,24.836-13.599,38.496
		c-1.064-2.422-2.422-4.671-4.187-6.627c1.125,10.779,3.46,21.142,3.045,31.999c-0.156,8.192-1.151,16.341-2.725,24.378
		l-1.791-3.348l-5.796-10.848c0.13,4.126,0.796,14.213,0.528,18.21c-0.372,5.986-1.695,11.852-3.521,17.596
		c-1.557,4.758-3.469,9.499-5.666,14.057c0.017-3.806-0.372-7.621-1.938-11.307c-1.54,5.398-1.6,10.658-2.068,16.116
		c-0.493,5.329-1.28,10.623-2.457,15.813c-2.024,9.118-5.173,18.037-9.827,26.117c-1.324-1.895-2.794-3.979-3.633-5.173
		c-2.197,4.36-4.585,8.936-7.146,13.08c-4.593,7.483-9.94,14.473-15.762,21.056C345.396,513.379,344.496,509.235,343.484,505.221z
		 M433.279,540.196c-0.009,6.566-1.886,11.557-5.562,14.845c-3.512,3.132-8.08,4.204-11.445,4.533
		c0.519-0.908,0.952-1.877,1.28-2.907c1.661-4.914,1.384-10.061-0.035-14.715c-1.35-4.429-4.196-10.087-9.499-10.26
		c8.114,10.268,9.879,28.496-5.761,32.008c-1.488,0.337-2.984,0.528-4.49,0.64c1.678-2.889,2.344-6.436,2.093-9.611
		c-0.484-6.799-3.201-15.545-9.723-18.686c2.016,3.962,3.028,8.322,4.109,12.561c1.895,8.348,0.649,16.506-9.101,17.129
		c-2.552,0.19-5.234,0.009-7.959-0.381c3.365-4.957,2.803-12.431-0.251-18.296c-1.427-2.552-3.46-5.017-6.22-6.151
		c2.414,4.862,3.919,9.775,4.273,15c0.415,9.005-6.713,10.796-14.135,9.239c-7.197-1.626-12.76-6.964-15.684-13.763
		c0.908-3.486,1.298-7.05,1.427-10.528c0.19-5.26,0.277-10.545,0.035-15.874c-0.017-0.502-0.052-1.004-0.078-1.505
		c0.528-0.536,1.064-1.055,1.583-1.6c3.573-2.846,7.171-4.178,10.718-3.936c6.652,0.45,11.22,6.237,11.255,6.298l3.884,5.061v-6.376
		c0-8.27,7.414-12.327,10.796-13.746c5.087,8.746,12.007,9.896,12.319,9.94l1.436,0.216l8.504-14.109
		c3.642,7.422,9.265,12.007,14.308,16.125C428.028,526.787,433.297,531.087,433.279,540.196z M478.488,415.798
		c-1.54-1.237-3.166-2.405-4.948-3.235c1.254,1.514,2.362,3.054,3.408,4.637c1.462,2.163,2.777,4.412,4.083,6.67
		c-0.372,3.936-3.426,30.641-18.296,46.619c0.467-1.202,0.908-2.414,1.315-3.651c1.618-5.043,3.365-10.545,1.384-15.77
		c-3.019,6.229-4.247,12.82-7.223,19.014c-7.111,15.329-18.262,28.522-30.243,40.287c-2.067,1.894-4.126,3.806-6.177,5.735
		c-4.957-4.152-9.749-8.789-12.336-16.367l-1.497-4.395l-11.506,19.092c-1.99-0.796-5.779-3.002-8.711-8.902l-0.804-1.626
		l-1.747,0.519c-0.554,0.164-12.128,3.72-14.914,13.902c-2.5-2.05-6.315-4.369-11.082-4.706c-1.272-0.086-2.543-0.026-3.806,0.173
		c1.471-1.773,2.915-3.581,4.291-5.433c3.659-4.905,6.973-10.069,9.879-15.459l1.116,1.557l2.12,2.967l1.938-3.062
		c7.985-12.673,11.955-27.388,13.435-42.19c7.016-10.727,12.241-22.527,14.551-35.174c0.147-0.856,0.277-1.713,0.389-2.578
		c1.592,2.984,3.14,5.882,4.118,7.699c0.588-2.587,2.016-8.789,2.595-11.315c2.024-9.499,3.235-19.257,3.123-28.989
		c-0.225-6.073-0.458-13.037-2.024-19.43c2.111-4.516,4.135-8.91,5.995-13.218c1.929,0.078,3.927,0.268,5.874,0.51
		c41.506,5.493,62.51,34.352,62.874,73.583C483.557,420.53,481.118,418.047,478.488,415.798z M95.744,187.332
		c-4.81,8.322-10.329,16.16-15.044,24.525c-4.793,8.244-9.092,16.808-13.236,25.39c-1.272,2.474-2.405,4.974-3.858,7.379
		C65.951,226.528,81.168,198.379,95.744,187.332z M291.338,429.942c0.571-0.822,1.142-1.635,1.782-2.405
		c-0.225,1.99-0.744,3.841-1.133,5.77c-1.289,5.536-2.69,11.108-3.469,16.73c-1.367,7.569-1.497,15.208-2.82,22.821
		C281,461.137,284.46,440.375,291.338,429.942z M409.299,211.857c-4.715-8.365-10.234-16.203-15.044-24.525
		c14.551,11.021,29.802,39.188,32.138,57.294c-1.453-2.396-2.587-4.905-3.858-7.379
		C418.391,228.665,414.092,220.101,409.299,211.857z M159.258,466.18c-3.357,7.18-7.388,13.564-10.13,20.892
		c-3.097,7.232-4.265,14.559-6.047,22.293c-0.424-1.393-0.701-3.019-0.943-4.464C140.806,492.063,148.427,473.455,159.258,466.18z
		 M163.359,137.036c-7.154,2.82-14.611,4.317-21.843,6.782c-7.353,2.137-14.282,5.303-21.757,7.094
		C128.591,142.262,151.144,134.666,163.359,137.036z M181.093,490.489c-0.865-1.739-1.177-3.573-1.22-5.398
		c-0.035-5.017,1.384-12.327,6.315-14.784c-0.917,3.556-2.076,6.454-2.777,9.948c-0.631,2.483-0.882,5.061-1.497,7.587
		C181.724,488.707,181.49,489.589,181.093,490.489z"/>
</g>
</svg>
