<?xml version="1.0" encoding="utf-8"?>
<!-- Generator: Adobe Illustrator 28.3.0, SVG Export Plug-In . SVG Version: 6.00 Build 0)  -->
<svg version="1.1" id="hare_00000025426054280397616430000015353700177569845916_"
	 xmlns="http://www.w3.org/2000/svg" xmlns:xlink="http://www.w3.org/1999/xlink" x="0px" y="0px" viewBox="0 0 389.55 490"
	 enable-background="new 0 0 389.55 490" xml:space="preserve">
<g id="hare">
	<g>
		<path fill="#C6C6C6" d="M364.835,183.005c0,0,3.591-3.416,8.991-3.806c-3.006-4.768-7.693-8.514-11.419-12.71
			c-2.596-2.939-4.882-6.2-6.752-9.637c-3.645-6.745-6.093-13.82-9.913-20.357c-3.645-6.396-8.184-12.266-13.679-17.102
			c-10.854-9.745-24.896-14.244-39.261-11.52c1.52,4.459,3.08,8.917,4.613,13.403c-7.727-8.117-10.962-21.89-14.291-32.428
			c-2.529-8.413-4.291-17.156-6.745-25.589c-4.257-13.712-11.749-26.537-22.065-36.557c-6.005-5.609-13.114-11.271-21.224-12.771
			c-2.744-0.377-3.658,0.551-4.936,2.784c-2.421,4.728-2.737,10.699-2.421,16.053c1.271,17.277,9.724,33.208,20.37,46.685
			c7.667,9.159,14.492,19.187,18.904,30.35c4.102,10.955,7.566,24.19,2.065,35.259c0.155-4.802-0.007-9.529-0.551-14.183
			c-4.19,10.363-7.236,21.278-8.89,32.314c-1.843,16.584-7.122,28.144-20.168,38.911c-14.842,12.004-32.825,18.85-50.761,24.546
			c-8.803,2.697-17.351,6.187-25.696,10.162c-33.128,16.093-63.699,38.696-86.598,67.708c-23.148,29.2-34.984,66.618-22.253,102.873
			c5.689,17.808,17.088,32.428,27.176,48.037c-3.349-2.818-6.523-5.985-9.496-9.415c-1.439,0.511-4.371,1.345-8.258,1.345
			c-1.143,0-2.36-0.067-3.652-0.242c-5.703-0.76-13.726-3.706-21.742-12.845c0.8,3.127,1.843,6.18,3.322,9.106
			c-4.822-5.151-7.478-12.098-9.038-18.897c-0.464-2.71-0.525-5.575-0.901-8.299c-1.412-11.728-9.065-21.836-21.191-22.959
			c-0.121,0.242-0.249,0.491-0.363,0.733c-6.382,13.174-4.936,28.03,4.176,39.584c1.029,1.372,2.112,2.683,3.215,3.988l0.249,0.027
			v0.262c2.085,2.448,4.25,4.842,6.389,7.33c-2.253-0.982-4.338-2.273-6.308-3.732c0.424,7.956,2.643,15.938,10.572,19.603
			c-2.421-0.309-4.856-1.244-6.9-2.824c-5.185-3.974-7.364-10.847-7.398-17.176c0-0.888,0.034-1.748,0.135-2.643
			c-0.928-0.888-1.802-1.802-2.63-2.757c-1.836,12.394,1.944,24.829,14.54,30.202c7.794,3.484,16.275,3.073,22.872-2.778
			c-1.412,2.468-3.618,4.486-6.187,5.938c3.43,3.389,8.258,5.104,13.033,5.474c1.802,0.161,3.618,0.121,5.447,0.087
			c-1.305,0.457-2.636,0.915-4.008,1.17c-5.185,1.116-11.056,0.491-15.367-2.858c-0.847-0.666-1.614-1.406-2.233-2.313
			c0,0,0.343-0.242,0.484-0.343c-1.332,0.471-2.717,0.773-4.129,0.908c6.234,7.499,16.51,9.563,26.06,7.135
			c4.304-0.995,8.588-2.885,12.71-4.533l6.449-2.515c6.543-2.441,13.067-5.064,19.967-6.55c6.96-1.251,13.928-1.311,20.861-1.903
			c4.56-0.33,9.099-0.767,13.605-1.365c22.421-2.717,44.816-11.876,54.527-33.612c5.676-12.482,7.081-26.08,8.05-39.792
			c0.881,5.703,1.17,11.513,0.814,17.31c0.955-0.861,1.883-1.755,2.771-2.703c4.741-5.145,8.507-11.13,11.924-17.25
			c-2.199,8.621-7.209,18.857-15.024,23.712c-0.209,1.917-0.498,3.827-0.861,5.723c4.432-3.954,8.548-8.238,11.991-13.087
			c13.443-18.252,11.069-38.043-1.93-55.771c-5.642-7.653-12.213-14.365-19.072-20.996c12.905,6.88,23.134,18.379,29.489,31.493
			c0.861,1.836,1.601,3.672,2.213,5.501c13.679,27.209,31.534,62.294,44.345,89.16c7.559,17.606,25.891,39.893,47.243,32.179
			c3.369-1.325,6.449-3.43,6.765-6.496c0.309-3.504-2.784-6.752-6.335-7.445c7.774-1.009,12.522,8.352,6.483,13.941
			c-0.39,0.35-0.814,0.673-1.251,0.982c5.743,0.336,12.051-0.491,14.069-5.945c3.194-8.83-5.441-12.831-12.522-15.091
			c6.537-0.787,15.03,1.937,16.691,9.146c0.027,0.108,0.04,0.222,0.061,0.33c0.693-1.325,1.056-2.919,1.197-4.338
			c0.753-8.258-4.176-16.107-13.121-15.286c-1.251,0.108-2.697,0.41-3.934,0.686c-2.851,0.639-5.716,1.224-8.655,1.426
			c-5.03,0.457-10.726-0.067-15.145-2.945c-2.919-1.883-5.111-4.889-6.907-7.667c-8.124-12.468-13.087-26.665-17.364-40.66
			c-4.055-13.605-7.545-28.306-9.906-41.46c-0.235-1.735-0.168-3.625-0.128-5.367c1.197-15.945,12.354-29.22,24.405-38.656
			c15.138-11.258,20.996-27.68,18.911-46.228c1.466,3.383,2.32,6.927,2.63,10.518c0.37-0.834,0.733-1.681,1.056-2.549
			c2.421-6.564,3.611-13.531,4.439-20.491c1.278,8.991,0.525,20.605-5.131,28.084c0,0-0.108-0.074-0.269-0.188
			c-0.094,1.937-0.336,3.867-0.72,5.77c2.603-2.905,4.876-5.938,6.537-9.576c4.169-9.482,4.136-20.249,3.174-30.458
			c-0.41-4.257-1.163-8.379-1.735-12.657c-1.076-8.615-1.137-17.391,0.208-25.992c0.518-3.154,1.163-6.281,2.125-9.328
			c-0.726,0.108-1.459,0.202-2.186,0.282c-0.128,0.437-0.249,0.881-0.377,1.325c-3.403,11.453-4.486,23.692-2.219,35.508
			c-4.815-11.258-5.071-24.916-1.157-36.577c-2.354,0.054-4.708-0.114-7.055-0.673c-9.953-2.3-18.48-9.724-22.805-18.837
			c8.11,9.65,20.088,16.342,32.872,15.851c3.188-0.135,6.389-0.962,9.57-1.406c3.268-0.504,6.564-0.888,9.872-1.15
			c2.609-0.155,5.232-0.282,7.855-0.282c-2.085-1.506-3.887-3.342-5.246-5.494c6.833,2.952,13.067,6.853,20.511,6.913
			c3.504,0.04,6.96-0.807,10.061-2.428c2.656-1.406,5.656-3.174,7.848-5.4C371.029,192.239,367.605,189.986,364.835,183.005z
			 M182.122,430.13c-9.186,19.792-40.276,27.963-60.404,28.682c18.285-4.62,44.809-11.439,56.927-26.517
			c2.737-3.477,4.593-7.451,5.562-11.856C184.234,423.721,183.474,427.05,182.122,430.13z M290.301,303.497
			c3.517-5.602,6.288-11.52,8.507-17.801c-0.262,12.67-8.178,25.555-19.482,31.319C283.428,312.744,287.147,308.454,290.301,303.497
			z M268.996,67.906c-4.223-11.742-9.973-23.168-18.702-32.166c-3.356-3.403-7.108-6.396-11.332-8.581
			c-1.547-0.989-3.827-0.081-4.17,1.742c-0.148,0.948-0.155,1.91-0.148,2.872c0.108,4.055,0.942,8.171,2.038,12.172
			c3.12,11.016,8.285,21.5,15.441,30.438l0.962,1.291c7.633,10.908,14.149,22.684,18.225,35.387
			c-6.712-10.726-12.374-22.065-19.711-32.368c-0.444-0.652-1.365-1.89-1.849-2.515c-7.371-9.26-12.569-20.135-15.602-31.547
			c-1.264-4.93-2.334-10.135-1.917-15.333c0.074-1.708,1.029-3.356,2.495-4.23c1.459-0.915,3.389-1.056,4.963-0.316
			c0.767,0.363,1.473,0.76,2.206,1.177c3.779,2.192,7.162,4.963,10.209,8.03c9.086,9.213,15.172,20.975,19.489,33.027
			c5.272,16.147,10.72,32.112,14.835,48.595C279.528,100.065,274.538,83.831,268.996,67.906z M313.469,155.527
			c0.007-1.715-0.316-4.721-2.387-6.947c0,0,3.396,1.809,7.061,0.551c1.042-0.625,2.213-1.089,3.484-1.311
			c5.541-0.968,10.827,2.744,11.796,8.279c0.309,1.748,0.148,3.51-0.424,5.145c-0.027,1.157,0.235,3.04,1.849,4.647
			c0,0-2.334-1.177-5.145-0.034c-1.311,1.036-2.865,1.742-4.553,2.038c-0.592,0.101-1.184,0.155-1.769,0.155
			c-4.849,0-9.159-3.49-10.034-8.426C313.106,158.217,313.16,156.831,313.469,155.527z M335.541,191.579
			c-6.295,0.054-12.811,0.007-19.059-0.699c6.221-0.908,12.737-1.163,19.025-1.311c6.288-0.054,12.804-0.013,19.059,0.699
			C348.345,191.183,341.829,191.438,335.541,191.579z M334.592,183.449c-6.624-1.762-13.464-3.685-19.852-6.167
			c6.786,0.921,13.712,2.556,20.357,4.217c6.624,1.762,13.464,3.685,19.852,6.174C348.163,186.751,341.237,185.123,334.592,183.449z
			 M357.236,198.829c-0.76,0-1.379-0.625-1.379-1.385c0-0.767,0.619-1.385,1.379-1.385c0.767,0,1.385,0.619,1.385,1.385
			C358.621,198.204,358.002,198.829,357.236,198.829z M361.371,197.444c-0.767,0-1.385-0.619-1.385-1.385
			c0-0.767,0.619-1.385,1.385-1.385c0.76,0,1.379,0.619,1.379,1.385C362.75,196.825,362.131,197.444,361.371,197.444z
			 M362.75,192.716c-0.76,0-1.379-0.625-1.379-1.385c0-0.767,0.619-1.385,1.379-1.385c0.767,0,1.385,0.619,1.385,1.385
			C364.135,192.091,363.517,192.716,362.75,192.716z"/>
		<path fill="#C6C6C6" d="M206.225,461.731c5.165,1.56,10.478,3.04,15.212,5.461c4.64,2.394,7.841,5.266,4.438,10.054
			c-0.41,0.417-0.928,0.847-1.412,1.204c-3.282,2.421-7.27,3.685-11.312,4.122c0.195-5.696-7.108-11.493-11.527-13.611
			c1.762,2.824,11.217,12.986,6.833,15.353c-3.289,1.769-7.7,1.506-11.412,1.715c-16.671,0.087-33.632-3.551-50.512-3.746
			c-5.521-0.067-11.352,0.175-16.853-0.067c-6.59-0.424-17.714-0.612-20.101-7.989c-0.625-1.997-0.585-4.324-0.209-6.651
			c8.238-0.619,16.584-1.002,24.789-2.179c10.128-1.257,19.684-3.739,28.158-7.673c3.652-0.854,10.76-3.154,25.064-8.386
			c16.94-6.2,31.507-0.276,37.862,7.848c2.73,3.484,3.88,7.169,3.389,10.464c-0.504-0.552-1.096-1.069-1.789-1.554
			C220.959,462.222,213.064,461.388,206.225,461.731z"/>
	</g>
	<g>
		<path fill="#A5A5A5" d="M310.109,104.057c-4.216-5.765-11.405-20.422-12.194-53.819c-0.569-23.75-15.301-41.169-25.581-45.953
			c-3.069-1.426-5.683-1.649-6.99-0.596c-5.872,4.708-3.221,23.854-2.9,26.021l0.014,0.094l0.06,0.072
			c7.577,9.059,13.508,20.25,17.15,32.357c1.139,4.069,2.131,8.284,3.09,12.36c1.039,4.415,2.113,8.98,3.379,13.382
			c1.372,5.004,2.985,10.231,5.23,16.945l0.097,0.288l0.296-0.066c6.003-1.341,12.234-1.533,18.022-0.555l0.816,0.138
			L310.109,104.057z"/>
		<path fill="#A5A5A5" d="M206.259,475.881c1.852,3.747,0.418,4.52-0.052,4.773c-2.588,1.391-5.879,1.492-9.062,1.589
			c-0.756,0.023-1.499,0.046-2.2,0.085c-8.624,0.039-17.485-0.926-26.059-1.866c-8.011-0.878-16.294-1.786-24.439-1.88
			c-2.153-0.026-4.394-0.006-6.561,0.015c-3.41,0.033-6.935,0.066-10.274-0.082l-1.264-0.077
			c-5.443-0.324-12.898-0.767-16.641-4.577l-0.942-0.922l0.423,1.389c2.311,7.142,12.437,7.745,19.137,8.144l1.269,0.077
			c3.366,0.148,6.9,0.116,10.317,0.083c2.163-0.021,4.401-0.041,6.548-0.015c8.112,0.094,16.379,1,24.374,1.876
			c8.397,0.92,17.073,1.871,25.556,1.871c0.199,0,0.399-0.001,0.598-0.002c0.712-0.04,1.449-0.062,2.2-0.085
			c3.261-0.1,6.633-0.203,9.359-1.669h0.001c0.657-0.355,1.074-0.885,1.242-1.575c0.388-1.598-0.548-3.979-2.947-7.492
			L206.259,475.881z"/>
		<path fill="#A5A5A5" d="M225.392,469.407l-0.662-0.585l0.106,0.877c0.146,1.218-0.29,2.523-1.298,3.948
			c-0.358,0.363-0.843,0.779-1.365,1.169c-2.712,2-6.047,3.31-9.911,3.892l-0.438,0.066l0.181,0.404
			c0.521,1.165,0.767,2.303,0.73,3.382l-0.013,0.387l0.386-0.041c4.506-0.486,8.369-1.895,11.483-4.187
			c0.55-0.411,1.063-0.85,1.444-1.237l0.034-0.041C228.252,474.366,228.031,471.739,225.392,469.407z"/>
		<path fill="#A5A5A5" d="M257.085,85.415l15.035,28.003l-0.556-2.432c-0.043-0.187-4.424-18.905-18.346-41.237
			c-9.452-15.163-9.448-23.285-7.139-25.044c1.483-1.13,4.051-0.045,6.705,2.833c6.144,6.665,12.957,24.616,16.617,34.26
			c0.613,1.617,1.128,2.973,1.523,3.965c5.96,14.974,15.053,29.845,15.144,29.993l1.485,2.419l-16.103-49.457
			c-0.686-1.766-16.995-43.254-34.389-43.545c-0.081,0.014-1.984,0.372-3.284,2.667c-1.392,2.458-2.228,7.533,1.696,17.752
			C242.504,63.903,256.958,85.232,257.085,85.415z"/>
		<path fill="#A5A5A5" d="M329.287,469.973l-0.814-1.179l0.204,1.418c0.203,1.407,0.005,2.952-0.587,4.59
			c-1.248,3.359-4.389,5.277-9.337,5.7l-0.185,0.016l-0.085,0.165c-0.435,0.842-1.036,1.621-1.782,2.312
			c-0.33,0.296-0.705,0.592-1.216,0.959l-0.769,0.554l0.946,0.055c0.717,0.042,1.407,0.063,2.075,0.063
			c6.65,0,10.794-2.09,12.329-6.227l0.001-0.003C331.216,475.222,330.954,472.388,329.287,469.973z"/>
		<path fill="#A5A5A5" d="M317.119,476.783l0.001-0.007c0.134-1.548-0.367-3.164-1.411-4.549l-0.703-0.932l0.099,1.162
			c0.026,0.299,0.026,0.593,0.001,0.891c-0.33,3.14-3.746,5.115-6.545,6.215c-22.658,8.192-40.539-17.348-46.833-32.007
			c-10.301-21.607-23.898-48.588-35.894-72.393c-2.815-5.586-5.546-11.004-8.13-16.149l-0.615,0.268
			c0.267,0.72,0.523,1.459,0.781,2.247c2.757,5.488,5.687,11.304,8.715,17.312c11.992,23.798,25.585,50.773,35.877,72.355
			c5.521,12.859,19.884,33.985,38.666,33.985c2.904,0,5.917-0.506,9.016-1.626C313.123,482.385,316.753,480.259,317.119,476.783z"/>
		<path fill="#A5A5A5" d="M82.675,324.119c-24.741,39.032-12.23,69.792,0.024,80.583c16.925,14.906,36.449,8.682,36.449,8.682
			c-3.961-0.906-5.906-5.879-4.765-9.779s4.471-6.764,7.954-8.856c7.855-4.718,17.352-6.641,26.424-5.35
			c7.462,1.062,15.17,4.824,18.167,11.739c0.846-10.815,8.294-20.842,18.403-24.777c2.807-1.093,5.951-1.856,7.908-4.146
			c3.695-4.324,0.959-10.988-2.376-15.595c-5.146-7.108-11.506-13.333-18.723-18.325c-4.745-3.282-10.095-6.285-12.774-11.394
			c-4.191-7.991,0.203-18.451,7.691-23.485s38.885-16.027,52.702,11.101c10.015-34.952-43.54-40.766-6.741-56.038
			c0,0-17.623-24.003-73.182,11.08C124.388,279.312,99.942,296.878,82.675,324.119z"/>
		<path fill="#A5A5A5" d="M193.526,410.492c-1.176,5.924-2.854,11.707-5.384,17.271c-9.711,21.735-32.105,30.895-54.527,33.612
			c-4.506,0.599-9.045,1.036-13.605,1.365c-6.934,0.592-13.901,0.652-20.861,1.903c-6.9,1.486-13.423,4.109-19.967,6.55
			l-6.449,2.515c0,0,12.466-11.862,43.914-14.331c2.823-0.222,5.636-0.451,8.44-0.753c0.027,0,0.054,0,0.081-0.007
			c20.061-1.466,48.279-9.792,56.954-28.487c0.276-0.619,0.525-1.251,0.746-1.897c0.679-1.231,1.318-2.508,1.91-3.833
			c5.676-12.482,9.996-22.528,11.412-36.429C197.072,393.673,193.526,410.492,193.526,410.492z"/>
		<path fill="#A5A5A5" d="M207.805,401.676c-3.443,4.849-7.559,9.133-11.991,13.087c0.363-1.896,0.652-3.806,0.861-5.723
			c7.814-4.856,12.825-15.091,15.024-23.712c-0.33,0.592-0.666,1.184-1.002,1.769c5.797-14.95,2.186-30.411-8.184-44.553
			c-3.88-5.259-8.198-10.081-12.744-14.728c5.784,5.696,11.285,11.547,16.106,18.09
			C218.875,363.633,221.249,383.424,207.805,401.676z"/>
		<path fill="#A5A5A5" d="M336.459,166.977c0,0-2.65-1.333-5.843-0.033c-1.486,1.177-3.247,1.979-5.169,2.313
			c-0.671,0.119-1.346,0.173-2.008,0.173c-5.51,0-10.407-3.959-11.391-9.572c-0.284-1.588-0.222-3.165,0.128-4.646
			c0.012-1.951-0.354-5.362-2.704-7.889c0.173,0.086,3.951,2.012,8.016,0.626c1.185-0.716,2.514-1.239,3.955-1.49
			c6.292-1.103,12.296,3.111,13.399,9.399c0.35,1.992,0.173,3.988-0.486,5.843C334.332,163.018,334.628,165.158,336.459,166.977z"/>
	</g>
	<g>
		<path fill="#FFFFFF" d="M59.013,460.378c0.039-0.088-21.34-1.479-22.829-13.417c3.51,1.611,23.142,9.904,33.814-0.709l0.965-0.96
			l-1.302,0.401c-0.043,0.013-4.369,1.33-8.165,1.33c-1.223,0-2.437-0.08-3.607-0.239c-5.351-0.713-13.429-3.5-21.527-12.734
			l-0.927-1.057l0.348,1.362c0.654,2.557,1.414,4.849,2.305,6.942c-3.32-4.243-5.739-9.795-7.363-16.874
			c-0.258-1.507-0.395-3.093-0.528-4.627c-0.104-1.208-0.212-2.457-0.378-3.655c-1.548-12.862-10.183-22.208-21.487-23.255
			l-0.223-0.02l-0.105,0.198c-0.13,0.247-0.254,0.5-0.368,0.743c-6.5,13.418-4.927,28.348,4.204,39.933
			c2.191,2.904,4.624,5.658,6.977,8.321c0.617,0.698,1.235,1.398,1.853,2.104c-1.711-0.867-3.439-1.964-5.241-3.327
			c-2.083-1.618-4.012-3.449-5.735-5.442l-0.479-0.554l-0.108,0.725c-2.125,14.292,3.382,25.717,14.727,30.558
			c7.693,3.439,15.391,2.901,21.463-1.419c-1.311,1.615-12.327,6.413-11.776,7.087c1.467,1.796,14.6,16.205,39.214,1.914
			c0,0-17.379,0-23.633-5.274C49.1,468.434,56.995,464.953,59.013,460.378z"/>
		<path fill="#FFFFFF" d="M267.21,135.597l0.028-0.07l-0.005-0.074c-0.103-1.802-0.255-3.581-0.452-5.285l-0.152-1.311l-0.495,1.224
			c-4.273,10.569-7.273,21.467-8.92,32.403c-1.916,17.314-7.723,28.523-20.038,38.687c-15.041,12.16-33.233,18.955-50.648,24.486
			c-8.255,2.529-16.675,5.859-25.745,10.18c-35.226,17.113-65.212,40.559-86.714,67.802c-21.885,27.601-31.197,58.879-26.222,88.074
			l0.665-0.096c-3.238-27.577,6.265-57.002,26.757-82.853c21.441-27.164,51.345-50.545,86.478-67.613
			c9.037-4.306,17.427-7.624,25.654-10.144c17.48-5.552,35.743-12.376,50.873-24.607c12.468-10.289,18.343-21.627,20.28-39.121
			C260.165,156.595,263.077,145.936,267.21,135.597z"/>
		<path fill="#FFFFFF" d="M293.387,110.001c13.526-2.165,26.92,1.977,37.708,11.662c5.207,4.583,9.785,10.308,13.61,17.019
			c2.067,3.544,3.77,7.328,5.416,10.986c1.389,3.087,2.825,6.278,4.491,9.363c1.882,3.459,4.166,6.722,6.79,9.699
			c1.282,1.442,2.699,2.854,4.069,4.219c2.132,2.125,4.336,4.322,6.127,6.715l0.127,0.17l0.208-0.042
			c0.644-0.13,1.245-0.214,1.834-0.257l0.559-0.041l-0.299-0.474c-2-3.172-4.753-5.916-7.416-8.57
			c-1.361-1.357-2.768-2.759-4.035-4.183c-2.59-2.939-4.844-6.161-6.702-9.575c-1.654-3.062-3.085-6.242-4.469-9.318
			c-1.654-3.674-3.363-7.474-5.447-11.046c-3.86-6.772-8.486-12.556-13.746-17.185c-11.326-10.169-25.375-14.287-39.554-11.6
			l-0.38,0.072l0.826,2.431L293.387,110.001z"/>
		<path fill="#FFFFFF" d="M373.286,192.618c-2.263-0.712-5.531-2.979-8.214-9.741l-0.082-0.202l-0.214-0.008
			c-0.202-0.012-20.115-1.091-24.432-7.819c-0.959-1.498-1.07-3.123-0.333-4.967c2.704-6.79,2.313-17.625-3.016-24.004
			c-4.197-5.029-10.88-6.778-19.325-5.07c-9.65,1.959-13.514,10.387-13.066,17.876c0.239,3.959,2.263,6.539,3.893,8.609
			c1,1.272,1.864,2.374,2.181,3.547c1.066,3.975,0.514,7.247-1.638,9.72c-7.033,8.086-28.933,5.469-29.152,5.444l-0.827-0.103
			l0.523,0.646c17.094,21.135,22.884,46.069,16.642,54.246c-2.671,3.494-7.395,3.885-13.67,1.128l-0.901-0.399l0.473,0.868
			c0.078,0.144,7.831,14.51,5.354,26.625c-1.852,9.053-9.592,14.448-15.74,14.292c-5.107-0.148-8.576-3.909-9.506-10.321l-0.148-1
			l-0.482,0.889c-0.07,0.128-6.979,12.963-10.638,29.687c-2.864,13.098-4.173,30.921,3.638,46.522
			c1.918,3.823,3.251,7.913,3.872,12.144c0.165,1.119,0.383,2.391,0.658,3.839c2.395,13.354,5.913,28.061,9.893,41.411
			c4.185,13.691,9.181,28.086,17.325,40.571c1.741,2.699,5.259,5.704,8.144,7.568c4.741,3.078,10.74,3.276,14.942,2.893
			c3.012-0.21,6.029-0.844,8.609-1.42c1.333-0.296,2.737-0.584,3.983-0.695c3.749-0.35,7.033,0.782,9.502,3.251
			c2.321,2.325,3.732,5.708,3.992,9.415c0.366-4.728-1.119-9.226-3.992-12.107c-2.469-2.469-5.753-3.597-9.502-3.247
			c-1.247,0.107-2.65,0.395-3.983,0.691c-2.58,0.58-5.597,1.21-8.609,1.42c-4.202,0.383-10.201,0.189-14.942-2.893
			c-2.885-1.864-5.058-4.868-6.798-7.564c-8.144-12.489-13.14-26.88-17.325-40.575c-3.979-13.345-7.498-28.057-9.893-41.411
			c-0.058-0.391,0.272-4.173,0.465-6.601c2.642-5.95,13.345-29.02,23.67-37.106c14.053-10.444,20.687-25.67,19.271-44.139
			c2.029,5.811,2.42,12.234,1.119,18.72l-0.243,1.21l0.823-0.918c3.078-3.444,5.107-6.424,6.588-9.666
			c4.444-10.103,4.045-21.674,3.202-30.625c-0.255-2.704-0.663-5.403-1.058-8.012c-0.23-1.543-0.465-3.09-0.671-4.654
			c-1.136-9.041-1.066-17.757,0.206-25.897c0.588-3.621,1.259-6.572,2.115-9.28l0.16-0.514l-0.531,0.078
			c-3.568,0.519-8.255,0.971-12.868-0.128c-3.634-0.84-8.082-3.428-12.745-7.383c9.239,4.955,18.79,5.206,22.744,5.062
			c2.082-0.091,4.189-0.473,6.222-0.844c1.111-0.202,2.255-0.412,3.383-0.568c3.239-0.502,6.555-0.885,9.848-1.148
			c2.346-0.136,5.111-0.28,7.827-0.28h1.041l-0.844-0.609c-1.782-1.288-3.292-2.782-4.502-4.44c1.119,0.502,2.235,1.025,3.317,1.539
			c5.329,2.51,10.362,4.881,16.251,4.93c3.506,0.037,7.057-0.815,10.23-2.469c2.481-1.313,5.625-3.119,7.922-5.461l0.387-0.391
			L373.286,192.618z M312.048,159.857c-0.284-1.588-0.222-3.165,0.128-4.646c0.012-1.951-0.354-5.362-2.704-7.889
			c0.173,0.086,3.951,2.012,8.016,0.626c1.185-0.716,2.514-1.239,3.955-1.49c6.292-1.103,12.296,3.111,13.399,9.399
			c0.35,1.992,0.173,3.988-0.486,5.843c-0.025,1.317,0.272,3.457,2.103,5.276c0,0-2.65-1.333-5.843-0.033
			c-1.486,1.177-3.247,1.979-5.169,2.313c-0.671,0.119-1.346,0.173-2.008,0.173C317.929,169.429,313.032,165.47,312.048,159.857z
			 M335.455,191.243c-5.222,0.041-10.724,0.016-16.049-0.412c5.296-0.601,10.802-0.802,16.028-0.926
			c4.93-0.041,10.535-0.045,16.082,0.412C346.179,190.927,340.673,191.124,335.455,191.243z M334.603,183.124
			c-5.502-1.465-11.284-3.078-16.765-5.02c5.955,0.984,11.889,2.42,17.098,3.72c6.3,1.675,11.699,3.218,16.79,5.033
			C345.932,185.902,340.105,184.511,334.603,183.124z M357.163,198.494c-0.58,0-1.049-0.473-1.049-1.049
			c0-0.58,0.469-1.049,1.049-1.049c0.576,0,1.049,0.469,1.049,1.049C358.212,198.021,357.739,198.494,357.163,198.494z
			 M361.29,197.108c-0.58,0-1.049-0.469-1.049-1.049c0-0.58,0.469-1.049,1.049-1.049c0.58,0,1.049,0.469,1.049,1.049
			C362.339,196.638,361.87,197.108,361.29,197.108z M362.677,192.379c-0.58,0-1.049-0.469-1.049-1.049
			c0-0.576,0.469-1.049,1.049-1.049c0.576,0,1.049,0.473,1.049,1.049C363.726,191.91,363.253,192.379,362.677,192.379z"/>
		<path fill="#FFFFFF" d="M225.687,457.312l-0.067-0.094c-0.061-0.081-0.128-0.168-0.188-0.242
			c-6.436-8.218-21.143-14.21-38.239-7.956c-22.421,8.205-38.084,10.599-43.78,11.244l-0.088,0.013l-0.067,0.047
			c7.72,2.586,27.704-2.676,43.935-8.615c17.095-6.254,31.803-0.262,38.239,7.956c0.061,0.074,0.128,0.161,0.188,0.242l0.067,0.094
			c1.829,2.421,2.932,4.997,3.228,7.472C229.332,464.239,228.196,460.635,225.687,457.312z"/>
		<path fill="#FFFFFF" d="M280.801,79.289c-0.919-3.706-3.106-12.436-4.179-16.13c-4.405-14.203-12.065-26.893-22.152-36.705
			c-5.528-5.165-12.959-11.291-21.406-12.858c-2.858-0.39-3.9,0.551-5.279,2.966c-1.897,3.699-2.73,8.5-2.542,14.654
			c0.161-4.58,1.002-7.064,2.542-10.057c1.379-2.414,2.421-3.356,5.279-2.966c8.447,1.567,15.878,7.693,21.406,12.858
			c10.088,9.812,16.513,21.267,20.918,35.471C275.943,68.431,280.34,78.613,280.801,79.289z"/>
		<path fill="#FFFFFF" d="M298.442,64.428c0.056,0.022-0.287-5.568-0.231-5.546c-0.133-2.365-0.237-6.059-0.297-8.643
			c-0.572-23.753-15.299-41.171-25.582-45.952c-3.067-1.426-5.683-1.654-6.987-0.599c-3.289,2.636-3.9,9.792-3.753,15.965
			c0.155-5.219,1.056-9.203,3.753-11.368c1.305-1.056,3.921-0.827,6.987,0.599c10.283,4.781,23.238,20.984,24.348,44.718
			C297.01,60.661,298.39,63.13,298.442,64.428z"/>
		<circle fill="#FFFFFF" cx="323.388" cy="157.856" r="8.956"/>
	</g>
	<path fill="#231F20" d="M279.324,317.016c4.104-4.273,7.824-8.562,10.976-13.522c3.519-5.598,6.287-11.514,8.507-17.797
		C298.544,298.364,290.633,311.249,279.324,317.016z M274.953,12.553c10.08,11.465,16.676,25.253,17.588,40.609
		C295.628,37.829,287.773,21.156,274.953,12.553z M121.719,458.813c20.13-0.719,51.214-8.892,60.406-28.684
		c1.352-3.083,2.112-6.406,2.081-9.694c-0.971,4.408-2.821,8.383-5.56,11.858C166.524,447.374,140.004,454.192,121.719,458.813z
		 M252.102,33.957c-3.045-3.065-6.43-5.833-10.209-8.027c-0.729-0.419-1.439-0.814-2.206-1.18c-1.571-0.737-3.502-0.6-4.962,0.316
		c-1.466,0.874-2.422,2.524-2.497,4.232c-0.414,5.199,0.655,10.406,1.92,15.332c3.034,11.413,8.23,22.287,15.6,31.549
		c0.483,0.622,1.409,1.861,1.855,2.515c7.333,10.302,12.997,21.64,19.711,32.365c-4.08-12.703-10.594-24.478-18.225-35.385
		c0,0-0.966-1.291-0.966-1.291c-7.153-8.937-12.322-19.421-15.442-30.437c-1.09-4.003-1.927-8.118-2.032-12.173
		c-0.012-0.964-0.003-1.923,0.146-2.872c0.343-1.825,2.624-2.733,4.169-1.741c4.224,2.181,7.975,5.178,11.332,8.579
		c8.73,8.999,14.478,20.424,18.704,32.168c5.54,15.923,10.527,32.155,17.431,47.671c-4.122-16.482-9.565-32.449-14.835-48.596
		C267.274,54.935,261.191,43.169,252.102,33.957z M314.74,177.282c6.389,2.484,13.228,4.406,19.853,6.17
		c6.646,1.669,13.569,3.302,20.358,4.218c-6.388-2.488-13.227-4.41-19.853-6.17C328.451,179.835,321.527,178.203,314.74,177.282z
		 M362.752,189.946c-0.764,0-1.384,0.62-1.384,1.384c0,0.764,0.62,1.384,1.384,1.384c0.764,0,1.384-0.62,1.384-1.384
		C364.136,190.565,363.517,189.946,362.752,189.946z M381.576,183.508c-0.504,0.158-1.012,0.298-1.527,0.408
		c0.309,1.626,0.335,3.301-0.063,4.979c-1.61,6.353-7.543,9.9-12.89,12.708c-5.461,2.912-12.443,3.355-18.736,1.633
		c-5.236-0.788-10.578-0.654-15.867-0.288c-3.213,0.262-6.422,0.639-9.617,1.144c-1.115,0.193-2.235,0.396-3.358,0.594
		c-3.944,11.311-4.187,23.703-2.79,35.519c2.432,16.629,6.355,36.57-5.264,50.74c-1.934,2.247-4.262,4.111-6.825,5.553
		c-1.891,6.606-5.453,12.779-10.268,17.661c-1.999,2.082-4.206,4.059-6.5,5.817c-11.512,8.97-22.393,20.76-24.25,35.694
		c0,0-0.169,1.597-0.169,1.597c0.001,0.983-0.1,2.238-0.008,3.191c0.05,1.302,0.211,2.616,0.5,3.877
		c2.626,12.944,5.561,25.913,9.405,38.578c3.255,10.742,6.978,21.502,12.116,31.49c0.656,1.175,1.549,3.078,2.286,4.198
		c0,0,2.515,4.035,2.515,4.035c2.102,3.237,4.31,6.272,7.886,7.776c6.406,2.747,13.868,1.256,20.488-0.22
		c0.725-0.178,1.847-0.356,2.588-0.428c6.595-0.891,12.908,2.375,15.635,8.518c2.205,4.917,2.578,10.645,0.333,15.626
		c-0.695,1.467-1.705,2.768-3.059,3.678c-0.756,4.388-3.697,8.25-8.218,9.639c-5.258,1.742-10.855,1.214-16.086-0.234
		c-3.639,1.069-7.613,1.367-10.988,1.086c-12.565-1.264-22.749-10.164-30.018-19.877c-2.411-3.261-4.551-6.71-6.416-10.302
		c-8.533-17.893-17.309-35.614-26.202-53.343c0,0-9.083-18.049-15.403-30.608c0.659,13.575-5.245,26.395-15.755,37.071
		c-3.267,3.405-6.811,6.504-10.538,9.332c-3.596,13.01-10.613,22.828-19.919,29.982c3.169-1.099,6.993-2.461,11.634-4.159
		c18.618-6.814,34.342-0.421,41.668,8.938c4.317,5.515,5.338,11.81,2.867,16.854c0.352,2.439-0.465,5.056-2.33,7.468
		c-4.348,4.315-10.495,6.234-16.507,6.614c-6.206,7.471-39.844,2.154-48.755,1.608c-8.365-0.877-16.743-1.188-25.123-1.058
		c-10.013-0.278-28.494,0.666-31.997-11.335c-0.677-2.466-0.592-4.974-0.178-7.413c-8.862,0.655-16.976,4.023-25.276,7.056
		l-12.892,4.944c-4.48,1.676-9.209,2.799-14.024,2.976c-9.213,0.542-18.825-3.863-23.792-11.773
		c-2.519-0.284-4.999-1.022-7.246-2.139c-5.558-2.533-10.533-6.596-13.389-12.073c-4.006-7.597-4.341-16.529-2.508-24.796
		c-8.358-12.195-9.348-28.31-0.718-41.516c0,0,0.53-0.797,0.53-0.797c9.208,0.128,18.048,5.51,22.377,13.651
		c2.472,4.45,3.707,9.43,4.214,14.447c0.537,2.972,0.981,5.981,1.494,8.974c13.548,19.636,27.835,17.866,32.879,16.433
		c-14.079-17.53-23.167-41.146-24.233-62.543c-2.575-67.283,60.321-120.669,115.899-147.703c8.489-4.033,17.248-7.601,26.275-10.36
		c17.405-5.537,35.127-12.152,49.466-23.612c11.501-9.299,16.987-19.975,18.737-34.633c1.948-13.784,6.063-27.143,11.87-39.796
		c-0.901-4.543-2.206-9.009-4.004-13.387c-4.354-10.722-11.126-20.402-18.624-29.174c-13.03-16.16-23.465-36.844-21.328-58.21
		c0.731-4.761,1.868-10.289,6.362-13.338c4.635-2.533,10.608,0.256,14.724,2.272c6.068,3.366,11.499,7.642,16.279,12.564
		c-0.709-7.563-0.865-19.62,4.576-23.989c2.294-1.842,5.903-1.767,10.165,0.215c10.231,4.757,26.697,22.164,27.326,48.621
		c1.075,45.15,14.016,54.797,14.146,54.889l-0.242,0.355c18.907,5.334,32.227,21.858,39.582,39.354
		c3.002,6.843,6.015,13.47,10.978,19.042c3.461,3.9,7.494,7.294,10.544,11.574c3.898-2.652,8.073-4.913,12.163-7.262
		c-3.626,3.031-7.199,6.172-11.044,8.917c0.933,1.468,1.771,3.075,2.347,4.766c1.424-0.342,3.155-0.47,4.433-0.642
		c1.871-0.219,3.746-0.393,5.631-0.501C387.031,181.692,384.173,182.647,381.576,183.508z M262.856,29.659
		c7.905,9.456,13.687,20.772,17.212,32.483c2.373,8.484,4.034,17.278,6.47,25.743c1.57,5.72,3.355,11.338,5.228,16.928
		c3.526-0.787,7.151-1.196,10.775-1.182c-5.945-8.601-7.947-22.017-7.913-31.957c2.137,8.426,4.155,16.948,7.545,24.94
		c1.104,2.524,2.332,4.969,3.848,7.166c1.304,0.103,2.603,0.258,3.892,0.475c-4.354-5.96-11.47-20.716-12.263-54.01
		C297.09,26.635,282.47,9.336,272.268,4.593c-2.951-1.373-5.435-1.613-6.642-0.642C260.74,7.874,261.829,22.765,262.856,29.659z
		 M162.315,457.722c-8.472,3.938-18.029,6.419-28.153,7.675c-8.209,1.177-16.556,1.558-24.789,2.18
		c-0.378,2.323-0.419,4.65,0.208,6.65c2.387,7.374,13.51,7.565,20.101,7.989c5.498,0.241,11.331-0.004,16.855,0.067
		c16.874,0.192,33.838,3.831,50.507,3.748c3.714-0.214,8.126,0.051,11.416-1.719c4.382-2.364-5.074-12.529-6.838-15.351
		c4.42,2.119,11.722,7.917,11.527,13.613c4.044-0.439,8.031-1.704,11.315-4.126c0.481-0.356,0.999-0.786,1.409-1.203
		c3.405-4.788,0.205-7.657-4.436-10.057c-4.735-2.418-10.044-3.899-15.21-5.456c6.835-0.342,14.735,0.49,20.616,4.363
		c0.694,0.481,1.284,1.004,1.794,1.553c0.488-3.294-0.664-6.981-3.389-10.464c-6.361-8.127-20.924-14.05-37.864-7.852
		C173.08,454.568,165.97,456.871,162.315,457.722z M364.835,183.002c0,0,3.591-3.413,8.989-3.802
		c-3.005-4.773-7.691-8.515-11.419-12.712c-2.593-2.941-4.88-6.202-6.749-9.636c-3.645-6.743-6.094-13.82-9.912-20.355
		c-3.646-6.398-8.184-12.266-13.679-17.103c-10.854-9.747-24.898-14.243-39.263-11.524c1.52,4.464,3.079,8.92,4.617,13.406
		c-7.727-8.118-10.964-21.894-14.296-32.431c-2.527-8.413-4.29-17.152-6.743-25.585c-4.253-13.715-11.75-26.542-22.063-36.558
		c-6.005-5.613-13.117-11.274-21.222-12.769c-2.745-0.38-3.659,0.546-4.936,2.782c-2.427,4.727-2.738,10.697-2.424,16.055
		c1.272,17.275,9.727,33.204,20.374,46.681c7.665,9.163,14.491,19.188,18.9,30.354c4.105,10.955,7.565,24.19,2.069,35.254
		c0.154-4.796-0.01-9.524-0.553-14.179c-4.188,10.365-7.237,21.277-8.894,32.314c-1.841,16.585-7.117,28.145-20.163,38.909
		c-14.846,12.006-32.827,18.849-50.761,24.545c-8.803,2.7-17.355,6.192-25.697,10.165c-33.127,16.09-63.699,38.696-86.6,67.709
		c-23.148,29.199-34.981,66.612-22.251,102.869c5.688,17.807,17.089,32.432,27.175,48.039c-3.35-2.819-6.522-5.984-9.497-9.416
		c-1.441,0.514-4.371,1.346-8.259,1.346c-1.14,0-2.362-0.072-3.651-0.244c-5.705-0.763-13.725-3.706-21.739-12.845
		c0.8,3.126,1.838,6.184,3.32,9.108c-4.82-5.15-7.475-12.101-9.037-18.897c-0.464-2.709-0.529-5.575-0.905-8.303
		c-1.411-11.725-9.063-21.833-21.186-22.959c-0.126,0.243-0.251,0.493-0.366,0.735c-6.379,13.176-4.934,28.031,4.174,39.585
		c1.032,1.369,2.117,2.684,3.219,3.986l0.245,0.029c-0.001,0.086,0,0.172,0,0.258c2.087,2.453,4.251,4.846,6.392,7.333
		c-2.255-0.98-4.339-2.271-6.309-3.729c0.423,7.955,2.643,15.937,10.575,19.602c-2.421-0.311-4.86-1.243-6.904-2.825
		c-5.182-3.976-7.362-10.849-7.399-17.173c0.004-0.892,0.036-1.755,0.135-2.648c-0.925-0.882-1.799-1.801-2.624-2.753
		c-1.842,12.389,1.94,24.83,14.536,30.198c7.792,3.487,16.274,3.074,22.874-2.775c-1.412,2.465-3.622,4.484-6.189,5.94
		c3.429,3.387,8.257,5.099,13.034,5.47c1.805,0.163,3.617,0.12,5.45,0.092c-1.305,0.454-2.64,0.914-4.012,1.17
		c-5.182,1.112-11.058,0.49-15.365-2.861c-0.851-0.668-1.612-1.407-2.237-2.316c0,0,0.345-0.242,0.487-0.342
		c-1.334,0.472-2.72,0.773-4.128,0.908c6.233,7.502,16.508,9.563,26.055,7.134c4.305-0.989,8.592-2.884,12.717-4.53l6.448-2.513
		c6.163-2.304,12.319-4.753,18.784-6.274c-7.443-1.527-11.901-4.864-11.901-4.864l26.67,3.183c2.426-0.15,4.85-0.291,7.27-0.498
		c4.565-0.334,9.102-0.766,13.604-1.367c22.423-2.717,44.82-11.876,54.528-33.609c5.676-12.483,7.081-26.083,8.049-39.792
		c0.881,5.697,1.174,11.509,0.815,17.31c0.955-0.86,1.882-1.757,2.774-2.709c4.74-5.144,8.503-11.128,11.924-17.246
		c-2.205,8.622-7.209,18.858-15.025,23.711c-0.213,1.915-0.501,3.825-0.862,5.726c4.432-3.96,8.545-8.242,11.99-13.092
		c13.442-18.253,11.071-38.041-1.933-55.772c-5.638-7.652-12.211-14.365-19.068-20.995c12.905,6.883,23.13,18.382,29.486,31.496
		c0.866,1.837,1.601,3.672,2.215,5.5c13.676,27.212,31.532,62.296,44.341,89.158c7.559,17.605,25.897,39.898,47.246,32.183
		c3.371-1.326,6.447-3.433,6.767-6.501c0.308-3.502-2.784-6.751-6.34-7.443c7.777-1.009,12.525,8.355,6.486,13.942
		c-0.392,0.349-0.814,0.67-1.25,0.978c5.741,0.338,12.05-0.49,14.069-5.941c3.195-8.828-5.441-12.834-12.524-15.091
		c6.537-0.79,15.031,1.938,16.692,9.143c0.026,0.111,0.039,0.224,0.062,0.335c0.692-1.328,1.058-2.922,1.193-4.338
		c0.757-8.263-4.171-16.108-13.115-15.287c-1.256,0.105-2.699,0.408-3.935,0.682c-2.857,0.641-5.72,1.227-8.655,1.43
		c-5.031,0.458-10.727-0.065-15.149-2.944c-2.92-1.883-5.106-4.892-6.904-7.67c-8.127-12.467-13.086-26.667-17.364-40.658
		c-4.059-13.603-7.546-28.308-9.905-41.464c-0.239-1.732-0.172-3.618-0.127-5.361c1.192-15.947,12.351-29.222,24.399-38.661
		c15.143-11.257,20.996-27.677,18.912-46.228c1.468,3.383,2.319,6.932,2.629,10.52c0.375-0.835,0.733-1.68,1.06-2.546
		c2.417-6.564,3.611-13.532,4.437-20.492c1.276,8.993,0.525,20.608-5.133,28.081c0,0-0.107-0.074-0.268-0.185
		c-0.091,1.934-0.335,3.864-0.716,5.769c2.598-2.905,4.872-5.939,6.531-9.576c4.173-9.485,4.137-20.252,3.175-30.459
		c-0.407-4.258-1.165-8.379-1.73-12.655c-1.08-8.618-1.139-17.39,0.206-25.994c0.517-3.151,1.165-6.281,2.125-9.325
		c-0.729,0.106-1.458,0.199-2.189,0.28c-0.124,0.442-0.243,0.885-0.372,1.324c-3.403,11.458-4.486,23.694-2.224,35.509
		c-4.815-11.253-5.065-24.917-1.156-36.573c-2.351,0.054-4.704-0.118-7.052-0.676c-9.953-2.302-18.482-9.721-22.806-18.833
		c8.112,9.65,20.091,16.337,32.871,15.846c3.192-0.131,6.389-0.961,9.568-1.401c3.271-0.509,6.566-0.89,9.877-1.151
		c2.608-0.158,5.231-0.283,7.852-0.285c-2.084-1.505-3.884-3.341-5.247-5.492c6.835,2.951,13.072,6.848,20.512,6.914
		c3.503,0.041,6.961-0.806,10.063-2.434c2.658-1.4,5.657-3.169,7.844-5.395C371.031,192.239,367.603,189.987,364.835,183.002z
		 M357.238,196.058c-0.764,0-1.384,0.62-1.384,1.384c0,0.764,0.62,1.384,1.384,1.384c0.764,0,1.384-0.62,1.384-1.384
		C358.622,196.678,358.002,196.058,357.238,196.058z M361.368,194.674c-0.764,0-1.384,0.62-1.384,1.384
		c0,0.764,0.62,1.384,1.384,1.384c0.764,0,1.384-0.62,1.384-1.384C362.752,195.294,362.133,194.674,361.368,194.674z
		 M335.507,189.567c-6.286,0.151-12.805,0.408-19.028,1.315c6.253,0.706,12.769,0.752,19.06,0.701
		c6.286-0.147,12.805-0.403,19.028-1.314C348.313,189.558,341.798,189.512,335.507,189.567z M332.994,161.24
		c0.58-1.634,0.737-3.391,0.428-5.144c-0.971-5.535-6.259-9.247-11.798-8.276c-1.268,0.222-2.436,0.683-3.481,1.313
		c-3.58,1.222-6.905-0.473-7.057-0.551c2.07,2.226,2.391,5.23,2.383,6.946c-0.309,1.305-0.362,2.691-0.115,4.09
		c0.868,4.942,5.177,8.428,10.029,8.428c0.584,0,1.177-0.049,1.77-0.152c1.691-0.296,3.243-1,4.551-2.037
		c2.811-1.144,5.144,0.029,5.144,0.029C333.233,164.285,332.974,162.4,332.994,161.24z M331.509,158.796
		c-0.012-0.115-0.029-0.235-0.049-0.35c-0.584-3.321-3.749-5.535-7.07-4.955c-0.193,0.037-0.379,0.074-0.564,0.123
		c0.811,0.56,1.407,1.436,1.592,2.481c0.362,2.066-1.016,4.041-3.082,4.403c-1.099,0.193-2.169-0.107-2.988-0.745
		c0.008,0.263,0.037,0.535,0.082,0.802c0.56,3.193,3.506,5.362,6.675,5.008c-0.42,0.148-0.856,0.263-1.305,0.342
		c-4.436,0.778-8.683-2.197-9.465-6.638c-0.374-2.148,0.107-4.317,1.358-6.103c1.255-1.79,3.132-2.979,5.28-3.358
		c4.436-0.778,8.683,2.197,9.465,6.638C331.575,157.232,331.599,158.022,331.509,158.796z"/>
</g>
</svg>
