<svg width="45" height="45" viewBox="0 0 45 45" fill="none" xmlns="http://www.w3.org/2000/svg">
<path d="M30.0534 22.5L43.9302 8.62315C45.3566 7.19675 45.3566 4.88417 43.9302 3.45777L41.5422 1.0698C40.1158 -0.356598 37.8032 -0.356598 36.3769 1.0698L22.5 14.9466L8.62315 1.0698C7.19675 -0.356598 4.88417 -0.356598 3.45777 1.0698L1.0698 3.45777C-0.356598 4.88417 -0.356598 7.19675 1.0698 8.62315L14.9466 22.5L1.0698 36.3769C-0.356598 37.8032 -0.356598 40.1158 1.0698 41.5422L3.45777 43.9302C4.88417 45.3566 7.19675 45.3566 8.62315 43.9302L22.5 30.0534L36.3769 43.9302C37.8032 45.3566 40.1158 45.3566 41.5422 43.9302L43.9302 41.5422C45.3566 40.1158 45.3566 37.8032 43.9302 36.3769L30.0534 22.5Z" fill="#FF473E"/>
</svg>
