<?xml version="1.0" encoding="utf-8"?>
<!-- Generator: Adobe Illustrator 28.3.0, SVG Export Plug-In . SVG Version: 6.00 Build 0)  -->
<svg version="1.1" id="kangaroo" xmlns="http://www.w3.org/2000/svg" xmlns:xlink="http://www.w3.org/1999/xlink" x="0px" y="0px"
	 viewBox="0 0 490 478.889" enable-background="new 0 0 490 478.889" xml:space="preserve">
<g id="kangaroo_00000022532392181483030200000007866266724754647482_">
	<path fill="#D69A72" d="M486.562,474.507c-1.955-3.269-14.826-5.554-21.176-5.862c-71.415-3.504-113.647-14.718-141.178-37.494
		c-24.573-20.336-37.753-49.62-45.492-101.075l-0.209-1.386l-0.518,1.302c-2.43,6.104-5.49,11.272-9.111,15.391
		c0.982-2.662,2.069-5.301,3.127-7.868c1.474-3.576,2.997-7.274,4.231-11.021c0.132-0.373,0.324-0.959,0.516-1.544
		c0.198-0.603,0.395-1.205,0.536-1.602c0.136-0.527,1.195-4.657,1.349-5.293c0.242-0.957,0.488-2.372,0.685-3.509
		c0.05-0.29,0.098-0.565,0.141-0.807c0.51-2.624,0.756-5.347,0.993-7.981l0.067-0.739c0.458-7.798-0.168-15.868-1.863-24.003
		c-0.341-1.356-1.247-4.941-1.621-6.386c-0.2-0.605-0.485-1.486-0.786-2.419c-0.446-1.383-0.953-2.95-1.26-3.846
		c-0.365-0.898-0.729-1.835-1.094-2.774c-0.433-1.115-0.881-2.269-1.334-3.356l-1.855-3.983
		c-9.672-19.926-25.294-38.604-46.432-55.516c-17.384-13.908-38.434-26.603-62.566-37.732l-1.603-0.722
		c-7.716-3.471-15.695-7.06-22.64-11.932l-1.703-1.194l1.173,1.718c0.788,1.155,1.711,2.495,2.684,3.786
		c1.18,1.571,2.433,3.113,3.644,4.605c1.726,2.125,3.502,4.311,5.096,6.619c-8.473-4.432-14.069-13.083-19.034-20.758
		c-0.362-0.56-0.722-1.116-1.08-1.667c-3.254-5.009-6.141-9.044-9.084-12.694c-1.035-1.307-2.148-2.603-3.224-3.856
		c-2.347-2.733-4.774-5.558-6.577-8.713c-2.493-4.143-4.601-8.943-6.444-14.673c-1.655-5.174-2.893-10.443-3.984-15.371
		c-0.372-1.588-0.724-3.214-1.064-4.785c-1.283-5.925-2.61-12.051-5.305-17.58c-1.044-2.025-2.258-3.634-3.609-4.785l-0.534-0.454
		l-0.088,0.695c-0.165,1.303-0.258,2.564-0.357,3.899c-0.113,1.524-0.229,3.092-0.461,4.726c-2.52-4.733-2.576-11.026-0.104-17.074
		c1.557-3.811,4.09-7.038,6.539-10.158c1.225-1.56,2.491-3.174,3.61-4.829c3.317-4.8,5.291-10.188,5.866-15.999
		c0.381-2.735,1.18-13.583-1.863-16.679c-0.643-0.654-1.418-0.931-2.331-0.818C92.52,7.718,81.838,24.154,79.548,28.158
		c-1.495,2.819-2.69,5.697-3.845,8.481c-3.227,7.774-6.285,15.141-15.231,19.074c1.45-1.526,2.856-3.049,4.179-4.629l0.659-0.787
		l-1.013,0.171c-6.654,1.12-12.73,4.346-17.102,9.076c-1.087,1.126-1.921,2.336-2.805,3.616c-0.587,0.85-1.194,1.729-1.919,2.656
		c-3.563,4.327-8.026,7.617-12.29,10.615c-3.097,2.156-6.318,4.193-9.433,6.164c-3.474,2.197-7.066,4.469-10.482,6.905
		c-1.279,0.939-2.63,1.959-3.844,3.059l-0.204,0.185l0.112,0.251c0.858,1.916,1.316,5.136-1.376,9.6l-0.112,0.187l0.105,0.191
		c3.118,5.685,9.439,8.823,16.097,7.989c3.04-0.311,5.734-1.27,8.586-2.286c1.675-0.596,3.398-1.21,5.198-1.678
		c-1.424,1.711-3.275,3.173-5.515,4.358c-1.51,0.795-3.133,1.435-4.825,1.902l-1.838,0.507l1.893,0.234
		c7.624,0.942,17.891-4.672,21.249-6.509c3.931-1.921,8.385-2.601,12.693-3.258c3.094-0.472,6.016-0.918,8.737-1.785
		c4.842-1.345,8.51-4.481,11.175-9.566c-0.2,3.958-2.581,7.777-6.253,9.832c-3.552,1.988-7.536,3.031-10.61,3.717
		c-1.442,0.322-2.919,0.608-4.348,0.885l-1.249,0.243c-0.27,0.053-0.529,0.094-0.772,0.132c-0.889,0.141-1.657,0.262-1.999,0.85
		c-0.053,0.09-0.092,0.188-0.12,0.293c-0.05-0.104-0.101-0.21-0.152-0.315l-0.08,0.039c-0.068-0.119-0.136-0.241-0.204-0.358
		c0,0,0.326,2.87,0.837,4.132c0.839,2.072,1.696,4.202,2.428,6.251l-0.044,0.01c4.274,19.118,3.514,35.979-2.258,50.113
		c-4.049,9.917-3.976,28.12-3.975,28.303l0.007,1.001l3.911-4.49c2.189,13.63,9.816,21.338,10.382,21.894l0.425,0.711l0.249-0.826
		c0.67-2.217,1.205-4.285,1.637-6.322c0.839-3.96,1.316-7.612,1.453-11.121c1.646,3.02,1.907,7.048,0.831,12.535
		c-2.095,10.683-6.813,20.57-11.376,30.133c-0.794,1.664-1.589,3.329-2.371,5c-5.594,11.947-6.001,26.268-1.129,39.33
		c-0.529,0.576-0.815,1.302-0.848,2.164c-0.18,4.666,7.072,12.31,10.169,15.574c0.226,0.239,0.425,0.448,0.591,0.625
		c0.843,0.901,1.939,1.883,3.18,1.883c0.177,0,0.358-0.02,0.541-0.064c1.678-0.398,2.28-2.41,2.131-4.228
		c-0.021-0.26-0.05-0.524-0.078-0.79c-0.134-1.248-0.272-2.537,0.365-3.498c0.171-0.258,0.396-0.486,0.633-0.727
		c0.168-0.171,0.342-0.348,0.502-0.542c1.392-1.689,1.471-4.241,0.235-7.586c-0.748-2.025-1.674-4.007-2.57-5.923
		c-0.788-1.686-1.603-3.43-2.288-5.187c-0.787-2.018-1.326-3.899-1.618-5.66l0.035-6.045l-0.75-0.078
		c-0.389,1.911-0.405,3.96-0.043,6.183l-0.008,1.483c-0.88-2.638-1.734-5.79-2.007-9.133c-1.196-13.492,8.231-25.102,15.426-32.66
		c4.52-4.722,9.742-8.767,13.79-11.765c0.51-0.384,1.02-0.765,1.528-1.143c3.07-2.288,5.97-4.45,8.511-7.186
		c5.497-5.639,5.295-13.843,4.158-19.727c-0.369-2.069-0.861-4.154-1.336-6.171c-0.76-3.223-1.543-6.543-1.848-9.904
		c2.783,4.068,4.625,8.94,5.913,15.58c1.516,7.503,0.946,13.706-1.695,18.437c-1.376,2.482-3.369,4.837-6.094,7.199
		c-2.273,1.961-4.66,3.783-6.967,5.545c-1.32,1.008-2.685,2.05-4.008,3.103c-1.047,0.829-2.063,1.671-3.024,2.506
		c-1.942,1.726-3.779,3.457-5.463,5.144l-0.285,0.285l0.302,0.266c4.605,4.059,20.025,19.037,25.091,41.358
		c0.48,2.093,1.03,4.999,1.668,8.365l0.12,0.635c1.055,5.62,2.499,13.316,3.879,18.224l0.253,0.898l2.574-4.745l0.968,3.171
		c0.045,0.146,1.124,3.629,3.012,8.173l0.629,1.513l0.844-13.911l2.25,7.345c4.18,13.599,13.548,21.017,18.76,24.228l0.866,0.533
		l-0.306-0.97c-0.105-0.335-0.204-0.669-0.313-1.04c-2.674-8.912-2.674-18.614-0.001-28.057c1.08-3.814,2.576-7.536,4.447-11.065
		c0.656-1.237,1.341-2.419,2.036-3.511c0.065-0.102,0.227-0.301,0.399-0.513c0.661-0.81,1.093-1.374,1.084-1.802
		c-0.071-3.583,0.471-7.518,1.609-11.688c1.58-5.35,4.358-10.844,8.262-16.334c3.893-5.641,8.403-9.874,13.411-12.581
		c8.926-5.027,24.16-6.438,34.072-0.328c-1.523-0.109-3.035-0.243-4.508-0.374c-5.893-0.523-11.459-1.017-17.314-0.017
		c-13.052,1.959-22.794,10.394-28.957,25.071c-3.862,9.21-4.181,18.765-3.847,27.068c-0.934-1.63-1.634-3.446-2.086-5.417
		l-0.743,0.134c-0.016,0.266-0.676,1.289-0.994,1.78c-0.218,0.338-0.39,0.604-0.476,0.773c-0.678,1.332-1.251,2.57-1.752,3.784
		c-1.099,2.661-1.976,5.446-2.608,8.277c-2.195,9.84-1.361,19.911,2.414,29.125c9.214,22.493,30.487,35.711,36.788,39.225
		l0.753,0.42l-0.2-0.839c-1.717-7.2-3.822-14.575-6.263-21.953c2.898,3.91,4.718,8.498,6.13,12.567
		c1.574,4.733,2.999,9.809,4.358,15.52c1.529,6.433,14.394,63.419-4.461,82.995c-2.723,2.667-6.772,4.012-10.28,3.515
		c2.43-0.829,4.385-1.89,6.074-3.286l1.18-0.975l-1.499,0.313c-12.095,2.523-29.395-0.579-31.328-0.941
		c-15.351-2.881-28.338-3.851-38.566-2.888l-5.109-0.594L90.651,457.4l-5.37,5.477l-9.605,4.697l-2.959,8.164l44.838-0.778
		l0.113-0.002l1.764-1.198c20.054,0.228,36.434,0.314,50.077,0.264c11.503-0.069,21.874-0.171,32.314-0.721
		c0.814-0.066,1.632-0.118,2.45-0.169c2.666-0.168,5.424-0.341,8.008-1.04l0.097-0.026l0.071-0.07
		c3.878-3.842,1.664-9.634-0.289-14.743c-0.394-1.031-0.766-2.005-1.096-2.97c-2.158-5.843-3.506-11.056-4.12-15.943
		c-0.599-4.309-0.555-9.095-0.47-12.32c0.445-18.861,3.197-36.413,8.182-52.17c1.374-4.325,3.089-9.203,6.176-13.249
		c-0.034,0.138-0.068,0.276-0.102,0.415c-0.166,0.664-0.34,1.317-0.519,1.984l-0.013,0.041c-0.091,0.338-0.185,0.677-0.282,1.016
		l-0.25,0.869c-0.702,2.394-1.481,4.786-2.233,7.1c-0.265,0.815-0.53,1.631-0.793,2.449c-0.059,0.181-0.111,0.373-0.162,0.566
		l-0.132,0.497l0.514-0.021c6.061-0.254,12.048-1.238,17.801-2.926c1.872-0.59,3.686-1.246,5.441-1.882
		c1.603-0.58,3.25-1.176,4.967-1.731c-1.644,1.682-3.586,3.13-5.683,4.23c-0.691,0.36-1.43,0.716-2.257,1.089l-0.382,0.172
		l0.21,0.363c25.15,43.328,43.565,67.965,74.424,82.374c15.587,7.278,34.443,11.985,59.341,14.812
		c23.172,2.631,51.922,3.731,93.221,3.57c0.382-0.009,1.143,0.011,2.106,0.034l0.334,0.008c3.009,0.066,5.7,0.099,8.071,0.099
		c6.132,0,10.113-0.22,11.872-0.66l0.495-0.124L486.562,474.507z M83.603,50.473c1.586-3.774,3.888-7.555,6.839-11.233
		c1.258-1.514,2.576-3.189,3.695-5.169c2.133-3.673,3.561-7.774,4.13-11.859c0.284-1.962,0.372-4.623-0.233-6.204l-0.149-0.39
		l-0.374,0.186c-1.075,0.535-1.96,1.436-2.824,2.315c-2.673,2.866-5.098,6.379-7.206,10.441c-1.006,1.915-1.731,3.829-2.511,5.885
		c-1.345,3.521-2.93,7.34-4.988,12.017l-0.447,1.003c-1.376,3.094-2.792,6.279-4.884,9.027c0.74-2.776,1.83-5.363,2.975-8.077
		c0.351-0.833,0.703-1.668,1.042-2.503c1.135-2.619,2.135-5.337,3.102-7.967c1.246-3.388,2.534-6.892,4.125-10.209
		c1.323-2.862,8.148-13.886,11.997-13.886c0.014,0,0.029,0,0.043,0c0.822,0.018,1.452,0.581,1.925,1.72
		c1.603,6.113-1.12,14.022-4.206,19.387c-0.926,1.588-2.213,3.326-3.94,5.318c-2.936,3.495-5.244,7.108-6.86,10.739
		c-1.627,3.726-2.616,6.89-3.095,9.955C81.407,57.89,82.023,54.37,83.603,50.473z"/>
	<g>
		<path fill="#FFCEA6" d="M251.737,336.937c-7.711,5.605-19.438,13.007-32.289,12.594c-16.854-0.545-34.795-11.741-41.732-26.043
			l-0.581-1.198l-0.136,1.325c-0.009,0.091-0.835,8.775,4.094,15.753c-10.291-2.745-19.484-9.612-25.346-18.972
			c-2.633-4.21-4.47-8.878-5.461-13.873c-0.106-0.525-2.58-12.936-0.694-19.289l0.487-1.64l-1.134,1.281
			c-0.102,0.116-2.505,2.861-3.048,6.044c-0.074,0.172-0.146,0.346-0.215,0.519c-0.1,0.238-0.199,0.483-0.294,0.726
			c-0.092,0.23-0.184,0.464-0.271,0.698c-0.214,0.555-0.426,1.143-0.63,1.749l-0.204,0.608c-0.031,0.089-0.059,0.177-0.086,0.264
			l-0.023,0.071c-0.118,0.374-0.236,0.755-0.339,1.109c-0.016,0.041-0.026,0.078-0.032,0.111c-0.048,0.153-0.093,0.306-0.13,0.449
			c-0.066,0.213-0.124,0.431-0.181,0.647c-0.053,0.189-0.102,0.38-0.151,0.571l-0.068,0.262c-0.077,0.298-0.149,0.601-0.217,0.903
			c-0.073,0.303-0.142,0.613-0.206,0.921c-0.057,0.264-0.111,0.532-0.164,0.802c-0.061,0.31-0.123,0.624-0.176,0.941
			c-0.031,0.177-0.061,0.358-0.087,0.529c-0.035,0.199-0.07,0.397-0.096,0.593c-0.05,0.329-0.099,0.658-0.141,0.988
			c-0.046,0.352-0.092,0.703-0.13,1.062c-0.019,0.181-0.039,0.362-0.053,0.541c-0.027,0.273-0.054,0.55-0.072,0.819
			c-0.023,0.235-0.039,0.474-0.054,0.711c-0.023,0.321-0.038,0.646-0.053,0.972c-0.015,0.28-0.023,0.564-0.031,0.841
			c-0.008,0.183-0.012,0.371-0.012,0.548c-0.106,6.454,1.125,12.861,3.657,19.042c9.214,22.493,30.487,35.711,36.788,39.225
			l0.753,0.42l-0.2-0.839c-1.717-7.199-3.822-14.575-6.263-21.953c2.898,3.911,4.718,8.498,6.13,12.567
			c1.574,4.733,2.999,9.809,4.358,15.52c1.529,6.433,14.394,63.419-4.461,82.995c-2.723,2.667-6.772,4.012-10.28,3.515
			c2.43-0.829,4.385-1.89,6.074-3.286l1.18-0.975l-1.499,0.313c-12.095,2.523-29.395-0.579-31.328-0.941
			c-15.37-2.885-28.369-3.854-38.605-2.885l-0.076,0.008c-0.395,0.081-9.674,2.025-9.904,5.027c-0.095,1.24,1.223,2.351,4.031,3.395
			l7.706,1.856c-0.443,0.564-0.988,1.54-0.603,2.608c0.778,2.159,5.009,3.415,12.584,3.738l-3.719,2.524l1.208,0.014
			c16.434,0.187,30.401,0.279,42.419,0.279c2.687,0,5.279-0.004,7.777-0.014c11.503-0.069,21.874-0.17,32.314-0.721
			c0.814-0.066,1.632-0.118,2.45-0.169c2.666-0.168,5.424-0.341,8.008-1.039l0.097-0.026l0.071-0.071
			c3.878-3.842,1.664-9.633-0.289-14.743c-0.394-1.031-0.766-2.005-1.096-2.97c-2.158-5.843-3.506-11.056-4.12-15.943
			c-0.599-4.309-0.555-9.095-0.47-12.32c0.445-18.861,3.197-36.413,8.182-52.17c1.374-4.325,3.089-9.203,6.176-13.249
			c-0.034,0.138-0.068,0.276-0.102,0.415c-0.166,0.664-0.339,1.317-0.519,1.984l-0.013,0.041c-0.091,0.338-0.185,0.677-0.282,1.016
			l-0.25,0.87c-0.807,2.776-1.7,5.526-2.563,8.185c-0.21,0.647-0.417,1.284-0.619,1.91l-0.638,1.98l1.268-1.593
			c0.155-0.078,0.72-0.227,1.316-0.384c3.03-0.8,10.128-2.672,17.168-8.128c8.787-6.81,14.417-16.764,16.735-29.586l0.168-0.928
			L251.737,336.937z"/>
		<path fill="#FFCEA6" d="M60.95,100.362c-0.83,0.039-1.666,0.07-2.503,0.1c-5.139,0.187-10.453,0.38-15.121,2.643l-0.004,0.002
			c-3.391,1.696-7.595,2.891-7.659,2.91c-1.999,0.702-4.706,2.174-7.323,3.599c-2.216,1.206-4.31,2.345-5.931,3.007l-0.512,0.209
			l0.38,0.402c1.151,1.216,3.58,2.303,5.589,2.303c0.34,0,0.669-0.031,0.977-0.098c4.156-0.905,8.059-2.642,11.833-4.322
			c3.822-1.701,7.775-3.46,11.955-4.329c1.73-0.36,3.514-0.634,5.24-0.9c2.91-0.448,5.919-0.911,8.79-1.798
			c4.331-1.339,11.284-6.303,12.451-12.704l0.232-1.274l-0.882,0.948C73.602,96.28,66.402,100.105,60.95,100.362z"/>
		<path fill="#FFCEA6" d="M75.53,182.085l-0.609,0.937c-0.042,0.065-4.078,6.232-8.074,8.486c0.829-6.943,2.731-13.759,4.573-20.358
			l0.475-1.706c3.345-12.024,1.695-21.129,1.678-21.219l-0.264-1.399l-0.467,1.345c-0.026,0.074-2.492,7.086-6.757,11.485
			c0.739-8.517,1.008-17.131,0.797-25.619c-0.177-7.462-0.771-15.342-3.895-22.411l-0.273-0.621
			c-0.744-1.701-1.386-3.169-2.337-4.202l-0.142-0.154l-1.6,0.3c-0.853,0.159-1.699,0.318-2.531,0.482
			c-0.418,0.084-0.832,0.167-1.246,0.254l-0.066,0.014c-0.27,0.057-0.542,0.114-0.798,0.176c-0.221,0.046,12.921,27.75,7.168,49.167
			c-5.225,19.452-7.236,29.218-7.236,29.218l2.819-3.874c0.188,4.41,2.126,23.848,8.321,30.815c0.344,0.387,1.492-5.62,1.759-7
			c0.62-3.206,0.896-5.908,0.852-8.382c1.228,2.138,1.493,4.974,1.478,7.125c-0.02,2.883-0.622,5.687-1.209,8.05
			c-2.374,9.563-6.34,18.454-9.53,25.132l0.645,0.389c2.622-3.516,5.607-7.672,7.846-12.499c1.868-4.027,3.447-8.328,4.828-13.147
			c3.275-11.429,4.544-21.134,3.879-29.67L75.53,182.085z"/>
		<path fill="#FFCEA6" d="M107.575,283.17c1.12,5.956,2.513,13.368,3.878,18.224l0.252,0.898l2.575-4.745l0.965,3.161
			c0.008,0.03,1.097,3.569,3.015,8.179l0.629,1.511l0.843-13.908l2.252,7.346c4.181,13.602,13.548,21.017,18.759,24.226l0.862,0.531
			l-0.302-0.966c-1.259-4.029-2.01-8.159-2.234-12.276l-0.005-0.097l-0.051-0.082c-0.464-0.749-1.086-1.367-1.687-1.964l-0.22-0.219
			c-9.949-10.027-14.392-24.857-11.594-38.703l-0.721-0.222c-1.041,2.482-3.457,4.344-6.11,4.756
			c1.178-8.429-0.721-17.354-5.242-24.566l-0.816-1.301l0.117,1.531c0.223,2.913-1.058,7.782-1.841,10.423
			c-0.489-4.134-2.43-14.445-10.072-27.273c-1.013-1.7-3.798-5.103-6.068-7.72c-4.723-5.448-5.193-5.4-5.395-5.384l-0.112,0.011
			l-0.088,0.07c-1.091,0.864-2.079,1.682-3.024,2.504c-1.956,1.738-3.795,3.47-5.465,5.146l-0.284,0.286l0.302,0.266
			c4.606,4.059,20.028,19.036,25.093,41.357C106.295,276.389,106.887,279.524,107.575,283.17z"/>
		<path fill="#FFCEA6" d="M220.005,330.601c0.362,0,0.724-0.006,1.086-0.018c10.455-0.356,22.094-7.161,23.474-17.93l0.132-1.032
			l-0.765,0.706c-3.634,3.355-9.202,4.822-16.541,4.357c-2.921-0.185-6.657-0.651-9.646-2.643c-2.996-1.996-4.626-5.445-3.964-8.386
			c0.371-1.649,1.652-3.127,3.344-3.858c1.39-0.601,2.834-0.568,3.967,0.088c0.55,0.502,0.793,1.31,0.649,2.172
			c-0.146,0.875-0.651,1.568-1.351,1.856l-1.246,0.512l1.33,0.213c5.122,0.819,10.92,1.416,14.915-1.883
			c2.896-2.391,4.107-6.703,2.88-10.252c-0.888-2.568-3.027-4.661-5.563-5.657c7.625-0.875,12.128-5.765,13.28-10.696
			c1.531-6.555-2.282-13.019-9.715-16.468c-13.273-6.159-29.974-3.509-40.615,6.442c-5.146,4.812-8.869,11.456-10.486,18.708
			c-1.619,7.264-1.057,14.854,1.58,21.372C192.059,321.326,205.92,330.602,220.005,330.601z"/>
	</g>
	<g>
		<path fill="#AD704E" d="M58.862,79.071c0.505-1.29,0.658-2.698,0.447-4.081c0.815-1.566,2.192-2.397,2.206-2.406l1.94-1.154
			l-2.21,0.457c-1.05,0.217-2.178,0.091-3.354-0.376c-0.894-1.238-2.115-2.184-3.536-2.74c-1.976-0.773-4.137-0.731-6.083,0.121
			c-1.946,0.851-3.443,2.409-4.216,4.386c-0.608,1.553-0.71,3.224-0.298,4.842c-0.511,1.069-1.317,1.594-1.325,1.599l-1.983,1.249
			l2.276-0.561c0.686-0.169,1.371-0.154,2.039,0.044c0.909,1.431,2.219,2.511,3.797,3.127c0.926,0.363,1.898,0.547,2.888,0.547
			C54.701,84.124,57.679,82.094,58.862,79.071z"/>
		<path fill="#AD704E" d="M77.34,48.236c-0.236,0.56-0.555,1.254-0.893,1.988c-1.129,2.451-2.534,5.501-2.681,7.471l-0.05,0.667
			l0.597-0.3c2.347-1.178,6.34-7.465,7.23-9.935c1.998-5.54,8.908-23.887,13.954-27.431c0.157-0.111,0.31-0.047,0.368-0.014
			c0.104,0.059,0.212,0.185,0.201,0.363c-0.468,7.403-4.755,13.652-8.537,19.165c-3.61,5.263-6.729,9.808-6.002,14.302l0.128,0.793
			l0.53-0.603c3.65-4.155,11.289-16.568,14.038-21.711c2.11-3.947,4.406-10.018,3.36-16.527c-0.084-0.523-0.235-1.102-0.716-1.429
			c-0.381-0.259-0.844-0.263-1.157-0.244c-1.197,0.072-2.34,0.603-3.22,1.496c-6.463,6.559-10.051,15.082-13.522,23.325
			L77.34,48.236z"/>
		<path fill="#AD704E" d="M486.268,474.323c-6.507-0.559-7.8-0.587-14.978-0.744c-8.688-0.19-24.859-0.543-67.264-2.145
			c-91.954-3.474-115.989-26.933-139.905-59.695c-9.241-12.66-13.834-20.132-16.872-25.076c-3.551-5.778-5.172-8.415-9.718-12.31
			l-1.088-0.932l0.485,1.348c0.051,0.142,5.223,14.366,14.722,27.866c13.359,18.99,34.285,41.178,46.645,49.463
			c10.658,7.143,21.14,12.751,37.654,16.901c18.378,4.619,42.713,7.023,76.583,7.567c13.076,0.21,23.839,0.297,32.707,0.297
			c37.732,0,41.065-1.574,41.312-1.955l0.344-0.53L486.268,474.323z"/>
		<path fill="#AD704E" d="M66.486,47.745v1.718l1.338-1.957c0.948-1.389,1.741-2.74,2.423-4.132c1.18-2.416,2.146-4.985,3.08-7.469
			c1.134-3.015,2.306-6.133,3.873-9.013c1.236-2.356,2.74-4.567,4.181-6.604l0.239-0.338l-0.166-0.377
			C76.387,7.931,69.802,1.955,66.36,2.905c-1.121,0.306-4.629,2.355-2.733,15.859c2.178,15.497-0.679,24.247-3.46,28.857
			l-0.935,1.547l1.749-0.461C62.821,48.222,64.671,47.898,66.486,47.745z"/>
		<path fill="#AD704E" d="M215.343,467.973l-0.283,0.206c-5.313,3.878-59.055,3.642-93.702,2.263
			c-30.735-1.224-46.197,1.945-46.349,1.977l-2.66,0.56l2.712,0.188c0.619,0.043,56.039,3.849,94.989,3.849
			c4.435,0,8.664-0.05,12.567-0.159c25.356-0.715,32.038-3.936,33.178-6.512c0.533-1.203-0.193-2.07-0.224-2.107L215.343,467.973z"
			/>
		<path fill="#AD704E" d="M185.095,373.677l0.925,0.322l-4.064-7.485l-0.089-0.053c-29.055-17.317-36.29-37.909-37.244-52.134
			c-1.034-15.423,4.88-26.911,4.94-27.025l0.626-1.195l-1.156,0.694c-3.149,1.89-6.03,7.443-7.519,14.493
			c-3.019,14.289,0.329,30.131,8.956,42.376C167.03,367.176,184.916,373.615,185.095,373.677z"/>
		<path fill="#AD704E" d="M248.667,367.291l-2.446,0.534c-0.234,0.051-23.517,5.118-29.389,5.221l-0.246,0.004l-1.849,4.344
			l0.502,0.06c0.858,0.102,1.743,0.15,2.647,0.15c12.407,0,28.429-8.982,28.601-9.079L248.667,367.291z"/>
		<path fill="#AD704E" d="M81.141,232.205l-0.397-0.239l-0.784,2.2l0.137,0.166c0.124,0.149,12.398,14.997,15.814,20.089
			c3.419,5.095,7.775,16.239,9.115,26.856c1.35,10.704,6.138,21.843,6.186,21.955l0.129,0.298l2.373-0.621l4.689,8.137l3.01-2.207
			c5.207,12.255,20.413,21.326,20.568,21.418l0.774,0.456l-1.264-5.156l-0.132-0.081c-14.723-9.104-21.451-30.984-21.517-31.204
			l-0.404-1.341l-1.995,8.306l-2.941-5.211l-2.106,1.468c-0.564-2.809-1.048-5.699-1.558-8.75
			c-2.016-12.046-4.301-25.698-12.625-38.391C89.798,237.519,81.227,232.257,81.141,232.205z"/>
		<path fill="#AD704E" d="M63.815,262.976l3.29-17.496l21.603-22.935l14.328-11.663l4.938-15.023l-5.985-18.31
			c0,0,5.802,24.956-4.57,33.86c-4.267,3.663-16.838,9.388-30.258,27.813c-9.519,13.069-9.362,25.459-7.555,33.551
			c1.25,5.597,3.445,9.969,4.879,12.413l-1.437-1.222v5.356l-2.504-2.01l-1.138,4.269l-3.995-3.333l0.268,6.156l9.536,10.417
			l4.555-1.571l2.147-6.964l-0.861-8.561L63.815,262.976z"/>
	</g>
	<g>
		<path fill="#FFFFFF" d="M88.708,63.289c3.427,6.076,5.033,11.855,10.01,35.937c6.113,29.58,15.536,28.698,25.928,45.675
			c13.807,22.557,24.815,23.945,24.815,23.945l-15.562-19.182l-10.541-13.352l-10.775-12.415l-7.496-16.838L95.015,69.744
			l-3.982-6.455H88.708z"/>
		<path fill="#FFFFFF" d="M137.248,152.664c0,0-3.412,0.524,40.889,23.297c43.703,22.465,63.264,44.309,73.279,57.576
			c8.882,11.766,42.759,47.491,16.473,113.479c0,0,19.008-24.599,12.795-65.483c-6.213-40.884-54.713-80.165-54.713-80.165
			S175.586,164.485,137.248,152.664z"/>
		<path fill="#FFFFFF" d="M278.34,330.134c0,0,1.332,64.344,39.881,98.974c37.168,33.388,94.293,38.943,138.555,41.36
			c7.931,0.433,21.416,1.103,29.459,4.233c0,0,6.744-4.121-32.081-8.213c-35.369-3.728-63.565-3.724-92.575-16.686
			C327.816,434.716,299.357,426.768,278.34,330.134z"/>
		<path fill="#FFFFFF" d="M87.243,462.728c0,0,14.284-7.817,34.663-6.177s45.021,8.14,56.191,2.236l-2.884-1.102
			c0,0-24.595-0.586-39.938-3.982s-40.172-0.351-46.496,5.505S87.243,462.728,87.243,462.728z"/>
		<path fill="#FFFFFF" d="M75.087,472.79c0,0,8.218-5.197,23.287-7.769C98.373,465.02,77.91,462.109,75.087,472.79z"/>
		<path fill="#FFFFFF" d="M76.327,35.975c0,0,16.498-26.364,22.46-26.871c5.961-0.507,1.893,22.432,0.117,28.013
			s4.059-3.551,4.059-3.551S110.175,9.593,99.466,4.9l-7.411,3.932L80.259,24.306L76.327,35.975z"/>
		<path fill="#FFFFFF" d="M6.678,92.838c0,0,25.729-14.457,34.077-22.471c7.909-7.592,7.503-13.557,23.605-19.525
			c0,0-9.693-0.399-14.384,4.195s-8.55,10.475-8.55,10.475L18.82,81.88L6.678,92.838z"/>
		<circle fill="#FFFFFF" cx="51.538" cy="76.43" r="5.45"/>
		<path fill="#FFFFFF" d="M206.311,240.71c0,0-48.414-9.428-54.627,51.747c0,0-5.645-38.686,23.617-51.446
			C175.302,241.012,192.386,234.155,206.311,240.71z"/>
		<path fill="#FFFFFF" d="M220.833,360.602c0,0-26.631,47.967-14.001,89.326c1.613,5.281,8.739,18.311,8.739,18.311
			s-11.583-33.19-7.731-59.347C211.378,384.869,220.833,360.602,220.833,360.602z"/>
		<path fill="#FFFFFF" d="M65.501,222.397c0,0-14.459,28.899-13.265,46.167c1.275,18.44,12.931,33.733,12.931,33.733
			s-18.353-11.935-16.817-37.88S63.592,228.236,65.501,222.397z"/>
	</g>
	<path fill="#231F20" d="M56.791,72.479c-0.701-1-1.692-1.813-2.912-2.29c-1.598-0.625-3.346-0.59-4.918,0.097
		c-1.573,0.688-2.784,1.948-3.409,3.546c-0.51,1.303-0.574,2.702-0.211,4.027c-0.478,1.086-1.295,1.595-1.295,1.595
		c0.786-0.194,1.472-0.103,2.018,0.078c0.727,1.19,1.81,2.111,3.131,2.627c0.767,0.301,1.557,0.442,2.335,0.442
		c2.57,0,5.001-1.552,5.993-4.085v-0.001c0.438-1.121,0.532-2.291,0.345-3.399c0.739-1.497,2.043-2.267,2.043-2.267
		C58.748,73.09,57.649,72.833,56.791,72.479z M55.547,77.744c-0.419,1.07-1.231,1.914-2.284,2.375
		c-0.737,0.322-1.53,0.425-2.307,0.318c1.182-0.211,2.231-1.011,2.7-2.212c0.041-0.106,0.078-0.209,0.11-0.319
		c-0.526,0.236-1.144,0.268-1.722,0.042c-1.142-0.447-1.708-1.734-1.261-2.877c0.238-0.608,0.712-1.05,1.28-1.266
		c-0.134-0.075-0.279-0.143-0.428-0.202c-1.545-0.605-3.252-0.054-4.182,1.227c0.025-0.075,0.047-0.151,0.076-0.225
		c0.419-1.07,1.23-1.914,2.283-2.375c0.553-0.242,1.139-0.363,1.725-0.363c0.53,0,1.061,0.1,1.569,0.298
		C55.316,73.03,56.411,75.532,55.547,77.744z M85.205,51.168c-1.684,3.849-3.021,7.847-3.34,12.206
		c-1.288-4.288-0.255-8.993,1.387-13.048c1.726-4.111,4.132-7.883,6.899-11.328c1.394-1.677,2.604-3.255,3.658-5.116
		c2.087-3.595,3.51-7.621,4.083-11.725c0.269-1.861,0.368-4.5-0.212-6.014c-1.012,0.502-1.847,1.352-2.717,2.236
		c-2.837,3.043-5.222,6.651-7.147,10.359c-0.998,1.903-1.719,3.807-2.491,5.845c-1.55,4.054-3.248,8.059-4.996,12.036
		c-1.79,3.991-3.46,8.052-6.425,11.378c0.906-4.33,2.774-8.187,4.415-12.234c2.597-5.986,4.401-12.284,7.231-18.185
		c1.408-3.05,11.534-19.763,14.668-12.128c1.649,6.234-1.132,14.3-4.238,19.699c-1.104,1.896-2.569,3.75-3.977,5.37
		C89.281,43.767,86.918,47.319,85.205,51.168z M465.539,465.487c-143.18-7.019-171.83-47.861-184.701-142.805
		c2.491-8.887,3.481-18.277,3.191-26.549c-0.156-6.064-0.998-12.156-2.399-18.057l-1.09-4.429c-0.509-1.55-1.535-4.995-2.073-6.51
		c-0.821-2.052-1.649-4.323-2.491-6.354c-0.63-1.366-2.229-4.868-2.852-6.191c-0.679-1.281-2.505-4.691-3.205-6.014
		c-18.885-32.797-49.991-56.67-82.646-74.735c-6.552-3.559-13.324-6.878-20.074-10.069c-9.34-4.281-19.26-7.939-27.737-13.713
		c-3.354-2.257-6.496-4.84-9.199-7.783c-2.745-3.934-5.689-7.762-8.767-11.434c-3.304-4.033-7.012-7.621-9.616-12.156
		c-8.116-13.55-9.51-29.605-13.77-44.613c-1.642-5.271-3.602-10.883-8.484-14.251c0,0-0.269,0.41-0.418,0.637
		c0.028-0.127,0.05-0.255,0.078-0.389c1.734-7.118,6.955-11.859,11.123-18.397c1.663-2.611,3.127-5.42,4.146-8.392
		c2.406-6.616,5.137-26.273-2.611-29.86c-6.481-2.561-14.329,7.295-18.758,13.182C77.903,5.402,70.898-1.242,65.619,0.194
		C62.35,1.093,58.876,5.105,60.85,19.15c3.587,25.516-7.019,31.353-7.125,31.41l0.064,0.134c-0.828,0.425-1.656,0.87-2.455,1.359
		c-2.384,1.479-4.536,3.319-6.46,5.356c-1.939,1.995-3.432,4.642-4.861,6.425c-3.219,3.92-7.451,7.069-11.633,9.998
		c-4.302,2.986-8.802,5.746-13.281,8.618c-4.571,3.184-15.362,9.029-15.093,15.263c0.375,4.246,2.448,8.208,5.371,11.265
		c3.283,3.524,7.564,5.208,12.015,5.448c4.734,4.302,12.199,3.411,17.782,1.663c3.644-1.132,7.019-2.724,10.317-4.543
		c1.139-0.672,2.363-1.309,3.63-1.833c3.304,7.536,12.057,30.377,5.852,48.788c-7.847,23.308-7.246,40.304-7.217,41.012l0.241,5.724
		l5.158-8.272c1.097,6.007,3.764,16.09,9.807,22.07c-3.021,8.626-7.232,16.826-11.35,25.041
		c-7.713,16.133-5.852,35.853,3.276,50.974c3.12,5.102,6.878,9.864,12.064,13.112c1.182,0.856,3.007,0.071,3.198-1.366
		c0.042-0.234,0.035-0.439,0.007-0.637l0.028,0.028c1.486-1.45,1.769-3.594,1.542-5.505c-0.156-0.984-0.418-1.925-0.743-2.837
		c1.394-0.948,2.172-2.76,2.328-4.408c0.46-4.897-1.344-9.552-2.944-13.89c-2.059-5.413-4.246-10.819-4.684-16.543
		c-0.778-10.317,5.505-20.017,12.8-27.914c3.821,3.396,19.338,18.249,24.228,39.78c0.488,2.165,1.104,5.434,1.755,8.887
		c1.642,8.668,3.495,18.496,5.363,22.65l1.465,3.255l2.257-4.147c1.04,2.852,2.682,6.956,4.826,11.187l2.951,5.823l0.623-10.324
		c6.779,13.451,17.951,19.253,20.86,20.584c11.633,27.511,39.172,40.856,40.354,41.415l0.17-0.368
		c2.484,11.229,4.168,22.621,4.889,34.134c0.729,13.26,1.564,33.723-5.859,45.752c-8.427,4.111-25.883,2.377-35.089,0.651
		c-52.411-9.836-62.94,5.13-64.73,8.937c-2.703,0.623-5.25,1.734-7.373,3.404c-2.286,1.847-3.913,4.536-4.543,7.302l-0.722,2.208
		c21.822,0.623,45.42,1.118,67.192,1.316c21.659,0.078,43.248,0.311,64.921-0.764c2.724-0.17,5.434-0.347,8.222-0.75
		c1.281-0.219,2.611-0.368,3.842-1.019c0.403-0.212,0.75-0.566,1.04-0.913c3.439-3.658,3.312-8.802,1.762-13.225
		c-0.856-2.689-1.896-5.187-2.83-7.691c-2.88-7.444-4.677-15.135-4.684-23.088c-0.057-17.251,1.811-34.622,6.404-51.272
		c6.184,0.333,12.397-0.701,18.206-2.823c25.749,44.394,43.651,68.289,74.042,83.042c30.285,14.696,72.549,20.053,155.93,19.713
		c0.41,0,1.259,0.014,2.363,0.042c3.085,0.064,5.753,0.099,8.067,0.099c10.691,0,13.748-0.693,14.909-1.833
		c0.453-0.439,0.708-1.012,0.708-1.613C490.007,466.782,465.786,465.502,465.539,465.487z M64.353,18.662
		C62.91,8.388,64.636,4.135,66.554,3.612c2.738-0.757,9.114,4.5,14.23,16.253c-1.521,2.151-3.007,4.352-4.231,6.687
		c-2.88,5.293-4.38,11.215-6.963,16.501c-0.701,1.429-1.5,2.767-2.37,4.04c0-0.078,0-0.134,0-0.134
		c-2.179,0.127-4.33,0.488-6.425,1.04C63.808,43.003,66.518,34.066,64.353,18.662z M237.286,374.641
		c0.771-0.347,1.528-0.708,2.278-1.097c2.547-1.337,4.854-3.156,6.736-5.349c-4.146,1.252-7.748,2.774-11.753,4.033
		c-5.731,1.684-11.739,2.66-17.704,2.908c0.05-0.184,0.099-0.368,0.156-0.545c1.642-5.109,3.368-10.083,4.571-15.489
		c-3.679,4.189-5.618,9.425-7.274,14.633c-5.342,16.883-7.783,34.608-8.201,52.276c-0.106,4.019-0.078,8.406,0.474,12.383
		c0.693,5.512,2.25,10.904,4.139,16.02c1.988,5.831,5.908,12.92,1.472,17.315c-3.319,0.899-6.885,0.913-10.387,1.196
		c-10.706,0.566-21.511,0.658-32.287,0.722c-29.082,0.106-64.779-0.432-94.42-0.856c1.267-2.095,3.099-3.722,5.371-4.79
		c5.569-2.639,11.788-2.378,17.916-2.979c-3.29-1.592-7.231-2.392-11.13-2.293c4.062-4.422,17.555-12.729,59.381-4.882
		c2.264,0.425,19.367,3.467,31.473,0.941c-2.052,1.698-4.444,2.823-7.309,3.644c4.069,1.217,8.937-0.29,12.022-3.311
		c16.147-16.763,9.567-62.303,4.564-83.353c-1.245-5.236-2.668-10.437-4.366-15.553c-1.769-5.095-3.934-10.225-7.522-14.336
		c2.675,7.882,5.003,15.864,6.927,23.931c-6.864-3.828-27.532-16.848-36.625-39.037c-8.073-19.706-0.785-36.426,3.439-43.644
		c0.552,2.392,1.479,4.677,2.901,6.75c-0.481-9.807-0.049-19.275,3.75-28.339c5.413-12.892,14.329-22.692,28.664-24.843
		c7.783-1.33,15.227,0.014,23.166,0.488c-9.588-6.814-25.629-6.121-35.655-0.474c-5.533,2.993-10.012,7.585-13.536,12.694
		c-3.573,5.024-6.566,10.515-8.314,16.444c-1.019,3.729-1.705,7.805-1.627,11.802c-2.505,3.432-15.071,22.317-7.635,46.092
		c-5.25-3.234-14.463-10.571-18.595-24.015l-2.866-9.347l-0.87,14.364c-1.91-4.592-2.986-8.088-3-8.137l-1.231-4.033l-2.562,4.72
		c-1.344-4.783-2.717-12.057-3.87-18.192c-0.686-3.637-1.281-6.786-1.79-9.015c-5.123-22.579-20.867-37.728-25.211-41.556
		c1.826-1.833,3.672-3.552,5.448-5.13c4.514-3.92,9.404-7.189,13.996-11.152c2.392-2.073,4.613-4.479,6.177-7.302
		c3.191-5.717,2.972-12.567,1.734-18.694c-1.167-6.014-3.014-11.838-6.757-16.812c0.304,5.965,2.25,11.647,3.283,17.449
		c1.309,6.765,0.941,14.272-4.054,19.395c-2.951,3.177-6.467,5.632-9.998,8.293c-4.804,3.559-9.609,7.387-13.833,11.802
		c-8.371,8.795-16.671,20.095-15.532,32.959c0.637,7.748,4.26,14.597,6.779,21.73c0.778,2.455,1.649,5.448,1.465,7.946
		c-0.05,0.46-0.134,0.984-0.347,1.408c-1.224-1.988-2.767-3.793-4.394-5.463c1.351,3.453,3.05,7.486,3.198,11.236
		c-0.262-0.594-0.545-1.175-0.856-1.748c-1.422-2.547-3.085-4.967-5.201-7.069c0.75,3.835,1.889,7.359,3.113,10.918
		c-2.823-2.618-5.187-5.838-7.147-9.114c-8.456-14.215-9.984-32.443-2.929-47.5c4.96-9.729,20.102-39.823,12.156-49.142
		c0.276,4.217-0.729,8.229-1.408,12.354c-0.453,2.13-1.005,4.224-1.627,6.29c-6.821-8.208-8.222-23.258-8.236-23.428l-0.46-5.279
		l-4.033,6.467c0.481-6.948,2.017-18.992,6.842-33.313c6.58-19.543-2.172-42.773-5.802-51.017
		c6.305-1.634,13.826-2.002,19.805-5.576c4.118-2.307,6.857-6.998,6.411-11.725c-2.427,5.3-6.071,9.22-11.618,10.762
		c-6.602,2.102-14.746,1.769-21.496,5.066c-5.25,2.873-14.173,7.323-21.036,6.474c1.691-0.467,3.34-1.111,4.904-1.932
		c2.448-1.295,4.649-3.021,6.297-5.314c-5.222,1.16-9.602,3.679-14.781,4.21c-6.524,0.814-12.659-2.2-15.73-7.798
		c2.859-4.734,2.215-8.13,1.401-9.949c1.167-1.061,2.491-2.066,3.814-3.035c6.453-4.599,13.338-8.491,19.904-13.062
		c4.465-3.135,8.838-6.396,12.369-10.684c1.854-2.37,2.936-4.415,4.705-6.248c4.401-4.762,10.501-7.889,16.89-8.965
		c-1.677,2.002-3.496,3.92-5.371,5.873c13.805-5.045,14.937-17.145,20.895-28.381C83.098,22.714,93.238,7.954,99.309,6.68
		c5.102-0.623,4.21,13.727,3.743,17.074c-0.573,5.774-2.54,11.116-5.802,15.836c-3.347,4.953-7.826,9.276-10.189,15.057
		c-2.434,5.958-2.731,12.942,0.665,18.334c0.594-3.453,0.587-6.545,0.984-9.694c1.429,1.217,2.583,2.859,3.517,4.67
		c3.382,6.941,4.564,14.711,6.34,22.282c1.139,5.144,2.363,10.31,3.991,15.397c1.634,5.088,3.679,10.104,6.481,14.753
		c2.646,4.635,6.545,8.463,9.828,12.609c3.262,4.047,6.227,8.3,9.064,12.666c5.661,8.703,11.619,18.645,21.532,23.18
		c-2.866-4.408-6.396-8.229-9.538-12.411c-0.927-1.231-1.804-2.498-2.675-3.771c7.458,5.229,16.083,8.979,24.305,12.687
		c42.519,19.607,87.84,49.856,108.812,93.069l1.854,3.977c0.814,1.96,1.613,4.132,2.42,6.114c0.495,1.451,1.535,4.72,2.038,6.241
		c0.368,1.422,1.274,5.003,1.613,6.361c1.635,7.854,2.321,15.885,1.854,23.888c-0.262,2.873-0.502,5.823-1.054,8.668
		c-0.219,1.231-0.524,3.113-0.821,4.295c-0.156,0.644-1.217,4.776-1.351,5.293c-0.255,0.715-0.771,2.356-1.04,3.113
		c-2.314,7.026-5.555,13.656-7.989,20.647c4.451-4.606,7.897-10.472,10.451-16.883c7.734,51.42,21.171,81.075,45.625,101.312
		c17.866,14.779,41.89,24.698,76.003,30.81c2.209,0.745,22.731,2.927,42.334,4.506c18.842,1.517,36.809,2.401,38.153,4.547
		l-64.592-4.334c6.632,5.76-0.926,7.943-6.323,7.453C303.81,470.229,279.88,448.02,237.286,374.641z M172.799,359.252
		c1.385,1.508,2.845,2.941,4.168,4.581c-0.931-0.471-1.832-0.99-2.727-1.522c-12.076-7.317-24.145-22.683-28.008-36.299
		c3.829,6.072,7.84,11.894,12.341,17.436C163.076,348.909,167.913,354.132,172.799,359.252z M192.817,241.843
		c-15.864,2.019-26.798,11.668-33.028,26.015c-1.999,4.519-3.583,9.249-5.234,14.09c0.039-5.117,1.019-10.213,2.729-15.096
		C162.374,251.928,176.536,240.105,192.817,241.843z M57.775,188.333c3.199,7.166,5.328,14.675,5.651,22.548
		C58.865,204.346,57.379,196.18,57.775,188.333z M259.378,247.59c-4.303-7.178-9.419-13.632-14.378-20.419
		c7.117,4.769,12.221,11.815,16.834,18.897c10.11,15.64,16.058,33.987,16.632,52.624c0.227,6.878-0.189,13.913-2.492,20.461
		c-0.325-4.19-0.19-8.386-0.293-12.569C275.947,285.878,270.014,265.318,259.378,247.59z"/>
</g>
</svg>
