<?xml version="1.0" encoding="utf-8"?>
<!-- Generator: Adobe Illustrator 28.3.0, SVG Export Plug-In . SVG Version: 6.00 Build 0)  -->
<svg version="1.1" id="koala" xmlns="http://www.w3.org/2000/svg" xmlns:xlink="http://www.w3.org/1999/xlink" x="0px" y="0px"
	 viewBox="0 0 285.348 490" enable-background="new 0 0 285.348 490" xml:space="preserve">
<g id="koala_00000160153645715173699630000018072771616063600534_">
	<g>
		<path fill="#A3A3A3" d="M23.931,66.153c-0.061,0.116-6.064,11.857-2.929,22.473l0.169,0.572l0.479-0.355
			c2.364-1.749,7.03-4.654,11.691-4.495c2.871,0.087,5.362,1.239,7.404,3.423c1.952,2.094,2.913,4.762,2.778,7.713
			c-0.126,2.631-1.126,5.345-2.817,7.642l-0.343,0.466l0.55,0.178c4.017,1.302,11.705,2.828,18.064-1.585l0.171-0.119l0.008-0.208
			c0.329-8.352,1.844-16.199,4.51-23.373c-1.507,13.099-2.493,29.479,0.981,45.355c2.399,10.33,6.011,19.005,11.021,26.319
			c-4.168-4.888-6.511-8.327-6.554-8.39l-0.237-0.351l-0.347,0.243c-0.027,0.019-0.499,0.352-0.925,0.753l-0.035-0.076l-0.415,0.561
			l-0.15,0.198l0.009,0.018c-0.097,0.174-0.186,0.416-0.113,0.664c3.221,11.322,9.505,20.936,18.676,28.575
			c7.275,6.059,16.356,10.884,26.992,14.339c10.886,3.54,20.958,4.88,27.521,5.382l5.231-0.001
			c6.27-0.481,15.957-1.751,26.494-5.063c17.125-5.379,39.048-17.179,46.542-42.833l0.007,0.002l0.116-0.4v-0.001c0,0,0,0,0-0.001
			l0.114-0.4l-0.134-0.038c-0.185-0.58-0.935-1.211-1.61-1.681l-0.347-0.242l-0.237,0.351c-0.044,0.065-2.629,3.859-7.202,9.145
			c6.396-9.099,9.787-19.102,11.583-27.086c2.057-9.172,2.736-18.903,2.017-28.926c-0.117-1.452-0.241-2.9-0.364-4.348
			c-0.374-4.379-0.76-8.891-0.938-13.53c1.445,2.721,2.316,5.543,2.924,7.776c1.189,5.541,1.868,11.303,2.015,17.127l0.006,0.214
			l0.177,0.121c6.376,4.344,13.991,2.815,17.962,1.517l0.549-0.18l-0.344-0.465c-1.695-2.292-2.698-5.006-2.824-7.64
			c-0.135-2.96,0.825-5.628,2.778-7.714c2.04-2.19,4.531-3.344,7.407-3.432c4.431-0.163,8.796,2.355,11.689,4.495l0.478,0.354
			l0.169-0.57c3.153-10.617-2.868-22.358-2.928-22.471l-1.451-2.777l20.711,2.566l-0.034-0.504
			c-1.163-17.043-17.176-24.2-17.857-24.496l-7.213-3.144h24.271l-0.329-0.614c-6.901-12.887-22.07-13.036-22.222-13.036h-2.895
			l1.483-2.481c3.876-6.487,9.263-11.738,13.099-15.001l0.614-0.522l-0.781-0.2c-25.332-6.472-41.624,2.132-55.999,9.723
			l-0.05,0.026c-5.862,3.089-11.399,6.006-16.894,7.463l-1.142,0.303l1.079,0.481c0.751,0.334,1.501,0.689,2.217,1.047
			c2.038,1.112,3.624,2.212,4.894,3.399c-1.753-0.374-3.563-0.794-5.689-1.32c-3.409-0.915-6.932-1.763-10.339-2.583
			c-3.341-0.805-6.796-1.636-10.152-2.533c-14.331-3.099-25.039-2.416-30.147-1.734c-2.514,0.34-5.068,0.342-7.594,0.008
			c-5.18-0.691-16.02-1.383-30.446,1.739c-3.332,0.888-6.78,1.72-10.115,2.524c-3.401,0.82-6.918,1.669-10.317,2.577
			c-2.057,0.511-3.894,0.938-5.676,1.319c1.806-1.69,4.086-3.123,7.066-4.451l1.076-0.479l-1.138-0.304
			c-5.495-1.469-11.044-4.39-16.919-7.481C58.157,8.079,41.865-0.526,16.533,5.947l-0.781,0.2l0.614,0.522
			c3.836,3.263,9.222,8.513,13.099,15.001l1.483,2.481h-2.9c-1.575,0.02-15.575,0.553-22.225,13.037L5.496,37.8h24.343l-7.278,3.144
			C21.879,41.24,5.867,48.397,4.704,65.44L4.67,65.944l20.717-2.566L23.931,66.153z M66.781,59.595
			c-0.377-2.808-1.101-8.2-1.234-9.218c-0.352-2.691-0.631-5.537-0.855-8.703l-0.023-0.329c-0.104-1.493-0.211-3.029-0.546-4.522
			c1.513,3.498,2.574,7.426,3.126,11.664C67.698,51.656,68.017,55.678,66.781,59.595z M38.342,39.542
			c0.511-0.159,1.05-0.304,1.572-0.444c0.965-0.259,1.963-0.527,2.855-0.898c0.913-0.343,1.715-0.799,2.145-1.22l0.207-0.202
			l-0.117-0.265c-0.05-0.114-0.113-0.231-0.192-0.357l-0.019-0.028c-0.567-0.76-1.148-1.52-1.732-2.282
			c-1.98-2.587-4.026-5.262-5.646-8.138c-0.897-1.48-1.653-3.567-1.089-4.986c0.289-0.727,0.922-1.229,1.842-1.483
			c0.503-0.089,0.918-0.123,1.294-0.123c0.545,0,1.008,0.072,1.537,0.154c0.302,0.047,0.622,0.096,0.973,0.136
			c5.161,0.723,9.911,2.766,13.738,5.911c1.314,1.069,2.534,2.285,3.653,3.635c-0.809-0.748-1.703-1.449-2.674-2.091
			c-3.108-2.053-6.564-3.338-10.796-4.636c-2.433-0.746-4.818-1.375-7.224-0.893l-0.306,0.061l-0.027,0.311
			c-0.367,4.189,1.59,8.5,4.984,10.982c0.223,0.163,0.452,0.319,0.68,0.475c0.578,0.394,1.125,0.765,1.567,1.247
			c0.489,0.532,0.961,1.44,0.68,2.25c-0.338,0.973-1.557,1.411-2.633,1.797c-2.437,0.874-4.747,2.072-6.866,3.559
			c-0.173,0.122-0.496,0.348-0.588,0.729c-0.108,0.447,0.161,0.842,0.29,1.032c2.27,3.338,5.262,6.19,8.71,8.317
			c-1.535-0.233-3.053-0.77-4.666-1.641c-2.127-1.297-3.862-2.478-5.209-4.84c-0.607-1.115-0.682-2.282-0.218-3.377
			C35.603,40.968,36.823,39.963,38.342,39.542z M192.982,100.953l-0.044,0.053l-0.024,0.064c-0.531,1.418-1.34,2.687-2.401,3.772
			c-2.028,2.059-4.736,3.211-7.622,3.242h-0.107c-2.845,0-5.539-1.101-7.585-3.099c-1.405-1.382-2.405-3.122-2.893-5.033
			l-0.021-0.081l-0.05-0.067c-0.633-0.837-1.665-1.849-3.219-2.434c0.951-0.416,2.208-1.196,3.219-2.63l0.045-0.064l0.019-0.076
			c0.464-1.855,1.417-3.557,2.758-4.921c2.027-2.067,4.735-3.218,7.621-3.242c0.031,0,0.065-0.003,0.107-0.008
			c2.848,0,5.542,1.104,7.585,3.107c1.145,1.121,2.038,2.519,2.583,4.041l0.062,0.113c1.055,1.375,2.713,3.056,4.969,3.946
			C196.6,98.085,194.551,99.03,192.982,100.953z M156.569,129.038c-0.022,0.136-2.32,13.609-11.244,17.439l-0.074,0.032
			l-0.057,0.057c-0.095,0.095-0.209,0.204-0.332,0.292l-0.228,0.161l0.062,0.272c1.075,4.705,3.904,10.068,11.288,8.901
			c0.703-0.141,1.386-0.328,2.047-0.51c0.406-0.111,0.814-0.223,1.255-0.333c2.44-0.764,4.601-2.771,6.021-5.519
			c-0.11,1.165-0.399,2.339-0.861,3.468c-0.958,2.395-3.415,5.269-6.533,5.918c-3.764,0.66-6.577,0.429-9.109-0.745
			c-2.483-1.238-4.419-3.229-5.756-5.92l-0.373-0.752l-0.373,0.752c-1.336,2.689-3.27,4.681-5.736,5.914
			c-2.194,1.009-4.673,1.326-7.597,0.967c-1.791-0.138-3.196-0.616-4.317-1.477c-2.617-1.776-4.313-4.832-4.61-8.128
			c1.42,2.748,3.582,4.754,6.017,5.517c3.834,1.334,7.039,1.31,9.525-0.072c2.492-1.386,4.2-4.069,5.078-7.976l0.061-0.272
			l-0.227-0.16c-0.116-0.082-0.228-0.18-0.331-0.29l-0.06-0.064l-0.08-0.034c-8.923-3.83-11.222-17.303-11.251-17.474
			c-2.726-10.766-2.156-19.477,1.693-25.891c4.05-6.75,10.542-8.775,12.065-9.169c0.797,0.247,7.591,2.552,11.942,9.72
			C158.461,110.235,159.169,118.76,156.569,129.038z M116.333,97.371c-1.544,0.584-2.58,1.595-3.219,2.432l-0.052,0.068
			l-0.021,0.082c-0.488,1.911-1.488,3.651-2.892,5.032c-2.038,1.999-4.729,3.099-7.577,3.099h-0.111
			c-2.89-0.032-5.598-1.183-7.625-3.241c-1.062-1.086-1.87-2.355-2.402-3.773l-0.024-0.064l-0.043-0.053
			c-1.568-1.922-3.616-2.867-5.001-3.315c2.268-0.891,3.921-2.573,4.968-3.948l0.06-0.11c0.567-1.561,1.438-2.92,2.592-4.043
			c2.034-2.002,4.722-3.105,7.578-3.105c0.002,0,0.004,0,0.006,0c0.034,0.004,0.061-0.006,0.096,0.007
			c2.889,0.024,5.597,1.175,7.625,3.242c1.34,1.363,2.293,3.065,2.758,4.92l0.019,0.076l0.045,0.064
			C114.123,96.175,115.381,96.955,116.333,97.371z M92.863,166.897c14.044,9.992,31.599,15.427,49.69,15.427
			c0.839,0,1.682-0.012,2.523-0.035c17.674-0.494,34.695-6.162,48.339-16.026c-11.547,9.476-28.514,19.517-47.71,18.365v-0.71
			l-0.486,0.081c-0.757,0.127-1.561,0.241-2.528,0.358c-0.977-0.118-1.783-0.232-2.533-0.358l-0.486-0.081v0.71
			c-19.093,1.146-35.984-8.785-47.527-18.216C92.385,166.573,92.621,166.737,92.863,166.897z M248.93,43.776
			c0.129-0.19,0.399-0.585,0.29-1.033c-0.092-0.381-0.414-0.607-0.588-0.729c-2.12-1.488-4.43-2.685-6.866-3.559
			c-1.076-0.386-2.296-0.824-2.634-1.797c-0.281-0.81,0.191-1.718,0.68-2.25c0.443-0.481,0.989-0.853,1.568-1.247
			c0.229-0.156,0.458-0.312,0.68-0.475c3.394-2.482,5.35-6.793,4.984-10.982l-0.027-0.311l-0.306-0.061
			c-0.586-0.117-1.169-0.169-1.754-0.169c-1.816,0-3.629,0.498-5.471,1.062c-4.232,1.297-7.688,2.582-10.796,4.636
			c-1.022,0.675-1.958,1.414-2.798,2.206c1.145-1.395,2.397-2.651,3.748-3.752c3.826-3.143,8.576-5.187,13.726-5.908
			c0.361-0.041,0.681-0.091,0.983-0.138c0.895-0.139,1.601-0.249,2.796-0.039c0.955,0.259,1.587,0.759,1.877,1.488
			c0.571,1.434-0.187,3.517-1.094,5c-1.618,2.867-3.609,5.482-5.54,8.021c-0.161,0.226-0.41,0.536-0.673,0.865
			c-0.564,0.705-1.148,1.434-1.36,1.906l-0.118,0.262l0.203,0.203c0.428,0.428,1.229,0.886,2.127,1.218
			c0.905,0.376,1.903,0.644,2.868,0.903c0.522,0.14,1.061,0.285,1.584,0.447c1.511,0.421,2.732,1.426,3.268,2.689
			c0.463,1.091,0.386,2.259-0.217,3.371c-1.35,2.38-3.085,3.556-5.194,4.835c-1.612,0.87-3.12,1.407-4.64,1.644
			C243.675,49.959,246.661,47.111,248.93,43.776z M221.29,36.679c-0.361,1.537-0.472,3.124-0.579,4.664l-0.023,0.331
			c-0.224,3.165-0.503,6.011-0.855,8.703c-0.134,1.026-0.869,6.499-1.244,9.289c-1.261-3.936-0.941-7.987-0.489-11.179v-0.005
			C218.659,44.189,219.742,40.213,221.29,36.679z"/>
		<path fill="#A3A3A3" d="M231.508,454.849c-1.064-2.59-2.532-4.906-4.245-6.697c-2.505-2.596-5.285-3.72-7.251-2.937
			c-0.848,0.329-1.522,0.959-2.063,1.926l-0.698,1.26l-1.131-0.881c-0.606-0.484-1.159-0.844-1.671-1.09l-0.077-0.043
			c-1.284-0.704-3.196-1.391-5.016-0.67c-0.765,0.302-1.417,0.822-1.997,1.592l-0.891,1.192l-1.002-1.09
			c-1.493-1.636-3.805-1.566-5.431-0.772c-1.459,0.699-3.239,2.572-3.438,4.046c-0.042,0.419-0.005,0.977,0.679,1.591l0.132,0.11
			c0.866,0.786,1.681,1.697,2.423,2.708c1.826,2.5,3.252,5.581,4.124,8.906c0.621,2.381,0.936,4.759,0.936,7.068v0.124
			c-0.008,0.396-0.024,0.776-0.039,1.121l-0.05,0.636c-0.007,0.101-0.015,0.201-0.028,0.3l-0.021,0.165l0.044,0.16
			c0.3,1.105,0.341,1.537,0.341,1.815c0,0.451-0.013,0.916-0.04,1.421l-0.079,1.482l1.304-0.712c1.742-0.952,3.21-3.316,4.026-6.487
			l0.556-2.145l1.524,1.603c2.957,3.1,6.256,4.445,8.612,3.507c1.9-0.758,2.802-2.693,3.224-4.185l0.402-1.443l1.337,0.683
			c1.04,0.531,2.587,1.043,4.05,0.475c1.626-0.65,2.39-2.353,2.746-3.685l0.012-0.046c0.397-1.532,0.468-3.417,0.207-5.455
			C232.766,458.54,232.258,456.672,231.508,454.849z"/>
		<path fill="#A3A3A3" d="M201.573,464.627c-0.79-3.026-2.078-5.822-3.728-8.09c-0.69-0.921-1.409-1.717-2.152-2.38
			c-0.013-0.011-0.027-0.025-0.046-0.044l-0.046-0.044c-1.893-1.641-3.857-2.311-5.532-1.889c-1.01,0.25-1.875,0.87-2.647,1.897
			l-0.861,1.156l-1.007-1.032c-0.542-0.559-1.131-1.065-1.751-1.502c-0.5-0.349-0.872-0.578-1.189-0.732
			c-1.564-0.85-3.05-1.105-4.416-0.759c-0.676,0.169-1.317,0.493-1.907,0.964l-0.203,0.163l-1.174,4.01l-1.481-4.166L173.34,452
			l-0.038-0.058c-1.497-1.89-3.131-2.849-4.855-2.849c-2.397,0-4.25,1.944-5.382,3.574l-1.614,4.272l-1.129-3.59l-0.291-0.161
			c-0.245-0.135-0.493-0.241-0.742-0.333l3.133-3.304c1.809-1.909,3.892-2.918,6.023-2.918c2.202,0,4.236,0.984,6.045,2.923
			l0.463,0.497l0.576-0.359c0.667-0.407,1.36-0.701,2.064-0.873c1.968-0.491,4.094-0.159,6.164,0.969
			c0.399,0.198,0.877,0.492,1.464,0.901c0.2,0.136,0.396,0.285,0.585,0.434l0.523,0.421l0.519-0.426
			c0.793-0.643,1.671-1.09,2.606-1.328c0.509-0.127,1.057-0.188,1.675-0.188h0.445l0.243-0.368
			c3.525-5.252,21.864-33.48,36.793-73.589c14.961-40.198,29.392-100.903,13.178-161.824l-0.125-0.453l-0.449-0.125
			c-3.018-0.868-5.91-1.993-8.596-3.345l-2.242-1.126l1.132,2.24c4.695,9.336,11.368,27.739,3.314,46.096l-2.054,4.684l-0.296-5.108
			c-0.22-3.741-3.671-6.254-7.322-8.912l-0.147-0.109c-0.541-0.4-1.083-0.8-1.627-1.207l-1.259-0.948l-0.066,1.541
			c-0.221,1.011-5.421,24.109-18.652,26.757l-7.12-7.268l-0.211,0.659c-0.033,0.103-3.392,10.431-11.635,21.358
			c-7.592,10.064-20.996,22.693-41.745,25.736c-20.74-3.042-34.139-15.659-41.73-25.714c-8.249-10.928-11.617-21.277-11.65-21.381
			l-0.211-0.659l-7.124,7.268c-13.459-2.694-18.608-26.547-18.659-26.789l-0.584-2.785l-0.127,1.504l-0.958,0.721
			c-0.198,0.15-0.398,0.297-0.598,0.444l-1.172,0.865c-3.659,2.66-7.114,5.173-7.326,8.918L52.25,261.8l-2.059-4.691
			c-8.051-18.351-1.374-36.758,3.322-46.096l1.133-2.241l-2.242,1.126c-2.586,1.299-5.335,2.385-8.172,3.23l-0.444,0.134
			l-0.118,0.445c-16.261,60.946-1.822,121.702,13.154,161.937c14.911,40.059,33.262,68.335,36.791,73.599l0.249,0.366h0.438
			c0.579,0,1.096,0.059,1.579,0.179c0.951,0.239,1.83,0.685,2.614,1.327l0.521,0.428l0.52-0.419c0.192-0.152,0.388-0.3,0.594-0.441
			c0.573-0.404,1.054-0.699,1.527-0.937c2.023-1.099,4.13-1.421,6.097-0.929c0.719,0.177,1.411,0.47,2.055,0.871l0.576,0.359
			l0.47-0.495c1.817-1.941,3.851-2.924,6.046-2.924c2.199,0,4.334,1.07,6.175,3.095l2.876,3.161
			c-0.212,0.084-0.425,0.182-0.638,0.299l-0.289,0.16l-1.123,3.585l-1.525-4.084l-0.096-0.183c-1.132-1.631-2.985-3.574-5.382-3.574
			c-1.725,0-3.358,0.958-4.855,2.849l-0.042,0.054l-1.568,4.357l-1.176-4.018l-0.204-0.164c-0.589-0.471-1.23-0.795-1.903-0.963
			c-1.37-0.35-2.836-0.104-4.345,0.721c-0.372,0.186-0.738,0.409-1.267,0.772c-0.618,0.436-1.206,0.94-1.745,1.497l-1.01,1.034
			l-0.859-1.154c-0.759-1.024-1.625-1.646-2.647-1.899c-1.684-0.42-3.667,0.271-5.585,1.943l-0.085,0.074
			c-0.731,0.66-1.442,1.452-2.114,2.357c-1.641,2.249-2.928,5.039-3.723,8.074c-0.155,0.616-0.273,1.134-0.378,1.655
			c-0.014,0.097-0.028,0.189-0.053,0.309c-0.071,0.393-0.151,0.839-0.203,1.26c-0.027,0.192-0.044,0.377-0.06,0.548
			c-0.045,0.367-0.087,0.725-0.102,1.058c-0.013,0.167-0.017,0.326-0.02,0.483l-0.005,0.183c-0.018,0.311-0.034,0.632-0.034,0.953
			c0.008,0.786,0.057,1.555,0.145,2.283c0.048,0.414,0.113,0.84,0.199,1.304c0.176,0.916,0.416,1.746,0.715,2.467
			c0.608,1.471,1.749,3.327,3.728,3.819c1.161,0.297,2.436,0.076,3.79-0.66l0.214-0.118l2.332-4.291l0.296,4.901l0.06,0.251
			l0.032,0.08c0.994,1.914,2.316,3.092,3.93,3.5c2.663,0.68,5.905-1.005,8.673-4.504l0.043-0.054l1.695-4.798l1.032,4.185h-0.264
			l0.547,1.177c1.797,3.873,4.281,6.094,6.817,6.094c2.367,0,4.645-1.875,6.415-5.278l0.938-5.625l1.575,4.7l0.109,0.215
			c2.878,4.064,6.458,6.132,9.343,5.394c1.466-0.375,2.705-1.397,3.684-3.037l0.02-0.035c2.176-3.721,2.538-9.815,0.941-15.918
			c-2.626-9.991-9.071-15.523-13.439-14.42l-0.006,0.002c-0.099,0.027-0.2,0.068-0.3,0.102l-1.73-3.972
			c-4.39-10.065-6.92-20.986-8.946-30.43c-2.115-10.215-3.907-21.418-5.477-34.251c-1.34-10.913-2.46-22.511-3.33-34.474
			l-0.037-0.491c-0.69-9.393-1.402-19.076-0.697-28.696c1.715,9.216,2.569,18.616,3.398,27.734l0.015,0.168
			c0.542,5.976,1.102,12.155,1.904,18.209c0.505,4.338,1.182,10.066,1.935,15.895l0.736-0.025
			c2.708,10.828,15.04,58.895,21.65,63.248c4.719,3.111,6.341,5.706,6.889,6.976l0.383,0.888l0.383-0.888
			c0.548-1.272,2.172-3.869,6.888-6.976c6.586-4.337,18.849-52.07,21.616-63.127l0.219,1.838l0.426-3.364
			c0.647-5.104,1.244-10.174,1.742-14.453c0.813-6.176,1.376-12.384,1.92-18.387c0.829-9.118,1.683-18.518,3.398-27.736
			c0.711,9.69-0.012,19.446-0.714,28.91l-0.021,0.281c-0.892,12.25-1.981,23.526-3.329,34.473
			c-1.579,12.904-3.369,24.106-5.473,34.244c-2.002,9.369-4.504,20.206-8.872,30.25l-1.816,4.186
			c-0.132-0.047-0.264-0.098-0.397-0.133c-4.364-1.096-10.8,4.443-13.424,14.431c-1.603,6.118-1.232,12.227,0.968,15.942
			c0.969,1.64,2.207,2.663,3.679,3.039c2.887,0.737,6.468-1.333,9.342-5.404l1.684-4.906l0.855,5.382l0.058,0.192l0.026,0.061
			c1.772,3.398,4.05,5.269,6.414,5.269c2.546,0,5.031-2.221,6.822-6.104l0.505-1.167h-0.221l1.024-4.172l1.606,4.599l0.094,0.183
			l0.038,0.058c2.771,3.501,6.013,5.185,8.671,4.504c1.615-0.408,2.938-1.586,3.932-3.5l0.04-0.078l0.34-5.167l2.34,4.305
			l0.216,0.118c1.342,0.73,2.611,0.952,3.772,0.66c1.577-0.39,2.871-1.711,3.744-3.821c0.298-0.72,0.539-1.548,0.715-2.464
			c0.092-0.5,0.154-0.903,0.197-1.301c0.042-0.351,0.077-0.724,0.104-1.118l0.027-0.643c0.008-0.179,0.015-0.359,0.015-0.546
			c0-1.592-0.164-3.215-0.487-4.825C201.82,465.625,201.702,465.114,201.573,464.627z"/>
		<path fill="#A3A3A3" d="M85.516,455.097c0.431-0.582,0.914-1.161,1.473-1.765c0.281-0.296,0.612-0.638,0.928-0.925l0.178-0.15
			c0.697-0.627,0.707-1.214,0.653-1.6c-0.196-1.444-1.973-3.316-3.433-4.026c-1.631-0.788-3.943-0.853-5.431,0.778l-1.004,1.092
			l-0.889-1.189c-0.565-0.762-1.221-1.286-2.009-1.603c-1.812-0.714-3.715-0.029-4.979,0.664c-0.594,0.297-1.157,0.66-1.768,1.14
			l-1.138,0.887l-0.696-1.256c-0.523-0.958-1.192-1.588-2.044-1.928c-2.004-0.794-4.727,0.307-7.284,2.948
			c-1.711,1.797-3.175,4.109-4.234,6.687c-0.755,1.853-1.264,3.728-1.511,5.573c-0.262,2.031-0.186,3.91,0.217,5.43
			c0.341,1.339,1.096,3.074,2.761,3.735c1.441,0.573,2.993,0.057,4.041-0.476l1.336-0.683l0.403,1.447
			c0.422,1.491,1.325,3.426,3.224,4.174c2.359,0.936,5.659-0.403,8.612-3.5l1.523-1.603L75,471.094
			c0.831,3.215,2.261,5.516,4.028,6.48l1.303,0.709l-0.079-1.48c-0.026-0.507-0.039-0.964-0.039-1.397
			c0-0.285,0.041-0.726,0.341-1.83l0.044-0.159l-0.021-0.163c-0.015-0.118-0.023-0.236-0.032-0.363l-0.038-0.562
			c-0.024-0.409-0.04-0.827-0.048-1.26c0-2.315,0.317-4.695,0.944-7.076C82.265,460.678,83.688,457.601,85.516,455.097z"/>
		<path fill="#A3A3A3" d="M257.346,331.234l-0.254,0.331l0,0l0.25-0.334l0,0c-0.738-0.551-1.492-1.114-2.244-1.684
			c3.549,0.803,7.167,2.614,10.559,5.3l1.278,1.011l0.065-1.627c0.553-13.942,0.928-62.672-17.463-104.37l-2.788-6.324l1.215,6.805
			c3.949,22.1,4.555,45.529,1.803,69.636c-2.834,24.831-9.19,50.615-18.894,76.636c-11.468,30.791-25.028,54.736-32.091,66.268
			l-1.214,1.985l2.194-0.77c2.092-0.732,4.284-0.577,6.012,0.428l0.488,0.283l0.444-0.352c0.538-0.428,1.11-0.763,1.745-1.021
			c2.133-0.838,4.581-0.568,7.09,0.785c0.147,0.073,0.294,0.154,0.464,0.247l0.549,0.303l0.44-0.445
			c0.612-0.619,1.302-1.074,2.11-1.39l1.407-0.276l-0.54-0.593l6.251-5.555c9.607-8.496,18.356-17.232,26.01-25.97
			c14.31-16.755,32.016-41.574,20.616-63.572C269.256,340.132,263.201,335.609,257.346,331.234z"/>
		<path fill="#A3A3A3" d="M65.492,442.082l-0.252,0.303l0.898,0.493l0.125,0.059c0.789,0.312,1.494,0.778,2.094,1.384l0.438,0.443
			l0.548-0.298c0.173-0.095,0.338-0.18,0.533-0.279c2.462-1.338,4.887-1.599,7.016-0.754c0.622,0.243,1.195,0.577,1.753,1.021
			l0.443,0.351l0.489-0.284c1.739-1.012,4.022-1.159,6.105-0.392l2.238,0.824l-1.245-2.034
			c-7.086-11.589-20.681-35.613-32.115-66.309c-9.699-26.033-16.053-51.817-18.885-76.636c-2.755-24.124-2.151-47.553,1.795-69.636
			l1.215-6.805l-2.788,6.324c-18.363,41.633-18.009,90.411-17.463,104.37l0.065,1.626l1.276-1.008
			c3.391-2.678,7.008-4.488,10.556-5.295c-0.763,0.578-1.518,1.14-2.214,1.66c-5.869,4.381-11.938,8.91-15.535,15.758
			C1.19,368.969,18.9,393.787,33.216,410.545c7.612,8.7,16.36,17.436,26.002,25.962L65.492,442.082z"/>
	</g>
	<g>
		<path fill="#666666" d="M223.155,464.796c-2.628,13.66-13.045,0-13.045,0c-2.142,8.638-5.062,9.182-5.062,9.182l-3.175-4.894
			c0,0-2.473,6.328-4.46,8.486c-1.988,2.157-7.161-7.389-7.161-7.389s0.344,8.685-3.797,11.496
			c-4.141,2.811-10.124-11.496-10.124-11.496s-4.094,11.962-7.885,12.85c-3.792,0.888-6.814-13.142-6.814-13.142
			s-3.71,11.142-9.151,12.461c-5.44,1.319-7.017-4.78-7.017-4.78l-1.456,5.033l4.367,4.946l6.843-1.664l5.275-4.208l5.605,5.871
			l6.759-1.252l4.121-4.619l5.44,4.208h7.157l3.064-4.208l5.892,0.055l4.989-2.756l5.44-2.121l3.132-4.25l5.276,3.568l6.594-2.739
			c0,0,1.814-2.536,4.996-2.042c3.182,0.495,4.731-7.913,4.731-7.913C230.845,470.181,223.155,464.796,223.155,464.796z"/>
		<path fill="#666666" d="M248.776,230.194c0.91,52.623-0.73,74.482-4.865,97.314c-4.135,22.832-18.158,62.024-18.158,62.024
			l-29.219,58.284l5.48-2.837c0,0,20.597-32.702,37.566-82.714C264.779,287.999,248.776,230.194,248.776,230.194z"/>
		<path fill="#666666" d="M133.267,482.349c-5.44-1.319-9.151-12.461-9.151-12.461s-3.023,14.03-6.814,13.142
			c-3.792-0.888-7.885-12.85-7.885-12.85s-5.984,14.307-10.124,11.496c-4.141-2.811-3.797-11.496-3.797-11.496
			s-5.174,9.546-7.161,7.389c-1.988-2.157-4.461-8.486-4.461-8.486l-3.175,4.894c0,0-2.92-0.544-5.062-9.182
			c0,0-10.416,13.66-13.045,0c0,0-7.691,5.385-10.536-1.317c0,0,1.549,8.408,4.731,7.913s4.996,2.042,4.996,2.042l6.594,2.739
			l5.276-3.568l3.132,4.25l5.44,2.121l4.989,2.756l5.892-0.055l3.064,4.208h7.157l5.44-4.208l4.122,4.619l6.759,1.252l5.605-5.871
			l5.276,4.208l6.843,1.664l4.367-4.946l-1.456-5.033C140.284,477.57,138.708,483.668,133.267,482.349z"/>
		<path fill="#666666" d="M89.213,447.816l-29.219-58.284c0,0-14.023-39.192-18.158-62.024s-5.776-44.691-4.865-97.314
			c0,0-16.003,57.805,9.196,132.072c16.969,50.012,37.566,82.714,37.566,82.714L89.213,447.816z"/>
		<path fill="#666666" d="M171.993,381.021c-2.214,17.482-5.007,35.569-9.519,53.364c-1.159,4.311-2.514,8.635-3.815,12.179
			c-0.371,0.992-0.771,1.955-1.159,2.881l-0.1,0.238l-0.254,0.017c-5.695,0.346-11.353,6.463-14.08,15.218l-0.392,1.263
			l-0.392-1.263c-2.706-8.693-8.33-14.805-13.992-15.21l-0.254-0.021l-0.188-0.45c-0.367-0.888-0.73-1.768-1.067-2.668
			c-1.292-3.502-2.652-7.826-3.823-12.179c-4.374-17.29-7.138-34.881-9.327-51.938c0.046-0.759,0.117-1.476,0.213-2.147
			c0,0,14.747,60.306,21.989,65.076c4.699,3.098,6.417,5.708,7.042,7.159c0.625-1.451,2.339-4.061,7.042-7.159
			c7.242-4.77,21.985-65.076,21.985-65.076C171.935,380.537,171.964,380.775,171.993,381.021z"/>
	</g>
	<g>
		<path fill="#D6D6D6" d="M246.651,227.641l-0.012-0.048c-5.294-13.785-5.46-13.786-5.665-13.764l-0.164,0.025l-0.026,0.157
			c-0.254,1.524,0.292,4.781,1.116,9.711c4.536,27.106,18.339,109.593-54.148,226.109l-1.827,3.765l9.333-2.357l0.106-0.026
			l4.163-11.137l27.971-54.602l18.075-64.287l5.483-59.26l0.002-0.023L246.651,227.641z"/>
		<path fill="#D6D6D6" d="M118.609,181.589c13.222,3.453,23.699,3.394,23.906,3.396h0.172c0.005,0,0.032,0,0.082,0
			c1.01,0,11.16-0.088,23.827-3.396c12.267-3.204,29.477-10.169,41.795-25.159c15.683-19.083,19.956-46.37,12.701-81.103
			l-0.41,0.074c0.018,0.12,1.792,12.159,0.391,27.781c-1.292,14.407-5.624,34.894-18.93,50.686
			c-13.449,15.962-33.484,24.328-59.538,24.865c-26.062-0.537-46.097-8.903-59.546-24.866
			c-13.306-15.791-17.638-36.279-18.93-50.686c-1.4-15.622,0.374-27.661,0.392-27.781l-0.41-0.074
			c-7.255,34.733-2.982,62.02,12.701,81.103C89.132,171.42,106.341,178.386,118.609,181.589z"/>
		<path fill="#D6D6D6" d="M43.56,223.721c0.825-4.93,1.37-8.187,1.116-9.711l-0.032-0.166l-0.158-0.016
			c-0.207-0.019-0.366-0.034-5.665,13.764l-0.009,0.024l-4.408,34.263l-0.003,0.023l5.492,59.321l18.083,64.288l27.946,54.541
			l4.173,11.159l9.439,2.384l-1.838-3.783C25.221,333.313,39.024,250.827,43.56,223.721z"/>
		<path fill="#D6D6D6" d="M83.504,98.217c1.958,0.557,5.603,1.594,7.229,4.736c2.487,4.808,6.301,6.55,9.062,7.164
			c1.054,0.235,2.094,0.339,3.099,0.339c3.151,0,5.939-1.03,7.592-2.3c2.183-1.678,3.26-3.526,4.211-5.157
			c0.632-1.083,1.228-2.106,2.073-2.967c1.476-1.503,4.11-2.147,4.136-2.154l0.457-0.11l-0.388-0.265
			c-0.019-0.013-1.928-1.319-3.487-2.569c-1.517-1.217-2.508-2.678-3.466-4.092c-1.03-1.519-2.094-3.091-3.815-4.385
			c-2.93-2.204-6.163-3.067-9.103-2.432c-3.48,0.752-6.094,2.286-7.991,4.691c-0.449,0.569-0.865,1.176-1.268,1.763
			c-0.632,0.922-1.286,1.875-2.071,2.682c-2.335,2.401-3.996,3.431-7.107,4.408l-0.61,0.192l0.606,0.205
			C82.887,98.042,83.173,98.123,83.504,98.217z"/>
		<path fill="#D6D6D6" d="M168.921,100.033c0.845,0.861,1.442,1.885,2.074,2.968c0.951,1.63,2.028,3.479,4.211,5.156
			c1.653,1.271,4.44,2.3,7.591,2.3c1.004,0,2.046-0.104,3.099-0.339c2.761-0.615,6.575-2.357,9.063-7.164
			c1.625-3.142,5.271-4.179,7.229-4.736c0.331-0.094,0.617-0.175,0.842-0.251l0.606-0.205l-0.611-0.192
			c-3.112-0.976-4.772-2.006-7.107-4.408c-0.785-0.807-1.439-1.76-2.071-2.682c-0.402-0.587-0.819-1.194-1.268-1.763
			c-1.897-2.404-4.511-3.939-7.991-4.691c-2.942-0.636-6.173,0.228-9.103,2.432c-1.721,1.295-2.786,2.866-3.815,4.385
			c-0.958,1.413-1.948,2.875-3.465,4.092c-1.559,1.25-3.468,2.556-3.487,2.569l-0.388,0.265l0.457,0.11
			C164.812,97.885,167.445,98.529,168.921,100.033z"/>
		<path fill="#D6D6D6" d="M203.727,320.636c6.145-15.011,10.642-30.804,12.34-43.331c1.719-12.697,0.509-20.722-3.408-22.595
			c-12.386-5.916-27.611-2.761-38.728-0.458c-3.338,0.694-6.787,1.411-10.23,2.289c-1.552-2.649-3.759-4.708-6.309-5.906
			c9.249,0.327,18.596-3.715,24.652-10.723c6.325-7.324,8.923-17.733,6.779-27.167l-0.382-1.679l-0.03,1.721
			c-0.057,3.216-1.559,6.451-4.124,8.876c-2.565,2.426-5.884,3.749-9.098,3.623c-1.552-0.061-3.74-0.454-5.352-1.974
			c-2.055-1.934-2.432-5.068-2.386-7.357c0.182-8.498,5.454-16.671,13.119-20.338l1.478-0.707l-1.608,0.315
			c-6.128,1.199-11.971,4.249-16.453,8.59c-1.297,1.257-2.505,2.64-3.673,3.978c-1.57,1.798-3.193,3.657-5.039,5.214
			c-5.204,4.393-12.323,6.382-19.046,5.315c-1.693-0.267-4.35-1.788-6.919-3.258c-3.451-1.975-6.71-3.839-8.305-3.231
			c-1.955,0.744-2.787,2.552-3.668,4.466c-1.12,2.435-2.279,4.953-5.966,5.274c-2.545,0.22-5.205-0.944-7.113-3.113
			c-1.907-2.167-2.722-4.951-2.18-7.447l0.392-1.806l-0.785,1.674c-3.704,7.9-2.956,17.687,1.904,24.933
			c4.806,7.172,13.445,11.558,22.076,11.24c-0.508,2.257-2.152,3.938-3.888,5.714c-1.011,1.034-2.055,2.101-2.86,3.298
			c-2.729-0.652-5.521-1.234-8.223-1.798l-0.081-0.017c-11.115-2.303-26.339-5.458-38.724,0.458
			c-3.919,1.873-5.13,9.898-3.41,22.595c1.697,12.527,6.195,28.32,12.342,43.331c3.948,9.643,9.429,20.226,14.729,30.461
			c8.571,16.549,16.666,32.181,18.241,43.258c2.943,20.678,7.085,40.307,12.31,58.341l0.088,0.302l0.244-0.198
			c0.606-0.491,1.326-0.69,2.142-0.592c1.854,0.223,3.71,1.879,4.736,3.229c3.74,4.911,6.275,10.89,7.746,15.053l0.063,11.158
			c0.012,0.215,0.172,0.236,0.204,0.238c0.212,0.013,0.21,0.013,0.445-1.222c0.196-1.031,0.51-2.678,0.988-4.732
			c1.027,3.796,1.49,6.746,1.49,8.046h0.417v-14.998c1.823-5.659,4.032-10.215,6.566-13.544c1.03-1.351,2.888-3.007,4.739-3.229
			c0.816-0.097,1.534,0.102,2.139,0.592l0.244,0.198l0.088-0.302c5.226-18.035,9.367-37.664,12.31-58.341
			c1.576-11.079,9.674-26.715,18.248-43.268C194.299,340.855,199.779,330.275,203.727,320.636z M158.464,446.49
			c-0.366,0.979-0.755,1.918-1.156,2.873l-0.05,0.119l-0.125,0.008c-5.78,0.351-11.513,6.525-14.266,15.364l-0.193,0.621
			l-0.193-0.621c-2.731-8.774-8.429-14.946-14.175-15.356l-0.128-0.011l-0.139-0.332c-0.355-0.859-0.721-1.746-1.064-2.661
			c-1.297-3.515-2.653-7.834-3.817-12.158c-3.734-14.762-6.609-30.772-9.321-51.874c0.021-0.34,0.046-0.672,0.077-0.996
			c2.11,8.504,15.034,59.628,21.802,64.085c4.764,3.141,6.409,5.776,6.966,7.068l0.191,0.444l0.191-0.444
			c0.558-1.294,2.204-3.931,6.966-7.067c6.572-4.328,18.944-52.657,21.587-63.241c-1.861,14.538-4.605,33.32-9.346,52.019
			C161.117,438.63,159.764,442.948,158.464,446.49z"/>
	</g>
	<g>
		<path fill="#FFFFFF" d="M69.757,57.666c0.739-5.302,0.003-10.976-1.526-16.435c-1.474-5.263-3.071-8.869-5.792-12.396
			c-3.579-4.639-5.852-6.523-11.065-8.97c-3.65-1.713-7.309-2.255-11.41-2.923c-4.334-0.705-6.853,2.822-5.491,6.619
			c0.999,2.784,1.431,5.095,1.431,5.095c-7.43-0.931-12.208,4.086-12.208,4.086l14.716,2.837c0,0-22.239,13.438-19.51,23.6
			c6.546-2.81,14.165-3.025,20.858-0.587c-5.477,4.325-8.254,11.815-6.918,18.665c0.254-0.674,0.552-1.33,0.89-1.964
			c4.093-7.673,15.491-6.822,18.323,1.4c0.023,0.068,0.046,0.135,0.069,0.203c1.3,3.893,1.481,8.341-0.435,11.97
			c6.967-3.983,11.031-12.5,9.744-20.422C66.222,67.178,68.801,64.53,69.757,57.666z"/>
		<path fill="#FFFFFF" d="M21.66,65.296c-1.86,6.179-2.602,12.693-2.179,19.133c0.13,1.986,0.453,4.138,1.894,5.511
			c1.188-0.338,2.534-0.815,2.969-1.971c0.165-0.439,0.316-0.941,0.174-1.388c-2.252-7.119,0.981-22.095,1.768-23.714
			c0,0-11.367-0.89-16.519-0.804c1.42-11.86,12.769-19.29,22.209-24.754c-6.201-1.532-14.53-1.451-20.86-2.304
			c2.608-4.531,12.051-7.873,20.425-10.348c0.209,0.134,0.319,0.116,0.309-0.091c-0.26-5.181-9.634-16.937-9.634-16.937
			C41.9,4.996,58.292,12.524,66.512,16.72c0.164,0.083,0.327,0.167,0.49,0.252c4.279,2.214,8.42,4.72,12.882,6.56
			c3.341,1.377,9.319,3.997,12.504,1.102c1.75-1.591,0.483-1.595-1.406-2.165c-1.678-0.506-3.348-1.044-4.968-1.718
			c-6.407-2.665-11.802-7.286-17.978-10.449c-8.018-4.107-17.107-5.634-26.087-6.348c-8.921-0.709-18.222-0.602-26.374,3.091
			c1.788-0.181,11.079,12.411,14.766,16.461c-2.631-0.963-7.29-0.213-9.17,0.146c-1.823,0.348-3.646,0.696-5.47,1.044
			c-0.87,0.166-1.752,0.336-2.552,0.717c-1.191,0.568-2.116,1.562-2.972,2.566c-2.179,2.553-4.11,5.318-5.757,8.242
			c-0.446,0.792-0.882,1.728-0.552,2.575c4.872-0.287,10.081-0.497,14.271,2.007c-3.591,3.749-7.614,7.117-10.729,11.27
			s-5.294,9.358-4.459,14.482c0.034,0.21,0.081,0.433,0.233,0.581c0.173,0.168,0.434,0.195,0.675,0.209
			c2.792,0.16,5.582-0.248,8.349-0.656C15.358,66.224,18.509,65.76,21.66,65.296z"/>
		<path fill="#FFFFFF" d="M18.259,337.949l4.476-5.628c-2.003-53.385,13.412-100.758,13.412-100.758
			C18.254,255.937,18.259,337.949,18.259,337.949z"/>
		<path fill="#FFFFFF" d="M68.82,444.029c-5.916-13.976-51.231-44.374-55.508-79.694c-2.215-18.286,18.729-35.507,18.729-35.507
			C13.788,338.3,3.067,352.59,11.563,380.304c8.496,27.713,52.725,62.244,52.725,62.244L68.82,444.029z"/>
		<path fill="#FFFFFF" d="M124.611,451.581l-6.36-3.764l-6.376,3.764l-5.305-1.659c0,0-1.558,2.308-9.994,1.529
			c-8.437-0.779-10.546,8.682-10.546,8.682s4.125-4.771,7.629-5.42c3.504-0.649,4.987,4.825,4.987,4.825s2.624-4.388,6.285-5.885
			c2.745-1.122,5.46,7.824,5.46,7.824s2.177-6.484,5.812-8.691c3.634-2.207,7.9,9.634,7.9,9.634s0.898-4.801,4.059-6.359
			c3.161-1.558,9.559,6.422,9.559,6.422l-4.295-9.039L124.611,451.581z"/>
		<path fill="#FFFFFF" d="M88.982,449.51l-5.48-4.53c0,0-10.748,1.158-17.132-0.677c-6.385-1.836-9.813,6.637-9.813,6.637
			s3.762-2.984,6.787-3.491c3.026-0.508,4.3,4.459,4.3,4.459s2.946-3.294,6.211-4.091c3.264-0.796,4.618,4.25,4.618,4.25
			c6.131-7.764,8.853,0.49,8.853,0.49L88.982,449.51z"/>
		<path fill="#FFFFFF" d="M137.812,24.211c10.287,2.061,15.821-2.279,26.278-0.576c11.797,1.922,30.278,5.851,40.089,5.442
			c0,0-28.116-10.613-50.247-11.135c-22.131-0.523-42.171,0.757-42.171,0.757L81.178,29.077
			C92.069,31.186,118.783,20.399,137.812,24.211z"/>
		<path fill="#FFFFFF" d="M105.168,91.428c0.022,0,0.044,0,0.066,0.001c1.667,0.017,3.227,0.681,4.392,1.868
			c0.264,0.271,0.505,0.568,0.737,0.908l2.169,3.174l-1.448-3.561c-0.454-1.117-1.115-2.123-1.965-2.989
			c-1.719-1.745-4.002-2.72-6.431-2.749c-0.053-0.008-0.098-0.008-0.127-0.008c-2.419,0-4.702,0.936-6.428,2.636
			c-1.756,1.722-2.733,4.018-2.75,6.464c-0.026,2.452,0.908,4.768,2.628,6.523c1.713,1.748,4.008,2.724,6.464,2.75
			c0.032,0,0.063,0.001,0.096,0.001c2.408-0.001,4.687-0.932,6.431-2.632c0.206-0.206,0.395-0.412,0.583-0.634l2.577-3.047
			l-3.145,2.457c-2.44,1.904-5.893,1.727-8.131-0.389c0.9-0.159,1.729-0.583,2.392-1.233c1.789-1.762,1.818-4.652,0.064-6.441
			c-0.686-0.7-1.584-1.155-2.547-1.306c0.002-0.002,0.005-0.005,0.008-0.008C101.977,92.06,103.525,91.428,105.168,91.428z"/>
		<path fill="#FFFFFF" d="M245.551,16.942c-4.101,0.668-7.76,1.209-11.41,2.923c-5.212,2.447-7.486,4.33-11.065,8.97
			c-2.721,3.527-4.318,7.133-5.792,12.396c-1.529,5.459-2.265,11.133-1.526,16.435c0.956,6.864,3.535,9.513,8.322,10.781
			c-1.287,7.921,2.778,16.439,9.744,20.422c-1.917-3.629-1.736-8.077-0.435-11.97c0.023-0.068,0.046-0.136,0.069-0.203
			c2.832-8.222,14.23-9.073,18.323-1.4c0.338,0.634,0.636,1.29,0.89,1.964c1.336-6.85-1.44-14.341-6.918-18.665
			c6.693-2.438,14.313-2.224,20.858,0.587c2.729-10.162-19.51-23.6-19.51-23.6l14.716-2.837c0,0-4.778-5.017-12.208-4.086
			c0,0,0.432-2.311,1.431-5.095C252.404,19.764,249.885,16.237,245.551,16.942z"/>
		<path fill="#FFFFFF" d="M278.106,52.073c-3.115-4.153-7.137-7.521-10.729-11.27c4.19-2.504,9.399-2.294,14.271-2.007
			c0.331-0.847-0.106-1.783-0.552-2.575c-1.647-2.924-3.578-5.689-5.757-8.242c-0.856-1.003-1.782-1.998-2.972-2.566
			c-0.8-0.381-1.681-0.551-2.552-0.717c-1.823-0.348-3.646-0.696-5.47-1.044c-1.88-0.359-6.539-1.109-9.17-0.146
			c3.687-4.05,12.978-16.642,14.766-16.461c-8.151-3.693-17.453-3.8-26.374-3.091c-8.981,0.714-18.069,2.241-26.087,6.348
			c-6.176,3.163-11.572,7.784-17.979,10.449c-1.62,0.674-3.289,1.212-4.968,1.718c-1.89,0.57-3.156,0.575-1.406,2.165
			c3.185,2.895,9.163,0.275,12.503-1.102c4.462-1.839,8.603-4.346,12.882-6.56c0.163-0.084,0.326-0.168,0.49-0.252
			c8.22-4.196,24.612-11.724,44.296-9.091c0,0-9.374,11.755-9.634,16.937c-0.01,0.207,0.1,0.226,0.309,0.091
			c8.374,2.475,17.817,5.817,20.425,10.348c-6.33,0.852-14.659,0.771-20.86,2.304c9.441,5.464,20.789,12.894,22.209,24.754
			c-5.152-0.087-16.519,0.804-16.519,0.804c0.787,1.619,4.02,16.596,1.768,23.714c-0.141,0.447,0.009,0.949,0.174,1.388
			c0.436,1.156,1.781,1.633,2.969,1.971c1.441-1.373,1.763-3.525,1.894-5.511c0.422-6.439-0.319-12.953-2.179-19.133
			c3.151,0.464,6.301,0.928,9.452,1.393c2.767,0.408,5.557,0.816,8.349,0.656c0.24-0.014,0.502-0.041,0.675-0.209
			c0.152-0.148,0.199-0.371,0.233-0.581C283.399,61.431,281.221,56.226,278.106,52.073z"/>
		<path fill="#FFFFFF" d="M267.257,337.949c0,0,0.005-82.012-17.888-106.386c0,0,15.415,47.373,13.412,100.758L267.257,337.949z"/>
		<path fill="#FFFFFF" d="M253.474,328.828c0,0,20.944,17.221,18.729,35.507c-4.278,35.321-49.592,65.719-55.508,79.694l4.532-1.482
			c0,0,44.229-34.53,52.725-62.244C282.449,352.59,271.727,338.3,253.474,328.828z"/>
		<path fill="#FFFFFF" d="M188.941,451.451c-8.437,0.779-9.994-1.529-9.994-1.529l-5.305,1.659l-6.376-3.764l-6.36,3.764
			l-8.814,1.864l-4.295,9.039c0,0,6.397-7.979,9.559-6.422c3.161,1.557,4.059,6.359,4.059,6.359s4.266-11.841,7.9-9.634
			c3.634,2.207,5.812,8.691,5.812,8.691s2.715-8.946,5.46-7.824c3.661,1.497,6.285,5.885,6.285,5.885s1.482-5.474,4.987-4.825
			c3.504,0.649,7.629,5.42,7.629,5.42S197.378,450.672,188.941,451.451z"/>
		<path fill="#FFFFFF" d="M219.146,444.302c-6.385,1.836-17.132,0.677-17.132,0.677l-5.48,4.53l1.657,3.046
			c0,0,2.722-8.254,8.853-0.49c0,0,1.354-5.046,4.618-4.25c3.264,0.796,6.21,4.091,6.21,4.091s1.274-4.966,4.3-4.459
			s6.787,3.491,6.787,3.491S225.531,442.467,219.146,444.302z"/>
		<path fill="#FFFFFF" d="M176.33,102.589l-3.145-2.457l2.577,3.047c0.191,0.224,0.38,0.432,0.594,0.637
			c1.732,1.697,4.008,2.629,6.418,2.629c0.033,0,0.065-0.001,0.097-0.001c2.453-0.026,4.75-1.002,6.472-2.75
			c1.712-1.755,2.645-4.071,2.628-6.522v-0.001c-0.025-2.459-1.005-4.754-2.757-6.463c-1.727-1.7-4.01-2.637-6.428-2.637
			c-0.029,0-0.074,0-0.127,0.008c-2.429,0.029-4.711,1.004-6.432,2.75c-0.849,0.866-1.51,1.871-1.964,2.989l-1.448,3.561
			l2.169-3.174c0.232-0.341,0.473-0.637,0.735-0.907c1.166-1.189,2.727-1.853,4.394-1.87c0.022-0.001,0.044-0.001,0.066-0.001
			c1.644,0,3.193,0.633,4.371,1.789c0.001,0.001,0.002,0.002,0.003,0.002c-0.964,0.151-1.862,0.606-2.548,1.306
			c-1.754,1.789-1.726,4.679,0.064,6.442c0.664,0.651,1.495,1.075,2.398,1.233C182.226,104.315,178.769,104.493,176.33,102.589z"/>
		<path fill="#FFFFFF" d="M227.279,203.143l-10.494-9.131l8.089,11.345l-0.338,0.233l0.342-0.229
			c0.642,0.93,15.719,22.982,9.114,45.65l-0.229,0.788l-0.492-0.655c-1.693-2.251-4.211-4.082-6.433-5.695
			c-1.943-1.422-3.748-2.739-5.107-4.236l-3.898-4.274l1.067,5.691c2.068,11.049-6.154,24.449-15.126,30.032l-0.304,0.188
			l-8.46-10.031l-0.692,3.298c-5.499,26.125-30.049,41.502-51.187,47.181l-0.125,0.033l-0.117-0.042
			c-30.799-10.699-47.277-25.808-51.854-47.548l-0.692-3.306l-8.781,10.415l-0.3-0.188c-8.977-5.579-17.199-18.979-15.131-30.032
			l1.063-5.695l-3.903,4.278c-1.359,1.497-3.165,2.814-5.07,4.211c-2.368,1.722-4.774,3.477-6.463,5.72l-0.492,0.655l-0.229-0.788
			C44.34,228.03,60,205.569,60.158,205.348l7.947-11.145L57.74,203.15c-0.359,0.3-8.685,7.15-22.031,8.839l-0.53,0.067l0.071-0.53
			c3.06-22.652,18.537-34.297,18.691-34.41l5.658-4.119l-21.627,3.648l0.208-0.642c7.859-24.445,22.498-31.837,28.423-33.88
			l0.354-0.121l0.154,0.338c0.125,0.271,0.25,0.542,0.375,0.809c-0.142,0.192-0.229,0.375-0.188,0.517
			c7.025,24.691,27.289,36.749,45.396,42.632c11.141,3.623,21.464,4.907,27.393,5.362h5.199c5.754-0.442,15.643-1.664,26.4-5.045
			c18.358-5.766,39.234-17.803,46.388-42.949c6.05,1.701,20.964,8.26,28.76,32.338l0.208,0.642l-21.572-3.632l5.599,4.098
			c0.158,0.117,15.627,11.695,18.704,34.414l0.071,0.53l-0.53-0.067C235.609,210.256,227.354,203.214,227.279,203.143z"/>
	</g>
	<path fill="#231F20" d="M250.431,45.812c-1.391,2.453-3.185,3.679-5.359,4.997c-1.967,1.062-4.083,1.794-6.478,1.836
		c1.877-2.889,4.107-4.7,6.322-6.955c0.626-0.659,1.202-1.391,1.391-1.869c0-0.008,0-0.008,0.008-0.016
		c-0.502-0.329-1.498-0.593-2.091-0.782c-5.178-1.539-10.725-4.782-5.721-10.306l0.955-1.235c1.86-2.453,3.721-4.922,5.219-7.556
		c0.156-0.28,0.362-0.667,0.527-1.037c-4.766,0.527-9.524,2.214-13.145,5.342c-6.083,5.136-9.054,13.154-10.643,20.825
		c-0.757,4.033-1.218,8.042-2.634,12.306c-1.819-4.173-1.704-8.635-1.095-12.931c1.136-8.725,4.626-17.681,11.689-23.435
		c3.967-3.26,8.89-5.293,13.944-6.001c1.449-0.165,2.214-0.469,3.935-0.165c3.589,0.971,2.412,4.848,1.037,7.096
		c-1.622,2.873-3.597,5.474-5.564,8.058c-0.494,0.691-1.704,2.058-1.992,2.7c0.37,0.37,1.103,0.798,1.992,1.128
		c1.366,0.568,2.947,0.881,4.404,1.333C250.143,39.984,251.995,42.931,250.431,45.812z M284.41,67.83l-0.033,2.297l-18.175-2.247
		c2,5.243,4.807,15.582,0.527,24.9l-1.202,2.609l-2.083-1.984c-0.058-0.049-5.894-5.531-11.335-5.359
		c-1.869,0.058-3.441,0.798-4.799,2.255c-1.276,1.366-1.877,3.054-1.786,5.013c0.123,2.626,1.531,5.449,3.679,7.359l2.28,2.025
		l-2.733,1.358c-0.354,0.173-5.762,2.799-12.421,2.799c-3.062,0-6.388-0.576-9.606-2.181c-0.28,11.507-2.618,23.031-7.054,33.6
		c7.886,2.395,24.011,10.561,31.682,37.881l0.881,3.12l-13.73-2.313c5.54,5.968,13.664,17.467,15.244,34.728l0.222,2.42
		l-2.428-0.173c-1.992-0.148-3.885-0.403-5.688-0.741c27.616,48.614,24.809,113.519,24.258,122.614
		c3.128,3.284,5.663,7.079,7.309,10.824c1.259,2.988,2.165,6.272,2.527,9.507c0.165,0.675,0.181,1.745,0.206,2.453
		c0.148,2.387-0.049,4.963-0.28,7.326l-0.881,4.782c-7.194,27.55-32.555,51.52-54.253,69.695c1.663,0.691,3.334,1.86,4.898,3.482
		c2,2.091,3.696,4.758,4.914,7.721c0.864,2.115,1.441,4.256,1.729,6.388c0.313,2.486,0.222,4.741-0.296,6.7
		c-0.766,2.947-2.445,5.062-4.733,5.96c-1.44,0.56-3.004,0.634-4.626,0.214c-0.996,2.033-2.511,3.507-4.379,4.247
		c-2.939,1.177-6.453,0.387-9.77-2.115c-1.613,3.663-4.124,5.91-7.145,6.305c-0.313,0.041-0.626,0.058-0.922,0.058
		c-0.403,0-0.798-0.033-1.185-0.099l-0.436-0.066c-1.185,1.506-2.667,2.527-4.346,2.947c-1.671,0.428-3.441,0.255-5.194-0.486
		c-1.383,2.148-3.268,3.589-5.449,4.149c-3.449,0.873-7.235-0.576-10.528-3.918c-2.313,3.926-5.425,6.116-8.824,6.116
		c-3.054,0-5.935-1.827-8.174-5.103c-3.4,3.704-7.375,5.334-11.014,4.404c-2.313-0.576-4.288-2.157-5.704-4.552
		c-0.329-0.551-0.617-1.144-0.881-1.761c-0.263,0.617-0.551,1.21-0.881,1.761c-1.416,2.395-3.391,3.976-5.704,4.552
		c-3.638,0.938-7.614-0.7-11.014-4.404c-2.239,3.276-5.112,5.103-8.174,5.103c-3.399,0-6.511-2.19-8.824-6.116
		c-3.293,3.342-7.079,4.791-10.528,3.918c-2.181-0.56-4.066-2-5.449-4.149c-1.753,0.741-3.523,0.914-5.202,0.486
		c-1.671-0.42-3.153-1.441-4.338-2.947l-0.428,0.066c-0.395,0.066-0.798,0.099-1.202,0.099c-0.288,0-0.576-0.016-0.873-0.049
		c-3.054-0.395-5.573-2.65-7.186-6.313c-3.317,2.502-6.824,3.293-9.779,2.115c-1.86-0.741-3.367-2.214-4.371-4.247
		c-1.622,0.42-3.186,0.346-4.618-0.214c-2.297-0.897-3.976-3.021-4.741-5.96c-0.51-1.959-0.609-4.214-0.296-6.692
		c0.288-2.14,0.873-4.289,1.737-6.396c1.21-2.963,2.906-5.63,4.906-7.713c1.58-1.646,3.276-2.823,4.964-3.515
		c-21.673-18.15-47.05-42.145-54.236-69.67l-0.881-4.782c-0.115-1.622-0.313-3.243-0.346-4.873c0.041-0.741,0.074-2.947,0.115-3.688
		c0.379-3.647,1.243-7.351,2.692-10.725c1.646-3.745,4.182-7.54,7.301-10.824c-0.552-9.104-3.358-74.082,24.315-122.705
		c-1.934,0.379-3.984,0.667-6.157,0.831l-2.42,0.173l0.222-2.42c1.572-17.261,9.705-28.76,15.244-34.728l-13.73,2.313l0.873-3.12
		c7.853-27.97,24.093-36.802,31.46-39.436c-4.009-10.067-6.248-21.114-6.437-32.069c-10.232,5.145-21.574-0.338-22.093-0.593
		l-2.733-1.358l2.28-2.025c2.148-1.91,3.556-4.733,3.679-7.359c0.09-1.959-0.51-3.647-1.786-5.013
		c-1.358-1.457-2.93-2.198-4.791-2.255c-0.082,0-0.165-0.008-0.255-0.008c-5.35,0-11.03,5.317-11.088,5.375l-2.083,1.967
		l-1.202-2.601c-4.28-9.318-1.473-19.656,0.527-24.9L0.971,70.127L0.938,67.83C0.766,54.372,8.594,45.951,14.545,41.498H0
		L1.078,38.7c5.128-13.343,17.335-16.932,23.41-17.895C18.825,12.796,11.096,7.19,11.014,7.132L7.639,4.704l3.976-1.21
		c28.999-8.857,47.651,0.988,62.649,8.898c8.569,4.527,16.133,8.511,23.879,7.993c3.235-0.947,6.511-1.679,9.894-2.091
		c14.644-3.136,25.772-2.494,31.452-1.737c2.19,0.288,4.412,0.288,6.618-0.008c2.371-0.321,5.713-0.617,9.894-0.617
		c5.68,0,12.899,0.552,21.319,2.362c3.366,0.461,6.684,1.161,9.943,2.091c7.721,0.494,15.277-3.474,23.83-7.993
		c14.989-7.91,33.65-17.755,62.649-8.898l3.976,1.21l-3.383,2.428c-0.082,0.058-7.811,5.663-13.475,13.672
		c6.083,0.963,18.282,4.552,23.41,17.895l1.078,2.799h-14.545C276.763,45.951,284.583,54.372,284.41,67.83z M66.641,441.995
		l-0.123,0.148c0.016,0.008,0.033,0.016,0.049,0.025c0.897,0.354,1.696,0.881,2.379,1.572c0.181-0.099,0.354-0.189,0.535-0.28
		c2.65-1.441,5.342-1.737,7.713-0.798c0.716,0.28,1.366,0.667,1.967,1.144c2.165-1.259,4.733-1.218,6.807-0.453
		c-7.318-11.968-20.776-35.823-32.185-66.452c-9.721-26.093-16.092-51.948-18.932-76.831c-2.774-24.299-2.157-47.717,1.803-69.876
		c-18.232,41.338-17.961,89.483-17.393,104.003c4.19-3.309,9.038-5.597,14.067-5.918c-7.326,5.836-15.565,10.61-20.01,19.072
		C2.083,369.049,20.002,393.8,33.839,410c8.009,9.153,16.817,17.829,25.929,25.888L66.641,441.995z M84.849,454.605
		c0.494-0.667,1.012-1.276,1.539-1.844c0.329-0.346,0.658-0.683,0.996-0.988l0.156-0.132c0.412-0.37,0.42-0.634,0.387-0.873
		c-0.156-1.152-1.753-2.799-2.972-3.391c-1.35-0.65-3.26-0.724-4.461,0.593l-1.679,1.827l-1.49-1.992
		c-0.469-0.634-1.012-1.07-1.646-1.325c-1.506-0.593-3.177,0.016-4.305,0.634c-0.543,0.272-1.054,0.601-1.63,1.054l-1.901,1.482
		l-1.169-2.107c-0.428-0.782-0.963-1.292-1.622-1.556c-1.663-0.658-4.099,0.395-6.379,2.749c-1.63,1.712-3.046,3.943-4.066,6.429
		c-0.724,1.778-1.218,3.589-1.457,5.367c-0.247,1.918-0.181,3.688,0.198,5.12c0.296,1.161,0.938,2.642,2.264,3.169
		c1.161,0.461,2.469,0.008,3.358-0.444l2.239-1.144l0.675,2.42c0.37,1.309,1.144,3.004,2.733,3.63
		c2.041,0.815,4.988-0.453,7.705-3.301l2.552-2.683l0.93,3.589c0.774,2.996,2.083,5.12,3.622,5.96
		c-0.025-0.469-0.041-0.947-0.041-1.441c0-0.338,0.041-0.84,0.37-2.05c-0.025-0.198-0.033-0.395-0.049-0.593
		c-0.008-0.132-0.016-0.255-0.025-0.387c-0.025-0.42-0.041-0.848-0.049-1.284v-0.025c0-2.404,0.329-4.848,0.971-7.285
		C81.49,460.367,82.956,457.198,84.849,454.605z M139.126,467.339c-2.502-9.516-8.445-14.833-12.429-13.829
		c-0.338,0.091-0.667,0.231-0.98,0.403l-1.745,5.573l-2.371-6.346c-0.988-1.424-2.634-3.219-4.7-3.219
		c-1.761,0-3.202,1.268-4.206,2.535l-2.338,6.577l-1.819-6.215c-0.494-0.395-1.029-0.667-1.589-0.807
		c-1.161-0.296-2.428-0.074-3.77,0.659c-0.362,0.181-0.716,0.403-1.161,0.708c-0.56,0.395-1.111,0.864-1.63,1.399l-1.687,1.729
		l-1.44-1.934c-0.634-0.856-1.35-1.383-2.181-1.589c-1.416-0.354-3.111,0.255-4.791,1.712c-0.033,0.041-0.074,0.074-0.123,0.115
		c-0.683,0.617-1.358,1.366-2,2.231c-1.58,2.165-2.823,4.865-3.589,7.787c-0.132,0.527-0.255,1.045-0.362,1.572
		c-0.016,0.115-0.033,0.222-0.058,0.338c-0.074,0.412-0.148,0.823-0.198,1.226c-0.025,0.181-0.041,0.354-0.058,0.535
		c-0.041,0.338-0.082,0.683-0.099,1.021c-0.016,0.222-0.016,0.428-0.025,0.65c-0.016,0.296-0.033,0.601-0.033,0.897
		c0.008,0.782,0.058,1.523,0.14,2.198c0.049,0.428,0.115,0.84,0.189,1.243c0.165,0.856,0.387,1.63,0.667,2.305
		c0.535,1.292,1.515,2.922,3.169,3.334c1.144,0.296,2.28-0.09,3.186-0.584l3.597-6.618l0.469,7.787
		c0.667,1.284,1.737,2.659,3.399,3.079c2.33,0.593,5.285-1.013,7.82-4.215l2.527-7.235l1.951,7.91h-0.025
		c1.638,3.531,3.86,5.614,6.066,5.614c2.033,0,4.075-1.745,5.68-4.832l1.391-8.692l2.642,7.886c2.675,3.778,5.91,5.721,8.462,5.071
		c1.251-0.321,2.313-1.21,3.177-2.659C140.336,479.126,140.674,473.257,139.126,467.339z M201.602,471.06
		c0-1.531-0.156-3.095-0.469-4.659c-0.107-0.518-0.222-1.037-0.362-1.564c-0.766-2.93-2.009-5.63-3.589-7.803
		c-0.642-0.856-1.317-1.613-2-2.223l-0.008-0.008c-0.041-0.033-0.082-0.074-0.115-0.107c-1.679-1.457-3.375-2.066-4.791-1.712
		c-0.831,0.206-1.539,0.733-2.181,1.589l-1.441,1.934l-1.687-1.729c-0.519-0.535-1.07-1.004-1.63-1.399
		c-0.436-0.305-0.79-0.527-1.111-0.683c-1.391-0.757-2.659-0.98-3.819-0.683c-0.56,0.14-1.095,0.412-1.589,0.807l-1.819,6.215
		l-2.338-6.577c-1.004-1.268-2.445-2.535-4.206-2.535c-2.066,0-3.712,1.794-4.7,3.219l-2.362,6.346l-1.753-5.573
		c-0.313-0.173-0.642-0.313-0.988-0.403c-3.959-0.996-9.919,4.313-12.421,13.837c-1.548,5.91-1.21,11.779,0.881,15.31
		c0.856,1.449,1.918,2.338,3.169,2.659c2.56,0.65,5.787-1.292,8.462-5.079l2.65-7.878l1.383,8.701
		c1.605,3.079,3.655,4.824,5.68,4.824c2.206,0,4.437-2.082,6.066-5.614h-0.016l1.943-7.91l2.527,7.235
		c2.535,3.202,5.49,4.807,7.82,4.215c1.663-0.42,2.733-1.794,3.4-3.079l0.469-7.787l3.597,6.618
		c0.906,0.494,2.041,0.873,3.177,0.584c1.663-0.412,2.642-2.041,3.177-3.334c0.28-0.675,0.502-1.449,0.667-2.297
		c0.074-0.403,0.14-0.807,0.189-1.226v-0.025c0.041-0.337,0.074-0.691,0.099-1.062c0.008-0.123,0.008-0.255,0.016-0.379
		C201.586,471.57,201.602,471.323,201.602,471.06z M220.312,445.987c-0.675,0.263-1.202,0.774-1.638,1.556l-1.169,2.107
		l-1.901-1.482c-0.568-0.453-1.078-0.782-1.556-1.012l-0.074-0.041c-1.128-0.617-2.799-1.227-4.313-0.626
		c-0.626,0.247-1.161,0.683-1.638,1.317l-1.49,1.992l-1.679-1.827c-1.202-1.317-3.112-1.243-4.461-0.584
		c-1.218,0.584-2.815,2.231-2.972,3.383c-0.025,0.239-0.025,0.502,0.387,0.873l0.156,0.132c0.881,0.798,1.737,1.745,2.535,2.832
		c1.893,2.593,3.358,5.762,4.255,9.186c0.634,2.428,0.963,4.873,0.963,7.277v0.14c-0.008,0.403-0.025,0.79-0.041,1.161
		c-0.008,0.14-0.025,0.272-0.033,0.403c-0.016,0.198-0.025,0.395-0.049,0.585c0.329,1.21,0.37,1.696,0.37,2.033
		c0,0.51-0.016,0.996-0.041,1.465c1.523-0.831,2.848-2.963,3.622-5.968l0.93-3.589l2.552,2.683c2.716,2.848,5.671,4.116,7.705,3.309
		c1.589-0.634,2.362-2.329,2.733-3.638l0.675-2.42l2.239,1.144c0.889,0.453,2.198,0.897,3.367,0.444
		c1.317-0.527,1.959-2.008,2.264-3.169c0.37-1.432,0.436-3.202,0.189-5.136c-0.239-1.762-0.724-3.573-1.457-5.35
		c-1.021-2.486-2.428-4.716-4.075-6.437C224.403,446.382,221.967,445.329,220.312,445.987z M248.776,230.194
		c3.959,22.159,4.585,45.577,1.811,69.876c-2.84,24.883-9.211,50.738-18.94,76.831c-11.392,30.588-24.826,54.434-32.16,66.411
		c2.066-0.724,4.577-0.741,6.7,0.494c0.601-0.477,1.251-0.856,1.959-1.144c2.371-0.93,5.046-0.65,7.762,0.815
		c0.165,0.082,0.329,0.173,0.494,0.263c0.683-0.691,1.482-1.226,2.387-1.58c0.033-0.016,0.074-0.025,0.115-0.033
		c-0.074-0.082-0.107-0.132-0.107-0.132l6.873-6.108c9.112-8.058,17.911-16.734,25.929-25.888
		c13.829-16.191,31.756-40.951,20.512-62.649c-4.445-8.462-12.676-13.228-20.002-19.072c5.021,0.313,9.869,2.601,14.059,5.918
		C266.745,319.677,267.009,271.532,248.776,230.194z M240.989,214.044c-3.416-0.979-6.355-2.198-8.742-3.4
		c4.988,9.919,11.441,28.324,3.334,46.804l-3.441,7.844l-0.494-8.552c-0.198-3.35-3.498-5.754-6.989-8.297
		c-0.593-0.436-1.185-0.872-1.778-1.317c-0.486,11.277-8.363,24.167-18.85,29.649l-1.457,0.765l-5.63-6.676
		c-7.425,25.608-32.102,40.597-53.479,46.186l-0.601,0.156L142.269,317c-30.629-10.528-47.882-25.377-53.874-46.507l-5.943,7.046
		l-1.465-0.765c-10.487-5.482-18.364-18.372-18.842-29.649c-0.593,0.445-1.194,0.881-1.778,1.317
		c-3.498,2.543-6.799,4.947-6.988,8.297l-0.502,8.552l-3.441-7.844c-8.108-18.48-1.646-36.885,3.342-46.804
		c-2.288,1.152-5.071,2.321-8.306,3.284C28.281,274.608,42.636,335.15,57.601,375.36c15.022,40.358,33.6,68.798,36.704,73.424
		c0.601,0,1.194,0.058,1.778,0.206c1.078,0.272,2.066,0.774,2.939,1.49c0.206-0.165,0.42-0.321,0.634-0.469
		c0.609-0.428,1.119-0.741,1.605-0.988c2.198-1.194,4.527-1.548,6.692-1.004c0.807,0.198,1.58,0.527,2.296,0.971
		c1.959-2.091,4.223-3.186,6.651-3.186c2.461,0,4.799,1.177,6.791,3.367c-4.28-9.812-6.766-20.192-8.997-30.596
		c-2.354-11.359-4.083-22.817-5.49-34.317c-1.408-11.483-2.494-22.998-3.334-34.514c-0.848-11.565-1.729-23.105-0.181-34.687
		c3.852,16.956,4.149,34.284,6.412,51.454c2.651,22.743,5.638,45.577,11.252,67.769c1.062,3.943,2.403,8.33,3.811,12.141
		c0.362,0.971,0.757,1.918,1.153,2.873c5.762,0.412,11.581,6.585,14.355,15.5c2.79-8.964,8.659-15.154,14.446-15.508
		c0.395-0.947,0.79-1.893,1.152-2.865c1.399-3.811,2.741-8.19,3.803-12.141c5.622-22.192,8.61-45.026,11.252-67.769
		c2.264-17.171,2.56-34.498,6.412-51.454c1.547,11.582,0.675,23.122-0.181,34.687c-0.84,11.516-1.918,23.031-3.334,34.514
		c-1.408,11.499-3.128,22.957-5.482,34.317c-2.214,10.339-4.684,20.652-8.923,30.407c1.959-2.066,4.239-3.177,6.626-3.177
		c2.428,0,4.7,1.095,6.651,3.186c0.724-0.445,1.49-0.774,2.296-0.971c2.165-0.543,4.494-0.189,6.733,1.029
		c0.445,0.222,0.955,0.535,1.564,0.963c0.214,0.148,0.428,0.305,0.634,0.469c0.881-0.716,1.86-1.218,2.93-1.49
		c0.617-0.156,1.243-0.214,1.877-0.214c3.103-4.626,21.681-33.065,36.704-73.415C242.792,335.177,257.131,274.693,240.989,214.044z
		 M217.966,144.061c-1.432,2.996-3.037,5.902-4.832,8.692c-7.606,11.376-19.006,19.624-31.189,25.517
		c-24.422,11.828-54.113,11.779-78.535-0.016c-12.191-5.877-23.525-14.183-31.139-25.534c-2.066-3.227-3.91-6.643-5.531-10.207
		c-6.067,2.091-20.397,9.45-28.168,33.617l22.686-3.828l-7.071,5.145c-0.156,0.115-15.483,11.59-18.529,34.135
		c13.524-1.712,21.723-8.668,21.813-8.742l12.956-11.186l-9.935,13.936c-0.173,0.239-15.722,22.447-9.063,45.305
		c1.72-2.288,4.206-4.099,6.511-5.778c1.901-1.391,3.704-2.708,5.046-4.181l4.873-5.342l-1.325,7.112
		c-2.025,10.824,6.001,24.052,14.94,29.608l9.096-10.791l0.864,4.132c4.544,21.574,20.949,36.605,51.586,47.248
		c21.138-5.68,45.429-20.916,50.895-46.869l0.864-4.124l8.775,10.404c8.931-5.556,16.965-18.784,14.94-29.608l-1.333-7.112
		l4.873,5.342c1.342,1.473,3.144,2.79,5.046,4.181c2.313,1.679,4.799,3.49,6.519,5.778c6.659-22.859-8.898-45.067-9.063-45.305
		l-10.108-14.174l13.129,11.425c0.082,0.074,8.281,7.03,21.813,8.742c-3.054-22.546-18.381-34.02-18.537-34.135l-7.005-5.128
		l22.62,3.811C238.783,152.473,224.37,145.864,217.966,144.061z M280.228,65.468c-1.144-16.767-16.907-23.838-17.607-24.143
		l-9.046-3.943h25.575c-6.774-12.652-21.698-12.816-21.854-12.816h-3.63l1.86-3.111c4.009-6.709,9.664-12.108,13.187-15.105
		c-25.163-6.429-41.346,2.107-55.702,9.688c-5.968,3.144-11.474,6.05-17.031,7.523c0.757,0.338,1.506,0.691,2.247,1.062
		c2.157,1.177,4.264,2.568,5.951,4.453c-2.469-0.502-4.758-1.037-7.054-1.605c-6.75-1.811-13.73-3.309-20.471-5.112
		c-14.084-3.046-24.645-2.445-30.003-1.729c-2.56,0.346-5.153,0.346-7.705,0.008c-5.433-0.724-16.133-1.333-30.283,1.729
		c-6.733,1.794-13.697,3.301-20.438,5.103c-2.288,0.568-4.585,1.103-7.046,1.605c2.272-2.486,5.136-4.173,8.165-5.523
		c-5.54-1.482-11.046-4.379-17.006-7.515C57.982,8.458,41.799-0.078,16.636,6.35c3.523,2.996,9.178,8.396,13.187,15.105l1.86,3.111
		h-3.63c-0.65,0.008-15.154,0.222-21.863,12.816h25.665l-9.129,3.943C22.026,41.63,6.263,48.7,5.119,65.468l21.006-2.601
		l-1.827,3.482c-0.066,0.124-5.984,11.705-2.897,22.159c2.659-1.967,7.268-4.741,11.952-4.577c2.988,0.091,5.573,1.284,7.696,3.556
		c2.033,2.181,3.029,4.955,2.889,8.017c-0.132,2.749-1.177,5.531-2.897,7.869c3.91,1.268,11.483,2.782,17.697-1.531
		c0.362-9.211,2.206-18.249,5.721-26.472c-2.017,16.133-2.889,32.464,0.593,48.376c4.165,17.936,12.462,32.522,28.053,42.811
		c30.242,21.517,73.983,20.274,102.999-2.856c12.948-9.589,20.653-24.488,24.134-39.963c2.116-9.433,2.7-19.154,2.008-28.801
		c-0.518-6.453-1.177-12.808-1.358-19.566c1.811,2.906,2.922,6.108,3.803,9.343c1.202,5.597,1.877,11.376,2.025,17.204
		c6.223,4.239,13.722,2.733,17.599,1.465c-1.729-2.338-2.774-5.128-2.906-7.869c-0.14-3.07,0.856-5.844,2.889-8.017
		c2.124-2.28,4.708-3.474,7.696-3.564c4.692-0.173,9.293,2.609,11.952,4.577c3.111-10.479-2.832-22.035-2.897-22.159l-1.819-3.482
		L280.228,65.468z M55.973,24.994c-3.967-3.26-8.89-5.293-13.944-6.001c-1.449-0.165-2.214-0.469-3.935-0.165
		c-3.597,0.988-2.403,4.84-1.037,7.096c2.099,3.729,4.881,7.079,7.4,10.454c0.082,0.132,0.132,0.231,0.165,0.305
		c-0.37,0.362-1.103,0.79-2,1.128c-1.366,0.568-2.947,0.881-4.404,1.333c-3.004,0.831-4.865,3.795-3.301,6.667
		c1.399,2.453,3.185,3.671,5.359,4.997c1.967,1.062,4.083,1.794,6.478,1.836c-1.877-2.897-4.107-4.7-6.322-6.955
		c-0.617-0.659-1.202-1.391-1.391-1.869c0,0,0-0.008-0.008-0.016c0.502-0.329,1.498-0.601,2.099-0.79
		c5.161-1.531,10.717-4.774,5.713-10.297l-0.955-1.235c-1.86-2.453-3.72-4.922-5.219-7.556c-0.156-0.28-0.362-0.667-0.527-1.037
		c4.766,0.527,9.524,2.214,13.145,5.342c6.083,5.136,9.063,13.162,10.643,20.825c0.757,4.033,1.218,8.042,2.634,12.306
		c1.819-4.173,1.704-8.635,1.095-12.931C66.526,39.704,63.044,30.748,55.973,24.994z M199.577,97.677c0,0-3.795,0.502-6.272,3.54
		c-0.543,1.449-1.383,2.782-2.494,3.918c-2.107,2.14-4.914,3.334-7.919,3.367h-0.107c-2.963,0-5.754-1.144-7.877-3.218
		c-1.482-1.457-2.502-3.26-3.004-5.227c-0.765-1.012-2.148-2.288-4.371-2.65c0,0,2.593-0.395,4.363-2.906
		c0.477-1.91,1.449-3.671,2.865-5.112c2.107-2.148,4.914-3.342,7.919-3.367c0.033,0,0.074-0.008,0.107-0.008
		c2.963,0,5.754,1.144,7.877,3.227c1.218,1.194,2.124,2.634,2.683,4.198C194.515,94.961,196.606,97.076,199.577,97.677z
		 M191.56,97.175c-0.025-2.346-0.955-4.535-2.634-6.174c-1.646-1.622-3.828-2.519-6.141-2.519c-0.025,0-0.058,0-0.082,0.008
		c-2.346,0.016-4.535,0.955-6.182,2.626c-0.815,0.831-1.449,1.803-1.877,2.856c0.23-0.337,0.485-0.659,0.782-0.963
		c2.568-2.618,6.783-2.667,9.408-0.091c0.214,0.206,0.412,0.428,0.584,0.659c-1.136-0.041-2.272,0.37-3.12,1.235
		c-1.605,1.638-1.572,4.256,0.058,5.861c0.823,0.807,1.91,1.202,2.988,1.185c-0.14,0.165-0.272,0.313-0.42,0.469
		c-2.404,2.437-6.215,2.642-8.849,0.585c0.181,0.214,0.362,0.412,0.568,0.609c1.671,1.638,3.902,2.535,6.223,2.511
		c2.346-0.025,4.535-0.955,6.182-2.626C190.688,101.727,191.576,99.521,191.56,97.175z M117.815,97.406
		c-2.223,0.362-3.597,1.638-4.371,2.65c-0.502,1.967-1.523,3.77-3.004,5.227c-2.116,2.074-4.914,3.218-7.869,3.218h-0.115
		c-2.996-0.033-5.811-1.226-7.919-3.367c-1.111-1.136-1.951-2.469-2.494-3.918c-2.478-3.037-6.272-3.54-6.272-3.54
		c2.972-0.601,5.071-2.716,6.231-4.239c0.568-1.564,1.465-3.005,2.692-4.198c2.116-2.083,4.906-3.227,7.869-3.227
		c0.033,0,0.074,0.008,0.107,0.008c3.004,0.025,5.811,1.218,7.919,3.367c1.416,1.44,2.387,3.202,2.865,5.112
		C115.223,97.01,117.815,97.406,117.815,97.406z M110.703,93.973c-0.428-1.054-1.062-2.025-1.877-2.856
		c-1.646-1.671-3.836-2.609-6.182-2.626c-0.025-0.008-0.058-0.008-0.082-0.008c-2.313,0-4.494,0.897-6.141,2.519
		c-1.671,1.638-2.609,3.828-2.626,6.174c-0.025,2.346,0.864,4.552,2.511,6.231c1.638,1.671,3.828,2.601,6.174,2.626
		s4.552-0.872,6.231-2.511c0.198-0.198,0.379-0.395,0.56-0.609c-2.634,2.058-6.445,1.852-8.84-0.585
		c-0.148-0.156-0.288-0.305-0.428-0.469c1.078,0.016,2.165-0.379,2.988-1.185c1.63-1.605,1.663-4.223,0.058-5.861
		c-0.848-0.864-1.984-1.276-3.12-1.235c0.173-0.231,0.379-0.453,0.584-0.659c2.626-2.576,6.84-2.527,9.408,0.091
		C110.218,93.315,110.473,93.636,110.703,93.973z M159.162,154.951c-1.103,0.272-2.149,0.609-3.26,0.831
		c-6.511,1.029-9.59-3.293-10.8-8.585c0.14-0.099,0.263-0.214,0.387-0.338c9.244-3.967,12.314-17.755,12.314-17.755
		c3.607-14.247,0.781-35.592-15.269-35.592c-15.808,0-18.799,20.544-14.989,35.592c0,0,3.07,13.788,12.314,17.755
		c0.123,0.132,0.255,0.247,0.395,0.346c-1.424,6.338-5.449,10.742-14.059,7.746c-3.153-0.988-5.449-3.959-6.577-7.153
		c-0.329,3.943,1.342,8.157,4.799,10.503c1.317,1.012,2.914,1.424,4.519,1.547c2.618,0.321,5.26,0.165,7.803-1.004
		c2.782-1.391,4.667-3.556,5.935-6.108c1.268,2.552,3.153,4.717,5.943,6.108c3.054,1.416,6.223,1.333,9.367,0.782
		c3.087-0.642,5.746-3.416,6.848-6.174c0.757-1.852,1.062-3.795,0.897-5.655C164.602,150.992,162.314,153.963,159.162,154.951z
		 M14.289,373.97c1.588,4.304,3.868,8.29,6.767,11.738c-1.718-4.159-3.276-8.282-4.291-12.494
		c-3.455-12.791-0.208-26.133,8.397-36.214C13.283,344.753,9.203,360.998,14.289,373.97z M39.237,207.54
		c6.498-9.455,10.978-19.421,18.218-28.27C47.76,183.781,40.886,197.36,39.237,207.54z M80.606,268.552
		c-3.856-8.225-8.429-16.127-11.463-24.725C67.488,252.955,73.217,263.381,80.606,268.552z M268.825,373.214
		c-1.015,4.212-2.573,8.335-4.291,12.494c2.9-3.447,5.179-7.434,6.767-11.738c5.084-12.975,1.008-29.214-10.874-36.971
		C269.032,347.08,272.28,360.423,268.825,373.214z M228.134,179.271c7.24,8.848,11.72,18.815,18.218,28.269
		C244.702,197.352,237.825,183.779,228.134,179.271z M216.446,243.827c-3.034,8.6-7.606,16.498-11.463,24.725
		C212.374,263.38,218.101,252.953,216.446,243.827z M52.208,245.604c1.922-10.294,4.581-20.272,7.646-30.247
		c0.652-2.288,1.47-4.716,2.011-7.047C54.312,218.296,49.773,233.168,52.208,245.604z M232.953,245.604
		c2.435-12.441-2.106-27.309-9.657-37.294c0.542,2.335,1.36,4.759,2.012,7.047C228.372,225.331,231.032,235.312,232.953,245.604z"/>
</g>
</svg>
