<?xml version="1.0" encoding="utf-8"?>
<!-- Generator: Adobe Illustrator 28.3.0, SVG Export Plug-In . SVG Version: 6.00 Build 0)  -->
<svg version="1.1" id="Layer_1" xmlns="http://www.w3.org/2000/svg" xmlns:xlink="http://www.w3.org/1999/xlink" x="0px" y="0px"
	 viewBox="0 0 165.994 153.274" enable-background="new 0 0 165.994 153.274" xml:space="preserve">
<g>
	<g>
		<path fill="#37B5FF" d="M14.637,85.851C14.672,48.649,44.858,18.52,82.06,18.554c37.202,0.035,67.332,30.221,67.297,67.423
			c-0.035,37.202-30.221,67.331-67.423,67.297C44.732,153.239,14.602,123.053,14.637,85.851z"/>
		<g>
			<path fill="none" d="M32.941,89.104c-0.004-0.025-0.015-0.044-0.036-0.066C32.9,89.062,32.911,89.081,32.941,89.104z"/>
			<path fill="none" d="M147.622,77.106c-0.055,0.244-0.245,0.419-0.391,0.494c-1.241,0.643-2.91,1.486-4.643,2.297
				c-0.272,0.127-0.506,0.102-0.694-0.072c-0.198-0.184-0.335-0.522-0.409-1.005c-0.025-0.161-0.053-0.321-0.081-0.482
				c-0.075-0.424-0.154-0.863-0.178-1.301c-0.123-2.257-1.005-3.968-2.077-5.781c-0.053-0.09-0.121-0.17-0.193-0.255
				c-0.151-0.179-0.323-0.382-0.363-0.705c-0.281-2.227-1.267-3.932-2.233-5.549c-0.399-0.667-0.816-1.351-1.188-2.059
				c-0.18-0.342-0.252-0.604-0.254-0.917c-0.037,0.109-0.081,0.218-0.08,0.339c0.003,0.24,0.118,0.49-0.266,0.422
				c-0.383-0.068-0.732-0.424-0.97-0.738c0.261,0.779,0.704,1.586,0.93,2.364c0.479,1.65,0.834,3.31,1.349,4.916
				c0.066,0.207,0.083,0.397,0.089,0.553c0.072,1.809,0.038,3.51,0.426,5.279c0.18,0.821,0.529,1.424,1.063,2.143
				c0.851,1.146,1.463,2.342,2.474,3.537c0.388,0.458,0.991,0.838,1.875,0.532c0.885-0.306,2.083-1.216,3.251-0.967
				c0.647,0.138,0.79,0.449,0.539,1.36c-1.11,4.042-1.807,8.51-4.22,12.16c-1.71,2.587-4.375,4.354-6.141,6.885
				c-0.818,1.173-1.25,2.451-1.53,3.839c-0.397,1.968-0.444,4.004-0.752,5.974c-0.083,0.53-0.294,0.992-0.632,1.368
				c-0.924,1.029-2.066,1.815-3.147,2.604c-0.517,0.377-0.937,0.734-1.289,1.204c-0.352,0.47-0.473,1.031-0.77,1.481
				c-0.54,0.817-1.131,1.432-1.795,2.137c-0.4,0.425-0.733,0.931-0.96,1.482s-0.486,1.193-0.888,1.617
				c-1.141,1.205-2.371,2.505-3.401,3.699c-0.499,0.578-0.81,0.718-1.414,0.976c-0.604,0.258-1.271,0.206-1.863,0.362
				c-0.592,0.156-1.028-0.517-1.043-0.918c-0.06-1.643-0.247-3.452-0.52-4.92s-0.213-2.872-0.418-4.148
				c-0.302-1.884-0.902-3.341-1.359-5.082c-0.149-0.568-0.317-1.02-0.184-1.573c0.378-1.568,1.064-3.013,1.734-4.448
				c0.137-0.294,0.373-0.593,0.421-0.862c0.229-1.292,0.808-2.807,0.95-3.995c0.208-1.736-0.354-2.788-0.941-4.273
				c-0.221-0.559-0.453-0.906-0.656-1.488c-0.204-0.582-0.276-1.242-0.778-1.728s-1.279-0.603-1.956-0.516s-1.262,0.234-1.927,0.245
				c-0.524-0.457-0.929-0.969-1.646-1.127c-1.166-0.257-2.305-0.176-3.517-0.387c-0.501-0.087-1.021-0.259-1.545-0.533
				c-1.062-0.555-2.331-1.008-3.48-1.41c-0.734-0.257-1.35-0.515-1.78-1.179c-1.285-1.985-2.281-4.097-3.279-6.242
				c-0.242-0.52-0.627-0.891-0.674-1.515c-0.094-1.227-0.043-2.2,0.264-3.499c0.307-1.299,0.793-2.883,0.97-4.301
				c0.053-0.428-0.018-0.975-0.003-1.415c0.015-0.44-0.057-0.802,0.206-1.19c1.476-2.176,3.254-4.223,5.015-6.148
				c0.602-0.659,1.382-0.913,1.987-1.484c0.606-0.571,0.956-1.242,1.268-1.948c0.445-1.007,0.967-1.814,1.616-2.653
				c0.068-0.088,0.253-0.146,0.285-0.187c0.657-0.836,1.643-1.209,2.54-1.456s1.498-0.691,2.263-0.97
				c1.136-0.415,2.177-0.463,3.354-0.559c0.846-0.069,1.683-0.143,2.566-0.195c0.387-0.023,0.691-0.114,0.794,0.462
				c0.103,0.576,0.099,1.34-0.164,1.961c-0.046,0.109-0.213,0.348-0.289,0.465c1.017,0.601,2.067,1.075,3.184,1.459
				c0.418,0.486,0.91,0.74,1.494,0.985c0.228,0.096,0.429,0.461,0.687,0.411c0.877-0.171,1.237-0.529,1.811-1.226
				c0.366-0.444,0.821-1.055,1.53-0.936c1.646,0.277,3.285,0.775,4.931,1.069c0.585,0.104,0.794-0.416,1.29-0.485
				c0.726-0.101,1.554,0.25,2.309,0.192c0.305,0.611,0.653,1.17,0.823,1.819c0.013-0.251,0.012-0.608-0.087-0.796
				c-0.764-1.455-0.522-2.651-0.31-3.809c0.041-0.225,0.082-0.449,0.114-0.674c0.104-0.733,0.084-1.298-0.058-1.882
				c-0.016,0.048-0.032,0.096-0.048,0.144c-0.03-0.056-0.06-0.112-0.09-0.169c-0.296-0.556-0.584-0.877-0.852-0.959
				c-0.254-0.078-0.51,0.052-0.764,0.387c-0.174,0.23-0.255,0.215-0.309,0.169c-0.582-0.482-1.146-0.432-1.746-0.379
				c-0.7,0.063-1.427,0.127-2.177-0.678c-0.392-0.419-0.633-0.922-0.681-1.42c-0.069-0.693-0.391-1.141-0.732-1.61
				c-0.049-0.068-0.099-0.137-0.148-0.205c0.021-0.022,0.043-0.045,0.064-0.067c0.052-0.054,0.094-0.141,0.137-0.233
				c0.098-0.206,0.219-0.463,0.51-0.322c0.626,0.303,0.948-0.083,1.281-0.492c0.092-0.112,0.187-0.229,0.288-0.33
				c0.009-0.009,0.019-0.018,0.028-0.028c0.013,0.006,0.026,0.012,0.04,0.018c0.45,0.207,0.836,0.094,1.139-0.34
				c0.617-0.882,1.51-0.952,2.612-0.176c1.004,0.711,1.864,0.689,2.875,0.588c0.197-0.019,0.652-0.128,0.605-0.722
				c-0.037-0.475-0.348-1.02-0.673-1.192c-0.435-0.229-0.82-0.63-1.194-1.013c-0.433-0.444-0.842-0.858-1.318-1.023
				c-0.147-0.051-0.456-0.277-0.548-0.545c-0.028-0.082-0.058-0.236,0.056-0.354c0.212-0.219,0.223-0.567,0.232-0.933
				c0.001-0.056,0.007-0.111,0.009-0.167c-0.166-0.194-0.333-0.388-0.502-0.58c-0.438,0.156-0.812,0.418-1.155,0.82
				c-0.02,0.024-0.043,0.047-0.067,0.071c-0.071,0.072-0.152,0.154-0.14,0.25c0.008,0.064,0.055,0.149,0.143,0.253
				c0.026,0.031,0.054,0.062,0.081,0.094c0.134,0.153,0.286,0.326,0.315,0.528c0.018,0.129-0.017,0.243-0.108,0.347
				c-0.031,0.035-0.063,0.075-0.095,0.116c-0.171,0.217-0.387,0.489-0.703,0.268c-0.289-0.201-0.836-0.842-0.819-1.147
				c0.013-0.228-0.012-0.394-0.071-0.482c-0.077-0.113-0.238-0.134-0.394-0.153c-0.218-0.027-0.509-0.063-0.632-0.427
				c-0.098,0.082-0.275,0.29-0.354,0.464c-0.276,0.612-0.429,1.345-0.587,2.06c-0.08,0.364-0.166,0.742-0.271,1.103
				c-0.14,0.483-0.151,0.853-0.03,1.163c0.124,0.316,0.401,0.593,0.849,0.849c0.049,0.028,0.098,0.056,0.148,0.085
				c-0.034,0.037-0.067,0.074-0.101,0.112c-0.41,0.455-1.002,0.953-1.866,0.784c-0.147-0.037-0.293-0.075-0.44-0.112
				c-0.172-0.05-0.271,0.016-0.317,0.207c-0.01,0.043-0.02,0.086-0.031,0.129c-0.031-0.034-0.062-0.068-0.093-0.101
				c-0.22-0.238-0.273-0.219-0.273-0.219c-0.023,0.011-0.021,0.18-0.021,0.252c0.002,0.205,0.003,0.461-0.159,0.509
				c-0.171,0.05-0.429,0.126-0.444,0.224c-0.015,0.1,0.183,0.407,0.412,0.766c0.053,0.083,0.125,0.165,0.202,0.253
				c0.163,0.187,0.348,0.4,0.376,0.674c0.02,0.192-0.041,0.38-0.186,0.573c-0.013,0.018-0.027,0.036-0.04,0.054
				c-0.019-0.015-0.038-0.031-0.057-0.046c-0.083-0.067-0.166-0.134-0.249-0.202c-0.007-0.007-0.013-0.013-0.02-0.02
				c-0.096-0.125-0.143-0.136-0.158-0.135c-0.016,0.001-0.03,0.017-0.042,0.036c0.025,0.036,0.063,0.087,0.089,0.121
				c0.029,0.038,0.058,0.076,0.081,0.109c0.075,0.06,0.15,0.122,0.225,0.183c0.078,0.064,0.155,0.127,0.233,0.191
				c-0.082,0.006-0.165,0.012-0.247,0.018c-0.1,0.007-0.107,0.081-0.085,0.349c0.015,0.18,0.033,0.384-0.063,0.501
				c-0.067,0.082-0.175,0.103-0.329,0.063c-0.617-0.158-0.953-0.707-1.012-1.627c-0.029-0.44-0.233-0.602-0.468-0.788
				c-0.067-0.053-0.133-0.105-0.194-0.163c-0.525-0.496-1.083-1.11-1.138-2.191c-0.034-0.635-0.378-1.165-0.912-1.42
				c-0.803-0.383-1.494-1.039-2.161-1.658c-0.434-0.404-0.882-0.816-1.349-1.135c-0.075-0.052-0.142-0.111-0.202-0.162
				c-0.187-0.163-0.28-0.244-0.458-0.038c-0.143,0.165-0.216,0.401-0.194,0.632c0.014,0.146,0.065,0.27,0.145,0.349
				c0.309,0.305,0.575,0.682,0.831,1.05c0.456,0.653,0.885,1.28,1.562,1.59c0.444,0.203,0.858,0.559,1.297,0.942
				c0.201,0.175,0.408,0.357,0.624,0.53c0.085,0.068,0.17,0.136,0.254,0.204c-0.092-0.001-0.184-0.002-0.276-0.002
				c-0.291-0.003-0.621-0.004-0.681,0.167c-0.038,0.107,0.015,0.307,0.156,0.598c0.136,0.281,0.181,0.523,0.134,0.717
				c-0.049,0.199-0.189,0.341-0.43,0.435c0.008,0.047,0.016,0.095,0.025,0.142c-0.045-0.035-0.091-0.069-0.136-0.104
				c-0.016,0.005-0.032,0.01-0.048,0.016c-0.003-0.021-0.007-0.042-0.01-0.063c-0.045-0.037-0.09-0.075-0.135-0.113
				c0.036-0.015,0.072-0.029,0.108-0.044c-0.233-1.223-0.958-1.696-1.716-2.187c-0.211-0.136-0.428-0.276-0.63-0.43
				c-0.13-0.1-0.262-0.195-0.393-0.291c-0.638-0.463-1.292-0.933-1.744-1.74c-0.25-0.445-0.513-0.703-0.782-0.772
				c-0.263-0.067-0.543,0.044-0.836,0.329c-0.612,0.6-1.265,1.216-2.269,0.813c-0.217-0.086-0.464-0.023-0.616,0.157
				c-0.087,0.103-0.178,0.286-0.121,0.575c0.198,1.005-0.3,1.341-0.74,1.633c-0.023,0.015-0.045,0.03-0.068,0.045
				c-0.897,0.604-1.385,1.233-1.017,2.554c0.044,0.156,0.004,0.363-0.118,0.612c-0.34,0.7-1.351,1.693-1.943,1.79
				c-0.223,0.037-0.454,0.13-0.677,0.221c-0.284,0.114-0.552,0.222-0.796,0.219c-0.491-0.007-1.71-0.103-2.405-0.838
				c-0.241-0.256-0.87-1.485-0.239-2.593c0.298-0.528,0.162-1.16,0.03-1.764c-0.026-0.119-0.052-0.237-0.075-0.353
				c-0.102-0.522-0.075-0.885,0.081-1.148c0.154-0.258,0.437-0.407,0.867-0.453c1.04-0.112,2.086-0.185,3.109-0.216
				c0.401-0.012,0.645-0.129,0.841-0.407c0.406-0.675,0.293-1.463,0.155-2.14c-0.046-0.228-0.115-0.371-0.205-0.429
				c-0.069-0.044-0.157-0.04-0.263,0.014c-0.02,0.01-0.041,0.02-0.061,0.031c-0.012-0.023-0.024-0.046-0.036-0.07
				c-0.01-0.02-0.023-0.032-0.041-0.041c-0.017-0.008-0.034-0.016-0.05-0.024c-0.001-0.022-0.001-0.044-0.002-0.066
				c-0.014-0.458-0.149-0.664-0.448-0.691c-0.012-0.001-0.023-0.002-0.035-0.003c-0.007-0.011-0.014-0.022-0.022-0.034
				c-0.012-0.019-0.027-0.031-0.045-0.037c-0.01-0.003-0.02-0.007-0.031-0.01c-0.005-0.011-0.011-0.022-0.016-0.034
				c-0.04-0.082-0.111-0.177-0.18-0.269c-0.148-0.198-0.301-0.401-0.242-0.599c0.048-0.163,0.223-0.261,0.564-0.313
				c0.003-0.029,0.006-0.066,0.008-0.092c0.003-0.041,0.006-0.082,0.01-0.115c0.003-0.021,0.005-0.042,0.008-0.063
				c0.017-0.005,0.033-0.01,0.05-0.015c0.145-0.043,0.186-0.146,0.151-0.381c-0.003-0.023-0.007-0.046-0.01-0.07
				c0.017-0.01,0.033-0.021,0.05-0.031c0.147-0.091,0.309-0.111,0.466-0.13c0.226-0.027,0.441-0.052,0.586-0.291
				c0.057-0.139,0.114-0.278,0.17-0.416c0.016,0.002,0.033,0.003,0.049,0.005c0.019,0.002,0.031-0.002,0.031-0.002
				c0,0,0-0.016-0.005-0.048c-0.004-0.024-0.009-0.049-0.013-0.073c0.018-0.01,0.036-0.02,0.054-0.03
				c0.011-0.006,0.024-0.012,0.036-0.017c0.004-0.001,0.007-0.003,0.011-0.004c0.222-0.612,0.593-1.072,0.948-1.516
				c0.366-0.459,0.707-0.891,0.881-1.47c0.294-0.975,0.747-1.492,1.413-1.592c0.463-0.068,0.728-0.221,0.787-0.455
				c0.057-0.224-0.065-0.562-0.359-0.997c-0.427-0.63-0.605-1.162-0.558-1.638c0.055-0.543,0.4-0.99,1.083-1.406
				c0.034-0.021,0.068-0.042,0.103-0.062c0.004,0.049,0.008,0.099,0.013,0.148c0.018,0.203,0.083,0.411,0.153,0.633
				c0.145,0.462,0.311,0.993-0.058,1.49c-0.062,0.083-0.131,0.215-0.106,0.366c0.021,0.124,0.102,0.247,0.242,0.366
				c0.059,0.05,0.119,0.103,0.178,0.156c0.379,0.338,0.742,0.664,1.113,0.341c0.308-0.268,0.606-0.387,1.077-0.082
				c0.511,0.332,0.829,0.067,1.16-0.214c0.109-0.093,0.222-0.188,0.341-0.259c0.067-0.04,0.132-0.082,0.195-0.123
				c0.364-0.237,0.702-0.462,1.326-0.104c0.174,0.1,0.363,0.07,0.533-0.083c0.305-0.274,0.45-0.842,0.34-1.316
				c-0.03-0.13-0.069-0.264-0.106-0.395c-0.084-0.291-0.172-0.589-0.179-0.865c-0.009-0.324,0.006-0.765,0.255-0.897
				c0.052-0.028,0.116-0.035,0.184-0.033c-0.836-0.57-1.687-1.119-2.549-1.652c0.026,0.27-0.077,0.517-0.315,0.702
				c-0.549,0.428-0.47,1.003-0.18,1.753c0.305,0.791,0.156,1.256-0.467,1.444c-0.266,0.081-0.389,0.213-0.442,0.473
				c-0.086,0.417-0.423,0.447-0.683,0.347c-0.261-0.1-0.444-0.361-0.563-0.793c-0.198-0.714-0.608-1.26-1.035-1.825
				c-0.258-0.341-0.523-0.689-0.736-1.066c-0.026-0.046-0.058-0.071-0.096-0.076c-0.077-0.008-0.165,0.064-0.222,0.185
				c-0.086,0.181-0.215,0.327-0.339,0.47c-0.057,0.065-0.114,0.13-0.167,0.198c-0.491,0.629-0.933,0.878-1.326,0.752
				c-0.359-0.113-0.659-0.525-0.922-1.239c-0.074-0.201-0.168-0.389-0.267-0.588c-0.189-0.378-0.383-0.763-0.443-1.234
				c-0.068-0.52-0.052-0.815,0.215-1.217c0.267-0.401,0.572-0.758,0.864-1.099c0.204-0.24,0.404-0.489,0.594-0.746
				c-6.536-3.102-13.65-5.176-21.138-6.029c-0.067,0.054-0.106,0.135-0.124,0.284c-0.037,0.304-0.509,0.365-0.695,0.418
				c-0.186,0.054-0.169,0.119-0.301,0.141c-0.133,0.023-0.066,0.059-0.23,0.038s-0.52-0.043-0.688-0.136s0.446-0.296,0.23-0.33
				s-0.383,0.006-0.666,0.155c-0.283,0.149-0.854,0.366-1.232,0.374c0.31,0.042,0.617,0.015,0.681,0.396
				c0.065,0.381,0.472,0.569,0.732,0.688c0.261,0.119,0.16,0.195,0.265,0.357c0.398,0.618,0.198,0.98-0.302,1.438
				c-0.593-0.264-1.102-0.629-1.576-1.06c-0.184-0.168-0.511-0.289-0.671-0.095s0.365,0.198,0.408,0.269
				c0.044,0.071,0.018,0.033-0.001,0.04c-0.811,0.271-1.54,0.562-2.199,1.117c0.679-0.284,1.301-0.737,2.059-0.741
				c0.224-0.001,0.079,0.206-0.194,0.296c-0.274,0.09-0.953,0.459-1.303,0.597c0.969-0.262,1.808-0.394,2.77,0.002
				c-0.31,0.014-0.882,0.37-0.982,0.597c-0.011,0.026-0.007,0.031-0.011,0.047c0.065,0.041-0.025,0.106,0,0
				c-0.012-0.008-0.015-0.018-0.042-0.021c-0.192-0.023-0.562,0.262-0.653,0.421c-0.091,0.159-0.052,0.004-0.088,0.051
				c-0.036,0.047-0.037,0.015-0.077,0.068c-0.04,0.053-0.17,0.189-0.253,0.159c-0.083-0.03,0.063-0.006-0.016-0.027
				c-0.079-0.022-0.104,0.043-0.194,0.086c-0.09,0.043-0.267,0.072-0.384,0.112c-0.875,0.293-2.03,0.607-2.87,0.748
				c-0.84,0.141-1.103,0.368-1.761,0.78c-0.012,0.008,0.073-0.058-0.2,0.144c-0.272,0.203-1.131,0.931-1.446,1.328
				c-0.011,0.014-0.087,0.07-0.108,0.077c-0.497,0.174-1.227,0.405-1.675,0.519c-0.448,0.114-0.277-0.266-0.648-0.047
				c-0.371,0.219-0.778,0.4-1.235,0.553c-0.456,0.153-0.946,0.409-1.216,0.843c-0.574,0.925-1.22,1.698-2.118,2.281
				c-0.195,0.127-0.326,0.202-0.341,0.397c-0.044,0.596-0.543,1.179-0.85,1.545c-0.622,0.74-1.146,1.19-1.833,0.467
				c-0.181-0.19-0.197-0.334-0.419-0.267c-0.748,0.226-1.152,0.193-1.682-0.361c-0.074-0.077-0.012-0.12-0.02-0.17
				c-0.085-0.516-0.159-1.026-0.235-1.527c-0.076-0.501,0.261-0.816,0.604-1.076c0.343-0.261,0.638-0.398,0.568-0.85
				c-0.071-0.451-0.285-0.788-0.621-1.091c0.283-0.279,0.409-0.587,0.825-0.727c0.415-0.14,0.899-0.486,1.131-0.829
				c0.232-0.343,0.496-0.279,0.457-0.702c-0.039-0.424,0.185-0.723,0.482-1.023c0.011-0.011,0.023-0.024,0.036-0.035
				c0.351-0.291,0.641-0.714,0.769-1.119c0.129-0.405,0.741-0.667,0.323-1.002c-0.028-0.022-0.1,0.028-0.035-0.053
				c0.065-0.081,0.215-0.323,0.147-0.419c-0.068-0.096-0.109-0.007-0.181-0.043c-0.072-0.036-0.111-0.027-0.187-0.063
				c-0.076-0.036-0.058,0.093-0.085-0.07s0.041-0.336-0.316-0.136c-0.357,0.2-0.987,0.719-1.497,0.46
				c0.69-0.477,1.234-1.195,1.401-2.002c0.12-0.58,0.221-1.059,0.022-1.484c-4.676,0.903-9.183,2.281-13.461,4.097
				c0.12,0.082,0.165,0.21,0.019,0.354c-0.302,0.297-0.832,0.176-1.154,0.333c-0.265,0.129-0.472,0.148-0.591,0.091
				c-0.333,0.153-0.673,0.294-1.004,0.453c-0.255,0.334-0.534,0.651-0.838,0.949c0.217-0.277,0.984-0.723,1.267-0.6
				c0.283,0.123,0.152,0.064,0.301-0.036c0.645-0.431,1.185-0.792,1.953-0.792c0.388,0,0.405,0.429,0.317,0.645
				s0.096,0.254,0.16,0.247c0.826-0.095,1.308,0.188,2.085,0.384c0.108,0.027,0.258,0.355,0.397,0.39s-0.082,0.242-0.168,0.279
				c-0.722,0.309-0.124,0.218-0.377,0.565c-0.253,0.347-0.829,0.333-1.11,0.67c0.223,0.474,0.478,0.302,0.884,0.225
				c0.405-0.076,0.269,0.26,0.682,0.396s1.061,0.278,1.315,0.815c0.074,0.157-0.066,0.393-0.458,0.529
				c-0.391,0.136-1.426,0.879-1.78,1.202c-0.353,0.323-0.634,0.37-0.844,0.073c-0.21-0.298-0.196-0.511-0.443-0.736
				c-0.246-0.225-0.402-0.147-0.646,0.084s-0.606,0.416-0.559,0.834s0.545,0.742,0.428,1.18c-0.117,0.438-0.388,0.712-0.707,0.929
				c-0.319,0.216-0.537,0.177-0.873,0.049c-0.336-0.129-0.687-0.33-1.02-0.481c0.021,0.506,0.336,0.918,0.361,1.423
				c-0.492-0.004-1.234-0.047-1.667-0.15c-0.778-0.184-0.848-0.791-1.281-1.26c-0.433-0.469-1.062-0.003-1.425,0.076
				c-0.363,0.079-0.438,0.172-0.676,0.223c-0.238,0.051-0.656,0.19-0.692-0.088c-0.035-0.278,0.267-0.282,0.487-0.457
				c0.22-0.176,0.775-0.405,1.076-0.362s0.398,0.04,0.663-0.038c0.646-0.191,1.083-0.509,1.447-1.084
				c0.11-0.173,0.375-0.212,0.522-0.31c0.147-0.098,0.361-0.184,0.46-0.259c0.099-0.075,0.029-0.021,0.09-0.065
				c0.061-0.044,0.198-0.144,0.244-0.169c0.045-0.025,0.037-0.042,0.05-0.047c0.47-0.176,0.942-0.735,0.782-1.182
				c-0.159-0.446-0.517-0.319-0.691-0.702c-0.175-0.383-0.485-0.703-0.747-1.034c-0.378,0.437-0.514,0.759-1.157,0.798
				c-0.643,0.039-0.952,0.255-1.688,0.452c-0.736,0.197-1.832,0.381-2.72,0.15c-0.029-0.008-0.033-0.03-0.053-0.044
				c-0.72,0.451-1.438,0.906-2.139,1.384c0.144-0.039,0.286-0.047,0.419,0.007c0.461,0.188-0.105,0.534-0.294,0.641
				c-0.19,0.107-0.834,0.509-0.443,0.708c0.392,0.199,0.654-0.182,1.086-0.432c0.431-0.25,1.221-0.83,1.741-1.029
				c0.135-0.052,0.314-0.21,0.322-0.253c0.109-0.6,0.788-0.673,1.125-0.752c0.337-0.079,0.356-0.066,0.546-0.078
				s0.063-0.023,0.143,0.039c0.079,0.061,0,0.056,0.022,0.164c0.022,0.108,0.28-0.055,0.277,0.065
				c-0.004,0.119-0.457,0.522-0.536,0.566c-0.507,0.286-0.858,0.37-0.74,0.972c-0.792,0.763-2.256,1.431-3.22,1.481
				c-0.965,0.05-0.674,0.139-1.368,0.566c-0.087,0.054-0.061,0.127-0.307,0.221s-0.607,0.274-0.907,0.558
				c-0.593,0.562-1.357,1.074-2.189,1.367c-0.206,0.073-0.37,0.135-0.589,0.305c-1.008,0.784-2.163,1.528-3.141,2.387
				c-0.277,0.243-0.555,0.635-0.777,0.89c-0.445,0.509-1.021,1.506-1.309,1.911c-0.288,0.405-0.35,0.614-0.185,0.817
				c0.462,0.571,0.119,1.021,0.011,1.628c-0.003,0.017-0.007,0.006,0.009,0.005c0.756-0.065,1.356-0.548,2.13-0.258
				c0.775,0.291,1.409,0.386,2.272,0.339c0.302-0.016,0.221,0.289,0.078,0.648c-0.344,0.865-0.716,2.007-0.01,2.903
				c0.252,0.32,1.017-0.561,1.121-0.881c0.104-0.32,0.259-0.611,0.336-0.98c0.263-1.248,0.854-2.208,1.833-3.053
				c0.979-0.845,1.885-1.5,1.489-2.906c-0.066-0.236-0.124-0.299,0.123-0.469c0.809-0.555,1.528-1.706,2.012-2.427
				c0.484-0.72,0.753-0.827,1.441-0.923c0.687-0.096,1.182-0.007,1.836-0.128c0.296-0.054,0.327-0.072,0.531,0.25
				c0.204,0.322,0.426,0.611,0.91,0.629c0.192,0.007,0.012,0.315-0.163,0.473c-0.175,0.159-0.42,0.748-0.591,0.975
				c-0.171,0.227-0.027,0.348,0.105,0.302s0.274-0.06,0.285-0.019c0.184,0.673,0.576,0.427,1.093,0.214
				c0.516-0.213,1.167-0.684,1.54-1.042c0.373-0.359,0.75-0.863,1.033-0.249s0.294,1.435,0.168,2.08s-0.143,1.191,0.25,1.679
				c0.393,0.488,0.927,0.286,1.387,0.617c-0.827,0.421-1.677,0.832-2.475,1.299c0.766-0.191,1.463-0.928,2.291-0.688
				c0.828,0.241,0.752,0.781,0.426,1.561s-0.918,1.815-1.435,2.562c0.101-0.002,0.18-0.048,0.291-0.065s0.122,0.087,0.101,0.179
				c-0.021,0.092-0.216,0.228-0.06,0.299c0.155,0.071,0.399,0.066,0.436,0.297c0.688-0.335,1.035-0.573,0.76,0.507
				c-0.05,0.199-0.371,0.915,0.341,0.871c0.107-0.007,0.051,0.62-0.176,0.69c-0.227,0.069-0.244,0.399-0.577,0.098
				s-0.749-0.395-1.113-0.018c-0.702-0.698-1.466-0.375-2.336-0.484c-0.316-0.039-0.123-0.29,0.019-0.508
				c0.34-0.524,0.875-1.134,1.292-1.624c0.16-0.189,0.358-0.526,0.497-0.616c0.14-0.09,0.065-0.052,0.076-0.065
				c0.335-0.397,0.681-0.716,0.929-1.164c-0.797,0.104-1.381,0.331-2.05,0.801c-0.669,0.47-1.43,0.814-2.258,0.813
				c-0.828-0.002-1.51-0.036-2.315,0.157c-0.804,0.193-1.307,0.765-1.962,1.218c-0.845,0.584-1.624,1.08-2.251,1.925
				c0.756-0.542,1.366-1.164,2.235-1.568c0.506-0.235,1.007-0.632,1.631-0.422s0.284,0.652-0.08,1.033
				c-0.364,0.38-0.53,0.99-0.374,1.506c0.157,0.516,0.735,0.71,1.182,0.759s0.476,0.064,0.662,0.428
				c-1.026,0.533-2.056,0.998-2.958,1.725c-0.206,0.167-0.498,0.321-0.656,0.037c-0.157-0.284,0.122-0.491,0.295-0.682
				c0.173-0.191,0.43-0.456,0.61-0.588c0.18-0.133,0.567-0.077,0.456-0.345c-0.111-0.268-0.346,0.007-0.598,0.12
				c-1.193,0.538-2.411,1.295-3.509,2.059c-0.269,0.187-0.535,0.607-0.593,0.85c-0.274,1.151-0.763,1.536-1.737,2.041
				c-0.622,0.322-0.739,0.593-0.939,1.271c-0.2,0.677-0.655,1.418-0.98,2.058c-0.177,0.347-0.32-0.276-0.346-0.397
				c-0.399,0.406-0.382,1.09-0.364,1.573c0.059,1.602-0.299,2.754-1.204,4.016c-0.585,0.815-1.287,1.887-1.615,2.723
				c-0.5,1.278-0.12,2.579,0.013,3.668c0.133,1.089,0.538,1.865-0.186,2.582c-0.724,0.716-0.887-1.026-0.851-1.435
				c0.002-0.023-0.002-0.035-0.008-0.052c-0.146-0.455-0.147-0.863-0.1-1.346c0.002-0.023,0.026-0.042,0.002-0.111
				c-0.023-0.067-0.07-0.186-0.134-0.284c-0.004-0.003-0.017-0.016-0.048-0.054c-0.122-0.146-0.573-0.336-0.85-0.202
				c-0.277,0.134-0.325-0.184-0.534-0.215c-0.04-0.006-0.05-0.013-0.06-0.019c-0.009,0.008-0.009,0.012-0.034,0.025
				c-0.179,0.095-0.624,0.215-0.88-0.007c-0.02-0.017-0.047,0.043-0.072,0.05c-0.026,0.006-0.036-0.03-0.068,0.02
				c-0.033,0.05-0.118,0.158-0.188,0.097c-0.07-0.061-0.102,0.031-0.159,0.045c-0.058,0.014-0.029-0.036-0.078,0.024
				s-0.191,0.188-0.274,0.127c-0.083-0.061-0.002,0.023-0.061,0.029c-0.059,0.006,0.013-0.038-0.083-0.008
				c-0.097,0.03-0.318,0.147-0.405,0.222c-0.087,0.075-0.006-0.116-0.098,0.041c-0.092,0.157,0.103,0.612,0.017,0.864
				s-0.37,0.396-0.633,0.341c-0.84-0.175-1.45,0.002-2.193,0.388c-0.013,0.007-0.056,0.024-0.06,0.033
				c-0.138,0.356-0.583,0.832-0.821,1.014s-0.301,0.295-0.377,0.452c-0.271,0.56-0.354,1.095-0.408,1.669
				c-0.086,0.911-0.463,2.049-0.54,2.87c-0.114,1.21,0.027,2.13,0.782,2.97c0.755,0.84,1.479,0.179,2.318-0.228
				c0.314-0.152,0.403-0.649,0.589-1.029c0.398-0.812,1.026-1.619,2.062-1.457c0.237,0.037,0.173,0.259,0.086,0.451
				c-0.616,1.371-1.026,2.869-1.576,4.273c0.627,0.092,1.1-0.194,1.757-0.048c1.126,0.251,1.195,1.259,0.906,2.277
				c-0.54,1.905-0.563,3.234,1.462,4.02c0.016,0.006,0.026,0.023,0.039,0.036c0.002-0.009-0.009-0.022,0.001-0.027
				c0.584-0.288,1.047-0.241,1.406,0.11c0.972-1.13,2.073-1.923,3.375-2.736c0.369-0.231,0.638-0.051,0.976,0.105
				c-0.267,0.232-0.716,0.335-0.576,0.769c0.139,0.434,0.609,0.06,0.806-0.109c0.196-0.169,0.143-0.46,0.428-0.453
				c0.285,0.007,0.438,0.346,0.633,0.52c1.073,0.958,2.178,1.145,3.554,1.27c1.028,0.093,1.563,0.707,2.263,1.373
				c1.006,0.958,1.905,2.035,2.886,3.004c0.346,0.342,0.651,0.346,1.121,0.392c2.158,0.213,3.652,1.071,4.863,2.828
				c0.726,1.052,0.552,1.744,0.434,2.898c1.187-0.265,1.714-0.297,3.054-0.003c0.347,0.076,1.329-0.216,2.009-0.091
				c0.68,0.126,1.515,0.515,2.405,0.729c0.89,0.214,2.135,0.113,3.177,0.064c1.042-0.049,1.847-0.068,2.898,0.483
				c1.052,0.551,2.268,1,3.416,1.729c1.147,0.729,1.549,2.474,0.767,3.657s-1.689,2.117-2.555,3.139
				c-0.471,0.555-0.086,1.082-0.096,1.634c-0.034,1.819-0.366,3.208-1.152,4.865c-0.235,0.497-0.853,0.697-1.464,0.894
				c-1.386,0.447-2.746,1.132-3.708,2.309c-0.297,0.364,0.02,0.558,0.188,0.909c0.359,0.748,0.644,1.539,0.589,2.397
				c-0.103,1.613-0.345,3.132-0.55,4.757c-0.205,1.625-0.945,2.581-2.624,2.82c-0.042,0.006-0.112-0.041-0.145-0.043
				c-0.033-0.002,0.034,0.051,0.054,0.049c0.02-0.001,0.075-0.019,0.1,0.009c0.317,0.348,0.826,0.781,1.117,1.099
				c0.705,0.771,0.905,1.35,0.554,2.304c-0.168,0.458-0.543,0.544-0.934,0.759c-1.055,0.581-1.163,1.038-0.662,2.132
				c0.223,0.486-0.344,0.588-0.66,0.496c-0.315-0.091-0.783-0.456-0.9-0.036c-0.117,0.42,0.375,0.765,0.732,0.936
				c0.358,0.172,0.705,0.57,0.867,0.899c0.495,1.004,0.462,1.475,0.423,2.622c-0.018,0.521,0.808,1.081,1.425,1.193
				c0.617,0.112,1.561,0.618,1.483,1.348s-0.349,0.986,0.122,1.641c0.471,0.656,0.966,0.874,1.874,1.065s2.238,0.361,3.237,0.424
				c-1.163,0.22-2.405,0.437-3.58,0.493c-0.331,0.016,0.049-0.215-0.173-0.32c-0.222-0.105-0.497-0.229-0.729-0.269
				c-0.231-0.041-0.175,0.043-0.173,0.203c0.001,0.161-0.082,0.164-0.226,0.171s-0.309-0.066-0.432-0.137
				c-0.874-0.507-1.861-0.737-2.776-1.115c-0.914-0.378-1.669-0.778-2.416-1.433s-1.36-1.292-2.085-2.093
				c-0.068-0.075-0.443-0.23-0.685-0.463c-0.242-0.233-0.554-0.506-0.611-1.08c-0.057-0.574-0.789-1.366-1.237-1.797
				c-0.448-0.431-0.771-0.839-1.195-1.288c-0.424-0.449-0.987-0.792-1.553-1.043s-0.914-0.433-1.293-0.956
				c-0.379-0.523-1.006-1.177-1.461-1.6s-0.683-0.746-0.902-1.26c-0.718-1.687-1.241-2.934-2.063-4.692
				c-0.822-1.758-1.717-3.788-2.341-5.835c-0.489-1.603-0.839-3.688-1.329-5.365c-0.348-1.192-1.312-2.111-2.239-2.68
				c-2.905-1.785-5.098-3.621-7.152-6.222c-1.016-1.286-1.841-2.385-2.835-3.74c-0.536-0.729-0.61-1.655-0.161-2.57
				c0.18-0.366,0.226-0.733,0.048-1.233c-0.289-0.809-0.123-1.943,0.29-2.681s0.954-1.368,1.432-1.936
				c0.766-0.911,0.744-2.169,0.774-3.123c0.031-0.954,0.197-1.521,0.633-2.145c0.087-0.125,0.178-0.239,0.267-0.357
				c-0.154-0.346-0.429-0.439-0.927-0.473c-0.021-0.001-0.035-0.019-0.051-0.032c0.002,0.013,0.011,0.027,0.007,0.037
				c-0.283,0.661-0.659,0.993-1.311,0.481c-0.652-0.512-1.089-1.279-1.839-1.732c-0.155-0.094-0.226-0.323-0.243-0.528
				c-0.093-1.152-0.408-2.041-1.484-2.56c-0.715-0.345-1.381-0.686-1.757-1.339s-0.919-0.661-1.427-0.456
				c-0.508,0.205-0.743,0.158-1.105,0.002c-1.222-0.525-2.22-1.044-3.258-1.834c-0.385-0.293-0.432-0.801-0.371-1.258
				c0.061-0.456,0.035-0.868-0.035-1.317c-0.013-0.085-0.054-0.154-0.117-0.213c-0.064-0.059-0.102-0.135-0.114-0.215
				c-0.012-0.08-0.054-0.111-0.088-0.175c-0.033-0.064-0.082-0.117-0.121-0.176c-0.039-0.059-0.073-0.119-0.116-0.173
				c-0.043-0.053-0.076-0.109-0.126-0.149c-0.009-0.001-0.016-0.002-0.041-0.01c-0.137-0.042-0.143-0.208-0.176-0.36
				c-0.033-0.151,0.115,0.03-0.082-0.197c-0.197-0.227-0.383-0.357-0.482-0.807c-0.1-0.45-0.448-1.174-0.714-1.658
				c-0.035-0.065-0.061-0.13-0.093-0.266c-0.118-0.511-0.219-1.14-0.214-1.686c-0.004-0.052,0.029,0.013-0.062-0.133
				c-0.091-0.146-0.407-0.377-0.594-0.077c-0.187,0.301-0.2,0.878-0.079,1.138c0.415,0.895,0.613,1.771,0.841,2.649
				s0.323,1.636,0.539,2.492c-0.496-0.623-0.869-1.053-0.925-1.886c-0.012-0.185-0.121-0.422-0.352-0.456
				c-0.231-0.034-0.424-0.375-0.497-0.502c-0.073-0.127-0.147-0.23-0.09-0.283c0.41-0.381,0.278-0.797,0.091-1.182
				c-0.344-0.706-0.378-1.514-0.437-2.214c-0.931,4.452-1.427,9.064-1.432,13.791c-0.035,37.202,30.095,67.388,67.297,67.423
				c37.202,0.034,67.388-30.095,67.423-67.297c0.003-3.396-0.251-6.732-0.733-9.994C148.208,76.142,147.794,76.338,147.622,77.106z
				 M131.776,59.286c0.005,0.005-0.001,0.006-0.005,0.008c-0.003,0.002-0.017,0.012-0.018,0.001S131.769,59.28,131.776,59.286z
				 M104.032,33.161c0.051-0.209,0.097-0.406,0.095-0.581c-0.003-0.21,0.054-0.377,0.168-0.498c0.179-0.191,0.464-0.216,0.673-0.176
				c0.068,0.013,0.164,0.042,0.207,0.137c0.046,0.101,0.006,0.213-0.033,0.322c-0.065,0.179-0.081,0.258,0.028,0.331
				c0.013-0.002,0.029-0.003,0.046-0.005c0.075-0.008,0.187-0.021,0.291-0.054c0.323-0.104,0.533-0.078,0.641,0.079
				c0.106,0.154,0.09,0.415-0.053,0.775c-0.19,0.479-0.09,0.649,0.284,1.061c0.149,0.165,0.312,0.327,0.47,0.485
				c0.389,0.388,0.796,0.796,1.095,1.35c0.036,0.067,0.071,0.14,0.106,0.215c0.175,0.373,0.326,0.699,0.758,0.502
				c0.11-0.048,0.298,0.134,0.36,0.253c0.127,0.241-0.164,1.153-0.355,1.591c-0.235,0.541-0.356,0.541-0.4,0.54
				c-0.71-0.007-1.332,0.281-1.996,0.588c-0.349,0.162-0.712,0.329-1.084,0.448c-0.043,0.014-0.086,0.028-0.129,0.041
				c0.012-0.053,0.025-0.105,0.037-0.158c0.092-0.392,0.301-0.664,0.501-0.926c0.058-0.076,0.114-0.149,0.166-0.224
				c-0.145-0.195-0.319-0.222-0.502-0.25c-0.042-0.007-0.085-0.013-0.127-0.022c-0.021-0.004-0.041-0.008-0.062-0.012
				c0-0.026,0-0.051-0.001-0.077c0-0.016-0.002-0.034-0.004-0.053c-0.007-0.07-0.014-0.15,0.039-0.192
				c0.23-0.183,0.281-0.488,0.334-0.808c0.06-0.363,0.126-0.771,0.463-1.035c0.029-0.023,0.035-0.046,0.037-0.063
				c0.016-0.144-0.188-0.433-0.336-0.642c-0.061-0.086-0.119-0.168-0.165-0.241c-0.008-0.013-0.016-0.026-0.024-0.038
				c0.004-0.015,0.009-0.03,0.013-0.045c0.006-0.021,0.014-0.044,0.023-0.068c0.002-0.007,0.006-0.016,0.009-0.025
				c-0.007,0.005-0.021,0.021-0.039,0.057c-0.005,0.011-0.011,0.021-0.016,0.032c-0.017,0.005-0.033,0.009-0.05,0.014
				c-0.277,0.076-0.539,0.148-0.685-0.034c-0.104-0.129-0.119-0.353-0.051-0.702c0.023-0.119-0.041-0.337-0.172-0.382
				c-0.307-0.106-0.502-0.263-0.599-0.479C103.858,33.878,103.948,33.513,104.032,33.161z M103.351,36.715
				c0.03-0.018,0.06-0.035,0.09-0.054c-0.004-0.009-0.008-0.018-0.013-0.028c0.009-0.001,0.018-0.002,0.027-0.003
				c-0.018-0.188-0.037-0.376-0.055-0.563c0.252-0.081,0.504-0.162,0.755-0.242c0.005,0.029,0.011,0.059,0.016,0.088
				c0.046,0.252,0.027,0.447-0.061,0.594c-0.105,0.176-0.292,0.244-0.453,0.274c0.141,0.427,0.176,1.201,0.058,1.639
				c-0.013,0.048-0.012,0.108-0.011,0.172c0.001,0.034,0.001,0.068,0,0.102c-0.001,0.016-0.001,0.031-0.002,0.046
				c-0.067,0.057-0.134,0.115-0.201,0.172c-0.008,0-0.016,0-0.023,0c-0.057,0-0.131,0.021-0.208,0.043
				c-0.163,0.046-0.331,0.093-0.437-0.018c-0.063-0.067-0.089-0.174-0.078-0.328c0.01-0.146-0.012-0.302-0.036-0.468
				c-0.057-0.396-0.121-0.84,0.275-1.185C103.106,36.86,103.231,36.786,103.351,36.715z M97.656,26.938
				c0.017-0.262,0.144-0.447,0.265-0.627c0.04-0.06,0.081-0.12,0.118-0.183c0.156-0.268,0.304-0.405,0.444-0.408
				c0.142-0.004,0.264,0.127,0.365,0.393c0.125,0.331,0.221,0.373,0.266,0.366c0.044-0.005,0.137-0.067,0.267-0.41
				c0.067-0.178,0.165-0.23,0.252-0.276c0.027-0.015,0.055-0.029,0.084-0.049c0.237-0.168,0.489-0.277,0.732-0.381
				c0.296-0.127,0.604-0.259,0.883-0.495c0.49-0.417,1.008,0.22,1.332,0.619c0.017,0.021,0.034,0.042,0.051,0.063
				c0.075,0.092,0.108,0.202,0.095,0.326c-0.035,0.363-0.46,0.744-0.643,0.891c-0.256,0.207-0.508,0.437-0.754,0.662
				c-0.119,0.109-0.239,0.218-0.359,0.324c-0.214,0.19-0.456,0.372-0.726,0.463c-0.262,0.089-0.552,0.092-0.865-0.061
				c-0.174-0.085-0.354-0.012-0.544,0.065c-0.109,0.044-0.222,0.09-0.337,0.109c-0.038,0.006-0.075,0.012-0.112,0.018
				c0.02-0.042,0.04-0.084,0.061-0.125c0.141-0.292,0.187-0.494,0.139-0.604c-0.07-0.162-0.36-0.149-0.614-0.136
				c-0.075,0.004-0.151,0.008-0.226,0.011c0.07-0.049,0.14-0.099,0.209-0.148c0.055-0.039,0.119-0.073,0.181-0.106
				c0.12-0.064,0.256-0.136,0.29-0.229c0.015-0.04,0.012-0.087-0.01-0.145c-0.031-0.083-0.066-0.13-0.109-0.143
				c-0.071-0.022-0.17,0.048-0.277,0.121c-0.129,0.089-0.275,0.19-0.417,0.161c-0.015-0.003-0.029-0.006-0.044-0.009
				C97.654,26.976,97.655,26.957,97.656,26.938z M87.476,21.025c0-0.001-0.006-0.006-0.004-0.006c0.002,0,0.009,0.005,0.008,0.008
				C87.479,21.027,87.476,21.026,87.476,21.025z M87.612,19.806c-0.002,0-0.01-0.003-0.009-0.005
				c0.001-0.003,0.01-0.004,0.013-0.002C87.618,19.8,87.614,19.806,87.612,19.806z M51.752,30.867
				c0.001,0.002,0.013-0.005,0.01-0.008C51.765,30.862,51.753,30.869,51.752,30.867z M50.833,29.883
				c-0.021-0.22-0.037,0.064-0.034-0.054c0.003-0.119,0.256-0.196,0.316-0.215c0.06-0.019,0.013,0.016,0.019,0.012
				c0.468-0.256,1.019-0.222,0.561,0.291c-0.458,0.513-0.81,0.388-1.379,0.556C50.517,30.37,50.854,30.103,50.833,29.883z
				 M49.179,29.19c0.002,0,0.009,0.001,0.008,0.005c-0.002,0.004-0.011,0.006-0.014,0.003C49.171,29.196,49.177,29.191,49.179,29.19
				z M43.065,33.019c0.001,0,0.004-0.003,0.005-0.001s0,0.007-0.003,0.007c-0.003,0-0.015,0.01-0.017,0.006
				C43.049,33.027,43.062,33.02,43.065,33.019z M42.2,35.788c-0.098,0.012,0.003-0.177,0.062-0.212
				c0.473-0.283,0.973-0.49,1.517-0.616C43.273,35.313,42.831,35.711,42.2,35.788z M45.22,34.133
				c-0.109,0.076-0.303,0.246-0.48,0.27c-0.176,0.024-0.344,0.064-0.518-0.009c-0.679-0.282-1.178,0.05-1.72,0.441
				c-0.189,0.137-0.544,0.434-0.666,0.144c-0.123-0.289-0.33-0.166-0.58-0.159c0.643-0.476,1.341-1.082,1.768-1.716
				c0.178-0.263,0.549-0.401,0.701-0.292c0.576,0.41,0.978,0.742,1.545,1.106C45.333,33.959,45.329,34.058,45.22,34.133z
				 M48.175,45.945c0.705-0.068,1.186,0.012,1.694,0.53C49.166,46.572,48.726,46.365,48.175,45.945z M137.835,110.263
				c-0.815,2.494-2.268,4.821-3.921,6.793c-0.839,1.002-1.753,1.643-2.946,1.669c-1.193,0.026-0.326-0.945,0.103-1.403
				c0.132-0.141,0.37-0.574,0.517-0.756c1.269-1.57,2.351-3.209,3.165-5.033c0.212-0.474,0.375-0.874,0.633-1.291
				c0.791-1.283,1.442-2.596,1.967-3.997c0.082-0.218,0.064-0.537,0.361-0.477s0.329,0.301,0.318,0.596
				C137.985,107.672,138.261,108.961,137.835,110.263z"/>
			<path fill="none" d="M146.767,67.429c-0.05-0.174-0.097-0.349-0.148-0.523c-0.005,0.08-0.009,0.157,0.001,0.2
				C146.658,67.266,146.708,67.36,146.767,67.429z"/>
			<path fill="none" d="M37.977,89.27c0.267,0.074,0.322-0.138,0.349-0.371c0.027-0.233,0.025-0.594-0.248-0.691
				c-0.273-0.096-0.361,0.164-0.381,0.399C37.678,88.843,37.71,89.196,37.977,89.27z"/>
			<path fill="none" d="M143.867,61.113c-0.06,0.204-0.031,0.464,0.081,0.735c0.063,0.153,0.124,0.309,0.185,0.466
				c0.244,0.628,0.491,1.281,0.896,1.727c0.286,0.316,0.643,0.711,0.659,1.463c0.003,0.162,0.115,0.402,0.157,0.42
				c0.161-0.148,0.287-0.237,0.396-0.293c-0.511-1.619-1.091-3.206-1.718-4.769c-0.103-0.023-0.207-0.04-0.311-0.052
				C144.068,60.795,143.925,60.915,143.867,61.113z"/>
			<path fill="none" d="M49.551,26.88c-0.176,0.097-0.348,0.201-0.523,0.3c0.048,0.065,0.178,0.088,0.378,0.127
				C49.404,27.15,49.468,27.011,49.551,26.88z"/>
			<path fill="#00B88F" d="M34.652,89.597c0.135,0.265-0.018,0.396-0.189,0.562c-0.171,0.165-0.399,0.043-0.43-0.147
				c-0.027-0.165-0.065-0.295-0.114-0.404c-0.089,0.117-0.18,0.232-0.267,0.357c-0.436,0.624-0.602,1.191-0.633,2.145
				c-0.031,0.954-0.008,2.213-0.774,3.123c-0.478,0.568-1.019,1.197-1.432,1.936s-0.578,1.872-0.29,2.681
				c0.178,0.5,0.133,0.866-0.048,1.233c-0.45,0.915-0.375,1.841,0.161,2.57c0.995,1.354,1.82,2.454,2.835,3.74
				c2.054,2.601,4.247,4.437,7.152,6.222c0.927,0.569,1.891,1.488,2.239,2.68c0.49,1.677,0.84,3.762,1.329,5.365
				c0.624,2.047,1.519,4.077,2.341,5.835c0.822,1.758,1.345,3.005,2.063,4.692c0.219,0.513,0.446,0.836,0.902,1.26
				s1.083,1.077,1.461,1.6c0.379,0.523,0.727,0.705,1.293,0.956s1.129,0.594,1.553,1.043c0.424,0.449,0.747,0.857,1.195,1.288
				c0.448,0.431,1.179,1.223,1.237,1.797c0.057,0.574,0.369,0.847,0.611,1.08c0.242,0.233,0.618,0.389,0.685,0.463
				c0.725,0.801,1.338,1.437,2.085,2.093s1.501,1.056,2.416,1.433c0.914,0.378,1.902,0.608,2.776,1.115
				c0.122,0.071,0.287,0.143,0.432,0.137s0.227-0.01,0.226-0.171c-0.001-0.161-0.058-0.244,0.173-0.203
				c0.232,0.041,0.506,0.165,0.729,0.269c0.222,0.104-0.157,0.336,0.173,0.32c1.175-0.056,2.417-0.273,3.58-0.493
				c-0.999-0.063-2.329-0.233-3.237-0.424s-1.403-0.409-1.874-1.065c-0.471-0.656-0.2-0.911-0.122-1.641s-0.866-1.236-1.483-1.348
				c-0.617-0.112-1.443-0.673-1.425-1.193c0.039-1.147,0.071-1.618-0.423-2.622c-0.162-0.329-0.509-0.728-0.867-0.899
				c-0.358-0.172-0.849-0.516-0.732-0.936c0.117-0.42,0.584-0.055,0.9,0.036c0.315,0.091,0.882-0.01,0.66-0.496
				c-0.501-1.094-0.394-1.55,0.662-2.132c0.391-0.215,0.765-0.301,0.934-0.759c0.35-0.954,0.15-1.533-0.554-2.304
				c-0.291-0.318-0.8-0.751-1.117-1.099c-0.026-0.028-0.081-0.011-0.1-0.009c-0.02,0.001-0.087-0.051-0.054-0.049
				c0.033,0.002,0.102,0.049,0.145,0.043c1.679-0.239,2.419-1.195,2.624-2.82c0.205-1.625,0.447-3.145,0.55-4.757
				c0.055-0.858-0.23-1.649-0.589-2.397c-0.168-0.35-0.485-0.545-0.188-0.909c0.962-1.177,2.321-1.862,3.708-2.309
				c0.61-0.197,1.228-0.397,1.464-0.894c0.785-1.657,1.118-3.046,1.152-4.865c0.01-0.552-0.375-1.079,0.096-1.634
				c0.866-1.021,1.774-1.956,2.555-3.139s0.38-2.928-0.767-3.657c-1.147-0.729-2.364-1.178-3.416-1.729
				c-1.052-0.551-1.856-0.532-2.898-0.483c-1.042,0.049-2.287,0.15-3.177-0.064c-0.89-0.214-1.725-0.604-2.405-0.729
				c-0.68-0.126-1.662,0.166-2.009,0.091c-1.34-0.294-1.867-0.262-3.054,0.003c0.118-1.154,0.292-1.846-0.434-2.898
				c-1.211-1.756-2.705-2.615-4.863-2.828c-0.47-0.046-0.775-0.05-1.121-0.392c-0.98-0.969-1.88-2.046-2.886-3.004
				c-0.7-0.666-1.235-1.28-2.263-1.373c-1.376-0.125-2.481-0.312-3.554-1.27c-0.195-0.174-0.349-0.514-0.633-0.52
				c-0.285-0.007-0.232,0.284-0.428,0.453c-0.196,0.169-0.667,0.542-0.806,0.109c-0.139-0.434,0.309-0.536,0.576-0.769
				c-0.339-0.156-0.607-0.336-0.976-0.105c-1.302,0.813-2.403,1.607-3.375,2.736C34.438,89.244,34.552,89.401,34.652,89.597z
				 M37.697,88.607c0.02-0.236,0.108-0.495,0.381-0.399c0.273,0.096,0.275,0.458,0.248,0.691c-0.027,0.233-0.082,0.445-0.349,0.371
				S37.678,88.843,37.697,88.607z"/>
			
				<line fill="none" stroke="#9B0EE5" stroke-width="0" stroke-linecap="round" stroke-linejoin="round" x1="51.762" y1="30.859" x2="51.752" y2="30.867"/>
			<path fill="#9B0EE5" d="M85.67,23.897C85.646,24.003,85.735,23.938,85.67,23.897L85.67,23.897z"/>
			<path fill="#9B0EE5" d="M42.2,35.788c0.631-0.078,1.073-0.475,1.579-0.829c-0.544,0.126-1.044,0.333-1.517,0.616
				C42.203,35.611,42.102,35.8,42.2,35.788z"/>
			<path fill="#9B0EE5" d="M43.07,33.018c-0.001-0.001-0.004,0.001-0.005,0.001c-0.003,0.001-0.017,0.008-0.015,0.012
				c0.002,0.004,0.014-0.006,0.017-0.006C43.071,33.025,43.071,33.019,43.07,33.018z"/>
			<path fill="#9B0EE5" d="M49.179,29.19c-0.002,0-0.008,0.005-0.006,0.008c0.003,0.003,0.012,0.001,0.014-0.003
				C49.188,29.192,49.182,29.19,49.179,29.19z"/>
			<path fill="#9B0EE5" d="M32.941,89.104c0.017,0.013,0.031,0.03,0.051,0.032c0.497,0.034,0.772,0.127,0.927,0.473
				c0.048,0.109,0.086,0.239,0.114,0.404c0.031,0.19,0.259,0.312,0.43,0.147c0.171-0.165,0.324-0.297,0.189-0.562
				c-0.1-0.196-0.214-0.353-0.34-0.475c-0.359-0.351-0.823-0.398-1.406-0.11c-0.009,0.005,0.001,0.018-0.001,0.027
				C32.926,89.06,32.937,89.079,32.941,89.104z"/>
			<path fill="#9B0EE5" d="M51.134,29.626c-0.007,0.004,0.04-0.031-0.019-0.012c-0.06,0.019-0.313,0.096-0.316,0.215
				c-0.003,0.119,0.013-0.165,0.034,0.054c0.021,0.22-0.316,0.487-0.516,0.59c0.569-0.168,0.921-0.043,1.379-0.556
				C52.154,29.405,51.602,29.37,51.134,29.626z"/>
			<path fill="#9B0EE5" d="M48.175,45.945c0.551,0.421,0.992,0.627,1.694,0.53C49.361,45.956,48.88,45.876,48.175,45.945z"/>
			<path fill="#9B0EE5" d="M43.725,32.813c-0.152-0.108-0.523,0.029-0.701,0.292c-0.428,0.634-1.125,1.24-1.768,1.716
				c0.25-0.007,0.457-0.131,0.58,0.159c0.123,0.289,0.477-0.008,0.666-0.144c0.542-0.391,1.041-0.724,1.72-0.441
				c0.175,0.073,0.342,0.033,0.518,0.009c0.176-0.024,0.371-0.194,0.48-0.27s0.113-0.174,0.05-0.214
				C44.703,33.555,44.301,33.223,43.725,32.813z"/>
			<path fill="#9B0EE5" d="M16.414,75.455c-0.057,0.053,0.016,0.156,0.09,0.283c0.073,0.127,0.266,0.468,0.497,0.502
				c0.231,0.034,0.34,0.271,0.352,0.456c0.056,0.833,0.429,1.264,0.925,1.886c-0.216-0.856-0.312-1.614-0.539-2.492
				s-0.426-1.754-0.841-2.649c-0.121-0.26-0.108-0.837,0.079-1.138c0.187-0.301,0.503-0.069,0.594,0.077
				c0.091,0.146,0.058,0.08,0.062,0.133c-0.004,0.546,0.097,1.175,0.214,1.686c0.031,0.136,0.057,0.202,0.093,0.266
				c0.266,0.483,0.614,1.208,0.714,1.658c0.099,0.45,0.285,0.58,0.482,0.807c0.197,0.227,0.049,0.046,0.082,0.197
				c0.033,0.151,0.039,0.318,0.176,0.36c0.025,0.008,0.032,0.008,0.041,0.01c0.051,0.041,0.084,0.096,0.126,0.149
				c0.043,0.054,0.077,0.114,0.116,0.173c0.039,0.059,0.088,0.112,0.121,0.176c0.033,0.064,0.076,0.096,0.088,0.175
				c0.012,0.08,0.05,0.156,0.114,0.215c0.064,0.059,0.104,0.128,0.117,0.213c0.069,0.449,0.095,0.861,0.035,1.317
				c-0.061,0.456-0.013,0.965,0.371,1.258c1.038,0.79,2.036,1.309,3.258,1.834c0.362,0.155,0.597,0.202,1.105-0.002
				c0.508-0.205,1.05-0.197,1.427,0.456s1.042,0.994,1.757,1.339c1.076,0.52,1.392,1.409,1.484,2.56
				c0.017,0.206,0.088,0.434,0.243,0.528c0.75,0.453,1.187,1.22,1.839,1.732c0.652,0.512,1.028,0.179,1.311-0.481
				c0.004-0.01-0.004-0.024-0.007-0.037c-0.03-0.023-0.041-0.042-0.036-0.066c-0.013-0.013-0.023-0.03-0.039-0.036
				c-2.025-0.786-2.001-2.115-1.462-4.02c0.288-1.018,0.22-2.026-0.906-2.277c-0.657-0.146-1.129,0.14-1.757,0.048
				c0.55-1.404,0.96-2.903,1.576-4.273c0.086-0.192,0.151-0.413-0.086-0.451c-1.036-0.162-1.664,0.645-2.062,1.457
				c-0.187,0.381-0.275,0.877-0.589,1.029c-0.839,0.407-1.563,1.068-2.318,0.228c-0.755-0.84-0.896-1.761-0.782-2.97
				c0.077-0.821,0.453-1.959,0.54-2.87c0.054-0.574,0.138-1.109,0.408-1.669c0.076-0.158,0.139-0.271,0.377-0.452
				s0.683-0.658,0.821-1.014c0.004-0.009,0.046-0.026,0.06-0.033c0.743-0.385,1.353-0.563,2.193-0.388
				c0.264,0.055,0.548-0.089,0.633-0.341s-0.109-0.708-0.017-0.864c0.092-0.157,0.01,0.034,0.098-0.041
				c0.087-0.075,0.309-0.192,0.405-0.222c0.097-0.03,0.025,0.014,0.083,0.008c0.059-0.006-0.023-0.09,0.061-0.029
				c0.083,0.061,0.225-0.067,0.274-0.127s0.021-0.01,0.078-0.024c0.058-0.014,0.09-0.105,0.159-0.045
				c0.07,0.061,0.155-0.047,0.188-0.097c0.033-0.05,0.042-0.013,0.068-0.02c0.026-0.007,0.052-0.067,0.072-0.05
				c0.256,0.222,0.701,0.102,0.88,0.007c0.025-0.013,0.025-0.018,0.034-0.025c0.01,0.007,0.019,0.014,0.06,0.019
				c0.209,0.031,0.257,0.349,0.534,0.215c0.277-0.134,0.728,0.056,0.85,0.202c0.031,0.037,0.044,0.051,0.048,0.054
				c0.064,0.098,0.11,0.217,0.134,0.284c0.024,0.069,0,0.088-0.002,0.111c-0.046,0.483-0.046,0.891,0.1,1.346
				c0.005,0.016,0.01,0.029,0.008,0.052c-0.036,0.409,0.127,2.152,0.851,1.435c0.724-0.716,0.319-1.493,0.186-2.582
				c-0.133-1.089-0.513-2.39-0.013-3.668c0.327-0.836,1.03-1.908,1.615-2.723c0.905-1.262,1.263-2.414,1.204-4.016
				c-0.018-0.483-0.035-1.167,0.364-1.573c0.026,0.121,0.169,0.744,0.346,0.397c0.325-0.64,0.781-1.38,0.98-2.058
				c0.2-0.677,0.316-0.948,0.939-1.271c0.974-0.505,1.463-0.89,1.737-2.041c0.058-0.243,0.324-0.663,0.593-0.85
				c1.098-0.764,2.316-1.521,3.509-2.059c0.252-0.114,0.487-0.388,0.598-0.12c0.111,0.267-0.276,0.212-0.456,0.345
				c-0.18,0.133-0.437,0.397-0.61,0.588c-0.173,0.191-0.452,0.398-0.295,0.682c0.157,0.284,0.449,0.13,0.656-0.037
				c0.902-0.728,1.933-1.192,2.958-1.725c-0.185-0.363-0.214-0.379-0.662-0.428s-1.026-0.243-1.182-0.759
				c-0.157-0.516,0.01-1.126,0.374-1.506c0.364-0.38,0.704-0.823,0.08-1.033s-1.125,0.187-1.631,0.422
				c-0.869,0.404-1.478,1.025-2.235,1.568c0.628-0.845,1.406-1.341,2.251-1.925c0.655-0.453,1.157-1.024,1.962-1.218
				c0.804-0.193,1.487-0.159,2.315-0.157c0.828,0.001,1.59-0.343,2.258-0.813c0.669-0.47,1.253-0.697,2.05-0.801
				c-0.248,0.449-0.594,0.768-0.929,1.164c-0.011,0.013,0.064-0.025-0.076,0.065c-0.14,0.09-0.337,0.427-0.497,0.616
				c-0.417,0.49-0.952,1.1-1.292,1.624c-0.142,0.219-0.335,0.469-0.019,0.508c0.87,0.108,1.634-0.214,2.336,0.484
				c0.364-0.377,0.78-0.282,1.113,0.018s0.35-0.029,0.577-0.098c0.227-0.069,0.283-0.696,0.176-0.69
				c-0.711,0.045-0.391-0.672-0.341-0.871c0.274-1.08-0.072-0.842-0.76-0.507c-0.037-0.231-0.281-0.226-0.436-0.297
				c-0.155-0.071,0.039-0.207,0.06-0.299c0.021-0.092,0.01-0.196-0.101-0.179s-0.19,0.063-0.291,0.065
				c0.518-0.747,1.109-1.781,1.435-2.562s0.402-1.321-0.426-1.561c-0.828-0.241-1.525,0.496-2.291,0.688
				c0.797-0.466,1.648-0.878,2.475-1.299c-0.46-0.33-0.994-0.129-1.387-0.617c-0.393-0.488-0.376-1.035-0.25-1.679
				s0.116-1.465-0.168-2.08s-0.66-0.11-1.033,0.249c-0.373,0.359-1.024,0.829-1.54,1.042c-0.516,0.213-0.908,0.46-1.093-0.214
				c-0.011-0.041-0.153-0.026-0.285,0.019s-0.276-0.075-0.105-0.302c0.171-0.227,0.415-0.817,0.591-0.975
				c0.175-0.159,0.355-0.466,0.163-0.473c-0.483-0.018-0.706-0.307-0.91-0.629c-0.204-0.322-0.235-0.304-0.531-0.25
				c-0.655,0.12-1.149,0.032-1.836,0.128c-0.687,0.095-0.957,0.202-1.441,0.923c-0.484,0.72-1.204,1.872-2.012,2.427
				c-0.247,0.17-0.19,0.233-0.123,0.469c0.395,1.406-0.51,2.061-1.489,2.906c-0.979,0.845-1.57,1.805-1.833,3.053
				c-0.078,0.369-0.232,0.66-0.336,0.98c-0.105,0.32-0.869,1.2-1.121,0.881c-0.706-0.897-0.334-2.038,0.01-2.903
				c0.143-0.359,0.224-0.665-0.078-0.648c-0.863,0.047-1.497-0.048-2.272-0.339c-0.775-0.291-1.374,0.192-2.13,0.258
				c-0.017,0.001-0.012,0.012-0.009-0.005c0.108-0.607,0.451-1.057-0.011-1.628c-0.164-0.203-0.103-0.412,0.185-0.817
				c0.288-0.405,0.864-1.402,1.309-1.911c0.223-0.255,0.501-0.647,0.777-0.89c0.978-0.859,2.133-1.603,3.141-2.387
				c0.219-0.17,0.383-0.232,0.589-0.305c0.832-0.293,1.596-0.805,2.189-1.367c0.301-0.285,0.661-0.464,0.907-0.558
				s0.219-0.167,0.307-0.221c0.694-0.428,0.403-0.517,1.368-0.566c0.965-0.05,2.429-0.718,3.22-1.481
				c-0.118-0.602,0.233-0.686,0.74-0.972c0.078-0.044,0.532-0.447,0.536-0.566c0.004-0.119-0.255,0.044-0.277-0.065
				c-0.021-0.108,0.057-0.103-0.022-0.164c-0.079-0.061,0.047-0.05-0.143-0.039s-0.209-0.001-0.546,0.078
				c-0.337,0.079-1.016,0.152-1.125,0.752c-0.008,0.044-0.187,0.201-0.322,0.253c-0.519,0.199-1.309,0.779-1.741,1.029
				c-0.431,0.25-0.694,0.631-1.086,0.432c-0.392-0.199,0.253-0.601,0.443-0.708c0.19-0.107,0.755-0.452,0.294-0.641
				c-0.133-0.055-0.275-0.046-0.419-0.007C30.002,39.81,19.697,54.705,16.069,72.06c0.058,0.699,0.093,1.508,0.437,2.214
				C16.693,74.658,16.825,75.074,16.414,75.455z"/>
			<path fill="#9B0EE5" d="M69.128,21.276c-0.167,0.807-0.711,1.526-1.401,2.002c0.511,0.258,1.14-0.26,1.497-0.46
				c0.357-0.2,0.289-0.027,0.316,0.136s0.009,0.034,0.085,0.07c0.076,0.036,0.115,0.027,0.187,0.063
				c0.072,0.036,0.112-0.052,0.181,0.043c0.068,0.096-0.082,0.338-0.147,0.419c-0.065,0.081,0.008,0.031,0.035,0.053
				c0.417,0.335-0.195,0.596-0.323,1.002c-0.129,0.405-0.418,0.828-0.769,1.119c-0.013,0.011-0.025,0.024-0.036,0.035
				c-0.297,0.301-0.521,0.6-0.482,1.023c0.039,0.424-0.225,0.359-0.457,0.702c-0.232,0.343-0.716,0.689-1.131,0.829
				c-0.415,0.14-0.541,0.448-0.825,0.727c0.335,0.303,0.55,0.64,0.621,1.091c0.071,0.451-0.224,0.589-0.568,0.85
				c-0.343,0.261-0.68,0.576-0.604,1.076c0.076,0.501,0.15,1.01,0.235,1.527c0.008,0.051-0.054,0.093,0.02,0.17
				c0.529,0.554,0.933,0.587,1.682,0.361c0.222-0.067,0.239,0.077,0.419,0.267c0.688,0.724,1.212,0.274,1.833-0.467
				c0.307-0.366,0.806-0.949,0.85-1.545c0.014-0.195,0.145-0.27,0.341-0.397c0.897-0.583,1.543-1.356,2.118-2.281
				c0.269-0.434,0.759-0.69,1.216-0.843c0.456-0.153,0.864-0.334,1.235-0.553c0.371-0.219,0.201,0.161,0.648,0.047
				c0.448-0.114,1.178-0.345,1.675-0.519c0.021-0.008,0.097-0.063,0.108-0.077c0.316-0.397,1.174-1.125,1.446-1.328
				c0.272-0.203,0.187-0.137,0.2-0.144c0.658-0.412,0.921-0.639,1.761-0.78c0.84-0.141,1.995-0.455,2.87-0.748
				c0.118-0.039,0.295-0.069,0.384-0.112c0.09-0.043,0.115-0.107,0.194-0.086c0.079,0.021-0.067-0.002,0.016,0.027
				c0.083,0.03,0.213-0.106,0.253-0.159c0.04-0.053,0.041-0.021,0.077-0.068c0.036-0.047-0.003,0.108,0.088-0.051
				c0.091-0.159,0.462-0.444,0.653-0.421c0.027,0.003,0.03,0.013,0.042,0.021c0.004-0.016-0.001-0.021,0.011-0.047
				c0.1-0.227,0.672-0.582,0.982-0.597c-0.962-0.396-1.801-0.264-2.77-0.002c0.35-0.137,1.03-0.507,1.303-0.597
				c0.273-0.09,0.419-0.297,0.194-0.296c-0.758,0.004-1.38,0.457-2.059,0.741c0.66-0.555,1.388-0.847,2.199-1.117
				c0.019-0.006,0.045,0.031,0.001-0.04c-0.044-0.071-0.569-0.075-0.408-0.269s0.487-0.073,0.671,0.095
				c0.473,0.432,0.983,0.796,1.576,1.06c0.5-0.458,0.701-0.821,0.302-1.438c-0.105-0.162-0.004-0.237-0.265-0.357
				c-0.261-0.119-0.668-0.307-0.732-0.688c-0.064-0.381-0.371-0.354-0.681-0.396c0.377-0.008,0.949-0.225,1.232-0.374
				c0.283-0.149,0.45-0.189,0.666-0.155s-0.398,0.236-0.23,0.33s0.523,0.116,0.688,0.136s0.097-0.016,0.23-0.038
				c0.133-0.022,0.116-0.087,0.301-0.141c0.186-0.054,0.658-0.115,0.695-0.418c0.018-0.148,0.057-0.229,0.124-0.284
				c-2.509-0.286-5.055-0.448-7.641-0.451c-4.416-0.004-8.729,0.43-12.909,1.237C69.349,20.217,69.248,20.697,69.128,21.276z"/>
			<polygon fill="#9B0EE5" points="87.476,21.025 87.48,21.026 87.471,21.018 			"/>
			<polygon fill="#9B0EE5" points="87.612,19.806 87.616,19.798 87.603,19.801 			"/>
			<path fill="#9B0EE5" d="M54.554,24.576c0.321-0.156,0.852-0.035,1.154-0.333c0.146-0.144,0.101-0.273-0.019-0.354
				c-0.582,0.247-1.152,0.515-1.726,0.778C54.082,24.724,54.289,24.705,54.554,24.576z"/>
			<path fill="#9B0EE5" d="M49.087,28.685c0.736-0.197,1.045-0.413,1.688-0.452c0.643-0.039,0.78-0.36,1.157-0.798
				c0.262,0.331,0.573,0.651,0.747,1.034c0.175,0.383,0.532,0.255,0.691,0.702c0.159,0.447-0.312,1.006-0.782,1.182
				c-0.012,0.005-0.004,0.022-0.05,0.047c-0.045,0.025-0.183,0.126-0.244,0.169c-0.061,0.044,0.01-0.01-0.09,0.065
				c-0.099,0.075-0.313,0.161-0.46,0.259c-0.147,0.098-0.412,0.137-0.522,0.31c-0.364,0.575-0.801,0.892-1.447,1.084
				c-0.265,0.078-0.362,0.081-0.663,0.038s-0.856,0.186-1.076,0.362c-0.22,0.176-0.523,0.179-0.487,0.457
				c0.035,0.278,0.454,0.139,0.692,0.088c0.238-0.051,0.313-0.144,0.676-0.223c0.363-0.079,0.992-0.545,1.425-0.076
				c0.433,0.469,0.503,1.077,1.281,1.26c0.433,0.102,1.175,0.145,1.667,0.15c-0.025-0.506-0.34-0.917-0.361-1.423
				c0.333,0.151,0.684,0.352,1.02,0.481c0.336,0.129,0.554,0.168,0.873-0.049c0.319-0.216,0.59-0.491,0.707-0.929
				c0.117-0.438-0.381-0.761-0.428-1.18s0.314-0.604,0.559-0.834s0.4-0.309,0.646-0.084c0.246,0.225,0.233,0.438,0.443,0.736
				c0.21,0.298,0.491,0.25,0.844-0.073c0.353-0.323,1.388-1.065,1.78-1.202c0.391-0.136,0.532-0.372,0.458-0.529
				c-0.254-0.537-0.901-0.679-1.315-0.815s-0.277-0.472-0.682-0.396c-0.405,0.076-0.661,0.248-0.884-0.225
				c0.281-0.337,0.857-0.324,1.11-0.67c0.253-0.347-0.345-0.256,0.377-0.565c0.086-0.037,0.307-0.244,0.168-0.279
				s-0.289-0.363-0.397-0.39c-0.777-0.196-1.26-0.479-2.085-0.384c-0.064,0.007-0.248-0.03-0.16-0.247s0.071-0.646-0.317-0.645
				c-0.768,0-1.308,0.361-1.953,0.792c-0.149,0.1-0.018,0.159-0.301,0.036c-0.283-0.123-1.05,0.322-1.267,0.6
				c0.304-0.298,0.583-0.615,0.838-0.949c-1.156,0.553-2.291,1.144-3.409,1.76c-0.082,0.131-0.147,0.27-0.145,0.427
				c-0.199-0.039-0.329-0.062-0.378-0.127c-0.918,0.517-1.823,1.053-2.714,1.611c0.02,0.013,0.024,0.036,0.053,0.044
				C47.255,29.065,48.35,28.881,49.087,28.685z"/>
			<path fill="#EA400C" d="M119.737,30.277c-0.249,0.132-0.264,0.574-0.255,0.897c0.008,0.276,0.095,0.574,0.179,0.865
				c0.038,0.13,0.076,0.265,0.106,0.395c0.11,0.473-0.036,1.041-0.34,1.316c-0.17,0.153-0.359,0.183-0.533,0.083
				c-0.624-0.358-0.962-0.133-1.326,0.104c-0.063,0.041-0.127,0.083-0.195,0.123c-0.119,0.07-0.232,0.166-0.341,0.259
				c-0.331,0.281-0.65,0.546-1.16,0.214c-0.471-0.305-0.769-0.187-1.077,0.082c-0.371,0.323-0.734-0.003-1.113-0.341
				c-0.06-0.053-0.119-0.106-0.178-0.156c-0.14-0.119-0.222-0.242-0.242-0.366c-0.025-0.152,0.044-0.283,0.106-0.366
				c0.369-0.496,0.203-1.028,0.058-1.49c-0.07-0.221-0.135-0.429-0.153-0.633c-0.004-0.049-0.008-0.099-0.013-0.148
				c-0.034,0.021-0.068,0.042-0.103,0.062c-0.683,0.417-1.028,0.863-1.083,1.406c-0.048,0.476,0.131,1.008,0.558,1.638
				c0.294,0.435,0.417,0.774,0.359,0.997c-0.06,0.234-0.325,0.387-0.787,0.455c-0.667,0.1-1.119,0.616-1.413,1.592
				c-0.174,0.578-0.515,1.01-0.881,1.47c-0.354,0.444-0.726,0.904-0.948,1.516c-0.003,0.001-0.007,0.002-0.011,0.004
				c-0.013,0.005-0.026,0.011-0.036,0.017c-0.018,0.01-0.036,0.02-0.054,0.03c0.004,0.024,0.009,0.049,0.013,0.073
				c0.006,0.031,0.005,0.048,0.005,0.048c0,0-0.012,0.004-0.031,0.002c-0.016-0.001-0.033-0.003-0.049-0.005
				c-0.056,0.138-0.113,0.277-0.17,0.416c-0.144,0.239-0.359,0.264-0.586,0.291c-0.157,0.019-0.319,0.039-0.466,0.13
				c-0.017,0.011-0.033,0.021-0.05,0.031c0.003,0.023,0.007,0.046,0.01,0.07c0.035,0.235-0.007,0.338-0.151,0.381
				c-0.017,0.005-0.033,0.01-0.05,0.015c-0.003,0.021-0.005,0.042-0.008,0.063c-0.004,0.032-0.007,0.073-0.01,0.115
				c-0.002,0.026-0.005,0.063-0.008,0.092c-0.341,0.052-0.516,0.15-0.564,0.313c-0.059,0.198,0.094,0.401,0.242,0.599
				c0.069,0.092,0.139,0.186,0.18,0.269c0.005,0.011,0.011,0.022,0.016,0.034c0.01,0.003,0.02,0.007,0.031,0.01
				c0.018,0.006,0.033,0.019,0.045,0.037c0.007,0.011,0.014,0.022,0.022,0.034c0.012,0.001,0.023,0.002,0.035,0.003
				c0.299,0.027,0.434,0.233,0.448,0.691c0.001,0.022,0.001,0.044,0.002,0.066c0.017,0.008,0.034,0.016,0.05,0.024
				c0.017,0.008,0.03,0.021,0.041,0.041c0.012,0.023,0.024,0.046,0.036,0.07c0.02-0.01,0.041-0.02,0.061-0.031
				c0.106-0.053,0.194-0.058,0.263-0.014c0.09,0.058,0.159,0.201,0.205,0.429c0.138,0.677,0.251,1.465-0.155,2.14
				c-0.196,0.278-0.44,0.395-0.841,0.407c-1.023,0.031-2.069,0.104-3.109,0.216c-0.43,0.047-0.713,0.195-0.867,0.453
				c-0.157,0.263-0.183,0.626-0.081,1.148c0.023,0.116,0.049,0.234,0.075,0.353c0.132,0.603,0.268,1.235-0.03,1.764
				c-0.63,1.108-0.002,2.337,0.239,2.593c0.695,0.735,1.913,0.831,2.405,0.838c0.245,0.003,0.513-0.105,0.796-0.219
				c0.224-0.09,0.455-0.184,0.677-0.221c0.592-0.097,1.603-1.09,1.943-1.79c0.122-0.25,0.162-0.456,0.118-0.612
				c-0.368-1.32,0.12-1.949,1.017-2.554c0.023-0.015,0.045-0.03,0.068-0.045c0.44-0.292,0.938-0.628,0.74-1.633
				c-0.057-0.289,0.035-0.472,0.121-0.575c0.152-0.18,0.399-0.244,0.616-0.157c1.005,0.403,1.657-0.213,2.269-0.813
				c0.293-0.285,0.573-0.396,0.836-0.329c0.269,0.069,0.532,0.327,0.782,0.772c0.452,0.806,1.106,1.277,1.744,1.74
				c0.131,0.096,0.263,0.191,0.393,0.291c0.202,0.154,0.419,0.293,0.63,0.43c0.758,0.491,1.483,0.964,1.716,2.187
				c-0.036,0.015-0.072,0.029-0.108,0.044c0.045,0.038,0.09,0.075,0.135,0.113c0.003,0.021,0.007,0.042,0.01,0.063
				c0.016-0.005,0.032-0.01,0.048-0.016c0.045,0.035,0.091,0.069,0.136,0.104c-0.008-0.047-0.016-0.095-0.025-0.142
				c0.241-0.094,0.382-0.236,0.43-0.435c0.048-0.194,0.003-0.436-0.134-0.717c-0.141-0.291-0.194-0.492-0.156-0.598
				c0.06-0.172,0.39-0.17,0.681-0.167c0.092,0.001,0.184,0.001,0.276,0.002c-0.085-0.068-0.17-0.136-0.254-0.204
				c-0.216-0.173-0.424-0.355-0.624-0.53c-0.439-0.383-0.853-0.74-1.297-0.942c-0.677-0.309-1.107-0.936-1.562-1.59
				c-0.257-0.368-0.522-0.746-0.831-1.05c-0.08-0.079-0.131-0.203-0.145-0.349c-0.021-0.231,0.051-0.467,0.194-0.632
				c0.179-0.205,0.272-0.125,0.458,0.038c0.059,0.052,0.126,0.111,0.202,0.162c0.467,0.32,0.914,0.732,1.349,1.135
				c0.666,0.619,1.358,1.275,2.161,1.658c0.534,0.254,0.878,0.785,0.912,1.42c0.056,1.081,0.613,1.695,1.138,2.191
				c0.061,0.058,0.127,0.111,0.194,0.163c0.235,0.187,0.439,0.348,0.468,0.788c0.06,0.92,0.396,1.469,1.012,1.627
				c0.154,0.039,0.262,0.019,0.329-0.063c0.096-0.117,0.079-0.322,0.063-0.501c-0.023-0.268-0.015-0.342,0.085-0.349
				c0.082-0.006,0.165-0.012,0.247-0.018c-0.078-0.064-0.155-0.128-0.233-0.191c-0.075-0.061-0.15-0.123-0.225-0.183
				c-0.024-0.034-0.052-0.071-0.081-0.109c-0.026-0.034-0.065-0.085-0.089-0.121c0.012-0.02,0.026-0.035,0.042-0.036
				c0.016-0.001,0.062,0.01,0.158,0.135c0.007,0.007,0.013,0.014,0.02,0.02c0.083,0.067,0.166,0.135,0.249,0.202
				c0.019,0.015,0.038,0.031,0.057,0.046c0.013-0.018,0.027-0.036,0.04-0.054c0.145-0.193,0.206-0.381,0.186-0.573
				c-0.029-0.274-0.213-0.487-0.376-0.674c-0.077-0.088-0.149-0.171-0.202-0.253c-0.229-0.359-0.427-0.666-0.412-0.766
				c0.015-0.098,0.273-0.174,0.444-0.224c0.162-0.048,0.161-0.303,0.159-0.509c-0.001-0.072-0.002-0.241,0.021-0.252
				c0,0,0.053-0.019,0.273,0.219c0.031,0.034,0.062,0.067,0.093,0.101c0.01-0.043,0.021-0.086,0.031-0.129
				c0.046-0.191,0.145-0.257,0.317-0.207c0.147,0.037,0.293,0.074,0.44,0.112c0.864,0.169,1.456-0.329,1.866-0.784
				c0.034-0.037,0.067-0.074,0.101-0.112c-0.049-0.028-0.098-0.057-0.148-0.085c-0.448-0.256-0.725-0.533-0.849-0.849
				c-0.121-0.311-0.11-0.68,0.03-1.163c0.104-0.36,0.19-0.738,0.271-1.103c0.158-0.715,0.312-1.448,0.587-2.06
				c0.079-0.174,0.256-0.383,0.354-0.464c0.123,0.364,0.414,0.4,0.632,0.427c0.156,0.019,0.317,0.04,0.394,0.153
				c0.059,0.087,0.085,0.254,0.071,0.482c-0.018,0.305,0.53,0.946,0.819,1.147c0.317,0.22,0.532-0.051,0.703-0.268
				c0.032-0.041,0.064-0.081,0.095-0.116c0.091-0.104,0.127-0.218,0.108-0.347c-0.029-0.202-0.181-0.375-0.315-0.528
				c-0.028-0.032-0.055-0.063-0.081-0.094c-0.087-0.104-0.135-0.189-0.143-0.253c-0.011-0.096,0.069-0.178,0.14-0.25
				c0.024-0.024,0.047-0.047,0.067-0.071c0.343-0.401,0.718-0.663,1.155-0.82c-3.757-4.293-8.041-8.112-12.767-11.337
				C119.853,30.241,119.79,30.248,119.737,30.277z"/>
			<path fill="#EA400C" d="M132.949,43.262c-0.115,0.119-0.085,0.273-0.056,0.354c0.092,0.268,0.401,0.494,0.548,0.545
				c0.476,0.165,0.885,0.579,1.318,1.023c0.374,0.383,0.76,0.784,1.194,1.013c0.325,0.172,0.636,0.717,0.673,1.192
				c0.047,0.593-0.409,0.702-0.605,0.722c-1.011,0.101-1.872,0.123-2.875-0.588c-1.102-0.775-1.995-0.706-2.612,0.176
				c-0.304,0.434-0.69,0.546-1.139,0.34c-0.013-0.006-0.026-0.012-0.04-0.018c-0.009,0.009-0.019,0.019-0.028,0.028
				c-0.101,0.101-0.196,0.217-0.288,0.33c-0.334,0.409-0.656,0.795-1.281,0.492c-0.292-0.14-0.412,0.116-0.51,0.322
				c-0.044,0.092-0.085,0.179-0.137,0.233c-0.021,0.023-0.043,0.045-0.064,0.067c0.05,0.068,0.099,0.137,0.148,0.205
				c0.341,0.469,0.663,0.917,0.732,1.61c0.048,0.498,0.289,1.001,0.681,1.42c0.751,0.805,1.477,0.741,2.177,0.678
				c0.6-0.053,1.164-0.102,1.746,0.379c0.055,0.046,0.135,0.061,0.309-0.169c0.255-0.335,0.51-0.465,0.764-0.387
				c0.268,0.082,0.556,0.404,0.852,0.959c0.03,0.056,0.06,0.112,0.09,0.169c0.016-0.048,0.032-0.096,0.048-0.144
				c-0.002-0.01-0.003-0.02-0.006-0.03c-0.004-0.016-0.008-0.031-0.012-0.047c0.004-0.013,0.009-0.025,0.013-0.038
				c0.149-0.447,0.343-0.916,0.829-0.847c0.718,0.104,1.376-0.085,2.008-0.265c0.51-0.146,1.038-0.292,1.594-0.287
				c0.311,0.003,0.51-0.102,0.574-0.316c0.059-0.195,0.011-0.494-0.143-0.886c-0.216-0.547-0.275-0.874-0.185-1.039
				c-1.814-2.924-3.849-5.694-6.076-8.297c-0.002,0.056-0.008,0.111-0.009,0.167C133.171,42.694,133.161,43.042,132.949,43.262z"/>
			<path fill="#EA400C" d="M102.719,38.142c0.024,0.166,0.046,0.323,0.036,0.468c-0.011,0.154,0.015,0.261,0.078,0.328
				c0.106,0.111,0.274,0.064,0.437,0.018c0.078-0.022,0.151-0.042,0.208-0.043c0.008,0,0.016,0,0.023,0
				c0.067-0.058,0.135-0.115,0.201-0.172c0.001-0.016,0.001-0.031,0.002-0.046c0.001-0.034,0.001-0.068,0-0.102
				c-0.001-0.064-0.003-0.124,0.011-0.172c0.118-0.438,0.083-1.212-0.058-1.639c0.161-0.03,0.348-0.098,0.453-0.274
				c0.088-0.147,0.108-0.343,0.061-0.594c-0.005-0.029-0.011-0.059-0.016-0.088c-0.252,0.08-0.504,0.161-0.755,0.242
				c0.019,0.187,0.037,0.374,0.055,0.563c-0.009,0.001-0.018,0.002-0.027,0.003c0.004,0.009,0.008,0.019,0.013,0.028
				c-0.03,0.018-0.06,0.036-0.09,0.054c-0.12,0.071-0.245,0.145-0.358,0.243C102.597,37.302,102.662,37.746,102.719,38.142z"/>
			<path fill="#EA400C" d="M98.114,26.843c0.106-0.074,0.206-0.143,0.277-0.121c0.043,0.013,0.078,0.06,0.109,0.143
				c0.021,0.058,0.024,0.105,0.01,0.145c-0.034,0.092-0.17,0.165-0.29,0.229c-0.062,0.033-0.127,0.068-0.181,0.106
				c-0.07,0.049-0.139,0.099-0.209,0.148c0.075-0.004,0.151-0.008,0.226-0.011c0.254-0.013,0.543-0.026,0.614,0.136
				c0.048,0.11,0.002,0.312-0.139,0.604c-0.02,0.041-0.04,0.083-0.061,0.125c0.038-0.006,0.075-0.012,0.112-0.018
				c0.116-0.019,0.228-0.065,0.337-0.109c0.191-0.077,0.37-0.151,0.544-0.065c0.313,0.153,0.603,0.15,0.865,0.061
				c0.27-0.091,0.512-0.273,0.726-0.463c0.121-0.106,0.24-0.215,0.359-0.324c0.246-0.224,0.498-0.455,0.754-0.662
				c0.183-0.147,0.608-0.528,0.643-0.891c0.012-0.125-0.02-0.234-0.095-0.326c-0.017-0.021-0.034-0.042-0.051-0.063
				c-0.323-0.398-0.841-1.036-1.332-0.619c-0.28,0.236-0.587,0.368-0.883,0.495c-0.243,0.105-0.495,0.214-0.732,0.381
				c-0.028,0.02-0.057,0.035-0.084,0.049c-0.087,0.046-0.184,0.099-0.252,0.276c-0.13,0.343-0.224,0.405-0.267,0.41
				c-0.045,0.006-0.141-0.036-0.266-0.366c-0.101-0.266-0.223-0.397-0.365-0.393c-0.14,0.004-0.288,0.141-0.444,0.408
				c-0.037,0.064-0.078,0.123-0.118,0.183c-0.121,0.179-0.248,0.365-0.265,0.627c-0.001,0.019-0.003,0.038-0.004,0.056
				c0.015,0.003,0.029,0.006,0.044,0.009C97.838,27.033,97.985,26.932,98.114,26.843z"/>
			<path fill="#EA400C" d="M104.595,34.668c0.131,0.045,0.195,0.263,0.172,0.382c-0.068,0.349-0.053,0.573,0.051,0.702
				c0.146,0.182,0.407,0.11,0.685,0.034c0.017-0.005,0.033-0.009,0.05-0.014c0.005-0.011,0.011-0.021,0.016-0.032
				c0.018-0.036,0.032-0.052,0.039-0.057c-0.003,0.009-0.006,0.018-0.009,0.025c-0.009,0.024-0.018,0.048-0.023,0.068
				c-0.004,0.015-0.008,0.03-0.013,0.045c0.008,0.013,0.016,0.026,0.024,0.038c0.046,0.073,0.104,0.155,0.165,0.241
				c0.148,0.209,0.352,0.498,0.336,0.642c-0.002,0.017-0.008,0.04-0.037,0.063c-0.337,0.264-0.403,0.672-0.463,1.035
				c-0.053,0.32-0.105,0.625-0.334,0.808c-0.053,0.042-0.046,0.122-0.039,0.192c0.002,0.019,0.004,0.037,0.004,0.053
				c0,0.026,0.001,0.051,0.001,0.077c0.021,0.004,0.041,0.008,0.062,0.012c0.042,0.009,0.084,0.015,0.127,0.022
				c0.183,0.029,0.357,0.056,0.502,0.25c-0.052,0.075-0.107,0.148-0.166,0.224c-0.2,0.263-0.409,0.535-0.501,0.926
				c-0.012,0.052-0.024,0.105-0.037,0.158c0.043-0.014,0.086-0.028,0.129-0.041c0.372-0.119,0.734-0.287,1.084-0.448
				c0.664-0.307,1.285-0.595,1.996-0.588c0.044,0.001,0.165,0.001,0.4-0.54c0.191-0.439,0.482-1.351,0.355-1.591
				c-0.062-0.119-0.25-0.3-0.36-0.253c-0.432,0.197-0.583-0.129-0.758-0.502c-0.035-0.075-0.07-0.148-0.106-0.215
				c-0.299-0.553-0.707-0.961-1.095-1.35c-0.158-0.158-0.321-0.32-0.47-0.485c-0.373-0.412-0.474-0.583-0.284-1.061
				c0.143-0.361,0.159-0.621,0.053-0.775c-0.108-0.157-0.318-0.183-0.641-0.079c-0.104,0.033-0.217,0.046-0.291,0.054
				c-0.017,0.002-0.033,0.004-0.046,0.005c-0.109-0.073-0.093-0.152-0.028-0.331c0.039-0.109,0.08-0.22,0.033-0.322
				c-0.043-0.095-0.139-0.124-0.207-0.137c-0.209-0.04-0.494-0.015-0.673,0.176c-0.114,0.121-0.17,0.288-0.168,0.498
				c0.002,0.175-0.044,0.372-0.095,0.581c-0.084,0.351-0.174,0.716-0.036,1.027C104.093,34.405,104.288,34.562,104.595,34.668z"/>
			<path fill="#EA400C" d="M109.38,26.879c-0.267,0.401-0.282,0.697-0.215,1.217c0.061,0.471,0.254,0.856,0.443,1.234
				c0.099,0.199,0.194,0.387,0.267,0.588c0.263,0.714,0.563,1.126,0.922,1.239c0.393,0.126,0.835-0.123,1.326-0.752
				c0.053-0.068,0.11-0.133,0.167-0.198c0.125-0.142,0.253-0.289,0.339-0.47c0.058-0.121,0.145-0.193,0.222-0.185
				c0.039,0.005,0.07,0.029,0.096,0.076c0.213,0.377,0.478,0.725,0.736,1.066c0.427,0.565,0.838,1.111,1.035,1.825
				c0.119,0.432,0.302,0.693,0.563,0.793c0.26,0.1,0.597,0.069,0.683-0.347c0.053-0.26,0.176-0.392,0.442-0.473
				c0.623-0.188,0.772-0.653,0.467-1.444c-0.29-0.751-0.369-1.326,0.18-1.753c0.239-0.185,0.342-0.432,0.315-0.702
				c-2.104-1.301-4.285-2.49-6.535-3.557c-0.19,0.258-0.39,0.507-0.594,0.746C109.952,26.122,109.647,26.478,109.38,26.879z"/>
			<path fill="#F0E04F" d="M134.934,61.372c-0.17-0.65-0.518-1.208-0.823-1.819c-0.755,0.059-1.583-0.293-2.309-0.192
				c-0.496,0.069-0.705,0.589-1.29,0.485c-1.645-0.294-3.285-0.792-4.931-1.069c-0.709-0.119-1.164,0.492-1.53,0.936
				c-0.574,0.696-0.934,1.055-1.811,1.226c-0.258,0.05-0.459-0.315-0.687-0.411c-0.584-0.245-1.076-0.499-1.494-0.985
				c-1.117-0.384-2.167-0.858-3.184-1.459c0.076-0.117,0.243-0.356,0.289-0.465c0.263-0.621,0.267-1.385,0.164-1.961
				c-0.103-0.576-0.407-0.485-0.794-0.462c-0.883,0.052-1.72,0.126-2.566,0.195c-1.177,0.096-2.218,0.144-3.354,0.559
				c-0.764,0.279-1.365,0.723-2.263,0.97s-1.883,0.62-2.54,1.456c-0.032,0.04-0.217,0.098-0.285,0.187
				c-0.649,0.839-1.171,1.647-1.616,2.653c-0.312,0.706-0.662,1.377-1.268,1.948c-0.606,0.571-1.385,0.826-1.987,1.484
				c-1.761,1.925-3.539,3.971-5.015,6.148c-0.263,0.387-0.19,0.75-0.206,1.19c-0.015,0.44,0.056,0.987,0.003,1.415
				c-0.176,1.418-0.662,3.003-0.97,4.301c-0.307,1.299-0.357,2.272-0.264,3.499c0.048,0.624,0.432,0.995,0.674,1.515
				c0.998,2.146,1.994,4.257,3.279,6.242c0.43,0.664,1.046,0.922,1.78,1.179c1.149,0.402,2.419,0.856,3.48,1.41
				c0.524,0.274,1.044,0.445,1.545,0.533c1.212,0.211,2.351,0.13,3.517,0.387c0.717,0.158,1.122,0.67,1.646,1.127
				c0.665-0.011,1.251-0.159,1.927-0.245s1.454,0.031,1.956,0.516s0.574,1.146,0.778,1.728c0.204,0.582,0.435,0.929,0.656,1.488
				c0.587,1.485,1.149,2.537,0.941,4.273c-0.142,1.188-0.721,2.704-0.95,3.995c-0.048,0.269-0.283,0.568-0.421,0.862
				c-0.67,1.435-1.356,2.88-1.734,4.448c-0.133,0.553,0.035,1.005,0.184,1.573c0.456,1.741,1.057,3.198,1.359,5.082
				c0.205,1.276,0.145,2.681,0.418,4.148s0.46,3.277,0.52,4.92c0.015,0.4,0.45,1.074,1.043,0.918
				c0.592-0.156,1.259-0.104,1.863-0.362c0.604-0.258,0.915-0.398,1.414-0.976c1.03-1.194,2.26-2.493,3.401-3.699
				c0.402-0.424,0.661-1.066,0.888-1.617s0.56-1.058,0.96-1.482c0.664-0.705,1.256-1.32,1.795-2.137
				c0.297-0.45,0.418-1.011,0.77-1.481c0.352-0.47,0.772-0.827,1.289-1.204c1.081-0.788,2.223-1.574,3.147-2.604
				c0.338-0.377,0.549-0.839,0.632-1.368c0.308-1.97,0.355-4.006,0.752-5.974c0.28-1.388,0.711-2.665,1.53-3.839
				c1.766-2.532,4.432-4.299,6.141-6.885c2.413-3.651,3.11-8.118,4.22-12.16c0.25-0.911,0.107-1.222-0.539-1.36
				c-1.168-0.249-2.366,0.661-3.251,0.967c-0.885,0.306-1.488-0.074-1.875-0.532c-1.011-1.195-1.623-2.391-2.474-3.537
				c-0.534-0.719-0.883-1.322-1.063-2.143c-0.388-1.77-0.354-3.47-0.426-5.279c-0.006-0.156-0.023-0.346-0.089-0.553
				c-0.515-1.606-0.87-3.266-1.349-4.916c-0.226-0.778-0.67-1.586-0.93-2.364c0.238,0.314,0.587,0.67,0.97,0.738
				c0.383,0.068,0.269-0.182,0.266-0.422c-0.002-0.121,0.043-0.23,0.08-0.339c-0.001-0.066-0.002-0.13,0.003-0.201
				C134.925,61.52,134.93,61.45,134.934,61.372z"/>
			<path fill="#F0E04F" d="M131.776,59.286c-0.007-0.007-0.023-0.002-0.022,0.009s0.014,0.002,0.018-0.001
				C131.775,59.292,131.781,59.291,131.776,59.286z"/>
			<path fill="#F0E04F" d="M138.032,106.364c0.011-0.295-0.022-0.536-0.318-0.596s-0.279,0.259-0.361,0.477
				c-0.525,1.402-1.176,2.714-1.967,3.997c-0.258,0.418-0.421,0.817-0.633,1.291c-0.815,1.824-1.896,3.463-3.165,5.033
				c-0.148,0.183-0.385,0.616-0.517,0.756c-0.429,0.457-1.296,1.429-0.103,1.403c1.193-0.026,2.107-0.667,2.946-1.669
				c1.653-1.973,3.105-4.299,3.921-6.793C138.261,108.961,137.985,107.672,138.032,106.364z"/>
			<path fill="#ED922E" d="M139.45,51.497c0.154,0.391,0.202,0.69,0.143,0.886c-0.065,0.214-0.263,0.32-0.574,0.316
				c-0.556-0.005-1.084,0.141-1.594,0.287c-0.631,0.18-1.289,0.369-2.008,0.265c-0.486-0.069-0.68,0.4-0.829,0.847
				c-0.004,0.013-0.009,0.025-0.013,0.038c0.004,0.016,0.008,0.031,0.012,0.047c0.003,0.01,0.003,0.02,0.006,0.03
				c0.142,0.584,0.162,1.149,0.058,1.882c-0.032,0.225-0.073,0.449-0.114,0.674c-0.212,1.157-0.454,2.353,0.31,3.809
				c0.099,0.188,0.099,0.545,0.087,0.796c-0.004,0.078-0.009,0.148-0.013,0.196c-0.006,0.072-0.004,0.136-0.003,0.201
				c0.003,0.313,0.074,0.576,0.254,0.917c0.372,0.707,0.789,1.392,1.188,2.059c0.966,1.617,1.952,3.322,2.233,5.549
				c0.04,0.324,0.212,0.526,0.363,0.705c0.072,0.085,0.14,0.166,0.193,0.255c1.071,1.813,1.953,3.524,2.077,5.781
				c0.023,0.439,0.103,0.877,0.178,1.301c0.028,0.161,0.056,0.321,0.081,0.482c0.074,0.482,0.211,0.82,0.409,1.005
				c0.188,0.175,0.422,0.199,0.694,0.072c1.734-0.811,3.402-1.654,4.643-2.297c0.146-0.076,0.336-0.25,0.391-0.494
				c0.172-0.768,0.586-0.964,1.001-1.123c-0.431-2.918-1.063-5.77-1.856-8.554c-0.059-0.07-0.109-0.163-0.146-0.323
				c-0.01-0.043-0.006-0.12-0.001-0.2c-0.125-0.426-0.245-0.854-0.378-1.276c-0.109,0.056-0.234,0.146-0.396,0.293
				c-0.042-0.018-0.154-0.257-0.157-0.42c-0.016-0.752-0.373-1.146-0.659-1.463c-0.405-0.446-0.652-1.099-0.896-1.727
				c-0.061-0.157-0.122-0.313-0.185-0.466c-0.112-0.271-0.141-0.531-0.081-0.735c0.058-0.198,0.2-0.318,0.345-0.304
				c0.104,0.011,0.208,0.029,0.311,0.052c-1.458-3.634-3.217-7.113-5.258-10.402C139.176,50.623,139.235,50.95,139.45,51.497z"/>
		</g>
	</g>
	<g>
		<path fill="#FF6924" d="M5.814,74.707c0.309-0.431,0.728-0.777,1.258-1.039c0.531-0.276,1.221-0.381,2.069-0.315
			c0.835,0.064,1.574,0.39,2.217,0.977c1.21,1.085,1.738,2.634,1.582,4.646c-0.068,0.876-0.258,1.736-0.571,2.579
			c-0.326,0.828-0.634,1.438-0.926,1.829l-0.417,0.587l-1.698-1.019c0.555-0.949,0.864-1.82,0.925-2.614
			c0.061-0.794-0.161-1.21-0.668-1.25c-0.287-0.022-0.567,0.114-0.837,0.41c-0.283,0.281-0.559,0.638-0.826,1.072
			c-0.267,0.42-0.568,0.844-0.904,1.273c-0.349,0.414-0.809,0.757-1.381,1.029c-0.584,0.258-1.246,0.358-1.986,0.301
			c-1.314-0.102-2.275-0.678-2.882-1.731c-0.606-1.066-0.854-2.311-0.744-3.734c0.066-0.849,0.23-1.635,0.492-2.358
			c0.264-0.737,0.51-1.255,0.74-1.554l0.346-0.469l1.683,0.936c-0.355,0.675-0.56,1.368-0.615,2.08
			c-0.054,0.698,0.186,1.068,0.72,1.109c0.287,0.022,0.559-0.108,0.815-0.391c0.257-0.297,0.512-0.656,0.765-1.077
			C5.212,75.549,5.492,75.123,5.814,74.707z"/>
		<path fill="#FF6924" d="M14.72,67.533c-0.366,1.508-1.107,2.67-2.223,3.487c-1.127,0.8-2.537,0.995-4.232,0.584
			c-1.067-0.259-1.911-0.739-2.532-1.441c-1.158-1.284-1.495-2.92-1.013-4.908c0.369-1.521,0.958-2.607,1.766-3.259
			c0.795-0.655,1.726-0.853,2.793-0.594c0.827,0.201,1.42,0.698,1.778,1.491c0.348,0.777,0.369,1.799,0.061,3.066
			c-0.126,0.52-0.28,0.978-0.46,1.372l-0.093,0.21c0.497,0.05,0.907-0.07,1.231-0.358c0.314-0.305,0.531-0.705,0.651-1.198
			c0.197-0.814,0.119-1.567-0.235-2.261l1.802-0.877c0.202,0.275,0.38,0.587,0.536,0.935c0.142,0.345,0.256,0.867,0.34,1.566
			C14.961,66.045,14.904,66.772,14.72,67.533z M8.389,64.28c-0.267-0.065-0.513-0.011-0.738,0.16
			c-0.222,0.158-0.377,0.417-0.464,0.777c-0.087,0.36-0.01,0.739,0.233,1.137c0.246,0.385,0.589,0.63,1.029,0.737
			C8.653,66.831,8.812,66.467,8.925,66c0.117-0.48,0.126-0.867,0.027-1.159C8.843,64.532,8.655,64.345,8.389,64.28z"/>
		<path fill="#FF6924" d="M14.797,55.736c-0.994-1.703-2.712-3.07-5.152-4.102l1.292-3.054c1.72,0.727,3.129,1.607,4.228,2.638
			c1.034,0.974,1.79,1.883,2.268,2.726c0.463,0.807,0.76,1.41,0.89,1.807l0.063,0.273l-1.604,3.793l-10.17-1.014l1.998-4.723
			L14.797,55.736z"/>
		<path fill="#FF6924" d="M23.306,47.187c-0.823,1.315-1.893,2.184-3.211,2.606c-1.322,0.404-2.722,0.143-4.199-0.782
			c-0.931-0.583-1.58-1.305-1.948-2.167c-0.693-1.584-0.497-3.243,0.589-4.977c0.83-1.327,1.732-2.171,2.704-2.535
			c0.961-0.37,1.907-0.264,2.838,0.319c0.722,0.452,1.127,1.11,1.217,1.976c0.085,0.847-0.218,1.823-0.91,2.929
			c-0.284,0.454-0.574,0.839-0.87,1.156l-0.155,0.17c0.455,0.204,0.883,0.22,1.281,0.049c0.395-0.19,0.726-0.501,0.996-0.931
			c0.444-0.71,0.608-1.45,0.491-2.22l1.987-0.263c0.104,0.325,0.176,0.677,0.213,1.057c0.026,0.373-0.031,0.904-0.171,1.593
			C24.004,45.851,23.721,46.524,23.306,47.187z M18.326,42.102c-0.233-0.146-0.483-0.173-0.751-0.081
			c-0.261,0.08-0.489,0.277-0.686,0.591c-0.197,0.314-0.243,0.698-0.138,1.153c0.112,0.443,0.36,0.784,0.744,1.024
			c0.277-0.183,0.542-0.478,0.797-0.886c0.262-0.419,0.393-0.783,0.392-1.091C18.677,42.484,18.558,42.248,18.326,42.102z"/>
		<path fill="#FF6924" d="M23.807,29.729c0.636-0.72,1.485-1.069,2.547-1.047c1.071,0.012,2.095,0.449,3.072,1.313
			c0.967,0.854,2.277,2.223,3.93,4.105L30.97,36.8l-3.73-2.746c-1.192-0.87-2.006-1.058-2.442-0.564
			c-0.518,0.587-0.24,1.391,0.835,2.414l3.346,3.149l-2.509,2.84l-7.602-6.139l3.081-3.488l1.257,1.221
			c-0.058-0.142-0.112-0.402-0.165-0.778c-0.052-0.376-0.068-0.711-0.048-1.004C23.045,30.943,23.316,30.285,23.807,29.729z"/>
		<path fill="#FF6924" d="M35.666,15.992c0.654-0.454,1.441-0.825,2.361-1.113c0.931-0.296,1.765-0.432,2.5-0.407l0.335,1.999
			c-0.629,0.153-1.243,0.437-1.84,0.852c-1.669,1.159-1.83,2.708-0.483,4.648c0.65,0.936,1.384,1.512,2.204,1.729
			c0.823,0.198,1.555,0.073,2.198-0.373c0.654-0.454,1.169-1.012,1.545-1.675l1.771,0.926c-0.56,1.625-1.629,2.986-3.207,4.083
			c-1.579,1.096-3.191,1.531-4.837,1.303c-1.634-0.236-3.051-1.216-4.249-2.941c-1.206-1.737-1.628-3.391-1.265-4.963
			C33.053,18.475,34.042,17.119,35.666,15.992z"/>
		<path fill="#FF6924" d="M48.429,21.826c-1.246-0.323-2.249-1.291-3.011-2.905c-0.762-1.614-0.869-2.998-0.321-4.153
			c0.555-1.173,1.583-2.114,3.085-2.823s2.876-0.903,4.122-0.58c1.252,0.304,2.259,1.264,3.021,2.878
			c0.762,1.614,0.866,3.007,0.311,4.18c-0.548,1.155-1.573,2.087-3.075,2.796C51.058,21.929,49.681,22.131,48.429,21.826z
			 M48.596,14.847c0.05,0.493,0.307,1.229,0.77,2.21c0.463,0.981,0.872,1.653,1.226,2.017c0.348,0.352,0.709,0.44,1.081,0.264
			c0.373-0.176,0.534-0.51,0.483-1.003c-0.056-0.505-0.316-1.248-0.779-2.228c-0.463-0.981-0.869-1.647-1.217-1.999
			c-0.354-0.364-0.717-0.458-1.09-0.283C48.698,14.002,48.539,14.343,48.596,14.847z"/>
		<path fill="#FF6924" d="M62.422,6.804c0.925-0.262,1.828-0.097,2.709,0.496c0.894,0.589,1.519,1.51,1.875,2.765
			c0.352,1.242,0.714,3.101,1.088,5.578l-3.467,0.982l-1.653-4.326c-0.532-1.376-1.116-1.974-1.75-1.795
			c-0.753,0.213-0.954,1.041-0.603,2.482l1.113,4.458l-3.646,1.033L55.01,9.202l4.478-1.268l0.398,1.707
			c0.029-0.151,0.123-0.399,0.282-0.743c0.159-0.345,0.327-0.635,0.503-0.87C61.125,7.413,61.708,7.006,62.422,6.804z"/>
		<path fill="#FF6924" d="M74.273,11.159c0.09,0.791,0.422,1.149,0.993,1.074c0.163-0.022,0.351-0.122,0.562-0.303l0.69,1.924
			c-0.073,0.079-0.177,0.182-0.312,0.311c-0.124,0.113-0.413,0.283-0.868,0.509c-0.441,0.224-0.914,0.37-1.417,0.436
			c-0.926,0.122-1.722-0.092-2.39-0.641c-0.67-0.563-1.089-1.331-1.259-2.306L69.58,8.329l-1.572,0.207L67.903,5.85l1.225-0.161
			l-0.345-1.99l4.71-1.618l0.25,3l1.184-0.156l0.595,2.622L73.97,7.751L74.273,11.159z"/>
		<path fill="#FF6924" d="M81.916,4.932l0.346-0.134l-0.404,9.614l-3.89,0.12L77.013,4.96c0.792,0.291,1.627,0.424,2.505,0.397
			C80.41,5.329,81.21,5.188,81.916,4.932z M79.614,4.447c-0.686,0.021-1.269-0.167-1.748-0.564s-0.729-0.925-0.749-1.584
			c-0.021-0.672,0.189-1.215,0.63-1.627c0.454-0.426,1.024-0.65,1.71-0.671c0.7-0.022,1.289,0.166,1.769,0.563
			s0.729,0.925,0.749,1.584c0.02,0.659-0.196,1.201-0.65,1.627C80.87,4.202,80.3,4.426,79.614,4.447z"/>
		<path fill="#FF6924" d="M92.52,5.043c0.956,0.1,1.733,0.588,2.332,1.465c0.612,0.878,0.851,1.966,0.715,3.263
			c-0.134,1.283-0.487,3.145-1.06,5.583l-3.584-0.375l0.07-4.631c0.016-1.475-0.304-2.247-0.959-2.316
			c-0.778-0.081-1.272,0.613-1.48,2.081l-0.621,4.553l-3.769-0.394l0.584-9.753l4.629,0.484l-0.264,1.732
			c0.083-0.129,0.262-0.325,0.537-0.586c0.276-0.261,0.539-0.468,0.79-0.622C91.089,5.128,91.782,4.966,92.52,5.043z"/>
		<path fill="#FF6924" d="M100.737,17.188c-1.494-0.417-2.63-1.198-3.409-2.341c-0.761-1.153-0.908-2.57-0.439-4.249
			c0.295-1.058,0.804-1.885,1.527-2.482c1.323-1.113,2.969-1.395,4.94-0.845c1.507,0.421,2.573,1.046,3.196,1.876
			c0.628,0.817,0.794,1.754,0.498,2.812c-0.228,0.82-0.745,1.395-1.551,1.727c-0.788,0.322-1.81,0.307-3.066-0.044
			c-0.516-0.144-0.968-0.313-1.356-0.507l-0.207-0.101c-0.066,0.495,0.039,0.909,0.316,1.243c0.294,0.325,0.686,0.555,1.176,0.692
			c0.806,0.225,1.562,0.172,2.267-0.158l0.815,1.831c-0.282,0.192-0.6,0.36-0.953,0.504c-0.35,0.13-0.876,0.226-1.577,0.287
			C102.217,17.479,101.491,17.398,100.737,17.188z M104.204,10.972c0.074-0.265,0.029-0.512-0.134-0.743
			c-0.151-0.227-0.404-0.391-0.761-0.49c-0.358-0.1-0.739-0.035-1.145,0.194c-0.393,0.232-0.65,0.567-0.772,1.003
			c0.254,0.214,0.613,0.385,1.075,0.514c0.476,0.133,0.862,0.155,1.158,0.066C103.937,11.417,104.13,11.236,104.204,10.972z"/>
		<path fill="#FF6924" d="M117.619,12.727c0.871,0.407,1.445,1.123,1.724,2.148c0.291,1.03,0.16,2.136-0.392,3.318
			c-0.547,1.169-1.489,2.812-2.828,4.93l-3.265-1.527l1.581-4.353c0.498-1.389,0.449-2.223-0.148-2.502
			c-0.709-0.332-1.402,0.163-2.08,1.483l-2.076,4.099l-3.433-1.605l3.743-9.026l4.216,1.971l-0.816,1.551
			c0.121-0.095,0.354-0.221,0.7-0.378c0.346-0.156,0.662-0.266,0.949-0.329C116.239,12.34,116.948,12.413,117.619,12.727z"/>
		<path fill="#FF6924" d="M123.735,23.761c-0.449,0.658-0.432,1.145,0.049,1.462c0.138,0.09,0.346,0.137,0.624,0.139l-0.736,1.907
			c-0.106,0.012-0.253,0.023-0.439,0.031c-0.168,0.005-0.497-0.056-0.99-0.182c-0.48-0.119-0.933-0.317-1.357-0.596
			c-0.78-0.513-1.244-1.195-1.39-2.047c-0.139-0.864,0.045-1.72,0.554-2.568l1.982-3.355l-1.325-0.871l1.677-2.102l1.032,0.679
			l1.04-1.732l4.621,1.854l-1.771,2.434l0.998,0.656l-1.264,2.373l-1.308-0.859L123.735,23.761z"/>
		<path fill="#FF6924" d="M132.554,31.588c-0.508,0.596-1.129,0.923-1.865,0.982c-0.735,0.059-1.427-0.061-2.074-0.36
			c-0.628-0.3-1.182-0.655-1.663-1.065c-0.481-0.409-0.877-0.801-1.19-1.176c-0.302-0.365-0.542-0.697-0.722-0.994
			c-0.309-0.569-0.532-1.048-0.67-1.436l-0.061-0.214l1.905-0.839c0.324,0.889,0.701,1.517,1.129,1.882
			c0.429,0.365,0.794,0.37,1.097,0.014c0.151-0.178,0.171-0.476,0.06-0.896c-0.112-0.42-0.259-0.851-0.44-1.294
			c-0.171-0.434-0.246-0.94-0.224-1.516c0.022-0.576,0.224-1.089,0.607-1.539c0.686-0.805,1.505-1.153,2.458-1.044
			c0.954,0.109,1.927,0.586,2.92,1.431c0.502,0.427,0.957,0.887,1.367,1.381c0.41,0.493,0.699,0.884,0.868,1.172l0.225,0.435
			l-1.741,1.25c-0.408-0.727-0.822-1.268-1.24-1.624c-0.418-0.356-0.765-0.372-1.041-0.048c-0.134,0.157-0.163,0.393-0.089,0.708
			c0.083,0.305,0.207,0.646,0.374,1.022c0.166,0.376,0.315,0.773,0.446,1.191c0.14,0.408,0.18,0.847,0.12,1.32
			C133.06,30.793,132.874,31.212,132.554,31.588z"/>
		<path fill="#FF6924" d="M142.165,42.963c-0.618,0.481-1.292,0.676-2.025,0.585c-0.732-0.091-1.385-0.348-1.958-0.772
			c-0.554-0.421-1.025-0.881-1.413-1.379c-0.389-0.498-0.698-0.962-0.928-1.392c-0.222-0.419-0.391-0.792-0.507-1.119
			c-0.187-0.62-0.309-1.134-0.365-1.542l-0.017-0.222l2.035-0.437c0.138,0.937,0.38,1.627,0.726,2.071
			c0.346,0.444,0.703,0.523,1.071,0.236c0.185-0.143,0.264-0.432,0.24-0.865c-0.024-0.433-0.081-0.886-0.169-1.356
			c-0.08-0.46-0.051-0.97,0.088-1.53c0.138-0.56,0.44-1.021,0.905-1.384c0.834-0.65,1.707-0.825,2.619-0.526
			c0.912,0.299,1.768,0.963,2.57,1.992c0.405,0.52,0.758,1.063,1.059,1.628c0.302,0.566,0.506,1.007,0.613,1.324l0.133,0.471
			l-1.958,0.872c-0.253-0.794-0.549-1.408-0.886-1.842s-0.674-0.519-1.01-0.258c-0.162,0.127-0.239,0.352-0.231,0.676
			c0.02,0.315,0.073,0.674,0.16,1.076c0.087,0.402,0.152,0.821,0.196,1.257c0.055,0.428,0.005,0.866-0.149,1.317
			C142.821,42.286,142.555,42.659,142.165,42.963z"/>
		<path fill="#FF6924" d="M141.603,48.395c-0.514-0.924-0.668-1.836-0.462-2.736c0.213-0.888,0.811-1.606,1.795-2.153
			c0.996-0.554,1.903-0.619,2.72-0.194c0.83,0.418,1.509,1.101,2.036,2.049c0.527,0.948,0.835,1.853,0.922,2.716
			c0.909-0.71,1.056-1.617,0.442-2.721c-0.28-0.504-0.729-1.071-1.347-1.701l1.369-1.351c1.045,0.833,1.878,1.807,2.498,2.923
			c1.789,3.215,1.316,5.584-1.419,7.106c-0.936,0.521-2.291,1.134-4.067,1.839l-0.842,0.351l-1.652-2.969l0.929-0.659
			C143.292,50.511,142.318,49.678,141.603,48.395z M144.736,48.772c0.3,0.54,0.707,0.918,1.221,1.135l1.127-0.769
			c0.038-0.413-0.047-0.806-0.254-1.178c-0.201-0.36-0.457-0.61-0.771-0.75c-0.307-0.128-0.592-0.118-0.856,0.029
			c-0.264,0.147-0.448,0.367-0.552,0.66C144.548,48.194,144.576,48.485,144.736,48.772z"/>
		<path fill="#FF6924" d="M155.274,53.393c1.181-0.448,2.184-0.513,3.01-0.195c0.843,0.326,1.518,1.157,2.025,2.492
			c0.224,0.59,0.355,1.187,0.393,1.789l-1.788,0.921c-0.021-0.212-0.069-0.414-0.142-0.607c-0.239-0.629-0.807-0.773-1.706-0.432
			l-0.25,0.095l0.446,1.174l-2.416,1.181l-0.489-1.29l-6.733,2.225l-1.345-3.543l6.514-2.802l-0.46-1.213l2.591-0.719
			L155.274,53.393z"/>
		<path fill="#FF6924" d="M149.216,66.603c-0.23-1.032-0.118-1.95,0.336-2.754c0.457-0.791,1.235-1.309,2.334-1.553
			c1.112-0.248,2-0.051,2.662,0.589c0.677,0.637,1.133,1.485,1.368,2.544c0.236,1.059,0.273,2.014,0.111,2.866
			c1.073-0.422,1.473-1.249,1.198-2.482c-0.125-0.563-0.394-1.234-0.807-2.014l1.698-0.905c0.764,1.096,1.285,2.267,1.562,3.513
			c0.8,3.591-0.328,5.727-3.384,6.407c-1.045,0.233-2.519,0.434-4.422,0.605l-0.907,0.096l-0.739-3.317l1.079-0.367
			C150.231,69.113,149.535,68.037,149.216,66.603z M152.111,67.857c0.134,0.603,0.416,1.082,0.847,1.436l1.3-0.416
			c0.153-0.386,0.183-0.786,0.091-1.202c-0.09-0.402-0.265-0.715-0.525-0.938c-0.258-0.21-0.534-0.282-0.829-0.216
			c-0.295,0.066-0.534,0.224-0.717,0.476S152.039,67.536,152.111,67.857z"/>
		<path fill="#FF6924" d="M159.834,78.933c1.133,0.651,1.736,1.51,1.81,2.578c0.036,0.507-0.055,0.981-0.272,1.423l-3.404-0.259
			c0.346-0.575,0.495-1.204,0.447-1.889c-0.046-0.658-0.351-1.083-0.915-1.278c-0.352-0.113-0.686-0.179-1.004-0.199l-5.081-0.039
			l-0.258-3.698l9.695-1.294l0.282,4.047L159.834,78.933z"/>
		<path fill="#FF6924" d="M160.902,89.116l0.11,0.355l-9.563-1.07l0.15-3.889l9.615-0.288c-0.345,0.77-0.535,1.594-0.569,2.472
			C160.611,87.586,160.696,88.393,160.902,89.116z M161.546,86.853c0.026-0.686,0.254-1.254,0.684-1.705
			c0.429-0.451,0.973-0.663,1.632-0.638c0.672,0.026,1.198,0.273,1.579,0.741c0.393,0.482,0.577,1.066,0.55,1.752
			c-0.027,0.7-0.255,1.275-0.684,1.725c-0.43,0.451-0.974,0.663-1.633,0.638c-0.658-0.025-1.184-0.279-1.578-0.762
			C161.703,88.123,161.519,87.539,161.546,86.853z"/>
	</g>
</g>
</svg>
