<?xml version="1.0" encoding="utf-8"?>
<!-- Generator: Adobe Illustrator 28.3.0, SVG Export Plug-In . SVG Version: 6.00 Build 0)  -->
<svg version="1.1" id="orangutan_00000164498256063677421440000003489378681425374353_"
	 xmlns="http://www.w3.org/2000/svg" xmlns:xlink="http://www.w3.org/1999/xlink" x="0px" y="0px" viewBox="0 0 438.069 490"
	 enable-background="new 0 0 438.069 490" xml:space="preserve">
<g id="orangutan">
	<g>
		<path fill="#BC4B37" d="M11.703,245.981l1.76-2.654c4.703-7.092,10.707-13.295,17.843-18.438
			c14.348-10.321,29.099-13.817,34.775-14.842l0.383-0.069l0.236-0.31c14.389-18.936,33.832-31.975,54.748-36.713
			c8.842-2.001,17.267-2.686,25.035-2.037l2.005,0.167l-1.077-1.699c-6.077-9.591-9.684-21.086-10.431-33.243
			c-0.174-4.521-0.182-8.19-0.026-11.544l0.013-0.284l-0.138-0.249c-5.438-9.786-7.311-21.422-5.138-31.914
			c0.762-3.499,1.803-6.839,3.094-9.928l0.071-0.274c1.336-11.883,4.234-22.729,8.615-32.237l0.74-1.607l-1.758,0.194
			c-37.28,4.125-69.25,26.937-83.433,59.533l-0.773,1.778l1.897-0.4c2.284-0.482,4.694-1.016,6.748-1.492
			c-15.473,16.955-20.683,38.867-22.297,54.62c-0.138,1.482-0.264,2.965-0.39,4.449c-0.26,3.068-0.527,6.204-0.904,9.377
			c-0.802-4.226-1.045-8.845-0.742-13.99c0.102-2.165,0.275-4.353,0.513-6.5l0.345-3.101l-2.083,2.323
			c-3.523,3.929-8.775,10.511-13.794,19.554C19.884,188.246,10.91,211.3,11.63,242.797L11.703,245.981z M20.137,216.837
			c0.204-2.446,0.608-4.781,1.023-6.891c1.908-9.369,5.146-22.182,11.844-31.053c-0.89,2.489-1.838,4.946-2.767,7.353
			c-1.476,3.825-3.001,7.781-4.276,11.808c-1.29,3.588-2.362,7.26-3.399,10.812C21.795,211.492,21.014,214.171,20.137,216.837z
			 M127.16,56.673c-2.804,1.506-5.638,2.936-8.412,4.335c-3.847,1.94-7.825,3.947-11.672,6.131
			c-3.572,1.855-7.057,3.91-10.427,5.897c-2.743,1.617-5.543,3.268-8.414,4.825c2.055-1.769,4.162-3.309,6.105-4.67
			c8.412-5.988,16.421-10.527,24.476-13.871C121.832,58.104,124.57,57.233,127.16,56.673z"/>
		<path fill="#BC4B37" d="M37.654,335.915c0.891-35.803,10.976-60.457,29.976-73.276c22.417-15.119,50.319-9.384,61.275-6.217
			l1.411,0.408l-0.138-1.462c-1.061-11.241-3.786-22.084-8.107-32.241l-4.094-9.233c5.805,5.276,8.895,13.789,11.349,21.529
			c2.271,8.201,3.47,17.429,3.666,28.212c0.097,5.6,0.536,9.975,1.377,13.747c2.544,12.687,10.952,23.094,21.942,27.162l1.895,0.702
			l-0.592-1.933c-1.331-4.346-2.308-9.085-2.905-14.096c-0.601-4.644-0.639-8.452-0.092-11.896c1.15,3.955,1.895,7.959,2.62,11.86
			c0.888,4.772,1.805,9.708,3.454,14.525c1.759,5.251,5.42,16.176,14.487,17.317c3.813,0.322,6.766-0.741,8.778-3.146
			c6.41-7.659,1.162-27.383-1.36-36.86c-0.239-0.899-0.454-1.708-0.642-2.439l-0.032-0.107c-1.125-3.811-2.203-7.459-2.79-11.343
			c2.262,3.45,3.688,7.203,4.888,10.827c3.968,11.365,7.171,26.858,4.261,36.259l-0.495,1.597l1.641-0.319
			c2.142-0.417,4.041-1.055,5.647-1.896c15.417-8.158,7.223-35.124,3.722-46.643c-0.668-2.166-1.44-4.29-2.186-6.344
			c-1.247-3.433-2.442-6.723-3.206-10.206c3.181,4.146,5.042,9.028,6.991,14.142l0.626,1.637c2.508,6.647,6.632,19.496,6.077,30.871
			l-0.116,2.386l1.781-1.591c18.428-16.46,2.883-52.082-0.012-58.245l2.188-1.094l-3.001-0.518
			c-1.704-0.294-3.396-0.642-5.035-1.035c-17.905-4.2-31.189-15.88-35.538-31.248c-1.709-5.977-2.418-11.886-2.107-17.564
			l0.03-0.553l-0.452-0.319c-2.709-1.913-5.857-4.25-8.679-7.108c-1.874-1.801-3.695-3.831-5.413-6.034l-0.268-0.344l-0.435-0.037
			c-27.78-2.408-57.417,10.149-77.317,32.743c-2.347,2.559-5.061,5.852-7.075,8.583c-0.803,1.064-1.607,2.193-2.42,3.333
			c-1.35,1.894-2.746,3.852-4.186,5.57c-0.756,0.969-1.557,1.966-2.432,2.944c0.377-1.158,0.833-2.355,1.374-3.605
			c1.102-2.446,2.717-5.195,4.936-8.404l1.518-2.195l-2.587,0.657c-7.499,1.906-18.672,5.794-29.32,13.494
			c-21.469,15.52-31.192,38.95-28.898,69.639l0.177,2.373l5.56-6.324l-0.818,4.214l0.004,0.001
			c-0.195,1.05-1.696,10.341,1.639,22.413c4.302,15.618,14.43,28.558,30.102,38.459l1.571,0.992l-0.037-1.858
			c-0.178-8.849,0.681-16.586,1.433-21.519l0.552-3.625l-6.251,7.671L37.654,335.915z M10.444,271.042
			c-0.12,0.3-0.24,0.603-0.36,0.905c2.095-14.42,11.885-28.861,21.691-37.625c2.945-2.671,6.318-5.544,10.273-7.317
			c-1.497,1.48-3.031,2.885-4.534,4.261c-1.502,1.375-3.055,2.797-4.562,4.284l-0.009,0.009
			c-8.146,8.248-14.502,17.25-18.899,26.769C12.767,265.199,11.638,268.037,10.444,271.042z"/>
		<path fill="#BC4B37" d="M206.999,425.613c-4.023-5.126-9.925-8.74-16.623-10.177c-4.443-0.935-8.974-1.14-13.465-0.604
			c-1.675,0.191-3.319,0.419-4.961,0.646c-1.754,0.242-3.545,0.49-5.371,0.69c0.964-0.611,2.03-1.176,3.208-1.698
			c3.233-1.301,6.697-2.143,10.295-2.502l0.861-0.086l0.039-0.864c0.677-15.08-1.889-30.465-7.413-44.475
			c-1.873-5.023-4.285-9.709-6.618-14.239c-1.323-2.57-2.678-5.2-3.951-7.921c2.19,2.03,4.222,4.489,6.148,7.438l1.625,2.487
			l0.209-2.964c1.583-22.4-11.223-40.463-13.806-43.856l-0.186-0.244l-0.29-0.098c-1.03-0.349-2.1-0.775-3.455-1.378
			c-19.789-9.158-22.646-30.294-22.589-42.104c-0.026-1.207-0.07-2.421-0.14-3.626l-0.041-0.697l-0.667-0.202
			c-8.556-2.595-38.231-9.872-60.904,5.438c-17.156,11.59-26.798,33.425-28.658,64.897l-0.183,3.097l8.38-10.308l-1.299,5.103
			c-0.073,0.275-7.047,28.228,0.674,54.221l0.667,2.243l4.847-8.491l0.644,2.981c0.08,0.356,8.615,35.987,62.342,61.302l0.744,0.351
			l0.488-0.661c3.639-4.938,8.84-8.611,14.437-10.318c-3.473,2.695-7.107,5.658-9.948,8.82c-1.286,1.388-2.481,2.93-3.481,4.254
			l-0.141,0.187l-0.043,0.229c-0.067,0.354-0.213,0.774-0.443,1.278c-0.654,1.406-1.253,2.865-1.808,4.258l-0.062-0.363
			c-0.277-1.593-0.563-3.24-0.382-4.735l0.09-0.744l-0.688-0.296c-2.761-1.186-5.584-2.439-8.393-3.727l-1.33-0.609l-0.085,1.461
			c-0.188,3.259-0.076,6.641,0.334,10.055c1.08,8.848,4.126,15.905,9.072,20.996c3.643,3.556,8.099,7.073,13.254,10.462
			c3.211,2.049,7.486,4.527,12.115,5.527c1.117,0.211,2.118,0.304,3.016,0.304c3.483-0.001,5.408-1.396,6.451-2.724
			c2.912-3.708,1.74-9.903-0.32-14.446c-1.217-2.838-2.462-5.332-3.802-7.601c2.835,2.68,5.323,6.613,6.658,10.783
			c1.463,4.567,1.304,8.699-0.448,11.635l-0.808,1.355l1.57,0.152c4.021,0.392,7.394,0.37,10.307-0.064
			c3.857-0.557,6.61-2.183,8.183-4.832c2.796-4.712,1.175-11.631-0.687-16.63l-0.433-1.08c-1.19-2.97-2.409-6.013-3.921-8.928
			c5.697,4.426,8.211,12.697,9.093,16.438c0.797,3.521,0.714,6.869-0.24,9.681l-0.48,1.415l1.491-0.096
			c1.252-0.08,2.897-0.211,4.481-0.511c5.914-0.854,10.159-3.394,12.275-7.346c2.443-4.56,1.999-10.834-1.263-17.691
			c-1.61-3.148-3.641-6.143-6.302-9.278c2.88,0.94,5.542,3.643,8.22,8.294c3.005,5.248,4.226,10.772,3.435,15.555l-0.327,1.981
			l1.778-0.933c9.792-5.138,15.621-11.703,17.325-19.514c1.763-8.08-1.029-16.944-8.298-26.349L206.999,425.613z M163.633,357.346
			c5.796,9.44,11.391,27.938,10.96,38.93c-1.118-3.447-1.944-6.938-2.75-10.346c-0.734-3.103-1.493-6.311-2.46-9.456l-0.509-1.812
			c-0.918-3.277-1.868-6.668-2.971-9.962l-0.33-1.006C164.895,361.629,164.203,359.522,163.633,357.346z M75.262,403.517
			c-2.644-2.871-5.356-5.816-7.278-9.249c2.213,1.792,4.211,3.776,6.291,5.841c0.735,0.73,1.474,1.464,2.227,2.192
			c3.763,3.648,7.599,7.189,11.402,10.525c4.332,3.79,7.959,6.932,11.897,9.97l1.84,1.438c1.968,1.532,3.974,3.094,5.934,4.758
			c-5.361-2.614-10.21-6.203-14.936-9.701C86.431,414.577,80.584,409.269,75.262,403.517z"/>
		<path fill="#BC4B37" d="M389.618,322.262l8.384,10.311l-0.183-3.097c-1.86-31.474-11.502-53.308-28.658-64.897
			c-22.676-15.309-52.349-8.032-60.903-5.438l-0.673,0.204l-0.035,0.703c-0.061,1.202-0.113,2.414-0.14,3.645
			c0.052,11.784-2.813,32.921-22.576,42.071c-1.369,0.61-2.438,1.037-3.468,1.385l-0.289,0.098l-0.186,0.243
			c-2.584,3.385-15.393,21.406-13.806,43.857l0.209,2.964l1.625-2.487c1.927-2.948,3.958-5.407,6.148-7.438
			c-1.273,2.72-2.627,5.35-3.95,7.919c-2.333,4.531-4.747,9.217-6.612,14.224c-5.532,14.018-8.098,29.42-7.42,44.544l0.039,0.874
			l0.872,0.077c5.401,0.477,9.915,1.867,13.469,4.145c-1.815-0.199-3.598-0.446-5.344-0.688c-1.645-0.228-3.29-0.455-4.969-0.647
			c-15.382-1.701-27.114,3.984-33.887,16.404c-4.583,7.513-6.042,14.702-4.337,21.37c1.783,6.972,7.14,13.199,15.485,18.004
			c0.542,0.319,1.11,0.63,1.687,0.932l1.784,0.934l-0.334-1.985c-0.807-4.791,0.41-10.336,3.427-15.611
			c2.625-4.576,5.329-7.311,8.206-8.276c-2.654,3.129-4.682,6.121-6.3,9.285c-3.25,6.829-3.695,13.102-1.253,17.662
			c2.117,3.954,6.363,6.495,12.237,7.343c1.571,0.296,3.155,0.423,4.498,0.509l1.457,0.093l-0.439-1.392
			c-0.91-2.881-0.988-6.394-0.213-9.642c0.882-3.755,3.396-12.043,9.087-16.482c-1.503,2.907-2.714,5.943-3.896,8.907l-0.46,1.152
			c-1.862,5.005-3.492,11.962-0.681,16.682c1.571,2.637,4.315,4.249,8.149,4.789c2.807,0.412,6.054,0.432,9.927,0.058l1.583-0.152
			l-0.824-1.36c-1.769-2.922-1.952-7.038-0.515-11.589c1.328-4.204,3.829-8.175,6.69-10.879c-1.337,2.266-2.58,4.753-3.791,7.577
			c-2.066,4.562-3.238,10.758-0.333,14.46c1.042,1.327,2.966,2.722,6.466,2.722c0.902,0,1.909-0.093,3.032-0.303
			c4.598-0.992,8.875-3.473,12.1-5.529c5.163-3.394,9.621-6.911,13.271-10.475c4.921-5.074,7.964-12.131,9.044-20.979
			c0.411-3.412,0.523-6.794,0.334-10.053l-0.085-1.46l-1.33,0.608c-2.811,1.286-5.413,2.443-7.953,3.536l-0.683,0.295l0.085,0.738
			c0.023,0.199,0.03,0.407,0.037,0.583c-0.005,1.684-0.162,3.273-0.467,4.755c-0.579-1.463-1.194-2.961-1.825-4.308
			c-0.071-0.149-0.144-0.306-0.201-0.471l-0.145-0.271c-1.184-1.576-2.657-3.537-4.189-5.187c-2.841-3.162-6.466-6.127-9.947-8.828
			c5.635,1.723,10.863,5.434,14.51,10.423l0.5,0.685l0.757-0.381c2.368-1.192,4.829-2.397,7.558-3.701
			c47.966-25.277,55.053-57.398,55.117-57.71l0.642-2.974l4.847,8.492l0.667-2.244c7.744-26.074,0.747-53.947,0.676-54.212
			L389.618,322.262z M370.083,394.269c-1.918,3.422-4.625,6.37-7.264,9.243l-0.004,0.005c-5.34,5.761-11.191,11.069-17.38,15.769
			c-4.728,3.5-9.578,7.09-14.941,9.705c1.958-1.662,3.963-3.224,5.93-4.755l1.837-1.435c4.25-3.279,8.317-6.837,11.905-9.977
			c3.804-3.337,7.64-6.878,11.4-10.523c0.754-0.73,1.494-1.465,2.23-2.195C365.874,398.043,367.871,396.06,370.083,394.269z
			 M274.434,357.353c-0.569,2.17-1.259,4.271-1.935,6.329l-0.332,1.014c-1.106,3.305-2.057,6.697-2.976,9.979l-0.499,1.777
			c-0.972,3.166-1.73,6.37-2.463,9.468c-0.807,3.412-1.635,6.907-2.755,10.359C263.043,385.301,268.637,366.805,274.434,357.353z"/>
		<path fill="#BC4B37" d="M405.405,226.777L405.405,226.777c-10.661-7.674-21.763-11.526-29.199-13.407l-2.583-0.654l1.515,2.192
			c2.238,3.236,3.855,5.988,4.938,8.398c0.543,1.258,1.001,2.458,1.379,3.619c-0.878-0.982-1.685-1.986-2.451-2.969
			c-1.524-1.831-2.982-3.875-4.392-5.853c-1.431-2.006-2.91-4.082-4.465-5.949c-14.437-18.317-33.715-31.127-54.28-36.069
			c-8.656-2.116-17.247-2.973-25.539-2.552c-0.756,0.044-1.539,0.105-2.277,0.176l-0.429,0.041l-0.265,0.34
			c-1.72,2.21-3.552,4.255-5.467,6.095c-2.792,2.829-5.956,5.173-8.4,6.899l-0.454,0.32l0.033,0.555
			c0.334,5.734-0.372,11.707-2.101,17.753c-4.339,15.363-17.624,27.043-35.541,31.247c-1.696,0.407-3.407,0.756-5.228,1.067
			l-3.015,0.515l2.13,1.063c-2.901,6.163-18.466,41.76-0.02,58.236l1.779,1.589l-0.114-2.383
			c-0.544-11.319,3.58-24.196,6.083-30.856l0.63-1.647c1.949-5.113,3.81-9.994,6.989-14.138c-0.763,3.482-1.958,6.771-3.205,10.205
			c-0.746,2.055-1.518,4.179-2.188,6.35c-3.496,11.516-11.684,38.484,3.728,46.64c1.604,0.841,3.503,1.478,5.644,1.895l1.641,0.319
			l-0.495-1.597c-3.761-12.141,2.89-32.334,4.266-36.273c1.205-3.619,2.636-7.373,4.886-10.808c-0.59,3.88-1.667,7.525-2.792,11.332
			l-0.043,0.15c-0.186,0.729-0.412,1.581-0.665,2.532c-2.699,10.159-7.723,29.068-1.343,36.708c2.012,2.41,4.973,3.484,8.833,3.164
			c9.026-1.112,12.688-12.055,14.445-17.308c1.65-4.824,2.568-9.759,3.456-14.531c0.726-3.901,1.47-7.905,2.62-11.86
			c0.547,3.443,0.509,7.254-0.093,11.905c-0.609,5.104-1.559,9.705-2.903,14.066l-0.6,1.947l1.907-0.716
			c6.942-2.605,13.145-7.849,17.014-14.376c4.166-6.877,6.228-15.554,6.302-26.515c0.3-17.07,3.216-30.635,8.915-41.472
			c1.9-3.625,3.899-6.358,6.146-8.374l-4.146,9.352c-4.304,10.117-7.029,20.959-8.101,32.226l-0.139,1.464l1.413-0.409
			c10.958-3.167,38.867-8.902,61.275,6.217c18.999,12.819,29.084,37.474,29.975,73.278l0.088,3.392l-6.251-7.67l0.552,3.624
			c0.752,4.936,1.611,12.675,1.433,21.519l-0.037,1.858l1.571-0.992c15.669-9.899,25.8-22.839,30.111-38.459
			c3.485-12.646,1.641-22.412,1.636-22.42l-0.799-4.184l5.541,6.298l0.177-2.371C436.736,265.764,426.969,242.301,405.405,226.777z
			 M424.02,262.315c-4.4-9.525-10.757-18.527-18.903-26.765c-1.51-1.49-3.064-2.914-4.567-4.291
			c-1.498-1.373-3.028-2.774-4.522-4.251c3.952,1.774,7.325,4.646,10.272,7.319c9.802,8.76,19.591,23.2,21.686,37.622
			c-0.122-0.308-0.244-0.613-0.365-0.918c-1.193-3.001-2.32-5.835-3.595-8.703L424.02,262.315z"/>
		<path fill="#BC4B37" d="M303.213,81.95l0.071,0.274c1.291,3.089,2.332,6.429,3.092,9.918c2.174,10.502,0.303,22.138-5.136,31.924
			l-0.138,0.249l0.013,0.284c0.156,3.345,0.15,6.91-0.017,11.532c-0.755,12.177-4.371,23.688-10.458,33.289l-1.076,1.698
			l2.003-0.166c17.748-1.467,36.582,3.431,53.024,13.787c10.02,6.413,19.021,14.8,26.752,24.931l0.236,0.309l0.382,0.069
			c4.43,0.795,20.033,4.214,34.8,14.84c7.138,5.145,13.141,11.348,17.843,18.439l1.76,2.655l0.073-3.185
			c0.721-31.496-8.253-54.55-15.908-68.345h0c-5.032-9.059-10.279-15.634-13.794-19.554l-2.083-2.323l0.345,3.101
			c0.238,2.146,0.411,4.333,0.515,6.512c0.302,5.136,0.059,9.752-0.743,13.977c-0.376-3.168-0.643-6.301-0.903-9.365
			c-0.126-1.488-0.252-2.974-0.391-4.466c-0.944-9.522-3.041-18.776-6.233-27.51c-3.25-8.726-7.347-16.312-12.162-22.531
			c-0.589-0.8-2.453-2.858-4.049-4.606c2.071,0.481,4.539,1.028,6.895,1.525l1.896,0.4l-0.772-1.777
			c-10.939-25.17-33.272-45.418-59.732-54.159c-8.127-2.765-16.107-4.584-23.72-5.409l-1.756-0.19l0.741,1.604
			C298.973,59.192,301.877,70.05,303.213,81.95z M310.914,56.675c2.587,0.56,5.324,1.43,8.338,2.642
			c8.05,3.342,16.056,7.881,24.483,13.88c1.944,1.361,4.054,2.903,6.105,4.668c-2.873-1.557-5.674-3.209-8.418-4.827
			c-3.372-1.988-6.857-4.043-10.43-5.898c-3.854-2.188-7.837-4.198-11.689-6.142C316.537,59.602,313.711,58.176,310.914,56.675z
			 M405.072,178.905c6.701,8.882,9.933,21.682,11.835,31.035c0.416,2.114,0.821,4.449,1.024,6.896
			c-0.876-2.666-1.659-5.343-2.425-7.968c-1.039-3.558-2.113-7.237-3.393-10.795c-1.28-4.048-2.813-8.024-4.296-11.87
			C406.896,183.814,405.956,181.374,405.072,178.905z"/>
		<path fill="#BC4B37" d="M138.016,75.428l2.637-3.387c1.174-1.509,2.433-2.89,3.767-4.134c-2.583,4.427-5.155,9.318-7.091,14.428
			l-0.246,0.656c-3.183,8.694-4.05,17.013-2.65,25.438c0.382,2.207,0.924,4.489,1.61,6.784l1.197,4l0.745-4.109
			c0.653-3.602,1.587-6.859,2.827-9.848c-0.152,2.005-0.328,4-0.5,5.958c-0.708,8.05-1.439,16.373-0.527,24.68
			c1.25,13.563,5.672,25.842,12.782,35.497c3.046,4.27,6.847,8.291,11.622,12.293l1.337,1.121l0.291-1.72
			c0.146-0.859,0.339-1.775,0.591-2.799l0.079-0.32l-0.127-0.304c-20.254-48.613-5.402-89.453-3.642-93.949l0.061-0.157l0.007-0.167
			c0.194-4.785,1.428-9.276,3.542-13.05c-0.13,0.699-0.251,1.41-0.358,2.126c-0.536,3.51-0.724,7.153-0.573,11.138l0.146,3.832
			l1.745-3.415c0.746-1.46,1.588-2.925,2.564-4.462c7.326-11.104,17.491-21.033,32.784-31.984l-1.313,6.749l2.176-1.857
			c1.535-1.31,3.012-2.445,4.502-3.463c4.12-2.717,7.495-4.371,10.894-5.336l0.058,0.034l0.135-0.055
			c5.259,1.562,10.466,4.528,15.482,8.819l2.178,1.864l-1.317-6.771c9.499,6.75,17.331,13.518,23.884,20.634
			c3.699,4.104,8.346,9.615,11.481,15.849l1.758,3.495l0.135-3.91c0.154-4.458-0.164-8.919-0.947-13.317
			c0.881,1.588,1.627,3.357,2.232,5.292c0.75,2.517,1.19,5.136,1.309,7.784l0.007,0.166l0.061,0.154
			c1.751,4.475,16.534,45.118-3.479,93.555l-0.128,0.311l0.085,0.325c0.258,0.979,0.479,1.988,0.657,2.998l0.302,1.708l1.327-1.116
			c4.641-3.903,8.365-7.859,11.378-12.081c7.117-9.653,11.54-21.932,12.79-35.492c0.913-8.32,0.182-16.639-0.525-24.683
			c-0.172-1.963-0.348-3.963-0.501-5.973c1.241,2.988,2.174,6.246,2.828,9.849l0.745,4.109l1.197-4
			c0.716-2.392,1.243-4.613,1.611-6.791c1.399-8.418,0.532-16.737-2.65-25.432l-0.249-0.656c-1.934-5.107-4.504-9.997-7.084-14.422
			c1.329,1.241,2.586,2.62,3.764,4.128l2.633,3.373l-0.865-4.19c-5.536-26.806-19.807-46.265-42.416-57.836
			c-17.47-8.936-34.465-9.943-37.764-10.055c-3.231,0.111-20.232,1.118-37.704,10.055c-22.61,11.576-36.881,31.035-42.417,57.836
			L138.016,75.428z M141.594,84.711c1.623-4.261,3.345-8.328,6.236-11.272c-0.474,1.65-1.068,3.162-1.647,4.638
			c-1.711,4.269-3.727,9.337-5.706,14.564l-0.009,0.024c-0.438,1.251-0.935,2.617-1.566,4.007c0.154-3.677,1.262-7.288,2.341-10.806
			L141.594,84.711z M144.643,123.773c0.074-3.261,0.144-6.391,0.98-9.344c0.215,2.081,0.249,4.196,0.282,6.266
			c0.023,1.477,0.048,3.005,0.137,4.494c0.69,12.09,2.938,23.87,6.662,34.937c0.133,0.527,0.274,1.052,0.415,1.577
			c0.17,0.634,0.337,1.256,0.489,1.874c-2.469-3.474-3.899-7.524-5.147-11.441c-2.705-8.643-4.002-17.7-3.855-26.906
			L144.643,123.773z M186.447,16.682c4.176-1.99,8.459-4.031,12.973-4.857c-1.624,0.833-3.257,1.607-4.861,2.367
			c-2.494,1.182-5.072,2.405-7.578,3.825c-13.493,7.518-25.263,18.074-34.006,30.487c-0.528,0.669-1.044,1.341-1.56,2.013
			c-0.401,0.523-0.807,1.051-1.22,1.58c0.527-1.385,1.159-2.756,1.89-4.102c7.424-12.938,19.583-24.038,34.225-31.248
			L186.447,16.682z M190.855,51.222c-1.088,0.926-2.183,1.787-3.256,2.63c-2.097,1.647-4.265,3.35-6.278,5.472
			c-2.181,2.011-3.986,4.25-5.732,6.417c-0.683,0.847-1.376,1.708-2.098,2.562C175.928,61.173,183.765,52.811,190.855,51.222z
			 M293.469,125.216c0.139,9.228-1.161,18.284-3.863,26.917c-1.249,3.92-2.678,7.97-5.146,11.442
			c0.152-0.618,0.318-1.239,0.489-1.873c0.141-0.525,0.282-1.05,0.393-1.503c3.745-11.141,5.994-22.92,6.684-35.008
			c0.09-1.491,0.114-3.017,0.138-4.492c0.033-2.071,0.066-4.186,0.282-6.271c0.833,2.942,0.908,6.059,0.986,9.308L293.469,125.216z
			 M296.827,85.87c1.079,3.518,2.186,7.126,2.34,10.802c-0.633-1.394-1.132-2.765-1.575-4.031
			c-1.966-5.192-3.988-10.276-5.704-14.558c-0.582-1.48-1.176-2.993-1.651-4.645c2.892,2.943,4.61,7,6.215,11.207L296.827,85.87z
			 M264.584,68.313c-0.729-0.862-1.429-1.73-2.118-2.584c-1.744-2.162-3.546-4.397-5.719-6.404
			c-2.018-2.128-4.189-3.834-6.289-5.484c-1.07-0.841-2.161-1.698-3.247-2.622C254.312,52.802,262.157,61.175,264.584,68.313z
			 M238.648,11.824c4.514,0.827,8.796,2.868,12.972,4.857l0.125,0.06c14.654,7.215,26.813,18.314,34.226,31.233
			c0.735,1.353,1.368,2.727,1.896,4.112c-0.416-0.531-0.824-1.062-1.229-1.588c-0.511-0.666-1.024-1.332-1.515-1.952
			c-8.776-12.456-20.547-23.013-34.04-30.53c-2.505-1.42-5.084-2.643-7.578-3.826C241.904,13.431,240.271,12.657,238.648,11.824z"/>
		<path fill="#BC4B37" d="M253.461,411.837c0.03,0,0.06,0,0.09,0l1.122,0.003l-0.126-1.115c-1.67-14.8,0.833-30.471,7.231-45.297
			c1.11-2.413,2.303-4.978,3.603-7.481l0.156-0.302l-0.06-0.335c-2.001-11.214-0.618-22.804,4.11-34.448l1.034-2.545l-2.428,1.285
			c-1.585,0.839-3.292,1.354-5.021,1.528c-5.099,0.252-8.762-1.2-11.189-4.435l-0.284-0.38l-0.473-0.02
			c-1.545-0.065-2.907-0.208-4.141-0.431c-8.305-1.698-13.468-6.736-15.346-14.975l-0.091-0.399l-0.345-0.221
			c-5.423-3.466-9.231-8.355-11.318-14.534l-0.945-2.799l-0.949,2.798c-2.097,6.182-5.908,11.072-11.328,14.535l-0.345,0.221
			l-0.091,0.4c-1.877,8.245-7.041,13.283-15.324,14.969c-1.255,0.228-2.617,0.37-4.163,0.436l-0.474,0.021l-0.285,0.38
			c-2.383,3.19-6.141,4.694-11.138,4.438c-1.763-0.176-3.466-0.691-5.064-1.533l-2.42-1.274l1.027,2.535
			c4.722,11.653,6.102,23.243,4.102,34.448l-0.06,0.335l0.156,0.302c1.308,2.519,2.497,5.077,3.593,7.459
			c6.397,14.836,8.904,30.495,7.25,45.285l-0.122,1.091l1.098,0.021c4.722,0.086,9.4,1.046,13.533,2.778
			c6.029,2.503,11.243,7.572,15.51,15.092c2.092,3.445,3.65,7.292,4.506,11.124l0.98,4.387l0.972-4.389
			c1.242-5.607,4.116-11.376,8.556-17.163C233.903,416.351,243.437,411.837,253.461,411.837z"/>
	</g>
	<path fill="#878787" d="M275.027,95.667c-0.83,3.027-1.98,6.728-2.421,8.518l-1.825-8.605
		c-3.122-13.085-14.174-24.051-23.947-32.863c-2.11-1.842-4.29-3.65-6.504-5.379l0.424,2.179l1.366,7.005
		c-1.47-1.496-5.717-5.777-7.135-7.213c-3.503-3.373-7.455-6.331-11.805-8.493c-1.306-0.649-2.707-1.254-4.099-1.712
		c-5.111,1.678-9.764,4.731-13.829,8.225c-2.689,2.318-6.72,6.659-9.306,9.193c0.432-2.223,1.142-5.838,1.782-9.158
		c-9.504,7.42-18.455,15.93-25.071,25.971c-2.456,3.848-4.462,7.974-5.371,12.246l-1.825,8.605
		c-0.467-1.816-1.591-5.509-2.421-8.527c-3.762,14.313-8.302,43.786,4.54,78.051c0.121-0.268,0.225-0.536,0.346-0.796
		c0.484-1.021,1.012-2.032,1.583-3.027c0,0,0-0.009,0.009-0.009c4.99-8.717,13.102-16.293,23.273-17.496
		c-8.129,6.633-16.475,12.713-20.522,22.46c-5.665,13.673-3.053,31.091,6.166,42.766c6.374,7.896,15.749,12.851,25.504,15.524
		c4.878,1.349,10.153,2.266,15.16,2.499l0.001,0.186c0.045-0.003,0.09,0.003,0.136,0.006l0.001-0.193
		c5.016-0.233,10.283-1.15,15.169-2.499c9.747-2.672,19.13-7.628,25.495-15.524c7.974-10.093,10.992-24.475,8.008-37.023
		l-0.173-0.078c0.035-0.086,0.069-0.164,0.104-0.251c-0.458-1.851-1.046-3.658-1.764-5.414c-4.056-9.747-12.393-15.818-20.531-22.46
		c9.85,1.168,17.755,8.294,22.771,16.648c0,0,0,0.009,0.009,0.009c0.77,1.271,1.462,2.56,2.093,3.875
		c0.069,0.156,0.13,0.311,0.199,0.458C283.295,139.263,278.781,109.946,275.027,95.667z M219.038,151.276
		c1.851-3.33,7.905-12.964,13.924-8.787c1.799,1.245,2.837,3.321,3.018,5.509c0.32,4.021-0.38,11.07-8.977,11.917h-15.939
		c-8.596-0.848-9.297-7.896-8.977-11.917c0.182-2.188,1.219-4.264,3.018-5.509C211.125,138.312,217.179,147.946,219.038,151.276z
		 M191.139,129.309c-2.136,0-4.238-0.571-6.132-1.678c-1.462-0.865-2.672-1.989-3.615-3.278c-3.477-2.569-7.671-2.015-7.671-2.015
		c3.027-1.505,4.618-4.41,5.379-6.339c0.164-1.704,0.683-3.399,1.609-4.973c1.643-2.793,4.272-4.782,7.412-5.587
		c3.131-0.813,6.4-0.355,9.193,1.28c1.842,1.09,3.33,2.62,4.367,4.437c2.577,2.197,5.457,1.885,5.457,1.885
		c-2.274,1.029-3.356,2.811-3.857,4.091c0.009,2.162-0.545,4.29-1.669,6.192c-1.643,2.793-4.272,4.782-7.412,5.595
		C193.189,129.179,192.16,129.309,191.139,129.309z M247.145,213.024c2.473-2.491,4.367-5.587,6.149-9.081
		c0.147,3.892-0.969,7.974-3.304,11.364c-5.915,8.458-16.734,11.84-26.637,12.177c-1.444,0.043-2.837,0.017-4.29-0.095
		c-14.849,1.237-34.697-6.261-34.29-23.445c1.782,3.494,3.676,6.59,6.149,9.081c7.152,7.55,18.084,9.487,28.107,9.842
		C229.053,222.512,239.993,220.574,247.145,213.024z M256.684,124.354c-0.96,1.306-2.179,2.422-3.624,3.278
		c-1.894,1.107-3.995,1.678-6.132,1.678c-1.021,0-2.05-0.13-3.061-0.389c-3.139-0.813-5.769-2.802-7.412-5.595
		c-1.142-1.937-1.669-4.065-1.66-6.175c-0.502-1.28-1.583-3.079-3.866-4.108c0,0,2.888,0.311,5.474-1.894
		c1.012-1.773,2.473-3.321,4.35-4.428c2.793-1.635,6.062-2.102,9.193-1.28c3.139,0.804,5.768,2.793,7.412,5.587
		c0.917,1.557,1.453,3.252,1.617,4.999c0.761,1.92,2.361,4.817,5.371,6.313C264.347,122.339,260.152,121.785,256.684,124.354z"/>
	<g>
		<path fill="#595959" d="M219.01,98.756c-2.082-0.494-40.528-9.351-47.761,13.469c-7.429,23.434,9.91,39.474-2.571,60.167
			c0.839-1.343,14.877-23.309,35.82-22.211l14.423,5.457l0.09,0.035l0.09,0.035V98.781C219.099,98.781,219.069,98.776,219.01,98.756
			z M205.316,117.123c0.01,2.506-0.629,4.972-1.932,7.174c-1.907,3.235-4.952,5.541-8.587,6.48
			c-1.173,0.305-2.361,0.454-3.545,0.454c-2.476,0-4.907-0.664-7.104-1.947c-1.692-0.998-3.095-2.301-4.189-3.794
			c-4.024-2.975-8.881-2.336-8.881-2.336c3.505-1.742,5.347-5.107,6.23-7.339c0.19-1.977,0.789-3.939,1.862-5.761
			c1.902-3.235,4.947-5.541,8.587-6.47c3.624-0.944,7.409-0.414,10.644,1.483c2.137,1.258,3.859,3.035,5.062,5.137
			c2.985,2.546,6.32,2.182,6.32,2.182C207.148,113.578,205.895,115.64,205.316,117.123z"/>
		<path fill="#595959" d="M266.776,112.226c-7.224-22.785-45.555-13.993-47.756-13.469c-0.005,0-0.01,0-0.01,0
			c-0.06,0.02-0.09,0.025-0.09,0.025v56.927l0.09-0.035l0.09-0.035l14.423-5.457c20.319-0.914,34.941,20.878,35.82,22.211
			C256.861,151.7,274.2,135.659,266.776,112.226z M258.129,125.5c-1.113,1.513-2.526,2.811-4.204,3.804
			c-2.197,1.283-4.633,1.942-7.109,1.942c-1.183,0-2.376-0.15-3.55-0.449c-3.644-0.944-6.69-3.25-8.597-6.49
			c-1.323-2.247-1.937-4.713-1.927-7.164c-0.579-1.483-1.837-3.569-4.483-4.763c0,0,3.35,0.359,6.35-2.197
			c1.173-2.057,2.866-3.849,5.042-5.137c3.24-1.892,7.034-2.436,10.664-1.483c3.639,0.934,6.69,3.24,8.597,6.48
			c1.063,1.807,1.682,3.769,1.877,5.796c0.879,2.227,2.736,5.586,6.225,7.324C267.016,123.164,262.153,122.52,258.129,125.5z"/>
		<path fill="#595959" d="M167.287,95.581c0,0,14.484-22.829,26.438-30.128l-0.694,5.974c0,0,19.954-17.967,25.947-17.967v-7.118
			l-18.339,11.289l-0.773-3.998C199.865,53.633,164.641,76.423,167.287,95.581z"/>
		<path fill="#595959" d="M270.701,95.581c0,0-14.484-22.829-26.438-30.128l0.694,5.974c0,0-19.954-17.967-25.947-17.967v-7.118
			l18.339,11.289l0.773-3.998C238.123,53.633,273.347,76.423,270.701,95.581z"/>
		<path fill="#595959" d="M164.937,97.161c0,0-8.566,41.069,4.431,73.298l-2.092,6.757c0,0-15.746-34.894-4.255-86.394
			L164.937,97.161z"/>
		<path fill="#595959" d="M273.526,97.7c0,0,8.566,41.069-4.431,73.298l2.092,6.757c0,0,15.746-34.894,4.255-86.394L273.526,97.7z"
			/>
	</g>
	<g>
		<path fill="#932B20" d="M334.541,436.123l-6.529,1.779l-0.071,0.681c-0.115,1.099-0.209,2.244-0.306,3.426
			c-0.507,6.168-1.082,13.159-5.088,19.502c-2.606,4.128-9.551,10.254-15.165,13.378c-16.157,8.99-20.266,2.868-20.297,2.817
			l-1.862-3.169v5.162c-9.776,1.378-18.57-3.979-18.66-4.035l-0.139-0.086l-2.933-0.698l-0.136,0.006
			c-16.082,0.579-17.729-10.36-17.791-10.824l-0.163-1.276l-3.476,1.374c-16.839-6.129-16.761-25.707-16.758-25.905l0.058-4.136
			l-1.941,3.651c-0.117,0.22-0.222,0.439-0.332,0.658c3.959-9.275,12.761-22.47,31.274-25.604c-0.022,0.504-0.034,0.837-0.038,0.964
			l-0.036,1.034h12.814l-1.151-1.587c-5.519-7.606,5.809-47.262,10.646-64.195c0.974-3.411,1.744-6.105,2.174-7.791l1.166-4.575
			l-7.327,9.305c-1.112-15.909,15.89-40.584,16.071-40.843l1.502-2.162l-11.689,2.826l-0.216,0.339
			c-2.921,4.576-5.223,8.883-7.046,12.909l-5.23,3.535l-0.106,0.082c-0.305,0.272-7.429,6.958-6.126,33.83
			c-1.833,2.541-13.976,20.547-12.608,49.219c-4.301,0.681-22.031,4.383-28.033,19.581c-6.003-15.198-23.733-18.9-28.033-19.581
			c1.368-28.672-10.776-46.678-12.608-49.219c1.304-26.873-5.821-33.558-6.126-33.83l-5.27-3.568
			c-1.826-4.041-4.135-8.364-7.068-12.958l-0.216-0.339l-11.688-2.825l1.502,2.161c0.181,0.259,17.183,24.934,16.071,40.844
			l-7.328-9.306l1.167,4.575c0.43,1.685,1.199,4.377,2.173,7.786c4.838,16.935,16.167,56.593,10.647,64.2l-1.151,1.587h12.814
			l-0.036-1.034c-0.004-0.126-0.016-0.457-0.038-0.957c18.11,3.083,26.921,15.804,30.99,25.035
			c-0.017-0.032-0.032-0.064-0.049-0.096l-1.941-3.651l0.058,4.136c0.003,0.198,0.081,19.776-16.758,25.905l-3.469-1.367
			l-0.17,1.267c-0.062,0.467-1.717,11.397-17.792,10.827l-0.136-0.006l-2.934,0.698l-0.138,0.087
			c-0.09,0.055-8.857,5.418-18.66,4.034l-0.008-4.937l-1.846,2.931c-0.04,0.062-4.15,6.186-20.305-2.805
			c-5.614-3.124-12.558-9.25-15.165-13.378c-4.005-6.342-4.581-13.333-5.088-19.5c-0.097-1.183-0.192-2.329-0.307-3.428
			l-0.071-0.681l-6.529-1.779l-0.068,1.235c-0.08,1.45-1.694,35.533,20.079,42.815c1.301,0.97,10.446,7.515,20.047,7.515
			c2.288,0,4.601-0.372,6.84-1.279c2.214,0.588,13.958,3.257,23.195-3.154c0.02,0,0.042,0.001,0.063,0.001
			c2.44,0,14.84-0.431,21.911-8.885c2.148-0.882,16.612-7.193,20.959-18.923c1.222-3.298,1.513-6.713,0.892-10.21
			c0.423,1.58,0.593,2.559,0.602,2.612l0.988-0.078l0.988,0.078c0.009-0.059,0.21-1.228,0.735-3.103
			c-0.741,3.668-0.478,7.248,0.802,10.7c4.347,11.729,18.811,18.041,20.958,18.923c7.133,8.529,19.712,8.888,21.974,8.884
			c9.236,6.412,20.98,3.741,23.195,3.154c2.24,0.907,4.552,1.279,6.84,1.279c9.6-0.001,18.746-6.545,20.047-7.515
			c21.772-7.282,20.158-41.365,20.079-42.815L334.541,436.123z"/>
		<path fill="#932B20" d="M426.37,242.411c-10.716-27.502-47.248-38.099-51.401-39.222c-27.771-41.469-81.285-40.111-81.828-40.096
			l-0.486,0.017l-6.385,8.735l-13.913,13.69l-0.039,0.353c-0.052,0.461-5.592,46.187-44.316,48.937l-0.817,0.058l-0.469,3.656
			l-1.193,0.117c-1.859,0.182-3.612,0.28-5.327,0.296l-0.007-0.309l-1.046,0.149l-1.016-0.03l0.001,0.189
			c-1.809-0.019-3.649-0.125-5.595-0.322l-1.224-0.125l-0.464-3.623l-0.817-0.058c-38.695-2.748-44.265-48.475-44.317-48.937
			l-0.04-0.353l-13.913-13.69l-6.385-8.735l-0.486-0.017c-0.54-0.013-54.057-1.375-81.828,40.096
			c-4.153,1.123-40.685,11.72-51.401,39.222l-1.949,5.002l3.619-3.964c0.268-0.293,27.04-29.31,51.805-29.866l0.462-0.011
			l0.292-0.359c0.356-0.439,35.229-42.67,81.192-40.031l0.055,0.124c3.465,7.817,10.314,15.659,11.891,17.411
			c-0.324,2.832-1.299,17.122,9.523,32.501c9.65,13.713,27.475,19.195,36.646,21.186c2.521,6.316,13.3,35.497,1.843,45.853
			c-0.1-1.176-0.246-2.386-0.441-3.631c-3.205-20.479-5.39-20.543-6.563-20.578c-0.017,0-0.034-0.001-0.05-0.001
			c-1.629,0-2.269,2.356-2.427,3.084l-0.051,0.233l0.06,0.231c0.085,0.327,8.31,32.793-8.96,38.73l-0.467,0.16l-2.875,8.623
			l1.403-0.015c0.382-0.004,9.418-0.183,15.431-7.286c2.188-2.586,3.667-5.737,4.446-9.418c2.248-0.896,9.741-4.536,12.472-13.947
			c2.731,9.411,10.224,13.051,12.472,13.947c0.779,3.681,2.258,6.833,4.446,9.418c6.013,7.104,15.049,7.282,15.431,7.286
			l1.403,0.015l-2.875-8.623l-0.467-0.16c-17.259-5.934-9.045-38.403-8.96-38.73l0.06-0.231l-0.051-0.233
			c-0.16-0.735-0.782-3.096-2.478-3.083c-1.173,0.035-3.358,0.099-6.563,20.578c-0.195,1.244-0.342,2.454-0.441,3.63
			c-11.458-10.357-0.678-39.537,1.842-45.853c9.171-1.991,26.996-7.473,36.646-21.186c10.822-15.379,9.847-29.669,9.523-32.501
			c1.577-1.751,8.426-9.594,11.891-17.411l0.055-0.123c45.969-2.635,80.836,39.592,81.192,40.031l0.292,0.359l0.462,0.011
			c24.754,0.556,51.538,29.573,51.805,29.866l3.618,3.961L426.37,242.411z M211.52,240.038c1.589,3.517,4.553,10.688,6.545,19.205
			l0.975,4.17l0.972-4.17c1.969-8.442,4.913-15.604,6.503-19.144l-0.145,1.134c-0.544,1.424-5.243,13.953-7.357,26.493
			c-2.114-12.544-6.815-25.076-7.357-26.494l-0.159-1.243L211.52,240.038z"/>
	</g>
	<g>
		<path fill="#FFFFFF" d="M219.037,8.539c0,0,54.736-4.512,79.167,62.887c0,0-2.129-63.702-79.171-69.41L219.037,8.539z"/>
		<path fill="#FFFFFF" d="M289.98,63.755c0,0,16.979,29.871,9.454,48.204l0.311,7.009C299.745,118.968,316.3,94.871,289.98,63.755z"
			/>
		<path fill="#FFFFFF" d="M296.205,52.139c0,0,33.21,2.374,61.03,29.492c11.184,10.902,18.183,24.319,20.898,26.602l1.9-1.98
			c0,0-21.011-53.147-85.636-59.911L296.205,52.139z"/>
		<path fill="#FFFFFF" d="M368.1,105.95c0,0,9.865,13.014,17.144,34.565c4.938,14.621,6.289,31.147,9.242,40.857
			C394.486,181.372,397.236,115.31,368.1,105.95z"/>
		<path fill="#FFFFFF" d="M394.555,151.669c0,0,37.959,33.557,30.923,92.755c0,0-0.902-10.664-3.684-26.917
			c-2.995-17.499-11.557-41.027-27.24-58.751V151.669z"/>
		<path fill="#FFFFFF" d="M288.147,174.704c7.791,3.178,18.704-1.444,48.35,14.053c20.464,10.697,36.029,31.15,46.867,41.486
			c0,0-16.671-32.196-44.299-47.323C309.685,166.834,288.147,174.704,288.147,174.704z"/>
		<path fill="#FFFFFF" d="M375.961,214.339c6.672,4.127,28.139,11.087,41.418,29.565c18.234,25.373,14.186,47.147,16.058,52.533
			c0,0,7.697-23.081-10.901-53.663C405.268,214.378,375.961,214.339,375.961,214.339z"/>
		<path fill="#FFFFFF" d="M427.047,289.173c0,0,6.718,43.386-30.226,63.842v6.18C396.821,359.194,442.055,337.358,427.047,289.173z"
			/>
		<path fill="#FFFFFF" d="M308.548,260.097c5.854,1.644,81.269-22.002,84.912,68.457l5.201,5.39c0,0,2.484-50.753-29.103-70.984
			S308.548,260.097,308.548,260.097z"/>
		<path fill="#FFFFFF" d="M387.524,318.101c0,0,6.924,39.651-0.52,59.721l2.019,6.876
			C389.023,384.698,402.296,356.56,387.524,318.101z"/>
		<path fill="#FFFFFF" d="M384.307,372.577c0,0-6.855,20.046-24.463,37.207c-14.739,14.364-36.675,25.873-38.877,29.048
			l-0.033,1.747C320.934,440.578,383.275,418.32,384.307,372.577z"/>
		<path fill="#FFFFFF" d="M224.263,440.273c0,0,6.465-13.162,18.127-19.389c12.185-6.507,27.025-2.129,32.421-3.414
			c0,0-25.691-10.038-37.386-0.836C225.731,425.836,224.263,440.273,224.263,440.273z"/>
		<path fill="#FFFFFF" d="M301.543,427.104c0,0,12.782,12.842,20.557,24.085C322.1,451.189,320.414,431.292,301.543,427.104z"/>
		<path fill="#FFFFFF" d="M281.41,303.589c0,0,10.526-6.666,16.507-18.293c5.702-11.084,2.235-29.908,6.885-45.67
			c3.758-12.735,8.453-25.288,17.764-28.851c0,0-12.956,22.025-14.019,33.648c-1.063,11.623-1.531,38.924-7.005,44.748
			S286.391,303.788,281.41,303.589z"/>
		<path fill="#FFFFFF" d="M255.186,317.577c0,0,11.044,6.21,18.173-11.085c6.823-16.553,5.433-26.156,10.264-32.938
			c0,0-2.849,38.36-10.894,44.358C264.685,323.91,256.986,325.061,255.186,317.577z"/>
		<path fill="#FFFFFF" d="M218.974,8.539c0,0-54.736-4.512-79.167,62.887c0,0,2.129-63.702,79.171-69.41L218.974,8.539z"/>
		<path fill="#FFFFFF" d="M148.032,63.755c0,0-16.979,29.871-9.454,48.204l-0.311,7.009
			C138.267,118.968,121.712,94.871,148.032,63.755z"/>
		<path fill="#FFFFFF" d="M141.807,52.139c0,0-33.21,2.374-61.03,29.492C69.594,92.533,62.595,105.95,59.88,108.233l-1.9-1.98
			c0,0,21.011-53.147,85.636-59.911L141.807,52.139z"/>
		<path fill="#FFFFFF" d="M69.912,105.95c0,0-9.865,13.014-17.144,34.565c-4.938,14.621-6.289,31.147-9.242,40.857
			C43.526,181.372,40.776,115.31,69.912,105.95z"/>
		<path fill="#FFFFFF" d="M43.457,151.669c0,0-37.959,33.557-30.923,92.755c0,0,0.902-10.664,3.684-26.917
			c2.995-17.499,11.557-41.027,27.24-58.751V151.669z"/>
		<path fill="#FFFFFF" d="M149.865,174.704c-7.791,3.178-18.704-1.444-48.35,14.053c-20.464,10.697-36.029,31.15-46.867,41.486
			c0,0,16.671-32.196,44.299-47.323C128.327,166.834,149.865,174.704,149.865,174.704z"/>
		<path fill="#FFFFFF" d="M62.05,214.339c-6.672,4.127-28.139,11.087-41.418,29.565C2.398,269.277,6.447,291.051,4.574,296.437
			c0,0-7.697-23.081,10.901-53.663C32.744,214.378,62.05,214.339,62.05,214.339z"/>
		<path fill="#FFFFFF" d="M10.965,289.173c0,0-6.718,43.386,30.226,63.842v6.18C41.191,359.194-4.043,337.358,10.965,289.173z"/>
		<path fill="#FFFFFF" d="M129.464,260.097c-5.854,1.644-81.269-22.002-84.912,68.457l-5.201,5.39c0,0-2.484-50.753,29.103-70.984
			S129.464,260.097,129.464,260.097z"/>
		<path fill="#FFFFFF" d="M50.488,318.101c0,0-6.924,39.651,0.52,59.721l-2.019,6.876C48.989,384.698,35.716,356.56,50.488,318.101z
			"/>
		<path fill="#FFFFFF" d="M53.705,372.577c0,0,6.855,20.046,24.463,37.207c14.739,14.364,36.675,25.873,38.877,29.048l0.033,1.747
			C117.078,440.578,54.737,418.32,53.705,372.577z"/>
		<path fill="#FFFFFF" d="M213.749,440.273c0,0-6.465-13.162-18.127-19.389c-12.185-6.507-27.025-2.129-32.421-3.414
			c0,0,25.691-10.038,37.386-0.836C212.281,425.836,213.749,440.273,213.749,440.273z"/>
		<path fill="#FFFFFF" d="M136.469,427.104c0,0-12.782,12.842-20.557,24.085C115.912,451.189,117.598,431.292,136.469,427.104z"/>
		<path fill="#FFFFFF" d="M156.602,303.589c0,0-10.526-6.666-16.507-18.293c-5.702-11.084-2.235-29.908-6.885-45.67
			c-3.758-12.735-8.453-25.288-17.764-28.851c0,0,12.956,22.025,14.019,33.648c1.063,11.623,1.531,38.924,7.005,44.748
			S151.621,303.788,156.602,303.589z"/>
		<path fill="#FFFFFF" d="M182.826,317.577c0,0-11.044,6.21-18.173-11.085c-6.823-16.553-5.433-26.156-10.264-32.938
			c0,0,2.849,38.36,10.894,44.358C173.327,323.91,181.026,325.061,182.826,317.577z"/>
		<path fill="#FFFFFF" d="M256.139,119.571c-0.64,2.465-2.197,4.532-4.393,5.82c-2.197,1.297-4.765,1.652-7.23,1.012
			c-2.465-0.64-4.532-2.197-5.82-4.393c-0.19-0.311-0.346-0.631-0.493-0.96c2.145,3.01,6.27,3.935,9.513,2.024
			c0.199-0.121,0.389-0.234,0.571-0.372c-1.124-0.277-2.153-1.003-2.785-2.076c-1.254-2.136-0.545-4.886,1.583-6.14
			c1.142-0.666,2.439-0.778,3.615-0.415c-0.121-0.285-0.268-0.579-0.432-0.856c-2.015-3.425-6.426-4.566-9.85-2.551
			c-0.441,0.259-0.83,0.554-1.194,0.873c0.744-1.012,1.695-1.903,2.854-2.577c1.479-0.873,3.139-1.323,4.817-1.323
			c0.804,0,1.608,0.104,2.404,0.311c2.465,0.64,4.532,2.197,5.829,4.393C256.416,114.538,256.779,117.098,256.139,119.571z"/>
		<path fill="#FFFFFF" d="M199.865,121.05c-0.147,0.329-0.303,0.649-0.493,0.96c-1.289,2.197-3.356,3.753-5.82,4.393
			s-5.033,0.285-7.23-1.012c-4.532-2.664-6.045-8.519-3.382-13.05c1.297-2.197,3.364-3.753,5.829-4.393
			c0.796-0.208,1.6-0.311,2.404-0.311c1.678,0,3.338,0.45,4.817,1.323c1.142,0.675,2.11,1.557,2.863,2.594
			c-0.363-0.329-0.761-0.631-1.202-0.891c-3.416-2.015-7.835-0.873-9.85,2.551c-0.164,0.277-0.311,0.571-0.432,0.856
			c1.176-0.363,2.473-0.251,3.615,0.415c2.128,1.254,2.837,4.004,1.583,6.14c-0.631,1.072-1.66,1.799-2.785,2.076
			c0.19,0.138,0.372,0.251,0.571,0.372C193.595,124.985,197.72,124.06,199.865,121.05z"/>
		<path fill="#FFFFFF" d="M202.769,150.509c0,0-11.361,4.472-18.006,10.818c-6.805,6.501-14.458,15.322-13.24,33.562
			c0,0,1.54,13.669,4.486,19.967c0,0-4.45,0.203-6.989-6.806s-1.32-25.901-1.32-25.901s6.025-14.87,9.446-18.892
			C188.405,150.022,202.769,150.509,202.769,150.509z"/>
		<path fill="#FFFFFF" d="M235.469,150.509c0,0,11.361,4.472,18.006,10.818c6.805,6.501,14.527,15.454,13.308,33.694
			c0,0-1.061,13.537-4.006,19.834c0,0,3.902,0.203,6.442-6.806c2.539-7.008,1.32-25.901,1.32-25.901s-6.025-14.87-9.446-18.892
			C249.833,150.022,235.469,150.509,235.469,150.509z"/>
		<path fill="#FFFFFF" d="M233.974,47.315c0,0,2.571,1.024,6.609,3.376c9.741,5.674,28.28,21.466,31.389,35.815l0.105,4.316
			C272.077,90.822,249.945,59.045,233.974,47.315z"/>
		<path fill="#FFFFFF" d="M276.281,85.341c0,0,5.534,9.638,8.057,25.4c3.055,19.087,2.691,43.712-11.542,68.901l-1.609-1.887
			c0,0,6.065-16.924,8.452-37.236C281.944,120.91,279.639,99.616,276.281,85.341z"/>
		<path fill="#FFFFFF" d="M218.978,41.45c0,0,13.226,6.618,16.242,12.256l-16.209-7.364L218.978,41.45z"/>
		<path fill="#FFFFFF" d="M204.038,47.315c0,0-2.571,1.024-6.609,3.376c-9.741,5.674-28.28,21.466-31.389,35.815l-0.105,4.316
			C165.935,90.822,188.067,59.045,204.038,47.315z"/>
		<path fill="#FFFFFF" d="M161.731,85.341c0,0-5.534,9.638-8.057,25.4c-3.055,19.087-2.691,43.712,11.542,68.901l1.609-1.887
			c0,0-6.065-16.924-8.452-37.236C156.069,120.91,158.373,99.616,161.731,85.341z"/>
		<path fill="#FFFFFF" d="M219.002,46.342l0.032-4.891c0,0-13.226,6.618-16.242,12.256"/>
	</g>
	<path fill="#231F20" d="M153.675,159.881c0.597,2.361,1.349,4.679,1.557,7.161c-4.082-4.056-6.045-9.34-7.723-14.607
		c-2.75-8.787-4.047-18.032-3.9-27.233c0.138-4.929,0-9.946,2.421-14.46c1.116,4.722,0.727,9.651,1.012,14.391
		C147.716,136.954,149.904,148.664,153.675,159.881z M418.961,222.641c0.363-4.385-0.242-8.674-1.072-12.895
		c-2.404-11.822-6.495-26.654-15.359-35.25c2.551,8.138,6.062,15.757,8.631,23.878C414.048,206.408,415.769,214.633,418.961,222.641
		z M171.75,71.72c3.779-3.849,6.383-8.103,10.274-11.684c3.667-3.874,7.775-6.244,11.701-10.067
		C184.212,49.434,172.346,62.674,171.75,71.72z M284.307,49.122c1.937,2.456,3.727,4.955,5.881,7.29
		c-0.666-3.148-1.825-6.132-3.338-8.916c-7.905-13.777-20.488-24.674-34.662-31.653c-5.699-2.716-11.58-5.544-18.083-5.397
		c5.414,3.286,11.061,5.362,16.492,8.441C263.914,26.308,275.52,36.651,284.307,49.122z M187.472,18.888
		c5.431-3.079,11.078-5.154,16.492-8.441c-6.504-0.147-12.384,2.681-18.083,5.397c-14.175,6.979-26.758,17.876-34.662,31.653
		c-1.513,2.785-2.672,5.768-3.338,8.916c2.162-2.335,3.944-4.834,5.881-7.29C162.548,36.651,174.154,26.308,187.472,18.888z
		 M291.027,125.132c-0.674,11.822-2.863,23.532-6.633,34.749c-0.597,2.361-1.349,4.679-1.557,7.161
		c4.082-4.056,6.045-9.34,7.723-14.607c2.75-8.787,4.047-18.032,3.909-27.233c-0.147-4.929-0.009-9.946-2.43-14.46
		C290.923,115.472,291.312,120.393,291.027,125.132z M290.957,78.448c1.937,4.834,3.848,9.66,5.699,14.546
		c0.865,2.473,1.807,4.921,3.33,7.316c0.813-5.543-1.003-10.767-2.577-15.956c-1.92-5.042-4.177-10.43-8.804-13.586
		C289.081,73.631,290.006,76.027,290.957,78.448z M244.343,49.97c3.935,3.822,8.034,6.192,11.701,10.067
		c3.883,3.58,6.495,7.835,10.274,11.684C265.73,62.674,253.83,49.425,244.343,49.97z M149.463,70.769
		c-4.627,3.157-6.884,8.544-8.804,13.586c-1.574,5.189-3.39,10.413-2.577,15.956c1.522-2.396,2.465-4.843,3.33-7.316
		c1.851-4.886,3.762-9.712,5.699-14.546C148.062,76.027,148.987,73.631,149.463,70.769z M355.067,81.631
		c-3.139-3.641-6.893-6.547-10.758-9.254c-7.714-5.492-15.904-10.343-24.674-13.984c-4.428-1.782-9.055-3.157-13.855-3.442
		c8.104,4.739,16.587,8.441,24.734,13.068C338.86,72.352,346.479,77.636,355.067,81.631z M132.288,54.951
		c-4.8,0.285-9.427,1.66-13.846,3.442c-8.769,3.641-16.968,8.493-24.682,13.984c-3.866,2.707-7.611,5.613-10.758,9.254
		c8.588-3.995,16.207-9.28,24.552-13.612C115.7,63.392,124.193,59.69,132.288,54.951z M88.562,412.073
		c-3.874-3.399-7.662-6.901-11.364-10.49c-3.788-3.667-7.204-7.438-11.71-10.378c1.825,5.146,5.44,9.081,9.037,12.99
		c5.362,5.794,11.225,11.122,17.513,15.895c6.356,4.705,12.748,9.427,20.367,11.969c-3.788-3.788-7.922-6.858-11.987-10.049
		C96.328,418.853,92.436,415.463,88.562,412.073z M349.506,412.073c-3.874,3.39-7.766,6.78-11.857,9.937
		c-4.065,3.191-8.199,6.261-11.987,10.049c7.619-2.543,14.01-7.265,20.367-11.969c6.287-4.774,12.151-10.101,17.521-15.895
		c3.589-3.909,7.204-7.844,9.029-12.99c-4.506,2.94-7.922,6.711-11.71,10.378C357.169,405.172,353.381,408.674,349.506,412.073z
		 M168.42,376.745c2.439,7.939,3.468,15.913,6.633,23.74c2.793-11.303-5.544-38.926-13.353-47.47
		c0.649,4.264,1.98,8.103,3.252,11.995C166.249,368.884,167.313,372.819,168.42,376.745z M263.015,400.485
		c3.165-7.827,4.194-15.792,6.633-23.74c1.107-3.926,2.171-7.861,3.468-11.736c1.271-3.892,2.603-7.732,3.252-11.995
		C268.541,361.593,260.221,389.216,263.015,400.485z M437.269,301.86l-0.553,4.843l-3.373-3.831
		c0.052,4.238-0.355,10.188-2.205,16.977c-3.26,12.004-11.848,28.98-34.126,42.16c-0.545,8.129-2.032,16.864-5.172,25.322
		l-1.608,4.333l-4.437-7.757c-3.745,9.824-15.653,32.543-49.901,52.115c0.242,2.136,0.398,4.272,0.355,6.339
		c0.009,11.969-3.676,24.942-13.388,32.682c-7.515,6.114-22.805,18.196-33.209,13.396c-7.628,1.773-16.224,3.027-23.065-1.955
		c-0.649-0.484-1.228-1.029-1.738-1.617c-2.508,0.095-4.999,0.147-7.498-0.216c-7.178-0.822-12.03-3.926-14.667-8.259
		c-13.085-5.319-21.188-13.439-23.61-23.117c-0.424,1.695-1.02,3.355-1.859,4.955c-4.532,8.864-12.86,14.59-21.837,18.179
		c-2.638,4.324-7.489,7.429-14.659,8.242c-2.525,0.363-5.042,0.311-7.576,0.208c0,0,0-0.043,0.009-0.112
		c-2.197,2.551-5.466,4.315-9.807,4.895c-5.224,0.718-10.222-0.069-15.221-1.271c-10.404,4.973-25.824-7.195-33.356-13.327
		c-10.689-8.57-14.027-23.169-13.293-36.271c0.017-0.882,0.13-1.929,0.259-2.992c-33.919-19.519-45.732-42.091-49.459-51.872
		l-4.437,7.757l-1.608-4.333c-3.139-8.458-4.627-17.193-5.172-25.322c-22.278-13.18-30.866-30.157-34.126-42.16
		c-1.851-6.789-2.257-12.739-2.205-16.977l-3.373,3.831l-0.553-4.843c-2.551-22.408,1.263-39.393,7.801-52.192
		c-2.292-35.57,7.489-61.498,16.146-77.022c7.455-13.388,15.23-21.43,18.412-24.423c0.329-1.799,0.701-3.589,1.133-5.371
		c2.603-10.646,6.97-20.998,13.595-29.793c-1.98,0.406-3.892,0.804-4.999,1.029C66.63,75.707,99.433,50.964,139.44,45.274
		c1.807-0.242,3.58-0.458,5.422-0.597c9.53-17.841,23.221-28.289,35.077-34.325c17.539-8.925,34.057-10.162,38.519-10.326V0
		c0.069,0,0.268,0,0.579,0.009C219.341,0,219.549,0,219.609,0v0.026c4.462,0.164,20.981,1.401,38.519,10.326
		c11.874,6.045,25.573,16.501,35.112,34.377c19.208,1.626,37.923,8.328,53.853,19.199c17.746,12.03,30.771,30.139,38.087,50.16
		c-1.107-0.225-3.027-0.623-5.025-1.029c6.711,8.7,10.975,19.191,13.63,29.793c0.424,1.781,0.796,3.572,1.124,5.371
		c3.182,2.992,10.957,11.035,18.412,24.423c8.657,15.524,18.438,41.451,16.146,77.022
		C436.015,262.467,439.82,279.452,437.269,301.86z M295.489,49.261c4.169,9.029,7.282,19.787,8.717,32.578
		c1.366,3.269,2.404,6.685,3.148,10.101c2.283,11.027,0.19,22.84-5.241,32.613c0.182,3.9,0.121,7.809-0.017,11.641
		c-0.735,11.857-4.246,23.722-10.611,33.763c18.732-1.548,37.828,3.978,53.645,13.941c10.473,6.702,19.511,15.342,27.009,25.166
		c5.111,0.917,20.462,4.402,35.207,15.014c6.192,4.462,12.678,10.534,18.092,18.697c0.709-31.021-8.008-53.827-15.783-67.837
		c-4.895-8.813-9.989-15.273-13.664-19.372c0.242,2.179,0.415,4.367,0.519,6.564c0.38,6.46-0.035,12.998-2.024,19.242
		c-1.055-6.46-1.427-12.696-2.006-18.94c-0.925-9.332-2.966-18.481-6.175-27.259c-2.958-7.939-6.841-15.584-12.03-22.287
		c-0.899-1.219-5.111-5.734-6.175-6.936c2.404,0.614,6.547,1.548,10.032,2.283c-10.983-25.27-32.959-44.962-59.137-53.611
		C311.419,52.045,303.471,50.125,295.489,49.261z M139.863,71.426c2.309-2.966,5.033-5.587,8.225-7.671
		c-4.004,6.478-7.602,12.877-10.049,19.537v0.043h-0.017c-2.837,7.749-4.108,15.869-2.603,24.924
		c0.389,2.249,0.925,4.471,1.583,6.668c0.925-5.103,2.508-10.049,5.128-14.616c-0.579,11.935-2.655,23.593-1.349,35.493
		c1.15,12.479,5.137,24.872,12.6,35.008c3.252,4.558,7.169,8.519,11.45,12.108c0.164-0.969,0.372-1.92,0.605-2.871
		c-20.228-48.551-5.864-89.043-3.65-94.699c0.259-6.408,2.352-12.791,6.564-17.625c-0.562,2.361-1.055,4.627-1.392,6.893
		c-0.554,3.624-0.7,7.29-0.562,10.949c0.804-1.574,1.686-3.087,2.62-4.558c9.037-13.699,21.75-24.345,35.077-33.694
		c-0.294,1.513-0.77,3.944-1.245,6.391c1.47-1.254,2.992-2.439,4.601-3.537c3.555-2.344,7.308-4.411,11.459-5.543
		c0.009-0.043,0.017-0.069,0.017-0.069c0.035,0.009,0.069,0.017,0.104,0.035c0.043-0.017,0.078-0.026,0.112-0.035
		c0,0,0.009,0.026,0.017,0.069c5.993,1.738,11.338,5.042,16.06,9.081c-0.476-2.448-0.951-4.878-1.245-6.391
		c9.418,6.529,18.326,13.785,26.083,22.209c4.419,4.904,8.657,10.153,11.632,16.068c0.208-5.993-0.441-11.961-1.972-17.867
		c2.448,2.715,4.125,6.106,5.215,9.591c0.778,2.612,1.228,5.31,1.349,8.026c2.197,5.613,16.51,45.905-3.485,94.301
		c0.268,1.021,0.493,2.05,0.675,3.079c4.194-3.529,8.026-7.438,11.217-11.909c7.472-10.136,11.45-22.529,12.6-35.008
		c1.306-11.9-0.77-23.549-1.349-35.493c2.62,4.566,4.203,9.513,5.128,14.616c0.657-2.197,1.202-4.419,1.583-6.668
		c1.505-9.055,0.234-17.175-2.603-24.924h-0.009c-0.009-0.017-0.009-0.026-0.009-0.035c-2.448-6.668-6.045-13.068-10.049-19.545
		c3.191,2.084,5.915,4.713,8.224,7.671c-5.474-26.507-19.519-45.698-41.892-57.148c-17.297-8.847-34.014-9.833-37.274-9.946
		c-3.269,0.112-19.986,1.098-37.283,9.946C159.391,25.729,145.338,44.919,139.863,71.426z M245.545,152.383
		c9.85,1.168,17.755,8.294,22.771,16.648c0,0,0,0.009,0.009,0.009c0.77,1.271,1.462,2.56,2.093,3.875
		c0.069,0.156,0.13,0.311,0.199,0.458c12.678-34.109,8.164-63.426,4.411-77.705c-0.83,3.027-1.98,6.728-2.421,8.518l-1.825-8.605
		c-3.122-13.085-14.174-24.051-23.947-32.863c-2.11-1.842-4.29-3.65-6.504-5.379l0.424,2.179l1.366,7.005
		c-1.47-1.496-5.717-5.777-7.135-7.213c-3.503-3.373-7.455-6.331-11.805-8.493c-1.306-0.649-2.707-1.254-4.099-1.712
		c-5.111,1.678-9.764,4.731-13.829,8.225c-2.689,2.318-6.72,6.659-9.306,9.193c0.432-2.223,1.142-5.838,1.782-9.158
		c-9.504,7.42-18.455,15.93-25.071,25.971c-2.456,3.848-4.462,7.974-5.371,12.246l-1.825,8.605
		c-0.467-1.816-1.591-5.509-2.421-8.527c-3.762,14.313-8.302,43.786,4.54,78.051c0.121-0.268,0.225-0.536,0.346-0.796
		c0.484-1.021,1.012-2.032,1.583-3.027c0,0,0-0.009,0.009-0.009c4.99-8.717,13.102-16.293,23.273-17.496
		c-8.129,6.633-16.475,12.713-20.522,22.46c-5.665,13.673-3.053,31.091,6.166,42.766c6.374,7.896,15.749,12.851,25.504,15.524
		c4.878,1.349,10.153,2.266,15.16,2.499h0.138c5.016-0.233,10.283-1.15,15.169-2.499c9.747-2.672,19.13-7.628,25.495-15.524
		c7.974-10.093,10.992-24.475,8.008-37.023l-0.173-0.078c0.035-0.086,0.069-0.164,0.104-0.251c-0.458-1.851-1.046-3.658-1.764-5.414
		C262.02,165.096,253.683,159.025,245.545,152.383z M218.347,239.955l0.002-0.01c-1.971-0.034-4.206-0.145-5.918-0.318
		c1.626,3.598,4.61,10.845,6.607,19.389c1.989-8.527,4.955-15.748,6.581-19.363c-1.618,0.158-3.747,0.261-5.623,0.293l0.002,0.009
		c-0.247,0.002-0.508,0.001-0.773,0C218.921,239.957,218.626,239.957,218.347,239.955z M12.63,242.774
		c5.414-8.164,11.9-14.235,18.092-18.697c14.728-10.594,30.053-14.088,35.181-15.014c13.682-18.006,33.071-32.042,55.323-37.084
		c8.294-1.877,16.855-2.768,25.339-2.058c-6.357-10.032-9.859-21.889-10.585-33.728c-0.147-3.831-0.208-7.74-0.026-11.641
		c-5.431-9.773-7.524-21.586-5.241-32.613c0.744-3.416,1.782-6.832,3.148-10.101c1.436-12.773,4.54-23.515,8.7-32.543
		c-35.951,3.978-68.071,25.486-82.626,58.938c3.485-0.735,7.619-1.669,10.032-2.283c-14.936,14.875-22.261,35.813-24.379,56.482
		c-0.579,6.244-0.951,12.479-2.006,18.94c-1.989-6.244-2.404-12.782-2.024-19.242c0.104-2.197,0.277-4.385,0.519-6.564
		c-3.676,4.099-8.769,10.551-13.664,19.372C20.638,188.948,11.921,211.753,12.63,242.774z M42.276,335.112l-5.786,7.1l0.164-6.322
		c0.899-36.15,11.139-61.074,30.416-74.081c22.892-15.437,51.431-9.435,62.112-6.348c-1.038-11.001-3.71-21.785-8.026-31.929
		l-5.656-12.756c8.276,5.094,11.987,15.541,14.789,24.38c2.577,9.306,3.529,18.922,3.701,28.462
		c0.078,4.497,0.38,9.184,1.358,13.569c2.352,11.727,10.119,22.278,21.309,26.421c-1.436-4.687-2.37-9.47-2.94-14.261
		c-0.683-5.276-0.804-10.603,0.726-15.792c3.598,9.928,3.831,20.003,7.195,29.837c2.249,6.711,5.734,15.645,13.621,16.639
		c18.343,1.522,8.285-31.194,5.734-41.166c-1.453-4.921-2.906-9.807-3.243-15.238c3.563,4.151,5.57,9.037,7.213,14.002
		c2.992,8.57,7.654,25.962,4.272,36.885c1.911-0.372,3.736-0.943,5.371-1.799c14.382-7.611,7.014-33.028,3.234-45.464
		c-2.093-6.78-5.137-12.955-6.019-20.159c5.241,5.206,7.559,12.047,10.136,18.741c3.191,8.458,6.659,20.643,6.14,31.272
		c19.511-17.426-0.45-57.52-0.675-57.952c0,0-3.053-0.813-4.748-1.219c-16.665-3.909-31.462-14.953-36.271-31.947
		c-1.652-5.777-2.473-11.883-2.145-17.893c-3.087-2.179-6.114-4.488-8.795-7.204c-1.998-1.92-3.823-3.978-5.509-6.14
		c-28.807-2.491-57.572,10.94-76.494,32.422c-2.3,2.508-4.999,5.777-7.014,8.51c-2.153,2.854-4.324,6.184-6.616,8.916
		c-1.531,1.963-3.131,3.892-5.128,5.647c0.51-2.569,1.358-4.99,2.37-7.334c1.306-2.897,3.165-5.872,5.025-8.562
		c-6.772,1.721-18.17,5.518-28.98,13.336C11.929,242.999,2.364,266.116,4.63,296.437l6.426-7.308l-1.522,7.835
		c-0.026,0.086-1.781,9.626,1.626,21.958c4.238,15.385,14.218,28.116,29.672,37.88C40.659,348.197,41.446,340.561,42.276,335.112z
		 M206.213,426.23c-3.978-5.068-9.755-8.467-16.043-9.816c-4.238-0.891-8.709-1.116-13.145-0.588
		c-4.618,0.528-9.003,1.332-13.768,1.643c1.816-1.704,3.935-2.94,6.158-3.926c3.356-1.349,6.936-2.205,10.568-2.569
		c0.675-15.022-1.833-30.087-7.351-44.08c-3.381-9.072-8.415-16.778-12.229-25.893c3.935,2.75,7.005,6.331,9.582,10.274
		c1.565-22.157-11.26-40.102-13.604-43.181c-1.202-0.406-2.37-0.891-3.554-1.418c-16.968-7.853-23.255-25.348-23.169-42.991
		c-0.026-1.193-0.069-2.396-0.138-3.589c-8.467-2.569-37.706-9.781-60.054,5.31c-16.899,11.416-26.377,32.967-28.219,64.127
		l9.288-11.424l-2.422,9.513c-0.078,0.294-6.962,28.003,0.666,53.68l4.981-8.726l1.193,5.526
		c0.078,0.346,8.363,35.441,61.792,60.616c4.558-6.184,11.675-10.689,19.337-11.615c-4.48,3.451-9.556,7.213-13.31,11.39
		c-1.194,1.289-2.326,2.733-3.416,4.177c-0.095,0.502-0.294,1.02-0.519,1.513c-0.692,1.487-1.315,3.018-1.929,4.566l-0.943,2.439
		c-0.303-0.83-0.571-1.686-0.752-2.551c-0.303-1.833-0.761-3.918-0.528-5.838c-2.819-1.211-5.621-2.456-8.415-3.736
		c-0.19,3.286-0.061,6.642,0.329,9.876c0.917,7.507,3.468,14.935,8.778,20.401c3.97,3.875,8.501,7.316,13.093,10.335
		c3.632,2.318,7.602,4.488,11.762,5.388c11.104,2.093,11.623-7.593,8.043-15.489c-1.773-4.134-3.814-8.034-6.547-11.718
		c8.017,3.511,15.723,18.291,10.733,26.654c3.468,0.337,6.884,0.415,10.067-0.06c11.035-1.591,9.738-11.969,6.711-20.099
		c-1.799-4.471-3.546-9.046-6.175-13.163c7.143,3.044,11.122,11.805,12.817,19c0.848,3.745,0.744,7.239-0.268,10.222
		c1.496-0.095,2.975-0.234,4.402-0.502c13.595-1.963,15.558-12.462,10.266-23.593c-2.11-4.125-4.808-7.671-7.965-11.113
		c5.448-0.095,9.176,4.895,11.641,9.176c3.165,5.526,4.376,11.243,3.554,16.216C216.435,460.668,220.578,444.816,206.213,426.23z
		 M227.756,423.039c5.907-8.051,15.965-12.229,25.798-12.203c-1.756-15.558,1.133-31.497,7.316-45.827
		c1.15-2.499,2.335-5.042,3.624-7.524c-2.413-13.517,0.407-25.737,4.169-35c-1.635,0.865-3.442,1.444-5.44,1.643
		c-5.803,0.285-9.625-1.617-12.038-4.834c-1.427-0.06-2.863-0.19-4.298-0.45c-9.686-1.98-14.374-8.069-16.12-15.731
		c-5.63-3.598-9.565-8.657-11.727-15.057c-2.171,6.4-6.106,11.459-11.736,15.057c-1.747,7.671-6.434,13.759-16.121,15.731
		c-1.436,0.259-2.871,0.389-4.298,0.45c-2.404,3.217-6.235,5.12-12.038,4.834c-1.998-0.199-3.805-0.787-5.431-1.643
		c3.753,9.262,6.573,21.482,4.16,35c1.289,2.482,2.473,5.025,3.624,7.524c6.175,14.322,9.063,30.252,7.325,45.793
		c4.765,0.087,9.522,1.021,13.898,2.854c7.083,2.94,12.272,8.96,15.982,15.498c2.084,3.433,3.719,7.36,4.627,11.424
		C220.275,434.957,223.138,429.058,227.756,423.039z M389.954,327.623l-2.43-9.522l9.297,11.433
		c-1.842-31.16-11.321-52.711-28.219-64.127c-22.339-15.083-51.587-7.879-60.054-5.31c-0.061,1.193-0.112,2.396-0.138,3.589
		c0.078,17.668-6.192,35.129-23.169,42.991c-1.185,0.527-2.352,1.012-3.554,1.418c-2.344,3.07-15.169,21.024-13.604,43.181
		c2.577-3.944,5.647-7.524,9.582-10.274c-3.814,9.115-8.847,16.821-12.229,25.893c-5.526,14.002-8.026,29.084-7.351,44.132
		c6.08,0.536,12.134,2.266,16.726,6.443c-4.757-0.311-9.15-1.116-13.768-1.643c-14.14-1.565-25.979,3.2-32.924,15.93
		c-9.548,15.653-4.609,29.119,10.802,37.992c0.528,0.311,1.081,0.614,1.643,0.908c-0.839-4.981,0.372-10.724,3.546-16.276
		c2.456-4.281,6.192-9.271,11.641-9.176c-3.157,3.442-5.855,6.988-7.965,11.113c-5.301,11.139-3.321,21.629,10.266,23.593
		c1.427,0.268,2.889,0.398,4.376,0.493c-1.038-3.286-0.986-7.014-0.234-10.17c1.695-7.213,5.656-15.982,12.808-19.044
		c-2.629,4.125-4.367,8.709-6.166,13.197c-3.018,8.112-4.367,18.577,6.676,20.133c3.07,0.45,6.357,0.372,9.686,0.052
		c-5.068-8.372,2.664-23.177,10.698-26.715c-2.733,3.684-4.774,7.585-6.547,11.718c-3.563,7.87-3.096,17.573,8.043,15.489
		c4.169-0.899,8.129-3.07,11.762-5.388c4.592-3.018,9.133-6.46,13.102-10.335c5.301-5.466,7.853-12.895,8.769-20.401
		c0.389-3.234,0.519-6.59,0.329-9.876c-2.646,1.211-5.301,2.395-7.974,3.546c0.026,0.225,0.035,0.458,0.043,0.701
		c-0.009,2.681-0.381,5.362-1.323,7.878c-0.882-2.274-1.851-4.826-2.871-7.005c-0.086-0.182-0.173-0.372-0.242-0.571
		c-1.306-1.738-2.672-3.546-4.134-5.12c-3.745-4.169-8.839-7.956-13.31-11.39c7.706,0.934,14.866,5.492,19.424,11.727
		c2.491-1.254,5.007-2.482,7.541-3.693c47.15-24.846,54.536-56.698,54.605-57.035l1.193-5.526l4.981,8.726
		C396.925,355.591,390.032,327.917,389.954,327.623z M404.821,227.588c-10.802-7.775-22.122-11.545-28.859-13.249
		c1.859,2.689,3.727,5.665,5.033,8.57c1.012,2.344,1.859,4.765,2.37,7.334c-1.998-1.756-3.598-3.684-5.128-5.647
		c-3.096-3.719-5.777-8.103-8.873-11.822c-13.543-17.184-32.319-30.572-53.732-35.717c-8.242-2.015-16.769-2.958-25.244-2.525
		c-0.744,0.043-1.513,0.104-2.24,0.173c-1.695,2.179-3.537,4.255-5.544,6.184c-2.603,2.638-5.535,4.895-8.536,7.014
		c0.354,6.071-0.467,12.246-2.136,18.084c-4.8,16.994-19.606,28.038-36.271,31.947c-1.764,0.424-5.016,1.219-5.016,1.219
		c-0.225,0.432-20.185,40.526-0.683,57.943c-0.51-10.62,2.966-22.797,6.149-31.264c2.577-6.694,4.895-13.535,10.136-18.741
		c-0.882,7.204-3.926,13.379-6.019,20.159c-3.771,12.419-11.148,37.854,3.234,45.464c1.635,0.856,3.459,1.427,5.371,1.799
		c-3.382-10.914,1.271-28.297,4.272-36.885c1.652-4.964,3.65-9.85,7.221-14.002c-0.346,5.431-1.799,10.317-3.252,15.238
		c-2.534,9.963-12.644,42.645,5.734,41.166c7.861-0.969,11.381-9.946,13.621-16.639c3.364-9.833,3.598-19.908,7.195-29.837
		c1.531,5.189,1.41,10.516,0.726,15.792c-0.571,4.783-1.496,9.556-2.94,14.244c6.867-2.577,12.774-7.654,16.51-13.958
		c4.679-7.723,6.097-17.08,6.157-26.014c0.251-14.278,2.275-29.076,9.029-41.918c2.249-4.29,5.189-8.423,9.461-10.923l-5.656,12.756
		c-4.315,10.144-6.979,20.929-8.026,31.929c10.681-3.087,39.22-9.098,62.112,6.348c19.277,13.007,29.516,37.931,30.416,74.081
		l0.164,6.322l-5.786-7.1c0.83,5.448,1.617,13.085,1.444,21.69c15.455-9.764,25.435-22.494,29.681-37.88
		c3.399-12.332,1.643-21.872,1.617-21.967l-1.487-7.783l6.391,7.264C435.712,266.047,426.095,242.904,404.821,227.588z
		 M406.965,233.581c-4.194-3.805-8.813-7.524-14.469-8.821c3.788,4.238,7.948,7.585,11.917,11.502
		c7.645,7.732,14.131,16.587,18.698,26.472c2.214,4.981,4.065,10.075,6.279,15.316C429.65,261.827,418.77,244.132,406.965,233.581z
		 M45.571,224.76c-5.656,1.297-10.274,5.016-14.469,8.821c-11.805,10.551-22.684,28.263-22.425,44.469
		c2.214-5.241,4.065-10.335,6.279-15.316c4.566-9.885,11.061-18.741,18.698-26.472C37.623,232.345,41.792,228.998,45.571,224.76z
		 M202.088,147.998c-0.32,4.021,0.38,11.07,8.977,11.917h15.939c8.596-0.848,9.297-7.896,8.977-11.917
		c-0.182-2.188-1.219-4.264-3.018-5.509c-6.019-4.177-12.073,5.457-13.924,8.787c-1.859-3.33-7.913-12.964-13.932-8.787
		C203.307,143.734,202.269,145.81,202.088,147.998z M190.923,213.024c-2.473-2.491-4.367-5.587-6.149-9.081
		c-0.406,17.184,19.441,24.682,34.29,23.445c1.453,0.112,2.845,0.138,4.29,0.095c9.902-0.337,20.721-3.719,26.637-12.177
		c2.335-3.39,3.451-7.472,3.304-11.364c-1.782,3.494-3.676,6.59-6.149,9.081c-7.152,7.55-18.092,9.487-28.116,9.842
		C209.006,222.512,198.075,220.574,190.923,213.024z M194.201,128.92c-1.012,0.259-2.041,0.389-3.062,0.389
		c-2.136,0-4.238-0.571-6.132-1.678c-1.462-0.865-2.672-1.989-3.615-3.278c-3.477-2.569-7.671-2.015-7.671-2.015
		c3.027-1.505,4.618-4.41,5.379-6.339c0.164-1.704,0.683-3.399,1.609-4.973c1.643-2.793,4.272-4.782,7.412-5.587
		c3.131-0.813,6.4-0.355,9.193,1.28c1.842,1.09,3.33,2.62,4.367,4.437c2.577,2.197,5.457,1.885,5.457,1.885
		c-2.274,1.029-3.356,2.811-3.857,4.091c0.009,2.162-0.545,4.29-1.669,6.192C199.969,126.118,197.34,128.107,194.201,128.92z
		 M193.552,126.403c2.465-0.64,4.532-2.197,5.82-4.393c0.19-0.311,0.346-0.631,0.493-0.96c-2.145,3.01-6.27,3.935-9.513,2.024
		c-0.199-0.121-0.38-0.234-0.571-0.372c1.124-0.277,2.153-1.003,2.785-2.076c1.254-2.136,0.545-4.886-1.583-6.14
		c-1.142-0.666-2.439-0.778-3.615-0.415c0.121-0.285,0.268-0.579,0.432-0.856c2.015-3.425,6.434-4.566,9.85-2.551
		c0.441,0.259,0.839,0.562,1.202,0.891c-0.753-1.038-1.721-1.92-2.863-2.594c-1.479-0.873-3.139-1.323-4.817-1.323
		c-0.804,0-1.609,0.104-2.404,0.311c-2.465,0.64-4.532,2.197-5.829,4.393c-2.664,4.532-1.15,10.387,3.382,13.05
		C188.519,126.689,191.087,127.043,193.552,126.403z M256.684,124.354c-0.96,1.306-2.179,2.422-3.624,3.278
		c-1.894,1.107-3.995,1.678-6.132,1.678c-1.021,0-2.05-0.13-3.061-0.389c-3.139-0.813-5.769-2.802-7.412-5.595
		c-1.142-1.937-1.669-4.065-1.66-6.175c-0.502-1.28-1.583-3.079-3.866-4.108c0,0,2.888,0.311,5.474-1.894
		c1.012-1.773,2.473-3.321,4.35-4.428c2.793-1.635,6.062-2.102,9.193-1.28c3.139,0.804,5.768,2.793,7.412,5.587
		c0.917,1.557,1.453,3.252,1.617,4.999c0.761,1.92,2.361,4.817,5.371,6.313C264.347,122.339,260.152,121.785,256.684,124.354z
		 M255.128,112.341c-1.297-2.197-3.364-3.753-5.829-4.393c-0.796-0.208-1.6-0.311-2.404-0.311c-1.678,0-3.338,0.45-4.817,1.323
		c-1.159,0.675-2.11,1.565-2.854,2.577c0.363-0.32,0.753-0.614,1.194-0.873c3.425-2.015,7.835-0.873,9.85,2.551
		c0.164,0.277,0.311,0.571,0.432,0.856c-1.176-0.363-2.473-0.251-3.615,0.415c-2.127,1.254-2.837,4.004-1.583,6.14
		c0.631,1.072,1.661,1.799,2.785,2.076c-0.182,0.138-0.372,0.251-0.571,0.372c-3.243,1.911-7.368,0.986-9.513-2.024
		c0.147,0.329,0.303,0.649,0.493,0.96c1.289,2.197,3.356,3.753,5.82,4.393c2.465,0.64,5.033,0.285,7.23-1.012
		c2.197-1.289,3.753-3.355,4.393-5.82C256.779,117.098,256.416,114.538,255.128,112.341z M26.908,198.374
		c2.569-8.121,6.088-15.74,8.631-23.878c-8.856,8.579-12.955,23.445-15.359,35.25c-0.83,4.22-1.436,8.51-1.072,12.895
		C22.299,214.633,24.02,206.408,26.908,198.374z"/>
</g>
</svg>
