<?xml version="1.0" encoding="utf-8"?>
<!-- Generator: Adobe Illustrator 28.3.0, SVG Export Plug-In . SVG Version: 6.00 Build 0)  -->
<svg version="1.1" id="polar_bear_00000173870972622580537150000015468293672201692079_"
	 xmlns="http://www.w3.org/2000/svg" xmlns:xlink="http://www.w3.org/1999/xlink" x="0px" y="0px" viewBox="0 0 438.8 490"
	 style="enable-background:new 0 0 438.8 490;" xml:space="preserve">
<style type="text/css">
	.st0{fill:#FFFFFF;}
	.st1{fill:#C6C6C6;}
	.st2{fill:#A3A3A3;}
	.st3{fill:#231F20;}
</style>
<g id="polar_bear">
	<g>
		<path class="st0" d="M287.6,458.3c-1.6-0.5-3.3,0.4-4.5,1.2l-0.1,0.1l-0.8,2.9l-0.9-2.1l-0.7-1c-2.4-3.2-5.4-4.8-7.6-4.2
			c-0.4,0.1-0.8,0.3-1.2,0.6l-0.1,0.1l-1,3.6l-1.4-3.4l-0.3-0.4c-0.8-1.3-2.5-3.4-4.8-3.4c-1.9,0-3.3,1.6-4.2,2.9l-0.1,0.1l-1.3,4
			l-1.2-3.9l-0.1-0.1c-0.6-0.5-1.2-0.8-1.8-1c-1.1-0.2-2.3,0-3.5,0.7c-0.3,0.2-0.7,0.4-1.1,0.7c-0.5,0.4-1,0.8-1.4,1.3l-1.3,1.4
			l-1.2-1.5c-0.6-0.8-1.3-1.3-2.1-1.4c-1.9-0.4-4.3,1-6.2,3.8c-1.4,2-2.4,4.4-3.1,7c-0.5,1.9-0.7,3.8-0.6,5.6c0,0,0,0.1,0,0.1l0.4,0
			c0,0,0,0,0,0l-0.4,0.1c0.3,1.5,0.6,3.1,1,4.6l-0.1,0.1l0.2,0.4c0.7,1.6,1.8,2.6,3,2.9c1,0.2,2.1-0.1,3.3-0.8l0.1-0.1l2.2-4.3
			l0.4,4.8l0,0.1c0.9,1.8,2.1,3,3.5,3.3c2.3,0.5,5.2-1.2,7.5-4.6l1.5-4.5l1.2,4.3l0.2,0.5c1.6,3.7,3.8,5.8,6,5.8c2,0,4-1.9,5.4-5.2
			l0.8-5.5l1.6,4.5l0.4,0.6c2.5,3.5,5.5,5.2,7.9,4.6c0.8-0.2,1.6-0.7,2.2-1.5l0.1-0.1l0.5-7.6l3.6,6.2l0.3,0
			c1.4-0.1,2.5-0.8,3.4-1.9h0c2.7-3.2,2.9-9.6,0.6-15.3C291,461.5,289.6,458.9,287.6,458.3z"/>
		<path class="st0" d="M203.2,466.1c-0.6-2.6-1.7-5.1-3.1-7.1c-2-2.8-4.3-4.2-6.2-3.8c-0.8,0.2-1.5,0.7-2.1,1.4l-1.2,1.5l-1.3-1.4
			c-0.5-0.5-1-0.9-1.5-1.3c-0.4-0.3-0.7-0.5-1-0.6c-1.2-0.7-2.4-0.9-3.5-0.7c-0.7,0.1-1.3,0.5-1.8,1l-0.1,0.1l-1.2,3.9l-1.3-3.9
			l-0.1-0.2c-0.9-1.3-2.3-2.9-4.3-2.9c-2.2,0-3.9,2.2-4.7,3.4l-0.3,0.5l-1.3,3.3l-1-3.6l-0.1-0.1c-0.4-0.3-0.8-0.5-1.2-0.6
			c-2.2-0.6-5.2,1-7.6,4.2l-0.7,0.9l-0.9,2.2l-0.8-2.9l-0.1-0.1c-1.2-0.8-2.9-1.6-4.5-1.2c-2,0.6-3.4,3.1-4.2,5.1
			c-2.3,5.7-2,12.1,0.6,15.3c0.9,1.1,2.1,1.7,3.4,1.9l0.3,0l3.6-6.2l0.5,7.6l0.1,0.1c0.6,0.8,1.4,1.3,2.2,1.5
			c2.4,0.7,5.4-1.1,7.9-4.6l0.4-0.5l1.7-4.6l0.7,5.3l0.1,0.2c1.4,3.2,3.4,5.1,5.5,5.1c2.2,0,4.4-2.2,6-5.8l0.2-0.6l1.1-4.3l1.4,4.4
			l0.1,0.2c2.3,3.3,5.2,5.1,7.5,4.5c1.4-0.3,2.6-1.5,3.5-3.3l0.4-4.9l2.2,4.3l0.1,0.1c0.8,0.5,2,1.1,3.3,0.8
			c1.2-0.3,2.2-1.3,2.9-2.9l0.2-0.4l-0.1-0.1c0.4-1.7,0.7-3.3,1-4.9C203.9,469.9,203.7,468,203.2,466.1z"/>
		<path class="st0" d="M428.5,411.8l0.2-0.1c4.5-2.4,5.2-8.8,5.3-11.5c0-3.5-0.5-9.7-3.9-10.8c-1.3-0.5-3.5,0.1-5.5,0.7l-0.6-1.3
			c-2.2-4.7-5.3-6.6-8.2-5.2l-1.6,0.9c0-0.1-0.1-0.2-0.1-0.4c-0.8-2.2-1.8-5-4.2-5.7c-2.5-0.7-4.5,1.4-6.2,3
			c-0.1,0.1-0.2,0.2-0.3,0.3l-1.1-1.6c-1.3-2.2-4-2.3-5.9-1.4c-1,0.3-2.1,1.1-3.1,1.7c-0.3,0.2-0.5,0.3-0.7,0.5l-0.8-1.7
			c-0.5-1-1.2-1.7-2.1-2c-1.2-0.4-2.6-0.1-4.2,0.8c-3.3,2.1-7,6.2-7.5,10.9c-0.2,4.1,1.1,8.1,3.6,11.7c-1.3-0.4-2.5-1.1-3.6-2.1
			l-0.3-0.3l-0.3,0.3c-2.8,3.4-9.6,12.6-13.8,23c-7.7,19.2-7.8,39.3-0.3,52.4c4,6.9,9.7,11.1,16.6,12.1c1.1,0.2,2.2,0.2,3.2,0.2
			c16.7,0,34.8-17.6,41.2-40.2c2.3-8.2,4.5-23.8,4.5-32.1v-0.4l-0.4,0c-1.1,0-2.2-0.4-3.2-1c0.5,0,0.9,0,1.3-0.1
			C427.2,412.3,427.9,412.1,428.5,411.8z M385.9,395.1c0.6-1,1.6-1.7,2.7-2c1.1-0.3,2.3-0.1,3.3,0.5c-0.6,1-1.6,1.7-2.7,2
			C388.2,395.8,387,395.7,385.9,395.1z M422.1,406c-1.2-0.1-2.2-0.6-3-1.4c-0.8-0.9-1.2-2-1.2-3.2c1.2,0.1,2.3,0.6,3,1.5
			C421.7,403.7,422.1,404.8,422.1,406z M411.2,396.4c-1.1-0.5-1.9-1.4-2.3-2.5c1.1-0.4,2.3-0.3,3.4,0.2c1,0.5,1.8,1.4,2.2,2.5
			C413.4,396.9,412.2,396.9,411.2,396.4z M389,471.1c-1.2,0-2.4-0.1-3.6-0.4c-5-1.1-9.2-4.5-12-9.7c-4.9-9.2-5-22.8-0.2-35.6
			c4.4-11.7,12.1-20.6,20.7-23.7c2.3-0.8,4.5-1.2,6.6-1.2c2.7,0,5.3,0.7,7.7,2c10.4,5.7,14.4,22.9,9.2,40.1
			C412.7,459,400.6,471.1,389,471.1z M396.8,392.7c0.9-0.8,2-1.2,3.1-1.2c1.2,0,2.2,0.5,3.1,1.3c-0.9,0.8-1.9,1.2-3.1,1.2
			c0,0,0,0,0,0C398.8,393.9,397.7,393.5,396.8,392.7z"/>
		<path class="st0" d="M75.2,421.6c-4.2-10.4-11-19.5-13.8-23l-0.3-0.3l-0.3,0.3c-1.1,0.9-2.3,1.6-3.5,2.1c2.5-3.6,3.7-7.6,3.5-11.8
			c-0.6-4.6-4.2-8.8-7.5-10.8c-1.6-0.9-3-1.2-4.2-0.8c-0.9,0.3-1.6,1-2.1,2l-0.8,1.7c-0.3-0.2-0.5-0.3-0.8-0.5c-1-0.7-2.1-1.4-3-1.7
			c-1.9-0.9-4.6-0.8-5.9,1.4l-1.1,1.6c-1.6-1.7-3.6-3.5-5.7-3.4c-1.1,0-2.1,0.6-2.9,1.7c-0.9,1-1.5,2.6-2,4.1
			c-0.1,0.2-0.1,0.3-0.2,0.5l-1.6-0.9c-2.9-1.4-6,0.6-8.2,5.2l-0.6,1.3c-1.6-0.5-4.1-1.3-5.5-0.7c-3.2,1.1-3.9,6.5-3.9,10.9
			c0.1,2.6,0.8,9,5.3,11.5l0.2,0.1c0.6,0.3,1.3,0.5,2,0.7c0.4,0.1,0.8,0.1,1.3,0.1c-1,0.7-2.1,1-3.2,1l-0.4,0l0,0.4
			c0,8.3,2.2,24,4.5,32.1c6.4,22.7,24.8,40.2,41.2,40.2c1.1,0,2.2-0.1,3.2-0.2c6.9-1,12.6-5.2,16.6-12.1
			C83,460.8,82.9,440.8,75.2,421.6z M24.3,396.6c0.4-1.1,1.2-2,2.2-2.5c1-0.5,2.2-0.6,3.4-0.2c-0.4,1.1-1.2,2-2.3,2.5
			C26.6,396.9,25.4,396.9,24.3,396.6z M49.7,471.1C49.7,471.1,49.7,471.1,49.7,471.1c-11.6,0-23.6-12.1-28.6-28.7
			C16,425.3,20,408,30.4,402.3c2.4-1.3,5-2,7.7-2c2.2,0,4.4,0.4,6.6,1.2c8.6,3.2,16.3,12.1,20.7,23.7c4.8,12.8,4.8,26.5-0.2,35.6
			c-2.8,5.2-6.9,8.6-12,9.7C52.1,471,50.9,471.1,49.7,471.1z M49.5,395.5c-1.1-0.3-2.1-1-2.7-2c1-0.6,2.2-0.7,3.3-0.5
			c1.1,0.3,2.1,1,2.7,2C51.8,395.7,50.6,395.8,49.5,395.5z M35.7,392.7c0.9-0.8,1.9-1.3,3.1-1.3c1.2,0,2.3,0.4,3.1,1.2
			c-0.9,0.8-2,1.3-3.1,1.3C37.6,394,36.6,393.5,35.7,392.7z M20.9,401.4c0,1.2-0.4,2.3-1.2,3.2c-0.8,0.8-1.8,1.4-3,1.4
			c0-1.2,0.4-2.3,1.2-3.1C18.6,402,19.7,401.5,20.9,401.4z"/>
		<path class="st0" d="M360.4,475.6c-8-14-8-35.2,0.1-55.3c3.2-7.9,7.8-15,11-19.6l0.2-0.3l-0.2-0.2c-3.8-4.4-8.1-8.3-12.7-11.6
			c-4.5-3.4-9.4-6.3-14.1-9.1c-3.3-2-6.6-4-9.9-6.1c4.1,0.6,8.4,1.8,12.7,3.7l1.3,0.5l-0.8-1.2c-5.7-8.7-7.5-18.3-7.7-19.4l-0.4-2
			l2.1,0.1c2,0.1,4.2,0.9,6.5,2.4l0.8,0.5l-0.2-0.9c-3.1-19.2-11-32.1-15.4-38.1l-0.7-0.9l-0.1,1.1c-1.1,18.7-9.9,49.4-9.9,49.4
			c0.9,4.6,7.3,42.1-4.8,63.4L316,436l-1.9-8.3l-0.4,1.7c-1.5,6.2-4.4,14.8-10,20.6l-0.1,0.2l0,0.2c0.3,1.6,0.4,3.1,0.4,4.6
			c-0.1,4.7-1.6,9.5-4.3,13.9l-0.3,0.5l0.6,0.1c3.8,0.8,8.2,1.1,12.9,1l0.6,0l-0.2-0.6c-0.9-2.1-1.7-4.4-2.5-7l-0.6-2.2l2.3,0.1
			c1,0.1,10.3,0.8,17.9,10.3l0.5,0.6l0.3-0.7c0.9-2.4,1.5-4.7,1.7-6.7l0.4-4l2.5,3.1c0.1,0.1,10.8,12.8,25.8,15.2l1,0.2l-0.6-0.8
			C361.4,477.2,360.9,476.4,360.4,475.6z M354,470.9c-5.9-8.3-7.4-20.3-3.8-30.6l0,0c0.3-0.8,0.7-1.7,1.1-2.5c0,0.1,0,0.2,0,0.3
			C349.9,449,350.8,460,354,470.9z"/>
		<path class="st0" d="M134.8,455.1c0-1.3,0.1-2.7,0.3-4.1l0-0.2l-0.2-0.1c-5.8-5.8-8.9-14.6-10.4-21l-0.4-1.7l-1.9,8.2l-2.2-3.9
			c-12.1-21.3-5.6-58.8-4.8-63.4c0,0-8.8-29.8-10-47.4l-0.1-1.2l-0.7,1c-4.9,7.2-11.2,19.2-14,36l-0.2,0.9l0.8-0.5
			c2.3-1.5,4.5-2.3,6.5-2.4l2.1-0.1l-0.4,2c-0.1,0.4-1.8,10-7.4,18.9l-0.7,1.1l1.2-0.5c4-1.6,8-2.7,11.5-3.2
			c-3.3,2.2-6.6,4.2-9.9,6.1c-4.7,2.8-9.6,5.7-14.1,9.1c-4.6,3.3-8.9,7.2-12.7,11.6l-0.2,0.2l0.2,0.3c3.3,4.6,7.9,11.6,11,19.6
			c8.1,20.1,8.1,41.3,0.1,55.3c-0.5,0.8-1,1.6-1.5,2.4l-0.6,0.8l1-0.2c15.1-2.4,25.7-15.1,25.8-15.2l2.5-3.1l0.4,4
			c0.2,2,0.8,4.3,1.7,6.7l0.3,0.7l0.5-0.6c7.6-9.5,16.9-10.2,17.9-10.3l2.3-0.1L128,463c-0.8,2.7-1.6,5-2.5,7l-0.2,0.6l0.6,0
			c4.7,0.1,9.2-0.2,12.9-1l0.6-0.1l-0.3-0.5C136.3,464.6,134.8,459.8,134.8,455.1z M84.8,470.9c3.2-10.9,4.1-21.9,2.7-32.8
			c0-0.1,0-0.2,0-0.3c0.4,0.9,0.8,1.7,1.1,2.5C92.1,450.6,90.6,462.6,84.8,470.9z"/>
		<path class="st0" d="M298.9,446c-0.8-2.3-1.7-4.7-2.7-7.1l-0.3-0.9c2.8,1.5,5,4.1,6.4,7.6l0.3,0.7l0.4-0.6
			c7.8-10.1,9.1-27.4,9.1-27.6l0.8-12l4.5,19.8l0.5-1.3c6.5-17.5,3.7-42.3,2.2-52.2l-0.2-1.2l-0.6,1.1c-2.1,3.9-4.4,7.6-6.9,11
			c-2.5,3.3-5.5,6.5-9,9.7c3.6-5.5,6.7-10.4,9.4-15.7c17-32,20.1-72.5,9.6-123.8c-0.2-1.2-0.5-2.3-0.8-3.5l-0.6-2.7l-0.3,2.3
			c-1.4,10.7-5.6,25.5-17.2,35.4l-4.1,3.5l1.1-5.3c0,0,0.4-2,0.5-5.1l0.1-2.7l-0.9,2.5c-3,8.4-8.9,19.7-19.7,25.6l-3.9,2.2l1.3-4.4
			c0.3-1,0.9-3.6,1.2-6.7l0.2-2.4l-1,2.2c-4.1,8.8-11.9,21.2-25.9,29.8l-3.8,2.4l1.1-4.3c0,0,0.9-3.4,1.2-7.6l0.1-1.6l-0.9,1.4
			c-2.3,3.5-6.1,8.7-11.1,14.1l-0.1,0.1c-1.7,5.1-16.9,51-13.9,82l0.1,1.4l8.8-17.1l-1.8,11.5c0,0.2-3.1,20.9,3.8,32.7l0.2,0.4
			l0.4-0.3c1.4-1.1,2.9-2.1,4.5-2.7l0.6-0.2c0.1,0,0.3-0.1,0.4-0.1c-0.1,0.1-0.2,0.2-0.3,0.3c-0.9,1.1-1.8,2.2-2.5,3.3
			c-3.9,5.2-5.8,11.5-5.9,19.3l0,1.7l0.8-1.5c0.5-0.9,0.9-1.7,1.4-2.4c2.8-4,6.4-5.9,9.7-5.1c0.9,0.2,1.7,0.6,2.4,1.1l0.3,0.2
			l0.2-0.2c0.1-0.1,0.2-0.2,0.4-0.3c0.5-0.4,1-0.7,1.4-0.9c1.9-1.1,3.9-1.4,5.8-1c0.7,0.2,1.3,0.4,1.8,0.7l0.3,0.2l0.2-0.2
			c1.7-1.8,3.5-2.7,5.6-2.8c2.3-0.1,4.6,1.1,6.5,3.4l0.2,0.2l0.3-0.1c0.3-0.1,0.6-0.2,0.9-0.3c3.2-0.9,6.8,0.6,10,3.9l0.2,0.2
			l0.3-0.1c2.1-1.1,4.1-1.4,6-0.8c2.7,0.8,4.8,3.2,6.4,7.1c0.6,1.4,1,3,1.4,4.6l0.3,1.3l0.5-1.2C300.6,459.3,301.1,452.3,298.9,446z
			"/>
		<path class="st0" d="M196.6,436.5c0.5,0.2,1,0.3,1.5,0.6c1.5,0.7,3,1.6,4.3,2.7l0.4,0.3l0.3-0.4c7.1-11.8,4-32.8,4-33l-1.8-11.5
			l8.8,17.1l0.1-1.4c3-31.1-12.4-76.9-14.2-82l-0.1-0.1c-5-5.4-8.8-10.7-11.1-14.1l-0.9-1.4l0.1,1.6c0.4,4.2,1.2,7.6,1.2,7.6
			l1.1,4.4l-3.8-2.4c-14-8.6-21.8-21-25.9-29.8l-1-2.2l0.2,2.4c0.4,3.8,1.2,6.8,1.2,6.8l1.3,4.3l-3.9-2.2
			c-10.7-6-16.6-17.2-19.7-25.6l-0.9-2.5l0.1,2.7c0.1,2.9,0.5,4.8,0.5,5.1l1.1,5.3l-4.1-3.5c-12.2-10.5-16.2-26.3-17.4-37.6
			l-0.2-2.2l-0.6,2.1c-0.3,1.2-0.6,2.1-0.7,2.7c-0.1,0.3-0.1,0.5-0.1,0.5l-0.1,0.3c-5.1,22.6-7.3,44.7-6.5,65.7
			c0.8,22.4,6,42.8,15.4,60.7c2.9,5.6,6.2,10.8,9.5,15.7c-4.5-4-8.6-8.7-12.2-14.1c-1.3-2-2.5-4.1-3.6-6.2l-0.6-1.1l-0.2,1.3
			c-1.5,9.8-4.1,34.5,2.3,51.8l0.5,1.3l4.5-19.8l0.8,12c0,0.2,1.3,17.9,9.4,28l0.5,0.6l0.3-0.7c1.4-3.6,3.7-6.4,6.6-8l-0.3,0.7
			c-1,2.5-1.9,4.9-2.7,7.3c-2.3,6.3-1.7,13.3,1.8,20.9l0.5,1.2l0.2-1.3c0.3-1.6,0.8-3.1,1.4-4.6c1.6-3.9,3.7-6.3,6.4-7.1
			c1.9-0.5,3.9-0.3,6,0.8l0.3,0.1l0.2-0.2c3.1-3.4,6.7-4.8,10-3.9c0.3,0.1,0.6,0.2,1,0.3l0.3,0.1l0.2-0.2c1.9-2.3,4.2-3.4,6.5-3.4
			c2.1,0,3.9,1,5.6,2.8l0.2,0.2l0.3-0.2c0.6-0.3,1.2-0.6,1.8-0.7c1.9-0.4,3.9-0.1,5.9,1c0.4,0.2,0.8,0.5,1.3,0.9l0.7,0.5l0.3-0.2
			c0.7-0.5,1.6-0.9,2.4-1.1c3.3-0.8,6.9,1.2,9.7,5.1c0.5,0.8,1,1.6,1.5,2.5l0.8,1.5l0-1.7C205.1,450.6,202.4,443.2,196.6,436.5z
			 M135.8,438.4c-4.2-6.4-6.1-15-4.9-21.9C133,423.4,135,430.7,135.8,438.4z"/>
		<path class="st0" d="M114.1,243.1l0.4-1.5c0.9-3.2,2-6.4,3-9.4c0,0,0.1,0,0.1,0l0.4,0.1l4.3-10.7l-1,12.2c0,0.3-2.2,26.8,12.1,44
			l0.8,0.9l0-1.2c-0.1-4.2,0.4-8.1,1.5-11.6l2.3-7.5l1.2,7.7c0,0.2,3.5,20.5,16.4,31.2l0.8,0.7l-0.1-1.1c-0.5-3.5-0.8-8.6,0.7-13.1
			l1.9-6.2l1.6,6.3c0,0.2,5.2,20.5,23.4,34.2l0.8,0.6l-0.1-1c-0.4-3-0.8-7.4-0.2-11.1l0.9-5.3l2.6,4.7c0.1,0.2,12,21.9,31.4,34.3
			l0.2,0.1l0.2-0.1c19.1-12.1,31-33.4,31.5-34.3l2.6-4.7l0.9,5.3c0.6,3.8,0.2,8.1-0.2,11.1l-0.1,1l0.8-0.6
			c17.9-13.5,23.2-33.4,23.4-34.2l1.6-6.3l1.9,6.2c1.4,4.5,1.1,9.6,0.7,13.1l-0.1,1.1l0.8-0.7c13.1-10.8,16.4-31,16.4-31.2l1.2-7.7
			l2.3,7.5c1.1,3.5,1.6,7.4,1.5,11.6l0,1.2l0.8-0.9c12.8-15.4,12.4-38.6,12.2-43.1l0-0.1c-0.1-0.3-0.2-0.7-0.3-1l-0.1-0.3l0.3-0.1
			l-1-11.6l4.6,11.4c1,2.6,2.4,7.1,3.1,9.5l0.4,1.4l0.4-1.5c6.5-24.2-0.8-49.9-5.8-63.1l-0.7-1.8l-0.1,1.9
			c-0.9,11.7-4.7,33.9-20.6,50.5l-4.4,4.6l1.3-6.2c0,0,0.8-3.7,1-8.2l0.1-2.7l-0.9,2.6c-4.2,11.5-11.4,27.3-21.5,37l-4.4,4.2
			l1.3-5.9c0.6-2.8,1.5-7.9,1.7-12.8l0.2-2.8l-1,2.6c-4.7,12.9-13.3,29.9-27.2,37.8l-6,3.5l3.6-6c0.6-1.1,3.8-7.1,4.4-14.3l0.2-2
			l-0.9,1.8c-4.7,9-14.1,24.7-23.8,30.5l-1.8-3.2c12.7-7.6,25.7-35.8,25.8-36.1l2.1-4.7l1.3,5c1.7,6.5,0.4,13-0.9,17.2l-0.5,1.5
			l1.1-1c15.6-14.1,22.3-41.3,22.4-41.5l1.4-5.9l2.1,5.7c1.8,4.8,1.3,12.3,0.6,17.8l-0.2,1.5l0.9-1.2c12-15.7,18.7-39.5,18.7-39.7
			l1.6-5.8l1.9,5.7c1.3,4,1.3,9.1,1,12.7l-0.1,1.4l0.8-1.1c14.5-19.5,15.3-43,15-52.2l0-0.1c-0.2-5.7-1-11-2.2-15.5
			c-6.8-24-14.9-39.7-19.1-47l-0.4-0.7l-0.3,0.7c-0.7,1.4-1.3,2.7-2,3.9c-5.7,10.1-17.7,23.5-42.4,29.6l-0.1,0l-0.1,0.1
			c-6.4,8.9-17.6,14-29.3,13.3c-11.2,0.7-22.2-4.1-28.7-12.5l-0.1-0.1l-0.1,0c-24.9-6-36.8-19.6-42.4-29.9c-0.6-1-1.1-2.2-1.8-3.5
			l-0.3-0.7l-0.4,0.7c-4.2,7-12.3,22.3-19.1,46.2c-1.2,4.4-2,9.7-2.2,15.4l0,0.3l0.1,0c0,0,0,0.1,0,0.1l0,0.2
			c-0.3,9.1,0.6,32.5,15,51.8l0.8,1.1l-0.1-1.4c-0.3-3.6-0.3-8.7,1-12.7l1.9-5.7l1.6,5.8c0.1,0.2,6.8,24.1,18.7,39.7l0.9,1.2
			l-0.2-1.5c-0.7-5.4-1.1-12.9,0.6-17.8l2.1-5.7l1.4,5.9c0.3,1.1,7,27.5,22.4,41.5l1.1,1l-0.5-1.5c-1.3-4.3-2.6-10.7-0.9-17.2l1.3-5
			l2.1,4.7c0.1,0.3,13.2,28.5,25.8,36.1l-1.8,3.2c-9.7-5.8-19-21.5-23.8-30.5l-0.9-1.8l0.2,2c0.6,7.9,4.4,14.3,4.4,14.4l3.5,6
			l-6-3.4c-14.6-8.4-23.3-27.3-27.2-37.8l-1-2.6l0.2,2.8c0.3,4.9,1.1,10,1.7,12.8l1.3,5.9l-4.4-4.2c-10-9.7-17.2-25.5-21.5-37
			l-0.9-2.6l0.1,2.7c0.2,4.5,1,8.2,1,8.2l1.3,6.2l-4.4-4.6c-15.8-16.5-19.7-38.5-20.6-50.1l-0.1-1.9l-0.7,1.8
			c-4.8,12.9-11.9,38-5.9,61.8L114.1,243.1z"/>
		<path class="st0" d="M305.9,25.5c-0.9-1.1-2.1-1.7-3.5-2.1c-3-0.8-6.4-0.7-9.8-0.5c-7,0.4-13.9,1.4-20.9,1.9
			c2.6-1.4,5.6-2.8,8.9-3.9c-4.3-3.7-22-16.7-61.7-16.7c-44.9,0-59.5,12.3-63.1,16.2c3.9,1.2,7.6,2.8,10.6,4.4
			c-7.1-0.5-14-1.5-20.9-1.9c-3.4-0.2-6.8-0.3-9.8,0.5c-1.4,0.4-2.6,1-3.5,2.1c-3.2,3.6-4.1,8.5-3.2,13.1c2,10.1,9.5,17.4,16.4,24.9
			c-1.8-0.4-3.6-1.1-5.3-1.9c-1.6,5-4.8,17.6-0.8,30.1c0.5-1.1,1.1-2.2,1.8-3.4l3.9-6.5l0,7.5c0,0.1,0.1,9.8,6,20.5
			c7.1,12.9,20.7,21.9,37.4,26.7c-1.6-3.2-2.5-6.9-1.8-10.5c2.4,3.5,4.4,6.6,6.5,9.7c6.3,9.3,15.1,13.6,26,14.4
			c10.9-0.8,21.3-5.1,27.6-14.4c2.1-3.1,4-6.2,6.5-9.7c0.6,3.4-0.1,6.7-1.5,9.8c16.6-4.9,28.7-13.7,36-26.5c6-10.6,6.2-20,6.2-20.1
			l0.1-7.3l3.7,6.2c0.7,1.1,1.3,2.3,1.8,3.4c4-12.7,0.7-25.5-0.9-30.4c-1.8,1-3.8,1.7-5.8,2.2c6.9-7.4,14.4-14.7,16.4-24.9
			C310,33.9,309,29.1,305.9,25.5z M141.3,28.6c-1.7,0.1-3.3,0.6-4.3,1.6c-3.7,4.1-2.1,9.7,0.7,14.1c1.9,3.1,4.6,5.9,7,8.8
			c-6.2-1.1-10.9-6.6-12.7-12.5c-1.2-4.2-0.3-9.2,2.8-12.4c4.8-4.7,12.8-3.2,17.7,0.3C148.5,28.7,144.8,28.3,141.3,28.6z
			 M306.1,40.6c-1.7,5.9-6.4,11.4-12.7,12.5c2.3-2.9,5-5.7,7-8.8c2.7-4.3,4.3-10,0.7-14.1c-0.9-1-2.6-1.5-4.3-1.6
			c-3.5-0.3-7.2,0.1-11.2-0.1c5-3.5,13-5,17.7-0.3C306.4,31.4,307.4,36.4,306.1,40.6z"/>
		<path class="st0" d="M197.3,76.8l-1.5-3.6c-0.1-0.2-0.2-0.4-0.3-0.6c-0.8-1.4-2-2.3-3.5-2.8c-1.5-0.4-3.1-0.2-4.4,0.5
			c0.8,0.4,1.5,1,2,1.8c0.6,1,0.7,2.2,0.4,3.3c-0.3,1.1-1,2-2,2.6c-0.8,0.4-1.6,0.6-2.4,0.5c1.5,2.3,4.3,3.3,6.9,2.4l3.1-1.1
			l-2.8,1.9c-0.1,0.1-0.2,0.1-0.3,0.2c-1.3,0.8-2.8,1.1-4.2,1.1c-3,0-5.9-1.6-7.5-4.4c-1.1-2-1.4-4.3-0.8-6.6c0.6-2.2,2-4.1,4-5.2
			c2-1.1,4.4-1.4,6.6-0.8c2.2,0.6,4.1,2.1,5.2,4.1c0.5,0.8,0.8,1.8,1,2.7L197.3,76.8z"/>
		<path class="st0" d="M258.1,78.7c-1.1,2-3,3.4-5.2,4.1c-0.8,0.2-1.5,0.3-2.3,0.3c-1.5,0-2.9-0.4-4.2-1.1c-0.1,0-0.2-0.1-0.3-0.2
			l-2.8-1.9l3.1,1.1c2.6,0.9,5.4-0.1,6.9-2.4c-0.8,0.1-1.7-0.1-2.4-0.5c-1-0.6-1.7-1.5-2-2.6c-0.3-1.1-0.2-2.3,0.4-3.3
			c0.4-0.8,1.1-1.4,2-1.8c-1.4-0.8-2.9-0.9-4.4-0.5c-1.5,0.4-2.8,1.4-3.5,2.8c-0.1,0.2-0.2,0.4-0.3,0.6l-1.5,3.6l0.7-3.8
			c0.2-1,0.5-1.9,1-2.7c1.1-2,3-3.4,5.2-4.1c2.2-0.6,4.6-0.3,6.5,0.8c2,1.1,3.4,3,4.1,5.2C259.5,74.4,259.2,76.7,258.1,78.7z"/>
	</g>
	<g>
		<path class="st1" d="M233.8,442.6l-0.2-0.2c-4.8-7.2-5.7-17.6-5.7-25l0-1.7l-4.2,8.1l-1.1-5.2c-5.6-25.9,5.3-66.4,10.2-82.6
			l0.4-1.4l-1.1,1c-3.9,3.4-7.8,6.4-11.7,8.8l-1-1.6l-0.9,1.6c-3.9-2.4-7.8-5.3-11.6-8.7l-1.1-1l0.4,1.4c5,16.2,16,56.7,10.5,82.5
			l-1.1,5.2l-4.2-8.1l0,1.7c0,7.6-1,18.1-6,25.4l-0.2,0.2l0.2,0.2c3.6,5.2,5.1,12.8,4.3,21l0,0.5h19.4l0-0.5
			c-0.9-8.6,0.7-16.2,4.6-21.4L233.8,442.6z"/>
		<path class="st1" d="M191.1,61.4c-9.5-2.7-21,8.2-21,8.2s3.9,15.3,13.5,18c9.5,2.7,21-8.2,21-8.2S200.6,64.1,191.1,61.4z
			 M195.5,72.6c-0.8-1.4-2-2.3-3.5-2.8c-1.5-0.4-3.1-0.2-4.4,0.5c0.8,0.4,1.5,1,2,1.8c0.6,1,0.7,2.2,0.4,3.3c-0.3,1.1-1,2-2,2.6
			c-0.8,0.4-1.6,0.6-2.4,0.5c1.5,2.3,4.3,3.3,6.9,2.4l3.1-1.1l-2.8,1.9c-0.1,0.1-0.2,0.1-0.3,0.2c-1.3,0.8-2.8,1.1-4.2,1.1
			c-3,0-5.9-1.6-7.5-4.4c-1.1-2-1.4-4.3-0.8-6.6c0.6-2.2,2-4.1,4-5.2c2-1.1,4.4-1.4,6.6-0.8c2.2,0.6,4.1,2.1,5.2,4.1
			c0.5,0.8,0.8,1.8,1,2.7l0.7,3.8l-1.5-3.6C195.7,73,195.6,72.8,195.5,72.6z"/>
		<path class="st1" d="M253.1,126.1c0,0-10.6,26.7-33.4,26.7c-24.9,0-33.1-26.7-33.1-26.7c22.1,5.1,7.9-29.4,33.1-29.4
			C245.1,96.7,229.7,132.5,253.1,126.1z"/>
		<path class="st1" d="M295.4,110.2c-0.6,1.4-1.3,2.6-1.9,3.8c-5.9,10.5-18.3,24.3-43.9,30.6l-0.1,0l-0.1,0.1
			c-6.6,9.2-18.2,14.5-30.3,13.7c-11.6,0.7-23-4.2-29.7-13l-0.1-0.1l-0.1,0c-25.8-6.2-38.1-20.3-43.9-30.9c-0.6-1-1.1-2.1-1.7-3.5
			c0.6-1.1,1.2-2.2,1.8-3l0.4-0.7l0.3,0.7c0.6,1.4,1.2,2.5,1.7,3.5c5.6,10.3,17.5,23.9,42.4,29.9l0.1,0l0.1,0.1
			c6.5,8.4,17.4,13.2,28.7,12.5c11.7,0.7,22.9-4.4,29.3-13.3l0.1-0.1l0.1,0c24.8-6,36.7-19.4,42.4-29.6c0.7-1.2,1.3-2.4,2-3.9
			l0.3-0.7l0.4,0.7C294.2,108,294.7,109,295.4,110.2z"/>
		<path class="st1" d="M202,167.5c11.6,10.7,24,16.8,34.6,8.3c5.3-4.2,9.6-12.8,14.7-17.3c7.3-6.5,21-11.4,30-5.6
			c-6-1.6-13.7,4-17.7,8.8c-2.9,3.5-3.7,7.6-2.1,11.9c0.6,1.5,1.8,2.8,2.3,4.4c1.6,4.3-2,8.8-6.2,10.7c-4.1,1.8-8.9,1.9-13.2,3.3
			s-8.6,4.9-8.4,9.4c0.3,6.7,9.6,9.7,11.3,16.2c1.2,4.5-1.8,9.1-5.5,12.1c-3.6,2.9-8,4.9-11.4,8.2c4.6-3.8,5.4-11.4,1.9-16.1
			c-3.6-4.8-11-6.1-16-2.7c-5,3.3-6.6,10.7-3.6,15.8c2.6,4.4,8,7.1,9.3,12c1.1,4.3-1.4,8.7-3.7,12.5c1.3-3.8-1.6-7.8-5-10
			s-7.4-3.3-10.5-5.9c-4.8-4.1-6-11.2-5.1-17.4c0.7-4.8,6-13,4.3-17.5c-2.1-5.4-8.9-8.8-14.7-9.8s-8.9-1.7-12.8-6.1
			c-6.3-7.2-1.9-14.6-1.9-14.6c0,6.6,14.3,10.3,12.4-2.2c-1.2-8-8.9-13.9-18.2-12.9c-8.4,0.9-10.6,5.3-10.6,5.3
			C164.2,147.2,188.6,155.1,202,167.5z"/>
		<path class="st1" d="M247.6,61.4c-9.5,2.7-13.5,18-13.5,18s11.5,10.9,21,8.2c9.5-2.7,13.5-18,13.5-18S257.1,58.7,247.6,61.4z
			 M258.1,78.7c-1.1,2-3,3.4-5.2,4.1c-0.8,0.2-1.5,0.3-2.3,0.3c-1.5,0-2.9-0.4-4.2-1.1c-0.1,0-0.2-0.1-0.3-0.2l-2.8-1.9l3.1,1.1
			c2.6,0.9,5.4-0.1,6.9-2.4c-0.8,0.1-1.7-0.1-2.4-0.5c-1-0.6-1.7-1.5-2-2.6c-0.3-1.1-0.2-2.3,0.4-3.3c0.4-0.8,1.1-1.4,2-1.8
			c-1.4-0.8-2.9-0.9-4.4-0.5c-1.5,0.4-2.8,1.4-3.5,2.8c-0.1,0.2-0.2,0.4-0.3,0.6l-1.5,3.6l0.7-3.8c0.2-1,0.5-1.9,1-2.7
			c1.1-2,3-3.4,5.2-4.1c2.2-0.6,4.6-0.3,6.5,0.8c2,1.1,3.4,3,4.1,5.2C259.5,74.4,259.2,76.7,258.1,78.7z"/>
	</g>
	<g>
		<path class="st2" d="M285.6,28.5c0,0,21.5,3.3,7.9,24.5c0,0,16.8-12.6,10.2-22.7C298.4,22.3,285.6,28.5,285.6,28.5z"/>
		<path class="st2" d="M152.6,28.5c0,0-21.5,3.3-7.9,24.5c0,0-16.8-12.6-10.2-22.7C139.7,22.3,152.6,28.5,152.6,28.5z"/>
		<path class="st2" d="M202.7,337.5c-1.5-5-2.6-8.1-2.8-8.7l-0.1-0.1c-5-5.4-8.8-10.7-11.1-14.1l-0.9-1.4l0.1,1.6
			c0.4,4.2,1.2,7.6,1.2,7.6l1.1,4.4l-3.8-2.4c-14-8.6-21.8-21-25.9-29.8l-1-2.2l0.2,2.4c0.4,3.8,1.2,6.8,1.2,6.8l1.3,4.3l-3.9-2.2
			c-10.7-6-16.6-17.2-19.7-25.6l-0.9-2.5l0.1,2.7c0.1,2.9,0.5,4.8,0.5,5.1l1.1,5.3l-4.1-3.5c-12.2-10.5-16.2-26.3-17.4-37.6
			l-0.2-2.2l-0.6,2.1c-0.3,1.2-0.6,2.1-0.7,2.7c-0.1,0.3-0.1,0.5-0.1,0.5l-0.3,1.4c-0.3,1.2-0.3,1.5-0.7,3.3l0,0.1l0,0.1
			c3.7,20.1,13.8,34.8,28.5,41.6l0.7,0.3l-0.6-2.9c2.4,3.9,8.3,11.5,22.1,20l0.6,0.4v-4.5c2.8,3.8,13.5,17.1,28.1,23.2l0.7,0.3
			l-0.8-5l8.7,10.7L202.7,337.5z"/>
		<path class="st2" d="M264.3,265.8c-0.2,1.8-0.8,3.5-0.8,3.6l-0.4,1l1-0.5c13.6-7.3,23.5-25.1,26.1-30.2l0.2,2.8l0.6-0.4
			c17.9-11.4,28.1-30.2,30.4-55.7l0.1-0.7l0-0.1c-0.8-2.4-1.3-3.8-2-5.7l-0.7-1.8l-0.1,1.9c-0.9,11.6-4.8,33.6-20.6,50.1l-4.4,4.6
			l1.3-6.2c0,0,0.8-3.7,1-8.2l0.1-2.7l-0.9,2.6c-4.2,11.5-11.4,27.3-21.5,37l-4.4,4.2l1.3-5.9c0.6-2.8,1.5-7.9,1.7-12.8l0.2-2.8
			l-1,2.6c-3.9,10.5-12.5,29.4-27.2,37.8l-6,3.4l3.5-6c0-0.1,3.8-6.5,4.4-14.4l0.2-2l-0.9,1.8c-4.8,9.1-14.3,25.1-24.1,30.7
			l-1.9,0.9l-1.9-0.9c-9.8-5.6-19.3-21.6-24.1-30.7l-0.9-1.8l0.2,2c0.6,7.9,4.4,14.3,4.4,14.4l3.5,6l-6-3.4
			c-14.6-8.4-23.3-27.3-27.2-37.8l-1-2.6l0.2,2.8c0.3,4.9,1.1,10,1.7,12.8l1.3,5.9l-4.4-4.2c-10-9.7-17.2-25.5-21.5-37l-0.9-2.6
			l0.1,2.7c0.2,4.5,1,8.2,1,8.2l1.3,6.2l-4.4-4.6c-15.8-16.5-19.7-38.5-20.6-50.1l-0.1-1.9l-0.7,1.8c-0.7,1.9-1.2,3.3-2,5.7l0,0.1
			l0.1,0.7c2.3,25.5,12.5,44.2,30.4,55.7l0.6,0.4l0.2-2.8c2.6,5.1,12.4,23,26.1,30.2l1,0.5l-0.4-1c0,0-0.6-1.8-0.8-3.6
			c2.3,4.5,10.2,16.9,30.7,25.4l0.8,0.3l-0.2-0.8c-0.1-0.4-0.3-1.1-0.4-1.9c1.5,2.3,5.2,6.6,13.6,11.1l0,0v0.3l0.3-0.2l0.3,0.2v-0.3
			l0,0c8.4-4.5,12.1-8.8,13.6-11.1c-0.1,0.7-0.3,1.5-0.4,1.9l-0.2,0.8l0.8-0.3C254.1,282.7,262,270.3,264.3,265.8z"/>
		<path class="st2" d="M323.7,255.4c-0.4-1.8-0.4-2.1-0.7-3.3l-0.3-1.4c0,0-0.1-0.3-0.2-0.6c-0.2-0.6-0.4-1.5-0.7-2.7l-0.6-2.1
			l-0.2,2.2c-1.2,11.4-5.3,27.2-17.4,37.6l-4.1,3.5l1.1-5.3c0-0.2,0.4-2.2,0.5-5.1l0.1-2.7l-0.9,2.5c-3.1,8.4-9,19.7-19.7,25.6
			l-3.9,2.2l1.3-4.3c0,0,0.9-3,1.3-6.8l0.2-2.4l-1,2.2c-4.1,8.8-11.9,21.2-25.9,29.8l-3.8,2.4l1.1-4.3c0,0,0.9-3.5,1.2-7.6l0.1-1.6
			l-0.9,1.4c-2.3,3.4-6.1,8.7-11.1,14.1l-0.1,0.1c-0.2,0.6-1.3,3.7-2.8,8.7l-0.6,2l8.7-10.7l-0.8,5l0.7-0.3
			c14.6-6.2,25.2-19.4,28.1-23.2v4.5l0.6-0.4c13.7-8.5,19.7-16.1,22.1-20l-0.6,2.9l0.7-0.3c14.6-6.7,24.7-21.5,28.5-41.6
			L323.7,255.4L323.7,255.4z"/>
		<path class="st2" d="M293.4,471.3c0,3-0.7,5.7-2.2,7.4c-0.9,1.1-2.1,1.7-3.4,1.9l-0.3,0l-3.6-6.2l-0.5,7.6l-0.1,0.1
			c-0.6,0.8-1.4,1.3-2.2,1.5c-2.4,0.7-5.4-1.1-7.9-4.6l-0.4-0.6l-1.6-4.5l-0.8,5.5c-1.4,3.2-3.4,5.1-5.4,5.2c-2.3,0-4.4-2.1-6-5.8
			l-0.2-0.5l-1.2-4.3l-1.5,4.5c-2.3,3.4-5.2,5.1-7.5,4.6c-1.4-0.3-2.6-1.5-3.5-3.3l0-0.1l-0.4-4.8l-2.2,4.3l-0.1,0.1
			c-1.2,0.8-2.3,1.1-3.3,0.8c-1.2-0.3-2.2-1.3-2.9-2.9l-0.2-0.4l0.1-0.1c-0.4-1.6-0.7-3.1-1-4.6l0.4-0.1l-0.4,0c0,0,0-0.1,0-0.1
			c0-1,0-2.1,0.2-3.2c0.2,1.3,0.5,2.5,0.8,3.8l-0.1,0.1l0.2,0.4c0.7,1.6,1.7,2.6,2.9,2.9c1,0.2,2.1-0.1,3.3-0.8l0.1-0.1l2.2-4.3
			l0.4,4.8l0,0.1c0.9,1.8,2.1,3,3.5,3.3c2.3,0.5,5.2-1.2,7.5-4.6l1.5-4.5l1.2,4.3l0.2,0.5c1.6,3.7,3.8,5.8,6,5.8
			c2-0.1,4-1.9,5.4-5.2l0.8-5.5l1.6,4.5l0.4,0.6c2.5,3.5,5.5,5.2,7.9,4.6c0.8-0.2,1.6-0.7,2.2-1.5l0.1-0.1l0.5-7.6l3.6,6.2l0.3,0
			c1.4-0.1,2.5-0.8,3.4-1.9c1.1-1.3,1.8-3.2,2.1-5.4C293.3,469.9,293.4,470.6,293.4,471.3z"/>
		<path class="st2" d="M202.8,476.6l0.1,0.1l-0.2,0.4c-0.7,1.6-1.7,2.6-2.9,2.9c-1.3,0.3-2.5-0.3-3.3-0.8l-0.1-0.1l-2.2-4.3
			l-0.4,4.9c-0.9,1.8-2.1,3-3.5,3.3c-2.3,0.5-5.2-1.2-7.5-4.5l-0.1-0.2l-1.4-4.4l-1.1,4.3l-0.2,0.6c-1.6,3.6-3.8,5.8-6,5.8
			c-2.1-0.1-4-1.9-5.5-5.1l-0.1-0.2l-0.7-5.3l-1.7,4.6l-0.4,0.5c-2.5,3.5-5.5,5.2-7.9,4.6c-0.8-0.2-1.6-0.7-2.2-1.5l-0.1-0.1
			l-0.5-7.6l-3.6,6.2l-0.3,0c-1.4-0.1-2.5-0.8-3.4-1.9c-1.8-2.1-2.5-5.7-2.1-9.6c0.3,2.2,1,4.1,2.1,5.4c0.9,1.1,2.1,1.7,3.4,1.9
			l0.3,0l3.6-6.2l0.5,7.6l0.1,0.1c0.6,0.8,1.4,1.3,2.2,1.5c2.4,0.7,5.4-1.1,7.9-4.6l0.4-0.5l1.7-4.6l0.7,5.3l0.1,0.2
			c1.4,3.2,3.4,5.1,5.5,5.1c2.2,0,4.4-2.2,6-5.8l0.2-0.6l1.1-4.3l1.4,4.4l0.1,0.2c2.3,3.3,5.2,5.1,7.5,4.5c1.4-0.3,2.6-1.5,3.5-3.3
			l0.4-4.9l2.2,4.3l0.1,0.1c0.8,0.5,2,1.1,3.3,0.8c1.2-0.3,2.2-1.3,2.9-2.9l0.2-0.4l-0.1-0.1c0.3-1.4,0.6-2.6,0.8-3.9
			c0.1,1.1,0.2,2.2,0.2,3.2C203.6,473.3,203.2,474.8,202.8,476.6z"/>
		<path class="st2" d="M300,466.4l9,1.4l-2.3-10c0,0,14.5-0.8,22.9,7.9l1.9-10.7c0,0,15.9,18.8,28.9,20.7l3.7,4.2h-7.6l-16.2-8.9
			l-5.9-6.2l-3.2,10.3l-8.1-7.6l-8.1-4.1l-1.9,2l2.4,7.7l-17.8-1.9L300,466.4z"/>
		<path class="st2" d="M138.5,466.4l-9,1.4l2.3-10c0,0-14.5-0.8-22.9,7.9l-1.9-10.7c0,0-15.9,18.8-28.9,20.7l-3.7,4.2H82l16.2-8.9
			l5.9-6.2l3.2,10.3l8.1-7.6l8.1-4.1l1.9,2L123,473l17.8-1.9L138.5,466.4z"/>
		<path class="st2" d="M113.4,359.4c0,0-4.3-29.9-7.2-39.3c-0.8-2.7-1.3,0.6-1.4,1.2c-3.2,20.5,7.6,44.1,7.5,44.9
			c-2.3,16.7-6.3,59.5,11.1,75.7l0.9-3.5c0,0,2.6,8.9,8.1,14.1l-0.7,5.2l-4,10.8h7.3l4.5-1.2l-2.4-18.2l-8.3-10l-5.9-12.4l-2.6,1.6
			l-4.4-11.8l-1.3-26.4l3.3-21.4L113.4,359.4z"/>
		<path class="st2" d="M325.4,359.4c0,0,4.3-29.9,7.2-39.3c0.8-2.7,1.3,0.6,1.4,1.2c3.2,20.5-7.6,44.1-7.5,44.9
			c2.3,16.7,6.3,59.5-11.1,75.7l-0.9-3.5c0,0-2.6,8.9-8.1,14.1l0.7,5.2l4,10.8h-7.3l-4.5-1.2l2.4-18.2l8.3-10l5.9-12.4l2.6,1.6
			l4.4-11.8l1.3-26.4l-3.3-21.4L325.4,359.4z"/>
		<path class="st2" d="M12.5,437.6c0.6,3.2,1.2,6.2,1.9,8.5c6.4,22.5,24.5,40.2,41.2,40.2c1.1,0,2.2-0.1,3.2-0.2
			c6.9-1,12.6-5.2,16.6-12.1c5.9-10.3,7.1-24.8,3.7-39.8c2.3,13.5,0.8,25.5-4.5,34.8c-4,6.9-9.7,11.1-16.6,12.1
			c-1.1,0.1-2.2,0.2-3.2,0.2c-16.7,0-34.8-16.8-41.2-39.3C13.2,440.6,12.9,439.2,12.5,437.6z"/>
		<path class="st2" d="M426.2,437.6c-0.6,3.2-1.2,6.2-1.9,8.5c-6.4,22.5-24.5,40.2-41.2,40.2c-1.1,0-2.2-0.1-3.2-0.2
			c-6.9-1-12.6-5.2-16.6-12.1c-5.9-10.3-7.1-24.8-3.7-39.8c-2.3,13.5-0.8,25.5,4.5,34.8c4,6.9,9.7,11.1,16.6,12.1
			c1.1,0.1,2.2,0.2,3.2,0.2c16.7,0,34.8-16.8,41.2-39.3C425.5,440.6,425.9,439.2,426.2,437.6z"/>
	</g>
	<g>
		<path class="st3" d="M42.5,392.7c-2-2.2-5.4-2.2-7.4,0C37.1,394.9,40.5,394.9,42.5,392.7z"/>
		<path class="st3" d="M152.6,28.5c-5-3.5-12.9-5-17.7-0.3c-3.1,3.2-4,8.2-2.8,12.4c1.7,5.9,6.4,11.4,12.7,12.5
			c-2.3-2.9-5-5.7-7-8.8c-2.7-4.3-4.3-10-0.7-14.1c0.9-1,2.6-1.5,4.3-1.6C144.8,28.3,148.5,28.7,152.6,28.5z"/>
		<path class="st3" d="M177.5,75.3c0.1,1.5,0.6,3,1.3,4.4c1.4,2.5,3.7,4.3,6.5,5c0.9,0.3,1.9,0.4,2.9,0.4c1.8,0,3.6-0.5,5.3-1.4
			c1.8-1,3.2-2.5,4.1-4.2c1-0.7,2.5-1.4,4.5-1.2c0,0-2.1-0.9-3.2-3.5c0.1-1.9-0.4-3.9-1.4-5.6c-1.4-2.5-3.7-4.3-6.5-5
			c-2.8-0.8-5.6-0.4-8.1,1c-1.5,0.8-2.7,2-3.7,3.4c-1.4,1.1-3.8,2.4-6.5,2.2C172.7,70.8,175.9,72.1,177.5,75.3z M180.2,72.3
			c0.6-2.1,2-3.9,3.9-4.9c1.3-0.7,2.6-1.1,4-1.1c0.7,0,1.5,0.1,2.2,0.3c2.1,0.6,3.9,2,4.9,3.9c0.5,0.8,0.8,1.7,0.9,2.6
			c-0.1-0.2-0.2-0.4-0.3-0.7c-1.7-3-5.5-4.1-8.6-2.4c-0.2,0.1-0.5,0.3-0.7,0.5c1,0.2,2,0.9,2.5,1.9c1.1,1.9,0.4,4.3-1.5,5.3
			c-0.9,0.5-2,0.6-3,0.3c0.1,0.2,0.2,0.4,0.3,0.5c1.5,2.7,4.7,3.8,7.5,2.8c-0.1,0.1-0.2,0.1-0.3,0.2c-3.9,2.2-9,0.8-11.2-3.1
			C179.9,76.6,179.7,74.4,180.2,72.3z"/>
		<path class="st3" d="M296.8,28.6c1.7,0.1,3.3,0.6,4.3,1.6c3.7,4.1,2.1,9.7-0.7,14.1c-1.9,3.1-4.6,5.9-7,8.8
			c6.2-1.1,10.9-6.6,12.7-12.5c1.2-4.2,0.3-9.2-2.8-12.4c-4.8-4.7-12.8-3.2-17.7,0.3C289.6,28.7,293.4,28.3,296.8,28.6z"/>
		<path class="st3" d="M241.1,79.6c0.9,1.8,2.4,3.2,4.1,4.2c1.6,0.9,3.4,1.4,5.3,1.4c1,0,1.9-0.1,2.9-0.4c2.8-0.8,5.1-2.6,6.5-5
			c0.8-1.4,1.2-2.9,1.3-4.4c1.6-3.2,4.8-4.6,4.8-4.6c-2.7,0.2-5.1-1.1-6.5-2.2c-0.9-1.4-2.1-2.6-3.6-3.4c-2.5-1.4-5.4-1.8-8.1-1
			c-2.8,0.8-5,2.6-6.5,5c-1,1.7-1.4,3.7-1.4,5.6c-1,2.6-3.2,3.5-3.2,3.5C238.7,78.1,240.2,78.9,241.1,79.6z M243.4,70.4
			c1.1-1.9,2.8-3.3,4.9-3.9c0.7-0.2,1.5-0.3,2.2-0.3c1.4,0,2.8,0.4,4,1.1c1.9,1.1,3.3,2.8,3.9,4.9c0.6,2.1,0.3,4.3-0.8,6.2
			c-1.1,1.9-2.8,3.3-5,3.9c-2.1,0.6-4.3,0.3-6.2-0.8c-0.1-0.1-0.2-0.1-0.3-0.2c2.8,1,6-0.1,7.5-2.8c0.1-0.2,0.2-0.3,0.3-0.5
			c-1,0.3-2.1,0.2-3-0.3c-1.9-1.1-2.5-3.5-1.5-5.3c0.6-1,1.5-1.6,2.5-1.9c-0.2-0.2-0.4-0.3-0.7-0.5c-3-1.7-6.9-0.6-8.6,2.4
			c-0.1,0.2-0.2,0.4-0.3,0.7C242.7,72.1,243,71.3,243.4,70.4z"/>
		<path class="st3" d="M211.1,135.5c-4.8,1.1-9.1,0.2-13.1-3.4c1.1,7.6,10.7,10.4,17,7.5c2.2-1.2,3.6-3.2,4.4-5.5
			c0.9,2.6,2.5,4.9,5.2,5.9c4.8,1.6,10.9,0.8,14.2-3.3c1.1-1.3,1.8-2.9,2-4.5c-3.6,3.1-7,4.2-11.2,3.7c-2.2-0.3-4-0.6-4.9-3.1
			c-0.9-2.5-1.2-5.2-1.4-8c3.9-2,8.8-6.4,7.2-13.2c-1.9-8.2-8.8-4.2-11.2-2.5c-2.4-1.6-9.3-5.6-11.2,2.5c-1.6,6.9,3.4,11.2,7.3,13.2
			C215.3,129.3,214.6,135,211.1,135.5z"/>
		<path class="st3" d="M53.4,395.2c-1.4-2.7-4.7-3.5-7.2-1.8C47.6,396.1,50.9,396.9,53.4,395.2z"/>
		<path class="st3" d="M30.4,393.6c-2.8-1.1-5.8,0.3-6.7,3.2C26.5,398,29.5,396.5,30.4,393.6z"/>
		<path class="st3" d="M408.6,402c-4.4-2.4-9.5-2.7-14.7-0.8c-8.7,3.2-16.5,12.2-21,24c-4.9,12.9-4.8,26.7,0.2,36
			c2.9,5.3,7.1,8.7,12.2,9.9c1.2,0.3,2.4,0.4,3.7,0.4c11.7,0,23.9-11.9,29-29C423.2,425.2,419.1,407.8,408.6,402z"/>
		<path class="st3" d="M403.7,392.7c-2-2.2-5.3-2.3-7.4,0C398.3,394.9,401.6,394.9,403.7,392.7z"/>
		<path class="st3" d="M392.5,393.4c-2.5-1.7-5.7-0.8-7.2,1.8C387.9,396.9,391.1,396.1,392.5,393.4z"/>
		<path class="st3" d="M426.5,385.5c-2.2-3.6-6.1-6.8-10.3-5.9c-2.6-4.9-7.7-6.5-12.3-3.3c-2.8-2.4-6.7-2.3-10.1-0.6
			c-1.1-1.2-2.5-2.1-4.1-2.3c-7.8-0.9-14.2,8.1-15.9,14.8c-0.6,2.5-0.2,5.1,1.1,7.4c-0.3,0.4-0.7,0.8-1.1,1.4
			c-2.1-3.1-4.6-5.8-7.3-8.3c-2-1.7-4.2-3.3-6.4-4.9l0,0c-9.5-6-13.8-18.1-15.4-23.9c2.3,1.1,4.4,3,5.2,4l4.3,4.7l-0.7-6.4
			c-3.4-31.2-19-48.1-19.7-48.8l-0.3,0.2c0.6-21.2-2.3-42.9-7.2-62.3l0-0.1c14-35.8-4.2-75.9-7.5-82.6c-0.3-5.9-1.1-11.2-2.3-15.5
			c-8.5-29.7-18.7-46.8-21.3-50.9c0.7-2.1,1.2-4,1.6-5.6c0.3,0.8,0.5,1.4,0.5,1.4l1.6,5l2.3-4.7c8-16.5,2.6-34.3,0.8-39.2
			c6.2-4.7,10.6-12.1,11.7-19.6c1-6.8-1.4-14.8-7.4-18.7c-6.3-3.3-14.8-2.8-22.6-0.7l0.9-0.8C284.1,18.4,267.1,0,218.9,0
			c-53.1,0-65.9,16.8-67.5,19.2c-7-1.5-14.2-1.5-19.8,1.4c-6,3.9-8.4,12-7.4,18.7c1.2,7.7,5.8,15.3,12.2,19.9
			c-1.9,5.4-6.8,22.7,1,38.8l2.3,4.7l1.6-5c0,0,0.1-0.5,0.4-1.2c0.4,1.8,0.9,3.9,1.7,6.2c-2.6,4-12.9,20.5-21.3,50.1
			c-1.3,4.4-2.1,9.9-2.3,15.9c-3.7,7.6-20.6,46-7.9,80.8c-2,7.9-3.6,15.9-4.9,24c-2,13.3-3,27.2-2.6,41.1c-4,4.8-15.6,21-18.4,47.3
			l-0.7,6.4l4.3-4.7c0.8-0.9,2.9-2.9,5.2-4c-1.4,4.9-4.7,14.4-11.5,20.9c-7.6,4.4-14.4,10.2-18.5,16.3c-0.4-0.5-0.8-1-1.1-1.4
			c1.2-2.2,1.7-4.8,1.1-7.4c-1.7-6.7-8.1-15.7-15.9-14.8c-1.5,0.2-3,1.1-4.1,2.3c-3.3-1.7-7.3-1.8-10.1,0.6
			c-4.6-3.2-9.7-1.6-12.3,3.3c-4.2-0.9-8.2,2.3-10.3,5.9C1,381.7-2,397.5,1.2,406c0.8,2.6,2.7,5.2,4.9,6.6c-0.2,8.9,2.3,26,4.7,34.5
			c7,24.6,26.5,42.9,44.8,42.9c1.3,0,2.6-0.1,3.8-0.3c5.3-0.8,10-3.1,13.9-7c13.9-0.4,24.7-9.1,29.6-13.9c1.1,4,2.7,7,2.8,7.2
			l1.7,3.1l1.9-3c4.6-7.2,10.4-10,13.9-11c-1.4,4-2.5,5.7-2.5,5.7l-2.1,3l3.6,0.2c9.2,0.6,15.5-0.5,18.9-1.3
			c0.1,0.1,0.2,0.2,0.3,0.3c0.3,3.1,1.3,5.9,3,7.9c2,2.3,4.7,3.5,7.8,3.2c1.1,1.5,2.6,2.4,4.2,2.9c3.2,0.9,6.8-0.4,9.9-3.6
			c2,2.9,4.5,4.5,7.2,4.6h0.1c3,0,5.7-1.8,7.9-5.1c2.9,2.9,6.2,4.2,9.3,3.5c1.9-0.5,3.7-1.7,5-3.5c1.5,0.6,3.1,0.8,4.6,0.5
			c2.4-0.5,4.4-2.4,5.6-5.2c0,0,0-0.1,0-0.1c0,0,0.1,0,0.1,0c1.5-3.2,2.4-6.5,3.1-9.9h19.8c0.7,3.6,1.8,7,3.1,9.9c0,0,0,0,0.1,0
			c0,0,0,0.1,0,0.1c1.2,2.8,3.2,4.6,5.6,5.2c1.5,0.3,3,0.2,4.6-0.5c1.3,1.8,3,3.1,5,3.5c3.1,0.7,6.4-0.6,9.3-3.5
			c2.1,3.3,4.9,5.1,7.9,5.1h0.1c2.7-0.1,5.3-1.7,7.2-4.6c3.1,3.1,6.7,4.5,9.9,3.6c1.6-0.4,3.1-1.4,4.2-2.9c3.1,0.3,5.8-0.8,7.8-3.2
			c1.7-2,2.7-4.8,3-7.9c0.1-0.1,0.2-0.2,0.3-0.3c3.4,0.9,9.7,1.9,18.9,1.3l3.6-0.2l-2-3c0,0-1.1-1.7-2.5-5.7c3.5,1,9.4,3.8,13.9,11
			l1.9,3l1.7-3.1c0.1-0.2,1.7-3.2,2.8-7.2c4.9,4.8,15.8,13.5,29.6,13.9c3.9,3.8,8.6,6.2,14,7c1.3,0.2,2.5,0.3,3.8,0.3
			c18.3,0,37.8-18.3,44.8-42.9c2.4-8.5,4.9-25.5,4.6-34.4c2.3-1.5,4.1-4,4.9-6.7C440.8,397.5,437.8,381.7,426.5,385.5z M141.1,88.3
			c-0.7,1.1-1.3,2.3-1.8,3.4c-3.9-12.4-0.8-25,0.8-30.1c1.7,0.8,3.5,1.5,5.3,1.9c-6.9-7.4-14.4-14.7-16.4-24.9
			c-0.9-4.7,0-9.5,3.2-13.1c0.9-1.1,2.1-1.7,3.5-2.1c3-0.8,6.4-0.7,9.8-0.5c7,0.4,13.9,1.4,20.9,1.9c-3-1.7-6.7-3.2-10.6-4.4
			c3.5-3.9,18.2-16.2,63.1-16.2c39.7,0,57.4,13,61.7,16.7c-3.3,1.1-6.3,2.5-8.9,3.9c7.1-0.5,14-1.5,20.9-1.9
			c3.4-0.2,6.8-0.3,9.8,0.5c1.4,0.4,2.6,1,3.5,2.1c3.2,3.6,4.1,8.5,3.2,13.1c-2,10.1-9.5,17.4-16.4,24.9c2-0.5,4-1.2,5.8-2.2
			c1.6,4.8,4.9,17.7,0.9,30.4c-0.5-1.1-1.1-2.2-1.8-3.4l-3.7-6.2l-0.1,7.3c0,0.1-0.2,9.5-6.2,20.1c-7.2,12.7-19.3,21.6-36,26.5
			c1.4-3,2.1-6.4,1.5-9.8c-2.4,3.5-4.4,6.6-6.5,9.7c-6.3,9.3-16.7,13.6-27.6,14.4c-10.9-0.8-19.7-5.1-26-14.4
			c-2.1-3.1-4-6.2-6.5-9.7c-0.6,3.6,0.2,7.2,1.8,10.5c-16.6-4.9-30.3-13.8-37.4-26.7c-5.9-10.8-6-20.4-6-20.5l0-7.5L141.1,88.3z
			 M124.2,170.1c0.1-0.3,0.2-0.4,0.2-0.4l-0.2-0.1c0.2-5.8,1-11,2.2-15.3c6.9-24.2,15.2-39.7,19.1-46.1c0.5,1.2,1.1,2.4,1.8,3.6
			c5.7,10.5,17.7,24.1,42.7,30.1c7.3,7.6,18,13.4,29,12.7c11.4,0.7,22.9-4.2,29.6-13.5c24.8-6.1,36.9-19.5,42.7-29.8
			c0.7-1.3,1.4-2.6,2-3.9c3.9,6.7,12.2,22.6,19.1,46.9c1.2,4.3,2,9.5,2.2,15.4l0,0c0,0,0,0,0,0.1c0.6,16-3.3,36.3-14.9,51.9
			c0.3-4,0.2-8.9-1.1-12.9l-2.3-7.1l-2,7.1c-0.1,0.3-6.8,24.1-18.7,39.6c0.7-5.6,1.1-13.1-0.7-17.9l-2.5-7l-1.7,7.2
			c-0.1,0.3-6.7,27.2-22.2,41.3c1.5-4.7,2.5-11,0.9-17.4l-1.6-6.2l-2.6,5.8c-0.1,0.3-13.1,28.5-25.8,36c-12.7-7.5-25.6-35.7-25.8-36
			l-2.6-5.8l-1.6,6.2c-1.6,6.4-0.6,12.7,0.9,17.4c-15.5-14.1-22.2-41-22.2-41.3l-1.7-7.2l-2.5,7c-1.8,4.9-1.4,12.3-0.7,17.9
			c-11.9-15.5-18.6-39.3-18.7-39.6l-2-7.1l-2.3,7.1c-1.3,3.9-1.3,8.8-1.1,12.9C127.6,206.1,123.7,186,124.2,170.1z M120,180
			c1.3,17.1,7.3,36.4,20.7,50.4l5.4,5.6l-1.6-7.6c0-0.1-0.8-3.7-1-8.1c3.9,10.7,11.2,27.2,21.6,37.2l5.4,5.2l-1.6-7.3
			c-0.6-2.5-1.5-7.6-1.7-12.7c4.3,11.7,12.9,29.8,27.4,38l7.4,4.2l-4.3-7.3c-0.1-0.1-3.8-6.5-4.3-14.2c5,9.4,14.5,25.3,24.3,30.9
			l2,0.9l2-0.9c9.8-5.6,19.3-21.5,24.3-30.9c-0.6,7.7-4.3,14.1-4.3,14.2l-4.4,7.3l7.4-4.2c14.4-8.3,23.1-26.3,27.4-38
			c-0.3,5.1-1.2,10.2-1.7,12.7l-1.6,7.3l5.4-5.2c10.3-10,17.6-26.5,21.6-37.2c-0.2,4.4-1,8.1-1,8.1l-1.6,7.6l5.4-5.6
			c13.5-14.1,19.5-33.6,20.7-50.7c5.1,13.6,12.1,38.9,5.8,62.8c-1-3.4-2.2-7.3-3.1-9.6l-5.6-14l1.2,14c0,0,0,1.2,0.1,1.8
			c0.2,4.6,0.6,27.6-12.1,42.8c0.1-3.3-0.2-7.5-1.5-11.7l-2.9-9.2l-1.5,9.5c0,0.2-3.3,20.3-16.3,30.9c0.5-3.8,0.8-8.8-0.7-13.3
			l-2.4-7.6l-1.9,7.7c-0.1,0.2-5.3,20.5-23.3,34c0.5-3.3,0.8-7.5,0.2-11.2l-1-6.5l-3.1,5.8c-0.1,0.2-12,21.9-31.3,34.1
			c-19.3-12.3-31.2-33.9-31.3-34.1l-3.1-5.8l-1,6.5c-0.6,3.7-0.3,7.9,0.2,11.2c-17.9-13.5-23.2-33.8-23.3-34l-1.9-7.7l-2.4,7.6
			c-1.4,4.5-1.2,9.6-0.7,13.3c-12.9-10.7-16.3-30.7-16.3-30.9l-1.5-9.5l-2.8,9.2c-1.3,4.2-1.6,8.4-1.5,11.7
			c-14.1-16.9-12.1-43.4-12-43.7l1.3-15l-5.2,12.9c-0.3-0.1-2.7,6.4-3.7,9.7C108.2,218.2,115,193.6,120,180z M58.8,485.6
			c-17.1,2.5-37.2-15.7-44-39.6c-2.2-7.7-4.5-23.3-4.5-32c1.5,0,3.1-0.6,4.5-1.9c-0.9,0.1-1.7,0.1-2.5,0c-0.7-0.1-1.3-0.3-1.9-0.6
			v-0.1l-0.2,0c-3.7-2-4.9-7-5.1-11.1c0-3.1,0.4-9.3,3.6-10.4c1.3-0.5,4,0.3,5.6,0.9l0.7-1.6c1.4-3,4.2-6.7,7.6-5l2,1.1
			c0.6-1.5,1.2-3.7,2.3-4.8c2.9-3.5,6.1-0.2,8.4,2.1l1.4-2.1c1.1-1.9,3.5-2.1,5.4-1.2c1.3,0.4,2.9,1.7,4.1,2.4l1-2.1
			c1.2-2.5,3.5-2.3,5.7-1c3.5,2.2,6.8,6.3,7.3,10.5c0.2,4.5-1.3,8.8-4.2,12.4c1.8-0.3,3.5-1.2,4.9-2.4c2.8,3.6,9.6,12.6,13.7,22.9
			c7.7,19.1,7.8,39,0.3,52C71.2,480.5,65.6,484.6,58.8,485.6z M125.9,470.2c0.7-1.6,1.6-4,2.5-7.1l0.8-2.8l-2.9,0.1
			c-0.4,0-10.3,0.6-18.2,10.5c-0.7-1.8-1.4-4.2-1.7-6.6l-0.5-5l-3.2,3.8c-0.1,0.1-10.7,12.7-25.5,15.1c0.5-0.8,1-1.6,1.5-2.4
			c8.1-14.1,8.1-35.4,0-55.7c-3.2-7.9-7.7-15-11.1-19.7c3.8-4.3,8-8.2,12.7-11.5c8.1-6.1,17-10.4,25.4-16.2
			c-4.2,0.4-8.7,1.6-13.3,3.5c5.6-8.9,7.4-18.4,7.5-19l0.4-2.5l-2.6,0.1c-2.5,0.1-4.8,1.2-6.7,2.4c2.8-17.2,9.5-29.4,13.9-35.9
			c1.1,15.4,4.2,30.5,10.3,44.4c0.4,0.9-0.2,2.5-0.2,2.5c-0.3,1.7-7.9,41.8,4.7,64.1l2.8,4.9l1.7-7.5c1.7,6.9,4.8,15.6,10.5,21.2
			c-0.2,1.4-0.3,2.8-0.3,4.2c0.1,5,1.8,9.9,4.4,14.1C135.9,469.8,131.6,470.3,125.9,470.2z M202.4,476.8c-0.5,1.1-1.3,2.4-2.7,2.7
			c-1.1,0.3-2.2-0.2-3-0.8l-2.8-5.5l-0.5,6.3c-0.6,1.2-1.6,2.7-3.2,3.1c-2.1,0.5-4.8-1.2-7-4.4l0-0.1l-1.9-5.7l-1.5,5.6l-0.2,0.5
			c-1.5,3.5-3.6,5.5-5.6,5.5h-0.1c-1.8,0-3.7-1.8-5-4.9l0-0.1l-1-6.9l-2.2,6.1l-0.4,0.5c-2.4,3.3-5.3,5-7.5,4.4
			c-0.7-0.2-1.4-0.7-2-1.4l-0.6-8.8l-4.2,7.1c-1.2-0.1-2.3-0.7-3.2-1.7c-2.6-3.1-2.8-9.3-0.6-14.8c0.8-1.9,2.1-4.3,4-4.9
			c1.4-0.4,3,0.3,4.1,1.1l1.1,3.9l1.3-3.3l0.7-0.9c2.3-3,5.1-4.6,7.2-4c0.4,0.1,0.7,0.3,1,0.5l1.3,4.6l1.8-4.5l0.3-0.4
			c0.8-1.2,2.4-3.2,4.4-3.2h0.1c1.7,0,3,1.5,3.9,2.8l0.1,0.1l1.7,5.1l1.6-5c0.5-0.5,1-0.8,1.6-0.9c1-0.2,2,0,3.2,0.6
			c0.3,0.1,0.6,0.3,0.9,0.6c0.5,0.4,1,0.8,1.4,1.3l1.7,1.8l1.5-1.9c0.5-0.7,1.2-1.1,1.8-1.3c1.7-0.4,4,1,5.8,3.6
			c1.4,1.9,2.4,4.3,3,6.9c0.4,1.8,0.6,3.7,0.6,5.5C203.1,473.4,202.7,475.1,202.4,476.8C202.3,476.8,202.4,476.8,202.4,476.8z
			 M203.2,456.9c-2.9-4.1-6.7-6.1-10.2-5.3c-0.9,0.2-1.8,0.6-2.6,1.2c-0.1-0.1-0.3-0.2-0.4-0.3c-0.5-0.4-1-0.7-1.4-0.9
			c-2-1.2-4.2-1.5-6.2-1.1c-0.7,0.1-1.3,0.4-1.9,0.7c-1.7-1.8-3.7-2.8-5.9-2.9c-2.5-0.1-4.8,1.2-6.8,3.5c-0.3-0.1-0.7-0.3-1-0.4
			c-3.4-0.9-7.2,0.6-10.4,4.1c-2.2-1.1-4.4-1.4-6.3-0.9c-2.8,0.8-5,3.3-6.7,7.3c-0.6,1.5-1.1,3.1-1.4,4.7c-3-6.5-4.3-13.7-1.8-20.6
			c1-2.9,2.1-5.7,3.4-9c-3.8,1.7-6.3,4.9-7.7,8.7c-8-10-9.3-27.6-9.3-27.8l-1-14.8l-4.8,21.2c-6.4-17.3-3.7-42.1-2.3-51.6
			c1.1,2.1,2.3,4.2,3.6,6.2c4,6,8.9,11.5,14.5,16.1c-4-6-7.7-11.9-11-18.1c-9.9-18.6-14.7-39.5-15.4-60.5
			c-0.8-21.9,1.6-44.1,6.5-65.6l0-0.2c0,0,0.4-1.4,0.9-3.3c1.2,11.4,5.3,27.3,17.6,37.9l5,4.3l-1.3-6.5c0,0-0.4-2-0.5-5
			c3.1,8.6,9.1,19.8,19.9,25.9l4.8,2.7l-1.6-5.3c0,0-0.9-3-1.2-6.7c4,8.7,11.9,21.3,26,30l4.7,2.9l-1.3-5.3c0,0-0.9-3.5-1.2-7.5
			c2.6,3.8,6.3,8.9,11.1,14.2c1.5,4.4,17.2,50.8,14.2,81.9l-9.3-18.2l2.1,14.1c0,0.2,3.1,21.1-3.9,32.7c-1.3-1.1-2.7-2-4.4-2.8
			c-0.9-0.4-2-0.7-2.9-0.9c6.9,7.5,9.4,15.3,9.4,23.7C204.3,458.6,203.8,457.7,203.2,456.9z M228.6,464.3h-18.5
			c0.7-7.2-0.3-15.3-4.3-21.3c5-7.2,6.1-17.6,6.1-25.6l3.9,7.6l1.4-6.3c5.5-25.6-5.1-65.1-10.5-82.7c3.6,3.2,7.7,6.3,12.1,9l0.8,0.5
			l0.8-0.5c4.4-2.6,8.5-5.8,12.1-9c-5.3,17.6-15.7,57.1-10.2,82.8l1.4,6.3l3.9-7.6c0,7.8,1.1,18,5.8,25.2
			C229,448.4,227.8,456.5,228.6,464.3z M290.9,478.5c-0.9,1-1.9,1.6-3.2,1.7l-4.2-7.1l-0.6,8.8c-0.6,0.7-1.2,1.2-2,1.4
			c-2.2,0.6-5.1-1.1-7.5-4.4l-0.4-0.5l-2.2-6.1l-1,6.9l0,0.1c-1.4,3.1-3.2,4.8-5,4.9h-0.1c-2,0-4.1-2.1-5.6-5.5L259,478l-1.5-5.6
			l-1.9,5.7l0,0.1c-2.2,3.2-4.9,4.9-7,4.4c-1.6-0.4-2.6-1.9-3.2-3.1l-0.5-6.3l-2.8,5.5c-0.8,0.5-1.9,1-3,0.8
			c-1.3-0.3-2.2-1.6-2.7-2.7c0,0,0.1,0,0.1,0c-0.4-1.6-0.8-3.3-1.1-5c0,0,0-0.1,0-0.1c0-1.8,0.2-3.6,0.6-5.5c0.6-2.6,1.7-5,3-6.9
			c1.9-2.6,4.1-4,5.8-3.6c0.7,0.2,1.3,0.6,1.8,1.3l1.5,1.9l1.7-1.8c0.4-0.5,0.9-0.9,1.4-1.2c0.4-0.3,0.7-0.5,1-0.6
			c1.1-0.6,2.2-0.8,3.2-0.6c0.6,0.1,1.1,0.4,1.6,0.9l1.6,5l1.7-5.1l0.1-0.1c0.8-1.2,2.2-2.7,3.9-2.8h0.1c2,0,3.6,2,4.4,3.2l0.3,0.4
			l1.8,4.5l1.3-4.6c0.3-0.2,0.7-0.4,1-0.5c2.1-0.6,4.8,1,7.2,4l0.7,0.9l1.3,3.3l1.1-3.9c1.1-0.8,2.7-1.5,4.1-1.1
			c1.9,0.5,3.2,3,4,4.9C293.7,469.2,293.4,475.4,290.9,478.5z M296.7,466.7c-0.3-1.6-0.8-3.1-1.4-4.7c-1.6-4-3.9-6.5-6.7-7.3
			c-2-0.6-4.1-0.3-6.3,0.9c-3.2-3.5-7-5-10.4-4.1c-0.3,0.1-0.7,0.2-1,0.4c-2-2.3-4.3-3.6-6.8-3.5c-2.2,0-4.2,1-5.9,2.9
			c-0.6-0.3-1.3-0.6-1.9-0.7c-2-0.5-4.1-0.1-6.1,1c-0.4,0.2-0.9,0.5-1.4,0.9c-0.1,0.1-0.3,0.2-0.4,0.3c-0.8-0.6-1.7-1-2.6-1.2
			c-3.5-0.8-7.3,1.2-10.2,5.3c-0.5,0.8-1,1.6-1.5,2.4c0.1-6.8,1.6-13.4,5.8-19.1c1-1.6,2.3-3,3.6-4.6c-0.7,0.1-1.5,0.4-2.2,0.6
			c-1.8,0.7-3.3,1.7-4.7,2.8c-6.8-11.6-3.8-32.2-3.7-32.5l2.1-14.1l-9.3,18.2c-3-31,12.3-77.5,13.8-81.9c4.8-5.2,8.6-10.3,11.1-14.2
			c-0.4,4.1-1.2,7.5-1.2,7.5l-1.3,5.3l4.7-2.9c14.2-8.7,22-21.3,26-30c-0.4,3.8-1.2,6.7-1.2,6.7l-1.6,5.3l4.8-2.7
			c10.8-6,16.7-17.3,19.9-25.9c-0.1,2.9-0.5,5-0.5,5l-1.4,6.5l5-4.3c11.5-9.9,15.8-24.5,17.3-35.7c0.3,1.3,0.6,2.6,0.9,3.9
			c8.4,40.8,10.6,85.7-9.5,123.5c-3.3,6.3-7.1,12.2-11,18.1c4.2-3.4,8.1-7.3,11.3-11.7c2.6-3.5,4.9-7.2,7-11.1
			c1.4,9.2,4.3,34.4-2.2,52l-4.8-21.2l-1,14.8c0,0.2-1.3,17.3-9,27.3c-1.5-3.6-3.9-6.6-7.5-8.3c1.3,3.3,2.4,6.1,3.4,9
			C301,453.1,299.7,460.2,296.7,466.7z M336.1,463.2l-3.2-3.8l-0.5,5c-0.2,2.4-1,4.8-1.7,6.6c-7.9-9.8-17.7-10.4-18.2-10.5l-2.9-0.1
			l0.8,2.8c0.9,3.1,1.8,5.5,2.5,7.1c-5.7,0.1-10-0.4-12.8-1c2.6-4.2,4.3-9.1,4.4-14.1c0-1.5-0.1-3.1-0.4-4.6
			c5.5-5.7,8.5-14,10.1-20.8l1.7,7.6l2.8-4.9c12.7-22.3,5.1-62.4,4.7-64.1c0,0-0.7-1.8-0.2-2.8c6.1-14,9.3-29.8,10.3-46.1
			c4.1,5.6,12.2,18.6,15.4,37.9c-1.9-1.3-4.3-2.4-6.7-2.4l-2.6-0.1l0.4,2.5c0.1,0.6,1.9,10.5,7.8,19.5c-4.7-2-9.6-3.4-14.6-4
			c8.4,5.8,17.3,10.1,25.4,16.2c4.6,3.3,8.9,7.2,12.7,11.5c-3.4,4.7-7.9,11.8-11.1,19.7c-8.1,20.3-8.1,41.6,0,55.7
			c0.5,0.8,1,1.6,1.5,2.4C346.8,475.9,336.2,463.3,336.1,463.2z M433.7,400.2c-0.2,4.1-1.4,9.1-5.1,11.1l-0.2,0c0,0,0,0.1,0,0.1
			c-0.6,0.3-1.2,0.5-1.9,0.6c-0.8,0.1-1.6,0.1-2.5,0c1.5,1.3,3,1.9,4.5,1.9c0,8.7-2.3,24.3-4.5,32c-6.4,22.5-24.5,39.9-40.8,39.9
			c-1.1,0-2.1-0.1-3.2-0.2c-6.7-1-12.4-5.1-16.3-11.9c-7.5-13-7.4-32.9,0.3-52c4.1-10.3,10.9-19.3,13.7-22.9
			c1.4,1.2,3.1,2.1,4.9,2.4c-2.9-3.6-4.4-7.9-4.2-12.4c0.5-4.2,3.8-8.3,7.3-10.5c2.2-1.3,4.5-1.5,5.7,1l1,2.1
			c1.2-0.7,2.8-2.1,4.1-2.4c1.9-0.9,4.2-0.7,5.4,1.2l1.4,2.1c1.7-1.6,3.9-4.3,6.4-3.6c2.5,0.7,3.4,4,4.2,6.2l2-1.1
			c3.5-1.6,6.2,2.1,7.7,5l0.7,1.6c1.6-0.5,4.2-1.4,5.6-0.9C433.3,390.8,433.7,397.1,433.7,400.2z"/>
		<path class="st3" d="M417.5,400.9c-0.3,3,2,5.5,5,5.5C422.8,403.4,420.5,400.9,417.5,400.9z"/>
		<path class="st3" d="M415,396.8c-0.9-2.9-3.9-4.3-6.7-3.2C409.2,396.5,412.2,398,415,396.8z"/>
		<path class="st3" d="M21.2,400.9c-3,0-5.3,2.5-5,5.5C19.3,406.4,21.5,403.9,21.2,400.9z"/>
		<path class="st3" d="M44.9,401.2c-5.2-1.9-10.3-1.7-14.7,0.8c-10.6,5.8-14.6,23.2-9.4,40.6c5.1,17.1,17.3,29,29,29
			c1.2,0,2.5-0.1,3.7-0.4c5.1-1.2,9.4-4.6,12.2-9.9c5-9.3,5.1-23.1,0.2-36C61.4,413.4,53.6,404.4,44.9,401.2z"/>
		<path class="st3" d="M136.4,439.9c-0.7-8.6-3-16.8-5.5-25C128.7,423,131.4,433.3,136.4,439.9z"/>
		<path class="st3" d="M351.7,438.2c0.1-0.8,0.2-1.6,0.2-2.4c-0.8,1.4-1.5,2.9-2.1,4.5c-3.8,10.7-2.2,24,5.2,32.8
			C351.4,461.7,350.2,449.9,351.7,438.2z"/>
		<path class="st3" d="M86.8,435.7c0,0.8,0.1,1.6,0.2,2.4c1.5,11.7,0.3,23.5-3.4,34.8c7.4-8.8,9-22.1,5.2-32.8
			C88.4,438.7,87.6,437.2,86.8,435.7z"/>
	</g>
</g>
</svg>
