<svg width="150" height="150" viewBox="0 0 150 150" fill="none" xmlns="http://www.w3.org/2000/svg">
<g clip-path="url(#clip0_379_1347)">
<path fill-rule="evenodd" clip-rule="evenodd" d="M135.938 75C135.938 91.1616 129.517 106.661 118.089 118.089C106.661 129.517 91.1616 135.938 75 135.938C58.8384 135.938 43.3387 129.517 31.9107 118.089C20.4827 106.661 14.0625 91.1616 14.0625 75C14.0625 58.8384 20.4827 43.3387 31.9107 31.9107C43.3387 20.4827 58.8384 14.0625 75 14.0625C91.1616 14.0625 106.661 20.4827 118.089 31.9107C129.517 43.3387 135.938 58.8384 135.938 75ZM150 75C150 94.8912 142.098 113.968 128.033 128.033C113.968 142.098 94.8912 150 75 150C55.1088 150 36.0322 142.098 21.967 128.033C7.90176 113.968 0 94.8912 0 75C0 55.1088 7.90176 36.0322 21.967 21.967C36.0322 7.90176 55.1088 0 75 0C94.8912 0 113.968 7.90176 128.033 21.967C142.098 36.0322 150 55.1088 150 75ZM49.2375 44.0625C52.4668 42.2045 56.3014 41.7039 59.8995 42.6707C63.4975 43.6374 66.5649 45.9925 68.4281 49.2188C69.0399 50.2948 69.2013 51.5692 68.8769 52.7637C68.5526 53.9583 67.769 54.9761 66.697 55.595C65.625 56.214 64.3518 56.3838 63.1551 56.0674C61.9584 55.751 60.9354 54.9741 60.3094 53.9062C59.8981 53.1954 59.3074 52.6051 58.5963 52.1944C57.8851 51.7837 57.0786 51.5671 56.2574 51.5661C55.4362 51.5652 54.6291 51.78 53.9171 52.189C53.205 52.5981 52.6129 53.187 52.2 53.8969C51.5759 54.9722 50.5502 55.7557 49.3485 56.0748C48.1468 56.3939 46.8676 56.2225 45.7922 55.5984C44.7168 54.9743 43.9334 53.9486 43.6143 52.7469C43.2952 51.5452 43.4665 50.266 44.0906 49.1906C45.33 47.0587 47.0988 45.2902 49.2375 44.0625ZM75 112.5C84.9456 112.5 94.4839 108.549 101.517 101.517C108.549 94.4839 112.5 84.9456 112.5 75H37.5C37.5 84.9456 41.4509 94.4839 48.4835 101.517C55.5161 108.549 65.0544 112.5 75 112.5ZM86.7375 44.0625C89.9668 42.2045 93.8014 41.7039 97.3995 42.6707C100.998 43.6374 104.065 45.9925 105.928 49.2188C106.241 49.752 106.445 50.3419 106.529 50.9544C106.612 51.5669 106.574 52.1899 106.416 52.7876C106.258 53.3852 105.983 53.9457 105.608 54.4368C105.232 54.9278 104.763 55.3398 104.228 55.6489C103.693 55.958 103.102 56.1581 102.488 56.2378C101.875 56.3175 101.253 56.2751 100.656 56.1132C100.06 55.9512 99.5009 55.6728 99.0123 55.2941C98.5237 54.9153 98.1149 54.4436 97.8094 53.9062C97.3981 53.1954 96.8074 52.6051 96.0963 52.1944C95.3851 51.7837 94.5786 51.5671 93.7574 51.5661C92.9362 51.5652 92.1291 51.78 91.4171 52.189C90.705 52.5981 90.1129 53.187 89.7 53.8969C89.0759 54.9722 88.0502 55.7557 86.8485 56.0748C85.6468 56.3939 84.3676 56.2225 83.2922 55.5984C82.2168 54.9743 81.4334 53.9486 81.1143 52.7469C80.7952 51.5452 80.9665 50.266 81.5906 49.1906C82.83 47.0587 84.6082 45.2902 86.7469 44.0625H86.7375Z" fill="#FEF17F"/>
</g>
<defs>
<clipPath id="clip0_379_1347">
<rect width="150" height="150" fill="white"/>
</clipPath>
</defs>
</svg>
