<svg width="151" height="150" viewBox="0 0 151 150" fill="none" xmlns="http://www.w3.org/2000/svg">
<path d="M93.2 91.725C88.1864 95.7672 81.9402 97.9716 75.5 97.9716C69.0598 97.9716 62.8136 95.7672 57.8 91.725C56.2684 90.4519 54.2938 89.8395 52.3106 90.0223C50.3274 90.2052 48.4981 91.1683 47.225 92.7C45.952 94.2316 45.3395 96.2062 45.5224 98.1894C45.7052 100.173 46.6684 102.002 48.2 103.275C55.8601 109.67 65.5217 113.172 75.5 113.172C85.4783 113.172 95.14 109.67 102.8 103.275C104.332 102.002 105.295 100.173 105.478 98.1894C105.661 96.2062 105.048 94.2316 103.775 92.7C103.145 91.9416 102.371 91.3148 101.499 90.8554C100.626 90.3959 99.6714 90.1129 98.6895 90.0223C96.7063 89.8395 94.7316 90.4519 93.2 91.725ZM53 67.5C54.4834 67.5 55.9334 67.0601 57.1668 66.236C58.4002 65.4119 59.3615 64.2406 59.9291 62.8701C60.4968 61.4997 60.6453 59.9917 60.3559 58.5368C60.0665 57.0819 59.3522 55.7456 58.3033 54.6967C57.2544 53.6478 55.9181 52.9335 54.4632 52.6441C53.0083 52.3547 51.5003 52.5032 50.1299 53.0709C48.7594 53.6385 47.5881 54.5998 46.764 55.8332C45.9399 57.0666 45.5 58.5166 45.5 60C45.5 61.9891 46.2902 63.8968 47.6967 65.3033C49.1032 66.7098 51.0109 67.5 53 67.5ZM98 52.5C96.5167 52.5 95.0666 52.9399 93.8332 53.764C92.5999 54.5881 91.6386 55.7594 91.0709 57.1299C90.5033 58.5003 90.3547 60.0083 90.6441 61.4632C90.9335 62.918 91.6478 64.2544 92.6967 65.3033C93.7456 66.3522 95.082 67.0665 96.5368 67.3559C97.9917 67.6453 99.4997 67.4967 100.87 66.9291C102.241 66.3614 103.412 65.4001 104.236 64.1668C105.06 62.9334 105.5 61.4833 105.5 60C105.5 58.0109 104.71 56.1032 103.303 54.6967C101.897 53.2902 99.9891 52.5 98 52.5ZM75.5 0C60.6664 0 46.1659 4.39867 33.8323 12.6398C21.4986 20.8809 11.8856 32.5943 6.20907 46.2987C0.532497 60.0032 -0.952754 75.0832 1.94114 89.6317C4.83503 104.18 11.9781 117.544 22.467 128.033C32.956 138.522 46.3197 145.665 60.8683 148.559C75.4168 151.453 90.4968 149.967 104.201 144.291C117.906 138.614 129.619 129.001 137.86 116.668C146.101 104.334 150.5 89.8336 150.5 75C150.5 65.1508 148.56 55.3981 144.791 46.2987C141.022 37.1993 135.497 28.9314 128.533 21.967C121.569 15.0026 113.301 9.47814 104.201 5.70903C95.1019 1.93993 85.3492 0 75.5 0ZM75.5 135C63.6331 135 52.0328 131.481 42.1658 124.888C32.2989 118.295 24.6085 108.925 20.0673 97.961C15.526 86.9974 14.3378 74.9334 16.6529 63.2946C18.968 51.6557 24.6825 40.9647 33.0736 32.5736C41.4648 24.1824 52.1557 18.468 63.7946 16.1529C75.4335 13.8378 87.4975 15.026 98.461 19.5672C109.425 24.1085 118.795 31.7988 125.388 41.6658C131.981 51.5327 135.5 63.1331 135.5 75C135.5 90.913 129.179 106.174 117.926 117.426C106.674 128.679 91.413 135 75.5 135Z" fill="#FEF17F"/>
</svg>
