<?xml version="1.0" encoding="utf-8"?>
<!-- Generator: Adobe Illustrator 28.3.0, SVG Export Plug-In . SVG Version: 6.00 Build 0)  -->
<svg version="1.1" id="squirrel" xmlns="http://www.w3.org/2000/svg" xmlns:xlink="http://www.w3.org/1999/xlink" x="0px" y="0px"
	 viewBox="0 0 488.353 490" enable-background="new 0 0 488.353 490" xml:space="preserve">
<g id="squirrel_00000075142407174571484000000003295925979136709760_">
	<g>
		<path fill="#F9822B" d="M483.068,312.453c-1.672-16.963-7.398-34.342-17.017-51.651c-4.497-8.21-9.838-15.961-15.003-23.457
			c-2.382-3.458-4.833-7.014-7.205-10.619c10.153,7.992,17.628,18.714,25.569,32.193c2.141,3.696,4.159,7.533,5.998,11.405
			l0.57,1.202l0.263-1.304c3.938-19.576-2.64-39.271-19.551-58.537c-16.416-18.705-39.008-33.024-55.069-41.741
			c-32.972-17.903-54.942-35.492-65.299-52.279l-1.462-2.369l0.656,2.706c5.16,21.285,20.466,39.556,32.397,51.134
			c1.387,1.365,2.953,2.888,4.603,4.492c4.07,3.958,8.591,8.354,12.239,12.136c-6.337-3.848-12.505-8.665-18.777-14.655
			c-24.412-23.025-36.782-47.389-35.774-70.502c-0.164-2.822,0.251-4.736,0.527-5.689c2.114-15.035,9.973-29.458,23.357-42.868
			c11.592-11.455,25.426-21.096,41.118-28.654l0.832-0.401l-0.834-0.397c-26.691-12.72-54.269-19.027-77.655-17.75
			c-28.966,1.578-51.529,14.035-67.056,37.016c-7.72,10.851-12.555,23.399-17.23,35.534c-1.519,3.942-3.081,7.995-4.733,11.968
			c0.652-7.619,2.463-15.509,5.393-23.495l0.632-1.724l-2.029,1.884c-2.412,2.233-4.703,4.652-6.923,6.993
			c-14.852,15.942-23.955,33.788-26.322,51.601c-3.714,24.721,5.458,48.88,23.374,61.554c0.389,0.261,0.776,0.517,1.161,0.772
			c1.667,1.102,3.242,2.143,4.718,3.463l0.162,0.092c1.037,0.328,2.053,0.645,3.06,0.923c0.634,0.187,1.277,0.349,1.919,0.509
			l2.378,0.593l-2.02-1.387c-8.612-5.912-15.584-13.446-20.161-21.783c-4.12-7.597-10.22-22.182-6.755-37.288
			c1.322,22.466,8.362,38.742,22.035,51.051c4.25,3.852,9.186,7.424,14.669,10.616l1.475,0.244c1.797,0.257,3.655,0.522,5.477,0.835
			c6.395,1.059,12.864,2.357,19.227,3.859c27.114,6.46,51.579,16.127,72.72,28.734c36.062,21.093,62.502,53.776,72.542,89.668
			c7.463,26.586,8.508,53.552,3.019,77.987c-6.231,28.372-24.165,54.611-49.204,71.989l-1.03,0.715l1.25,0.09
			c13.987,1.004,27.959-0.654,40.399-4.798c12.555-4.126,24.225-11.538,36.524-23.232c-3.585,5.802-8.344,11.112-13.9,15.484
			c-15.083,11.682-35.924,17.535-57.193,16.051c-3.65-0.249-7.007-0.701-10.262-1.38l-0.175-0.037l-0.152,0.096
			c-2.528,1.6-5.102,3.1-7.65,4.46l-1.048,0.56l1.975,0.448c7.951,1.741,15.916,2.611,23.705,2.611
			c8.74,0,17.259-1.095,25.284-3.281c18.6-5.267,35.274-16.579,45.749-31.039c5.273-7.349,9.03-16.172,10.865-25.513
			c2.443-12.33,1.888-26.448-1.649-41.969c-3.152-12.747-6.707-27.119,1.345-40.471c-1.461,8.045-2.652,17.105-1.024,25.766
			c0.108,0.628,0.233,1.263,0.358,1.899l0.239,1.215l0.593-0.946c2.358-3.758,4.297-7.647,5.762-11.561
			c5.053-13.422,6.324-29.175,3.791-46.894c6.812,22.69,3.368,46.742-9.256,62.508l-0.136,0.17l0.052,0.212
			c0.306,1.251,0.625,2.506,0.944,3.764c0.437,1.722,0.875,3.447,1.284,5.174l0.229,0.967l0.762-1.102
			c0.885-1.294,2.101-3.136,2.858-4.552c0.219-0.386,0.498-0.866,0.805-1.396c1.042-1.796,2.468-4.253,3.051-5.623
			C481.681,349.126,484.925,331.296,483.068,312.453z"/>
		<path fill="#F9822B" d="M247.617,466.625c32.613,32.286,94.654,17.638,126.763-9.005c30.791-23.989,45.863-63.05,43.431-101.589
			c-3.264-93.69-82.978-143.392-167.637-157.562c-6.431-1.088-13.073-1.636-19.389-3.476c-22.6-6.218-41.449-21.751-55.23-40.273
			c-1.088-1.477-2.141-2.963-3.158-4.493c-1.981,4.927-4.432,9.633-8.085,13.586c0.778-7.607,3.839-14.409,6.112-21.565
			c6.59-20.91,9.712-43.378,5.334-65.031c-1.628-7.81-4.095-15.639-8.005-22.635c-1.893,6.112-5.325,11.72-8.695,17.116
			c-7.165,10.942-16.196,20.795-24.935,30.366c-8.377,9.588-15.815,20.176-20.592,32.011c-2.716,7.182-4.812,14.462-5.944,22.113
			c-2.99-8.792-0.336-18.115,3.175-26.501c-4.334,0.23-8.474,0.876-12.322,1.769c-8.306,2.813-16.877,5.741-24.564,10.057
			c-0.407,0.257-0.646,0.416-0.663,0.425l-0.027-0.035c-1.106,0.637-2.194,1.3-3.255,1.999
			c-13.631,10.013-23.148,24.732-27.438,41.06c-1.778,6.351-4.095,12.552-6.82,18.54c-3.476,7.837-8.111,15.329-11.269,23.175
			c-0.283,0.77-0.548,1.539-0.796,2.317c1.362,1.061,3.83,2.353,8.297,3.494c0,0-3.255,8.2-2.45,13.967
			c0.248,0.239,0.495,0.469,0.743,0.708c8.713,8.005,22.069,12.543,33.223,7.289c3.812-1.849,6.811-4.299,10.712-6.404
			c-1.247,5.537-5.652,9.482-10.818,11.649c2.574,1.008,5.104,2.079,7.598,3.131c15.002,6.342,28.296,11.959,44.165,1.592
			c1.557-1.734,3.246-3.37,5.13-4.874c13.542-11.455,31.764-14.728,34.276-34.7c1.495,7.687-1.628,16.222-7.527,21.477
			c-3.98,3.83-8.916,6.714-13.356,9.65c-2.556,1.645-5.068,3.361-7.457,5.201c-1.734,1.645-3.441,3.114-5.121,4.414
			c-2.132,2.061-4.069,4.308-5.741,6.82c-5.82,8.553-7.881,19.141-8.483,29.34c-0.088,1.583-0.124,3.184-0.168,4.785
			c2.99,1.698,5.749,3.733,7.97,6.616c-6.935-0.628-12.454-4.016-18.69-6.466c-7.687-3.176-15.559-6.484-23.644-8.668l-0.106,0.062
			c-0.009-0.009-0.027-0.044-0.053-0.097c-4.308-1.159-8.668-1.999-13.109-2.317c-5.873-0.38-12.428,0.15-16.983,3.98
			c-0.363,0.478-0.734,1.106-0.955,1.663c-0.708,1.61-0.531,3.308,0.433,4.688c2.565-1,5.679-0.893,8.102,0.221
			c-2.256,0.531-4.378,1.053-6.086,1.955c-5.396,2.627-2.813,9.031,1.981,10.261c0.531-1.725,2.273-3.361,5.608-4.378
			c-2.839,2.061-5.873,5.997-1.026,7.572c1.654,0.54,3.574,0.416,5.298,0.062c2.335-0.425,4.909-0.248,7.156,0.548
			c3.052,1.053,5.546,2.857,7.66,4.883l-0.018,0.027c3.299,3.052,9.863,10.269,24.006,27.049
			c23.467,27.836,50.923,12.861,56.778,9.155c2.034-18.734,13.33-35.337,32.365-45.739c9.88-5.245,24.9-10.809,35.098-3.812
			c-5.829-1.115-11.419,0.062-17.001,1.486c-16.399,4.272-31.569,15.329-39.663,30.225c-8.492,15.117-7.386,33.665-0.938,49.348
			c1.336,3.299,2.875,6.51,4.538,9.668c0.61-3.945,1.654-7.527,3.237-10.402c1.176,8.147,0.345,15.842,1.061,23.9
			c1.654,19.106,9.066,36.505,28.049,43.661c1.964,0.699,3.954,1.283,5.971,1.769c-2.026-2.769-3.901-5.749-5.581-8.916
			c-1.999-3.689-3.742-7.492-5.263-11.375c-1.548-3.954-2.565-8.111-1.866-12.437c5.113,6.51,6.988,14.533,11.357,21.423
			c9.641,16.55,24.192,29.048,44.2,28.031c3.114-0.142,6.174-0.593,9.226-1.238c-5.634-3.476-10.729-7.855-14.524-13.259
			c-1.831-2.857-3.211-6.05-3.485-9.535C241.195,459.46,244.415,463.122,247.617,466.625z M359.608,455.09
			c18.938-12.808,33.488-30.676,44.979-50.383c-7.324,18.841-19.646,36.036-35.443,48.791
			c-20.335,16.24-46.588,26.138-72.762,24.873C318.946,476.001,340.935,467.943,359.608,455.09z M74.133,190.72
			c1.734,0,3.397,0.318,4.936,0.867c2.132,0.495,7.244,1.265,11.49-1.486c-0.186,0.248-3.803,5.086-2.379,10.942
			c0.433,1.389,0.672,2.866,0.672,4.387c0,8.12-6.607,14.719-14.719,14.719c-2.424,0-4.706-0.601-6.731-1.645
			c-1.539-0.398-4.653-0.778-7.687,1.362c0,0,2.539-3.414,1.132-8.138c-0.902-1.911-1.433-4.042-1.433-6.298
			C59.414,197.319,66.022,190.72,74.133,190.72z M32.79,237.946c0-1.115,0.902-2.017,2.017-2.017c1.115,0,2.017,0.902,2.017,2.017
			c0,1.123-0.902,2.026-2.017,2.026C33.692,239.971,32.79,239.069,32.79,237.946z M36.823,245.995c-1.114,0-2.017-0.911-2.017-2.026
			c0-1.115,0.902-2.017,2.017-2.017c1.115,0,2.017,0.902,2.017,2.017C38.84,245.084,37.938,245.995,36.823,245.995z M43.723,248.012
			c-1.115,0-2.026-0.902-2.026-2.017c0-1.115,0.911-2.026,2.026-2.026c1.114,0,2.017,0.911,2.017,2.026
			C45.739,247.11,44.837,248.012,43.723,248.012z M40.459,238.954c16.081,1.574,32.179,1.46,48.26-0.009
			C73.054,242.855,56.124,242.943,40.459,238.954z M68.392,233.718c-10.146,1.044-20.38,1.424-30.57,0.77
			c20.221-1.548,40.636-2.583,60.361-7.625C88.737,230.799,78.52,232.559,68.392,233.718z M102.898,356.81
			c14.754,5.564,30.295,8.456,44.572,0C136.342,369.927,114.963,367.212,102.898,356.81z M151.512,98.499
			c-3.052,3.149-6.519,6.139-9.659,9.173c-6.227,6.006-11.552,12.958-15.444,20.68c-2.3,4.768-4.281,9.394-6.386,14.383
			c-1.38-13.144,10.084-29.048,19.026-37.929c7.713-7.121,15.426-14.329,21.397-23.016c1.884-2.76,3.742-5.741,5.007-8.819
			l1.123-4.175c7.35,15.019,8.792,32.445,5.714,48.747c-1.044,4.927-2.698,9.739-5.351,14.055c0.23-2.539,0.637-4.962,0.955-7.395
			c0.999-6.988,2.061-14.666,1.902-21.698c-0.106-8.182-1.115-16.47-3.158-24.413C162.94,85.735,157.306,92.351,151.512,98.499z
			 M164.417,363.851c-1.265,5.971-1.619,12.171-1.459,18.469c-1.619-6.086-2.079-12.552-1.265-18.947
			c2.379-19.531,18.602-35.328,37.425-39.565C182.542,331.618,168.186,345.461,164.417,363.851z"/>
		<path fill="#F9822B" d="M99.856,127.053l0.507-0.097c4.163-0.799,8.331-1.246,12.388-1.328l0.272-0.006l0.118-0.245
			c4.243-8.845,9.994-17.435,17.582-26.261c1.88-2.174,3.796-4.302,5.648-6.359l1.777-1.976l0.086-0.143
			c1.223-3.336,1.779-6.821,1.653-10.362c-0.517-11.73-7.34-21.775-12.972-28.137l-0.701-0.793l-0.071,1.056
			c-0.139,2.085-0.381,4.074-0.72,5.918c-1.855,11.086-8.104,21.354-13.613,30.407c-8.61,13.684-12.414,25.698-11.974,37.809
			L99.856,127.053z"/>
	</g>
	<g>
		<path fill="#FFBC95" d="M38.286,298.211c0.327-0.523,0.607-0.975,1.029-1.386c8.556-7.04,20.949-5.479,29.527-3.694l1.059,0.22
			l-0.601-0.899c-4.31-6.446-12.985-16.872-22.623-14.299c-7.264,1.95-15.021,12.189-19.764,26.087
			c-5.026,14.743-6.659,34.353,1.025,44.931l0.149,0.13c1.538,0.82,10.493,5.278,23.273,5.278c8.613,0,18.963-2.025,29.951-8.553
			l0.453-0.27l-0.346-0.4c-8.096-9.366-11.958-13.43-13.772-15.189l-0.35-0.249c-2.938-2.086-5.976-4.244-9.662-4.605
			c-1.005-0.119-2.163-0.062-2.947-0.011c-3.504,0.232-6.739-1.104-8.223-3.407l-0.134-0.208l-0.247,0.005
			c-2.56,0.092-5.147-1.175-6.892-3.296c-1.711-2.08-2.385-4.681-1.848-7.137c0.189-0.871,0.54-1.673,1.043-2.385l0.184-0.26
			l-0.188-0.257c-2.086-2.847-2.171-6.947-0.203-9.976L38.286,298.211z"/>
		<path fill="#FFBC95" d="M154.484,224.846c0,0-13.134-28.629-46.48-0.168c-4.535,3.871-9.244,6.827-13.996,9.056
			c-12.806,3.592-17.847-7.186-9.225-11.497c8.622-4.311,9.129-15.363,8.664-21.484c-0.561-7.378,1.395-17.315,1.395-17.315
			s-0.962,1.879-20.71,3.593c-15.85,1.376-20.085,13.534-19.473,30.465c0.569,15.747-22.755,14.993-22.755,14.993l-7.18,11.486
			l14.114,11.935l20.574,3.981c0,0,22.896,10.45,32.6,12.689c9.704,2.239,21.646-3.981,21.646-3.981l20.651-16.67
			C157.305,243.966,154.484,224.846,154.484,224.846z"/>
		<path fill="#FFBC95" d="M122.427,137.099c0,0,37.105-50.779,44.647-6.787c0,0,10.309-28.384,0.794-55.193l-3.529,4.164
			c0,0-8.497,13.617-14.055,16.918C144.727,99.502,119.036,130.366,122.427,137.099z"/>
		<path fill="#FFBC95" d="M73.424,323.057c13.973,14.119,14.035,24.726,14.035,24.726c-3.174-3.402-21.879-24.498-24.931-25.55
			c-2.247-0.796-4.821-0.973-7.156-0.548c-1.725,0.354-3.644,0.478-5.298-0.062c-4.847-1.574-1.813-5.511,1.026-7.572
			c-3.335,1.017-5.077,2.654-5.608,4.378c-4.794-1.229-7.377-7.633-1.981-10.261c1.707-0.902,3.83-1.424,6.086-1.955
			c-2.424-1.114-5.537-1.221-8.102-0.221c-0.964-1.38-1.141-3.078-0.433-4.688c0.221-0.557,0.593-1.185,0.955-1.663
			c4.555-3.83,11.11-4.361,16.983-3.98c4.44,0.318,8.801,1.159,13.109,2.317c0.027,0.053,0.044,0.088,0.053,0.097l0.106-0.062
			c1.114,0.236,6.13,1.863,10.676,3.476c0,0-17.167-2.243-20.014,7.165C61.715,312.669,66.937,316.502,73.424,323.057z"/>
	</g>
	<g>
		<path fill="#C46A33" d="M82.623,349.369l-0.352,0.202c-9.913,5.713-20.309,8.61-30.897,8.61c-10.867,0-19.169-3.051-23.15-4.869
			l-0.33-0.15l-0.212,0.294c-1.26,1.741-3.313,5.213-2.902,8.906c0.342,3.047,2.324,5.788,5.892,8.148
			c4.904,3.238,11.938,4.648,19.323,4.648c11.81,0,24.513-3.609,30.8-9.125c2.943-2.587,4.505-5.43,4.643-8.451
			c0.15-3.423-1.553-6.406-2.582-7.88L82.623,349.369z M72.13,365.552c-9.612,6.729-23.38,7.706-34.992,2.663
			c10.807,1.016,23.115,1.22,34.781-3.109l0.417-0.18c0.39-0.167,0.756-0.324,1.088-0.465c-0.218,0.184-0.452,0.381-0.693,0.584
			L72.13,365.552z"/>
		<path fill="#C46A33" d="M415.561,324.924C399.781,259.69,340.52,220.671,275.736,203.9h-0.009
			c-57.619-28.57-39.61-83.244-39.61-83.244c-0.823,20.707,24.024,33.957,24.024,33.957c-21.008-55.531,13.25-79.493,13.25-79.493
			c-8.817,25.449,1.303,40.176,1.303,40.176c6.753-56.764,53.435-66.019,53.435-66.019c-24.245,28.809-36.465,81.167-11.468,116.858
			c28.562,40.777,77.047,51.19,107.108,98.713c34.249,54.142,5.583,104.321-3.082,110.631L415.561,324.924z"/>
		<path fill="#C46A33" d="M81.766,345.762l-0.451,0.265c-10.995,6.528-21.344,8.553-29.95,8.553
			c-12.781,0-21.742-4.458-23.281-5.281l-0.142-0.133c-4.122-5.67-5.564-13.949-5.236-22.679c0.274,6.952,1.858,13.348,5.236,17.991
			l0.142,0.133c1.539,0.823,10.499,5.281,23.281,5.281c8.014,0,17.54-1.76,27.686-7.271c0.743,0.858,1.539,1.769,2.371,2.733
			L81.766,345.762z"/>
		<path fill="#C46A33" d="M233.453,420.567c18.934,24.196,91.786,66.246,148.358-11.878c13.41-18.519,19.948-61.67-8.67-104.362
			c0,0,15.482,69.59-15.951,83.977c0,0,20.173-72.137-54.716-81.2c0,0,36.42,22.088,28.11,42.265
			c-5.279,12.819-22.654-26.276-52.679-25.561c-21.602,0.514-29.079,17.639-29.079,17.639s19.619-5.866,28.661,11.617
			c11.208,21.671-39.928,54.944-58.694,0C218.793,353.064,208.94,389.242,233.453,420.567z"/>
		<path fill="#C46A33" d="M393.273,438.656c-5.431,7.005-11.738,13.392-18.894,18.964c-32.109,26.642-94.15,41.29-126.763,9.005
			c-0.991-1.079-2.99-3.29-2.999-3.299c-0.239-0.318-0.478-0.646-0.708-0.973c0,0,48.808,47.999,133.158-8.058
			C383.075,449.615,388.479,444.361,393.273,438.656z"/>
		<path fill="#C46A33" d="M255.746,478.937c-3.052,0.646-6.112,1.097-9.226,1.238c-20.008,1.017-34.559-11.481-44.2-28.031
			c-3.326-5.245-5.21-11.145-8.173-16.541c0,0,6.03,7.751,10.399,14.641c9.641,16.55,24.655,27.622,44.663,26.604
			c1.026-0.044,2.034-0.124,3.052-0.239C253.393,477.434,254.56,478.203,255.746,478.937z"/>
		<path fill="#C46A33" d="M163.506,391.528c0.973,2.397,2.052,4.759,3.211,7.076c-0.593,1.84-1.035,3.83-1.362,5.918
			c-1.663-3.158-3.202-6.369-4.538-9.668c-6.448-15.683-7.554-34.232,0.938-49.348c1.946-3.574,4.29-6.926,6.979-10.013
			c-1.583,2.123-3.025,4.361-4.29,6.687C155.952,357.296,157.058,375.845,163.506,391.528z"/>
		<path fill="#C46A33" d="M203.673,463.449c-2.017-0.486-4.007-1.07-5.971-1.769c-18.982-7.156-26.395-24.555-28.049-43.661
			c-0.637-7.12-0.053-13.967-0.734-21.087c0-0.009,0-0.009,0-0.009s2.707,9.712,3.423,17.77
			c1.645,19.053,9.022,36.408,27.889,43.599C201.32,460.079,202.47,461.804,203.673,463.449z"/>
		<path fill="#C46A33" d="M208.527,468.67l-0.114-0.124l-0.168-0.016c-4.322-0.435-8.035-1.172-11.392-2.265
			c-0.372-0.085-1.094-0.333-1.44-0.485l-2.963-1.164c-0.917-0.384-1.887-0.894-2.826-1.387c-0.493-0.259-0.98-0.515-1.404-0.72
			c-0.441-0.3-0.931-0.607-1.43-0.923c-0.896-0.563-1.822-1.146-2.571-1.747c-0.267-0.197-0.526-0.409-0.785-0.623l-0.396-0.322
			l-0.098-0.06c-10.79-4.734-33.667-4.529-41.412,2.158c-1.458,1.253-2.274,2.693-2.425,4.283l-0.105,1.113l0.839-0.739
			c1.39-1.227,2.949-2.216,4.516-2.862c3.889-1.67,8.35-1.453,11.739,0.49c-6.605,0.385-11.407,2.385-14.652,6.092
			c-2.236,2.552-3.563,6.51-1.767,9.149c1.718,2.363,5.031,2.862,8.355,3.048l0.836,0.047l-0.433-0.717
			c-1.696-2.81-1.512-6.168,0.493-8.983c2.08-2.92,5.56-4.351,8.896-3.639c1.894,0.339,3.603,1.249,4.919,2.6
			c-2.559-0.47-5.101-0.666-7.736,0.374c-1.749,0.562-3.275,2.078-3.885,3.861c-0.475,1.388-0.32,2.762,0.471,3.913
			c1.827,2.042,4.708,2.577,7.519,3.098c4.888,0.63,9.832,0.86,14.78,0.86c6.911,0,13.829-0.45,20.612-0.891
			c3.134-0.204,6.374-0.415,9.557-0.577c2.65-0.176,5.303-0.36,7.956-0.543c3.324-0.231,6.651-0.46,9.981-0.677l1.532-0.099
			l-1.35-0.731C217.231,476.784,212.639,473.154,208.527,468.67z"/>
	</g>
	<g>
		<path fill="#FFFFFF" d="M74.133,217.938c6.897,0,12.507-5.611,12.507-12.507c0-6.891-5.61-12.498-12.507-12.498
			c-6.897,0-12.508,5.607-12.508,12.498C61.625,212.327,67.237,217.938,74.133,217.938z"/>
		<path fill="#FFFFFF" d="M111.374,133.373c0,0-30.209,4.222-46.786,20.535s-26.766,42.624-26.766,42.624l-6.534,8.903
			l10.408-26.201l13.837-28.005c0,0,37.359-27.074,55.84-24.176V133.373z"/>
		<path fill="#FFFFFF" d="M476.243,270.222l-0.265,1.3l-0.566-1.203c-0.522-1.088-1.053-2.176-1.601-3.255
			c1.442-17.425-5.431-34.01-20.468-51.144c-16.417-18.708-39.008-33.029-55.071-41.741c-27.146-14.745-46.845-30.163-58.724-44.209
			c-1.663-3.857-3.034-7.855-4.033-11.968l-0.655-2.707l1.468,2.371c10.349,16.788,32.321,34.373,65.296,52.276
			c16.063,8.722,38.654,23.033,55.071,41.741C473.607,230.949,480.179,250.648,476.243,270.222z"/>
		<path fill="#FFFFFF" d="M374.38,457.62c-4.069,3.37-8.615,6.554-13.516,9.465c2.972-1.981,5.776-4.069,8.377-6.227
			c30.791-23.989,45.863-63.05,43.431-101.589c-3.264-93.69-82.978-143.392-167.637-157.562c-6.431-1.088-13.073-1.636-19.389-3.476
			c-22.6-6.218-41.449-21.751-55.23-40.273c-0.336-0.46-0.672-0.911-0.982-1.371c1.123-2.043,2.087-4.184,2.963-6.36
			c1.017,1.53,2.07,3.016,3.158,4.493c13.781,18.522,32.631,34.055,55.23,40.273c6.316,1.84,12.958,2.388,19.389,3.476
			c84.659,14.17,164.373,63.872,167.637,157.562C420.243,394.57,405.17,433.632,374.38,457.62z"/>
		<path fill="#FFFFFF" d="M463.417,418.294c-1.831,9.341-5.59,18.16-10.862,25.51c-10.482,14.462-27.155,25.775-45.748,31.038
			c-8.032,2.185-10.986,2.034-3.52,0c18.602-5.263,34.391-16.576,44.864-31.038c5.281-7.35,8.663-16.25,10.871-25.51
			c4.221-17.699,0.168-53.585,0.168-53.585c0.69,3.963,1.654,7.864,2.583,11.614C465.301,391.846,465.858,405.963,463.417,418.294z"
			/>
		<path fill="#FFFFFF" d="M473.421,365.452c-0.575,1.371-2.008,3.83-3.043,5.626c-0.31,0.531-0.593,1.008-0.814,1.398
			c-0.752,1.415-1.973,3.255-2.857,4.547l-0.761,1.106l-0.23-0.964c-0.23-0.973-0.46-1.937-0.708-2.901
			c0.389-0.619-0.133-1.238,0.159-1.787c0.221-0.389,0.495-0.867,0.805-1.398c1.044-1.796,2.468-4.255,3.052-5.626
			c8.262-16.329,11.499-34.152,9.641-53.001c-1.672-16.957-6.51-34.338-16.125-51.648c-4.502-8.209-15.188-27.907-12.056-24.281
			c0.186,0.274,0.38,0.548,0.566,0.823c5.166,7.501,10.499,15.249,15.002,23.458c9.615,17.31,15.347,34.691,17.018,51.648
			C484.929,331.3,481.683,349.123,473.421,365.452z"/>
		<path fill="#FFFFFF" d="M396.042,22.995l-0.831,0.398c-1.327,0.637-2.645,2.176-3.945,2.857
			c-25.448-11.499-51.48-16.258-73.717-15.046c-28.96,1.583-51.524,13.153-67.057,36.133c-7.713,10.853-21.485,42.157-21.087,39.893
			c1.336-3.282,2.609-6.599,3.857-9.836c4.679-12.136,9.518-24.678,17.231-35.532c15.532-22.98,38.097-35.434,67.057-37.018
			c23.387-1.274,50.967,5.033,77.653,17.753L396.042,22.995z"/>
		<path fill="#FFFFFF" d="M69.905,293.353l-1.061-0.221c-1.176-0.248-2.415-0.486-3.715-0.699
			c-4.706-5.458-11.313-10.685-18.451-8.775c-7.262,1.946-15.019,12.189-19.76,26.085c-2.291,6.714-3.883,14.436-4.202,21.857
			c-0.425-8.978,1.336-18.956,4.202-27.359c4.741-13.896,12.498-24.139,19.76-26.085c9.641-2.574,18.31,7.846,22.626,14.294
			L69.905,293.353z"/>
		<path fill="#FFFFFF" d="M85.437,357.579c-0.018,0.416-0.062,0.831-0.142,1.238c-0.416-2.494-1.636-4.564-2.441-5.723l-0.23-0.327
			l-0.354,0.203c-9.916,5.705-20.309,8.607-30.897,8.607c-10.871,0-19.168-3.052-23.148-4.874l-0.336-0.15l-0.212,0.301
			c-0.946,1.3-2.326,3.574-2.786,6.183c-0.053-0.221-0.088-0.442-0.115-0.672c-0.407-3.697,1.645-7.174,2.901-8.907l0.212-0.292
			l0.336,0.15c3.98,1.813,12.277,4.865,23.148,4.865c10.588,0,20.981-2.892,30.897-8.607l0.354-0.203l0.23,0.327
			C83.88,351.175,85.588,354.156,85.437,357.579z"/>
	</g>
	<path fill="#231F20" d="M404.586,404.707c-11.49,19.707-26.041,37.575-44.979,50.383c-18.673,12.852-40.662,20.91-63.227,23.281
		c26.173,1.265,52.426-8.633,72.762-24.873C384.941,440.743,397.262,423.548,404.586,404.707z M71.745,364.7
		c-11.897,4.414-24.599,4.148-37.097,2.822c11.587,5.997,26.89,5.997,37.752-1.619C76.105,362.78,76.265,362.763,71.745,364.7z
		 M161.693,363.373c-0.814,6.395-0.354,12.861,1.265,18.947c-0.159-6.298,0.195-12.498,1.459-18.469
		c3.768-18.39,18.124-32.233,34.7-40.043C180.295,328.045,164.072,343.842,161.693,363.373z M477.048,367.327
		c-0.823,1.849-3.158,5.44-4.184,7.2c-1.406,2.468-3.759,5.413-5.581,7.925c0.009,0.027,0.018,0.053,0.018,0.08
		c2.247,12.039,2.795,24.449,0.389,36.611c-3.618,19.61-16.647,36.602-33.214,47.199c-8.173,5.396-17.125,9.801-26.616,12.339
		c-16.603,4.511-34.187,4.37-50.905,0.716c-1.973-0.442-3.892-0.92-5.873-1.513c-2.592,1.212-5.228,2.344-7.908,3.361
		c-24.555,9.526-53.063,12.578-77.972,2.539c-1.38-0.584-2.76-1.212-4.113-1.884l-1.804,0.593
		c-10.411,3.467-20.167,3.494-28.933,0.849l0.035,0.398c-17.328,2.034-34.647,3.618-52.126,3.989
		c-5.785-0.124-15.771,0.292-23.007-1.972c-6.59,1.451-15.311,1.477-19.575-4.635c-2.273-3.671-1.769-7.766,0.177-11.26
		c-1.628-4.564-0.575-8.739,3.069-11.888c7.421-6.404,24.661-7.74,37.398-5.236c-2.45-3.087-4.502-6.493-6.086-10.048
		c-3.529-7.766-5.882-20.238-5.493-31.41c-3.06-4.679-5.776-9.58-8.023-14.71c-4.272-9.438-6.245-18.903-6.094-27.978
		c-4.9,2.592-13.878,6.378-24.457,6.378c-11.004,0-23.723-4.095-35.373-17.921c-0.513-0.61-1.008-1.194-1.495-1.769
		c0.106,0.778,0.142,1.601,0.106,2.441c-0.168,4.166-2.185,7.961-5.988,11.304c-5.281,4.626-14.365,8.014-24.024,9.394
		c0.31,1.353,0.708,2.645,1.256,3.821c3.379,7.174,11.526,7.642,18.416,10.199c-5.343,3.14-11.844,2.3-17.133-0.761
		c-4.502-2.512-7.182-7.66-7.598-12.728c-1.442,0.088-2.892,0.15-4.334,0.15c-8.155,0-15.975-1.601-21.521-5.272
		c-4.617-3.043-7.191-6.767-7.66-11.057c-0.54-4.936,1.919-9.279,3.627-11.649c-8.775-12.56-6.245-33.665-1.3-48.163
		c5.325-15.594,13.737-26.306,22.503-28.65c14.453-3.865,25.935,13.772,29.402,19.831c1.406,0.354,2.769,0.725,4.087,1.07
		c6.431,1.875,12.702,4.193,18.752,6.97c1.557,0.77,3.131,1.495,4.688,2.247c-0.044-0.991-0.071-1.964-0.053-2.804
		c-0.088-10.34,1.999-20.645,6.961-29.411c-4.299,1.636-8.474,2.326-12.534,2.326c-9.703,0-18.814-3.857-27.766-7.642
		c-4.485-1.893-9.111-3.848-13.772-5.298c-0.018,0.009-0.026,0.009-0.044,0.009c-10.482,0.513-20.406-4.493-28.093-11.216
		c-4.246-3.98-8.492-8.801-9.12-14.922c-0.027-1.123,0.071-2.247,0.239-3.37C11.234,229.224,5.086,224.174,0,218.468
		c5.484,4.909,11.826,9.102,18.911,11.145c0.389-1.548,0.893-3.052,1.433-4.493c0.133-0.345,0.283-0.672,0.425-1.017
		c-4.883-4.52-9.314-9.509-13.339-14.781c4.405,4.582,9.146,8.845,14.241,12.64c1.353-3.016,2.866-5.9,4.343-8.757
		c3.972-7.589,7.687-15.232,10.402-23.343c0.991-2.91,1.937-6.271,2.822-9.235c2.945-9.518,7.457-18.611,13.763-26.421
		c4.219-5.228,9.04-9.801,14.391-13.843c1.097-0.725,2.203-1.415,3.326-2.07v-0.009c0.566-0.389,10.606-7.156,25.253-10.809
		c-0.77-14.807,4.706-28.429,12.481-40.742c3.768-6.307,7.607-12.428,10.208-19.009c1.217-3.013,2.137-6.12,2.757-9.282
		c-0.456-5.087-3.07-8.655-6.898-12.232c3.002-0.136,5.78,1.126,7.838,3.15c0.009-0.736,0.006-1.472-0.017-2.21l-0.168-5.245
		c1.572,1.394,3.101,2.839,4.578,4.335c0.507-2.372,1.82-4.542,3.955-5.632c-1.33,3.192-1.151,6.297,0.246,9.229
		c0.461,1.026,1.018,2.022,1.628,2.993c1.227,1.563,2.384,3.177,3.46,4.844c0.019,0.024,0.037,0.049,0.056,0.074
		c0,0-0.005,0.004-0.005,0.004c1.886,2.931,3.525,6.024,4.835,9.301c2.149,5.201,3.202,11.012,2.777,16.682
		c0.681-0.823,1.362-1.645,2.034-2.486c4.838-5.891,9.553-12.154,13.436-18.673c2.196-5.238,1.438-10.192-0.716-15.368
		c2.453,0.979,4.342,2.893,5.51,5.192c0.581-2.101,0.859-4.284,0.859-6.473v-2.228l3.538,4.308c1.172,1.581,2.264,3.205,3.281,4.867
		c0.633-2.77,2.047-5.202,4.588-6.862c0,0-1.732,8.304,0.798,17.676c9.474,23.844,6.818,52.794-1.025,76.417
		c-0.584,1.743-1.168,3.494-1.778,5.236c9.562,15.126,22.733,28.668,38.398,37.575c-0.371-0.372-0.761-0.743-1.114-1.123
		c-24.679-25.952-20.221-67.64-1.751-95.778c5.449-8.66,12.251-16.452,20.123-22.954c1.858-1.681,3.874-3.22,6.351-4.087
		c3.007-6.802,6.643-13.348,10.65-19.557c35.417-53.744,103.491-45.094,153.405-18.027l3.273,1.76l-3.45,1.601
		c-23.299,11.499-46.075,27.854-58.733,51.038c-4.493,8.279-6.705,16.585-7.129,24.749c0.716,9.562,9.394,33.391,69.277,65.898
		c16.346,8.881,39.362,23.484,56.159,42.626c19.433,22.14,25.828,44.89,19.044,67.614
		C490.864,305.913,492.819,338.146,477.048,367.327z M100.28,126.521c3.918-0.752,8.093-1.247,12.463-1.336
		c4.608-9.606,10.765-18.354,17.646-26.359c2.477-2.866,4.971-5.599,7.43-8.341c1.194-3.255,1.751-6.714,1.628-10.19
		c-0.46-10.429-5.962-20.07-12.861-27.863c-0.133,1.99-0.363,3.989-0.725,5.962c-0.018,0.109-0.043,0.216-0.062,0.324
		c-0.05,0.414-0.125,0.828-0.229,1.241c0,0-0.008-0.001-0.009-0.001c-2.151,10.527-7.963,20.112-13.375,29.005
		C104.924,100.507,99.784,112.908,100.28,126.521z M28.296,348.911c3.299,1.76,25.961,12.675,52.789-3.264
		c-8.067-9.332-11.932-13.401-13.746-15.161h-0.009c-2.981-2.114-6.05-4.37-9.748-4.732c-0.893-0.106-1.937-0.071-2.866-0.009
		c-3.998,0.265-7.2-1.398-8.624-3.609c-5.608,0.124-10.402-5.396-9.181-10.968c0.212-0.982,0.601-1.822,1.115-2.548
		c-2.203-3.007-2.256-7.342-0.221-10.473c0.371-0.593,0.69-1.141,1.229-1.663c8.094-6.66,19.531-5.944,29.897-3.786
		c-4.405-6.59-12.843-16.603-22.14-14.117c-7.12,1.911-14.763,12.039-19.46,25.802C22.317,319.093,20.707,338.464,28.296,348.911z
		 M82.492,349.954c-11.419,6.581-22.14,8.668-31.118,8.668c-11.03,0-19.442-3.131-23.334-4.909c-1.3,1.796-3.211,5.095-2.822,8.598
		c0.327,2.91,2.247,5.546,5.696,7.828c12.605,8.324,39.477,4.432,49.587-4.44c2.848-2.503,4.361-5.236,4.493-8.138
		C85.137,354.351,83.597,351.538,82.492,349.954z M221.965,479.849c-5.051-2.733-9.668-6.413-13.763-10.88
		c-3.874-0.389-7.757-1.07-11.446-2.273c-0.389-0.089-1.141-0.345-1.504-0.504l-2.972-1.168c-1.415-0.593-2.919-1.46-4.308-2.149
		c-1.238-0.84-2.848-1.743-4.016-2.68c-0.407-0.301-0.796-0.637-1.194-0.955c-10.42-4.573-33.312-4.502-40.945,2.088
		c-1.38,1.185-2.132,2.503-2.273,3.989c1.424-1.256,3.007-2.264,4.635-2.937c4.29-1.84,9.588-1.504,13.303,1.283
		c-5.882,0.142-11.791,1.521-15.709,5.997c-1.999,2.282-3.476,6.05-1.743,8.598c1.672,2.3,5.015,2.698,8.023,2.866
		c-3.972-6.581,2.503-14.851,9.845-13.286c2.521,0.451,4.626,1.857,5.997,3.715c-3.264-0.681-5.909-1.008-8.757,0.115
		c-2.777,0.893-4.98,4.484-3.22,7.059c1.725,1.928,4.529,2.45,7.244,2.954c14.834,1.911,29.933,0.15,44.864-0.61
		C209.998,480.671,215.977,480.238,221.965,479.849z M374.38,457.62c30.791-23.989,45.863-63.05,43.431-101.589
		c-3.264-93.69-82.978-143.392-167.637-157.562c-6.431-1.088-13.073-1.636-19.389-3.476c-22.6-6.218-41.449-21.751-55.23-40.273
		c-1.088-1.477-2.141-2.963-3.158-4.493c-1.981,4.927-4.432,9.633-8.085,13.586c0.778-7.607,3.839-14.409,6.112-21.565
		c6.59-20.91,9.712-43.378,5.334-65.031c-1.628-7.81-4.095-15.639-8.005-22.635c-1.893,6.112-5.325,11.72-8.695,17.116
		c-7.165,10.942-16.196,20.795-24.935,30.366c-8.377,9.588-15.815,20.176-20.592,32.011c-2.716,7.182-4.812,14.462-5.944,22.113
		c-2.99-8.792-0.336-18.115,3.176-26.501c-4.334,0.23-8.474,0.876-12.322,1.769c-8.306,2.813-16.877,5.741-24.564,10.057
		c-0.407,0.256-0.646,0.416-0.663,0.425l-0.027-0.035c-1.106,0.637-2.194,1.3-3.255,1.999
		c-13.631,10.013-23.148,24.732-27.438,41.06c-1.778,6.351-4.095,12.552-6.82,18.54c-3.476,7.837-8.111,15.329-11.269,23.175
		c-0.283,0.77-0.548,1.539-0.796,2.318c1.362,1.061,3.83,2.353,8.297,3.494c0,0-3.255,8.2-2.45,13.967
		c0.248,0.239,0.495,0.469,0.743,0.708c8.713,8.005,22.069,12.543,33.223,7.289c3.812-1.849,6.811-4.299,10.712-6.404
		c-1.247,5.537-5.652,9.482-10.818,11.649c2.574,1.008,5.104,2.079,7.598,3.131c15.002,6.342,28.296,11.959,44.165,1.592
		c1.557-1.734,3.246-3.37,5.13-4.874c13.542-11.455,31.764-14.727,34.276-34.7c1.495,7.687-1.628,16.222-7.527,21.477
		c-3.98,3.83-8.916,6.714-13.356,9.65c-2.556,1.645-5.068,3.361-7.457,5.201c-1.734,1.645-3.441,3.114-5.122,4.414
		c-2.132,2.061-4.069,4.308-5.741,6.82c-5.82,8.553-7.881,19.141-8.483,29.34c-0.088,1.583-0.124,3.184-0.168,4.785
		c2.99,1.698,5.749,3.733,7.97,6.616c-6.935-0.628-12.454-4.016-18.69-6.466c-7.687-3.176-15.559-6.484-23.644-8.668l-0.106,0.062
		c-0.009-0.009-0.026-0.044-0.053-0.097c-4.308-1.159-8.668-1.999-13.109-2.317c-5.873-0.38-12.428,0.15-16.983,3.98
		c-0.363,0.478-0.734,1.106-0.955,1.663c-0.708,1.61-0.531,3.308,0.433,4.688c2.565-1,5.679-0.893,8.102,0.221
		c-2.256,0.531-4.378,1.053-6.086,1.955c-5.396,2.627-2.813,9.031,1.981,10.261c0.531-1.725,2.273-3.361,5.608-4.378
		c-2.839,2.061-5.873,5.997-1.026,7.572c1.654,0.54,3.573,0.416,5.298,0.062c2.335-0.425,4.909-0.248,7.156,0.548
		c3.052,1.053,5.546,2.857,7.66,4.883l-0.018,0.027c3.299,3.052,9.863,10.269,24.006,27.049
		c23.467,27.836,50.923,12.861,56.778,9.155c2.034-18.734,13.33-35.337,32.365-45.739c9.88-5.245,24.9-10.809,35.098-3.812
		c-5.829-1.115-11.419,0.062-17.001,1.486c-16.399,4.272-31.569,15.329-39.663,30.225c-8.492,15.117-7.386,33.665-0.938,49.348
		c1.336,3.299,2.875,6.51,4.538,9.668c0.61-3.945,1.654-7.527,3.237-10.402c1.176,8.147,0.345,15.842,1.061,23.9
		c1.654,19.106,9.066,36.505,28.049,43.661c1.964,0.699,3.954,1.283,5.971,1.769c-2.026-2.769-3.901-5.749-5.581-8.916
		c-1.999-3.689-3.742-7.492-5.263-11.375c-1.548-3.954-2.565-8.111-1.866-12.437c5.113,6.51,6.988,14.533,11.357,21.423
		c9.641,16.55,24.192,29.048,44.2,28.031c3.114-0.142,6.174-0.593,9.226-1.238c-5.634-3.476-10.729-7.855-14.524-13.259
		c-1.831-2.857-3.211-6.05-3.485-9.535c3.459,3.317,6.678,6.979,9.88,10.482C280.23,498.91,342.271,484.262,374.38,457.62z
		 M465.664,261.014c-6.952-12.693-15.692-23.944-23.573-36.169c11.994,8.713,20.282,21.255,27.704,33.851
		c2.167,3.742,4.175,7.563,6.015,11.437c3.91-19.433-2.609-38.973-19.451-58.158c-16.364-18.646-38.911-32.94-54.947-41.644
		c-39.309-21.344-57.371-39.318-65.464-52.435c4.617,19.053,17.638,36.717,32.277,50.923c5.484,5.396,13.754,13.25,18.982,18.885
		c-7.89-4.423-15.002-10.039-21.53-16.275c-22.733-21.441-37-45.907-35.912-70.798c-0.168-2.892,0.256-4.847,0.531-5.776
		c2.034-14.471,9.403-29.013,23.484-43.121c12.03-11.888,26.032-21.415,41.237-28.739C347.039,0.13,284.537-7.734,250.854,42.119
		c-10.703,15.046-15.701,33.011-22.945,49.852c0.46-9.031,2.503-17.815,5.599-26.253c-0.23,0.212-0.451,0.425-0.681,0.637
		c-2.397,2.22-4.653,4.6-6.899,6.97c-13.268,14.241-23.617,31.861-26.209,51.365c-3.397,22.609,4.078,47.606,23.184,61.121
		c2.052,1.38,4.078,2.618,5.926,4.272c1.008,0.318,2.026,0.637,3.052,0.92c0.628,0.186,1.265,0.345,1.902,0.504
		c-8.297-5.696-15.453-13.109-20.3-21.936c-6.563-12.1-10.19-26.908-6.059-40.352c0.77,20.875,6.156,39.291,22.025,53.576
		c4.44,4.025,9.367,7.519,14.595,10.561c2.264,0.327,4.538,0.637,6.802,1.026c6.466,1.07,12.888,2.362,19.256,3.865
		c25.466,6.068,50.295,15.338,72.842,28.783c34.01,19.893,62.006,51.542,72.744,89.931c7.112,25.333,8.819,52.409,3.025,78.202
		c-6.457,29.402-24.838,55.222-49.384,72.258c13.525,0.973,27.376-0.495,40.229-4.776c14.966-4.918,27.421-14.268,38.636-25.342
		c-3.812,7.059-9.208,13.33-15.603,18.363c-16.16,12.516-37.31,17.549-57.495,16.143c-3.494-0.239-6.891-0.672-10.323-1.389
		c-2.503,1.583-5.06,3.078-7.678,4.476c0.274,0.062,0.548,0.124,0.814,0.186c15.992,3.503,32.958,3.644,48.773-0.663
		c17.682-5.007,34.7-15.948,45.509-30.87c5.413-7.545,9.005-16.249,10.791-25.342c2.716-13.71,1.459-28.155-1.645-41.777
		c-3.653-14.772-6.784-29.101,2.618-42.697c-1.725,9.093-3.158,18.628-1.433,27.81c0.115,0.663,0.248,1.336,0.38,2.008
		c2.282-3.635,4.219-7.465,5.723-11.481c6.227-16.541,6.033-34.762,2.901-52.002c8.182,21.936,7.457,49.233-7.607,68.047
		c0.725,2.963,1.521,5.953,2.229,8.943l0.195-0.283c0.902-1.318,2.096-3.131,2.839-4.52c0.973-1.716,3.105-5.254,3.839-6.988
		C490.36,330.999,483.752,293.565,465.664,261.014z M36.823,237.946c0-1.115-0.902-2.017-2.017-2.017
		c-1.115,0-2.017,0.902-2.017,2.017c0,1.123,0.902,2.026,2.017,2.026C35.921,239.971,36.823,239.069,36.823,237.946z
		 M68.392,233.718c10.128-1.159,20.344-2.919,29.791-6.855c-19.725,5.042-40.14,6.077-60.361,7.625
		C48.013,235.142,58.247,234.761,68.392,233.718z M40.459,238.954c15.665,3.989,32.595,3.901,48.26-0.009
		C72.638,240.414,56.54,240.529,40.459,238.954z M102.898,356.81c12.065,10.402,33.444,13.118,44.572,0
		C133.193,365.266,117.652,362.373,102.898,356.81z M43.723,243.969c-1.115,0-2.026,0.911-2.026,2.026
		c0,1.115,0.911,2.017,2.026,2.017c1.114,0,2.017-0.902,2.017-2.017C45.739,244.881,44.837,243.969,43.723,243.969z
		 M169.795,102.506c0.159,7.032-0.902,14.71-1.902,21.698c-0.318,2.432-0.725,4.856-0.955,7.395
		c2.654-4.317,4.308-9.128,5.351-14.055c3.078-16.302,1.636-33.727-5.714-48.747l-1.123,4.175c-1.265,3.078-3.122,6.059-5.006,8.819
		c-5.971,8.686-13.684,15.895-21.397,23.016c-8.943,8.881-20.406,24.785-19.026,37.929c2.105-4.989,4.087-9.615,6.386-14.383
		c3.892-7.722,9.217-14.674,15.444-20.68c3.14-3.034,6.607-6.024,9.659-9.173c5.794-6.148,11.428-12.764,15.126-20.406
		C168.681,86.036,169.689,94.324,169.795,102.506z M36.823,241.953c-1.114,0-2.017,0.902-2.017,2.017s0.902,2.026,2.017,2.026
		c1.115,0,2.017-0.911,2.017-2.026S37.938,241.953,36.823,241.953z M90.56,190.099c-4.249,2.754-9.362,1.983-11.491,1.49
		c-1.538-0.552-3.204-0.869-4.937-0.869c-8.112,0-14.719,6.598-14.719,14.709c0,2.256,0.532,4.39,1.436,6.3
		c1.372,4.605-1.011,7.97-1.128,8.131c3.033-2.134,6.143-1.753,7.682-1.358c2.027,1.045,4.307,1.646,6.729,1.646
		c8.112,0,14.719-6.598,14.719-14.719c0-1.519-0.239-2.999-0.674-4.385C86.756,195.188,90.375,190.348,90.56,190.099z
		 M74.132,217.496c-1.792,0-3.492-0.391-5.02-1.099c0.816,0.249,1.68,0.381,2.578,0.381c4.918,0,8.898-3.99,8.898-8.908
		c0-0.283-0.005-0.557-0.034-0.84c-1.006,1.026-2.412,1.665-3.961,1.665c-3.062,0-5.548-2.476-5.548-5.538
		c0-1.626,0.698-3.086,1.822-4.107c-0.381-0.049-0.776-0.078-1.177-0.078c-4.918,0-8.898,3.99-8.898,8.898
		c0,0.908,0.137,1.787,0.391,2.613c-0.713-1.538-1.113-3.252-1.113-5.054c0-6.651,5.411-12.053,12.062-12.053
		s12.067,5.401,12.067,12.053S80.783,217.496,74.132,217.496z"/>
</g>
</svg>
