<?xml version="1.0" encoding="utf-8"?>
<!-- Generator: Adobe Illustrator 28.3.0, SVG Export Plug-In . SVG Version: 6.00 Build 0)  -->
<svg version="1.1" id="toucan_00000009583088377246280670000013224334532339504526_"
	 xmlns="http://www.w3.org/2000/svg" xmlns:xlink="http://www.w3.org/1999/xlink" x="0px" y="0px" viewBox="0 0 490 448.262"
	 enable-background="new 0 0 490 448.262" xml:space="preserve">
<g id="toucan">
	<path fill="#3D3D3D" d="M461.538,395.886c-0.762-1.143-1.529-2.28-2.299-3.42c-2.104-3.117-4.263-6.315-6.282-9.617
		c4.361,4.313,8.789,9.386,13.454,15.403c6.108,8.272,13.034,17.989,17.913,28.638l0.511,1.115l0.414-1.154
		c4.146-11.551,2.185-36.527-16.987-68.907c-6.371-10.763-11.849-20.558-16.249-28.428c-5.104-9.13-8.793-15.726-10.807-18.337
		L441.068,311l-0.226-0.015c-2.179-0.141-15.449-2.508-24.23-4.073c-3.877-0.692-6.94-1.238-7.896-1.388l-0.066-0.011l-0.067,0.008
		c-1.633,0.187-3.171,0.313-4.666,0.409c-12.604-4.418-23.407-11.283-32.142-20.448l-0.156-0.11
		c-6.97-3.161-13.579-6.896-19.645-11.102c-10.081-6.933-18.484-15.089-24.976-24.242l-0.068-0.096l-0.103-0.056
		c-20.26-10.917-33.515-32.12-42.797-49.369c-2.878-5.462-5.689-11.398-8.596-18.147c-2.148-4.976-4.405-10.824-5.271-17.105
		c3.002,4.813,5.354,9.94,7.638,14.916c1.044,2.274,2.123,4.626,3.257,6.935c9.039,18.07,20.56,38.56,37.469,53.537
		c1.04,0.892,1.993,1.676,2.913,2.396l1.947,1.524l-1.202-2.161c-0.777-1.398-1.44-2.664-2.027-3.868
		c-3.707-7.596-5.438-14.338-5.256-20.51c6.879,22.638,18.998,39.217,39.016,53.489c3.317,2.369,6.902,4.705,10.655,6.942
		l2.222,1.324l-1.568-2.057c-6.547-8.588-10.454-16.543-11.886-24.224c4.945,8.829,9.737,17.179,16.225,24.81
		c19.204,22.811,49.583,33.145,85.552,29.104l0.702-0.079l-0.308-0.636c-7.905-16.323-15.992-33.606-24.033-51.366
		c-11.081-25.195-23.641-53.752-40.552-78.513c-13.23-19.376-34.321-46.414-64.576-57.45c-3.109-1.391-6.306-3.07-10.053-5.282
		c-11.704-7.174-25.636-17.394-29.518-32.863c-0.408-1.912-0.635-3.957-0.854-5.935c-0.188-1.699-0.382-3.455-0.688-5.112
		c-2.762-18.412-10.06-33.981-21.104-45.025c-11.63-11.629-26.942-17.624-44.293-17.316l-2.428,0.042l2.248,0.921
		c0.667,0.273,1.325,0.567,1.983,0.875c11.45,5.306,17.988,15.225,17.94,27.215l-0.001,0.27l0.225,0.149
		c2.141,1.417,4.176,3.198,6.396,5.593c23.723,27.218,8.28,66.815-8.852,95.24c-5.574,9.22-12.254,18.809-20.42,29.316l-0.188,0.241
		l0.128,0.276c9.42,20.286,22.456,40.563,38.744,60.271c11.238,13.565,24.285,26.488,38.77,38.401
		c1.074,0.936,2.151,1.862,3.229,2.788c2.71,2.33,5.491,4.722,8.176,7.223c-3.422-1.731-6.833-3.761-10.352-6.154l-0.945-0.644
		l0.17,1.131c0.638,4.262,2.106,10.851,5.482,18.038c7.11,15.147,19.005,25.699,35.353,31.362l0.352,0.121l0.218-0.301
		c1.562-2.156,4.829-8.933,1.728-25.483l1.067-0.223l-1.179-0.652c-1.01-0.559-1.967-1.115-2.882-1.677
		c3.981,1.363,7.963,2.849,11.843,4.296c4.468,1.667,9.01,3.355,13.607,4.886c4.671,10.243,13.167,28.764,23.953,44.884
		c13.007,19.442,27.748,41.479,54.81,56.872l2.155,1.226l-1.512-1.965c-3.896-5.067-14.293-21.823-18.724-31.372
		c4.911,6.057,9.484,12.449,13.926,18.657c4.775,6.676,9.714,13.579,15.044,20.025c7.295,8.94,16.151,19.24,26.536,27.84
		c2.986,2.45,5.77,4.484,8.51,6.219l0.711,0.449l0.056-0.839c0.022-0.336,0.025-0.677,0.028-1.011l0.002-0.383
		c-0.421-4.766-2.427-9.562-4.336-13.629C476.079,417.146,468.965,406.598,461.538,395.886z"/>
	<g>
		<path fill="#F7B626" d="M332.722,348.941c-9.005-3.703-18.633-5.782-28.353-6.264c-15.845-0.78-31.78,1.927-46.669,7.359
			c5.768-4.726,12.863-7.814,19.982-10.071c3.294-1.109,6.621-2.194,10.062-3.506c-3.635-0.714-7.324-0.521-10.92,0.082
			c-3.618,0.691-7.23,1.741-10.678,3.2c6.006-6.801,17.449-15.315,36.738-14.367c-1.331,1.554-2.571,3.18-3.669,4.939
			c4.065-1.812,7.615-4.314,11.085-7.005c3.064-2.409,6.02-4.933,8.723-7.749c2.16,1.447,4.488,2.825,7.01,4.09l-6.905,10.825
			c-1.391-0.417-2.793-0.638-4.185-0.613c3.873,3.874,8.117,6.394,11.691,10.316c1.478,1.534,2.848,3.38,4.052,5.126
			C331.448,346.479,332.114,347.695,332.722,348.941z"/>
		<path fill="#F7B626" d="M187.456,49.141c-4.42,3.076-6.547,7.162-8.478,10.903c-1.413,2.753-2.755,5.344-4.884,7.528
			c-4.095,4.195-8.778,6.656-11.346,7.801c-40.251-3.078-112.188-6.831-150.562,1.671c0.82-0.495,1.61-0.965,2.22-1.319
			c1.771-1.027,4.042-2.509,5.886-3.43C70.626,45.147,131.283,42.35,187.082,49.097C187.207,49.109,187.331,49.129,187.456,49.141z"
			/>
		<path fill="#F7B626" d="M193.817,46.094l-0.283,0.099c-29.407-4.606-59.335-5.964-89.007-3.066
			c-14.294,1.428-28.605,3.971-42.52,7.85c2.479-9.694,1.515-16.405-2.909-19.954c-8.268-6.648-26.534,0.314-37.239,5.364
			c0.085-0.083,0.164-0.173,0.243-0.257C35.584,22.776,55.71,13.379,81.934,8.207c27.54-5.429,61.801-6.173,102.107-2.226
			c4.844,0.474,9.78,1.021,14.801,1.632C194.104,13.787,184.711,29.301,193.817,46.094z"/>
		<path fill="#F7B626" d="M219.85,8.337c-0.795,0.81-6.785-1.402-8.966,0.89c-10.944,11.501-15.546,25.399-3.393,39.189l0.947,1.082
			c2.059,0.686,4.084,1.509,6.063,2.502c0,0,8.427-14.114,25.583-15.108C240.084,36.892,241.254,15.622,219.85,8.337z
			 M225.808,35.564c-0.668,1.085-1.562,2.05-2.681,2.804c-1.817,1.211-3.912,1.687-5.935,1.489
			c-2.613-0.256-5.096-1.636-6.669-3.986c-0.979-1.464-1.464-3.105-1.521-4.745c-0.458-0.908-1.327-2.067-2.944-2.681l4.113-2.088
			c0.672-1.197,1.626-2.269,2.85-3.089c2.019-1.346,4.439-1.832,6.821-1.36c2.375,0.471,4.43,1.844,5.783,3.857
			c0.807,1.216,1.279,2.56,1.448,3.917c0.686,1.379,1.966,3.287,4.134,4.215C231.206,33.896,228.231,33.675,225.808,35.564z"/>
	</g>
	<g>
		<path fill="#CE8A02" d="M169.233,72.741c-37.88-4.152-104-7.442-148.939-0.448c-1.544,0.866-4.51,2.632-5.886,3.43
			c-0.61,0.354-1.4,0.824-2.22,1.319c38.374-8.501,110.311-4.749,150.562-1.671C163.862,74.877,172.452,72.797,169.233,72.741z"/>
		<path fill="#CE8A02" d="M332.722,348.941c-9.005-3.703-18.633-5.782-28.353-6.264c-15.845-0.78-31.78,1.927-46.669,7.359
			c2.602-2.131,5.48-3.933,8.5-5.469c12.458-3.615,25.48-5.308,38.441-4.671c8.883,0.442,17.684,2.216,26.001,5.346
			c0.012,0.022,0.031,0.038,0.043,0.06C331.448,346.479,332.114,347.695,332.722,348.941z"/>
		<path fill="#CE8A02" d="M228.615,29.474c-0.2-1.608-0.757-3.194-1.718-4.63c-1.596-2.385-4.025-4.005-6.84-4.563
			c-2.816-0.56-5.678,0.014-8.064,1.61c-1.446,0.968-2.571,2.232-3.371,3.654l-4.862,2.463c1.912,0.734,2.944,2.1,3.485,3.173
			c0.062,1.94,0.637,3.885,1.794,5.614c1.859,2.779,4.798,4.411,7.892,4.713c2.387,0.234,4.867-0.325,7.012-1.76
			c1.33-0.89,2.387-2.032,3.171-3.315c2.872-2.235,6.389-1.973,6.389-1.973C230.94,33.362,229.423,31.107,228.615,29.474z"/>
	</g>
	<g>
		<path fill="#FFFFFF" d="M470.182,361.72c-11.565-24.396-25.374-46.505-28.628-51.637c-0.571-0.09-1.729,1.97-2.298,1.871
			c0.37,1.333,18.556,29.702,29.647,52.468c22.552,46.293,16.453,65.073,16.479,65.156C490.9,417.75,485.713,394.471,470.182,361.72
			z"/>
		<path fill="#FFFFFF" d="M302.884,325.375c-17.747,0.836-27.413,7.427-33.756,13.22c-1.003,0.351-2.001,0.73-2.982,1.146
			C272.152,332.94,283.596,324.426,302.884,325.375z"/>
		<path fill="#FFFFFF" d="M320.237,316.352c-2.788,2.815-12.149,11.567-19.144,13.058c3.303-1.698,6.284-3.834,9.207-6.102
			c3.064-2.409,6.02-4.933,8.723-7.749C319.426,315.823,319.827,316.094,320.237,316.352z"/>
		<path fill="#FFFFFF" d="M455.061,306.916c-0.93,0.105-1.865,0.203-2.8,0.287c-7.846-16.255-15.46-32.593-22.903-49.026
			c-11.823-26.882-23.912-54.135-40.507-78.432c-16.251-23.8-36.656-47.166-64.367-57.275c-3.536-1.581-6.834-3.378-10.111-5.313
			c-12.657-7.758-25.934-17.998-29.745-33.184c-0.765-3.583-0.882-7.475-1.547-11.077c-5.04-33.593-25.64-58.774-57.469-61.645
			c-0.618-0.388-10.98-0.147-17.307,0.898c-3.21,0.53,2.578-2.923,2.578-2.923c-0.664-0.311,4.487-0.458,8.966-0.89
			c36.045-0.625,59.473,25.773,64.895,61.916c0.665,3.602,0.782,7.494,1.547,11.077c3.811,15.186,17.088,25.426,29.745,33.184
			c3.277,1.935,6.575,3.731,10.111,5.313c27.71,10.109,48.116,33.474,64.367,57.275c16.595,24.297,28.684,51.549,40.507,78.432
			C438.821,272.759,446.814,289.885,455.061,306.916z"/>
		<path fill="#FFFFFF" d="M198.841,7.613c-0.563,0.738-1.195,1.602-1.854,2.59c-4.48-0.537-8.882-1.017-13.219-1.442
			c-40.306-3.947-74.566-3.203-102.107,2.226c-22.818,4.502-41.017,12.2-54.242,22.926c-1.997,0.829-3.876,1.677-5.561,2.473
			c0.085-0.083,0.164-0.173,0.243-0.257C35.584,22.776,55.71,13.379,81.934,8.207c27.54-5.429,61.801-6.173,102.107-2.226
			C188.885,6.455,193.821,7.002,198.841,7.613z"/>
		<path fill="#FFFFFF" d="M259.793,68.629c-2.922-23.636-19.708-31.737-19.708-31.737C218.319,38.848,212.521,51.006,214.501,52
			c-2.853,0.043-5.667-0.106-8.455-0.365c-3.364,1.965-14.768,10.006-12.828,27.381c2.132,3.023,14.656,21.89,13.572,45.495
			c-0.874,19.099,7.557,38.844,10.425,44.387C237.343,142.575,263.968,102.41,259.793,68.629z M225.808,35.564
			c-0.668,1.085-1.562,2.05-2.681,2.804c-1.817,1.211-3.912,1.687-5.935,1.489c-2.613-0.256-5.096-1.636-6.669-3.986
			c-0.979-1.464-1.464-3.105-1.521-4.745c-0.458-0.908-1.327-2.067-2.944-2.681l4.113-2.088c0.672-1.197,1.626-2.269,2.85-3.089
			c2.019-1.346,4.439-1.832,6.821-1.36c2.375,0.471,4.43,1.844,5.783,3.857c0.807,1.216,1.279,2.56,1.448,3.917
			c0.686,1.379,1.966,3.287,4.134,4.215C231.206,33.896,228.231,33.675,225.808,35.564z"/>
		<path fill="#FFFFFF" d="M223.881,26.934c-1.041-1.554-2.622-2.607-4.453-2.969c-0.227-0.05-0.455-0.08-0.692-0.103
			c-1.599-0.157-3.195,0.241-4.554,1.147c-3.199,2.143-4.06,6.493-1.918,9.699c2.143,3.199,6.493,4.06,9.692,1.917
			C225.163,34.483,226.024,30.133,223.881,26.934z M220.213,28.925c-1.532,1.022-1.937,3.087-0.915,4.612
			c0.521,0.774,1.308,1.265,2.155,1.425c-0.137,0.106-0.265,0.199-0.408,0.297c-2.455,1.64-5.773,0.985-7.414-1.47
			c-1.641-2.448-0.986-5.766,1.47-7.414c2.448-1.634,5.773-0.979,7.414,1.47c0.128,0.202,0.247,0.41,0.353,0.617
			C221.985,28.243,221.024,28.38,220.213,28.925z"/>
	</g>
	<path fill="#231F20" d="M438.413,384.079c5.267,6.474,12.588,15.594,17.8,21.938c5.954,7.331,12.088,14.379,17.909,21.87
		c-7.785-5.52-14.552-12.318-20.609-19.657C447.537,400.836,442.084,392.898,438.413,384.079z M488.91,439.933
		c0.03,0.737,0.164,1.956,0.075,2.694c-0.021,0.689-0.131,1.45-0.308,2.135c-0.294,0.985-0.34,1.4-1.216,2.472
		c0,0-0.888,1.029-0.888,1.029c-0.002-0.001-1.169-0.724-1.171-0.725c-11.861-6.034-21.523-15.444-30.338-25.218
		c-1.816-2.037-14.072-15.367-15.809-17.469c-29.723-19.501-41.005-34.903-56.433-57.972c-15.447-23.096-22.63-39.276-24.33-43.032
		c-0.247-0.088-5.853-2.797-6.099-2.885c-3.826-1.396-7.63-2.953-11.307-4.758c3.439,20.817-3.054,26.519-3.835,27.119l-0.733,0.562
		l-0.877-0.289c-2.256-0.742-4.388-1.568-6.416-2.457l-6.813,10.676c4.923,2.533,9.364,7.107,11.936,11.174
		c0.466,0.914,1.073,1.91,1.519,2.83c0.228,0.653,0.972,2.331,1.165,2.99c0.546,1.918,1.204,5.092,1.654,7.058
		c-27.757-16.11-65.589-10.663-93.219,3.232c0,0,3.752-5.333,3.752-5.333c0.943-1.637,2.038-3.199,3.299-4.614
		c1.911-2.127,4.087-3.97,6.443-5.556c1.59-2.655,4.551-6.837,9.29-10.849c6.893-5.836,18.993-12.365,37.651-10.652
		c0.589-0.6,1.184-1.194,1.789-1.782c2.598-2.488,5.278-4.876,8.16-7.024c-9.45-7.24-15.127-15.935-18.482-23.122
		c-4.776-10.232-5.839-19.16-6.064-21.981c-0.835-0.621-1.664-1.25-2.485-1.891c-7.163-5.738-14.178-11.98-20.694-18.425
		c-22.661-22.879-41.989-49.545-54.326-79.412c-0.537-0.862-11.647-19.008-10.499-44.101c0.991-21.635-10.379-39.563-12.75-43.049
		c-2.834-0.284-12.97-1.265-27.297-2.348l-1.564-0.117c-44.435-3.31-126.542-7.36-159.162,4.557l-2.047,0.747l-0.284-2.16
		C0.065,80.936-2.913,56.068,19.57,33.727C33.528,19.858,54.25,10.125,81.16,4.802c33.648-6.656,77.124-6.391,129.225,0.782
		c7.496-0.819,15.131-1.135,22.296,0.225c32.33,5.143,51.006,33.235,55.511,63.889c0.654,3.53,0.783,7.338,1.5,10.86
		c4.107,16.674,23,28.998,37.732,36.022c27.936,10.066,49.485,34.236,65.981,58.571c13.849,20.533,24.947,42.781,34.765,65.461
		c9.913,22.338,20.437,45.032,31.091,66.985l1.081,2.093l-2.402,0.403c-7.642,1.385-10.727,1.482-10.727,1.482
		c11.232,17.372,55.223,91.88,39.387,119.436c0.635,1.697,1.193,3.429,1.616,5.12c0.09,0.331,0.244,0.892,0.286,1.242
		C488.609,438.106,488.863,439.189,488.91,439.933z M187.454,49.143c-0.124-0.016-0.248-0.033-0.372-0.049
		C131.286,42.347,70.625,45.144,20.293,72.29c-1.846,0.923-4.114,2.404-5.888,3.435c-0.609,0.355-1.397,0.82-2.218,1.318
		c38.377-8.502,110.315-4.747,150.562-1.671c2.567-1.142,7.252-3.603,11.347-7.799c2.13-2.182,3.468-4.779,4.886-7.528
		C180.909,56.304,183.033,52.214,187.454,49.143z M190.99,39.034c-3.703-13.956,3.789-26.127,7.85-31.422
		c-5.017-0.61-9.956-1.159-14.799-1.633c-40.308-3.947-74.567-3.205-102.107,2.229c-26.221,5.174-46.35,14.569-59.829,27.923
		c-0.085,0.084-0.163,0.169-0.248,0.253c10.703-5.052,28.97-12.009,37.243-5.365c4.423,3.551,5.388,10.264,2.906,19.959
		c13.914-3.884,28.23-6.424,42.521-7.85c28.628-2.799,57.499-1.63,85.905,2.592L190.99,39.034z M326.036,319.647
		c-2.523-1.265-4.853-2.639-7.014-4.089c-2.699,2.815-5.659,5.339-8.721,7.751c-3.469,2.692-7.024,5.191-11.089,7.007
		c1.104-1.762,2.344-3.391,3.67-4.941c-19.285-0.947-30.732,7.568-36.732,14.364c3.441-1.454,7.057-2.509,10.671-3.2
		c3.595-0.599,7.285-0.795,10.925-0.077c-3.443,1.307-6.767,2.394-10.067,3.504c-7.119,2.253-14.21,5.341-19.982,10.071
		c14.89-5.434,30.827-8.137,46.67-7.363c9.72,0.486,19.353,2.562,28.357,6.269c-0.609-1.25-1.276-2.465-2.041-3.64
		c-1.203-1.749-2.573-3.595-4.05-5.125c-3.574-3.927-7.821-6.449-11.689-10.317c1.389-0.029,2.794,0.192,4.184,0.608
		L326.036,319.647z M374.289,304.872c-13.792-16.014-26.057-32.628-26.057-32.628l0.161,0.076c-8.304-6.167-15.81-13.552-21.801-22
		c-19.462-10.486-32.778-30.57-43.007-49.579c-3.13-5.941-5.959-12.022-8.61-18.184c-2.678-6.197-4.962-12.513-5.542-19.356
		c5.034,7.506,8.14,15.673,12.074,23.683c9.72,19.43,20.937,38.846,37.348,53.377c0.947,0.818,1.913,1.611,2.895,2.383
		c-0.711-1.278-1.399-2.569-2.038-3.887c-3.526-7.226-6.106-15.394-5.1-23.507c6.772,24.154,19.228,41.338,39.6,55.853
		c3.431,2.458,6.983,4.756,10.62,6.927c-6.092-7.987-11.255-17.069-12.387-27.155c5.333,9.532,10.463,18.832,17.506,27.112
		c21.234,25.22,53.456,32.488,85.11,28.933c-8.244-17.031-16.239-34.157-24.036-51.387c-11.827-26.88-23.913-54.13-40.514-78.429
		c-16.25-23.805-36.65-47.17-64.366-57.277c-3.536-1.579-6.831-3.379-10.107-5.309c-12.656-7.761-25.939-17.999-29.75-33.185
		c-0.758-3.589-0.877-7.476-1.543-11.082c-5.423-36.139-28.847-62.539-64.894-61.916c0,0-4.957,0.259-8.967,0.891
		c-3.472,3.539-19.15,21.308-3.393,39.192l0.948,1.076c2.058,0.69,4.082,1.51,6.061,2.509c-2.855,0.038-5.667-0.112-8.457-0.37
		c-3.363,1.97-14.766,10.009-12.823,27.38c0.98,1.392,4.165,6.151,7.211,13.18c0.002-0.077,0.001-0.155,0.003-0.232
		c0.109-1.979,0.466-3.982,1.506-5.859c1.41,3.855,1.217,7.578,1.728,11.498c0.213,2.095,0.512,4.222,0.839,6.341
		c0.914,3.486,1.629,7.236,2.021,11.185c0.917-3.472,2.054-6.83,4.252-9.821c0.071,4.002-0.894,7.986-1.739,11.792
		c-0.885,4.594-1.944,9.324-2.253,14.029c0.677,15.946,6.208,28.34,8.734,33.223l1.802,3.417
		c10.061,21.66,23.478,41.768,38.678,60.157c11.608,14.016,24.658,26.791,38.714,38.348c4.622,4.022,9.308,7.89,13.704,12.212
		c-4.655-2.132-9.058-4.703-13.265-7.567c0.598,3.97,2.033,10.639,5.44,17.897c7.056,15.031,18.851,25.491,35.068,31.104
		c1.397-1.927,4.811-8.649,1.546-25.582l0.229-0.044c-2.094-1.163-4.137-2.412-6.092-3.792c8.296,2.667,16.454,5.554,24.702,8.111
		C357.297,299.123,368.705,302.987,374.289,304.872z M468.011,356.591c-11.522-22.648-24.956-44.002-24.956-44.002
		c-14.271,1.358-29.062-2.827-34.236-4.491c2.942,4.331,8.99,13.126,14.062,19.795c9.526,12.524,24.332,27.868,24.332,27.868
		c-13.095-8.26-38.187-40.032-46.162-50.36c-3.564-1.38-7.035-2.984-10.384-4.824c4.656,6.734,14.17,20.311,19.854,27.16
		c5.758,6.938,18.695,21.779,18.695,21.779c-17.217-13.254-45.081-50.151-49.664-56.288c-2.854-2.251-5.575-4.712-8.137-7.399
		c-4.104-1.862-8.119-3.941-12.017-6.233c4.389,6.362,14.514,20.872,20.456,28.032c5.758,6.938,18.695,21.779,18.695,21.779
		c-6.773-5.214-15.195-14.089-23.199-23.31c-2.197,0.119-6.092,0.062-11.073-1.119c0,0,10.762,22.287,23.643,41.539
		c13.974,20.886,25.773,33.486,46.276,49.406c-4.567-5.938-12.008-19.667-15.059-27.883c11.154,13.227,20.147,28.019,31.157,41.326
		c8.076,9.901,16.604,19.604,26.464,27.767c2.71,2.229,5.521,4.325,8.462,6.188c0.025-0.443,0.02-0.893,0.031-1.322
		c-0.412-4.631-2.322-9.264-4.295-13.455c-5.385-11.307-12.682-22.068-19.838-32.383c-3.54-5.318-7.234-10.538-10.438-16.186
		c5.895,5.454,11.22,11.643,16.13,17.974c6.703,9.082,13.229,18.394,17.966,28.727C489.188,414.396,484.447,388.898,468.011,356.591
		z M238.946,199.014c13.425,21.854,38.317,53.533,60.62,66.005c-1.419-1.252-2.852-2.457-4.281-3.649
		C274.804,242.184,257.691,219.85,238.946,199.014z M396.348,295.451c13.088,6.817,28.239,9.821,42.908,8.714
		c-7.269-0.884-14.402-2.135-21.337-4.028c-20.788-5.663-39.727-17.971-52.598-35.41
		C371.686,278.105,383.353,288.61,396.348,295.451z M307.577,223.196c-7.887-13.85-15.092-27.993-24.813-40.691
		C286.964,195.242,297.369,214.547,307.577,223.196z M231.209,33.896c0,0-2.974-0.221-5.403,1.669
		c-0.663,1.085-1.557,2.051-2.682,2.803c-1.813,1.214-3.911,1.686-5.929,1.488c-2.616-0.255-5.101-1.636-6.674-3.985
		c-0.978-1.462-1.464-3.107-1.517-4.747c-0.458-0.907-1.331-2.062-2.947-2.683l4.111-2.082c0.676-1.202,1.628-2.272,2.85-3.09
		c2.017-1.35,4.437-1.835,6.819-1.361c2.38,0.472,4.434,1.842,5.783,3.858c0.812,1.214,1.283,2.556,1.452,3.915
		C227.757,31.062,229.04,32.969,231.209,33.896z M223.88,26.931c-1.038-1.551-2.619-2.606-4.45-2.968
		c-0.23-0.046-0.46-0.079-0.69-0.102c-1.604-0.157-3.198,0.241-4.555,1.149c-0.753,0.504-1.372,1.133-1.857,1.837
		c0.186-0.166,0.381-0.326,0.594-0.469c2.449-1.639,5.768-0.985,7.41,1.469c0.133,0.199,0.253,0.406,0.353,0.613
		c-0.883-0.221-1.844-0.082-2.656,0.461c-1.527,1.022-1.933,3.089-0.911,4.615c0.517,0.772,1.304,1.261,2.153,1.422
		c-0.132,0.108-0.266,0.204-0.407,0.298c-2.071,1.386-4.754,1.131-6.529-0.456c2.167,3.12,6.456,3.946,9.625,1.825
		C225.162,34.484,226.023,30.135,223.88,26.931z M423.583,383.336c-15.449-18.508-28.721-38.347-42.59-58.034
		C389.913,346.277,405.52,369.302,423.583,383.336z"/>
</g>
</svg>
