<?xml version="1.0" encoding="utf-8"?>
<!-- Generator: Adobe Illustrator 28.3.0, SVG Export Plug-In . SVG Version: 6.00 Build 0)  -->
<svg version="1.1" id="walrus_00000141456643785747305700000008481806438100723855_"
	 xmlns="http://www.w3.org/2000/svg" xmlns:xlink="http://www.w3.org/1999/xlink" x="0px" y="0px" viewBox="0 0 490 237.5"
	 style="enable-background:new 0 0 490 237.5;" xml:space="preserve">
<style type="text/css">
	.st0{fill:#D69A72;}
	.st1{fill:#AD704E;}
	.st2{fill:#FFFFFF;}
	.st3{fill:#231F20;}
</style>
<g id="walrus">
	<path class="st0" d="M479.5,223.3c-22.5-31.5-41.5-32.5-58.3-33.5c-6.9-0.4-13.2,0.4-18.7,1.1c-5,0.6-9.3,1.2-12.7,0.6
		c-12.6-2-17.9-8.9-26.7-20.3c-3.9-5-8.3-10.7-14.2-17.2c-22.2-24.4-42.2-41.2-59.4-49.9c-5.3-2.7-10.4-4.8-15.2-6.3l-3-0.9l2.6,1.8
		c2.9,2,5.4,4,7.7,6.1c5.2,4.6,9.5,9.2,12.9,13.9c-4.6-4.4-9.4-8.5-14.2-12.2c-14.2-11-27.4-18.6-40.5-23.1
		c-5.9-2.1-11.5-3.5-16.9-4.4c-1-0.2-1.9-0.3-2.9-0.4c-1-0.1-2-0.3-3-0.4c-4.4-0.8-8.5-2.1-11.5-3.2c-11.5-4.1-22.3-9.7-32.2-15
		c-7.7-4.2-15.7-8.8-23.6-13.7l-3.8-2.3l3.2,3.1c3.8,3.7,7,7.2,9.8,10.8c2.9,3.7,6.4,8.4,8.3,13.9c-1.4-1.7-2.8-3.4-4.2-5.1
		c-1.9-2.4-3.9-4.9-5.9-7.2c-6.6-7.7-14.4-15.2-25.1-24.4l-1.7-1.4l0.9,2c2.4,5.3,3.2,10.4,2.6,14.9c-0.1-0.8-0.2-1.6-0.3-2.4
		c-1.5-7.9-5.8-14.9-9.4-20.1c-0.5-0.7-1-1.4-1.5-2.2c-0.5-0.7-1.1-1.3-1.6-2c-1.4-1.7-2.9-3.5-4.4-5.2c-2.4-2.5-4.6-4.5-6.7-6.1
		c-7.4-5.9-16.1-9.4-24.7-9.9C66.3,1.9,50.6,13.1,40.7,22.7c-4.9,4.9-11.3,8.2-17.4,11.4l-0.2,0.1c-2,1.1-4,2.2-5.7,3.8l-0.2,0.2
		l0.1,0.3c1,2.3,3,8,0.6,11.9c-1.5,2.5-4.6,3.9-9.2,4.1l-0.5,0l0,0.5c0.2,4.7,3.1,9.5,8.5,14.2c6.9,5.8,15,10.5,23.4,13.6
		C45,84.6,57,87.9,65.1,80c1.5-1.5,2.7-3.3,3.8-5.4c-0.1,0.8-0.3,1.5-0.5,2.2c-2,6.6-7.9,9.1-12.5,10c-4.1,0.7-8.4,0.4-13.1-0.8
		l-0.4-0.1l-0.2,0.4c-0.2,0.4-0.4,0.9-0.6,1.3L41.3,88l0.5,0.2c18.2,6.5,50.4,13.5,63.4-11.6l-0.4,1c-0.5,1.2-1.1,2.3-1.6,3.4
		c-7.8,13.8-22.7,16.2-33.9,15.7c-5.2-0.3-10.5-1-15.7-2.3l-0.5-0.1L53,94.7c-0.9,4.5-3.9,20.5-2.3,38.7c2.4,26.5,13,46.1,31.5,58.4
		l1.6,1.1l-0.9-1.7c-1.9-3.7-4.1-7.9-6.2-12.2c4.4,4.6,7.6,10.2,10.5,15.3c3.8,6.8,7.6,14,11.7,22c0.4,0.7,0.7,1.4,1.2,2.2
		c9.2,13.4,34.4,15.6,44.9,16l1.1,0c0.4,0,0.8,0,1.1,0c2.5,0,5,0,7.5-0.4l1.6-0.2l-1.4-0.7c-9.3-4.8-19.6-7.8-28.4-10l-1.4-0.4
		c-0.2-0.1-0.5-0.1-0.7-0.2c2.2-0.1,4.6,0,7.2,0.3c6.4,0.8,12.9,2.6,19.3,5.4c2.8,1.3,5.5,2.8,8,4.5l0.1,0.1l6.4-0.5l0.1-0.4
		c0.1-0.4,0.2-0.9,0.2-1.3l0-0.1l-0.1-0.1c-3-6-19.2-10-29.9-12.6c-1.2-0.3-2.3-0.6-3.3-0.8c7.2,0.2,19.5,1.8,27.7,5.7l3.5,1.6
		l-2.9-2.5c-0.9-0.8-1.9-1.5-3.1-2.3c-6.4-4.2-14.5-6.9-24-8.1c-8.7-1.8-13.5-10.6-13.7-18.7c2.7,6.9,6.3,14.6,14.3,16.1l1.6,0.2
		c2.3,0.3,4.8,0.6,7,1.2c8.5,2.1,15.2,5.4,19.8,9.7l0.2,0.1c4.5,1.5,22.4,5.9,62,0.7c19-3.4,37.1-6.9,52.4-10.2
		c-3.6,1.5-7.6,2.8-12.6,4.1l-3,0.8l3.2,0.2c5.4,0.3,10.6,1.2,16.1,2.1c12.6,2.1,26.8,4.5,49.8,2.2c63.9-6.3,85.5,4.7,91.8,9.7
		l0.6,0.5l0.2-0.7c0.8-2.7,2.2-4.6,4.3-5.6c3.5-1.7,8.1-0.3,11.4,1.1l1.3,0.6l-0.6-1.2c-0.6-1.3-1.3-2.4-2-3.4
		c-3.8-5.2-9.8-9.1-17.9-11.4c10.4,0.5,19.9,6.8,23,15.8l0.2,0.7l0.6-0.4c6.3-4.9,12.4-3.4,16.4-1.4l1.4,0.7l-0.7-1.4
		c-1-1.9-2.1-3.6-3.3-5c-6.8-8.4-17.5-11.8-27.3-14.5c4.7-0.2,9.7,0.6,14.7,2.5c9.4,3.3,16.6,10.3,19.3,18.6l0.2,0.7l0.6-0.4
		c5-4,11.2-2.5,14.5-1.3l1.5,0.6L479.5,223.3z M233.7,212.7c-0.8,0.2-1.5,0.4-2.2,0.5c-13.9,3-27.9,4.3-41.7,3.9
		c-5.6-0.2-12.5-0.6-19.6-1.9c16.7,1.3,34.8,0.8,56.3-1.6C228.8,213.4,231.3,213,233.7,212.7z M59.8,39.6c-0.8-1.2-1.3-2.6-1.4-4.1
		l-0.1-0.2c-0.3-0.7-0.9-1.5-1.8-2.1c0.7-0.2,1.7-0.7,2.5-1.5l0.1-0.1c0.6-1.3,1.5-2.4,2.7-3.2c1.8-1.2,3.9-1.7,6-1.3
		c2.1,0.4,4,1.6,5.2,3.3c0.7,1,1.1,2.1,1.3,3.3l0,0.1c0.6,1.1,1.5,2.5,2.8,3.5c-1.1,0.2-2.6,0.7-3.9,1.8l-0.1,0.1
		c-0.6,1-1.4,1.8-2.3,2.4c-1.4,0.9-2.9,1.4-4.6,1.4C63.8,43,61.4,41.7,59.8,39.6z M24.2,42.9c0-0.8,0.7-1.5,1.5-1.5
		c0.8,0,1.5,0.7,1.5,1.5c0,0.8-0.7,1.5-1.5,1.5C24.9,44.4,24.2,43.8,24.2,42.9z M25.9,52.2c0,0.8-0.7,1.5-1.5,1.5
		c-0.8,0-1.5-0.7-1.5-1.5c0-0.8,0.7-1.5,1.5-1.5C25.2,50.7,25.9,51.4,25.9,52.2z M52.3,76.4c-7.7-3.1-15-9.6-20.2-16.4
		C38.3,66.1,44.7,72,52.3,76.4z M58.4,66.3c-7.9-1.1-16.3-4.8-22.8-9.9C43.1,60.7,50.7,64,58.4,66.3z M30.4,48.2
		c0-0.8,0.7-1.5,1.5-1.5c0.8,0,1.5,0.7,1.5,1.5c0,0.8-0.7,1.5-1.5,1.5C31,49.8,30.4,49.1,30.4,48.2z M65.7,167.1
		c-7.2-11.3-10.5-28-10.6-42.3c1.2,7.1,2.4,14.4,4.1,21.5C60.6,152.7,62.5,160,65.7,167.1z"/>
	<g>
		<path class="st1" d="M332.3,160.1c-0.3,0-0.6-0.1-0.9-0.1c-0.9-0.2-1.8-0.2-2.6-0.1c-6.6,0.7-5.5,10.6,1,10.3
			C338,169.8,348.2,160.9,332.3,160.1z"/>
		<path class="st1" d="M296.9,144.1c-1.1-1.1-2-2.5-2.5-4c-3.5-9.1-12.4-7.1-19-1.8c-5.8,4.7-5.1,13.8,1.4,17.4
			C288.9,162.5,309.9,157.4,296.9,144.1z"/>
		<path class="st1" d="M242.2,149.8c-0.9-0.9-2-1.5-3.2-1.7c-20.9-4.2-15.3,8.2-11.9,10.7C235.6,165,252.7,160.2,242.2,149.8z"/>
		<path class="st1" d="M265.1,122.6c0.3-1,0.3-2.1,0-3c-5.3-16.9-12.2-7.8-12.6-4.3C251.4,124,261.7,134.5,265.1,122.6z"/>
		<path class="st1" d="M237.3,122.8c-0.6-0.3-1.4-0.5-2.2-0.6c-3.3-0.5-14.2-7.3-13,2.9c0.1,0.7,0.3,1.3,0.7,1.8
			C231.4,139.4,250.4,128.9,237.3,122.8z"/>
		<path class="st1" d="M214.5,97.7c-3.6-4.2-17.5-7.5-23.1-3.4c-1.2,0.8-1.9,2.2-2.1,3.6c-1,5.1,5.3,4.1,9.7,4.7
			c1.5,0.2,2.8,1.1,3.7,2.3C207.4,110.9,221,105.8,214.5,97.7z"/>
		<path class="st1" d="M198.8,127.2c-6.9-2.9-13.7-17.7-23.9-10.2c-0.4,0.3-0.7,0.7-0.9,1.1c-1.8,5.6,4.2,14,8.8,19.5
			c3.6,4.2,10.1,4.6,14.5,1C202,134.9,204.4,129.7,198.8,127.2z"/>
		<path class="st1" d="M147.8,84.8c-7.3,1.3-11.1,11.1-3,14.6c0.1,0,0.1,0,0.2,0.1c5.3,0.8,8,8.6,14.1,5.5c0,0,0.1,0,0.1-0.1
			C168.9,98.8,156.9,82.8,147.8,84.8z"/>
		<path class="st1" d="M130.7,76.9c0.3,0,0.6,0,0.9,0.1c0.9,0.1,1.8,0.1,2.6,0c6.5-1.1,4.9-10.9-1.7-10.2
			C124.4,67.6,114.8,77.1,130.7,76.9z"/>
		<path class="st1" d="M479.1,223.6c-4.6-1.7-10.4-2.3-15,1.3c-2.9-9-10.7-15.8-19.6-18.9c-1.6-0.6-2.6-0.3-4.3-0.7
			c-4.1-1.5-9.1-0.4-13.4-1.6c5.9-0.8,12.3-1.5,17.9,0.6c8.9,3.1,16.4,8.5,19.3,17.5c3.7-2.9,8.1-3.1,12-2.2
			C477.1,220.8,478.1,222.2,479.1,223.6z"/>
		<path class="st1" d="M459.8,223.7c-4.1-2.1-10.4-3.6-17,1.4c-2.1-6.3-7.1-10.2-13-12.9c-4.2-2.7-9.2-2.1-14.1-3.2
			c11.2-1,23.5,2,27.2,12.9c5.2-4,10.4-3.9,14.3-2.6C458.1,220.7,459,222.2,459.8,223.7z"/>
		<path class="st1" d="M438.8,224.5c-3.3-1.5-8.1-2.9-11.8-1.1c-2.2,1-3.8,3-4.6,5.9c-3.8-3-13.1-9.9-33.8-12.3
			c-13.8-1.5-32.7-0.1-58.3,2.5c-22.9,2.3-37.1-0.1-49.7-2.2c-5.6-0.9-10.8-1.8-16.1-2.1c2.6-0.7,5.2-1.5,7.8-2.3
			c2.7,0.4,5.5,0.8,8.3,1.3c12.5,2.1,26.7,4.5,49.7,2.2c25.5-2.5,43.1-5,56.9-3.5c20.9,2.3,31.4,10.3,35.2,13.3
			c0.8-2.9,2.4-4.8,4.6-5.9c2.8-1.3,6.2-0.8,9.1,0.1c0.2,0.3,0.4,0.5,0.6,0.8C437.6,222.2,438.2,223.3,438.8,224.5z"/>
		<path class="st1" d="M266.8,212.4c-14,2.9-28.7,5.3-42.3,7.8c-39.9,5.2-57.8,0.6-61.7-0.7c-5.5-5.1-13-8-20-9.8
			c-2.8-0.7-5.8-1-8.6-1.4c-8.5-1.6-11.9-10.7-14.7-18c0,0.2,6.2,13.3,14.7,14.9c2.8,0.4,5.9,0.7,8.6,1.4c7.1,1.8,14.5,4.7,20,9.8
			c3.9,1.3,21.8,5.9,61.7,0.7c18.4-3.3,38.6-4.1,56.8-8C273.3,211.4,266.1,212.4,266.8,212.4z"/>
		<path class="st1" d="M82.5,191.3c-18.4-12.1-28.9-31.6-31.3-58c-0.4-4.4-0.5-8.6-0.5-12.6c0,3.1,0.2,6.2,0.5,9.5
			c2.3,25.1,11.9,44,28.8,56.2C80.8,188.1,81.7,189.7,82.5,191.3z"/>
		<path class="st1" d="M154.7,233.5c-3.2,0.4-6.5,0.4-9.7,0.4c-14-0.4-36.1-3.5-44.5-15.7c-0.4-0.7-0.8-1.4-1.2-2.1
			c-3.7-7.4-7.6-14.8-11.7-22c-2.8-5-5.8-10.1-9.6-14.4c-1-2-2-1-3-3c6.7,3.9,9,8,12.6,14.3c4.1,7.2,8,14.6,11.7,22
			c0.4,0.8,0.8,1.4,1.2,2.1c8.4,12.3,30.5,15.3,44.5,15.7c1.2,0,2.5,0,3.8,0C150.9,231.6,152.8,232.5,154.7,233.5z"/>
		<path class="st1" d="M17.8,38.3C21.9,38,36.3,44.9,53,48.9C77.3,54.6,69.1,74.6,68.8,76c-0.6,2.7-2.9,4.6-5.2,5.9
			c-5.4,3.1-11.9,4.2-18.1,3.2c-5.9-1-11.2-3.9-16.4-6.7c-3.8-2.1-7.6-4.1-11.1-6.5C12.2,68,6.7,62.5,6.6,55.6
			C6.4,46.2,13.6,38.6,17.8,38.3z"/>
		<path class="st1" d="M106.5,74.5c-0.2,1.1-0.5,2.3-0.9,3.4l-0.8,2.4c-0.5,1.2-1.1,2.3-1.6,3.4c-7.1,12.6-20.7,16.5-34.4,16
			c-5.3-0.3-10.6-1-15.7-2.3c0.2-1,0.4-1.9,0.5-2.5c5.2,1.3,10.5,2.1,15.8,2.3c13.7,0.6,27.3-3.4,34.4-16c0.6-1.1,1.1-2.3,1.6-3.4
			l0.8-2.4C106.3,75.1,106.4,74.8,106.5,74.5z"/>
		<path class="st1" d="M76.3,33.3c-0.2-1.4-0.8-2.8-1.7-4.1c-1.5-2.2-3.8-3.7-6.5-4.2c-2.6-0.5-5.3,0.1-7.5,1.6
			c-1.5,1-2.6,2.4-3.4,4c-2,1.9-4.3,1.9-4.3,1.9c1.9,0.7,2.9,2,3.4,3.1c0.1,1.8,0.7,3.5,1.8,5.1c2,2.8,5.1,4.3,8.3,4.3
			c2,0,4-0.6,5.7-1.8c1.2-0.8,2.1-1.9,2.8-3c2.7-2.3,6.1-2.1,6.1-2.1C78.5,37.1,77,34.9,76.3,33.3z"/>
	</g>
	<g>
		<path class="st2" d="M476.1,219.6c-25.7-23.3-41.7-26.2-58.1-26.4c-14.9-0.3-22.9,5.2-33,1c-11.9-5-21.3-17.8-36.3-34.3
			c-26.3-28.9-49.2-47-66.8-55.4c-1.9-1.6-5.7-4.7-7.8-6.1c3.9,1.2,9,3.1,15.1,6.2c13.7,6.9,35.6,21.3,62,50.2
			c14.4,15.8,23.8,31.1,35.3,35.5c10.7,4.1,24.3-1.1,33.4-0.3c8.9,0.8,21.8-0.1,34.4,7.9C467.7,206.5,476.6,219.7,476.1,219.6z"/>
		<path class="st2" d="M156.6,62.3c-7.2-8.4-15.3-15.9-23.7-23.1c-0.4-1.2-0.9-2.5-1.4-3.7c8.9,7.6,17.5,15.5,25.1,24.3
			c3.5,4.1,8.2,10,11.6,14.2C168.8,75.3,160.6,66.9,156.6,62.3z"/>
		<path class="st2" d="M297.5,122.4c-4.2-3.7-11.4-8.9-17.6-13.6c-12.3-9.5-25.6-17.9-40.3-23c-5.5-1.9-11.1-3.5-16.8-4.4
			c-2-0.3-3.9-0.5-5.9-0.8c-4-0.7-7.9-1.9-11.6-3.2c-11.2-4-21.8-9.4-32.3-15c-6-3.3-13.2-7.4-19.1-10.9c-1.8-2.1-2.6-2.7-4.5-4.7
			c7.8,4.7,15.6,9.3,23.6,13.7c10.5,5.6,21.1,11,32.3,15c3.8,1.3,7.6,2.5,11.6,3.2c2,0.3,3.9,0.5,5.9,0.8c5.7,0.9,11.4,2.4,16.8,4.4
			c14.7,5.1,28.1,13.5,40.3,23c4,3.1,7.9,6.4,11.7,9.8C293.1,117.9,295.8,119.8,297.5,122.4z"/>
		<path class="st2" d="M123.5,30.9c-0.5-0.7-1-1.4-1.5-2.1c-2-2.4-3.9-4.9-6-7.1c-2-2.1-4.3-4.3-6.6-6.1c-6.9-5.6-15.5-9.3-24.4-9.7
			C68.2,5,52.8,14.3,41.1,25.5c-5,5-23.1,13.3-23.3,12.8c1.6-1.6,3.5-2.6,5.6-3.7C29.5,31.4,36,28,41.1,23
			C52.8,11.8,68.2,2.5,84.9,3.3c8.9,0.4,17.5,4.2,24.4,9.7c2.3,1.8,4.6,4,6.6,6.1c2.1,2.2,4,4.7,6,7.1c0.5,0.7,1,1.4,1.5,2.1
			c4.2,6.1,7.9,12.6,9.3,19.9c0.3,1.9,0.5,3.9,0.4,5.9C133.9,52.5,130.7,41.2,123.5,30.9z"/>
		<path class="st2" d="M67.7,28.1C67.3,28,66.9,28,66.4,28c-1.4,0-2.8,0.4-4,1.3c-0.8,0.6-1.4,1.2-1.9,2.1l0.5,0.4
			c0.2-0.3,0.5-0.5,0.8-0.7c1-0.7,2.3-1,3.6-0.8c1.2,0.2,2.3,0.9,3.1,2l0,0c-0.7,0-1.5,0.2-2.1,0.6c-0.8,0.5-1.3,1.3-1.4,2.2
			c-0.2,0.9,0,1.8,0.6,2.6c0.4,0.6,1,1,1.6,1.3c-2.1,1.4-5,0.8-6.5-1.3l-0.5,0.3c0.2,0.4,0.4,0.8,0.6,1.1c1.1,1.5,2.7,2.6,4.5,2.9
			c0.4,0.1,0.8,0.1,1.2,0.1c1.4,0,2.8-0.4,4-1.3c3.2-2.2,3.9-6.6,1.7-9.7C71.1,29.4,69.5,28.4,67.7,28.1z"/>
		<path class="st2" d="M25.6,78.4l-0.3-0.2l-0.1,0.4c-1.4,4.7-4.5,17.2-4.8,32.7C20.1,127,23,149.8,38.2,169l1,1.3l-0.4-1.5
			c-1.7-5.7-4-14.7-5.4-25.1c-2.2-16-2.9-39,6.5-58l0.2-0.3l-0.3-0.1C34.2,83.3,29,80.5,25.6,78.4z"/>
	</g>
	<path class="st3" d="M28.6,56c6.1,9.6,17.1,20.3,28.6,22.4C46,73.3,37.3,64.4,28.6,56z M31.4,53.3c8,8.1,20.7,13.9,32.1,13.9
		C52.1,64.4,41.4,59.6,31.4,53.3z M31.9,46.2c-1.1,0-2,0.9-2,2c0,1.1,0.9,2,2,2c1.1,0,2-0.9,2-2C33.9,47.1,33,46.2,31.9,46.2z
		 M24.4,50.2c-1.1,0-2,0.9-2,2c0,1.1,0.9,2,2,2c1.1,0,2-0.9,2-2C26.4,51.1,25.5,50.2,24.4,50.2z M25.7,40.9c-1.1,0-2,0.9-2,2
		s0.9,2,2,2c1.1,0,2-0.9,2-2S26.9,40.9,25.7,40.9z M74.9,33.6c-0.2-1.2-0.7-2.4-1.4-3.5c-1.3-1.9-3.3-3.1-5.5-3.5
		c-2.2-0.4-4.5,0.1-6.4,1.4c-1.3,0.9-2.2,2.1-2.9,3.4C57,33,55,32.9,55,32.9c1.6,0.6,2.5,1.7,2.9,2.6c0.1,1.5,0.6,3,1.5,4.3
		c1.7,2.4,4.3,3.7,7,3.7c1.7,0,3.4-0.5,4.9-1.5c1-0.7,1.8-1.6,2.4-2.6c2.3-1.9,5.2-1.8,5.2-1.8C76.8,36.8,75.5,34.9,74.9,33.6z
		 M70.3,40.5c-3,2.1-7.2,1.4-9.3-1.7c-0.2-0.3-0.4-0.7-0.6-1c1.6,2.3,4.8,2.8,7,1.2c0.1-0.1,0.3-0.2,0.4-0.3
		c-0.8-0.1-1.6-0.6-2.1-1.3c-1-1.4-0.6-3.4,0.8-4.4c0.8-0.5,1.7-0.7,2.5-0.5c-0.1-0.2-0.2-0.4-0.3-0.6c-1.6-2.3-4.8-2.9-7.1-1.3
		c-0.3,0.2-0.6,0.5-0.9,0.8c0.5-0.8,1.1-1.4,1.9-2c1.1-0.8,2.5-1.2,3.8-1.2c0.4,0,0.8,0,1.2,0.1c1.8,0.3,3.3,1.3,4.3,2.8
		C74,34.2,73.3,38.3,70.3,40.5z M226.4,213.1c-21.1,2.4-42.5,3.3-63.7,0.9c8.7,2.5,17.9,3.3,26.9,3.7c14,0.4,28.1-1,41.8-3.9
		c3.2-0.7,6.4-1.5,9.6-2.4C236.4,211.8,231.2,212.6,226.4,213.1z M59.6,146.2c-2.1-8.9-3.5-17.9-5-26.9c-0.8,16.4,2.9,40,13.9,52.6
		C64.2,163.8,61.6,155,59.6,146.2z M226.4,213.1c-21.1,2.4-42.5,3.3-63.7,0.9c8.7,2.5,17.9,3.3,26.9,3.7c14,0.4,28.1-1,41.8-3.9
		c3.2-0.7,6.4-1.5,9.6-2.4C236.4,211.8,231.2,212.6,226.4,213.1z M74.9,33.6c-0.2-1.2-0.7-2.4-1.4-3.5c-1.3-1.9-3.3-3.1-5.5-3.5
		c-2.2-0.4-4.5,0.1-6.4,1.4c-1.3,0.9-2.2,2.1-2.9,3.4C57,33,55,32.9,55,32.9c1.6,0.6,2.5,1.7,2.9,2.6c0.1,1.5,0.6,3,1.5,4.3
		c1.7,2.4,4.3,3.7,7,3.7c1.7,0,3.4-0.5,4.9-1.5c1-0.7,1.8-1.6,2.4-2.6c2.3-1.9,5.2-1.8,5.2-1.8C76.8,36.8,75.5,34.9,74.9,33.6z
		 M70.3,40.5c-3,2.1-7.2,1.4-9.3-1.7c-0.2-0.3-0.4-0.7-0.6-1c1.6,2.3,4.8,2.8,7,1.2c0.1-0.1,0.3-0.2,0.4-0.3
		c-0.8-0.1-1.6-0.6-2.1-1.3c-1-1.4-0.6-3.4,0.8-4.4c0.8-0.5,1.7-0.7,2.5-0.5c-0.1-0.2-0.2-0.4-0.3-0.6c-1.6-2.3-4.8-2.9-7.1-1.3
		c-0.3,0.2-0.6,0.5-0.9,0.8c0.5-0.8,1.1-1.4,1.9-2c1.1-0.8,2.5-1.2,3.8-1.2c0.4,0,0.8,0,1.2,0.1c1.8,0.3,3.3,1.3,4.3,2.8
		C74,34.2,73.3,38.3,70.3,40.5z M59.6,146.2c-2.1-8.9-3.5-17.9-5-26.9c-0.8,16.4,2.9,40,13.9,52.6C64.2,163.8,61.6,155,59.6,146.2z
		 M31.4,53.3c8,8.1,20.7,13.9,32.1,13.9C52.1,64.4,41.4,59.6,31.4,53.3z M28.6,56c6.1,9.6,17.1,20.3,28.6,22.4
		C46,73.3,37.3,64.4,28.6,56z M31.9,46.2c-1.1,0-2,0.9-2,2c0,1.1,0.9,2,2,2c1.1,0,2-0.9,2-2C33.9,47.1,33,46.2,31.9,46.2z
		 M25.7,40.9c-1.1,0-2,0.9-2,2s0.9,2,2,2c1.1,0,2-0.9,2-2S26.9,40.9,25.7,40.9z M24.4,50.2c-1.1,0-2,0.9-2,2c0,1.1,0.9,2,2,2
		c1.1,0,2-0.9,2-2C26.4,51.1,25.5,50.2,24.4,50.2z M24.4,50.2c-1.1,0-2,0.9-2,2c0,1.1,0.9,2,2,2c1.1,0,2-0.9,2-2
		C26.4,51.1,25.5,50.2,24.4,50.2z M25.7,40.9c-1.1,0-2,0.9-2,2s0.9,2,2,2c1.1,0,2-0.9,2-2S26.9,40.9,25.7,40.9z M31.9,46.2
		c-1.1,0-2,0.9-2,2c0,1.1,0.9,2,2,2c1.1,0,2-0.9,2-2C33.9,47.1,33,46.2,31.9,46.2z M28.6,56c6.1,9.6,17.1,20.3,28.6,22.4
		C46,73.3,37.3,64.4,28.6,56z M31.4,53.3c8,8.1,20.7,13.9,32.1,13.9C52.1,64.4,41.4,59.6,31.4,53.3z M59.6,146.2
		c-2.1-8.9-3.5-17.9-5-26.9c-0.8,16.4,2.9,40,13.9,52.6C64.2,163.8,61.6,155,59.6,146.2z M74.9,33.6c-0.2-1.2-0.7-2.4-1.4-3.5
		c-1.3-1.9-3.3-3.1-5.5-3.5c-2.2-0.4-4.5,0.1-6.4,1.4c-1.3,0.9-2.2,2.1-2.9,3.4C57,33,55,32.9,55,32.9c1.6,0.6,2.5,1.7,2.9,2.6
		c0.1,1.5,0.6,3,1.5,4.3c1.7,2.4,4.3,3.7,7,3.7c1.7,0,3.4-0.5,4.9-1.5c1-0.7,1.8-1.6,2.4-2.6c2.3-1.9,5.2-1.8,5.2-1.8
		C76.8,36.8,75.5,34.9,74.9,33.6z M70.3,40.5c-3,2.1-7.2,1.4-9.3-1.7c-0.2-0.3-0.4-0.7-0.6-1c1.6,2.3,4.8,2.8,7,1.2
		c0.1-0.1,0.3-0.2,0.4-0.3c-0.8-0.1-1.6-0.6-2.1-1.3c-1-1.4-0.6-3.4,0.8-4.4c0.8-0.5,1.7-0.7,2.5-0.5c-0.1-0.2-0.2-0.4-0.3-0.6
		c-1.6-2.3-4.8-2.9-7.1-1.3c-0.3,0.2-0.6,0.5-0.9,0.8c0.5-0.8,1.1-1.4,1.9-2c1.1-0.8,2.5-1.2,3.8-1.2c0.4,0,0.8,0,1.2,0.1
		c1.8,0.3,3.3,1.3,4.3,2.8C74,34.2,73.3,38.3,70.3,40.5z M226.4,213.1c-21.1,2.4-42.5,3.3-63.7,0.9c8.7,2.5,17.9,3.3,26.9,3.7
		c14,0.4,28.1-1,41.8-3.9c3.2-0.7,6.4-1.5,9.6-2.4C236.4,211.8,231.2,212.6,226.4,213.1z M162.8,214c8.7,2.5,17.9,3.3,26.9,3.7
		c14,0.4,28.1-1,41.8-3.9c3.2-0.7,6.4-1.5,9.6-2.4c-4.7,0.5-9.9,1.3-14.7,1.8C205.3,215.5,183.9,216.5,162.8,214z M74.9,33.6
		c-0.2-1.2-0.7-2.4-1.4-3.5c-1.3-1.9-3.3-3.1-5.5-3.5c-2.2-0.4-4.5,0.1-6.4,1.4c-1.3,0.9-2.2,2.1-2.9,3.4C57,33,55,32.9,55,32.9
		c1.6,0.6,2.5,1.7,2.9,2.6c0.1,1.5,0.6,3,1.5,4.3c1.7,2.4,4.3,3.7,7,3.7c1.7,0,3.4-0.5,4.9-1.5c1-0.7,1.8-1.6,2.4-2.6
		c2.3-1.9,5.2-1.8,5.2-1.8C76.8,36.8,75.5,34.9,74.9,33.6z M70.3,40.5c-3,2.1-7.2,1.4-9.3-1.7c-0.2-0.3-0.4-0.7-0.6-1
		c1.6,2.3,4.8,2.8,7,1.2c0.1-0.1,0.3-0.2,0.4-0.3c-0.8-0.1-1.6-0.6-2.1-1.3c-1-1.4-0.6-3.4,0.8-4.4c0.8-0.5,1.7-0.7,2.5-0.5
		c-0.1-0.2-0.2-0.4-0.3-0.6c-1.6-2.3-4.8-2.9-7.1-1.3c-0.3,0.2-0.6,0.5-0.9,0.8c0.5-0.8,1.1-1.4,1.9-2c1.1-0.8,2.5-1.2,3.8-1.2
		c0.4,0,0.8,0,1.2,0.1c1.8,0.3,3.3,1.3,4.3,2.8C74,34.2,73.3,38.3,70.3,40.5z M54.6,119.2c-0.8,16.4,2.9,40,13.9,52.6
		c-4.4-8.1-6.9-16.8-8.9-25.7C57.5,137.3,56.1,128.3,54.6,119.2z M63.6,67.2c-11.5-2.8-22.2-7.6-32.1-13.9
		C39.4,61.4,52.1,67.2,63.6,67.2z M28.6,56c6.1,9.6,17.1,20.3,28.6,22.4C46,73.3,37.3,64.4,28.6,56z M31.9,50.3c1.1,0,2-0.9,2-2
		c0-1.1-0.9-2-2-2c-1.1,0-2,0.9-2,2C29.9,49.4,30.8,50.3,31.9,50.3z M25.7,40.9c-1.1,0-2,0.9-2,2s0.9,2,2,2c1.1,0,2-0.9,2-2
		S26.9,40.9,25.7,40.9z M24.4,50.2c-1.1,0-2,0.9-2,2c0,1.1,0.9,2,2,2c1.1,0,2-0.9,2-2C26.4,51.1,25.5,50.2,24.4,50.2z M485.2,227
		c-24.8-37.5-56.4-40.6-83.2-36.7c-19.2,2.8-24-6-50.9-35.5c-26.8-29.4-42-41.6-55.9-48.9c-9.1-4.8-17.2-7-19.5-7.3
		c-2.2-1.3-13.8-7.9-16.1-9.1c-6.1-3.3-12.5-6.2-19.1-8.5c-7.5-2.7-15.3-4.4-23.2-5.3c-7.6-1.4-14.9-4.4-21.9-7.5
		c-21.2-9.7-41.4-21.8-60.9-34.5c-1.9-1.6-3.8-3.2-5.7-4.7c-0.8-0.7-1.6-1.6-2.4-2.4c-1.6-2.2-3.3-4.3-5.1-6.1c-1-1.2-2-2.4-3.1-3.6
		c-1.8-2-4-3.9-6-5.7c-0.6-0.5-2.2-1.7-2.8-2.2c-3.8-2.8-8.1-5.2-12.6-6.7C92.3,0.8,87.4,0,82.7,0c-16.8,0.1-32.2,9.2-44,20.6
		c-2.7,2.6-5.7,4.7-8.9,6.6c-2.6,1.5-5.3,2.9-8.1,4.3c-2.8,1.5-5.8,3.3-7.8,5.9c0,0-0.1,0.1-0.1,0.1c0.1-3.7-0.1-7.4-0.5-11.1
		c-0.9,4.5-1.5,9-1.5,13.5c-1,1.2-2,2.5-2.8,3.8c-2.6-4.1-5.8-7.8-8.8-11.5H0c0.5,1.3,1.1,2.5,1.8,3.7c1.8,3.3,3.7,6.6,6,9.7
		c-1.5,2.8-2.6,5.7-2.6,9C5.4,64.9,14.7,71.9,22.5,77c0,0,0.1,0.1,0.2,0.1c-1.2,3.8-4.9,17-5.1,34.1c-0.3,18.4,3.6,44.6,23.6,65.4
		l5.2,5.4l-2.6-7c-0.2-0.5-17.9-48.8-3-84.4c3.2,1.3,6.4,2.5,9.7,3.4c-1.1,5-4,20.8-2.4,39.5c2.6,29.1,15.5,50.9,37.2,63.2
		c0.9,1.7,1.8,3.5,2.7,5.2c3,5.8,5.8,11.7,8.8,17.6c6.7,11.3,21.7,15.2,33.8,17c7.2,1,14.4,1.3,21.7,0.7c2.6-0.3,4.9-0.5,7.5-1.6
		c0,0,0.2-0.1,0.4-0.2c3.4-0.2,8-0.6,8.3-0.6c0,0,0.2-1.1,0.2-1.1c0.3-1.4,0.2-2.7-0.2-3.9c-0.1-2.1-0.8-4.2-2-6
		c10.3,2.2,35.4,4.8,83.7-4.6c10.8-2.1,19.2-0.7,30,1.1c12.1,2,27.2,4.6,50.5,2.2c20.4-2,36.3-5.6,48.8-4.8
		c35,2.1,42.6,15.4,42.7,15.5l2.4,3.5l0.5-4.2c0.4-3.3,1.5-5.5,3.4-6.4c3.9-1.8,10.5,1.6,12.7,3l1.1,0.7l0.9-0.9
		c9.4-9.2,18.7-0.4,19.1,0l1.2,1.2l1.1-1.3c6.8-8.1,18.1-0.1,18.6,0.3l7,5.1L485.2,227z M33.1,143.7c1.4,10.3,3.7,19.2,5.4,25.1
		c-15-19-18.1-41.4-17.8-57.5c0.2-15.6,3.5-28.2,4.8-32.6c4.5,2.6,9.2,5.1,14.2,6.8C30.2,104.5,30.8,127.5,33.1,143.7z M464.1,224.9
		c-2.9-9-10.7-15.8-19.6-18.9c-5.6-2.1-11.7-3.1-17.7-2.2c10.8,2.9,22.4,6.1,29.7,15c1.3,1.5,2.3,3.2,3.2,4.9
		c-4.1-2.1-10.4-3.6-17,1.4c-3.7-10.9-15.9-17-27.2-16c8.1,1.8,16.2,5.3,21.2,12.1c0.8,1,1.4,2.2,2,3.3c-3.3-1.5-8.1-2.9-11.8-1.1
		c-2.2,1-3.8,3-4.6,5.9c-4.3-3.4-14.3-13-41.2-14.7c-12.7-0.8-30.3,2.8-50.9,4.9c-22.9,2.3-37.1-0.1-49.7-2.2
		c-5.6-0.9-10.8-1.8-16.1-2.1c5.8-1.5,11.5-3.4,16.8-6.1c-18.3,4-38.4,7.9-56.8,11.2c-39.9,5.2-57.8,0.6-61.7-0.7
		c-5.5-5.1-13-8-20-9.8c-2.8-0.7-5.8-1-8.6-1.4c-8.5-1.6-11.9-10.7-14.7-18c-0.9,9.1,4.5,19.5,14,21.6c8.4,1.1,16.8,3.4,23.8,8.1
		c1,0.7,2,1.4,3,2.3c-9.8-4.6-25.4-6.1-31.3-5.7c6.3,2.1,32.5,6.7,36.3,14.1c0,0.4-0.1,0.8-0.2,1.2l-5.8,0.4
		c-2.5-1.8-5.3-3.3-8.1-4.6c-6.2-2.7-12.7-4.7-19.4-5.5c-3.3-0.4-6.7-0.5-10.1-0.1c1.6,0.5,3.2,0.9,4.8,1.3
		c9.7,2.5,19.4,5.4,28.3,10c-3.2,0.4-6.5,0.4-9.7,0.4c-14-0.4-36.1-3.5-44.5-15.7c-0.4-0.7-0.8-1.4-1.2-2.1
		c-3.7-7.4-7.6-14.8-11.7-22c-3.5-6.2-7.2-12.6-12.6-17.4c2.3,4.9,4.8,9.8,7.4,14.7c-18.4-12.1-28.9-31.6-31.3-58
		c-1.6-17.9,1.2-33.6,2.3-38.5c5.2,1.3,10.5,2.1,15.8,2.3c13.7,0.6,27.3-3.4,34.4-16c0.6-1.1,1.1-2.3,1.6-3.4l0.8-2.4
		c0.6-1.5,0.9-3.3,1.3-4.9c-0.6,1.3-1.3,3.3-2,4.5C93.7,99.8,63.6,95.4,42,87.7c0.2-0.4,0.4-0.8,0.6-1.3C47,87.6,51.5,88,56,87.2
		c6-1.1,11.1-4.2,12.9-10.3c0.5-1.5,0.7-3.1,0.8-4.7c-1.5,2.8-2.9,5.4-4.9,7.4c-6.4,6.3-16.3,5.7-24.4,2.7
		C32,79.2,23.9,74.5,17,68.8C12.5,64.9,9,60.2,8.7,55c14.8-0.8,10.5-13.2,9-16.7c1.6-1.6,3.5-2.6,5.6-3.7C29.5,31.4,36,28,41.1,23
		C52.8,11.8,68.2,2.5,84.9,3.3c8.9,0.4,17.5,4.2,24.4,9.7c2.3,1.8,4.6,4,6.6,6.1c2.1,2.2,4,4.7,6,7.1c0.5,0.7,1,1.4,1.5,2.1
		c4.2,6.1,7.9,12.6,9.3,19.9c0.3,1.9,0.5,3.9,0.4,5.9c2.1-6,1-12.6-1.8-18.8c8.9,7.6,17.5,15.5,25.1,24.3c4,4.6,7.7,9.5,11.6,14.2
		c-1.5-6.1-5.2-11.5-9.1-16.3c-3-3.8-6.4-7.4-9.8-10.8c7.8,4.7,15.6,9.3,23.6,13.7c10.5,5.6,21.1,11,32.3,15
		c3.8,1.3,7.6,2.5,11.6,3.2c2,0.3,3.9,0.5,5.9,0.8c5.7,0.9,11.4,2.4,16.8,4.4c14.7,5.1,28.1,13.5,40.3,23c6.2,4.8,12,9.9,17.6,15.5
		c-4.1-6.8-9.6-12.7-15.6-18c-2.5-2.2,24.2,5.3,67.4,52.7c27.7,30.4,32.8,39.6,51.5,36c23-4.5,56-0.7,78.3,30.5
		C474.4,221.8,468.7,221.3,464.1,224.9z M162.8,214c8.7,2.5,17.9,3.3,26.9,3.7c14,0.4,28.1-1,41.8-3.9c3.2-0.7,6.4-1.5,9.6-2.4
		c-4.7,0.5-9.9,1.3-14.7,1.8C205.3,215.5,183.9,216.5,162.8,214z M74.9,33.6c-0.2-1.2-0.7-2.4-1.4-3.5c-1.3-1.9-3.3-3.1-5.5-3.5
		c-2.2-0.4-4.5,0.1-6.4,1.4c-1.3,0.9-2.2,2.1-2.9,3.4C57,33,55,32.9,55,32.9c1.6,0.6,2.5,1.7,2.9,2.6c0.1,1.5,0.6,3,1.5,4.3
		c1.7,2.4,4.3,3.7,7,3.7c1.7,0,3.4-0.5,4.9-1.5c1-0.7,1.8-1.6,2.4-2.6c2.3-1.9,5.2-1.8,5.2-1.8C76.8,36.8,75.5,34.9,74.9,33.6z
		 M70.3,40.5c-3,2.1-7.2,1.4-9.3-1.7c-0.2-0.3-0.4-0.7-0.6-1c1.6,2.3,4.8,2.8,7,1.2c0.1-0.1,0.3-0.2,0.4-0.3
		c-0.8-0.1-1.6-0.6-2.1-1.3c-1-1.4-0.6-3.4,0.8-4.4c0.8-0.5,1.7-0.7,2.5-0.5c-0.1-0.2-0.2-0.4-0.3-0.6c-1.6-2.3-4.8-2.9-7.1-1.3
		c-0.3,0.2-0.6,0.5-0.9,0.8c0.5-0.8,1.1-1.4,1.9-2c1.1-0.8,2.5-1.2,3.8-1.2c0.4,0,0.8,0,1.2,0.1c1.8,0.3,3.3,1.3,4.3,2.8
		C74,34.2,73.3,38.3,70.3,40.5z M54.6,119.2c-0.8,16.4,2.9,40,13.9,52.6c-4.4-8.1-6.9-16.8-8.9-25.7
		C57.5,137.3,56.1,128.3,54.6,119.2z M63.6,67.2c-11.5-2.8-22.2-7.6-32.1-13.9C39.4,61.4,52.1,67.2,63.6,67.2z M57.2,78.4
		C46,73.3,37.3,64.4,28.6,56C34.7,65.6,45.7,76.2,57.2,78.4z M31.9,50.3c1.1,0,2-0.9,2-2c0-1.1-0.9-2-2-2c-1.1,0-2,0.9-2,2
		C29.9,49.4,30.8,50.3,31.9,50.3z M25.7,40.9c-1.1,0-2,0.9-2,2s0.9,2,2,2c1.1,0,2-0.9,2-2S26.9,40.9,25.7,40.9z M24.4,50.2
		c-1.1,0-2,0.9-2,2c0,1.1,0.9,2,2,2c1.1,0,2-0.9,2-2C26.4,51.1,25.5,50.2,24.4,50.2z M24.4,50.2c-1.1,0-2,0.9-2,2c0,1.1,0.9,2,2,2
		c1.1,0,2-0.9,2-2C26.4,51.1,25.5,50.2,24.4,50.2z M25.7,40.9c-1.1,0-2,0.9-2,2s0.9,2,2,2c1.1,0,2-0.9,2-2S26.9,40.9,25.7,40.9z
		 M31.9,46.2c-1.1,0-2,0.9-2,2c0,1.1,0.9,2,2,2c1.1,0,2-0.9,2-2C33.9,47.1,33,46.2,31.9,46.2z M28.6,56c6.1,9.6,17.1,20.3,28.6,22.4
		C46,73.3,37.3,64.4,28.6,56z M31.4,53.3c8,8.1,20.7,13.9,32.1,13.9C52.1,64.4,41.4,59.6,31.4,53.3z M59.6,146.2
		c-2.1-8.9-3.5-17.9-5-26.9c-0.8,16.4,2.9,40,13.9,52.6C64.2,163.8,61.6,155,59.6,146.2z M74.9,33.6c-0.2-1.2-0.7-2.4-1.4-3.5
		c-1.3-1.9-3.3-3.1-5.5-3.5c-2.2-0.4-4.5,0.1-6.4,1.4c-1.3,0.9-2.2,2.1-2.9,3.4C57,33,55,32.9,55,32.9c1.6,0.6,2.5,1.7,2.9,2.6
		c0.1,1.5,0.6,3,1.5,4.3c1.7,2.4,4.3,3.7,7,3.7c1.7,0,3.4-0.5,4.9-1.5c1-0.7,1.8-1.6,2.4-2.6c2.3-1.9,5.2-1.8,5.2-1.8
		C76.8,36.8,75.5,34.9,74.9,33.6z M70.3,40.5c-3,2.1-7.2,1.4-9.3-1.7c-0.2-0.3-0.4-0.7-0.6-1c1.6,2.3,4.8,2.8,7,1.2
		c0.1-0.1,0.3-0.2,0.4-0.3c-0.8-0.1-1.6-0.6-2.1-1.3c-1-1.4-0.6-3.4,0.8-4.4c0.8-0.5,1.7-0.7,2.5-0.5c-0.1-0.2-0.2-0.4-0.3-0.6
		c-1.6-2.3-4.8-2.9-7.1-1.3c-0.3,0.2-0.6,0.5-0.9,0.8c0.5-0.8,1.1-1.4,1.9-2c1.1-0.8,2.5-1.2,3.8-1.2c0.4,0,0.8,0,1.2,0.1
		c1.8,0.3,3.3,1.3,4.3,2.8C74,34.2,73.3,38.3,70.3,40.5z M226.4,213.1c-21.1,2.4-42.5,3.3-63.7,0.9c8.7,2.5,17.9,3.3,26.9,3.7
		c14,0.4,28.1-1,41.8-3.9c3.2-0.7,6.4-1.5,9.6-2.4C236.4,211.8,231.2,212.6,226.4,213.1z M226.4,213.1c-21.1,2.4-42.5,3.3-63.7,0.9
		c8.7,2.5,17.9,3.3,26.9,3.7c14,0.4,28.1-1,41.8-3.9c3.2-0.7,6.4-1.5,9.6-2.4C236.4,211.8,231.2,212.6,226.4,213.1z M74.9,33.6
		c-0.2-1.2-0.7-2.4-1.4-3.5c-1.3-1.9-3.3-3.1-5.5-3.5c-2.2-0.4-4.5,0.1-6.4,1.4c-1.3,0.9-2.2,2.1-2.9,3.4C57,33,55,32.9,55,32.9
		c1.6,0.6,2.5,1.7,2.9,2.6c0.1,1.5,0.6,3,1.5,4.3c1.7,2.4,4.3,3.7,7,3.7c1.7,0,3.4-0.5,4.9-1.5c1-0.7,1.8-1.6,2.4-2.6
		c2.3-1.9,5.2-1.8,5.2-1.8C76.8,36.8,75.5,34.9,74.9,33.6z M70.3,40.5c-3,2.1-7.2,1.4-9.3-1.7c-0.2-0.3-0.4-0.7-0.6-1
		c1.6,2.3,4.8,2.8,7,1.2c0.1-0.1,0.3-0.2,0.4-0.3c-0.8-0.1-1.6-0.6-2.1-1.3c-1-1.4-0.6-3.4,0.8-4.4c0.8-0.5,1.7-0.7,2.5-0.5
		c-0.1-0.2-0.2-0.4-0.3-0.6c-1.6-2.3-4.8-2.9-7.1-1.3c-0.3,0.2-0.6,0.5-0.9,0.8c0.5-0.8,1.1-1.4,1.9-2c1.1-0.8,2.5-1.2,3.8-1.2
		c0.4,0,0.8,0,1.2,0.1c1.8,0.3,3.3,1.3,4.3,2.8C74,34.2,73.3,38.3,70.3,40.5z M59.6,146.2c-2.1-8.9-3.5-17.9-5-26.9
		c-0.8,16.4,2.9,40,13.9,52.6C64.2,163.8,61.6,155,59.6,146.2z M31.4,53.3c8,8.1,20.7,13.9,32.1,13.9C52.1,64.4,41.4,59.6,31.4,53.3
		z M28.6,56c6.1,9.6,17.1,20.3,28.6,22.4C46,73.3,37.3,64.4,28.6,56z M31.9,46.2c-1.1,0-2,0.9-2,2c0,1.1,0.9,2,2,2c1.1,0,2-0.9,2-2
		C33.9,47.1,33,46.2,31.9,46.2z M25.7,40.9c-1.1,0-2,0.9-2,2s0.9,2,2,2c1.1,0,2-0.9,2-2S26.9,40.9,25.7,40.9z M24.4,50.2
		c-1.1,0-2,0.9-2,2c0,1.1,0.9,2,2,2c1.1,0,2-0.9,2-2C26.4,51.1,25.5,50.2,24.4,50.2z"/>
</g>
</svg>
