<?xml version="1.0" encoding="utf-8"?>
<!-- Generator: Adobe Illustrator 28.3.0, SVG Export Plug-In . SVG Version: 6.00 Build 0)  -->
<svg version="1.1" id="wolf" xmlns="http://www.w3.org/2000/svg" xmlns:xlink="http://www.w3.org/1999/xlink" x="0px" y="0px"
	 viewBox="0 0 384.272 490" enable-background="new 0 0 384.272 490" xml:space="preserve">
<g id="wolf_00000178183667891665935580000017827130631001889670_">
	<g>
		<path fill="#A3A3A3" d="M380.477,465.367c-5.855-17.897-16.025-31.072-30.228-39.161c-12.21-6.953-27.75-10.334-46.239-10.079
			c6.68-1.425,13.73-1.763,21.003-1.009l0.947,0.099l-0.673-0.673c-28.499-28.473-67.384-24.727-71.406-24.248l-0.28-1.837
			l-0.4,1.691c-0.221,0.934-0.491,1.921-0.803,2.934l-0.054,0.174c-1.726,5.536-4.431,10.586-8.037,15.008l-1.803,2.209
			l-0.566-2.783c-0.007-0.041-1.048-5.059-3.021-11.012l-0.676-2.041l0.018,2.15c0.102,11.737-1.714,27.154-10.949,33.951
			l-2.576,1.895l0.436-3.157c0.009-0.049,0.741-5.544-0.658-11.339l-0.412-1.705l-0.25,1.736c-0.688,4.777-1.84,9.445-3.425,13.876
			c-4.876,13.632-13.592,23.617-25.206,28.876l-0.279,0.127l0.1,0.29c0.394,1.149,0.675,2.326,0.835,3.495
			c0.157,1.257,0.165,2.445,0.026,3.533l-0.03,0.232l0.207,0.109c13.012,6.876,28.648,8.997,42.994,8.997
			c15.053-0.001,28.684-2.337,36.35-3.966l1.095-0.233l-1.041-0.411c-5.357-2.116-10.222-4.798-14.496-7.99
			c5.631,2.479,10.467,4.316,15.054,5.724c11.736,3.703,24.126,5.096,36.821,4.138c4.893-0.364,9.594-1.021,13.972-1.95l0.969-0.206
			l-0.893-0.429c-3.108-1.491-5.721-3.37-7.798-5.603c3.96,2.509,8.443,4.284,13.362,5.287c14.248,2.839,28.866-0.487,41.29-4.117
			c2.037-0.612,4.229-1.338,6.515-2.158l0.308-0.111L380.477,465.367z M360.529,440.097c-2.617-1.487-5.208-3.046-7.732-4.563
			c-6.841-4.115-13.895-8.358-21.582-11.237C341.214,425.115,352.934,432.402,360.529,440.097z M274.007,395.878
			c-5.104-0.499-10.309-0.75-15.538-0.75c-1.742,0-3.487,0.028-5.231,0.084l-0.2-1.584c12.815-1.809,27.163,0.03,39.051,4.94
			C286.303,397.471,280.193,396.444,274.007,395.878z"/>
		<path fill="#A3A3A3" d="M51.474,107.377l-3.556,7.53c-3.165,7.078-5.729,14.879-6.039,22.713c0.951-1.397,1.923-2.794,2.922-4.177
			c2.139-2.895,4.136-5.688,6.775-8.253l5.196-4.926c-2.152,5.965-4.852,12.767-5.614,19.089c-0.391,2.935-0.641,6.248,0.095,9.15
			c5.283-6.606,12.726-11.775,21.276-12.625l2.348-0.243c-0.985,3.812-1.754,8.144-0.601,11.997
			c0.135,0.439,0.304,0.857,0.499,1.255c7.8-5,17.612-4.642,24.98,1.289c0.014,0.027,0.034,0.061,0.047,0.094
			c4.825-0.074,9.508,0.607,13.522,2.436c-4.123-0.459-8.232-0.418-12.335-0.101c0.655,1.208,1.363,2.402,2.125,3.563
			c3.522-0.459,6.984-0.418,10.209,0.331c-3.03,0.27-6.006,0.796-8.934,1.498c3.853,5.277,8.873,9.723,14.912,12.126
			c13.415,5.243,25.115-1.876,32.848-12.281c-2.713-0.621-5.459-1.093-8.252-1.343c3.01-0.695,6.221-0.776,9.501-0.418
			c0.783-1.147,1.511-2.321,2.193-3.522c-3.887-0.277-7.787-0.283-11.694,0.149c3.846-1.748,8.313-2.456,12.929-2.443
			c0.027-0.061,0.054-0.108,0.054-0.108l0.317-0.236c7.294-5.715,17.004-5.931,24.636-1.032c0.655-1.329,0.951-2.868,1.039-4.366
			c0.229-2.935-0.412-6.073-1.134-8.887l2.348,0.243c4.791,0.459,9.379,2.348,13.28,5.095c3.03,2.139,5.702,4.649,7.996,7.517
			c0.729-2.901,0.479-6.208,0.088-9.136c-0.756-6.309-3.428-13.145-5.614-19.089l5.196,4.926c3.759,3.819,6.781,8.097,9.723,12.483
			c-0.128-3.05-0.628-6.1-1.316-9.069c-1.532-7.126-5.128-14.683-8.3-21.228c3.09,2.74,9.541,8.522,14.11,12.605
			c-0.56-4.292-1.552-8.603-2.935-12.659c-1.619-4.737-3.92-9.13-7.126-12.956l-1.377-1.707
			c-6.572-8.158-16.303-19.143-21.552-28.104c3.387,2.625,6.498,5.526,9.474,8.57c-0.202-1.39-0.337-2.773-0.432-4.157
			c-0.533-8.165,0.573-16.276,1.188-24.38c0.708-12.132-0.081-24.811-5.25-35.925c-1.383-3.698-4.534-6.201-8.597-5.31
			c-1.302,0.317-2.53,0.924-3.752,1.484c-5.074,2.476-9.582,6.093-13.732,10.034c-8.414,8.05-15.277,17.443-22.416,26.714
			c1.397-3.684,3.111-7.227,5.074-10.628l-14.879,6.35l4.271,1.822h-17.146l4.278-1.822l-14.879-6.35
			c1.964,3.401,3.678,6.943,5.074,10.628c-7.139-9.271-14.002-18.664-22.416-26.714c-4.157-3.941-8.657-7.558-13.732-10.034
			c-1.221-0.56-2.456-1.167-3.752-1.484c-4.076-0.891-7.213,1.606-8.597,5.31c-5.175,11.114-5.958,23.792-5.25,35.925
			c0.614,8.104,1.721,16.215,1.188,24.38c-0.088,1.242-0.202,2.49-0.371,3.732c2.8-2.821,5.695-5.553,8.745-8.145
			c-6.579,10.149-16.896,21.876-24.339,31.451c-4.211,5.749-6.559,12.672-7.942,19.643c-0.283,1.424-0.52,2.881-0.709,4.332
			c3.246-2.908,7.915-7.078,7.915-7.078L51.474,107.377z M170.497,97.593c-0.007,0.02-1.073,1.876-1.802,4.811
			c-0.121,0.493-0.236,1.019-0.358,1.559c-0.695,3.144-1.559,7.051-4.595,9.791c-2.861,2.578-6.424,3.057-9.568,3.482
			c-0.594,0.081-1.174,0.162-1.727,0.25c-3.205,0.533-4.899,1.437-4.919,1.444l-1.404,0.762l-0.094-1.592
			c-0.02-0.439-0.493-10.688,6.215-16.728c6.667-6.005,17.018-5.331,17.45-5.297l1.619,0.115L170.497,97.593z M149.843,87.674
			c2.645-6.7,9.784-14.737,17.267-15.587C160.787,76.736,155.97,82.802,149.843,87.674z M190.437,25.055
			c0.742,9.447,0.128,19.784-0.034,29.265c-3.381-10.85-2.227-22.477-4.373-33.489c-0.695-2.875-1.687-6.788-5.351-5.418
			c-3.529,1.127-6.39,3.637-9.224,6.262c-4.588,4.481-8.583,9.487-13.158,14.089C163.264,22.086,188.305-5.31,190.437,25.055z
			 M158.372,65.271c-5.412,7.159-8.671,15.56-12.632,23.556c-0.56,1.167-1.113,2.341-1.788,3.489
			C144.802,82.998,149.91,70.082,158.372,65.271z M111.239,118.099l-0.088,1.606l-1.41-0.776c-0.014-0.007-1.714-0.911-4.919-1.444
			c-0.553-0.088-1.127-0.169-1.721-0.25c-3.151-0.425-6.714-0.911-9.575-3.482c-3.036-2.74-3.9-6.653-4.595-9.791
			c-0.121-0.547-0.236-1.066-0.358-1.559c-0.729-2.956-1.788-4.791-1.802-4.811l-0.816-1.403l1.619-0.115
			c0.439-0.034,10.783-0.708,17.45,5.297C111.731,107.411,111.259,117.661,111.239,118.099z M90.159,72.086
			c7.483,0.85,14.622,8.88,17.267,15.587C101.306,82.802,96.482,76.736,90.159,72.086z M139.33,151.831
			c0.54-0.54,1.424-0.547,1.964-0.007c0.547,0.54,0.547,1.424,0.007,1.964c-0.54,0.547-1.417,0.547-1.964,0.007
			C138.79,153.255,138.79,152.378,139.33,151.831z M139.438,155.745c0.547,0.54,0.547,1.417,0.007,1.964
			c-0.54,0.547-1.417,0.547-1.964,0.007c-0.547-0.54-0.547-1.424-0.007-1.964C138.014,155.205,138.891,155.205,139.438,155.745z
			 M115.929,151.824c0.54-0.54,1.424-0.533,1.964,0.007c0.54,0.547,0.533,1.424-0.007,1.964c-0.547,0.54-1.424,0.54-1.964-0.007
			C115.382,153.248,115.382,152.364,115.929,151.824z M119.748,155.752c0.54,0.54,0.54,1.424-0.007,1.964
			c-0.547,0.54-1.424,0.54-1.964-0.007c-0.54-0.547-0.54-1.424,0.007-1.964C118.324,155.205,119.208,155.205,119.748,155.752z
			 M119.903,160.036c2.166-0.864,4.082-2.416,5.816-4.055c-6.599-1.849-5.965-6.451-5.965-6.451
			c-0.013-7.956,6.107-8.772,8.887-8.732c2.78-0.041,8.9,0.776,8.887,8.732c0,0,0.634,4.616-5.999,6.464
			c2.854,2.686,6.235,5.229,10.317,4.528c1.586-0.25,3.144-0.992,4.642-1.923c-1.019,1.431-2.395,2.713-4.136,3.516
			c-4.784,2.146-10.29-0.196-13.725-3.907c-4.825,5.257-13.286,7.045-17.881,0.391C113.526,160.428,116.84,161.305,119.903,160.036z
			 M113.324,92.316c-0.675-1.147-1.235-2.321-1.795-3.489c-3.961-7.996-7.22-16.397-12.632-23.556
			C107.359,70.082,112.467,82.991,113.324,92.316z M66.879,54.32c-0.162-9.501-0.776-19.805-0.034-29.265
			c2.132-30.372,27.173-2.955,32.139,10.709c-4.582-4.595-8.57-9.609-13.165-14.089c-2.827-2.625-5.688-5.135-9.217-6.262
			c-3.664-1.37-4.663,2.544-5.351,5.418C69.106,31.843,70.253,43.469,66.879,54.32z"/>
		<path fill="#A3A3A3" d="M252.326,363.496c-6.025-26.672-16.46-38.226-16.46-38.226l-3.927-16.089c0,0,9.611,8.43,11.77,13.07
			c0,0,0.377-22.758-9.503-40.497c-9.388-16.856-19.329-43.733-19.329-43.733s-2.896,6.667-10.258,15.981l-21.449,20.483
			c0,0-5.831,27.922-55.49,56.719c-49.642-28.796-53.374-56.528-53.374-56.528l-23.565-20.675
			c-7.362-9.314-10.258-15.981-10.258-15.981s-8.207,27.968-19.329,43.733c-11.122,15.765-9.503,40.497-9.503,40.497
			c2.16-4.64,11.77-13.07,11.77-13.07l-3.927,16.089c0,0-10.435,11.554-16.46,38.226c-6.025,26.672,8.185,42.437,8.185,42.437
			l7.019-14.686c-2.592,30.451,9.934,36.822,9.934,36.822c-0.972-6.047,3.455-16.845,3.455-16.845s0,0,4.319,19.653
			c4.319,19.653,25.407,29.621,25.407,29.621c4.458-10.441,12.064-5.844,12.064-5.844c3.455-2.139,7.483,0.007,7.483,0.007
			c2.516-2.672,5.907-0.007,5.907-0.007l7.991,8.078c3.347-3.348,8.531-0.972,8.531-0.972c3.995-5.291,11.23,0.432,11.23,0.432
			c5.615-0.648,9.287,7.451,9.287,7.451l3.242,5.906v2.156l0.592-1.078l0.592,1.078v-2.156l3.242-5.906c0,0,3.671-8.099,9.287-7.451
			c0,0,7.235-5.723,11.23-0.432c0,0,5.183-2.376,8.531,0.972l7.991-8.078c0,0,3.392-2.665,5.907,0.007c0,0,4.027-2.146,7.483-0.007
			c0,0,7.606-4.596,12.064,5.844c0,0,21.087-9.968,25.407-29.621c4.319-19.653,4.319-19.653,4.319-19.653s4.427,10.798,3.455,16.845
			c0,0,12.526-6.371,9.934-36.822l7.019,14.686C244.141,405.934,258.351,390.168,252.326,363.496z"/>
	</g>
	<g>
		<path fill="#FFFFFF" d="M192.119,461.262c-0.749-1.827-1.782-3.464-2.991-4.735c-1.694-1.758-3.531-2.536-4.786-2.03
			c-0.525,0.206-0.939,0.598-1.265,1.196l-0.766,1.388l-1.253-0.983c-0.397-0.312-0.787-0.567-1.156-0.754
			c-1.272-0.683-2.382-0.845-3.299-0.482c-0.443,0.175-0.822,0.465-1.159,0.886l-0.053,0.066l-0.538,2.871l-1.381-2.472
			l-0.202-0.241c-0.63-0.681-1.898-1.795-3.318-1.621c-0.93,0.25-3.674,2.999-3.759,6.133l-0.005,0.208l0.183,0.099
			c1.338,0.722,2.576,1.85,3.68,3.35c1.368,1.875,2.43,4.169,3.071,6.635c0.463,1.744,0.697,3.513,0.697,5.258l-0.036,1.374
			l0.561-0.414c1.019-0.753,1.859-2.247,2.366-4.207l0.17-0.653l0.418-2.953l1.557,2.851l0.146,0.159
			c2.011,2.118,4.215,3.055,5.761,2.443c0.948-0.376,1.664-1.315,2.068-2.717l0.015-0.053l-0.147-3.51l2.134,2.741l0.072,0.034
			c0.901,0.43,1.734,0.519,2.408,0.252c1.027-0.404,1.514-1.529,1.742-2.401l0.001-0.001c0.274-1.07,0.324-2.381,0.142-3.792
			C193.022,463.886,192.66,462.565,192.119,461.262z"/>
		<path fill="#FFFFFF" d="M167.875,465.738c-1.075-1.466-2.178-2.242-2.911-2.634c-0.094-0.051-0.19-0.102-0.262-0.134l-0.081-0.037
			c-0.697-0.286-1.35-0.354-1.933-0.204c-0.625,0.16-1.185,0.568-1.665,1.212l-0.939,1.268l-1.109-1.13
			c-0.406-0.406-0.814-0.755-1.211-1.036c-0.333-0.237-0.599-0.401-0.825-0.514c-1.035-0.554-2.005-0.727-2.89-0.508
			c-0.511,0.133-0.997,0.409-1.445,0.82l-0.069,0.063l-0.955,3.273l-1.135-3.193l-0.089-0.149c-0.749-1.066-1.965-2.337-3.502-2.337
			c-1.838,0-3.21,1.815-3.867,2.9l-0.187,0.329l-1.06,2.838l-0.923-2.946l-0.105-0.066c-0.344-0.219-0.646-0.358-0.955-0.441
			c-2.901-0.719-7.405,3.278-9.22,10.175c-1.129,4.336-0.878,8.646,0.657,11.249c0.647,1.091,1.455,1.766,2.401,2.004
			c1.951,0.496,4.41-0.992,6.404-3.879l0.277-0.398l1.319-3.885l0.689,4.339l0.048,0.131c1.21,2.577,2.901,4.115,4.522,4.115
			c1.792,0,3.599-1.807,4.833-4.832l0.15-0.378l0.883-3.599l1.265,3.616l0.045,0.088c1.958,2.681,4.334,4.059,6.199,3.583
			c1.447-0.365,2.309-1.692,2.777-2.74l0.268-4.111l1.923,3.537l0.075,0.047c0.977,0.608,1.889,0.812,2.71,0.608
			c0.998-0.251,1.829-1.123,2.403-2.521c0.209-0.511,0.374-1.082,0.491-1.695c0.08-0.402,0.141-0.809,0.181-1.218
			c0.021-0.239,0.028-0.499,0.035-0.759l0.012-0.214c0.008-0.117,0.015-0.234,0.015-0.358c0-1.482-0.204-3.016-0.605-4.559
			C169.952,469.312,169.04,467.334,167.875,465.738z"/>
		<path fill="#FFFFFF" d="M114.887,463.121c-0.304,0.078-0.612,0.22-0.944,0.435l-0.101,0.067l-0.924,2.946l-1.087-2.898
			l-0.168-0.275c-0.654-1.081-2.026-2.896-3.865-2.896c-1.537,0-2.752,1.27-3.516,2.358l-1.209,3.323l-0.957-3.276l-0.069-0.063
			c-0.448-0.411-0.934-0.687-1.45-0.821c-0.881-0.216-1.84-0.05-2.843,0.491c-0.255,0.128-0.518,0.29-0.853,0.525
			c-0.41,0.287-0.811,0.628-1.228,1.045l-1.106,1.128l-0.938-1.267c-0.472-0.643-1.033-1.052-1.667-1.214
			c-0.58-0.149-1.227-0.082-1.921,0.195c-0.026,0.01-0.057,0.025-0.09,0.042l0.152,0.302l-0.213-0.272l-0.136,0.071
			c-0.61,0.316-1.808,1.083-2.978,2.672c-1.159,1.586-2.068,3.565-2.631,5.72c-0.269,1.014-0.452,2.062-0.544,3.123l-0.026,0.313
			c-0.009,0.133-0.013,0.269-0.016,0.405l-0.013,0.351c-0.007,0.126-0.013,0.251-0.013,0.378c0.007,0.911,0.088,1.762,0.242,2.522
			c0.115,0.616,0.28,1.194,0.492,1.721c0.401,0.971,1.145,2.194,2.409,2.512c1.026,0.262,2.037-0.188,2.705-0.608l0.074-0.047
			l1.922-3.537l0.241,3.993l0.028,0.117c0.469,1.048,1.331,2.375,2.781,2.74c1.865,0.48,4.238-0.894,6.194-3.583l1.311-3.708
			l0.904,3.65l0.134,0.33c1.228,3.027,3.032,4.833,4.827,4.833c1.622,0,3.313-1.538,4.538-4.146l0.727-4.439l1.271,3.793l0.319,0.49
			c1.999,2.886,4.451,4.374,6.406,3.879c0.954-0.241,1.762-0.915,2.401-2.005c1.54-2.602,1.792-6.915,0.656-11.255
			C122.295,466.37,117.789,462.385,114.887,463.121z"/>
		<path fill="#FFFFFF" d="M84.601,464.147c1.083-1.479,2.359-2.64,3.688-3.357l0.183-0.099l-0.006-0.208
			c-0.093-3.163-2.87-5.901-3.852-6.148c-1.334-0.165-2.592,0.954-3.226,1.638l-0.162,0.176l-1.426,2.534l-0.534-2.871l-0.055-0.067
			c-0.343-0.419-0.72-0.708-1.156-0.884c-1.15-0.451-2.41,0.003-3.261,0.46c-0.397,0.206-0.789,0.459-1.201,0.777l-1.247,0.983
			l-0.767-1.388c-0.332-0.597-0.745-0.988-1.262-1.195c-1.28-0.509-3.075,0.25-4.803,2.038c-1.201,1.263-2.233,2.895-2.982,4.719
			c-0.536,1.3-0.896,2.625-1.069,3.939c-0.183,1.425-0.134,2.733,0.144,3.785c0.227,0.872,0.712,1.996,1.734,2.402
			c0.86,0.337,1.785,0.048,2.409-0.253l0.071-0.034l2.14-2.74l-0.152,3.502l0.015,0.053c0.407,1.407,1.124,2.349,2.076,2.723
			c1.538,0.612,3.747-0.324,5.763-2.447l1.699-3.008l0.42,2.994l0.161,0.613c0.508,1.955,1.35,3.45,2.373,4.207l0.583,0.432
			l-0.045-0.724c-0.013-0.215-0.02-0.438-0.02-0.667c0-1.745,0.235-3.514,0.697-5.258C82.184,468.29,83.245,465.998,84.601,464.147z
			"/>
		<path fill="#FFFFFF" d="M74.059,272.075c1.433,1.077,2.921,2.103,4.359,3.094c3.192,2.2,6.482,4.469,9.268,7.374
			c-2.188-0.607-4.186-1.479-5.883-2.274c-1.841-0.932-3.796-2.092-5.977-3.543l-0.84-0.559l0.335,0.952
			c2.59,7.359,10.592,22.439,35.089,40.753c4.632,3.465,10.352,7.569,17.648,11.724l0.171,0.097l0.169-0.1
			c5.095-3.029,14.271-8.578,18.477-11.72c25.052-18.722,32.888-34.013,35.329-41.462l0.308-0.94l-0.818,0.556
			c-1.864,1.267-4.346,2.893-7.005,4.238c-1.714,0.801-3.72,1.675-5.899,2.279c2.789-2.909,6.085-5.181,9.283-7.384
			c1.435-0.989,2.919-2.011,4.345-3.08c14.686-10.493,47.508-38.826,35.151-75.236l-0.382-1.125l-0.266,1.158
			c-1.813,7.876-5.428,15.808-10.74,23.569c-2.251,3.09-4.611,5.532-7.189,7.432c1.34-2.975,2.987-5.647,4.721-8.458l0.266-0.43
			c4.325-6.8,7.418-13.624,9.19-20.281c0.734-2.69,1.26-5.496,1.562-8.34l0.013-0.121l-0.021-0.032l0.028-0.133
			c0.82-8.155-0.257-16.461-3.117-24.019c-2.213-5.909-5.386-11.546-9.181-16.306c-3.619-4.32-7.931-7.556-12.469-9.355
			c-0.639-0.252-1.316-0.478-2.069-0.692l-1.137-0.324l0.795,0.874c4.062,4.466,17.195,20.517,15.67,39.545l-0.411,5.086
			l-2.158-4.619c-0.018-0.038-1.897-4.012-4.907-7.405l-1.349-1.52l0.785,1.875c2.565,6.124,4.768,15.558,0.7,25.716l-1.527,3.821
			l-1.031-3.989c-0.44-1.721-1.804-5.653-3.813-8.215l-0.69-0.88l0.088,1.114c0.545,6.911,0.296,20.393-7.496,33.037l-1.786,2.903
			l-0.684-3.361c-0.165-0.767-1.064-4.777-2.614-8.404l-0.43-1.007l-0.211,1.074c-0.704,3.584-2.221,9.225-5.451,15.746
			c-5.264,10.643-16.262,25.703-38.744,37.002l-3.16,1.44l-3.087-1.408c-22.54-11.327-33.546-26.392-38.811-37.035
			c-3.228-6.518-4.746-12.16-5.451-15.746l-0.211-1.074l-0.43,1.007c-1.602,3.749-2.517,7.948-2.618,8.425l-0.68,3.342l-1.792-2.904
			c-7.783-12.651-8.032-26.111-7.488-33.009l0.088-1.117l-0.69,0.883c-2.111,2.698-3.469,6.825-3.813,8.187l-1.026,4.002
			l-1.539-3.834c-4.062-10.16-1.858-19.593,0.707-25.716l0.782-1.868l-1.346,1.514c-3.032,3.409-4.891,7.37-4.905,7.402
			l-2.159,4.617l-0.411-5.081c-1.532-19.065,11.627-35.113,15.696-39.578l0.801-0.878l-1.143,0.327
			c-2.741,0.784-5.381,2.058-7.844,3.784c-3.856,2.652-7.397,6.458-10.267,11.03l-0.04-0.07l-0.3,0.474
			c-6.878,10.847-9.946,23.347-8.641,35.198l0.017,0.154l0.007,0.005l-0.003,0.005l0.026,0.281c0.667,6.136,2.461,12.403,5.33,18.62
			c1.414,3.286,3.303,6.373,5.128,9.358c1.054,1.724,2.145,3.506,3.137,5.316c0.686,1.161,1.455,2.522,2.14,4.064
			c-2.593-1.904-4.959-4.35-7.206-7.442c-5.304-7.705-8.928-15.678-10.772-23.697l-0.262-1.136l-0.385,1.1
			c-5.182,14.773-2.401,32.889,7.256,47.274C52.669,253.918,62.063,263.367,74.059,272.075z M47.643,237.056
			c2.915,2.959,6.32,6.555,9.376,9.784c1.55,1.638,3.037,3.208,4.372,4.603c2.417,2.577,4.905,5.112,7.312,7.565
			c2.152,2.193,4.364,4.447,6.545,6.75C64.237,259.718,53.503,248.557,47.643,237.056z M181.804,265.757
			c2.194-2.32,4.422-4.591,6.59-6.8c2.389-2.436,4.86-4.955,7.26-7.513c1.413-1.474,2.987-3.137,4.623-4.864
			c2.969-3.135,6.277-6.628,9.127-9.523C203.553,248.55,192.82,259.71,181.804,265.757z M204.416,161.207
			c7.483,10.989,8.694,26.134,2.965,36.803C209.405,186.944,208.453,175.147,204.416,161.207z M48.985,198.019
			c-5.753-10.674-4.54-25.83,2.967-36.822C47.915,175.158,46.962,186.96,48.985,198.019z"/>
		<path fill="#FFFFFF" d="M199.907,173.755l0.717,1l-0.107-1.226c-1.221-14.027-10.193-25.894-13.994-30.345l-0.581-0.68
			l-0.016,1.27c-0.002,0.311-0.004,0.626-0.023,0.943c-0.206,3.148-1.044,5.575-2.562,7.418l-0.826,1.002
			c-5.237-4.445-12.334-5.906-18.175-3.715c-0.609,0.228-1.262,0.515-1.995,0.878l-1.025,0.507l1.135,0.131
			c5.537,0.639,11.63,2.184,17.143,4.346l1.371,0.606c0.478,0.211,0.926,0.408,1.319,0.584c-0.518-0.099-1.13-0.219-1.809-0.353
			l-1.061-0.208c-1.496-0.27-2.996-0.552-4.499-0.832c-5.101-0.955-10.375-1.943-15.605-2.525l-0.229-0.025l-0.107,0.203
			c-0.591,1.122-1.245,2.243-2.058,3.527l-0.412,0.636l0.481,0.098c6.771,1.377,14.572,4.692,21.39,9.088l1.22,0.862
			c0.433,0.306,0.838,0.591,1.192,0.844c-0.491-0.2-1.071-0.441-1.715-0.708l-0.998-0.414c-1.413-0.56-2.827-1.131-4.242-1.703
			c-5.861-2.366-11.922-4.814-18.078-6.54l-0.229-0.065l-0.138,0.195c-9.983,14.184-23.888,19.567-37.193,14.401
			c-5.803-2.26-11.252-6.586-15.758-12.507c-0.429-0.57-0.839-1.141-1.241-1.717l-0.138-0.198l-0.232,0.067
			c-5.935,1.715-11.785,4.078-17.443,6.364c-1.415,0.572-2.828,1.143-4.246,1.705l-1.296,0.537
			c-0.515,0.214-0.995,0.413-1.415,0.585c0.428-0.306,0.936-0.665,1.5-1.063l0.902-0.638c3.867-2.493,11.704-6.971,20.754-8.956
			l0.469-0.103l-0.255-0.406c-0.759-1.208-1.456-2.456-2.129-3.816l-0.105-0.213l-0.236,0.027c-4.973,0.58-9.991,1.518-14.844,2.426
			c-1.562,0.293-3.121,0.584-4.683,0.865l-1.423,0.278c-0.523,0.103-1.011,0.198-1.44,0.281c0.465-0.208,1.013-0.45,1.62-0.717
			l1.053-0.465c5.362-2.105,11.278-3.629,16.659-4.292l1.094-0.134l-0.982-0.501c-0.764-0.389-1.453-0.697-2.106-0.94
			c-5.842-2.193-12.938-0.731-18.176,3.715l-0.826-0.995c-1.749-2.252-2.607-5.062-2.621-8.593l-0.004-0.914l-0.59,0.697
			c-4.677,5.515-12.697,16.772-13.864,30.196l-0.107,1.229l0.718-1.004c1.947-2.724,5.081-6.277,8.959-7.728l4.223-1.572
			l-2.65,3.625c-0.084,0.107-8.225,11.571-5.471,25.047l0.208,1.013l0.43-0.941c1.281-2.804,3.477-6.375,6.664-7.466l2.209-0.751
			l-0.442,2.28c-0.032,0.157-2.971,16.1,4.61,31.485l0.378,0.769l0.247-0.82c0.895-2.972,2.394-7.049,4.453-9.595l2.267-2.802
			l0.13,3.621c0.051,0.913,0.654,9.233,5.932,19.828c5.096,10.22,15.733,24.696,37.477,35.629l1.921,0.873l1.994-0.906
			c21.686-10.904,32.314-25.376,37.411-35.596c5.578-11.197,5.926-19.781,5.926-19.847l0.14-3.587l2.263,2.787
			c2.059,2.546,3.559,6.623,4.454,9.595l0.246,0.82l0.379-0.768c7.54-15.289,4.642-31.326,4.611-31.481l-0.438-2.284l2.196,0.75
			c3.197,1.093,5.393,4.667,6.671,7.473l0.429,0.942l0.209-1.014c2.791-13.587-5.38-24.932-5.463-25.044l-2.656-3.633l4.215,1.57
			C194.81,167.476,197.951,171.029,199.907,173.755z"/>
		<path fill="#FFFFFF" d="M162.712,98.308l-0.706,0.142l0.561,0.451c0.364,0.293,0.673,0.576,0.944,0.865
			c1.182,1.265,2.003,2.828,2.373,4.517l0.322,1.472l0.336-1.469c0.055-0.238,0.102-0.463,0.148-0.688l0.099-0.432
			c0.092-0.405,0.182-0.798,0.271-1.169c0.41-1.659,0.917-2.978,1.271-3.792l0.208-0.48l-0.523,0.009
			C166.799,97.754,164.892,97.869,162.712,98.308z"/>
		<path fill="#FFFFFF" d="M148.865,112.999c-0.038-0.05-0.08-0.1-0.141-0.172l-0.462-0.545l-0.128,0.703
			c-0.268,1.479-0.367,2.727-0.403,3.514l-0.023,0.503l0.474-0.17c0.756-0.271,2.015-0.66,3.724-0.964l1.066-0.19l-0.986-0.449
			C150.798,114.687,149.739,113.927,148.865,112.999z"/>
		<path fill="#FFFFFF" d="M108.428,112.971c-0.898,0.963-1.956,1.722-3.144,2.257l-0.995,0.448l1.074,0.192
			c1.709,0.305,2.969,0.693,3.724,0.964l0.474,0.17l-0.023-0.503c-0.035-0.78-0.132-2.022-0.396-3.512l-0.113-0.644l-0.459,0.466
			c-0.036,0.036-0.069,0.076-0.103,0.117L108.428,112.971z"/>
		<path fill="#FFFFFF" d="M94.705,98.9l0.55-0.451l-0.697-0.141c-2.173-0.439-4.08-0.554-5.297-0.573l-0.523-0.009l0.208,0.48
			c0.347,0.799,0.847,2.105,1.265,3.794c0.127,0.502,0.248,1.039,0.368,1.594c0.037,0.173,0.078,0.35,0.119,0.531l0.374,1.631
			l0.322-1.473c0.37-1.695,1.189-3.257,2.364-4.515C94.031,99.482,94.342,99.198,94.705,98.9z"/>
		<path fill="#FFFFFF" d="M214.756,137.674c-0.128-3.05-0.628-6.1-1.316-9.069c-1.532-7.126-5.128-14.683-8.3-21.228
			c3.09,2.74,9.541,8.522,14.11,12.605c-0.56-4.292-1.552-8.603-2.935-12.659c-0.155-0.445-0.31-0.897-0.479-1.336l-0.041,0.007
			c0,0-7.584-11.194-18.077-13.016c0,0,2.888,9.96,2.301,13.9c0,0-4.103-7.092-9.96-9.15c0,0,1.1,8.927-2.348,15.317
			c0,0-1.248-8.199-6.458-14.973c-9.575-12.456-31.809-9.306-41.613,8.806c-3.191,5.895-5.263,11.532-3.893,18.097
			c0.702,3.354,5.783,14.19,7.308,16.437l-5.304-3.273c-5.661-3.32-12.652-3.401-18.388-0.216l-5.87,3.489
			c1.525-2.247,6.606-13.084,7.308-16.437c1.37-6.566-0.926-12.087-3.893-18.097c-9.481-19.204-32.038-21.262-41.62-8.806
			c-5.209,6.775-6.451,14.973-6.451,14.973c-3.448-6.39-2.348-15.317-2.348-15.317c-5.857,2.058-9.96,9.15-9.96,9.15
			c-0.594-3.941,2.294-13.9,2.294-13.9c-10.486,1.822-18.07,13.016-18.07,13.016c-1.167,3.131-2.024,6.383-2.679,9.656
			c-0.283,1.424-0.52,2.881-0.709,4.332c3.246-2.908,7.915-7.078,7.915-7.078l6.194-5.526l-3.556,7.53
			c-3.165,7.078-5.729,14.879-6.039,22.713c0.951-1.397,1.923-2.794,2.922-4.177c2.139-2.895,4.136-5.688,6.775-8.253l5.196-4.926
			c-2.152,5.965-4.852,12.767-5.614,19.089c-0.391,2.935-0.641,6.248,0.095,9.15c5.283-6.606,12.726-11.775,21.276-12.625
			l2.348-0.243c-0.985,3.812-1.754,8.144-0.601,11.997c0.135,0.439,0.304,0.857,0.499,1.255c7.8-5,17.612-4.642,24.98,1.289
			c0.014,0.027,0.034,0.061,0.047,0.094c4.825-0.074,9.508,0.607,13.522,2.436c-4.123-0.459-8.232-0.418-12.335-0.101
			c0.655,1.208,1.363,2.402,2.125,3.563c3.522-0.459,6.984-0.418,10.209,0.331c-3.03,0.27-6.006,0.796-8.934,1.498
			c3.853,5.277,8.873,9.723,14.912,12.126c13.415,5.243,25.115-1.876,32.848-12.281c-2.713-0.621-5.459-1.093-8.252-1.343
			c3.01-0.695,6.221-0.776,9.501-0.418c0.783-1.147,1.511-2.321,2.193-3.522c-3.887-0.277-7.787-0.283-11.694,0.149
			c3.846-1.748,8.313-2.456,12.929-2.443c0.027-0.061,0.054-0.108,0.054-0.108l0.317-0.236c7.294-5.715,17.004-5.931,24.636-1.032
			c0.655-1.329,0.951-2.868,1.039-4.366c0.229-2.935-0.412-6.073-1.134-8.887l2.348,0.243c4.791,0.459,9.379,2.348,13.28,5.095
			c3.03,2.139,5.702,4.649,7.996,7.517c0.729-2.901,0.479-6.208,0.088-9.136c-0.756-6.309-3.428-13.145-5.614-19.089l5.196,4.926
			C208.791,129.01,211.814,133.288,214.756,137.674z M111.239,118.099l-0.088,1.606l-1.41-0.776
			c-0.014-0.007-1.714-0.911-4.919-1.444c-0.553-0.088-1.127-0.169-1.721-0.25c-3.151-0.425-6.714-0.911-9.575-3.482
			c-3.036-2.74-3.9-6.653-4.595-9.791c-0.121-0.547-0.236-1.066-0.358-1.559c-0.729-2.956-1.788-4.791-1.802-4.811l-0.816-1.403
			l1.619-0.115c0.439-0.034,10.783-0.708,17.45,5.297C111.731,107.411,111.259,117.661,111.239,118.099z M139.33,151.831
			c0.54-0.54,1.424-0.547,1.964-0.007c0.547,0.54,0.547,1.424,0.007,1.964c-0.54,0.547-1.417,0.547-1.964,0.007
			C138.79,153.255,138.79,152.378,139.33,151.831z M139.438,155.745c0.547,0.54,0.547,1.417,0.007,1.964
			c-0.54,0.547-1.417,0.547-1.964,0.007c-0.547-0.54-0.547-1.424-0.007-1.964C138.014,155.205,138.891,155.205,139.438,155.745z
			 M119.748,155.752c0.54,0.54,0.54,1.424-0.007,1.964c-0.547,0.54-1.424,0.54-1.964-0.007c-0.54-0.547-0.54-1.424,0.007-1.964
			C118.324,155.205,119.208,155.205,119.748,155.752z M115.929,151.824c0.54-0.54,1.424-0.533,1.964,0.007
			c0.54,0.547,0.533,1.424-0.007,1.964c-0.547,0.54-1.424,0.54-1.964-0.007C115.382,153.248,115.382,152.364,115.929,151.824z
			 M146.489,158.599c-1.019,1.431-2.395,2.713-4.136,3.516c-4.784,2.146-10.29-0.196-13.725-3.907
			c-4.825,5.257-13.286,7.045-17.881,0.391c2.78,1.829,6.093,2.706,9.157,1.437c2.166-0.864,4.082-2.416,5.816-4.055
			c-6.599-1.849-5.965-6.451-5.965-6.451c-0.013-7.956,6.107-8.772,8.887-8.732c2.78-0.041,8.9,0.776,8.887,8.732
			c0,0,0.634,4.616-5.999,6.464c2.854,2.686,6.235,5.229,10.317,4.528C143.432,160.272,144.991,159.53,146.489,158.599z
			 M170.497,97.593c-0.007,0.02-1.073,1.876-1.802,4.811c-0.121,0.493-0.236,1.019-0.358,1.559
			c-0.695,3.144-1.559,7.051-4.595,9.791c-2.861,2.578-6.424,3.057-9.568,3.482c-0.594,0.081-1.174,0.162-1.727,0.25
			c-3.205,0.533-4.899,1.437-4.919,1.444l-1.404,0.762l-0.094-1.592c-0.02-0.439-0.493-10.688,6.215-16.728
			c6.667-6.005,17.018-5.331,17.45-5.297l1.619,0.115L170.497,97.593z"/>
		<path fill="#FFFFFF" d="M70.354,64.556c-5.752,10.393-16.896,25.25-24.339,34.825c-4.211,5.749-6.559,12.672-7.942,19.643
			c-0.027,0.128-0.047,0.256-0.074,0.385c-0.216,0.196-0.425,0.391-0.634,0.574c0.189-1.451,0.425-2.908,0.709-4.332
			c1.383-6.97,3.732-13.894,7.942-19.643c5.135-6.606,11.647-14.244,17.348-21.674C64.779,71.993,70.354,64.556,70.354,64.556z"/>
		<path fill="#FFFFFF" d="M219.25,119.982c-0.209-0.189-0.425-0.378-0.641-0.574c-0.567-2.962-1.336-5.897-2.294-8.711
			c-1.619-4.737-3.92-9.13-7.126-12.956l-1.377-1.707c-6.572-8.158-18.43-22.714-21.552-31.478c1.829,1.417,3.57,6.282,5.257,7.841
			c5.162,7.011,11.552,14.373,16.296,20.263l1.377,1.707c3.205,3.826,5.506,8.219,7.126,12.956
			C217.698,111.378,218.69,115.69,219.25,119.982z"/>
		<path fill="#FFFFFF" d="M147.818,30.959c-0.823,1.431-0.877,1.404-1.606,2.888l-10.572,4.614l-2.701-1.152L147.818,30.959z"/>
		<path fill="#FFFFFF" d="M124.343,37.309l-2.701,1.152l-10.443-4.321c-0.729-1.484-0.912-1.75-1.735-3.181L124.343,37.309z"/>
		<path fill="#FFFFFF" d="M196.49,44.59c-0.614,8.104-1.721,16.215-1.188,24.38c0.094,1.383,0.229,2.767,0.432,4.157
			c-0.843-0.864-1.7-1.714-2.571-2.544c-0.202-7.341,0.749-14.649,1.302-21.944c0.708-12.132,0.594-26.836-4.575-37.949
			c-1.383-3.698-4.534-5.526-8.597-4.636c-1.302,0.317-3.205,1.599-4.427,2.159c-5.074,2.476-9.582,6.768-13.732,10.709
			c-8.414,8.05-11.974,13.487-20.392,22.666c1.113-2.942,14.002-18.664,22.416-26.714c4.15-3.941,8.657-7.558,13.732-10.034
			c1.221-0.56,2.449-1.167,3.752-1.484c4.062-0.891,7.213,1.613,8.597,5.31C196.409,19.778,197.198,32.457,196.49,44.59z"/>
		<path fill="#FFFFFF" d="M60.652,44.59c0.614,8.104,1.721,16.215,1.188,24.38c-0.094,1.383-0.229,2.767-0.432,4.157
			c0.843-0.864,1.7-1.714,2.571-2.544c0.202-7.341-0.749-14.649-1.302-21.944c-0.708-12.132-0.594-26.836,4.575-37.949
			c1.383-3.698,4.534-5.526,8.597-4.636c1.302,0.317,3.205,1.599,4.427,2.159c5.074,2.476,9.582,6.768,13.732,10.709
			c8.414,8.05,11.974,13.487,20.392,22.666c-1.113-2.942-14.002-18.664-22.416-26.714c-4.15-3.941-8.657-7.558-13.732-10.034
			c-1.221-0.56-2.449-1.167-3.752-1.484c-4.062-0.891-7.213,1.613-8.597,5.31C60.733,19.778,59.943,32.457,60.652,44.59z"/>
		<path fill="#FFFFFF" d="M242.178,319.033l-0.634-0.951c-0.445-0.668-0.938-1.39-1.458-2.125
			c-0.304-6.586-1.889-17.828-8.327-30.048c-9.217-17.504-15.149-32.517-18.111-40.675c0.31-0.486,0.614-0.978,0.911-1.478
			l0.371-0.614l0.236,0.675c2.76,7.753,8.84,23.523,18.617,42.092c7.119,13.516,8.306,25.837,8.381,31.977L242.178,319.033z"/>
		<path fill="#FFFFFF" d="M244.351,403.703l-0.418,0.614l-0.182-0.722c-0.115-0.445-0.243-0.938-0.385-1.478
			c7.834-12.551,8.752-28.658,2.74-47.922c-2.443-7.834-5.675-14.831-8.354-19.96c-0.027-0.87-0.074-1.754-0.142-2.659l-0.115-1.538
			l0.749,1.35c2.888,5.209,6.95,13.401,9.885,22.807C254.399,374.283,253.13,390.937,244.351,403.703z"/>
		<path fill="#FFFFFF" d="M380.581,465.681l-0.31,0.108c-0.506,0.182-1.005,0.358-1.498,0.533
			c-5.904-17.355-15.952-30.162-29.872-38.091c-12.213-6.957-29.575-11.943-48.064-11.687c5.365-1.14,12.794,0.02,18.563,0.283
			c11.869,1.316,22.193,4.447,30.851,9.379c14.204,8.091,24.373,21.262,30.23,39.157L380.581,465.681z"/>
		<path fill="#FFFFFF" d="M325.958,415.215l-0.945-0.094c-0.945-0.101-1.889-0.175-2.821-0.236
			c-28.084-26.424-65.122-23.091-69.562-22.571c0.216-0.742,0.405-1.464,0.567-2.166l0.405-1.687l0.277,1.835
			c4.022-0.479,42.909-4.224,71.404,24.251L325.958,415.215z"/>
		<path fill="#FFFFFF" d="M12.899,319.033l0.634-0.951c0.445-0.668,0.938-1.39,1.458-2.125c0.304-6.586,1.889-17.828,8.327-30.048
			c9.217-17.504,15.607-33.417,18.57-41.575c-0.31-0.486-0.617-2.317-0.914-2.816l-0.827,1.625l-0.236,0.675
			c-2.76,7.753-8.84,23.523-18.617,42.092c-7.119,13.516-8.306,25.837-8.381,31.977L12.899,319.033z"/>
		<path fill="#FFFFFF" d="M10.726,403.703l0.418,0.614l0.182-0.722c0.115-0.445,0.243-0.938,0.385-1.478
			c-7.834-12.551-8.752-28.658-2.74-47.922c2.443-7.834,5.675-14.831,8.354-19.96c0.027-0.87,0.074-1.754,0.142-2.659l0.115-1.538
			l-0.749,1.35c-2.888,5.209-6.95,13.401-9.885,22.807C0.679,374.283,1.947,390.937,10.726,403.703z"/>
		<path fill="#FFFFFF" d="M26.973,424.075c-0.027,0.493-0.04,0.958-0.04,1.41l-0.007,0.945l-0.594-0.736
			c-9.433-11.673-6.404-37.902-6.269-39.009l0.688-5.283l0.958-4.764C21.71,376.638,18.404,411.99,26.973,424.075z"/>
		<path fill="#FFFFFF" d="M61.468,457.415c-0.148,0.25-0.297,0.499-0.439,0.763l-0.155,0.277l-0.284-0.135
			c-26.411-12.213-27.335-45.709-27.362-47.133l-0.027-3.165l0.317-2.618C33.519,405.404,35.516,445.033,61.468,457.415z"/>
		<path fill="#FFFFFF" d="M227.87,423.81c0.027,0.493,0.04,0.958,0.04,1.41l0.007,0.945l0.594-0.736
			c9.433-11.673,6.404-37.902,6.269-39.009l-0.688-5.283l-0.793-4.499C233.298,376.638,236.439,411.724,227.87,423.81z"/>
		<path fill="#FFFFFF" d="M193.375,457.15c0.148,0.25,0.297,0.499,0.439,0.763l0.155,0.277l0.284-0.135
			c26.411-12.213,27.335-45.709,27.362-47.133l0.027-3.165l-0.127-2.28C221.514,405.477,219.327,444.768,193.375,457.15z"/>
		<path fill="#FFFFFF" d="M298.183,410.521c-9.67,0.621-17.797,7.473-20.286,11.592c27.945-2.277,46.798,6.123,58.352,16.905
			c-10.861-3.63-22.786-4.01-33.856-1.078c6.824,2.465,13.68,4.343,20.916,4.872c-15.238,7.427-32.613,7.994-49.07,3.928
			c4.143,0.324,10.493-4.145,12.352-7.861c2.698-5.394-24.604-6.936-38.662-1.589c8.321-16.195,22.93-26.562,22.93-26.562
			s-3.345-5.28-11.178-8.073C270.552,399.232,288.433,404.738,298.183,410.521z"/>
		<path fill="#FFFFFF" d="M56.028,259.684c0,0,39.961,154.26,38.358,202.631l-3.645-3.685c0,0-5.352-57.662-8.881-71.867
			c-3.529-14.205-31.293-131.395-31.293-131.395L56.028,259.684z"/>
		<path fill="#FFFFFF" d="M198.275,259.684c0,0-39.961,154.26-38.358,202.631l3.645-3.685c0,0,5.352-57.662,8.881-71.867
			c3.529-14.205,31.293-131.395,31.293-131.395L198.275,259.684z"/>
		<path fill="#FFFFFF" d="M166.237,106.251c0,4.84-6.043,10.504-14.39,10.75c-6.726,0.199-5.832,0.371-3.332-8.609
			c0.598-2.152,1.957-3.961,3.332-5.508c1.605-1.805,3.918-4.352,6.523-4.352c2.691,0,9.648-2.473,10.742-0.805
			C169.987,99.059,166.237,104.102,166.237,106.251z"/>
		<path fill="#FFFFFF" d="M91.168,106.251c0,4.84,6.043,10.504,14.39,10.75c6.726,0.199,5.832,0.371,3.332-8.609
			c-0.598-2.152-1.957-3.961-3.332-5.508c-1.605-1.805-3.918-4.352-6.523-4.352c-2.691,0-9.648-2.473-10.742-0.805
			C87.418,99.059,91.168,104.102,91.168,106.251z"/>
	</g>
	<g>
		<path fill="#A3A3A3" d="M129.03,204.387c6.533-0.032,12.851-2.522,18.556-5.704c5.705-3.182,10.447-8.296,12.539-14.484
			c0.534,13.826-8.91,27.449-22.046,31.798c7.759,1.84,16.408-0.706,21.933-6.457c-2.538,4.787-5.105,9.617-8.613,13.747
			c-3.509,4.129-8.085,7.559-13.378,8.72c-1.925,0.423-3.919,0.542-5.797,1.141c-1.878,0.598-3.707,1.801-4.391,3.649
			c-0.684,1.848,0.265,4.324,2.196,4.72c-4.401-0.248-19.668-3.818-21.422-16.786c1.007,1.267,7.598,2.071,9.045,1.348
			s2.263-2.521,1.854-4.087c-0.285-1.092-1.068-1.982-1.904-2.741c-4-3.63-21.193-13.235-16.649-31.383
			C107.242,200.632,123.005,204.417,129.03,204.387z"/>
		<path fill="#A3A3A3" d="M203.237,183.181l-0.412,5.088l-2.152-4.622c-0.02-0.027-1.532-3.225-4.022-6.336
			c-0.432-1.484-0.931-2.854-1.451-4.089l-0.783-1.869l1.343,1.518c3.009,3.394,4.892,7.368,4.912,7.402l2.152,4.622l0.412-5.088
			c0.034-0.452,0.061-0.904,0.088-1.35C203.393,180.01,203.366,181.582,203.237,183.181z"/>
		<path fill="#A3A3A3" d="M195.903,202.311l-1.532,3.826l-1.032-3.988c-0.439-1.727-1.802-5.655-3.812-8.219l-0.459-0.587
			c-0.027-0.924-0.081-1.781-0.142-2.551l-0.088-1.113l0.688,0.877c2.011,2.564,3.374,6.491,3.812,8.219l1.032,3.988l1.532-3.826
			c1.377-3.435,2.038-6.795,2.2-9.966C198.318,193.093,197.778,197.628,195.903,202.311z"/>
		<path fill="#A3A3A3" d="M62.291,171.352l-0.783,1.869c-0.52,1.242-1.019,2.611-1.464,4.103c-2.497,3.111-3.988,6.296-4.001,6.323
			l-2.159,4.616l-0.412-5.081c-0.128-1.633-0.155-3.246-0.081-4.825c0.014,0.479,0.041,0.965,0.081,1.451l0.412,5.081l2.159-4.615
			c0.014-0.034,1.869-3.995,4.906-7.402L62.291,171.352z"/>
		<path fill="#A3A3A3" d="M67.871,189.699l-0.088,1.12c-0.061,0.769-0.115,1.626-0.142,2.551l-0.459,0.587
			c-2.112,2.699-3.468,6.829-3.812,8.192l-1.032,4.001l-1.539-3.839c-1.876-4.683-2.416-9.211-2.2-13.334
			c0.169,3.171,0.823,6.518,2.2,9.96l1.539,3.839l1.032-4.001c0.344-1.363,1.7-5.493,3.812-8.192L67.871,189.699z"/>
		<path fill="#A3A3A3" d="M181.429,227.203l-1.781,2.902l-0.688-3.36c-0.162-0.769-1.059-4.777-2.611-8.408l-0.432-1.005
			l-0.209,1.073c-0.702,3.583-2.22,9.231-5.452,15.749c-5.263,10.641-16.262,25.702-38.745,37.004l-3.158,1.437l-3.091-1.41
			c-22.537-11.323-33.543-26.39-38.806-37.031c-3.232-6.518-4.75-12.159-5.452-15.749l-0.209-1.073l-0.432,1.005
			c-1.599,3.752-2.517,7.949-2.618,8.428l-0.682,3.34l-1.788-2.902c-6.781-11.026-7.848-22.659-7.645-30.034
			c0.209,7.281,1.815,17.2,7.645,26.66l1.788,2.902l0.682-3.34c0.101-0.479,1.019-4.676,2.618-8.428l0.432-1.005l0.209,1.073
			c0.702,3.59,2.22,9.231,5.452,15.749c5.263,10.641,16.269,25.709,38.806,37.031l3.091,1.41l3.158-1.437
			c22.483-11.302,33.482-26.363,38.745-37.004c3.232-6.518,4.75-12.166,5.452-15.749l0.209-1.073l0.432,1.005
			c1.552,3.63,2.449,7.638,2.611,8.408l0.688,3.36l1.781-2.902c5.843-9.487,7.45-19.447,7.652-26.748
			C189.29,204.463,188.237,216.15,181.429,227.203z"/>
		<path fill="#A3A3A3" d="M123.459,484.534c-0.641,1.093-1.444,1.768-2.402,2.004c-1.957,0.499-4.406-0.992-6.404-3.873
			l-0.317-0.493l-1.275-3.792l-0.722,4.44c-1.228,2.605-2.922,4.143-4.541,4.143c-1.795,0-3.597-1.808-4.825-4.831l-0.135-0.331
			l-0.904-3.651l-1.316,3.704c-1.95,2.692-4.325,4.069-6.188,3.583c-1.451-0.364-2.315-1.687-2.787-2.74l-0.027-0.115l-0.243-3.995
			l-1.916,3.536l-0.074,0.047c-0.668,0.425-1.68,0.87-2.706,0.607c-1.269-0.317-2.011-1.539-2.409-2.51
			c-0.216-0.526-0.378-1.107-0.493-1.721c-0.155-0.762-0.236-1.613-0.243-2.524c0-0.128,0.007-0.25,0.014-0.378l0.014-0.351
			c0-0.121,0.007-0.243,0.014-0.364c0.034,0.567,0.101,1.1,0.202,1.593c0.115,0.614,0.277,1.194,0.493,1.721
			c0.398,0.972,1.14,2.193,2.409,2.51c1.026,0.263,2.038-0.182,2.706-0.607l0.074-0.047l1.916-3.536l0.243,3.995l0.027,0.115
			c0.472,1.053,1.336,2.375,2.787,2.74c1.862,0.486,4.238-0.891,6.188-3.583l1.316-3.704l0.904,3.651l0.135,0.331
			c1.228,3.023,3.03,4.831,4.825,4.831c1.619,0,3.313-1.539,4.541-4.143l0.722-4.44l1.275,3.792l0.317,0.493
			c1.997,2.881,4.447,4.373,6.404,3.873c0.958-0.236,1.761-0.911,2.402-2.004c0.762-1.289,1.215-3.003,1.329-4.933
			C124.937,480.324,124.485,482.807,123.459,484.534z"/>
		<path fill="#A3A3A3" d="M67.959,466.329l-0.088,2.139l-2.051,2.625l-0.067,0.034c-0.628,0.304-1.552,0.587-2.409,0.256
			c-1.026-0.412-1.511-1.532-1.734-2.402c-0.243-0.918-0.31-2.024-0.209-3.239c0.04,0.432,0.108,0.843,0.209,1.215
			c0.223,0.87,0.709,1.991,1.734,2.402c0.857,0.331,1.781,0.047,2.409-0.256l0.067-0.034L67.959,466.329z"/>
		<path fill="#A3A3A3" d="M80.901,477.422l-0.587-0.432c-1.019-0.756-1.862-2.254-2.368-4.204l-0.162-0.614l-0.425-2.996
			l-1.694,3.009c-2.018,2.126-4.224,3.057-5.763,2.449c-0.951-0.378-1.673-1.323-2.078-2.726l-0.014-0.054l0.074-1.781
			c0.412,1.302,1.107,2.18,2.018,2.537c1.538,0.607,3.745-0.324,5.763-2.449l1.694-3.009l0.425,2.996l0.162,0.614
			c0.506,1.95,1.35,3.448,2.368,4.204l0.533,0.391c-0.007,0.223-0.014,0.452-0.014,0.675c0,0.229,0.007,0.452,0.02,0.668
			L80.901,477.422z"/>
		<path fill="#A3A3A3" d="M131.193,484.534c0.641,1.093,1.444,1.768,2.402,2.004c1.957,0.499,4.406-0.992,6.404-3.873l0.317-0.493
			l1.275-3.792l0.722,4.44c1.228,2.605,2.922,4.143,4.541,4.143c1.795,0,3.596-1.808,4.825-4.831l0.135-0.331l0.904-3.651
			l1.316,3.704c1.95,2.692,4.325,4.069,6.188,3.583c1.451-0.364,2.315-1.687,2.787-2.74l0.027-0.115l0.243-3.995l1.916,3.536
			l0.074,0.047c0.668,0.425,1.68,0.87,2.706,0.607c1.269-0.317,2.011-1.539,2.409-2.51c0.216-0.526,0.378-1.107,0.493-1.721
			c0.155-0.762,0.236-1.613,0.243-2.524c0-0.128-0.007-0.25-0.014-0.378l-0.014-0.351c0-0.121-0.007-0.243-0.014-0.364
			c-0.034,0.567-0.101,1.1-0.202,1.593c-0.115,0.614-0.277,1.194-0.493,1.721c-0.398,0.972-1.14,2.193-2.409,2.51
			c-1.026,0.263-2.038-0.182-2.706-0.607l-0.074-0.047l-1.916-3.536l-0.243,3.995l-0.027,0.115c-0.472,1.053-1.336,2.375-2.787,2.74
			c-1.862,0.486-4.238-0.891-6.188-3.583l-1.316-3.704l-0.904,3.651l-0.135,0.331c-1.228,3.023-3.03,4.831-4.825,4.831
			c-1.619,0-3.313-1.539-4.541-4.143l-0.722-4.44l-1.275,3.792l-0.317,0.493c-1.997,2.881-4.447,4.373-6.404,3.873
			c-0.958-0.236-1.761-0.911-2.402-2.004c-0.762-1.289-1.215-3.003-1.329-4.933C129.715,480.324,130.167,482.807,131.193,484.534z"
			/>
		<path fill="#A3A3A3" d="M186.693,466.329l0.088,2.139l2.051,2.625l0.067,0.034c0.628,0.304,1.552,0.587,2.409,0.256
			c1.026-0.412,1.511-1.532,1.734-2.402c0.243-0.918,0.31-2.024,0.209-3.239c-0.04,0.432-0.108,0.843-0.209,1.215
			c-0.223,0.87-0.709,1.991-1.734,2.402c-0.857,0.331-1.781,0.047-2.409-0.256l-0.067-0.034L186.693,466.329z"/>
		<path fill="#A3A3A3" d="M173.751,477.422l0.587-0.432c1.019-0.756,1.862-2.254,2.368-4.204l0.162-0.614l0.425-2.996l1.694,3.009
			c2.018,2.126,4.224,3.057,5.763,2.449c0.951-0.378,1.673-1.323,2.078-2.726l0.014-0.054l-0.074-1.781
			c-0.412,1.302-1.107,2.18-2.018,2.537c-1.538,0.607-3.745-0.324-5.763-2.449l-1.694-3.009l-0.425,2.996l-0.162,0.614
			c-0.506,1.95-1.35,3.448-2.368,4.204l-0.533,0.391c0.007,0.223,0.014,0.452,0.014,0.675c0,0.229-0.007,0.452-0.02,0.668
			L173.751,477.422z"/>
		<path fill="#A3A3A3" d="M155.389,161.926c-9.98,14.184-23.887,19.568-37.193,14.4c-5.803-2.26-11.248-6.586-15.756-12.504
			c-0.432-0.574-1.383-1.916-1.383-1.916s-1.633-2.517-1.815-2.827c0.526-0.169,1.059-0.324,1.586-0.479l0.229-0.067l0.142,0.196
			c0.405,0.58,0.81,1.147,1.242,1.721c4.508,5.918,9.953,10.243,15.756,12.504c13.306,5.169,27.214-0.216,37.193-14.4l0.142-0.196
			l0.229,0.067c0.54,0.149,1.08,0.31,1.619,0.472C157.231,159.139,155.389,161.926,155.389,161.926z"/>
		<path fill="#A3A3A3" d="M100.051,157.034l-0.466,0.101c-0.425,0.095-0.85,0.196-1.268,0.297c-0.223-0.405-2.584-4.06-2.956-4.222
			c1.37-0.216,0.594-0.428,1.964-0.59l0.236-0.027l0.108,0.216c0.675,1.356,1.37,2.605,2.126,3.812L100.051,157.034z"/>
		<path fill="#A3A3A3" d="M95.361,150.866l-1.093,0.135c-1.781,0.216-3.617,0.533-5.479,0.931c-0.007,0-0.007,0-0.007,0
			c-5.02-0.655-10.326-0.181-14.55,3.408c0,0-4.62-3.918-4.841-8.281c0,0-10.934,14.88-12.857,27.073l-0.452,0.628l0.108-1.228
			c1.167-13.428,9.19-24.683,13.867-30.196l0.587-0.702l0.007,0.918c0.013,3.529,0.87,6.343,2.618,8.59l0.83,0.999
			c5.236-4.447,12.335-5.911,18.178-3.718c0.648,0.243,1.343,0.553,2.105,0.938L95.361,150.866z"/>
		<path fill="#A3A3A3" d="M200.626,174.753l-0.459-0.634c-2.051-12.8-13.096-27.546-13.115-27.229
			c-0.223,3.772-4.634,8.021-4.634,8.021c-4.116-3.495-9.296-3.546-14.201-3.02c-1.957-0.418-3.893-0.735-5.762-0.951l-1.134-0.135
			l1.026-0.506c0.729-0.364,1.383-0.648,1.991-0.877c5.844-2.193,12.942-0.729,18.178,3.718l0.823-1.005
			c1.518-1.842,2.362-4.271,2.564-7.416c0.02-0.317,0.02-0.634,0.027-0.945l0.014-1.269l0.58,0.682
			c3.799,4.447,12.773,16.316,13.995,30.344L200.626,174.753z"/>
		<path fill="#A3A3A3" d="M158.325,157.29c-0.452-0.108-0.897-0.209-1.336-0.297l-0.479-0.094l0.412-0.641
			c0.81-1.282,1.464-2.402,2.058-3.522l0.108-0.202l0.229,0.02c1.417,0.155,0.29-0.007,1.707,0.202
			C160.638,152.917,158.554,156.892,158.325,157.29z"/>
		<path fill="#A3A3A3" d="M84,94.657l0.926,1.586c0.008,0.023,1.211,2.125,2.035,5.445c0.141,0.555,0.27,1.152,0.406,1.762
			c0.785,3.559,1.762,7.976,5.199,11.078c3.234,2.914,7.265,3.457,10.824,3.937c0.672,0.094,1.328,0.184,1.953,0.281
			c3.629,0.605,5.543,1.629,5.566,1.637l1.586,0.859l0.109-1.801c0.023-0.496,0.555-12.09-7.031-18.922
			c-7.543-6.797-19.254-6.031-19.742-5.992L84,94.657z M87.864,97.727c1.094-1.668,8.051,0.805,10.742,0.805
			c2.605,0,4.918,2.547,6.523,4.352c1.375,1.547,2.734,3.355,3.332,5.508c2.5,8.98,3.394,8.809-3.332,8.609
			c-8.348-0.246-14.39-5.91-14.39-10.75C90.739,104.102,86.989,99.059,87.864,97.727z"/>
		<path fill="#A3A3A3" d="M171.143,94.528c-0.488-0.039-12.199-0.805-19.742,5.992c-7.586,6.832-7.055,18.426-7.031,18.922
			l0.109,1.801l1.586-0.859c0.023-0.008,1.937-1.031,5.566-1.637c0.625-0.098,1.281-0.187,1.953-0.281
			c3.559-0.48,7.59-1.023,10.824-3.937c3.437-3.102,4.414-7.519,5.199-11.078c0.137-0.609,0.266-1.207,0.406-1.762
			c0.824-3.32,2.027-5.422,2.035-5.445l0.926-1.586L171.143,94.528z M166.237,106.251c0,4.84-6.043,10.504-14.39,10.75
			c-6.726,0.199-5.832,0.371-3.332-8.609c0.598-2.152,1.957-3.961,3.332-5.508c1.605-1.805,3.918-4.352,6.523-4.352
			c2.691,0,9.648-2.473,10.742-0.805C169.987,99.059,166.237,104.102,166.237,106.251z"/>
	</g>
	<g>
		<path fill="#686868" d="M380.581,465.681l-0.31,0.108c-2.287,0.823-4.48,1.545-6.518,2.159
			c-12.423,3.63-27.038,6.957-41.289,4.116c-1.64-0.337-3.232-0.756-4.764-1.262l0.094-0.02l-0.891-0.425
			c-3.111-1.491-7.517-2.983-9.595-5.209c12.997,6.418,28.811,9.736,56.445,0.776c1.937-0.628,4.042-1.275,6.228-2.051
			c0.169,0.493,0.337,0.992,0.499,1.491L380.581,465.681z"/>
		<path fill="#686868" d="M327.794,472.807l-0.972,0.209c-4.372,0.931-9.076,1.586-13.968,1.95
			c-12.699,0.958-25.088-0.439-36.822-4.136c-1.552-0.472-3.131-1.005-4.764-1.593c-3.725-1.761-9.528-3.225-12.652-5.56
			c6.266,2.204,28.434,10.88,54.238,9.265c4.214-0.264,8.286-0.843,12.126-1.579c0.621,0.364,1.262,0.702,1.923,1.019
			L327.794,472.807z"/>
		<path fill="#686868" d="M276.518,473.502l-1.1,0.236c-7.665,1.626-21.296,3.961-36.35,3.968c-14.346,0-29.98-2.126-42.99-9.002
			l-0.209-0.108l0.027-0.229c0.074-0.547,0.108-1.127,0.101-1.727l0.081,0.04c13.01,6.876,28.644,9.001,42.99,9.001
			c13.725-0.007,26.262-1.943,34.177-3.522c0.735,0.324,1.478,0.634,2.227,0.931L276.518,473.502z"/>
		<path fill="#686868" d="M158.298,35.764c0,0,15.501-12.781,20.907-9.808c5.406,2.973,10.654,26.457,10.654,26.457l-1.464-28.079
			c0,0,2.469-17.793-15.613-7.045L158.298,35.764z"/>
		<path fill="#686868" d="M98.516,35.764c0,0-15.501-12.781-20.907-9.808S66.956,52.413,66.956,52.413l1.464-28.079
			c0,0-2.469-17.793,15.613-7.045L98.516,35.764z"/>
		<path fill="#686868" d="M140.748,365.757c0,0-0.86,78.917-13.66,98.006c-13.191-19.089-13.66-98.006-13.66-98.006
			c-7.134,8.529,3.272,96.039,3.272,96.039c5.644-0.297,10.388,15.909,10.388,15.909s4.743-16.206,10.388-15.909
			C137.477,461.797,147.882,374.287,140.748,365.757z"/>
	</g>
	<path fill="#231F20" d="M152.245,101.372c-6.707,6.039-6.235,16.289-6.215,16.728l0.094,1.592l1.404-0.762
		c0.02-0.007,1.714-0.911,4.919-1.444c0.553-0.088,1.134-0.169,1.727-0.25c3.144-0.425,6.707-0.904,9.568-3.482
		c3.036-2.74,3.9-6.646,4.595-9.791c0.121-0.54,0.236-1.066,0.358-1.559c0.729-2.935,1.795-4.791,1.802-4.811l0.816-1.403
		l-1.62-0.115C169.263,96.041,158.912,95.366,152.245,101.372z M148.068,116.513c0.04-0.884,0.148-2.092,0.398-3.468
		c0.04,0.047,0.088,0.101,0.128,0.155c0.938,0.999,2.038,1.781,3.252,2.335C150.221,115.825,148.952,116.196,148.068,116.513z
		 M161.739,112.33c-1.62,1.464-3.738,2.22-5.924,2.125c-2.2-0.088-4.231-1.019-5.715-2.611c-0.398-0.425-0.736-0.891-1.026-1.37
		c0.283-0.938,0.634-1.903,1.086-2.848c0.243,1.167,0.844,2.267,1.795,3.144c2.47,2.294,6.37,2.166,8.698-0.263
		c0.135-0.142,0.263-0.283,0.385-0.439c-0.992,0.041-2.004-0.297-2.78-1.019c-1.545-1.424-1.619-3.806-0.162-5.324
		c0.769-0.803,1.815-1.201,2.861-1.181c-0.169-0.202-0.351-0.405-0.553-0.587c-0.897-0.83-1.977-1.336-3.104-1.538
		c0.951-0.459,1.916-0.83,2.881-1.127c0.763,0.418,1.471,0.945,2.078,1.599C165.322,104.179,165.092,109.314,161.739,112.33z
		 M166.732,101.918c-0.121,0.506-0.243,1.046-0.371,1.606c-0.047,0.229-0.094,0.452-0.148,0.688
		c-0.378-1.727-1.208-3.34-2.456-4.676c-0.304-0.324-0.634-0.621-0.979-0.898c2.112-0.425,4.001-0.547,5.243-0.567
		C167.623,98.99,167.13,100.305,166.732,101.918z M203.527,159.402c8.462,11.026,10.81,28.502,3.131,40.507
		C209.621,186.224,207.569,172.641,203.527,159.402z M167.11,72.086c-6.323,4.649-11.141,10.715-17.268,15.587
		C152.488,80.973,159.627,72.937,167.11,72.086z M98.897,65.271c8.462,4.811,13.57,17.72,14.427,27.045
		c-0.675-1.147-1.235-2.321-1.795-3.489C107.568,80.832,104.309,72.431,98.897,65.271z M46.454,235.381
		c4.548,4.528,10.709,11.154,15.182,15.83c5.027,5.358,10.182,10.358,15.223,15.769C64.464,260.82,52.264,247.932,46.454,235.381z
		 M383.887,466.032c-0.425-1.68-0.904-3.34-1.431-4.973c-6.572-20.257-21.154-36.512-42.018-43.03
		c-3.34-1.073-6.768-1.916-10.236-2.524l0.101-0.094c-16.309-17.983-36.418-24.656-50.419-27.092
		c-12.679-2.207-22.564-1.458-25.722-1.113c1.781-10.074,0.742-21.525-3.158-33.995c-5.236-16.728-13.617-29.224-13.968-29.744
		l-0.148,0.095c-0.688-3.752-1.579-7.159-2.402-9.906c4.082,4.879,7.274,10.506,7.321,10.587l2.429,4.305l0.708-4.892
		c0.108-0.742,2.497-18.334-8.475-39.164c-11.282-21.424-17.564-39.022-19.413-44.501c3.59-6.916,6.026-14.454,6.606-22.254
		c0.675-9.251-0.978-18.786-5.358-27.004c1.667-13.678-2.422-27.78-10.56-38.833c0.945-2.011,1.275-4.123,1.41-6.147
		c0.155-4.116-0.398-8.131-1.343-12.072c3.448,4.555,6.505,9.501,9.616,14.19l0.526-4.676c0.823-7.733-0.897-15.419-3.367-22.679
		c-0.034-0.088-0.067-0.175-0.095-0.263c3.576,3.185,7.692,6.849,8.759,7.827l-0.229-4.042c-0.83-10.607-3.273-21.39-9.447-30.23
		c-4.359-5.83-9.177-11.269-14.029-16.653l0.223-0.067c-0.796-2.632-1.174-5.459-1.363-8.313c-0.52-7.983,0.594-16.006,1.188-23.988
		c0.736-12.638-0.108-25.763-5.533-37.443c-1.869-4.993-6.721-8.259-12.092-7.112c-7.369,2.139-13.84,6.876-19.339,11.977
		c-4.325,4.184-8.266,8.779-11.653,13.738l-22.335,9.528l-22.335-9.528c-3.387-4.96-7.328-9.555-11.66-13.738
		C89.147,7.113,82.682,2.369,75.314,0.23c-5.371-1.147-10.229,2.126-12.092,7.112c-5.425,11.68-6.269,24.805-5.533,37.443
		c0.594,7.983,1.707,16.006,1.188,23.988c-0.182,2.78-0.553,5.547-1.309,8.124c-4.035,4.332-7.881,8.846-11.667,13.428
		c-1.876,2.335-3.907,4.791-5.29,7.463c-4.346,8.111-6.356,17.119-7.024,26.249l-0.229,4.042c1.1-1.012,5.202-4.642,8.765-7.814
		c-2.632,7.355-4.224,15.088-3.462,22.929l0.526,4.676c3.118-4.71,6.194-9.683,9.663-14.258c-1.329,5.843-2.49,12.497-0.013,18.138
		c-7.638,10.371-11.795,23.347-10.925,36.262c0.054,0.898,0.142,1.795,0.243,2.686c-0.189,0.358-0.378,0.715-0.56,1.08
		c-6.154,12.618-6.417,27.733-1.485,40.797c0.715,1.93,1.532,3.806,2.422,5.648c-1.687,5.081-8.327,24.116-19.994,46.269
		c-10.972,20.83-8.583,38.422-8.475,39.164l0.709,4.892l2.429-4.312c0.047-0.074,3.239-5.709,7.321-10.587
		c-0.823,2.753-1.714,6.161-2.402,9.912l-0.148-0.095c-0.351,0.52-8.732,13.016-13.968,29.744
		c-7.011,22.402-4.784,41.512,6.437,55.271l2.254,2.76l0.709-3.489c0.014-0.074,1.039-5.02,3.009-10.965
		c-0.094,10.871,1.505,27.173,11.087,34.224l3.219,2.369l-0.553-3.961c-0.007-0.074-0.722-5.506,0.655-11.215
		c0.547,3.745,1.559,8.671,3.448,13.954c4.885,13.651,13.522,23.583,25.088,28.927c-0.432,1.221-0.742,2.47-0.904,3.718
		c-0.236,1.815-0.162,3.475,0.209,4.939l0.007,0.007c0.573,2.193,1.842,3.779,3.563,4.454c1.032,0.412,2.159,0.479,3.32,0.202
		c0.749,1.457,1.842,2.497,3.225,3.05c2.152,0.857,4.696,0.317,7.105-1.424c0.607,1.302,1.363,2.348,2.254,3.111
		c0.891,0.756,1.903,1.228,3.01,1.37c0.094,0.311,0.196,0.621,0.317,0.911c0.938,2.287,2.53,3.812,4.474,4.305
		c1.215,0.304,2.49,0.196,3.752-0.31c1.026,1.532,2.402,2.564,3.988,2.969c2.51,0.641,5.27-0.364,7.672-2.726
		c1.7,2.787,3.974,4.339,6.451,4.339c2.227,0,4.325-1.289,5.972-3.61c2.483,2.625,5.378,3.772,8.03,3.097
		c1.741-0.439,3.219-1.619,4.278-3.408c0.54-0.911,0.951-1.964,1.248-3.104c0.297,1.14,0.715,2.193,1.255,3.104
		c1.053,1.788,2.53,2.969,4.265,3.401c2.659,0.682,5.553-0.459,8.036-3.09c1.646,2.321,3.745,3.61,5.972,3.61
		c2.483,0,4.75-1.552,6.451-4.339c2.409,2.362,5.155,3.367,7.672,2.726c1.586-0.405,2.962-1.437,3.995-2.969
		c1.262,0.506,2.53,0.614,3.752,0.31c1.943-0.493,3.529-2.018,4.474-4.312c0.115-0.29,0.216-0.594,0.31-0.904
		c0.007,0,0.007,0,0.014,0c2.206-0.283,4.049-1.883,5.25-4.48c2.409,1.741,4.953,2.281,7.112,1.424
		c1.383-0.553,2.47-1.592,3.219-3.05c1.161,0.277,2.287,0.209,3.327-0.202c1.161-0.459,2.112-1.336,2.787-2.53
		c13.536,6.991,29.481,9.157,43.995,9.157c20.965,0,38.914-4.494,42.153-5.351c16.464,4.892,35.108,4.352,50.648-0.796
		c1.356,0.391,2.733,0.708,4.103,0.945c15.722,2.436,31.863-1.248,46.343-7.375c0.162-0.068,0.317-0.135,0.479-0.202l1.336-0.54
		L383.887,466.032z M233.487,286.064c6.957,13.219,8.259,25.236,8.34,31.829c-2.49-3.745-6.296-8.839-10.257-11.849l-4.933-3.758
		l2.348,5.736c0.121,0.29,10.749,26.701,2.78,43.199c-0.999-5.668-3.414-14.818-8.907-18.705l-2.692-1.903l0.034,3.3
		c0.007,0.398,0.209,37.112-13.529,48.415c0.978-7.638,1.559-24.703-10.628-34.251l-2.942-2.308l0.216,3.732
		c0.019,0.282,1.462,31.63-20.722,51.559c10.649-59.377,29.847-133.582,32.513-143.79c0.61-0.907,1.26-1.784,2.029-2.579
		c0.214-0.221,0.449-0.402,0.697-0.552l0.147-0.684c1.984-2.375,3.846-4.831,5.54-7.382c0.452-0.702,0.897-1.417,1.329-2.139
		C217.536,251.481,223.629,267.345,233.487,286.064z M161.619,459.22c-1.135,0.527-2.002,1.414-2.107,1.34
		c-0.425-0.304-0.816-0.54-1.167-0.722c-1.68-0.904-3.421-1.167-5.034-0.763c-0.56,0.142-1.093,0.364-1.593,0.655
		c-1.437-1.478-3.117-2.267-4.865-2.267c-1.768,0-3.455,0.803-4.899,2.301c-1.262-0.119-2.245-0.075-2.823,0.02
		c6.387-33.364,6.64-68.122,5.695-91.65c-0.861-21.452-2.841-37.644-3.536-42.839c3.887-2.519,8.127-5.443,11.798-8.38
		c28.766-22.841,32.531-40.169,33.003-43.536c2.639-1.896,5.418-4.055,7.827-5.979c1.262-1.093,3.657-3.185,4.926-4.292
		c0.322-0.304,0.638-0.62,0.958-0.929C191.968,292.677,161.77,413.189,161.619,459.22z M44.801,133.444
		c-0.999,1.383-1.97,2.78-2.922,4.177c0.31-7.834,2.875-15.634,6.039-22.713l3.556-7.53l-6.194,5.526c0,0-4.669,4.17-7.915,7.078
		c0.189-1.451,0.425-2.908,0.709-4.332c1.383-6.97,3.732-13.894,7.942-19.643c7.443-9.575,17.76-21.303,24.339-31.451
		c-3.05,2.591-5.945,5.324-8.745,8.145c0.169-1.242,0.283-2.49,0.371-3.732c0.533-8.165-0.574-16.276-1.188-24.38
		c-0.709-12.132,0.074-24.811,5.25-35.925c1.383-3.704,4.521-6.201,8.597-5.31c1.296,0.317,2.53,0.924,3.752,1.484
		c5.074,2.476,9.575,6.093,13.732,10.034c8.414,8.05,15.277,17.443,22.416,26.714c-1.397-3.684-3.111-7.227-5.074-10.628
		l14.879,6.35l-4.278,1.822h17.146l-4.271-1.822l14.879-6.35c-1.964,3.401-3.677,6.943-5.074,10.628
		c7.139-9.271,14.001-18.664,22.416-26.714c4.15-3.941,8.657-7.558,13.732-10.034c1.221-0.56,2.449-1.167,3.752-1.484
		c4.062-0.891,7.213,1.613,8.597,5.31c5.169,11.114,5.958,23.792,5.25,35.925c-0.614,8.104-1.721,16.215-1.188,24.38
		c0.094,1.383,0.229,2.767,0.432,4.157c-2.976-3.043-6.086-5.945-9.474-8.57c5.25,8.961,14.98,19.946,21.552,28.104l1.377,1.707
		c3.205,3.826,5.506,8.219,7.126,12.956c1.383,4.055,2.375,8.367,2.935,12.659c-4.568-4.082-11.019-9.865-14.109-12.605
		c3.171,6.545,6.768,14.103,8.3,21.228c0.688,2.969,1.188,6.019,1.316,9.069c-2.942-4.386-5.965-8.664-9.723-12.483l-5.196-4.926
		c2.186,5.945,4.858,12.78,5.614,19.089c0.391,2.928,0.641,6.235-0.088,9.136c-2.294-2.868-4.966-5.378-7.996-7.517
		c-3.9-2.746-8.489-4.636-13.28-5.095l-2.348-0.243c0.722,2.814,1.363,5.951,1.134,8.887c-0.088,1.498-0.385,3.036-1.039,4.366
		c-7.632-4.899-17.342-4.683-24.636,1.032l-0.317,0.236c0,0-0.027,0.047-0.054,0.108c-4.615-0.014-9.082,0.695-12.929,2.443
		c3.907-0.432,7.807-0.425,11.694-0.149c-0.681,1.201-1.41,2.375-2.193,3.522c-3.279-0.358-6.491-0.277-9.501,0.418
		c2.794,0.25,5.54,0.722,8.252,1.343c-7.733,10.405-19.433,17.524-32.848,12.281c-6.039-2.402-11.059-6.849-14.912-12.126
		c2.928-0.702,5.904-1.228,8.934-1.498c-3.225-0.749-6.687-0.789-10.209-0.331c-0.762-1.161-1.471-2.355-2.125-3.563
		c4.103-0.317,8.212-0.358,12.335,0.101c-4.015-1.829-8.698-2.51-13.522-2.436c-0.014-0.034-0.034-0.068-0.047-0.094
		c-7.368-5.931-17.18-6.289-24.98-1.289c-0.196-0.398-0.364-0.816-0.499-1.255c-1.154-3.853-0.385-8.185,0.601-11.997l-2.348,0.243
		c-8.549,0.85-15.992,6.019-21.276,12.625c-0.736-2.902-0.486-6.215-0.095-9.15c0.763-6.323,3.462-13.124,5.614-19.089l-5.196,4.926
		C48.937,127.755,46.94,130.549,44.801,133.444z M189.108,168.289c0.094,0.128,8.158,11.377,5.405,24.778
		c-1.39-3.05-3.63-6.545-6.869-7.652l-2.746-0.938l0.547,2.854c0.034,0.169,2.949,15.999-4.582,31.269
		c-0.924-3.07-2.429-7.132-4.514-9.71l-2.827-3.482l-0.175,4.48c0,0.088-0.391,8.671-5.891,19.71
		c-5.074,10.175-15.668,24.589-37.261,35.446l-1.842,0.837l-1.781-0.81c-21.647-10.884-32.241-25.297-37.315-35.473
		c-5.499-11.039-5.891-19.622-5.898-19.71l-0.162-4.501l-2.834,3.502c-2.085,2.578-3.59,6.64-4.514,9.71
		c-7.524-15.27-4.616-31.1-4.582-31.269l0.553-2.854l-2.76,0.938c-3.232,1.107-5.472,4.602-6.862,7.645
		c-2.733-13.367,5.31-24.649,5.405-24.771l3.32-4.541l-5.277,1.964c-3.839,1.437-6.97,4.845-9.116,7.848
		c1.181-13.583,9.568-25.034,13.786-30.007c0.013,3.144,0.695,6.228,2.692,8.799l1.053,1.269c4.831-4.244,11.944-6.188,18.097-3.88
		c0.709,0.263,1.397,0.58,2.072,0.924c-5.972,0.735-11.876,2.402-16.741,4.312c-5.958,2.632-5.843,2.476,0.378,1.269
		c6.458-1.161,12.962-2.524,19.501-3.286c0.661,1.336,1.37,2.611,2.146,3.846c-7.571,1.66-15.128,5.304-20.864,9.002
		c-5.324,3.765-5.243,3.597,0.621,1.174c7.126-2.827,14.271-5.925,21.653-8.057c0.405,0.58,0.817,1.154,1.248,1.727
		c4.123,5.418,9.46,10.108,15.904,12.618c15.365,5.965,28.9-2.173,37.592-14.521c7.605,2.132,14.953,5.324,22.288,8.232
		c6.033,2.497,5.79,2.49,0.621-1.174c-5.904-3.806-13.725-7.558-21.518-9.143c0.047-0.074,0.101-0.148,0.148-0.223
		c0.735-1.161,1.417-2.308,2.072-3.549c6.734,0.749,13.435,2.152,20.081,3.354c6.404,1.255,6.161,1.296,0.378-1.269
		c-5.007-1.964-11.1-3.664-17.241-4.373c0.641-0.317,1.296-0.614,1.964-0.864c6.154-2.308,13.259-0.371,18.097,3.88l1.046-1.269
		c1.795-2.179,2.463-4.933,2.638-7.611c0.027-0.452,0.02-0.897,0.027-1.336c4.177,4.892,12.72,16.431,13.914,30.156
		c-2.153-3.003-5.284-6.41-9.123-7.848l-5.27-1.964L189.108,168.289z M39.207,196.832c1.964,8.536,5.877,16.626,10.823,23.813
		c2.294,3.158,4.973,6.005,8.246,8.198c-0.735-1.869-1.646-3.549-2.611-5.182c-2.699-4.926-6.026-9.481-8.246-14.636
		c-2.699-5.85-4.609-12.126-5.304-18.522c-0.007-0.054-0.007-0.115-0.014-0.175c0.034-0.061,0.061-0.122,0.094-0.182l-0.128-0.088
		c-1.343-12.186,2.031-24.636,8.59-34.98c0.027,0.047,0.041,0.081,0.041,0.081c2.679-4.393,6.215-8.489,10.472-11.417
		c2.368-1.66,4.986-2.949,7.746-3.738c-4.447,4.879-17.315,20.77-15.783,39.832l0.513,6.35l2.699-5.769
		c0.027-0.061,1.876-3.974,4.852-7.321c-2.557,6.107-4.831,15.662-0.709,25.972l1.923,4.791l1.282-5
		c0.412-1.626,1.768-5.526,3.752-8.064c-0.526,6.673-0.351,20.392,7.537,33.212l2.24,3.63l0.85-4.177
		c0.013-0.061,0.931-4.46,2.598-8.36c0.742,3.779,2.288,9.386,5.479,15.83c5.29,10.695,16.336,25.817,38.961,37.187l3.239,1.478
		l3.3-1.505c22.571-11.343,33.617-26.465,38.907-37.16c3.192-6.444,4.737-12.052,5.479-15.83c1.667,3.9,2.584,8.3,2.598,8.36
		l0.85,4.177l2.233-3.63c7.908-12.834,8.07-26.573,7.544-33.239c1.964,2.503,3.306,6.35,3.752,8.091l1.289,4.986l1.909-4.777
		c4.13-10.311,1.856-19.865-0.702-25.972c2.969,3.347,4.825,7.261,4.852,7.321l2.699,5.776l0.513-6.356
		c1.525-19.015-11.282-34.879-15.756-39.798c0.688,0.196,1.37,0.418,2.038,0.682c4.831,1.916,8.988,5.263,12.335,9.258
		c3.866,4.852,6.957,10.425,9.123,16.208c2.875,7.598,3.907,15.817,3.097,23.867c-0.013,0.014-0.135,0.094-0.135,0.094
		c0.041,0.061,0.074,0.128,0.115,0.189c-0.297,2.794-0.81,5.567-1.552,8.286c-1.91,7.173-5.162,13.921-9.15,20.189
		c-2.004,3.252-3.995,6.424-5.486,10.034c3.266-2.193,5.945-5.041,8.246-8.198c4.906-7.166,8.839-15.189,10.796-23.691
		c10.31,30.378-10.83,57.565-35.028,74.853c-4.939,3.704-10.277,6.64-14.447,11.343c2.503-0.567,4.804-1.525,7.058-2.578
		c2.456-1.242,4.777-2.719,7.051-4.265c-2.233,6.815-9.811,22.315-35.21,41.296c-4.615,3.448-15.371,9.872-18.448,11.701
		c-7.227-4.116-12.949-8.212-17.612-11.701c-24.562-18.361-32.463-33.462-34.974-40.594c1.957,1.302,3.961,2.524,6.012,3.563
		c2.247,1.053,4.555,2.011,7.051,2.578c-4.17-4.703-9.508-7.638-14.44-11.343c-10.661-7.74-20.621-17.025-27.834-27.996
		C37.264,230.159,33.768,212.338,39.207,196.832z M115.004,459.467c-0.644-0.006-1.465,0.059-2.267,0.337
		c-1.457-1.525-3.151-2.341-4.939-2.341c-1.741,0-3.428,0.789-4.865,2.267c-0.499-0.297-1.032-0.513-1.592-0.655
		c-1.613-0.405-3.354-0.142-5.007,0.749c-0.378,0.196-0.756,0.425-1.188,0.729c-0.115,0.088-0.236,0.175-0.351,0.263
		c-0.056-0.045-1.137-0.819-2.099-1.507c-0.114-45.466-30.487-167.045-38.95-200.045c2.586,2.64,5.302,5.156,8.106,7.521
		c0.344,0.317,1.059,0.897,1.437,1.188c1.721,1.302,4.143,3.354,5.897,4.541c0.695,0.493,1.397,0.992,2.105,1.491
		c0.805,4.451,7.806,26.726,41.898,50.06c-0.465,3.226-2.811,20.356-3.804,43.843C108.395,391.368,108.596,426.068,115.004,459.467z
		 M26.022,308.021l2.341-5.736l-4.926,3.758c-3.961,3.01-7.767,8.104-10.257,11.849c0.081-6.593,1.383-18.617,8.34-31.829
		c10.095-19.164,16.464-36.033,19.17-43.739c2.147,3.748,4.648,7.295,7.393,10.646c2.613,10.002,22.855,88.134,33.775,149.205
		c-19.663-19.074-20.189-52.386-20.169-52.677l0.216-3.732l-2.942,2.308c-12.186,9.548-11.606,26.613-10.628,34.245
		c-13.725-11.296-13.536-48.01-13.529-48.408l0.034-3.3l-2.692,1.903c-5.493,3.887-7.908,13.037-8.907,18.698
		C15.293,334.728,25.9,308.311,26.022,308.021z M33.566,411.18l-0.047-5.776l-3.07,4.892c-3.165,5.047-3.826,11.154-3.853,15.189
		c-9.555-11.829-6.228-38.489-6.194-38.779l1.309-10.068l-4.494,9.103c-3.124,6.336-5.216,13.556-6.282,17.774
		c-8.718-12.679-9.98-29.211-3.731-49.218c2.922-9.373,6.95-17.504,9.858-22.74c-0.681,8.88,0.391,18.448,5.877,25.587l2.672,3.468
		l0.351-4.366c0.013-0.135,1.005-11.91,5.54-18.293c0.385,11.222,2.861,41.91,18.394,49.353l3.151,1.512l-0.776-3.408
		c-0.047-0.216-4.494-20.432,6.026-32.112c0.261,9.436,3.676,36.467,24.633,54.983c3.015,17.575,5.146,33.427,5.711,45.4
		c-0.796-0.894-2.151-2.159-3.603-2.352c-1.579-0.196-3.144,0.283-4.602,1.404c-0.391-0.283-0.817-0.513-1.262-0.695
		c-1.775-0.702-3.785-0.486-5.79,0.594c-0.088,0.047-0.169,0.088-0.25,0.135c-0.493-0.472-1.059-0.843-1.694-1.093
		c-2.47-0.978-5.499,0.047-8.118,2.76c-0.972,1.026-1.849,2.24-2.591,3.583C34.18,445.735,33.573,411.531,33.566,411.18z
		 M81.205,470.688c-0.472,1.781-0.709,3.583-0.709,5.344v0.007c0,0.229,0.007,0.459,0.02,0.682
		c-0.938-0.695-1.754-2.126-2.247-4.022l-0.162-0.614l-0.553-3.961l-2.051,3.738l-0.088,0.094c-1.916,2.018-3.981,2.922-5.391,2.362
		c-1.08-0.425-1.613-1.592-1.876-2.503l0.196-4.501l-2.74,3.509c-0.601,0.29-1.417,0.526-2.139,0.243
		c-0.884-0.351-1.323-1.37-1.532-2.173c-0.27-1.026-0.31-2.294-0.135-3.657c0.169-1.282,0.52-2.578,1.046-3.853
		c0.735-1.788,1.748-3.387,2.915-4.616c1.606-1.66,3.3-2.409,4.433-1.957c0.439,0.175,0.796,0.513,1.093,1.046l0.958,1.734
		l1.559-1.228c0.385-0.297,0.756-0.54,1.147-0.742c0.79-0.425,1.95-0.85,2.983-0.445c0.385,0.155,0.715,0.412,1.019,0.783
		l0.688,3.704l1.835-3.286l0.162-0.175c0.587-0.634,1.761-1.68,2.935-1.532c0.769,0.196,3.468,2.821,3.556,5.823
		c-1.35,0.729-2.652,1.889-3.799,3.455C82.946,465.836,81.866,468.171,81.205,470.688z M123.169,484.366
		c-0.594,1.012-1.336,1.633-2.193,1.849c-1.815,0.459-4.13-0.978-6.046-3.745l-0.277-0.405l-1.707-5.095l-0.911,5.695l-0.02,0.04
		c-1.154,2.456-2.733,3.92-4.217,3.92c-1.646,0-3.34-1.727-4.514-4.622l-0.135-0.331l-1.161-4.703l-1.64,4.69
		c-1.869,2.571-4.103,3.9-5.837,3.455c-1.316-0.331-2.112-1.552-2.557-2.551l-0.31-5.169l-2.443,4.494
		c-0.655,0.412-1.559,0.789-2.443,0.567c-1.127-0.283-1.808-1.417-2.18-2.315c-0.196-0.486-0.358-1.039-0.472-1.653
		c-0.148-0.735-0.229-1.559-0.236-2.463c0-0.175,0.014-0.351,0.02-0.533c0.007-0.189,0.007-0.385,0.02-0.574
		c0.007-0.108,0.02-0.209,0.027-0.317c0.088-1.012,0.263-2.038,0.533-3.057c0.553-2.119,1.444-4.055,2.578-5.607
		c1.134-1.539,2.287-2.274,2.861-2.571c0.04-0.02,0.088-0.047,0.128-0.068c0.047-0.02,0.094-0.047,0.128-0.061
		c0.607-0.243,1.188-0.317,1.714-0.182c0.553,0.142,1.053,0.506,1.478,1.086l1.174,1.586l1.383-1.41
		c0.385-0.385,0.776-0.722,1.181-1.005c0.297-0.209,0.553-0.371,0.81-0.499c0.938-0.506,1.815-0.661,2.611-0.466
		c0.466,0.121,0.897,0.371,1.302,0.742l1.221,4.184l1.491-4.177l0.04-0.067c0.702-0.999,1.829-2.193,3.225-2.193
		c1.667,0,2.955,1.707,3.576,2.733l0.169,0.277l1.404,3.758l1.181-3.765c0.27-0.175,0.553-0.317,0.843-0.391
		c2.753-0.702,7.051,3.212,8.819,9.919C124.903,477.625,124.667,481.835,123.169,484.366z M127.602,472.517
		c-0.101,0.391-0.196,0.776-0.277,1.167c-0.081-0.391-0.169-0.776-0.27-1.167c-1.462-5.55-4.483-10.089-7.868-11.994
		c-11.497-57.778-4.111-121.082-2.387-134.031c1.875,1.192,5.168,3.188,10.62,6.226l0.843,0.472l0.837-0.486
		c0.283-0.169,3.844-2.169,8.549-5.097c1.913,15.224,8.506,77.284-2.79,133.683C131.728,463.263,128.964,467.333,127.602,472.517z
		 M170.754,476.579c-0.007,0.25-0.014,0.506-0.034,0.742v0.007c-0.04,0.412-0.101,0.803-0.175,1.174
		c-0.115,0.601-0.277,1.154-0.472,1.633c-0.371,0.904-1.046,2.038-2.173,2.321c-0.891,0.223-1.788-0.155-2.449-0.567l-2.443-4.494
		l-0.31,5.169c-0.445,0.999-1.242,2.22-2.551,2.551c-1.734,0.439-3.968-0.884-5.843-3.455l-1.64-4.69l-1.154,4.703l-0.135,0.331
		c-1.181,2.895-2.868,4.622-4.521,4.622c-1.484,0-3.064-1.464-4.217-3.92l-0.02-0.04l-0.904-5.695l-1.714,5.101l-0.277,0.398
		c-1.916,2.773-4.231,4.204-6.046,3.745c-0.857-0.216-1.592-0.837-2.193-1.849c-1.491-2.53-1.727-6.741-0.621-10.992
		c1.768-6.714,6.073-10.614,8.812-9.933c0.304,0.081,0.58,0.223,0.857,0.398l1.181,3.765l1.404-3.758l0.162-0.277
		c0.621-1.026,1.916-2.733,3.576-2.733c1.397,0,2.524,1.194,3.225,2.193l0.047,0.067l1.485,4.177l1.221-4.184
		c0.405-0.371,0.837-0.621,1.302-0.742c0.796-0.196,1.673-0.041,2.645,0.479c0.229,0.115,0.486,0.277,0.79,0.493
		c0.391,0.277,0.783,0.614,1.167,0.999l1.383,1.41l1.174-1.586c0.432-0.58,0.925-0.945,1.478-1.086
		c0.526-0.135,1.113-0.061,1.721,0.189c0.013,0.007,0.034,0.014,0.047,0.02c0.088,0.04,0.175,0.088,0.263,0.135
		c0.594,0.317,1.707,1.046,2.8,2.537c1.134,1.552,2.031,3.488,2.584,5.607c0.391,1.505,0.594,3.009,0.594,4.474
		C170.781,476.214,170.76,476.39,170.754,476.579z M192.724,468.893c-0.209,0.803-0.648,1.822-1.539,2.173
		c-0.722,0.283-1.532,0.047-2.139-0.243l-2.733-3.509l0.189,4.508c-0.263,0.911-0.796,2.072-1.869,2.497
		c-1.41,0.56-3.475-0.344-5.391-2.362l-0.095-0.088l-2.044-3.745l-0.56,3.961l-0.162,0.614c-0.493,1.903-1.309,3.333-2.24,4.022
		c0.007-0.196,0.007-0.391,0.013-0.594v-0.094c0-1.761-0.236-3.563-0.709-5.344c-0.654-2.517-1.741-4.852-3.124-6.748
		c-1.147-1.559-2.443-2.719-3.792-3.448c0.081-3.003,2.78-5.621,3.509-5.816c1.228-0.149,2.395,0.891,2.982,1.525l0.155,0.175
		l1.835,3.286l0.695-3.704c0.297-0.371,0.627-0.628,1.019-0.783c1.026-0.405,2.186,0.02,3.016,0.466
		c0.358,0.182,0.729,0.425,1.107,0.722l1.565,1.228l0.958-1.734c0.29-0.533,0.648-0.871,1.093-1.046
		c1.127-0.452,2.827,0.297,4.42,1.95c1.174,1.235,2.186,2.834,2.922,4.629c0.526,1.269,0.884,2.564,1.053,3.839
		C193.035,466.599,192.988,467.867,192.724,468.893z M193.993,458.144c-0.756-1.397-1.66-2.659-2.672-3.718
		c-2.611-2.706-5.641-3.732-8.104-2.753c-0.634,0.25-1.201,0.621-1.694,1.093c-0.074-0.041-0.148-0.081-0.216-0.115
		c-2.038-1.1-4.055-1.316-5.823-0.614c-0.452,0.182-0.87,0.412-1.262,0.702c-1.458-1.127-3.03-1.613-4.616-1.41
		c-1.696,0.227-3.273,1.937-3.956,2.781c0.543-12.463,2.786-29.082,5.952-47.415c22.489-18.205,24.849-44.006,25.109-53.397
		c10.52,11.68,6.073,31.896,6.026,32.112l-0.776,3.408l3.151-1.512c15.533-7.443,18.01-38.131,18.394-49.353
		c4.535,6.383,5.526,18.158,5.54,18.293l0.351,4.366l2.665-3.468c5.493-7.139,6.565-16.707,5.884-25.594
		c2.908,5.243,6.937,13.367,9.858,22.747c6.248,20.007,4.987,36.539-3.731,49.218c-1.066-4.217-3.158-11.437-6.282-17.774
		l-4.494-9.103l1.309,10.068c0.034,0.29,3.36,26.95-6.194,38.779c-0.027-4.035-0.688-10.142-3.853-15.189l-3.077-4.899l-0.04,5.783
		C221.436,411.537,220.862,445.964,193.993,458.144z M373.658,467.625c-13.259,3.873-27.382,6.849-41.127,4.109
		c-5.391-1.1-10.567-3.185-15.223-6.586c2.443,3.293,5.762,5.769,9.447,7.537c-4.575,0.972-9.298,1.599-13.927,1.943
		c-12.355,0.931-24.865-0.391-36.694-4.123c-5.938-1.822-11.714-4.19-17.517-6.829c4.953,4.096,10.634,7.321,16.734,9.73
		c-14.163,3.009-52.356,9.143-79.117-5c0.142-1.113,0.135-2.321-0.027-3.617c-0.162-1.188-0.445-2.382-0.85-3.563
		c11.714-5.304,20.459-15.297,25.385-29.069c1.889-5.284,2.902-10.196,3.441-13.941c1.377,5.702,0.668,11.127,0.655,11.201
		l-0.547,3.961l3.219-2.369c9.582-7.051,11.181-23.354,11.086-34.224c1.97,5.945,2.996,10.891,3.009,10.965l0.709,3.489l2.254-2.76
		c3.183-3.904,5.637-8.242,7.364-12.959c6.862-0.205,15.271,0.029,22.043,0.691c7.072,0.648,13.995,1.883,20.992,3.252
		c-12.571-5.897-28.543-8.138-42.295-6.127c0.317-1.019,0.924-2.665,0.924-2.665c0.425-0.068,41.606-5.709,71.452,24.11
		c-8.111-0.843-16.35-0.351-24.211,1.761c37.774-1.356,67.106,11.593,79.32,48.928C378.03,466.235,375.837,466.97,373.658,467.625z
		 M52.837,159.402c-4.035,13.239-6.093,26.822-3.131,40.507C42.027,187.938,44.376,170.401,52.837,159.402z M362.295,441.47
		c-11.039-6.073-21.215-13.536-33.239-17.585C340.736,423.697,354.67,433.056,362.295,441.47z M180.194,266.981
		c5.034-5.412,10.189-10.412,15.216-15.769c4.494-4.69,10.614-11.275,15.182-15.83C204.789,247.932,192.589,260.814,180.194,266.981
		z M171.456,21.674c-4.588,4.481-8.583,9.487-13.158,14.089c4.966-13.678,30.007-41.073,32.139-10.709
		c0.742,9.447,0.128,19.784-0.034,29.265c-3.381-10.85-2.227-22.477-4.372-33.489c-0.695-2.875-1.687-6.788-5.351-5.418
		C177.151,16.539,174.29,19.049,171.456,21.674z M115.922,153.788c-0.54-0.54-0.54-1.424,0.007-1.964
		c0.54-0.54,1.424-0.533,1.964,0.007c0.54,0.547,0.533,1.424-0.007,1.964C117.339,154.335,116.462,154.335,115.922,153.788z
		 M117.784,155.745c0.54-0.54,1.424-0.54,1.964,0.007c0.54,0.54,0.54,1.424-0.007,1.964c-0.547,0.54-1.424,0.54-1.964-0.007
		C117.238,157.162,117.238,156.285,117.784,155.745z M137.474,155.752c0.54-0.547,1.417-0.547,1.964-0.007
		c0.547,0.54,0.547,1.417,0.007,1.964c-0.54,0.547-1.417,0.547-1.964,0.007C136.934,157.175,136.934,156.291,137.474,155.752z
		 M145.74,88.828c-0.56,1.167-1.113,2.341-1.788,3.489c0.85-9.319,5.958-22.234,14.42-27.045
		C152.96,72.431,149.701,80.832,145.74,88.828z M110.746,158.599c2.78,1.829,6.093,2.706,9.157,1.437
		c2.166-0.864,4.082-2.416,5.816-4.055c-6.599-1.849-5.965-6.451-5.965-6.451c-0.013-7.956,6.107-8.772,8.887-8.732
		c2.78-0.041,8.9,0.776,8.887,8.732c0,0,0.634,4.615-5.999,6.464c2.854,2.686,6.235,5.229,10.317,4.528
		c1.586-0.25,3.144-0.992,4.642-1.923c-1.019,1.431-2.395,2.713-4.136,3.516c-4.784,2.146-10.29-0.196-13.725-3.907
		C123.803,163.464,115.342,165.252,110.746,158.599z M139.336,153.795c-0.547-0.54-0.547-1.417-0.007-1.964
		c0.54-0.54,1.424-0.547,1.964-0.007c0.547,0.54,0.547,1.424,0.007,1.964C140.76,154.335,139.883,154.335,139.336,153.795z
		 M105.024,101.372c-6.667-6.005-17.011-5.331-17.45-5.297l-1.619,0.115l0.816,1.403c0.013,0.02,1.073,1.856,1.802,4.811
		c0.121,0.493,0.236,1.012,0.358,1.559c0.695,3.138,1.559,7.051,4.595,9.791c2.861,2.571,6.424,3.057,9.575,3.482
		c0.594,0.081,1.167,0.162,1.721,0.25c3.205,0.533,4.906,1.437,4.919,1.444l1.41,0.776l0.088-1.606
		C111.259,117.661,111.731,107.411,105.024,101.372z M90.908,103.524c-0.121-0.56-0.243-1.1-0.371-1.606
		c-0.398-1.613-0.884-2.928-1.282-3.846c1.242,0.02,3.131,0.142,5.236,0.567c-0.337,0.277-0.668,0.574-0.978,0.898
		c-1.248,1.336-2.072,2.949-2.449,4.676C91.009,103.976,90.955,103.747,90.908,103.524z M108.675,113.2
		c0.047-0.054,0.088-0.108,0.135-0.155c0.243,1.377,0.351,2.584,0.391,3.468c-0.884-0.317-2.152-0.688-3.779-0.978
		C106.637,114.988,107.744,114.199,108.675,113.2z M108.196,110.468c-0.29,0.486-0.627,0.951-1.019,1.377
		c-1.491,1.592-3.516,2.524-5.715,2.611c-2.186,0.095-4.305-0.661-5.931-2.125c-3.354-3.016-3.583-8.151-0.513-11.437
		c0.607-0.654,1.309-1.181,2.078-1.599c0.958,0.297,1.93,0.668,2.875,1.127c-1.127,0.202-2.207,0.708-3.097,1.538
		c-0.202,0.182-0.391,0.385-0.56,0.587c1.053-0.02,2.092,0.378,2.868,1.181c1.451,1.518,1.377,3.9-0.162,5.324
		c-0.783,0.722-1.788,1.059-2.78,1.019c0.115,0.155,0.243,0.297,0.378,0.439c2.335,2.429,6.228,2.557,8.704,0.263
		c0.945-0.877,1.545-1.984,1.795-3.144C107.561,108.571,107.919,109.536,108.196,110.468z M71.252,20.831
		c-2.146,11.012-0.999,22.639-4.373,33.489c-0.162-9.501-0.776-19.805-0.034-29.265c2.132-30.372,27.173-2.955,32.139,10.709
		c-4.582-4.595-8.57-9.609-13.165-14.089c-2.827-2.625-5.688-5.135-9.217-6.262C72.939,14.043,71.94,17.956,71.252,20.831z
		 M107.426,87.674c-6.12-4.872-10.945-10.938-17.267-15.587C97.642,72.937,104.781,80.967,107.426,87.674z"/>
</g>
</svg>
