<?xml version="1.0" encoding="utf-8"?>
<!-- Generator: Adobe Illustrator 28.3.0, SVG Export Plug-In . SVG Version: 6.00 Build 0)  -->
<svg version="1.1" id="zebra" xmlns="http://www.w3.org/2000/svg" xmlns:xlink="http://www.w3.org/1999/xlink" x="0px" y="0px"
	 viewBox="0 0 490 353.127" enable-background="new 0 0 490 353.127" xml:space="preserve">
<g id="zebra_00000085930386897802782330000001339697785686837409_">
	<g>
		<path fill="#FFFFFF" d="M479.043,244.393c-6.115-9.617-10.526-20.288-13.718-31.255v-0.003c-0.983-3.367-1.849-6.765-2.613-10.166
			c-1.711-7.266-2.97-16.856-4.499-24.143c-0.768-3.505-1.62-7.068-2.583-10.637v-0.003c-0.576-2.152-1.195-4.3-1.865-6.445v-0.003
			c-1.401-4.502-3.01-8.96-4.903-13.274c-1-2.286-2.078-4.529-3.243-6.714c-1.929-3.62-4.101-7.081-6.556-10.31
			c-1.367-1.801-2.822-3.529-4.371-5.172c-2.084-2.206-4.337-4.256-6.778-6.125c-1.657-1.179-3.387-2.276-5.226-3.138
			c0.202,1.434,0.209,2.909-0.094,4.438c-2.903-3.105-4.121-7.078-5.872-10.822c-5.051-10.863-13.644-19.974-24.385-25.328
			c-18.129-9.092-39.538-8.964-59.176-5.63c-12.068,2.391-24.096,5.576-36.232,7.684c-44.03,7.799-108.391,14.223-143.821-18.392
			c-3.024-2.842-5.657-6.041-8.586-8.964c-2.855-2.903-5.825-5.684-8.923-8.31c-12.297-10.411-27.019-18.5-43.074-20.81
			c-7.388-1.024-15.085-1.017-22.298,0.983c1.657,2.647,2.761,5.724,2.357,9.004c-2.27-2.344-3.798-4.768-5.583-7.341
			c-4.957-6.835-12.897-12.694-21.321-13.812c-0.822-0.094-2.195-0.027-2.674,0.357c-0.061,0.074-0.236,0.458-0.29,0.929
			c-0.37,3.515,0.418,7.139,1.111,10.775c1.158,6.101,3.596,11.967,3.448,18.291c-0.788-0.943-1.475-1.933-2.074-2.97
			c-8.115,9.846-13.799,21.638-17.759,33.72c-0.505,1.515-1.131,3.502-1.684,4.963c-1.845,4.984-4.411,9.738-7.361,14.115
			c-0.788,1.199-1.623,2.374-2.485,3.536c-3.222,4.361-6.782,8.533-9.401,13.105c-0.094,0.155-0.175,0.317-0.263,0.471
			c1.825,2.492,4.175,7.657-0.781,14.035c0.444,0.902,0.997,1.778,1.684,2.606c6.667,8.782,16.87,6.984,25.16,1.509
			c2.775-1.785,5.34-3.933,7.724-6.27c2.623-2.492,4.808-5.354,6.94-8.256c0.845-1.148,1.68-2.3,2.529-3.441
			c1.057-1.333,2.074-2.694,3.36-4.014c-0.131,2.653-1.017,5.095-2.209,7.411c-0.04,0.077-0.081,0.155-0.121,0.232
			c-2.216,3.818-5.044,7.266-8.115,10.438c-1.623,1.63-3.414,3.259-5.334,4.775c1.643-0.458,3.259-1.408,4.654-2.35
			c4.526-3.293,8.135-7.819,11.401-12.311c0.455-0.647,0.923-1.286,1.414-1.913c0.027-0.037,0.054-0.071,0.084-0.108
			c3.246-4.152,7.229-7.802,11.762-10.452c6.748-4.115,14.58-5.973,21.368-9.59c3.273-1.751,6.101-4.108,8.283-7.044
			c0.781-1.034,1.505-2.118,2.212-3.236v-0.003c1.286-2.041,2.509-4.199,3.896-6.418c0.145,6.536-3.344,12.489-8.23,16.664
			c-0.603,0.519-1.226,1.007-1.865,1.465c2.889,9.529,23.059,72.571,56.677,93.771c-0.3-1.3-0.579-2.603-0.822-3.913
			c-0.825-4.495-1.168-9.041-0.114-13.557c0.694,1.946,1.226,3.845,1.731,5.745c1.509,5.684,2.492,11.442,4.108,17.112
			c9.368,34.319,25.12,66.745,32.77,101.61c1.623,9.071,4.303,23.853-4.916,29.746c-0.865,0.546-1.714,1.115-2.546,1.704
			c-0.727,0.515-1.445,1.047-2.142,1.596c0.33,0.276,0.754,0.623,1.259,1.017c-5.276,4.256-10.233,11.482-12.072,14.311h35.716
			c0.249-1.044,0.37-2.081,0.31-3.105c-0.007-0.098-0.013-0.195-0.02-0.29c-0.01-0.098-0.02-0.192-0.03-0.286
			c-0.01-0.094-0.024-0.189-0.037-0.28c-0.017-0.118-0.037-0.229-0.061-0.343c-0.013-0.071-0.027-0.145-0.044-0.215
			c-0.01-0.054-0.024-0.111-0.037-0.165c-0.037-0.165-0.081-0.327-0.128-0.485c-0.034-0.114-0.067-0.229-0.104-0.34
			c-0.027-0.088-0.054-0.175-0.088-0.259c-0.02-0.064-0.044-0.128-0.071-0.192c-0.037-0.111-0.081-0.219-0.128-0.33
			c-0.017-0.054-0.04-0.104-0.064-0.158c-0.044-0.118-0.094-0.232-0.148-0.347c-0.027-0.064-0.054-0.125-0.084-0.185
			c-0.013-0.034-0.03-0.067-0.047-0.101c0-0.003-0.003-0.003-0.003-0.003c0-0.003,0-0.007-0.003-0.01
			c-0.04-0.094-0.088-0.185-0.131-0.279c-0.333-0.687-0.71-1.364-1.101-2.057c0,0,0-0.003-0.003-0.003
			c-0.34-0.606-0.69-1.222-1.027-1.865c-4.977-9.549,5.273-11.671,3.879-23.449c-1.03-11.206-5.051-22.399-4.101-33.794
			c0.465-8.061,3.946-16.143,4.243-23.678c0.478-6.33-1.94-12.385-3.071-18.527c-0.609-3.219-1.071-6.452-1.418-9.688
			c-0.003-0.007-0.003-0.013-0.003-0.02c-0.35-3.246-0.586-6.495-0.741-9.741c-0.148-3.253-0.215-6.499-0.202-9.745
			c0.013-3.32,0.35-6.6,1.865-9.671c1.145,3.128,1.391,6.246,1.424,9.475c0.003,0.061,0.003,0.121,0.003,0.182
			c0.013,0.741,0.034,1.488,0.054,2.236c3.67,1.266,18.776,6.021,41.316,7.017c23.571,1.037,60.28-1.96,101.96-21.887
			c-0.424-0.626-0.835-1.256-1.229-1.889c-4.256-6.805-6.842-14.119-5.492-21.426c0.822,2.121,1.468,4.169,2.169,6.175
			c1.98,6.048,4.539,11.806,8.418,16.91c10.391,13.9,25.207,23.88,36.056,37.646c5.583,6.963,10.122,14.951,12.506,23.611
			c3.488,12.775,5.704,25.887,5.98,39.141c0,9.603-0.512,22.123-8.075,29.113c-0.808,0.788-2.034,1.434-2.977,2.02
			c-2.663,1.606-5.095,3.536-7.337,5.681c-1.135,1.088-2.219,2.232-3.259,3.418c1.273-1.246,2.448-2.381,3.394-3.276
			c0.411,0.421,1.044,1.034,1.872,1.741c-4.943,4.253-9.492,10.846-11.3,13.617h31.925c-1.071-2.236-1.973-4.573-2.381-7.007
			c-0.047-0.266-0.084-0.539-0.118-0.808c0-0.003,0-0.003,0-0.007c-0.189-1.593-0.155-3.229,0.195-4.899
			c0.909-4.458,4.896-7.543,8.95-8.984c0.707-2.081,0.707-5.61,0.774-8.223c-0.04-17.2,0.7-34.622,5.058-51.371
			c1.206-4.465,2.599-9.105,2.155-13.738c-1.522-14.722-16.351-17.409-12.122-41.444c0.855-4.903,2.465-9.711,4.142-14.371
			c1.603-4.559,3.017-9.179,4.243-13.86c2.99-11.438,4.825-23.21,5.344-35.029v-0.003c0.121-2.667,0.172-5.337,0.152-8.007
			c-0.101-4.849-0.296-9.603,0.505-14.634c0.815,1.657,1.374,3.367,1.771,5.105c1.088,0.566,2.135,1.168,3.145,1.812
			c1.546,0.976,3,2.044,4.374,3.192c2.825,2.357,5.293,5.054,7.425,8.011c1.266,1.751,2.411,3.596,3.438,5.519
			c2.037,3.781,3.63,7.862,4.815,12.129c0.67,2.397,1.212,4.852,1.63,7.347c1.407,8.341,1.458,17.106,0.394,25.524
			c0,0.013-0.003,0.03-0.003,0.044c0,0.003,0,0.003,0,0.007v0.01c-0.3,2.34-0.684,4.66-1.148,6.93
			c-2.626,12.849,2.99,20.991,6.64,24.749c0.088-1.475,0.337-2.936,0.768-4.337c0.768,2.216,1.333,4.512,2.007,6.755
			c0.007,0.007,0.013,0.013,0.02,0.02l-0.013,0.013c0.828,2.741,1.812,5.401,3.542,7.738c1.118,1.603,2.566,2.97,4.202,4.047
			c-0.822-2.236-1.145-4.64-0.855-6.957c2.29,4.202,4.236,8.378,8.095,11.098c2.586,1.865,5.738,2.869,8.93,3.26
			C481.346,247.78,480.195,246.103,479.043,244.393z M37.639,75.674c0.572-4.007,4.283-6.802,8.297-6.223
			c1.327,0.189,2.519,0.727,3.502,1.509c1.145,0.256,2.697,0.357,4.165-0.32c-0.088,0.088-1.488,1.485-1.808,3.579
			c0.397,1.091,0.539,2.296,0.364,3.529c-0.525,3.65-3.67,6.297-7.253,6.297c-0.35,0-0.694-0.027-1.044-0.074
			c-1.495-0.216-2.855-0.875-3.94-1.879c-0.741-0.135-1.711-0.121-2.734,0.397c0,0,0.956-0.956,1.111-2.573
			C37.666,78.61,37.43,77.142,37.639,75.674z M54.569,26.223c5.415,2.775,10.593,7.63,11.28,13.974l-0.003-0.003
			c-3.845-4.169-7.263-8.664-12.226-11.533c-0.209-0.094-0.492,0.013-0.579,0.229c-0.088,0.155,0.114,0.95,0.121,1.125
			c0.498,3.34,0.401,6.708-0.269,10.044c-0.007,0.047-0.017,0.091-0.027,0.138c-0.003-0.007-0.003-0.01-0.007-0.017v-0.003
			c-0.007-0.01-0.01-0.024-0.013-0.034c-1.572-3.485-2.438-7.139-2.566-10.944C50.225,27.071,52.576,25.401,54.569,26.223z
			 M199.744,323.469c-0.549,1.498-1.411,2.946-2.64,3.983h-0.003c-0.461,0.391-0.973,0.721-1.539,0.973
			c0.249-1.118,0.532-2.068,0.774-3.017c0.781-2.687,1.306-5.643,1.367-8.452c0.303-4.061-0.404-7.852,0.209-12.028
			c0.421,0.529,0.798,1.111,1.128,1.737C201.579,311.451,201.573,318.751,199.744,323.469z M414.486,282.604
			c-0.916,7.704-1.825,15.415-2.33,23.146c-0.219,3.313-0.054,6.728-0.663,10.024c0,0.003,0,0.003,0,0.007c0,0.003,0,0.003,0,0.007
			c-0.101,0.552-0.229,1.104-0.38,1.647c-1.488-2.687-1.96-5.758-2.007-8.775c-0.391-8.91,0.545-17.819,2.195-26.554
			c0.727-3.866,1.407-7.772,3.67-11.314c0.266,1.606,0.32,3.175,0.259,4.731C415.14,277.883,414.783,280.217,414.486,282.604z"/>
		<path fill="#FFFFFF" d="M17.045,106.211v0.192L6.249,116.997c0.091-2.98,5.044-10.142,8.209-14.425
			c0.731-0.535,1.179-0.798,1.179-0.798S15.728,103.969,17.045,106.211z"/>
		<path fill="#FFFFFF" d="M33.477,43.086c-1.4,0.245-2.959,0.569-4.465,1.075l-0.086,0.029l-0.061,0.068
			c-1.392,1.594-1.715,3.421-1.74,4.673l-0.012,0.587l0.513-0.287c4.723-2.642,9.64-0.905,11.534-0.036l0.246,0.113l0.163-0.216
			c0.436-0.577,0.879-1.155,1.327-1.722c0.862-1.071,1.811-2.224,2.913-3.395l0.149-0.159l-0.084-0.201
			c-0.268-0.643-0.525-1.312-0.787-2.037c-0.794-2.396-1.457-4.563-2.029-6.625l-0.059-0.215l-0.222-0.029
			c-3.98-0.518-7.605,0.154-11.034,2.059c2.25-3.099,6.311-4.898,10.156-4.362l0.491,0.068l-0.143-0.59
			c-0.105-0.433-0.21-0.867-0.308-1.307l-0.057-0.251l-0.256-0.012c-7.192-0.34-12.792,3.286-15.314,9.958
			c-0.286,0.731-0.545,1.532-0.792,2.446l-0.207,0.765l0.694-0.381C26.596,41.683,30.53,40.896,33.477,43.086z"/>
		<path fill="#FFFFFF" d="M180.564,333.803c-0.832,0.492-1.667,1.088-2.492,1.754c-0.505-0.394-0.929-0.741-1.259-1.017
			c-5.357,4.199-9.9,9.361-13.26,15.328h2.448c-0.485,0.748-0.754,1.189-0.754,1.189s-3.185,1.636-3.973,0
			c-0.074-0.152-0.128-0.333-0.155-0.546c0,0,0,0,0-0.003c-0.061-0.475,0.502-1.428,1.455-2.663
			c3.081-3.98,10.22-10.88,13.479-13.971c1.037-0.98,1.68-1.579,1.68-1.579l1.222,0.65L180.564,333.803z"/>
		<path fill="#FFFFFF" d="M380.619,337.695c-1.061,1.209-2.078,2.458-3.051,3.741c-1.993,2.613-3.872,5.435-5.495,8.324h2.529
			c-0.532,0.812-0.825,1.296-0.825,1.296s-3.182,1.636-3.973,0c-0.074-0.152-0.128-0.333-0.155-0.549
			C369.453,348.976,375.726,342.49,380.619,337.695z"/>
		<path fill="#FFFFFF" d="M389.097,333.803c-1.067,0.633-2.142,1.434-3.196,2.34c-0.828-0.707-1.461-1.32-1.872-1.741
			c1.354-1.293,2.232-2.108,2.232-2.108L389.097,333.803z"/>
		<path fill="#FFFFFF" d="M49.417,73.317c-0.909-1.209-2.232-1.99-3.717-2.195c-0.242-0.04-0.508-0.061-0.815-0.061
			c-1.219,0-2.387,0.391-3.381,1.128c-1.205,0.909-1.983,2.229-2.199,3.721c-0.057,0.414-0.071,0.808-0.044,1.209l0.182,2.539
			l0.485-2.499c0.384-1.98,2.206-3.327,4.192-3.108c-0.387,0.431-0.636,0.963-0.721,1.549c-0.111,0.781,0.091,1.559,0.566,2.189
			c0.471,0.63,1.165,1.037,1.94,1.148c0.549,0.084,1.098,0.01,1.589-0.205c-0.323,1.475-1.495,2.64-2.987,2.95L42.03,82.2
			l2.525,0.148c0.111,0.007,0.226,0.01,0.337,0.01c1.219,0,2.414-0.394,3.394-1.128c1.209-0.906,1.99-2.229,2.206-3.724
			C50.707,76.014,50.326,74.526,49.417,73.317z M50.158,77.458c-0.202,1.408-0.936,2.647-2.074,3.502
			c-1.017,0.761-2.256,1.125-3.509,1.051c1.684-0.35,3.051-1.717,3.307-3.522c0.02-0.135,0.034-0.263,0.04-0.397
			c-0.539,0.418-1.239,0.62-1.966,0.512c-1.428-0.202-2.424-1.529-2.222-2.956c0.108-0.761,0.532-1.394,1.125-1.798
			c-0.168-0.047-0.357-0.088-0.545-0.115c-2.229-0.323-4.29,1.179-4.714,3.36c-0.027-0.377-0.013-0.754,0.04-1.138
			c0.202-1.408,0.936-2.647,2.067-3.502c0.936-0.694,2.041-1.057,3.179-1.057c0.256,0,0.512,0.013,0.761,0.054
			c1.408,0.195,2.653,0.936,3.502,2.067C50.003,74.657,50.36,76.058,50.158,77.458z"/>
		<path fill="#FFFFFF" d="M55.61,18.718l0.176,0.093c4.665,2.454,8.872,6.031,12.165,10.345l0.141,0.183l0.222-0.065
			c14.561-4.281,31.78-2.066,48.48,6.235c12.413,6.15,23.928,15.396,36.246,29.106c10.155,10.523,24.575,17.896,42.859,21.915
			l0.508,0.112l-0.106-0.509c-1.15-5.549-9.293-11.867-15.239-16.48c-1.617-1.255-3.014-2.339-4.049-3.236l-0.009-0.008
			c-5.981-4.814-12.281-10.01-17.785-15.929c-4.174-4.464-7.893-9.493-11.489-14.357c-1.078-1.457-2.151-2.908-3.228-4.335
			c-5.569-7.515-13.32-16.131-23.933-16.131c-0.034,0-0.068,0-0.102,0c-3.298-0.083-6.32,1.016-9.238,2.073
			c-1.499,0.543-3.044,1.102-4.631,1.507c0.715-1.315,1.785-2.461,3.188-3.417l0.594-0.404l-0.691-0.198
			c-5.383-1.542-10.982-1.609-15.52-1.405c3.997-2.068,9.184-2.56,14.478-1.33c1.37,0.308,2.781,0.832,4.313,1.602l0.13,0.064
			l0.136-0.049c0.78-0.281,1.649-0.526,2.583-0.729l0.814-0.176l-0.707-0.439C108.187,7.96,97.726,7.97,88.61,12.79l-3.524,1.964
			l1.594-3.634c1.1-2.623,2.79-5.009,5.024-7.09l0.681-0.635l-0.929,0.052c-9.74,0.541-16.814,3.251-21.631,8.289
			c-1.836,1.982-3.506,4.143-5.338,6.916c0.024-2.187,0.65-4.343,1.87-6.422l0.103-0.176l-0.109-0.173
			c-1.059-1.691-1.569-3.654-1.518-5.834l0.012-0.544l-0.493,0.231c-8.046,3.776-8.797,10.198-8.746,12.784L55.61,18.718z
			 M80.496,7.774c1.154-0.388,2.204-0.581,3.17-0.581c0.395,0,0.775,0.032,1.143,0.097c-1.111,0.793-2.19,1.492-3.494,2.267
			l-0.002,0.001c-1.312,0.789-2.939,1.857-4.512,2.888c-1.262,0.828-2.454,1.61-3.491,2.256c-1.09,0.705-2.304,1.414-3.826,1.897
			C71.277,12.625,76.352,9.27,80.496,7.774z M140.757,34.381c-0.631-0.794-1.285-1.615-1.96-2.403l-0.003-0.003
			c-2.413-2.752-4.996-5.11-7.673-7.008c-4.444-3.196-9.006-4.644-15.03-4.644c-1.138,0-2.328,0.051-3.578,0.153
			c3.155-2.281,7.347-2.121,9.688-1.79c9.017,1.154,15.344,7.936,18.315,11.878c1.993,2.603,3.916,5.455,4.662,8.763
			C143.51,37.839,142.114,36.085,140.757,34.381z"/>
		<path fill="#FFFFFF" d="M385.902,336.143c-4.943,4.253-9.492,10.846-11.3,13.617h-2.529c1.623-2.889,3.502-5.711,5.495-8.324
			c0.973-1.283,1.99-2.532,3.051-3.741c0.003-0.007,0.01-0.013,0.017-0.017c1.273-1.246,2.448-2.381,3.394-3.276
			C384.44,334.823,385.074,335.436,385.902,336.143z"/>
		<path fill="#FFFFFF" d="M178.073,335.557c-5.276,4.256-10.233,11.482-12.072,14.311h-2.448c3.36-5.967,7.903-11.129,13.26-15.328
			C177.143,334.816,177.568,335.163,178.073,335.557z"/>
		<path fill="#FFFFFF" d="M50.158,77.458c-0.202,1.408-0.936,2.647-2.074,3.502c-1.017,0.761-2.256,1.125-3.509,1.051
			c1.684-0.35,3.051-1.717,3.307-3.522c0.02-0.135,0.034-0.263,0.04-0.397c-0.539,0.418-1.239,0.62-1.966,0.512
			c-1.428-0.202-2.424-1.529-2.222-2.956c0.108-0.761,0.532-1.394,1.125-1.798c-0.168-0.047-0.357-0.088-0.545-0.115
			c-2.229-0.323-4.29,1.179-4.714,3.36c-0.027-0.377-0.013-0.754,0.04-1.138c0.202-1.408,0.936-2.647,2.067-3.502
			c0.936-0.694,2.041-1.057,3.179-1.057c0.256,0,0.512,0.013,0.761,0.054c1.408,0.195,2.653,0.936,3.502,2.067
			C50.003,74.657,50.36,76.058,50.158,77.458z"/>
		<path fill="#FFFFFF" d="M483.602,247.548l-0.431,0.66c-7.287-9.385-15.136-32.356-15.136-32.356
			c-8.708-7.364-11.627-21.813-11.957-23.588c-0.013-0.074-0.024-0.125-0.03-0.155c-0.003-0.017-0.003-0.027-0.003-0.027
			l6.802,4.687C465.769,218.354,483.602,247.548,483.602,247.548z"/>
	</g>
	<g>
		<path fill="#666666" d="M58.792,116.936c-0.158,0.286-10.408,18.658-24.305,21.146c-5.795,1.037-10.321,4.542-14.752,3.414
			c-15.109-3.842-19.011-10.22-16.388-22.133c2.054-9.351,8.452-14.856,11.112-16.792c-3.165,4.283-8.118,11.445-8.209,14.425
			l10.795-10.593v-0.192c1.801,3.071,5.91,6.226,15.237,3.926C32.281,110.137,43.565,128.415,58.792,116.936z"/>
		<path fill="#666666" d="M203.381,351.057h-42.538c0,0,0.094-0.195,0.276-0.546c0,0,0,0,0-0.003
			c0.286-0.556,0.785-1.498,1.455-2.663c2.647-4.6,7.964-12.661,13.402-14.041c0,0,0.027,0.024,0.077,0.071
			c0.121,0.111,0.377,0.343,0.761,0.667c-5.357,4.199-9.9,9.361-13.26,15.328h2.448c1.839-2.828,6.795-10.055,12.072-14.311
			c3.994,3.078,13.129,8.964,22.591,6.967c0.027-0.007,0.057-0.01,0.084-0.02c0.017,0,0.034-0.003,0.051-0.01
			c0.478-0.104,0.956-0.229,1.434-0.374C202.233,342.12,204.186,346.501,203.381,351.057z"/>
		<path fill="#666666" d="M409.86,351.057h-41.528c0,0,7.445-15.301,15.132-17.254c0,0,0.145,0.168,0.431,0.458
			c0.037,0.044,0.084,0.091,0.135,0.141c-0.946,0.896-2.121,2.03-3.394,3.276c-0.007,0.003-0.013,0.01-0.017,0.017
			c-1.061,1.209-2.078,2.458-3.051,3.741c-1.993,2.613-3.872,5.435-5.495,8.324h2.529c1.808-2.771,6.357-9.364,11.3-13.617
			c3.401,2.903,10.088,7.391,18.244,6.61c0.074-0.007,0.148-0.013,0.222-0.024c0.535-0.054,1.077-0.135,1.623-0.239
			c0.104-0.02,0.205-0.04,0.31-0.061c0,0-0.05,1.199,0.35,2.859c0,0.007,0.003,0.013,0.003,0.017
			c0.141,0.583,0.34,1.219,0.616,1.879C407.796,348.46,408.607,349.824,409.86,351.057z"/>
		<path fill="#666666" d="M485.656,250.854c0,0-7.142,2.448-16.668-6.159c0,0-7.62,0.205-12.62-14.317
			c0,0-16.227-12.896-5.953-34.366c0,0-0.714,10.516,3.812,13.391c0,0-2.461-6.27,1.818-17.321c0,0,0,0.01,0.003,0.027
			c0.007,0.03,0.017,0.081,0.03,0.155c0.492,2.828,6.98,38.147,26.318,57.125l0.774-1.182
			C484.01,249.289,484.845,250.191,485.656,250.854z"/>
	</g>
	<g>
		<path fill="#A3A3A3" d="M198.194,229.411c0,0,1.543,18.803,2.533,24.747c1.615,9.695-7.528,20.478-4.4,37.302
			c3.129,16.824,5.482,27.776,1.619,34.432s-3.264,10.873,2.992,16.899c0,0-5.074-6.896,0.101-14.362
			c5.175-7.467,2.904-16.773,0-30.639s2.535-30.875,2.535-30.875s1.956-19.228-1.002-24.774
			C199.615,236.594,198.194,229.411,198.194,229.411z"/>
		<path fill="#A3A3A3" d="M199.869,209.495c0,0,63.277,23.433,143.096-14.255l3.104,3.154c0,0-39.264,17.621-71.864,20.874
			s-65.109-1.691-74.336-4.6L199.869,209.495L199.869,209.495z"/>
		<path fill="#A3A3A3" d="M422.768,150.01c0,0-8.361,38.793-11.306,47.72s-11.472,25.146,0,42.481
			c9.391,14.191,7.608,19.296,2.613,40.116s-1.125,44.35-3.091,45.981s-11.118,5.607-6.698,16.299l4.731,7.261
			c0,0-10.201-13.146,6.236-20.653c0,0,0.636-2.297,1.593-22.394s5.359-39.907,5.455-40.386c0.096-0.479,0.67-11.867,0.67-11.867
			l-11.963-28.136l0.454-10.431l7.872-31.234l4.211-21.784L422.768,150.01z"/>
		<path fill="#A3A3A3" d="M93.804,98.862c0,0,23.221,73.894,55.97,92.86l1.576,6.008c0,0-35.043-16.014-61.103-97.007L93.804,98.862
			z"/>
		<path fill="#A3A3A3" d="M54.631,119.414c0,0,1.281-11.387,23.766-19.126s23.765-17.69,23.765-17.69s-3.998,15.05-14.316,19.174
			C77.527,105.896,56.772,115.633,54.631,119.414z"/>
		<path fill="#A3A3A3" d="M52.865,40.198c0,0,1.223-6.425,4.29-5.489s8.694,5.489,8.694,5.489s-7.052-12.679-12.243-12.372
			S52.865,40.198,52.865,40.198z"/>
		<path fill="#A3A3A3" d="M54.909,69.673c-1.704,0.788-3.502,0.67-4.829,0.374c-1.141-0.906-2.522-1.532-4.061-1.751
			c-4.65-0.67-8.95,2.569-9.613,7.213c-0.242,1.704,0.03,3.404,0.764,4.92c-0.182,1.872-1.29,2.98-1.29,2.98
			c1.189-0.599,2.31-0.616,3.169-0.461c1.259,1.165,2.835,1.929,4.569,2.179c0.404,0.054,0.801,0.088,1.209,0.088
			c4.152,0,7.799-3.068,8.405-7.3c0.205-1.428,0.04-2.825-0.421-4.088C53.182,71.397,54.808,69.774,54.909,69.673z M47.882,78.489
			c0.02-0.135,0.034-0.263,0.04-0.397c-0.539,0.418-1.239,0.62-1.966,0.512c-1.428-0.202-2.424-1.529-2.222-2.956
			c0.108-0.761,0.532-1.394,1.125-1.798c-0.168-0.047-0.357-0.088-0.545-0.115c-2.229-0.323-4.29,1.179-4.714,3.36
			c-0.027-0.377-0.013-0.754,0.04-1.138c0.202-1.408,0.936-2.647,2.067-3.502c0.936-0.694,2.041-1.057,3.179-1.057
			c0.256,0,0.512,0.013,0.761,0.054c1.408,0.195,2.653,0.936,3.502,2.067c0.855,1.138,1.212,2.539,1.01,3.94
			c-0.202,1.408-0.936,2.647-2.074,3.502c-1.017,0.761-2.256,1.125-3.509,1.051C46.259,81.661,47.626,80.294,47.882,78.489z"/>
	</g>
	<path fill="#231F20" d="M60.671,67.6c2.101,4.209,2.876,9.624,1.872,15.819c-1.441-5.152-3.017-9.462-5.085-12.742
		c-0.842-1.34-1.778-2.512-2.815-3.489c-3.919-3.697-9.381-4.714-17.752-2.303c1.044-2.074,2.148-4.068,3.307-5.987
		c8.102-1.973,14.957,0.606,18.971,6.196C59.728,65.876,60.233,66.711,60.671,67.6z M37.187,82.489c0,0,0.956-0.956,1.111-2.573
		c-0.633-1.306-0.869-2.775-0.66-4.243c0.572-4.007,4.283-6.802,8.297-6.223c1.327,0.189,2.519,0.727,3.502,1.508
		c1.145,0.256,2.697,0.357,4.165-0.32c-0.088,0.088-1.488,1.485-1.808,3.579c0.397,1.091,0.539,2.296,0.364,3.529
		c-0.525,3.65-3.67,6.297-7.253,6.297c-0.35,0-0.694-0.027-1.044-0.074c-1.495-0.216-2.855-0.875-3.94-1.879
		C39.181,81.957,38.211,81.971,37.187,82.489z M39.598,77.095c0.424-2.182,2.485-3.684,4.714-3.36
		c0.189,0.027,0.377,0.067,0.546,0.114c-0.593,0.404-1.017,1.037-1.125,1.798c-0.202,1.428,0.795,2.754,2.222,2.956
		c0.727,0.108,1.428-0.094,1.966-0.512c-0.007,0.135-0.02,0.263-0.04,0.397c-0.256,1.805-1.623,3.172-3.307,3.522
		c1.253,0.074,2.492-0.29,3.509-1.051c1.138-0.855,1.872-2.094,2.074-3.502c0.202-1.401-0.155-2.802-1.01-3.94
		c-0.849-1.131-2.094-1.872-3.502-2.068c-0.249-0.04-0.505-0.054-0.761-0.054c-1.138,0-2.243,0.364-3.179,1.057
		c-1.131,0.855-1.865,2.094-2.067,3.502C39.585,76.341,39.572,76.718,39.598,77.095z M98.168,34.709
		c-4.081,6.149-7.455,12.775-10.095,19.638c-4.647,12.331-7.522,25.557-6.829,38.764c5.32-19.692,12.6-39.222,23.476-56.482
		C102.532,35.874,100.35,35.234,98.168,34.709z M112.317,39.719C101.946,53,95.151,69.425,93.804,85.224
		c6.721-14.951,14.6-29.49,24.581-42.367C116.378,41.719,114.351,40.676,112.317,39.719z M66.947,61.492
		c-1.347-6.91-7.347-12.964-14.89-12.553c3.307,3.394,6.128,6.357,8.378,10.236c0.862,1.455,1.536,2.889,2.115,4.35
		c0.229,0.546,0.431,1.104,0.626,1.67c0.714,2,1.327,4.074,2.074,6.33c1.892-3.091,2.344-6.627,1.711-9.96
		C66.954,61.539,66.947,61.512,66.947,61.492z M82.645,39.531c0.882-2.236,1.818-4.431,2.808-6.6
		c-2.492-0.088-4.889-0.027-7.179,0.195c-1.057,2.175-2.027,4.391-2.916,6.64c-0.741,1.886-1.421,3.792-2.04,5.718
		c-2.485,7.691-4.007,15.678-4.512,23.712c-0.451,8.762,0.094,17.894,3.455,26.069C71.325,76.247,75.837,57.162,82.645,39.531z
		 M40.104,88.591c-0.801-0.216-1.61-0.397-2.424-0.559c-1.387-0.283-2.795-0.492-4.209-0.64c-2.788-0.276-2.471-0.128-5.185,0.081
		c-0.397,1.461-1.145,2.667-1.616,3.367c-0.115,0.175-0.216,0.323-0.29,0.431c-0.04,0.088-0.081,0.168-0.121,0.256
		c3.973,0.512,7.947,1.165,11.819,2.101c0.337,0.081,0.673,0.162,1.003,0.256c7.132,1.825,13.9,4.68,19.719,9.523
		C55.458,95.461,48.245,90.753,40.104,88.591z M183.972,156.697c-6.782-21.847-1.084-44.414,4.802-65.883
		c-2.579-0.714-5.085-1.502-7.509-2.364C171.917,108.741,167.311,139.592,183.972,156.697z M130.346,50.892
		c-1.738-1.36-3.488-2.64-5.26-3.839c-11.617,15.328-19.692,35.268-22.486,51.808c7.623-13.597,14.546-27.16,22.756-40.306
		C126.985,55.97,128.642,53.411,130.346,50.892z M81.487,9.844c1.36-0.808,2.64-1.63,4.115-2.714
		c-1.771-0.532-3.589-0.222-5.212,0.323c-4.29,1.549-9.893,5.219-11.476,9.657c1.805-0.465,3.226-1.253,4.579-2.128
		C75.85,13.515,79.157,11.245,81.487,9.844z M21.516,100.054c-0.29,0.444-0.579,0.896-0.882,1.34
		c-1.125,1.704-2.35,3.374-3.589,5.01c10.061-2.088,20.17-3.374,30.514-2.694C40.245,99.07,30.662,98.262,21.516,100.054z
		 M52.859,40.176v0.003c0.003,0.007,0.003,0.01,0.007,0.017c0.01-0.047,0.02-0.091,0.027-0.138c0.67-3.337,0.768-6.704,0.269-10.044
		c-0.007-0.175-0.209-0.97-0.121-1.125c0.088-0.215,0.37-0.323,0.579-0.229c4.963,2.869,8.381,7.364,12.226,11.533l0.003,0.003
		c-0.687-6.344-5.866-11.199-11.28-13.974c-1.993-0.822-4.344,0.849-4.29,2.977c0.128,3.805,0.993,7.458,2.566,10.943
		C52.849,40.153,52.852,40.166,52.859,40.176z M166.207,186.975c5.798,8.916,14.452,14.506,23.8,18.904
		c-1.616-4.781-5.057-8.815-7.866-12.843c-6.539-9.058-13.994-17.644-14.93-29.012c-0.189-2.276-0.074-4.667,0.088-7.327
		C158.408,164.516,160.078,177.965,166.207,186.975z M399.152,239.902c4.425,0.566,8.23,0.397,12.311,0.31
		c-1.185-1.839-2.344-3.798-3.313-6.027C404.634,235.154,401.428,237.073,399.152,239.902z M414.978,114.782
		c0.216,0.007,0.424,0.013,0.64,0.027c-0.067-0.155-0.135-0.316-0.202-0.471c-0.377-0.896-0.741-1.737-1.131-2.579
		c-0.552-1.192-1.152-2.364-1.798-3.502c-29.679-5.34-61.398-0.801-87.339,14.937c-31.1,18.325-52.933,53.101-50.798,89.683
		C289.057,145.343,348.731,111.596,414.978,114.782z M418.493,257.93c0.074-0.997,0.081-1.98-0.013-2.95
		c-0.121-1.199-0.35-2.303-0.66-3.347c-3.664,0.35-7.186,1.69-9.947,4.101C411.617,256.893,414.991,257.404,418.493,257.93z
		 M411.301,282.106c-1.65,8.735-2.586,17.644-2.195,26.554c0.047,3.017,0.518,6.088,2.007,8.775c0.152-0.542,0.279-1.094,0.38-1.647
		c0-0.003,0-0.003,0-0.007c0-0.003,0-0.003,0-0.007c0.609-3.297,0.444-6.711,0.663-10.024c0.505-7.731,1.414-15.442,2.33-23.146
		c0.296-2.387,0.653-4.721,0.744-7.081c0.061-1.556,0.007-3.125-0.259-4.731C412.708,274.334,412.028,278.24,411.301,282.106z
		 M264.011,94.733c-4.829,0.492-9.502,0.869-14.035,1.131c-6.903,9.758-10.923,21.402-10.438,33.861
		C245.983,115.731,254.017,104.242,264.011,94.733z M311.988,116.29c26.466-16.883,59.075-22.473,90.404-20.83
		c-3.381-3.098-7.165-5.718-11.253-7.758c-0.067-0.034-0.135-0.067-0.202-0.101c-10.869-1.529-21.941-1.825-32.851-0.795
		c-1.051,0.04-2.963,0.384-3.987,0.505c-1.401,0.215-4.586,0.653-5.987,0.869c-5.947,1.172-11.859,2.626-17.624,4.519
		c-1.892,0.687-5.718,2.141-7.61,2.842c-1.852,0.808-5.576,2.498-7.408,3.347c-2.088,1.091-5.078,2.728-7.179,3.852
		c-33.073,19.234-57.384,55.647-56.172,94.505c0.188,1.879,0.283,4.068,0.498,5.926c0.209,1.185,0.774,4.721,1.003,5.825
		c0.485,1.899,0.99,3.798,1.529,5.67C254.24,174.725,278.841,136.972,311.988,116.29z M322.237,84.76
		c-1.259,0.276-2.505,0.559-3.744,0.842c-6.889,1.556-14.021,3.165-21.106,4.398c-4.707,0.835-9.3,1.583-13.765,2.249
		c-12.984,8.964-24.035,20.695-31.767,34.474c-6.209,11.388-10.479,24.325-9.415,37.403
		C256.671,127.739,287.703,101.468,322.237,84.76z M405.583,221.415c0-2.101,0.162-4.391,0.532-6.903
		c-6.283,0.727-12.344,4.411-15.052,10.088c5.091-0.539,9.166-1.832,13.833-2.997C405.125,221.543,405.354,221.476,405.583,221.415z
		 M351.075,139.221c-28.527,13.395-50.663,39.821-58.031,70.274c13.846-25.268,33.713-46.885,59.863-59.317
		c18.224-8.89,38.063-13.328,58.469-15.051c2.909-0.256,5.832-0.451,8.768-0.586c0.034-1.724,0.121-3.475,0.317-5.253
		C396.862,127.449,372.605,128.897,351.075,139.221z M490,252.46l-3.34,0.451c-6.149,1.071-12.816-1.057-17.005-5.65
		c-7.32-1.179-12.21-7.657-13.469-14.755c-2.808-2.222-13.88-12.284-10.223-30.177c4.923-24.076,0.465-53.148-20.109-65.614
		c0.162,1.744,0.229,3.502,0.256,5.246c0.094,4.936-0.054,9.873-0.404,14.796c-1.098,14.769-4.074,29.409-8.916,43.41
		c-0.734,2.128-1.663,4.768-2.263,6.869c-2.626,8.829-3.717,18.755,1.064,26.951c2.317,4.283,5.61,8.054,7.644,12.681
		c1.084,2.411,1.764,5.071,1.973,7.724c0.478,5.206-0.923,10.142-2.27,15.065c-2.384,9.334-3.744,18.924-4.384,28.574
		c-0.465,6.997-0.586,14.816-0.7,21.88c-0.094,2.573-0.108,5.01-0.586,7.623c-0.276,1.219-0.599,2.701-1.879,3.643
		c-0.545,0.37-0.842,0.417-1.246,0.579c-10.674,3.832-6.128,14.001-2.115,21.368c-3.468,0-41.929-0.007-45.424,0
		c1.3-2.842,2.748-5.718,4.357-8.304c4.93-8.075,11.327-15.53,19.631-20.325c7.266-5.138,7.697-18.729,7.677-26.992
		c-0.269-12.856-2.445-25.719-5.832-38.117c-1.138-4.047-2.734-7.953-4.707-11.678c-6.061-11.442-15.449-20.345-24.79-29.308
		c-5.145-4.963-11.779-11.287-17.079-18.345c-37.841,18.21-71.722,22.655-95.71,22.655c-3.01,0-5.859-0.074-8.546-0.195
		c-21.146-0.95-35.605-5.044-40.885-6.775c0.323,7.61,1.084,15.227,2.606,22.635c0.606,3.159,1.556,6.209,2.317,9.327
		c0.754,3.28,1.138,6.701,0.997,10.102c-0.202,6.62-2.485,12.883-3.556,19.22c-2.478,12.567,2.424,25.302,3.421,37.794
		c0.31,3.408-0.148,7.219-1.63,10.358c-0.929,2.236-2.431,4.324-3.468,6.351c-0.828,1.879-0.552,3.455,0.431,5.448
		c3.239,5.825,4.755,9.307,2.216,16.035c-1.502,0.02-45-0.007-45.687,0l1.145-2.256c4.249-9.442,11.556-17.301,20.183-22.917
		c4.357-3.105,4.418-9.179,4.283-14.109c-0.431-7.684-2.337-15.341-4.35-22.803c-6.418-22.783-15.2-44.771-22.56-67.324
		c-2.465-7.529-4.815-15.119-6.809-22.83c-0.135-0.572-0.276-1.145-0.411-1.717c-16.405-9.024-31.686-28.265-45.438-57.223
		c-8.337-17.563-13.57-33.618-15.307-39.262c-5.125,2.923-10.492,4.593-15.678,7.078c-5.078,2.364-9.758,5.536-13.496,9.691
		c-1.084,1.199-2.525,3.071-3.502,4.384c-3.623,4.882-7.368,9.549-12.533,13.085c-3.199,2.115-7.657,3.98-11.496,2.471
		c-5.846,3.522-12.486,5.475-19.2,3.401c-5.475-1.832-9.832-6.256-12.034-11.556c-1.428-3.63-1.508-7.718-0.431-11.422
		c2.721-8.586,9.543-14.796,14.223-22.129c3.839-5.529,6.681-11.624,8.64-18.035c3.3-9.812,7.792-19.308,13.691-27.84
		c-2.317-0.923-6.485-1.825-9.96,1.502l-1.94,1.865L24.56,52.5c-0.047-0.155-0.795-2.573-0.276-5.441
		c-1.596,1.172-3.758,2.903-5.105,3.919l0.498-3.852c0.923-11.455,7.832-20.001,19.24-19.86c-0.539-3.246-1.32-7.57,0.963-10.216
		c3.138-2.862,7.724-1.69,11.199-0.647c0.539,0.182,1.078,0.391,1.609,0.599c0.404-4.175,2.68-11.651,13.348-15.186l3.145-1.044
		l-1.017,3.152c-0.034,0.128-0.768,2.586,0.148,5.091c3.111-3.435,7.509-5.987,11.563-7.273c5.428-1.771,11.327-2.081,16.924-1.428
		l6.351,0.741l-5.67,2.431c-1.993,1.165-3.839,2.701-5.347,4.499c3.98-1.367,8.189-2.02,12.425-1.832
		c5.879,0.249,11.617,2.593,16.109,6.351c2.983-0.034,5.879,0.431,8.122,1.32c7.933,2.775,13.732,9.213,18.681,15.671
		c6.404,8.324,12.27,16.762,20.096,23.766c7.644,7.226,16.143,13.287,23.928,20.5c3.563,3.455,7.886,7.832,7.994,13.152
		c42.185,7.57,85.548-0.391,126.81-10.014c22.325-4.876,46.912-5.61,67.803,4.963c11.408,5.778,20.594,15.617,25.887,27.221
		c0.586,1.28,1.165,2.566,1.643,3.879c6.176,2.135,11.381,6.532,15.792,11.22c14.573,16.176,21.012,37.922,25.039,58.812
		c0.512,3.057,1.946,11.321,2.498,14.486c0.344,1.569,1.226,5.596,1.556,7.118c3.266,13.247,7.987,26.433,15.355,37.956
		C484.148,246.123,486.922,249.565,490,252.46z M192.013,79.614c-0.525,1.743-1.043,3.486-1.555,5.229
		c1.145,0.31,2.293,0.607,3.447,0.879l0,0c0.128-0.309,0.249-0.612,0.377-0.915c0.189-0.458,0.397-0.902,0.599-1.354
		c0.129,0.228,0.248,0.455,0.358,0.681c-0.006-0.013-0.012-0.026-0.018-0.039c-0.047-0.098-0.098-0.195-0.151-0.296
		c-0.061-0.115-0.125-0.229-0.189-0.347C194.168,82.186,193.175,80.896,192.013,79.614c-0.115-0.125-0.229-0.253-0.35-0.378
		c-0.071-0.077-0.145-0.155-0.219-0.232c-0.026-0.027-0.055-0.054-0.081-0.081C191.583,79.154,191.803,79.384,192.013,79.614z
		 M182.397,71.118c0.377,0.294,0.76,0.594,1.144,0.9c-0.303,0.902-0.613,1.805-0.923,2.707c-0.492,1.428-0.997,2.855-1.515,4.276
		c-0.296,0.842-0.606,1.683-0.916,2.518c1.267,0.487,2.544,0.953,3.832,1.387l0,0c0.431-0.801,0.868-1.602,1.319-2.39
		c0.445-0.788,0.902-1.569,1.374-2.344c0.465-0.781,0.95-1.556,1.441-2.323c0.309,0.273,0.612,0.548,0.913,0.824
		c-0.077-0.071-0.152-0.142-0.229-0.213c-0.226-0.205-0.455-0.411-0.684-0.613c-1.505-1.337-3.088-2.626-4.613-3.832
		c-0.152-0.121-0.303-0.239-0.451-0.357c-0.125-0.101-0.249-0.199-0.374-0.293C182.608,71.282,182.505,71.202,182.397,71.118z
		 M171.695,65.997c-1.179,2.256-2.323,4.519-3.448,6.788c-0.403,0.799-0.799,1.598-1.195,2.397c2.564,1.532,5.215,2.925,7.943,4.169
		c0.485-0.768,0.976-1.528,1.474-2.282c0.337-0.519,0.68-1.037,1.024-1.556c0.707-1.051,1.428-2.094,2.155-3.125
		c0.512-0.741,1.037-1.468,1.562-2.195c0.293,0.23,0.596,0.465,0.9,0.702c-0.302-0.235-0.608-0.473-0.9-0.703
		c-1.744-1.354-3.3-2.552-4.418-3.522c-1.276-1.027-2.552-2.061-3.825-3.108c0,0-0.001,0-0.001-0.001
		C172.536,64.375,172.112,65.183,171.695,65.997z M160.617,56.232c-1.771,2.155-3.468,4.344-5.105,6.573
		c-0.538,0.726-1.069,1.459-1.593,2.198c2.252,2.266,4.663,4.333,7.201,6.221c0.551-0.705,1.108-1.397,1.679-2.082
		c1.731-2.101,3.542-4.115,5.441-6.021c0.633-0.646,1.279-1.273,1.933-1.892c0.044,0.038,0.09,0.074,0.134,0.112
		c-0.045-0.038-0.09-0.075-0.134-0.113c-2.68-2.269-5.313-4.61-7.829-7.071l-0.001-0.001
		C161.759,54.842,161.181,55.534,160.617,56.232z M152.333,47.141c-2.014,2.041-3.96,4.135-5.832,6.283
		c-0.591,0.678-1.175,1.363-1.753,2.055c1.713,1.663,3.39,3.366,5.029,5.1l0,0c0.625-0.645,1.264-1.284,1.915-1.895
		c1.946-1.879,3.987-3.637,6.135-5.266c0.716-0.556,1.446-1.084,2.182-1.607l0,0c-0.347-0.364-0.694-0.731-1.037-1.101
		c-1.643-1.758-3.209-3.593-4.727-5.475C153.602,45.865,152.964,46.496,152.333,47.141z M118.59,18.182
		c1.228-0.07,2.466,0.001,3.654,0.168c7.63,0.977,14.068,6.075,18.54,12.008c2.249,2.936,4.33,6.108,4.903,9.839
		c-1.498-1.202-2.754-2.603-3.946-4.061c-0.014-0.016-0.027-0.033-0.04-0.05l0,0c0.014,0.017,0.027,0.034,0.04,0.05
		c-0.613,0.673-1.212,1.36-1.805,2.047c-1.556,1.812-3.044,3.67-4.485,5.569c-0.552,0.72-1.091,1.448-1.623,2.175
		c2.158,1.677,4.256,3.434,6.303,5.253l0.001,0.001c0.671-0.611,1.349-1.214,2.04-1.798c0.936-0.801,1.892-1.583,2.869-2.33
		c0.842-0.64,1.697-1.266,2.566-1.859c0.471-0.337,0.943-0.653,1.428-0.963c0.216-0.155,0.438-0.296,0.66-0.431
		c0.759-0.497,1.525-0.967,2.304-1.424l-0.001-0.001c-2.653-3.448-5.189-6.98-7.765-10.388
		c-5.729-7.731-13.304-15.938-23.585-15.986c-0.363,0.384-0.72,0.774-1.077,1.171c-0.31,0.33-0.606,0.667-0.909,1.003
		C118.637,18.177,118.613,18.18,118.59,18.182z M136.851,34.372c0.679-0.592,1.372-1.157,2.072-1.708
		c-0.129-0.155-0.25-0.315-0.381-0.468c-1.721-1.96-3.569-3.774-5.552-5.377c-0.666,0.612-1.318,1.237-1.964,1.869
		c-2.424,2.344-4.748,4.781-6.964,7.307c-0.605,0.686-1.203,1.378-1.795,2.077c2.276,1.323,4.488,2.737,6.647,4.236l0,0
		c0.598-0.692,1.203-1.364,1.821-2.03C132.696,38.157,134.736,36.177,136.851,34.372z M116.463,20.654c0.001,0,0.002,0,0.003,0
		c-0.774,0.902-1.542,1.818-2.29,2.748c-1.522,1.872-2.99,3.792-4.398,5.745c-0.552,0.754-1.091,1.515-1.623,2.276
		c-0.028-0.01-0.057-0.019-0.086-0.029c2.835,1.033,5.606,2.215,8.281,3.524c0,0,0,0,0.001,0c0.626-0.694,1.266-1.38,1.925-2.053
		c2.519-2.626,5.206-5.071,8.034-7.287c0.774-0.62,1.562-1.212,2.364-1.791c0.029,0.017,0.058,0.037,0.088,0.054c0,0,0,0,0-0.001
		c-0.029-0.017-0.059-0.037-0.088-0.054C124.761,21.533,120.818,20.688,116.463,20.654L116.463,20.654
		C116.463,20.653,116.463,20.654,116.463,20.654z M96.84,12.362c3.811-1.178,8.036-1.1,11.881-0.208
		c1.529,0.344,2.997,0.929,4.391,1.63c0.842-0.303,1.724-0.545,2.626-0.741c-5.156-3.201-11.275-4.105-17.221-3.19
		C97.947,10.685,97.39,11.524,96.84,12.362z M93.993,16.856c-1.515,2.478-2.956,4.984-4.33,7.543
		c-0.458,0.862-0.916,1.724-1.36,2.599c4.596,0.347,9.172,1.189,13.633,2.428l0,0c0.598-0.773,1.203-1.539,1.835-2.292
		c0.828-1.024,1.69-2.02,2.579-3.004c2.112-2.353,4.365-4.578,6.743-6.672c-0.005-0.009-0.013-0.016-0.017-0.025
		c-2.327,0.8-4.632,1.749-7.096,2.299c0.761-1.724,2.034-3.111,3.616-4.189c-4.504-1.289-9.165-1.568-13.88-1.44
		C95.131,15.017,94.558,15.933,93.993,16.856z M55.943,18.512c4.788,2.519,8.991,6.135,12.277,10.438
		c4.377-1.286,8.873-1.956,13.391-2.108h0.001c0.531-0.92,1.081-1.827,1.645-2.727c0.95-1.536,1.953-3.037,2.997-4.505
		c0.579-0.815,1.179-1.623,1.791-2.418c1.602-2.087,3.305-4.086,5.103-5.998c-1.5,0.521-2.968,1.145-4.375,1.889l-4.398,2.451
		l1.993-4.546c1.158-2.761,2.936-5.186,5.105-7.206C83.6,4.22,75.633,6.146,70.071,11.964c-2.135,2.303-3.98,4.802-5.886,7.765
		c-0.215-2.781,0.525-5.361,1.879-7.671c-1.307-2.088-1.61-4.29-1.569-6.021C56.576,9.757,55.896,16.094,55.943,18.512z
		 M39.302,48.891c0.438-0.579,0.882-1.158,1.333-1.731c0.943-1.172,1.872-2.29,2.93-3.414c-0.283-0.68-0.546-1.367-0.795-2.061
		c-0.727-2.195-1.414-4.404-2.034-6.64c-4.276-0.559-8.256,0.296-12.014,2.734c2.074-3.94,6.822-6.317,11.226-5.704
		c-0.114-0.471-0.229-0.943-0.337-1.421c-6.883-0.33-12.439,3.01-14.984,9.745c-0.303,0.774-0.559,1.589-0.781,2.411
		c3.32-1.825,7.549-2.142,10.412,0.485c-1.805,0.296-3.515,0.64-5.138,1.185c-1.259,1.441-1.63,3.111-1.657,4.458
		C31.679,46.581,36.339,47.53,39.302,48.891z M428.339,134.29l6.353-8.025c-2.084-2.205-4.336-4.255-6.777-6.124
		c-1.657-1.179-3.387-2.276-5.226-3.138c0.202,1.434,0.209,2.909-0.094,4.438c-2.903-3.105-4.122-7.078-5.872-10.822
		c-5.051-10.863-13.644-19.974-24.385-25.328c-18.129-9.092-39.538-8.964-59.176-5.63c-12.068,2.391-24.096,5.576-36.231,7.684
		c-44.03,7.799-108.391,14.223-143.821-18.392c-3.024-2.842-5.657-6.041-8.586-8.964c-2.855-2.903-5.825-5.684-8.923-8.31
		c-12.297-10.411-27.019-18.5-43.074-20.81c-7.388-1.024-15.085-1.017-22.298,0.983c1.657,2.647,2.761,5.724,2.357,9.004
		c-2.269-2.344-3.798-4.768-5.583-7.341c-4.957-6.835-12.897-12.694-21.321-13.812c-0.822-0.094-2.195-0.027-2.674,0.357
		c-0.061,0.074-0.236,0.458-0.29,0.929c-0.37,3.515,0.418,7.139,1.111,10.775c1.158,6.101,3.596,11.967,3.448,18.291
		c-0.788-0.943-1.475-1.933-2.074-2.97c-8.115,9.846-13.799,21.638-17.759,33.719c-0.505,1.515-1.131,3.502-1.684,4.963
		c-1.845,4.984-4.411,9.738-7.361,14.115c-0.788,1.199-1.623,2.374-2.485,3.536c-3.222,4.361-6.782,8.533-9.401,13.105
		c-0.094,0.155-0.175,0.317-0.263,0.471c1.825,2.492,4.175,7.657-0.781,14.035c0.444,0.902,0.997,1.778,1.684,2.606
		c6.667,8.782,16.87,6.984,25.16,1.508c2.775-1.785,5.34-3.933,7.724-6.27c2.623-2.492,4.808-5.354,6.94-8.256
		c0.845-1.148,1.68-2.3,2.529-3.441c1.057-1.333,2.074-2.694,3.36-4.014c-0.131,2.653-1.017,5.095-2.209,7.411
		c-0.04,0.077-0.081,0.155-0.121,0.232c-2.216,3.818-5.044,7.267-8.115,10.438c-1.623,1.63-3.414,3.259-5.334,4.775
		c1.643-0.458,3.259-1.408,4.654-2.35c4.526-3.293,8.135-7.819,11.401-12.311c0.455-0.646,0.923-1.286,1.414-1.913
		c0.027-0.037,0.054-0.071,0.084-0.108c3.246-4.152,7.229-7.802,11.762-10.452c6.748-4.115,14.58-5.974,21.368-9.59
		c3.273-1.751,6.101-4.108,8.283-7.044c0.781-1.034,1.505-2.118,2.212-3.236v-0.003c1.286-2.041,2.509-4.199,3.896-6.418
		c0.145,6.536-3.344,12.489-8.229,16.664c-0.603,0.519-1.226,1.007-1.865,1.465c2.889,9.529,23.059,72.571,56.677,93.771
		c-0.3-1.3-0.579-2.603-0.822-3.913c-0.825-4.495-1.168-9.041-0.114-13.557c0.694,1.946,1.226,3.845,1.731,5.745
		c1.509,5.684,2.492,11.442,4.108,17.112c9.368,34.319,25.12,66.745,32.77,101.61c1.623,9.071,4.303,23.853-4.916,29.746
		c-0.865,0.546-1.714,1.115-2.546,1.704c-0.727,0.515-1.445,1.047-2.142,1.596c-5.357,4.199-9.9,9.361-13.26,15.328h38.164
		c0.249-1.044,0.37-2.081,0.31-3.105c-0.007-0.098-0.013-0.195-0.02-0.29c-0.01-0.098-0.02-0.192-0.03-0.286
		c-0.01-0.094-0.024-0.189-0.037-0.279c-0.017-0.118-0.037-0.229-0.061-0.344c-0.013-0.071-0.027-0.145-0.044-0.215
		c-0.01-0.054-0.024-0.111-0.037-0.165c-0.037-0.165-0.081-0.327-0.128-0.485c-0.03-0.114-0.067-0.229-0.104-0.34
		c-0.027-0.088-0.054-0.175-0.088-0.259c-0.02-0.064-0.044-0.128-0.071-0.192c-0.037-0.111-0.081-0.219-0.128-0.33
		c-0.017-0.054-0.04-0.104-0.064-0.158c-0.044-0.118-0.094-0.232-0.148-0.347c-0.027-0.064-0.054-0.125-0.084-0.185
		c-0.013-0.034-0.03-0.067-0.047-0.101c0-0.003-0.003-0.003-0.003-0.003c0-0.003,0-0.007-0.003-0.01
		c-0.04-0.094-0.088-0.185-0.131-0.279c-0.333-0.687-0.711-1.364-1.101-2.057c0,0,0-0.003-0.003-0.003
		c-0.34-0.606-0.69-1.222-1.027-1.865c-4.977-9.549,5.273-11.671,3.879-23.449c-1.03-11.206-5.051-22.399-4.101-33.794
		c0.465-8.061,3.946-16.143,4.243-23.678c0.478-6.33-1.94-12.385-3.071-18.527c-0.609-3.219-1.071-6.452-1.418-9.688
		c-0.003-0.007-0.003-0.013-0.003-0.02c-0.35-3.246-0.586-6.495-0.741-9.741c-0.148-3.253-0.216-6.499-0.202-9.745
		c0.013-3.32,0.35-6.6,1.865-9.671c1.145,3.128,1.391,6.246,1.424,9.475c0.003,0.061,0.003,0.121,0.003,0.182
		c0.013,0.741,0.034,1.488,0.054,2.236c3.67,1.266,18.776,6.021,41.316,7.017c23.571,1.037,60.28-1.96,101.96-21.887
		c-0.424-0.626-0.835-1.256-1.229-1.889c-4.256-6.805-6.842-14.119-5.492-21.426c0.822,2.121,1.468,4.169,2.169,6.175
		c1.98,6.048,4.539,11.806,8.418,16.91c10.391,13.9,25.207,23.88,36.056,37.646c5.583,6.964,10.122,14.951,12.506,23.611
		c3.488,12.775,5.704,25.887,5.98,39.141c0,9.603-0.512,22.123-8.075,29.113c-0.808,0.788-2.034,1.434-2.977,2.02
		c-2.663,1.606-5.095,3.536-7.337,5.681c-1.135,1.088-2.219,2.232-3.259,3.418c-0.007,0.003-0.013,0.01-0.017,0.017
		c-1.061,1.209-2.078,2.458-3.051,3.741c-1.993,2.613-3.872,5.435-5.495,8.324h34.454c-1.071-2.236-1.973-4.573-2.381-7.007
		c-0.047-0.266-0.084-0.539-0.118-0.808c0-0.003,0-0.003,0-0.007c-0.189-1.593-0.155-3.229,0.195-4.899
		c0.909-4.458,4.896-7.543,8.95-8.984c0.707-2.081,0.707-5.61,0.774-8.223c-0.04-17.2,0.7-34.622,5.058-51.371
		c1.205-4.465,2.599-9.105,2.155-13.738c-1.522-14.722-16.351-17.409-12.122-41.444c0.855-4.903,2.465-9.711,4.142-14.371
		c1.603-4.559,3.017-9.179,4.243-13.859c2.99-11.438,4.825-23.21,5.344-35.029v-0.003c0.121-2.667,0.172-5.337,0.152-8.007
		c-0.101-4.849-0.296-9.603,0.505-14.634c0.815,1.657,1.374,3.367,1.771,5.105C426.282,133.045,427.328,133.647,428.339,134.29z
		 M440.138,145.493l5.482-3.744c-1.929-3.62-4.101-7.081-6.556-10.31l-6.352,6.043l0.001,0.001
		C435.538,139.84,438.006,142.537,440.138,145.493z M448.391,163.142l5.374-1.403v-0.002c-1.401-4.502-3.01-8.96-4.903-13.273
		l-5.287,2.549C445.612,154.794,447.205,158.875,448.391,163.142C448.391,163.142,448.391,163.142,448.391,163.142z M482.599,249.39
		c-1.253-1.609-2.404-3.286-3.556-4.997c-6.115-9.617-10.526-20.288-13.718-31.255v-0.003c-0.983-3.367-1.849-6.765-2.613-10.166
		c-1.711-7.266-2.97-16.856-4.499-24.143c-0.768-3.505-1.62-7.068-2.583-10.637v-0.002l-5.61,2.3v0.001
		c1.407,8.341,1.458,17.106,0.394,25.524c0,0.013-0.003,0.03-0.003,0.044c0,0.003,0,0.003,0,0.007v0.01
		c-0.3,2.34-0.684,4.66-1.148,6.93c-2.626,12.849,2.99,20.991,6.64,24.749c0.088-1.475,0.337-2.936,0.768-4.337
		c0.768,2.216,1.333,4.512,2.007,6.755c0.007,0.007,0.013,0.013,0.02,0.02l-0.013,0.013c0.828,2.741,1.812,5.401,3.542,7.738
		c1.118,1.603,2.566,2.97,4.202,4.047c-0.822-2.236-1.145-4.64-0.855-6.957c2.29,4.202,4.236,8.378,8.095,11.098
		C476.255,247.995,479.407,248.999,482.599,249.39z M339.336,172.133l0.33,0.855c0.586,1.522,1.084,2.99,1.569,4.411
		c0.209,0.626,0.418,1.239,0.633,1.852c0.182,0.566,0.37,1.118,0.566,1.663c13.752-10.486,28.251-17.698,47.559-22.298
		c6.216-1.569,13.375-2.936,19.786-4.263c2.256-0.458,4.526-0.936,6.802-1.536C388.815,145.504,358.725,152.663,339.336,172.133z
		 M375.945,210.189c6.162-1.919,12.897-5.199,18.715-7.516c5.509-2.337,11.166-4.243,16.695-6.741
		c0.168-0.492,0.337-0.99,0.498-1.482C398.546,189.346,381.265,197.03,375.945,210.189z M356.577,196.606
		c5.179-2.162,9.88-4.707,14.816-7.091c9.482-4.579,18.729-8.432,28.716-11.738c5.152-1.778,10.371-3.219,15.563-5.152
		C393.987,165.304,367.332,176.618,356.577,196.606z M140.966,60.239c-1.704-1.67-3.414-3.273-5.132-4.788
		c-11.428,12.284-18.823,28.285-21.766,44.69c-1.556,9.051-2.135,18.365-0.498,27.43c3.751-18.56,9.044-36.339,18.082-52.866
		C134.427,69.587,137.538,64.785,140.966,60.239z M163.351,132.473c-7.314,6.169-11.859,14.499-15.341,23.086
		c-3.468,8.674-5.172,16.493-8.661,25.362c2.047-0.855,3.913-2.047,5.623-3.509c1.535-1.293,2.95-2.802,4.243-4.465
		c5.98-7.671,9.496-18.527,11.745-26.709C162.065,141.854,163.075,137.416,163.351,132.473z M178.032,87.245
		c-2.142-0.835-4.223-1.731-6.236-2.687c-10.506,17.409-18.951,35.989-27.51,54.347c-4.074,8.6-7.92,17.254-13.2,25.221
		c14.668-9.758,25.975-31.336,33.814-46.832C169.688,107.387,174.086,97.42,178.032,87.245z M166.543,231.14
		c0.963,2.721,1.946,5.428,2.923,8.122c1.098,0.539,2.115,0.97,2.983,1.3c3.212,1.28,6.492,2.216,9.752,3.004
		c3.28,0.889,6.633,1.125,9.745,2.579C189.131,238.723,173.965,234.029,166.543,231.14z M232.662,133.403
		c1.179-12.533,3.536-24.965,6.869-37.114c-3.387,0.074-6.694,0.074-9.927,0c-9.368,24.817-11.516,52.401-5.946,78.308
		c2.276,10.344,5.691,20.48,10.95,29.686c1.744,3.051,3.724,6,6.068,8.593c-2.499-6.492-4.068-13.092-5.381-19.712
		C231.544,173.486,230.756,153.249,232.662,133.403z M164.395,80.638c-2.391-1.414-4.681-2.929-6.856-4.552
		c-10.344,14.769-17.813,32.4-24.372,47.862c-3.563,8.344-6.667,16.782-11.482,24.527c7.994-4.957,13.503-13.159,18.506-20.884
		C149.532,112.371,156.745,96.464,164.395,80.638z M139.76,89.507c3.138-6.795,6.694-13.24,10.688-19.375
		c-1.482-1.448-2.862-2.95-4.209-4.411c-0.182-0.195-0.364-0.397-0.545-0.593c-11.071,13.287-18.217,30.224-22.331,46.697
		c-2.317,8.762-4.007,17.449-6.243,26.258c5.314-7.381,8.741-15.954,12.243-24.237C132.763,105.569,136.029,97.387,139.76,89.507z
		 M173.736,251.047c0.97,2.68,1.94,5.381,2.896,8.088c1.111,0.296,2.243,0.546,3.381,0.761c2.478,0.525,4.936,0.458,7.381,1.219
		C186.107,256.408,179.366,253.128,173.736,251.047z M186.228,222.008c-2.135-1.919-4.33-3.69-6.512-5.421
		c-4.384-3.448-8.741-6.728-12.863-10.102c-3.455-3.004-7.798-6.351-11.004-8.755c0.128,0.478,0.256,0.943,0.391,1.414
		c1.078,3.953,2.256,7.906,3.488,11.839c0.653,0.599,1.313,1.179,1.987,1.738c6.815,5.556,14.398,9.462,22.426,12.641
		c2.27,0.95,5.724,2.014,7.805,3.273C190.693,225.954,188.309,223.995,186.228,222.008z M222.883,201.524
		c0,0-0.12-0.135-0.339-0.391C222.76,201.567,222.883,201.717,222.883,201.524z M217.537,95.71
		c-3.071-0.236-6.075-0.552-8.997-0.936c-7.354,25.099-8.216,52.159-2.303,77.608c3.288,13.128,14.239,26.34,16.307,28.751
		c-1.405-2.82-6.783-17.75-8.522-30.186C210.789,145.855,212.014,120.344,217.537,95.71z M197.34,107.064
		c0.822-4.579,1.798-9.112,2.903-13.604c-2.943-0.539-5.798-1.165-8.566-1.872c-6.775,19.267-8.943,40.299-4.97,60.388
		c2.323,11.085,6.357,22.311,14.021,30.837C192.188,158.489,193.097,132.116,197.34,107.064z M195.562,328.425
		c0.566-0.253,1.078-0.583,1.539-0.973h0.003c1.229-1.037,2.091-2.485,2.64-3.983c1.828-4.717,1.835-12.018-0.704-16.803
		c-0.33-0.626-0.707-1.209-1.128-1.737c-0.613,4.175,0.094,7.967-0.209,12.028c-0.061,2.808-0.586,5.765-1.367,8.452
		C196.094,326.358,195.811,327.307,195.562,328.425z"/>
</g>
</svg>
