<?xml version="1.0" encoding="utf-8"?>
<!-- Generator: Adobe Illustrator 28.3.0, SVG Export Plug-In . SVG Version: 6.00 Build 0)  -->
<svg version="1.1" id="dingo_dog" xmlns="http://www.w3.org/2000/svg" xmlns:xlink="http://www.w3.org/1999/xlink" x="0px" y="0px"
	 viewBox="0 0 311.432 490" enable-background="new 0 0 311.432 490" xml:space="preserve">
<g id="dingo_dog_00000179633681028655830990000001530622151457696663_">
	<g>
		<path fill="#F99128" d="M307.025,465.381c-6.322-12.391-14.609-25.652-28.13-30.06c-1.42-0.471-2.978-0.855-4.93-1.209
			c3.466-0.998,7.544-0.64,11.409,1.04l1.734,0.753l-1.34-1.335c-4.557-4.541-10.298-7.099-16.16-7.203
			c-3.803-0.14-7.57,0.6-11.204,1.313c-1.319,0.259-2.673,0.524-4.026,0.747c2.775-2.145,6.282-3.679,10.226-4.461l1.13-0.224
			l-1.059-0.454c-11.952-5.133-25.374-5.454-36.818-0.884c-2.934,1.16-5.86,2.619-8.705,4.342c-1.25,0.799-2.567,1.692-3.842,2.555
			c-0.532,0.36-1.058,0.716-1.57,1.06c-0.635,0.428-1.264,0.861-1.892,1.293c-1.39,0.957-2.817,1.939-4.305,2.848
			c1.329-2.042,2.959-3.983,4.856-5.781c0.354-0.319,0.714-0.633,1.125-0.989l1.382-1.201l-1.733,0.593
			c-5.522,1.891-10.748,5-15.546,9.254c-0.82,0.799-1.626,1.554-2.413,2.284l-0.208,0.207c-0.038,0.038-0.077,0.076-0.116,0.115
			l-0.009-0.009l-0.248,0.227c-1.863,1.702-3.74,3.339-5.578,4.865l-0.489,0.406l0.6,0.207c0.589,0.204,1.118,0.436,1.635,0.72
			c0.184,0.089,0.367,0.191,0.551,0.3l0.246,0.146l0.196-0.207c0.616-0.649,1.349-1.148,2.176-1.48
			c2.915-1.165,6.556,0.111,9.739,3.419c1.854,1.938,3.434,4.419,4.567,7.173c0.803,1.964,1.346,3.964,1.613,5.944
			c0.293,2.291,0.205,4.369-0.262,6.172c-0.031,0.112-0.066,0.221-0.101,0.327c-0.029,0.087-0.057,0.174-0.082,0.26l-0.096,0.325
			l0.32,0.113c4.283,1.511,8.759,2.183,12.576,2.642c5.315,0.574,10.642,0.744,15.835,0.502c5.842-0.31,10.959-1.058,15.648-2.286
			c4.384-1.223,8.466-2.629,12.787-4.116l1.192-0.409c-1.852,2.108-4.338,3.854-7.561,5.314l-0.907,0.411l0.961,0.26
			c4.461,1.206,9.381,1.812,14.693,1.812c2.379,0,4.836-0.121,7.365-0.364c8.103-0.869,16.376-3.152,24.592-6.784l0.346-0.153
			L307.025,465.381z M300.279,464.93c-6.105,3.215-13.471,4.914-23.013,5.325l-0.002,0.001c-1.995,0.094-4.528,0.123-7.116-0.403
			c2.99-0.828,6.561-1.394,10.028-1.943c1.831-0.29,3.559-0.564,5.101-0.862c1.16-0.175,2.414-0.378,3.721-0.589
			C292.675,465.863,296.777,465.198,300.279,464.93z M253.341,424.75c-0.937,0.055-1.873,0.09-2.789,0.124
			c-1.389,0.052-2.825,0.105-4.245,0.229c-0.808,0.074-2.083,0.177-2.969,0.228l-2.978,0.404c-0.631,0.096-1.296,0.229-1.958,0.362
			c-0.525,0.105-1.048,0.211-1.562,0.298c-6.2,1.256-11.744,3.725-17.693,6.639c2.982-3.32,7.099-5.412,11.146-7.171
			c4.569-1.794,9.215-2.695,13.601-2.695C247.245,423.168,250.445,423.694,253.341,424.75z"/>
		<path fill="#F99128" d="M187.271,317.571l-0.024,0.104c-0.193,2.656-2.097,26.648-9.586,50.8
			c-0.769,2.486-1.629,5.041-2.541,7.746l-0.131,0.388c-2.074,6.153-4.426,13.126-6.286,20.892l-0.76,3.173l1.429-2.934
			c2.421-4.969,5.349-10.561,9.711-14.882c-1.199,2.922-2.55,5.657-3.843,8.228c-3.383,6.577-6.085,13.129-8.032,19.477
			c-0.608,2.009-1.146,4.147-1.651,6.58c-0.883,11.018-0.313,22.155,1.74,34.047l0.05,0.288l0.293,0.008
			c0.686,0.019,1.417,0.155,2.172,0.404l0.35,0.116l0.105-0.354c0.724-2.451,3.107-4.37,4.531-5.062
			c1.769-0.858,4.49-1.265,6.822,0.154l0.216,0.132l0.196-0.161c0.456-0.373,0.97-0.687,1.572-0.959l0.071-0.042
			c2.124-1.637,5.483-4.351,9.435-7.995c0.959-0.966,1.87-1.825,2.798-2.64c9.917-9.6,23.516-25.29,31.98-45.523
			c9.454-22.612,10.58-38.652,3.345-47.673c-7.899-9.856-23.608-8.15-26.674-7.708l-0.241,0.035l-0.056,0.237
			c-0.66,2.801-1.39,5.531-2.166,8.107c-1.054,3.252-2.304,6.338-3.727,9.204c0.549-3.119,1.209-6.223,1.852-9.242
			c0.239-1.125,0.479-2.252,0.713-3.376c4.273-19.134,5.107-38.201,2.478-56.672c-0.847-5.724-1.85-10.746-3.068-15.353
			l-0.478-1.807l-0.223,1.856c-0.577,4.8-1.354,9.717-2.312,14.616C193.539,301.193,187.901,315.952,187.271,317.571z
			 M183.047,440.943c0.953-1.127,1.949-2.201,2.921-3.249c0.371-0.4,0.743-0.801,1.104-1.197
			c7.518-7.653,15.083-16.305,24.532-28.054l0.236-0.299c2.562-3.256,5.2-6.608,8.188-9.688c-2.531,5.33-6.066,10.099-9.493,14.727
			c-0.616,0.831-1.232,1.662-1.842,2.496c-5.319,6.967-10.036,12.385-14.849,17.053C190.708,435.813,187.239,438.91,183.047,440.943
			z"/>
		<path fill="#F99128" d="M55.228,445.551l0.11,0.061l0.083,0.016c0.658,0.265,1.268,0.63,1.812,1.086l0.196,0.164l0.219-0.133
			c2.348-1.426,5.066-1.015,6.829-0.156c1.425,0.693,3.808,2.612,4.532,5.063l0.105,0.356l0.351-0.119
			c0.756-0.254,1.516-0.39,2.259-0.403l0.295-0.006l0.051-0.291c2.054-11.892,2.624-23.029,1.74-34.047l-0.006-0.045
			c-0.484-2.316-1.022-4.453-1.645-6.537c-1.946-6.346-4.648-12.898-8.03-19.473c-1.306-2.596-2.666-5.349-3.847-8.233
			c4.377,4.337,7.294,9.921,9.704,14.883l1.427,2.936l-0.757-3.176c-1.814-7.606-4.138-14.521-6.188-20.622l-0.221-0.658
			c-0.911-2.705-1.771-5.26-2.541-7.747c-7.282-23.496-9.269-46.433-9.593-50.792l-0.024-0.104
			c-1.026-2.616-6.322-16.593-9.906-34.861c-0.973-4.969-1.758-10.013-2.333-14.993l-0.214-1.857l-0.486,1.805
			c-5.728,21.277-6.271,44.915-1.572,68.356c0.417,2.159,0.878,4.349,1.323,6.466c0.638,3.032,1.293,6.148,1.841,9.26
			c-1.788-3.613-3.312-7.641-4.634-12.239c-0.418-1.585-0.831-3.286-1.226-5.055l-0.054-0.239l-0.243-0.036
			c-1.877-0.279-18.588-2.434-26.704,7.701c-7.236,9.022-6.11,25.061,3.345,47.674C23.467,418.82,46.076,438.464,55.228,445.551z
			 M19.128,398.53c3.561,3.741,6.779,7.798,9.902,11.737c2.559,3.226,5.204,6.563,8.011,9.692
			c4.041,4.919,8.451,9.613,12.715,14.151c1.604,1.707,3.209,3.415,4.804,5.144c0.563,0.586,1.074,1.15,1.541,1.703
			c-4.196-2.03-7.673-5.135-10.819-8.225l-0.002-0.002c-4.812-4.662-9.533-10.081-14.852-17.047
			c-0.605-0.827-1.215-1.651-1.825-2.474C25.186,408.595,21.665,403.84,19.128,398.53z"/>
		<path fill="#F99128" d="M133.376,452.283l0.845-0.193c1.095-0.195,2.167-0.163,3.189,0.096c0.444,0.111,0.872,0.262,1.272,0.449
			l0.26,0.121l0.175-0.226c1.95-2.529,4.294-3.865,6.78-3.865c2.171,0,4.257,1.023,6.035,2.958l0.203,0.222l0.253-0.163
			c0.666-0.429,1.388-0.743,2.144-0.933c1.928-0.478,4.011-0.155,6.034,0.936c0.408,0.211,0.874,0.498,1.419,0.872
			c0.232,0.169,0.464,0.345,0.697,0.528l0.23,0.182l0.223-0.191c0.361-0.309,0.765-0.582,1.201-0.814l0.229-0.121l-0.045-0.255
			c-6.085-35.099,1.916-58.849,7.757-76.191l0.099-0.294c0.916-2.721,1.782-5.291,2.549-7.771
			c7.793-25.14,9.475-50.182,9.487-50.415l0.018-0.23l0.079-0.214c0.216-0.534,21.355-54.627,10.259-97.144l-0.359-1.376
			l-0.334,1.382c-1.035,4.282-2.44,8.392-4.168,12.204c-0.095,0.187-0.295,0.609-0.51,1.059c-0.269,0.564-0.561,1.176-0.679,1.402
			l-0.091,0.154c-1.341,2.265-2.728,4.607-4.449,6.677c-0.995,1.333-2.172,2.584-3.334,3.725c0.198-0.369,0.397-0.737,0.594-1.103
			c1.763-3.269,3.428-6.357,4.837-9.642c11.142-23.783,6.306-50.577,0.287-68.866c-2.146-6.496-4.605-12.713-7.308-18.477
			l-0.676-1.442l-0.006,1.592c-0.007,2.027-0.093,4.145-0.256,6.285c-0.506,5.044-1.294,10.315-3.53,14.938
			c-0.149-3.223,0.105-6.325,0.372-9.585l0.112-1.517c0.065-1.153,0.176-3.138,0.227-4.023c-0.007-1.391-0.015-2.968,0.014-4.4
			c-0.227-7.906-1.319-14.45-3.338-20.005c-0.218-0.612-0.475-1.271-0.764-1.956l-0.272-0.644l-0.363,0.598
			c-1.826,3.01-3.872,5.571-6.079,7.608c-1.615,1.495-3.343,2.91-5.367,4.569l-0.136,0.112c-3.737,3.075-8.377,6.893-15.271,13.577
			l-0.132-0.13l-0.223,0.429c-0.934,1.798-2.106,3.443-3.481,4.888c-4.627,4.897-11.913,7.689-20.035,7.689
			c-0.001,0-0.003,0-0.004,0c-0.014-0.267-0.822,0-0.822,0c-0.002,0-0.003,0-0.006,0c-8.127,0-15.414-2.793-20.036-7.691
			c-1.356-1.418-2.527-3.06-3.48-4.88l-0.254-0.402l-0.094,0.094c-6.893-6.682-11.533-10.499-15.269-13.574l-0.159-0.131
			c-2-1.639-3.728-3.054-5.337-4.549c-2.204-2.036-4.247-4.589-6.071-7.587l-0.36-0.592l-0.274,0.637
			c-2.866,6.667-4.168,14.577-4.097,24.89c-0.009,2.493,0.186,5.006,0.375,7.435c0.232,2.989,0.471,6.066,0.33,9.136
			c-1.738-3.607-2.808-7.91-3.346-13.415c-0.283-2.49-0.434-5.034-0.448-7.561l-0.008-1.585l-0.673,1.435
			c-7.18,15.324-11.623,30.746-13.207,45.84c-1.532,14.815,0.639,29.082,6.274,41.249c1.414,3.296,3.08,6.384,4.842,9.653
			c0.198,0.367,0.396,0.735,0.595,1.104c-1.171-1.149-2.354-2.407-3.346-3.741c-1.736-2.088-3.142-4.469-4.521-6.802
			c-0.158-0.297-0.496-1.01-0.786-1.618c-0.168-0.352-0.318-0.669-0.405-0.845c-1.532-3.343-2.811-6.92-3.804-10.631l-0.346-1.294
			l-0.345,1.294c-2.92,10.965-3.945,23.556-3.045,37.422l-0.003,0.008l0.006,0.096c2.013,30.825,12.816,57.764,12.921,58.015
			l0.087,0.222l0.017,0.226c0.014,0.244,1.649,25.155,9.481,50.422c0.81,2.603,1.715,5.3,2.648,8.066
			c5.848,17.348,13.858,41.106,7.757,76.24l-0.044,0.25l0.221,0.124c0.427,0.239,0.795,0.491,1.123,0.769l0.226,0.191l0.23-0.186
			c0.223-0.181,0.452-0.354,0.679-0.513c0.561-0.388,1.03-0.676,1.481-0.908c1.99-1.074,4.06-1.389,5.985-0.913
			c0.757,0.192,1.48,0.506,2.146,0.934l0.253,0.163l0.203-0.222c1.803-1.962,3.833-2.958,6.035-2.958c2.486,0,4.83,1.336,6.78,3.865
			l0.175,0.227l0.26-0.121c0.405-0.189,0.83-0.341,1.267-0.45c0.599-0.154,1.208-0.219,1.845-0.218l0.452,0.005l-0.101-0.441
			c-3.741-16.471-7.465-35.907-6.711-55.168c0.249-5.994,0.764-12.061,1.264-17.926c0.576-6.776,1.171-13.781,1.36-20.714
			c0.38-9.47,0.6-22.516,0.777-32.999l0.096-5.61c0.052-5.2,0.23-11.252,1.104-17.376c1.936,9.894,1.875,20.129,1.817,30.047
			c-0.013,2.238-0.027,4.475-0.018,6.699c-0.246,13.116-0.955,26.154-2.108,38.751l-0.15,1.612
			c-0.564,6.038-1.097,11.742-1.281,17.609c-0.738,19.218,2.945,38.358,7.037,56.179l0.038,0.168l0.156,0.075
			c4.071,1.931,9.073,7.281,11.075,14.88c0.339,1.303,0.598,2.632,0.77,3.952l0.354,2.72l0.355-2.72
			c0.171-1.313,0.431-2.64,0.771-3.945C122.755,460.194,127.942,453.828,133.376,452.283z M187.273,196.948
			c-0.633-8.186-1.454-14.775-2.586-20.737l-0.451-2.329c-0.612-3.146-1.24-6.382-1.781-9.675c2.66,4.758,4.119,10.203,5.201,14.996
			c1.583,7.078,2.268,14.218,2.035,21.229c-0.048,4.009-0.539,8.158-1.454,12.316c-0.291,1.1-0.561,2.06-0.826,2.937
			c0.01-1.153,0.026-2.3,0.041-3.445C187.519,207.242,187.588,202.075,187.273,196.948z M184.428,300.401
			c0.244-1.666,0.606-3.284,0.959-4.861c0.182-0.813,0.364-1.624,0.525-2.42c3.399-12.817,5.687-27.196,6.995-43.963
			c0.063-0.965,0.124-2.002,0.187-3.084c0.238-4.075,0.528-9.014,1.132-12.997c1.119,5.48,0.957,11.14,0.813,16.19
			c-0.38,13.1-1.935,24.79-4.75,35.738l-0.001,0.003C189.001,290.168,187.395,295.572,184.428,300.401z M51.665,212.219
			c0.015,1.151,0.031,2.305,0.042,3.464c-0.265-0.873-0.533-1.828-0.822-2.922c-0.912-4.144-1.402-8.293-1.457-12.338
			c-0.223-6.932,0.48-14.27,2.035-21.222c1.144-5.043,2.572-10.312,5.201-15c-0.543,3.304-1.174,6.551-1.787,9.707l-0.446,2.301
			v0.001c-1.133,5.972-1.93,12.367-2.587,20.741C51.531,202.07,51.596,207,51.665,212.219z M54.69,300.4
			c-2.952-4.81-4.564-10.221-5.86-15.393l-0.001-0.002c-2.816-10.977-4.37-22.667-4.75-35.738
			c-0.145-5.052-0.306-10.714,0.813-16.194c0.603,3.963,0.892,8.908,1.13,12.988c0.064,1.088,0.125,2.129,0.188,3.101
			c1.308,16.766,3.595,31.144,6.99,43.938c0.166,0.815,0.347,1.625,0.529,2.437C54.084,297.114,54.446,298.733,54.69,300.4z
			 M133.63,452.066l0.005-0.114c0.226-5.678,1.075-10.976,2.161-17.315c1.692-10.378,3.585-24.096,3.208-38.178
			c-0.166-5.948-0.686-11.728-1.236-17.847l-0.124-1.376c-1.958-22.826-1.163-44.455-0.365-74.28c0,0,1.26,51.308,3.213,74.029
			c0.099,1.084,0.201,2.169,0.303,3.257c0.495,5.282,1.007,10.745,1.198,16.122c0.563,12.517-0.574,25.566-3.383,38.791
			c-1.295,6.567-2.815,11.792-4.783,16.443L133.63,452.066z"/>
		<path fill="#F99128" d="M61.293,76.077c0.834,2.742,1.692,5.563,2.409,8.494c-1.486-1.817-2.786-3.882-3.952-6.27l-0.411-0.842
			l-0.254,0.902c-2.241,7.958-4.8,23.594,3.245,38.911l0.313,0.597l3.008-5.612l0.977,3.361c0.029,0.1,3.056,10.171,9.903,16.5
			c1.512,1.4,3.155,2.751,5.057,4.314l0.178,0.147c2.853,2.337,6.403,5.247,11.079,9.572l0.746,0.69l-0.15-1.005
			c-0.353-2.376-0.316-4.703,0.111-6.944c2.067,11.378,7.548,18.597,16.3,21.467c2.726,0.985,5.822,1.659,9.745,2.12l0.042,0.006
			l0.043-0.006c4.139-0.494,9.495-1.416,14.209-4.176c6.102-3.432,10.078-9.965,11.832-19.432c0.43,2.25,0.469,4.588,0.115,6.972
			l-0.149,1.003l0.745-0.688c4.597-4.245,8.114-7.136,10.939-9.459l0.147-0.121c1.976-1.618,3.682-3.015,5.236-4.46
			c6.845-6.329,9.873-16.4,9.901-16.498l0.984-3.364l3.001,5.613l0.313-0.597c8.064-15.347,5.499-30.975,3.252-38.925l-0.256-0.903
			l-0.41,0.843c-1.169,2.402-2.471,4.472-3.96,6.288c0.717-2.932,1.575-5.753,2.409-8.494c0.729-2.395,1.482-4.872,2.12-7.361
			c4.119-16.783,4.13-35.104,0.029-52.986c-0.815-3.367-1.624-6.054-2.539-8.442c-0.42-1.278-1.145-2.314-2.09-2.991
			c-1.81-1.361-4.478-1.419-6.343-0.138c-1.428,0.976-2.701,1.988-3.785,3.011c-7.818,7.514-12.62,17.275-17.263,26.714
			c-1.544,3.14-3.134,6.37-4.826,9.501c0.769-4.859,2.456-10.315,4.927-15.909l0.165-0.374l-0.393-0.114
			c-6.746-1.946-18.783-3.91-30.468-3.91c-8.706,0-19.744,1.915-26.317,3.695l-0.403,0.109l0.17,0.381
			c2.52,5.658,4.24,11.187,5.025,16.118c-1.69-3.127-3.278-6.354-4.821-9.49c-4.648-9.444-9.453-19.21-17.276-26.722
			c-1.081-1.021-2.354-2.033-3.782-3.008c-1.866-1.28-4.534-1.222-6.338,0.133c-0.942,0.68-1.666,1.715-2.09,2.979
			c-0.919,2.401-1.749,5.168-2.538,8.462c-4.106,17.873-4.098,36.193,0.023,52.986C59.812,71.208,60.564,73.683,61.293,76.077z
			 M85.51,95.978l-0.087-0.107c-1.389-1.167-2.969-1.632-4.057-1.817c1.534-0.919,2.57-2.3,3.207-3.4l0.043-0.121
			c0.23-1.385,0.766-2.648,1.592-3.755c1.377-1.843,3.394-3.039,5.677-3.369c2.284-0.327,4.555,0.247,6.397,1.625
			c1.286,0.966,2.271,2.262,2.848,3.748l0.087,0.13c0.894,0.848,1.861,1.265,2.6,1.471c-1.022,0.593-1.667,1.4-2.053,2.047
			l-0.043,0.072l-0.007,0.084c-0.125,1.645-0.709,3.207-1.688,4.517c-1.646,2.199-4.169,3.46-6.92,3.46
			c-1.878,0-3.66-0.593-5.155-1.716C86.936,98.087,86.114,97.122,85.51,95.978z M62.495,54.947l0.021,0.848
			c0.066,2.712,0.135,5.498,0.35,8.314c-1.222-2.965-1.795-6.179-2.19-9.019c-1.08-9.124-1.18-36.376,4.967-43.658
			c0.72-0.681,1.481-1.017,2.314-1.017c0.194,0,0.392,0.018,0.594,0.054c5.115,0.921,11.168,13.242,13.157,17.291l0.383,0.776
			c1.294,2.656,2.661,5.8,3.265,9.341c-2.13-2.91-3.806-6.091-5.432-9.179c-1.566-2.973-3.185-6.047-5.201-8.863l-0.59-0.822
			c-1.573-2.2-3.199-4.475-5.568-5.82c-0.138-0.073-0.355-0.147-0.476-0.187l-0.187-0.05l-0.149,0.11
			c-0.042,0.031-0.119,0.087-0.256,0.238c-1.509,2.037-2.08,4.641-2.631,7.16c-0.094,0.425-0.186,0.848-0.286,1.278
			c-0.649,3.39-1.142,6.977-1.505,10.962C62.421,39.208,62.236,46.276,62.495,54.947z M176.414,64.14
			c0.217-2.821,0.286-5.612,0.352-8.329l0.022-0.863c0.26-8.67,0.075-15.739-0.58-22.241c-0.371-4.056-0.864-7.643-1.509-10.979
			c-0.096-0.416-0.189-0.839-0.283-1.265c-0.552-2.519-1.122-5.123-2.631-7.16l-0.026-0.031c-0.112-0.12-0.189-0.176-0.239-0.212
			l-0.15-0.114l-0.178,0.059c-0.118,0.039-0.329,0.117-0.486,0.193c-2.359,1.34-3.985,3.615-5.558,5.815l-0.59,0.822
			c-2.016,2.816-3.635,5.89-5.201,8.863c-1.626,3.088-3.302,6.268-5.432,9.178c0.605-3.542,1.972-6.685,3.265-9.338l0.374-0.76
			c1.989-4.053,8.043-16.39,13.168-17.312c1.067-0.19,2.02,0.124,2.886,0.942c6.339,7.125,6.755,39.741,3.931,49.237
			C177.204,61.976,176.833,63.121,176.414,64.14z M154.702,90.655c0.637,1.1,1.674,2.481,3.203,3.4
			c-1.086,0.184-2.664,0.649-4.053,1.817l-0.087,0.107c-0.6,1.136-1.422,2.101-2.444,2.869c-1.5,1.123-3.283,1.716-5.154,1.716
			c-2.752,0-5.275-1.261-6.92-3.459c-0.97-1.3-1.552-2.858-1.682-4.504l-0.006-0.083l-0.042-0.071
			c-0.519-0.875-1.22-1.574-2.06-2.062c0.741-0.207,1.712-0.629,2.608-1.486l0.085-0.126c0.596-1.501,1.578-2.792,2.841-3.735
			c1.843-1.378,4.113-1.953,6.398-1.625c2.283,0.33,4.299,1.526,5.677,3.369c0.827,1.107,1.363,2.37,1.592,3.755L154.702,90.655z
			 M113.702,150.025c2.4-1.598,3.399-4.604,4.281-7.257l0.16-0.481l-0.179-0.156c-6.719-5.874-9.549-10.459-8.412-13.628
			c1.534-4.277,9.99-4.575,10.054-4.577c0.085,0.002,8.534,0.297,10.071,4.575c1.137,3.165-1.685,7.744-8.388,13.608l-0.177,0.155
			l0.073,0.223c1.007,3.119,2.291,6.544,4.794,7.696c1.176,0.542,2.506,0.508,3.928-0.088c1.239-0.404,2.434-1.063,3.693-1.768
			c-0.837,1.273-1.824,2.326-2.946,3.14c-1.765,1.245-3.528,1.675-5.238,1.279c-2.087-0.483-4.023-2.185-5.451-4.791l-0.317-0.578
			l-0.311,0.581c-1.63,3.036-4.149,4.868-6.736,4.902c-0.024,0-0.049,0-0.073,0c-2.469,0-4.86-1.597-6.828-4.534
			c0.094,0.053,0.188,0.106,0.283,0.159C108.327,149.805,110.982,151.303,113.702,150.025z"/>
	</g>
	<g>
		<path fill="#B26024" d="M171.179,126.673c0,0,1.785,4.659-12.16,16.278c-16.279,13.564-15.943,19.389-24.643,23.346
			c-6.813,3.098-15.408,3.038-15.408,3.038l0.018-5.205c0,0,11.247-0.081,19.025-6.856c7.777-6.775,8.462-9.872,8.462-9.872
			L171.179,126.673z"/>
		<path fill="#B26024" d="M175.789,65.621c0,0-0.756-15.441-2.026-27.548c-1.002-9.549-2.704-19.351-7.999-12.856
			c-7.861,9.645-12.383,13.963-12.383,13.963l9.026-20.337l8.324-8.376l3.823,2.267l3.594,25.338v18.586L175.789,65.621z"/>
		<path fill="#B26024" d="M209.455,465.897c0,0,25.429,9.154,59.319-1.419c0,0-27.142,16.85-60.27,5.098L209.455,465.897z"/>
		<path fill="#B26024" d="M262.293,469.109c0,0,13.861,6.372,43.086-2.992c0,0-19.576,13.17-47.123,5.109L262.293,469.109z"/>
		<path fill="#B26024" d="M199.608,265.866c0,0-0.185,34.199-9.58,53.263c0,0-4.182,46.654-20.769,78.612l-2.833,0.79l9.611-30.701
			l8.842-42.962l1.153-8.266l9.594-36.33l2.709-15.474L199.608,265.866z"/>
		<path fill="#B26024" d="M166.426,452.068c0,0-0.004-0.028-0.008-0.08l-0.872-10.884c0-0.028,0-0.052-0.004-0.08l-2.097-26.195
			l2.133-4.877l1.366-3.114C164.723,420.714,166.036,443.856,166.426,452.068z"/>
		<path fill="#B26024" d="M170.239,451.654l-0.354,1.33l-3.459-0.916c0.699-3.467,1.543-6.71,2.507-9.759
			C169.214,445.378,169.644,448.5,170.239,451.654z"/>
		<path fill="#B26024" d="M67.886,126.673c0,0-1.785,4.659,12.16,16.278c16.279,13.564,15.943,19.389,24.643,23.346
			c6.813,3.098,15.408,3.038,15.408,3.038l-0.018-5.205c0,0-11.247-0.081-19.025-6.856c-7.777-6.775-8.462-9.872-8.462-9.872
			L67.886,126.673z"/>
		<path fill="#B26024" d="M39.638,265.866c0,0,0.185,34.199,9.58,53.263c0,0,4.182,46.654,20.769,78.612l2.833,0.79l-9.611-30.701
			l-8.842-42.962l-1.153-8.266l-9.594-36.33l-2.709-15.474L39.638,265.866z"/>
		<path fill="#B26024" d="M60.292,382.872l1.165,1.948c-0.261-0.39-0.53-0.775-0.8-1.153
			C60.453,383.209,60.324,382.936,60.292,382.872z"/>
		<path fill="#B26024" d="M75.8,414.828l-2.981,37.24l-0.1,0.028l-3.359,0.888l-0.35-1.33c0.558-2.957,0.968-5.89,1.254-8.775
			c0.888,2.881,1.671,5.934,2.326,9.188c0.398-8.381,1.76-32.318-0.655-46.078l1.487,3.407L75.8,414.828z"/>
		<path fill="#B26024" d="M63.494,65.621c0,0,0.756-15.441,2.026-27.548c1.002-9.549,2.704-19.351,7.999-12.856
			C81.38,34.862,85.902,39.18,85.902,39.18l-9.026-20.337l-8.324-8.376l-3.823,2.267l-3.594,25.338v18.586L63.494,65.621z"/>
		<path fill="#B26024" d="M156.592,90.196c-0.272-1.643-0.919-3.243-1.975-4.657c-3.533-4.725-10.249-5.695-14.974-2.162
			c-1.643,1.226-2.818,2.852-3.524,4.631c-1.966,1.881-4.273,1.89-4.273,1.89c1.873,0.604,2.945,1.839,3.55,2.86
			c0.153,1.958,0.826,3.899,2.086,5.584c2.103,2.809,5.321,4.291,8.581,4.291c2.23,0,4.469-0.69,6.393-2.128
			c1.302-0.979,2.315-2.205,3.031-3.558c2.716-2.282,6.121-2.205,6.121-2.205C159.086,93.814,157.494,91.754,156.592,90.196z"/>
		<path fill="#B26024" d="M82.647,90.196c0.272-1.643,0.919-3.243,1.975-4.657c3.533-4.725,10.249-5.695,14.974-2.162
			c1.643,1.226,2.818,2.852,3.524,4.631c1.966,1.881,4.273,1.89,4.273,1.89c-1.873,0.604-2.945,1.839-3.55,2.86
			c-0.153,1.958-0.826,3.899-2.086,5.584c-2.103,2.809-5.321,4.291-8.581,4.291c-2.23,0-4.469-0.69-6.393-2.128
			c-1.302-0.979-2.315-2.205-3.031-3.558c-2.716-2.282-6.121-2.205-6.121-2.205C80.153,93.814,81.745,91.754,82.647,90.196z"/>
	</g>
	<g>
		<path fill="#FFFFFF" d="M142.679,45.244c0,0,22.864-41.852,30.176-38.86s11.59,44.183,6.687,64.446l4.292-8.32
			c0,0,3.988-54.95-9.971-60.268s-31.131,42.542-31.131,42.542L142.679,45.244z"/>
		<path fill="#FFFFFF" d="M178.095,80.426c0,0,6.266,16.568-1.458,36.679l2.58-0.512c0,0,9.828-29.893,0.324-40.524L178.095,80.426z
			"/>
		<path fill="#FFFFFF" d="M146.424,142.281c0,0,20.898-12.372,27.118-30.966l-0.635,9.036c0,0-18.106,24.432-27.151,28.152
			l-0.646-2.742L146.424,142.281z"/>
		<path fill="#FFFFFF" d="M171.412,126.654c0,0,2.098,15.79,2.129,20.674c0.031,4.884-0.392,19.309,0.924,21.401l3.061-13.609
			C177.526,155.12,176.23,128.682,171.412,126.654z"/>
		<path fill="#FFFFFF" d="M177.946,150.394c0,0,17.15,34.239,12.729,62.894c-2.404,15.582-11.192,33.358-11.192,33.358
			s12.437-16.824,14.02-28.668c1.583-11.844,0-34.799,0-34.799s-9.224-33.047-15.04-39.737L177.946,150.394z"/>
		<path fill="#FFFFFF" d="M198.676,268.843c0,0,9.569,40.895-1.028,85.082c0,0,12.534-31.721,7.493-70.488l-4.597-22.252
			L198.676,268.843z"/>
		<path fill="#FFFFFF" d="M203.691,336.785c0,0,23.543-3.335,28.24,11.203c5.198,16.088-2.7,55.792-50.126,98.453l3.772-1.078
			c0,0,34.683-26.952,46.687-60.453s-2.102-46.096-2.102-46.096s-16.275-5.701-25.259-6.035
			C201.57,332.655,203.691,336.785,203.691,336.785z"/>
		<path fill="#FFFFFF" d="M195.141,215.684l-2.361,6.107c0,0,10.293,35.865-10.974,94.844c0,0-1.04,23.181-10.219,54.505
			c-3.334,11.378-17.869,41.193-8.905,81.944l3.743-1.018c0,0-4.221-37.748,2.14-61.093c6.362-23.345,13.241-42.425,13.241-42.425
			l2.186-25.636l2.084-1.062C186.076,321.851,206.031,262.113,195.141,215.684z"/>
		<path fill="#FFFFFF" d="M96.365,45.244c0,0-22.864-41.852-30.176-38.86s-11.59,44.183-6.687,64.446l-4.292-8.32
			c0,0-3.988-54.95,9.971-60.268s31.131,42.542,31.131,42.542L96.365,45.244z"/>
		<path fill="#FFFFFF" d="M60.949,80.426c0,0-6.266,16.568,1.458,36.679l-2.58-0.512c0,0-9.828-29.893-0.324-40.524L60.949,80.426z"
			/>
		<path fill="#FFFFFF" d="M92.62,142.281c0,0-20.898-12.372-27.118-30.966l0.635,9.036c0,0,18.106,24.432,27.151,28.152l0.646-2.742
			L92.62,142.281z"/>
		<path fill="#FFFFFF" d="M67.632,126.654c0,0-2.098,15.79-2.129,20.674s0.392,19.309-0.924,21.401l-3.061-13.609
			C61.518,155.12,62.815,128.682,67.632,126.654z"/>
		<path fill="#FFFFFF" d="M61.098,150.394c0,0-17.15,34.239-12.729,62.894c2.404,15.582,11.192,33.358,11.192,33.358
			s-12.437-16.824-14.02-28.668s0-34.799,0-34.799s9.224-33.047,15.04-39.737L61.098,150.394z"/>
		<path fill="#FFFFFF" d="M40.368,268.843c0,0-9.569,40.895,1.028,85.082c0,0-12.534-31.721-7.493-70.488l4.597-22.252
			L40.368,268.843z"/>
		<path fill="#FFFFFF" d="M35.353,336.785c0,0-23.543-3.335-28.24,11.203c-5.198,16.088,2.7,55.792,50.126,98.453l-3.772-1.078
			c0,0-34.683-26.952-46.687-60.453s2.102-46.096,2.102-46.096s16.275-5.701,25.259-6.035
			C37.474,332.655,35.353,336.785,35.353,336.785z"/>
		<path fill="#FFFFFF" d="M43.903,215.684l2.361,6.107c0,0-10.293,35.865,10.974,94.844c0,0,1.04,23.181,10.219,54.505
			c3.334,11.378,17.869,41.193,8.905,81.944l-3.743-1.018c0,0,4.221-37.748-2.14-61.093c-6.362-23.345-13.241-42.425-13.241-42.425
			l-2.186-25.636l-2.084-1.062C52.968,321.851,33.013,262.113,43.903,215.684z"/>
		<path fill="#FFFFFF" d="M219.146,368.022c-10.775,29.686-38.899,38.517-50.213,74.286c-2.973-32.045,9.666-58.698,10.02-59.437
			l-5.709,9.562l-6.3,14.403c0.599-3.777,1.466-6.866,2.68-8.783c3.319-5.231,6.42-11.732,10.382-16.549
			c3.821-4.648,7.2-8.357,12.029-15.829c2.298-3.556,4.186-8.007,5.701-12.129c0.687-1.868,1.294-3.676,1.828-5.299
			c0.004-0.012,0.008-0.028,0.012-0.044c1.33-4.042,2.194-6.955,2.628-6.959C223.481,341.108,222.625,358.432,219.146,368.022z"/>
		<path fill="#FFFFFF" d="M92.109,28.719c0,0,24.406-7.52,55.066,0l2.521-1.088l-1.591-1.953c0,0-40.364-8.68-57.652,0.434v2.098
			L92.109,28.719z"/>
		<path fill="#FFFFFF" d="M206.484,436.539c0,0,26.751-23.326,57.35-11.123l3.811-1.106
			C267.645,424.31,234.076,407.834,206.484,436.539z"/>
		<path fill="#FFFFFF" d="M253.153,429.977c0,0,20.493-5.093,30.813,4.841l3.143,1.087
			C287.109,435.905,276.736,419.446,253.153,429.977z"/>
		<path fill="#FFFFFF" d="M272.534,434.23c0,0,19.394,2.309,33.132,32.511l3.086-1.811
			C308.753,464.93,293.316,432.004,272.534,434.23z"/>
		<path fill="#FFFFFF" d="M161.185,221.013c0,0,2.451-11.423-8.636-22.732c-18.923-19.301-18.049,2.075-31.89,2.015
			c-14.214-0.061-13.69-21.076-33.011-2.015c-11.276,11.124-8.636,22.732-8.636,22.732c4.234-5.335,9.9-4.215,9.9-4.215
			s-19.346,23.497-3.923,57.371c0,0,5.093-5.337,10.198-4.999c-10.656,14.343-4.297,23.784,1.348,40.7
			c2.284,6.846,5.943,13.459,6.034,20.669c0.05,3.952-0.272,7.825-0.936,11.721c-0.959,5.629-0.427,11.356-0.608,17.062
			c-0.206,6.513-1.843,13.027-2.049,19.54c-0.686,21.644-1.341,43.604,3.848,64.638c2.832,11.481,8.17,22.36,16.631,30.621v1.228
			c0.22-0.2,0.428-0.41,0.644-0.614c0.216,0.204,0.424,0.414,0.644,0.614v-1.228c8.461-8.261,13.084-19.139,15.916-30.621
			c5.188-21.033,3.819-42.994,3.133-64.638c-0.207-6.513-0.413-13.027-0.619-19.54c-0.181-5.706-0.364-11.433-1.323-17.062
			c-0.664-3.897-0.271-7.77-0.221-11.721c0.091-7.21,3.75-13.824,6.034-20.669c5.645-16.916,12.004-26.357,1.348-40.7
			c5.105-0.338,10.198,4.999,10.198,4.999c15.423-33.875-3.923-57.371-3.923-57.371S156.951,215.678,161.185,221.013z"/>
		<path fill="#FFFFFF" d="M122.471,163.385c2.367,0.117,2.347,0.748,4.616,0.07l0.014,0.675
			c10.863-3.981,19.519-15.818,18.587-27.003c-1.191-14.298-16.01-8.627-16.01-8.627l-9.581,0.755l-9.581-0.755
			c0,0-14.818-5.671-16.01,8.627c-0.932,11.185,7.748,21.841,18.611,25.822l2.816-0.167
			C118.202,163.46,120.104,163.502,122.471,163.385z"/>
		<path fill="#FFFFFF" d="M60.658,383.667c2.125,4.753,12.495,29.763,9.606,59.212c-11.197-36.247-39.562-45.014-50.393-74.857
			c-3.479-9.59-4.335-26.914,16.942-26.778c0.482,0.004,1.483,3.572,3.069,8.292c0.024,0.084,0.052,0.165,0.08,0.249
			c0.426,1.262,0.888,2.599,1.394,3.969c1.499,4.066,3.367,8.425,5.625,11.92c4.829,7.473,8.208,11.181,12.029,15.829
			C59.577,382.197,60.123,382.92,60.658,383.667z"/>
		<path fill="#FFFFFF" d="M66.001,392.434l-4.544-7.613c2.861,4.239,5.331,9.128,7.935,13.234c1.121,1.772,1.945,4.544,2.543,7.935
			L66.001,392.434z"/>
		<path fill="#FFFFFF" d="M146.146,84.749c-1.561,0-3.047,0.494-4.297,1.431c-0.626,0.471-1.165,1.033-1.602,1.67l-1.649,2.4
			l2.18-1.93c0.114-0.101,0.228-0.2,0.357-0.296c2.148-1.607,5.195-1.181,6.82,0.939c-0.753,0.013-1.48,0.26-2.101,0.727
			c-1.599,1.195-1.927,3.474-0.73,5.083c0.436,0.578,1.016,1.004,1.678,1.242c-1.842,1.23-4.319,1.079-5.981-0.394l-2.325-2.062
			l1.796,2.536l0.105,0.157c1.146,1.536,2.827,2.534,4.731,2.809c0.35,0.05,0.7,0.075,1.047,0.075c1.542,0,3.035-0.494,4.288-1.432
			c3.174-2.376,3.825-6.895,1.451-10.073C150.567,85.826,148.41,84.749,146.146,84.749z"/>
		<path fill="#FFFFFF" d="M98.883,96.244l1.895-2.686l-2.325,2.062c-1.665,1.475-4.146,1.626-5.982,0.395
			c0.663-0.239,1.243-0.665,1.68-1.244c1.196-1.607,0.868-3.887-0.73-5.082c-0.621-0.466-1.347-0.714-2.101-0.727
			c1.625-2.12,4.671-2.545,6.822-0.938c0.124,0.092,0.242,0.19,0.354,0.295l2.558,2.411l-2.02-2.876
			c-0.461-0.657-1.003-1.22-1.609-1.675c-3.181-2.374-7.696-1.723-10.066,1.452c-2.373,3.177-1.722,7.696,1.452,10.072
			c1.253,0.938,2.746,1.432,4.288,1.432c0.347,0,0.697-0.025,1.047-0.075C96.05,98.785,97.731,97.787,98.883,96.244z"/>
		<path fill="#FFFFFF" d="M63.311,456.82c0.758-1.02,1.549-1.899,2.36-2.62l0.132-0.124c0.452-0.399,0.612-0.788,0.535-1.292
			c-0.175-1.296-1.789-2.983-3.116-3.627c-1.465-0.704-3.535-0.769-4.858,0.681l-1.167,1.27l-0.864-1.156l-0.081-0.078
			c-0.364-0.255-1.142-0.811-2.253-1.671l-0.137-0.065c-1.509-0.359-3.028,0.227-4.035,0.778l-0.051,0.029
			c-0.475,0.234-0.991,0.567-1.578,1.019l-1.322,1.035l-0.811-1.47c-0.472-0.857-1.065-1.417-1.812-1.711
			c-1.777-0.705-4.321,0.345-6.639,2.745c-1.597,1.678-2.973,3.847-3.976,6.274c-0.705,1.721-1.182,3.482-1.417,5.238
			c-0.242,1.891-0.175,3.644,0.195,5.069c0.459,1.752,1.315,2.919,2.474,3.374c1.299,0.508,2.689,0.039,3.625-0.444l1.556-0.795
			l0.475,1.68c0.378,1.36,1.188,3.124,2.906,3.804c2.14,0.85,5.17-0.399,7.906-3.267l1.773-1.864l0.646,2.494
			c0.813,3.133,2.272,5.372,4.005,6.142l0.551,0.245l-0.05-0.601c-0.042-0.511-0.063-1.057-0.063-1.622
			c0-0.284,0.041-0.725,0.345-1.844l0.018-0.067l-0.008-0.07c-0.02-0.161-0.032-0.334-0.048-0.541l-0.029-0.393
			c-0.021-0.389-0.035-0.785-0.043-1.21c0-2.236,0.304-4.521,0.903-6.794C60.191,462.185,61.558,459.228,63.311,456.82z"/>
		<path fill="#FFFFFF" d="M102.563,454.952c-0.286,0.073-0.581,0.185-0.878,0.334l-0.136,0.068l-1.478,4.692l-1.83-4.912h0.287
			l-0.413-0.568c-1.009-1.388-2.649-3.043-4.736-3.043c-1.428,0-2.811,0.755-4.109,2.246l-2.078,5.787l-1.533-5.236l-0.101-0.072
			c-0.489-0.346-0.997-0.59-1.514-0.727c-1.238-0.31-2.573-0.082-3.96,0.672c-0.387,0.198-0.748,0.42-1.164,0.718
			c-0.545,0.378-1.092,0.848-1.624,1.395l-1.167,1.195l-1.002-1.345c-0.635-0.843-1.354-1.38-2.234-1.652l-0.788-0.149
			c-1.384-0.096-2.895,0.545-4.37,1.835l-0.251,0.19v0.032c-0.646,0.593-1.272,1.298-1.861,2.1
			c-1.547,2.115-2.756,4.738-3.495,7.581c-0.133,0.488-0.249,0.99-0.355,1.527c-0.013,0.058-0.022,0.117-0.03,0.175
			c-0.006,0.041-0.011,0.083-0.02,0.125l-0.015,0.082c-0.068,0.381-0.135,0.761-0.192,1.154l-0.041,0.432
			c-0.044,0.355-0.08,0.71-0.11,1.069c-0.007,0.103-0.009,0.204-0.011,0.304c-0.001,0.087-0.003,0.174-0.01,0.278l-0.013,0.355
			c-0.008,0.189-0.016,0.378-0.016,0.572c0.008,0.797,0.055,1.521,0.138,2.143c0.039,0.372,0.098,0.75,0.19,1.224
			c0.161,0.843,0.381,1.614,0.658,2.294c0.806,1.93,1.973,3.135,3.372,3.482c0.975,0.249,2.042,0.087,3.173-0.485l0.1-0.05
			l3.026-5.559l0.401,6.64l0.042,0.073c0.893,1.557,2.034,2.52,3.388,2.863c2.367,0.606,5.18-0.799,7.713-3.857l0.471-0.586H83.73
			l1.99-5.702l1.447,5.876l-0.324-0.022l0.249,0.545c1.662,3.646,3.953,5.736,6.288,5.736c2.034,0,4.036-1.579,5.638-4.444
			l1.206-7.454l2.239,6.657l0.052,0.101c2.631,3.521,5.728,5.228,8.28,4.579c1.306-0.327,3.154-1.247,4.06-2.766l0.001-0.001
			c2.053-3.47,2.393-9.207,0.888-14.971C113.568,460.213,107.291,453.757,102.563,454.952z"/>
		<path fill="#FFFFFF" d="M173.65,458.503c-0.628-0.848-1.294-1.588-1.967-2.187l-0.129-0.121c-1.444-1.257-2.913-1.897-4.333-1.833
			l-1.003,0.193c-0.792,0.279-1.468,0.804-2.07,1.604l-1,1.344l-1.166-1.194c-0.529-0.544-1.078-1.016-1.631-1.402
			c-0.406-0.285-0.77-0.51-1.109-0.687c-1.433-0.769-2.782-1.006-4.012-0.695c-0.524,0.136-1.032,0.38-1.512,0.727l-0.1,0.071
			l-1.533,5.235l-2.011-5.672l-0.068-0.115c-1.299-1.491-2.681-2.246-4.109-2.246c-2.086,0-3.727,1.655-4.736,3.043l-0.413,0.568
			h0.287l-1.831,4.912l-1.477-4.692l-0.136-0.068c-0.293-0.146-0.591-0.258-0.887-0.334c-4.717-1.179-10.998,5.268-13.172,13.54
			c-1.505,5.758-1.165,11.492,0.889,14.964c0.908,1.523,2.755,2.441,4.058,2.765c2.55,0.655,5.645-1.058,8.282-4.578l2.291-6.757
			l1.166,7.335l0.041,0.119c1.602,2.865,3.605,4.444,5.638,4.444c2.335,0,4.626-2.09,6.288-5.736l0.249-0.545l-0.324,0.022
			l1.447-5.876l1.99,5.702h-0.272l0.485,0.586c2.531,3.055,5.342,4.463,7.712,3.857c1.355-0.343,2.496-1.306,3.389-2.863
			l0.042-0.073l0.401-6.639l3.026,5.566l0.101,0.05c1.134,0.562,2.201,0.724,3.161,0.477c1.405-0.348,2.575-1.552,3.383-3.486
			c0.274-0.675,0.496-1.443,0.656-2.282c0.08-0.401,0.139-0.797,0.19-1.225l0.037-0.355c0.022-0.225,0.043-0.451,0.06-0.723
			c0.007-0.131,0.013-0.26,0.013-0.369c0.014-0.232,0.022-0.464,0.029-0.704v-0.01c0-1.984-0.273-4.021-0.811-6.052
			C176.409,463.258,175.2,460.63,173.65,458.503z"/>
		<path fill="#FFFFFF" d="M205.628,456.836c-0.993-2.422-2.368-4.594-3.977-6.283c-2.316-2.398-4.854-3.447-6.621-2.737
			c-0.753,0.293-1.348,0.853-1.82,1.711l-0.813,1.471l-1.329-1.037c-0.575-0.448-1.088-0.781-1.555-1.01l-0.066-0.037
			c-1.09-0.593-2.721-1.194-4.311-0.691l-0.108,0.056c-0.798,0.605-1.418,1.062-1.831,1.361l-1.119,1.467l-1.167-1.269
			c-1.325-1.451-3.398-1.389-4.868-0.681c-1.322,0.645-2.931,2.333-3.105,3.621c-0.078,0.512,0.083,0.901,0.529,1.292l0.144,0.137
			c0.806,0.716,1.595,1.592,2.344,2.603c1.76,2.414,3.13,5.376,3.961,8.566c0.599,2.256,0.903,4.539,0.901,6.826l-0.006,0.089
			c-0.007,0.374-0.013,0.733-0.035,1.082c-0.006,0.109-0.017,0.213-0.035,0.391l-0.014,0.198c-0.008,0.117-0.015,0.234-0.028,0.344
			l-0.008,0.07l0.018,0.067c0.306,1.125,0.345,1.569,0.345,1.826c-0.006,0.528-0.018,1.093-0.063,1.648l-0.048,0.596l0.547-0.24
			c1.725-0.756,3.185-2.997,4.007-6.15l0.646-2.494l1.773,1.864c2.736,2.869,5.766,4.122,7.904,3.267
			c1.72-0.68,2.53-2.444,2.908-3.803l0.475-1.682l1.555,0.794c0.936,0.482,2.323,0.953,3.634,0.444
			c1.154-0.455,2.007-1.622,2.467-3.373l0.001-0.001c0.369-1.422,0.436-3.179,0.193-5.084
			C206.82,460.33,206.341,458.573,205.628,456.836z"/>
	</g>
	<g>
		<path fill="#999999" d="M100.503,398.455c0,0,6.923,46.408,10.173,52.169s5.641,3.837,8.42,11.669
			c1.309,3.689,0.703,13.737,0.703,13.737l-2.703-4.368l-3.465-10.994l-8.167-8.603l-6.888-44.876L100.503,398.455z"/>
		<path fill="#999999" d="M32.222,462.074c0,0,1.127,10.655,8.852,4.411c0,0,1.11,12.86,12.86,0.231c0,0,1.104,6.896,4.593,7.051
			s3.146-2.103,3.146-2.103s2.623,16.344,11.597-1.293c0,0,0.231,26.691,12.814,0.324c0,0,6.615,29.42,14.063-0.509
			c0,0,8.25,22.285,16.171,7.755l1.247,3.884c0,0-7.136,12.43-16.726,0.997c0,0-9.361,12.353-15.268-1.074
			c0,0-10.895,10.511-15.192-0.537c0,0-7.224,5.141-10.095-2.378c0,0-6.017,1.074-8.012-5.371c0,0-10.511,7.529-13.043-1.798
			C39.228,471.663,30.895,474.548,32.222,462.074z"/>
		<path fill="#999999" d="M206.918,462.074c0,0-1.127,10.655-8.852,4.411c0,0-1.11,12.86-12.86,0.231c0,0-1.104,6.896-4.593,7.051
			c-3.488,0.155-3.146-2.103-3.146-2.103s-2.623,16.344-11.597-1.293c0,0-0.231,26.691-12.814,0.324c0,0-6.615,29.42-14.063-0.509
			c0,0-8.25,22.285-16.171,7.755l-1.247,3.884c0,0,7.136,12.43,16.726,0.997c0,0,9.361,12.353,15.268-1.074
			c0,0,10.895,10.511,15.192-0.537c0,0,7.224,5.141,10.095-2.378c0,0,6.017,1.074,8.012-5.371c0,0,10.511,7.529,13.043-1.798
			C199.913,471.663,208.246,474.548,206.918,462.074z"/>
		<path fill="#999999" d="M138.843,398.455c0,0-6.923,46.408-10.173,52.169c-3.25,5.761-5.641,3.837-8.42,11.669
			c-1.309,3.689-0.703,13.737-0.703,13.737l2.703-4.368l3.465-10.994l8.167-8.603l6.888-44.876L138.843,398.455z"/>
		<path fill="#999999" d="M168.933,442.309c-0.964,3.049-1.808,6.292-2.507,9.759c-0.39-8.212-3.492-31.354-1.271-45.231
			l8.088-14.403l5.709-9.562C178.6,383.611,165.96,410.264,168.933,442.309z"/>
		<path fill="#999999" d="M72.59,452.068c-0.655-3.254-1.438-6.308-2.326-9.188c2.889-29.449-7.481-54.459-9.606-59.212
			c0.269,0.378,0.538,0.763,0.8,1.153l4.544,7.613l8.212,15.324C76.627,421.518,72.988,443.687,72.59,452.068z"/>
	</g>
	<g>
		<path fill="#231F20" d="M308.18,459.602c-3.625-7.206-8.271-14.255-14.463-19.488c-0.772-1.916-1.78-3.71-2.974-5.369
			c-1.194-1.651-2.581-3.174-4.125-4.54c-4.139-3.746-9.608-5.848-15.163-6.134c-5.012-3.317-10.659-5.491-16.529-6.706
			c-11.66-2.552-24.014-0.121-34.251,5.855c-1.458,0.079-6.17,0.558-12.289,3.296c8.114-9.451,16.522-21.49,22.47-35.717
			c9.951-23.792,10.917-40.935,2.881-50.944c-8.25-10.273-23.17-9.615-28.31-9.036c4.94-23.871,4.061-50.436-4.547-72.777
			c0,0-0.007,0.007-0.014,0.014c1.008-14.834,0.164-31.184-5.011-45.911c3.482-25.372-5.226-53.06-17.594-74.5
			c-0.794-5.19-2.216-10.366-5.019-14.841c0.422-0.865,0.786-1.687,1.094-2.423l2.145,4.011l1.63-2.652
			c13.504-21.926,5.197-44.982,3.839-48.385c0.436-1.258,0.829-2.531,1.187-3.811c5.097-17.73,4.532-36.76,0.243-54.597
			c-0.743-2.981-1.594-5.934-2.738-8.865c-0.615-1.744-1.73-3.324-3.246-4.404c-2.688-1.959-6.484-2.252-9.408-0.615
			c-1.73,1.022-3.353,2.331-4.84,3.667c-5.126,4.718-9.994,11.774-13.726,19.331c-6.906-2.066-19.474-4.197-31.899-4.197
			c-9.644,0.007-21.526,2.223-27.767,3.975c-3.719-7.47-8.544-14.434-13.62-19.109c-1.487-1.337-3.11-2.645-4.84-3.667
			c-2.924-1.637-6.72-1.344-9.408,0.615c-1.516,1.072-2.631,2.659-3.246,4.404c-1.144,2.931-1.995,5.884-2.738,8.865
			c-4.289,17.837-4.854,36.868,0.243,54.597c0.357,1.28,0.751,2.552,1.187,3.811c-1.351,3.403-9.666,26.459,3.839,48.385l1.63,2.652
			l2.145-4.011c0.307,0.736,0.672,1.551,1.087,2.416c-2.03,3.21-3.246,6.813-4.182,10.481c-0.357,1.501-0.629,3.031-0.858,4.561
			c-4.897,8.3-8.729,17.101-11.825,26.201c-5.305,15.885-8.086,33.45-5.383,50.086c-4.983,14.255-5.962,29.833-5.133,44.017
			c-1.48,3.625-2.574,7.228-3.575,10.988c-5.147,20.103-5.398,41.364-1.344,61.696c-5.097-0.579-20.082-1.265-28.353,9.029
			c-8.036,10.009-7.07,27.152,2.881,50.944c11.274,26.959,31.356,46.061,41.622,54.576c-0.522,0.193-1.044,0.415-1.566,0.701
			c-0.193,0.093-0.386,0.2-0.579,0.315c-0.658-0.693-1.423-1.215-2.295-1.559c-3.06-1.23-6.849,0.079-10.144,3.496
			c-1.88,1.973-3.489,4.49-4.633,7.285c-0.815,1.995-1.366,4.025-1.637,6.041c-0.3,2.338-0.207,4.454,0.272,6.305
			c0.722,2.738,2.281,4.711,4.411,5.548c1.365,0.536,2.867,0.586,4.411,0.164c0.929,1.973,2.338,3.367,4.139,4.082
			c2.802,1.115,6.155,0.315,9.308-2.123c1.508,3.546,3.889,5.726,6.784,6.105c0.272,0.029,0.543,0.043,0.815,0.043
			c0.372,0,0.744-0.029,1.108-0.086l0.5-0.086c1.108,1.451,2.495,2.416,4.104,2.824c1.601,0.408,3.296,0.229,4.969-0.515
			c1.301,2.073,3.088,3.467,5.162,3.996c3.274,0.829,6.885-0.586,10.009-3.839c2.173,3.803,5.133,5.927,8.357,5.927
			c2.902,0,5.641-1.773,7.757-4.961c3.217,3.589,6.999,5.183,10.452,4.304c2.152-0.543,4.711-2.016,6.034-4.254
			c1.008-1.694,1.68-3.76,2.016-6.055c0.336,2.295,1.008,4.361,2.016,6.055c1.322,2.238,3.875,3.71,6.034,4.254
			c3.446,0.886,7.228-0.708,10.452-4.304c2.116,3.189,4.854,4.961,7.757,4.961c3.224,0,6.184-2.123,8.357-5.927
			c3.124,3.253,6.734,4.668,10.009,3.839c2.073-0.529,3.861-1.923,5.162-3.996c1.673,0.744,3.36,0.922,4.954,0.515
			c1.623-0.4,3.01-1.373,4.111-2.824l0.508,0.086c0.357,0.057,0.729,0.086,1.101,0.086c0.279,0,0.565-0.014,0.858-0.05
			c2.867-0.372,5.24-2.552,6.749-6.098c3.153,2.438,6.499,3.239,9.301,2.123c1.802-0.715,3.217-2.109,4.139-4.082
			c1.551,0.422,3.053,0.372,4.425-0.164c0.872-0.343,1.644-0.894,2.309-1.601c1.83,0.844,3.746,1.473,5.684,2.016
			c5.39,1.465,10.938,2.037,16.479,2.166c8.286,0.164,16.629-0.722,24.593-3.153c0.086-0.021,0.172-0.05,0.257-0.079
			c4.325,1.701,8.801,2.552,13.39,3.053c14.277,1.451,28.711-1.852,41.622-7.871l1.53-0.715
			C310.41,464.721,309.423,462.047,308.18,459.602z M200,267.207c1.33,5.033,2.302,10.194,3.06,15.313
			c2.674,18.788,1.659,38.04-2.474,56.542c-1.029,4.954-2.152,9.844-2.938,14.863c1.959-3.596,3.532-7.378,4.79-11.26
			c0.801-2.659,1.523-5.376,2.173-8.136c2.431-0.35,18.452-2.273,26.344,7.578c7.149,8.915,6.005,24.829-3.396,47.312
			c-8.336,19.924-21.619,35.452-31.899,45.404c-0.936,0.822-1.866,1.701-2.802,2.645c-3.932,3.625-7.249,6.305-9.401,7.964
			c-0.586,0.265-1.144,0.593-1.651,1.008c-2.288-1.394-5.097-1.172-7.163-0.172c-1.53,0.743-3.975,2.767-4.718,5.283
			c-0.758-0.25-1.523-0.4-2.273-0.422c-2.223-12.868-2.531-24.049-1.737-33.958c0.458-2.188,0.987-4.354,1.637-6.506
			c2.052-6.692,4.797-13.176,8.007-19.417c1.609-3.196,3.153-6.363,4.447-9.744c-4.933,4.368-8.093,10.209-10.952,16.078
			c1.844-7.7,4.146-14.541,6.277-20.861c0.958-2.845,1.866-5.533,2.674-8.143c7.485-24.142,9.394-48.02,9.601-50.88
			c0.829-2.13,6.341-16.722,10.08-35.852C198.556,277.387,199.371,272.447,200,267.207z M65.748,111.315l-3.103,5.791
			c-8.114-15.449-5.269-31.363-3.217-38.648c1.308,2.681,2.917,5.212,4.954,7.449c-1.365-6.07-3.389-11.524-4.861-17.272
			C55.289,51.392,55.532,33.09,59.5,15.818c0.686-2.867,1.494-5.726,2.524-8.414c0.372-1.108,1.015-2.13,1.966-2.817
			c1.702-1.28,4.175-1.33,5.927-0.129c1.308,0.894,2.588,1.887,3.739,2.974c10.831,10.402,15.706,24.872,22.956,37.811
			c-0.629-5.576-2.559-11.939-5.312-18.123c6.127-1.659,17.186-3.682,26.223-3.682c11.767,0,23.628,1.952,30.369,3.896
			c-2.702,6.12-4.597,12.404-5.212,17.908c7.249-12.94,12.118-27.402,22.948-37.811c1.151-1.087,2.431-2.08,3.739-2.974
			c1.751-1.201,4.225-1.151,5.926,0.129c0.958,0.686,1.601,1.709,1.966,2.817c1.03,2.688,1.837,5.548,2.531,8.414
			c3.961,17.272,4.204,35.574-0.029,52.817c-1.473,5.748-3.496,11.203-4.861,17.272c2.045-2.238,3.653-4.776,4.961-7.464
			c2.059,7.285,4.911,23.177-3.224,38.662l-3.096-5.791l-1.23,4.204c-0.029,0.1-2.988,10.037-9.801,16.336
			c-1.544,1.437-3.246,2.831-5.219,4.447c-2.931,2.409-6.42,5.269-11.102,9.594c0.436-2.931,0.293-5.941-0.529-8.822
			c-1.251,8.271-4.447,16.7-11.946,20.918c-4.275,2.502-9.108,3.539-14.076,4.132c-3.346-0.393-6.62-1.001-9.666-2.102
			c-10.359-3.396-14.856-12.647-16.357-22.948c-0.822,2.874-0.965,5.884-0.529,8.815c-4.675-4.325-8.164-7.185-11.095-9.587
			c-1.966-1.616-3.667-3.01-5.219-4.447c-6.813-6.298-9.773-16.236-9.801-16.336L65.748,111.315z M11.559,389.42
			c-9.401-22.484-10.545-38.397-3.396-47.312c7.914-9.88,24.014-7.921,26.373-7.571c0.379,1.694,0.786,3.389,1.23,5.069
			c1.423,4.947,3.231,9.787,5.705,14.32c-0.951-6.027-2.381-11.982-3.539-17.965c-4.49-22.391-4.389-46.076,1.566-68.195
			c0.622,5.39,1.444,10.459,2.338,15.02c3.66,18.666,9.094,32.807,9.923,34.923c0.214,2.881,2.13,26.745,9.608,50.873
			c0.808,2.609,1.716,5.297,2.674,8.143c2.123,6.32,4.432,13.161,6.27,20.861c-2.852-5.869-6.02-11.71-10.945-16.078
			c1.287,3.382,2.838,6.548,4.447,9.744c3.21,6.241,5.955,12.725,8.007,19.417c0.643,2.152,1.18,4.318,1.637,6.506
			c0.794,9.909,0.486,21.09-1.737,33.958c-0.786,0.014-1.58,0.157-2.366,0.422c-0.743-2.516-3.188-4.54-4.718-5.283
			c-2.066-1.008-4.876-1.223-7.171,0.172c-0.572-0.479-1.215-0.865-1.909-1.144c-0.036-0.007-0.071-0.021-0.107-0.029
			C47.332,438.984,23.962,419.074,11.559,389.42z M59.014,465.279c-0.608,2.302-0.915,4.618-0.915,6.885v0.021
			c0.007,0.415,0.021,0.815,0.043,1.208c0.007,0.136,0.021,0.264,0.029,0.393c0.014,0.193,0.029,0.386,0.05,0.565
			c-0.315,1.158-0.357,1.623-0.357,1.937c0,0.572,0.021,1.122,0.064,1.651c-1.623-0.722-3.01-2.845-3.803-5.905l-0.808-3.117
			l-2.216,2.331c-2.631,2.759-5.505,3.982-7.514,3.181c-1.573-0.622-2.338-2.28-2.695-3.567l-0.593-2.102l-1.945,0.994
			c-0.872,0.45-2.166,0.886-3.332,0.429c-1.33-0.522-1.959-1.987-2.259-3.131c-0.357-1.38-0.422-3.088-0.186-4.933
			c0.229-1.709,0.693-3.439,1.394-5.147c0.987-2.388,2.338-4.518,3.903-6.162c2.216-2.295,4.611-3.31,6.248-2.659
			c0.672,0.264,1.201,0.772,1.63,1.551l1.015,1.837l1.651-1.294c0.558-0.429,1.051-0.751,1.516-0.979l0.064-0.036
			c0.994-0.543,2.416-1.065,3.782-0.744c1.101,0.851,1.887,1.415,2.266,1.68l1.122,1.501l1.458-1.587
			c1.201-1.315,3.103-1.244,4.44-0.6c1.222,0.593,2.76,2.195,2.917,3.353c0.05,0.329-0.007,0.615-0.422,0.979l-0.136,0.129
			c-0.836,0.743-1.637,1.637-2.402,2.667C61.244,459.052,59.857,462.047,59.014,465.279z M114.548,483.273
			c-0.844,1.415-2.609,2.295-3.839,2.602c-2.206,0.565-4.906-0.818-7.281-3.655c-0.391-0.468-0.697-1.004-0.892-1.582l-2.437-7.245
			l-1.165,7.331c-0.172,1.079-0.574,2.119-1.232,2.991c-1.318,1.749-2.825,2.711-4.324,2.711c-1.926,0-3.863-1.595-5.382-4.366
			c-0.372-0.678-0.636-1.414-0.8-2.17l-1.417-6.497c0,0-1.939,5.995-2.538,7.313c-1.567,3.449-5.112,4.311-7.349,3.739
			c-0.78-0.198-1.428-0.608-1.963-1.12c-0.777-0.743-1.216-1.773-1.281-2.846l-0.395-6.529l-2.9,5.329
			c-0.632,1.162-1.891,1.925-3.203,1.758c-0.129-0.016-0.259-0.041-0.388-0.074c-1.637-0.407-2.602-2.009-3.131-3.274
			c-0.265-0.651-0.479-1.394-0.636-2.223c-0.079-0.4-0.143-0.786-0.186-1.194c-0.086-0.643-0.129-1.358-0.136-2.109
			c0-0.307,0.021-0.606,0.029-0.913c0.008-0.2,0.016-0.401,0.024-0.601c0.028-0.339,0.063-0.677,0.104-1.016
			c0.014-0.15,0.029-0.293,0.043-0.443c0.057-0.393,0.129-0.793,0.2-1.194c0.021-0.1,0.029-0.2,0.05-0.3
			c0.1-0.508,0.214-1.008,0.35-1.508c0.729-2.802,1.923-5.39,3.439-7.464c0.615-0.836,1.265-1.559,1.93-2.152v-0.007
			c0.043-0.029,0.079-0.064,0.114-0.093c1.415-1.237,2.852-1.844,4.125-1.759l0.744,0.143c0.758,0.236,1.423,0.729,2.016,1.516
			l1.251,1.68l1.458-1.494c0.508-0.522,1.037-0.979,1.573-1.351c0.429-0.307,0.772-0.515,1.122-0.693
			c1.315-0.715,2.567-0.929,3.71-0.643c0.486,0.129,0.951,0.357,1.394,0.672l1.809,6.177l2.381-6.713
			c0.965-1.108,2.266-2.123,3.839-2.123c1.923,0,3.474,1.559,4.447,2.895h-0.1l2.373,6.37l1.744-5.54
			c0.257-0.129,0.529-0.236,0.808-0.307c4.347-1.094,10.566,4.99,12.747,13.276C116.878,474.243,116.556,479.877,114.548,483.273z
			 M120.417,467.674c-0.35,1.344-0.608,2.674-0.779,3.989c-0.172-1.315-0.429-2.652-0.779-3.996
			c-1.937-7.356-6.763-12.976-11.267-15.113c-4.239-18.466-7.757-37.118-7.027-56.084c0.2-6.391,0.829-12.74,1.43-19.202
			c1.18-12.897,1.866-25.829,2.109-38.776c-0.05-12.933,0.636-26.03-2.209-38.748c-1.087,6.491-1.344,12.926-1.408,19.367
			c-0.2,11.36-0.422,27.388-0.872,38.598c-0.35,12.933-2.087,25.715-2.624,38.641c-0.729,18.638,2.616,37.197,6.72,55.262
			c-0.65-0.007-1.294,0.064-1.937,0.229c-0.458,0.114-0.901,0.272-1.33,0.472c-2.002-2.595-4.468-4.004-7.063-4.004
			c-2.302,0-4.447,1.058-6.298,3.074c-0.701-0.45-1.458-0.779-2.252-0.979c-2.016-0.5-4.189-0.164-6.241,0.944
			c-0.458,0.236-0.936,0.529-1.516,0.929c-0.236,0.164-0.472,0.343-0.701,0.529c-0.372-0.315-0.772-0.579-1.18-0.808
			c6.112-35.202-1.88-58.944-7.771-76.416c-0.951-2.817-1.844-5.483-2.645-8.057c-7.807-25.186-9.451-50.086-9.465-50.336
			l-0.021-0.286l-0.107-0.272c-0.164-0.393-10.888-27.152-12.897-57.907c0.007-0.014,0.014-0.036,0.021-0.05l-0.021-0.014
			c-0.801-12.289-0.2-25.215,3.031-37.347c0.972,3.632,2.23,7.206,3.825,10.688c0.25,0.508,0.951,2.009,1.201,2.481
			c1.401,2.373,2.795,4.74,4.561,6.863c1.43,1.923,3.246,3.682,4.983,5.305c-2.273-4.304-4.618-8.372-6.47-12.69
			c-5.927-12.797-7.692-27.102-6.248-41.071c1.659-15.799,6.42-31.306,13.176-45.725c0.014,2.545,0.164,5.09,0.45,7.599
			c0.493,5.054,1.523,10.187,3.975,14.691c0.5-6.019-0.643-11.91-0.622-17.887c-0.057-8.3,0.758-17.05,4.068-24.75
			c1.587,2.609,3.61,5.333,6.134,7.664c1.623,1.508,3.36,2.931,5.376,4.583c3.796,3.124,8.529,7.006,15.635,13.912l0.029-0.029
			c0.944,1.801,2.123,3.481,3.539,4.961c5.269,5.583,13.226,7.871,20.639,7.8h0.143c7.414,0.072,15.363-2.216,20.639-7.8
			c1.415-1.487,2.602-3.167,3.539-4.969l0.036,0.036c7.106-6.906,11.839-10.788,15.635-13.912c2.016-1.651,3.753-3.074,5.383-4.583
			c2.524-2.331,4.554-5.069,6.141-7.685c0.272,0.643,0.529,1.294,0.758,1.937c2.302,6.334,3.124,13.183,3.317,19.896
			c-0.029,1.423-0.021,2.974-0.014,4.404c-0.057,0.965-0.193,3.403-0.25,4.411c-0.322,4.011-0.708,7.921-0.379,12.01
			c2.731-4.954,3.603-10.659,4.161-16.214c0.157-2.073,0.25-4.196,0.257-6.32c2.81,5.991,5.226,12.182,7.292,18.437
			c7.271,22.091,9.844,47.012-0.272,68.602c-1.852,4.318-4.197,8.386-6.47,12.69c1.737-1.623,3.553-3.389,4.983-5.305
			c1.766-2.123,3.16-4.497,4.561-6.863c0.229-0.436,0.986-2.059,1.201-2.481c1.802-3.975,3.181-8.086,4.196-12.282
			c11.124,42.623-10.016,96.355-10.245,96.92l-0.1,0.272l-0.021,0.279c-0.014,0.25-1.666,25.15-9.472,50.336
			c-0.794,2.567-1.694,5.233-2.645,8.057c-5.884,17.465-13.869,41.193-7.771,76.366c-0.443,0.236-0.872,0.522-1.265,0.858
			c-0.236-0.186-0.472-0.365-0.708-0.536c-0.572-0.393-1.051-0.686-1.466-0.901c-2.095-1.13-4.268-1.466-6.284-0.965
			c-0.794,0.2-1.551,0.529-2.252,0.979c-1.852-2.016-4.004-3.074-6.298-3.074c-2.595,0-5.062,1.408-7.063,4.004
			c-0.429-0.2-0.879-0.357-1.337-0.472c-0.379-0.096-0.76-0.15-1.143-0.186c0-0.001,0-0.001,0-0.001
			c-0.265-0.024-0.53-0.044-0.796-0.041c4.104-18.066,7.449-36.625,6.72-55.262c-0.536-12.926-2.273-25.708-2.624-38.641
			c-0.45-11.21-0.672-27.238-0.872-38.598c-0.064-6.441-0.322-12.875-1.408-19.367c-2.845,12.718-2.159,25.815-2.209,38.748
			c0.243,12.947,0.929,25.88,2.109,38.776c0.601,6.463,1.23,12.811,1.43,19.202c0.729,18.966-2.788,37.618-7.027,56.084
			c-0.023,0.011-0.046,0.025-0.069,0.036C127.002,454.747,122.348,460.337,120.417,467.674z M177.574,472.849
			c0,0.136-0.007,0.272-0.014,0.407c-0.014,0.229-0.036,0.45-0.057,0.672c-0.014,0.114-0.021,0.236-0.036,0.343v0.014
			c-0.05,0.407-0.107,0.793-0.186,1.187c-0.157,0.822-0.372,1.566-0.636,2.216c-0.529,1.265-1.494,2.867-3.138,3.274
			c-0.259,0.066-0.518,0.097-0.773,0.101c-1.171,0.014-2.228-0.707-2.787-1.735l-2.923-5.378l-0.39,6.452
			c-0.068,1.122-0.517,2.21-1.341,2.975c-0.524,0.487-1.154,0.876-1.908,1.068c-1.924,0.49-4.174-0.464-6.299-2.583
			c-0.69-0.688-1.186-1.546-1.505-2.466l-2.083-6.003l-1.446,6.629c-0.146,0.668-0.383,1.317-0.707,1.919
			c-1.529,2.844-3.494,4.484-5.447,4.484c-1.556,0-3.121-1.036-4.474-2.915c-0.54-0.75-0.896-1.621-1.041-2.534l-1.205-7.584
			l-2.331,6.932c-0.264,0.784-0.668,1.52-1.211,2.144c-2.326,2.669-4.926,3.954-7.067,3.406c-1.237-0.307-2.995-1.187-3.839-2.602
			c-2.009-3.396-2.331-9.029-0.851-14.691c1.691-6.432,5.817-11.529,9.605-12.986c0.122-0.047,0.244-0.089,0.365-0.128
			c0.054-0.017,0.109-0.038,0.163-0.054c0.178-0.052,0.354-0.095,0.529-0.131c0.722-0.147,1.422-0.149,2.078,0.016
			c0.279,0.072,0.558,0.179,0.815,0.307l1.744,5.54l2.373-6.37h-0.1c0.972-1.337,2.524-2.895,4.447-2.895
			c1.573,0,2.874,1.015,3.839,2.123l2.381,6.713l1.809-6.177c0.436-0.315,0.901-0.543,1.394-0.672
			c1.144-0.286,2.395-0.064,3.753,0.665c0.3,0.157,0.644,0.365,1.072,0.665c0.543,0.379,1.072,0.836,1.58,1.358l1.458,1.494
			l1.251-1.68c0.565-0.751,1.194-1.23,1.902-1.48l0.951-0.179c1.251-0.05,2.652,0.55,4.032,1.752
			c0.007,0.007,0.014,0.014,0.021,0.021c0.029,0.029,0.064,0.057,0.093,0.086c0.665,0.593,1.315,1.315,1.93,2.145
			c1.516,2.08,2.71,4.668,3.439,7.478c0.529,1.995,0.801,3.996,0.801,5.962C177.595,472.392,177.588,472.621,177.574,472.849z
			 M206.513,467.051c-0.3,1.144-0.929,2.609-2.252,3.131c-1.18,0.457-2.466,0.021-3.339-0.429l-1.945-0.994l-0.593,2.102
			c-0.357,1.287-1.122,2.945-2.695,3.567c-2.009,0.801-4.883-0.422-7.514-3.181l-2.216-2.331l-0.808,3.117
			c-0.801,3.074-2.188,5.205-3.803,5.912c0.043-0.536,0.057-1.087,0.064-1.673c0-0.3-0.043-0.765-0.357-1.923
			c0.021-0.179,0.029-0.372,0.043-0.558c0.014-0.136,0.029-0.265,0.036-0.4c0.021-0.35,0.029-0.715,0.036-1.094
			c0-0.043,0.007-0.079,0.007-0.114v-0.021c0-2.273-0.307-4.59-0.915-6.877c-0.844-3.239-2.231-6.234-4.018-8.686
			c-0.758-1.022-1.558-1.916-2.395-2.659l-0.136-0.129c-0.415-0.365-0.472-0.651-0.422-0.979c0.157-1.158,1.694-2.76,2.91-3.353
			c1.351-0.651,3.246-0.715,4.447,0.6l1.458,1.587l1.294-1.73l0.007-0.007c0.415-0.3,1.037-0.758,1.837-1.365
			c1.444-0.458,2.981,0.093,4.032,0.665l0.064,0.036c0.465,0.229,0.958,0.55,1.508,0.979l1.659,1.294l1.015-1.837
			c0.429-0.779,0.958-1.287,1.637-1.551c1.637-0.658,4.025,0.365,6.234,2.652c1.573,1.651,2.924,3.782,3.903,6.17
			c0.701,1.709,1.172,3.439,1.401,5.133C206.935,463.963,206.87,465.672,206.513,467.051z M282.221,472.299
			c-7.292,0.701-14.841,0.479-21.926-1.437c3.267-1.48,6.291-3.475,8.479-6.384c-5.162,1.766-9.966,3.482-15.142,4.926
			c-5.076,1.33-10.316,1.995-15.571,2.273c-5.247,0.243-10.545,0.064-15.778-0.5c-4.225-0.508-8.486-1.208-12.497-2.624
			c0.057-0.193,0.129-0.386,0.186-0.593c0.479-1.852,0.572-3.968,0.272-6.313c-0.272-2.009-0.822-4.039-1.637-6.034
			c-1.151-2.795-2.752-5.312-4.64-7.285c-3.289-3.417-7.077-4.725-10.13-3.503c-0.872,0.35-1.644,0.872-2.302,1.566
			c-0.193-0.114-0.386-0.222-0.579-0.315c-0.558-0.307-1.115-0.543-1.673-0.736c1.644-1.366,3.525-2.988,5.591-4.876l0.021,0.021
			c0.193-0.2,0.379-0.379,0.572-0.572c0.779-0.722,1.587-1.48,2.409-2.281c5.662-5.019,11.174-7.721,15.413-9.172
			c-0.379,0.329-0.758,0.658-1.13,0.994c-2.209,2.095-4.146,4.454-5.676,7.085c2.631-1.487,4.99-3.224,7.456-4.883
			c1.737-1.165,3.639-2.481,5.405-3.61c2.738-1.659,5.676-3.138,8.643-4.311c11.674-4.661,25.057-4.054,36.546,0.879
			c-4.182,0.829-8.2,2.545-11.381,5.362c5.498-0.779,10.859-2.452,16.443-2.252c6.091,0.107,11.689,2.881,15.921,7.099
			c-4.046-1.759-8.872-2.273-12.983-0.593c2.223,0.357,4.289,0.779,6.248,1.43c13.469,4.389,21.733,17.751,27.924,29.883
			C298.929,468.982,290.679,471.391,282.221,472.299z M57.305,441.887c-4.79-1.973-8.686-5.376-12.275-8.901
			c-5.455-5.283-10.302-11.081-14.891-17.093c-4.461-6.098-9.187-12.003-12.168-19.059c7.142,7.135,12.647,15.428,19.345,22.898
			c5.526,6.727,11.61,12.89,17.501,19.274C55.682,439.907,56.519,440.85,57.305,441.887z M186.817,436.246
			c8.7-8.858,16.722-18.344,24.507-28.024c3.088-3.925,6.148-7.843,9.823-11.388c-2.974,7.056-7.707,12.961-12.168,19.059
			c-4.59,6.012-9.437,11.81-14.884,17.093c-3.589,3.524-7.492,6.927-12.282,8.901C183.393,439.878,185.116,438.105,186.817,436.246z
			 M119.616,123.569c0,0,22.655,0.658,1.909,18.809c1.244,3.853,3.26,9.472,8.271,7.378c1.58-0.515,3.131-1.48,4.79-2.388
			c-0.915,1.701-2.145,3.246-3.725,4.389c-4.761,3.36-8.922,0.543-11.21-3.632c-3.324,6.191-10.18,7.628-14.963-0.758
			c2.781,1.43,5.784,3.782,8.815,2.359c2.374-1.58,3.339-4.668,4.225-7.328C96.94,124.226,119.616,123.569,119.616,123.569z
			 M164.848,20.043c-4.354,6.084-6.742,13.183-11.467,19.138c0.429-3.889,1.837-7.413,3.489-10.802
			c2.116-4.261,10.852-23.049,17.015-17.208c6.398,7.192,6.806,40.163,4.011,49.564c-0.479,1.844-1.094,3.682-2.016,5.355
			c0.393-3.775,0.458-7.442,0.55-11.153c0.222-7.392,0.164-14.827-0.579-22.198c-0.336-3.682-0.808-7.349-1.501-10.931
			c-0.658-2.838-1.137-5.977-2.852-8.293c-0.1-0.107-0.164-0.15-0.193-0.172c-0.107,0.036-0.3,0.107-0.422,0.164
			C168.301,14.975,166.6,17.627,164.848,20.043z M67.786,13.516c-1.716,2.316-2.195,5.455-2.852,8.293
			c-0.686,3.582-1.165,7.249-1.501,10.931c-0.744,7.371-0.801,14.806-0.579,22.198c0.093,3.71,0.157,7.378,0.55,11.153
			c-1.801-3.374-2.559-7.206-3.081-10.96c-1.137-9.601-1.058-36.696,5.076-43.959c6.162-5.834,14.884,12.925,17.015,17.208
			c1.651,3.389,3.06,6.913,3.489,10.802c-4.726-5.955-7.113-13.054-11.467-19.138c-1.751-2.416-3.453-5.069-6.034-6.534
			c-0.122-0.064-0.315-0.129-0.422-0.164C67.95,13.366,67.886,13.409,67.786,13.516z M137.21,92.627
			c0.129,1.644,0.694,3.274,1.752,4.69c1.766,2.359,4.468,3.603,7.206,3.603c1.873,0,3.753-0.579,5.369-1.787
			c1.094-0.822,1.945-1.852,2.545-2.988c2.281-1.916,5.14-1.852,5.14-1.852c-2.116-0.779-3.453-2.509-4.211-3.818
			c-0.229-1.38-0.772-2.724-1.659-3.911c-2.967-3.968-8.607-4.783-12.575-1.816c-1.38,1.03-2.366,2.395-2.96,3.889
			c-1.651,1.58-3.589,1.587-3.589,1.587C135.802,90.733,136.703,91.77,137.21,92.627z M142.064,86.465
			c1.222-0.915,2.659-1.358,4.082-1.358c2.088,0,4.146,0.951,5.483,2.738c2.259,3.024,1.637,7.313-1.38,9.573
			c-3.017,2.259-7.314,1.637-9.566-1.38c-0.036-0.05-0.064-0.1-0.1-0.15c1.83,1.623,4.597,1.787,6.634,0.272
			c0.129-0.1,0.257-0.207,0.386-0.315c-0.844-0.114-1.644-0.558-2.195-1.287c-1.08-1.451-0.786-3.503,0.658-4.583
			c0.772-0.579,1.709-0.765,2.588-0.593c-0.107-0.2-0.236-0.393-0.379-0.586c-1.737-2.323-5.033-2.795-7.356-1.058
			c-0.136,0.1-0.257,0.207-0.379,0.315C140.949,87.459,141.457,86.922,142.064,86.465z M80.046,94.293c0,0,2.867-0.064,5.147,1.852
			c0.6,1.137,1.444,2.166,2.545,2.988c1.609,1.208,3.496,1.787,5.369,1.787c2.738,0,5.44-1.244,7.206-3.603
			c1.037-1.387,1.63-3.01,1.759-4.704c0.508-0.851,1.415-1.88,2.974-2.388c0,0-1.93-0.007-3.582-1.573
			c-0.6-1.544-1.616-2.888-2.967-3.903c-3.968-2.967-9.608-2.152-12.575,1.816c-0.886,1.187-1.43,2.531-1.659,3.911
			C83.506,91.784,82.17,93.514,80.046,94.293z M87.646,87.845c2.252-3.017,6.548-3.632,9.565-1.38c0.6,0.45,1.108,0.994,1.53,1.594
			c-0.122-0.114-0.25-0.222-0.386-0.322c-2.323-1.737-5.619-1.265-7.356,1.058c-0.143,0.193-0.272,0.386-0.379,0.586
			c0.879-0.172,1.816,0.014,2.588,0.593c1.444,1.08,1.737,3.131,0.658,4.583c-0.55,0.729-1.351,1.172-2.195,1.287
			c0.129,0.107,0.257,0.215,0.386,0.315c2.038,1.516,4.804,1.351,6.634-0.272c-0.036,0.05-0.064,0.1-0.1,0.15
			c-2.252,3.017-6.549,3.639-9.566,1.38C86.009,95.158,85.387,90.869,87.646,87.845z M51.114,179.124
			c1.308-5.769,2.974-11.667,6.191-16.686c-0.722,4.733-1.644,9.272-2.524,13.841c-1.301,6.856-2.038,13.755-2.581,20.696
			c-0.429,7.013-0.143,13.898-0.121,21.004c-0.593-1.687-1.087-3.41-1.544-5.14c-0.894-4.061-1.408-8.243-1.465-12.404
			C48.841,193.329,49.563,186.058,51.114,179.124z M190.635,285.094c-1.458,5.848-3.274,11.71-6.749,16.8
			c0.293-3.096,1.087-5.948,1.68-8.865c3.796-14.312,5.834-29.147,6.985-43.895c0.343-5.269,0.622-12.697,1.623-17.873
			c1.537,5.948,1.394,12.01,1.222,18.016C195.046,261.331,193.645,273.391,190.635,285.094z M254.905,424.994
			c-2.867,0.257-5.712,0.214-8.565,0.465c-0.865,0.079-2.116,0.179-2.981,0.229c-0.365,0.05-2.531,0.343-2.945,0.4
			c-1.13,0.172-2.366,0.465-3.503,0.658c-6.777,1.373-12.84,4.246-19.081,7.335c3.046-4.111,7.742-6.556,12.332-8.55
			C237.954,422.47,247.098,421.548,254.905,424.994z M285.224,466.694c4.94-0.743,11.617-2.009,16.607-2.216
			c-7.414,4.318-16.092,5.769-24.55,6.134c-2.824,0.136-5.683,0.064-8.507-0.722C273.521,468.353,280.334,467.638,285.224,466.694z
			 M184.337,176.278c-0.879-4.568-1.802-9.108-2.524-13.841c3.217,5.019,4.89,10.917,6.191,16.686
			c1.551,6.935,2.281,14.205,2.045,21.311c-0.05,4.161-0.572,8.343-1.466,12.404c-0.457,1.73-0.951,3.453-1.544,5.14
			c0.021-7.099,0.307-13.991-0.122-21.004C186.381,190.04,185.638,183.134,184.337,176.278z M53.552,293.03
			c0.593,2.917,1.387,5.769,1.68,8.865c-3.474-5.09-5.283-10.952-6.749-16.8c-3.003-11.703-4.411-23.763-4.761-35.817
			c-0.172-6.005-0.315-12.068,1.222-18.016c1.001,5.14,1.28,12.604,1.623,17.873C47.718,263.883,49.756,278.717,53.552,293.03z"/>
		<circle fill="#231F20" cx="111.774" cy="141.273" r="1.471"/>
		<circle fill="#231F20" cx="113.305" cy="145.604" r="1.471"/>
		<path fill="#231F20" d="M66.274,160.418c10.313-10.366,27.416-14.895,41.756-14.34c-3.699,0.66-7.342,1.396-10.957,2.22
			C86.249,150.773,75.673,154.355,66.274,160.418L66.274,160.418z"/>
		<path fill="#231F20" d="M67.453,146.204c10.408-7.387,28.701-6.123,40.417-2.506c-6.852-0.387-13.62-0.85-20.461-0.706
			C80.626,143.12,73.852,143.694,67.453,146.204L67.453,146.204z"/>
		<circle fill="#231F20" cx="127.534" cy="141.273" r="1.471"/>
		<circle fill="#231F20" cx="126.003" cy="145.604" r="1.471"/>
		<path fill="#231F20" d="M173.034,160.418c-9.399-6.063-19.975-9.645-30.799-12.12c-3.615-0.824-7.258-1.56-10.957-2.22
			C145.615,145.524,162.718,150.049,173.034,160.418L173.034,160.418z"/>
		<path fill="#231F20" d="M171.854,146.204c-6.399-2.51-13.173-3.085-19.956-3.212c-6.842-0.144-13.608,0.32-20.461,0.707
			C143.147,140.085,161.439,138.814,171.854,146.204L171.854,146.204z"/>
	</g>
</g>
</svg>
