<?xml version="1.0" encoding="utf-8"?>
<!-- Generator: Adobe Illustrator 28.3.0, SVG Export Plug-In . SVG Version: 6.00 Build 0)  -->
<svg version="1.1" id="panda_00000067206061024700836700000016296421070759638688_"
	 xmlns="http://www.w3.org/2000/svg" xmlns:xlink="http://www.w3.org/1999/xlink" x="0px" y="0px" viewBox="0 0 409.9 490"
	 enable-background="new 0 0 409.9 490" xml:space="preserve">
<g id="panda">
	<g>
		<path fill="#4C4C4C" d="M91.5,438.2l-0.2-0.3l-0.4-0.1c-0.3-0.1-0.6-0.1-0.9-0.1h-0.1c-1.8,0-3.5,1-5.1,2.8
			c-0.6,0.6-1,1.4-1.2,2.4l-1,3.9l-1.2-2.4c-1.2-2.4-4.1-3.4-6.5-2.3c-1.4,0.7-2.8,1.8-4.2,3.2c-0.4,0.5-0.8,1.1-1.1,1.8l-1.4,3.6
			l-0.6-2c-0.5-1.6-1.7-2.8-3.3-3.3c-1.1-0.3-2.2-0.3-3.1,0c-2.3,0.7-4.2,2.9-5.8,6.8c-3,7.3-2.6,15.4,0.9,19.5c0.3,0.4,0.6,0.7,1,1
			c0.9,0.8,2.1,1.1,3.3,0.9c1.3-0.2,2.3-1,3-2.1l2-3.4l0.4,6.2c0.1,1.7,1.3,3.2,3,3.7h0.1c2.5,0.7,5.3-0.4,8-3
			c1.4-1.3,2.5-3.1,3.2-5l1-2.7l0.5,4c0.2,1.8,0.9,3.4,1.9,4.7c1.6,2,3.4,3.1,5.2,3.1H89c5.8,0,8.2-6.8,9.2-11.4l0.7,2.2
			c0.6,1.8,1.6,3.4,2.9,4.7c2.4,2.3,5,3.2,7.3,2.7c0.6-0.1,1.2-0.4,1.7-0.7c1.6-1,2.7-2.8,2.8-4.9l0.2-2.4l-0.3-0.3
			C106.1,461.3,98.6,451,91.5,438.2z"/>
		<path fill="#4C4C4C" d="M60.6,443.1c2.1-0.6,4.6-0.2,7,1.1l0.6,0.3l0.5-0.5c3.6-4.1,7.8-5.8,11.5-4.8c0.5,0.1,0.9,0.3,1.4,0.5
			l0.6,0.3l0.4-0.5c1.8-2.2,3.9-3.6,6.1-4l1.2-0.2l-0.6-1.1c-14.1-26.5-24-57.8-29.9-79.5c-2.7-9.8-4.7-21.1-6-33.7l-0.1-1l-1,0.3
			c-4,1.1-14.4,4.4-24.4,11.1c-12.5,8.3-20.1,18.9-22.6,31.4c-5.8,28.7,1.6,48.3,7.7,60.5l1.4,2.8l1.3-16.1l1.7,6.1
			c1,3.6,3.7,11.7,6.9,17.1l1.6,2.8v-9.2l2.1,3c0.5,0.6,11.2,15.9,23.8,22.8l0.9,0.5l0.4-1.2c0.1-0.2,0.2-0.4,0.2-0.6
			C55.2,446.7,57.6,444,60.6,443.1z"/>
		<path fill="#4C4C4C" d="M404.6,362.8c-2.5-12.5-10.1-23-22.6-31.4c-10-6.7-20.4-10-24.4-11.1l-1-0.3l-0.1,1
			c-1.3,12.5-3.3,23.8-6,33.7c-5.9,21.6-15.8,52.9-29.9,79.5l-0.6,1.1l1.2,0.2c2.2,0.4,4.3,1.7,6.1,4l0.4,0.5l0.6-0.3
			c0.4-0.2,0.9-0.4,1.4-0.5c3.7-1,7.9,0.7,11.5,4.8l0.5,0.5l0.6-0.3c2.5-1.4,4.9-1.8,7-1.1c3,0.9,5.4,3.6,7.2,8.1
			c0.1,0.2,0.2,0.4,0.2,0.6l0.4,1.2l0.9-0.5c12.9-7,23.7-22.7,23.8-22.8l2.1-3v9.2l1.6-2.8c3.1-5.4,5.9-13.5,6.9-17.1l1.7-6.1
			l1.3,16.1l1.4-2.8C403,411.1,410.5,391.5,404.6,362.8z"/>
		<path fill="#4C4C4C" d="M348.7,445.3c-1-0.3-2-0.3-3.1,0c-1.6,0.4-2.8,1.7-3.3,3.2l-0.6,2l-1.4-3.6c-0.3-0.7-0.6-1.3-1.1-1.8
			c-1.4-1.5-2.8-2.5-4.2-3.2c-2.4-1.1-5.3-0.1-6.5,2.3l-1.2,2.4l-1-3.9c-0.2-0.9-0.7-1.7-1.2-2.3c-1.6-1.8-3.3-2.8-5.1-2.8h-0.1
			c-0.3,0-0.6,0-0.9,0.1l-0.4,0.1l-0.2,0.3c-7.1,12.8-14.6,23.1-22.3,30.6l-0.3,0.3l0.2,2.4c0.2,2.1,1.2,3.9,2.8,4.8
			c0.5,0.3,1.1,0.6,1.7,0.7c2.3,0.5,4.9-0.4,7.3-2.7c1.3-1.2,2.3-2.8,2.9-4.6l0.7-2.2c1,4.6,3.4,11.4,9.2,11.4h0.1
			c1.8,0,3.7-1.1,5.2-3.1c1-1.3,1.7-2.9,1.9-4.7l0.6-4l1,2.7c0.7,2,1.8,3.7,3.2,5c2.7,2.6,5.6,3.6,8.1,3c1.7-0.5,2.9-2,3-3.7
			l0.4-6.2l2,3.5c0.6,1.1,1.7,1.8,3,2.1c1.2,0.2,2.4-0.1,3.3-0.9c0.4-0.3,0.7-0.6,1-1c3.5-4.2,3.9-12.2,0.9-19.5
			C352.9,448.2,351,445.9,348.7,445.3z"/>
		<path fill="#4C4C4C" d="M279.1,453.2c-1-0.3-2-0.3-3.1,0c-1.6,0.4-2.8,1.7-3.3,3.2l-0.6,2l-1.4-3.6c-0.3-0.7-0.6-1.3-1.1-1.8
			c-1.3-1.4-2.7-2.5-4.2-3.2c-2.4-1.1-5.3-0.1-6.5,2.3l-1.2,2.4l-1-3.9c-0.2-0.9-0.7-1.7-1.2-2.4c-1.6-1.8-3.3-2.8-5.1-2.8h-0.1
			c-1.3,0-2.6,0.6-3.8,1.7c-0.7,0.6-1.3,1.5-1.6,2.4l-1.3,4.1l-1-3.2c-0.4-1.2-1.4-2.1-2.6-2.5h-0.1c-1.5-0.4-3.2-0.1-4.8,0.9
			c-0.4,0.2-0.8,0.5-1.4,0.9c-0.6,0.5-1.3,1-1.9,1.7l-0.9,1l-0.8-1c-0.9-1.1-1.9-1.8-3-2.1c-2.7-0.6-5.9,1.2-8.5,5
			c-1.7,2.5-3.1,5.6-3.9,8.9c-0.6,2.4-0.8,4.7-0.8,7.1c0,1.5,0.2,2.8,0.5,3.9c0.2,1,0.5,1.9,0.9,2.7c1,2.3,2.5,3.8,4.3,4.2
			c0.3,0.1,0.7,0.1,1.1,0.1c1.8,0,3.4-1.1,4.3-2.8l1.4-2.7l0.3,3.6c0.2,2,1.2,3.9,2.8,4.9c0.5,0.3,1.1,0.6,1.7,0.7
			c2.3,0.5,4.9-0.4,7.3-2.7c1.3-1.2,2.3-2.8,2.9-4.6l0.7-2.2c1,4.6,3.4,11.4,9.2,11.4h0.1c1.8,0,3.6-1.1,5.2-3.1
			c1-1.3,1.7-2.9,1.9-4.7l0.5-4l1,2.7c0.7,2,1.8,3.7,3.2,5c2.7,2.6,5.6,3.6,8.1,3c1.7-0.5,2.9-2,3-3.7l0.4-6.2l2,3.4
			c0.6,1.1,1.7,1.8,3,2.1c1.2,0.2,2.4-0.1,3.3-0.9c0.4-0.3,0.7-0.6,1-1c3.5-4.2,3.9-12.2,0.9-19.5
			C283.2,456.2,281.3,453.9,279.1,453.2z"/>
		<path fill="#4C4C4C" d="M191.5,454.5L191.5,454.5c-2.6-3.8-5.8-5.6-8.6-5c-1.1,0.3-2.1,1-3,2.1l-0.8,1l-0.9-1
			c-0.6-0.6-1.3-1.2-1.9-1.7c-0.5-0.4-0.9-0.6-1.3-0.9c-1.7-1-3.3-1.3-4.9-0.9H170c-1.2,0.3-2.2,1.3-2.6,2.5l-1,3.2l-1.3-4.1
			c-0.3-1-0.9-1.8-1.6-2.4c-1.2-1.1-2.5-1.6-3.8-1.7h-0.1c-1.8,0-3.5,0.9-5.1,2.8c-0.6,0.6-1,1.5-1.2,2.4l-1,3.9l-1.2-2.4
			c-1.2-2.4-4.1-3.4-6.5-2.3c-1.4,0.7-2.8,1.8-4.2,3.2c-0.5,0.5-0.8,1.1-1.1,1.8l-1.4,3.6l-0.6-2c-0.5-1.6-1.7-2.8-3.3-3.2
			c-1.1-0.3-2.1-0.3-3.1,0c-2.3,0.7-4.2,2.9-5.7,6.8c-3,7.3-2.6,15.4,0.9,19.5c0.3,0.4,0.7,0.7,1,1c0.9,0.8,2.1,1.1,3.3,0.9
			s2.3-1,3-2.1l2-3.5l0.4,6.2c0.1,1.7,1.3,3.2,3,3.7h0.1c2.4,0.7,5.3-0.4,8.1-3c1.4-1.3,2.5-3.1,3.2-5l1-2.7l0.6,4
			c0.2,1.8,0.9,3.4,1.9,4.7c1.6,2,3.4,3.1,5.2,3.1h0.1c5.8,0,8.2-6.8,9.2-11.4l0.7,2.2c0.6,1.8,1.6,3.4,2.9,4.7
			c2.4,2.3,5,3.2,7.3,2.7c0.6-0.1,1.2-0.4,1.7-0.7c1.6-1,2.7-2.8,2.9-4.9l0.3-3.6l1.4,2.7c0.9,1.7,2.5,2.8,4.3,2.8
			c0.4,0,0.8,0,1.1-0.1c2.3-0.5,3.6-2.6,4.3-4.2c0.4-0.8,0.6-1.7,0.8-2.7c0.3-1.1,0.4-2.5,0.5-3.9c0.1-2.3-0.2-4.7-0.8-7.1
			C194.6,460.1,193.3,457,191.5,454.5z"/>
		<path fill="#4C4C4C" d="M354.8,265.6L354.8,265.6l-0.1-0.9v-0.2v-0.1l0,0c-0.8-8.6-1.9-16.6-3.5-23.8
			c-4.5-21.2-29.9-64.7-37.6-77.6l-0.8-1.4l-0.7,1.5c-0.2,0.4-0.5,1.1-0.8,1.7l-0.1,0.1c-0.2,0.5-0.4,0.9-0.5,1.1
			c-0.4,0.9-1.1,1.9-1.7,2.9c-0.4,0.6-0.8,1.2-1.1,1.8l-1.1,1.8l-1.5-3.6l-0.8,1.7c-6,12.7-15.6,23.3-26.9,29.9
			c-11.8,6.7-25.8,11.2-42.7,13.8c-9.3,1.4-19.4,2-29.9,1.8c-10.5,0.2-20.6-0.4-29.9-1.8c-16.9-2.6-30.9-7.1-42.7-13.8
			c-11.3-6.6-20.9-17.3-26.9-29.9l-0.8-1.7l-1.5,3.6l-1.1-1.8c-0.3-0.6-0.7-1.2-1.1-1.8c-0.6-1-1.3-2.1-1.7-2.9
			c-0.1-0.2-0.5-1-0.8-1.7l-1.3-2.7l-0.8,1.4c-7.7,12.8-33.1,56.4-37.6,77.6c-0.8,3.7-1.5,7.7-2.1,11.7c-0.6,3.9-1,8.1-1.4,12.5l0,0
			c-2.7,30.6-0.3,64.9,6.4,89.5c8.9,32.9,28.3,91.8,57.8,116.7l1.5,1.2v-1.9c0-3.6,0.7-7.4,2.2-11.1c1.8-4.5,4.3-7.2,7.2-8.1
			c2.2-0.6,4.5-0.3,7,1.1l0.6,0.3l0.5-0.5c3.6-4.1,7.8-5.8,11.5-4.8c0.5,0.1,0.9,0.3,1.4,0.5l0.6,0.3l0.4-0.5
			c2.2-2.8,4.8-4.2,7.5-4.1c2.3,0.1,4.6,1.2,6.5,3.4l0.5,0.6l0.6-0.4c0.7-0.4,1.5-0.8,2.3-1c2.1-0.5,4.3-0.1,6.5,1.1
			c0.5,0.3,1,0.6,1.6,1c0.3,0.2,0.5,0.4,0.8,0.6l0.6,0.5l0.5-0.5c0.9-0.7,1.8-1.2,2.9-1.4c0.1,0,0.2,0,0.4-0.1l0.8-0.1l-0.1-0.8
			c-2.1-17.6-9.3-34.9-20.7-50.2l0.6,0.2c2.5,0.9,5.6,1.9,8.2,2.8l1.8,0.6l-0.7-1.8c-4.5-11.2-11.7-21.4-18.7-31.1l-0.4-0.6
			c-1-1.3-2-2.6-2.9-3.9v-0.1c-3-4-6.1-8.1-8.9-12.3c7.7,6.4,13.9,14.6,19,21.3c6.1,8.5,12.7,18.5,15.3,29.8l0.5,1.8l-0.4-0.2
			c-1.6-0.5-3.7-1.3-5.6-1.9l-2.4-0.8l1.3,2.1c1.4,2.1,2.7,4.3,4,6.7c6.6,12.3,10.8,25.1,12.2,37.9l0.1,0.6l0.6,0.2
			c2.5,0.8,5.1,2.8,7.2,5.7c1.9,2.7,3.4,6.1,4.2,9.7c0.1,0.4,0.2,0.8,0.3,1.2l0.2,1.1h13.7l0.1-0.7c0.1-0.5,0.2-1,0.3-1.5
			c0.9-3.6,2.3-6.9,4.2-9.7c2.1-2.9,4.6-5,7.2-5.7l0.6-0.2l0.1-0.6c1.5-12.9,5.6-25.6,12.2-37.9c1.2-2.3,2.6-4.6,4-6.7l1.3-2.1
			l-2.4,0.8c-1.9,0.6-3.8,1.3-5.4,1.9l-0.7,0.2l0.5-1.8c2.5-11.3,9.2-21.3,15.3-29.8c5-6.7,11.3-15,19-21.3
			c-2.8,4.3-5.8,8.3-8.8,12.2c-1,1.3-2,2.7-3.1,4.1l-0.4,0.6c-7,9.8-14.2,19.9-18.7,31.1l-0.7,1.8L247,396
			c-11.4,15.3-18.5,32.6-20.7,50.2l-0.1,0.8l0.9,0.1c0.1,0,0.2,0,0.3,0.1c1,0.2,2,0.7,2.9,1.5l0.6,0.4l0.6-0.5
			c0.2-0.2,0.5-0.4,0.7-0.6c0.6-0.4,1.1-0.8,1.6-1c2.1-1.2,4.4-1.6,6.5-1.1c0.8,0.2,1.6,0.5,2.3,1l0.6,0.4l0.5-0.6
			c1.9-2.2,4.1-3.3,6.5-3.4c2.7-0.1,5.2,1.3,7.5,4.1l0.4,0.5l0.6-0.3c0.4-0.2,0.9-0.4,1.4-0.5c3.7-1,7.9,0.7,11.5,4.8l0.5,0.5
			l0.6-0.3c2.5-1.4,4.9-1.7,7-1.1c3,0.9,5.4,3.6,7.2,8.1c1.5,3.6,2.2,7.4,2.2,11.1v1.9l1.4-1.2c29.4-24.9,48.8-83.8,57.8-116.7
			C354.9,329.9,357.4,295.9,354.8,265.6z"/>
		<path fill="#4C4C4C" d="M233.1,159.9l0.4-0.1c-0.1-0.9-0.2-1.7-0.2-2.5c1.7,2.9,3,6.2,4.2,10.3v0.1l0,0c2.2,2.2,5.6,4.8,10.3,4.8
			c0.4,0,0.9,0,1.4-0.1c7.2-0.7,14.7-7.3,22.3-19.6c0-0.1,3.9-8.9-6.9-19.9c-5.5-5.6-6.6-8.9-7.6-11.9c-1-2.8-1.8-5.2-6-8.6
			c-8.7-6.8-17.3-3.4-17.3-3.3c-0.1,0-5.1,1.4-8,7.1c-3.2,6.4-2.3,15.4,2.4,26.9C228.2,143.2,231.3,154,233.1,159.9z M227.4,125.6
			c1.1-0.1,3-0.6,4.7-2.2v-0.1c1-1.7,2.3-3.2,4-4.2c2.6-1.7,5.7-2.2,8.7-1.5s5.6,2.5,7.3,5.1c0.9,1.4,1.4,2.9,1.7,4.5v0.1
			c0.7,1.6,2.1,4.3,4.9,5.9c-1.5,0-4.4,0.4-6.9,2.5l0,0c-0.9,1.2-1.9,2.2-3.2,3c-2.6,1.7-5.7,2.2-8.7,1.6c-3-0.7-5.6-2.5-7.3-5.1
			c-1.1-1.7-1.7-3.7-1.8-5.7v-0.1C230.2,128.1,229.3,126.6,227.4,125.6z"/>
		<path fill="#4C4C4C" d="M153.2,120.8c-1,2.9-2.1,6.2-7.5,11.7c-11,11.2-7.2,20.2-7,20.6v0.1c7.5,12,14.9,18.6,22.1,19.8
			c0.7,0.1,1.4,0.2,2.1,0.2c3.3,0,6.6-1.3,9.4-3.7l0.2-0.2l0.1-0.3c0.7-2.4,1.6-5.5,3-8.6c-0.1,0.9-0.2,1.9-0.4,2.9l-0.8,4.8
			l2.4-4.2c0.5-0.9,0.9-1.8,1.1-2.5c1.5-4.9,4.7-16,5.4-18.1c4.9-11.6,5.7-20.8,2.4-27.4c-2.8-5.7-7.8-7.2-8.3-7.4
			c-0.9-0.4-9.3-3.4-17.9,3.4C155.1,115.4,154.2,117.9,153.2,120.8z M161.7,138.1c-1.2-0.8-2.2-1.7-3-2.9l-0.1-0.1
			c-1.8-1.6-3.9-2.2-5.5-2.5c1.9-1.6,3-3.7,3.7-5.2l0.1-0.2c0.2-1.5,0.8-2.9,1.6-4.2c1.6-2.5,4-4.2,6.9-4.8c2.9-0.6,5.8-0.1,8.3,1.5
			c1.6,1,2.8,2.4,3.7,4v0.1l0.1,0.1c1,1,2.2,1.7,3.5,2.1c-1.2,1-1.9,2.3-2.3,3.2v0.1v0.2c-0.1,1.9-0.7,3.8-1.7,5.4
			c-1.6,2.5-4,4.2-6.9,4.8C167.1,140.2,164.1,139.7,161.7,138.1z"/>
		<path fill="#4C4C4C" d="M273.3,57.3c-0.2,0.7-0.7,1.8-1.6,2.1l-1.4,0.4l1,1c0.2,0.2,3.7,3.6,9.8,0.1c-0.3,1.9-1,4.9-2.3,7.1
			c-1.3,2.1,0.4,5.1,5.3,9.2l4.3,3.6l-3-4.7c-0.4-0.6-0.8-1.3-1.1-1.9c1.7,1.1,3.3,2.6,5,4.4l0.3,0.3l0.4-0.1c3-0.4,6-1.4,8.7-3
			c1.4-0.8,2.7-1.7,3.9-2.7h0.1l0.3-0.3c3.1-3.8,6.8-10.5,6.9-20.7c0-9.2-3.8-19-10.7-27.6c-6.6-8.2-15.2-14.3-23.7-16.7
			c-12.9-3.6-19.2,5.7-21.8,11.6l-0.1,0.1v0.1c0,0.1-0.1,0.3-0.1,0.4l-0.1,0.2v0.1c-0.6,3-1.1,6.4-1.4,10.4
			c-0.1,1.8-0.2,3.6-0.2,5.4c-0.1,2.3-0.2,4.6-0.3,6.9v0.2l0.1,0.2C253.6,47.3,259.5,56.4,273.3,57.3z M288.7,25.9
			c-5.7-4.2-10.3-7-14.1-7c-0.9,0-1.7,0.1-2.4,0.4c-3.3,1.3-5.5,5.4-7,12.9c-0.2,1.2-0.4,2.4-0.5,3.5c-0.2,1.9-0.5,3.7-1,5.4
			c-0.7-2.9-0.3-6,0.1-9.2c0.3-2.2,0.8-4.1,1.3-5.9c1.6-4.8,4-7.7,7-8.7c5.3-1.6,12.2,2.9,17.6,7.1c6.7,5.3,11.3,12.6,12.6,20
			c0.8,4.4,1.3,12.4-4,17.1c-0.7,0.7-1.5,1.2-2.2,1.6c0.6-0.8,1.1-1.5,1.5-2.3l0,0c1.7-3.2,3.4-6.7,3.8-10.4
			C301.7,41.3,297,32.1,288.7,25.9z"/>
		<path fill="#4C4C4C" d="M109,74.5c0.7,0.5,1.4,0.9,2.1,1.3c2.8,1.6,5.8,2.6,8.8,3l0.4,0.1l0.3-0.3c1.7-1.8,3.4-3.3,5-4.4
			c-0.6,1.1-1.3,2.3-2.2,3.5l-3.1,4.5l4.3-3.3c6.3-4.8,8.8-8.5,7.3-10.8c-1.4-2.2-2-5.2-2.3-7.1c6.1,3.5,9.7,0.1,9.8-0.1l1-1
			l-1.4-0.4c-0.9-0.3-1.4-1.3-1.6-2.1c12.2-0.8,18.3-8,20.8-12.2l0.1-0.2v-0.3c-0.3-2.8-0.4-5.6-0.5-8.4c-0.1-1.8-0.1-3.6-0.2-5.5
			c-0.4-5.2-1-9.4-2-12.9c-0.1-0.3-0.2-0.6-0.3-0.9l-0.1-0.2c-2.7-4.7-9-12.2-20.5-8.9c-8.5,2.4-17.1,8.5-23.7,16.7
			c-6.9,8.6-10.7,18.4-10.7,27.6c0,11.2,4.5,18.3,8.2,22.3H109z M146.2,41.2c-0.5-1.8-0.7-3.5-0.9-5.4c-0.2-1.1-0.3-2.3-0.5-3.5
			c-1.5-7.5-3.7-11.6-7-12.9c-4.1-1.6-9.4,1.3-16.5,6.5c-8.2,6.2-13,15.5-12.7,24.8c0.4,3.7,2.1,7.3,3.8,10.4
			c0.4,0.8,0.9,1.5,1.5,2.3c-0.8-0.4-1.5-1-2.3-1.6c-5.3-4.7-4.8-12.7-4-17.1c1.3-7.4,5.9-14.7,12.6-20c4.5-3.5,10.3-7.4,15.3-7.4
			c0.8,0,1.6,0.1,2.4,0.3c3,0.9,5.4,3.8,7,8.6c0.6,1.7,1,3.7,1.3,5.9C146.5,35.2,146.8,38.3,146.2,41.2z"/>
	</g>
	<g>
		<path fill="#FFFFFF" d="M246.4,304.3c-0.4,15.2-13,18.5-13,18.5c13-18.5,6.9-33.5,6.9-33.5c-2.5,12.5-14.1,12.9-14.1,12.9
			c7.6-19.5,1.4-30.9-9.2-23.6c-6,4-9.5,5.4-11.5,5.8c-2-0.4-5.5-1.7-11.5-5.8c-10.7-7.2-16.8,4.2-9.2,23.6c0,0-11.6-0.4-14.1-12.9
			c0,0-6.2,15,6.9,33.5c0,0-12.7-3.3-13-18.5c0,0-22.8,22.1,0,72.4c0,0,8.9,13.5,11.2,23.8l-7.8-1.8c0,0,15.2,22.5,18,49.8
			c0,0,10.6,3.8,12.7,17.7h6.4h1h6.4c2.1-13.8,12.7-17.7,12.7-17.7c2.7-27.4,18-49.8,18-49.8l-7.8,1.8c2.3-10.4,11.2-23.8,11.2-23.8
			C269.2,326.4,246.4,304.3,246.4,304.3z"/>
		<path fill="#FFFFFF" d="M354.9,251.8c-2.5-28-41.9-92.2-41.9-92.2l-4.6,8.1c0,0,32.3,56.7,20.7,91.9
			c-11.6,35.2,17.5,103.5,17.5,103.5c6-13.9,9.7-54.6,9.7-54.6S357.4,279.8,354.9,251.8z"/>
		<path fill="#FFFFFF" d="M97.8,159.6c0,0-39.4,64.2-41.9,92.2s-1.4,56.7-1.4,56.7s3.7,40.6,9.7,54.6c0,0,29-68.3,17.5-103.5
			c-11.6-35.2,20.7-91.9,20.7-91.9L97.8,159.6z"/>
		<path fill="#FFFFFF" d="M288.9,468.5c0,0,32.4-23.8,55.8-113.5l3.4,4.1c0,0-25.7,91.6-58.7,113.9L288.9,468.5z"/>
		<path fill="#FFFFFF" d="M356,323.4c17.1,3.9,65.5,22.1,41.6,91.7l-2.2-17.4c0,0-6.3,20.5-9,27.1l-0.3-7.5c0,0-10.3,22.3-29.6,32.4
			v3.9c0,0,22.6-13.5,26.5-22.8l0.3,7.7l10.2-18.8l1.2,9c0,0,19.2-28.8,11.1-68.8c0,0-14.4-37.8-50.3-41.4L356,323.4z"/>
		<path fill="#FFFFFF" d="M215.7,460.3c0,0,9.9-14.2,14.9-2.1c0,0,8.7-16.4,12.5,2.1c0,0,7.4-24.8,14.4,0c0,0,7.2-19.2,14.7,4.8
			c0,0,6.3-18.7,13.7,0l1.9-0.9c0,0-4.8-18.7-15.9-10.3c0,0-8.9-10.1-13.4-2.2c0,0-8.2-13.7-15.2-3c0,0-6.3-4.4-12.2,1.8
			C231.2,450.6,222.4,441.8,215.7,460.3z"/>
		<path fill="#FFFFFF" d="M314.9,442.9c0,0,9.6-4.5,12,11.1c0,0,8.2-19.5,15.1,2.9c0,0,4.9-16,13.6-2c0,0-5.4-17.1-13.4-8.4
			c0,0-8.4-9.9-14.6-4.2c0,0-5.8-7.8-9.8-5.2L314.9,442.9z"/>
		<path fill="#FFFFFF" d="M121.4,468.5c0,0-32.4-23.8-55.8-113.5l-3.4,4.1c0,0,25.7,91.6,58.7,113.9L121.4,468.5z"/>
		<path fill="#FFFFFF" d="M54.3,323.4c-17.1,3.9-65.5,22.1-41.6,91.7l2.2-17.4c0,0,6.3,20.5,9,27.1l0.3-7.5c0,0,10.3,22.3,29.6,32.4
			v3.9c0,0-22.6-13.5-26.5-22.8l-0.3,7.7l-10.2-18.8l-1.2,9c0,0-19.2-28.8-11.1-68.8c0,0,14.4-37.8,50.3-41.4L54.3,323.4z"/>
		<path fill="#FFFFFF" d="M194.5,460.3c0,0-9.9-14.2-14.9-2.1c0,0-8.7-16.4-12.5,2.1c0,0-7.4-24.8-14.4,0c0,0-7.2-19.2-14.7,4.8
			c0,0-6.3-18.7-13.7,0l-1.9-0.9c0,0,4.8-18.7,15.9-10.3c0,0,8.9-10.1,13.4-2.2c0,0,8.2-13.7,15.2-3c0,0,6.3-4.4,12.2,1.8
			C179.1,450.6,187.9,441.8,194.5,460.3z"/>
		<path fill="#FFFFFF" d="M95.4,442.9c0,0-9.6-4.5-12,11.1c0,0-8.2-19.5-15.1,2.9c0,0-4.9-16-13.6-2c0,0,5.4-17.1,13.4-8.4
			c0,0,8.4-9.9,14.6-4.2c0,0,5.8-7.8,9.8-5.2L95.4,442.9z"/>
		<path fill="#FFFFFF" d="M134.1,4.9c-16.8,4.1-28.8,19.4-33.8,35.4c-1.2,4.1-2.2,8.2-2,12.4c0.4,7.3,3.4,14.3,8.8,19.1
			c0.8,0.7,1.7,1.4,2.6,2c-3.7-3.9-8-10.8-8-21.7c0-19.1,16.7-38.7,33.7-43.5c10.6-3,16.5,3.3,19.5,8.5
			C152.1,8.1,146.5,1.4,134.1,4.9z M307.9,125.9c1.5,0.4,4.3,1.2,6.7,1.9c-3.1-9.6-7.7-18.7-13-27.3c-3-4.8-6.3-9.5-9.6-14.2
			c-2.4-3.3-5-6.4-7.2-9.8c-3.1-2.7-6.3-6-5.1-8c2.3-3.7,2.7-9.3,2.7-9.3c-6.6,4.8-10.3,1-10.3,1c2.1-0.6,2.5-3.7,2.5-3.7
			c-14.2-0.5-20.2-9.7-22-13.4c-0.2,2.1-0.4,4.1-0.8,6.2c-1.6-3.4-2.5-7.4-2.9-11.6c-15-15.4-43.4-14.5-43.7-14.5l-0.1-1.5l-0.1,1.5
			c-0.3,0-28.7-0.9-43.7,14.5c-0.4,4.2-1.3,8.2-2.9,11.6c-0.3-1.5-0.5-3.1-0.6-4.7c-2.5,4.2-8.7,11.4-21.2,11.8c0,0,0.4,3.1,2.5,3.7
			c0,0-3.7,3.7-10.3-1c0,0,0.4,5.6,2.7,9.3c1.5,2.5-3.5,6.9-7.1,9.7l0,0c-1.9,2.8-4.1,5.4-6.1,8.2c-3.4,4.6-6.6,9.3-9.6,14.2
			c-5.3,8.6-10,17.7-13,27.3c2.4-0.7,5.1-1.5,6.7-1.9c-1.6,3.4-3.2,7.4-3.9,11.2c-1.5,7.5-1,15.5,1.7,22.6c0.2,0.4,0.5,1.4,0.7,1.8
			c0.2,0.4,1.2,2.4,1.4,2.9c0.2,0.4,0.4,0.8,0.6,1.2c0.8-1.9,1.6-3.8,2.2-5.1l1.8,4.7c5.3,13.3,15,25.3,27.4,32.5
			c12.7,7.2,27.2,11.2,41.6,13.4c3.6,0.6,7.3,1,10.9,1.3c-4.5-1.6-8.8-3.8-12.2-7.2c-3.8-3.9-6.6-9.2-6.4-14.7
			c0.1-5.2,1.2-10.2,2.3-15.1c0.5-2.2,1-4.4,1.6-6.6c-6.3,5.4-17.6,7.4-32.2-16c0,0-3.9-8.7,6.8-19.6s5-13.6,13.7-20.5
			c8.7-6.8,17.1-3.3,17.1-3.3s17.6,4.5,5.4,33.7c0,0-3.7,12.8-5.4,18.2c-0.2,0.6-0.5,1.4-1,2.3c-1.2,7.5-3.5,14.7-4.2,22.3
			c-0.3,2.7-0.6,5.4,0,8c2.1,8.2,9.4,13.2,17.1,15.7c4.6,1.5,9.4,2.3,14.3,2.8h3.3c4.9-0.5,9.6-1.3,14.3-2.8
			c7.7-2.5,15-7.5,17.1-15.7c0.6-2.6,0.3-5.3,0-8c-0.8-8.8-3.8-17.2-4.7-26l0,0c-1.8-5.9-5-16.8-5-16.8
			c-12.2-29.1,5.4-33.7,5.4-33.7s8.5-3.5,17.1,3.3c8.7,6.8,2.9,9.5,13.7,20.5c10.7,10.9,6.8,19.6,6.8,19.6
			c-15.7,25.2-27.6,21-33.6,14.8c0.8,2.6,1.4,5.2,2,7.9c1.1,5,2.2,10,2.3,15.1c0.2,5.5-2.6,10.8-6.4,14.7c-3.4,3.4-7.7,5.7-12.2,7.2
			c3.7-0.3,7.3-0.7,10.9-1.3c14.4-2.2,28.9-6.2,41.6-13.4c12.4-7.3,22.1-19.2,27.4-32.5l1.8-4.7c0.5,1.2,1.4,3.2,2.2,5.1
			c0.2-0.4,0.4-0.8,0.6-1.2s1.2-2.5,1.4-2.9c0.2-0.4,0.5-1.4,0.7-1.8c2.7-7.2,3.2-15.1,1.7-22.6
			C311.1,133.4,309.4,129.4,307.9,125.9z M224.3,194.1c-1.8,4.4-6.5,9.6-11.3,9.6c-3.6,0.1-6.4-1.9-8.1-4.6
			c-1.7,2.7-4.5,4.7-8.1,4.6c-4.8,0-9.5-5.2-11.3-9.6c6.6,4,15.3,9.2,17.7-0.3c-11.4-2.6-13.2-9.4-13.2-9.4
			c-1.3-12.6,14.5-10.4,14.9-10.4s16.2-2.2,14.9,10.4c0,0-1.8,6.9-13.2,9.4C209,203.2,217.8,198.1,224.3,194.1z M275.3,8.6
			c17,4.8,33.8,24.4,33.7,43.5c0,9.6-3.4,16.1-6.7,20.2c0.5-0.5,1-0.9,1.5-1.4l0,0l0,0c4.8-4.8,7.5-11.3,7.8-18.2
			c0.1-4.2-0.8-8.3-2-12.4c-5.1-16-17-31.3-33.8-35.4c-13.5-3.8-19,4.4-21.3,14.8C256.8,14.4,262.9,5.1,275.3,8.6z"/>
		<path fill="#FFFFFF" d="M357.7,317.1c1-11.6,1.4-23.7,1.1-35.5c4,13.1,9.7,30.8,14.3,41.1C366.3,319.5,360.4,317.8,357.7,317.1z"
			/>
		<path fill="#FFFFFF" d="M178,123.2c-0.9-1.7-2.3-3.2-4-4.3c-5.5-3.5-12.8-1.9-16.3,3.6c-0.9,1.4-1.5,3-1.7,4.6
			c-0.8,1.8-2.5,4.8-5.6,6.2c0,0,4.3-0.4,7.7,2.4c0.9,1.2,1.9,2.3,3.2,3.1c1.9,1.2,4.1,1.9,6.3,1.9c0.9,0,1.7-0.1,2.6-0.3
			c3.1-0.7,5.7-2.5,7.4-5.2c1.1-1.8,1.7-3.8,1.8-5.8c0.5-1.3,1.6-3.1,4-4C183.4,125.4,180.4,125.6,178,123.2z M175.5,133.9
			c-2.8,4.4-8.6,5.7-13,2.9s-5.7-8.6-2.9-13c1.8-2.8,4.8-4.4,8-4.4c1.7,0,3.5,0.5,5.1,1.5c1.2,0.8,2.2,1.8,2.9,3
			c-0.4-0.4-0.9-0.8-1.4-1.2c-3.3-2.1-7.6-1.1-9.8,2.2c-0.2,0.3-0.3,0.5-0.4,0.8c1.2-0.3,2.4-0.2,3.5,0.5c2,1.3,2.6,4,1.3,6.1
			c-0.7,1-1.7,1.7-2.8,1.9c0.2,0.1,0.4,0.3,0.5,0.4c3.2,2,7.4,1.2,9.6-1.9C176,133.1,175.8,133.5,175.5,133.9z"/>
		<path fill="#FFFFFF" d="M254,127.1c-0.2-1.6-0.8-3.1-1.7-4.6c-3.5-5.5-10.8-7.1-16.3-3.6c-1.7,1.1-3.1,2.6-4,4.3
			c-2.5,2.4-5.4,2.2-5.4,2.2c2.4,1,3.5,2.8,4,4c0.1,2,0.7,4,1.8,5.8c1.7,2.7,4.3,4.5,7.4,5.2c0.9,0.2,1.7,0.3,2.6,0.3
			c2.2,0,4.4-0.6,6.3-1.9c1.3-0.8,2.4-1.9,3.3-3.1c3.3-2.8,7.7-2.4,7.7-2.4C256.5,131.9,254.8,128.9,254,127.1z M247.4,136.8
			c-4.4,2.8-10.2,1.5-13-2.9c-0.3-0.4-0.5-0.8-0.7-1.2c2.2,3.1,6.4,4,9.6,1.9c0.2-0.1,0.4-0.2,0.5-0.4c-1.1-0.2-2.1-0.9-2.8-1.9
			c-1.3-2-0.7-4.8,1.3-6.1c1.1-0.7,2.4-0.9,3.5-0.5c-0.1-0.3-0.3-0.6-0.5-0.8c-2.1-3.3-6.5-4.3-9.7-2.2c-0.5,0.3-1,0.7-1.4,1.2
			c0.7-1.2,1.7-2.2,2.9-3c1.6-1,3.3-1.5,5.1-1.5c3.1,0,6.2,1.5,8,4.4C253.1,128.2,251.8,134,247.4,136.8z"/>
		<path fill="#FFFFFF" d="M52.2,317.1c-2.7,0.7-8.6,2.4-15.4,5.6c4.6-10.3,10.3-27.9,14.3-41.1C50.8,293.4,51.1,305.5,52.2,317.1z"
			/>
		<path fill="#FFFFFF" d="M313.7,54.2c0,2.7-0.3,5-0.8,7.1c-3.3,14-16.6,16.5-17,16.6l0,0l0,0c0.5-0.3,3.4-2,6.4-5.6l0,0
			c3.3-4.1,6.6-10.6,6.7-20.2c0-19.1-16.7-38.7-33.7-43.5c-12.4-3.5-18.4,5.8-20.8,11.1l0,0c-0.9,1.9-1.2,3.3-1.2,3.3
			s-1.1,0.9-1.8,0.5c-1-0.5-1-3.4,4.7-14.8c2-4,4.9-6.1,8.4-6.9l0,0c9.4-2.1,22.2,5.6,28.7,10.1c2.5,1.7,4.1,3,4.1,3
			s0.7,0.8,1.9,2.3C303.5,23,313.5,38,313.7,54.2z"/>
		<path fill="#FFFFFF" d="M159.3,23.3c-0.5,0.9-2.1-0.2-2.1-0.2s-0.7-2.7-2.5-5.9c-3-5.2-8.9-11.5-19.5-8.5
			c-17,4.8-33.8,24.4-33.7,43.5c0,10.9,4.3,17.8,8,21.7c1.4,1.5,2.7,2.5,3.6,3.2c0.9,0.6,1.4,0.9,1.5,1c-0.5-0.1-15.1-2.8-17.5-18.8
			c-0.2-1.5-0.3-3.1-0.3-4.8c0.1-13.9,7.5-26.9,12.3-33.9c2.3-3.4,4.1-5.3,4.1-5.3s2.6-2.1,6.6-4.7C127,6,138.5-0.1,146.9,2.4
			c3,0.9,5.6,3,7.5,6.6C159.3,18.8,159.9,22.3,159.3,23.3z"/>
		<circle fill="#FFFFFF" cx="242.3" cy="128.9" r="11"/>
		<circle fill="#FFFFFF" cx="167.5" cy="128.9" r="11"/>
	</g>
	<g>
		<path fill="#8E8E8E" d="M294.7,29.6L294.7,29.6c-0.5-0.6-11.9-13.2-20.7-12.3c-2.7,0.3-4.9,1.8-6.5,4.5
			c-7.7,13.1-3.5,19.1-3.3,19.3c0,0,1.6-13.1,8.1-16c3.7-1.6,8.7,0.2,15,5.5s14,14.3,8.8,31l-0.5,1.5l1.4-0.8
			c0.2-0.1,3.9-2.2,5.2-7.6C303.9,48.1,301.3,39.6,294.7,29.6z"/>
		<path fill="#8E8E8E" d="M145.7,41.1c0.2-0.2,4.4-6.2-3.3-19.3c-1.6-2.7-3.8-4.2-6.5-4.5c-8.8-0.9-20.2,11.7-20.6,12.2l-0.1,0.1
			c-6.7,10.1-9.2,18.5-7.5,25.2c1.3,5.5,5,7.5,5.2,7.6l1.4,0.8l-0.5-1.5c-5.2-16.7,2.5-25.7,8.8-31c6.3-5.3,11.3-7.2,15-5.5
			C144.1,28,145.7,41.1,145.7,41.1z"/>
		<path fill="#8E8E8E" d="M256.1,126.7c-0.3-1.9-1-3.7-2-5.3c-4.2-6.5-12.8-8.4-19.3-4.3c-2,1.3-3.6,3-4.7,5
			c-2.5,2.4-5.8,3.5-5.8,3.5c2.4,1,3.5,2.7,4.1,4.1c0.1,2.4,0.9,4.7,2.2,6.8c2,3.2,5.1,5.3,8.8,6.1c1,0.2,2,0.3,3,0.3
			c2.7,0,5.3-0.8,7.5-2.2c1.5-0.9,2.8-2.2,3.8-3.6c3.5-2.9,8.1-2.5,8.1-2.5l3.9,0.4l-3.6-1.6C258.6,131.8,256.8,128.5,256.1,126.7z
			 M232.4,123.7L232.4,123.7l0.1-0.2c0.9-1.7,2.2-3,3.8-4.1c5.2-3.3,12.1-1.8,15.4,3.4c0.8,1.3,1.4,2.8,1.6,4.3v0.2
			c0.6,1.4,1.8,3.7,4,5.4c-1.6,0.2-3.9,0.8-5.9,2.5l-0.1,0.1c-0.8,1.2-1.9,2.2-3.1,2.9c-2.5,1.6-5.5,2.1-8.4,1.5s-5.4-2.4-7-4.9
			c-1.1-1.7-1.7-3.6-1.7-5.5v-0.1v-0.1c-0.4-1-1.2-2.3-2.6-3.4C229.7,125.5,231.1,124.9,232.4,123.7z"/>
		<path fill="#8E8E8E" d="M179.9,122.1c-1.1-2-2.8-3.8-4.7-5c-6.5-4.2-15.2-2.2-19.3,4.3c-1,1.6-1.7,3.4-2,5.3
			c-0.8,1.9-2.6,5.1-5.9,6.6l-3.5,1.6l3.8-0.4c0,0,4.6-0.4,8.1,2.5c1,1.4,2.3,2.7,3.8,3.6c2.3,1.4,4.9,2.2,7.5,2.2c1,0,2-0.1,3-0.3
			c3.6-0.8,6.8-3,8.8-6.1c1.3-2,2-4.4,2.2-6.8c0.6-1.4,1.8-3.1,4.1-4.1C185.8,125.5,182.4,124.5,179.9,122.1z M178.8,129.2v0.1v0.1
			c-0.1,1.9-0.7,3.8-1.7,5.5c-1.6,2.5-4.1,4.3-7,4.9c-2.9,0.6-5.9,0.1-8.4-1.5c-1.2-0.8-2.2-1.8-3.1-2.9l-0.1-0.1
			c-2-1.7-4.2-2.3-5.9-2.5c2.2-1.7,3.4-4,4-5.4v-0.2c0.2-1.5,0.8-3,1.6-4.3c1.6-2.5,4.1-4.3,7-4.9s5.9-0.1,8.4,1.5
			c1.6,1,2.9,2.4,3.8,4.1v0.1l0.1,0.1c1.3,1.3,2.7,1.8,3.8,2.1C180,126.8,179.2,128.1,178.8,129.2z"/>
	</g>
	<path fill="#231F20" d="M263.7,43.9c-1.7-3.9-1.3-8-0.7-12c0.3-2,0.7-4,1.3-6c5.2-15.4,16.4-9.3,26-2c6.4,5.1,11.5,12.4,12.9,20.6
		c1.1,6.2,0.7,13.5-4.3,17.9c-1.6,1.4-3.5,2.5-5.6,2.9c1.4-1.5,2.6-3,3.5-4.6c1.6-3.1,3.3-6.5,3.7-10.1c0.3-9.5-4.8-18.4-12.3-24.1
		c-11.8-8.6-18.8-11.3-22.2,5.8C265.4,36.3,265.3,40.1,263.7,43.9z M396.9,430.3l-3.6,6.7l-0.9-10.8c-2,5.2-4.9,11.1-8.2,13.8
		l-3.3,2.7v-6.4c-4.5,5.6-12.6,14.5-22,19.3c1.6,7,0.5,13.8-2.9,17.9c-2.4,2.8-5.6,4.1-9.3,3.7c-1.4,1.8-3.1,3-5,3.6
		c-3.9,1.1-8.3-0.7-12-4.7c-2.3,3.7-5.4,5.8-8.7,5.9c-0.1,0-0.1,0-0.2,0c-3.6,0-7-2.4-9.5-6.6c-3.5,3.8-7.6,5.5-11.3,4.6
		c-2.4-0.6-4.5-2.1-6-4.4c-1.6,0.8-3.3,1.1-4.9,0.9c-0.6,1.9-1.5,3.6-2.7,5c-2.4,2.8-5.6,4.1-9.3,3.7c-1.3,1.8-3.1,3-5,3.6
		c-3.9,1.1-8.3-0.7-12-4.7c-2.3,3.7-5.4,5.8-8.7,5.9c-0.1,0-0.1,0-0.2,0c-3.6,0-7-2.4-9.5-6.6c-3.5,3.8-7.6,5.5-11.3,4.6
		c-2.4-0.6-4.5-2.1-6-4.4c-1.9,0.9-3.8,1.1-5.6,0.7c-2.8-0.7-5-2.7-6.4-6c-0.4-1-0.8-2.2-1-3.3c-0.3-1.3-0.5-2.8-0.5-4.5
		c0-0.8,0-1.5,0-2.3h-11.3c0,0.8,0.1,1.5,0,2.3c0,1.7-0.2,3.2-0.5,4.5c-0.2,1.1-0.6,2.3-1,3.3c-1.4,3.3-3.7,5.3-6.5,6
		c-1.8,0.4-3.8,0.2-5.6-0.7c-1.5,2.4-3.6,3.9-6,4.4c-3.8,0.9-7.8-0.8-11.3-4.6c-2.5,4.2-5.9,6.6-9.5,6.6c-0.1,0-0.1,0-0.2,0
		c-3.3-0.1-6.4-2.2-8.7-5.9c-3.8,4-8.1,5.8-12,4.7c-2-0.5-3.7-1.8-5-3.6c-3.7,0.4-7-0.9-9.3-3.7c-1.2-1.4-2.1-3.1-2.7-5
		c-1.6,0.2-3.2-0.1-4.9-0.9c-1.5,2.4-3.6,3.9-6,4.4c-3.8,0.9-7.9-0.8-11.3-4.6c-2.5,4.2-5.9,6.6-9.5,6.6c-0.1,0-0.1,0-0.2,0
		c-3.3-0.1-6.4-2.2-8.7-5.9c-3.8,4-8.1,5.8-12,4.7c-2-0.5-3.7-1.8-5-3.6c-3.7,0.4-7-0.9-9.3-3.7c-3.5-4.1-4.5-10.9-2.9-17.9
		c-9.3-4.8-17.5-13.8-22-19.3v6.4l-3.3-2.7c-3.3-2.7-6.2-8.6-8.2-13.8L16.6,437l-3.6-6.7c-6.2-11.7-17.9-33.4-10.9-68.1
		c3.7-18.3,16.8-29.7,28.9-36.5l-0.2-0.1C38,312.9,50.7,268.4,52,264c0.8-8.5,1.9-16.7,3.5-24.1c5.1-24,35.3-74.3,39.6-81.3
		c0,0,0,0,0-0.1c-0.4-1.6-1.1-3.8-1.3-5.5l-0.2-1.4l-0.1-1.4c-0.6-6.1-0.1-12.3,1.8-18.2c-1.1,0.3-2.4,0.7-2.4,0.7l-3.2,1l0.7-3.4
		c3.6-17.4,13.4-32.8,24.4-46.5c0.7-0.8,1.3-1.6,2-2.4c-6.3-1.5-11.9-5.2-16-10.3c-4.2-5.2-6.3-11.7-6.8-18.3
		c-0.2-4.7,0.9-9.4,2.2-13.8c3.3-10.5,9.1-20.2,17.3-27.6c8-7.2,19.7-12.8,30.8-11.2c8.1,1.5,13.1,9.3,15,16.7
		c1.1,4.4,1.8,9.7,1.9,15C177.7,18.5,203,19,205,19.1c2-0.1,27.3-0.6,43.6,12.9c0.1-5.3,0.8-10.6,1.9-15c1.9-7.4,6.8-15.1,15-16.7
		c11.1-1.6,22.8,4,30.8,11.2c8.2,7.4,14,17.1,17.3,27.6c1.3,4.4,2.4,9.1,2.2,13.8c-0.4,6.6-2.6,13.1-6.8,18.3
		c-4.1,5-9.6,8.8-16,10.3c0.7,0.8,1.3,1.6,2,2.4c11,13.7,20.9,29,24.4,46.5l0.7,3.4l-3.2-1c0,0-1.2-0.4-2.4-0.7
		c1.8,5.9,2.4,12.1,1.8,18.2l-0.1,1.4L316,153c-0.2,1.6-0.8,3.9-1.3,5.5c0,0,0,0,0,0.1c4.3,7,34.6,57.3,39.6,81.3
		c1.6,7.5,2.7,15.6,3.5,24.1c1.2,4.3,14,48.9,21.2,61.6l-0.2,0.1c12.1,6.8,25.2,18.2,28.9,36.5C414.7,396.8,403.1,418.6,396.9,430.3
		z M357.7,317.1c2.7,0.7,8.6,2.4,15.4,5.6c-4.6-10.3-10.3-27.9-14.3-41.1C359.2,293.4,358.8,305.5,357.7,317.1z M95.4,127.8
		c2.4-0.7,5.1-1.5,6.7-1.9c-1.6,3.4-3.2,7.4-3.9,11.2c-1.5,7.5-1,15.5,1.7,22.6c0.2,0.4,0.5,1.4,0.7,1.8c0.2,0.4,1.2,2.4,1.4,2.9
		c0.2,0.4,0.4,0.8,0.6,1.2c0.8-1.9,1.6-3.8,2.2-5.1l1.8,4.7c5.3,13.3,15,25.3,27.4,32.5c12.7,7.2,27.2,11.2,41.6,13.4
		c3.6,0.6,7.3,1,10.9,1.3c-4.5-1.6-8.8-3.8-12.2-7.2c-3.8-3.9-6.6-9.2-6.4-14.7c0.1-5.2,1.2-10.2,2.3-15.1c1.6-6.6,3-13.1,6.7-18.9
		c-0.4,10-4,19.4-4.9,29.4c-0.3,2.7-0.6,5.4,0,8c2.1,8.2,9.4,13.2,17.1,15.7c4.6,1.5,9.4,2.3,14.3,2.8h3.3c4.9-0.5,9.6-1.3,14.3-2.8
		c7.7-2.5,15-7.5,17.1-15.7c0.6-2.6,0.3-5.3,0-8c-0.9-9.9-4.6-19.3-4.9-29.4c3.6,5.8,5.1,12.4,6.7,18.9c1.1,5,2.2,10,2.3,15.1
		c0.2,5.5-2.6,10.8-6.4,14.7c-3.4,3.4-7.7,5.7-12.2,7.2c3.7-0.3,7.3-0.7,10.9-1.3c14.4-2.2,28.9-6.2,41.6-13.4
		c12.4-7.3,22.1-19.2,27.4-32.5l1.8-4.7c0.5,1.2,1.4,3.2,2.2,5.1c0.2-0.4,0.4-0.8,0.6-1.2s1.2-2.5,1.4-2.9c0.2-0.4,0.5-1.4,0.7-1.8
		c2.7-7.2,3.2-15.1,1.7-22.6c-0.7-3.7-2.3-7.7-3.9-11.2c1.5,0.4,4.3,1.2,6.7,1.9c-3.1-9.6-7.7-18.7-13-27.3c-3-4.8-6.3-9.5-9.6-14.2
		c-3.4-4.7-7.3-8.9-9.6-14.4c3,1.5,5.5,3.7,7.7,6.1c2.9-0.4,5.8-1.4,8.4-2.9c8.2-4.5,12.9-13.2,13.4-22.4c0.1-4.2-0.8-8.3-2-12.4
		c-5.1-16-17-31.3-33.8-35.4C257.6-0.3,254,16.6,253,30.8c-0.4,6.1-0.2,12.3-1.3,18.5c-1.6-3.4-2.5-7.4-2.9-11.6
		c-15-15.4-43.4-14.5-43.7-14.5l-0.1-1.5l-0.1,1.5c-0.3,0-28.7-0.9-43.7,14.5c-0.4,4.2-1.3,8.2-2.9,11.6c-1.1-6.1-1-12.4-1.3-18.5
		c-1-14.2-4.6-31-22.9-25.9c-16.8,4.1-28.8,19.4-33.8,35.4c-1.2,4.1-2.2,8.2-2,12.4c0.5,9.2,5.2,17.8,13.4,22.4
		c2.6,1.5,5.5,2.5,8.4,2.9c2.2-2.4,4.7-4.5,7.7-6.1c-2.4,5.5-6.2,9.7-9.6,14.4c-3.4,4.6-6.6,9.3-9.6,14.2
		C103.1,109.1,98.5,118.2,95.4,127.8z M36.8,322.7c6.8-3.2,12.7-4.9,15.4-5.6c-1-11.6-1.4-23.7-1.1-35.5
		C47.1,294.8,41.4,312.4,36.8,322.7z M60.3,442.3c2.4-0.7,5-0.3,7.7,1.2c3.8-4.3,8.4-6.2,12.4-5.1c0.5,0.1,1,0.3,1.5,0.6
		c1.9-2.4,4.2-3.9,6.6-4.3c-14.2-26.7-24.1-58.2-30-79.6c-2.7-10.1-4.7-21.6-6-33.8c-8.4,2.3-40.6,13-46.5,41.8
		C0.3,391.5,7.6,411,13.6,423l1.4-17.8l3,10.7c1,3.5,3.7,11.5,6.8,16.9V424l3.7,5.3c0.1,0.2,10.8,15.6,23.5,22.5
		c0.1-0.3,0.2-0.6,0.3-0.9C54.5,446.1,57.1,443.2,60.3,442.3z M113.2,469.5c-8.3-8.2-15.8-18.9-22.5-30.8c-0.2,0-0.5-0.1-0.7-0.1
		h-0.1c-1.8,0-3.4,1.2-4.5,2.5c-0.5,0.6-0.8,1.3-1,2l-1.6,6.1l-2.3-4.5c-1-2-3.4-2.8-5.3-1.9c-1.3,0.6-2.6,1.6-3.9,3
		c-0.4,0.4-0.7,0.9-0.9,1.5l-2.4,6l-1.3-4.4c-0.4-1.3-1.4-2.3-2.7-2.7c-0.9-0.2-1.8-0.3-2.6,0c-2,0.6-3.7,2.7-5.2,6.3
		c-2.9,7-2.5,14.7,0.8,18.6c0.3,0.3,0.6,0.6,0.9,0.9c1.6,1.3,4,0.8,5-1l3.5-5.9l0.6,9c0.1,1.4,1,2.5,2.4,2.9l0,0
		c2.2,0.6,4.8-0.4,7.2-2.8c1.4-1.3,2.4-2.9,3-4.7l2.2-6l1,7.5c0.2,1.6,0.8,3,1.8,4.3c1.4,1.8,3,2.7,4.6,2.8h0.1
		c7.7,0,8.9-14.2,8.9-14.2l1.8,5.6c0.5,1.6,1.4,3.1,2.7,4.3c2.2,2,4.5,2.9,6.5,2.5c0.5-0.1,1-0.3,1.4-0.6c1.4-0.9,2.3-2.5,2.4-4.2
		L113.2,469.5z M194.6,463.6c-0.8-3.2-2.1-6.2-3.8-8.6c-2.4-3.5-5.3-5.2-7.6-4.7c-0.9,0.2-1.8,0.8-2.5,1.8l-1.4,1.8l-1.6-1.7
		c-0.6-0.6-1.2-1.1-1.8-1.6c-0.5-0.3-0.9-0.6-1.3-0.8c-1.5-0.9-2.9-1.1-4.2-0.8l0,0c-1,0.2-1.8,0.9-2,1.9l-1.8,5.8l-2.2-6.7
		c-0.3-0.8-0.7-1.5-1.3-2.1c-0.9-0.8-2-1.4-3.3-1.4h-0.1c-1.8,0-3.4,1.2-4.5,2.5c-0.5,0.6-0.8,1.3-1,2l-1.6,6.1l-2.3-4.5
		c-1-2-3.4-2.8-5.3-1.9c-1.3,0.6-2.6,1.6-3.9,3c-0.4,0.4-0.7,0.9-0.9,1.5l-2.4,6l-1.3-4.4c-0.4-1.3-1.4-2.3-2.7-2.7
		c-0.9-0.2-1.8-0.3-2.6,0c-2,0.6-3.7,2.7-5.2,6.3c-2.9,7-2.5,14.7,0.8,18.6c0.3,0.3,0.6,0.6,0.9,0.9c1.6,1.3,4,0.8,5-1l3.5-5.9
		l0.6,9c0.1,1.4,1,2.5,2.4,2.9l0,0c2.2,0.6,4.8-0.4,7.2-2.8c1.4-1.3,2.4-2.9,3-4.7l2.2-6l1,7.5c0.2,1.6,0.8,3,1.8,4.3
		c1.4,1.8,3,2.7,4.6,2.8h0.1c7.7,0,8.9-14.2,8.9-14.2l1.8,5.6c0.5,1.6,1.4,3.1,2.7,4.3c2.2,2,4.5,2.9,6.5,2.5c0.5-0.1,1-0.3,1.4-0.6
		c1.4-0.9,2.3-2.5,2.4-4.2l0.5-6.6l2.8,5.4c0.7,1.3,2,2.3,3.5,2.3c0.3,0,0.6,0,0.9-0.1c1.9-0.4,3-2.2,3.7-3.7
		c0.3-0.8,0.6-1.6,0.8-2.6c0.3-1.1,0.4-2.4,0.4-3.7C195.4,468.2,195.1,465.9,194.6,463.6z M284,460.3c-1.5-3.6-3.2-5.7-5.2-6.3
		c-0.9-0.3-1.8-0.2-2.6,0c-1.3,0.3-2.3,1.4-2.7,2.7l-1.3,4.4l-2.4-6c-0.2-0.5-0.5-1.1-0.9-1.5c-1.3-1.4-2.6-2.4-3.9-3
		c-2-0.9-4.3-0.1-5.3,1.9l-2.3,4.5l-1.6-6.1c-0.2-0.7-0.5-1.4-1-2c-1.1-1.3-2.7-2.5-4.5-2.5h-0.1c-1.3,0-2.4,0.6-3.3,1.4
		c-0.6,0.5-1.1,1.3-1.3,2.1l-2.2,6.7l-1.8-5.8c-0.3-1-1.1-1.7-2-1.9l0,0c-1.3-0.3-2.7,0-4.2,0.8c-0.4,0.2-0.8,0.5-1.3,0.8
		c-0.6,0.4-1.2,1-1.8,1.6l-1.6,1.7l-1.4-1.8c-0.7-0.9-1.6-1.5-2.5-1.8c-2.3-0.5-5.2,1.2-7.6,4.7c-1.7,2.4-3,5.4-3.8,8.6
		c-0.6,2.3-0.8,4.6-0.8,6.8c0,1.4,0.2,2.7,0.4,3.7c0.2,0.9,0.5,1.8,0.8,2.6c0.6,1.4,1.8,3.2,3.7,3.7c0.3,0.1,0.6,0.1,0.9,0.1
		c1.5,0,2.8-1,3.5-2.3l2.8-5.4l0.5,6.6c0.1,1.7,1,3.3,2.4,4.2c0.4,0.3,0.9,0.5,1.4,0.6c2,0.5,4.3-0.4,6.5-2.5
		c1.3-1.2,2.2-2.7,2.7-4.3l1.8-5.6c0,0,1.2,14.2,8.9,14.2c0,0,0,0,0.1,0c1.6,0,3.2-1,4.6-2.8c1-1.2,1.6-2.7,1.8-4.3l1-7.5l2.2,6
		c0.6,1.8,1.7,3.4,3,4.7c2.5,2.3,5.1,3.4,7.2,2.8l0,0c1.3-0.4,2.3-1.5,2.4-2.9l0.6-9l3.5,5.9c1,1.8,3.4,2.3,5,1
		c0.3-0.3,0.6-0.6,0.9-0.9C286.5,475,286.8,467.4,284,460.3z M347.5,354c6.8-25,9-59.4,6.4-89.2l0,0l0,0c-0.8-8.5-1.9-16.6-3.5-24.1
		c-4.4-21.1-29.9-64.7-37.5-77.3c-0.4,0.7-1.2,2.5-1.4,2.9c-0.7,1.5-2,3.4-2.8,4.8l-2,3.2c-0.4-0.9-0.9-2.1-1.5-3.4
		c-5.9,12.5-15.3,23.3-27.3,30.3c-13.2,7.5-28.1,11.6-43,13.9c-9.9,1.5-20,2-30,1.8c-10,0.2-20.1-0.3-30-1.8
		c-15-2.3-29.8-6.4-43-13.9c-11.9-7-21.3-17.8-27.3-30.3c-0.6,1.3-1.1,2.5-1.5,3.4l-2-3.2c-0.8-1.4-2.2-3.3-2.8-4.8
		c-0.2-0.4-1-2.1-1.4-2.9c-7.6,12.6-33,56.2-37.5,77.3c-0.8,3.7-1.5,7.6-2,11.6c-0.6,4-1.1,8.2-1.4,12.4l0,0
		c-2.7,29.8-0.4,64.2,6.4,89.2c9.1,33.4,28.4,91.6,57.5,116.3c0-3.6,0.7-7.6,2.2-11.4c1.9-4.8,4.6-7.7,7.8-8.6
		c2.4-0.7,5-0.3,7.7,1.2c3.8-4.3,8.4-6.2,12.4-5.1c0.5,0.1,1,0.3,1.5,0.6c2.3-2.9,5.2-4.5,8.2-4.4c2.6,0.1,5,1.3,7.1,3.7
		c0.8-0.5,1.7-0.9,2.6-1.1c2.3-0.5,4.8-0.1,7.1,1.2c0.5,0.3,1.1,0.6,1.7,1.1c0.3,0.2,0.5,0.4,0.8,0.6c1-0.8,2.1-1.3,3.3-1.6
		c0.1,0,0.3-0.1,0.4-0.1c-2.3-19-10.5-37.1-22.2-52.1c2.5,0.9,7.6,2.6,11.5,4c-4.5-11.4-11.9-21.6-19-31.5
		c-5-6.7-10.1-13.1-14.4-20.3c9.2,6.5,16.2,15.5,22.9,24.4c6.5,9.1,12.9,18.9,15.4,30.1l0.9,3.4c-1.3-0.4-4.6-1.6-7.6-2.6
		c1.4,2.2,2.7,4.5,4,6.8c6.4,11.9,10.8,24.8,12.3,38.3c2.7,0.8,5.4,2.9,7.6,6.1c2,2.8,3.5,6.3,4.4,10c0.1,0.5,0.2,1.1,0.3,1.6h12.3
		c0.1-0.5,0.2-1.1,0.3-1.6c0.9-3.7,2.4-7.1,4.4-10c2.2-3.2,4.9-5.3,7.6-6.1c1.5-13.4,5.9-26.4,12.3-38.3c1.3-2.3,2.6-4.6,4-6.8
		c-3,1-6.3,2.2-7.6,2.6l0.9-3.4c2.5-11.1,8.9-20.9,15.4-30.1c6.7-8.9,13.7-17.9,22.9-24.4c-4.2,7.2-9.4,13.7-14.4,20.3
		c-7.1,9.9-14.5,20.2-19,31.5c3.9-1.4,9-3.1,11.5-4c-11.7,15-19.9,33.1-22.2,52.1c0.1,0,0.3,0,0.4,0.1c1.2,0.3,2.3,0.8,3.3,1.6
		c0.3-0.2,0.5-0.4,0.8-0.6c0.7-0.5,1.2-0.8,1.7-1.1c2.3-1.3,4.8-1.8,7.1-1.2c0.9,0.2,1.8,0.6,2.6,1.1c2.1-2.4,4.5-3.6,7.1-3.7
		c3-0.1,5.8,1.5,8.2,4.4c0.5-0.2,1-0.4,1.5-0.6c4-1.1,8.6,0.8,12.4,5.1c2.7-1.5,5.3-1.9,7.7-1.2c3.2,0.9,5.8,3.8,7.8,8.6
		c1.5,3.8,2.3,7.7,2.2,11.4C319.1,445.6,338.4,387.4,347.5,354z M353.6,452.4c-1.4-3.6-3.2-5.7-5.2-6.3c-0.9-0.3-1.8-0.2-2.6,0
		c-1.3,0.3-2.3,1.4-2.7,2.7l-1.3,4.4l-2.4-6c-0.2-0.5-0.5-1.1-0.9-1.5c-1.3-1.4-2.6-2.4-3.9-3c-2-0.9-4.3-0.1-5.3,1.9l-2.3,4.5
		l-1.6-6.1c-0.2-0.7-0.5-1.4-1-2c-1.1-1.3-2.7-2.5-4.5-2.5h-0.1c-0.2,0-0.5,0-0.7,0.1c-6.6,11.9-14.1,22.6-22.5,30.8l0.2,2
		c0.1,1.7,1,3.3,2.4,4.2c0.4,0.3,0.9,0.5,1.4,0.6c2,0.5,4.3-0.4,6.5-2.5c1.2-1.2,2.2-2.7,2.7-4.3l1.8-5.6c0,0,1.2,14.2,8.9,14.2h0.1
		c1.6,0,3.2-1,4.6-2.8c1-1.2,1.6-2.7,1.8-4.3l1-7.5l2.2,6c0.6,1.8,1.6,3.4,3,4.7c2.5,2.3,5.1,3.4,7.2,2.8l0,0
		c1.3-0.4,2.3-1.5,2.4-2.9l0.6-9l3.5,5.9c1,1.8,3.4,2.3,5,1c0.3-0.3,0.6-0.6,0.9-0.9C356.2,467.1,356.5,459.4,353.6,452.4z
		 M403.8,363c-5.8-28.8-38.1-39.5-46.5-41.8c-1.3,12.2-3.3,23.7-6,33.8c-5.8,21.4-15.8,53-30,79.6c2.4,0.4,4.7,1.9,6.6,4.3
		c0.5-0.2,1-0.4,1.5-0.6c4-1.1,8.6,0.8,12.4,5.1c2.7-1.5,5.3-1.9,7.7-1.2c3.2,0.9,5.8,3.8,7.8,8.6c0.1,0.3,0.2,0.6,0.3,0.9
		c12.7-6.9,23.4-22.4,23.5-22.5l3.7-5.3v8.8c3.1-5.4,5.8-13.4,6.8-16.9l3-10.7l1.4,17.8C402.2,410.9,409.6,391.4,403.8,363z
		 M143.8,32.4c0.7,3.9,0.8,7.7,2.3,11.5c1.7-3.9,1.3-8,0.7-12c-0.3-2-0.7-4-1.4-6c-5.2-15.4-16.4-9.3-26-2
		c-6.4,5.1-11.5,12.4-12.9,20.6c-1.1,6.2-0.7,13.5,4.3,17.9c1.6,1.4,3.5,2.5,5.6,2.9c-1.4-1.5-2.6-3-3.5-4.6
		c-1.7-3.1-3.3-6.5-3.7-10.1c-0.3-9.5,4.8-18.4,12.3-24.1C133.5,17.9,140.4,15.2,143.8,32.4z M150.3,133.3c3.1-1.4,4.8-4.4,5.6-6.2
		c0.2-1.6,0.8-3.1,1.7-4.6c3.5-5.5,10.8-7.1,16.3-3.6c1.7,1.1,3.1,2.6,4,4.3c2.5,2.4,5.4,2.2,5.4,2.2c-2.4,1-3.5,2.8-4,4
		c-0.1,2-0.7,4-1.8,5.8c-1.7,2.7-4.3,4.5-7.4,5.2c-0.9,0.2-1.7,0.3-2.6,0.3c-2.2,0-4.4-0.6-6.3-1.9c-1.3-0.8-2.4-1.9-3.2-3.1
		C154.6,132.9,150.3,133.3,150.3,133.3z M162.5,136.8c4.4,2.8,10.2,1.5,13-2.9c0.3-0.4,0.5-0.8,0.7-1.2c-2.2,3.1-6.4,4-9.6,1.9
		c-0.2-0.1-0.4-0.2-0.5-0.4c1.1-0.2,2.1-0.9,2.8-1.9c1.3-2,0.7-4.8-1.3-6.1c-1.1-0.7-2.4-0.9-3.5-0.5c0.1-0.3,0.3-0.6,0.4-0.8
		c2.1-3.3,6.5-4.3,9.8-2.2c0.5,0.3,1,0.7,1.4,1.2c-0.7-1.2-1.7-2.2-2.9-3c-1.6-1-3.3-1.5-5.1-1.5c-3.1,0-6.2,1.5-8,4.4
		C156.8,128.2,158.1,134,162.5,136.8z M185.6,194.1c1.8,4.4,6.5,9.6,11.3,9.6c3.6,0.1,6.4-1.9,8.1-4.6c1.7,2.7,4.5,4.7,8.1,4.6
		c4.8,0,9.5-5.2,11.3-9.6c-6.6,4-15.3,9.2-17.7-0.3c11.4-2.6,13.2-9.4,13.2-9.4c1.3-12.6-14.5-10.4-14.9-10.4s-16.2-2.2-14.9,10.4
		c0,0,1.8,6.9,13.2,9.4C200.9,203.2,192.1,198.1,185.6,194.1z M226.5,125.4c0,0,2.9,0.2,5.4-2.2c0.9-1.7,2.3-3.2,4-4.3
		c5.5-3.5,12.8-1.9,16.3,3.6c0.9,1.4,1.5,3,1.7,4.6c0.8,1.8,2.5,4.8,5.6,6.2c0,0-4.3-0.4-7.7,2.4c-0.9,1.2-1.9,2.3-3.3,3.1
		c-1.9,1.2-4.1,1.9-6.3,1.9c-0.9,0-1.7-0.1-2.6-0.3c-3.1-0.7-5.7-2.5-7.4-5.2c-1.1-1.8-1.7-3.8-1.8-5.8
		C230,128.2,228.9,126.3,226.5,125.4z M233.7,132.7c0.2,0.4,0.4,0.8,0.7,1.2c2.8,4.4,8.6,5.7,13,2.9s5.7-8.6,2.9-13
		c-1.8-2.8-4.8-4.4-8-4.4c-1.7,0-3.5,0.5-5.1,1.5c-1.2,0.8-2.2,1.8-2.9,3c0.4-0.4,0.9-0.8,1.4-1.2c3.3-2.1,7.6-1.1,9.7,2.2
		c0.2,0.3,0.3,0.5,0.5,0.8c-1.2-0.3-2.4-0.2-3.5,0.5c-2,1.3-2.7,4-1.3,6.1c0.7,1,1.7,1.7,2.8,1.9c-0.2,0.1-0.4,0.3-0.5,0.4
		C240.1,136.7,235.9,135.8,233.7,132.7z M388.5,340.6c-4.2-4.1-9.3-8-15.3-8.6c2.3,1.6,4.7,3.4,6.8,5.2
		c11.5,8.8,17.6,22.7,20.2,36.7c0.6,3.9,1.2,7.7,1.9,11.6c0.2,1.4,0.5,2.9,0.9,4.3c1.5-5.7,1.4-11.7,0.5-17.5
		C401.8,360.6,397,348.9,388.5,340.6z M349,278.4c0.3,3.2,0.4,6.5,0.7,9.7c0.3,3.2,0.7,6.5,1.6,9.7c1.4-5.6,1.5-11.4,1.3-17.1
		c-0.3-13.9-1.6-27.9-4.9-41.4c-1.6-6.3-3.2-13.2-7.5-18.2c0.3,3.3,0.9,6.5,1.5,9.7c0.6,2.7,1.5,6.7,2.1,9.4
		c2,10.2,3.4,20.7,4.5,31.1C348.4,272.8,348.8,276.7,349,278.4z M309.7,433.3c-3.3,5.9-6.8,11.8-10.4,17.6c-2.3,3.5-4.4,6.9-5.8,11
		c4.6-3.3,7.8-7.9,11-12.5c6.4-9,12-18.6,16.7-28.6c2.3-5.1,4.9-10.2,5-15.9c-2.9,3.1-4.9,6.7-6.7,10.5
		C316.3,421.4,313.1,427.4,309.7,433.3z M6.9,372.3C6,378.1,6,384,7.5,389.8c0.4-1.4,0.7-2.9,0.9-4.3c0.7-3.9,1.3-7.7,1.9-11.6
		c2.6-14,8.7-27.9,20.2-36.7c2.1-1.8,4.6-3.6,6.8-5.2c-6,0.6-11.1,4.4-15.3,8.6C13.4,348.9,8.6,360.6,6.9,372.3z M57.8,288
		c0.2,3.3,0.5,6.5,1.3,9.8c0.9-3.2,1.3-6.5,1.6-9.7c0.4-3.2,0.5-6.5,0.7-9.7c0.2-1.6,0.5-5.6,0.7-7.2c1.1-10.3,2.5-20.9,4.5-31.1
		c0.5-2.7,1.5-6.8,2.1-9.4c0.7-3.2,1.2-6.4,1.5-9.7c-4.3,5.1-5.9,11.9-7.5,18.2C58.9,255.1,57.6,271.7,57.8,288z M100.7,433.3
		c-3.4-5.9-6.6-11.9-9.7-18c-1.9-3.7-3.9-7.3-6.7-10.5c0.1,5.7,2.7,10.8,5,15.9c4.7,10,10.3,19.6,16.7,28.6c3.2,4.6,6.4,9.1,11,12.5
		c-1.5-4-3.6-7.5-5.8-11C107.5,445.2,104.1,439.3,100.7,433.3z"/>
</g>
</svg>
