<?xml version="1.0" encoding="utf-8"?>
<!-- Generator: Adobe Illustrator 28.3.0, SVG Export Plug-In . SVG Version: 6.00 Build 0)  -->
<svg version="1.1" id="penguin_00000034059424667386264150000011076772005608997291_"
	 xmlns="http://www.w3.org/2000/svg" xmlns:xlink="http://www.w3.org/1999/xlink" x="0px" y="0px" viewBox="0 0 292.7 490"
	 style="enable-background:new 0 0 292.7 490;" xml:space="preserve">
<style type="text/css">
	.st0{fill:#4C4C4C;}
	.st1{fill:#F4463D;}
	.st2{fill:#FCBB29;}
	.st3{fill:#FFFFFF;}
	.st4{fill:#231F20;}
</style>
<g id="penguin">
	<g>
		<path class="st0" d="M213.3,15.7l0.5-0.2l-0.4-0.4c-10.7-10.9-35.1-12.1-48-10.4c-28.8,3.2-36.1,23.9-43.9,45.9
			c-2.4,6.7-4.8,13.6-7.9,20.1c-3.1,6.5-6.5,11.6-10.4,15.7c-20.2,17.5-36.6,39.3-48.5,65c-10.5,22.7-18,49.1-22.1,78.4
			c-7.5,52.9-2,107,3.4,159.4l0.5,4.4c0.1,0.9,0.1,1.9,0.2,2.8c0.3,3.4,0.5,6.9-0.1,10.3c-5,25.7-12.2,52-30.9,69.7l-0.4,0.4
			l0.5,0.3c0.3,0.2,0.6,0.3,0.8,0.4c2.4,1.1,4.8,1.5,7.2,1.5c11.7,0,22-11.7,29.9-20.6c1.1-1.2,2.1-2.3,3-3.4
			c-4.2,9-10.8,17.2-17.9,22.2l-0.9,0.6l1.1,0.1c5.6,0.3,17-2,30.4-21.7C67.7,444,76,437.6,84,437.2c0.6,0,1.2,0,1.9,0l0.9,0.1
			l-0.6-0.7c-2.7-3.2-5.2-6.6-7.1-9.9c0.7,0.7,1.4,1.4,2.1,2.1c3.4,3.3,7.3,7.1,11.5,10.7c1.3,0.8,2.2,1.6,2.6,2.1l0,0l0.3,0.3
			c13.4,10.5,23.9,12.6,31.9,6.4c0.3-0.3,0.6-0.5,0.9-0.8c0.1-0.1,0.3-0.3,0.4-0.4c0.1-0.1,0.2-0.2,0.3-0.4c0.1-0.1,0.1-0.1,0.2-0.2
			c0.1-0.1,0.2-0.3,0.4-0.4c0.1-0.1,0.2-0.3,0.4-0.4c0.5-0.6,0.9-1.2,1.3-1.9c0.1-0.2,0.3-0.5,0.4-0.7c0,0,0-0.1,0.1-0.1
			c0.1-0.2,0.2-0.5,0.4-0.8c0,0,0,0,0-0.1c-17.8-7.7-28-32.7-35.7-57.5c-8.8-28.4-5.8-50.2-6-73.9c-0.2-21.8-0.9-47.7-1.3-63
			c0,0,0,0,0,0c-0.4-2.1-0.9-4.3-1.2-6.4c-0.1-0.5-0.2-1.1-0.3-1.6c-0.1-0.5-0.2-1-0.2-1.5c-0.1-0.7-0.2-1.4-0.3-2.1
			c0-0.1,0-0.2,0-0.3c-0.1-0.6-0.2-1.2-0.2-1.9c0-0.1,0-0.3,0-0.4c-0.1-0.8-0.2-1.5-0.2-2.3c-0.1-0.8-0.1-1.6-0.2-2.4
			c-1.4-14.2,1.9-27.1,9-35.9c-1.6,3.5-2.8,6.7-3.7,9.8c-5.5,19.8-0.7,39.5,4,58.6c2.6,10.8,5.3,22,6.2,33.1
			c0.6,6.5,0.3,13.4-0.9,20.4c-1.9,14.8-3.5,30.6-0.3,45.9c0,0.1,1.6,7,4,8.2c0.5,0.2,0.9,0.2,1.4,0c1.1-0.7,2.4-1.8,4-3.4
			c20.8-23.9,31.5-58.9,28.8-93.6c-0.4-4.1-0.9-8.1-1.5-11.5c-5.7-27.3-8.1-49.5-7.5-70c0.4-14.5,1.4-31.1,7-46.3
			c-2.3,15.9-4.3,32.9-4.2,49.7c0,1.9,0,3.7,0,5.6c1.3-4.1,3.9-10.8,9.2-21.2c10.6-21.1,23.3-20.2,25.2-54
			c1.4-25.5,16.9-36.5,21.6-39.2c0,0-0.1-0.1-0.1-0.1c-0.2-0.3-0.4-0.6-0.5-0.8c-0.3-0.6-0.6-1.1-0.9-1.7c0-0.1-0.1-0.2-0.1-0.2
			c-0.1-0.3-0.3-0.6-0.4-0.9c0,0,0-0.1-0.1-0.1c-0.1-0.3-0.2-0.6-0.3-0.9c-0.2-0.4-0.3-0.9-0.4-1.4c-0.1-0.2-0.1-0.4-0.2-0.6
			c-0.1-0.3-0.2-0.7-0.2-1c-1.1-5.5,1.5-10.7,6.8-13.5l3.5-2.1l1.7-1.1c3.6-2.3,6.6-4.7,9.3-7.5c1.4-1.5,2.7-2.8,4-3.9l0.8-0.7
			l-1.1,0.1c-3,0.2-6.9-0.4-8.9-4.3c-1.9-4-0.2-7.5,5.1-10.7l0.4-0.2l-0.3-0.4c-2.4-2.9-3.2-5.7-2.6-8.3
			C205.1,20.9,208.3,17.9,213.3,15.7z M23.1,460.7c-0.1,0.1-0.2,0.2-0.3,0.3c0.2-0.4,0.5-0.9,0.8-1.3l0.4-0.6
			c6.7-12.6,11.6-26.9,15.6-46C39.4,430.4,33.2,448.8,23.1,460.7z M72.4,134.8L72.4,134.8c-0.4,0.8-2.4,4.4-3.8,6.9l-1.3,2.3
			c-0.8,1.5-1.6,3.1-2.3,4.6c-1.1,2.2-2.2,4.4-3.3,6.6c-4.7,10-8.4,19.1-11.2,27.2c-2.1,5.7-3.8,11.5-5.6,17.2
			c-1.1,3.8-2.3,7.6-3.6,11.4c0.5-4.4,1.2-8.8,2.2-13.1c5.8-24.4,15.9-47.9,30-69.9C80.5,117.6,88,106.6,97.9,98
			C89.5,108.9,80.1,121.4,72.4,134.8z M133.7,279.4c0.1-0.4,0.1-0.9,0.2-1.3c0.9,18.3-2.5,44.1-11.2,59.6c-1.2,2.1-2.4,3.9-3.6,5.4
			C128,323,130.9,300.9,133.7,279.4z M184.3,27.3L184.3,27.3l0,0.2c0.1,1.6-0.3,3.2-1.2,4.6c-1.1,1.9-2.9,3.1-5,3.6
			c-2,0.5-4.3,0.2-6.1-1c-1.1-0.7-2-1.6-2.7-2.7l-0.1-0.1l-0.1,0c-1.3-0.8-2.6-1.1-3.5-1.2c1-0.7,1.8-1.8,2.4-3.1l0-0.2
			c0.1-1.4,0.5-2.7,1.2-3.9c1.1-1.8,2.9-3.1,5-3.7c2.1-0.5,4.3-0.2,6.1,1c1.1,0.7,2.1,1.7,2.8,2.8l0.1,0.1l3,1.4
			C185.4,25.8,184.7,26.4,184.3,27.3z"/>
		<path class="st0" d="M213.3,15.7l0.5-0.2l-0.4-0.4c-10.7-10.9-35.1-12.1-48-10.4C152.6,6.1,144,11,137.8,17.8
			c3.3-2.4,7.2-2.5,8.8-2.1c4.4,1.1,6,6.4,6.1,10.8c0.1,5.1-0.9,10.2-1.3,15.4c-0.3,5.1,0,10.5,2.7,15c2.9,4.9,8.1,8,13.4,10.3
			c5.2,2.4,10.8,4.2,15.5,7.6c0.7,0.5,1.8,1.3,2.7,2.2c-1.1-5.5,1.5-10.7,6.8-13.5l3.5-2.1l1.7-1.1c3.6-2.3,6.6-4.7,9.3-7.5
			c1.4-1.5,2.7-2.8,4-3.9l0.8-0.7l-1.1,0.1c-3,0.2-6.9-0.4-8.9-4.3c-1.9-4-0.2-7.5,5.1-10.7l0.4-0.2l-0.3-0.4
			c-2.4-2.9-3.9-3-3.2-5.7C204.5,23.6,209.2,19.4,213.3,15.7z M184.3,27.3L184.3,27.3l0,0.2c0.1,1.6-0.3,3.2-1.2,4.6
			c-1.1,1.9-2.9,3.1-5,3.6c-2,0.5-4.3,0.2-6.1-1c-1.1-0.7-2-1.6-2.7-2.7l-0.1-0.1l-0.1,0c-1.3-0.8-2.6-1.1-3.5-1.2
			c1-0.7,1.8-1.8,2.4-3.1l0-0.2c0.1-1.4,0.5-2.7,1.2-3.9c1.1-1.8,2.9-3.1,5-3.7c2.1-0.5,4.3-0.2,6.1,1c1.1,0.7,2.1,1.7,2.8,2.8
			l0.1,0.1l3,1.4C185.4,25.8,184.7,26.4,184.3,27.3z"/>
	</g>
	<path class="st1" d="M251.2,28.1c-13.2,1-27,3.2-40.8,6.6l-0.1,0c-1.6,0.8-3.5,2-4.9,3.4c-0.5,0.6-1,1.1-1.2,2
		c-0.1,1.7,0.4,3,1.6,3.8c1.1,0.8,2.5,1.1,4,1.1c1.6,0,3.3-0.4,4.7-0.9c1.3-0.5,2.5-1,3.8-1.6c2.8-1.2,5.7-2.4,8.5-3.4
		c12.1-4.4,28-9.6,43.2-10.6l0-0.8C263.6,27.6,257.2,27.7,251.2,28.1z"/>
	<g>
		<path class="st2" d="M185.9,78.1c-1.8-2.1-5-3.8-7.4-4.6c-3.2-1.1-6.7-1.2-10-1.9c-10.5-2.3-18.7-6.8-26.1-14.4
			c-4.8-4.9-9.7-13.7-10.6-20.4c-0.5-4.4,0-9.5,1.9-13.7c1.2-1.9,2.6-3.7,4.1-5.3c3.3-2.4,7.2-2.5,8.8-2.1c4.4,1.1,6,6.4,6.1,10.8
			c0.1,5.1-0.9,10.2-1.3,15.4c-0.3,5.1,0,10.5,2.7,15c2.9,4.9,8.1,8,13.4,10.3c5.2,2.4,10.8,4.2,15.5,7.6c0.7,0.5,1.8,1.3,2.7,2.2
			c0,0,0,0,0,0C185.7,77.3,185.8,77.7,185.9,78.1z"/>
		<path class="st2" d="M202.5,117.3c-1.8,0.1-3.6,0-5.4,0.1c-7.7,0.3-14.8,4.4-20.4,9.8c-5.1,4.9-9,10.8-12.7,16.7
			c0.1-0.3,0.2-0.6,0.3-1c0.5-1.6,0.9-3.4,1.3-5.3c0.2-0.8,0.3-1.6,0.4-2.4c0.3-1.7,0.6-3.6,0.8-5.6c0.1-0.8,0.2-1.7,0.2-2.6
			c0.1-1,0.1-2,0.2-3.1c1.4-25.5,16.9-36.5,21.6-39.2c0.1,0.1,0.2,0.3,0.2,0.4c0.3,0.6,0.7,1.2,1,1.7c0.3,0.6,0.7,1.3,1,1.9
			c0.3,0.6,0.7,1.2,1,1.9c0.3,0.6,0.6,1.3,1,1.9c0.3,0.6,0.6,1.3,0.9,1.9c0.9,1.8,1.7,3.7,2.5,5.6c0.1,0.1,0.1,0.3,0.2,0.4
			c0.3,0.7,0.6,1.4,0.8,2c0.3,0.7,0.5,1.3,0.8,2c0,0.1,0.1,0.3,0.1,0.4c0.5,1.3,1,2.6,1.4,3.9c0.2,0.7,0.5,1.4,0.7,2.1
			c0.2,0.7,0.5,1.4,0.7,2.1C201.6,114.5,202,115.9,202.5,117.3z"/>
	</g>
	<g>
		<path class="st3" d="M207.4,192.1c-1.9,16.2-4.9,30.6-9.2,44c-8.8,24.6-20.2,53.5-31.3,81.4c-4.5,11.4-8.8,22.2-12.7,32.3
			l-10.3,26c-0.5,1.3-1.2,3.2-2.1,5.4c-2,5.1-4.6,11.4-5.2,14.5c-1.4,5.4-1.3,12.3-1.2,19.6c0.1,9.7,0.3,19.7-3.1,26.7
			c-17.8-7.7-28-32.7-35.7-57.5c-8.8-28.4-5.8-50.2-6-73.9c-0.2-21.8-0.9-47.7-1.3-63c1,4.7,2.1,9.4,3.1,14
			c2.5,10.7,5.1,21.8,5.9,32.9c0.4,5.8,0.3,11.3-0.5,16.3c-2.2,14.3-3,26-2.5,37c0.7,12.8,3,20.8,6.7,23.7c1.4,1.1,2.9,1.4,4.7,1.1
			c1.7-0.5,3.3-1.9,4.6-3.2l0.2-0.2c22.4-23.9,34.4-62.9,30.5-99.5c-0.3-2.8-0.8-6.3-1.4-10.1c-5.2-24.1-7.7-43-8-60.4
			c1.3-4.1,3.9-10.8,9.2-21.2c7.9-15.7,17-19.2,21.9-34.1v0c3.8-5.9,7.7-11.8,12.7-16.7c5.5-5.3,12.7-9.4,20.4-9.8
			c1.8-0.1,3.6,0,5.4-0.1c1.9,6.5,3.3,13.1,4.3,19.6C209.4,154.4,209.6,172.9,207.4,192.1z"/>
		<path class="st3" d="M183,21.2c-4.1-3.4-7.9-3.3-11.2-1.8c-1.5,0.7-3.7,2.6-4.6,5.3c-1.4,4.6-3.9,6.7-4.5,6.9c0,0,0,0,0,0
			c0,0,0,0,0,0c0,0,2.7,0.2,8.5,4.2c5.6,3.9,12.3,0.3,14.2-5.1c1.7-5,4.3-5.6,4.3-5.6S186.8,24.3,183,21.2z"/>
		<path class="st3" d="M36.2,390.6l0.3,3c0.1,0.9,0.1,1.9,0.2,2.8c0.3,3.4,0.5,6.9-0.1,10.3c-5,25.7-12.2,52-30.9,69.7
			c0,0-0.5,0.4-0.4,0.4c16.1-7.7,28.5-42.3,32.8-67.8C39.5,400.9,36.2,390.6,36.2,390.6z"/>
		<path class="st3" d="M213.4,15.1c-10.7-10.9-35.1-12.1-48-10.4c-28.8,3.2-36.1,23.9-43.9,45.9c-2.4,6.7-4.8,13.6-7.9,20.1
			c-3.1,6.5-6.5,11.6-10.4,15.7c-20.2,17.5-36.6,39.3-48.5,65c-10.5,22.7-18,49.1-22.1,78.4c-6.6,46.3-3.2,93.5,1.4,139.6
			c0.3-1.4-5.7-93.1,0.6-137.2c4.2-29.4,11.1-56,21.7-78.7c11.9-25.6,27.8-47.4,48-64.8c3.9-4.1,7.8-9.6,11-16.1
			c3.1-6.5,5.3-13.6,7.7-20.3c7.7-22,15-42.7,43.9-45.4c32.2-3,47,8.6,47,8.6L213.4,15.1z"/>
		<path class="st3" d="M189.1,469c-0.6-0.4-12.2-7.4-44.1-5.7c-3,0.2-5.3,0.4-7.4,0.4c-6.4,0-13.8-2.7-14.6-7.9
			c0.3,0.4,0.6,0.9,1,1.3c2.6,2.9,7.2,4.3,13.7,4.3c2.1,0,4.6-0.1,7.5-0.2c13.5-0.4,32-1.1,42.5,6.7L189.1,469z"/>
		<path class="st3" d="M292.3,30.2c-0.5-0.2-16.4-5.9-23.1-6c-50.7-3.5-52.3-6.5-52.3-6.5l0.1,0c16.7,1.8,34,3.4,53.1,4.8
			C277.5,23.4,284.2,26,292.3,30.2z"/>
	</g>
	<path class="st4" d="M39.8,409.6c-3.4,17.1-8,33.9-16.3,49.3c-0.9,1.5-1.8,3.2-2.7,4.8c0.8-0.9,1.7-1.8,2.5-2.7
		C34.8,447.4,40.6,427.1,39.8,409.6z M73.2,127.9c-13.8,21.4-24.2,45.2-30,70c-1.3,5.5-2,11.2-2.6,16.8c3.7-10.6,6.5-21.5,10.3-32.1
		c3.1-9,7.1-18.6,11.1-27.2c1.8-3.8,3.8-7.5,5.6-11.3c0.7-1.3,4.5-8.1,5.1-9.2c8.1-14,17.8-26.8,27.7-39.6
		C89.3,104.2,81,116.1,73.2,127.9z M39.8,409.6c-3.4,17.1-8,33.9-16.3,49.3c-0.9,1.5-1.8,3.2-2.7,4.8c0.8-0.9,1.7-1.8,2.5-2.7
		C34.8,447.4,40.6,427.1,39.8,409.6z M73.2,127.9c-13.8,21.4-24.2,45.2-30,70c-1.3,5.5-2,11.2-2.6,16.8c3.7-10.6,6.5-21.5,10.3-32.1
		c3.1-9,7.1-18.6,11.1-27.2c1.8-3.8,3.8-7.5,5.6-11.3c0.7-1.3,4.5-8.1,5.1-9.2c8.1-14,17.8-26.8,27.7-39.6
		C89.3,104.2,81,116.1,73.2,127.9z M134,274.2c-3.2,24.3-5.8,48.9-16.4,71.3c2.1-2.3,3.9-4.9,5.4-7.6
		C132.3,321.4,135.7,293,134,274.2z M142.7,269.7c-0.3-3.3-0.9-6.9-1.4-10.1c-4.3-20.1-7.8-40.9-8-61.5v0c0-1.5,0-3,0-4.5
		c-0.1-17.7,2.1-35.5,4.7-53c-6.5,15.6-7.8,32.9-8.3,49.6c-0.7,23.4,2.7,47.1,7.5,70.1c0.6,3.7,1.1,7.7,1.4,11.4
		c2.6,32.8-6.9,68.3-28.7,93.3c-1.1,1.1-2.5,2.5-3.9,3.3c-2.2,1.1-4.3-5.8-4.8-7.9c-3.1-15-1.6-30.7,0.3-45.8
		c1.1-6.7,1.5-13.7,0.9-20.5c-2.3-30.7-18.7-60.7-10.2-91.5c1.2-4.2,2.9-8.3,4.9-12.3c-9.6,10.1-12.3,24.9-11,38.4
		c0.5,7.1,1.8,14.1,3.3,21.1v0c3.2,14.9,7.5,29.6,8.6,44.7c0.4,5.4,0.3,10.9-0.5,16.2c-1.9,12.3-3.1,24.6-2.6,37.1
		c0.4,6.7,1.7,27.2,11.9,25.1c1.9-0.6,3.6-2.2,5-3.5C135.9,344.1,146.3,303.8,142.7,269.7z M187.1,25.2l-3.6-1.6
		c-0.7-1.2-1.7-2.2-2.9-3c-1.9-1.2-4.2-1.5-6.4-1c-2.2,0.5-4.1,1.9-5.2,3.8c-0.8,1.3-1.2,2.7-1.2,4.1c-0.6,1.2-1.7,2.8-3.4,3.6
		c0,0,2.5-0.3,4.7,1.1c0.7,1.1,1.6,2.1,2.8,2.8c1.3,0.8,2.9,1.3,4.4,1.3c0.7,0,1.3-0.1,2-0.2c2.2-0.5,4.1-1.9,5.2-3.8
		c0.9-1.5,1.3-3.2,1.2-4.8C185,26.7,185.8,25.8,187.1,25.2z M181.5,31.1c-1.8,3-5.7,3.9-8.6,2.1c-1.4-0.9-2.4-2.2-2.8-3.9
		c-0.4-1.6-0.1-3.3,0.7-4.7c0.9-1.4,2.2-2.4,3.9-2.8c0.5-0.1,1-0.2,1.5-0.2c1.1,0,2.3,0.3,3.3,0.9c0.4,0.2,0.7,0.5,1,0.8
		c-0.1,0-0.1-0.1-0.2-0.1c-2.3-1.4-5.3-0.7-6.7,1.6c-0.1,0.2-0.2,0.4-0.3,0.6c0.8-0.2,1.7-0.1,2.5,0.3c1.4,0.9,1.9,2.8,1,4.2
		c-0.4,0.7-1.1,1.2-1.9,1.4c0.1,0.1,0.3,0.2,0.4,0.3c2.3,1.4,5.3,0.7,6.7-1.6c0.2-0.4,0.4-0.8,0.5-1.3
		C182.3,29.5,182,30.3,181.5,31.1z M187.1,25.2l-3.6-1.6c-0.7-1.2-1.7-2.2-2.9-3c-1.9-1.2-4.2-1.5-6.4-1c-2.2,0.5-4.1,1.9-5.2,3.8
		c-0.8,1.3-1.2,2.7-1.2,4.1c-0.6,1.2-1.7,2.8-3.4,3.6c0,0,2.5-0.3,4.7,1.1c0.7,1.1,1.6,2.1,2.8,2.8c1.3,0.8,2.9,1.3,4.4,1.3
		c0.7,0,1.3-0.1,2-0.2c2.2-0.5,4.1-1.9,5.2-3.8c0.9-1.5,1.3-3.2,1.2-4.8C185,26.7,185.8,25.8,187.1,25.2z M181.5,31.1
		c-1.8,3-5.7,3.9-8.6,2.1c-1.4-0.9-2.4-2.2-2.8-3.9c-0.4-1.6-0.1-3.3,0.7-4.7c0.9-1.4,2.2-2.4,3.9-2.8c0.5-0.1,1-0.2,1.5-0.2
		c1.1,0,2.3,0.3,3.3,0.9c0.4,0.2,0.7,0.5,1,0.8c-0.1,0-0.1-0.1-0.2-0.1c-2.3-1.4-5.3-0.7-6.7,1.6c-0.1,0.2-0.2,0.4-0.3,0.6
		c0.8-0.2,1.7-0.1,2.5,0.3c1.4,0.9,1.9,2.8,1,4.2c-0.4,0.7-1.1,1.2-1.9,1.4c0.1,0.1,0.3,0.2,0.4,0.3c2.3,1.4,5.3,0.7,6.7-1.6
		c0.2-0.4,0.4-0.8,0.5-1.3C182.3,29.5,182,30.3,181.5,31.1z M141.3,259.6c-4.3-20.1-7.8-40.9-8-61.5v0c0-1.5,0-3,0-4.5
		c-0.1-17.7,2.1-35.5,4.7-53c-6.5,15.6-7.8,32.9-8.3,49.6c-0.7,23.4,2.7,47.1,7.5,70.1c0.6,3.7,1.1,7.7,1.4,11.4
		c2.6,32.8-6.9,68.3-28.7,93.3c-1.1,1.1-2.5,2.5-3.9,3.3c-2.2,1.1-4.3-5.8-4.8-7.9c-3.1-15-1.6-30.7,0.3-45.8
		c1.1-6.7,1.5-13.7,0.9-20.5c-2.3-30.7-18.7-60.7-10.2-91.5c1.2-4.2,2.9-8.3,4.9-12.3c-9.6,10.1-12.3,24.9-11,38.4
		c0.5,7.1,1.8,14.1,3.3,21.1v0c3.2,14.9,7.5,29.6,8.6,44.7c0.4,5.4,0.3,10.9-0.5,16.2c-1.9,12.3-3.1,24.6-2.6,37.1
		c0.4,6.7,1.7,27.2,11.9,25.1c1.9-0.6,3.6-2.2,5-3.5c23.8-25.4,34.2-65.7,30.6-99.8C142.4,266.4,141.9,262.8,141.3,259.6z
		 M134,274.2c-3.2,24.3-5.8,48.9-16.4,71.3c2.1-2.3,3.9-4.9,5.4-7.6C132.3,321.4,135.7,293,134,274.2z M73.2,127.9
		c-13.8,21.4-24.2,45.2-30,70c-1.3,5.5-2,11.2-2.6,16.8c3.7-10.6,6.5-21.5,10.3-32.1c3.1-9,7.1-18.6,11.1-27.2
		c1.8-3.8,3.8-7.5,5.6-11.3c0.7-1.3,4.5-8.1,5.1-9.2c8.1-14,17.8-26.8,27.7-39.6C89.3,104.2,81,116.1,73.2,127.9z M23.5,458.9
		c-0.9,1.5-1.8,3.2-2.7,4.8c0.8-0.9,1.7-1.8,2.5-2.7c11.4-13.5,17.3-33.8,16.4-51.4C36.4,426.6,31.8,443.5,23.5,458.9z M265.6,18.3
		c-16.1-1.1-32.1-2.7-48.2-4.5c-10.8-13.1-37-15.2-52.7-13.1c-39.9,4.5-41.6,38.8-55.2,68.1c-2.6,5.3-5.7,10.4-9.7,14.6
		c-29,25.2-47.8,55.4-59.6,91.9c-23.4,70.6-16.3,146.2-8,218.7c0.3,3.7,0.7,7.4,0.4,10.9l-0.1,0.4l-0.1,0.6
		c-3.7,19.6-8.5,39.4-19.5,56.2C9.5,467.5,5,472.5,0,476.8c4.3,4.8,10.3,6.9,16.6,6c2.6-0.4,5.1-1.2,7.5-2.4c1.2,0.4,3.3,1,6,1
		c7.2,0,19.1-3.8,32.3-23.2c7.5-11,15-17.1,21.7-17.5c3.7-0.2,6.4,1.3,7.8,2.3c1.7,1.6,3.5,3.1,5.4,4.5c-0.3,9.9,1.6,20.1,7.7,28.3
		c4.8,6.5,12.4,10,20.2,11.2c22.1,4.3,44.7-2,66.7,1.6l8.3,1.4l-6.9-4.9c-2.4-1.7-4.8-3.6-6.7-5.7c-0.4-0.5-1-1.1-1.3-1.7
		c2.2-0.6,4.6-0.4,6.9-0.5c4.7-0.1,9.2,0,14-0.3c-1.5-1.3-3.2-2.6-5.1-3.6c-1.9-1.1-3.9-2-6-2.8c-9.7-14.1-33.8-13.3-50-12.8
		c-2.7,0.1-5.3,0.2-7.4,0.2c-6.6,0-9.7-1.7-11-3.1c-0.4-0.4-0.7-0.9-0.9-1.3c1.4-0.6,2.8-1.5,4.2-2.5c16.4-13.5,4.1-43.1,12.3-60.9
		c9.2-23.4,26.4-67.1,35.8-90.8c8.4-21.7,17.2-43.3,24.7-65.4c9-31.5,12.5-64.9,7.6-97.5c-3-19.9-9.9-39.2-20.1-56.6
		c-2.4-5.4-1.4-10.5,4-13.3l1.8-1.1c2.4-1.3,4.9-3,7.1-4.6c4.5-3.1,8-7.8,12.2-11c3.9-2.9,8.5-5.2,13.1-7.3c4.1-1.5,8.2-2.8,12.4-4
		c17-4.9,34.2-8.1,52-8.2c-0.1,0-0.2-0.1-0.3-0.1c0.1,0,0.2,0.1,0.2,0.1c0,0,0,0,0,0h0C287.3,21.2,275.5,18.8,265.6,18.3z
		 M137.6,461.4c2.1,0,4.6-0.1,7.5-0.2c13.5-0.4,32-1.1,42.5,6.7l1.5,1.1c-0.6-0.4-12.2-7.4-44.1-5.7c-3,0.2-5.3,0.4-7.4,0.4
		c-6.4,0-13.8-2.7-14.6-7.9c0.3,0.4,0.6,0.9,1,1.3C126.6,460,131.2,461.4,137.6,461.4z M206.7,52.5c-2.8,2.9-5.9,5.3-9.3,7.4
		l-1.7,1.1l-1.7,1l-1.7,1c-4.8,2.5-7.7,7.2-7.2,12.5c-4.5-2.3-9.5-3.2-14.1-4.7c-9.7-2.8-19.1-6.7-26.3-13.7
		c-6.7-6.5-11.5-15.8-11.9-28.3c0,0,0,0-0.1,0.1c-0.3,0.5-1.3,2.2-2.2,4.3c0,0,0,0,0,0v0c-0.2,0.7,0.5,6.2,1.9,10.1
		c5.9,16.5,21.7,25.8,37.8,30.1c3.9,1.2,7.9,2.2,11.6,3.5c1.5,0.6,2.9,1.3,4.1,2.3c0.4,1.3,1,2.6,1.6,3.8c-0.1,0.1-0.1,0.2-0.2,0.3
		c-1.6,2.1-4.5,4-6.5,6.1c-3.8,3.7-6.7,8.2-8.9,13c-5.1,11.5-6.1,23.9-7.8,36.1c-1.8,9.9-7.8,18.3-13.8,26c-1.2,1.7-2.4,3.3-3.3,5.2
		c1.3-1.6,2.8-2.9,4.3-4.3c4.6-4.3,9-8.7,11.9-14.4c1.9-3.6,2.9-7.4,3.6-11.4v0c0.7-4.3,1.1-8.6,1.7-12.9c2-13.7,5.4-28.3,16.5-37.4
		c1.7-1.3,3.1-2.6,4.1-3.8c5.4,9.4,9.9,20.4,13.1,31.6c1.9,6.5,3.3,13.1,4.3,19.6c2.8,18.2,2.8,36.8,0.6,55.1
		c-1.8,14.8-4.6,29.7-9.2,43.9c-12.4,34.6-30.5,79-44,113.7l-10.3,26c-1.6,4.5-6.4,15.4-7.3,19.9c-3.2,12.6,1.6,33.9-4.2,46.2
		c-1.1,2.4-2.6,4.4-4.7,6c-9.5,7.3-21.2,1.7-31.5-6.4l0,0c-0.1-0.1-1.1-1.3-3-2.4c-6.1-5.1-11.5-10.7-15.5-14.5
		c2,3.8,4.9,8.1,8.4,12.2c-0.6,0-1.3-0.1-2,0c-8.1,0.5-16.5,6.9-24.8,19.2c-13.1,19.3-24.2,21.9-30,21.5c8.5-6,15.3-15.8,18.9-24.5
		C38,463.6,23.5,484.4,6.8,477.1c-0.3-0.1-0.5-0.3-0.8-0.4c0.2-0.2,0.4-0.4,0.6-0.6C25.2,458,32.2,431.4,37,406.7
		c0.9-4.4,0.2-8.9-0.1-13.2c0-0.2,0-0.5-0.1-0.7c0,0,0,0,0,0c-1-9.8-2-19.7-3-29.5c0,0,0,0,0-0.1c-4.3-44.4-7.1-89.1-0.8-133.4
		c7.8-54.9,27.7-106.3,70.5-143.2c4.4-4.7,7.8-10.2,10.5-15.8c6.4-13.5,9.9-28.4,16-40.6c0,0,4.4-7.5,4.5-7.5
		c6.4-9.2,15.6-15.9,30.9-17.6c13.1-1.8,35.7-0.5,46.6,9.2l0,0c0.4,0.3,0.8,0.7,1.1,1c-6.8,5.9-17,13.9-6.5,17.5
		c-4.1,2.5-7.6,6.1-5.2,11.2c1.8,3.7,5.5,4.8,9.3,4.6C209.2,49.9,207.9,51.2,206.7,52.5z M226.7,38.9c-4.2,1.5-8.3,3.3-12.4,5
		c-3.7,1.5-10.2,1.6-9.8-3.6c0.1-0.7,0.5-1.2,1.1-1.8c1.2-1.3,3-2.3,4.8-3.3c13.3-3.3,27.1-5.6,40.8-6.6c6.3-0.5,12.6-0.6,18.8-0.3
		C255.1,29.2,239.7,34.1,226.7,38.9z M269.3,24.2c-50.7-3.5-52.3-6.5-52.3-6.5l0.1,0c16.7,1.8,34,3.4,53.1,4.8
		c7.3,1,14,3.5,22.1,7.7C291.4,29.9,275.8,24.3,269.3,24.2z M180.6,20.6c-1.9-1.2-4.2-1.5-6.4-1c-2.2,0.5-4.1,1.9-5.2,3.8
		c-0.8,1.3-1.2,2.7-1.2,4.1c-0.6,1.2-1.7,2.8-3.4,3.6c0,0,2.5-0.3,4.7,1.1c0.7,1.1,1.6,2.1,2.8,2.8c1.3,0.8,2.9,1.3,4.4,1.3
		c0.7,0,1.3-0.1,2-0.2c2.2-0.5,4.1-1.9,5.2-3.8c0.9-1.5,1.3-3.2,1.2-4.8c0.4-0.8,1.2-1.7,2.4-2.3l-3.6-1.6
		C182.8,22.4,181.8,21.4,180.6,20.6z M181.5,31.1c-1.8,3-5.7,3.9-8.6,2.1c-1.4-0.9-2.4-2.2-2.8-3.9c-0.4-1.6-0.1-3.3,0.7-4.7
		c0.9-1.4,2.2-2.4,3.9-2.8c0.5-0.1,1-0.2,1.5-0.2c1.1,0,2.3,0.3,3.3,0.9c0.4,0.2,0.7,0.5,1,0.8c-0.1,0-0.1-0.1-0.2-0.1
		c-2.3-1.4-5.3-0.7-6.7,1.6c-0.1,0.2-0.2,0.4-0.3,0.6c0.8-0.2,1.7-0.1,2.5,0.3c1.4,0.9,1.9,2.8,1,4.2c-0.4,0.7-1.1,1.2-1.9,1.4
		c0.1,0.1,0.3,0.2,0.4,0.3c2.3,1.4,5.3,0.7,6.7-1.6c0.2-0.4,0.4-0.8,0.5-1.3C182.3,29.5,182,30.3,181.5,31.1z M137.2,260.3
		c0.6,3.7,1.1,7.7,1.4,11.4c2.6,32.8-6.9,68.3-28.7,93.3c-1.1,1.1-2.5,2.5-3.9,3.3c-2.2,1.1-4.3-5.8-4.8-7.9
		c-3.1-15-1.6-30.7,0.3-45.8c1.1-6.7,1.5-13.7,0.9-20.5c-2.3-30.7-18.7-60.7-10.2-91.5c1.2-4.2,2.9-8.3,4.9-12.3
		c-9.6,10.1-12.3,24.9-11,38.4c0.5,7.1,1.8,14.1,3.3,21.1v0c3.2,14.9,7.5,29.6,8.6,44.7c0.4,5.4,0.3,10.9-0.5,16.2
		c-1.9,12.3-3.1,24.6-2.6,37.1c0.4,6.7,1.7,27.2,11.9,25.1c1.9-0.6,3.6-2.2,5-3.5c23.8-25.4,34.2-65.7,30.6-99.8
		c-0.3-3.3-0.9-6.9-1.4-10.1c-4.3-20.1-7.8-40.9-8-61.5v0c0-1.5,0-3,0-4.5c-0.1-17.7,2.1-35.5,4.7-53c-6.5,15.6-7.8,32.9-8.3,49.6
		C129,213.7,132.4,237.4,137.2,260.3z M134,274.2c-3.2,24.3-5.8,48.9-16.4,71.3c2.1-2.3,3.9-4.9,5.4-7.6
		C132.3,321.4,135.7,293,134,274.2z M73.2,127.9c-13.8,21.4-24.2,45.2-30,70c-1.3,5.5-2,11.2-2.6,16.8c3.7-10.6,6.5-21.5,10.3-32.1
		c3.1-9,7.1-18.6,11.1-27.2c1.8-3.8,3.8-7.5,5.6-11.3c0.7-1.3,4.5-8.1,5.1-9.2c8.1-14,17.8-26.8,27.7-39.6
		C89.3,104.2,81,116.1,73.2,127.9z M23.5,458.9c-0.9,1.5-1.8,3.2-2.7,4.8c0.8-0.9,1.7-1.8,2.5-2.7c11.4-13.5,17.3-33.8,16.4-51.4
		C36.4,426.6,31.8,443.5,23.5,458.9z M39.8,409.6c-3.4,17.1-8,33.9-16.3,49.3c-0.9,1.5-1.8,3.2-2.7,4.8c0.8-0.9,1.7-1.8,2.5-2.7
		C34.8,447.4,40.6,427.1,39.8,409.6z M73.2,127.9c-13.8,21.4-24.2,45.2-30,70c-1.3,5.5-2,11.2-2.6,16.8c3.7-10.6,6.5-21.5,10.3-32.1
		c3.1-9,7.1-18.6,11.1-27.2c1.8-3.8,3.8-7.5,5.6-11.3c0.7-1.3,4.5-8.1,5.1-9.2c8.1-14,17.8-26.8,27.7-39.6
		C89.3,104.2,81,116.1,73.2,127.9z M134,274.2c-3.2,24.3-5.8,48.9-16.4,71.3c2.1-2.3,3.9-4.9,5.4-7.6
		C132.3,321.4,135.7,293,134,274.2z M142.7,269.7c-0.3-3.3-0.9-6.9-1.4-10.1c-4.3-20.1-7.8-40.9-8-61.5v0c0-1.5,0-3,0-4.5
		c-0.1-17.7,2.1-35.5,4.7-53c-6.5,15.6-7.8,32.9-8.3,49.6c-0.7,23.4,2.7,47.1,7.5,70.1c0.6,3.7,1.1,7.7,1.4,11.4
		c2.6,32.8-6.9,68.3-28.7,93.3c-1.1,1.1-2.5,2.5-3.9,3.3c-2.2,1.1-4.3-5.8-4.8-7.9c-3.1-15-1.6-30.7,0.3-45.8
		c1.1-6.7,1.5-13.7,0.9-20.5c-2.3-30.7-18.7-60.7-10.2-91.5c1.2-4.2,2.9-8.3,4.9-12.3c-9.6,10.1-12.3,24.9-11,38.4
		c0.5,7.1,1.8,14.1,3.3,21.1v0c3.2,14.9,7.5,29.6,8.6,44.7c0.4,5.4,0.3,10.9-0.5,16.2c-1.9,12.3-3.1,24.6-2.6,37.1
		c0.4,6.7,1.7,27.2,11.9,25.1c1.9-0.6,3.6-2.2,5-3.5C135.9,344.1,146.3,303.8,142.7,269.7z M187.1,25.2l-3.6-1.6
		c-0.7-1.2-1.7-2.2-2.9-3c-1.9-1.2-4.2-1.5-6.4-1c-2.2,0.5-4.1,1.9-5.2,3.8c-0.8,1.3-1.2,2.7-1.2,4.1c-0.6,1.2-1.7,2.8-3.4,3.6
		c0,0,2.5-0.3,4.7,1.1c0.7,1.1,1.6,2.1,2.8,2.8c1.3,0.8,2.9,1.3,4.4,1.3c0.7,0,1.3-0.1,2-0.2c2.2-0.5,4.1-1.9,5.2-3.8
		c0.9-1.5,1.3-3.2,1.2-4.8C185,26.7,185.8,25.8,187.1,25.2z M181.5,31.1c-1.8,3-5.7,3.9-8.6,2.1c-1.4-0.9-2.4-2.2-2.8-3.9
		c-0.4-1.6-0.1-3.3,0.7-4.7c0.9-1.4,2.2-2.4,3.9-2.8c0.5-0.1,1-0.2,1.5-0.2c1.1,0,2.3,0.3,3.3,0.9c0.4,0.2,0.7,0.5,1,0.8
		c-0.1,0-0.1-0.1-0.2-0.1c-2.3-1.4-5.3-0.7-6.7,1.6c-0.1,0.2-0.2,0.4-0.3,0.6c0.8-0.2,1.7-0.1,2.5,0.3c1.4,0.9,1.9,2.8,1,4.2
		c-0.4,0.7-1.1,1.2-1.9,1.4c0.1,0.1,0.3,0.2,0.4,0.3c2.3,1.4,5.3,0.7,6.7-1.6c0.2-0.4,0.4-0.8,0.5-1.3
		C182.3,29.5,182,30.3,181.5,31.1z M187.1,25.2l-3.6-1.6c-0.7-1.2-1.7-2.2-2.9-3c-1.9-1.2-4.2-1.5-6.4-1c-2.2,0.5-4.1,1.9-5.2,3.8
		c-0.8,1.3-1.2,2.7-1.2,4.1c-0.6,1.2-1.7,2.8-3.4,3.6c0,0,2.5-0.3,4.7,1.1c0.7,1.1,1.6,2.1,2.8,2.8c1.3,0.8,2.9,1.3,4.4,1.3
		c0.7,0,1.3-0.1,2-0.2c2.2-0.5,4.1-1.9,5.2-3.8c0.9-1.5,1.3-3.2,1.2-4.8C185,26.7,185.8,25.8,187.1,25.2z M181.5,31.1
		c-1.8,3-5.7,3.9-8.6,2.1c-1.4-0.9-2.4-2.2-2.8-3.9c-0.4-1.6-0.1-3.3,0.7-4.7c0.9-1.4,2.2-2.4,3.9-2.8c0.5-0.1,1-0.2,1.5-0.2
		c1.1,0,2.3,0.3,3.3,0.9c0.4,0.2,0.7,0.5,1,0.8c-0.1,0-0.1-0.1-0.2-0.1c-2.3-1.4-5.3-0.7-6.7,1.6c-0.1,0.2-0.2,0.4-0.3,0.6
		c0.8-0.2,1.7-0.1,2.5,0.3c1.4,0.9,1.9,2.8,1,4.2c-0.4,0.7-1.1,1.2-1.9,1.4c0.1,0.1,0.3,0.2,0.4,0.3c2.3,1.4,5.3,0.7,6.7-1.6
		c0.2-0.4,0.4-0.8,0.5-1.3C182.3,29.5,182,30.3,181.5,31.1z M134,274.2c-3.2,24.3-5.8,48.9-16.4,71.3c2.1-2.3,3.9-4.9,5.4-7.6
		C132.3,321.4,135.7,293,134,274.2z M142.7,269.7c-0.3-3.3-0.9-6.9-1.4-10.1c-4.3-20.1-7.8-40.9-8-61.5v0c0-1.5,0-3,0-4.5
		c-0.1-17.7,2.1-35.5,4.7-53c-6.5,15.6-7.8,32.9-8.3,49.6c-0.7,23.4,2.7,47.1,7.5,70.1c0.6,3.7,1.1,7.7,1.4,11.4
		c2.6,32.8-6.9,68.3-28.7,93.3c-1.1,1.1-2.5,2.5-3.9,3.3c-2.2,1.1-4.3-5.8-4.8-7.9c-3.1-15-1.6-30.7,0.3-45.8
		c1.1-6.7,1.5-13.7,0.9-20.5c-2.3-30.7-18.7-60.7-10.2-91.5c1.2-4.2,2.9-8.3,4.9-12.3c-9.6,10.1-12.3,24.9-11,38.4
		c0.5,7.1,1.8,14.1,3.3,21.1v0c3.2,14.9,7.5,29.6,8.6,44.7c0.4,5.4,0.3,10.9-0.5,16.2c-1.9,12.3-3.1,24.6-2.6,37.1
		c0.4,6.7,1.7,27.2,11.9,25.1c1.9-0.6,3.6-2.2,5-3.5C135.9,344.1,146.3,303.8,142.7,269.7z"/>
</g>
</svg>
