<?xml version="1.0" encoding="utf-8"?>
<!-- Generator: Adobe Illustrator 28.3.0, SVG Export Plug-In . SVG Version: 6.00 Build 0)  -->
<svg version="1.1" id="stork_00000147940747165602933010000010375099784868043674_"
	 xmlns="http://www.w3.org/2000/svg" xmlns:xlink="http://www.w3.org/1999/xlink" x="0px" y="0px" viewBox="0 0 392.799 490"
	 enable-background="new 0 0 392.799 490" xml:space="preserve">
<g id="stork">
	<g>
		<path fill="#F4463D" d="M272.305,480.175c-1.403-3.006-2.973-5.297-4.795-7.001c-2.03-1.928-4.564-3.377-7.247-4.91
			c-1.07-0.612-2.157-1.233-3.226-1.896l-1.403-0.875c-1.656-0.941-2.741-3.162-3.237-4.393c-2.276-6.005-2.891-12.451-3.484-18.685
			l-0.05-0.523c-0.624-7.751-0.851-16.159-0.69-25.7c0.295-12.382,0.912-25.608,3.412-38.435c0.355-1.845,1.018-4.123,1.549-5.954
			l0.086-0.294c1.745-6.354,1.967-12.705,0.642-18.361c-0.791-3.649-2.229-7.27-3.62-10.77c-0.938-2.362-1.907-4.805-2.67-7.23
			c-1.705-5.532-2.781-11.616-3.386-19.143c-0.644-8.503-0.593-16.807,0.156-25.384l0.019-0.208l-0.136-0.159
			c-0.561-0.661-1.079-1.293-1.555-1.889l-0.804-1.008l-0.086,1.286c-0.551,8.252-3.467,15.226-3.499,15.299l-1.866,4.476
			l-0.598-4.815c-0.734-6.017-4.329-12.101-10.683-18.083l-1.523-1.434l0.71,1.968c0.628,1.738,1.264,3.474,1.9,5.211
			c2.729,7.449,5.552,15.152,7.607,22.934l0.121,0.497c1.327,5.416,2.699,11.017,1.704,16.443
			c-3.39,10.271-2.929,19.264,1.541,30.07c0.767,1.862,1.608,3.703,2.422,5.483c0.552,1.209,1.117,2.446,1.667,3.705
			c-0.652-0.547-1.287-1.136-1.897-1.763l-0.99-1.017l0.134,1.412c0.647,6.824,2.277,24.683,3.436,43.073
			c3.151,50.139-0.362,51.941-2.051,52.808c-2.228,1.145-5.44,1.416-9.527,1.763c-9.098,0.781-21.557,1.852-32.011,13.397
			l-1.004,1.109l1.469-0.282c2.697-0.519,7.715-1.46,11.027-1.933l0.189-0.068c7.591-4.617,14.121-6.626,19.87-6.087
			c-5.285,1.427-9.932,3.913-14.447,6.329c-1.168,0.637-2.336,1.296-3.569,2.013c-0.089,0.075-0.22,0.162-0.235,0.172l-0.194,0.065
			c-2.277,1.331-4.146,2.492-5.883,3.651l-2.054,1.371l2.426-0.464c3.17-0.607,6.358-1.458,9.44-2.28
			c0.822-0.219,1.64-0.438,2.448-0.648c2.664-0.682,5.368-1.475,7.984-2.241c5.885-1.725,11.97-3.509,18.097-4.193
			c10.035-0.206,19.681,2.051,27.78,4.283l1.044,0.287L272.305,480.175z"/>
		<path fill="#F4463D" d="M102.617,55.323l-54.54,32.181l53.026-37.71C101.152,51.758,101.631,53.701,102.617,55.323z"/>
		<path fill="#F4463D" d="M97.652,47.865L32.925,93.897l56.369-53.133C90.908,44.522,93.916,47.058,97.652,47.865z"/>
	</g>
	<g>
		<path fill="#FFFFFF" d="M281.346,170.597c-30.395-15.844-63.827-24.624-97.187-32.017c-5.586-1.3-11.187-2.572-16.766-4.229
			c-8.444-2.45-16.944-7.058-22.109-14.515c-5.286-7.394-6.693-17.009-5.872-25.788c1.072-11.708,5.122-22.816,10.122-33.324
			c1.786-3.879,4.015-7.579,5.951-11.38c2.793-6.193,3.065-13.28,1.693-19.937c-2.15-10.601-9.201-20.545-19.63-24.145
			c-10.172-3.472-22.402-1.386-31.374,4.343c-6.865,4.472-11.408,11.908-13.237,19.837c-0.586,2.093-1.05,6.622-1.05,7.779
			c1.243,5.565,5.572,8.422,11.137,6.993l3.007-0.686l-0.907,2.979c-2.557,9.994,5.965,10.772,13.53,9.401
			c7.493-1.257,16.309-4.286,17.373-12.965c1.322,6.801-4.522,12.751-10.494,14.958c-1.564,0.621-3.157,1.036-4.779,1.336
			c-2.557,4.893-12.987,26.095-17.773,54.747c-4.615,27.602-4.693,67.534,18.744,106.444c-1.686-7.143-3.065-16.437-1.729-24.766
			l1.879-11.729l1.657,11.765c0.043,0.336,4.629,31.038,28.81,48.397c-3.815-6.101-8.129-15.501-8.129-26.859v-4.386l3.065,3.136
			c0.179,0.186,16.651,17.137,28.217,37.303c-0.029-4.043-0.05-9.665-0.036-16.551l0.021-15.816l3.5,15.423
			c0.079,0.343,7.601,32.26,33.539,50.497c-1.414-3.215-3.265-7.772-5.279-13.644l-1.407-4.079l3.879,1.893
			c0.972,0.479,21.352,10.608,27.552,26.081c0.957-3.715,1.857-8.801,1.429-13.837l-0.636-7.386l3.929,6.286
			c0.114,0.186,11.022,17.394,26.609,21.423c-0.779-2.243-1.636-5.522-1.8-9.451l-0.143-3.515l2.922,1.957
			c0.157,0.107,13.644,8.972,28.124,8.615c-15.337-4.836-29.338-13.737-40.482-25.352c-10.415-0.857-19.594-6.622-26.974-13.865
			c-3.536-0.629-6.986-1.736-10.237-3.215c-15.337-7.151-26.409-20.866-35.324-34.824c-6.415-10.551-12.63-21.58-15.016-33.817
			c4.465,6.993,8.315,14.094,12.301,21.152c6.036,10.487,12.894,20.487,21.159,29.288c5.443,5.665,11.601,10.958,18.673,14.423
			c1.121,0.557,2.272,1.064,3.436,1.536c-7.736-9.344-14.201-20.009-17.244-31.817c11.044,16.766,21.48,35.703,40.268,44.682
			c1.522,0.664,3.1,1.243,4.7,1.729c-1.229-1.464-2.414-2.95-3.557-4.479c-4.893-6.572-9.086-13.844-11.265-21.78
			c12.837,20.823,28.652,38.546,51.247,48.697c3.636,1.629,7.358,3.043,11.151,4.258c-3.6-2.9-6.908-6.158-9.872-9.522
			c-6.136-6.979-11.622-14.73-14.601-23.609c12.565,15.323,24.916,33.181,44.746,39.289c1.95,0.557,3.965,0.964,5.993,1.221
			c-2.279-2.536-4.415-5.2-6.379-7.986c-5.322-7.415-9.608-15.716-11.294-24.745c4.708,7.551,8.965,15.423,14.308,22.538
			c5.3,7.015,11.594,13.265,18.687,18.452c9.529,6.943,20.416,12.108,31.831,15.187c-2.107-10.837-5.286-24.602-6.629-34.789
			c4.522,8.651,6.686,18.244,8.515,27.759c0.443,2.579,0.836,5.165,1.1,7.786c1.622,0.386,3.257,0.721,4.893,1.022
			c-2.522-14.408-5.65-28.774-9.637-42.846c-4.279-14.773-9.358-29.331-17.101-42.711c2.479,2.986,4.665,6.222,6.643,9.572
			c5.936,10.072,10.037,21.123,13.451,32.253c3.372,11.158,6.022,22.523,7.958,34.01c0.557,3.393,1.093,6.772,1.5,10.194
			c1.386,0.207,2.772,0.379,4.165,0.521C381.332,261.154,345.387,202.735,281.346,170.597z M111.224,192.191
			c-4.129-10.622-6.501-21.988-7.465-33.331c-0.914-10.594-0.864-21.345,0.9-31.845c0.464,21.816,2.329,43.639,7.622,64.841
			l0.6,2.179c0.4,1.457,0.786,2.922,1.15,4.4C113.06,196.377,112.11,194.299,111.224,192.191z M260.301,293.764
			c1.707,1.607,3.515,3.079,5.293,4.779c-8.936-2.586-17.18-10.772-20.609-19.337C250.036,283.827,255.215,289.221,260.301,293.764z
			 M205.868,276.962c-10.851-8.694-18.887-23.688-21.409-37.282C190.917,252.339,197.803,265.276,205.868,276.962z M243.628,261.718
			c-9.029-4.072-16.744-13.973-19.844-23.266C230.513,246.017,236.806,254.232,243.628,261.718z M318.334,298.671
			c-9.586-2.493-18.859-10.951-23.473-19.587C302.769,285.399,310.355,292.435,318.334,298.671z"/>
		<path fill="#FFFFFF" d="M91.408,42.236L32.925,93.897l56.378-54.535C89.653,40.177,90.93,41.543,91.408,42.236z"/>
		<path fill="#FFFFFF" d="M230.449,469.314c-8.386,0.721-19.359,1.657-29.088,10.601c-0.914,0.164-1.793,0.336-2.614,0.493
			c10.329-11.408,22.552-12.451,31.703-13.237c4.129-0.35,7.557-1.233,9.864-2.419C241.656,464.059,234.577,468.964,230.449,469.314
			z"/>
		<path fill="#FFFFFF" d="M271.852,480.386c-0.436-0.121-0.871-0.236-1.307-0.35c-0.936-1.629-2.043-3.107-3.379-4.358
			c-2.8-2.657-6.693-4.45-10.394-6.743l-1.386-0.864c-1.672-0.95-2.805-5.179-3.455-6.793l0.76-0.707
			c0.65,1.614,1.024,4.407,2.695,5.357l1.386,0.864c3.7,2.293,7.593,4.086,10.394,6.743
			C269.159,475.4,270.638,477.786,271.852,480.386z"/>
		<circle fill="#FFFFFF" cx="121.128" cy="31.119" r="6.835"/>
		<path fill="#FFFFFF" d="M388.81,331.395c-0.198-0.02-0.401-0.045-0.599-0.065c-7.616-60.025-36.367-111.009-86.011-143.709
			c-1.745-2.972-3.648-5.847-5.705-8.612c4.689,2.867,9.207,5.891,13.548,9.062c0.393,0.292,0.785,0.579,1.178,0.871
			c0.393,0.292,0.781,0.583,1.17,0.875c3.11,2.348,6.126,4.774,9.053,7.272c0.729,0.628,1.454,1.255,2.174,1.891
			c0.721,0.636,1.433,1.271,2.142,1.915c1.413,1.288,2.806,2.595,4.178,3.919c0.684,0.664,1.361,1.328,2.037,2
			c0.336,0.336,0.668,0.672,1.004,1.008c1.016,1.028,2.016,2.065,3,3.114c0.64,0.676,1.267,1.356,1.895,2.041
			c0.32,0.348,0.636,0.696,0.952,1.049c1.267,1.405,2.51,2.826,3.725,4.264c0.883,1.045,1.753,2.093,2.612,3.154
			c0.624,0.769,1.243,1.547,1.85,2.324c0.275,0.352,0.551,0.704,0.826,1.061c0.316,0.409,0.632,0.822,0.943,1.235
			c0.271,0.356,0.534,0.709,0.802,1.065c0.806,1.073,1.595,2.158,2.373,3.247c0.243,0.336,0.482,0.672,0.717,1.012
			c1.725,2.446,3.389,4.932,4.992,7.458c0.227,0.356,0.449,0.713,0.672,1.069c0.251,0.397,0.498,0.798,0.745,1.198
			c0.741,1.203,1.466,2.409,2.178,3.628c0.239,0.405,0.474,0.814,0.709,1.223c0.494,0.858,0.98,1.717,1.462,2.583
			c0.251,0.449,0.498,0.899,0.741,1.348c0.636,1.162,1.255,2.332,1.867,3.51c0.219,0.417,0.433,0.834,0.644,1.251
			c0.352,0.692,0.7,1.385,1.045,2.081c0.227,0.462,0.453,0.923,0.68,1.389c0.223,0.462,0.445,0.927,0.668,1.393
			c0.611,1.288,1.211,2.583,1.798,3.887c0.259,0.583,0.518,1.166,0.777,1.749c0.413,0.947,0.822,1.903,1.223,2.859
			c0.401,0.956,0.798,1.915,1.182,2.879c0.389,0.964,0.769,1.931,1.142,2.903c0.373,0.972,0.741,1.948,1.101,2.927
			c0.514,1.405,1.016,2.814,1.502,4.231c0.024,0.069,0.045,0.138,0.069,0.202c0.332,0.976,0.66,1.956,0.98,2.935
			c0.502,1.543,0.988,3.089,1.458,4.648c0.142,0.478,0.283,0.956,0.425,1.437c0.15,0.506,0.296,1.012,0.441,1.522
			c0.146,0.506,0.287,1.016,0.429,1.526c0.142,0.51,0.283,1.02,0.421,1.535c0.008,0.024,0.012,0.045,0.02,0.069
			c0.267,1,0.53,2.004,0.79,3.012c0.129,0.514,0.259,1.033,0.389,1.551c0.255,1.033,0.502,2.069,0.745,3.11
			c0.243,1.045,0.478,2.089,0.705,3.134c0.113,0.526,0.227,1.049,0.336,1.575c0.105,0.498,0.207,0.992,0.308,1.49
			c0.543,2.664,1.041,5.353,1.494,8.057c0.182,1.073,0.352,2.146,0.518,3.223c0.081,0.538,0.162,1.077,0.243,1.616
			c0.081,0.538,0.158,1.081,0.231,1.624c0.077,0.538,0.15,1.081,0.223,1.624c0.053,0.372,0.097,0.741,0.146,1.113
			c0.04,0.304,0.081,0.611,0.117,0.919C388.474,328.379,388.648,329.885,388.81,331.395z"/>
	</g>
	<g>
		<path fill="#4C4C4C" d="M388.707,331.268c-7.903-62.294-37.722-112.11-86.231-144.063l-1.799-1.185l1.093,1.855
			c2.415,4.103,4.54,8.412,6.315,12.81c1.659,4.101,3.31,8.965,2.977,13.958c-0.337,5.138-3.039,9.677-6.884,11.565
			c-4.793,2.354-11.105,0.987-18.765-4.07l-1.146-0.757l0.391,1.316c0.829,2.792,0.411,5.918-1.117,8.36
			c-1.337,2.136-3.371,3.526-5.727,3.916c-6.87,1.119-12.759-4.199-14.972-6.539c-4.269-4.505-7.295-8.224-10.795-13.263
			l-0.958-1.379l0.047,1.678c0.158,5.58-0.334,8.181-3.794,9.837c-3.351,1.613-6.693,0.95-10.214-2.033
			c-2.457-2.083-7.266-10.343-10.945-17.378l-0.66-1.262l-0.273,1.398c-0.57,2.912-2.748,5.671-5.685,7.202
			c-2.765,1.441-5.832,1.61-8.418,0.466c-5.833-2.582-9.206-8.604-12.424-15.074l-1.33-2.674l0.387,2.962
			c0.209,1.607-0.365,3.247-1.619,4.615c-1.623,1.77-4.079,2.808-6.396,2.711c-3.62-0.153-7.255-2.26-10.807-6.263
			c-1.135-1.274-5.518-5.756-7.715-8.275c-0.749-0.858-1.579-1.591-1.579-1.591s0.368,1.577,0.798,2.298
			c3.386,5.679,8.15,13.927,11.071,19.103c6.787,11.789,13.73,21.4,21.232,29.388c6.48,6.745,12.633,11.496,18.808,14.523
			c1.102,0.545,2.271,1.066,3.473,1.551l1.83,0.737l-1.259-1.521c-7.793-9.413-13.244-18.968-16.235-28.448
			c0.715,1.102,1.429,2.21,2.145,3.321c9.758,15.142,19.848,30.799,36.527,38.771c1.528,0.667,3.128,1.255,4.756,1.749l1.606,0.487
			l-1.077-1.287c-1.295-1.546-2.453-3.005-3.538-4.459c-4.616-6.198-7.914-12.092-10.011-17.908
			c14.425,22.424,30.19,36.957,49.385,45.58c3.601,1.612,7.369,3.053,11.202,4.28l2.552,0.817l-2.085-1.683
			c-3.376-2.724-6.677-5.908-9.81-9.465c-6.426-7.312-10.761-13.941-13.463-20.627c0.841,1.04,1.682,2.088,2.525,3.139
			c11.265,14.031,22.912,28.539,40.568,33.977c1.963,0.562,4.006,0.979,6.071,1.238l1.331,0.167l-0.896-0.997
			c-2.297-2.555-4.432-5.226-6.347-7.941c-5.235-7.301-8.785-14.578-10.576-21.676c0.847,1.393,1.683,2.79,2.502,4.159
			c3.189,5.331,6.488,10.843,10.285,15.898c5.396,7.143,11.717,13.386,18.79,18.558c9.454,6.89,20.519,12.168,31.998,15.266
			l0.773,0.209l-0.152-0.787c-0.628-3.224-1.35-6.707-2.09-10.278c-1.516-7.309-3.074-14.83-4.082-21.327
			c3.679,8.099,5.574,16.958,7.07,24.753c0.519,3.001,0.867,5.466,1.098,7.755l0.035,0.354l0.347,0.082
			c1.553,0.368,3.162,0.704,4.92,1.026l0.706,0.129l-0.124-0.707c-2.722-15.551-5.878-29.582-9.648-42.898
			c-3.058-10.557-7.302-23.832-13.777-36.596c0.808,1.215,1.608,2.494,2.408,3.848c5.104,8.662,9.237,18.576,13.402,32.145
			c3.332,11.022,6.004,22.444,7.942,33.947c0.62,3.771,1.112,6.942,1.499,10.17l0.045,0.378l0.377,0.057
			c1.254,0.188,2.426,0.339,3.585,0.46l0.627,0.066L388.707,331.268z M315.882,297.364c-7.232-2.728-14.615-8.936-19.212-16.173
			c2.977,2.437,5.934,4.973,8.812,7.441C308.87,291.538,312.354,294.526,315.882,297.364z M241.427,260.014
			c-6.661-3.901-12.89-11.261-16.208-19.17c2.491,2.869,4.948,5.83,7.341,8.713C235.438,253.025,238.396,256.59,241.427,260.014z"/>
	</g>
	<g>
		<path fill="#A3A3A3" d="M297.697,301.186c-3.643,0.093-7.229-0.407-10.551-1.2c-11.194-5.1-21.402-12.401-29.931-21.295
			c-10.415-0.857-19.594-6.622-26.974-13.865c-3.536-0.629-6.986-1.736-10.237-3.215c-15.337-7.151-26.409-20.866-35.324-34.824
			c-6.415-10.551-13.792-24.053-15.016-36.674c0.364,0.564,1.169,3.734,1.072,4.558c2.879,10.444,8.336,20.037,13.944,29.26
			c8.915,13.958,19.987,27.674,35.324,34.824c3.25,1.479,6.701,2.586,10.237,3.215c7.379,7.243,16.559,13.008,26.974,13.865
			C268.359,287.449,282.36,296.35,297.697,301.186z"/>
		<path fill="#A3A3A3" d="M297.697,301.186c-16.341,0.902-29.445-9.544-31.045-10.572
			C266.609,290.156,292.168,299.45,297.697,301.186z"/>
		<path fill="#A3A3A3" d="M268.595,303.579c-15.587-4.029-26.495-21.237-26.609-21.423l-0.627-0.47
			c-0.021-0.393-3.266-5.423-3.302-5.816c0,0,18.902,20.173,27.538,22.673c-0.007-0.007-0.021-0.021-0.029-0.029
			c0.614,0.307,1.243,0.593,1.879,0.85C267.773,301.007,268.195,302.429,268.595,303.579z"/>
		<path fill="#A3A3A3" d="M238.478,290.806c-0.293,2.314-0.75,4.465-1.214,6.286c-5.622-14.022-27.524-25.938-31.431-27.974
			C205.704,268.769,230.941,277.284,238.478,290.806z"/>
		<path fill="#A3A3A3" d="M212.518,286.842c-25.938-18.237-33.46-50.154-33.539-50.497l-3.5-15.423c0,0,7.465,17.294,10.194,23.952
			c3.379,12.079,10.708,24.488,20.195,32.088c-0.743-1.079-1.479-2.164-2.2-3.265c1.793,1.936,3.715,3.822,5.779,5.629
			C210.597,282.342,211.64,284.849,212.518,286.842z"/>
		<path fill="#A3A3A3" d="M175.494,253.289c-11.565-20.166-28.038-37.117-28.217-37.303l-0.179-0.186
			c-0.021-0.471-2.886-2.472-2.886-2.95c0,0,20.009,14.78,31.245,32.753C175.465,248.574,175.48,251.153,175.494,253.289z"/>
		<path fill="#A3A3A3" d="M152.703,244.802c-26.237-19.469-29.128-48.768-29.171-49.103l-1.657-11.765
			c0,0,8.158,33.324,25.781,50.897C149.07,238.431,151.11,242.259,152.703,244.802z"/>
		<path fill="#A3A3A3" d="M119.768,208.943c0.4,4.093,1.143,8.036,1.957,11.487c-23.438-38.91-23.359-78.842-18.744-106.444
			c4.786-28.652,15.216-49.854,17.773-54.747c0.529-0.1,1.057-0.207,1.586-0.336c-3.765,7.686-12.301,27.088-16.501,52.226
			c-1.329,7.951-2.286,16.923-2.407,26.609c-0.457,7.029-0.279,14.108,0.329,21.123c0.964,11.344,3.336,22.709,7.465,33.331
			c0.886,2.107,1.836,4.186,2.807,6.243c-0.364-1.479-0.75-2.943-1.15-4.4l-0.6-2.179c-0.029-0.1-0.05-0.207-0.079-0.307
			C114.275,197.32,116.775,203.135,119.768,208.943z"/>
		<path fill="#A3A3A3" d="M131.708,22.964c-2.081,1.081-4.357,0.862-5.851,0.514c-1.154-0.729-2.482-1.207-3.923-1.352
			c-4.96-0.49-9.393,3.146-9.879,8.106c-0.17,1.668,0.138,3.3,0.838,4.774c0.089,2.292-1.186,3.757-1.259,3.842
			c1.494-0.842,2.923-0.785,3.907-0.571c1.324,1.028,2.911,1.664,4.624,1.83c0.292,0.032,0.599,0.053,0.899,0.053
			c2.085,0,4.085-0.717,5.717-2.057c1.862-1.53,3.021-3.697,3.259-6.098c0.024-0.296,0.041-0.587,0.041-0.871
			c0-1.037-0.178-2.029-0.498-2.964C129.655,25.11,131.708,22.964,131.708,22.964z M121.128,37.953
			c-3.774,0-6.835-3.061-6.835-6.835c0-3.774,3.061-6.835,6.835-6.835c3.778,0,6.835,3.061,6.835,6.835
			C127.962,34.892,124.905,37.953,121.128,37.953z"/>
	</g>
	<path fill="#231F20" d="M247.47,345.17c0.344,4.013,1.033,7.717,1.539,11.649c0.514,3.474,1.109,8.183,1.83,11.62
		C253.435,361.054,252.123,351.482,247.47,345.17z M184.461,239.679c2.518,13.596,10.556,28.59,21.407,37.283
		C197.802,265.276,190.915,252.34,184.461,239.679z M294.859,279.083c4.616,8.636,13.888,17.095,23.476,19.589
		C310.354,292.437,302.771,285.4,294.859,279.083z M244.984,279.205c3.429,8.568,11.673,16.75,20.609,19.338
		c-1.777-1.701-3.583-3.17-5.292-4.778C255.216,289.222,250.038,283.829,244.984,279.205z M243.628,261.717
		c-6.822-7.486-13.114-15.702-19.844-23.265C226.886,247.745,234.599,257.648,243.628,261.717z M205.868,276.962
		c-8.065-11.685-14.953-24.622-21.407-37.283C186.979,253.275,195.017,268.269,205.868,276.962z M112.281,191.857
		c-5.292-21.204-7.159-43.028-7.62-64.844c-1.765,10.503-1.814,21.253-0.903,31.845c0.968,11.345,3.336,22.71,7.466,33.335
		c0.887,2.105,1.838,4.183,2.806,6.239c-0.364-1.478-0.749-2.94-1.15-4.397L112.281,191.857z M247.47,345.17
		c0.344,4.013,1.033,7.717,1.539,11.649c0.514,3.474,1.109,8.183,1.83,11.62C253.435,361.054,252.123,351.482,247.47,345.17z
		 M184.959,135.099c-15.981-3.729-34.44-6.871-40.376-24.5c-3.486-10.543-1.433-22.188,1.842-32.63
		c2.802-8.717,6.729-17.119,11.26-25.091c4.102-7.284,4.652-16.2,2.992-24.209c-2.356-11.73-10.349-22.791-21.937-26.772
		c-11.377-3.838-24.496-1.652-34.545,4.737c-7.636,4.984-12.701,13.208-14.73,21.978c-0.619,2.701-1.041,5.365-1.113,8.138
		L0,120.021l105.159-62.05c0.251,0.158,0.506,0.308,0.781,0.453c3.3,1.684,6.648,1.697,10.09,1.45
		c0.146-0.016,0.279-0.036,0.425-0.053c-3.774,7.665-12.637,27.589-16.973,53.45c-3.28,19.528-3.381,38.586-0.3,56.661
		c3.842,22.609,12.697,43.712,26.314,62.714l8.223,11.471l-5.11-13.159c-0.049-0.142-3.879-10.134-5.154-21.35
		c4.47,12.9,14.321,31.918,35.1,42.417l9.466,4.778l-7.381-7.612c-0.113-0.121-10.665-11.187-12.564-27.083
		c6.138,6.831,19.317,22.431,27.658,39.206l3.494,7.005l-0.105-7.827c0-0.065-0.061-4.543-0.089-12.394
		c4.932,12.572,15.738,32.958,36.87,45.137l5.466,3.15l-3.008-5.551c-0.028-0.057-2.701-5.013-6.158-14.341
		c1.992,1.199,4.535,2.842,7.199,4.855c1.239,3.689,2.587,7.276,3.903,10.875c2.749,7.515,5.498,15.058,7.551,22.763
		c1.247,5.166,2.648,10.365,1.786,15.56c-0.672,2.393-1.454,4.923-1.81,7.422c-0.664,4.142-0.814,8.402-0.279,12.6
		c0.607,4.51,2.061,9.001,4.365,12.961h-0.004c0.028,0.227,2.377,23.621,3.907,47.526c2.794,43.587,0.458,50.186-0.393,51.166
		c-1.701,0.83-4.753,1.093-8.28,1.393c-10.151,0.87-25.48,2.178-37.331,18.443l-2.701,3.709l4.498-0.907
		c0.073-0.012,3.875-0.777,8.029-1.551c-1.583,1.158-3.093,2.308-4.506,3.389L193.976,490l5.304-0.142
		c6.818-0.292,12.969-2.207,19.402-3.879c7.786-2.077,15.382-4.628,23.225-6.073c4.628-0.684,9.252-0.049,13.892,0.595
		c7.454,1.158,14.88,3.114,22.067,5.365l-1.271-3.381c-4.421-12.005-9.223-13.487-19.293-19.573
		c-0.429-0.255-0.494-0.356-0.786-0.672c-1.664-2.255-2.3-5.312-2.935-8.142c-0.83-4.065-1.308-8.256-1.66-12.459
		c-1.255-16.852-0.879-33.958,0.81-50.77c0.583-5.235,1.255-10.426,2.571-15.487c0.915-3.033,1.822-6.442,2.178-9.584
		c0.579-4.409,0.372-8.98-0.624-13.325c-1.935-8.519-6.377-15.742-7.891-24.273c-2.223-11.114-2.531-22.666-1.806-33.987
		c5.697,5.814,14.062,12.195,24.156,13.532l3.486,0.449l-1.684-3.089c-0.02-0.032-1.652-3.057-2.409-7.705
		c4.924,2.713,15.001,7.393,26.027,7.393c3.178,0,6.442-0.401,9.677-1.336c1.194,0.243,2.393,0.466,3.599,0.664
		c6.333,3.357,13.252,5.337,20.569,5c16.431,16.123,39.165,25.925,62.22,26.051C380.069,211.494,299.37,158.032,184.959,135.099z
		 M89.295,40.763c1.611,3.757,4.62,6.296,8.357,7.102L32.926,93.897L89.295,40.763z M48.077,87.504l53.025-37.712
		c0.049,1.964,0.53,3.907,1.514,5.531L48.077,87.504z M247.094,335.295c1.899,6.053,4.964,11.904,6.28,17.961
		c1.397,5.976,0.984,12.22-0.64,18.123c-0.555,1.919-1.263,4.32-1.64,6.284c-2.478,12.718-3.118,25.634-3.421,38.517
		c-0.146,8.58,0,17.159,0.692,25.755c0.619,6.507,1.198,13.106,3.563,19.342c0.652,1.616,1.786,3.701,3.458,4.652l1.385,0.862
		c3.701,2.296,7.596,4.085,10.394,6.746c1.996,1.863,3.474,4.247,4.689,6.851c-9.122-2.514-18.41-4.494-27.925-4.3
		c-8.98,1-17.564,4.243-26.193,6.45c-3.859,1.004-7.867,2.158-11.859,2.919c1.915-1.279,6.357-3.919,6.357-3.919
		c1.158-0.664,2.32-1.324,3.486-1.96c5.409-2.891,10.657-5.656,16.795-6.855c-7.636-1.765-15.588,1.413-22.719,5.749
		c-3.049,0.433-7.592,1.271-11.05,1.935c10.329-11.41,22.553-12.45,31.703-13.236c4.13-0.352,7.385-0.632,9.693-1.814
		c1.923-0.988,5.494-2.822,2.32-53.284c-1.085-17.244-2.612-34.416-3.434-43.089c1.057,1.085,2.215,2.093,3.466,2.976
		c-1.559-3.761-3.316-7.248-4.838-10.94c-4.207-10.175-5-19.204-1.526-29.727c1.061-5.77-0.482-11.75-1.818-17.216
		c-2.535-9.6-6.154-18.872-9.519-28.193c5.142,4.842,9.693,10.936,10.527,17.779l0.83,6.685l2.591-6.211
		c0.15-0.352,2.988-7.231,3.539-15.459c0.478,0.599,1,1.235,1.563,1.899c-0.745,8.515-0.802,16.957-0.158,25.468
		C244.207,322.532,245.163,329.039,247.094,335.295z M383.146,320.682c-1.935-11.487-4.583-22.852-7.956-34.011
		c-3.417-11.13-7.515-22.18-13.451-32.254c-1.98-3.348-4.166-6.588-6.644-9.572c7.741,13.382,12.823,27.938,17.103,42.712
		c3.984,14.07,7.114,28.436,9.636,42.846c-1.636-0.3-3.272-0.636-4.895-1.02c-0.263-2.624-0.656-5.211-1.101-7.79
		c-1.826-9.515-3.992-19.107-8.515-27.759c1.344,10.187,4.523,23.953,6.632,34.788c-11.418-3.077-22.305-8.24-31.833-15.183
		c-7.094-5.187-13.386-11.438-18.686-18.455c-5.345-7.114-9.604-14.985-14.309-22.536c1.684,9.029,5.972,17.329,11.292,24.747
		c1.964,2.786,4.102,5.45,6.381,7.984c-2.029-0.255-4.045-0.664-5.996-1.223c-19.828-6.106-32.181-23.966-44.745-39.287
		c2.98,8.879,8.466,16.629,14.6,23.609c2.964,3.365,6.272,6.62,9.871,9.523c-3.794-1.215-7.515-2.632-11.151-4.259
		c-22.593-10.151-38.408-27.873-51.247-48.696c2.178,7.936,6.373,15.208,11.268,21.779c1.142,1.531,2.328,3.016,3.555,4.482
		c-1.599-0.486-3.178-1.065-4.701-1.729c-18.787-8.981-29.221-27.917-40.267-44.684c3.045,11.807,9.507,22.472,17.244,31.816
		c-1.166-0.47-2.316-0.98-3.438-1.535c-7.069-3.466-13.228-8.758-18.67-14.422c-8.268-8.802-15.123-18.803-21.16-29.29
		c-3.988-7.057-7.839-14.159-12.301-21.152c2.385,12.236,8.6,23.265,15.013,33.817c8.916,13.961,19.99,27.674,35.327,34.825
		c3.247,1.478,6.697,2.587,10.236,3.215c7.377,7.244,16.556,13.009,26.974,13.864c11.143,11.616,25.144,20.516,40.481,25.354
		c-14.479,0.356-27.966-8.507-28.124-8.616l-2.923-1.956l0.146,3.514c0.162,3.927,1.02,7.207,1.798,9.45
		c-15.584-4.029-26.496-21.237-26.61-21.423l-3.927-6.288l0.636,7.389c0.429,5.033-0.474,10.122-1.429,13.835
		c-6.199-15.471-26.581-25.601-27.553-26.079l-3.879-1.895l1.409,4.077c2.012,5.875,3.863,10.43,5.28,13.645
		c-25.937-18.236-33.46-50.154-33.541-50.494l-3.498-15.426l-0.02,15.819c-0.016,6.883,0.004,12.507,0.032,16.548
		c-11.564-20.164-28.035-37.117-28.217-37.303l-3.061-3.134v4.385c0,11.357,4.312,20.759,8.126,26.861
		c-24.18-17.358-28.764-48.061-28.808-48.397l-1.656-11.766l-1.879,11.73c-1.336,8.329,0.04,17.621,1.729,24.767
		c-23.439-38.91-23.362-78.845-18.747-106.446c4.786-28.65,15.216-49.854,17.775-54.746c1.62-0.3,3.215-0.717,4.778-1.336
		c5.972-2.207,11.815-8.159,10.495-14.961c-1.065,8.681-9.879,11.709-17.374,12.969c-7.563,1.369-16.086,0.591-13.532-9.402
		l0.907-2.98l-3.004,0.684c-5.567,1.429-9.896-1.425-11.139-6.993c0-1.158,0.466-5.685,1.053-7.778
		c1.826-7.928,6.369-15.366,13.236-19.84c8.972-5.729,21.2-7.814,31.371-4.34c10.43,3.6,17.483,13.544,19.633,24.144
		c1.369,6.656,1.097,13.746-1.692,19.937c-1.939,3.802-4.166,7.503-5.952,11.382c-5,10.507-9.049,21.613-10.122,33.323
		c-0.822,8.778,0.587,18.394,5.871,25.788c5.166,7.458,13.665,12.066,22.111,14.515c5.579,1.656,11.179,2.927,16.763,4.231
		c33.363,7.393,66.791,16.171,97.186,32.015c64.042,32.14,99.988,90.558,107.467,160.799c-1.393-0.142-2.778-0.316-4.162-0.522
		C384.239,327.452,383.705,324.075,383.146,320.682z M318.335,298.672c-7.98-6.235-15.564-13.272-23.476-19.589
		C299.475,287.72,308.747,296.178,318.335,298.672z M265.594,298.542c-1.777-1.701-3.583-3.17-5.292-4.778
		c-5.085-4.543-10.264-9.936-15.317-14.56C248.414,287.772,256.658,295.955,265.594,298.542z M250.839,368.439
		c2.595-7.385,1.283-16.957-3.369-23.269c0.344,4.013,1.033,7.717,1.539,11.649C249.523,360.293,250.119,365.001,250.839,368.439z
		 M243.628,261.717c-6.822-7.486-13.114-15.702-19.844-23.265C226.886,247.745,234.599,257.648,243.628,261.717z M205.868,276.962
		c-8.065-11.685-14.953-24.622-21.407-37.283C186.979,253.275,195.017,268.269,205.868,276.962z M112.281,191.857
		c-5.292-21.204-7.159-43.028-7.62-64.844c-1.765,10.503-1.814,21.253-0.903,31.845c0.968,11.345,3.336,22.71,7.466,33.335
		c0.887,2.105,1.838,4.183,2.806,6.239c-0.364-1.478-0.749-2.94-1.15-4.397L112.281,191.857z M260.302,293.765
		c-5.085-4.543-10.264-9.936-15.317-14.56c3.429,8.568,11.673,16.75,20.609,19.338C263.816,296.842,262.01,295.372,260.302,293.765z
		 M112.88,194.036l-0.599-2.178c-5.292-21.204-7.159-43.028-7.62-64.844c-1.765,10.503-1.814,21.253-0.903,31.845
		c0.968,11.345,3.336,22.71,7.466,33.335c0.887,2.105,1.838,4.183,2.806,6.239C113.666,196.955,113.281,195.493,112.88,194.036z
		 M294.859,279.083c4.616,8.636,13.888,17.095,23.476,19.589C310.354,292.437,302.771,285.4,294.859,279.083z M223.784,238.452
		c3.101,9.292,10.815,19.196,19.844,23.265C236.806,254.231,230.514,246.016,223.784,238.452z M130.326,24.087
		c-1.796,0.934-3.756,0.744-5.046,0.445c-0.995-0.628-2.139-1.042-3.382-1.168c-4.279-0.421-8.102,2.713-8.52,6.992
		c-0.146,1.436,0.119,2.846,0.723,4.116c0.075,1.976-1.022,3.239-1.087,3.314c1.287-0.727,2.52-0.679,3.368-0.492
		c1.144,0.886,2.513,1.436,3.986,1.579c0.255,0.027,0.52,0.044,0.778,0.044c1.796,0,3.521-0.618,4.93-1.773
		c1.606-1.321,2.604-3.189,2.808-5.26c0.024-0.255,0.037-0.506,0.037-0.75c0-0.893-0.156-1.749-0.431-2.557
		C128.557,25.937,130.326,24.087,130.326,24.087z M127.097,31.707c-0.156,1.596-0.924,3.032-2.163,4.044
		c-1.233,1.019-2.791,1.494-4.391,1.338c-0.669-0.068-1.307-0.241-1.898-0.513c0.221,0.058,0.448,0.098,0.683,0.122
		c2.516,0.251,4.757-1.593,5.009-4.116c0.014-0.143,0.024-0.282,0.024-0.431c-0.567,0.472-1.324,0.73-2.115,0.652
		c-1.569-0.156-2.72-1.552-2.564-3.114c0.085-0.839,0.516-1.552,1.138-2.014c-0.19-0.048-0.394-0.078-0.598-0.102
		c-2.516-0.244-4.757,1.599-5.009,4.109c-0.007,0.092-0.014,0.183-0.017,0.275c-0.068-0.465-0.081-0.944-0.034-1.423
		c0.163-1.596,0.93-3.032,2.163-4.051c1.087-0.886,2.414-1.362,3.8-1.362c0.197,0,0.394,0.007,0.594,0.031
		C125.012,25.479,127.419,28.413,127.097,31.707z"/>
</g>
</svg>
