<?xml version="1.0" encoding="utf-8"?>
<!-- Generator: Adobe Illustrator 28.3.0, SVG Export Plug-In . SVG Version: 6.00 Build 0)  -->
<svg version="1.1" id="buffalo" xmlns="http://www.w3.org/2000/svg" xmlns:xlink="http://www.w3.org/1999/xlink" x="0px" y="0px"
	 viewBox="0 0 490 348.9" style="enable-background:new 0 0 490 348.9;" xml:space="preserve">
<style type="text/css">
	.st0{fill:#844C30;}
	.st1{fill:#66341E;}
	.st2{fill:#AD704E;}
	.st3{fill:#FFFFFF;}
	.st4{fill:#231F20;}
</style>
<g id="buffalo_00000052820604087188616440000004359001490614716057_">
	<path class="st0" d="M485.1,160.5l0.2,0l0-0.2c-0.4-2.1-0.9-4.2-1.3-6.3c-0.6-2.5-1.2-5.1-1.6-7.7c-0.9-6.2-0.8-13.1,0.6-21.6
		c0.5-3.5,0.8-6.9,1-10.2c0.9-17.8-6-33.8-19.4-45.1c-1.7-1.5-3.6-3-5.5-4.4l-0.4-0.3l0,0.4c0,0.5,0.1,1,0.1,1.5l0,0.2
		c1.1,19.5-4.3,34.5-4.4,34.7l-0.3,0.8l-0.8,0.2c-6.4,1.8-11.6,1.4-15.4-1.4c-5.4-3.9-5.9-10.8-5.9-11.6l0-0.6l0.4-0.5
		c6.4-8.5,9.2-18.8,8.4-30.6l0-0.1l0,0c-3.4-4.4-8.5-6.1-12.2-6.6l-0.5-0.1l0.3,0.4c1.5,1.8,3.3,3.9,4.7,5.6l1.5,1.8l-6-2
		c-2.3-0.7-4.5-1-7.3-1.3c-1.1-0.1-2.2-0.2-3.5-0.3l-0.5,0l3.7,4c2.1,2.3,4.3,4.7,5.9,6.4c-0.2-0.1-0.5-0.2-0.7-0.3
		c-3.8-1.8-7.9-3.8-8.5-3.9c-5.9-2-12.6-1.6-18.6,0.9c-1.3,0.6-2.6,1.2-3.9,2l-0.3,0.2l0.2,0.2c6.4,4.7,14.2,8,21.7,11.2
		c1.1,0.5,2.1,0.9,3.2,1.3c-0.7,0-1.6-0.1-2.6-0.2c-3.7-0.2-8.7-0.6-10.5-0.4c-3.7,0.3-7.2,1-10.2,2.3c-3.8,1.6-7,4.1-9.3,7.2
		l-0.1,0.2l0.2,0.1c3.1,1.8,6.9,2.8,10.8,2.9c2.2,0.2,6.5-0.4,10-0.9c0.9-0.1,1.7-0.2,2.4-0.3l-6.6,4.6c-5.2,3.9-9.8,9.6-13.5,17
		c-0.4,0.8-0.8,1.6-1.2,2.3c-0.6,1.3-1.3,2.5-2,3.9c-0.2-4.5,1.1-9.3,4.1-14.4c1.7-3,3.7-5.7,5.9-8l0.3-0.3l-0.4,0
		c-5.2-0.4-9.8-2.2-13.2-5.2l-1-0.9l0.7-1.2c3.8-6.5,10.7-10.9,19.5-12.3l0.6-0.1l-0.5-0.3c-3.7-1.9-7-3.9-10-6
		c-1.1-0.7-2.4-1.9-3.5-2.8l-0.3-0.3l1.7-1.2c4.1-3,9-5.1,14-5.9l0.2,0l-0.1-0.2c-4.2-13.8-17.2-24.7-22.6-28.8l-0.3-0.2v19.7
		l-3.2-8.7C375,28.4,365.5,23,360.1,20.8l-0.4-0.1l4.5,21.8l-5.4-9.9c-8-14.6-20.5-18.3-27.2-19.2l-0.4-0.1l7.6,14.2l-5.2-3.2
		c-0.1,0-7.1-4.1-24.7-3.8c-16.2,0.3-44.9,4.7-89.5,23.3C159.1,68.9,118.7,77.2,100,79.9L99,80l0.9,0.3c5.6,1.5,10.2,3.5,14.2,6.1
		c-1.6-0.3-3.3-0.7-5.1-1.1c-5.8-1.2-12.5-2.6-17.5-3.3C79,80.3,61,80.3,46.1,90c-5,3.1-9.6,7.5-13.8,13c-9,12.6-15.2,27.6-18,43.5
		c-2.8,15.8-2.1,32.1,2,47.1l0.1,0.5l0.2-0.5c2-4.4,4.6-10.3,7-15.6c1.8-4,3.4-7.6,4.4-9.9l-0.3,8.5c-0.2,11.9,0.1,29.2,5.5,42.5
		l0.2,0.6l0.1-0.6c1.6-6.5,4-16.7,4.7-19.6c7.3,11.6,11.5,22.3,12.9,32.8c0.7,6,0.3,11.3-1.3,16c-0.1,0.4-0.3,0.8-0.4,1.2
		c-0.2,0.8-0.5,1.5-0.7,2.3c-0.7,2.7-1,5.1-1,7.2c-0.1,3.6,0.7,7.2,2.4,10.3c0.9,1.7,2,3.4,3.1,5c1,1.5,2.1,3.1,3,4.8
		c6.8,12.9,10.7,25.8,11.6,38.2l0,0.2l0.2,0c3.6-0.4,9.3-0.6,15.6,0.5c3.8,0.7,7.4,1.7,10.8,3.2l0.7,0.3l-0.4-0.6
		c-13.4-18.1-18.3-39.8-20.1-54.8c-0.5-3.3,0.1-6.8,1.7-9.6c0.6-1.1,1.4-2.1,2.2-3.1c0.5-0.6,1-1.2,1.5-1.8c2.2-3,3.8-6.5,4.7-10.1
		l1.9-7.4l3.3,18l0.3-0.3c6.1-7.5,9.5-17.7,10.7-32c0-0.6,0.1-1.3,0.1-1.9c0.2-3.4,0.5-7,1.2-10.4c1.7,4.4,2.4,10,1.9,16.3l0,0.6
		l0.4-0.5c4-4.7,6.7-10.9,7.9-17.9c1.1-5.8,0.7-11.4,0.4-17.3c-0.2-2.8-0.3-5.6-0.4-8.5c1.8,3.3,3.1,7,3.7,11.4l0.1,0.7l0.3-0.6
		c4-9,4.6-20.1,1.7-30.5c-0.3-1.1-0.6-2.1-0.9-3.2c-0.8-2.9-1.7-5.8-2.3-9c5.1,5.1,7.1,12.2,8.3,17.9c1.9,9.6,0.6,19.3-3.7,27.2
		c-0.8,1.6-1.7,2.9-2.6,4.1l-0.1,0.2l0.2,0.1c7.8,4.4,45,24,90,24c5.8,0,11.8-0.3,17.9-1.1l0.5-0.1l0.4,0.2
		c4.2,1.9,3.8,7.2,2.7,11.3l-0.1,0.4l0.4-0.2c5.4-2.5,9.3-6.3,9.5-6.5l6.6-6.6l-3.9,8.5c-3,6.6-0.5,11.3,1.2,13.6l0.1,0.1l0.2-0.1
		c6.4-4.1,7.9-8.8,8-9.3l3.3-12.2l0,12.6c0,5.5,1.1,9,2,11l0.2,0.4l0.2-0.4c2.3-4.8,6.1-7.8,8.2-9.2l0.1-0.1l0-0.1
		c-3.5-11-4.2-24-2.1-37.6c0.5-3.3,1.1-6.4,1.8-9.4l0.2-0.8l-3.9,4.7c-3,3.6-5.8,7-6.7,8.2c-2.9-10.9-3.6-23.3-2.2-38.8
		c0.1-1,0.2-2,0.3-3l0.1-0.9l-0.5,0.7c-2.3,3.6-4.6,7.3-6.8,10.7c-5.1-10.4-7.5-20.3-7-29.4c0.5-9.8,3.7-18.1,9.2-23.4
		c-6.8,14.8-7.3,29.2-1.7,44l0.1,0.4l0.2-0.3c2.6-3.9,5.2-7.7,7.7-11.2l4.8-6.8l-1.7,8c-0.6,3.5-1,7.2-1.4,11.5
		c-0.8,8.5-0.9,16.1-0.3,23.1c0.2,2.6,0.5,5.1,1,7.5l0.1,0.4l7.7-9.3c3.7-4.5,7.4-9,9.7-11.8l-3.1,8.8c-1.8,5.3-3.2,11.2-4.2,17.5
		c-2.1,13.5-2.4,32.8,7.6,48.4l0.2,0.3l9.6-28.7c-0.1,0.8-0.1,1.8-0.2,2.9c-0.4,5-0.8,11.8-0.7,13.2c0.1,3,0.4,6.1,1,9.3
		c1.5,8.2,4.6,16,9,23.2c1.5,2.5,3.3,5,5.3,7.5l0.2,0.3l0.1-0.4c1.1-3.5,2.6-8.1,4-12.6c1.4-4.6,2.8-9,3.8-12c0,0.8,0.1,1.6,0.1,2.5
		c0.2,5.1,0.4,11.5,1.2,15.5c1.8,9.6,6.2,22.5,17.1,29c7.4,3.9,11.3,12.5,9.9,21.5l0,0.3l0.3,0c5.1-0.5,10.2-0.3,15.1,0.5
		c4.9,0.8,9.4,2.4,13.7,4.5l0.7,0.4l-0.4-0.6c-0.9-1.2-2-2.9-3-4.6c-8.4-13.6-16.7-29.9-15-47.4l0.6-4.9c1.7,1.9,4.8,5.6,7.3,8.5
		l0.2,0.3l0.1-0.4c2.5-9.3-0.4-16.3-4.1-25.1c-0.4-1.1-0.9-2.2-1.4-3.3c-2-5-3.8-10.6-5.6-16.9c-1.3-4.9-2.6-10.7-2.1-16.5
		c0.8,3,3.2,11.9,4.5,16.5c0.1,0.5,0.4,1.1,0.7,1.8c0.3,0.6,0.5,1.2,0.7,1.6l0.1,0.4l0.2-0.4c2.4-3.8,4.9-9.8,6.5-13.4
		c4.4-10.3,6.1-21.6,5.1-32.7c-0.3-2.6-0.7-5.2-1.1-7.8c-0.4-2.7-0.9-5.6-1.1-8.5c5.3,6.7,6.1,16.2,6.3,24.7c0,0.1,0,0.2,0,0.3
		c0,0.1,0,0.2,0,0.3v0.6l0.4-0.5c2.2-3,4.1-6.2,5.5-9.2c3.2-7,5-15.1,5.3-23.6c0.2-5.4-0.4-10.5-1.1-15.9c-0.3-2.6-0.6-5.3-0.9-8.1
		c2.6,4,4.3,9.1,5.1,15.4c2.1,15.4-1.3,30.4-9.3,41.3c-1.7,2.3-3.6,4.4-5.2,6.1l0,0l0,0.1c-0.3,2.4-1.3,4.7-2.4,6.9
		c-0.7,1.5-1.4,3-1.8,4.5c-2.5,8.1-7.2,17.2-12,23.2l-0.1,0.1l0,0.1c0.3,0.9,1.3,2.1,2.2,3.3c0.9,1.1,1.7,2.2,2,2.9l0.2,0.4l11.8-24
		l0.5,14.1l0.3-0.4c6.6-8.4,9.8-19.5,9.9-19.6l2.1-7.4l1.7,11.4l0.3-0.4c6.3-8.9,9.7-23,9.8-23.1l2.1-8.5l2.6,18.7l0.3-0.3
		c5.5-5.7,5.9-14.1,5.9-16.6l0-0.1l-0.1-0.1c-2.4-2.6-4.4-5.5-6-8.5c-5.2-9.8-7.4-25.6-1.3-35.9c0,0.9,0,1.9-0.1,2.8
		c-0.1,3.8-0.2,7.3-0.1,10.9c0.2,12.6,5.7,24.3,15.4,32.9l0.4,0.3l0-0.5c-0.2-4,0.3-7.8,1.5-11.2l2.3-6.6c0,0.2,0.1,0.5,0.1,0.7
		c0.3,2.7,0.9,7.1,1.1,8.3c2.1,9.2,7.7,17.6,15.6,23.6l0.3,0.2l1.1-16.3c0.2,0.5,0.4,1.2,0.6,1.8c1,3.1,2.4,7.3,2.9,8.3
		c1.6,3.6,3.8,6.9,6.5,9.8c0.6,0.7,1.4,1.5,2.4,2.4l0.1,0.1l0.1-0.1c0.8-0.6,1.5-1.3,2.2-2.2c1.2-1.5,2.1-3.8,2.8-5.8
		c0.2-0.6,0.4-1.1,0.6-1.7c3.3,5.6,6.3,11.7,5.9,18.3l-0.1,0.9l0.4-0.3c4.6-3.9,7.2-10.6,7.3-18.4c0-6.8,2.9-13,7.6-16.6l0.4-0.3
		l-1.5-0.1c-6.1-0.7-11.8-1.7-15.3-5.9c-1.3-1.6-1.8-3.3-1.6-4.8c3.5,5.7,13.1,7,17.2,7.4c5.6,0.3,14.1,0.8,17.9-4.2
		c0.2-0.3,0.3-0.5,0.4-0.7l0.1-0.1l-0.1-0.1c-3.8-5.1-5.2-8.9-4.2-11.4C481.2,161.6,483.4,160.8,485.1,160.5z M451.6,124.1
		c-0.2-1.3-0.6-3.1-1.9-4.5c1,0.3,2.8,0.6,4.7,0.1l0.1,0c1-0.9,2.2-1.5,3.5-1.8c4.7-1.1,9.5,1.8,10.7,6.5c0.4,1.6,0.3,3.4-0.3,5l0,0
		l0,0c0.1,0.8,0.4,1.8,1.3,2.8c-0.7-0.1-1.9-0.2-3.2,0.2l0,0l0,0c-1.2,1.2-2.6,2.1-4.2,2.4c-0.7,0.2-1.4,0.2-2.1,0.2
		c-4.1,0-7.6-2.8-8.6-6.7C451.2,127.1,451.2,125.6,451.6,124.1L451.6,124.1L451.6,124.1z M347.8,222.3c0.3-1.4,0.6-2.8,0.9-4.3
		c2.3-11.5,4.7-23.4,6.1-35.4c0.2,0.9,0.3,1.8,0.4,2.6l0,0.1C356.5,198.5,353.8,211.9,347.8,222.3z M296.4,267.2
		c-0.5-0.7-1.1-1.5-1.6-2.2c-7.1-11-10.5-24.5-9.5-37.1c0.4,1.5,0.7,3,1.1,4.6C289.1,243.9,292,255.8,296.4,267.2z M256.9,169.5
		c0.1-1.3,0.2-2.7,0.2-4c0.2-3.5,0.6-7,1-10.1c0.3-3,0.8-6.2,2.1-9.3c0.6,3,0.6,6,0.5,9.5l0,1.1c-0.1,2.9-0.2,6-0.4,8.9
		c-0.1,1.6-0.3,3.1-0.4,4.7c-0.3,4.9-0.7,9.9-2.4,14.7C256.3,179.9,256.6,174.6,256.9,169.5z M116.1,183.6
		c-0.9-3.1-1.4-7.1-1.8-10.7c-0.1-1.2-0.3-2.3-0.4-3.3c-0.1-1.3-0.2-2.5-0.4-3.7c-0.4-3.5-0.8-6.9-0.5-10.5
		C117.3,161.8,118.2,176,116.1,183.6z M92.2,243.6c0-3.3,0.7-7.2,1.3-10.7c0.2-1.2,0.4-2.3,0.5-3.3c0.3-1.3,0.5-2.5,0.7-3.8
		c0.6-3.5,1.2-6.8,2.5-10.1C99.5,223,96.4,236.9,92.2,243.6z M23.9,130.3c-3.9,13.1-6,27.3-6.4,42.2c-0.1,1-0.1,2-0.1,3.1
		c-0.1,3.4-0.3,6.8-0.7,10.3c-1-4.3-1.6-8.8-1.7-13.4c-0.3-15.7,1.8-30.1,6.4-43l0-0.1c2.1-5.8,4.3-11.8,8.8-16.2
		c-0.8,2.5-1.8,4.9-2.7,7.2C26.2,123.5,24.9,126.9,23.9,130.3L23.9,130.3z"/>
	<g>
		<path class="st1" d="M439.6,104.9c2.6,1.1,5.4,1.7,8,1.7c1,0,2-0.1,3-0.3c3.4-0.7,5.9-2.4,6.9-4.9c2.2-5.2-2.3-12-10-15.3
			c-7.7-3.2-15.7-1.7-17.9,3.5c-1.1,2.5-0.6,5.5,1.3,8.4C432.8,100.8,435.9,103.3,439.6,104.9z"/>
		<path class="st1" d="M472.7,133.6c0,0-1.7-4.4-1.5-6.2c0.4-4.1-1.6-7.8-3.7-9.7c-2.6-2.3-6.4-3.2-9.8-2.4
			c-0.9,0.2-1.8,0.5-2.7,0.9c-1.6,0.6-3.2,1.2-4.8,1c-0.8-0.1-1.6-0.1-2.3-0.1c-0.6,0-1.2,0-1.8-0.1l-0.4,0l0.3,0.3
			c1.4,1.8,2.1,3.6,2.6,5.7c0.2,1,0.3,1.9,0.4,2.8c0.1,1.5,0.2,3.1,1.1,5.4c1.6,4,5.6,6.5,9.9,6.5c1.2,0,2.4-0.2,3.6-0.6
			c0.8-0.3,1.8-0.8,2.9-1.3c0.6-0.3,1.2-0.6,1.7-0.8c1-0.4,4.5-1.3,4.5-1.3l0.2-0.1L472.7,133.6z"/>
		<path class="st1" d="M467.4,183.3L467.4,183.3L467.4,183.3l-7.2-2.2l-7.6-3.8l-2-2.4l-1.6-3.2l-0.1,0.5c0,0.1-1,3.3,1.2,6.7
			c2.3,3.6,7,6,14.1,7.1c-1.9,1.9-4.3,4.9-6,9.2c-0.7,1.9-0.9,4.3-1,6.7c-0.1,1.7-0.2,3.4-0.5,4.7c-0.4,1.7-1.9,4.5-2.5,5.6
			c-0.5-1.6-2.5-7.3-3.3-8.8c-1.9-3.4-5-9.2-5-9.3l-0.2-0.4l-0.1,0.4c0,0.1-1.7,5.2-5,10.2c-1.3-1.3-10.1-10.5-13.1-23.1l-0.2-1
			l-2.8,17.9c-1.8-1.3-12.2-10.1-13.8-32.4l0-0.6l-0.3,0.5c-0.1,0.1-5.1,8.3-7.1,16.3c-1.8-1.4-13-11.7-12.6-40.5l-0.4,0l-2.6,19.4
			l3.8,13.6l15.9,18.7l1.2-11.2l6.5,11.8l14.3,14.3l0.3-11l10.5,15.3l6.5-6.9l2.5,5.3l1.6,10.6l6-4.2l0,0l5.7-13.4l1.1-11.1l3.3-7.3
			l2.4-1.5L467.4,183.3z"/>
		<path class="st1" d="M362.9,319.2c-6.7-4.2-17.8-5.8-25.2-5.9c0-0.1,0-0.4,0-0.7c0-2.2-0.2-8.1-5.3-14.5c-1.8-2.3-3.9-3.5-6.2-4.9
			c-3.8-2.3-8.1-4.9-11.7-12.8c-6.2-13.6-8-27.1-8.5-32.3c0-0.5-0.1-0.6-0.2-0.6l-0.2,0l0,0.2c-1.8,13.7-0.8,24.1,3.2,32.8
			c3.6,7.9,9.8,14.7,20,21.9c5.6,4,4.4,10.7,4.3,10.9l-2.3,8.6l36,5.3L362.9,319.2L362.9,319.2z"/>
		<path class="st1" d="M96.5,318.5c-7.9-4.9-20.5-5.7-25.6-5.1c-0.1-0.2-0.2-0.8-0.3-1.5c-0.6-2.9-2-9.7-4.5-16.9
			c-3.8-10.9-7.1-16.6-9.8-21.1c-2.4-4.1-4.1-7-5-11.8c-0.9-5-0.1-8,0.9-11.5c1.5-5.3,3.2-11.4-0.9-26.8c-2.3-8.3-5.6-14.6-8-18.4
			c-2.3-3.7-4.7-6.5-5-6.5c0,0,0,0,0,0l-0.1,0l-0.1,0.1c-0.1,0.2,0,0.5,1,2.6c2.4,4.8,7.9,15.9,9.9,30.1c0.7,4.8-0.1,10.2-1,15.8
			c-1,6.7-2.1,13.5-0.5,19.7c1.8,6.9,5.5,12.9,8.8,18.1c2.7,4.4,5.3,8.6,6.5,12.7c2.4,8.9,4,14.8,4.1,15.4l-2.3,8.6l36,5.3
			L96.5,318.5L96.5,318.5z"/>
		<path class="st1" d="M394.7,184.1c0,0.1-0.4,6.6-1.7,9.6l-4.1-15.4l-0.2,0.7c-0.1,0.2-6,20.7-10.6,29.1l-2.7-11.3l-0.2,0.7
			c-0.1,0.2-6.2,19.8-10.5,26.9v-11.8l-9.2,5.5l-9.3,16.1l3.3,10l10.3-16.9l1.6,9.8l7.6-10.2l4.4-11l2.4,4.3l9.5-14.8l2.2-6.9
			l2.1,8.1l6.8-6.4l3.6-13.2l-5.3-3L394.7,184.1z"/>
		<path class="st1" d="M267,180.5l-10.6,14.4l-2-0.9l-1.1-26l1.3-16.5l-4.4,3.5l-4.8,7.7l-4.8-14.4l0.3-20.5l7.3-13.9l-0.8,0.7
			c-0.1,0.1-6.4,5.7-9.9,15.9c-3.3,9.4-4.7,24.8,6.7,44.3l0.2,0.3l2.9-4.9c-0.2,4.2-0.6,24.8,5.5,35.8l0.1,0.3l5.5-6.6
			c-0.5,3.6-2.3,20.5,4.2,32.6c-1.6,1.2-3.9,3.1-5.3,4.9l-2.1-25l-0.3,1c-0.1,0.2-6.9,22.2-11.1,24.3c-0.2-0.2-0.8-0.7-1.1-1.9
			c-0.8-2.8-0.3-8.6,6.5-20.5l0.6-1l-0.9,0.8c-0.1,0.1-12,10.5-16.6,13c0-1.5-0.4-7.2-5.8-9.9l-0.1,0l-0.1,0
			c-0.1,0-12.7,2.4-32.2,0.8c-17.9-1.4-45.6-6.5-75.2-22.8l-0.1-0.1l-4,3.2l16.2,9l37.5,12.2l30.1,4.5l28.1-1.1l1.1,11.3l10.1-5
			l3.8,14.7l9.8-7.4l5.1,10.7l5.9-8.3l4.6-3.4l-2.4-5.2l-0.2,0.1l-1.1-24.3L267,180.5z"/>
		<path class="st1" d="M392.6,95.6c-1.5,1.8-9.7,12.1-5.8,21.3l0.2,0.5l5.7-14.3L403,90.3h-11.4l-6.1-3.7l11.4-9.3l13.3-2.2
			l-21.8-11.3l0.3,0.6c0,0.1,2.9,5.4,7.6,8.3c-2.1,0.7-11,4.3-16,14.4l-0.1,0.1l0.1,0.1C380.4,87.3,385,93.9,392.6,95.6z"/>
		<path class="st1" d="M26.8,206.8L26.8,206.8l0-0.2c-1.2-6.5-1.8-13.5-2-21.4l0-2.5l-2.8,6.1l0,0.1c0.1,5.2,1,50.9-2.9,57.9
			c-1.3,2.4-2.8,4.8-4.3,7.1c-8,12.9-17.1,27.5-7.9,52l0.4,1.1l0.6-1.1c3.4-6,9.4-17.3,11.1-26.6l1.1-6.3l4.1,18.2l0.7-0.6
			c3.7-3.1,11.3-13.1,3-39C23.3,236.5,26.5,209.8,26.8,206.8z"/>
	</g>
	<path class="st2" d="M360.7,73c-1-16.1-9.9-30.7-26.5-43.4c-0.1-0.1-6.2-5.4-20.1-7.6c-12.8-2-34.8-1.8-67.6,10.8
		c-3.8,1.5-7.6,2.9-11.3,4.4C176.1,60.2,125.1,80,80,78.6c-24.5-0.8-46.5,12.8-54.9,33.7c-3.4,8.5-4.1,17.4-2.1,25.9
		c2.2,9.4,7.5,17.8,15.7,25.1c1.4,1.2,2.8,2.4,4.3,3.6c8.8,7.1,18.8,15.2,12.2,34.1l-0.2,0.5l0.5-0.3c0,0,4.4-2.7,7.6-9
		c2.9-5.8,5.5-16,1-31.5c-3.6-12.6-0.7-16.3,0.7-17.4c1.6-1.2,3.8-0.9,6.2,0.6c5,3.3,11.2,13.9,7.5,29.2l-0.2,0.7l0.5-0.5
		c0.1-0.1,5.2-5.2,8.2-13.7c2.8-7.8,4.3-20-4.4-34.1c1.5-0.5,9.8-3.2,20.9-2c11.3,1.2,27.7,6.6,42.3,25.8l0.2,0.2l0.2-0.2
		c0.1-0.1,7.8-10.2,4-25.4c1.4,2.6,3.3,5.8,6,9.2c6.1,7.5,17.5,17.1,37,20.3l1.7,0.3l-1.6-0.7c-0.2-0.1-19.1-8-15.5-24.4
		c0.9-4.2,3.6-7.2,7.5-8.4c4.8-1.5,10.5-0.1,14.6,3.7c3.2,2.9,8.1,9.8,5.2,22.8l-0.1,0.6l0.5-0.4c0.1-0.1,7.8-6.8,19.7-11.2
		c11-4,28-6.8,46.4,2.8c-0.6,1.4-4.8,11.3-2.4,27.1l0.1,0.5l0.3-0.4c0,0,5.7-7.3,12-15.2c-0.6,2.8-2.3,11.8-1.1,22.7
		c1.4,12.2,6.7,29.3,24.5,42l0.5,0.3l-0.2-0.5c0-0.1-1.9-7-0.5-16.7c1.3-9,5.9-22.3,20.2-34.8c10.1-8.9,13.6-19.2,14.7-26.3
		c1.2-7.1,0.3-12.5,0.1-13.3C341.1,122.3,362.4,100,360.7,73z"/>
	<g>
		<path class="st3" d="M355.7,169.2c0,0,6.7,37.1-10.7,59.4l1.4,4.6l8.1-11.4l6-19.4V183L355.7,169.2z"/>
		<path class="st3" d="M371.2,137.8c0,0,5.2,36.1-9.6,54.9v6.1c0,0,11.5-12.4,12.4-21.5c0.9-9.1,1.7-23.4,1.7-23.4L371.2,137.8z"/>
		<path class="st3" d="M114.8,148.4c0,0,6,24,0.5,39.9l0.9,6.8l6.4-15.8l-1.8-18.4L114.8,148.4z"/>
		<path class="st3" d="M112.4,179.5c0,0,1.9,26.9-8.7,41.2v6c0,0,10.9-11,11.4-23.6C115.5,190.5,112.4,179.5,112.4,179.5z"/>
		<path class="st3" d="M102.4,206.8c0,0-3.3,30.2-13.2,42.3l0.4,5.3C89.6,254.4,106.4,235.8,102.4,206.8z"/>
		<path class="st3" d="M340.3,211.1c0,0-4.7,9.3,5.1,32.6c9.7,23.1,6.8,25.5,6.8,25.5l-6.5-4.2c0,0-12.8,24.1,17.4,57.4l-0.5-3.8
			c0,0-18.2-25.9-15.2-43.1l1.5-3l4.7,5.9c0,0,3.2-6.9,2.4-16.8c-0.8-9.9-8.6-24.7-8.6-24.7L340.3,211.1z"/>
		<path class="st3" d="M86.8,233.2c0,0-3.1,12.8-9,19.3c-3.8,4.1-6.9,7-2.9,26.9c4.3,21.3,13.1,35.8,19.8,41.7l3.5,2.2l-15.5-30.2
			l-6-23.7l1-11l5-6.4L86.8,233.2z"/>
		<path class="st3" d="M115.1,86.8c0,0-42.7-8.3-64.1,3.6S21.5,132,21.5,132s-8.1,42.3-4,60.2l-1.2,3.9c0,0-6.8-16.3-4.9-41.4
			s20.2-55.4,20.2-55.4s20.3-22.2,47-19.9C105.2,81.7,115.1,86.8,115.1,86.8z"/>
		<path class="st3" d="M404.9,57c0,0-8.1-12.2-19.8-22l-2.8,13.7c0,0-7.5-19-18.7-22.5l1.1,17.5c0,0-14.3-25.6-28.1-26l2.7,10.3
			c0,0-9.5-9-45.9-2.9c-13.8,2.3-24,2.5-60.9,17s-99.2,38-132.6,38l-3.1-0.8l15.8-3.6c0,0,75.7-18,106.1-33.3s71.1-21.6,71.1-21.6
			s25.5-4.5,43.7,0.8l-4.5-10.3c0,0,22,2.8,31,19.1l-1.8-11.9c0,0,15.3,4.8,21.9,18.5l0.9-11.8c0,0,20.1,10.7,26.6,32.9L404.9,57z"
			/>
		<path class="st3" d="M458.8,65.1c0,0,24.4,20.5,22.6,47.8c-1.4,21.4-4.4,24.5,3.6,47.4l1.8,1.3l-3-19.3l1.1-24.9l0-22.3l-11.3-20
			l-17.1-13.7L458.8,65.1z"/>
		<path class="st3" d="M458.4,119.5c-1.9,0.4-3.4,1.6-4.4,3.2c-1,1.6-1.3,3.6-0.8,5.4c0.8,3.3,3.7,5.5,7,5.5c0.6,0,1.1-0.1,1.7-0.2
			c0.7-0.2,1.4-0.4,2-0.8l2.5-1.5l-2.8,0.8l-0.1,0c-0.1,0-0.1,0-0.2,0.1c-2.6,0.6-5.2-0.9-5.9-3.5c0.7,0.3,1.5,0.3,2.2,0.1
			c0.9-0.2,1.7-0.8,2.3-1.6c0.5-0.8,0.7-1.8,0.4-2.8c-0.2-0.7-0.5-1.3-1-1.8c2.1-0.4,4.2,0.6,5.2,2.6l0.7,1.4v-1.5l0-0.1
			C466.1,120.9,462.3,118.6,458.4,119.5z"/>
		<path class="st3" d="M438.9,35.2c2.7,7.4,4.4,14.7,4.9,21.4l0,0.2c0.9,12.6-2,23.7-8.6,32.9l-0.1,0.1l0,0.1
			c0.2,1.7,1.1,6.1,4.6,8.6c1.7,1.2,3.9,1.9,6.5,1.9c1.6,0,3.3-0.2,5.3-0.7l0.2-0.1l0.1-0.2c1.2-3.6,4.9-16.6,3.9-32.6
			c-1.3-21.3-9.9-38.8-25.7-52l-1.7-1.4l1.1,1.9C433.2,21.8,436.5,28.7,438.9,35.2z"/>
		<path class="st3" d="M342.5,320.7c0,0,24.1,4,38.2,23.3C380.7,344,370.7,321.6,342.5,320.7z"/>
		<path class="st3" d="M76,320.7c0,0,24.1,4,38.2,23.3C114.2,344,104.2,321.6,76,320.7z"/>
	</g>
	<path class="st4" d="M112.9,154.8c4.7,6.5,5.6,22,3.2,29.5c-1.3-4.3-1.8-10.3-2.4-14.7C113.3,164.6,112.4,159.9,112.9,154.8z
		 M21.1,129.4c-4.9,13.8-6.7,28.5-6.4,43.1c0.1,4.9,0.7,9.7,1.9,14.4c0.7-4.8,0.8-9.6,1-14.4c0.4-14.2,2.4-28.5,6.4-42.1
		c1.9-6.1,4.4-11.8,6.5-17.9C25.7,116.9,23.4,123.3,21.1,129.4z M93.9,229.5c-0.7,4.4-1.9,10.3-1.9,14.8c4.4-6.5,7.9-21.7,5.2-29.2
		C95.4,219.8,94.9,224.5,93.9,229.5z M470.4,132.7c-0.1-0.1-1.8-0.7-3.8,0c-1.1,1.2-2.6,2.1-4.3,2.5c-0.7,0.2-1.4,0.3-2.1,0.3
		c-4.1,0-7.8-2.8-8.8-6.9c-0.4-1.5-0.3-3,0-4.4c-0.2-1.5-0.8-3.5-2.4-5c0,0,2.5,1.1,5.3,0.4c1-0.9,2.2-1.5,3.6-1.8
		c4.8-1.2,9.7,1.8,10.9,6.6c0.4,1.8,0.3,3.5-0.3,5.1C468.8,130.4,469.2,131.6,470.4,132.7z M466.7,124.8c-0.9-3.6-4.6-5.9-8.2-5
		c-3.6,0.9-5.9,4.6-5,8.2c0.9,3.6,4.6,5.9,8.2,5c0.7-0.2,1.3-0.4,1.9-0.8c-0.1,0-0.2,0.1-0.3,0.1c-2.8,0.7-5.7-1-6.3-3.9
		c-0.1-0.2-0.1-0.5-0.1-0.7c0.7,0.5,1.7,0.7,2.6,0.5c1.8-0.4,2.8-2.2,2.4-3.9c-0.2-0.9-0.8-1.6-1.5-2c0.2-0.1,0.3-0.1,0.5-0.1
		C463.2,121.6,465.6,122.7,466.7,124.8L466.7,124.8z M489.9,169.5c0.1,9.3-5.7,13-12.8,14.1c0,0.1,0,0.1,0,0.1
		c-2,0.2-3.9,0.8-5.7,1.7c-5.7,2.8-8.3,8.9-8.4,15.2c0,9.4-4.2,20.3-13.6,24.1l-4.8,1.8c1.3-2.4,3.7-5.6,3.7-8.4
		c0.2-3.3-0.7-6.8-2-9.9c-1.6,2.6-3.8,4.9-6.7,5.9c-2.9-2.5-5.6-5.2-7.7-8.4c-0.6-0.8-1.1-1.7-1.7-2.6c-0.2,3-0.4,5.9-0.5,7
		c-8.9-5.3-16.5-13.1-20.4-22.7c-0.1-0.3-0.2-0.6-0.3-0.8c0,2.1,0.2,4.2,0.6,6.2l1,4.7l-3.9-2.8c-2.2-1.3-4.2-2.8-6.1-4.5
		c-0.5,5-2.6,13.1-9.7,18.1l-2.5,1.8l-1.1-7.6c-2.2,6.2-5.8,14.5-10.8,19.7l-2.6,2.7l-0.6-3.9c-2.2,5.2-5.9,12.3-11.2,17.5l-3,2.9
		l-0.4-9.9l-7.5,12.1c0,0,4.4,10.5,5.7,16.5c2,8.1,0.8,13.1-2,20.6l-6.5-7.1c-1,16.3,8.9,37.3,24.2,55.4c4.7,4.1,9.1,9.7,12.7,17.2
		l1.3,2.7h-43.9V347c0-0.1-0.5-8.4-16.2-25.4l-2.1-2.2l3-0.8c0.1,0,1.2-0.3,2.9-0.6c1.6-7.3-1.1-15.4-8-19
		c-11.1-6.6-16.6-19.2-18.8-31.4c0,0,0-0.1,0-0.1c-1.8,5.8-4,12.6-4.3,13.5l-2.2-2.5c-5.8-6.6-10.5-14.1-13.6-22.3
		c-1.9-5.1-3.4-10.3-4.2-15.7c-2,5.9-4.1,12.4-4.5,13.4c-4-4.7-7-9.9-9.2-15.5c-2.3,1.7-6,5.1-7.3,10.2l-0.7,2.9l-2.3-1.9
		c-0.4-0.3-3.4-3-4.6-10.2c-1.7,2.1-4.1,4.4-7.8,6.5l-1.2,0.7l-1-0.9c-2.2-2-5.2-6.7-4.6-12.8c-2.6,1.8-6,3.8-9.9,4.9l-3.8,1.1
		l1.6-3.6c1.2-2.8,2.8-8.7,0.8-10.3c-6,0.7-11.9,1-17.7,1c-43.1,0-79-17.5-90.1-23.6c-0.4,6.2-1.9,12.4-5,17.8
		c-2.1,3.6-4.8,6.9-8.1,9.3c-1,6.1-3,12-5.4,16.6c-2.2,4.1-4.7,8-8.2,11.1l-2.4,2.1l-0.6-3.2l-1.3-7c-0.8,1.7-1.8,3.3-2.9,4.8
		c-1.1,1.6-2.6,2.8-3.5,4.5c-0.8,1.5-1.3,3.2-1.4,4.9c-0.2,1.6,0.3,4,0.5,5.6c0.8,5.8,1.9,11.6,3.5,17.2
		c3.2,11.3,7.9,22.1,14.6,31.7c2.2,3.1,4.6,6.2,7.3,8.8l0,0c5.8,4.3,11.3,10.6,15.6,19.6l1.3,2.7H77.2V347c0-0.1-0.5-8.4-16.2-25.4
		l-2.1-2.2l3-0.8c0.1,0,1.1-0.3,2.6-0.6c-0.8-13-5.1-25.6-11.2-37.1c-1.8-3.4-4.3-6.2-6.1-9.8c-3.3-6.2-3.4-13.3-1.6-20
		c0.3-1.3,0.8-2.6,1.1-3.8c1.6-4.5,1.7-9.5,1.1-14.4c-1.1-8.3-4.1-16.4-8-23.8c-1.7,6.9-4.5,18.6-5,20.7l-2.3-4
		c-1.4-2.5-2.5-5.2-3.4-7.8c-0.6,9.7-0.8,23.7,2.1,32.8c11.4,35.9-6.2,44-6.9,44.3l-2.1,0.9l-1.9-8.4C16.4,298.9,9.2,310.4,8.8,311
		l-1.9,3l-1.4-3.2c-12.1-28.1-1.7-44.9,6.7-58.4c1.5-2.4,2.9-4.7,4.2-7c2.3-4.2,2.8-28.8,2.6-48.4c-1.5,3.4-2.8,6.1-3.1,6.9
		c-12.6-33.3-7.4-72.4,12.6-101.7c0.7-1.1,1.2-1.5,1.9-2.5c1.1-1.6,2.8-3.3,4.1-4.7c13.5-14.5,33.8-19.5,53-17.2
		c6.8-0.4,51.1-3.9,130.7-37.2C286.5,11.9,319,15.8,330.5,19.2l-5.1-9.5l3-0.1c0.8,0,16.5-0.2,28.3,13.5l-1.6-7.6l3,0.8
		c0.6,0.2,13.1,3.8,20.6,14.5v-9.5l2.9,1.9c0.9,0.6,21.7,14.1,27.2,33.5c1.8-0.1,3.5,0,5.2,0.3l-2.1-2.3l-3.1-3.3
		c4.1,0.2,8.7,0.4,12.8,0.9c1,0.1,1.9,0.2,2.9,0.4l-1.8-2.1l-2.6-3.1h4c5.5,0,11.3,1.5,15.7,4.8c-3.6-23-18.7-43.2-18.9-43.5
		L414.3,0l9,5.9c24.3,15.8,32.6,37.2,34.9,54.3c3,1.9,5.9,3.9,8.7,6.2c18.4,15.1,24.1,36,20.3,58.9c-1,6.7-1.6,13.6-0.6,20.3
		C487.8,153.4,490.6,161.4,489.9,169.5z M444.2,56.6c0,0.1,0.1,0.1,0.1,0.2c0,0,0,0-0.1,0.1c0.9,12.6-2,23.8-8.7,33.1
		c0.2,1.6,1.1,5.9,4.4,8.3c2.7,1.9,6.5,2.3,11.4,1.1c1.1-3.5,4.8-16.6,3.9-32.5c-1.3-21.2-9.8-38.6-25.5-51.7c3,5.1,6.6,12,9.6,19.9
		C442,42.6,443.6,49.8,444.2,56.6z M27.6,251.8c-4.8-15.3-1.7-42.2-1.3-45.1c-1.3-7.1-1.8-14.3-2-21.5c-0.5,1.2-1.1,2.4-1.7,3.7
		c0.2,6.9,1,51.1-2.9,58.2c-1.3,2.4-2.8,4.7-4.3,7.1c-8,12.8-17,27.2-7.9,51.5c3.2-5.5,9.4-17.1,11-26.5l1.6-9.1l4.6,20
		C28.5,287,35.6,277.2,27.6,251.8z M485,160.3c-0.8-4.7-2.2-9.2-2.9-14c-1.1-7.2-0.5-14.6,0.6-21.7c0.5-3.4,0.8-6.8,1-10.2
		c0.8-17.5-5.9-33.6-19.3-44.9c-1.8-1.5-3.6-3-5.5-4.4c0,0.6,0.1,1.1,0.1,1.7c1.1,19.3-4.2,34.1-4.4,34.8l-0.3,0.9l-0.9,0.3
		c-2.6,0.7-5,1.1-7.2,1.1c-3.3,0-6.1-0.8-8.4-2.5c-5.6-4.1-6-11.5-6-11.8l0-0.7l0.4-0.5c7-9.4,9.1-20.1,8.4-30.4
		c-2.9-3.8-7.4-5.8-12.1-6.6c2.3,2.8,5.1,6,6.6,7.9l-6.4-2.1l-0.3-0.1c-2.3-0.7-4.8-1-7.2-1.3c-1.2-0.1-2.3-0.2-3.5-0.3
		c3.3,3.6,7.5,8.2,9.9,10.8c-1-0.5-9.3-4.5-10.1-4.7c-6-2-12.6-1.6-18.4,0.9c-1.3,0.6-2.6,1.3-3.9,2c7.6,5.6,17.4,9.3,25.8,13
		c-2.6-0.1-11.7-0.9-14.1-0.6c-3.5,0.2-7,1-10.1,2.3c-3.7,1.5-6.9,4-9.2,7.2c3.2,1.8,7,2.8,10.7,2.9c2.9,0.2,10.1-1,13.1-1.3
		l-7.3,5.1c-5.9,4.3-10.2,10.5-13.5,17c-1.2,2.2-2.3,4.5-3.6,6.8c-0.5-5.4,1.4-10.6,4.1-15.2c1.7-2.9,3.6-5.6,5.9-8.1
		c-4.9-0.4-9.6-2-13.3-5.3l-1.2-1l0.8-1.3c4.1-7.1,11.7-11.1,19.6-12.4c-3.5-1.8-6.8-3.7-10-6c-1.2-0.9-2.8-2.3-4-3.3l1.9-1.4
		c4.1-3,9-5.1,14.1-5.9c-4.2-13.6-16.8-24.4-22.5-28.7v20.4l-3.6-9.7c-3.9-10.6-13.7-15.9-18.7-18l4.7,22.7l-6-11.1
		c-8.1-14.9-21.1-18.3-27.1-19.1l7.7,14.5l-5.9-3.6c-0.1,0-7.1-4.1-24.6-3.8c-16.2,0.3-44.8,4.6-89.5,23.3
		C159.6,69,119.4,77.3,100,80.1c5.4,1.4,10.5,3.5,15.1,6.7c-7-1.4-16.7-3.6-23.6-4.6c-15.5-2.1-32-0.7-45.3,8c-5.3,3.4-10,8-13.8,13
		c-18.4,25.7-24.2,60-16,90.4c3.7-8.1,9.8-21.6,11.9-26.3l-0.3,9.5c-0.2,13.1,0.4,29.7,5.5,42.5c1.7-6.9,4.3-18,4.8-20.1
		c6.4,10.2,11.6,21.3,13.2,33.3c0.6,5.3,0.5,10.8-1.3,16c-0.4,1.2-0.8,2.4-1.1,3.5c-0.6,2.3-1,4.8-1,7.2c-0.1,3.6,0.7,7.1,2.4,10.3
		c1.7,3.3,4.3,6.4,6.1,9.8c6.3,11.8,10.7,24.8,11.6,38.3c4-0.4,9.5-0.6,15.7,0.5c3.3,0.6,7.1,1.6,10.9,3.2
		c-11.7-15.8-17.9-35.6-20.1-54.9c-0.5-3.3,0.1-6.8,1.7-9.8c1-1.9,2.5-3.3,3.7-4.9c2.2-3,3.8-6.5,4.7-10.1l2.1-8.3l1.6,8.4l1.8,10
		c7.2-8.9,9.8-20.7,10.7-31.9c0.3-4.3,0.5-8.7,1.4-13c2,4.9,2.6,10.9,2.2,17c4.2-5,6.7-11.3,7.8-17.8c1.7-8.8,0-17.5,0-26.5
		c2.2,3.7,3.5,7.9,4.1,12.1c4.2-9.4,4.5-20.5,1.6-30.4c-1.2-4.1-2.5-8.2-3.4-12.8c5.2,4.8,7.4,11.7,8.8,18.4
		c1.8,9.2,0.7,19-3.7,27.3c-0.8,1.5-1.7,2.8-2.7,4.1c9.4,5.3,55.3,29.3,107.8,22.9l0.5-0.1l0.5,0.2c4.4,2,3.9,7.7,2.8,11.5
		c5.4-2.5,9.3-6.4,9.4-6.5l7.4-7.4l-4.3,9.5c-3,6.6-0.3,11.4,1.2,13.4c6.5-4.2,7.9-9,7.9-9.2L254,219l0,14.1c0,5.4,1,8.9,2,10.9
		c2.3-4.8,6.2-8,8.3-9.3c-3.8-12-4-25.2-2.1-37.7c0.5-3.2,1.1-6.3,1.9-9.4c-4.3,5.2-9.5,11.6-10.3,12.5c-3.5-12.8-3.5-26.2-2.4-39.3
		c0.1-1,0.2-2,0.3-3c-2.3,3.7-4.7,7.4-7,11c-4.6-9.2-7.7-19.4-7.1-29.9c0.4-8.8,3.2-18.2,10-24.3c-7.1,15-7.8,29.8-2.1,44.8
		c2.5-3.8,5.1-7.6,7.7-11.2l5.3-7.6l-1.9,9c-0.6,3.8-1.1,7.6-1.4,11.5c-0.7,7.7-0.9,15.4-0.3,23.1c0.2,2.5,0.5,5,1,7.5
		c5.3-6.4,14.2-17.2,17.8-21.6l-3.5,9.9c-1.9,5.6-3.3,11.6-4.2,17.5c-2.5,16.2-1.5,34.2,7.6,48.2l5.3-15.9l4.6-13.8
		c-0.1,2.2-1.2,15.6-1,17.6c0.1,3.1,0.5,6.2,1,9.2c1.5,8.2,4.6,16,9,23.1c1.6,2.6,3.4,5.1,5.2,7.4c2.4-7.6,6.3-20.1,8.1-25.7
		c0.2,5.3,0.3,14,1.4,19.2c2.1,11.2,7,22.9,17,28.8c7.8,4.1,11.4,13.2,10,21.7c3.9-0.4,9.3-0.5,15.1,0.5c4.2,0.7,8.9,2.1,13.7,4.5
		c-1-1.5-2.1-3-3-4.6c-8.7-14.2-16.7-30.3-15-47.5l0.7-5.3c1.6,1.8,5,5.8,7.6,8.9c2.8-10.4-1.2-17.9-5.4-28.2
		c-2.2-5.5-4-11.2-5.6-16.9c-1.6-5.8-2.7-11.6-2-17.7c2.6,5.5,5.9,19.1,6.2,20c2.3-3.7,4.7-8.4,6.5-12.4c4.3-10.3,6.1-21.5,5.1-32.6
		c-0.6-5.7-1.8-11-2.3-16.9c5.8,6.8,6.5,16.7,6.8,25.3c0,0.2,0,0.5,0,0.7c2.1-2.9,4-6,5.4-9.2c3.4-7.3,5-15.4,5.2-23.5
		c0.3-8.4-1.4-16.2-2-24.7c3.3,4.7,4.8,10.5,5.6,16.1c2,14.3-0.6,29.7-9.4,41.4c-1.6,2.2-3.4,4.2-5.3,6.1
		c-1.4,12.1-7.2,23.8-14.7,33.3c0.6,1.7,1.7,3.8,2.3,5.5l12.3-22.1l0.5,14.4c6.6-8.4,9.8-19.4,9.8-19.6l2.4-8.3l1.7,11.8
		c6.3-8.9,9.7-22.9,9.7-23l2.3-9.6l2.7,19.3c5.4-5.6,5.9-13.8,5.9-16.4c-2.4-2.6-4.4-5.4-6-8.5c-5.6-10.4-7.4-26.5-0.9-36.7
		c-0.1,5-0.3,9.7-0.2,14.4c0.2,13,5.9,24.4,15.4,32.8c-0.2-3.8,0.2-7.7,1.6-11.3l2.6-7.4c0.2,1.6,1,8.4,1.3,9.8
		c2.2,9.4,7.9,17.7,15.6,23.5l0.5-7.6l0.6-9.4c0.6,1.6,3.1,9.6,3.9,11.1c1.6,3.5,3.8,6.8,6.5,9.7c0.7,0.8,1.5,1.6,2.4,2.4
		c0.8-0.6,1.5-1.4,2.1-2.2c1.6-2,2.6-5.4,3.6-7.8c3.4,5.7,6.6,12,6.1,18.8c0,0.1,0,0.3,0,0.4c5-4.3,7.2-11.6,7.2-18.3
		c0-6.3,2.6-12.9,7.7-16.7c-0.3,0-0.6-0.1-1-0.1c-5.3-0.6-11.7-1.5-15.4-6c-1.2-1.5-2.1-3.6-1.5-5.5c2.9,5.4,11.5,7.2,17.3,7.7
		c5.8,0.3,14,0.7,17.8-4.2c0.2-0.2,0.3-0.5,0.4-0.7C476.1,163.8,481.2,161,485,160.3z M294.6,265.1c0.8,1.1,1.6,2.2,2.5,3.3
		c-5.4-13.6-8.5-27.6-11.9-41.7C283.7,240,287.3,253.8,294.6,265.1z M257.9,155.4c-0.4,3.4-0.8,6.7-1,10.1
		c-0.3,6.8-1.2,13.6,0.6,20.3c2.4-6.5,2.3-13.3,3-20.1c0.2-3.4,0.3-6.7,0.4-10.1c0.2-3.4,0.2-6.7-0.6-10.2
		C258.8,148.6,258.3,152,257.9,155.4z M354.6,181.3c-1.5,14.3-4.5,28-7.3,42.1c6.8-11.2,9.3-25.1,8-38.1
		C355.1,184.1,354.9,182.6,354.6,181.3z"/>
</g>
</svg>
