<?xml version="1.0" encoding="utf-8"?>
<!-- Generator: Adobe Illustrator 28.3.0, SVG Export Plug-In . SVG Version: 6.00 Build 0)  -->
<svg version="1.1" id="camel_00000123417878687525801600000004022358221711367823_"
	 xmlns="http://www.w3.org/2000/svg" xmlns:xlink="http://www.w3.org/1999/xlink" x="0px" y="0px" viewBox="0 0 490 369.973"
	 enable-background="new 0 0 490 369.973" xml:space="preserve">
<g id="camel">
	<g>
		<path fill="#D69A72" d="M480.021,229.248c-4.058-8.934-8.657-19.06-9.525-35.134c-0.421-7.916-1.666-19.777-3.699-35.253
			l-0.019-0.146l-0.938,0.032l-0.009,0.147c-0.382,6.144-0.858,11.54-1.454,16.498l-0.01,0.083l0.018,0.081
			c0.602,2.698,5.767,27.294,1.876,59.643c-2.832,23.534,4.669,36.128,9.392,41.542l1.001,1.147l-0.153-1.515
			c-1.057-10.494,1.385-20.492,1.49-20.913l0.576-2.341l8.142,11.032l0.142-1.223C488.577,248.034,484.612,239.328,480.021,229.248z
			"/>
		<path fill="#D69A72" d="M462.096,128.403c-0.016-0.102-0.029-0.186-0.04-0.253h0.025l-0.035-0.191
			c-5.575-30.532-24.518-54.866-53.339-68.52c-1.749-0.836-3.567-1.628-5.402-2.354l-0.448-0.177l0.36,0.59
			c0.053,0.085,0.105,0.17,0.154,0.253c1.43,2.458,2.403,5.143,2.896,7.987c-1.105-1.027-1.976-2.102-2.691-3.033
			c-1.039-1.386-2.108-3.027-3.142-4.613c-0.983-1.509-2-3.069-2.986-4.402c-3.043-4.219-6.29-8.184-9.648-11.781
			c-0.699-0.794-2.227-2.377-3.025-3.135c-0.282-0.278-0.597-0.598-0.925-0.931c-0.716-0.727-1.527-1.55-2.178-2.12
			c-5.217-4.912-11.089-9.607-16.981-13.578c-2.172-1.446-4.742-3.115-7.334-4.526l-0.055-0.03l-0.061,0.015
			c-2.002,0.482-3.853,0.874-5.631,1.191c2.517-1.626,5.307-3.233,8.705-5.018c0.239-0.116,0.483-0.232,0.722-0.342l0.27-0.124
			l-0.25-0.16c-3.125-1.994-7.21-2.49-10.419-2.699c-6.709-0.498-14.439,1.017-21.259,2.354c-0.339,0.067-0.676,0.132-1.01,0.198
			l15.184-9.109L343.06,3.85c-5.217-0.483-9.687-0.57-13.666-0.266c-2.811,0.198-5.654,0.609-7.997,1.154
			c-0.768,0.132-1.781,0.425-2.675,0.684c-0.437,0.126-0.854,0.247-1.229,0.346l-1.876,0.66
			c-10.697,3.685-17.784,12.239-24.637,20.51c-3.487,4.096-8.298,9.071-14.592,11.201c-1.083,0.33-2.255,0.631-3.388,0.921
			c-1.243,0.319-2.528,0.648-3.713,1.021c-7.402,2.228-14.749,5.526-22.46,10.082c-0.954,0.574-1.901,1.152-2.848,1.731
			c-3.498,2.137-7.109,4.343-10.994,6.231c3.456-4.43,8.037-7.58,12.095-10.087l0.457-0.282L245,47.739
			c-18.786-0.598-27.855,7.758-44.314,22.926c-5.672,5.234-12.731,11.748-21.523,18.98c-9.685,7.961-18.863,11.997-27.279,11.997
			c-2.753,0-5.474-0.439-8.086-1.306c-17.728-5.901-24.705-29.2-26.421-36.2c-4.414-18.039-14.366-30.648-18.44-35.232l-0.162-0.183
			l-0.105,0.22c-0.276,0.579-0.544,1.087-0.821,1.553c-0.72,1.208-1.424,2.153-2.195,2.942c0.054-3.212,0.907-6.316,1.732-9.321
			c0.495-1.802,1.007-3.666,1.343-5.535c0.581-2.997,0.812-5.334,0.728-7.356c-0.134-1.967-0.441-4.118-2.409-4.754
			c-2.229-0.627-4.89,0.096-6.698,0.695c-4.546,1.54-8.629,4.183-12.576,6.739c-2.265,1.466-4.601,2.979-7.014,4.278
			c0.868-1.272,2.27-2.825,4.015-4.439l0.261-0.241l-0.353-0.038c-0.242-0.026-0.478-0.039-0.722-0.053
			c-4.03-0.196-7.773,1.285-11.391,2.718c-1.306,0.517-2.656,1.052-3.996,1.498c-6.475,2.139-13.435,2.431-20.166,2.713
			c-1.333,0.056-2.712,0.114-4.051,0.185l-0.845,0.032c-4.495,0.169-9.142,0.344-13.421,1.573c-1.386,0.395-2.75,0.854-4.054,1.364
			l-0.077,0.03l-0.021,0.081c-1.618,6.365-6.455,6.481-9.194,5.985l-0.089-0.016l-0.06,0.068c-1.121,1.257-2.004,2.644-2.626,4.128
			c-0.766,1.977-0.817,4.159-0.145,6.143c0.744,2.219,2.897,2.438,4.453,2.415c4.534-0.232,9.083-2.297,13.352-4.392
			c1.97-0.963,4.137-1.905,6.658-2.323c-2.649,3.72-6.918,5.528-11.05,7.278c-0.423,0.179-0.845,0.358-1.254,0.534
			c-2.184,0.78-4.901,1.75-7.558,1.855l-0.185,0.007l0.051,0.296c0.012,0.078,0.024,0.156,0.041,0.228
			c0.149,0.718,0.379,1.32,0.619,1.614c0.271,0.313,0.372,0.336,0.759,0.384l0.08,0.008c1.33-0.034,2.679-0.424,4.108-0.838
			c0.763-0.221,1.552-0.449,2.333-0.616c2.818-0.659,5.28-0.927,7.525-0.818c2.477,0.179,4.768,0.093,6.808-0.254
			c1.947-0.313,3.535-0.959,5.217-1.642c0.996-0.405,2.024-0.822,3.168-1.185c-0.356,1.304-1.229,2.441-2.599,3.382l-0.339,0.233
			l0.407,0.061c4.316,0.641,8.748,1.877,13.175,3.673c1.504,0.608,3.014,1.44,4.473,2.244c0.651,0.359,1.325,0.73,1.978,1.069
			c8.608,4.643,17.1,5.695,25.945,3.211c-3.667,4.113-9.374,4.535-13.58,4.143l-0.28-0.026l0.118,0.255
			c3.731,8.047,5.135,17.278,4.058,26.693c-0.151,1.314-0.394,2.676-0.63,3.993c-0.197,1.102-0.4,2.242-0.548,3.347
			c-0.657,5.378-1.082,12.307,1.488,18.203l0.123,0.283l3.47-5.591c1.56-2.514,3.105-5.002,4.168-6.716
			c-0.035,0.415-0.083,0.955-0.136,1.542c-0.201,2.258-0.477,5.351-0.441,6.05c0.077,6.927,2.475,13.89,6.752,19.606l0.172,0.229
			l0.108-0.266c1.076-2.65,2.307-5.733,3.305-8.782c0.759-2.339,1.291-4.528,1.854-6.847c0.347-1.428,0.705-2.901,1.124-4.428
			c1.419,2.651,1.674,6.39,0.735,10.849l-0.008,0.04l0.011,0.039c1.233,4.264,6.282,19.192,19.5,32.281
			c14.507,14.364,34.179,21.687,57.758,21.686c8.396,0,17.29-0.929,26.618-2.799l0.287-0.058l-0.201-0.212
			c-2.705-2.857-5.118-5.964-7.023-9.038c0.453,0.389,0.905,0.778,1.357,1.167c6.493,5.588,13.206,11.366,20.793,15.671
			c1.52,0.839,3.127,1.634,4.777,2.363l0.411,0.182l-0.516-1.034c-0.316-0.634-0.633-1.269-0.955-1.902
			c-0.276-0.533-0.554-1.062-0.831-1.59c-1.842-3.503-3.585-6.819-4.456-10.682c3.215,2.903,5.263,6.685,7.245,10.346l0.378,0.698
			c1.794,3.334,4.137,7.752,6.347,12.357c5.378,11.243,11.285,24.697,14.32,39.232c0.113,0.505,0.213,1.002,0.297,1.476
			c0.734,3.96,0.949,7.976,1.137,12.442c0.59,9.198,2.999,18.131,5.332,26.779c0.005,0.016,0.009,0.031,0.019,0.07
			c0.176,0.678,0.414,1.567,0.676,2.549c0.693,2.596,1.556,5.826,1.931,7.568c1.28,6.109,1.921,12.169,2.379,17.289
			c0.834,10.449,1.428,22.762-0.49,34.848c-1.053,5.529-2.22,10.383-5.844,13.773c-1.745,1.505-3.548,2.85-5.361,4
			c-1.548,1.002-3.151,1.897-4.702,2.763c-2.504,1.398-4.869,2.719-6.919,4.407c-1.605,1.301-3.075,2.912-4.368,4.788
			c-0.639,0.921-1.254,1.938-1.829,3.023l-0.155,0.293l0.327-0.058c2.733-0.487,10.374-1.842,16.78-2.978
			c5.081-0.901,9.384-1.664,9.845-1.747l0.058-0.011l0.038-0.046c0.179-0.218,0.354-0.436,0.526-0.656
			c2.537-3.191,4.369-6.02,5.73-8.853c0.402,4.059-1.264,8.432-4.96,13.007c-0.615,0.765-1.283,1.53-2.042,2.338
			c-0.269,0.276-0.549,0.548-0.83,0.81l-0.37,0.345l20.073-2.646c0.164,0.348,0.335,0.699,0.515,1.056l0.048,0.095l4.652-0.29
			l-0.172-0.238c-0.011-0.016-1.159-1.62-2.177-4.37c-1.566-4.225-2.771-10.949,0.38-18.99l1.819-5.243l0.016-0.046l-0.011-0.046
			c-0.062-0.249-6.164-25.225-5.397-49.224c0.766-23.974,4.189-32.211,4.224-32.291l0.019-0.044l-4.245-25.694l-0.015-0.094
			l-3.155-1.126c-4.68-17.827-6.111-37.567-4.375-60.347l0.006-0.073c0.487-6.375,1.036-13.566,2.965-19.697
			c0.338,4.149,0.189,8.244-0.141,13.047c-0.708,10.401-0.982,18.97-0.861,26.968l0.002,0.13l0.128,0.026
			c5.792,1.168,21.39,3.916,41.064,4.198c22.565,0.339,55.273-2.612,82.961-18.567l0.096-0.055l-0.082-0.527
			c-0.038-0.239-0.076-0.476-0.109-0.713c-1.241-8.915-2.156-20.405,1.633-30.78c0.032,2.706-0.016,5.414-0.063,8.04
			c-0.04,2.23-0.081,4.536-0.073,6.816c-0.317,23.389,8.643,42.373,18.373,59.404c0.534,0.932,1.072,1.865,1.615,2.797l0.034,0.057
			c0.186,0.321,0.373,0.642,0.562,0.96c1.039,1.772,2.18,3.683,3.487,5.84c0.272,0.453,0.547,0.905,0.821,1.358l0.312,0.514
			c0.953,1.57,1.913,3.142,2.875,4.717l0.928,1.52c0.361,0.595,0.723,1.189,1.086,1.784l0.762,1.251
			c0.487,0.802,0.976,1.607,1.46,2.414c0.67,1.113,1.34,2.23,2.001,3.345c2.494,4.48,5.022,9.359,6.621,14.666
			c3.052,10.794,2.397,22.211,1.355,31.953c-2.244,18.358-8.785,44.04-19.826,55.995c-1.198,1.183-2.312,2.021-3.506,2.637
			c-4.225,2.118-9.081,4.657-13.234,7.98c-0.199,0.157-0.394,0.317-0.586,0.479c-0.192,0.16-0.384,0.322-0.573,0.488
			c-0.152,0.133-0.302,0.266-0.451,0.399c-0.057,0.054-0.114,0.108-0.172,0.16c-0.143,0.13-0.284,0.264-0.423,0.397l-0.166,0.16
			c-0.147,0.14-0.29,0.284-0.433,0.43c-0.485,0.488-0.952,0.992-1.385,1.496c-0.101,0.114-0.2,0.233-0.294,0.346
			c-0.262,0.311-0.493,0.598-0.705,0.875c-0.085,0.108-0.168,0.216-0.247,0.325c-0.088,0.114-0.173,0.23-0.258,0.347l-0.095,0.131
			c-0.11,0.154-0.216,0.308-0.323,0.462l-0.06,0.088c-0.127,0.188-0.254,0.375-0.378,0.566l-0.026,0.04v0.003
			c-0.098,0.153-0.195,0.308-0.293,0.464c-0.048,0.078-0.096,0.159-0.156,0.26c-0.124,0.206-0.245,0.412-0.357,0.617
			c-0.108,0.186-0.209,0.372-0.31,0.562l-0.156,0.294l11.507-2.041c6.476-1.149,13.173-2.337,13.268-2.353l0.069-0.009l0.041-0.056
			c0.781-1.059,1.549-2.064,2.282-2.986c0.352-0.446,0.711-0.882,1.068-1.314c0.311-0.372,0.656-0.773,1.085-1.26
			c0.934-1.013,2.177-2.295,3.665-3.434c-1.143,3.816-3.273,7.203-5.335,10.482c-0.235,0.373-0.469,0.746-0.7,1.116
			c-0.096,0.146-0.195,0.292-0.295,0.441l-0.236,0.352c-0.145,0.219-0.297,0.445-0.453,0.673c-0.152,0.226-0.307,0.455-0.465,0.685
			l-0.479,0.695c-0.158,0.229-0.32,0.461-0.484,0.69l-0.218,0.304l1.469-0.193c0.91-0.12,1.91-0.251,2.97-0.393l0.589-0.078
			c1.732-0.227,3.606-0.473,5.486-0.722l1.663-0.218c0.461-0.061,0.918-0.122,1.375-0.181l1.874-0.246
			c0.416-0.057,0.827-0.11,1.23-0.163l2.495-0.328c0.575-0.075,1.126-0.146,1.642-0.216c0.121,0.359,0.249,0.725,0.383,1.097
			l0.037,0.103l5.29,0.21l-0.231-0.279c-0.013-0.016-1.353-1.659-2.248-4.678c-1.126-3.79-1.082-7.952,0.131-12.369
			c2.154-7.848,3.706-9.17,4.273-9.374c0.23-0.083,0.346-0.004,0.347-0.004l0.482,0.388l-0.23-0.575
			c-0.051-0.126-4.976-12.905,2.651-35.367c7.65-22.526,12.421-33.215,12.468-33.32l0.014-0.032v-18.956l-4.081-17.205l3.215-15.405
			l-1.023-1.328c0.784-2.147,1.696-4.403,2.749-7.01l0.777-1.926c6.501-17.324,8.012-36.18,8.917-52.493
			c0.453-6.856,0.274-13.709-0.532-20.374C462.538,131.233,462.227,129.241,462.096,128.403z M447.964,230.217L447.964,230.217
			L447.964,230.217L447.964,230.217z M399.844,62.52c-0.761-0.832-1.429-1.663-1.947-2.323l-0.001-0.001
			c-0.644-0.806-1.284-1.615-1.925-2.424c-1.582-1.999-3.218-4.065-4.884-6.056c-5.64-6.362-12.345-12.693-21.103-19.924
			c-0.672-0.543-1.344-1.079-2.016-1.615c-3.048-2.43-5.937-4.732-8.579-7.53c4.56,1.659,8.466,4.482,12.085,7.244
			c8.313,6.211,15.483,13.083,21.312,20.425C395.651,53.993,398.472,58.008,399.844,62.52z M325.114,6.31
			c-2.392,1.388-4.84,2.616-7.213,3.807c-2.248,1.128-4.572,2.295-6.829,3.587c-4.68,2.479-8.764,5.482-13.036,8.671
			c0.215-0.356,0.449-0.726,0.709-1.117C304.066,13.549,315.993,6.827,325.114,6.31z M190.026,168.593
			c-0.929,0.333-1.86,0.59-2.675,0.803c-4.129,1.156-8.47,1.367-13.308,1.509c-7.975,0.179-15.839-0.636-23.374-2.417
			c-4.065-0.943-8.301-2.164-11.875-4.663c2.577,0.401,5.175,0.889,7.693,1.363c1.534,0.289,3.12,0.587,4.675,0.86
			c11,1.822,22.069,1.94,32.778,2.055C185.923,168.178,187.966,168.256,190.026,168.593z M94.07,18.571
			c0.158-1.446,0.321-2.942,0.4-4.43c0.06-0.543-0.016-1.166-0.177-1.354c-0.031-0.042-0.06-0.059-0.102-0.074l-0.04-0.015
			c-0.176-0.047-0.36-0.067-0.553-0.067c-0.507,0-1.065,0.141-1.64,0.302c-2.385,0.717-4.525,1.902-6.594,3.049
			c-2.063,1.143-4.192,2.323-6.595,3.062c1.675-2.516,3.993-4.209,6.263-5.666c1.655-1.105,7.29-4.607,10.285-3.278
			c1.031,0.457,1.668,1.459,1.892,2.959c0.032,1.384-0.204,2.675-0.454,4.042c-0.101,0.551-0.205,1.12-0.288,1.688
			c-0.492,2.848-1.077,5.603-2.755,7.972C93.479,23.977,93.78,21.231,94.07,18.571z M63.757,28.857
			c-0.253,0.765-0.648,1.435-1.175,1.993c-1.002,1.074-2.424,1.69-3.902,1.69c-1.37,0-2.669-0.511-3.657-1.439
			c-0.731-0.683-1.252-1.563-1.507-2.544l-0.033-0.064c-0.32-0.378-0.839-0.835-1.601-1.076c0.44-0.19,1.051-0.557,1.544-1.243
			l0.027-0.062c0.195-0.96,0.651-1.846,1.319-2.563c0.977-1.044,2.303-1.644,3.735-1.69c1.428-0.047,2.786,0.465,3.824,1.439
			c0.62,0.578,1.081,1.279,1.369,2.085l0.028,0.049c0.528,0.632,1.357,1.405,2.46,1.779c-0.636,0.207-1.634,0.66-2.403,1.594
			L63.757,28.857z"/>
	</g>
	<g>
		<path fill="#FFCEA6" d="M262.866,308.186c-0.711-11.219,1.822-38.336,3.039-51.368c0.236-2.531,0.423-4.529,0.517-5.683
			c0.411-5.097-2.983-16.254-5.042-22.451l-0.027-0.08l-0.063-0.057c-1.917-1.749-3.533-2.93-3.549-2.942l-0.634-0.461l0.124,0.774
			c1.021,6.396-0.627,10.972-1.466,12.782c-0.608-3.679-3.105-16.441-9.184-21.726l-0.348-0.303l-0.166,0.431
			c-0.911,2.363-2.114,4.282-3.278,6.138c-1.183,1.888-2.301,3.67-2.984,5.726c-0.553,1.666-0.759,3.353-0.631,5.143
			c0.379,16.934,5.109,29.109,6.664,33.11c0.21,0.54,0.361,0.931,0.431,1.152l0.016,0.059c0.176,0.678,0.414,1.567,0.676,2.55
			c0.693,2.594,1.555,5.822,1.929,7.559c1.278,6.101,1.918,12.155,2.376,17.269c0.833,10.44,1.426,22.741-0.487,34.805
			c-1.048,5.501-2.207,10.328-5.791,13.681c-1.739,1.499-3.536,2.84-5.344,3.987c-1.544,0.999-3.145,1.893-4.692,2.757
			c-2.51,1.402-4.882,2.726-6.942,4.422c-1.618,1.311-3.098,2.933-4.4,4.823l-0.436,0.633l26.498-4.57l-1.943,4.126l1.731-2.177
			c2.385-3,4.149-5.681,5.486-8.347c0.188,3.849-1.48,7.98-4.968,12.299l-0.524,0.648l16.817-2.55l-0.129-0.368
			c-2.959-8.46-0.738-14.493,0.733-18.485c0.35-0.949,0.652-1.77,0.844-2.503c0.846-3.217-0.05-6.454-1.291-10.933
			C265.168,323.496,263.439,317.251,262.866,308.186z"/>
		<path fill="#FFCEA6" d="M447.281,248.624c-4.714-16.238-1.407-29.768,0.234-34.831l0.03-0.093l-0.026-0.094
			c-0.757-2.707-1.834-5.218-3.201-7.464l-0.439-0.721l-0.156,0.829c-0.029,0.155-2.953,15.276-11.467,22.686
			c-0.345-2.077-2.076-9.059-10.189-14.413l-0.772-0.51l0.286,0.88c2.486,7.64,2,13.169,1.685,15.159
			c-1.968-2.995-9.134-11.728-18.031-15.908l-0.929-0.436l0.51,0.89c0.534,0.933,1.072,1.866,1.616,2.798l0.033,0.057
			c0.187,0.322,0.374,0.643,0.563,0.96c1.039,1.773,2.181,3.684,3.488,5.842c0.272,0.454,0.547,0.906,0.822,1.358l0.312,0.514
			c0.953,1.57,1.913,3.142,2.875,4.718l1.138,1.863c0.483,0.792,0.967,1.584,1.447,2.379l0.19,0.314
			c0.487,0.802,0.976,1.606,1.46,2.414c0.669,1.113,1.339,2.229,1.998,3.341c2.489,4.473,5.012,9.341,6.607,14.632
			c3.044,10.767,2.39,22.165,1.35,31.889c-2.242,18.334-8.769,43.978-19.78,55.9c-1.186,1.171-2.288,2.001-3.465,2.608
			c-4.233,2.122-9.097,4.665-13.261,7.997c-0.2,0.158-0.398,0.319-0.589,0.481c-0.193,0.161-0.386,0.325-0.576,0.491
			c-0.153,0.133-0.303,0.266-0.456,0.403c-0.056,0.053-0.112,0.106-0.17,0.157c-0.144,0.131-0.286,0.266-0.425,0.399l-0.167,0.16
			c-0.149,0.142-0.293,0.287-0.436,0.433c-0.488,0.491-0.957,0.997-1.392,1.502c-0.103,0.116-0.203,0.236-0.296,0.35
			c-0.263,0.313-0.496,0.601-0.709,0.878c-0.087,0.11-0.17,0.22-0.248,0.327c-0.089,0.116-0.174,0.233-0.26,0.35l-0.569,0.775
			l25.639-4.418l0.122-0.021l0.077-0.097c0.351-0.445,0.709-0.88,1.066-1.31c0.31-0.371,0.655-0.771,1.08-1.254
			c0.843-0.914,1.937-2.048,3.236-3.094c-1.168,3.595-3.196,6.82-5.162,9.947c-0.235,0.373-0.469,0.747-0.698,1.113
			c-0.096,0.145-0.194,0.291-0.294,0.44l-0.642,0.962l18.901-2.867l-0.101-0.354c-3.021-10.605-0.496-14.566,1.533-17.749
			c1.217-1.909,2.366-3.712,2.076-6.5c-0.128-1.224-0.304-2.322-0.474-3.384c-0.935-5.836-1.743-10.877,5.376-32.81
			c2.559-7.884,4.906-13.8,6.793-18.553C449.435,268.362,451.501,263.157,447.281,248.624z"/>
	</g>
	<g>
		<path fill="#AD704E" d="M90.268,16.857c0.82-0.615,1.117-0.573,1.206-0.526c0.4,0.209,0.343,1.783,0.293,3.172
			c-0.097,2.664-0.217,5.979,1.587,7.916L93.8,27.9l2.591-15.338l-2.839-2.007l-16.283,9.021l1.109,0.068
			C78.687,19.664,85.985,20.07,90.268,16.857z"/>
		<path fill="#AD704E" d="M384.552,169.328c-23.304,15.488-55.618,18.751-78.692,18.751c-0.061,0-0.124,0-0.184,0
			c-25.038-0.019-44.796-3.766-44.992-3.804l-0.152-0.029l-2.57,2.166l-0.027,0.045c-0.031,0.051-0.177,0.325,0.034,0.722
			c0.859,1.618,7.555,4.564,42.741,6.119c1.973,0.087,3.936,0.129,5.889,0.129c21.201,0,41.01-4.885,54.354-9.194
			c15.789-5.098,26.191-10.514,26.294-10.568l0.309-0.162l-2.726-4.357L384.552,169.328z"/>
		<path fill="#AD704E" d="M217.84,176.969c-4.621-1.848-27.305-17.053-27.533-17.206l-1.511-1.014l1.069,1.473
			c1.864,2.568,3.898,4.863,5.998,6.909c-43.084,8.677-68.224-5.865-81.74-19.636c-14.723-15-19.231-32.345-19.275-32.519
			l-0.222-0.877l-2.237,4.753l1.141-12.903l-7.28,14.456c-1.099-2.137-4.967-10.314-5.342-20.147l-0.026-0.674l-7.001,6.065
			c0.032-2.579,0.239-11.592,1.556-18.046c1.478-7.245,0.009-17.017-4.25-28.26l-0.052-0.137c0.277,0.008,0.55,0.014,0.816,0.014
			c7.01,0,10.497-2.763,10.709-2.937l0.759-0.623l-0.981,0.05c-15.412,0.779-20.765-2.229-26.431-5.414
			c-1.756-0.987-3.572-2.008-5.721-2.935c-8.303-3.581-13.084-3.147-13.284-3.127l-0.06,0.012c-3.41,1.016-6.916,0.462-10.626-0.124
			c-4.351-0.688-8.849-1.398-13.756,0.264c-1.374,0.466-5.938,0.319-5.984,0.317l-0.544-0.018l2.546,5.093l13.364-2.227
			c1.15,0.165,21.792,3.176,36.995,8.997c4.185,1.602,7.796,2.353,10.85,2.588H66.4l2.909,9.798l1.562,16.558l-2.191,14.864
			l-0.008,0.056l3.123,15.354l5.136-5.95l4.629,12.66l5.7,9.369l4.636-10.394c0.876,2.017,3.742,8.243,8.779,15.742
			c5.654,8.418,15.279,20.211,29.024,28.588c11.847,7.22,27.066,9.028,39.33,9.027c1.986,0,3.895-0.047,5.699-0.127
			c14.008-0.617,24.917-3.248,25.025-3.274l0.506-0.124l-0.729-0.869c9.913,8.156,20,11.207,20.135,11.247l0.713,0.21l-2.427-4.856
			L217.84,176.969z"/>
		<path fill="#AD704E" d="M457.016,105.93c-4.977-11.807-12.655-22.149-22.82-30.737c-9.315-7.87-18.968-12.843-25.418-15.9
			c-1.753-0.838-3.574-1.631-5.413-2.359l-0.898-0.355l0.607,0.994c0.054,0.088,0.108,0.174,0.158,0.259
			c1.337,2.3,2.273,4.8,2.786,7.444c-0.928-0.912-1.682-1.847-2.312-2.667c-1.036-1.382-2.103-3.02-3.136-4.604
			c-0.985-1.511-2.003-3.073-2.99-4.408c-3.047-4.224-6.298-8.194-9.658-11.793c-0.702-0.797-2.235-2.385-3.032-3.143
			c-0.28-0.276-0.593-0.594-0.919-0.925c-0.719-0.73-1.534-1.557-2.187-2.129c-5.223-4.918-11.102-9.619-17.003-13.595
			c-2.175-1.448-4.748-3.119-7.346-4.533l-0.11-0.06l-0.121,0.029c-1.697,0.409-3.284,0.752-4.81,1.04
			c2.331-1.473,4.912-2.946,7.992-4.564c0.237-0.116,0.481-0.231,0.718-0.34l0.54-0.248l-0.5-0.319
			c-3.156-2.014-7.268-2.514-10.494-2.723c-6.732-0.5-14.473,1.018-21.303,2.357c-0.034,0.007-0.069,0.013-0.103,0.02l14.816-8.888
			l-0.985-0.091c-5.226-0.484-9.705-0.571-13.692-0.266c-2.818,0.199-5.67,0.611-8.014,1.156c-0.778,0.134-1.796,0.429-2.694,0.688
			c-0.435,0.126-0.85,0.246-1.236,0.348l-1.875,0.66c-10.74,3.699-17.842,12.271-24.708,20.558
			c-3.474,4.08-8.264,9.035-14.516,11.151c-1.079,0.329-2.248,0.629-3.379,0.919c-1.246,0.32-2.534,0.65-3.721,1.023
			c-7.415,2.232-14.773,5.535-22.497,10.098c-0.953,0.573-1.9,1.152-2.847,1.73c-3.299,2.016-6.699,4.093-10.332,5.904
			c3.382-4.115,7.729-7.092,11.599-9.483l0.914-0.565l-1.074-0.034c-18.857-0.599-27.939,7.772-44.429,22.969
			c-5.329,4.918-11.962,11.039-20.106,17.803l-0.214,0.177l0.143,0.238c0.144,0.241,0.319,0.462,0.536,0.679
			c0.662,0.649,1.68,0.973,3.053,0.973c5.432-0.001,16.409-5.072,32.768-15.149c-2.71,3.085-4.375,7.089-4.575,11.191l-0.028,0.584
			l0.51-0.286c0.206-0.116,20.769-11.65,30.926-17.519c12.925-7.46,23.541-10.611,33.418-9.913c1.523,0.107,3.083,0.313,4.592,0.512
			c3.772,0.498,7.673,1.012,11.415,0.061c2.813-0.71,5.363-2.208,7.828-3.657c2.65-1.558,5.391-3.169,8.408-3.744
			c5.848-1.112,12.032,2.438,13.5,7.75c0.754,2.72,0.014,5.935-1.931,8.39c-1.772,2.236-4.211,3.458-6.703,3.363l-1.541-0.061
			l1.386,0.676c0.139,0.067,13.974,6.654,22.313-2.815c5.646-6.411,5.651-16.153,0.302-22.142c8.338,3.758,13.327,7.4,16.801,15.338
			c0.865,1.977,1.58,4.073,2.271,6.1c1.261,3.698,2.565,7.522,4.835,10.792c4.652,6.703,13.509,10.362,21.537,8.899l1.624-0.296
			l-1.616-0.339c-2.665-0.559-6.028-2.135-7.114-4.275c-0.443-0.872-0.462-1.769-0.056-2.668c0.394-0.874,1.186-1.536,1.952-2.177
			c0.192-0.161,0.383-0.321,0.57-0.485c3.375-2.992,4.979-7.766,3.991-11.879c-0.844-3.495-3.561-6.347-6.797-7.425
			c9.125-0.146,16.23,5.045,19.999,10.286c4.254,5.917,5.346,12.822,2.848,18.02l-0.347,0.723l0.752-0.279
			c0.086-0.032,8.542-3.264,10.11-11.631c1.139-0.014,6.114,0.125,13.657,3.208c7.944,3.247,20.445,10.515,34.885,26.7l1.296,1.452
			L457.016,105.93z"/>
		<path fill="#AD704E" d="M52.242,28.955c0.323,1.187,0.962,2.252,1.85,3.081c1.225,1.151,2.835,1.784,4.533,1.784
			c1.832,0,3.595-0.764,4.836-2.094c0.641-0.677,1.124-1.488,1.438-2.41c1.242-1.471,3.092-1.779,3.111-1.782l1.9-0.301
			l-1.893-0.338c-1.444-0.258-2.525-1.221-3.187-2.002c-0.359-0.977-0.924-1.828-1.678-2.531c-1.287-1.208-2.968-1.841-4.741-1.784
			c-1.774,0.058-3.418,0.802-4.629,2.096c-0.813,0.872-1.373,1.945-1.622,3.109c-0.853,1.142-2.055,1.377-2.066,1.379l-2.001,0.359
			l2.014,0.28C51.152,27.947,51.839,28.498,52.242,28.955z"/>
	</g>
	<g>
		<path fill="#FFFFFF" d="M58.68,22.662c-1.252,0-2.459,0.523-3.309,1.435c-0.355,0.374-0.644,0.819-0.86,1.325l-1.194,2.798
			l1.797-2.542c0.058-0.083,0.117-0.169,0.177-0.238c1.041-1.114,2.762-1.223,3.935-0.288c-0.398,0.117-0.762,0.337-1.049,0.643
			c-0.872,0.939-0.822,2.421,0.113,3.304c0.285,0.268,0.625,0.456,0.994,0.554c-0.96,0.81-2.352,0.918-3.435,0.226l-0.348,0.546
			c0.001,0.001,0.002,0.001,0.003,0.002L55.5,30.434c0.028,0.03,0.056,0.059,0.078,0.077c0.845,0.794,1.94,1.226,3.097,1.226
			c0.051,0,0.101-0.001,0.152-0.003c1.213-0.039,2.337-0.548,3.164-1.432c0.828-0.886,1.261-2.042,1.219-3.258
			c-0.042-1.211-0.552-2.332-1.436-3.155C60.929,23.097,59.831,22.662,58.68,22.662z"/>
		<path fill="#FFFFFF" d="M78.886,12.352c0,0,14.199-6.165,17.714-3.532c3.515,2.633,0.385,15.713,0.774,18.856
			c0.267,2.161,4.455-15.14,4.455-15.14L98.112,3.98l-19.714,7.217L78.886,12.352z"/>
		<path fill="#FFFFFF" d="M16.092,23.646c5.976-1.411,17.296-1.802,26.766-1.952c18.123-0.287,23.826-6.417,31.83-6.819
			c3.502-0.176,2.071-1.564,2.071-1.564l-4.416-0.966l-27.381,6.074L18.25,20.625C18.25,20.625,15.189,23.859,16.092,23.646z"/>
		<path fill="#FFFFFF" d="M97.986,30.579c3.11,4.473,11.471,12.424,18.484,38.981c8.008,30.325,31.323,40.929,50.173,31.426
			s39.099-35.019,55.05-45.163c10.611-6.748,17.732-5.832,23.636-6.027l3.133-2.82c0,0-16.514-3.583-31.781,7.478
			s-42.372,35.09-42.372,35.09s-15.115,14.918-29.603,8.531c-14.489-6.387-19.006-13.398-25.394-35.053S98.903,26.566,98.903,26.566
			S97.398,29.734,97.986,30.579z"/>
		<path fill="#FFFFFF" d="M241.62,53.52c0,0,19.455-9.436,34.935-13.378c18.945-4.824,23.774-39.286,65.987-34.476l4.265-2.097
			c0,0-27.834-7.374-41.543,6.543s-22.226,23.056-22.226,23.056L254.373,44.8L241.62,53.52z"/>
		<path fill="#FFFFFF" d="M339.84,4.405l-12.344,8.936c0,0,24.831-2.585,29.737,0.482l-6.368,5.266l3.307-0.986
			c0,0,31.4,17.068,49.276,44.7l-1.239-4.484c0,0-20.92-30.432-43.381-41.985l5.153-3.381c0,0-10.896-6.199-22.261-4.321V6.565
			l4.696-3.757L339.84,4.405z"/>
		<path fill="#FFFFFF" d="M403.688,59.632c0,0,56.271,18.575,59.866,89.593c0,0,12.918-62.596-62.166-93.95L403.688,59.632z"/>
		<path fill="#FFFFFF" d="M470.63,200.911c0,0,1.881,20.906,10.738,38.705s5.734,26.502,5.734,26.502l0.421-17.291l-2.771-11.544
			l-6.916-16.369L470.63,200.911z"/>
		<path fill="#FFFFFF" d="M223.071,361.16c5.807-6.088,25.174-11.427,27.946-21.83c2.996-11.24,3.76-34.636,2.455-46.124
			c-1.306-11.488-5.297-25.582-9.173-40.698c-3.859-15.049-10.754-42.637-10.754-42.637l7.093,36.837l3.59,19.298l5.313,28.876
			l1.24,23.547c0,0,1.063,29.885-23.024,36.195l-5.697,5.135C222.059,359.759,222.924,361.314,223.071,361.16z"/>
		<path fill="#FFFFFF" d="M387.153,359.759c0,0,13.411-8.456,19.902-11.771c10.025-5.12,18.746-30.031,20.353-39.905
			c2.148-13.2,9.587-43.564-1.3-60.983c-8.068-12.909-19.764-28.958-19.764-28.958l18.667,35.518c0,0,5.996,23.741-0.718,50.962
			c-4.63,18.772-5.081,33.932-33.206,48.267L387.153,359.759z"/>
	</g>
	<path fill="#231F20" d="M392.915,50.219c-6.156-7.755-13.432-14.545-21.342-20.456c-3.91-2.984-7.949-5.871-12.746-7.483
		c3.36,3.67,7.231,6.544,11.056,9.639c7.464,6.163,14.662,12.662,21.083,19.905c2.324,2.777,4.544,5.645,6.803,8.473
		c0.751,0.958,1.534,1.91,2.415,2.822C398.89,58.33,395.925,54.083,392.915,50.219z M298.612,21.166
		c-0.395,0.596-0.77,1.198-1.113,1.813c4.479-3.347,8.752-6.538,13.652-9.134c4.816-2.758,9.768-4.855,14.604-7.723
		C316.219,6.356,304.004,13.353,298.612,21.166z M183.938,167.942c-10.946-0.116-21.925-0.259-32.748-2.052
		c-4.311-0.757-8.661-1.67-13.031-2.324c3.664,2.751,8.092,4.065,12.474,5.082c7.638,1.806,15.575,2.596,23.414,2.421
		c4.421-0.129,9.069-0.317,13.348-1.515c1.088-0.285,2.175-0.596,3.243-1.016C188.366,168.11,186.145,168.026,183.938,167.942z
		 M63.852,25.329c-0.285-0.796-0.751-1.534-1.411-2.149c-2.214-2.078-5.709-1.961-7.787,0.259c-0.712,0.764-1.165,1.683-1.359,2.641
		c-0.829,1.152-2.02,1.366-2.02,1.366c1.023,0.142,1.69,0.686,2.084,1.152c0.252,0.971,0.77,1.89,1.554,2.622
		c1.062,0.997,2.415,1.482,3.767,1.482c1.469,0,2.939-0.583,4.02-1.741c0.57-0.602,0.965-1.308,1.21-2.052
		c1.172-1.424,2.926-1.696,2.926-1.696C65.458,26.967,64.448,26.041,63.852,25.329z M61.755,30.08
		c-1.586,1.696-4.259,1.787-5.955,0.194c-0.045-0.039-0.078-0.084-0.123-0.123c1.288,0.822,3.017,0.641,4.098-0.518
		c0.071-0.071,0.136-0.149,0.201-0.227c-0.524,0.019-1.055-0.162-1.463-0.544c-0.809-0.764-0.855-2.033-0.097-2.848
		c0.401-0.427,0.952-0.641,1.502-0.634c-0.091-0.11-0.188-0.214-0.291-0.311c-1.308-1.223-3.353-1.152-4.57,0.149
		c-0.091,0.104-0.168,0.22-0.246,0.33c0.188-0.44,0.447-0.861,0.796-1.23c0.822-0.88,1.948-1.334,3.075-1.334
		c1.029,0,2.065,0.382,2.874,1.139C63.257,25.711,63.341,28.384,61.755,30.08z M392.915,50.219
		c-6.156-7.755-13.432-14.545-21.342-20.456c-3.91-2.984-7.949-5.871-12.746-7.483c3.36,3.67,7.231,6.544,11.056,9.639
		c7.464,6.163,14.662,12.662,21.083,19.905c2.324,2.777,4.544,5.645,6.803,8.473c0.751,0.958,1.534,1.91,2.415,2.822
		C398.89,58.33,395.925,54.083,392.915,50.219z M298.612,21.166c-0.395,0.596-0.77,1.198-1.113,1.813
		c4.479-3.347,8.752-6.538,13.652-9.134c4.816-2.758,9.768-4.855,14.604-7.723C316.219,6.356,304.004,13.353,298.612,21.166z
		 M183.938,167.942c-10.946-0.116-21.925-0.259-32.748-2.052c-4.311-0.757-8.661-1.67-13.031-2.324
		c3.664,2.751,8.092,4.065,12.474,5.082c7.638,1.806,15.575,2.596,23.414,2.421c4.421-0.129,9.069-0.317,13.348-1.515
		c1.088-0.285,2.175-0.596,3.243-1.016C188.366,168.11,186.145,168.026,183.938,167.942z M84.942,13.243
		c-2.512,1.612-4.887,3.411-6.544,6.078c5.049-1.424,8.739-4.771,13.607-6.234c0.764-0.214,1.502-0.395,2.104-0.233
		c0.065,0.026,0.032,0.006,0.078,0.058c0.084,0.097,0.188,0.621,0.123,1.211c-0.233,4.408-1.178,8.622-0.719,13.076
		c1.929-2.518,2.537-5.496,3.036-8.383c0.285-1.942,0.79-3.78,0.745-5.761C96.387,6.433,88.153,11.101,84.942,13.243z
		 M63.852,25.329c-0.285-0.796-0.751-1.534-1.411-2.149c-2.214-2.078-5.709-1.961-7.787,0.259c-0.712,0.764-1.165,1.683-1.359,2.641
		c-0.829,1.152-2.02,1.366-2.02,1.366c1.023,0.142,1.69,0.686,2.084,1.152c0.252,0.971,0.77,1.89,1.554,2.622
		c1.062,0.997,2.415,1.482,3.767,1.482c1.469,0,2.939-0.583,4.02-1.741c0.57-0.602,0.965-1.308,1.21-2.052
		c1.172-1.424,2.926-1.696,2.926-1.696C65.458,26.967,64.448,26.041,63.852,25.329z M61.755,30.08
		c-1.586,1.696-4.259,1.787-5.955,0.194c-0.045-0.039-0.078-0.084-0.123-0.123c1.288,0.822,3.017,0.641,4.098-0.518
		c0.071-0.071,0.136-0.149,0.201-0.227c-0.524,0.019-1.055-0.162-1.463-0.544c-0.809-0.764-0.855-2.033-0.097-2.848
		c0.401-0.427,0.952-0.641,1.502-0.634c-0.091-0.11-0.188-0.214-0.291-0.311c-1.308-1.223-3.353-1.152-4.57,0.149
		c-0.091,0.104-0.168,0.22-0.246,0.33c0.188-0.44,0.447-0.861,0.796-1.23c0.822-0.88,1.948-1.334,3.075-1.334
		c1.029,0,2.065,0.382,2.874,1.139C63.257,25.711,63.341,28.384,61.755,30.08z M63.852,25.329c-0.285-0.796-0.751-1.534-1.411-2.149
		c-2.214-2.078-5.709-1.961-7.787,0.259c-0.712,0.764-1.165,1.683-1.359,2.641c-0.829,1.152-2.02,1.366-2.02,1.366
		c1.023,0.142,1.69,0.686,2.084,1.152c0.252,0.971,0.77,1.89,1.554,2.622c1.062,0.997,2.415,1.482,3.767,1.482
		c1.469,0,2.939-0.583,4.02-1.741c0.57-0.602,0.965-1.308,1.21-2.052c1.172-1.424,2.926-1.696,2.926-1.696
		C65.458,26.967,64.448,26.041,63.852,25.329z M61.755,30.08c-1.586,1.696-4.259,1.787-5.955,0.194
		c-0.045-0.039-0.078-0.084-0.123-0.123c1.288,0.822,3.017,0.641,4.098-0.518c0.071-0.071,0.136-0.149,0.201-0.227
		c-0.524,0.019-1.055-0.162-1.463-0.544c-0.809-0.764-0.855-2.033-0.097-2.848c0.401-0.427,0.952-0.641,1.502-0.634
		c-0.091-0.11-0.188-0.214-0.291-0.311c-1.308-1.223-3.353-1.152-4.57,0.149c-0.091,0.104-0.168,0.22-0.246,0.33
		c0.188-0.44,0.447-0.861,0.796-1.23c0.822-0.88,1.948-1.334,3.075-1.334c1.029,0,2.065,0.382,2.874,1.139
		C63.257,25.711,63.341,28.384,61.755,30.08z M84.942,13.243c-2.512,1.612-4.887,3.411-6.544,6.078
		c5.049-1.424,8.739-4.771,13.607-6.234c0.764-0.214,1.502-0.395,2.104-0.233c0.065,0.026,0.032,0.006,0.078,0.058
		c0.084,0.097,0.188,0.621,0.123,1.211c-0.233,4.408-1.178,8.622-0.719,13.076c1.929-2.518,2.537-5.496,3.036-8.383
		c0.285-1.942,0.79-3.78,0.745-5.761C96.387,6.433,88.153,11.101,84.942,13.243z M183.938,167.942
		c-10.946-0.116-21.925-0.259-32.748-2.052c-4.311-0.757-8.661-1.67-13.031-2.324c3.664,2.751,8.092,4.065,12.474,5.082
		c7.638,1.806,15.575,2.596,23.414,2.421c4.421-0.129,9.069-0.317,13.348-1.515c1.088-0.285,2.175-0.596,3.243-1.016
		C188.366,168.11,186.145,168.026,183.938,167.942z M298.612,21.166c-0.395,0.596-0.77,1.198-1.113,1.813
		c4.479-3.347,8.752-6.538,13.652-9.134c4.816-2.758,9.768-4.855,14.604-7.723C316.219,6.356,304.004,13.353,298.612,21.166z
		 M392.915,50.219c-6.156-7.755-13.432-14.545-21.342-20.456c-3.91-2.984-7.949-5.871-12.746-7.483
		c3.36,3.67,7.231,6.544,11.056,9.639c7.464,6.163,14.662,12.662,21.083,19.905c2.324,2.777,4.544,5.645,6.803,8.473
		c0.751,0.958,1.534,1.91,2.415,2.822C398.89,58.33,395.925,54.083,392.915,50.219z M392.915,50.219
		c-6.156-7.755-13.432-14.545-21.342-20.456c-3.91-2.984-7.949-5.871-12.746-7.483c3.36,3.67,7.231,6.544,11.056,9.639
		c7.464,6.163,14.662,12.662,21.083,19.905c2.324,2.777,4.544,5.645,6.803,8.473c0.751,0.958,1.534,1.91,2.415,2.822
		C398.89,58.33,395.925,54.083,392.915,50.219z M298.612,21.166c-0.395,0.596-0.77,1.198-1.113,1.813
		c4.479-3.347,8.752-6.538,13.652-9.134c4.816-2.758,9.768-4.855,14.604-7.723C316.219,6.356,304.004,13.353,298.612,21.166z
		 M151.19,165.89c-4.311-0.757-8.661-1.67-13.031-2.324c3.664,2.751,8.092,4.065,12.474,5.082
		c7.638,1.806,15.575,2.596,23.414,2.421c4.421-0.129,9.069-0.317,13.348-1.515c1.088-0.285,2.175-0.596,3.243-1.016
		c-2.272-0.427-4.492-0.511-6.7-0.596C172.992,167.825,162.013,167.683,151.19,165.89z M84.942,13.243
		c-2.512,1.612-4.887,3.411-6.544,6.078c5.049-1.424,8.739-4.771,13.607-6.234c0.764-0.214,1.502-0.395,2.104-0.233
		c0.065,0.026,0.032,0.006,0.078,0.058c0.084,0.097,0.188,0.621,0.123,1.211c-0.233,4.408-1.178,8.622-0.719,13.076
		c1.929-2.518,2.537-5.496,3.036-8.383c0.285-1.942,0.79-3.78,0.745-5.761C96.387,6.433,88.153,11.101,84.942,13.243z
		 M63.852,25.329c-0.285-0.796-0.751-1.534-1.411-2.149c-2.214-2.078-5.709-1.961-7.787,0.259c-0.712,0.764-1.165,1.683-1.359,2.641
		c-0.829,1.152-2.02,1.366-2.02,1.366c1.023,0.142,1.69,0.686,2.084,1.152c0.252,0.971,0.77,1.89,1.554,2.622
		c1.062,0.997,2.415,1.482,3.767,1.482c1.469,0,2.939-0.583,4.02-1.741c0.57-0.602,0.965-1.308,1.21-2.052
		c1.172-1.424,2.926-1.696,2.926-1.696C65.458,26.967,64.448,26.041,63.852,25.329z M61.755,30.08
		c-1.586,1.696-4.259,1.787-5.955,0.194c-0.045-0.039-0.078-0.084-0.123-0.123c1.288,0.822,3.017,0.641,4.098-0.518
		c0.071-0.071,0.136-0.149,0.201-0.227c-0.524,0.019-1.055-0.162-1.463-0.544c-0.809-0.764-0.855-2.033-0.097-2.848
		c0.401-0.427,0.952-0.641,1.502-0.634c-0.091-0.11-0.188-0.214-0.291-0.311c-1.308-1.223-3.353-1.152-4.57,0.149
		c-0.091,0.104-0.168,0.22-0.246,0.33c0.188-0.44,0.447-0.861,0.796-1.23c0.822-0.88,1.948-1.334,3.075-1.334
		c1.029,0,2.065,0.382,2.874,1.139C63.257,25.711,63.341,28.384,61.755,30.08z M482.544,228.137
		c-4.162-9.147-8.461-18.598-9.296-34.172c-0.939-17.381-5.502-48.789-7.373-61.218c-0.188-1.392-0.401-2.784-0.641-4.169
		c-0.104-0.673-0.162-1.055-0.168-1.094l-0.019,0.006c-3.606-19.828-12.804-38.354-27.99-52.395
		c-10.48-9.807-22.915-17.614-36.522-22.274c-4.641-7.192-10.163-13.872-16.332-19.763c-6.713-6.35-14.06-12.079-22.216-16.513
		c1.735-0.531,3.483-1.547,5.017-2.473l-1.612-1.282c-1.929-2.156-4.486-3.392-6.978-4.162c-4.881-1.366-9.865-1.554-14.83-1.165
		c3.729-2.233,7.794-4.661,9.27-5.483l-4.603-0.66c-6.253-0.984-12.752-1.592-19.083-1.198
		c-11.121,0.531-21.388,4.272-29.622,11.872c-4.266,3.89-7.781,8.383-11.341,12.558c-3.437,4.02-7.147,7.982-12.06,9.949
		l-0.887,0.363l-0.913,0.265l-0.919,0.272l-1.029,0.278c-7.871,2.013-15.387,5.334-22.469,9.309
		c-23.407-2.298-33.389,6.881-51.327,23.414c-6.001,5.541-12.811,11.814-21.394,18.87c-12.034,9.891-22.948,13.309-32.438,10.15
		c-12.901-4.298-21.071-20.391-24.404-34.017c-5.101-20.812-17.089-34.457-20.177-37.707c0.725-2.084,1.288-4.24,1.851-6.396
		c0.835-4.085,1.793-8.59-0.006-12.759c-4.02-7.859-16.054-2.065-24.275,4.434c-2.427-0.913-5.114-0.887-7.639-0.595
		c-3.243,0.414-6.273,1.528-9.231,2.738c-3.871,1.56-7.897,2.453-12.06,2.868c-7.179,0.745-14.824,0.654-22.106,1.23
		c-7.742,0.796-15.406,3.237-21.329,8.648c-1.942,1.826-3.651,4.059-4.622,6.732c-1.463,3.994-1.075,9.956,3.211,12.079
		c0.324,0.142,0.654,0.252,0.99,0.35c0.175,2.79,1.23,6.014,4.499,6.214c2.777,0.149,5.114-0.945,7.58-1.469
		c2.214-0.57,4.382-0.887,6.629-0.893c1.223,0.052,2.771,0,4.415-0.201c4.551,0.201,9.121,1.016,13.536,2.298
		c3.295,0.952,6.532,2.136,9.535,3.742c0.952,0.505,2.233,1.256,3.198,1.715c2.79,1.424,6.376,2.796,10.124,3.599
		c1.003,1.838,1.838,3.832,2.525,5.807c2.324,6.778,3.081,14.086,2.24,21.2c-0.13,1.016-0.35,2.531-0.557,3.541
		c-1.178,6.266-1.69,12.733-0.363,19.044c0.596,2.635,1.444,5.308,3.088,7.515l1.411,1.754c0.421-0.673,2.376-3.819,4.124-6.635
		c0.926,8.04,4.764,15.665,10.325,21.524l1.256-1.825c1.34-1.994,2.745-4.68,3.858-7.619c2.499,6.693,7.988,18.332,18.682,28.968
		c9.334,9.283,20.695,15.814,33.771,19.426c8.02,2.214,16.688,3.321,25.958,3.321c9.309,0,19.213-1.126,29.648-3.36
		c5.755,5.36,12.629,9.716,19.543,11.626c4.907,10.021,9.451,20.255,13.044,30.774c2.149,6.467,4.013,13.044,4.751,19.802
		c0.265,2.279,0.246,4.577,0.453,6.862c0.906,14.092,6.208,27.007,8.771,40.659c2.084,13.503,2.919,27.369,1.897,41.008
		c-0.401,4.505-1.036,9.043-2.46,13.18c-0.725,2.039-1.69,4.02-3.042,5.334c-0.79,0.712-1.677,1.431-2.531,2.065
		c-4.603,3.547-10.085,5.535-14.681,9.237c-4.712,3.709-7.405,9.14-9.716,14.507l3.029-0.537c0,0,19.387-3.437,25.88-4.59
		c-1.165,1.32-2.343,2.622-3.502,3.923l-3.586,2.991c4.266-0.576,30.748-4.026,35.376-4.661c-2.732-6.214-5.696-14.889-2.796-21.42
		c0.104-0.233,0.227-0.453,0.362-0.66l0.188-0.317c2.764-3.852,2.156-8.092,0.835-12.293c-6.59-19.653-5.599-40.717-2.978-61.024
		c0.764-5.425,1.813-11.943,1.605-17.387c-0.33-12.83-5.308-24.896-7.263-37.441c-1.418-8.072-2.123-16.261-2.369-24.469
		c6.104,1.198,21.556,3.832,40.84,4.117c1.094,0.019,2.207,0.026,3.353,0.026c22.527,0,53.54-3.398,80.249-18.436
		c3.845,19.439,13.788,37.105,24.223,53.67c5.334,8.823,11.4,17.62,14.526,27.427c5.043,18.701,0.369,42.885-5.399,61.127
		c-2.699,7.833-7.71,21.556-14.902,25.802c-9.516,4.622-19.782,10.92-23.679,21.427l-1.062,2.693l2.848-0.505
		c0,0,19.148-3.392,24.255-4.298c-1.495,2.207-2.926,4.764-4.227,7.062c0,0,3.418-0.783,3.424-0.783l28.974-3.819l1.923-0.252
		l-0.602-1.851c-1.081-3.36-2.091-6.784-2.479-10.131c-0.298-2.557-0.071-4.706,1.172-6.881c2.635-4.221,3.936-8.959,2.751-13.879
		c-0.647-3.45-0.57-6.784-0.078-10.247c2.227-14.06,7.502-27.492,12.5-40.788l1.968-5.01c2.059-5.198,3.321-10.72,3.288-16.364
		c0.052-3.677-0.835-7.451-1.612-10.953c-2.058-10.208-3.91-21.045,0-31.001c2.544-6.629,5.522-13.451,7.276-20.43
		c1.016-3.884,1.851-7.807,2.544-11.749c1.379,10.37,2.719,28.049,0.194,49.035c-4.201,34.904,13.167,46.808,13.911,47.294
		l3.301,2.181l-0.829-3.871c-1.651-7.71-0.712-16.177,0.052-20.818l8.396,11.38l0.634-3.754
		C492.098,249.142,487.457,238.941,482.544,228.137z M463.331,154.412c-0.984,17.73-2.635,35.732-8.907,52.447
		c-5.03,12.526-7.703,17.996-5.91,32.049c0.434,3.638,1.12,7.205,1.838,10.759c0.757,3.509,1.58,6.778,1.547,10.325
		c0.019,3.424-0.498,6.862-1.411,10.208c-0.738,2.978-2.544,7.049-3.632,9.969c-3.89,10.098-7.639,20.3-10.448,30.787
		c-1.366,5.308-2.622,10.765-2.667,16.326c-0.071,2.751,0.57,5.528,0.887,8.163c-0.065,11.73-8.273,7.535-2.285,26.974
		c-4.713,0.621-16.934,2.227-23.213,3.055c0.854-1.204,1.677-2.434,2.415-3.541c2.408-3.858,4.959-7.645,6.188-12.105
		c-1.541,1.12-2.842,2.408-4.072,3.741c-1.541,1.735-3.023,3.645-4.447,5.574c-0.052,0.006-19.634,3.483-24.456,4.337
		c1.864-3.508,4.512-6.544,7.651-9.043c3.955-3.165,8.519-5.612,13.206-7.962c1.392-0.719,2.531-1.664,3.547-2.667
		c11.581-12.539,17.821-39.306,19.873-56.091c1.139-10.648,1.605-21.53-1.359-32.017c-1.586-5.263-4.052-10.06-6.635-14.701
		c-16.216-27.337-34.749-52.531-34.295-85.881c-0.019-5.25,0.22-10.422,0.123-15.711c-3.929,10.053-3.405,21.142-1.942,31.654
		c0.052,0.376,0.116,0.751,0.175,1.133c-27.622,15.918-60.299,18.883-82.877,18.546c-19.899-0.285-35.642-3.107-41.034-4.195
		c-0.136-9.004,0.253-18.022,0.861-26.955c0.317-4.622,0.518-9.218,0.071-13.859c-2.143,6.331-2.719,13.95-3.224,20.559
		c-1.58,20.753-0.725,41.992,4.848,62.143c2.512,9.36,5.03,18.734,4.318,28.469c-0.155,3.133-1.036,8.752-1.457,11.904
		c-2.285,18.345-3.554,37.331,1.152,55.444c0.583,2.259,1.275,4.492,1.91,6.674c1.1,3.599,1.761,6.978-0.492,10.047
		c-3.929,6.37-1.903,14.94,0.654,21.679l-22.488,2.965c0.285-0.265,0.563-0.537,0.835-0.816c3.981-4.234,7.871-9.937,6.978-16.034
		c-1.664,3.612-3.955,6.881-6.473,9.982c-1.042,0.188-21.724,3.852-26.625,4.726c1.567-2.952,3.547-5.651,6.156-7.761
		c3.334-2.745,7.606-4.57,11.607-7.159c1.877-1.191,3.69-2.557,5.379-4.013c3.826-3.58,4.965-8.972,5.897-13.866
		c1.832-11.548,1.418-23.291,0.492-34.891c-0.518-5.787-1.185-11.594-2.382-17.31c-0.518-2.408-1.968-7.658-2.609-10.124
		c-2.402-8.894-4.764-17.763-5.347-26.819c-0.194-4.667-0.427-9.373-1.437-13.943c-2.861-13.704-8.331-26.722-14.332-39.267
		c-2.007-4.182-4.156-8.286-6.35-12.364c-2.24-4.124-4.369-8.273-8.027-11.412c0.958,4.693,3.256,8.642,5.405,12.791
		c0.427,0.842,0.848,1.69,1.269,2.531c-1.612-0.712-3.204-1.495-4.764-2.356c-8.383-4.758-15.568-11.205-22.89-17.478
		c1.994,3.379,4.583,6.777,7.567,9.93c-35.487,7.114-64.571,0.621-84.23-18.844c-13.315-13.186-18.358-28.405-19.459-32.211
		c0.874-4.149,0.848-8.286-0.945-11.302c-1.146,4.098-1.806,7.716-3.081,11.645c-0.965,2.945-2.13,5.884-3.301,8.771
		c-4.195-5.606-6.642-12.506-6.719-19.51c-0.052-1.01,0.557-7.114,0.628-8.24c-1.754,2.829-5.36,8.635-7.826,12.61
		c-2.44-5.599-2.207-12.131-1.476-18.119c0.324-2.415,0.9-4.92,1.178-7.341c1.036-9.056-0.227-18.488-4.072-26.78
		c5.431,0.505,10.746-0.518,14.066-4.609c-9.296,2.751-17.866,1.521-26.34-3.049c-2.104-1.094-4.272-2.434-6.467-3.321
		c-4.259-1.728-8.681-3.01-13.212-3.683c1.385-0.952,2.395-2.181,2.732-3.755c-3.211,0.977-5.457,2.395-8.635,2.906
		c-2.207,0.375-4.525,0.414-6.771,0.253c-2.538-0.123-5.14,0.252-7.574,0.822c-2.188,0.466-4.369,1.398-6.408,1.45
		c-0.408-0.052-0.46-0.045-0.712-0.337c-0.226-0.278-0.447-0.887-0.583-1.541c-0.026-0.11-0.039-0.227-0.058-0.337
		c2.628-0.104,5.25-1.023,7.606-1.864c4.635-1.994,9.678-3.819,12.597-8.182c-2.576,0.369-4.81,1.288-7.075,2.395
		c-4.13,2.026-8.745,4.143-13.29,4.376c-1.942,0.032-3.651-0.395-4.292-2.304c-0.654-1.929-0.615-4.078,0.142-6.033
		c0.641-1.528,1.528-2.881,2.596-4.078c2.784,0.505,7.729,0.388,9.38-6.104c1.34-0.524,2.699-0.977,4.039-1.359
		c4.531-1.301,9.535-1.418,14.228-1.599c8.02-0.427,16.462-0.33,24.262-2.906c5.043-1.677,9.878-4.473,15.329-4.208
		c0.24,0.013,0.473,0.026,0.712,0.052c-1.994,1.845-3.547,3.612-4.376,4.991C77.135,15.044,83.077,9.8,90.399,7.321
		c2.091-0.693,4.557-1.269,6.603-0.693c1.864,0.602,2.162,2.706,2.292,4.609c0.097,2.33-0.246,4.842-0.725,7.315
		c-0.919,5.114-3.101,9.969-3.081,15.277c1.029-0.984,1.813-2.097,2.499-3.25c0.304-0.511,0.576-1.036,0.829-1.566
		c3.929,4.421,13.982,17.096,18.403,35.163c1.722,7.023,8.713,30.386,26.527,36.315c2.635,0.874,5.347,1.314,8.137,1.314
		c8.461,0,17.64-4.026,27.382-12.034c8.648-7.114,15.497-13.419,21.53-18.986c16.507-15.212,25.479-23.479,44.2-22.883
		c-4.693,2.9-9.212,6.169-12.545,10.661c5.166-2.447,9.736-5.418,14.461-8.26c7.088-4.188,14.552-7.697,22.423-10.066
		c2.266-0.712,4.829-1.249,7.101-1.942c6.007-2.033,10.7-6.59,14.668-11.251c6.972-8.415,14.06-16.843,24.566-20.462l1.877-0.66
		c1.113-0.291,2.751-0.829,3.878-1.023c2.505-0.583,5.412-0.971,7.982-1.152c4.486-0.343,9.095-0.155,13.639,0.265
		c-5.146,3.088-12.021,7.211-15.549,9.328c7.192-1.392,15.801-3.269,23.129-2.725c3.483,0.227,7.392,0.79,10.344,2.673
		c-0.24,0.11-0.486,0.227-0.725,0.343c-3.204,1.683-6.357,3.463-9.38,5.457c2.156-0.362,4.292-0.816,6.415-1.327
		c2.473,1.346,4.959,2.945,7.321,4.518c5.917,3.988,11.756,8.661,16.96,13.561c0.945,0.829,2.194,2.156,3.101,3.049
		c0.783,0.744,2.298,2.311,3.017,3.127c3.457,3.703,6.674,7.658,9.639,11.768c2.02,2.732,4.098,6.305,6.13,9.017
		c0.9,1.172,1.864,2.317,3.055,3.366c-0.466-3.016-1.469-5.884-2.991-8.499c-0.084-0.142-0.175-0.285-0.265-0.434
		c1.832,0.725,3.644,1.515,5.392,2.35c29.363,13.911,47.812,38.626,53.249,68.403h-0.019c0.013,0.097,0.376,2.376,0.932,6.085
		C463.597,140.657,463.791,147.454,463.331,154.412z M486.37,262.872l-8.027-10.875l-0.822,3.347
		c-0.123,0.485-2.563,10.539-1.502,21.077c-4.57-5.237-12.099-17.704-9.276-41.164c3.884-32.289-1.243-56.933-1.884-59.807
		c0.66-5.489,1.113-11.005,1.456-16.526c1.625,12.364,3.198,25.854,3.696,35.215c0.874,16.183,5.502,26.359,9.581,35.338
		C484.123,239.426,488.078,248.12,486.37,262.872z M371.572,29.763c-3.91-2.984-7.949-5.871-12.746-7.483
		c3.36,3.67,7.231,6.544,11.056,9.639c7.464,6.163,14.662,12.662,21.083,19.905c2.324,2.777,4.544,5.645,6.803,8.473
		c0.751,0.958,1.534,1.91,2.415,2.822c-1.295-4.79-4.259-9.037-7.269-12.901C386.759,42.464,379.483,35.673,371.572,29.763z
		 M298.612,21.166c-0.395,0.596-0.77,1.198-1.113,1.813c4.479-3.347,8.752-6.538,13.652-9.134c4.816-2.758,9.768-4.855,14.604-7.723
		C316.219,6.356,304.004,13.353,298.612,21.166z M151.19,165.89c-4.311-0.757-8.661-1.67-13.031-2.324
		c3.664,2.751,8.092,4.065,12.474,5.082c7.638,1.806,15.575,2.596,23.414,2.421c4.421-0.129,9.069-0.317,13.348-1.515
		c1.088-0.285,2.175-0.596,3.243-1.016c-2.272-0.427-4.492-0.511-6.7-0.596C172.992,167.825,162.013,167.683,151.19,165.89z
		 M97.371,13.055c-0.984-6.622-9.218-1.955-12.429,0.188c-2.512,1.612-4.887,3.411-6.544,6.078
		c5.049-1.424,8.739-4.771,13.607-6.234c0.764-0.214,1.502-0.395,2.104-0.233c0.065,0.026,0.032,0.006,0.078,0.058
		c0.084,0.097,0.188,0.621,0.123,1.211c-0.233,4.408-1.178,8.622-0.719,13.076c1.929-2.518,2.537-5.496,3.036-8.383
		C96.911,16.875,97.416,15.036,97.371,13.055z M63.852,25.329c-0.285-0.796-0.751-1.534-1.411-2.149
		c-2.214-2.078-5.709-1.961-7.787,0.259c-0.712,0.764-1.165,1.683-1.359,2.641c-0.829,1.152-2.02,1.366-2.02,1.366
		c1.023,0.142,1.69,0.686,2.084,1.152c0.252,0.971,0.77,1.89,1.554,2.622c1.062,0.997,2.415,1.482,3.767,1.482
		c1.469,0,2.939-0.583,4.02-1.741c0.57-0.602,0.965-1.308,1.21-2.052c1.172-1.424,2.926-1.696,2.926-1.696
		C65.458,26.967,64.448,26.041,63.852,25.329z M61.755,30.08c-1.586,1.696-4.259,1.787-5.955,0.194
		c-0.045-0.039-0.078-0.084-0.123-0.123c1.288,0.822,3.017,0.641,4.098-0.518c0.071-0.071,0.136-0.149,0.201-0.227
		c-0.524,0.019-1.055-0.162-1.463-0.544c-0.809-0.764-0.855-2.033-0.097-2.848c0.401-0.427,0.952-0.641,1.502-0.634
		c-0.091-0.11-0.188-0.214-0.291-0.311c-1.308-1.223-3.353-1.152-4.57,0.149c-0.091,0.104-0.168,0.22-0.246,0.33
		c0.188-0.44,0.447-0.861,0.796-1.23c0.822-0.88,1.948-1.334,3.075-1.334c1.029,0,2.065,0.382,2.874,1.139
		C63.257,25.711,63.341,28.384,61.755,30.08z M63.852,25.329c-0.285-0.796-0.751-1.534-1.411-2.149
		c-2.214-2.078-5.709-1.961-7.787,0.259c-0.712,0.764-1.165,1.683-1.359,2.641c-0.829,1.152-2.02,1.366-2.02,1.366
		c1.023,0.142,1.69,0.686,2.084,1.152c0.252,0.971,0.77,1.89,1.554,2.622c1.062,0.997,2.415,1.482,3.767,1.482
		c1.469,0,2.939-0.583,4.02-1.741c0.57-0.602,0.965-1.308,1.21-2.052c1.172-1.424,2.926-1.696,2.926-1.696
		C65.458,26.967,64.448,26.041,63.852,25.329z M61.755,30.08c-1.586,1.696-4.259,1.787-5.955,0.194
		c-0.045-0.039-0.078-0.084-0.123-0.123c1.288,0.822,3.017,0.641,4.098-0.518c0.071-0.071,0.136-0.149,0.201-0.227
		c-0.524,0.019-1.055-0.162-1.463-0.544c-0.809-0.764-0.855-2.033-0.097-2.848c0.401-0.427,0.952-0.641,1.502-0.634
		c-0.091-0.11-0.188-0.214-0.291-0.311c-1.308-1.223-3.353-1.152-4.57,0.149c-0.091,0.104-0.168,0.22-0.246,0.33
		c0.188-0.44,0.447-0.861,0.796-1.23c0.822-0.88,1.948-1.334,3.075-1.334c1.029,0,2.065,0.382,2.874,1.139
		C63.257,25.711,63.341,28.384,61.755,30.08z M84.942,13.243c-2.512,1.612-4.887,3.411-6.544,6.078
		c5.049-1.424,8.739-4.771,13.607-6.234c0.764-0.214,1.502-0.395,2.104-0.233c0.065,0.026,0.032,0.006,0.078,0.058
		c0.084,0.097,0.188,0.621,0.123,1.211c-0.233,4.408-1.178,8.622-0.719,13.076c1.929-2.518,2.537-5.496,3.036-8.383
		c0.285-1.942,0.79-3.78,0.745-5.761C96.387,6.433,88.153,11.101,84.942,13.243z M183.938,167.942
		c-10.946-0.116-21.925-0.259-32.748-2.052c-4.311-0.757-8.661-1.67-13.031-2.324c3.664,2.751,8.092,4.065,12.474,5.082
		c7.638,1.806,15.575,2.596,23.414,2.421c4.421-0.129,9.069-0.317,13.348-1.515c1.088-0.285,2.175-0.596,3.243-1.016
		C188.366,168.11,186.145,168.026,183.938,167.942z M298.612,21.166c-0.395,0.596-0.77,1.198-1.113,1.813
		c4.479-3.347,8.752-6.538,13.652-9.134c4.816-2.758,9.768-4.855,14.604-7.723C316.219,6.356,304.004,13.353,298.612,21.166z
		 M392.915,50.219c-6.156-7.755-13.432-14.545-21.342-20.456c-3.91-2.984-7.949-5.871-12.746-7.483
		c3.36,3.67,7.231,6.544,11.056,9.639c7.464,6.163,14.662,12.662,21.083,19.905c2.324,2.777,4.544,5.645,6.803,8.473
		c0.751,0.958,1.534,1.91,2.415,2.822C398.89,58.33,395.925,54.083,392.915,50.219z M392.915,50.219
		c-6.156-7.755-13.432-14.545-21.342-20.456c-3.91-2.984-7.949-5.871-12.746-7.483c3.36,3.67,7.231,6.544,11.056,9.639
		c7.464,6.163,14.662,12.662,21.083,19.905c2.324,2.777,4.544,5.645,6.803,8.473c0.751,0.958,1.534,1.91,2.415,2.822
		C398.89,58.33,395.925,54.083,392.915,50.219z M298.612,21.166c-0.395,0.596-0.77,1.198-1.113,1.813
		c4.479-3.347,8.752-6.538,13.652-9.134c4.816-2.758,9.768-4.855,14.604-7.723C316.219,6.356,304.004,13.353,298.612,21.166z
		 M183.938,167.942c-10.946-0.116-21.925-0.259-32.748-2.052c-4.311-0.757-8.661-1.67-13.031-2.324
		c3.664,2.751,8.092,4.065,12.474,5.082c7.638,1.806,15.575,2.596,23.414,2.421c4.421-0.129,9.069-0.317,13.348-1.515
		c1.088-0.285,2.175-0.596,3.243-1.016C188.366,168.11,186.145,168.026,183.938,167.942z M84.942,13.243
		c-2.512,1.612-4.887,3.411-6.544,6.078c5.049-1.424,8.739-4.771,13.607-6.234c0.764-0.214,1.502-0.395,2.104-0.233
		c0.065,0.026,0.032,0.006,0.078,0.058c0.084,0.097,0.188,0.621,0.123,1.211c-0.233,4.408-1.178,8.622-0.719,13.076
		c1.929-2.518,2.537-5.496,3.036-8.383c0.285-1.942,0.79-3.78,0.745-5.761C96.387,6.433,88.153,11.101,84.942,13.243z
		 M63.852,25.329c-0.285-0.796-0.751-1.534-1.411-2.149c-2.214-2.078-5.709-1.961-7.787,0.259c-0.712,0.764-1.165,1.683-1.359,2.641
		c-0.829,1.152-2.02,1.366-2.02,1.366c1.023,0.142,1.69,0.686,2.084,1.152c0.252,0.971,0.77,1.89,1.554,2.622
		c1.062,0.997,2.415,1.482,3.767,1.482c1.469,0,2.939-0.583,4.02-1.741c0.57-0.602,0.965-1.308,1.21-2.052
		c1.172-1.424,2.926-1.696,2.926-1.696C65.458,26.967,64.448,26.041,63.852,25.329z M61.755,30.08
		c-1.586,1.696-4.259,1.787-5.955,0.194c-0.045-0.039-0.078-0.084-0.123-0.123c1.288,0.822,3.017,0.641,4.098-0.518
		c0.071-0.071,0.136-0.149,0.201-0.227c-0.524,0.019-1.055-0.162-1.463-0.544c-0.809-0.764-0.855-2.033-0.097-2.848
		c0.401-0.427,0.952-0.641,1.502-0.634c-0.091-0.11-0.188-0.214-0.291-0.311c-1.308-1.223-3.353-1.152-4.57,0.149
		c-0.091,0.104-0.168,0.22-0.246,0.33c0.188-0.44,0.447-0.861,0.796-1.23c0.822-0.88,1.948-1.334,3.075-1.334
		c1.029,0,2.065,0.382,2.874,1.139C63.257,25.711,63.341,28.384,61.755,30.08z M84.942,13.243c-2.512,1.612-4.887,3.411-6.544,6.078
		c5.049-1.424,8.739-4.771,13.607-6.234c0.764-0.214,1.502-0.395,2.104-0.233c0.065,0.026,0.032,0.006,0.078,0.058
		c0.084,0.097,0.188,0.621,0.123,1.211c-0.233,4.408-1.178,8.622-0.719,13.076c1.929-2.518,2.537-5.496,3.036-8.383
		c0.285-1.942,0.79-3.78,0.745-5.761C96.387,6.433,88.153,11.101,84.942,13.243z"/>
</g>
</svg>
