<?xml version="1.0" encoding="utf-8"?>
<!-- Generator: Adobe Illustrator 28.3.0, SVG Export Plug-In . SVG Version: 6.00 Build 0)  -->
<svg version="1.1" id="cougar" xmlns="http://www.w3.org/2000/svg" xmlns:xlink="http://www.w3.org/1999/xlink" x="0px" y="0px"
	 viewBox="0 0 350.467 490" enable-background="new 0 0 350.467 490" xml:space="preserve">
<g id="cougar_00000083804960183662759010000010368381810612662929_">
	<g>
		<path fill="#D69A72" d="M345.74,451.669c-2.942-5.105-8.463-8.812-16.412-11.016c-7.197-1.96-15.421-2.584-25.884-1.957
			c-8.917,0.653-16.166,0.77-22.812,0.371l-0.84-0.051l0.356,0.762c0.538,1.146,1.055,2.157,1.576,3.08
			c7.363,13.631,19.158,15.767,31.291,15.205c-2.158,0.603-4.389,1.021-6.666,1.247c-11.324,1.154-21.443-4.475-27.097-15.075
			c-3.569-6.459-5.373-13.447-7.118-20.206l-0.229-0.894c-0.786-3.067-1.599-6.239-2.697-9.135c-0.803-2.039-1.532-3.32-2.382-4.169
			c-0.946-0.865-1.992-1.166-3.113-0.895c-3.163,0.77-5.723,5.946-6.366,7.691c-4.336,11.196-3.462,22.827-1.966,30.612
			c2.73,14.392,11.314,26.625,22.973,32.729c8.337,4.188,19.196,7.355,30.268,7.355c9.965,0,20.104-2.568,28.723-9.269
			C345.298,472.032,350.943,460.738,345.74,451.669z"/>
		<path fill="#D69A72" d="M251.961,436.4l-0.008-0.403l-0.396-0.077c-33.608-6.606-46.378-20.657-50.309-26.392l-0.447-0.653
			l-0.397,0.685c-2.202,3.79-4.596,7.587-7.114,11.284c-3.662,5.384-7.698,10.732-11.997,15.9l-0.305,0.366l0.353,0.322
			c5.651,5.164,34.983,30.073,74.511,30.073c1.505,0,3.025-0.036,4.56-0.111l0.865-0.042l-0.47-0.729
			C255.325,458.128,252.183,447.393,251.961,436.4z"/>
		<path fill="#D69A72" d="M183.14,307.5l-0.426,0.024l-0.042,0.425c-2.072,20.681-7.778,37.064-13.818,54.41
			c-8.263,23.711-16.807,48.23-17.957,86.868l-0.039,1.305l0.901-0.945c1.082-1.136,2.234-1.858,3.16-1.981
			c1.587-0.209,3.15,0.299,4.649,1.501l0.308,0.247l0.312-0.242c0.413-0.32,0.87-0.581,1.356-0.774
			c1.596-0.635,3.441-0.487,5.335,0.427l0.315,0.152l0.251-0.244c2.103-2.049,13.146-13.08,24.07-29.129
			c11.32-16.632,24.948-42.323,25.591-70.27c0.362-15.765-3.436-27.325-11.288-34.359C197.329,307.305,186.317,307.315,183.14,307.5
			z"/>
		<path fill="#D69A72" d="M52.251,448.548l0.245,0.24l0.312-0.141c1.799-0.812,3.562-0.92,5.097-0.311
			c0.486,0.192,0.943,0.454,1.357,0.775l0.312,0.241l0.308-0.247c1.493-1.197,3.053-1.708,4.641-1.501
			c0.934,0.124,2.088,0.849,3.167,1.986l0.901,0.951l-0.039-1.31c-1.136-38.589-9.586-63.109-17.758-86.822
			c-5.986-17.379-11.641-33.794-13.671-54.461l-0.042-0.426l-0.427-0.024c-3.167-0.183-14.162-0.186-22.646,7.414
			c-7.854,7.041-11.65,18.602-11.282,34.359C3.882,399.488,47.304,443.675,52.251,448.548z"/>
		<path fill="#D69A72" d="M132.954,222.809c5.001-6.579,8.172-13.665,9.258-20.646c3.858,13.901,7.694,28.236,9.005,42.788
			c1.559,17.344-0.766,32.495-6.908,45.034c-0.967,1.978-2.062,3.95-3.119,5.857c-2.324,4.188-4.727,8.519-5.978,13.237
			c-1.397,5.279-1.308,10.833-1.221,16.204c0.013,0.81,0.026,1.618,0.034,2.425c0.059,5.592-1.547,11.674-3.1,17.556
			c-0.811,3.068-1.648,6.242-2.239,9.375c-0.154,21.882-0.483,43.272-2.797,64.4c-1.083,10.036-2.509,21.66-5.736,32.607
			c-0.653,2.101-1.214,3.701-1.818,5.189l-0.411,1.013l1.034-0.351c1.289-0.437,2.546-0.504,3.731-0.203
			c0.357,0.092,0.677,0.203,0.979,0.341l0.358,0.164l0.243-0.312c1.605-2.061,3.533-3.149,5.576-3.149
			c1.792,0,3.452,0.806,4.935,2.395l0.28,0.301l0.349-0.217c0.528-0.328,1.103-0.573,1.702-0.727c1.588-0.397,3.315-0.134,5,0.768
			c0.381,0.2,0.781,0.45,1.181,0.734l0.186,0.138c0.111,0.082,0.225,0.166,0.339,0.254l0.316,0.246l0.309-0.256
			c0.644-0.532,1.366-0.904,2.147-1.105c0.451-0.115,0.943-0.167,1.442-0.155l0.465,0.01l0.077-0.752
			c0.308-42.986,9.814-70.268,18.203-94.337c8.825-25.347,17.162-49.288,13.671-87.173l-0.133-1.435l-0.784,1.208
			c-5.605,8.626-13.31,16.011-22.274,21.354c-2.153,1.252-4.342,2.368-6.54,3.339c0.18-0.129,0.358-0.257,0.536-0.385l0.888-0.636
			c6.047-4.534,12.397-9.444,17.746-15.232c8.582-9.359,14.165-20.941,15.722-32.61c0.757-5.561,0.754-11.09-0.008-16.435
			l-0.261-1.829l-0.697,1.711c-1.677,4.114-3.792,7.955-6.279,11.404c-1.557,2.034-3.185,3.74-4.939,5.171
			c1.062-2.127,2.232-4.167,3.372-6.155c1.454-2.535,2.957-5.157,4.218-7.924c8.931-19.725,5.704-42.315,1.37-61.811
			c-2.909-13.336-6.084-25.495-9.691-37.122c-0.142-0.728-3.504-17.886-7.212-22.849l-0.277-0.372l-0.392,0.249
			c-1.105,0.705-4.574,3.571-8.589,6.89c-5.69,4.702-12.771,10.555-14.46,11.312l-0.155,0.069l-0.08,0.148
			c-2.509,4.63-6.634,8.574-11.286,10.807c-10.077,4.04-24.55,4.444-36.88,1.028c-6.259-1.618-11.874-5.998-15.021-11.718
			l-0.081-0.147l-0.154-0.068c-1.79-0.793-8.922-6.693-14.654-11.435c-3.988-3.3-7.433-6.149-8.584-6.885l-0.264-0.169l-0.267,0.163
			c-4.306,2.64-7.582,21.995-7.704,22.753c-2.665,8.605-5.196,17.924-7.738,28.489c-5.38,23.029-9.345,43.698-3.338,63.42
			l-0.001,0.004l0.042,0.134c0.794,2.571,1.666,4.897,2.667,7.11c1.262,2.774,2.77,5.403,4.228,7.946
			c1.136,1.981,2.302,4.015,3.362,6.133c-3.742-3.047-6.915-7.358-9.662-13.119c-0.293-0.593-0.57-1.202-0.836-1.812l-0.741-1.696
			l-0.214,1.839c-1.404,12.054,1.115,24.573,7.094,35.256c2.792,4.863,6.078,9.275,9.767,13.112
			c4.96,5.207,10.776,9.706,16.807,14.244l0.865,0.621c0.184,0.131,0.368,0.263,0.553,0.396c-2.202-0.971-4.393-2.087-6.544-3.337
			c-9.208-5.48-17.019-13.045-22.587-21.875l-0.782-1.24l-0.139,1.46c-3.633,38.226,4.662,62.284,13.444,87.755
			c8.293,24.063,17.693,51.338,18.001,94.279l0.077,0.752l0.465-0.01c0.509-0.01,0.989,0.041,1.433,0.155
			c0.786,0.2,1.511,0.572,2.157,1.106l0.309,0.255l0.316-0.246c0.17-0.133,0.341-0.263,0.524-0.387
			c0.411-0.297,0.806-0.542,1.215-0.753c1.658-0.892,3.376-1.152,4.961-0.755c0.606,0.156,1.18,0.401,1.706,0.728l0.35,0.217
			l0.28-0.301c1.478-1.589,3.138-2.395,4.934-2.395c2.042,0,3.97,1.089,5.576,3.149l0.243,0.311l0.359-0.163
			c0.3-0.137,0.619-0.248,0.972-0.341c1.042-0.26,2.129-0.243,3.23,0.053l0.971,0.262l-0.377-0.932
			c-0.583-1.441-1.139-3.04-1.75-5.024c-3.25-11.008-4.666-22.606-5.739-32.615c-2.53-23.11-2.68-46.182-2.824-68.493l-0.5,0.003
			c0,0,0,0,0,0c0,0,0,0,0,0l-0.304,0.002c-0.426-1.762-0.894-3.534-1.353-5.271c-1.556-5.887-3.164-11.974-3.108-17.569
			c0.008-0.799,0.022-1.599,0.035-2.398c0.09-5.381,0.183-10.944-1.218-16.231c-1.254-4.725-3.661-9.06-5.987-13.253
			c-1.056-1.902-2.147-3.869-3.113-5.842c-6.144-12.549-8.467-27.7-6.904-45.034c1.306-14.534,5.144-28.878,9.004-42.788
			c1.087,6.98,4.257,14.066,9.259,20.646c5.616,7.392,14.159,11.631,23.439,11.631S127.338,230.201,132.954,222.809z"/>
		<path fill="#D69A72" d="M52.761,49.69c0.587,1.695,1.173,3.391,1.735,5.089c0.409,1.257,0.805,2.513,1.187,3.783
			c0.299,0.974,0.582,1.956,0.854,2.942c0.337,1.226,0.622,2.343,0.874,3.423c0.051,0.206,0.098,0.418,0.144,0.629
			c-0.298-0.516-0.594-1.034-0.877-1.557c-0.722-1.331-1.433-2.74-2.112-4.187l-0.589-1.253l-1.1,4.242
			c-0.133,0.513-0.269,1.03-0.41,1.555l-0.936,3.592c-0.079,0.302-0.157,0.604-0.23,0.902c-0.156,0.61-0.309,1.225-0.457,1.835
			c-0.098,0.39-0.193,0.782-0.282,1.169c-0.129,0.544-0.259,1.092-0.379,1.634c-0.12,0.525-0.232,1.051-0.345,1.575l-0.216,1.039
			c-0.122,0.608-0.239,1.216-0.349,1.822l-0.185,1.044c-0.146,0.868-0.274,1.734-0.393,2.604c-0.078,0.608-0.149,1.216-0.216,1.827
			c-0.059,0.573-0.11,1.144-0.153,1.713l-0.008,0.139h0c-0.047,0.599-0.079,1.202-0.098,1.801c-0.012,0.234-0.02,0.464-0.024,0.707
			l0.004,0.215l0.062,0.062c0.418,1.409,1.013,2.648,1.825,3.774c3.029,4.217,8.222,5.729,13.243,7.191
			c0.521,0.152,1.039,0.303,1.551,0.456c7.052,2.101,11.107,5.309,12.052,9.535c0.44,1.967,0.153,3.969-0.15,6.089
			c-0.085,0.594-0.169,1.187-0.237,1.777c-0.411,3.565-0.197,7.135,0.634,10.618l-0.001,0.006l0.023,0.104
			c0.111,0.49,0.239,0.972,0.378,1.444c0.791,2.719,2.761,7.513,7.072,9.077l1.625,0.591l-1.06-1.367
			c-0.776-1.001-1.422-2.082-1.92-3.217c-1.158-2.578-1.65-5.468-1.424-8.354v-0.008c0.016-0.219,0.047-0.435,0.073-0.652
			L82,125.108v-0.468l0.002-0.015c0.256-1.779,0.776-3.456,1.547-4.986l0.006-0.008c0.162-0.324,0.34-0.642,0.522-0.951l0.016-0.027
			l0.099-0.1v-0.064l0.048-0.08c2.819-4.488,8.054-7.513,13.333-7.706c0.185,0.004,0.725,0.083,2.699,0.717l0.004,0
			c2.048,0.676,4.691,1.657,6.815,2.445l0.992,0.367l0.001,0.542l0.211,0.149c0.227,0.16,0.317,0.14,1.205-0.173
			c0.548,0.191,0.792,0.272,0.948,0.272c0.104,0,0.17-0.037,0.26-0.101l0.212-0.151v-0.538l1.104-0.408
			c2.021-0.75,4.536-1.681,6.521-2.339l0.007-0.001c2.165-0.718,2.752-0.794,2.878-0.782c5.278,0.193,10.5,3.208,13.36,7.758
			l0.034,0.055l0.169,0.292c0.131,0.222,0.26,0.446,0.377,0.677l0.022,0.044v0.388l0.181-0.003c0.708,1.472,1.195,3.055,1.431,4.721
			l0.002,0.014c0.055,0.367,0.101,0.727,0.124,1.109c0.234,2.985-0.295,5.955-1.503,8.539l-0.083,0.137v0.034
			c-0.469,1.003-1.059,1.967-1.755,2.866l-1.057,1.365l1.623-0.59c4.311-1.565,6.28-6.359,7.07-9.075
			c0.085-0.287,0.164-0.577,0.24-0.871l0.05,0.253l0.464-2.618c0.529-2.983,0.624-5.991,0.281-8.938
			c-0.068-0.592-0.153-1.186-0.238-1.78c-0.303-2.119-0.589-4.121-0.148-6.088c0.941-4.223,4.993-7.431,12.045-9.534
			c0.512-0.153,1.029-0.304,1.551-0.456c5.024-1.462,10.22-2.975,13.25-7.192c1.268-1.767,2.044-3.844,2.378-6.448
			c-0.082-1.188-0.208-2.427-0.386-3.791c-0.166-1.242-0.368-2.516-0.601-3.783l-0.141-0.755c-0.099-0.504-0.2-1.009-0.304-1.516
			l-0.159-0.749c-0.104-0.502-0.219-1.008-0.332-1.507c-0.126-0.568-0.26-1.141-0.396-1.705c-0.34-1.411-0.698-2.821-1.061-4.229
			l-0.829-3.174c-0.249-0.948-0.498-1.895-0.741-2.838l-0.338-1.306l-0.595,1.21c-0.752,1.526-1.495,2.924-2.257,4.253
			c0.653-2.711,1.51-5.818,1.963-7.389l0.124-0.416c0.016-0.045,0.027-0.086,0.028-0.113l0.465-1.351
			c0.698-2.016,2.15-6.21,3.557-10.574l0.039-0.121c1.389-4.311,2.381-7.709,2.946-10.095c0.038-0.156,0.073-0.311,0.108-0.466
			l0.048-0.213c1.085-5.108,2.089-10.571,2.089-15.909c0-0.369-0.004-0.732-0.016-1.08c0-0.09-0.004-0.183-0.009-0.288
			c-0.008-0.22-0.016-0.443-0.028-0.679c-0.007-0.154-0.016-0.312-0.027-0.475c-0.02-0.287-0.039-0.574-0.066-0.856
			c-0.019-0.211-0.04-0.418-0.066-0.667c-0.017-0.172-0.037-0.343-0.06-0.499c-0.031-0.284-0.071-0.565-0.115-0.845
			c-0.032-0.203-0.063-0.404-0.1-0.606l-0.492,0.087l0.475-0.198l-0.039-0.204c-0.025-0.136-0.051-0.271-0.081-0.414
			c-0.043-0.214-0.087-0.43-0.141-0.659c-0.047-0.205-0.094-0.41-0.136-0.561l-0.028-0.129c-0.039-0.161-0.084-0.324-0.135-0.487
			l-0.039-0.164c-0.056-0.194-0.111-0.389-0.17-0.58c-0.064-0.213-0.133-0.422-0.184-0.55l-0.04-0.145
			c-0.067-0.194-0.136-0.389-0.206-0.579c-0.068-0.189-0.137-0.38-0.217-0.577c-1.166-2.717-2.906-4.398-5.172-4.997
			c-4.158-1.101-8.741,1.739-11.099,3.525c-1.395,1.036-2.772,2.207-4.105,3.34c-0.444,0.378-0.885,0.753-1.322,1.119
			c-0.812,0.679-1.616,1.363-2.419,2.047c-1.39,1.184-2.827,2.408-4.314,3.599c-0.238,0.191-0.478,0.384-0.72,0.567l-0.072,0.058
			c-0.251,0.2-0.506,0.396-0.81,0.622c-0.258,0.196-0.516,0.393-0.782,0.584c-0.276,0.204-0.558,0.404-0.841,0.602
			c-0.279,0.195-0.56,0.392-0.882,0.604l-0.8,0.523l0.272,0.42l-0.364-0.363c-0.273,0.173-0.546,0.342-0.828,0.51
			c-0.281,0.172-0.564,0.336-0.854,0.496l-0.045,0.033l-0.033,0.013c-0.241,0.138-0.485,0.272-0.746,0.409
			c-0.054,0.029-0.104,0.057-0.174,0.091c-0.284,0.152-0.576,0.297-0.894,0.454l-0.135,0.063c-0.016,0.008-0.032,0.015-0.048,0.022
			l0.039-0.049c0.525-0.648,1.074-1.283,1.632-1.887l0.514-0.556l-0.713-0.254c-5.26-1.879-12.888-1.529-18.359-0.903
			c-3.646,0.421-7.364,0.542-11.048,0.36l-0.667-0.037c-0.197-0.011-0.397-0.022-0.601-0.037c-0.688-0.043-1.376-0.101-2.066-0.17
			c-0.371-0.034-0.738-0.073-1.108-0.116c-0.369-0.042-0.742-0.089-1.133-0.138l-0.261-0.032
			c-5.388-0.731-12.907-1.184-18.134,0.816l-0.688,0.263l0.761,0.834c0.184,0.199,0.367,0.396,0.542,0.594l0.228,0.259
			c0.149,0.172,0.294,0.34,0.433,0.507c0.045,0.058,0.091,0.111,0.14,0.164c0.037,0.049,0.081,0.103,0.17,0.211
			c0.046,0.058,0.093,0.116,0.14,0.174c-0.041-0.02-0.082-0.042-0.123-0.062l-2.613-1.405l-0.036-0.021
			c-0.156-0.091-0.312-0.187-0.487-0.295c-0.219-0.134-0.438-0.268-0.659-0.413c-0.247-0.157-0.489-0.315-0.73-0.477
			c-0.27-0.182-0.536-0.361-0.803-0.551c-0.172-0.118-0.34-0.236-0.514-0.362c-0.25-0.177-0.496-0.358-0.744-0.543
			c-0.79-0.585-1.561-1.189-2.325-1.807l-0.751-0.612c-1.075-0.882-2.135-1.785-3.199-2.691c-0.831-0.708-1.663-1.418-2.503-2.118
			c-0.438-0.367-0.881-0.743-1.326-1.121c-1.332-1.132-2.708-2.303-4.097-3.335c-0.525-0.398-1.07-0.778-1.624-1.133L61.65,4.431
			L61.543,4.33h-0.078c-0.129-0.071-0.258-0.142-0.387-0.211l-0.057-0.03c0,0-0.001,0-0.001-0.001L60.91,4.03h-0.004
			c-0.154-0.079-0.312-0.158-0.484-0.24c-0.14-0.066-0.28-0.132-0.417-0.191c-0.303-0.137-0.606-0.263-0.904-0.374
			c-0.141-0.054-0.282-0.104-0.424-0.15c-0.141-0.048-0.282-0.097-0.408-0.133c-0.156-0.049-0.316-0.095-0.469-0.135
			c-0.152-0.041-0.299-0.078-0.444-0.11c-0.25-0.057-0.497-0.106-0.741-0.143c-0.163-0.025-0.323-0.046-0.484-0.064l-0.137-0.018
			c-0.09-0.009-0.176-0.013-0.239-0.016c-0.094-0.009-0.188-0.015-0.263-0.014c-0.25-0.013-0.5-0.013-0.734,0.004
			c-0.118,0.004-0.235,0.009-0.327,0.02c-0.078,0.004-0.151,0.013-0.22,0.022c-0.047,0.005-0.096,0.011-0.113,0.016
			c-0.073,0.009-0.145,0.019-0.201,0.029c-0.197,0.03-0.395,0.069-0.578,0.118c-0.085,0.021-0.176,0.047-0.257,0.071
			c-0.354,0.102-0.689,0.229-0.997,0.376c-0.16,0.076-0.32,0.16-0.485,0.256c-0.154,0.092-0.308,0.188-0.467,0.298l-0.417,0.314
			c-0.146,0.118-0.285,0.243-0.42,0.37c-0.081,0.073-0.154,0.149-0.241,0.24c-0.076,0.076-0.148,0.157-0.202,0.221
			c-0.076,0.081-0.148,0.162-0.205,0.234c-0.162,0.191-0.317,0.396-0.465,0.61c-0.06,0.085-0.12,0.175-0.167,0.251
			c-0.046,0.069-0.092,0.139-0.116,0.184c-0.063,0.097-0.122,0.197-0.18,0.297c-0.061,0.103-0.12,0.21-0.159,0.291
			c-0.045,0.076-0.086,0.157-0.121,0.228c-0.039,0.073-0.077,0.15-0.115,0.23c-0.084,0.177-0.169,0.359-0.255,0.561
			c-3.356,8.43-1.67,18.384,0.175,27.056C49.353,39.842,51.086,44.848,52.761,49.69z M168.862,45.355L168.862,45.355L168.862,45.355
			L168.862,45.355z M55.947,2.97L55.947,2.97L55.947,2.97L55.947,2.97z"/>
		<path fill="#D69A72" d="M181.141,462.573c-0.012-0.161-0.028-0.322-0.049-0.482l-0.549-4.252l-0.444,4.265
			c-0.028,0.273-0.083,0.526-0.146,0.771c-0.216,0.82-0.658,1.871-1.536,2.22c-0.772,0.305-1.681-0.014-2.308-0.335l-2.278-1.166
			l-0.695,2.461c-0.271,0.949-0.821,2.174-1.91,2.612c-1.431,0.566-3.651-0.431-5.655-2.539l-2.605-2.738l-0.947,3.664
			c-0.476,1.836-1.216,3.262-2.087,4.054l-1,0.502l0.032,0.341c0.022,0.231,0.041,0.462,0.056,0.693v0.185l0.011-0.006
			c0.021,0.389,0.032,0.776,0.032,1.161c0,0.364-0.02,0.719-0.036,1.046c-0.006,0.055-0.007,0.119-0.007,0.179v0.821l0.729-0.377
			c1.418-0.733,2.567-2.562,3.238-5.147l0.496-1.92l1.363,1.435c2.32,2.44,4.904,3.506,6.75,2.778
			c1.467-0.591,2.17-2.103,2.502-3.269l0.364-1.288l1.192,0.611c0.811,0.414,2.009,0.814,3.13,0.374
			c1.004-0.397,1.742-1.399,2.137-2.898c0.252-0.973,0.338-2.097,0.257-3.341C181.17,462.841,181.157,462.699,181.141,462.573z"/>
		<path fill="#D69A72" d="M156.828,472.906c-0.012-0.215-0.031-0.429-0.052-0.65l-0.996,0.001c-0.037,0.411-0.102,0.806-0.172,1.178
			c-0.131,0.647-0.302,1.238-0.506,1.75c-0.386,0.937-1.084,2.112-2.217,2.399c-0.736,0.185-1.491-0.065-2.032-0.336l-3.674-6.753
			l-0.477,7.951c-0.629,1.13-1.413,1.823-2.333,2.06c-1.611,0.403-3.772-0.758-5.642-3.05l-2.59-7.411l-1.958,7.956l-0.025,0.17
			c-1.214,2.501-2.812,3.984-4.31,3.984c-1.388,0-2.858-1.253-4.043-3.44l-1.435-9.008l-2.779,8.299
			c-1.998,2.743-4.346,4.164-6.152,3.7c-0.87-0.218-1.632-0.862-2.26-1.913c-0.713-1.209-1.173-2.841-1.329-4.717l-0.366-4.414
			l-0.627,4.385c-0.009,0.062-0.014,0.129-0.02,0.267c0.054,0.957,0.054,1.897,0,2.862c0.152,2.102,0.664,3.943,1.482,5.329
			c0.771,1.291,1.739,2.089,2.874,2.372c2.26,0.576,4.965-0.976,7.253-4.146l1.578-4.64l0.806,5.065l0.053,0.156
			c1.391,2.607,3.154,4.044,4.965,4.044c1.98,0,3.928-1.762,5.345-4.835l0.301-0.796l-0.169,0.019l0.982-3.991l1.509,4.315
			l0.082,0.148c2.161,2.685,4.67,3.974,6.723,3.459c1.229-0.317,2.244-1.209,3.018-2.65l0.333-4.786l2.15,3.951l0.131,0.071
			c1.002,0.539,1.996,0.71,2.879,0.493c1.538-0.391,2.425-1.841,2.9-2.994c0.228-0.573,0.416-1.222,0.56-1.934
			c0.172-0.871,0.263-1.828,0.271-2.85v-0.016c0-0.208-0.004-0.422-0.012-0.627C156.845,473.188,156.84,473.038,156.828,472.906z"/>
		<path fill="#D69A72" d="M108.615,475.239c-0.004-0.063-0.01-0.13-0.019-0.192l-0.627-4.39l-0.366,4.419
			c-0.156,1.875-0.615,3.506-1.327,4.714c-0.631,1.054-1.392,1.698-2.264,1.917c-1.801,0.455-4.152-0.959-6.15-3.701l-2.78-8.299
			l-1.434,9.008c-1.184,2.188-2.654,3.44-4.043,3.44c-1.484,0-3.067-1.457-4.276-3.917l-2.017-8.193l-2.589,7.411
			c-1.869,2.291-4.023,3.462-5.641,3.05c-0.921-0.236-1.706-0.93-2.334-2.06l-0.476-7.951l-3.674,6.753
			c-0.542,0.271-1.293,0.516-2.03,0.337c-1.134-0.288-1.833-1.464-2.217-2.396c-0.206-0.515-0.377-1.104-0.507-1.753
			c-0.071-0.374-0.135-0.769-0.172-1.18l-0.449-4.926l-0.546,4.915c-0.009,0.08-0.017,0.163-0.02,0.217
			c-0.013,0.12-0.021,0.246-0.024,0.342c-0.014,0.155-0.017,0.312-0.02,0.471l-0.008,0.241c-0.007,0.149-0.014,0.299-0.014,0.467
			l0.003,0.15c0.002,0.11,0.004,0.22,0.009,0.313c0.004,0.157,0.012,0.313,0.021,0.48l0.011,0.141
			c0.007,0.105,0.015,0.211,0.024,0.3c0.012,0.146,0.028,0.288,0.045,0.453c0.045,0.344,0.093,0.679,0.156,0.989
			c0.022,0.119,0.044,0.233,0.065,0.3c0.014,0.082,0.031,0.158,0.051,0.242c0.114,0.454,0.243,0.872,0.38,1.228
			c0.023,0.066,0.046,0.132,0.072,0.189c0.47,1.146,1.354,2.596,2.9,2.988c0.349,0.083,0.708,0.11,1.057,0.078
			c0.191-0.014,0.386-0.046,0.566-0.089c0.249-0.056,0.505-0.141,0.781-0.257c0.164-0.069,0.319-0.146,0.47-0.229l0.13-0.07
			l2.149-3.951l0.274,4.58l0.059,0.206c0.763,1.421,1.805,2.337,3.016,2.65c2.051,0.521,4.562-0.773,6.725-3.459l1.59-4.464
			l0.982,3.991l-0.238-0.027l0.371,0.805c1.416,3.073,3.364,4.835,5.344,4.835c1.812,0,3.575-1.437,4.965-4.044l0.859-5.222
			l1.509,4.506l0.069,0.134c2.289,3.17,5.001,4.72,7.251,4.146c0.571-0.144,1.109-0.422,1.606-0.833
			c0.465-0.397,0.889-0.915,1.262-1.538c0.161-0.269,0.307-0.551,0.446-0.856c0.085-0.195,0.171-0.396,0.249-0.604
			c0.078-0.21,0.151-0.423,0.216-0.64c0.298-0.977,0.493-2.063,0.578-3.23l0.002-0.033l-0.002-0.032
			C108.562,477.211,108.562,476.27,108.615,475.239z"/>
		<path fill="#D69A72" d="M60.397,473.44c0.003-0.156,0.007-0.312,0.019-0.48c0.002-0.046,0.004-0.091,0.006-0.138l0.01,0.005
			v-0.182c0.004-0.066,0.009-0.136,0.016-0.209c0.011-0.159,0.021-0.321,0.04-0.479l-0.022-0.379l-0.93-0.458
			c-0.877-0.79-1.623-2.221-2.102-4.067l-0.946-3.664l-2.606,2.738c-2.005,2.109-4.222,3.108-5.652,2.54
			c-1.093-0.439-1.644-1.664-1.913-2.612l-0.697-2.462l-2.278,1.166c-0.625,0.32-1.536,0.638-2.305,0.336
			c-0.881-0.35-1.323-1.4-1.538-2.221c-0.064-0.244-0.118-0.493-0.146-0.767l-0.444-4.126l-0.561,4.208
			c-0.017,0.128-0.03,0.261-0.03,0.324c-0.01,0.047-0.014,0.095-0.02,0.169c-0.02,0.224-0.033,0.447-0.041,0.664
			c-0.045,1.101,0.046,2.104,0.274,2.984c0.033,0.124,0.07,0.252,0.112,0.386c0.042,0.134,0.09,0.27,0.146,0.407
			c0.159,0.391,0.334,0.721,0.54,1.016c0.372,0.52,0.823,0.886,1.34,1.087c1.121,0.441,2.318,0.039,3.125-0.375l1.196-0.613
			l0.365,1.291c0.331,1.164,1.033,2.677,2.505,3.269c1.868,0.737,4.392-0.303,6.746-2.779l1.364-1.435l0.495,1.918
			c0.082,0.32,0.175,0.628,0.272,0.921c0.097,0.291,0.199,0.571,0.308,0.837c0.445,1.092,0.99,1.969,1.62,2.608l0.256,0.242
			c0.005,0.004,0.009,0.008,0.014,0.012l0.113,0.102h0.011c0.207,0.164,0.423,0.305,0.646,0.42l0.755,0.367l-0.03-0.96
			c-0.019-0.35-0.038-0.7-0.038-1.068v-0.012C60.389,473.799,60.393,473.629,60.397,473.44z"/>
	</g>
	<g>
		<path fill="#AD6E4B" d="M161.708,19.594c0.3-0.21,0.397-0.132,0.456-0.084c2.464,2.025-0.224,26.882-1.678,31.28
			c-0.084,0.225-0.133,0.352-0.139,0.368l0.924,0.381c0.021-0.047,0.043-0.104,0.065-0.169c0.826-2.17,8.906-23.672,7.899-31.922
			c-1.072-8.795-4.997-9.118-5.163-9.127l-0.179-0.011l-23.505,17.227l1.667-0.084C142.427,27.435,151.255,26.913,161.708,19.594z"
			/>
		<path fill="#AD6E4B" d="M65.586,68.911l-1.856,0.2l1.547,0.761c2.893,1.423,4.28,3.306,5.121,6.945l0.181,0.789
			c0.802,3.524,1.632,7.168,4.175,9.549c2.896,2.7,7.419,4.207,10.414,4.678c3.568,0.56,5.68,1.763,6.106,3.479
			c0.599,2.412-1.917,5.934-6.903,9.663c-2.958,2.212-4.291,4.425-5.265,6.04l-0.285,0.47c-0.227,0.362-0.992,1.931-1.079,2.109
			c-2.01,4.143-1.344,9.45-0.541,13.612c0.232,1.208,1.093,2.325,1.925,3.405c0.473,0.614,0.92,1.194,1.211,1.743l0.058,0.106
			c1.128,2.104,2.34,4.087,3.55,4.355c0.116,0.025,0.224,0.038,0.321,0.038c0.047,0,0.091-0.003,0.132-0.009
			c0.302-0.026,0.55-0.165,0.719-0.399c0.291-0.405,0.311-1.038,0.04-2.13c-1.099-2.581-1.567-5.484-1.354-8.402
			c0.022-0.366,0.062-0.73,0.113-1.1c0.231-1.756,0.707-3.416,1.416-4.938c0.156-0.339,0.323-0.672,0.521-1.019
			c0.03-0.06,0.065-0.119,0.102-0.182c0.244-0.423,0.916-1.186,1.766-2.15c3.534-4.009,10.888-12.351,10.325-22.413
			c-0.177-3.169-0.647-11.589-7.804-19.3C83.013,67.028,70.802,68.346,65.586,68.911z"/>
		<path fill="#AD6E4B" d="M59.392,51.541l0.929-0.368c-0.006-0.019-0.06-0.171-0.153-0.439c-1.205-4.221-3.553-29.096-0.978-31.212
			c0.07-0.058,0.175-0.143,0.486,0.073c10.455,7.319,18.407,7.752,18.74,7.767l1.599,0.071l-22.52-17.121l-0.184,0.011
			c-0.167,0.009-4.091,0.332-5.164,9.127c-0.994,8.146,6.244,29.23,7.148,31.825C59.331,51.384,59.363,51.472,59.392,51.541z"/>
		<path fill="#AD6E4B" d="M186.647,307.485l-0.542-0.018c-1.01-0.032-2.008-0.021-2.963,0.032l-0.428,0.023l-0.042,0.426
			c-2.072,20.681-7.778,37.064-13.818,54.41c-8.263,23.711-16.807,48.23-17.957,86.868l-0.039,1.312l0.902-0.953
			c0.648-0.686,1.334-1.227,1.981-1.565l0.255-0.133l0.013-0.287c1.747-37.109,10.207-61.396,18.388-84.882
			c6.094-17.482,11.85-33.996,14.189-54.694L186.647,307.485z"/>
		<path fill="#AD6E4B" d="M50.949,362.359c-6.041-17.347-11.746-33.731-13.818-54.41l-0.042-0.426L36.66,307.5
			c-0.955-0.053-1.952-0.063-2.963-0.032l-0.542,0.018l0.061,0.539c2.34,20.698,8.096,37.212,14.189,54.694
			c8.223,23.605,16.726,48.015,18.484,85.352l0.014,0.287l0.254,0.133c0.606,0.316,1.201,0.945,1.887,1.669l0.901,0.952
			l-0.039-1.311C67.737,410.538,58.818,384.941,50.949,362.359z"/>
		<path fill="#AD6E4B" d="M156.961,151.919l-2.478,2.58c-2.912,3.032-6.422,5.456-10.432,7.204c-2.297,1-4.12-0.192-4.984-1.519
			c-0.958-1.47-1.132-3.685,0.641-5.316c7.902-7.278,13.121-14.365,14.061-25.537c5.569-4.222,11.182-9.254,12.07-12.672
			c0.25-0.961,0.129-1.779-0.358-2.432l-0.278-0.373l-0.392,0.251c-1.102,0.704-4.558,3.56-8.56,6.867
			c-0.774,0.64-1.574,1.301-2.383,1.967l-0.08-2.056l-0.868,2.568c-0.045,0.134-0.095,0.254-0.142,0.385
			c-4.811,3.956-9.659,7.861-11.017,8.47l-0.155,0.069l-0.08,0.148c-1.179,2.176-2.725,4.191-4.504,5.957
			c-0.137,0.076-0.261,0.142-0.4,0.22c-7.811,4.357-14.921,6.937-21.583,7.83c-5.191,0.337-10.637,0.04-15.894-0.883
			c-4.138-0.898-8.63-2.343-12.937-4.519c-3.24-2.156-5.994-5.081-7.869-8.486l-0.081-0.147l-0.154-0.068
			c-1.087-0.483-4.153-2.856-7.675-5.706c-0.334-0.583-0.657-1.177-0.959-1.791l-0.603-1.223l-0.331,1.322
			c-0.011,0.043-0.018,0.085-0.028,0.128c-1.698-1.389-3.435-2.826-5.061-4.171c-3.985-3.298-7.427-6.146-8.578-6.882l-0.264-0.169
			l-0.267,0.163c-0.506,0.311-0.752,0.805-0.711,1.431c0.192,2.906,7.461,9.409,14.01,14.548
			c-2.088,19.231,13.071,30.108,21.528,36.166c1.654,1.186,3.083,2.209,3.981,3.023c1.482,1.346,2.286,2.493,2.607,3.722
			c0.535,2.048-0.529,4.394-2.422,5.34c-1.867,0.932-11.164-0.168-12.472-1.813l-1.131-1.424l0.244,1.802
			c2.597,19.198,25.477,24.381,31.462,24.718l0.129-0.989c-1.003-0.205-1.869-0.884-2.441-1.912
			c-0.719-1.294-0.86-2.924-0.368-4.252c0.815-2.201,3.016-4.016,6.036-4.978c1.63-0.519,3.369-0.791,5.051-1.055
			c1.081-0.169,2.2-0.344,3.293-0.584c8.909-1.955,15.592-8.03,19.629-12.781c5.14-6.049,8.893-13.131,12.522-19.979
			L156.961,151.919z"/>
		<path fill="#AD6E4B" d="M347.692,457.719l-0.511-4.945l-0.484,4.948c-0.571,5.852-4.388,12.111-9.964,16.341
			c-17.827,13.859-42.347,9.639-57.924,1.814c-11.382-5.959-19.773-17.932-22.446-32.026c-0.688-3.575-1.083-7.15-1.176-10.625h-1
			c-0.124,4.528,0.277,9.244,1.193,14.015c2.73,14.392,11.314,26.625,22.973,32.729c8.337,4.188,19.196,7.355,30.268,7.355
			c9.966,0,20.104-2.568,28.724-9.27C343.093,473.706,348.521,465.732,347.692,457.719z"/>
		<path fill="#AD6E4B" d="M258.962,463.524l-0.147-0.269l-0.306,0.009c-37.903,1.067-66.975-21.485-74.985-28.43l-0.391-0.339
			l-0.325,0.402c-0.512,0.632-1.016,1.245-1.515,1.846l-0.305,0.367l0.353,0.321c5.651,5.164,34.983,30.073,74.511,30.073
			c1.505,0,3.025-0.036,4.56-0.111l0.867-0.042l-0.472-0.729C260.182,465.66,259.561,464.617,258.962,463.524z"/>
		<path fill="#AD6E4B" d="M134.528,118.682c0.036,0.06,0.07,0.119,0.113,0.202c0.184,0.32,0.352,0.654,0.509,0.995
			c0.707,1.518,1.183,3.178,1.415,4.939c0.051,0.365,0.09,0.73,0.112,1.102c0.213,2.912-0.256,5.815-1.381,8.476
			c-0.245,1.013-0.225,1.646,0.066,2.05c0.168,0.235,0.417,0.374,0.696,0.397c0.051,0.007,0.103,0.011,0.155,0.011
			c0.102,0,0.207-0.013,0.321-0.037c1.208-0.269,2.418-2.25,3.546-4.351l0.062-0.114c0.291-0.546,0.737-1.126,1.211-1.74
			c0.832-1.08,1.692-2.197,1.925-3.405c0.803-4.162,1.468-9.472-0.541-13.613c-0.009-0.017-0.837-1.722-1.077-2.105
			c-1.164-1.894-3.467-4.201-6.315-6.332c-4.67-3.492-7.09-7.061-6.473-9.544c0.468-1.886,2.694-3.192,6.439-3.779
			c2.995-0.471,7.519-1.978,10.415-4.678c2.542-2.381,3.371-6.024,4.174-9.549l0.181-0.789c0.841-3.64,2.229-5.522,5.12-6.945
			l1.547-0.761l-1.856-0.2c-5.216-0.562-17.425-1.883-24.653,5.903c-7.156,7.71-7.627,16.131-7.804,19.3
			c-0.562,10.062,6.79,18.404,10.324,22.413C133.61,117.492,134.282,118.255,134.528,118.682z"/>
		<path fill="#AD6E4B" d="M124.208,400.004c-1.46,9.575-3.363,19.089-5.567,30.104c-0.659,3.295-1.342,6.705-2.041,10.265
			c-0.89,4.535-4.189,13.543-7.087,17.328c-2.894-3.782-6.193-12.791-7.083-17.329c-0.705-3.589-1.391-7.025-2.055-10.346
			c-2.244-11.229-4.181-20.925-5.651-30.699c-0.824-5.466-1.439-10.557-1.88-15.565l-0.997,0.071c0.143,2.613,0.272,5.175,0.4,7.703
			c0.876,17.299,1.704,33.638,6.22,54.831c1.018,4.794,7.083,21.235,10.615,25.072l0.148,0.161h0.568l0.148-0.161
			c3.458-3.761,9.626-20.415,10.615-25.071c4.521-21.238,5.347-37.609,6.221-54.942c0.123-2.445,0.248-4.92,0.384-7.444
			l-0.997-0.071C125.711,389.124,125.069,394.387,124.208,400.004z"/>
	</g>
	<g>
		<path fill="#FFFFFF" d="M180.557,235.803c-2.119,4.642-5.87,11.193-8.201,15.726c0,0,1.941-6.529,5.918-14.96
			c9.058-19.206,4.884-40.889,0.421-60.983c-2.728-12.493-5.904-24.909-9.695-37.132c0,0-3.125-16.098-6.608-21.873
			c1.261-1.012,2.209-1.748,2.689-2.055c3.682,4.931,7.12,22.648,7.12,22.648c3.791,12.224,6.967,24.64,9.695,37.132
			C186.359,194.399,189.317,216.459,180.557,235.803z"/>
		<path fill="#FFFFFF" d="M185.11,249.999c-1.614,12.102-7.377,23.378-15.592,32.343c-5.27,5.699-11.475,10.514-17.679,15.169
			c-1.498,1.082-4.165,3.058-4.165,3.058c6.205-4.655,13.372-11.248,18.642-16.947c8.215-8.965,13.978-20.241,15.592-32.343
			c0.531-3.893,0.692-7.857,0.455-11.788c1.031-1.889,1.934-3.823,2.741-5.788C185.872,239.094,185.847,244.607,185.11,249.999z"/>
		<path fill="#FFFFFF" d="M166.304,361.473c-8.414,24.147-17.923,51.469-18.23,94.499c-0.013,0.083-0.026,0.16-0.032,0.243
			c-0.531-0.013-1.057,0.038-1.575,0.173c-0.563,0.141-1.095,0.371-1.594,0.672c0.333-42.921,9.829-70.199,18.23-94.307
			c8.574-24.614,16.693-47.979,13.889-84.068c1.044-1.351,2.03-2.747,2.958-4.175C183.426,312.257,175.102,336.205,166.304,361.473z
			"/>
		<path fill="#FFFFFF" d="M216.608,349.262c-0.64,27.822-14.222,53.422-25.504,70c-10.623,15.605-21.24,26.356-24.006,29.051
			c-0.307-0.147-0.608-0.275-0.909-0.384c4.405-4.54,13.056-14.029,21.713-26.746c11.282-16.578,24.864-42.178,25.504-70
			c0.359-15.611-3.381-27.041-11.122-33.976c-6.557-5.872-14.593-7.14-19.312-7.312c0.071-0.628,0.134-1.261,0.199-1.895
			c3.291-0.192,13.997-0.166,22.315,7.287C213.227,322.221,216.966,333.651,216.608,349.262z"/>
		<path fill="#FFFFFF" d="M171.951,34.631c-1.131,15.665-9.628,33.093-9.921,33.686c-0.004,0.012-0.008,0.016-0.008,0.016
			c-1.217-7.094,5.787-23.636,7.292-30.46c1.821-8.575,4.372-19.241,1.283-27.625c-4.438-12.058-18.586,2.769-20.329,4.255
			c-4.278,3.642-7.487,6.08-12.565,6.887c-0.823,0.133-1.696,0.218-2.628,0.261c-6.696-2.765-19.729,0.721-29.259-0.55
			c-16.562-2.203-20.314,0.152-20.497,0.214c-0.008,0.004-0.012,0.004-0.012,0.004c-1.1-0.059-2.11-0.172-3.057-0.339
			c-4.691-0.831-7.772-2.991-11.863-6.477c-1.743-1.486-15.891-16.312-20.329-4.255c-3.089,8.384-0.538,19.05,1.283,27.625
			c1.501,6.813,8.486,23.312,7.296,30.425v0.02c-0.004,0.004-0.004,0.012-0.004,0.016c0,0-0.016-0.027-0.039-0.082
			c-0.004-0.004-0.008-0.012-0.008-0.016c-0.784-1.603-10.845-22.384-11.949-37.698c-0.636-8.739-1.423-14.363,1.868-22.669
			c1.037-2.418,2.476-3.818,4.13-4.473c0.109-0.043,0.218-0.086,0.331-0.121c0.261-0.09,0.526-0.16,0.799-0.211
			c0.702-0.14,1.435-0.164,2.18-0.094c0.289,0.027,0.581,0.07,0.874,0.125c1.127,0.211,2.277,0.616,3.404,1.154
			c0.187,0.09,0.37,0.183,0.554,0.277c0,0.004,0.004,0.004,0.008,0.004c0.183,0.097,0.367,0.199,0.55,0.3
			c0.004,0.004,0.008,0.004,0.012,0.004c0.23,0.133,0.46,0.269,0.69,0.406c0.679,0.421,1.345,0.877,1.981,1.361
			c1.841,1.369,3.65,2.972,5.405,4.442c0.156,0.129,0.316,0.261,0.476,0.39c0.004,0.004,0.008,0.004,0.008,0.004
			c5.561,4.469,15.006,9.375,14.019,8.302c0.004,0,0.004,0,0.004,0c-0.078-0.086-0.156-0.175-0.234-0.261
			c5.058-1.934,12.397-1.533,17.888-0.788c0.086,0.012,0.183,0.023,0.289,0.035c3.241,0.339,14.487,0.328,17.194-0.035
			c5.495-0.745,12.834-1.147,17.892,0.788c-0.078,0.086-0.156,0.175-0.234,0.261c0,0,0,0,0.004,0
			c-0.012,0.012-0.023,0.023-0.031,0.035c-0.737,0.932,8.845-4.071,14.3-8.536c0.078-0.066,0.156-0.129,0.234-0.195
			c1.755-1.47,3.564-3.073,5.405-4.442c5.261-3.985,12.307-6.201,15.513,1.267c0.074,0.183,0.14,0.367,0.207,0.55
			C175.316,16.603,172.567,26.083,171.951,34.631z"/>
		<path fill="#FFFFFF" d="M316.322,457.5c-3.317,1.306-7.609,3.114-11.227,3.473c-12,1.229-21.977-2.824-27.561-13.294
			c-3.573-6.467-5.404-13.504-7.165-20.324c-0.877-3.413-1.716-6.832-2.907-9.97c-0.602-1.53-1.325-3.054-2.254-3.983
			c-3.022-2.766-6.358,1.748-7.972,5.007c0.179-0.538,0.371-1.069,0.576-1.601c1.101-2.984,5.103-9.874,8.676-6.608
			c0.928,0.928,1.652,2.452,2.254,3.983c1.191,3.138,2.03,6.557,2.907,9.97c1.761,6.819,3.592,13.857,7.165,20.324
			c3.445,6.454,8.568,11.251,14.811,13.677c0,0.006,0,0.006,0.006,0C299.933,460.947,308.126,458.198,316.322,457.5z"/>
		<path fill="#FFFFFF" d="M344.365,469.361c2.062-4.783,2.408-10.091-0.339-14.881c-3.368-5.846-9.759-9.022-16.11-10.783
			c-8.324-2.267-17.129-2.452-25.715-1.94c-6.672,0.487-13.498,0.756-20.241,0.499c-0.48-0.877-0.928-1.78-1.358-2.689
			c7.594,0.455,15.336,0.179,22.879-0.371c8.587-0.512,17.391-0.327,25.715,1.94c6.352,1.761,12.742,4.937,16.11,10.783
			C348.553,457.579,347.477,463.969,344.365,469.361z"/>
		<path fill="#FFFFFF" d="M251.595,439.47c-34.353-6.973-47.973-20.932-52.289-27.079c0.512-0.845,1.025-1.703,1.53-2.581
			c3.951,5.763,16.808,19.952,50.624,26.599C251.48,437.428,251.525,438.452,251.595,439.47z"/>
		<path fill="#FFFFFF" d="M38.183,236.132c2.119,4.642,6.671,11.049,9.001,15.582c0,0-1.651-6.714-5.627-15.145
			c-9.058-19.206-4.884-40.889-0.421-60.983c2.728-12.493,12.819-53.23,16.303-59.006c-1.261-1.012-2.209-1.748-2.689-2.055
			c-3.682,4.931-8.114,22.219-8.114,22.219c-3.791,12.224-6.501,24.877-9.229,37.37C32.944,194.208,29.424,216.788,38.183,236.132z"
			/>
		<path fill="#FFFFFF" d="M34.721,249.999c1.614,12.102,7.377,23.378,15.592,32.343c5.27,5.699,11.475,10.514,17.679,15.169
			c1.498,1.082,4.165,3.058,4.165,3.058c-6.205-4.655-13.372-11.248-18.642-16.947c-8.215-8.965-13.978-20.241-15.592-32.343
			c-0.531-3.893-0.692-7.857-0.455-11.788c-1.031-1.889-1.934-3.823-2.741-5.788C33.959,239.094,33.985,244.607,34.721,249.999z"/>
		<path fill="#FFFFFF" d="M52.858,361.405c8.414,24.147,18.029,52,18.336,95.03c0.072,1.279,1.839,0.472,2.358,0.606
			c0.563,0.141,0.908,0.272,1.407,0.573c-0.333-42.921-9.829-70.752-18.23-94.86c-8.574-24.614-16.426-48.743-13.622-84.832
			c-1.044-1.351-2.505-3.172-3.434-4.6C36.196,311.069,44.06,336.138,52.858,361.405z"/>
		<path fill="#FFFFFF" d="M3.223,349.262c0.64,27.822,14.222,53.422,25.504,70c10.623,15.605,21.24,26.356,24.006,29.051
			c0.307-0.147,0.608-0.275,0.909-0.384c-4.405-4.54-13.056-14.029-21.713-26.746c-11.282-16.578-24.864-42.178-25.504-70
			c-0.359-15.611,3.381-27.041,11.122-33.976c6.557-5.872,14.593-7.14,19.312-7.312c-0.071-0.628-0.134-1.261-0.199-1.895
			c-3.291-0.192-13.997-0.166-22.315,7.287C6.604,322.221,2.865,333.651,3.223,349.262z"/>
		<path fill="#FFFFFF" d="M77.859,73.277c-0.289,0.277-0.562,0.573-0.815,0.889c-1.03,1.306-1.653,2.827-1.868,4.418
			c-0.062-0.207-0.129-0.409-0.191-0.612c-0.152-0.495-0.3-0.975-0.452-1.427c-0.484-1.427-1.026-2.582-1.458-3.381
			C74.201,73.09,75.925,73.059,77.859,73.277z"/>
		<path fill="#FFFFFF" d="M147.394,73.164c-0.429,0.799-0.975,1.954-1.458,3.381c-0.152,0.452-0.3,0.932-0.452,1.427
			c-0.062,0.203-0.129,0.406-0.191,0.612c-0.215-1.591-0.838-3.112-1.868-4.418c-0.25-0.316-0.526-0.612-0.815-0.889
			c1.096-0.129,2.125-0.172,3.007-0.172C146.302,73.106,146.903,73.133,147.394,73.164z"/>
		<path fill="#FFFFFF" d="M140.628,85.596c-1.579,1.201-3.553,1.72-5.518,1.47c-1.985-0.246-3.751-1.24-4.976-2.796
			c-0.331-0.417-0.601-0.862-0.827-1.322c0.324-0.827,0.721-1.673,1.201-2.496c0.133,1.072,0.585,2.121,1.384,2.991
			c2.063,2.254,5.6,2.441,7.893,0.417c0.133-0.117,0.257-0.238,0.378-0.367c-0.901-0.039-1.79-0.425-2.437-1.135
			c-1.287-1.404-1.178-3.564,0.257-4.828c0.757-0.667,1.731-0.952,2.675-0.85c-0.133-0.199-0.289-0.394-0.452-0.577
			c-0.749-0.815-1.685-1.353-2.691-1.626c0.897-0.343,1.798-0.604,2.683-0.799c0.663,0.433,1.264,0.967,1.767,1.599
			C144.489,78.487,143.896,83.112,140.628,85.596z"/>
		<path fill="#FFFFFF" d="M131.437,87.745c-1.494,0.137-2.671,0.374-3.498,0.597c0.105-0.792,0.289-1.884,0.62-3.116
			c0.035,0.051,0.074,0.105,0.109,0.156C129.44,86.357,130.38,87.152,131.437,87.745z"/>
		<path fill="#FFFFFF" d="M92.522,88.342c-0.819-0.222-1.997-0.46-3.49-0.597c1.057-0.593,1.997-1.388,2.769-2.363
			c0.035-0.051,0.066-0.097,0.101-0.148C92.233,86.458,92.424,87.55,92.522,88.342z"/>
		<path fill="#FFFFFF" d="M91.157,82.948c-0.226,0.464-0.491,0.905-0.823,1.322c-1.217,1.556-2.991,2.55-4.968,2.796
			c-1.973,0.25-3.946-0.269-5.526-1.47c-3.268-2.484-3.861-7.109-1.338-10.319c0.503-0.632,1.104-1.166,1.767-1.599
			c0.885,0.195,1.794,0.456,2.683,0.799c-0.998,0.273-1.942,0.811-2.691,1.626c-0.164,0.183-0.32,0.378-0.452,0.577
			c0.944-0.101,1.919,0.183,2.675,0.85c1.435,1.264,1.544,3.424,0.257,4.828c-0.647,0.71-1.536,1.096-2.437,1.135
			c0.121,0.129,0.246,0.25,0.378,0.367c2.293,2.024,5.83,1.837,7.893-0.417c0.792-0.87,1.252-1.911,1.384-2.983
			C90.439,81.283,90.833,82.122,91.157,82.948z"/>
		<path fill="#FFFFFF" d="M136.276,289.035c-4.095,6.107-5.783,13.193-6.349,20.391c-0.608,15.033-0.636,30.121-0.741,45.217
			c-0.277,1.439-0.499,2.855-0.64,4.251c-3.412,33.717-1.416,54.225-8.474,87.373c-1.033,4.847-7.14,21.187-10.494,24.833h-0.129
			c-3.354-3.646-9.461-19.986-10.494-24.833c-7.058-33.147-5.062-53.656-8.474-87.373c-0.152-1.49-0.394-3.011-0.694-4.551
			c-0.105-14.994-0.136-29.981-0.741-44.917c-0.565-7.199-2.254-14.288-6.349-20.391c10.771,10.896,10.186,27.926,10.428,42.148
			c-0.051,7.324-0.234,14.632-0.222,21.951c0.09,21.893,0.694,43.864,2.87,65.636c1.166,10.818,2.738,21.62,5.635,32.094
			c1.568,5.674,7.214,13.821,8.314,16.835c1.01-2.765,3.755-7.133,3.755-7.133c1.79-2.905,3.038-6.286,4.087-9.702
			c3.073-10.424,4.469-21.277,5.635-32.094c2.176-21.772,2.78-43.743,2.87-65.636c0.012-7.32-0.168-14.628-0.222-21.951
			C126.09,316.957,125.509,299.931,136.276,289.035z"/>
		<path fill="#FFFFFF" d="M144.758,290.707c-3.092,6.356-7.261,12.274-9.063,19.108c-1.587,6.027-1.232,12.368-1.17,18.599
			c0.09,8.658-3.65,18.21-5.339,27.088c0-0.22,0.004-0.443,0.004-0.663c0.023-3.451,0.047-6.901,0.066-10.352
			c0.004-0.122,0.004-0.243,0.004-0.369c0.016-1.835,0.027-3.674,0.047-5.509c0-0.341,0.004-0.682,0.008-1.023
			c0.016-1.616,0.035-3.227,0.055-4.839c0.012-0.949,0.023-1.898,0.039-2.843c0.027-1.894,0.058-3.788,0.098-5.682
			c0.008-0.42,0.02-0.839,0.027-1.259c0.019-0.867,0.039-1.737,0.062-2.608c0.027-1.094,0.055-2.188,0.09-3.286
			c0-0.082,0.004-0.165,0.008-0.247c0.031-1.114,0.066-2.231,0.105-3.349c0.039-1.145,0.082-2.294,0.129-3.439
			c0.105-1.357,0.25-2.71,0.445-4.055c0.129-0.894,0.281-1.788,0.452-2.674c0.175-0.882,0.374-1.765,0.597-2.635
			c0.449-1.741,1.002-3.455,1.681-5.121c0.172-0.416,0.347-0.831,0.534-1.243c0.277-0.616,0.577-1.227,0.893-1.827
			c0.523-0.996,1.1-1.972,1.731-2.925c0.004-0.008,0.012-0.016,0.016-0.023c-0.335,0.341-0.663,0.69-0.975,1.043
			c-0.788,0.89-1.509,1.812-2.164,2.764c-0.53,0.761-1.018,1.545-1.466,2.341v0.004c-0.23,0.4-0.445,0.804-0.651,1.212
			c-0.523,1.023-0.987,2.07-1.404,3.145c-0.253,0.643-0.487,1.29-0.702,1.949c-0.144,0.439-0.285,0.882-0.413,1.325
			c-0.066,0.223-0.129,0.447-0.191,0.671c-0.187,0.671-0.359,1.349-0.515,2.031c-1.942,8.415-1.806,17.626-1.946,25.896
			c0.008,0.972,0.016,1.941,0.027,2.914c0.047,4.027,0.117,8.05,0.156,12.078c0.027,2.361,0.043,4.721,0.039,7.082
			c-0.02,5.505-0.074,11.011-0.179,16.52c-0.051,2.757-0.117,5.509-0.195,8.262c-0.195,6.886-0.48,13.772-0.885,20.642
			c-0.035,0.592-0.07,1.188-0.109,1.78c-1.903,12.552-4.598,25.19-7.612,40.613c-0.928,4.76-4.504,14.477-7.519,18.058h-0.117
			c-3.014-3.58-6.587-13.297-7.515-18.058c-3.065-15.705-5.799-28.52-7.71-41.295c-0.023-0.365-0.043-0.733-0.066-1.098
			c-0.082-1.372-0.156-2.749-0.23-4.125c-0.285-5.498-0.499-11.007-0.655-16.517c-0.234-8.262-0.339-16.528-0.374-24.783
			c-0.012-7.36,0.172-14.709,0.222-22.073c-0.14-8.266-0.004-17.477-1.946-25.896c-0.156-0.682-0.328-1.357-0.515-2.027
			c-0.058-0.224-0.125-0.451-0.191-0.674c-0.129-0.443-0.265-0.882-0.413-1.322c-0.07-0.22-0.144-0.439-0.222-0.659
			c-0.226-0.651-0.468-1.294-0.733-1.933c-0.959-2.337-2.164-4.564-3.666-6.635c-0.409-0.561-0.842-1.114-1.299-1.651v-0.004
			c-0.304-0.357-0.62-0.71-0.948-1.059c-0.156-0.173-0.32-0.341-0.487-0.51c1.786,2.682,3.116,5.553,4.091,8.537
			c0.838,2.565,1.419,5.215,1.806,7.901c0.191,1.345,0.339,2.698,0.445,4.055c0.039,0.937,0.074,1.878,0.105,2.815
			c0.031,0.831,0.059,1.663,0.082,2.494c0.008,0.165,0.016,0.333,0.016,0.498c0.031,0.874,0.055,1.749,0.078,2.623
			c0.031,1.094,0.059,2.188,0.086,3.286c0.062,2.67,0.109,5.345,0.152,8.019c0.016,0.941,0.027,1.882,0.039,2.823
			c0.074,5.651,0.109,11.301,0.148,16.956c0.004,0.612,0.008,1.224,0.012,1.835c0.008,1.27,0.016,2.545,0.023,3.815
			c-1.72-8.792-5.374-18.226-5.288-26.786c0.066-6.231,0.421-12.572-1.166-18.599c-1.806-6.835-5.97-12.752-9.067-19.108
			c-6.801-13.968-8.341-30.057-6.953-45.55c1.384-15.493,5.553-30.578,9.699-45.565c0.679,8.195,4.231,16.124,9.461,23.041
			c11.582,15.328,34.501,15.328,46.083,0c5.229-6.917,8.782-14.846,9.461-23.041c4.145,14.987,8.31,30.072,9.699,45.565
			C153.1,260.65,151.563,276.74,144.758,290.707z"/>
		<path fill="#FFFFFF" d="M151.61,454.819c0.07-0.197,0.149-0.389,0.233-0.578C151.757,454.428,151.68,454.621,151.61,454.819z"/>
		<path fill="#FFFFFF" d="M180.588,462.088c0.004,0.023,0.004,0.043,0.008,0.066c-0.031,0.3-0.09,0.577-0.16,0.846
			c-0.246,0.936-0.764,2.133-1.837,2.558c-0.944,0.37-2,0.012-2.718-0.355l-1.735-0.889l-0.53,1.876
			c-0.3,1.057-0.928,2.426-2.207,2.94c-1.646,0.651-4.021-0.367-6.2-2.66l-1.985-2.086l-0.721,2.792
			c-0.636,2.453-2.041,4.789-3.3,5.44c0-0.043,0.317-0.702,0.321-0.741c0.02-0.359-1.147,0.503-1.147,0.129l-0.236-1.255
			c0-1.915-4.802-10.877-4.837-10.912c-0.92-1.115-1.68-1.603-2.713-2.246c-0.354-5.362,3.996-7.168,4.674-7.308
			c1.384-0.172,2.66,0.858,3.482,1.755l1.314,1.423l1.154-1.552c0.37-0.503,0.819-0.862,1.326-1.061
			c1.221-0.487,2.566,0.008,3.521,0.519c0.402,0.203,0.823,0.48,1.252,0.819l1.482,1.166l0.916-1.646
			c0.351-0.636,0.78-1.049,1.322-1.263c1.334-0.534,3.307,0.316,5.132,2.203c1.31,1.377,2.437,3.159,3.256,5.155
			C180.007,459.218,180.405,460.657,180.588,462.088z"/>
		<polygon fill="#FFFFFF" points="151.844,454.238 151.844,454.238 151.842,454.242 		"/>
		<path fill="#FFFFFF" d="M156.328,472.933c-0.011-0.209-0.032-0.419-0.051-0.629c0-0.001,0-0.002,0-0.002
			C156.297,472.512,156.317,472.723,156.328,472.933z"/>
		<path fill="#FFFFFF" d="M156.277,472.304c-0.039,0.428-0.105,0.837-0.179,1.226v0.004c-0.136,0.675-0.316,1.295-0.534,1.841
			c-0.429,1.041-1.221,2.355-2.558,2.695c-0.897,0.222-1.802-0.062-2.519-0.448l-2.913-5.354l-0.378,6.321
			c-0.542,1.01-1.4,2.067-2.702,2.402c-1.86,0.472-4.192-0.784-6.208-3.287l-2.063-5.904l-1.556,6.321l0.07-0.008
			c-1.318,2.858-3.112,4.543-4.89,4.543c-1.614,0-3.241-1.373-4.524-3.779l-1.127-7.078l-2.157,6.438
			c-2.133,2.956-4.687,4.473-6.723,3.954c-1.014-0.253-1.872-0.979-2.57-2.145c-0.768-1.302-1.236-3.003-1.396-4.929
			c0.097-1.345,0.331-2.734,0.694-4.122c2.008-7.636,6.782-11.886,9.975-11.079c0.261,0.062,0.519,0.168,0.757,0.292l1.419,4.516
			l1.946-5.229c0.803-1.123,2.09-2.453,3.705-2.453c1.369,0,2.504,0.959,3.307,1.946l1.911,5.378l1.47-5.038
			c0.394-0.296,0.803-0.507,1.236-0.616c0.936-0.238,1.965-0.059,3.081,0.546c0.261,0.133,0.558,0.312,0.897,0.558
			c0.441,0.304,0.885,0.69,1.318,1.127l1.314,1.338l1.115-1.505c0.503-0.686,1.092-1.115,1.759-1.287
			c0.659-0.168,1.388-0.062,2.145,0.261c0.577,0.277,2.036,1.115,3.42,2.999c1.267,1.728,2.262,3.884,2.874,6.243
			C155.988,470.098,156.18,471.204,156.277,472.304z"/>
		<path fill="#FFFFFF" d="M63.134,472.734c0-0.07,0.016-0.148,0.019-0.218c-0.012,0.109-0.019,0.222-0.023,0.331
			C63.126,472.808,63.13,472.773,63.134,472.734z"/>
		<path fill="#FFFFFF" d="M63.461,477.231c0.105,0.421,0.226,0.819,0.367,1.186C63.68,478.05,63.559,477.656,63.461,477.231z"/>
		<path fill="#FFFFFF" d="M67.349,481.337c0.164-0.012,0.331-0.039,0.491-0.078C67.681,481.298,67.517,481.325,67.349,481.337z"/>
		<path fill="#FFFFFF" d="M108.101,475.117c-0.16,1.926-0.628,3.627-1.396,4.929c-0.698,1.166-1.556,1.891-2.57,2.145
			c-2.036,0.519-4.59-0.998-6.723-3.954l-2.157-6.438l-1.127,7.078c-1.283,2.406-2.909,3.779-4.524,3.779
			c-1.778,0-3.572-1.685-4.89-4.543l0.07,0.008l-1.556-6.321l-2.063,5.904c-2.016,2.504-4.348,3.759-6.208,3.287
			c-1.303-0.335-2.16-1.392-2.702-2.402l-0.378-6.321l-2.913,5.354c-0.718,0.386-1.622,0.671-2.519,0.448
			c-1.338-0.339-2.129-1.653-2.558-2.695c-0.218-0.546-0.398-1.166-0.534-1.841v-0.004c-0.074-0.39-0.14-0.799-0.179-1.228
			c0.094-1.1,0.289-2.203,0.585-3.319c0.612-2.352,1.607-4.508,2.874-6.236c1.326-1.806,2.726-2.652,3.342-2.96
			c0.78-0.359,1.544-0.472,2.215-0.3c0.675,0.172,1.264,0.601,1.767,1.287l1.115,1.505l1.314-1.338
			c0.433-0.437,0.877-0.823,1.326-1.135c0.331-0.238,0.624-0.417,0.913-0.569c1.088-0.585,2.114-0.764,3.05-0.526
			c0.441,0.109,0.85,0.32,1.24,0.616l1.474,5.038l1.907-5.378c0.807-0.987,1.942-1.946,3.311-1.946c1.614,0,2.901,1.33,3.701,2.453
			l1.95,5.229l1.412-4.516c0.246-0.125,0.495-0.23,0.757-0.292c1.556-0.398,3.49,0.417,5.288,2.234
			c0.027,0.039,0.047,0.078,0.074,0.117l0.031-0.019c1.864,1.915,3.58,4.898,4.582,8.739
			C107.769,472.383,108.003,473.772,108.101,475.117z"/>
		<path fill="#FFFFFF" d="M174.014,17.745c0-0.082-0.004-0.168-0.008-0.253c-0.008-0.222-0.016-0.445-0.027-0.671
			c-0.008-0.156-0.016-0.316-0.027-0.476c-0.02-0.285-0.039-0.569-0.066-0.854c-0.02-0.222-0.043-0.441-0.066-0.663
			c-0.016-0.164-0.035-0.328-0.059-0.491c-0.031-0.277-0.07-0.55-0.113-0.823c-0.031-0.199-0.062-0.398-0.097-0.597
			c-0.004-0.035-0.012-0.07-0.016-0.101c-0.039-0.199-0.074-0.402-0.117-0.601c-0.043-0.214-0.086-0.429-0.136-0.643
			c-0.047-0.207-0.094-0.413-0.148-0.62c-0.004-0.027-0.008-0.055-0.019-0.082c-0.043-0.179-0.094-0.359-0.144-0.542
			c-0.004-0.031-0.012-0.062-0.023-0.09c-0.055-0.191-0.109-0.382-0.168-0.573c-0.062-0.207-0.129-0.409-0.199-0.612
			c-0.004-0.023-0.012-0.043-0.02-0.062c-0.066-0.191-0.133-0.382-0.203-0.573c-0.066-0.183-0.133-0.367-0.207-0.55
			C168.944,0.4,161.897,2.615,156.637,6.6c-1.841,1.369-3.65,2.972-5.405,4.442c-2.246,1.876-4.43,3.802-6.696,5.616
			c-0.257,0.211-0.515,0.413-0.776,0.612c-0.008,0.012-0.016,0.016-0.023,0.019c-0.269,0.214-0.538,0.421-0.811,0.624
			c-0.277,0.214-0.554,0.421-0.835,0.624c-0.281,0.207-0.565,0.409-0.85,0.608c-0.285,0.203-0.573,0.398-0.862,0.589
			c-0.012,0.012-0.023,0.019-0.031,0.023c-0.265,0.179-0.534,0.355-0.803,0.526c-0.035,0.019-0.066,0.043-0.097,0.059
			c-0.277,0.175-0.554,0.351-0.835,0.515c-0.289,0.175-0.581,0.347-0.874,0.507c-0.012,0.012-0.023,0.019-0.035,0.023
			c5.077-0.807,8.287-3.245,12.565-6.887c1.743-1.486,15.891-16.312,20.329-4.255c3.089,8.384,0.538,19.05-1.283,27.625
			c-1.505,6.824-8.509,23.367-7.292,30.46c0.047-0.25,0.094-0.495,0.148-0.745c0.643-3.28,1.505-6.473,2.468-9.621
			c0.027-0.097,0.055-0.195,0.086-0.292c0.016-0.051,0.031-0.105,0.047-0.156c0.008-0.023,0.016-0.043,0.02-0.066
			c0.012-0.035,0.023-0.066,0.031-0.101c0.004-0.008,0.004-0.012,0.008-0.019v-0.004c-0.012-0.051,0-0.09,0.02-0.058
			c0.023-0.07,0.047-0.144,0.07-0.214c0.253-0.815,0.511-1.618,0.768-2.43c1.014-3.057,2.106-6.095,3.135-9.149
			c0.012-0.039,0.027-0.078,0.039-0.121c1.115-3.315,2.153-6.653,2.936-10.061c0.055-0.222,0.101-0.441,0.152-0.663
			c1.065-5.011,2.079-10.475,2.079-15.805C174.029,18.467,174.025,18.104,174.014,17.745z M170.8,85.397
			c-0.289,2.192-0.948,4.258-2.285,6.123c-3.241,4.512-9.211,5.869-14.538,7.46c-5.319,1.587-11.18,4.481-12.389,9.905
			c-0.589,2.632,0.07,5.35,0.378,8.033c0.339,2.921,0.238,5.892-0.277,8.794c0,0.004,0,0.004,0,0.004
			c0.339,1.759,0.64,3.264,0.909,4.313c4.2-0.039,12.795-9.133,14.14-11.43c5.623-5.187,10.326-11.36,12.651-18.672
			c1.622-5.4,1.816-10.884,1.252-16.38C170.704,84.164,170.758,84.781,170.8,85.397z M170.641,83.547
			c-0.003-0.025-0.005-0.05-0.008-0.075C170.635,83.497,170.638,83.522,170.641,83.547z M170.633,83.472
			c-0.063-0.611-0.134-1.223-0.215-1.834C170.498,82.25,170.57,82.861,170.633,83.472z M170.418,81.638
			c-0.164-1.252-0.367-2.508-0.597-3.759C170.051,79.134,170.25,80.386,170.418,81.638z M168.495,71.674
			c-0.343-1.431-0.702-2.858-1.072-4.278C167.79,68.82,168.152,70.247,168.495,71.674z M127.794,124.558
			c3.163-0.191,6.419-0.191,9.706,0.008c-0.253-1.794-0.788-3.537-1.607-5.155c-3.67,0.051-7.335,0.222-10.974,0.48
			c3.365-0.682,6.848-1.201,10.393-1.536c-0.039-0.07-0.086-0.14-0.129-0.211c-2.882-4.602-8.291-7.741-13.735-7.94
			c-0.417-0.012-1.583,0.32-3.053,0.807h-0.004c0.706,0.78,1.143,1.845,1.115,3.291c-0.09,5.015-5.491,8.189-8.369,9.527
			c-0.012,0.121-0.031,0.246-0.043,0.367c1.556,4.079,4.333,7.55,9.156,7.062c2.726-0.218,5.07-0.944,7.971-1.447
			c-5.288,6.497-14.951,6.536-18.594-1.037c-3.638,6.434-12.678,7.222-18.403,1.037c3.779,0.331,7.441,1.517,10.966,0.601
			c2.991-0.776,4.964-3.482,6.142-6.263c0,0,0,0,0-0.004c-2.566-1.096-8.985-4.375-9.086-9.843c-0.027-1.49,0.437-2.574,1.178-3.358
			c-1.381-0.445-2.472-0.753-2.866-0.741c-5.444,0.199-10.853,3.338-13.743,7.94c-0.043,0.066-0.086,0.137-0.125,0.203
			c3.549,0.339,7.031,0.858,10.408,1.544c-3.642-0.261-7.316-0.425-10.997-0.48c-0.811,1.611-1.341,3.362-1.599,5.155v0.004
			c3.295-0.199,6.555-0.203,9.722-0.012c-3.272,0.3-6.563,0.679-9.851,1.162c-1.065,0.156-2.125,0.324-3.186,0.503
			c0.737,2.371,1.985,4.726,3.775,7.008c0.285,0.37,0.577,0.737,0.877,1.092c2.956,3.529,6.735,6.372,11.29,7.386
			c10.74,2.784,24.264,2.418,34.622-1.603c2.722-1.299,5.226-3.209,7.292-5.526c2.168-2.426,3.857-5.296,4.812-8.349
			c-1.076-0.183-2.153-0.355-3.229-0.515C134.346,125.233,131.058,124.858,127.794,124.558z M116.665,127.974
			c-0.987,0-1.786-0.803-1.786-1.79c0-0.983,0.799-1.786,1.786-1.786c0.994,0,1.794,0.803,1.794,1.786
			C118.459,127.171,117.659,127.974,116.665,127.974z M121.508,125.342c-0.994,0-1.794-0.803-1.794-1.786
			c0-0.987,0.799-1.79,1.794-1.79c0.987,0,1.786,0.803,1.786,1.79C123.294,124.539,122.495,125.342,121.508,125.342z
			 M102.357,124.398c0.983,0,1.786,0.803,1.786,1.786c0,0.987-0.803,1.79-1.786,1.79c-0.994,0-1.794-0.803-1.794-1.79
			C100.563,125.202,101.362,124.398,102.357,124.398z M97.513,121.766c0.994,0,1.794,0.803,1.794,1.79
			c0,0.983-0.799,1.786-1.794,1.786c-0.987,0-1.786-0.803-1.786-1.786C95.727,122.569,96.527,121.766,97.513,121.766z
			 M84.738,20.631c0.148,0.175,0.3,0.351,0.448,0.526c0.043,0.055,0.086,0.105,0.133,0.156c0.183-0.062,3.935-2.418,20.497-0.214
			c9.531,1.271,22.564-2.215,29.259,0.55c0.534-0.659,1.084-1.295,1.653-1.911c-5.132-1.833-12.538-1.517-18.134-0.877
			c-3.685,0.425-7.409,0.546-11.134,0.363c-0.211-0.008-0.425-0.019-0.636-0.035c-0.211-0.012-0.421-0.023-0.636-0.039
			c-0.694-0.043-1.388-0.101-2.082-0.172c-0.374-0.035-0.745-0.074-1.119-0.117c-0.37-0.039-0.745-0.086-1.115-0.137
			c-0.097-0.008-0.191-0.023-0.289-0.035c-5.491-0.745-12.83-1.147-17.888,0.788c0.277,0.296,0.546,0.593,0.815,0.897
			C84.586,20.46,84.664,20.545,84.738,20.631z M54.972,54.625c0.409,1.26,0.807,2.519,1.189,3.791
			c0.296,0.979,0.585,1.965,0.858,2.956c0.312,1.135,0.608,2.281,0.877,3.436c0.07,0.289,0.136,0.577,0.199,0.866
			c0.195,0.87,0.378,1.739,0.542,2.621c1.186-7.117-5.795-23.609-7.296-30.421c-1.821-8.575-4.372-19.241-1.283-27.625
			c4.438-12.058,18.586,2.769,20.329,4.255c4.091,3.486,7.172,5.647,11.863,6.477c-0.012-0.008-0.023-0.012-0.031-0.019
			c-0.16-0.094-0.32-0.191-0.476-0.289c-0.23-0.14-0.46-0.285-0.686-0.429c-0.25-0.16-0.495-0.32-0.741-0.484
			c-0.273-0.183-0.542-0.367-0.807-0.554c-0.175-0.121-0.347-0.242-0.519-0.367c-0.253-0.179-0.503-0.367-0.753-0.55
			c-0.796-0.589-1.572-1.197-2.34-1.817c-0.253-0.203-0.507-0.409-0.757-0.616c-1.915-1.572-3.787-3.213-5.705-4.812
			c-1.755-1.47-3.564-3.073-5.405-4.442c-0.515-0.39-1.045-0.76-1.587-1.108c-0.136-0.086-0.269-0.172-0.406-0.253
			c-0.23-0.137-0.46-0.273-0.69-0.406C61.344,4.83,61.34,4.83,61.336,4.83c-0.183-0.101-0.367-0.203-0.55-0.3
			c0,0-0.004,0-0.008-0.004c-0.183-0.094-0.367-0.187-0.554-0.277c-0.14-0.066-0.281-0.133-0.425-0.195
			c-0.292-0.133-0.585-0.253-0.877-0.363c-0.133-0.051-0.265-0.097-0.398-0.14c-0.136-0.047-0.273-0.094-0.406-0.133
			c-0.148-0.047-0.3-0.09-0.448-0.129c-0.144-0.039-0.285-0.074-0.425-0.105c-0.238-0.055-0.472-0.101-0.706-0.137
			c-0.281-0.043-0.558-0.078-0.835-0.094c-0.078-0.008-0.16-0.012-0.238-0.012c-0.23-0.012-0.46-0.012-0.69,0.004
			c-0.105,0.004-0.211,0.008-0.316,0.019c-0.066,0.004-0.129,0.012-0.191,0.019c-0.035,0.004-0.07,0.008-0.109,0.016
			c-0.062,0.008-0.125,0.016-0.187,0.027c-0.179,0.027-0.359,0.062-0.534,0.109c-0.078,0.019-0.16,0.043-0.238,0.066
			c-0.312,0.09-0.62,0.203-0.92,0.347c-0.148,0.07-0.296,0.148-0.445,0.234c-0.144,0.086-0.289,0.175-0.429,0.273L51.197,4.21
			c-0.062,0.051-0.125,0.097-0.187,0.148c-0.136,0.109-0.265,0.226-0.398,0.351c-0.078,0.07-0.148,0.144-0.222,0.222
			c-0.066,0.066-0.129,0.137-0.191,0.211c-0.066,0.07-0.129,0.14-0.187,0.214c-0.152,0.179-0.296,0.37-0.437,0.573
			c-0.055,0.078-0.109,0.16-0.16,0.242c-0.039,0.059-0.078,0.117-0.113,0.179c-0.058,0.09-0.113,0.183-0.168,0.277
			c-0.055,0.094-0.109,0.191-0.16,0.292c-0.039,0.066-0.074,0.136-0.109,0.207c-0.035,0.066-0.07,0.136-0.105,0.211
			c-0.082,0.172-0.164,0.347-0.242,0.53c-3.299,8.287-1.622,18.204,0.199,26.764C50.222,41.46,52.78,47.995,54.972,54.625z
			 M77.044,116.919c0.308-2.683,0.967-5.401,0.378-8.033c-1.213-5.424-7.07-8.318-12.397-9.905c-5.323-1.591-11.29-2.948-14.53-7.46
			c-0.846-1.174-1.416-2.43-1.794-3.752c-0.097,4.079,0.32,8.143,1.525,12.159c2.313,7.281,6.988,13.434,12.577,18.605
			c2.78,3.233,10.128,10.946,14.425,11.017c0.148-0.562,0.3-1.26,0.464-2.071c0-0.004,0-0.004,0-0.008
			C76.857,124.028,76.638,120.436,77.044,116.919z M58.637,68.321c-0.016-0.023-0.027-0.043-0.043-0.066
			c0.023,0.051,0.039,0.078,0.039,0.078C58.633,68.328,58.633,68.325,58.637,68.321z"/>
		<path fill="#FFFFFF" d="M39.252,466.936c0.129,0.316,0.285,0.628,0.484,0.912C39.533,467.563,39.377,467.251,39.252,466.936z"/>
		<polygon fill="#FFFFFF" points="45.304,467.517 45.835,469.392 45.3,467.517 		"/>
		<path fill="#FFFFFF" d="M68.18,457.112c-1.228,0.651-2.426,1.65-3.521,2.964c-0.012,0.012-0.023,0.031-0.039,0.043
			c-0.199,0.238-0.39,0.484-0.573,0.737c-1.501,2.051-2.671,4.578-3.389,7.312c-0.328,1.244-0.55,2.492-0.667,3.732
			c-0.019-0.008-0.039-0.02-0.062-0.031c0,0,0,0.004,0,0.008c0.004,0.039,0.004,0.086,0.004,0.129
			c-1.26-0.651-2.348-2.375-2.983-4.828l-0.721-2.792l-1.985,2.086c-2.18,2.293-4.555,3.311-6.201,2.66
			c-1.279-0.515-1.907-1.884-2.207-2.94l-0.53-1.876l-1.735,0.889c-0.718,0.367-1.774,0.725-2.718,0.355
			c-1.072-0.425-1.591-1.622-1.837-2.558c-0.07-0.269-0.129-0.542-0.16-0.842c0.004-0.023,0.004-0.043,0.008-0.066
			c0.183-1.427,0.581-2.874,1.162-4.29c0.823-1.997,1.95-3.779,3.256-5.148c1.829-1.895,3.794-2.745,5.14-2.211
			c0.538,0.214,0.967,0.628,1.318,1.263l0.916,1.646l1.478-1.166c0.429-0.339,0.854-0.616,1.295-0.838
			c0.916-0.491,2.266-0.987,3.482-0.499c0.507,0.199,0.955,0.558,1.326,1.061l1.154,1.552l1.31-1.423
			c0.827-0.897,2.11-1.934,3.471-1.759c0.877,0.179,3.51,2.753,4.005,5.814C68.18,456.434,68.18,456.765,68.18,457.112z"/>
	</g>
	<path fill="#231F20" d="M94.487,89.621c-0.012-0.394-0.363-9.706-6.887-14.663c-6.485-4.933-15.798-3.537-16.192-3.475l-1.451,0.23
		l0.838,1.205c0.012,0.016,1.115,1.618,1.993,4.216c0.148,0.437,0.292,0.905,0.441,1.384c0.87,2.792,1.946,6.267,4.902,8.509
		c2.784,2.118,6.048,2.285,8.926,2.433c0.542,0.027,1.072,0.055,1.579,0.094c2.94,0.238,4.543,0.928,4.559,0.932l1.334,0.597
		L94.487,89.621z M74.985,77.972c-0.152-0.495-0.3-0.975-0.456-1.427c-0.48-1.427-1.022-2.578-1.451-3.381
		c1.123-0.074,2.843-0.105,4.781,0.113c-0.285,0.281-0.562,0.573-0.815,0.893c-1.026,1.303-1.653,2.819-1.868,4.414
		C75.113,78.378,75.047,78.175,74.985,77.972z M85.362,87.07c-1.969,0.246-3.943-0.277-5.526-1.478
		c-3.26-2.48-3.861-7.105-1.33-10.315c0.499-0.636,1.096-1.166,1.759-1.603c0.893,0.199,1.798,0.46,2.687,0.803
		c-1.002,0.269-1.942,0.811-2.687,1.626c-0.168,0.183-0.324,0.378-0.46,0.573c0.948-0.097,1.923,0.183,2.683,0.854
		c1.431,1.264,1.54,3.424,0.257,4.832c-0.651,0.71-1.54,1.092-2.441,1.131c0.121,0.129,0.246,0.25,0.378,0.363
		c2.297,2.028,5.83,1.845,7.893-0.413c0.796-0.866,1.252-1.911,1.388-2.987c0.476,0.827,0.87,1.665,1.193,2.496
		c-0.226,0.46-0.495,0.905-0.819,1.318C89.113,85.826,87.347,86.821,85.362,87.07z M89.031,87.745
		c1.057-0.589,1.997-1.388,2.765-2.363c0.039-0.047,0.074-0.097,0.109-0.148c0.328,1.225,0.515,2.316,0.62,3.108
		C91.703,88.123,90.525,87.881,89.031,87.745z M124.92,64.335c1.041-8.989,9.663-16.145,17.857-18.824
		C135.773,50.745,128.695,56.22,124.92,64.335z M132.868,74.958c-6.524,4.957-6.875,14.269-6.887,14.663l-0.039,1.451l1.33-0.581
		c0.016-0.008,1.618-0.698,4.559-0.936c0.507-0.039,1.037-0.066,1.579-0.094c2.882-0.148,6.146-0.316,8.926-2.433
		c2.956-2.242,4.036-5.717,4.902-8.513c0.148-0.48,0.292-0.944,0.441-1.38c0.877-2.597,1.981-4.2,1.993-4.216l0.846-1.205
		l-1.455-0.23C148.669,71.421,139.353,70.025,132.868,74.958z M127.943,88.342c0.101-0.792,0.289-1.884,0.616-3.112
		c0.039,0.051,0.074,0.101,0.113,0.152c0.768,0.975,1.708,1.774,2.765,2.363C129.943,87.881,128.765,88.123,127.943,88.342z
		 M140.632,85.592c-1.583,1.201-3.553,1.724-5.526,1.478c-1.985-0.25-3.751-1.244-4.976-2.8c-0.328-0.413-0.597-0.862-0.823-1.326
		c0.324-0.827,0.718-1.669,1.197-2.492c0.136,1.076,0.593,2.121,1.388,2.991c2.063,2.258,5.6,2.441,7.893,0.413
		c0.133-0.113,0.257-0.234,0.378-0.363c-0.901-0.039-1.79-0.421-2.441-1.131c-1.283-1.408-1.17-3.568,0.257-4.832
		c0.76-0.671,1.735-0.952,2.683-0.854c-0.136-0.195-0.292-0.39-0.456-0.573c-0.749-0.815-1.689-1.357-2.687-1.622
		c0.889-0.347,1.794-0.608,2.683-0.807c0.663,0.437,1.26,0.967,1.763,1.603C144.493,78.487,143.892,83.112,140.632,85.592z
		 M145.94,76.545c-0.152,0.452-0.304,0.932-0.456,1.427c-0.062,0.199-0.125,0.406-0.191,0.612c-0.211-1.595-0.838-3.112-1.868-4.414
		c-0.25-0.32-0.53-0.612-0.819-0.893c1.1-0.125,2.125-0.168,3.015-0.168c0.682,0,1.283,0.023,1.774,0.055
		C146.965,73.967,146.419,75.118,145.94,76.545z M94.101,64.335c-3.775-8.115-10.853-13.59-17.857-18.824
		C84.434,48.19,93.06,55.346,94.101,64.335z M153.31,19.649c-3.44,2.886-7.207,5.385-11.278,7.308
		c4.297-4.184,8.556-8.201,13.076-11.968c2.313-2.086,4.555-4.438,7.881-5.148c4.212-0.835,6.173,3.537,6.54,6.906
		c1.291,9.242-2.757,27.399-8.716,34.59c0.281-4.524,2.004-8.65,3.217-12.935c1.833-6.875,3.611-14.214,3.014-21.331
		C165.855,6.066,157.253,16.213,153.31,19.649z M344.606,445.823c-6.719-6.481-16.25-8.755-25.227-9.675
		c-7.031-0.729-14.335-0.285-21.37,0.172c-6.314,0.398-12.545,0.39-18.828-0.062c-2.956-7.487-4.578-15.642-7.359-23.285
		c-0.952-2.305-2.141-4.797-4.442-6.142c-3.67-2.086-7.967,0.862-9.858,3.79c-3.198,4.617-4.602,10.159-5.428,15.568
		c-0.335,2.293-0.534,4.621-0.608,6.965c-35.569-7.152-46.8-23.059-48.851-26.498c8.782-15.844,16.683-35.905,17.174-57.318
		c0.382-16.609-3.728-28.877-12.218-36.458c-8.915-7.967-19.924-8.31-24.131-8.107c0.827-10.4,0.71-21.858-0.768-34.922
		c6.692-12.795,8.661-28.226,4.477-42.113c5.031-17.361,2.648-36.864-1.377-54.276c-2.484-11.067-5.296-22.068-8.646-32.898
		c1.876,1.455,3.627,3.061,5.339,4.746c-1.47-2.043-3.155-3.946-5.007-5.686c-0.281-0.253-0.565-0.503-0.854-0.749
		c-1.626-5.159-3.377-10.28-5.284-15.345c3.467,0.994,6.879,2.192,10.217,3.627c3.662,1.626,7.136,3.56,10.498,5.779
		c-2.199-1.934-4.578-3.681-7.097-5.214c-4.465-2.644-9.324-4.703-14.405-6.24c-1.115-2.89-2.274-5.764-3.494-8.614
		c4.816-6.739,7.756-14.616,7.448-23.402c-0.351-10.248-2.726-20.618-7.936-29.474c0.671-1.427,1.31-2.866,1.926-4.317
		c2.648-6.602,5.237-13.314,6.863-20.259c2.09-9.504,4.138-24.073-2.57-32.161c-6.279-6.86-15.053-1.486-20.594,3.401
		c-4.333,3.611-8.954,6.789-13.029,10.619c-5.807-2.621-14.519-2.332-20.941-1.591c-5.354,0.616-10.81,0.562-16.207-0.168
		c-6.325-0.854-14.994-1.26-20.77,1.529c-4.013-3.728-8.533-6.852-12.779-10.389c-5.53-4.886-14.331-10.256-20.594-3.401
		c-6.707,8.092-4.66,22.657-2.57,32.161c1.63,6.945,4.216,13.661,6.863,20.259c0.472,1.115,0.959,2.223,1.466,3.323
		c-5.631,9.071-8.158,19.838-8.525,30.468c-0.304,8.657,2.543,16.433,7.234,23.106c-1.279,2.925-2.48,5.869-3.615,8.833
		c-5.175,1.548-10.12,3.631-14.667,6.318c-2.515,1.533-4.894,3.28-7.094,5.214c3.362-2.219,6.836-4.153,10.498-5.779
		c3.428-1.474,6.93-2.695,10.49-3.705c-1.86,4.98-3.557,10.007-5.155,15.072c-0.425,0.359-0.846,0.725-1.256,1.1
		c-1.852,1.739-3.537,3.642-5.007,5.686c1.798-1.767,3.631-3.459,5.616-4.964c0.035-0.027,0.07-0.051,0.105-0.078
		c-0.679,2.184-1.349,4.372-2.001,6.571c-2.589,8.79-4.781,17.685-6.774,26.623c-4.11,18.102-6.629,37.854-0.905,55.773
		c-0.117,0.421-0.226,0.838-0.328,1.267c-1.533,6.54-1.763,13.345-0.893,19.998c0.815,6.587,2.855,12.892,5.85,18.722
		c-1.544,13.329-1.689,24.981-0.866,35.55c-4.227-0.203-15.205,0.156-24.104,8.107c-8.486,7.581-12.6,19.849-12.214,36.458
		c0.655,28.628,14.558,54.841,26.101,71.789c8.096,11.886,16.203,21.012,20.937,25.984c-2.004,0.168-4.153,1.314-6.095,3.33
		c-1.579,1.657-2.933,3.779-3.904,6.142c-0.69,1.673-1.154,3.385-1.38,5.097c-0.253,1.962-0.175,3.755,0.23,5.327v0.008
		c0.612,2.332,1.95,4.009,3.759,4.723c1.147,0.452,2.402,0.503,3.693,0.164c0.792,1.638,1.981,2.8,3.494,3.404
		c2.355,0.936,5.167,0.292,7.811-1.716c1.283,2.94,3.287,4.746,5.709,5.058c0.047,0.008,0.101,0.004,0.148,0.012
		c0.117,0.394,0.25,0.776,0.398,1.139c1.002,2.433,2.687,4.06,4.738,4.578c1.341,0.335,2.753,0.195,4.153-0.409
		c1.107,1.728,2.609,2.886,4.348,3.33c2.749,0.698,5.779-0.468,8.412-3.155c1.837,3.151,4.317,4.914,7.031,4.914
		c2.441,0,4.742-1.47,6.528-4.106c2.71,2.975,5.881,4.29,8.782,3.549c1.841-0.464,3.408-1.716,4.535-3.619
		c0.097-0.16,0.183-0.328,0.269-0.495c0.09,0.168,0.175,0.335,0.269,0.495c1.127,1.903,2.699,3.155,4.535,3.619
		c2.901,0.741,6.076-0.573,8.786-3.549c1.786,2.636,4.087,4.106,6.528,4.106c2.714,0,5.194-1.759,7.031-4.914
		c2.628,2.687,5.658,3.853,8.412,3.155c1.739-0.445,3.241-1.603,4.344-3.33c1.4,0.604,2.816,0.745,4.157,0.409
		c2.082-0.527,3.72-2.11,4.742-4.586c0.144-0.359,0.277-0.741,0.39-1.135c0.055-0.004,0.109,0,0.164-0.008
		c2.41-0.312,4.414-2.118,5.697-5.058c2.644,2.008,5.452,2.656,7.811,1.716c1.513-0.604,2.702-1.767,3.494-3.404
		c1.291,0.339,2.547,0.289,3.693-0.164c1.81-0.714,3.147-2.391,3.759-4.723v-0.008c0.406-1.568,0.484-3.362,0.23-5.335
		c-0.23-1.708-0.694-3.42-1.38-5.089c-0.975-2.363-2.324-4.485-3.911-6.15c-1.829-1.895-3.841-3.018-5.744-3.28
		c1.841-1.934,4.204-4.508,6.879-7.632c2.921,2.687,10.818,9.476,22.614,16.055c12.366,6.887,31.244,14.636,53.629,14.636
		c2.196,0,4.43-0.082,6.692-0.238c3.833,5.042,8.665,9.316,14.519,12.37c19.073,9.601,44.324,11.543,61.97-2.18
		C349.855,471.896,355.462,456.504,344.606,445.823z M167.287,122.468c1.501,4.165,2.921,8.357,4.258,12.58
		c-5.729-3.771-12.3-6.47-19.14-8.201c2.609-1.774,5.109-3.736,7.425-5.869C162.334,121.384,164.822,121.879,167.287,122.468z
		 M144.485,125.28c0.273-1.907,0.277-3.849-0.035-5.795c3.475,0.133,6.945,0.39,10.393,0.796c-1.739,1.49-3.545,2.894-5.385,4.208
		c-0.62,0.437-1.256,0.87-1.895,1.299C146.54,125.595,145.515,125.428,144.485,125.28z M145.519,127.108
		c-0.542,0.343-1.092,0.675-1.642,1.002c0.121-0.417,0.226-0.842,0.32-1.267C144.637,126.929,145.078,127.019,145.519,127.108z
		 M161.558,119.321c1.131-1.131,2.207-2.305,3.229-3.521c0.601,1.509,1.178,3.046,1.743,4.582
		C164.888,119.98,163.231,119.625,161.558,119.321z M50.226,99.928c-3.946-13.154,0.546-26.791,3.888-39.902
		c1.341,2.839,2.816,5.623,4.531,8.306c-0.881-4.715-2.219-9.234-3.674-13.707c-2.192-6.626-4.754-13.165-6.259-19.994
		c-1.817-8.556-3.49-18.481-0.195-26.767c3.206-7.468,10.248-5.241,15.513-1.267c1.837,1.373,3.65,2.972,5.401,4.45
		c5.479,4.559,10.58,9.465,17.385,12.21c-0.971-1.349-2.02-2.601-3.124-3.783c5.058-1.934,12.401-1.525,17.896-0.784
		c5.662,0.764,11.383,0.823,17.003,0.175c5.6-0.647,13.009-0.955,18.134,0.874c-1.014,1.104-1.977,2.27-2.874,3.518
		c6.801-2.745,11.902-7.651,17.381-12.21c1.751-1.478,3.564-3.077,5.401-4.45c5.268-3.978,12.311-6.197,15.517,1.267
		c3.295,8.306,1.622,18.192-0.199,26.767c-1.505,6.824-4.067,13.368-6.259,19.994c-0.285,0.881-0.565,1.759-0.838,2.644
		c-0.019-0.031-0.039-0.059-0.058-0.09c0.012,0.051,0.027,0.101,0.039,0.152c-1.115,3.592-2.11,7.234-2.816,11.001
		c1.427-2.235,2.691-4.539,3.849-6.887c3.287,12.674,7.324,25.8,3.521,38.482c-2.32,7.308-7.027,13.485-12.647,18.672
		c-4.184-0.519-8.419-0.749-12.619-0.714c-1.322-5.229-4.972-9.589-9.34-12.51c2.675,3.026,4.949,6.267,6.115,10.092
		c0.273,0.823,0.468,1.65,0.604,2.48c-5.674,0.195-11.266,0.862-16.582,1.942c5.549-0.398,11.157-0.593,16.757-0.484
		c0.137,1.841-0.027,3.677-0.448,5.463c-4.551-0.476-9.082-0.573-13.434-0.312c4.336,0.398,8.716,0.932,13.06,1.673
		c-1.86,5.967-6.524,11.216-12.097,13.875c-10.361,4.024-23.886,4.391-34.625,1.599c-5.019-1.111-9.094-4.446-12.163-8.474
		c-1.798-2.285-3.042-4.637-3.779-7.008c4.34-0.737,8.708-1.267,13.037-1.665c-4.34-0.257-8.86-0.164-13.399,0.308
		c-0.417-1.825-0.538-3.654-0.382-5.463c5.569-0.101,11.141,0.094,16.656,0.487c-5.28-1.072-10.837-1.735-16.476-1.938
		c0.757-4.473,3.202-8.79,7.043-12.577c-4.333,3.1-7.636,7.538-8.95,12.526c-4.297-0.074-8.63,0.129-12.916,0.632
		C57.214,113.362,52.538,107.204,50.226,99.928z M75.277,125.174c-1.115,0.152-2.231,0.328-3.346,0.526
		c-0.597-0.398-1.193-0.803-1.774-1.213c-1.864-1.334-3.693-2.757-5.456-4.27c3.541-0.398,7.101-0.643,10.673-0.76
		C75.047,121.314,75.004,123.232,75.277,125.174z M75.558,126.703c0.055,0.222,0.105,0.445,0.168,0.667
		c0.07,0.3,0.164,0.589,0.253,0.885c-0.682-0.402-1.357-0.811-2.024-1.236C74.489,126.91,75.024,126.804,75.558,126.703z
		 M57.97,119.235c-1.747,0.304-3.479,0.663-5.194,1.076c0.597-1.595,1.213-3.19,1.841-4.773
		C55.67,116.817,56.789,118.053,57.97,119.235z M52.008,122.402c2.543-0.601,5.105-1.1,7.686-1.505
		c2.297,2.121,4.773,4.075,7.355,5.846c-6.871,1.696-13.485,4.356-19.264,8.1C49.106,130.665,50.51,126.516,52.008,122.402z
		 M3.223,349.262c-0.359-15.61,3.385-27.04,11.122-33.974c8.291-7.429,18.949-7.48,22.283-7.288
		c2.036,20.723,7.756,37.347,13.692,54.572c8.174,23.71,16.601,48.181,17.736,86.675c-1.162-1.221-2.402-2.001-3.467-2.141
		c-1.716-0.215-3.428,0.339-5.019,1.614c-0.452-0.355-0.948-0.64-1.482-0.85c-1.677-0.667-3.568-0.542-5.483,0.32
		C46.209,441.888,4.365,398.804,3.223,349.262z M60.657,468.172c-0.511,1.938-0.768,3.888-0.768,5.799v0.016
		c0.004,0.374,0.019,0.737,0.039,1.092c0.004,0.043,0.004,0.086,0.004,0.125c-1.267-0.655-2.348-2.375-2.983-4.824l-0.725-2.792
		l-1.985,2.09c-2.176,2.289-4.547,3.307-6.197,2.652c-1.283-0.511-1.907-1.88-2.207-2.936l-0.534-1.876l-1.735,0.889
		c-0.718,0.367-1.77,0.725-2.718,0.351c-1.072-0.421-1.591-1.618-1.837-2.554c-0.296-1.158-0.347-2.582-0.152-4.11
		c0.191-1.427,0.581-2.874,1.166-4.29c0.823-2,1.95-3.779,3.256-5.148c1.829-1.899,3.794-2.745,5.14-2.211
		c0.538,0.214,0.971,0.628,1.322,1.26l0.913,1.65l1.478-1.166c0.433-0.339,0.854-0.616,1.295-0.838
		c0.916-0.495,2.266-0.987,3.482-0.503c0.507,0.203,0.952,0.558,1.33,1.065l1.15,1.552l1.31-1.423
		c0.827-0.897,2.106-1.934,3.471-1.759c0.877,0.179,3.506,2.749,4.005,5.814c0,0.339,0.004,0.675,0.008,1.014
		c-1.232,0.655-2.43,1.653-3.521,2.964c-0.016,0.02-0.031,0.035-0.043,0.051c-0.195,0.234-0.386,0.476-0.573,0.733
		C62.545,462.903,61.371,465.434,60.657,468.172z M108.117,478.143c-0.148,1.993-0.624,3.759-1.416,5.105
		c-0.694,1.17-1.556,1.891-2.57,2.149c-2.032,0.515-4.586-0.998-6.715-3.958l-2.16-6.434l-1.127,7.07
		c-1.283,2.41-2.909,3.779-4.52,3.779c-1.778,0-3.576-1.681-4.894-4.535l0.07,0.004l-1.556-6.317l-2.059,5.9
		c-2.024,2.508-4.36,3.759-6.212,3.287c-1.303-0.332-2.16-1.388-2.702-2.402l-0.382-6.317l-2.909,5.354
		c-0.721,0.386-1.618,0.671-2.519,0.441c-1.338-0.335-2.129-1.65-2.558-2.687c-0.222-0.55-0.402-1.174-0.534-1.864
		c-0.062-0.304-0.109-0.632-0.152-0.963c-0.066-0.562-0.105-1.154-0.109-1.782c0-0.191,0.012-0.386,0.019-0.577
		c0.008-0.222,0.008-0.437,0.023-0.659c0.004-0.07,0.016-0.144,0.019-0.218c0.094-1.17,0.289-2.352,0.601-3.533
		c0.616-2.352,1.611-4.508,2.874-6.236c1.33-1.809,2.73-2.652,3.346-2.96c0.78-0.355,1.54-0.472,2.215-0.3
		c0.671,0.172,1.264,0.604,1.77,1.283l1.111,1.509l1.314-1.338c0.433-0.437,0.877-0.819,1.326-1.135
		c0.331-0.234,0.624-0.417,0.916-0.565c1.088-0.589,2.114-0.764,3.05-0.53c0.437,0.109,0.85,0.32,1.24,0.62l1.47,5.031l1.911-5.374
		c0.803-0.987,1.934-1.946,3.311-1.946c1.611,0,2.897,1.334,3.697,2.453l1.95,5.229l1.416-4.512c0.242-0.129,0.491-0.23,0.753-0.296
		c1.556-0.398,3.486,0.417,5.292,2.231c0.023,0.039,0.047,0.082,0.07,0.121l0.031-0.019c1.864,1.915,3.576,4.898,4.586,8.739
		c0.378,1.455,0.616,2.901,0.718,4.297C108.058,476.264,108.058,477.219,108.117,478.143z M109.723,467.7
		c-1.1-3.014-6.746-11.161-8.314-16.835c-2.897-10.475-4.469-21.277-5.635-32.094c-2.176-21.772-2.78-43.743-2.87-65.636
		c-0.012-7.32,0.172-14.628,0.222-21.951c-0.242-14.222,0.343-31.252-10.428-42.148c4.095,6.103,5.783,13.193,6.349,20.391
		c0.604,14.936,0.636,29.922,0.741,44.917c0.152,21.616,0.445,43.244,2.804,64.754c1.178,10.982,2.609,22.041,5.752,32.699
		c0.526,1.7,1.096,3.397,1.77,5.074c-1.162-0.312-2.336-0.347-3.482-0.059c-0.363,0.094-0.714,0.214-1.057,0.37
		c-1.692-2.168-3.771-3.342-5.967-3.342c-1.934,0-3.744,0.877-5.304,2.554c-0.577-0.359-1.197-0.624-1.848-0.788
		c-1.708-0.429-3.557-0.148-5.319,0.799c-0.402,0.207-0.819,0.464-1.271,0.784c-0.179,0.129-0.359,0.261-0.538,0.402
		c-0.702-0.581-1.497-0.991-2.348-1.209c-0.515-0.129-1.041-0.179-1.572-0.168c-0.008-0.082-0.023-0.16-0.031-0.242
		c-0.308-42.998-9.71-70.311-18.028-94.443c-8.755-25.403-17.038-49.464-13.423-87.548c5.678,9,13.653,16.62,22.763,22.041
		c3.252,1.891,6.649,3.514,10.17,4.812c-1.474-1.178-2.995-2.242-4.5-3.323c-5.834-4.391-11.703-8.899-16.737-14.187
		c-3.752-3.908-7.008-8.326-9.695-13.013c-5.885-10.518-8.427-22.965-7.031-34.949c0.273,0.612,0.554,1.225,0.85,1.833
		c2.679,5.627,6.236,10.927,11.434,14.519c-2.546-5.604-5.947-10.397-8.462-15.915c-1.045-2.32-1.915-4.672-2.644-7.047
		c0.008-0.031,0.012-0.062,0.019-0.09l-0.051-0.016c-6.236-20.442-1.435-42.76,3.334-63.195c2.301-9.543,4.824-19.062,7.733-28.456
		c6.801-4.134,14.285-6.945,22.029-8.887c2.812,1.806,5.674,3.401,8.763,4.769c3.209,5.834,8.852,10.287,15.338,11.96
		c11.321,3.139,26.186,3.365,37.187-1.049c4.797-2.297,8.965-6.279,11.539-11.028c2.929-1.314,5.662-2.835,8.341-4.547
		c7.706,1.965,15.139,4.804,21.893,8.958c3.794,12.222,6.969,24.638,9.699,37.133c4.457,20.095,7.421,42.152-1.342,61.494
		c-2.515,5.518-5.916,10.311-8.466,15.915c2.593-1.794,4.781-4.021,6.669-6.493c2.632-3.65,4.715-7.515,6.345-11.524
		c0.768,5.393,0.745,10.907,0.004,16.297c-1.614,12.105-7.374,23.383-15.591,32.348c-5.272,5.697-11.469,10.51-17.677,15.17
		c-1.505,1.08-3.026,2.145-4.504,3.323c3.525-1.299,6.922-2.921,10.174-4.812c8.958-5.343,16.745-12.756,22.443-21.515
		c3.475,37.749-4.851,61.693-13.653,86.963c-8.412,24.143-17.915,51.472-18.227,94.501c-0.008,0.078-0.023,0.16-0.031,0.242
		c-0.53-0.012-1.057,0.039-1.575,0.172c-0.85,0.215-1.642,0.624-2.348,1.205c-0.175-0.14-0.351-0.273-0.53-0.398
		c-0.456-0.324-0.874-0.581-1.248-0.772c-1.79-0.963-3.638-1.244-5.35-0.815c-0.651,0.164-1.267,0.429-1.845,0.788
		c-1.564-1.677-3.369-2.554-5.304-2.554c-2.196,0-4.274,1.174-5.97,3.342c-0.339-0.156-0.694-0.277-1.061-0.37
		c-1.318-0.335-2.679-0.238-4.013,0.218c0.702-1.728,1.287-3.479,1.833-5.233c3.143-10.662,4.574-21.717,5.752-32.699
		c2.348-21.409,2.652-42.939,2.804-64.454c0.105-15.096,0.133-30.184,0.741-45.217c0.565-7.199,2.254-14.285,6.349-20.391
		c-10.767,10.896-10.186,27.922-10.428,42.148c0.055,7.324,0.234,14.632,0.222,21.951c-0.09,21.893-0.694,43.864-2.87,65.636
		c-1.166,10.818-2.562,21.671-5.635,32.094c-1.049,3.416-2.297,6.797-4.087,9.702C113.479,460.567,110.733,464.935,109.723,467.7z
		 M156.36,473.974c-0.008,1.006-0.097,1.926-0.261,2.753l-0.004,0.008c-0.129,0.675-0.308,1.295-0.53,1.841
		c-0.429,1.041-1.225,2.355-2.558,2.691c-0.901,0.226-1.798-0.059-2.519-0.441l-2.913-5.354l-0.378,6.317
		c-0.542,1.014-1.4,2.071-2.702,2.402c-1.86,0.472-4.192-0.78-6.212-3.287l-2.059-5.9l-1.556,6.317l0.066-0.004
		c-1.314,2.855-3.112,4.535-4.89,4.535c-1.614,0-3.237-1.369-4.52-3.779l-1.127-7.07l-2.16,6.434
		c-2.129,2.96-4.687,4.477-6.723,3.954c-1.006-0.253-1.868-0.975-2.562-2.145c-0.796-1.345-1.267-3.112-1.419-5.105
		c0.062-0.924,0.062-1.88,0-2.858c0.101-1.392,0.335-2.843,0.718-4.294c2.004-7.628,6.774-11.878,9.975-11.079
		c0.261,0.066,0.511,0.172,0.757,0.3l1.416,4.512l1.95-5.229c0.799-1.119,2.086-2.453,3.697-2.453c1.377,0,2.508,0.959,3.311,1.946
		l1.911,5.374l1.47-5.031c0.39-0.3,0.803-0.511,1.24-0.62c0.936-0.234,1.962-0.055,3.077,0.542c0.265,0.136,0.554,0.32,0.893,0.558
		c0.445,0.312,0.889,0.694,1.322,1.131l1.314,1.338l1.115-1.509c0.499-0.679,1.096-1.111,1.763-1.283
		c0.655-0.164,1.388-0.066,2.141,0.265c0.577,0.277,2.04,1.108,3.42,2.995c1.267,1.728,2.262,3.884,2.878,6.24
		c0.437,1.665,0.663,3.342,0.663,4.976V473.974z M176.162,452.651c1.31,1.373,2.441,3.151,3.264,5.151
		c0.581,1.416,0.975,2.858,1.166,4.282c0.195,1.54,0.144,2.964-0.156,4.118c-0.246,0.936-0.764,2.133-1.837,2.554
		c-0.944,0.374-1.997,0.016-2.714-0.351l-1.739-0.889l-0.53,1.876c-0.3,1.057-0.928,2.426-2.207,2.936
		c-1.646,0.655-4.021-0.363-6.197-2.652l-1.985-2.09l-0.725,2.792c-0.64,2.453-1.724,4.177-2.983,4.824c0-0.039,0-0.086,0.004-0.125
		c0.02-0.359,0.035-0.721,0.039-1.092v-0.016c0-1.911-0.257-3.865-0.768-5.799c-0.718-2.734-1.887-5.265-3.393-7.32
		c-0.187-0.253-0.378-0.499-0.573-0.733c-0.012-0.012-0.019-0.023-0.031-0.035c-1.092-1.318-2.293-2.32-3.529-2.975
		c0-0.343,0.004-0.679,0.008-1.018c0.495-3.061,3.124-5.631,3.989-5.807c1.384-0.172,2.66,0.858,3.486,1.755l1.306,1.423
		l1.154-1.552c0.374-0.507,0.823-0.862,1.33-1.065c1.221-0.484,2.566,0.008,3.518,0.522c0.402,0.203,0.827,0.48,1.26,0.819
		l1.478,1.166l0.913-1.65c0.351-0.632,0.784-1.045,1.326-1.26C172.372,449.909,174.341,450.756,176.162,452.651z M167.099,448.315
		c-2.02-0.971-3.993-1.135-5.736-0.445c-0.534,0.211-1.029,0.495-1.482,0.85c-1.591-1.275-3.307-1.833-5.027-1.611
		c-1.061,0.136-2.297,0.916-3.459,2.137c1.147-38.521,9.667-63.003,17.927-86.721c5.998-17.213,11.773-33.822,13.844-54.522
		c3.295-0.195,14-0.168,22.322,7.285c7.737,6.934,11.477,18.364,11.118,33.974c-0.64,27.82-14.222,53.422-25.504,69.999
		C180.483,434.864,169.86,445.616,167.099,448.315z M181.68,437.064c3.705-4.461,7.866-9.831,12.023-15.938
		c2.324-3.412,4.746-7.203,7.133-11.313c3.95,5.764,16.812,19.951,50.626,26.596c0.218,10.74,3.174,21.573,8.923,30.488
		C218.841,468.917,187.698,442.562,181.68,437.064z M337.04,477.656c-16.554,12.873-40.518,10.884-58.46,1.868
		c-12.249-6.411-20.161-18.964-22.708-32.379c-1.923-9.991-1.755-20.793,1.938-30.336c1.104-2.983,5.109-9.874,8.681-6.61
		c0.928,0.932,1.653,2.457,2.254,3.986c1.185,3.135,2.032,6.555,2.905,9.968c1.759,6.824,3.592,13.856,7.164,20.325
		c5.588,10.471,15.587,16.562,27.586,15.33c3.619-0.359,7.133-1.197,10.447-2.508c-14.749,1.267-27.072-0.585-34.684-14.678
		c-0.562-0.998-1.076-2.02-1.56-3.053c7.589,0.456,15.334,0.175,22.876-0.374c8.591-0.511,17.389-0.324,25.719,1.942
		c6.349,1.763,12.74,4.937,16.11,10.783C350.514,460.992,344.61,471.927,337.04,477.656z M99.249,114.298
		c-0.125-6.836,10.131-5.128,10.131-5.128s10.26-1.708,10.131,5.128c-0.094,5.019-5.495,8.189-8.369,9.527
		c-0.016,0.125-0.035,0.246-0.051,0.37c1.56,4.079,4.34,7.546,9.156,7.058c2.73-0.214,5.074-0.936,7.975-1.443
		c-5.284,6.497-14.955,6.536-18.594-1.037c-3.635,6.431-12.678,7.222-18.403,1.037c3.775,0.331,7.441,1.517,10.966,0.601
		c2.991-0.776,4.964-3.482,6.142-6.259c0-0.004,0-0.004,0-0.008C105.769,123.049,99.354,119.769,99.249,114.298z M56.637,38.402
		c1.209,4.29,2.933,8.412,3.213,12.935c-5.951-7.179-10.003-25.329-8.716-34.594c0.367-3.354,2.332-7.741,6.54-6.902
		c3.326,0.71,5.569,3.061,7.881,5.148c4.52,3.767,8.778,7.784,13.08,11.968c-4.075-1.923-7.842-4.422-11.278-7.308
		c-3.946-3.432-12.549-13.583-13.739-2.574C53.022,24.188,54.8,31.527,56.637,38.402z M122.83,66.41
		c-0.253-1.33-0.3-2.702-0.25-4.071c0.733-9.406,6.961-18.274,14.339-23.847c-5.569,7.316-11.165,14.936-13.407,23.979
		C123.208,63.754,123.006,65.064,122.83,66.41z M95.509,62.471c-2.242-9.043-7.838-16.663-13.407-23.979
		c8.1,6.06,15.809,17.4,14.09,27.918C96.016,65.064,95.813,63.754,95.509,62.471z M97.517,121.766c0.987,0,1.786,0.799,1.786,1.786
		c0,0.991-0.799,1.79-1.786,1.79c-0.987,0-1.79-0.799-1.79-1.79C95.727,122.565,96.531,121.766,97.517,121.766z M119.718,123.552
		c0-0.987,0.799-1.786,1.786-1.786s1.79,0.799,1.79,1.786c0,0.991-0.803,1.79-1.79,1.79S119.718,124.542,119.718,123.552z
		 M102.353,127.974c-0.987,0-1.79-0.799-1.79-1.79c0-0.987,0.803-1.786,1.79-1.786c0.987,0,1.79,0.799,1.79,1.786
		C104.143,127.175,103.339,127.974,102.353,127.974z M116.669,124.398c0.987,0,1.786,0.799,1.786,1.786
		c0,0.991-0.799,1.79-1.786,1.79c-0.987,0-1.79-0.799-1.79-1.79C114.879,125.198,115.682,124.398,116.669,124.398z M39.803,226.097
		c0.176,1.743,0.509,3.43,0.362,5.365c-0.624-0.708-1.136-1.478-1.601-2.272c-0.83-1.361-1.305-2.902-1.768-4.417
		c-0.104-0.415-0.624-2.834-0.728-3.305c-0.643-3.547-1.057-7.14-1.098-10.731c-0.051-3.591,0.172-7.174,0.587-10.723
		c0.407-3.539,0.901-7.121,2.711-10.38c0.444,3.605,0.08,7.029-0.103,10.592C37.833,208.883,38.177,217.587,39.803,226.097z
		 M47.854,271.685c1.659,3.081,3.893,5.805,4.697,9.32c-1.894-1.098-3.358-2.696-4.587-4.467c-3.71-5.149-6.691-10.853-8.688-16.881
		c-0.915-2.702-1.769-5.47-1.353-8.378c1.484,2.457,2.364,4.989,3.45,7.581C43.265,263.254,45.521,267.511,47.854,271.685z
		 M17.547,317.207c-2.427,2.966-4.054,6.516-5.361,10.091c-2.2,5.955-3.091,12.298-3.361,18.624
		c-0.183,3.801-0.111,7.698,0.072,11.494c0.372,6.048,1.302,13.312,1.558,19.354c-1.504-3.647-2.562-7.458-3.338-11.321
		c-1.661-9.06-2.21-18.486-0.588-27.593C7.946,330.439,10.847,321.452,17.547,317.207z M319.779,481.264
		c3.091-0.554,5.998-1.363,9.195-1.537c-2.218,1.73-4.794,2.889-7.466,3.716c-0.714,0.19-2.719,0.724-3.463,0.921
		c-1.341,0.258-3.373,0.709-4.718,0.835c-6.047,0.778-16.143,0.513-20.881-3.686c3.206,0.026,6.118,0.414,9.243,0.697
		c3.014,0.237,6.037,0.258,9.056,0.104c1.091-0.047,2.298-0.181,3.396-0.24l1.128-0.142l2.264-0.265L319.779,481.264z
		 M245.322,462.596c2.062,0.375,4.131,0.705,6.273,1.111c-10.566,2.871-27.672-2.991-37.394-7.588
		c-3.909-1.814-7.718-3.852-10.874-6.872c4.254,1.039,8.122,2.647,12.012,4.261c3.901,1.573,7.837,3.037,11.801,4.387
		C233.071,459.965,239.132,461.57,245.322,462.596z M179.601,231.461c-0.148-1.935,0.185-3.622,0.362-5.365
		c1.627-8.51,1.97-17.213,1.639-25.872c-0.183-3.563-0.547-6.986-0.103-10.592c1.81,3.259,2.304,6.842,2.711,10.38
		c0.415,3.55,0.638,7.132,0.587,10.723c-0.042,3.592-0.456,7.185-1.098,10.731c-0.108,0.468-0.615,2.877-0.728,3.305
		c-0.463,1.515-0.939,3.056-1.768,4.417C180.737,229.984,180.225,230.754,179.601,231.461z M167.215,281.005
		c0.803-3.514,3.037-6.239,4.696-9.32c2.333-4.175,4.588-8.431,6.482-12.824c1.086-2.593,1.965-5.124,3.45-7.581
		c0.416,2.907-0.437,5.676-1.353,8.378c-1.997,6.028-4.978,11.732-8.688,16.881C170.573,278.309,169.109,279.907,167.215,281.005z
		 M207.792,327.298c-1.306-3.576-2.933-7.125-5.361-10.091c6.698,4.242,9.603,13.236,11.018,20.649
		c1.622,9.107,1.073,18.533-0.588,27.593c-0.777,3.863-1.834,7.674-3.338,11.321c0.256-6.031,1.187-13.312,1.558-19.354
		c0.183-3.795,0.255-7.694,0.072-11.494C210.883,339.596,209.992,333.253,207.792,327.298z"/>
</g>
</svg>
