<?xml version="1.0" encoding="utf-8"?>
<!-- Generator: Adobe Illustrator 28.3.0, SVG Export Plug-In . SVG Version: 6.00 Build 0)  -->
<svg version="1.1" id="eagle_00000031208853432193819670000017484858183846846865_"
	 xmlns="http://www.w3.org/2000/svg" xmlns:xlink="http://www.w3.org/1999/xlink" x="0px" y="0px" viewBox="0 0 472.8 490"
	 style="enable-background:new 0 0 472.8 490;" xml:space="preserve">
<style type="text/css">
	.st0{fill:#66341E;}
	.st1{fill:#F7B626;}
	.st2{fill:#AD704E;}
	.st3{fill:#FFFFFF;}
	.st4{fill:#231F20;}
</style>
<g id="eagle">
	<path class="st0" d="M390.5,349.6L390.5,349.6c18.9,10.8,40.4,20.5,63.8,28.7l3.3,1.1l-1.8-2.9c-7.7-12.4-17.9-24.1-32.1-36.8
		l-0.6-0.5c-7.6-6.9-15.6-13.2-21.6-18c-6.8-5.4-14-10.5-21-15.4c-2.7-1.9-5.4-3.8-8.1-5.8c5.5,3.2,10.9,6.8,16.2,10.4
		c10.9,7.5,20.5,14.8,29.3,22.2l4.1,3.4l-2.2-4.9c-9.3-20.5-23.9-39.8-43.4-57.2c-8.7-7.8-18-14.7-27.6-21.3c4.9,2.7,10,6,15.5,9.9
		c8.5,6.2,15.8,12.4,22.5,18.9l4.9,4.8l-2.9-6.2c-17.9-37.9-48.4-92.5-106.7-129.5c-1.4-0.8-2.9-1.6-4.3-2.5l-0.1-0.1
		c-1.6-0.9-3.2-1.8-4.8-2.7c-11.8-6.4-23.5-11.6-34.7-15.5c-8.3-2.8-17.1-5.2-26.9-7.4c10.7,0.5,21,3.3,29.2,5.9l9.3,3l-8.2-5.2
		c-34.9-21.9-63.3-42.7-71.2-48.7l-0.3-0.2l-0.3,0c-3.2-0.2-6.4-0.6-9.6-1.2l-2.4-0.5l1.1,2.2c1,2.1,2.4,5.4,3.1,9.4l0.2,0.9
		l-0.9-0.1c-0.5-0.1-5.3-0.7-14.7-5.4l-3.6-1.8l2,3.5c2.6,4.5,4.2,8.9,4.8,13.2l0.3,2l-1.4-1.4c-0.2-0.2-6.2-6.1-14-9.3l-1.3-0.6
		l-0.3,1.4c-0.6,2.8-1.6,8.3-1.9,14.6l-0.1,1.4l-1.1-0.9c0,0-3.8-3.3-7-9.1l-1.9-3.5l-0.4,3.9c-0.6,5.6-1,13.7,0.7,20l0.4,1.5
		l-1.4-0.7c-0.2-0.1-5.1-2.7-10.2-7.1l-2.6-2.2l0.6,3.3c1.1,6.3,0.3,10.7-0.3,14.6c-0.8,4.8-1.5,9,1.3,15.6l0.5,1.2l-1.2-0.2
		c-0.7-0.1-7.3-1.6-12.9-8.5l-1.5-1.9l-0.6,2.3c-1.6,6-4.4,18.1-4.8,31.7l0,0.3c0.1,0.6,0.2,1.2,0.3,1.8
		c5.8,29.5,13.7,69.9,51.4,108.4l2.5,2.6l-2.1-17.3l1.8,3.7c0.5,1,11.5,23.5,26.2,39.6l4.5,5l-2.5-6.2c-0.6-1.5-1.2-3-1.7-4.4
		c-1.3-3.6-2.4-7.4-3.2-11.2c-0.5-2.3-1-4.9-1-7.5c1.1,2.5,1.8,5,2.5,7.2c1.1,3.7,2.3,7.3,3.5,10.9c7.6,23.2,21.1,41.8,38,52.4
		l1.6,1l2.2-19.8c0.8,2.4,1.7,5,2.4,6.2c2.6,5.5,7.4,13.1,15.4,17.8l1.2,0.7l0.5-1.3c0.6-1.5,1.2-3,1.7-4.6
		c2.1-6.7,2.6-12.2,1.6-17.1c-0.2-0.9-0.5-1.8-0.8-2.8l-0.1-0.2l-0.2-0.2c-3.6-3.9-6.8-7.9-9.7-12.2c12.9,14.5,27.1,26,42.2,34
		l4.5,2.4l-2.9-4.2c-5.2-7.5-9-14.3-11.5-21c6.7,10.8,13.7,21.9,22.3,31.6c9,10.4,19.2,19.4,30.3,26.7l4.2,2.8l-19-34.2
		c5.2,5.3,10.6,10.9,14.9,15.8c8.9,10.2,19,22.2,26.4,35.5l2,3.6l0.3-4.1c0.1-1,0.1-2,0.2-2.9c0.3-9.6-1.3-17.9-4.8-24.8l0.3-0.2
		l-1-1.2c-20.1-23.9-35.2-45.5-38-49.6l-0.2-0.3l-0.3-0.1c-6.4-2.6-12.9-5.9-19.3-9.9l-0.2-0.1l-0.3-0.1c-5-0.6-10.1-1.7-15.4-3.3
		c-15.4-4.9-31.3-12.8-49.9-25c-15.3-10.1-30.1-21.7-44-34.3c-16.3-14.8-27.7-28.3-35.9-42.7c-8.7-15.2-12.6-30.7-11.3-44.8
		c1-10.5,4.5-19.5,10.1-25.9c3.8-4.4,8.5-7.7,13.5-10.2c-4.6,3.1-8.8,6.8-12.4,11.1c-5.4,6.3-8.7,15-9.5,25.2
		c-1.2,13.9,2.7,28.6,11.4,43.7c10.1,17.9,30.8,39.7,56.8,60c25,19.5,51.8,34.9,71.8,41.4c2,0.6,4,1.2,6.1,1.8l6.4,1.6l-5.4-3.8
		c-4.1-2.9-8.1-6-12-9.3c-9-7.9-17.5-15.8-24.2-25.1c1.7,1.6,3.4,3.3,5,4.9l0.1,0.1c3,2.9,6.1,5.9,9.2,8.9
		c11.4,10.6,23.3,19.5,35.3,26.4c8.9,5.1,17.9,9.1,26.8,11.8c2.3,0.7,4.8,1.4,7.6,2l4.1,0.9l-3.4-3.4c-0.7-0.7-1.4-1.4-2.1-2.1
		c-7.5-7.9-12.9-15.2-16.5-22.4c0.9,1.1,1.7,2.2,2.5,3.2c1.1,1.4,2.2,2.9,3.4,4.2c18.2,23.5,44.9,43.5,81.6,61
		c18.6,8.8,37.8,16.2,57.2,22l6.8,2.1l-5.8-4.2c-10.4-7.6-20.3-16.1-30-24.3l-3.9-3.4c-4.5-3.9-8.5-7.4-12.2-10.8l-0.2-0.2
		c-11.8-6.6-22.6-13.8-31.9-21.6c-2.4-2.1-4.3-4.1-6-6.1c2.4,1.7,4.7,3.4,6.8,5C372.9,338.8,381.1,344.2,390.5,349.6z M396.6,304.4
		l-0.2-0.3c-2.5-2.9-5-5.9-7.5-8.7c-4-4.7-8.2-9.2-12.3-13.7c-0.5-0.6-1-1.1-1.5-1.7c4.5,4.1,8.7,8.6,12.8,12.9l1.7,1.8l1.2,1.4
		c5.1,5.9,10.4,11.9,14.8,18.5C402.5,311.3,399.5,307.8,396.6,304.4z M389.2,370.7l-2.5-1.2l-2.7-1.4c-5.9-3.1-11.9-6.2-17.8-9.7
		c0.5,0.3,1.1,0.6,1.6,0.8l0.2,0.1c3.3,1.7,6.7,3.4,10.1,5c3.8,1.9,8.3,4,12.6,6l0.1,0.1c3.3,1.6,6.7,3.2,9.7,4.6
		c1.2,0.6,2.5,1.2,3.8,1.8c3,1.4,6.1,2.8,9.1,4.4C405.1,378.3,397.1,374.5,389.2,370.7z M296.3,320.7c-11-4.5-24.7-13.3-34.4-21.5
		c3.7,2.6,7.5,5.2,11.3,7.7c6.5,4.1,13.2,8,19.7,11.8C294,319.4,295.2,320,296.3,320.7z M225.8,290.3c-1.7-0.9-3.3-1.7-4.7-2.6
		c-9.4-5.5-19.1-12.3-29.4-20.7c-6-5-11.7-9.7-17-14.5c0.4,0.4,0.9,0.7,1.3,1.1c6.8,5.5,13.7,11.2,20.9,16.4
		c4.9,3.7,9.8,7.3,14.5,10.6c4.5,3.1,9.2,6.2,13.7,9.2l0.2,0.1C225.4,290.1,225.6,290.2,225.8,290.3z M128.7,255.1L128.7,255.1
		c-3.5-4.8-6.8-10.1-10.1-16.2l-0.4-0.8c-1.2-2.3-2.3-4.5-3.4-6.9c0.7,1.2,1.4,2.4,2.1,3.5c1.8,3,3.6,6.2,5.6,9.2
		c2,3.2,4.3,7,6.7,10.7l0.3,0.5c1,1.5,2,3.1,2.9,4.7C131.2,258.5,129.9,257,128.7,255.1z M180.6,309c0.9,1.6,1.9,3.2,2.8,4.8
		l0.1,0.1c4.5,7.1,9.2,13.7,13.9,19.6c0.7,0.9,1.5,1.8,2.2,2.7c0.7,0.8,1.3,1.6,2,2.4c-2.1-1.8-4-3.9-5.9-6
		c-4.7-5.4-8.9-11.7-12.6-18.6C182.3,312.4,181.4,310.7,180.6,309z M277.2,149.1C277.2,149.1,277.2,149.1,277.2,149.1L277.2,149.1
		L277.2,149.1z"/>
	<g>
		<path class="st1" d="M15.8,87.3l-0.2,0.4l0.5-0.1C29.7,83.9,42,76.2,45.4,73.9l0.1-0.1l0-0.1c0.2-5.7,2.3-12.4,4-17l0.2-0.7
			L33.3,67.8C24.9,73.8,19,80.4,15.8,87.3z"/>
		<path class="st1" d="M31.3,65.1l17-12.1l-0.6-0.1c-9.4-0.8-17.3-4.3-20.3-5.8l-0.1-0.1l-0.1,0.1C11.5,58.8,3.5,70.2,3.6,81
			c0,6.8,3.4,11.9,6.1,15l0.3,0.4l0-0.5C10.6,89.6,14.1,77.4,31.3,65.1z M27,53.1c0,1.3-0.6,2.5-1.6,3.2c-1,0.7-2.3,0.9-3.6,0.5
			c0.1-1.3,0.6-2.5,1.7-3.2C24.4,52.9,25.7,52.7,27,53.1z"/>
		<path class="st1" d="M251.4,412.4c-3.4-5.7-9.1-9.6-15.5-10.6c-11.1-2.2-18.3-6.9-21.4-14.2l-0.3-0.8l-0.1,0.8
			c-0.2,1.8-0.3,3.5-0.5,5.4c-4.5-12.1,0.9-28.9,8.4-40.5l0.1-0.1l-0.1-0.1c-2.8-2.9-5.3-6.3-7.4-10.1l-0.3-0.6l-1.3,11.7l-0.3,2.6
			c-2.7-1.5-5.4-3.2-8.1-5l-0.3-0.2l0,0.4c0,5.8-0.5,11.2-1.6,16.1c-1.8,7.3-5.1,17.5-13.3,20.7c-0.8,0.3-1.5,0.4-2.2,0.5
			c1.9-1.3,3.5-3,5.1-5.4l0.4-0.7l-0.7,0.4c-6.4,3.2-13.6,2.2-20,1.4c-10.4-1.4-19.3-2.5-25.8,10l-0.3,0.5l0.6-0.2
			c2.6-1.1,5.4-1.9,8.4-2.3c5.8-0.8,14.2-1,22.2,2.8c-4.9-0.2-9.5-0.3-14.2-0.1c-15,0.5-24.8,7.2-29,19.8l-0.2,0.6l0.6-0.4
			c7.2-5.1,16.2-8.5,26-9.7c6.7-0.8,13.8-0.6,20.9,0.7c2.7,0.4,5.4,1.2,8,1.8c1.3,0.3,2.7,0.7,4,1c5.4,1.2,10.7,1.9,15.9,1.9
			c5.5,0,11-0.7,16.1-1.5c5.3-0.8,11.2-1.7,16.9-0.3c3,0.7,6.1,2,9.1,4l0.8,0.5L251.4,412.4z"/>
	</g>
	<g>
		<path class="st2" d="M319.5,255.9c-0.3-4.7-3.7-11.5-7.1-14.3l-0.4-0.3l-0.3,0.4c-0.9,1.4-1.1,3-1.3,4.5c-0.2,1.9-0.5,3.6-1.8,5.1
			c-2.6,2.9-7,2.7-10.1,1.3c-3.4-1.5-6.1-4.5-8.5-7.2l-1.3-1.5l0.6,1.9c2.5,8.2,8.9,15.2,16.9,18.3c1.9,0.8,3.7,1.1,5.4,1.1
			c1.5,0,2.8-0.3,4-1C318.2,262.8,319.8,259.5,319.5,255.9z"/>
		<path class="st2" d="M197.4,196.9l-1.3-1.5l0.6,1.9c2.5,8.2,8.9,15.2,16.9,18.3c1.9,0.8,3.7,1.1,5.4,1.1c1.5,0,2.8-0.3,4-1
			c2.6-1.5,4.2-4.8,3.9-8.4c-0.3-4.7-3.7-11.5-7.1-14.3l-0.4-0.3l-0.3,0.4c-0.9,1.4-1.1,3-1.3,4.5c-0.2,1.9-0.5,3.6-1.8,5.1
			c-2.6,2.9-7,2.7-10.1,1.3C202.5,202.6,199.8,199.6,197.4,196.9z"/>
		<path class="st2" d="M295.2,235.9c1.2,0,2.2-0.3,3.1-0.8c2.1-1.2,3.3-3.8,3.1-6.7c-0.3-3.7-2.9-9-5.5-11.2l-0.4-0.3l-0.3,0.4
			c-0.7,1.1-0.8,2.4-1,3.6c-0.2,1.4-0.4,2.8-1.4,3.9c-2,2.2-5.4,2.1-7.7,1c-2.7-1.2-4.8-3.5-6.6-5.6l-1.3-1.5l0.6,1.9
			c1.9,6.4,7,11.9,13.2,14.3C292.5,235.6,293.9,235.9,295.2,235.9z"/>
		<path class="st2" d="M177,220.1l0.6,1.9c1.9,6.4,7,11.9,13.2,14.3c1.5,0.6,2.9,0.9,4.2,0.9c1.2,0,2.2-0.3,3.1-0.8
			c2.1-1.2,3.3-3.8,3.1-6.7c-0.3-3.7-2.9-9-5.5-11.2l-0.4-0.3l-0.3,0.4c-0.7,1.1-0.8,2.4-1,3.6c-0.2,1.4-0.4,2.8-1.4,3.9
			c-2,2.2-5.4,2.1-7.7,1c-2.7-1.2-4.8-3.5-6.6-5.6L177,220.1z"/>
		<path class="st2" d="M247.3,249.9l-0.4-0.3l-0.3,0.4c-0.6,1-0.7,2-0.8,3c-0.2,1.2-0.3,2.3-1.1,3.3c-1.6,1.8-4.5,1.7-6.4,0.8
			c-2.2-1-4-3-5.5-4.7l-1.3-1.5l0.6,1.9c1.6,5.4,5.9,10,11.2,12.1c1.3,0.5,2.5,0.8,3.6,0.8c1,0,1.9-0.2,2.7-0.7
			c1.8-1,2.8-3.3,2.6-5.7C251.8,256.3,249.6,251.8,247.3,249.9z"/>
		<path class="st2" d="M221.4,226.3l-1.3-1.5l0.6,1.9c1.6,5.4,5.9,10,11.2,12.1c1.3,0.5,2.5,0.8,3.6,0.8c1,0,1.9-0.2,2.7-0.7
			c1.8-1,2.8-3.3,2.6-5.7c-0.2-3.2-2.4-7.6-4.7-9.5l-0.4-0.3l-0.3,0.4c-0.6,1-0.7,2-0.8,3c-0.2,1.2-0.3,2.3-1.1,3.3
			c-1.6,1.8-4.5,1.7-6.4,0.8C224.7,230,223,228,221.4,226.3z"/>
		<path class="st2" d="M169.5,197.3c1.3,0.5,2.5,0.8,3.6,0.8c1,0,1.9-0.2,2.7-0.7c1.8-1,2.8-3.3,2.6-5.7c-0.2-3.2-2.4-7.6-4.7-9.5
			l-0.4-0.3l-0.3,0.4c-0.6,1-0.7,2-0.8,3c-0.2,1.2-0.3,2.3-1.1,3.3c-1.6,1.8-4.5,1.7-6.4,0.8c-2.2-1-4-3-5.5-4.7l-1.3-1.5l0.6,1.9
			C160,190.6,164.3,195.2,169.5,197.3z"/>
		<path class="st2" d="M199.5,184.1c1,0.4,2,0.6,2.8,0.6c0.8,0,1.5-0.2,2.1-0.5c1.4-0.8,2.2-2.6,2.1-4.5c-0.2-2.5-1.9-5.9-3.7-7.4
			l-0.4-0.3l-0.3,0.4c-0.5,0.8-0.6,1.6-0.7,2.4c-0.1,0.9-0.2,1.8-0.9,2.5c-1.2,1.4-3.4,1.3-4.9,0.6c-1.7-0.8-3.1-2.3-4.3-3.6
			l-1.3-1.5l0.6,1.9C192,178.9,195.4,182.5,199.5,184.1z"/>
		<path class="st2" d="M333.8,279.9c-0.2-2.5-1.9-5.9-3.7-7.4l-0.4-0.3l-0.3,0.4c-0.5,0.8-0.6,1.6-0.7,2.4c-0.1,0.9-0.2,1.8-0.9,2.5
			c-1.2,1.4-3.4,1.3-4.9,0.6c-1.7-0.8-3.1-2.3-4.3-3.6l-1.3-1.5l0.6,1.9c1.3,4.2,4.6,7.8,8.7,9.4c1,0.4,2,0.6,2.8,0.6
			c0.8,0,1.5-0.2,2.1-0.5C333.1,283.6,334,281.8,333.8,279.9z"/>
		<path class="st2" d="M242.6,202.7c1,0.4,2,0.6,2.8,0.6c0.8,0,1.5-0.2,2.1-0.5c1.4-0.8,2.2-2.6,2.1-4.5c-0.2-2.5-1.9-5.9-3.7-7.4
			l-0.4-0.3l-0.3,0.4c-0.5,0.8-0.6,1.6-0.7,2.4c-0.1,0.9-0.2,1.8-0.9,2.5c-1.2,1.4-3.4,1.3-4.9,0.6c-1.7-0.8-3.1-2.3-4.3-3.6
			l-1.3-1.5l0.6,1.9C235.2,197.4,238.5,201.1,242.6,202.7z"/>
		<path class="st2" d="M273.7,248.1c0.8,0,1.5-0.2,2.1-0.5c1.4-0.8,2.2-2.6,2.1-4.5c-0.2-2.5-1.9-5.9-3.7-7.4l-0.4-0.3l-0.3,0.4
			c-0.5,0.8-0.6,1.6-0.7,2.4c-0.1,0.9-0.2,1.8-0.9,2.5c-1.2,1.4-3.4,1.3-4.9,0.6c-1.7-0.8-3.1-2.3-4.3-3.6l-1.3-1.5l0.6,1.9
			c1.3,4.2,4.6,7.8,8.7,9.4C271.9,247.9,272.8,248.1,273.7,248.1z"/>
		<path class="st2" d="M279.6,259.1l-0.4-0.3l-0.3,0.4c-0.5,0.8-0.6,1.6-0.7,2.4c-0.1,0.9-0.2,1.8-0.9,2.5c-1.2,1.4-3.4,1.3-4.9,0.6
			c-1.7-0.8-3.1-2.3-4.3-3.6l-1.3-1.5l0.6,1.9c1.3,4.2,4.6,7.8,8.7,9.4c1,0.4,2,0.6,2.8,0.6c0.8,0,1.5-0.2,2.1-0.5
			c1.4-0.8,2.2-2.6,2.1-4.5C283.1,264.1,281.4,260.6,279.6,259.1z"/>
		<path class="st2" d="M251.5,412.2c-7-6.1-16.2-7.9-31.8-6.3c-10,1.1-11.8,0.7-18.6-0.7c-4.5-0.9-11.2-2.3-24.1-4
			c-16.7-2.2-27.6,1.4-33.8,4.9c-6.8,3.8-9.7,8.2-9.7,8.2l-0.7,1.1l25.3-8.6L181,406l17.4,5.4l17.5,1.4l0,0l18.6-4l16.4,6.2
			c1.4,0.8,2.3,1.2,2.9,1.2c0.4,0,0.5-0.2,0.5-0.2C254.6,415.4,254.6,414.9,251.5,412.2z"/>
		<path class="st2" d="M15.8,87l-0.2,0.1v2.7l15.8-5.6l15.4-9v-6.6L46,69.3C42.1,73,16.9,86.4,15.8,87z"/>
		<path class="st2" d="M162,394.3l17,1.2l-0.9-0.9c-15.5-14.2-32-1.1-32.2-1l-0.3,0.2l0.9,2.2L162,394.3z"/>
		<path class="st2" d="M72.2,25.1c0,0-5,1.2-7.1,0.3c-9.2-4.1-14.9-3-17.8,3.6c-1.2,2.7-1.1,5.2-1.1,7.1c0,0.6,0,1,0,1.5
			c-0.1,2.8-2.1,5.2-2.2,5.3l-1.2,1.5l1.7-0.8c1.5-0.7,3.4-1.2,4.2-0.9c3.5,1.6,6.7,2.4,9.4,2.4c1.4,0,2.8-0.2,3.9-0.7
			c2.6-1,4.6-3,5.9-6.1c0.6-1.3,0.8-2.8,1-4.3c0.1-0.8,0.2-1.6,0.4-2.2c0.9-3.7,3.2-6,3.3-6.1l1.2-1.1L72.2,25.1z M64.2,35.6
			c-0.4,1.8-1.5,3.4-3.1,4.4c-1.2,0.8-2.6,1.2-4,1.1c2.1-0.6,3.7-2.2,4.2-4.4c0-0.2,0.1-0.4,0.1-0.5l0.1-0.5L61,36
			c-0.7,0.5-1.6,0.6-2.5,0.4c-1.5-0.3-2.6-1.7-2.6-3.2c0-0.2,0-0.5,0.1-0.7c0.2-0.9,0.8-1.7,1.6-2.1l0.4-0.2l-0.4-0.2
			c-0.2-0.1-0.4-0.2-0.7-0.2c-2.8-0.6-5.5,0.8-6.6,3.4c0-0.2,0.1-0.4,0.1-0.7c0.7-3.2,3.6-5.6,6.9-5.6c0.5,0,1,0.1,1.5,0.2
			c1.8,0.4,3.4,1.5,4.4,3.1S64.6,33.8,64.2,35.6z"/>
	</g>
	<g>
		<path class="st3" d="M146.2,394c0,0,8.3-11.7,26.3-7.8c14.6,3.2,19.5-3.5,19.5-3.5h-9.1l-25.9-1.1l-8.8,5.7L146.2,394z"/>
		<path class="st3" d="M133.9,414.5c0,0,5.5-10.1,15.6-14.7c10.1-4.6,24.9-3.8,28.4-4.8l-22-1l-13.8,5.1l-7.2,8.4L133.9,414.5z"/>
		<path class="st3" d="M9.9,95.8c0,0-8.9-11.8-0.1-26.2s17.6-22.3,17.6-22.3l-7.1,2.2L4.6,67.8L2.8,87.4C2.8,87.4,6.2,93.4,9.9,95.8
			z"/>
		<path class="st3" d="M388.7,351.6c0,0,22.4,26.6,53.5,43.6h3.7c0,0-33.8-25.9-43-36.4L388.7,351.6z"/>
		<path class="st3" d="M201.1,121.8c0,0,48.1,12.1,88.5,40.5c21,14.7,41.5,34.9,58.3,56.7c23.6,30.7,39.9,61.8,39.9,61.8l0.1-4.8
			c0,0-22.6-44.5-34.2-57.2c-11.5-12.7-32.4-41.7-46.2-50.3c-13.8-8.6-17.8-12.7-17.7-13.3c0-0.3-18.4-14.2-40.6-22.5
			C227,124.5,201.1,121.8,201.1,121.8z"/>
		<path class="st3" d="M165.2,78.3c0,0,48.6,37.4,75.8,49.1h2.7l-72.6-50L165.2,78.3z"/>
		<path class="st3" d="M336.1,245.6c0,0,64.2,48.8,82.6,86.2l1.3-3.3c0,0-19.2-35.4-44.1-55.6S336.1,245.6,336.1,245.6z"/>
		<path class="st3" d="M361.5,293.5c0,0,72.6,56.4,93.1,83.7l2.1-4C456.8,373.2,396.5,308.3,361.5,293.5z"/>
		<path class="st3" d="M147.1,48.3l-3.6-3.8l6.7,0.8c-8.4-8.8-17.5-14.9-17.7-14.9l-3.8-2.5l6.9-1.5c-7-4.4-13.5-7.9-13.5-7.9
			l-2.6-1.4l4.1-3.1C102.7,1.8,75.3,0.3,54.7,10.5C40,17.6,31,29.5,29.2,44c3.3,1.6,13.5,6.1,24.2,5.5l3.1-0.2l-1.3,2.8
			c-0.1,0.1-5.3,11.7-6.1,20.6c5.1,0,17.7,1.5,26.7,15.3c4.1,6.3,7.1,29.6,9.8,50.1c0.6,4.5,1.1,8.9,1.7,12.8
			c1.7-12,4.5-20.7,4.8-21.4l1.3-3.9l2.1,3.5c3.2,5.2,7.1,7.9,9.9,9.3c-1.4-5.2-0.8-9.1-0.1-13.1c0.9-5.1,1.8-10.4-1.1-19.8
			l-2.6-8.4l5.8,6.5c3.5,3.9,7.7,7,10.6,8.9c-1.5-10.7,1-23,1.1-23.5l1.4-7.1l2.2,6.9c1.6,4.9,4.1,8.7,6,11.1
			c0.7-7.2,2.1-12.5,2.2-12.8l0.5-1.9l1.9,0.6c5,1.7,9.4,4.5,12.5,6.8c-2.5-7.3-7.2-12.7-7.3-12.8l-7.5-8.5L141,77
			c8.7,5,14.7,7.2,17.9,8.1c-1.6-5.6-4.1-9.2-4.1-9.2l-3-4.1l5,1.2c5.5,1.3,10.3,1.9,14.2,2l0.1-0.1c0,0,0.1,0.1,0.1,0.1
			c2.1,0.1,3.9,0.1,5.4,0C157.8,59.6,147.2,48.4,147.1,48.3z M72.6,25.8c0,0-2.3,2.3-3.3,6.1c-0.2,0.7-0.3,1.4-0.4,2.2
			c-0.2,1.4-0.4,2.9-1,4.3c-1.3,3.1-3.3,5.1-5.9,6.1c-1.2,0.4-2.5,0.7-3.9,0.7c-2.7,0-5.9-0.8-9.4-2.4c-0.8-0.4-2.7,0.2-4.2,0.9
			l-1.7,0.8l1.2-1.5c0.1-0.1,2.1-2.5,2.2-5.3c0-0.4,0-0.9,0-1.5c0-1.9-0.1-4.5,1.1-7.1c2.9-6.6,8.6-7.7,17.8-3.6
			c2.1,0.9,7.1-0.3,7.1-0.3l1.6-0.4L72.6,25.8z M58.8,27.1c-0.5-0.1-1-0.2-1.5-0.2c-3.3,0-6.2,2.3-6.9,5.6c-0.1,0.2-0.1,0.4-0.1,0.7
			c1.1-2.5,3.9-4,6.6-3.4c0.3,0.1,0.5,0.1,0.7,0.2l0.4,0.2l-0.4,0.2c-0.8,0.5-1.4,1.2-1.6,2.1c-0.1,0.2-0.1,0.5-0.1,0.7
			c0,1.5,1,2.9,2.6,3.2c0.9,0.2,1.8,0,2.5-0.4l0.4-0.3l-0.1,0.5c0,0.2-0.1,0.4-0.1,0.5c-0.5,2.2-2.1,3.8-4.2,4.4
			c1.4,0,2.8-0.3,4-1.1c1.6-1,2.7-2.6,3.1-4.4c0.4-1.8,0.1-3.7-0.9-5.3S60.6,27.6,58.8,27.1z"/>
		<path class="st3" d="M424.9,430.7c-4.9-5.9-9.7-11.9-14.1-18.5c5,3.1,9.4,7.1,13.4,11.4c8.3,9.2,16.1,18.8,23.5,28.8
			c-13.2-34-37.5-59.9-42.9-65.3c-30.8-12-60.5-28.2-84.4-50.4c-6.8-0.8-13.4-2.4-19.8-4.6c12.9,18,57.6,78.4,98,105.8
			c-7.7-8.2-14.9-16.8-21.6-25.8c-3.3-4.6-6.3-9.4-8.2-14.8c4.2,3.9,7.8,8.2,11.2,12.5c10.3,13.1,21.6,25.5,33.8,36.7
			c8.1,7.5,16.7,14.5,25.9,20.8c7.1,4.9,14.5,9.4,22.2,13.2C450.1,464.1,437.3,446.1,424.9,430.7z M421.2,448.5
			c-8-7.7-16.3-15.3-22.8-24.4c8.8,6.8,16.6,14.6,25.1,21.9c7.2,6.7,18,15.2,24.3,22.7C437.7,463.7,429.5,456,421.2,448.5z"/>
		<path class="st3" d="M64.4,35.7c-0.9,3.9-4.8,6.4-8.7,5.5c-0.1,0-0.2,0-0.2-0.1c2.6,0.1,5-1.7,5.6-4.4c0-0.2,0.1-0.3,0.1-0.5
			c-0.8,0.5-1.7,0.7-2.7,0.5c-1.9-0.4-3.1-2.3-2.7-4.2c0.2-1,0.9-1.8,1.7-2.3c-0.2-0.1-0.5-0.2-0.7-0.2c-3-0.7-6,1.2-6.7,4.3
			c0,0.2-0.1,0.4-0.1,0.5c-0.1-0.8-0.1-1.6,0.1-2.4c0.8-3.4,3.8-5.7,7.1-5.7c0.5,0,1.1,0.1,1.6,0.2C62.8,27.8,65.3,31.7,64.4,35.7z"
			/>
		<path class="st3" d="M89.9,165.9c0,0,11.8,65.6,48.5,103.4l0.8-13.6c0,0,24.5,38,29.1,41.8c4.6,3.8-1.8-15.8-1.8-15.8
			s18,51.6,41.7,64.2l4.4-18.3c0,0,6.2,17.6,17.9,23.6c0,0,4.7-11.7,1-22.4l5.6,4.6c0,0-0.3,20.6-3.6,22.9c0,0-11.8-2.1-19.6-20
			l-2.3,16.3c0,0-22.3-12-37.8-44c0,0-13.9-8.4-30.4-40.9v11.8c0,0-22.1-18.3-35.2-46.7S90.2,175,89.9,165.9z"/>
		<path class="st3" d="M160.9,125.1c0,0-33.8,4.8-36.8,44.8c-2.1,28,20.9,84.7,142,146.4l3.6-1.1c0,0-62.2-9.1-126.1-83.8
			c-22.2-25.9-25.6-47-24.6-62.8C121,139.1,147.9,126.5,160.9,125.1z"/>
		<path class="st3" d="M231.4,277.5c0,0,41.1,40.6,83,51.6l5.2,5.4C319.5,334.5,261.7,322.5,231.4,277.5z"/>
	</g>
	<path class="st4" d="M21.5,57.1c2.9,1,5.7-1,5.7-4.1C24.2,52,21.5,54,21.5,57.1z M390.4,293.9c-8-8.5-16-17.2-25.8-23.6
		c7.6,8.8,15.8,17,23.3,25.9c5.7,6.5,11.3,13.3,17,19.7c2,2.1,4,4.3,6.2,6.2C406,311.5,398.1,302.8,390.4,293.9z M401.1,374
		c-6.9-3.4-15.5-7.4-22.4-10.7c-9-4.3-17.7-9.1-26.9-13.1c10.5,8.3,22.5,14.3,34.3,20.5c12,5.8,24,11.8,37.1,14.8
		C416.3,380.8,408.5,377.5,401.1,374z M130.2,254.1c-2.3-3.6-4.5-7.1-6.7-10.7c-4.7-7.2-8.4-14.7-13.4-21.7
		c1.5,6.4,4.5,12.1,7.4,17.8c3,5.7,6.3,11.2,10.1,16.4c2.5,3.5,5.3,6.8,8.9,9.4C134.8,261.2,132.5,257.6,130.2,254.1z M198.4,332.7
		c-5-6.2-9.6-12.8-13.8-19.5c-3-4.9-5.7-9.9-8.8-14.8c1.1,5.7,3.7,11.1,6.4,16.2c3.5,6.7,7.8,13.1,12.7,18.8c2.7,3,5.5,6.1,9,8.4
		c1,0.7,2,1.3,3,1.9C204.3,339.6,201.2,336.2,198.4,332.7z M423.4,446.1c-8.4-7.2-16.2-15-25.1-21.9c6.5,9.1,14.8,16.7,22.8,24.4
		c8.3,7.4,16.5,15.1,26.6,20.2C441.4,461.2,430.7,452.7,423.4,446.1z M297.5,320c-7.9-4.6-16-9.2-23.7-14.2
		c-7.8-5-15.1-10.5-22.8-15.7c9.5,12.4,37.8,31.3,53.1,34.3C302,322.7,299.8,321.4,297.5,320z M212.1,279.7
		c-4.8-3.4-9.7-7-14.4-10.6c-12.8-9.5-24.9-20-37.6-29.7c9.2,10.7,20,19.7,30.8,28.7c9.3,7.5,19.2,14.7,29.6,20.8
		c2.4,1.5,5.5,3,8,4.2c2.7,1.3,5.6,2.3,8.5,3.3C228.7,290.6,220.2,285.3,212.1,279.7z M69.5,26.9c-2.3,0.8-4.6,0.4-6.1-0.2
		c-1.1-1-2.5-1.7-4-2C54.2,23.5,49,26.8,47.9,32c-0.4,1.8-0.3,3.6,0.3,5.2c-0.2,2.4-1.8,3.8-1.8,3.8c1.6-0.7,3.1-0.5,4.1-0.1
		c1.2,1.2,2.8,2.2,4.7,2.6c0.7,0.2,1.4,0.2,2.1,0.2c4.4,0,8.4-3,9.4-7.5c0.3-1.4,0.3-2.8,0-4.2C67.1,28.8,69.5,26.9,69.5,26.9z
		 M64.4,35.7c-0.9,3.9-4.8,6.4-8.7,5.5c-0.1,0-0.2,0-0.2-0.1c2.6,0.1,5-1.7,5.6-4.4c0-0.2,0.1-0.3,0.1-0.5c-0.8,0.5-1.7,0.7-2.7,0.5
		c-1.9-0.4-3.1-2.3-2.7-4.2c0.2-1,0.9-1.8,1.7-2.3c-0.2-0.1-0.5-0.2-0.7-0.2c-3-0.7-6,1.2-6.7,4.3c0,0.2-0.1,0.4-0.1,0.5
		c-0.1-0.8-0.1-1.6,0.1-2.4c0.8-3.4,3.8-5.7,7.1-5.7c0.5,0,1.1,0.1,1.6,0.2C62.8,27.8,65.3,31.7,64.4,35.7z M423.4,446.1
		c-8.4-7.2-16.2-15-25.1-21.9c6.5,9.1,14.8,16.7,22.8,24.4c8.3,7.4,16.5,15.1,26.6,20.2C441.4,461.2,430.7,452.7,423.4,446.1z
		 M401.1,374c-6.9-3.4-15.5-7.4-22.4-10.7c-9-4.3-17.7-9.1-26.9-13.1c10.5,8.3,22.5,14.3,34.3,20.5c12,5.8,24,11.8,37.1,14.8
		C416.3,380.8,408.5,377.5,401.1,374z M390.4,293.9c-8-8.5-16-17.2-25.8-23.6c7.6,8.8,15.8,17,23.3,25.9c5.7,6.5,11.3,13.3,17,19.7
		c2,2.1,4,4.3,6.2,6.2C406,311.5,398.1,302.8,390.4,293.9z M297.5,320c-7.9-4.6-16-9.2-23.7-14.2c-7.8-5-15.1-10.5-22.8-15.7
		c9.5,12.4,37.8,31.3,53.1,34.3C302,322.7,299.8,321.4,297.5,320z M212.1,279.7c-4.8-3.4-9.7-7-14.4-10.6
		c-12.8-9.5-24.9-20-37.6-29.7c9.2,10.7,20,19.7,30.8,28.7c9.3,7.5,19.2,14.7,29.6,20.8c2.4,1.5,5.5,3,8,4.2
		c2.7,1.3,5.6,2.3,8.5,3.3C228.7,290.6,220.2,285.3,212.1,279.7z M198.4,332.7c-5-6.2-9.6-12.8-13.8-19.5c-3-4.9-5.7-9.9-8.8-14.8
		c1.1,5.7,3.7,11.1,6.4,16.2c3.5,6.7,7.8,13.1,12.7,18.8c2.7,3,5.5,6.1,9,8.4c1,0.7,2,1.3,3,1.9
		C204.3,339.6,201.2,336.2,198.4,332.7z M130.2,254.1c-2.3-3.6-4.5-7.1-6.7-10.7c-4.7-7.2-8.4-14.7-13.4-21.7
		c1.5,6.4,4.5,12.1,7.4,17.8c3,5.7,6.3,11.2,10.1,16.4c2.5,3.5,5.3,6.8,8.9,9.4C134.8,261.2,132.5,257.6,130.2,254.1z M69.5,26.9
		c-2.3,0.8-4.6,0.4-6.1-0.2c-1.1-1-2.5-1.7-4-2C54.2,23.5,49,26.8,47.9,32c-0.4,1.8-0.3,3.6,0.3,5.2c-0.2,2.4-1.8,3.8-1.8,3.8
		c1.6-0.7,3.1-0.5,4.1-0.1c1.2,1.2,2.8,2.2,4.7,2.6c0.7,0.2,1.4,0.2,2.1,0.2c4.4,0,8.4-3,9.4-7.5c0.3-1.4,0.3-2.8,0-4.2
		C67.1,28.8,69.5,26.9,69.5,26.9z M64.4,35.7c-0.9,3.9-4.8,6.4-8.7,5.5c-0.1,0-0.2,0-0.2-0.1c2.6,0.1,5-1.7,5.6-4.4
		c0-0.2,0.1-0.3,0.1-0.5c-0.8,0.5-1.7,0.7-2.7,0.5c-1.9-0.4-3.1-2.3-2.7-4.2c0.2-1,0.9-1.8,1.7-2.3c-0.2-0.1-0.5-0.2-0.7-0.2
		c-3-0.7-6,1.2-6.7,4.3c0,0.2-0.1,0.4-0.1,0.5c-0.1-0.8-0.1-1.6,0.1-2.4c0.8-3.4,3.8-5.7,7.1-5.7c0.5,0,1.1,0.1,1.6,0.2
		C62.8,27.8,65.3,31.7,64.4,35.7z M21.5,57.1c2.9,1,5.7-1,5.7-4.1C24.2,52,21.5,54,21.5,57.1z M21.5,57.1c2.9,1,5.7-1,5.7-4.1
		C24.2,52,21.5,54,21.5,57.1z M69.5,26.9c-2.3,0.8-4.6,0.4-6.1-0.2c-1.1-1-2.5-1.7-4-2C54.2,23.5,49,26.8,47.9,32
		c-0.4,1.8-0.3,3.6,0.3,5.2c-0.2,2.4-1.8,3.8-1.8,3.8c1.6-0.7,3.1-0.5,4.1-0.1c1.2,1.2,2.8,2.2,4.7,2.6c0.7,0.2,1.4,0.2,2.1,0.2
		c4.4,0,8.4-3,9.4-7.5c0.3-1.4,0.3-2.8,0-4.2C67.1,28.8,69.5,26.9,69.5,26.9z M64.4,35.7c-0.9,3.9-4.8,6.4-8.7,5.5
		c-0.1,0-0.2,0-0.2-0.1c2.6,0.1,5-1.7,5.6-4.4c0-0.2,0.1-0.3,0.1-0.5c-0.8,0.5-1.7,0.7-2.7,0.5c-1.9-0.4-3.1-2.3-2.7-4.2
		c0.2-1,0.9-1.8,1.7-2.3c-0.2-0.1-0.5-0.2-0.7-0.2c-3-0.7-6,1.2-6.7,4.3c0,0.2-0.1,0.4-0.1,0.5c-0.1-0.8-0.1-1.6,0.1-2.4
		c0.8-3.4,3.8-5.7,7.1-5.7c0.5,0,1.1,0.1,1.6,0.2C62.8,27.8,65.3,31.7,64.4,35.7z M130.2,254.1c-2.3-3.6-4.5-7.1-6.7-10.7
		c-4.7-7.2-8.4-14.7-13.4-21.7c1.5,6.4,4.5,12.1,7.4,17.8c3,5.7,6.3,11.2,10.1,16.4c2.5,3.5,5.3,6.8,8.9,9.4
		C134.8,261.2,132.5,257.6,130.2,254.1z M198.4,332.7c-5-6.2-9.6-12.8-13.8-19.5c-3-4.9-5.7-9.9-8.8-14.8c1.1,5.7,3.7,11.1,6.4,16.2
		c3.5,6.7,7.8,13.1,12.7,18.8c2.7,3,5.5,6.1,9,8.4c1,0.7,2,1.3,3,1.9C204.3,339.6,201.2,336.2,198.4,332.7z M212.1,279.7
		c-4.8-3.4-9.7-7-14.4-10.6c-12.8-9.5-24.9-20-37.6-29.7c9.2,10.7,20,19.7,30.8,28.7c9.3,7.5,19.2,14.7,29.6,20.8
		c2.4,1.5,5.5,3,8,4.2c2.7,1.3,5.6,2.3,8.5,3.3C228.7,290.6,220.2,285.3,212.1,279.7z M297.5,320c-7.9-4.6-16-9.2-23.7-14.2
		c-7.8-5-15.1-10.5-22.8-15.7c9.5,12.4,37.8,31.3,53.1,34.3C302,322.7,299.8,321.4,297.5,320z M390.4,293.9
		c-8-8.5-16-17.2-25.8-23.6c7.6,8.8,15.8,17,23.3,25.9c5.7,6.5,11.3,13.3,17,19.7c2,2.1,4,4.3,6.2,6.2
		C406,311.5,398.1,302.8,390.4,293.9z M401.1,374c-6.9-3.4-15.5-7.4-22.4-10.7c-9-4.3-17.7-9.1-26.9-13.1
		c10.5,8.3,22.5,14.3,34.3,20.5c12,5.8,24,11.8,37.1,14.8C416.3,380.8,408.5,377.5,401.1,374z M423.4,446.1
		c-8.4-7.2-16.2-15-25.1-21.9c6.5,9.1,14.8,16.7,22.8,24.4c8.3,7.4,16.5,15.1,26.6,20.2C441.4,461.2,430.7,452.7,423.4,446.1z
		 M423.4,446.1c-8.4-7.2-16.2-15-25.1-21.9c6.5,9.1,14.8,16.7,22.8,24.4c8.3,7.4,16.5,15.1,26.6,20.2
		C441.4,461.2,430.7,452.7,423.4,446.1z M401.1,374c-6.9-3.4-15.5-7.4-22.4-10.7c-9-4.3-17.7-9.1-26.9-13.1
		c10.5,8.3,22.5,14.3,34.3,20.5c12,5.8,24,11.8,37.1,14.8C416.3,380.8,408.5,377.5,401.1,374z M390.4,293.9
		c-8-8.5-16-17.2-25.8-23.6c7.6,8.8,15.8,17,23.3,25.9c5.7,6.5,11.3,13.3,17,19.7c2,2.1,4,4.3,6.2,6.2
		C406,311.5,398.1,302.8,390.4,293.9z M297.5,320c-7.9-4.6-16-9.2-23.7-14.2c-7.8-5-15.1-10.5-22.8-15.7
		c9.5,12.4,37.8,31.3,53.1,34.3C302,322.7,299.8,321.4,297.5,320z M212.1,279.7c-4.8-3.4-9.7-7-14.4-10.6
		c-12.8-9.5-24.9-20-37.6-29.7c9.2,10.7,20,19.7,30.8,28.7c9.3,7.5,19.2,14.7,29.6,20.8c2.4,1.5,5.5,3,8,4.2
		c2.7,1.3,5.6,2.3,8.5,3.3C228.7,290.6,220.2,285.3,212.1,279.7z M198.4,332.7c-5-6.2-9.6-12.8-13.8-19.5c-3-4.9-5.7-9.9-8.8-14.8
		c1.1,5.7,3.7,11.1,6.4,16.2c3.5,6.7,7.8,13.1,12.7,18.8c2.7,3,5.5,6.1,9,8.4c1,0.7,2,1.3,3,1.9
		C204.3,339.6,201.2,336.2,198.4,332.7z M130.2,254.1c-2.3-3.6-4.5-7.1-6.7-10.7c-4.7-7.2-8.4-14.7-13.4-21.7
		c1.5,6.4,4.5,12.1,7.4,17.8c3,5.7,6.3,11.2,10.1,16.4c2.5,3.5,5.3,6.8,8.9,9.4C134.8,261.2,132.5,257.6,130.2,254.1z M69.5,26.9
		c-2.3,0.8-4.6,0.4-6.1-0.2c-1.1-1-2.5-1.7-4-2C54.2,23.5,49,26.8,47.9,32c-0.4,1.8-0.3,3.6,0.3,5.2c-0.2,2.4-1.8,3.8-1.8,3.8
		c1.6-0.7,3.1-0.5,4.1-0.1c1.2,1.2,2.8,2.2,4.7,2.6c0.7,0.2,1.4,0.2,2.1,0.2c4.4,0,8.4-3,9.4-7.5c0.3-1.4,0.3-2.8,0-4.2
		C67.1,28.8,69.5,26.9,69.5,26.9z M64.4,35.7c-0.9,3.9-4.8,6.4-8.7,5.5c-0.1,0-0.2,0-0.2-0.1c2.6,0.1,5-1.7,5.6-4.4
		c0-0.2,0.1-0.3,0.1-0.5c-0.8,0.5-1.7,0.7-2.7,0.5c-1.9-0.4-3.1-2.3-2.7-4.2c0.2-1,0.9-1.8,1.7-2.3c-0.2-0.1-0.5-0.2-0.7-0.2
		c-3-0.7-6,1.2-6.7,4.3c0,0.2-0.1,0.4-0.1,0.5c-0.1-0.8-0.1-1.6,0.1-2.4c0.8-3.4,3.8-5.7,7.1-5.7c0.5,0,1.1,0.1,1.6,0.2
		C62.8,27.8,65.3,31.7,64.4,35.7z M21.5,57.1c2.9,1,5.7-1,5.7-4.1C24.2,52,21.5,54,21.5,57.1z M21.5,57.1c2.9,1,5.7-1,5.7-4.1
		C24.2,52,21.5,54,21.5,57.1z M69.5,26.9c-2.3,0.8-4.6,0.4-6.1-0.2c-1.1-1-2.5-1.7-4-2C54.2,23.5,49,26.8,47.9,32
		c-0.4,1.8-0.3,3.6,0.3,5.2c-0.2,2.4-1.8,3.8-1.8,3.8c1.6-0.7,3.1-0.5,4.1-0.1c1.2,1.2,2.8,2.2,4.7,2.6c0.7,0.2,1.4,0.2,2.1,0.2
		c4.4,0,8.4-3,9.4-7.5c0.3-1.4,0.3-2.8,0-4.2C67.1,28.8,69.5,26.9,69.5,26.9z M64.4,35.7c-0.9,3.9-4.8,6.4-8.7,5.5
		c-0.1,0-0.2,0-0.2-0.1c2.6,0.1,5-1.7,5.6-4.4c0-0.2,0.1-0.3,0.1-0.5c-0.8,0.5-1.7,0.7-2.7,0.5c-1.9-0.4-3.1-2.3-2.7-4.2
		c0.2-1,0.9-1.8,1.7-2.3c-0.2-0.1-0.5-0.2-0.7-0.2c-3-0.7-6,1.2-6.7,4.3c0,0.2-0.1,0.4-0.1,0.5c-0.1-0.8-0.1-1.6,0.1-2.4
		c0.8-3.4,3.8-5.7,7.1-5.7c0.5,0,1.1,0.1,1.6,0.2C62.8,27.8,65.3,31.7,64.4,35.7z M130.2,254.1c-2.3-3.6-4.5-7.1-6.7-10.7
		c-4.7-7.2-8.4-14.7-13.4-21.7c1.5,6.4,4.5,12.1,7.4,17.8c3,5.7,6.3,11.2,10.1,16.4c2.5,3.5,5.3,6.8,8.9,9.4
		C134.8,261.2,132.5,257.6,130.2,254.1z M198.4,332.7c-5-6.2-9.6-12.8-13.8-19.5c-3-4.9-5.7-9.9-8.8-14.8c1.1,5.7,3.7,11.1,6.4,16.2
		c3.5,6.7,7.8,13.1,12.7,18.8c2.7,3,5.5,6.1,9,8.4c1,0.7,2,1.3,3,1.9C204.3,339.6,201.2,336.2,198.4,332.7z M212.1,279.7
		c-4.8-3.4-9.7-7-14.4-10.6c-12.8-9.5-24.9-20-37.6-29.7c9.2,10.7,20,19.7,30.8,28.7c9.3,7.5,19.2,14.7,29.6,20.8
		c2.4,1.5,5.5,3,8,4.2c2.7,1.3,5.6,2.3,8.5,3.3C228.7,290.6,220.2,285.3,212.1,279.7z M297.5,320c-7.9-4.6-16-9.2-23.7-14.2
		c-7.8-5-15.1-10.5-22.8-15.7c9.5,12.4,37.8,31.3,53.1,34.3C302,322.7,299.8,321.4,297.5,320z M390.4,293.9
		c-8-8.5-16-17.2-25.8-23.6c7.6,8.8,15.8,17,23.3,25.9c5.7,6.5,11.3,13.3,17,19.7c2,2.1,4,4.3,6.2,6.2
		C406,311.5,398.1,302.8,390.4,293.9z M401.1,374c-6.9-3.4-15.5-7.4-22.4-10.7c-9-4.3-17.7-9.1-26.9-13.1
		c10.5,8.3,22.5,14.3,34.3,20.5c12,5.8,24,11.8,37.1,14.8C416.3,380.8,408.5,377.5,401.1,374z M423.4,446.1
		c-8.4-7.2-16.2-15-25.1-21.9c6.5,9.1,14.8,16.7,22.8,24.4c8.3,7.4,16.5,15.1,26.6,20.2C441.4,461.2,430.7,452.7,423.4,446.1z
		 M423.4,446.1c-8.4-7.2-16.2-15-25.1-21.9c6.5,9.1,14.8,16.7,22.8,24.4c8.3,7.4,16.5,15.1,26.6,20.2
		C441.4,461.2,430.7,452.7,423.4,446.1z M401.1,374c-6.9-3.4-15.5-7.4-22.4-10.7c-9-4.3-17.7-9.1-26.9-13.1
		c10.5,8.3,22.5,14.3,34.3,20.5c12,5.8,24,11.8,37.1,14.8C416.3,380.8,408.5,377.5,401.1,374z M390.4,293.9
		c-8-8.5-16-17.2-25.8-23.6c7.6,8.8,15.8,17,23.3,25.9c5.7,6.5,11.3,13.3,17,19.7c2,2.1,4,4.3,6.2,6.2
		C406,311.5,398.1,302.8,390.4,293.9z M297.5,320c-7.9-4.6-16-9.2-23.7-14.2c-7.8-5-15.1-10.5-22.8-15.7
		c9.5,12.4,37.8,31.3,53.1,34.3C302,322.7,299.8,321.4,297.5,320z M212.1,279.7c-4.8-3.4-9.7-7-14.4-10.6
		c-12.8-9.5-24.9-20-37.6-29.7c9.2,10.7,20,19.7,30.8,28.7c9.3,7.5,19.2,14.7,29.6,20.8c2.4,1.5,5.5,3,8,4.2
		c2.7,1.3,5.6,2.3,8.5,3.3C228.7,290.6,220.2,285.3,212.1,279.7z M198.4,332.7c-5-6.2-9.6-12.8-13.8-19.5c-3-4.9-5.7-9.9-8.8-14.8
		c1.1,5.7,3.7,11.1,6.4,16.2c3.5,6.7,7.8,13.1,12.7,18.8c2.7,3,5.5,6.1,9,8.4c1,0.7,2,1.3,3,1.9
		C204.3,339.6,201.2,336.2,198.4,332.7z M130.2,254.1c-2.3-3.6-4.5-7.1-6.7-10.7c-4.7-7.2-8.4-14.7-13.4-21.7
		c1.5,6.4,4.5,12.1,7.4,17.8c3,5.7,6.3,11.2,10.1,16.4c2.5,3.5,5.3,6.8,8.9,9.4C134.8,261.2,132.5,257.6,130.2,254.1z M69.5,26.9
		c-2.3,0.8-4.6,0.4-6.1-0.2c-1.1-1-2.5-1.7-4-2C54.2,23.5,49,26.8,47.9,32c-0.4,1.8-0.3,3.6,0.3,5.2c-0.2,2.4-1.8,3.8-1.8,3.8
		c1.6-0.7,3.1-0.5,4.1-0.1c1.2,1.2,2.8,2.2,4.7,2.6c0.7,0.2,1.4,0.2,2.1,0.2c4.4,0,8.4-3,9.4-7.5c0.3-1.4,0.3-2.8,0-4.2
		C67.1,28.8,69.5,26.9,69.5,26.9z M64.4,35.7c-0.9,3.9-4.8,6.4-8.7,5.5c-0.1,0-0.2,0-0.2-0.1c2.6,0.1,5-1.7,5.6-4.4
		c0-0.2,0.1-0.3,0.1-0.5c-0.8,0.5-1.7,0.7-2.7,0.5c-1.9-0.4-3.1-2.3-2.7-4.2c0.2-1,0.9-1.8,1.7-2.3c-0.2-0.1-0.5-0.2-0.7-0.2
		c-3-0.7-6,1.2-6.7,4.3c0,0.2-0.1,0.4-0.1,0.5c-0.1-0.8-0.1-1.6,0.1-2.4c0.8-3.4,3.8-5.7,7.1-5.7c0.5,0,1.1,0.1,1.6,0.2
		C62.8,27.8,65.3,31.7,64.4,35.7z M21.5,57.1c2.9,1,5.7-1,5.7-4.1C24.2,52,21.5,54,21.5,57.1z M21.5,57.1c2.9,1,5.7-1,5.7-4.1
		C24.2,52,21.5,54,21.5,57.1z M69.5,26.9c-2.3,0.8-4.6,0.4-6.1-0.2c-1.1-1-2.5-1.7-4-2C54.2,23.5,49,26.8,47.9,32
		c-0.4,1.8-0.3,3.6,0.3,5.2c-0.2,2.4-1.8,3.8-1.8,3.8c1.6-0.7,3.1-0.5,4.1-0.1c1.2,1.2,2.8,2.2,4.7,2.6c0.7,0.2,1.4,0.2,2.1,0.2
		c4.4,0,8.4-3,9.4-7.5c0.3-1.4,0.3-2.8,0-4.2C67.1,28.8,69.5,26.9,69.5,26.9z M64.4,35.7c-0.9,3.9-4.8,6.4-8.7,5.5
		c-0.1,0-0.2,0-0.2-0.1c2.6,0.1,5-1.7,5.6-4.4c0-0.2,0.1-0.3,0.1-0.5c-0.8,0.5-1.7,0.7-2.7,0.5c-1.9-0.4-3.1-2.3-2.7-4.2
		c0.2-1,0.9-1.8,1.7-2.3c-0.2-0.1-0.5-0.2-0.7-0.2c-3-0.7-6,1.2-6.7,4.3c0,0.2-0.1,0.4-0.1,0.5c-0.1-0.8-0.1-1.6,0.1-2.4
		c0.8-3.4,3.8-5.7,7.1-5.7c0.5,0,1.1,0.1,1.6,0.2C62.8,27.8,65.3,31.7,64.4,35.7z M130.2,254.1c-2.3-3.6-4.5-7.1-6.7-10.7
		c-4.7-7.2-8.4-14.7-13.4-21.7c1.5,6.4,4.5,12.1,7.4,17.8c3,5.7,6.3,11.2,10.1,16.4c2.5,3.5,5.3,6.8,8.9,9.4
		C134.8,261.2,132.5,257.6,130.2,254.1z M198.4,332.7c-5-6.2-9.6-12.8-13.8-19.5c-3-4.9-5.7-9.9-8.8-14.8c1.1,5.7,3.7,11.1,6.4,16.2
		c3.5,6.7,7.8,13.1,12.7,18.8c2.7,3,5.5,6.1,9,8.4c1,0.7,2,1.3,3,1.9C204.3,339.6,201.2,336.2,198.4,332.7z M212.1,279.7
		c-4.8-3.4-9.7-7-14.4-10.6c-12.8-9.5-24.9-20-37.6-29.7c9.2,10.7,20,19.7,30.8,28.7c9.3,7.5,19.2,14.7,29.6,20.8
		c2.4,1.5,5.5,3,8,4.2c2.7,1.3,5.6,2.3,8.5,3.3C228.7,290.6,220.2,285.3,212.1,279.7z M297.5,320c-7.9-4.6-16-9.2-23.7-14.2
		c-7.8-5-15.1-10.5-22.8-15.7c9.5,12.4,37.8,31.3,53.1,34.3C302,322.7,299.8,321.4,297.5,320z M390.4,293.9
		c-8-8.5-16-17.2-25.8-23.6c7.6,8.8,15.8,17,23.3,25.9c5.7,6.5,11.3,13.3,17,19.7c2,2.1,4,4.3,6.2,6.2
		C406,311.5,398.1,302.8,390.4,293.9z M401.1,374c-6.9-3.4-15.5-7.4-22.4-10.7c-9-4.3-17.7-9.1-26.9-13.1
		c10.5,8.3,22.5,14.3,34.3,20.5c12,5.8,24,11.8,37.1,14.8C416.3,380.8,408.5,377.5,401.1,374z M423.4,446.1
		c-8.4-7.2-16.2-15-25.1-21.9c6.5,9.1,14.8,16.7,22.8,24.4c8.3,7.4,16.5,15.1,26.6,20.2C441.4,461.2,430.7,452.7,423.4,446.1z
		 M423.4,446.1c-8.4-7.2-16.2-15-25.1-21.9c6.5,9.1,14.8,16.7,22.8,24.4c8.3,7.4,16.5,15.1,26.6,20.2
		C441.4,461.2,430.7,452.7,423.4,446.1z M401.1,374c-6.9-3.4-15.5-7.4-22.4-10.7c-9-4.3-17.7-9.1-26.9-13.1
		c10.5,8.3,22.5,14.3,34.3,20.5c12,5.8,24,11.8,37.1,14.8C416.3,380.8,408.5,377.5,401.1,374z M405,315.9c2,2.1,4,4.3,6.2,6.2
		c-5.2-10.6-13.1-19.4-20.8-28.2c-8-8.5-16-17.2-25.8-23.6c7.6,8.8,15.8,17,23.3,25.9C393.6,302.7,399.2,309.5,405,315.9z
		 M273.8,305.8c-7.8-5-15.1-10.5-22.8-15.7c9.5,12.4,37.8,31.3,53.1,34.3c-2.1-1.7-4.4-3-6.6-4.5
		C289.6,315.4,281.6,310.8,273.8,305.8z M197.7,269.1c-12.8-9.5-24.9-20-37.6-29.7c9.2,10.7,20,19.7,30.8,28.7
		c9.3,7.5,19.2,14.7,29.6,20.8c2.4,1.5,5.5,3,8,4.2c2.7,1.3,5.6,2.3,8.5,3.3c-8.3-5.6-16.7-10.9-24.9-16.6
		C207.3,276.2,202.4,272.6,197.7,269.1z M184.6,313.2c-3-4.9-5.7-9.9-8.8-14.8c1.1,5.7,3.7,11.1,6.4,16.2
		c3.5,6.7,7.8,13.1,12.7,18.8c2.7,3,5.5,6.1,9,8.4c1,0.7,2,1.3,3,1.9c-2.6-4-5.6-7.4-8.4-11C193.4,326.5,188.8,319.9,184.6,313.2z
		 M123.5,243.4c-4.7-7.2-8.4-14.7-13.4-21.7c1.5,6.4,4.5,12.1,7.4,17.8c3,5.7,6.3,11.2,10.1,16.4c2.5,3.5,5.3,6.8,8.9,9.4
		c-1.7-4.1-4-7.6-6.3-11.2C128,250.5,125.7,246.9,123.5,243.4z M69.5,26.9c-2.3,0.8-4.6,0.4-6.1-0.2c-1.1-1-2.5-1.7-4-2
		C54.2,23.5,49,26.8,47.9,32c-0.4,1.8-0.3,3.6,0.3,5.2c-0.2,2.4-1.8,3.8-1.8,3.8c1.6-0.7,3.1-0.5,4.1-0.1c1.2,1.2,2.8,2.2,4.7,2.6
		c0.7,0.2,1.4,0.2,2.1,0.2c4.4,0,8.4-3,9.4-7.5c0.3-1.4,0.3-2.8,0-4.2C67.1,28.8,69.5,26.9,69.5,26.9z M64.4,35.7
		c-0.9,3.9-4.8,6.4-8.7,5.5c-0.1,0-0.2,0-0.2-0.1c2.6,0.1,5-1.7,5.6-4.4c0-0.2,0.1-0.3,0.1-0.5c-0.8,0.5-1.7,0.7-2.7,0.5
		c-1.9-0.4-3.1-2.3-2.7-4.2c0.2-1,0.9-1.8,1.7-2.3c-0.2-0.1-0.5-0.2-0.7-0.2c-3-0.7-6,1.2-6.7,4.3c0,0.2-0.1,0.4-0.1,0.5
		c-0.1-0.8-0.1-1.6,0.1-2.4c0.8-3.4,3.8-5.7,7.1-5.7c0.5,0,1.1,0.1,1.6,0.2C62.8,27.8,65.3,31.7,64.4,35.7z M21.5,57.1
		c2.9,1,5.7-1,5.7-4.1C24.2,52,21.5,54,21.5,57.1z M455.3,463c-9.7-33.3-31.6-60.8-42.5-73c9.2,3.3,18.4,6.3,27.6,9
		c6.7,1.9,15.7,3.9,22.6,5.4l-9.3-5.9c-10.2-6.5-19.7-14.4-29-22.1c-5-4.2-10-8.5-14.9-12.8c6.5,3.2,13.2,6.1,19.9,8.8
		c10.7,4.4,21.8,8,33,11.2c-8-16.7-20.4-30.8-33.9-43.2c-1.1-1.1-2.3-2.1-3.4-3.1c-0.5-1.4-1.1-3.1-1.4-3.9
		c-6.5-16.4-16.3-31.4-28.1-44.5c-20.6-45.7-51.8-102.1-111.9-140.3l0,0c-1.5-1-3.1-2.1-4.6-3c-2.6-1.8-6.7-4.2-9.5-5.7
		c-1.4-0.8-3.5-1.9-4.9-2.6c-0.6-0.3-1.2-0.6-1.8-0.9c-39-23-74-48.2-86.9-57.7c3.3-0.1,5.2-0.5,5.4-0.5l4-0.8l-3.1-2.5
		c-13.8-11.2-23.7-20.5-28.7-25.4l5.9,0.7l-3.1-3.7c-6.3-7.6-13.8-13.6-18.2-16.8l7.1-1.5l-3.8-2.5c-5.7-3.8-11.8-7.3-15.1-9.2
		l3.8-2.8l-2.3-1.5C105.7-1.9,75.6-4,53,7.1c-16,7.8-25.8,21-27.6,37C8.5,56.6-0.1,69,0,81c0.1,13,10.3,20.5,10.8,20.8l3.9,2.7
		l-0.9-4.7c-0.1-0.3-0.6-3.4,0.7-8.2c16.2-3.7,30.7-13.2,33.4-15c2.6-0.2,15.7-0.5,24.9,13.5c3.7,5.6,6.9,29.4,9.2,48.5
		c2.8,23.2,6.4,38.5,9.2,51.2c5.9,27.3,19,60.8,51.4,92.1l3.8,3.7l-1.2-10.2c5.8,10.4,16.4,27.2,28.9,38
		c6.5,13.2,15.3,25.5,26.7,34.7c0,0-0.1,0-0.1,0c-0.4,2.8-0.5,5.6-0.9,8.4c-0.1,0.9-0.4,3.3-0.5,4.2c-0.8,4.7-1.6,9.5-3.3,13.9
		c-6.5,8-14.8,6.9-23.6,5.7c-11.3-1.5-24-3.1-31.6,16.8c-6.8,5-11.1,12.8-12,22.2l-1,5.9l4.3-4.3c1.8-1.8,4-3.3,6.1-4.7
		c12.4-7.8,27.9-9.7,42.2-7c4,0.7,7.9,1.9,11.9,2.8c5.5,1.3,11.1,2,16.7,2c5.6,0,11.2-0.7,16.6-1.5c5.4-0.8,10.7-1.5,15.6-0.4
		c4.9,1.1,9.3,4.1,13.2,7.7l4.5,4.1c0,0-1.3-5.9-1.3-5.9c-2.1-8.5-8.4-16-16.8-18.7c-5.1-1.5-10.4-2.1-15-4.7
		c-7-3.6-10-10.6-9.6-18.1c0.3-1.3,0.7-2.7,1.1-4c1.9-5.9,4.5-11.8,7.5-17.3c2,1.7,4.2,3.1,6.6,4.3l1.7,0.9l0.8-1.7
		c3.1-6.8,5.5-14.6,4.8-22.1c9.3,8.9,20.2,16.3,31.3,20.8c0.9,0.4,1.9,0.7,2.8,1.1c1.4,1.8,2.7,3.5,4.1,5.2
		c7.9,9.4,17,17.8,27.3,24.5c5,3.4,11.2,6.5,16.6,9.3l-3.4-5.7c0,0-5.4-9.7-10.3-18.4c4,4.4,7.8,9,11.5,13.6
		c6.8,8.6,13.3,17.7,18.1,27.5l2.5,5.2c0.9-4.7,2-10.2,2-15c0.2-5.7-0.3-11.5-1.7-17.1c21.1,24.2,46.6,49.2,69.7,60.9
		c0.5,0.4,0.9,0.9,1.4,1.3c12.4,11.6,26,21.9,41,30c6.7,3.8,14.2,6.5,21.1,10C467.2,480.8,461.4,471.8,455.3,463z M9.9,95.8
		c-2.6-2.9-6-8-6.1-14.8c-0.1-10.7,7.9-22,23.6-33.7c2.9,1.4,10.9,5,20.4,5.8L31.2,64.9C14,77.1,10.4,89.3,9.9,95.8z M45.3,73.8
		c-3.2,2.1-15.6,9.9-29.3,13.6C18.6,81.8,23.6,75,33.4,68l15.9-11.3C47.6,61.4,45.5,68.1,45.3,73.8z M87.3,151
		c-0.5-3.9-1.1-8.3-1.7-12.8c-2.6-20.5-5.6-43.7-9.8-50.1c-9-13.8-21.6-15.3-26.7-15.3c0.8-8.9,6-20.5,6.1-20.6l1.3-2.8l-3.1,0.2
		c-10.7,0.6-20.9-3.9-24.2-5.5C31,29.5,40,17.6,54.7,10.5c20.7-10.1,48-8.6,68.9,3.5l-4.1,3.1l2.6,1.4c0.1,0,6.5,3.5,13.5,7.9
		l-6.9,1.5l3.8,2.5c0.1,0.1,9.3,6.1,17.7,14.9l-6.7-0.8l3.6,3.8c0.1,0.1,10.7,11.4,29.4,26.7c-1.5,0.1-3.3,0.1-5.4,0
		c-0.1-0.1-0.1-0.1-0.1-0.1l-0.1,0.1c-3.9-0.2-8.7-0.7-14.2-2l-5-1.2l3,4.1c0,0,2.6,3.6,4.1,9.2c-3.2-0.9-9.2-3.1-17.9-8.1l-9.8-5.6
		l7.5,8.5c0.1,0.1,4.8,5.5,7.3,12.8c-3.1-2.3-7.5-5.2-12.5-6.8l-1.9-0.6l-0.5,1.9c-0.1,0.3-1.5,5.6-2.2,12.8
		c-1.9-2.4-4.4-6.2-6-11.1l-2.2-6.9l-1.4,7.1c-0.1,0.6-2.5,12.9-1.1,23.5c-2.9-1.9-7.2-5-10.6-8.9l-5.8-6.5l2.6,8.4
		c2.9,9.4,2,14.6,1.1,19.8c-0.7,4.1-1.3,8,0.1,13.1c-2.8-1.3-6.8-4.1-9.9-9.3l-2.1-3.5l-1.3,3.9C91.9,130.3,89.1,139,87.3,151z
		 M213.7,394c0.1-2.2,0.3-4.3,0.5-6.3c3.4,8,11.4,12.3,21.6,14.3c6.6,1.1,12.1,5,15.3,10.5c-2.8-1.8-5.8-3.3-9.1-4
		c-5.6-1.4-11.5-0.5-17,0.3c-5.4,0.8-10.7,1.5-16.1,1.5c-5.3,0-10.6-0.7-15.9-1.9c-4-1-8-2.2-12.1-2.9c-6.9-1.3-14-1.6-21-0.7
		c-9.3,1.1-18.5,4.3-26.1,9.8c4.3-12.8,14.2-19.2,28.8-19.6c5-0.2,10-0.1,15.2,0.1c-7.1-3.7-15.3-4.4-23.2-3.3
		c-3,0.4-5.9,1.2-8.4,2.3c6.4-12.4,15.4-11.2,25.6-9.9c6.5,0.9,13.7,1.8,20.1-1.4c-1.4,2.2-3.1,4.3-5.6,5.7c1,0.1,2-0.2,3-0.5
		c8.2-3.2,11.6-13,13.5-20.8c1.2-5.3,1.6-10.7,1.6-16.2c2.7,1.9,5.5,3.6,8.4,5.2l0.3-2.9l1.2-11c2,3.7,4.5,7.2,7.4,10.2
		C214.4,363.8,208.5,381.5,213.7,394z M337.5,404.7c0,0.9-0.1,1.9-0.2,2.8c-7.3-13-16.8-24.5-26.6-35.7c-6.1-7-14.6-15.5-21.2-22.2
		l6.8,12.1c0,0,9,16.1,14.2,25.5c-11.2-7.4-21.2-16.4-30-26.5c-10.6-12-18.6-25.7-27.1-39.4c2.5,11,7.9,21,14.4,30.3
		c-20.2-10.8-37.1-26.8-51-44.9c4.1,8.8,10,17.3,17.1,24.9c0.3,0.8,0.6,1.7,0.8,2.6c1.1,5.5,0.1,11.2-1.6,16.5
		c-0.5,1.5-1.1,3.1-1.7,4.5c-6.7-3.9-11.7-10.3-14.9-17.3c-1.1-2.3-3.2-8.8-4.1-11.3l-1,8.4l-1.7,14.9
		c-18.5-11.7-30.7-31.3-37.5-51.8c-1.2-3.6-2.4-7.2-3.5-10.9c-1-3.7-2.2-7.3-4.3-10.8c-1,4-0.4,8,0.5,11.8c0.8,3.8,1.9,7.6,3.2,11.3
		c0.5,1.5,1.1,3,1.7,4.5c-14.8-16.2-25.9-39.1-26.1-39.3l-4.9-10.3l2.5,21c-37.4-38.2-45.3-78.3-51.1-107.8
		c-0.1-0.6-0.2-1.2-0.3-1.8c0.4-13.5,3.2-25.6,4.7-31.4c6,7.5,13.2,8.9,13.6,9l3.5,0.7l-1.4-3.3c-2.7-6.2-2-10.1-1.2-14.9
		c0.7-4.1,1.4-8.5,0.3-15c5.2,4.4,10.1,7.1,10.4,7.2l3.8,2l-1.1-4.2c-1.6-6.2-1.3-14.1-0.7-19.6c3.2,6,7,9.3,7.3,9.5l3,2.6l0.2-3.9
		c0.3-6.1,1.3-11.6,1.9-14.4c7.6,3.1,13.5,9,13.6,9.1l4,4l-0.7-5.6c-0.7-5.3-2.8-10.1-4.9-13.7c9.8,4.9,14.9,5.5,15.1,5.5l2.6,0.3
		l-0.5-2.5c-0.8-4-2.1-7.4-3.2-9.7c3.6,0.7,6.9,1,9.8,1.2c6,4.4,35.2,26.1,71.2,48.7c-12.8-4.1-26.4-7.2-39.9-5.7
		c12.5,2.4,24.7,5.4,36.8,9.4c11.9,4.1,23.5,9.4,34.5,15.4c3,1.6,6.2,3.5,9.2,5.2c55.2,35,85.8,85.7,106.2,129
		c-7.1-6.9-14.7-13.2-22.7-19c-9-6.5-18.6-12.3-29-16.2c13.7,9.2,27.3,18.4,39.5,29.4c17.9,15.9,33.3,34.9,43.1,56.8
		c-9.4-7.9-19.3-15.3-29.4-22.2c-9.2-6.3-18.5-12.5-28.9-16.8c13.2,10.3,27.3,19.1,40.3,29.5c7.3,5.8,14.5,11.7,21.5,18
		c0.1,0.2,0.2,0.4,0.2,0.6c0,0,0.1,0,0.3-0.1c12.1,10.9,23.3,22.8,31.8,36.6c-21.9-7.7-43.4-17.1-63.6-28.6
		c-8.6-5-17-10.5-24.8-16.6c-4-3-7.9-6-12.4-8.6c2.7,4.4,6.2,8.2,10,11.5c10,8.3,20.8,15.4,32.1,21.7c4.1,3.7,8.1,7.3,12.2,10.8
		c11.1,9.5,22.1,19.2,34,27.8c-19.5-5.9-38.6-13.2-57-22c-30.6-14.6-60.2-33.6-81.2-60.7c-2.3-2.7-4.3-5.5-6.6-8.3
		c-1.5-2-3-4.1-4.7-6c3.8,11.8,11.6,21.9,20,30.8c0.8,0.9,1.7,1.7,2.5,2.6c-2.5-0.6-5.1-1.2-7.5-2c-9.2-2.8-18.2-6.9-26.6-11.7
		c-12.7-7.3-24.3-16.3-35-26.2c-7.1-6.7-13.9-13.7-21.2-20.5c7.1,13.3,18.3,23.7,29.5,33.5c3.9,3.3,7.9,6.4,12.1,9.4
		c-2-0.5-4-1.1-6-1.7c-41.4-13.3-106.4-62.9-127.9-100.8c-7.5-13-12.5-27.9-11.3-43c0.8-8.8,3.4-17.7,9.3-24.5
		c7.8-9.3,19-14.8,30.3-19.1c-12.7,0.8-25,7-33.2,16.7c-6.4,7.4-9.5,17-10.4,26.6c-1.5,16,3.6,31.8,11.5,45.5
		c9.4,16.4,22.3,30.4,36.2,43c13.8,12.6,28.6,24.1,44.2,34.4c15.7,10.2,32.3,19.4,50.2,25.1c5.1,1.6,10.3,2.7,15.6,3.4
		c6.2,3.8,12.7,7.2,19.4,10c3,4.4,17.9,25.7,38.1,49.6l0,0C336.5,387.1,337.8,396,337.5,404.7z M439.8,467.3
		c-9.1-6.3-17.7-13.3-25.9-20.8c-12.3-11.3-23.5-23.6-33.8-36.7c-3.5-4.4-7-8.6-11.2-12.5c1.9,5.4,4.9,10.2,8.2,14.8
		c6.7,9,13.9,17.6,21.6,25.8c-40.4-27.4-85.1-87.8-98-105.8c6.4,2.2,13,3.7,19.8,4.6c23.9,22.2,53.6,38.5,84.4,50.4
		c5.4,5.5,29.6,31.4,42.9,65.3c-7.4-9.9-15.2-19.6-23.5-28.8c-4-4.3-8.4-8.3-13.4-11.4c4.4,6.6,9.2,12.5,14.1,18.5
		c12.4,15.3,25.3,33.3,37.1,49.8C454.3,476.7,446.8,472.3,439.8,467.3z M423.4,446.1c-8.4-7.2-16.2-15-25.1-21.9
		c6.5,9.1,14.8,16.7,22.8,24.4c8.3,7.4,16.5,15.1,26.6,20.2C441.4,461.2,430.7,452.7,423.4,446.1z M423.3,385.3
		c-7-4.5-14.7-7.8-22.2-11.4c-6.9-3.4-15.5-7.4-22.4-10.7c-9-4.3-17.7-9.1-26.9-13.1c10.5,8.3,22.5,14.3,34.3,20.5
		C398.2,376.3,410.2,382.3,423.3,385.3z M405,315.9c2,2.1,4,4.3,6.2,6.2c-5.2-10.6-13.1-19.4-20.8-28.2c-8-8.5-16-17.2-25.8-23.6
		c7.6,8.8,15.8,17,23.3,25.9C393.6,302.7,399.2,309.5,405,315.9z M304.2,324.5c-2.1-1.7-4.4-3-6.6-4.5c-7.9-4.6-16-9.2-23.7-14.2
		c-7.8-5-15.1-10.5-22.8-15.7C260.5,302.5,288.9,321.4,304.2,324.5z M190.9,268c9.3,7.5,19.2,14.7,29.6,20.8c2.4,1.5,5.5,3,8,4.2
		c2.7,1.3,5.6,2.3,8.5,3.3c-8.3-5.6-16.7-10.9-24.9-16.6c-4.8-3.4-9.7-7-14.4-10.6c-12.8-9.5-24.9-20-37.6-29.7
		C169.3,250,180.1,259.1,190.9,268z M184.6,313.2c-3-4.9-5.7-9.9-8.8-14.8c1.1,5.7,3.7,11.1,6.4,16.2c3.5,6.7,7.8,13.1,12.7,18.8
		c2.7,3,5.5,6.1,9,8.4c1,0.7,2,1.3,3,1.9c-2.6-4-5.6-7.4-8.4-11C193.4,326.5,188.8,319.9,184.6,313.2z M123.5,243.4
		c-4.7-7.2-8.4-14.7-13.4-21.7c1.5,6.4,4.5,12.1,7.4,17.8c3,5.7,6.3,11.2,10.1,16.4c2.5,3.5,5.3,6.8,8.9,9.4
		c-1.7-4.1-4-7.6-6.3-11.2C128,250.5,125.7,246.9,123.5,243.4z M63.4,26.7c-1.1-1-2.5-1.7-4-2C54.2,23.5,49,26.8,47.9,32
		c-0.4,1.8-0.3,3.6,0.3,5.2c-0.2,2.4-1.8,3.8-1.8,3.8c1.6-0.7,3.1-0.5,4.1-0.1c1.2,1.2,2.8,2.2,4.7,2.6c0.7,0.2,1.4,0.2,2.1,0.2
		c4.4,0,8.4-3,9.4-7.5c0.3-1.4,0.3-2.8,0-4.2c0.5-3.1,2.9-5.1,2.9-5.1C67.2,27.7,64.9,27.2,63.4,26.7z M64.4,35.7
		c-0.9,3.9-4.8,6.4-8.7,5.5c-0.1,0-0.2,0-0.2-0.1c2.6,0.1,5-1.7,5.6-4.4c0-0.2,0.1-0.3,0.1-0.5c-0.8,0.5-1.7,0.7-2.7,0.5
		c-1.9-0.4-3.1-2.3-2.7-4.2c0.2-1,0.9-1.8,1.7-2.3c-0.2-0.1-0.5-0.2-0.7-0.2c-3-0.7-6,1.2-6.7,4.3c0,0.2-0.1,0.4-0.1,0.5
		c-0.1-0.8-0.1-1.6,0.1-2.4c0.8-3.4,3.8-5.7,7.1-5.7c0.5,0,1.1,0.1,1.6,0.2C62.8,27.8,65.3,31.7,64.4,35.7z M27.2,53
		c-3-1-5.7,1-5.7,4.1C24.4,58,27.2,56.1,27.2,53z M21.5,57.1c2.9,1,5.7-1,5.7-4.1C24.2,52,21.5,54,21.5,57.1z M69.5,26.9
		c-2.3,0.8-4.6,0.4-6.1-0.2c-1.1-1-2.5-1.7-4-2C54.2,23.5,49,26.8,47.9,32c-0.4,1.8-0.3,3.6,0.3,5.2c-0.2,2.4-1.8,3.8-1.8,3.8
		c1.6-0.7,3.1-0.5,4.1-0.1c1.2,1.2,2.8,2.2,4.7,2.6c0.7,0.2,1.4,0.2,2.1,0.2c4.4,0,8.4-3,9.4-7.5c0.3-1.4,0.3-2.8,0-4.2
		C67.1,28.8,69.5,26.9,69.5,26.9z M64.4,35.7c-0.9,3.9-4.8,6.4-8.7,5.5c-0.1,0-0.2,0-0.2-0.1c2.6,0.1,5-1.7,5.6-4.4
		c0-0.2,0.1-0.3,0.1-0.5c-0.8,0.5-1.7,0.7-2.7,0.5c-1.9-0.4-3.1-2.3-2.7-4.2c0.2-1,0.9-1.8,1.7-2.3c-0.2-0.1-0.5-0.2-0.7-0.2
		c-3-0.7-6,1.2-6.7,4.3c0,0.2-0.1,0.4-0.1,0.5c-0.1-0.8-0.1-1.6,0.1-2.4c0.8-3.4,3.8-5.7,7.1-5.7c0.5,0,1.1,0.1,1.6,0.2
		C62.8,27.8,65.3,31.7,64.4,35.7z M130.2,254.1c-2.3-3.6-4.5-7.1-6.7-10.7c-4.7-7.2-8.4-14.7-13.4-21.7c1.5,6.4,4.5,12.1,7.4,17.8
		c3,5.7,6.3,11.2,10.1,16.4c2.5,3.5,5.3,6.8,8.9,9.4C134.8,261.2,132.5,257.6,130.2,254.1z M198.4,332.7c-5-6.2-9.6-12.8-13.8-19.5
		c-3-4.9-5.7-9.9-8.8-14.8c1.1,5.7,3.7,11.1,6.4,16.2c3.5,6.7,7.8,13.1,12.7,18.8c2.7,3,5.5,6.1,9,8.4c1,0.7,2,1.3,3,1.9
		C204.3,339.6,201.2,336.2,198.4,332.7z M212.1,279.7c-4.8-3.4-9.7-7-14.4-10.6c-12.8-9.5-24.9-20-37.6-29.7
		c9.2,10.7,20,19.7,30.8,28.7c9.3,7.5,19.2,14.7,29.6,20.8c2.4,1.5,5.5,3,8,4.2c2.7,1.3,5.6,2.3,8.5,3.3
		C228.7,290.6,220.2,285.3,212.1,279.7z M297.5,320c-7.9-4.6-16-9.2-23.7-14.2c-7.8-5-15.1-10.5-22.8-15.7
		c9.5,12.4,37.8,31.3,53.1,34.3C302,322.7,299.8,321.4,297.5,320z M390.4,293.9c-8-8.5-16-17.2-25.8-23.6c7.6,8.8,15.8,17,23.3,25.9
		c5.7,6.5,11.3,13.3,17,19.7c2,2.1,4,4.3,6.2,6.2C406,311.5,398.1,302.8,390.4,293.9z M401.1,374c-6.9-3.4-15.5-7.4-22.4-10.7
		c-9-4.3-17.7-9.1-26.9-13.1c10.5,8.3,22.5,14.3,34.3,20.5c12,5.8,24,11.8,37.1,14.8C416.3,380.8,408.5,377.5,401.1,374z
		 M423.4,446.1c-8.4-7.2-16.2-15-25.1-21.9c6.5,9.1,14.8,16.7,22.8,24.4c8.3,7.4,16.5,15.1,26.6,20.2
		C441.4,461.2,430.7,452.7,423.4,446.1z M423.4,446.1c-8.4-7.2-16.2-15-25.1-21.9c6.5,9.1,14.8,16.7,22.8,24.4
		c8.3,7.4,16.5,15.1,26.6,20.2C441.4,461.2,430.7,452.7,423.4,446.1z M401.1,374c-6.9-3.4-15.5-7.4-22.4-10.7
		c-9-4.3-17.7-9.1-26.9-13.1c10.5,8.3,22.5,14.3,34.3,20.5c12,5.8,24,11.8,37.1,14.8C416.3,380.8,408.5,377.5,401.1,374z
		 M390.4,293.9c-8-8.5-16-17.2-25.8-23.6c7.6,8.8,15.8,17,23.3,25.9c5.7,6.5,11.3,13.3,17,19.7c2,2.1,4,4.3,6.2,6.2
		C406,311.5,398.1,302.8,390.4,293.9z M297.5,320c-7.9-4.6-16-9.2-23.7-14.2c-7.8-5-15.1-10.5-22.8-15.7
		c9.5,12.4,37.8,31.3,53.1,34.3C302,322.7,299.8,321.4,297.5,320z M212.1,279.7c-4.8-3.4-9.7-7-14.4-10.6
		c-12.8-9.5-24.9-20-37.6-29.7c9.2,10.7,20,19.7,30.8,28.7c9.3,7.5,19.2,14.7,29.6,20.8c2.4,1.5,5.5,3,8,4.2
		c2.7,1.3,5.6,2.3,8.5,3.3C228.7,290.6,220.2,285.3,212.1,279.7z M198.4,332.7c-5-6.2-9.6-12.8-13.8-19.5c-3-4.9-5.7-9.9-8.8-14.8
		c1.1,5.7,3.7,11.1,6.4,16.2c3.5,6.7,7.8,13.1,12.7,18.8c2.7,3,5.5,6.1,9,8.4c1,0.7,2,1.3,3,1.9
		C204.3,339.6,201.2,336.2,198.4,332.7z M130.2,254.1c-2.3-3.6-4.5-7.1-6.7-10.7c-4.7-7.2-8.4-14.7-13.4-21.7
		c1.5,6.4,4.5,12.1,7.4,17.8c3,5.7,6.3,11.2,10.1,16.4c2.5,3.5,5.3,6.8,8.9,9.4C134.8,261.2,132.5,257.6,130.2,254.1z M69.5,26.9
		c-2.3,0.8-4.6,0.4-6.1-0.2c-1.1-1-2.5-1.7-4-2C54.2,23.5,49,26.8,47.9,32c-0.4,1.8-0.3,3.6,0.3,5.2c-0.2,2.4-1.8,3.8-1.8,3.8
		c1.6-0.7,3.1-0.5,4.1-0.1c1.2,1.2,2.8,2.2,4.7,2.6c0.7,0.2,1.4,0.2,2.1,0.2c4.4,0,8.4-3,9.4-7.5c0.3-1.4,0.3-2.8,0-4.2
		C67.1,28.8,69.5,26.9,69.5,26.9z M64.4,35.7c-0.9,3.9-4.8,6.4-8.7,5.5c-0.1,0-0.2,0-0.2-0.1c2.6,0.1,5-1.7,5.6-4.4
		c0-0.2,0.1-0.3,0.1-0.5c-0.8,0.5-1.7,0.7-2.7,0.5c-1.9-0.4-3.1-2.3-2.7-4.2c0.2-1,0.9-1.8,1.7-2.3c-0.2-0.1-0.5-0.2-0.7-0.2
		c-3-0.7-6,1.2-6.7,4.3c0,0.2-0.1,0.4-0.1,0.5c-0.1-0.8-0.1-1.6,0.1-2.4c0.8-3.4,3.8-5.7,7.1-5.7c0.5,0,1.1,0.1,1.6,0.2
		C62.8,27.8,65.3,31.7,64.4,35.7z M21.5,57.1c2.9,1,5.7-1,5.7-4.1C24.2,52,21.5,54,21.5,57.1z M21.5,57.1c2.9,1,5.7-1,5.7-4.1
		C24.2,52,21.5,54,21.5,57.1z M69.5,26.9c-2.3,0.8-4.6,0.4-6.1-0.2c-1.1-1-2.5-1.7-4-2C54.2,23.5,49,26.8,47.9,32
		c-0.4,1.8-0.3,3.6,0.3,5.2c-0.2,2.4-1.8,3.8-1.8,3.8c1.6-0.7,3.1-0.5,4.1-0.1c1.2,1.2,2.8,2.2,4.7,2.6c0.7,0.2,1.4,0.2,2.1,0.2
		c4.4,0,8.4-3,9.4-7.5c0.3-1.4,0.3-2.8,0-4.2C67.1,28.8,69.5,26.9,69.5,26.9z M64.4,35.7c-0.9,3.9-4.8,6.4-8.7,5.5
		c-0.1,0-0.2,0-0.2-0.1c2.6,0.1,5-1.7,5.6-4.4c0-0.2,0.1-0.3,0.1-0.5c-0.8,0.5-1.7,0.7-2.7,0.5c-1.9-0.4-3.1-2.3-2.7-4.2
		c0.2-1,0.9-1.8,1.7-2.3c-0.2-0.1-0.5-0.2-0.7-0.2c-3-0.7-6,1.2-6.7,4.3c0,0.2-0.1,0.4-0.1,0.5c-0.1-0.8-0.1-1.6,0.1-2.4
		c0.8-3.4,3.8-5.7,7.1-5.7c0.5,0,1.1,0.1,1.6,0.2C62.8,27.8,65.3,31.7,64.4,35.7z M130.2,254.1c-2.3-3.6-4.5-7.1-6.7-10.7
		c-4.7-7.2-8.4-14.7-13.4-21.7c1.5,6.4,4.5,12.1,7.4,17.8c3,5.7,6.3,11.2,10.1,16.4c2.5,3.5,5.3,6.8,8.9,9.4
		C134.8,261.2,132.5,257.6,130.2,254.1z M198.4,332.7c-5-6.2-9.6-12.8-13.8-19.5c-3-4.9-5.7-9.9-8.8-14.8c1.1,5.7,3.7,11.1,6.4,16.2
		c3.5,6.7,7.8,13.1,12.7,18.8c2.7,3,5.5,6.1,9,8.4c1,0.7,2,1.3,3,1.9C204.3,339.6,201.2,336.2,198.4,332.7z M212.1,279.7
		c-4.8-3.4-9.7-7-14.4-10.6c-12.8-9.5-24.9-20-37.6-29.7c9.2,10.7,20,19.7,30.8,28.7c9.3,7.5,19.2,14.7,29.6,20.8
		c2.4,1.5,5.5,3,8,4.2c2.7,1.3,5.6,2.3,8.5,3.3C228.7,290.6,220.2,285.3,212.1,279.7z M297.5,320c-7.9-4.6-16-9.2-23.7-14.2
		c-7.8-5-15.1-10.5-22.8-15.7c9.5,12.4,37.8,31.3,53.1,34.3C302,322.7,299.8,321.4,297.5,320z M390.4,293.9
		c-8-8.5-16-17.2-25.8-23.6c7.6,8.8,15.8,17,23.3,25.9c5.7,6.5,11.3,13.3,17,19.7c2,2.1,4,4.3,6.2,6.2
		C406,311.5,398.1,302.8,390.4,293.9z M401.1,374c-6.9-3.4-15.5-7.4-22.4-10.7c-9-4.3-17.7-9.1-26.9-13.1
		c10.5,8.3,22.5,14.3,34.3,20.5c12,5.8,24,11.8,37.1,14.8C416.3,380.8,408.5,377.5,401.1,374z M423.4,446.1
		c-8.4-7.2-16.2-15-25.1-21.9c6.5,9.1,14.8,16.7,22.8,24.4c8.3,7.4,16.5,15.1,26.6,20.2C441.4,461.2,430.7,452.7,423.4,446.1z
		 M423.4,446.1c-8.4-7.2-16.2-15-25.1-21.9c6.5,9.1,14.8,16.7,22.8,24.4c8.3,7.4,16.5,15.1,26.6,20.2
		C441.4,461.2,430.7,452.7,423.4,446.1z M401.1,374c-6.9-3.4-15.5-7.4-22.4-10.7c-9-4.3-17.7-9.1-26.9-13.1
		c10.5,8.3,22.5,14.3,34.3,20.5c12,5.8,24,11.8,37.1,14.8C416.3,380.8,408.5,377.5,401.1,374z M390.4,293.9
		c-8-8.5-16-17.2-25.8-23.6c7.6,8.8,15.8,17,23.3,25.9c5.7,6.5,11.3,13.3,17,19.7c2,2.1,4,4.3,6.2,6.2
		C406,311.5,398.1,302.8,390.4,293.9z M297.5,320c-7.9-4.6-16-9.2-23.7-14.2c-7.8-5-15.1-10.5-22.8-15.7
		c9.5,12.4,37.8,31.3,53.1,34.3C302,322.7,299.8,321.4,297.5,320z M212.1,279.7c-4.8-3.4-9.7-7-14.4-10.6
		c-12.8-9.5-24.9-20-37.6-29.7c9.2,10.7,20,19.7,30.8,28.7c9.3,7.5,19.2,14.7,29.6,20.8c2.4,1.5,5.5,3,8,4.2
		c2.7,1.3,5.6,2.3,8.5,3.3C228.7,290.6,220.2,285.3,212.1,279.7z M198.4,332.7c-5-6.2-9.6-12.8-13.8-19.5c-3-4.9-5.7-9.9-8.8-14.8
		c1.1,5.7,3.7,11.1,6.4,16.2c3.5,6.7,7.8,13.1,12.7,18.8c2.7,3,5.5,6.1,9,8.4c1,0.7,2,1.3,3,1.9
		C204.3,339.6,201.2,336.2,198.4,332.7z M130.2,254.1c-2.3-3.6-4.5-7.1-6.7-10.7c-4.7-7.2-8.4-14.7-13.4-21.7
		c1.5,6.4,4.5,12.1,7.4,17.8c3,5.7,6.3,11.2,10.1,16.4c2.5,3.5,5.3,6.8,8.9,9.4C134.8,261.2,132.5,257.6,130.2,254.1z M69.5,26.9
		c-2.3,0.8-4.6,0.4-6.1-0.2c-1.1-1-2.5-1.7-4-2C54.2,23.5,49,26.8,47.9,32c-0.4,1.8-0.3,3.6,0.3,5.2c-0.2,2.4-1.8,3.8-1.8,3.8
		c1.6-0.7,3.1-0.5,4.1-0.1c1.2,1.2,2.8,2.2,4.7,2.6c0.7,0.2,1.4,0.2,2.1,0.2c4.4,0,8.4-3,9.4-7.5c0.3-1.4,0.3-2.8,0-4.2
		C67.1,28.8,69.5,26.9,69.5,26.9z M64.4,35.7c-0.9,3.9-4.8,6.4-8.7,5.5c-0.1,0-0.2,0-0.2-0.1c2.6,0.1,5-1.7,5.6-4.4
		c0-0.2,0.1-0.3,0.1-0.5c-0.8,0.5-1.7,0.7-2.7,0.5c-1.9-0.4-3.1-2.3-2.7-4.2c0.2-1,0.9-1.8,1.7-2.3c-0.2-0.1-0.5-0.2-0.7-0.2
		c-3-0.7-6,1.2-6.7,4.3c0,0.2-0.1,0.4-0.1,0.5c-0.1-0.8-0.1-1.6,0.1-2.4c0.8-3.4,3.8-5.7,7.1-5.7c0.5,0,1.1,0.1,1.6,0.2
		C62.8,27.8,65.3,31.7,64.4,35.7z M21.5,57.1c2.9,1,5.7-1,5.7-4.1C24.2,52,21.5,54,21.5,57.1z M21.5,57.1c2.9,1,5.7-1,5.7-4.1
		C24.2,52,21.5,54,21.5,57.1z M69.5,26.9c-2.3,0.8-4.6,0.4-6.1-0.2c-1.1-1-2.5-1.7-4-2C54.2,23.5,49,26.8,47.9,32
		c-0.4,1.8-0.3,3.6,0.3,5.2c-0.2,2.4-1.8,3.8-1.8,3.8c1.6-0.7,3.1-0.5,4.1-0.1c1.2,1.2,2.8,2.2,4.7,2.6c0.7,0.2,1.4,0.2,2.1,0.2
		c4.4,0,8.4-3,9.4-7.5c0.3-1.4,0.3-2.8,0-4.2C67.1,28.8,69.5,26.9,69.5,26.9z M64.4,35.7c-0.9,3.9-4.8,6.4-8.7,5.5
		c-0.1,0-0.2,0-0.2-0.1c2.6,0.1,5-1.7,5.6-4.4c0-0.2,0.1-0.3,0.1-0.5c-0.8,0.5-1.7,0.7-2.7,0.5c-1.9-0.4-3.1-2.3-2.7-4.2
		c0.2-1,0.9-1.8,1.7-2.3c-0.2-0.1-0.5-0.2-0.7-0.2c-3-0.7-6,1.2-6.7,4.3c0,0.2-0.1,0.4-0.1,0.5c-0.1-0.8-0.1-1.6,0.1-2.4
		c0.8-3.4,3.8-5.7,7.1-5.7c0.5,0,1.1,0.1,1.6,0.2C62.8,27.8,65.3,31.7,64.4,35.7z M130.2,254.1c-2.3-3.6-4.5-7.1-6.7-10.7
		c-4.7-7.2-8.4-14.7-13.4-21.7c1.5,6.4,4.5,12.1,7.4,17.8c3,5.7,6.3,11.2,10.1,16.4c2.5,3.5,5.3,6.8,8.9,9.4
		C134.8,261.2,132.5,257.6,130.2,254.1z M198.4,332.7c-5-6.2-9.6-12.8-13.8-19.5c-3-4.9-5.7-9.9-8.8-14.8c1.1,5.7,3.7,11.1,6.4,16.2
		c3.5,6.7,7.8,13.1,12.7,18.8c2.7,3,5.5,6.1,9,8.4c1,0.7,2,1.3,3,1.9C204.3,339.6,201.2,336.2,198.4,332.7z M212.1,279.7
		c-4.8-3.4-9.7-7-14.4-10.6c-12.8-9.5-24.9-20-37.6-29.7c9.2,10.7,20,19.7,30.8,28.7c9.3,7.5,19.2,14.7,29.6,20.8
		c2.4,1.5,5.5,3,8,4.2c2.7,1.3,5.6,2.3,8.5,3.3C228.7,290.6,220.2,285.3,212.1,279.7z M297.5,320c-7.9-4.6-16-9.2-23.7-14.2
		c-7.8-5-15.1-10.5-22.8-15.7c9.5,12.4,37.8,31.3,53.1,34.3C302,322.7,299.8,321.4,297.5,320z M390.4,293.9
		c-8-8.5-16-17.2-25.8-23.6c7.6,8.8,15.8,17,23.3,25.9c5.7,6.5,11.3,13.3,17,19.7c2,2.1,4,4.3,6.2,6.2
		C406,311.5,398.1,302.8,390.4,293.9z M401.1,374c-6.9-3.4-15.5-7.4-22.4-10.7c-9-4.3-17.7-9.1-26.9-13.1
		c10.5,8.3,22.5,14.3,34.3,20.5c12,5.8,24,11.8,37.1,14.8C416.3,380.8,408.5,377.5,401.1,374z M423.4,446.1
		c-8.4-7.2-16.2-15-25.1-21.9c6.5,9.1,14.8,16.7,22.8,24.4c8.3,7.4,16.5,15.1,26.6,20.2C441.4,461.2,430.7,452.7,423.4,446.1z
		 M423.4,446.1c-8.4-7.2-16.2-15-25.1-21.9c6.5,9.1,14.8,16.7,22.8,24.4c8.3,7.4,16.5,15.1,26.6,20.2
		C441.4,461.2,430.7,452.7,423.4,446.1z M401.1,374c-6.9-3.4-15.5-7.4-22.4-10.7c-9-4.3-17.7-9.1-26.9-13.1
		c10.5,8.3,22.5,14.3,34.3,20.5c12,5.8,24,11.8,37.1,14.8C416.3,380.8,408.5,377.5,401.1,374z M390.4,293.9
		c-8-8.5-16-17.2-25.8-23.6c7.6,8.8,15.8,17,23.3,25.9c5.7,6.5,11.3,13.3,17,19.7c2,2.1,4,4.3,6.2,6.2
		C406,311.5,398.1,302.8,390.4,293.9z M297.5,320c-7.9-4.6-16-9.2-23.7-14.2c-7.8-5-15.1-10.5-22.8-15.7
		c9.5,12.4,37.8,31.3,53.1,34.3C302,322.7,299.8,321.4,297.5,320z M212.1,279.7c-4.8-3.4-9.7-7-14.4-10.6
		c-12.8-9.5-24.9-20-37.6-29.7c9.2,10.7,20,19.7,30.8,28.7c9.3,7.5,19.2,14.7,29.6,20.8c2.4,1.5,5.5,3,8,4.2
		c2.7,1.3,5.6,2.3,8.5,3.3C228.7,290.6,220.2,285.3,212.1,279.7z M198.4,332.7c-5-6.2-9.6-12.8-13.8-19.5c-3-4.9-5.7-9.9-8.8-14.8
		c1.1,5.7,3.7,11.1,6.4,16.2c3.5,6.7,7.8,13.1,12.7,18.8c2.7,3,5.5,6.1,9,8.4c1,0.7,2,1.3,3,1.9
		C204.3,339.6,201.2,336.2,198.4,332.7z M130.2,254.1c-2.3-3.6-4.5-7.1-6.7-10.7c-4.7-7.2-8.4-14.7-13.4-21.7
		c1.5,6.4,4.5,12.1,7.4,17.8c3,5.7,6.3,11.2,10.1,16.4c2.5,3.5,5.3,6.8,8.9,9.4C134.8,261.2,132.5,257.6,130.2,254.1z M69.5,26.9
		c-2.3,0.8-4.6,0.4-6.1-0.2c-1.1-1-2.5-1.7-4-2C54.2,23.5,49,26.8,47.9,32c-0.4,1.8-0.3,3.6,0.3,5.2c-0.2,2.4-1.8,3.8-1.8,3.8
		c1.6-0.7,3.1-0.5,4.1-0.1c1.2,1.2,2.8,2.2,4.7,2.6c0.7,0.2,1.4,0.2,2.1,0.2c4.4,0,8.4-3,9.4-7.5c0.3-1.4,0.3-2.8,0-4.2
		C67.1,28.8,69.5,26.9,69.5,26.9z M64.4,35.7c-0.9,3.9-4.8,6.4-8.7,5.5c-0.1,0-0.2,0-0.2-0.1c2.6,0.1,5-1.7,5.6-4.4
		c0-0.2,0.1-0.3,0.1-0.5c-0.8,0.5-1.7,0.7-2.7,0.5c-1.9-0.4-3.1-2.3-2.7-4.2c0.2-1,0.9-1.8,1.7-2.3c-0.2-0.1-0.5-0.2-0.7-0.2
		c-3-0.7-6,1.2-6.7,4.3c0,0.2-0.1,0.4-0.1,0.5c-0.1-0.8-0.1-1.6,0.1-2.4c0.8-3.4,3.8-5.7,7.1-5.7c0.5,0,1.1,0.1,1.6,0.2
		C62.8,27.8,65.3,31.7,64.4,35.7z M21.5,57.1c2.9,1,5.7-1,5.7-4.1C24.2,52,21.5,54,21.5,57.1z"/>
</g>
</svg>
