<?xml version="1.0" encoding="utf-8"?>
<!-- Generator: Adobe Illustrator 28.3.0, SVG Export Plug-In . SVG Version: 6.00 Build 0)  -->
<svg version="1.1" id="fox" xmlns="http://www.w3.org/2000/svg" xmlns:xlink="http://www.w3.org/1999/xlink" x="0px" y="0px"
	 viewBox="0 0 287.746 490" enable-background="new 0 0 287.746 490" xml:space="preserve">
<g id="fox_00000085960097428511524090000003205656507663728544_">
	<g>
		<path fill="#F97E24" d="M269.17,347.103c-6.232-9.004-12.901-15.253-16.321-18.177l-0.666-0.569l0.12,0.867
			c0.269,1.948,0.47,3.876,0.596,5.731l0.009,0.132l0.097,0.09c14.486,13.415,24.166,32.427,26.557,52.16
			c1.941,16.09-1.171,32.786-8.783,47.445c5.396-16.097,7.43-30.415,6.212-43.665c-1.085-11.267-4.501-22.533-9.877-32.58
			c-3.85-7.231-8.376-13.702-13.452-19.232l-0.586-0.639l0.008,0.867c0.015,1.526,0.066,2.861,0.107,3.934
			c0.051,1.337,0.088,2.303,0.026,2.874c0.56,14.645-7.373,36.757-23.618,50.682c-10.351,8.87-27.932,17.887-52.905,10.464
			c-20.217-6.001-36.943-5.48-48.369,1.505c-5.151,3.148-8.184,6.977-9.821,9.635l-0.353,0.574l0.67-0.068
			c8.673-0.882,15.969-1.889,22.728-3.14c-13.547,6.444-28.917,7.333-43.569,7.306c-3.127-0.005-6.656-0.014-9.916,0.624
			c-9.662,1.665-17.677,8.372-21.436,17.932c-0.039,0.091-0.073,0.185-0.108,0.279c-0.032,0.086-0.063,0.171-0.098,0.253
			l-0.398,0.935l0.874-0.52c6.402-3.807,13.06-6.082,18.916-6.485c-2.37,1.334-4.766,2.555-7.094,3.741
			c-5.041,2.569-9.802,4.994-14.279,8.438c-12.681,9.462-16.942,21.463-12.665,35.671l0.064,0.214l0.222,0.021
			c3.959,0.38,8.038,0.702,12.124,0.958c6.337,0.396,13.595,0.776,21.001,0.776c1.771,0,3.552-0.022,5.329-0.07
			c16.526-0.705,33.198-7.801,46.939-19.977l0.385-0.331c2.786-2.393,5.657-4.86,8.687-7.291c-1.548,3.186-3.889,6.266-7.276,9.591
			c-1.826,1.735-3.794,3.436-5.85,5.055l-0.78,0.614l0.992-0.02c7.385-0.158,14.759,1.874,21.092,3.785
			c6.983,2.088,14.667,3.179,23.392,3.315c-6.959,1.002-13.999,0.958-20.569-0.143c-2.301-0.421-4.632-0.967-6.887-1.495
			c-3.287-0.77-6.686-1.568-10.018-1.979c-4.453-0.603-8.689-0.652-12.593-0.147l-0.076,0.01l-0.064,0.042
			c-1.417,0.93-2.848,1.811-4.254,2.617l-1.14,0.654l1.314-0.032c7.832-0.192,15.604,1.148,22.178,2.488
			c7.604,1.499,15.471,3.056,23.496,2.847c14.567-0.733,27.211-4.163,37.581-10.196c7.898-4.56,14.682-11.471,20.701-21.097
			c-1.508,8.541-7.951,16.48-19.175,23.62c-0.177,0.11-0.354,0.214-0.531,0.316l-1.4,0.836l1.211-0.005
			c20.55-0.088,38.451-6.835,51.767-19.508c13.35-12.706,21.827-31.129,24.514-53.278
			C287.366,379.888,277.779,359.525,269.17,347.103z"/>
		<path fill="#F97E24" d="M217.867,248.891c-0.423-0.943-1.547-3.449-1.409-3.887l-0.583-0.32c-0.001,0-0.001,0.001-0.001,0.001
			c-2.394,4.339-5.402,8.647-8.942,12.802l-10.689,6.707l-31.038,137.439l-0.103,0.354l0.363,0.066
			c3.795,0.682,7.828,1.653,11.985,2.885c6.204,1.843,11.925,2.625,17.171,2.625c14.907,0,25.966-6.319,33.25-12.563
			c14.13-12.111,22.596-31.754,22.646-52.544c0.013-7.763-1.094-15.783-3.291-23.835c-1.555-5.695-3.818-11.699-7.123-18.896
			c-1.66-3.621-3.447-7.263-5.175-10.785c-2.226-4.535-4.526-9.224-6.577-13.909c-2.637-6.032-5.142-12.135-7.445-18.139
			c-1.072-2.808-1.878-4.971-2.613-7.013C218.229,249.7,218.069,249.342,217.867,248.891z M199.731,400.56
			c17.39-5.639,31.618-17.89,39.372-34.047c2.343-4.929,4.323-10.291,6.017-16.309c-0.619,6.258-2.212,12.519-4.668,18.292
			c-2.321,5.439-5.563,10.569-9.375,14.836C222.711,392.734,211.448,398.888,199.731,400.56z"/>
		<path fill="#F97E24" d="M121.331,411.001c1.631-1.544,3.448-2.94,5.402-4.15c2.185-1.358,4.634-2.523,7.28-3.461l0.199-0.071
			l7.238-74.66l0.068-0.709l-0.588,0.403c-3.917,2.686-12.879,7.968-14.219,8.755c-1.338-0.787-10.27-6.055-14.181-8.73
			l-0.595-0.407l8.909,83.491L121.331,411.001z"/>
		<path fill="#F97E24" d="M55.123,452.159l0.403-0.44c2.04-2.12,4.396-4.15,7-6.034l0.1-0.072l0.029-0.12
			c0.349-1.465,0.829-2.938,1.51-4.639c4.085-10.422,12.834-17.728,23.409-19.545c2.26-0.451,4.635-0.579,6.452-0.639l0.429-0.014
			L51.881,261.621l-4.057-4.114c-3.55-4.156-7.893-8.461-10.285-12.795l-0.362-0.657l-0.243,0.71
			c-3.531,10.303-11.293,31.142-23.609,54.947c-9.082,17.535-10.348,33.426-10.294,41.337l0.008,1.126l0.605-0.949
			c3.18-4.986,8.034-11.755,13.094-15.681l5.605-4.343l-3.655,6.093c-0.794,1.349-7.874,13.639-12.041,29.527
			c-3.558,13.585-5.689,33.12,4.358,49.034l0.546,0.865l0.068-1.02c0.312-4.712,1.278-11.555,4.111-17.399l1.697-3.5l0.798,3.811
			c0.105,0.49,10.769,49.19,36.671,63.423L55.123,452.159z M50.475,442.348c-11.651-9.237-20.026-27.45-23.375-41.999
			c1.797,3.464,3.541,6.982,5.237,10.404C37.645,421.463,43.124,432.517,50.475,442.348z"/>
		<path fill="#F97E24" d="M201.246,45.185c1.743-5.315,3.073-10.823,3.645-16.371c0.831-8.182,0.293-16.77-3.446-24.18
			c-0.113-0.259-0.266-0.506-0.412-0.745c-13.936-2.448-27.16,13.224-34.99,23.129c-5.927,7.277-10.044,15.665-16.504,22.55
			c1.231-6.359,4.583-11.767,7.976-17.129c0.086-0.14,0.18-0.279,0.273-0.419c-9.319-1.024-20.561,4.005-20.688,4.064l-7.41,3.359
			l5.501-6c1.49-1.63,2.102-3.652,2.342-5.228c-3.639,1.67-6.479,2.588-8.375,3.087c-1.543,0.406-3.166,0.386-4.71-0.033
			c-2.082-0.565-5.335-1.577-8.561-3.04c0.246,1.57,0.858,3.592,2.348,5.215l5.495,6l-7.41-3.359
			c-0.12-0.06-11.368-5.089-20.681-4.064c0.086,0.14,0.18,0.279,0.266,0.419c3.399,5.362,6.752,10.77,7.976,17.129
			c-6.452-6.885-10.577-15.273-16.504-22.55c-7.823-9.905-21.04-25.55-34.95-23.136c-2.082,3.532-3.133,7.603-3.752,11.648
			c-1.583,11.095,0.865,22.431,4.596,32.901c0.745,2.169,1.397,4.55,1.869,6.792c2.987,13.783,1.137,28.238-3.492,41.429
			c-0.732,2.055-1.51,4.051-2.361,6.027c4.849-3.878,10.577-8.455,13.889-11.109l-6.379,9.28
			c-6.546,9.998-12.087,24.586-4.177,35.262c1.743,2.315,4.011,4.224,6.539,5.794c-0.778-3.1-1.69-6.772-2.209-8.847
			c3.645,3.113,7.71,6.625,11.721,9.286c3.366,2.302,6.832,4.424,10.477,6.22c2.142,1.078,4.63,2.075,6.765,3.166
			c9.107,4.377,16.623,11.86,23.675,18.672c4.324,3.599,10.563,4.656,16.158,5.189c0.645,0.06,1.291,0.06,1.936,0
			c5.588-0.525,11.827-1.596,16.151-5.189c7.058-6.812,14.568-14.295,23.674-18.672c2.135-1.091,4.623-2.095,6.765-3.166
			c3.645-1.796,7.118-3.918,10.484-6.213c3.998-2.667,8.082-6.166,11.721-9.293c-0.512,2.069-1.437,5.754-2.215,8.847
			c2.528-1.57,4.803-3.472,6.539-5.794c7.909-10.683,2.368-25.258-4.177-35.262l-6.372-9.28c3.293,2.641,9.033,7.224,13.883,11.109
			c-0.851-1.969-1.63-3.971-2.355-6.027c-4.63-13.191-6.479-27.646-3.499-41.429C198.937,51.93,200.155,48.371,201.246,45.185z
			 M57.915,33.724c0.659,2.448,1.63,4.936,2.275,7.377c1.463,5.095,2.448,10.304,3.06,15.532c0.659,5.242,0.812,10.59-0.619,15.745
			c-2.581-10.138-3.033-20.275-6.299-30.134c-0.519-1.769-1.244-3.725-1.836-5.488c-1.044-3.246-1.703-6.639-1.863-10.045
			c-0.346-5.94,0.738-11.847,2.987-17.355l1.45,0.286c13.903,2.727,30.519,16.843,32.435,31.331c-2.548-3.047-4.67-6.08-6.918-9.02
			c-6.073-8.082-14.388-14.368-23.734-18.16c-0.333-0.126-0.672-0.259-1.011-0.386c-0.459,1.856-0.772,3.785-0.984,5.668
			C56.352,23.979,56.658,28.968,57.915,33.724z M133.608,167.562c-3.339-0.772-5.508-3.419-6.898-6.433
			c-1.384,3.013-3.552,5.661-6.898,6.433c-5.062,0.971-9.765-2.747-11.867-7.058c4.011,2.268,9.18,6.572,13.41,2.867
			c1.856-1.763,2.927-4.091,3.898-6.512c-0.013-0.06-0.027-0.12-0.047-0.18c-2.115-1.091-5.92-3.492-7.869-7.424
			c-2.754-5.541,9.027-5.322,9.373-5.308c0.353-0.013,12.133-0.233,9.379,5.308c-1.956,3.931-5.754,6.333-7.876,7.424
			c-0.013,0.066-0.027,0.126-0.047,0.193c0.612,1.51,1.27,2.973,2.089,4.271c4.071,6.885,10.091,2.481,15.22-0.639
			C143.373,164.815,138.67,168.533,133.608,167.562z M190.789,72.379c-1.43-5.155-1.271-10.51-0.619-15.745
			c0.619-5.228,1.603-10.437,3.06-15.532c0.652-2.441,1.623-4.929,2.282-7.377c1.257-4.756,1.557-9.745,1.051-14.648
			c-0.206-1.882-0.519-3.818-0.978-5.668c-0.339,0.126-0.685,0.259-1.011,0.386c-9.353,3.792-17.668,10.078-23.741,18.16
			c-2.248,2.94-4.364,5.973-6.918,9.02c1.916-14.481,18.532-28.604,32.442-31.331l1.443-0.286
			c2.248,5.508,3.333,11.415,2.987,17.355c-0.153,3.406-0.818,6.798-1.863,10.045c-0.592,1.763-1.31,3.712-1.836,5.488
			C193.822,52.11,193.376,62.241,190.789,72.379z"/>
	</g>
	<g>
		<path fill="#C4672D" d="M56.591,450.658c-0.366,0.353-0.718,0.705-1.064,1.064l-0.406,0.439l-0.226-0.126
			c-22.87-12.566-33.859-51.992-36.194-61.398C19.007,389.845,32.351,434.912,56.591,450.658z"/>
		<path fill="#C4672D" d="M163.915,40.974c0,0,19.888-18.656,24.576-13.734c4.688,4.922-4.163,30.357,2.166,43.482l5.156-29.855
			c0,0,5.025-22.629,0-29.21C195.813,11.658,168.814,20.133,163.915,40.974z"/>
		<path fill="#C4672D" d="M89.505,40.974c0,0-19.888-18.656-24.576-13.734c-4.688,4.922,4.163,30.357-2.166,43.482l-5.156-29.855
			c0,0-5.025-22.629,0-29.21C57.607,11.658,84.606,20.133,89.505,40.974z"/>
		<path fill="#C4672D" d="M140.48,463.496c-0.891,0.758-1.769,1.517-2.641,2.262l-0.379,0.333
			c-13.743,12.173-30.413,19.271-46.943,19.976c-1.776,0.047-3.559,0.073-5.328,0.073c-7.404,0-14.668-0.386-21-0.778
			c-4.091-0.259-8.169-0.579-12.127-0.958l-0.22-0.02l-0.067-0.22c-1.264-4.191-1.783-8.189-1.563-11.987
			c0.14,2.787,0.665,5.674,1.563,8.661l0.067,0.219l0.22,0.02c3.958,0.379,8.036,0.698,12.127,0.958
			c6.333,0.392,13.597,0.778,21,0.778c1.769,0,3.554,0.019,5.328-0.073C117.471,481.34,143.214,460.636,140.48,463.496z"/>
		<path fill="#C4672D" d="M225.406,457.955c-5.421,7.783-11.461,13.544-18.34,17.515c-10.37,6.033-23.016,9.466-37.577,10.198
			c-8.029,0.206-15.898-1.35-23.501-2.847c-6.572-1.337-14.342-2.681-22.178-2.488l-1.31,0.033l1.137-0.652
			c1.404-0.812,2.84-2.355,4.257-3.286l0.06,0.625l0.08-0.013c0.013,0.007,0.027,0.007,0.033,0
			c6.366,0.259,12.539,0.027,17.921,1.124c7.603,1.497,15.473,3.718,23.501,3.512c14.561-0.732,27.207-3.499,37.577-9.532
			C214.962,467.587,226.563,455.7,225.406,457.955z"/>
		<path fill="#C4672D" d="M284.156,406.355c-2.687,22.151-11.169,40.571-24.519,53.276c-13.311,12.679-31.211,19.424-51.766,19.51
			l-1.211,0.007l1.404-0.838c0.173-0.1,0.353-0.206,0.532-0.313c1.184-0.752,2.315-1.517,3.393-2.295
			c18.825-0.911,35.236-7.57,47.648-19.397c13.351-12.705,21.832-31.125,24.519-53.276c0.359-2.947,0.552-5.82,0.612-8.614
			C284.848,398.24,284.655,402.225,284.156,406.355z"/>
		<path fill="#C4672D" d="M122.406,410.027c-0.366,0.313-0.725,0.639-1.078,0.971l-0.486,0.466l-8.907-83.489l0.592,0.406
			c1.071,0.732,2.521,1.663,4.084,2.634L122.406,410.027z"/>
		<path fill="#C4672D" d="M141.517,327.948l-0.067,0.712l-7.237,74.662l-0.2,0.066c-0.792,0.279-1.57,0.585-2.328,0.911
			c0.053-0.033,0.113-0.066,0.166-0.093l0.14-0.073l4.876-73.152c1.556-0.971,3-1.896,4.064-2.628L141.517,327.948z"/>
		<path fill="#C4672D" d="M43.816,251.778l47.847,170.623c0,0,1.157-0.323,4.955-1.008l0,0l-6.764-19.761L54.219,264.119
			L43.816,251.778z"/>
		<polygon fill="#C4672D" points="208.722,251.778 168.358,403.722 164.568,402.079 199.184,264.625 		"/>
		<path fill="#C4672D" d="M168.135,100.01c-0.5-0.039-12.439-0.781-20.081,6.306c-6.485,6.009-7.048,15.51-7.048,18.62
			c0,0.57,0.016,0.922,0.023,1l0.109,1.867l1.633-0.914c0.016-0.008,1.961-1.078,5.649-1.711c0.633-0.109,1.297-0.203,1.985-0.305
			c3.625-0.516,7.735-1.102,11.009-4.141c3.477-3.219,4.446-7.806,5.22-11.494c0.133-0.641,0.266-1.25,0.406-1.828
			c0.813-3.454,2.024-5.634,2.031-5.657l0.914-1.617L168.135,100.01z"/>
		<path fill="#C4672D" d="M85.285,100.01c0.5-0.039,12.439-0.781,20.081,6.306c6.485,6.009,7.048,15.51,7.048,18.62
			c0,0.57-0.016,0.922-0.023,1l-0.109,1.867l-1.633-0.914c-0.016-0.008-1.961-1.078-5.649-1.711
			c-0.633-0.109-1.297-0.203-1.985-0.305c-3.625-0.516-7.735-1.102-11.009-4.141c-3.477-3.219-4.446-7.806-5.22-11.494
			c-0.133-0.641-0.266-1.25-0.406-1.828c-0.813-3.454-2.024-5.634-2.031-5.657l-0.914-1.617L85.285,100.01z"/>
	</g>
	<g>
		<path fill="#FFFFFF" d="M42.678,223.958c-3.118-3.968-5.711-8.24-7.708-12.695l-0.422-0.943l-0.207,1.011
			c-3.747,18.309,8.117,35.419,13.389,41.922c6.011,7.601,13.805,14.998,23.832,22.617l1.267,0.942
			c1.002,0.745,2.229,1.658,2.726,2.018l0.193,0.133c2.183,1.495,4.44,3.042,6.506,4.709c1.327,1.062,2.836,2.348,4.219,3.972
			c-2.032-0.514-3.879-1.314-5.452-2.051c-1.822-0.857-3.555-2.004-5.231-3.112c-0.401-0.266-0.802-0.53-1.202-0.791l-0.813-0.529
			l0.318,0.917c2.524,7.279,10.382,22.198,34.646,40.336c5.431,4.05,11.423,7.938,17.81,11.557l0.164,0.093l0.164-0.093
			c6.417-3.637,12.409-7.525,17.81-11.557c24.289-18.155,32.132-33.064,34.645-40.336l0.317-0.917l-0.813,0.53
			c-0.381,0.249-0.761,0.501-1.143,0.754c-1.695,1.122-3.447,2.282-5.282,3.149c-1.579,0.738-3.432,1.539-5.459,2.052
			c1.382-1.625,2.892-2.91,4.219-3.974c2.002-1.614,4.192-3.117,6.31-4.569l0.403-0.276c0.444-0.324,1.391-1.03,2.282-1.694
			c0.685-0.511,1.336-0.995,1.703-1.265c14.303-10.987,33.752-28.289,37.498-51.593c0.616-4.656,0.526-9.041-0.27-13.033
			l-0.204-1.022l-0.425,0.952c-2.036,4.547-4.632,8.85-7.716,12.79c-2.519,3.253-5.63,6.042-9.049,8.121
			c1.652-2.897,3.552-5.655,5.396-8.333c2.756-4,5.605-8.137,7.624-12.737c6.903-15.085,6.493-32.686-1.157-49.559
			c-3.35-7.459-7.584-14.352-12.584-20.489l-0.225-0.276l-0.26,0.242c-3.21,2.99-7.187,5.069-10.75,6.706l1.603-6.418l-0.753,0.576
			c-5.765,4.414-11.421,7.862-17.28,10.534c-1.193,0.492-3.083,1.406-4.334,2.011l-0.122,0.059
			c-8.281,4.004-15.025,10.514-21.546,16.811l-1.454,1.402c-2.78,2.499-6.188,3.666-9.452,4.554
			c-2.998,0.769-6.047,1.256-9.32,1.487l-0.198,0.014c-0.154-0.001-0.373-0.009-0.478-0.015l-0.064-0.005
			c-6.415-0.546-13.665-1.69-18.776-6.028l-1.349-1.304c-6.551-6.334-13.325-12.884-21.646-16.91
			c-0.807-0.434-1.974-0.954-3.002-1.414c-0.526-0.235-1.028-0.459-1.454-0.658c-5.863-2.677-11.52-6.124-17.292-10.539
			l-0.756-0.578l1.607,6.419c-3.582-1.653-7.57-3.742-10.744-6.704l-0.261-0.244l-0.225,0.279
			c-14.861,18.451-21.298,39.56-17.661,57.917c1.35,6.425,3.673,12.419,6.901,17.81c1.278,2.248,2.774,4.391,4.222,6.462
			c0.974,1.395,1.981,2.837,2.915,4.3l0.478,0.717c0.84,1.255,1.703,2.545,2.471,3.941
			C48.341,230.033,45.213,227.232,42.678,223.958z M48.62,155.629c-0.294,0.96-0.592,1.929-0.893,2.905
			c-4.297,13.932-9.137,29.629-6.785,44.086C34.974,189.255,40.103,169.299,48.62,155.629z M46.337,242.242
			c2.721,2.764,5.83,6.047,8.852,9.237c1.667,1.76,3.27,3.453,4.698,4.941c2.365,2.52,4.797,5.001,7.151,7.4
			c2.139,2.181,4.339,4.424,6.506,6.714C62.695,264.583,52.115,253.582,46.337,242.242z M204.802,155.632
			c8.516,13.673,13.644,33.627,7.678,46.988c2.355-14.471-2.496-30.191-6.801-44.144
			C205.383,157.521,205.09,156.573,204.802,155.632z M180.343,269.794c2.181-2.307,4.397-4.565,6.551-6.762
			c2.338-2.384,4.755-4.849,7.102-7.346c1.389-1.45,2.936-3.083,4.544-4.781c2.931-3.095,6.196-6.544,9.009-9.401
			C201.778,252.833,191.198,263.834,180.343,269.794z"/>
		<path fill="#FFFFFF" d="M39.682,246.328c-3.958,11.122-12,32.056-23.029,53.382C9.196,314.092,6.342,329.365,5.83,338.039
			c-1.311,1.809-1.171,1.59-2.189,3.186l-0.605,0.951l-0.007-1.131c-0.053-7.909,1.211-23.801,10.297-41.335
			c12.313-23.808,20.076-44.642,23.608-54.946l0.239-0.712l0.366,0.659C38.205,245.922,38.917,245.124,39.682,246.328z"/>
		<path fill="#FFFFFF" d="M8.644,356.818c-3.173,12.127-3.22,28.983,3.519,43.783c-0.279,1.849-0.446,3.586-0.545,5.095
			l-0.067,1.024l-0.545-0.865c-10.051-15.918-7.916-35.448-4.357-49.039c4.164-15.885,11.242-28.178,12.04-29.522l0.013-0.027
			C19.373,326.651,12.808,340.933,8.644,356.818z"/>
		<path fill="#FFFFFF" d="M250.517,342.456c-0.053,20.788-8.514,40.431-22.643,52.544c-1.284,1.104-2.687,2.208-4.211,3.273
			c0.539-0.426,1.051-0.851,1.55-1.277c14.129-12.113,22.59-31.757,22.643-52.544c0.013-7.763-1.091-15.785-3.293-23.834
			c-1.55-5.694-3.818-11.701-7.124-18.898c-1.656-3.619-3.446-7.264-5.169-10.783c-2.228-4.537-4.53-9.226-6.579-13.909
			c-2.641-6.033-5.142-12.133-7.444-18.14c-1.071-2.807-1.882-4.969-2.614-7.011c-0.067-0.18-0.226-0.539-0.426-0.991
			c-0.293-0.645-0.918-2.035-1.231-2.98c0.672-1.071,1.304-2.142,1.896-3.22l0.585,0.319c-0.14,0.439,0.984,2.947,1.41,3.885
			c0.2,0.452,0.359,0.812,0.426,0.991c0.732,2.042,1.543,4.204,2.614,7.011c2.302,6.007,4.803,12.107,7.444,18.14
			c2.049,4.683,4.35,9.373,6.579,13.909c1.723,3.519,3.512,7.164,5.169,10.783c3.306,7.197,5.574,13.204,7.124,18.898
			C249.426,326.671,250.53,334.693,250.517,342.456z"/>
		<path fill="#FFFFFF" d="M284.821,406.355c-2.687,22.151-11.169,40.571-24.519,53.276c-9.925,9.453-22.404,15.612-36.639,18.16
			c12.852-2.874,24.167-8.781,33.313-17.495c13.351-12.705,21.832-31.125,24.519-53.276c3.213-26.468-6.379-46.83-14.987-59.249
			c-4.656-6.725-10.883-12.579-14.488-15.998c-0.106-1.058,0.432-1.463,0.286-2.548l0.539-0.865l0.672,0.565
			c3.419,2.927,10.084,9.173,16.317,18.18C278.442,359.525,288.034,379.887,284.821,406.355z"/>
		<path fill="#FFFFFF" d="M196.89,100.661l-2.45-3.557l0.696,2.157c0.124,0.387,2.999,9.551-1.483,17.311
			c-2.848,4.931-8.043,8.234-15.439,9.821c-25.231,5.412-36.707,9.358-42.468,19.788l-0.105,0.189l0.13,0.172
			c0.518,0.689,0.521,1.528,0.008,2.566c-1.908,3.847-5.658,6.21-7.724,7.276l-0.12,0.062l-0.043,0.128
			c-0.024,0.071-0.041,0.143-0.057,0.214l-0.022,0.1l0.038,0.095c0.894,2.228,2.012,4.762,3.988,6.638
			c3.776,3.308,8.287,0.531,11.912-1.7c0.287-0.177,0.57-0.351,0.848-0.52c-2.229,3.68-6.454,6.692-10.924,5.836
			c-2.674-0.616-4.835-2.542-6.422-5.724l-0.464-0.932v-0.331l-0.083,0.165l-0.083-0.167v0.333l-0.464,0.931
			c-1.588,3.182-3.748,5.109-6.411,5.722c-4.473,0.858-8.706-2.153-10.936-5.833c0.279,0.169,0.561,0.343,0.848,0.519
			c3.625,2.231,8.136,5.007,11.924,1.692c1.966-1.867,3.084-4.401,3.978-6.629l0.035-0.112l-0.023-0.101
			c-0.015-0.066-0.031-0.131-0.053-0.196l-0.043-0.128l-0.12-0.062c-2.066-1.066-5.816-3.429-7.724-7.276
			c-0.513-1.038-0.511-1.877,0.008-2.566l0.13-0.172l-0.105-0.189c-5.761-10.429-17.238-14.375-42.469-19.788
			c-7.395-1.586-12.589-4.889-15.437-9.818c-4.482-7.758-1.608-16.928-1.484-17.314l0.695-2.157l-2.454,3.564
			c-4.313,6.586-13.351,23.244-4.165,35.644c1.651,2.192,3.881,4.169,6.629,5.876l0.698,0.434l-0.2-0.798
			c-0.488-1.941-1.027-4.107-1.49-5.965l-0.467-1.873c3.399,2.904,7.224,6.154,10.96,8.632c3.734,2.554,7.174,4.597,10.515,6.242
			c1.043,0.525,2.183,1.038,3.286,1.534c1.171,0.527,2.382,1.072,3.484,1.634c8.643,4.155,15.748,11.029,22.621,17.677l0.985,0.952
			c4.435,3.69,10.748,4.732,16.333,5.263c0.245,0.028,0.497,0.042,0.749,0.042h0.333v-0.001h0.167c0.252,0,0.504-0.014,0.743-0.041
			c5.591-0.532,11.905-1.573,16.358-5.281l0.967-0.935c6.872-6.648,13.978-13.522,22.628-17.68c1.095-0.559,2.307-1.104,3.479-1.632
			c1.102-0.496,2.242-1.009,3.282-1.532c3.342-1.646,6.782-3.688,10.514-6.24c3.739-2.48,7.564-5.731,10.963-8.635l-0.392,1.575
			c-0.479,1.921-1.05,4.217-1.564,6.262l-0.2,0.798l0.698-0.434c2.748-1.707,4.979-3.684,6.631-5.878
			C210.245,123.912,201.207,107.254,196.89,100.661z"/>
		<path fill="#FFFFFF" d="M253.218,349.667c0.559,14.648-7.37,36.759-23.615,50.682c-10.357,8.867-27.932,17.887-52.91,10.464
			c-20.215-6-36.939-5.481-48.367,1.503c-3.419,2.089-5.9,4.477-7.663,6.625c-0.605,0.066-1.224,0.126-1.843,0.193l-0.672,0.067
			l0.353-0.572c1.643-2.661,4.676-6.486,9.825-9.639c11.428-6.985,28.151-7.503,48.367-1.503
			c24.978,7.424,42.553-1.596,52.91-10.464c15.566-13.337,23.495-34.198,23.635-48.806
			C253.258,348.842,253.251,349.321,253.218,349.667z"/>
		<path fill="#FFFFFF" d="M199.52,50.426c6.88-31.421-0.563-43.017-0.71-43.257c-13.661,0.823-24.938,12.605-32.767,22.51
			c-5.927,7.277-15.912,20.009-15.499,18.785c5.894-6.659,9.885-14.555,15.499-21.446c7.829-9.905,21.054-25.577,34.99-23.129
			c0.146,0.239,0.299,0.486,0.412,0.745C204.425,10.535,211.863,30.999,199.52,50.426z"/>
		<path fill="#FFFFFF" d="M158.453,31.356c-0.093,0.14-0.186,0.279-0.273,0.419c-0.446,0.705-0.891,1.41-1.33,2.122
			c-8.96-0.346-22.983,2.993-22.983,2.993l3.233-1.47C137.227,35.36,149.134,30.331,158.453,31.356z"/>
		<path fill="#FFFFFF" d="M96.576,33.897c-0.439-0.712-0.891-1.417-1.337-2.122c-0.086-0.14-0.18-0.279-0.266-0.419
			c9.313-1.024,21.227,4.005,21.346,4.064l3.246,1.47C119.566,36.89,105.53,33.544,96.576,33.897z"/>
		<path fill="#FFFFFF" d="M137.533,27.551c-0.14,0.925-0.413,2.009-0.918,3.073c-3.2,1.41-5.721,2.215-7.457,2.674
			c-1.543,0.406-3.166,0.386-4.71-0.033c-1.889-0.512-4.736-1.39-7.65-2.641c-0.499-1.058-0.765-2.135-0.911-3.06
			c3.226,1.463,6.479,2.475,8.561,3.04c1.543,0.419,3.166,0.439,4.71,0.033C131.054,30.138,133.894,29.22,137.533,27.551z"/>
		<path fill="#FFFFFF" d="M159.989,463.491c23.881,2.857,37.554-15.486,37.554-15.486s-43.264,8.725-43.595-2.997
			c-0.232-8.226,18.325-8.692,18.325-8.692c-26.443-17.983-48.359,6.032-62.932-6.987c0,0,21.074-1.372,34.498-14.113
			c0,0-31.205,8.109-45.859,8.082c-3.126-0.007-6.652-0.013-9.918,0.625c-9.659,1.663-17.674,8.368-21.433,17.927
			c-0.04,0.093-0.073,0.186-0.106,0.279c-0.033,0.086-0.067,0.173-0.1,0.253l-0.399,0.938l0.878-0.519
			c6.399-3.805,13.058-6.08,18.912-6.486c-2.368,1.337-4.763,2.554-7.091,3.738c-5.042,2.574-9.805,4.996-14.282,8.441
			c-12.679,9.459-16.943,21.466-12.665,35.668l0.067,0.22l0.22,0.02c3.958,0.379,8.036,0.699,12.127,0.958
			c6.333,0.392,13.597,0.778,21,0.778c1.769,0,3.552-0.027,5.328-0.073c11.883-0.507,23.831-4.333,34.719-10.957
			c5.553-0.039,12.987-1.907,20.991,1.22c16.442,6.423,35.775,4.143,35.775,4.143C154.876,476.09,146.147,461.835,159.989,463.491z"
			/>
		<path fill="#FFFFFF" d="M107.293,116.521c-0.286,0.486-0.619,0.945-1.004,1.37c-1.47,1.583-3.466,2.494-5.628,2.581
			c-2.142,0.08-4.217-0.685-5.801-2.149c-3.266-3.033-3.459-8.155-0.432-11.428c0.605-0.652,1.304-1.177,2.062-1.59
			c0.938,0.306,1.889,0.679,2.814,1.144c-1.104,0.193-2.175,0.698-3.06,1.523c-0.2,0.186-0.386,0.379-0.552,0.585
			c1.031-0.02,2.049,0.386,2.807,1.191c1.41,1.523,1.324,3.898-0.193,5.315c-0.772,0.712-1.763,1.051-2.741,1.004
			c0.12,0.153,0.239,0.293,0.373,0.432c2.275,2.441,6.093,2.581,8.534,0.313c0.938-0.878,1.53-1.976,1.783-3.14
			C106.687,114.625,107.027,115.59,107.293,116.521z"/>
		<path fill="#FFFFFF" d="M164.626,104.049c-0.386,0.918-0.865,2.235-1.244,3.865c-0.126,0.506-0.239,1.044-0.353,1.603
			c-0.046,0.219-0.093,0.446-0.146,0.672c-0.379-1.723-1.204-3.319-2.435-4.65c-0.306-0.326-0.632-0.625-0.978-0.905
			C161.546,104.208,163.409,104.075,164.626,104.049z"/>
		<path fill="#FFFFFF" d="M158.553,118.324c-1.583,1.463-3.659,2.228-5.801,2.149c-2.162-0.087-4.158-0.998-5.621-2.581
			c-0.393-0.426-0.725-0.885-1.011-1.37c0.266-0.931,0.605-1.896,1.038-2.847c0.253,1.164,0.845,2.262,1.783,3.14
			c2.441,2.268,6.26,2.129,8.535-0.313c0.133-0.14,0.253-0.279,0.372-0.432c-0.978,0.047-1.969-0.293-2.734-1.004
			c-1.523-1.417-1.61-3.792-0.193-5.315c0.752-0.805,1.769-1.211,2.8-1.191c-0.166-0.206-0.352-0.399-0.545-0.585
			c-0.891-0.825-1.956-1.33-3.067-1.523c0.925-0.466,1.876-0.838,2.814-1.144c0.758,0.412,1.457,0.938,2.062,1.59
			C162.019,110.169,161.819,115.291,158.553,118.324z"/>
		<path fill="#FFFFFF" d="M148.894,121.577c-1.603,0.293-2.854,0.665-3.718,0.991c0.033-0.878,0.126-2.095,0.359-3.472
			c0.047,0.053,0.086,0.1,0.133,0.146C146.593,120.246,147.69,121.031,148.894,121.577z"/>
		<path fill="#FFFFFF" d="M108.237,122.568c-0.865-0.326-2.115-0.698-3.719-0.991c1.211-0.546,2.302-1.33,3.233-2.335
			c0.04-0.047,0.08-0.093,0.126-0.146C108.111,120.473,108.204,121.69,108.237,122.568z"/>
		<path fill="#FFFFFF" d="M93.942,104.634c-0.339,0.279-0.672,0.579-0.978,0.905c-1.231,1.33-2.049,2.927-2.435,4.65
			c-0.047-0.226-0.093-0.446-0.14-0.672c-0.12-0.559-0.233-1.098-0.353-1.603c-0.386-1.63-0.865-2.947-1.251-3.865
			C90.011,104.075,91.867,104.208,93.942,104.634z"/>
		<polygon fill="#FFFFFF" points="197.926,265.621 162.112,400.56 160.46,400.48 196.371,267.207 		"/>
		<polygon fill="#FFFFFF" points="54.565,265.451 96.726,420.155 98.105,420.155 56.6,267.593 		"/>
		<path fill="#FFFFFF" d="M53.668,50.426c-6.88-31.421,0.563-43.017,0.71-43.257c13.661,0.823,24.938,12.605,32.767,22.51
			c5.927,7.277,15.912,20.009,15.499,18.785c-5.894-6.659-9.885-14.555-15.499-21.446C79.316,17.114,66.091,1.442,52.156,3.89
			c-0.146,0.239-0.299,0.486-0.412,0.745C48.763,10.535,41.325,30.999,53.668,50.426z"/>
	</g>
	<g>
		<path fill="#C6C6C6" d="M213.565,160.79c-3.353-7.464-7.59-14.355-12.586-20.495l-0.226-0.273l-0.259,0.24
			c-2.223,2.075-6.905,3.705-10.338,5.058l1.191-4.765l-0.752,0.572c-5.767,4.417-11.422,7.863-17.282,10.537
			c-1.191,0.492-3.08,1.404-4.33,2.009l-0.126,0.06c-8.282,4.004-15.027,10.517-21.546,16.81l-1.45,1.404
			c-2.781,2.501-6.193,3.665-9.452,4.557c-3,0.765-6.047,1.251-9.319,1.483l-0.2,0.013c-0.153,0-0.373-0.007-0.479-0.013
			l-0.067-0.007c-6.413-0.546-13.663-1.69-18.772-6.027l-1.35-1.304c-6.552-6.333-13.324-12.885-21.646-16.909
			c-0.812-0.432-1.976-0.958-3.007-1.417c-0.526-0.233-1.024-0.459-1.45-0.652c-5.867-2.681-11.521-6.126-17.295-10.543
			l-0.752-0.579l1.191,4.763c-3.44-1.359-8.127-2.994-10.331-5.049l-0.259-0.24l-0.226,0.279
			c-12.772,15.852-19.324,33.679-18.606,50.03c0.625-14.974,7.084-30.865,18.606-45.167l0.226-0.279l0.259,0.246
			c3.173,2.96,10.49,7.044,14.069,8.701l-1.009-5.51c4.688,3.324,9.335,6.024,14.127,8.21c0.426,0.2,0.925,0.426,1.45,0.659
			c1.031,0.459,2.195,0.978,3.007,1.417c8.322,4.024,15.093,10.577,21.646,16.909l1.35,1.304c5.109,4.337,12.359,5.481,18.772,6.027
			l0.067,0.007c0.106,0,0.326,0.013,0.479,0.013l0.2-0.013c3.273-0.233,6.319-0.718,9.319-1.49c3.259-0.885,6.672-2.055,9.452-4.557
			l1.45-1.397c6.519-6.299,13.264-12.812,21.546-16.81l0.126-0.06c1.251-0.605,3.14-1.523,4.33-2.016
			c4.786-2.18,9.431-4.884,14.114-8.2l-1.009,5.506c3.565-1.636,10.863-5.707,14.076-8.701l0.259-0.239l0.226,0.273
			c4.996,6.14,9.233,13.031,12.586,20.488c3.665,8.095,5.668,16.351,5.993,24.413C219.978,180.474,217.975,170.509,213.565,160.79z"
			/>
		<path fill="#C6C6C6" d="M219.366,224.277c-3.752,23.302-23.196,40.604-37.504,51.593c-0.366,0.266-1.018,0.752-1.696,1.264
			c-0.539,0.406-1.104,0.825-1.563,1.164c0.181-0.448,16.029-14.374,27.925-31.308c6.485-9.231,11.515-20.199,12.839-28.421
			c0.133-1.011,0.233-2.016,0.299-3.007C219.865,218.33,219.765,221.244,219.366,224.277z"/>
		<path fill="#C6C6C6" d="M179.647,281.158l-0.319,0.918c-2.514,7.271-10.357,22.184-34.643,40.338
			c-5.401,4.031-11.395,7.923-17.807,11.555l-0.166,0.093l-0.166-0.093c-6.386-3.619-12.373-7.503-17.807-11.555
			c-24.266-18.14-32.123-33.054-34.644-40.338l-0.319-0.911l0.812,0.525c0.399,0.26,0.805,0.526,1.204,0.792
			c0.499,0.333,1.011,0.665,1.523,0.991c4.463,8.109,13.43,19.79,31.424,33.233c5.435,4.051,11.421,6.612,17.807,10.231
			c0,0,12.739-6.2,18.14-10.231c18-13.45,26.967-25.125,31.424-33.227c0.532-0.346,1.064-0.692,1.583-1.038
			c0.379-0.253,0.758-0.506,1.144-0.752L179.647,281.158z"/>
		<path fill="#C6C6C6" d="M74.818,278.285c-0.579-0.426-1.33-0.984-1.989-1.47l-1.271-0.945
			c-10.025-7.616-17.821-15.014-23.827-22.617c-4.856-5.987-15.28-20.947-14.002-37.557c1.071,14.262,9.712,28.557,14.002,33.845
			C53.738,257.144,74.532,277.599,74.818,278.285z"/>
		<path fill="#C6C6C6" d="M119.95,228.942c7.726,1.221,15.939-1.07,21.917-6.114c3.688-3.112,6.487-7.139,9.952-10.497
			c5.107-4.949,11.67-8.375,18.65-9.736c-8.818,4.216-14.895,13.636-15.101,23.407c-0.065,3.096,0.539,6.449,2.794,8.572
			c1.655,1.558,3.988,2.226,6.26,2.314c7.827,0.302,15.192-6.659,15.332-14.491c2.429,10.699-0.511,22.479-7.683,30.781
			c-7.172,8.302-18.4,12.923-29.338,12.074c8.732,3.09,13.439,14.39,9.484,22.766c-5.26,11.139-22.038,15.404-23.187,27.669
			c-2.262-3.793-0.74-8.692,1.379-12.567c2.119-3.875,4.87-7.697,5.012-12.111c0.244-7.584-9.326-13.499-16-9.889
			s-6.96,14.858-0.479,18.803c-5.767-2.581-11.716-5.293-15.919-10.01c-4.204-4.717-6.185-12.033-2.946-17.459
			c2.4-4.021,7.312-6.618,8.154-11.224c-9.848,0.482-19.788-4.513-25.279-12.702c-5.491-8.189-6.337-19.282-2.152-28.209
			c-1.349,6.219,4.514,12.879,10.854,12.33c7.606-0.658,6.062-9.224,11.053-11.124C105.784,220.354,115.493,228.237,119.95,228.942z
			"/>
	</g>
	<path fill="#231F20" d="M26.265,398.04c8.268,15.606,14.92,31.996,25.909,45.979C38.83,434.846,29.345,413.613,26.265,398.04z
		 M89.652,77.158c6.231,4.584,10.985,10.568,17.02,15.368C104.067,85.915,97.029,78.001,89.652,77.158z M166.256,102.073
		l1.577,0.107l-0.778,1.377c-0.007,0.02-1.038,1.876-1.729,4.816c-0.12,0.492-0.233,1.011-0.346,1.557
		c-0.659,3.14-1.483,7.045-4.444,9.785c-2.787,2.588-6.286,3.087-9.373,3.526c-0.585,0.086-1.151,0.166-1.69,0.259
		c-3.14,0.539-4.796,1.45-4.809,1.457l-1.39,0.778l-0.093-1.59c-0.007-0.066-0.02-0.366-0.02-0.851c0-2.647,0.479-10.736,6-15.852
		C155.666,101.408,165.83,102.04,166.256,102.073z M157.362,105.166c0.279-0.047,0.539-0.113,0.772-0.22
		C157.881,105.013,157.622,105.093,157.362,105.166z M148.894,121.577c-1.204-0.546-2.302-1.33-3.226-2.335
		c-0.047-0.047-0.087-0.093-0.133-0.146c-0.233,1.377-0.326,2.594-0.359,3.472C146.041,122.242,147.291,121.869,148.894,121.577z
		 M158.986,106.896c-0.605-0.652-1.304-1.177-2.062-1.59c-0.938,0.306-1.889,0.679-2.814,1.144c1.111,0.193,2.175,0.698,3.067,1.523
		c0.193,0.186,0.379,0.379,0.545,0.585c-1.031-0.02-2.049,0.386-2.8,1.191c-1.417,1.523-1.33,3.898,0.193,5.315
		c0.765,0.712,1.756,1.051,2.734,1.004c-0.12,0.153-0.24,0.293-0.373,0.432c-2.275,2.441-6.093,2.581-8.535,0.313
		c-0.938-0.878-1.53-1.976-1.783-3.14c-0.432,0.951-0.772,1.916-1.038,2.847c0.286,0.486,0.619,0.945,1.011,1.37
		c1.463,1.583,3.459,2.494,5.621,2.581c2.142,0.08,4.217-0.685,5.801-2.149C161.819,115.291,162.019,110.169,158.986,106.896z
		 M164.626,104.049c-1.217,0.027-3.08,0.16-5.155,0.585c0.346,0.279,0.672,0.579,0.978,0.905c1.231,1.33,2.056,2.927,2.435,4.65
		c0.053-0.226,0.1-0.452,0.146-0.672c0.113-0.559,0.226-1.098,0.353-1.603C163.762,106.284,164.241,104.967,164.626,104.049z
		 M211.709,204.88c8.421-14.794,1.038-38.202-7.909-51.4C208.629,169.518,215.401,188.117,211.709,204.88z M155.251,70.442
		c-8.343,4.741-13.379,17.477-14.221,26.661c0.667-1.131,1.214-2.288,1.769-3.439C146.703,85.78,149.913,77.501,155.251,70.442z
		 M146.843,92.526c6.035-4.799,10.79-10.785,17.02-15.368C156.483,78.001,149.446,85.919,146.843,92.526z M231.326,383.552
		c3.905-4.37,7.131-9.532,9.432-14.927c2.947-6.925,4.63-14.422,4.936-21.852c-1.736,6.825-3.931,13.37-6.891,19.597
		c-8.355,17.408-23.994,29.907-42.613,34.89C209.6,400.402,222.419,393.564,231.326,383.552z M88.095,108.373
		c-0.692-2.94-1.73-4.796-1.736-4.816l-0.772-1.377l1.57-0.107c0.432-0.033,10.59-0.665,17.096,5.368
		c6.539,6.053,6.013,16.271,5.987,16.703l-0.093,1.603l-1.397-0.792c-0.013-0.007-1.67-0.918-4.809-1.457
		c-0.539-0.093-1.104-0.173-1.69-0.259c-3.086-0.439-6.579-0.938-9.373-3.526c-2.96-2.741-3.778-6.645-4.443-9.785
		C88.321,109.39,88.208,108.865,88.095,108.373z M107.752,119.242c-0.931,1.004-2.022,1.789-3.233,2.335
		c1.603,0.293,2.854,0.665,3.719,0.991c-0.033-0.878-0.126-2.095-0.359-3.472C107.832,119.149,107.792,119.195,107.752,119.242z
		 M95.279,104.947c0.233,0.106,0.492,0.173,0.772,0.22C95.792,105.093,95.532,105.013,95.279,104.947z M94.428,106.896
		c-3.027,3.273-2.834,8.395,0.432,11.428c1.583,1.463,3.659,2.228,5.801,2.149c2.162-0.087,4.158-0.998,5.628-2.581
		c0.386-0.426,0.718-0.885,1.004-1.37c-0.266-0.931-0.605-1.896-1.038-2.847c-0.253,1.164-0.845,2.262-1.783,3.14
		c-2.441,2.268-6.26,2.129-8.535-0.313c-0.133-0.14-0.253-0.279-0.373-0.432c0.978,0.047,1.969-0.293,2.741-1.004
		c1.517-1.417,1.603-3.792,0.193-5.315c-0.758-0.805-1.776-1.211-2.807-1.191c0.166-0.206,0.353-0.399,0.552-0.585
		c0.885-0.825,1.956-1.33,3.06-1.523c-0.925-0.466-1.876-0.838-2.814-1.144C95.732,105.718,95.033,106.244,94.428,106.896z
		 M88.787,104.049c0.386,0.918,0.865,2.235,1.25,3.865c0.12,0.506,0.233,1.044,0.353,1.603c0.047,0.226,0.093,0.446,0.14,0.672
		c0.386-1.723,1.204-3.319,2.435-4.65c0.306-0.326,0.639-0.625,0.978-0.905C91.867,104.208,90.011,104.075,88.787,104.049z
		 M287.123,406.715c-3.053,25.165-13.098,45.393-29.049,58.491c-13.55,11.135-30.945,16.929-50.615,16.936
		c-1.856,0-3.732-0.067-5.628-0.166c-8.821,4.051-18.486,6.206-28.105,7.197c-14.96,1.676-29.462-3.878-44.076-5.295
		c-4.956-0.439-9.925-0.293-14.807,0.546c-8.707,3.632-18.053,5.654-27.559,5.574c-3.253-0.04-6.812-0.093-10.038-0.246
		c-9.233-0.366-18.386-1.31-27.559-2.561l-0.406-0.991c-4.683-10.962-3.532-22.67,3.566-31.883
		c-21.918-12.539-32.801-46.657-36.28-59.855c-2.342,7.863-2.089,16.071-2.082,16.171l0.173,5.016l-3.133-3.911
		c-11.036-13.776-13.716-33.054-7.75-55.75c2.036-7.77,4.73-14.641,7.078-19.869c-4.231,5.541-7.35,11.135-7.397,11.222
		l-2.401,4.337l-0.698-4.909c-0.133-0.911-3.033-22.65,10.311-48.433c14.262-27.566,22.384-51.26,24.466-57.633
		c-2.295-4.989-3.951-10.291-4.736-15.951c-0.712-6.28-0.24-12.838,2.169-18.732c-4.982-14.894-3.605-31.078,3.645-46.231
		c3.659-7.73,8.348-14.874,14.169-21.14c-0.14-0.18-0.279-0.353-0.413-0.532c-7.018-9.386-4.996-21.419-0.199-31.564
		c-4.071,3.259-8.555,6.852-11.029,8.827c2.135-3.785,5.668-9.599,7.297-13.563c7.111-16.277,9.905-35.242,4.084-52.318
		c-3.898-10.969-6.399-22.75-4.736-34.437c0.765-4.936,2.095-9.991,5.002-14.149c16.45-5.029,31.397,11.9,40.198,23.701
		c1.044,1.43,2.056,2.88,3.04,4.35c6.905-1.264,14.794,0.745,19.61,2.375c-1.058-3.073-0.805-5.82-0.785-5.987l0.239-2.435
		l2.175,1.118c3.692,1.909,7.038,3.087,9.339,3.765c1.73,0.512,3.566,0.499,5.288-0.027c2.115-0.652,5.189-1.783,9.08-3.745
		l2.162-1.084l0.246,2.408c0.013,0.166,0.266,2.913-0.792,5.987c4.816-1.63,12.705-3.639,19.61-2.375
		c0.984-1.463,1.996-2.92,3.04-4.35c8.821-11.821,23.741-28.723,40.198-23.701c2.913,4.157,4.237,9.213,5.009,14.149
		c1.663,11.688-0.845,23.468-4.743,34.437c-5.82,17.076-3.027,36.041,4.084,52.318c1.65,3.938,5.182,9.838,7.297,13.563
		c-2.455-1.969-6.951-5.561-11.029-8.827c4.803,10.144,6.818,22.178-0.193,31.564c-0.133,0.18-0.273,0.353-0.412,0.526
		c11.834,12.971,20.049,29.661,20.787,47.422c0.259,6.805-0.825,13.57-2.993,19.976c3.299,8.029,3.066,17.255,0.831,25.544
		c-0.898,3.153-2.049,6.18-3.393,9.093c2.062,6.326,10.191,30.054,24.479,57.659c3.792,7.331,6.732,15.14,8.441,23.222
		c0.18,0.851,0.359,1.723,0.812,2.461c0.426,0.679,1.051,1.191,1.663,1.703c2.322,1.929,4.543,3.971,6.672,6.107
		c4.184,4.197,7.956,8.747,11.269,13.583C283.824,363.231,289.777,384.863,287.123,406.715z M217.982,249.994
		c-0.266-0.732-2.162-4.517-1.816-5.149c-1.868,3.386-8.736,12.049-13.572,17.956l-19.212,66.418l-17.858,72.506
		c3.739,0.672,7.736,1.623,12.02,2.894c23.688,7.038,40.324-1.483,50.11-9.872c14.847-12.725,22.484-33.027,22.53-52.291
		c0.013-8.022-1.171-16.018-3.279-23.748c-1.776-6.506-4.297-12.732-7.104-18.845c-3.798-8.282-8.109-16.371-11.754-24.699
		c-2.621-5.993-5.109-12.047-7.45-18.153C219.705,254.677,218.827,252.342,217.982,249.994z M52.62,136.111
		c1.743,2.315,4.011,4.224,6.539,5.794c-0.778-3.1-1.69-6.772-2.209-8.847c3.645,3.113,7.71,6.625,11.721,9.286
		c3.366,2.302,6.832,4.424,10.477,6.22c2.142,1.078,4.63,2.075,6.765,3.166c3.947,1.897,7.594,4.379,11.035,7.135
		c5.776,0.033,11.507-0.348,17.303-0.676c-4.313,1.331-9.586,2.318-14.984,2.601c3.618,3.094,7.022,6.425,10.321,9.612
		c4.324,3.599,10.563,4.656,16.158,5.189c0.645,0.06,1.29,0.06,1.936,0c5.588-0.525,11.827-1.596,16.151-5.189
		c3.291-3.176,6.683-6.495,10.286-9.58c-5.627-0.234-11.157-1.247-15.648-2.633c6.033,0.341,11.996,0.739,18.013,0.668
		c3.437-2.753,7.08-5.232,11.023-7.127c2.135-1.091,4.623-2.095,6.765-3.166c3.645-1.796,7.118-3.918,10.484-6.213
		c3.998-2.667,8.082-6.166,11.721-9.293c-0.512,2.069-1.437,5.754-2.215,8.847c2.528-1.57,4.803-3.472,6.539-5.794
		c7.909-10.683,2.368-25.258-4.177-35.262l-6.373-9.28c3.293,2.641,9.033,7.224,13.883,11.109c-0.851-1.969-1.63-3.971-2.355-6.027
		c-4.63-13.191-6.479-27.646-3.499-41.429c0.659-3.293,1.876-6.852,2.967-10.038c1.743-5.315,3.073-10.823,3.645-16.371
		c0.831-8.182,0.293-16.77-3.446-24.18c-0.113-0.259-0.266-0.506-0.412-0.745c-13.936-2.448-27.16,13.224-34.99,23.129
		c-5.927,7.277-10.044,15.665-16.503,22.55c1.231-6.359,4.583-11.767,7.976-17.129c0.086-0.14,0.18-0.279,0.273-0.419
		c-9.319-1.024-20.561,4.005-20.688,4.064l-7.41,3.359l5.501-6c1.49-1.63,2.102-3.652,2.342-5.228
		c-3.639,1.67-6.479,2.588-8.375,3.087c-1.543,0.406-3.166,0.386-4.71-0.033c-2.082-0.565-5.335-1.577-8.561-3.04
		c0.246,1.57,0.858,3.592,2.348,5.215l5.495,6l-7.41-3.359c-0.12-0.06-11.368-5.089-20.681-4.064c0.086,0.14,0.18,0.279,0.266,0.419
		c3.399,5.362,6.752,10.77,7.976,17.129c-6.452-6.885-10.577-15.273-16.504-22.55c-7.823-9.905-21.04-25.55-34.949-23.136
		c-2.082,3.532-3.133,7.603-3.752,11.648c-1.583,11.095,0.865,22.431,4.596,32.901c0.745,2.169,1.397,4.55,1.869,6.792
		c2.987,13.783,1.137,28.238-3.492,41.429c-0.732,2.055-1.51,4.051-2.361,6.027c4.849-3.878,10.577-8.455,13.889-11.109l-6.379,9.28
		C50.252,110.847,44.711,125.435,52.62,136.111z M47.99,253.047c6.785,8.581,15.067,15.945,23.768,22.557
		c0.738,0.545,3.233,2.408,3.985,2.953c2.262,1.55,4.583,3.133,6.719,4.856c1.736,1.39,3.412,2.88,4.876,4.769
		c-2.315-0.466-4.417-1.33-6.459-2.288c-2.275-1.071-4.364-2.554-6.472-3.925c2.415,6.965,10.138,21.945,34.531,40.178
		c5.415,4.038,11.388,7.916,17.774,11.534c6.386-3.619,12.366-7.497,17.774-11.534c24.393-18.233,32.123-33.213,34.53-40.178
		c-2.102,1.37-4.197,2.854-6.466,3.925c-2.049,0.958-4.151,1.823-6.466,2.288c1.463-1.889,3.14-3.379,4.876-4.769
		c2.135-1.723,4.457-3.299,6.725-4.856c0.785-0.572,3.146-2.342,3.978-2.953c16.816-12.918,33.865-29.568,37.371-51.373
		c0.565-4.271,0.579-8.688-0.266-12.925c-2.049,4.577-4.663,8.907-7.756,12.858c-2.767,3.572-6.233,6.612-10.191,8.814
		c4.164-7.69,10.078-14.089,13.597-22.105c7.297-15.945,5.987-33.526-1.157-49.285c-3.259-7.257-7.503-14.235-12.539-20.415
		c-3.293,3.067-7.404,5.215-11.468,7.051l0.865-3.432c0,0,0.366-1.47,0.679-2.734c-5.395,4.131-11.142,7.743-17.355,10.577
		c-1.224,0.506-3.24,1.483-4.437,2.062c-2.35,1.136-4.571,2.478-6.702,3.957c4.692-0.312,9.331-1.052,13.776-2.795
		c-4.45,3.158-10.448,4.613-16.69,4.941c-4.716,3.67-9.02,7.933-13.307,12.058c-2.761,2.481-6.146,3.692-9.592,4.63
		c-3.113,0.798-6.186,1.27-9.379,1.497c-0.007,0.033-0.792,0-0.792-0.007c-6.572-0.559-13.823-1.743-18.978-6.12
		c-4.273-4.12-8.562-8.364-13.259-12.024c-6.506-0.248-12.807-1.691-17.436-4.975c4.686,1.838,9.589,2.559,14.541,2.841
		c-2.15-1.495-4.393-2.853-6.768-4.002c-1.197-0.645-3.173-1.47-4.437-2.062c-6.206-2.834-11.954-6.446-17.355-10.577l0.685,2.734
		l0.858,3.432c-4.058-1.843-8.175-3.985-11.461-7.051c-12.858,15.965-21.686,36.992-17.595,57.64
		c1.304,6.206,3.599,12.26,6.865,17.714c2.129,3.745,4.809,7.111,7.124,10.743c1.211,1.823,2.468,3.619,3.499,5.707
		c-3.958-2.202-7.417-5.242-10.184-8.814c-3.193-4.064-5.767-8.342-7.75-12.765C31.653,226.119,38.757,241.659,47.99,253.047z
		 M126.71,337.494c0,0-10.098-5.92-14.368-8.841l8.761,82.106c1.503-1.423,3.306-2.86,5.455-4.191
		c2.022-1.257,4.457-2.468,7.344-3.492l7.217-74.449C136.841,331.56,126.71,337.494,126.71,337.494z M55.055,451.742
		c0.08-0.087,0.153-0.166,0.233-0.253c2.036-2.115,4.424-4.177,7.045-6.073c0.386-1.617,0.898-3.12,1.523-4.683
		c3.998-10.198,12.772-17.881,23.655-19.75c2.102-0.419,4.31-0.572,6.506-0.645L67.576,319.72l-16.575-56.426
		c-4.476-5.482-11.711-14.719-13.755-18.423c-3.173,9.26-11.029,30.639-23.628,54.992C4.566,317.345,3.309,333.17,3.362,341.046
		c2.987-4.683,7.976-11.734,13.171-15.765l7.005-5.428l-4.557,7.597c-0.073,0.126-7.676,12.918-12.014,29.455
		c-3.632,13.869-5.581,33.094,4.317,48.772c0.306-4.623,1.27-11.595,4.144-17.521l2.122-4.377l0.998,4.763
		C18.655,389.04,29.112,437.487,55.055,451.742z M268.896,347.292c-6.073-8.774-12.506-14.901-16.264-18.113
		c0.286,2.069,0.479,3.998,0.599,5.754c14.661,13.577,24.26,32.548,26.661,52.365c2.122,17.588-1.876,35.888-10.73,51.114
		c5.501-15.233,8.98-31.125,7.497-47.262c-1.091-11.328-4.463-22.411-9.838-32.455c-3.652-6.858-8.135-13.424-13.404-19.164
		c0.033,3.413,0.246,5.814,0.133,6.798c0.539,14.096-6.778,36.413-23.734,50.948c-10.41,8.92-28.098,17.994-53.216,10.53
		c-20.122-5.973-36.752-5.468-48.101,1.47c-5.149,3.146-8.142,6.978-9.712,9.526c8.368-0.851,16.683-1.936,25.051-3.586
		c-13.989,7.384-30.34,8.448-45.859,8.415c-3.233-0.007-6.692,0-9.858,0.619c-9.805,1.69-17.575,8.548-21.187,17.734
		c-0.073,0.173-0.133,0.359-0.206,0.532c6.432-3.825,13.716-6.466,20.442-6.592c-7.71,4.49-15.586,7.497-22.53,12.838
		c-12.08,9.013-16.889,20.881-12.546,35.309c4.018,0.386,8.075,0.705,12.113,0.958c8.741,0.546,17.541,0.945,26.295,0.705
		c17.328-0.738,33.832-8.461,46.737-19.896c3.306-2.84,6.585-5.668,10.157-8.488c-1.763,4.217-4.69,7.783-7.916,10.949
		c-1.869,1.776-3.838,3.472-5.874,5.075c7.191-0.146,14.355,1.736,21.193,3.798c8.807,2.634,18.027,3.446,27.2,3.299
		c-8.022,1.61-16.43,1.876-24.532,0.519c-5.674-1.038-11.295-2.781-16.89-3.472c-4.184-0.565-8.388-0.679-12.506-0.146
		c-1.397,0.918-2.82,1.796-4.271,2.628c7.477-0.186,15.04,1.024,22.251,2.495c7.829,1.543,15.499,3.04,23.415,2.84
		c12.965-0.652,26.156-3.592,37.431-10.151c9.193-5.308,15.932-13.231,21.419-22.344c-1.184,11.255-10.517,19.69-19.55,25.437
		c-0.299,0.186-0.599,0.353-0.898,0.532c41.635-0.18,70.485-27.433,75.952-72.493C287.023,379.954,277.471,359.665,268.896,347.292z
		 M194.574,13.794c0.326-0.126,0.672-0.259,1.011-0.386c0.459,1.849,0.772,3.785,0.978,5.668c0.506,4.903,0.206,9.892-1.051,14.648
		c-0.659,2.448-1.63,4.936-2.282,7.377c-1.457,5.095-2.441,10.304-3.06,15.532c-0.652,5.235-0.812,10.59,0.619,15.745
		c2.588-10.138,3.033-20.269,6.299-30.134c0.526-1.776,1.244-3.725,1.836-5.488c1.044-3.246,1.709-6.639,1.862-10.045
		c0.346-5.94-0.738-11.847-2.987-17.355l-1.443,0.286c-13.909,2.727-30.526,16.85-32.442,31.331c2.554-3.047,4.67-6.08,6.918-9.02
		C176.906,23.872,185.221,17.586,194.574,13.794z M63.25,56.633c-0.612-5.228-1.596-10.437-3.06-15.532
		c-0.645-2.441-1.616-4.929-2.275-7.377c-1.257-4.756-1.563-9.745-1.058-14.648c0.213-1.882,0.526-3.812,0.984-5.668
		c0.339,0.126,0.679,0.259,1.011,0.386c9.346,3.792,17.661,10.078,23.734,18.16c2.248,2.94,4.37,5.973,6.918,9.02
		C87.59,26.486,70.973,12.371,57.07,9.644l-1.45-0.286c-2.248,5.508-3.333,11.415-2.987,17.355c0.16,3.406,0.818,6.798,1.863,10.045
		c0.592,1.763,1.317,3.719,1.836,5.488c3.266,9.858,3.719,19.996,6.299,30.134C64.062,67.223,63.909,61.875,63.25,56.633z
		 M75.13,271.739c-4.962-5.335-10.045-10.264-15-15.546c-4.417-4.603-10.49-11.142-14.967-15.606
		C50.891,252.96,62.911,265.666,75.13,271.739z M41.711,204.88c-3.692-16.77,3.086-35.362,7.909-51.4
		C40.666,166.684,33.296,190.092,41.711,204.88z M208.723,239.849c-4.503,4.49-10.537,10.982-14.967,15.606
		c-4.956,5.275-10.038,10.211-15,15.546C190.975,264.921,203.002,252.215,208.723,239.849z M112.485,97.104
		c-0.844-9.193-5.881-21.921-14.221-26.661c5.338,7.059,8.548,15.338,12.452,23.223C111.271,94.815,111.818,95.973,112.485,97.104z
		 M119.812,167.562c3.346-0.772,5.515-3.419,6.898-6.433c1.39,3.013,3.559,5.661,6.898,6.433c5.062,0.971,9.765-2.747,11.867-7.058
		c-5.129,3.12-11.149,7.523-15.22,0.639c-0.818-1.297-1.477-2.761-2.089-4.271c0.02-0.067,0.033-0.126,0.047-0.193
		c2.122-1.091,5.92-3.492,7.876-7.424c2.754-5.541-9.027-5.322-9.379-5.308c-0.346-0.013-12.127-0.233-9.373,5.308
		c1.949,3.931,5.754,6.333,7.869,7.424c0.02,0.06,0.033,0.12,0.047,0.18c-0.971,2.421-2.042,4.749-3.898,6.512
		c-4.231,3.705-9.399-0.599-13.41-2.867C110.047,164.815,114.75,168.533,119.812,167.562z M117.883,161.815
		c0.756,0,1.369-0.613,1.369-1.369c0-0.756-0.613-1.369-1.369-1.369s-1.369,0.613-1.369,1.369
		C116.514,161.202,117.127,161.815,117.883,161.815z M120.677,156.417c0-0.756-0.613-1.369-1.369-1.369s-1.369,0.613-1.369,1.369
		c0,0.756,0.613,1.369,1.369,1.369S120.677,157.173,120.677,156.417z M177.175,142.632c-8.746,5.642-18.586,8.974-28.658,11.278
		c-3.364,0.767-6.753,1.452-10.195,2.066C151.665,156.492,167.579,152.278,177.175,142.632z M134.979,161.815
		c0.756,0,1.369-0.613,1.369-1.369c0-0.756-0.613-1.369-1.369-1.369c-0.756,0-1.369,0.613-1.369,1.369
		C133.61,161.202,134.223,161.815,134.979,161.815z M134.923,156.417c0-0.756-0.613-1.369-1.369-1.369
		c-0.756,0-1.369,0.613-1.369,1.369c0,0.756,0.613,1.369,1.369,1.369C134.311,157.786,134.923,157.173,134.923,156.417z
		 M75.547,142.632c9.599,9.648,25.512,13.859,38.853,13.343c-3.442-0.614-6.832-1.299-10.195-2.065
		C94.133,151.607,84.292,148.274,75.547,142.632z"/>
</g>
</svg>
