<?xml version="1.0" encoding="utf-8"?>
<!-- Generator: Adobe Illustrator 28.3.0, SVG Export Plug-In . SVG Version: 6.00 Build 0)  -->
<svg version="1.1" id="grizzly_00000114776825222709996130000006478006529305240749_"
	 xmlns="http://www.w3.org/2000/svg" xmlns:xlink="http://www.w3.org/1999/xlink" x="0px" y="0px" viewBox="0 0 490 467.4"
	 style="enable-background:new 0 0 490 467.4;" xml:space="preserve">
<style type="text/css">
	.st0{fill:#D69A72;}
	.st1{fill:#FFCEA6;}
	.st2{fill:#AD704E;}
	.st3{fill:#FFFFFF;}
	.st4{fill:#231F20;}
</style>
<g id="grizzly">
	<g>
		<path class="st0" d="M262.6,426.3c0.7-1.8,1.6-3.5,2.6-4.9c1.9-2.6,4-4.4,6.3-5.2l0.3-0.1l0.1-0.3c0.5-2.4,1-5.1,1.5-8.4l0.3-2.4
			c0,0,0-0.1,0-0.1c0.2-1.8,0.4-3.2,0.6-4.6c0-0.2,0.1-0.4,0.1-0.6c0.1-0.6,0.1-1.2,0.2-1.8c0.1-1,0.2-1.9,0.3-2.9
			c0.1-0.7,0.1-1.3,0.2-2c0,0,0-0.1,0-0.1l0.1-1.4c0-0.1,0-0.3,0-0.4c0.1-0.9,0.1-1.9,0.2-2.8l0-0.4l0,0l0-2.5l-6.4,12.8l-0.2,0.4
			c-0.1,0.3-0.3,0.5-0.4,0.7l-0.7-4.2c-0.1-0.9-0.3-1.9-0.4-2.9c-0.3-2.6-0.4-5.2-0.5-7.8c0-4.3,0.2-8.4,0.6-12.3
			c0.1-1.3,0.2-2.5,0.4-3.7l0-0.3c0,0,0,0,0,0l0-0.3c0.1-0.5,0.1-1,0.2-1.5c0.8-6.6,1.9-13.2,3.4-20l0-0.1l0.7-2.3l-1.8,1.9
			c-0.4,0.4-0.7,0.8-1.2,1.2c-3.2,3.2-7.5,6.2-11.3,8.8c0.7-2,1.6-4.5,2.4-7.1c0-0.1,0.1-0.2,0.1-0.2c0,0,0-0.1,0-0.1
			c1.5-4.6,2.6-8.7,3.3-12.4c0.3-1.3,0.5-2.4,0.7-3.5c0-0.1,0-0.1,0-0.2c0.1-0.4,0.1-0.7,0.2-1.1c1.3-7.2,2.1-14.9,2.5-23l0-0.1
			l0-0.3c0-0.1,0-0.3,0-0.4c0-0.3,0-0.6,0-0.9V306c0-0.6,0-1.2,0.1-1.9c0.1-3.6,0.1-7.4,0.1-11.1l0-0.8v-1.7l-0.1,0.1l0-0.3l-1,2.2
			l-0.1,0.2c-1.2,2.2-2.3,4.7-3.7,7.8c-0.9,2-1.9,4.6-2.8,6.9l-0.2,0.5c-0.7-1.2-1.2-1.9-1.4-2.2l0,0l-0.1-0.2
			c-4.9-7.2-7.8-16.3-8.8-28c-0.6-9.2-0.9-18.2,1.7-26.4c0.4,3.8,0.5,7.6,0.6,11.4c0.1,4.8,0.3,9.8,0.9,14.7
			c1.2,9.3,3.1,16.7,6,23.1l0.6,1.3l0.5-1.3c0.1-0.3,0.2-0.5,0.3-0.8c2.4-5.4,4.5-9.9,7.5-14.2l2.3-3.3l0.2,4
			c0.9,17.7-0.3,34.5-3.4,50.1c-0.7,3.2-1.5,6.6-2.6,10l-0.6,2l1.6-1.4c2.1-1.8,4-3.7,5.7-5.6c1.6-1.7,4.5-6.1,6.8-9.5l0.4-0.6
			c-2.5,10.1-5.5,23-7,35.4c-0.8,6.3-1.5,13.8-1.1,21.2l0.1,2.3l9.1-18.3c0,0.8-0.1,1.5-0.1,2.3c-0.1,1.5-0.1,3-0.2,4.5
			c-0.2,3.2-0.3,6.2-0.5,9.1c-0.5,7.6-1.2,14.2-2.1,20.2c-0.4,2.8-0.8,5.2-1.3,7.5l0,0.6l0.5,0.1c0.9,0.2,1.8,0.6,2.6,1.3l0.4,0.3
			l0.4-0.3c0.2-0.2,0.4-0.3,0.6-0.4c0.6-0.4,1-0.7,1.5-1c2-1.1,4.1-1.5,6.1-1c0.7,0.2,1.4,0.4,2.1,0.8l0.4,0.3l0.3-0.4
			c1.7-1.9,3.8-3,6-3c2.4-0.1,4.8,1.2,6.9,3.7l0.3,0.4l0.4-0.2c0.4-0.2,0.7-0.3,1.1-0.4c3.4-0.9,7.2,0.6,10.6,4.3l0.3,0.4l0.4-0.2
			c2.2-1.2,4.4-1.5,6.4-1l0,0l0.2,0c0.7,0.2,1.4,0.6,2.2,1.1l0.6,0.4l0.3-0.6c11.5-20,14.7-39.6,14.7-39.8l0.8-5l4.9,11.9l0.6-1.2
			c10.9-21.5,8.8-62,8.7-63.7l-0.4-6.3l7,13l0.5-1.3c9-24.6,2.2-62.5,2.1-62.8l-1.2-6.8l10.3,15.8l0.2-1.6
			c2.7-17.8-0.6-37.2-3.8-50.2c-2.2-8.7-4.1-14.2-4.2-14.4l-1.9-5.1l13.1,11.3l-0.1-1.5c-3.7-39.5-21.2-68.2-31.3-81.7
			c-1-1.3-2-2.6-2.9-3.8l-0.9-1.1l-0.2,1.4c-1.9,15.2-8.4,27-19.4,35.1l-2.3,1.7l0.1-2.9c0-1.1-0.1-3-0.5-4.9l-0.5-2.2l-0.7,2.2
			c-3.1,10.1-11.9,28.5-36,37.5l-3,1.1l1.2-3c0.1-0.2,1.6-3.9-0.4-7.1l-0.5-0.8l-0.5,0.8c-2.9,4.6-9.4,12.8-20.3,16.7
			c-8.6,3.1-12.1,9.3-12.3,9.6l-1.3,2.4l-1.2-2.4c0-0.1-3.4-6.4-12.2-9.6c-10.9-4-17.4-12.2-20.3-16.7l-0.5-0.8l-0.5,0.8
			c-2,3.2-0.5,7-0.4,7.1l1.2,2.9l-3-1.1c-24.1-9-32.9-27.4-36-37.5l-0.7-2.2l-0.5,2.2c-0.4,1.9-0.6,3.8-0.5,4.9l0.1,2.9l-2.3-1.7
			c-10.9-8.1-17.5-19.9-19.4-35.1l-0.2-1.4l-0.9,1.1c-1,1.2-1.9,2.5-2.9,3.8l-0.1,0.1c-10.1,13.6-27.5,42.2-31.2,81.6l-0.1,1.5
			l13.1-11.3l-1.9,5.1c-0.5,1.4-12.4,35.3-8,64.6l0.2,1.6l10.3-15.8l-1.2,6.8c-0.1,0.4-6.8,38.2,2.1,62.8l0.5,1.3l7-13l-0.4,6.3
			c-0.1,1.7-2.2,42.1,8.7,63.7l0.6,1.2l4.9-11.9l0.8,5c0,0.2,3.3,20,14.7,39.8l0.3,0.6l0.6-0.4c0.7-0.5,1.4-0.9,2.1-1.1l0.1,0
			c2-0.6,4.2-0.3,6.4,1l0.4,0.2l0.3-0.4c3.3-3.7,7.2-5.2,10.6-4.3c0.4,0.1,0.8,0.3,1.1,0.4l0.4,0.2l0.3-0.4c2-2.5,4.4-3.7,6.9-3.7
			c2.2,0,4.2,1.1,5.9,3l0.3,0.4l0.4-0.3c0.6-0.4,1.3-0.6,2.1-0.8c2-0.4,4.1-0.1,6.1,1.1c0.4,0.2,0.8,0.5,1.4,0.9
			c0.2,0.1,0.4,0.3,0.5,0.4l0.4,1.2l1.4-0.6c0.8-0.6,1.2-0.9,2-1.1l1-0.5l0.1-1c-1.6-8.1-3.7-17-4.4-28.6l-0.1-1.2
			c0-0.7-0.1-1.4-0.1-2.1c0-0.8-0.1-1.6-0.1-2.4l0-0.4c0,0,0,0,0-0.1l0-0.1c-0.1-1.2-0.1-2.5-0.2-3.7l-0.2-5l2.8,5.7
			c1.7,3.4,3.6,7.2,5.2,10.5l1,2.1l0.1-2.3c0.4-7.4-0.3-14.9-1.1-21.2c-1.5-12.4-4.5-25.3-7-35.4c0.2,0.4,0.5,0.8,0.8,1.2l0.1,0.1
			c2.2,3.2,4.9,7.3,6.4,8.9c1.6,1.9,3.6,3.8,5.7,5.6l1.6,1.4l-0.6-2c-1-3.4-1.9-6.8-2.5-10c-3.1-15.6-4.3-32.4-3.4-50.1l0.2-4
			l2.3,3.3c3,4.3,5.1,8.8,7.5,14.2c0.1,0.2,0.2,0.5,0.3,0.7l0.5,1.3l0.6-1.3c5.7-12.3,6.7-26.4,7-37.3c0.1-3.9,0.1-7.8,0.5-11.8
			c2.6,8.2,2.3,17.2,1.7,26.4c-1,11.7-3.9,20.9-8.8,28l-0.1,0.2c-0.2,0.3-0.7,1-1.4,2.2l-0.4-1c-0.8-2.1-1.7-4.5-2.6-6.4
			c-1-2.3-1.9-4.2-2.7-6c-0.2-0.9-0.3-1.5-0.5-1.8l-1.1-2.5l0,1.1l-0.5-0.9l0,2.4c-0.3,15,0.9,29.3,3.6,42.5
			c1.3,6.8,3.6,13.6,5.7,19.5l-2.9-2c-3.4-2.4-6.4-4.9-9-7.5l-1.5-1.5l0.1,0.6l-0.6-0.6l0.4,2.1c1.4,6.9,2.6,13.4,3.4,20
			c1.3,10.7,1.8,19.7,0.4,28.9l-0.6,3.5c0,0,0,0,0,0l-1.1-2.1c-1.3-2.5-2.8-5.7-4.3-8.6l-0.3-0.4l-0.2,0.3l-1.4-2.7l0.2,3.1
			c0.1,1,0.1,1.9,0.2,2.9c0.1,0.8,0.1,1.6,0.2,2.4l0,0.5c0.1,1,0.2,2.1,0.3,3.1c0.1,0.9,0.2,1.8,0.3,2.7c0.3,2.7,0.6,5.4,1,7.9
			c0.5,3.3,1,5.9,1.5,8.3l0.1,0.3l0.3,0.1c2.3,0.8,4.5,2.6,6.3,5.2c1,1.5,1.9,3.2,2.6,5l0.2,0.6l0.4-0.2l0,0h0.7l0.1-0.1
			c0.5-0.2,1-0.4,1.6-0.6c1.4-0.4,3.1-0.8,5.2-1.2l0.3-0.1c4.3-0.7,8.3-1,9.5-1c0.8,0,5.1,0.3,9.4,1c0,0,0,0,0.1,0l0.2,0
			c0.3,0.1,0.6,0.1,0.9,0.2l1.6,0.4c0.3,0.1,0.6,0.1,0.9,0.2c0.5,0.1,0.9,0.2,1.3,0.4l0.1,0c0.1,0,0.2,0.1,0.3,0.1l0.1,0
			c0.6,0.2,1.2,0.4,1.6,0.5l0.1,0.1h0.1l0.7,0.2V426.3z M144.8,131L144.8,131L144.8,131L144.8,131z"/>
		<path class="st0" d="M485.8,376.2L485.8,376.2c-0.4-2.4-1.6-9.5-6.7-10.3c-1.7-0.3-4,0.4-5.6,1l-0.6-0.8
			c-2.6-3.6-6.8-6.7-10.8-4.6l-1.2,0.7c-0.8-1.4-1.7-2.9-2.9-3.9c-1.2-1.1-2.6-1.6-4.1-1.5c-1.7,0.1-3.4,1-4.7,2.4l-1,1l-1-1
			c-2.3-2.5-5.8-2-8.1-0.9c-0.9,0.4-1.8,1.1-2.6,1.7l0,0c-0.1,0.1-0.2,0.2-0.3,0.2l-0.8-1.2c-1.5-1.7-3.3-2.4-5.5-1.9
			c-4.1,0.9-8.4,6.2-9.3,10.2c-0.7,4.2,1.1,8.5,5.4,13c-1.3-0.3-2.6-0.9-3.8-1.7l-0.5-0.3l-0.3,0.5c-2.6,3.6-9,13-12.3,23.5
			c-5.4,17.7-3.5,35.7,5.1,48.2c5.6,8.1,13.7,12.9,22.8,13.4c0.6,0,1.2,0.1,1.8,0.1c9.1,0,18.4-4.1,26.2-11.5
			c8.5-8,14.3-18.9,16.3-30.7c1.3-7.4,1.8-22.8,0.5-31.6l-0.1-0.6l-0.6,0.1c-1.1,0.1-2.3,0-3.4-0.4c0.2,0,0.4-0.1,0.6-0.1
			c3.5-0.5,5.4-2.9,6.3-4.8C485.8,381.9,486.2,379,485.8,376.2z M467.6,379c2.3,0.1,4.2,1.6,4.8,3.8
			C470.1,382.6,468.2,381.1,467.6,379z M443.6,448.3c-0.9,0-1.8-0.1-2.6-0.2c-6.3-0.8-11.9-4.4-15.7-10.2
			c-5.7-8.6-7.1-20.7-3.8-32.5c3-10.8,9.5-19.5,17.8-23.6c3.3-1.7,6.8-2.5,10.3-2.5c2.5,0,4.9,0.4,7.2,1.3c12.2,4.7,19,21,15.8,37.9
			C469.1,435.5,456.8,448.3,443.6,448.3z M456.5,372.3c2.2-0.7,4.7,0.1,6,2C460.3,374.9,457.9,374.1,456.5,372.3z M442.9,371.9
			c1.8-1.5,4.3-1.6,6.3-0.4C447.4,372.9,444.9,373.1,442.9,371.9z M431,374.9c1.4-1.8,3.8-2.5,5.9-1.7
			C435.6,375,433.2,375.7,431,374.9z"/>
		<path class="st0" d="M75.8,450.5c8.6-12.4,10.6-30.4,5.1-48.2c-3.2-10.5-9.6-20-12.2-23.5l-0.3-0.5l-0.5,0.3
			c-1.2,0.8-2.5,1.4-3.8,1.7c4.3-4.4,6.1-8.8,5.3-13c-0.9-3.9-5.2-9.2-9.3-10.1c-2.1-0.5-4,0.2-5.5,2l-0.8,1.1
			c-0.2-0.1-0.3-0.2-0.5-0.3c-0.8-0.6-1.7-1.2-2.5-1.6c-2.3-1.2-5.8-1.7-8.1,0.8l-1,1.1l-1-1c-1.3-1.4-3-2.3-4.7-2.4
			c-1.5-0.1-2.9,0.4-4,1.5c-1.2,0.9-2.1,2.6-2.9,3.9l-1.2-0.7c-5-2.6-9.5,2.9-10.7,4.6l-0.6,0.8c-1.6-0.6-3.9-1.3-5.6-1
			c-5.2,0.8-6.3,8-6.7,10.3c-0.5,3.4,0.3,7.1,2.1,9.5c1.3,1.8,3.2,3,5.4,3.3c0.2,0,0.4,0.1,0.6,0.1c-1.1,0.4-2.3,0.6-3.4,0.4
			l-0.6-0.1l-0.1,0.6c-1.2,8.1-1,23.4,0.5,31.6c2.1,11.8,7.9,22.7,16.3,30.7c7.9,7.4,17.2,11.5,26.3,11.5c0.6,0,1.2,0,1.8-0.1
			C62.1,463.4,70.2,458.6,75.8,450.5z M17.6,382.7c0.6-2.2,2.5-3.7,4.8-3.8C21.8,381.1,19.9,382.6,17.6,382.7z M64.7,437.9
			c-3.9,5.8-9.5,9.4-15.7,10.2c-0.8,0.1-1.7,0.2-2.6,0.2c-13.2,0-25.6-12.8-28.8-29.8c-3.3-16.9,3.5-33.2,15.8-37.9
			c2.3-0.9,4.7-1.3,7.2-1.3c3.5,0,6.9,0.9,10.3,2.5c8.3,4.2,14.7,12.8,17.8,23.6C71.9,417.2,70.4,429.4,64.7,437.9z M53,373.2
			c2.1-0.8,4.5-0.1,5.9,1.7C56.8,375.7,54.4,375,53,373.2z M40.8,371.5c2-1.2,4.5-1.1,6.3,0.4C45.1,373.1,42.6,372.9,40.8,371.5z
			 M27.5,374.2c1.4-1.9,3.8-2.7,6-2C32.1,374.1,29.7,374.9,27.5,374.2z"/>
		<path class="st0" d="M222.5,422.9L222.5,422.9c-2.2-3.2-5-4.8-7.2-4.3c-0.9,0.2-1.8,0.8-2.5,1.7l-1,1.3l-1.1-1.2
			c-0.5-0.6-1.1-1.1-1.7-1.5c-0.5-0.3-0.8-0.6-1.1-0.7c-1.5-0.8-2.8-1.1-4.1-0.8c-0.6,0.1-1.2,0.4-1.8,0.9l-0.2,0.1l-1.4,4.3
			l-1.5-4.6l-0.1-0.1c-1.4-1.8-2.9-2.8-4.6-2.8c-2.3,0-4,1.8-5.1,3.3l-1.8,4.5l-1.1-3.9l-0.2-0.1c-0.4-0.2-0.7-0.4-1.1-0.5
			c-2.6-0.7-6,1.1-8.7,4.7l-0.2,0.3l-1.2,2.9l-0.9-3.1l-0.2-0.1c-1.8-1.2-3.5-1.5-5-1.1c-2.4,0.7-4,3.6-4.9,5.8
			c-2.6,6.3-2.2,13.5,0.8,17.1c1.1,1.2,2.4,2,3.9,2.2l0.4,0l3.9-6.6l0.5,8.2l0.1,0.2c0.7,0.8,1.5,1.3,2.4,1.5c2.7,0.8,6.2-1.2,9-5
			l1.9-5.3l0.8,6l0.1,0.2c1.6,3.3,3.7,5.1,6,5.2c2.4,0,4.8-2.1,6.5-5.8l1.5-5.6l1.7,5.1l0.1,0.1c2.6,3.4,5.6,5.1,8.2,4.5
			c1.5-0.4,2.8-1.5,3.8-3.3l0.5-5.6l2.4,4.7l0.2,0.1c1.2,0.7,2.4,1,3.6,0.7c1.9-0.4,2.9-2.2,3.5-3.5c0.3-0.7,0.5-1.5,0.7-2.3
			c0.2-1,0.4-2.2,0.4-3.5c0-2-0.2-4.1-0.7-6.2C225.2,427.9,224,425.2,222.5,422.9z"/>
		<path class="st0" d="M321.4,422c-1.4-0.4-3.2,0-5,1.1l-0.2,0.1l-0.9,3.1l-1.1-2.8l-0.3-0.4c-2.8-3.6-6.1-5.4-8.8-4.7
			c-0.4,0.1-0.7,0.3-1.1,0.5l-0.2,0.1l-1.1,3.9l-1.7-4.4l-0.1-0.1c-1.1-1.5-2.8-3.3-5.1-3.3h-0.1c-1.6,0-3.1,1-4.5,2.8l-1.6,4.8
			l-1.4-4.3l-0.2-0.1c-0.6-0.4-1.2-0.7-1.8-0.9c-1.3-0.3-2.6,0-4.1,0.8c-0.4,0.2-0.8,0.5-1.2,0.8c-0.5,0.4-1.1,0.9-1.6,1.5l-1.1,1.2
			l-1-1.3c-0.7-0.9-1.6-1.5-2.5-1.7c-2.2-0.5-5,1.1-7.3,4.3c-1.5,2.2-2.7,4.9-3.4,7.8c-0.5,2.1-0.7,4.2-0.7,6.2
			c0,1.3,0.2,2.4,0.4,3.4c0.2,0.9,0.4,1.6,0.7,2.4c0.9,2,2.1,3.2,3.6,3.5c1.1,0.2,2.3,0,3.5-0.7l0.2-0.1l2.4-4.7l0.4,5.4l0.1,0.2
			l0,0c1,1.8,2.3,2.9,3.8,3.3c2.5,0.6,5.6-1.1,8.1-4.5l1.7-5.2l1.6,5.8c0.8,1.7,1.9,3.1,2.9,4.1c1.1,1,2.3,1.6,3.5,1.6h0.1
			c2.2,0,4.3-1.9,6-5.2l0.9-6.1l1.9,5.2l0.1,0.1c2.8,3.9,6.3,5.8,9,5c0.9-0.2,1.7-0.7,2.4-1.5l0.1-0.2l0.5-8.2l3.9,6.6l0.4,0
			c1.5-0.2,2.9-0.9,3.9-2.2c3-3.6,3.3-10.7,0.8-17.1C325.4,425.5,323.8,422.7,321.4,422z"/>
		<path class="st0" d="M411.9,452.1L411.9,452.1c-9.1-13.1-11.2-32-5.5-50.6c3.5-11.4,10.2-21.1,12.9-24.7l0.3-0.4l-0.3-0.4
			c-1.6-2-2.3-4.2-2-6.5c0.3-2.3,1.2-4.9,2.6-7.2l0.2-0.3l-0.2-0.3c-0.6-1.1-1.3-2.2-1.9-3.1c-5.6-8.2-13.9-13.6-22-18.8
			c-1.7-1.1-3.4-2.2-5.1-3.3c8.7,1.7,18.5,7.4,25.4,14.8l1.8,2l-0.8-2.6c-5.6-18.1-15.6-30.9-16.1-31.4l-3-3.7l12.8,4.3l-0.3-1.1
			c-7.5-25.6-25.3-45.7-32.6-53.2l-1-1l-0.1,1.4c-0.3,4.3-0.9,8.4-1.7,12.1l-0.7,3.3L368,271l0.3,2.6c1.7,14.4,3.2,41.3-5.3,59.4
			l-1.2,2.5l-3.8-7.1l0,2.5c0.1,15.8-1.2,44.6-11.4,60.4l-1.5,2.2l-3.3-8l-0.5,1.8c-1.7,7.1-5.9,21.1-14.3,35.4l-0.2,0.3l0.2,0.3
			c0.7,1,1.2,2.1,1.7,3.4c0.9,2.3,1.5,4.7,1.8,7.1l0,0.3l0.3,0.2c1.6,0.8,15.8,8.1,38.8,10.5l2.3,0.2l-1.9-1.4
			c-3.8-2.7-6.2-5.3-7.7-8.2c0.8,0.5,1.6,1.1,2.5,1.6l0.1,0.1c4.3,2.9,8.8,5.9,13.5,8.4c5.9,3,12.7,5.9,19.3,8.1
			c5.3,1.9,11.3,3.6,18.6,5.6l2.4,0.6l-1.8-1.7C415.2,456.4,413.4,454.3,411.9,452.1z"/>
		<path class="st0" d="M163.1,423.1l-0.2-0.3c-8.4-14.2-12.6-28.3-14.3-35.4l-0.5-1.8l-3.3,8l-1.5-2.2
			c-10.2-15.8-11.5-44.6-11.4-60.4l0-2.5l-3.8,7.1L127,333c-8.5-18.1-6.9-45-5.3-59.4l0.3-2.6l-6.6,10.2l-0.7-3.3
			c-0.8-3.7-1.4-7.8-1.7-12.1l-0.1-1.4l-1,1c-7.3,7.5-25.1,27.6-32.6,53.2l-0.3,1.1l12.8-4.3l-3,3.7c-0.4,0.5-10.5,13.5-16.1,31.4
			l-0.8,2.6l1.8-2c6.9-7.4,16.8-13.2,25.4-14.8c-1.7,1.1-3.4,2.2-5.1,3.3c-8,5.2-16.3,10.6-22,18.8c-0.6,0.9-1.2,1.9-1.9,3.1L70,362
			l0.2,0.3c1.4,2.3,2.3,4.9,2.6,7.2c0.2,2.3-0.5,4.5-2,6.5l-0.3,0.4l0.3,0.4c2.7,3.7,9.5,13.4,12.9,24.7c5.7,18.6,3.6,37.5-5.5,50.6
			c-1.6,2.3-3.3,4.3-5.3,6.1l-1.8,1.7l2.4-0.6c8.2-2.2,14.8-4.2,20.8-6.3c0.9-0.3,2.7-1,4.3-1.6l2.3-0.9c2.9-1.2,7.1-3.1,10.6-4.9
			c4.7-2.5,9.2-5.5,13.5-8.4l0.3-0.2c0.7-0.5,1.5-1,2.2-1.5c-1.4,2.9-3.9,5.5-7.7,8.2l-1.9,1.4l2.3-0.2c22.4-2.3,36.2-9.1,38.8-10.5
			l0.3-0.2l0-0.3c0.3-2.4,0.9-4.8,1.8-7.1c0.5-1.2,1.1-2.4,1.7-3.4L163.1,423.1z"/>
		<path class="st0" d="M152.3,107c-0.1,0.3-6.4,31.7,14.7,50.4l0.3,0.3l0.1-0.4c0.4-2.4,1.3-5.7,3.5-7.8l2.5-2.4l0.5,3.5
			c0,0.3,4.2,26.6,31.8,38.9l0.3,0.1l0-0.3c-0.1-2.6,0.5-6.2,4-8.8l1.7-1.3l1,1.9c0.1,0.1,6.6,12.7,19.9,17.5
			c6.3,2.3,10.1,5.9,12.2,8.5l0.2,0.2l0.2-0.2c2.1-2.6,6-6.2,12.3-8.5c13.4-4.9,19.8-17.4,19.9-17.5l1-1.9l1.7,1.3
			c3.5,2.6,4.1,6.2,4,8.8l0,0.3l0.3-0.1c27.6-12.2,31.8-38.6,31.8-38.9l0.5-3.5l2.5,2.4c2.3,2.2,3.2,5.5,3.5,7.8l0.1,0.4l0.3-0.3
			c21.1-18.7,14.8-50.1,14.7-50.4l-1.5-7.1l8.5,10.2l0-0.6c-0.1-30.8-19.6-50-25.6-55.1l-1-0.9l0.7,1.1c12,19.8,16.3,40.9,12.1,59.4
			l-0.7,3.3l-8.1-8.6l0,0.5c-0.1,11.5-3.9,22.7-10.7,31.7c-2.9,3.8-6.6,7.5-11.7,11.5c-0.4-2.2-0.8-4.5-1.2-6.8l-0.1-0.6l-0.3,0.5
			c-3.6,6.6-9.2,12.9-16.6,18.9c-5,3.9-10.3,6.9-15.8,8.8c1.1-0.9,2.3-1.9,3.4-2.8c5-4,10.1-8.2,14.7-12.8
			c6.2-6.3,10.4-12.5,12.9-18.8c0.2-0.3,1.1-3.6,2.7-9c0.1-0.4,0.2-0.7,0.3-1c1,5.7,1.9,11.4,2.6,15.9l0.1,0.4l0.3-0.3
			c12.5-11.4,17.9-28.2,15-46.2c1.9,2,5.4,5.8,8.4,8.9l2,2.2l0.1-0.4c1.3-8.4,0.9-17.2-1.4-26.4c-1.7-7.2-4.5-14.4-8.2-21.5
			c-1-1.9-2-3.7-3.1-5.4l-0.1-0.2l-0.2,0.1c-1.6,1.2-3.4,2.2-5.2,3c7.7-7.3,13.1-15.5,16-24.6c2.6-7.9,3.4-15.7,2.4-22.5
			c-0.7-3.6-1.6-7.2-4.6-8.4c-0.8-0.2-1.7-0.1-2.7,0.4c-2.3,1.1-4.6,2.2-7,3.5c-3.7,1.9-7.4,3.9-10.9,5.9
			c-9.7,5.3-19.7,10.8-30.6,14.6c2-1.6,4-3.2,6.1-4.7L279,23l-0.4-0.1c-10.6-3-29.6-3.1-33.2-3.1l-0.2,0l-0.6,0
			c-3.7,0-22.6,0.1-33.2,3.1L211,23l0.4,0.3c2.1,1.5,4.2,3.1,6.1,4.7c-10.8-3.7-20.8-9.2-30.5-14.5c-3.6-2-7.3-4-10.9-5.9
			c-2.3-1.2-4.7-2.4-7-3.5c-1-0.5-1.9-0.7-2.8-0.4c-2.9,1.2-3.8,4.8-4.5,8.4c-1,6.9-0.2,14.5,2.4,22.5c2.9,9.1,8.3,17.3,16,24.6
			c-1.8-0.8-3.5-1.8-5.2-3l-0.2-0.1l-0.1,0.2c-10.7,17.7-15.2,36.6-12.6,53.2l0.1,0.4l0.3-0.3c1.7-1.9,3.9-4.1,5.8-6.2
			c1.7-1.8,3.2-3.4,4.3-4.6c-3,18,2.4,34.8,15,46.2l0.3,0.3l0.1-0.4c0.8-5,1.8-10.8,2.6-15.9c0.1,0.5,0.3,1.2,0.5,1.9
			c1.4,5,2.2,7.7,2.4,8.1c2.5,6.3,6.8,12.4,12.9,18.8c4.6,4.6,9.7,8.8,14.7,12.8c1.1,0.9,2.3,1.9,3.4,2.8c-7.4-2.7-14.5-7.1-20.7-13
			c-5.1-4.9-8.9-9.7-11.7-14.7l-0.3-0.5l-0.1,0.6c-0.4,2.3-0.8,4.5-1.2,6.8l-2.5-2.1c-10.3-8.2-17.2-20.4-19.2-33.5
			c-0.4-2.7-0.6-5.2-0.7-7.6l0-0.5l-4.5,4.8c-1.5,1.6-2.8,3-3.5,3.8c-2.4-9.4-2.9-18.6-1.6-27.3c1.8-12.3,6.1-24.2,12.9-35.4
			l0.7-1.2l-1,0.9c-6,5.2-25.5,24.4-25.6,55.1l0,0.6l8.5-10.2L152.3,107z M170.6,15.9c0,0-0.1,0-0.1,0l0,0l-0.1,0.1
			c-1.1,1.1-1.3,3.3-1.4,5.3c0,9.7,4.3,19.4,13.2,29.7c-10.9-4.9-17.7-21.2-16.3-32.5c0.3-2.5,1.3-4.3,2.7-5.2
			c0.7-0.4,1.4-0.6,2.3-0.6c0.6,0,1.2,0.1,1.8,0.3c4.6,1.4,8.7,3.9,12.6,6.4l1.2,0.8c5.7,3.7,10.9,7.1,15.2,11.6
			c-4.4-2-8.6-4.5-12.6-7c-4.1-2.5-8.3-5-12.8-7l-0.5-0.2c-1.7-0.7-3.2-1.4-4.9-1.6C170.8,15.9,170.7,15.9,170.6,15.9z M320.7,26
			c0.4-2.6,0.7-6.3-0.3-9c-0.3-0.6-0.5-1-0.9-1.1c-1.6,0-3.1,0.7-4.7,1.4c-0.3,0.1-0.6,0.3-1,0.4c-4.4,2-8.7,4.6-12.8,7
			c-4.1,2.4-8.2,5-12.6,7c4.4-4.5,9.5-7.9,15.2-11.6l1.2-0.8c3.9-2.4,8-4.9,12.6-6.4c1.6-0.5,3-0.4,4.1,0.3c1.4,0.9,2.3,2.7,2.7,5.2
			c1.4,11.3-5.4,27.6-16.3,32.5C315.4,42.2,319.5,34.2,320.7,26z M200.3,65.7L200.3,65.7c0.6-1.6,1.5-2.9,2.7-4
			c4.3-4.1,11.2-3.8,15.3,0.5c1.3,1.4,2.2,3.1,2.6,5l0,0.1c1.1,1.7,2.6,2.4,3.5,2.8c-1.8,0.5-2.9,1.5-3.6,2.4l0,0.1
			c-0.5,1.9-1.6,3.6-3,5c-2,1.9-4.6,2.9-7.4,2.9c-0.1,0-0.2,0-0.4,0l0,0c-2.9-0.1-5.6-1.3-7.5-3.4c-1-1.1-1.8-2.4-2.3-3.8l0-0.1
			c-1.7-2.2-4-3.1-5.3-3.5C197.4,68.9,199.2,67.1,200.3,65.7z M243,125.3c0-0.9,0.1-1.9,0.2-2.8l0-0.2l-0.2,0
			c-3.6-0.1-12.1-1.6-14.2-11.9c-0.7-3.2-0.1-5.9,1.6-8c4.3-5.3,14.5-5.3,14.6-5.3c0.1,0,10.4,0.1,14.6,5.3c1.7,2.1,2.3,4.8,1.6,8
			c-2.1,10.3-10.7,11.7-14.2,11.9l-0.2,0l0,0.2c0.1,0.9,0.2,1.9,0.2,2.8c0.3,3.1,1,7,3.6,9.5c1.6,1.4,3.9,1.6,5.7,1.6
			c3.4-0.2,6.1-1.8,8.6-4.8c-0.2,2.2-1.2,4.1-2.9,5.7c-2,1.9-4.9,2.9-7.8,2.8c-5,0.1-7.7-2.9-9.1-5.4l-0.2-0.3l-0.2,0.3
			c-1.4,2.6-4.1,5.6-9.2,5.4c-2.9,0.1-5.8-0.9-7.8-2.8c-1.7-1.5-2.6-3.5-2.9-5.7c2.5,3.1,5.2,4.6,8.6,4.8c1.8,0,4.2-0.2,5.7-1.6
			C242,132.3,242.7,128.4,243,125.3z M240,155.9c1.5,0.2,3.2,0.2,5.1,0.1c6.4,0.6,13.1-1.6,17.9-6c4.9-4.6,7.4-10.8,9-16.1
			c-0.6,9-5.1,20.2-16.2,24.1c-3.6,1.3-7.2,1.8-10.8,1.5c-11.5,1-21.7-5.9-25.2-17.1l0,0c-0.9-2.8-1.5-5.6-1.7-8.5
			C220.9,143.6,227,154.4,240,155.9z M279.6,80.4c-2.7,0-5.4-1-7.4-2.9c-1.4-1.3-2.5-3-3-4.9l0-0.1c-0.7-0.9-1.9-1.9-3.6-2.4
			c0.9-0.3,2.4-1.1,3.5-2.8l0-0.1c0.4-1.9,1.3-3.6,2.6-5c4.1-4.3,10.9-4.6,15.3-0.5c1.2,1.1,2.1,2.4,2.7,4l0,0.1
			c1.1,1.4,3,3.2,5.4,3.9c-1.3,0.4-3.6,1.3-5.3,3.5l0,0.1c-0.5,1.4-1.3,2.7-2.3,3.8c-2,2.1-4.6,3.3-7.5,3.4
			C279.8,80.4,279.7,80.4,279.6,80.4z"/>
	</g>
	<path class="st1" d="M321.2,197.6c-0.2-0.6-0.4-1.1-0.5-1.7c-0.7-2.1-1.4-4.3-2-6.6l-0.4-1.5v1.6c-0.1,0.7-6.4,7.2-15.9,13.8
		c-8,5.6-19.8,12.2-30.7,12.2c-0.2,0-0.4,0-0.5,0l-0.2-5.2l-0.3,0.1c-16.3,4-22.9,16.8-25,21.1c-0.2,0.4-0.4,0.9-0.6,1
		c-0.1-0.2-0.3-0.6-0.6-1c-2.2-4.2-8.7-17.1-25-21.1l-0.3-0.1l-0.2,5.2c-11,0.2-23-6.5-31.2-12.2c-9.5-6.6-15.7-13.2-15.9-13.8v-1.6
		l-0.4,1.5c-0.6,2.2-1.3,4.3-2,6.4c-0.2,0.6-0.4,1.2-0.6,1.8c-4.2,13-6.8,41.1-1.2,57.1l0.2,0.5l5.6-11.9c1.1,3.2,0.7,6.9,0.2,10.4
		l0,0.3c-0.8,6.5-1.3,13.2-1.6,20.6c-0.3,7.7-0.3,16.5,3.4,23.7l0.3,0.5l3.6-14.7c1.2,37.2,8.2,47.6,15,57.6l0.9,1.3l3.3-11.4
		c0.6,5.5,3.7,31,12.3,55.1l0.5,1.4l-0.1-0.9l0.4,1.9c1-1.8,3.6-2.6,5.2-1.5c1,0.4,1.9,1.1,2.3,2.3c2.9-4.4,1.8-11.5,1.6-16.4
		c-0.3-6.8-1.3-13.6-2.5-20.3c-0.1-0.3-0.1-0.7,0-1c-1-1-1.6-2.2-1.7-3.8c-0.4-4.5,6.5-5.7,6.9-1.3c0,0.2,0,0.3,0,0.4
		c1,0.2,2.1,1,3,1.4c1.4,0.7,2.8,1.5,4.1,2.3c-0.4-1.3-0.9-2.6-1.4-3.9c-0.5-1.6-0.9-3.1-1.4-4.7c-1-3.5-1.9-7-2.8-10.5
		c-0.9-3.5-1.6-7.1-1.8-10.7c-0.2-3.4-0.2-6.9-0.2-10.3c-0.5-0.1-0.9-0.4-0.9-1c0-3.2-0.2-6.3-0.3-9.5c-0.1-3.1,0.2-6.1,0.2-9.1
		c0-1.3,2-1.1,2,0.2c0,0.6,0,1.2,0,1.8c0.4,1.3,0.9,4.5,1.6,9.3l0,0.3c2.3,15.1,6.7,43.2,14.5,62l0.1,0.3l-0.3,0
		c-0.2,0-5.6-0.8-12.7-5.8l-0.5-0.3l0.1,0.5c1.1,4.8,6.4,29.7-3,51.3l-0.1,0.1l0.1,0.1c1.8,1.6,6.2,5.6,6.7,7.8l0,0.2l0.2,0
		c5.4-0.1,11,0.1,15.9,0.2c6.4,0.2,11.5,0.3,12.8-0.2l0.1,0l0-0.1c0.5-2.1,4.9-6.1,6.7-7.8l0.1-0.1l-0.1-0.1
		c-9.3-21.5-4.1-46.5-3-51.3l0.1-0.5l-0.5,0.3c-7.1,5-12.5,5.7-12.7,5.8l-0.3,0l0.1-0.3c7.8-18.9,12.2-47,14.5-62.1
		c0.9-5.6,1.4-9.2,1.8-10.1l0,0c0-0.1,0-0.1,0-0.2c0-1.3,2-1.1,2,0.2c-0.1,3.8-0.3,7.7-0.7,11.5c0.6,0,1.2,0.3,1.1,1
		c-0.2,4.6-0.6,9.1-1.4,13.6c-0.4,2.2-0.9,4.4-1.4,6.6c-0.3,1.4-0.8,2.8-1.2,4.3c0.3,0.2,0.4,0.6,0.3,1c-1,4.5-2,9-3.4,13.4
		c-1,3.4-2.3,6.7-3.3,10.1c0.5-0.5,0.9-0.9,1.4-1.4c1.1-1.2,2.4-2.2,3.6-3.3c2.3-2.1,4.7-4,7.3-5.7c0.2-0.1,0.4-0.1,0.6-0.1
		c0.7-0.1,1.6,0.7,1,1.6c-1.1,1.7-1.8,3.7-2.3,5.7c0.3,0.2,0.5,0.5,0.5,0.9c-0.2,1.9-0.7,3.8-1.2,5.6c-0.5,2-0.8,3.9-1,6
		c-0.2,2-0.5,4-0.7,6.1c-0.2,1.2-0.2,2.4-0.3,3.6c0.4,0.1,0.7,0.4,0.7,1c-1.1,8-1.5,16.1,0.4,24c1-1.4,1.6-3.1,2.3-4.6
		c1.2-2.4,1.9-5,3.4-7.3c0.5-0.8,1.6-0.4,1.8,0.4c0,0.1,2.6,0.6,2.6,0.6c8.6-24.2,12.2-50.5,12.8-56l3.3,11.4l0.9-1.3
		c6.7-10,13.7-20.4,15-57.6l3.6,14.7l0.3-0.5c3.7-7.2,3.7-16,3.4-23.7c-0.3-7.4-0.8-14.2-1.6-20.6l0-0.3c-0.4-3.6-0.9-7.2,0.2-10.4
		l5.6,11.9l0.2-0.5C328,238.7,325.5,210.7,321.2,197.6z"/>
	<g>
		<path class="st2" d="M171.7,173.2l0.3,0.2l0.9-4.5c0.7,1.8,2.9,6.6,7.8,12.3c5.7,6.6,16.2,15.7,34.3,21.6l0.3,0.1V197
			c1,1.1,3.8,4.1,8.4,7.1c1.5,1,3.4,1.8,5.5,2.7c1.8,0.8,3.6,1.5,5.3,2.5c6,3.5,10.2,12.5,10.5,13.2v1l0.2-0.5l0.2,0.5v-1
			c0.3-0.7,4.5-9.7,10.5-13.2c1.6-0.9,3.5-1.7,5.3-2.5c2-0.9,3.9-1.7,5.5-2.7c4.5-2.9,7.4-5.9,8.4-7.1v5.9l0.3-0.1
			c18.1-6,28.7-15,34.3-21.6c4.9-5.7,7.1-10.5,7.8-12.3l0.9,4.5l0.3-0.2c13.9-9.4,20.5-20.5,23.5-28.2c3.3-8.3,3.3-14.5,3.3-14.6
			l0-0.1l0-0.1c-0.9-1.1-1.7-2.3-2.6-3.4l-0.9-1.1l-0.2,1.4c-1.9,15.2-8.4,27-19.4,35.1l-2.3,1.7l0.1-2.9c0-1.1-0.1-3.1-0.5-4.9
			l-0.5-2.2l-0.7,2.2c-3.1,10.1-11.9,28.5-36,37.5l-3,1.1l1.2-2.9c0,0,1.6-3.9-0.4-7.1l-0.5-0.8l-0.5,0.8
			c-2.9,4.6-9.4,12.8-20.3,16.7c-8.8,3.2-12.2,9.5-12.2,9.6l-1.1,2.1V213l-0.2,0.4l-0.2-0.4v0.2l-1.1-2.1c0-0.1-3.4-6.4-12.2-9.6
			c-10.9-4-17.4-12.2-20.3-16.7l-0.5-0.8l-0.5,0.8c-2,3.3-0.4,7.1-0.4,7.1l1.2,2.9l-3-1.1c-24.1-9-32.9-27.4-36-37.5l-0.7-2.2
			l-0.5,2.2c-0.4,1.9-0.6,3.8-0.5,4.9l0.1,2.9l-2.3-1.7c-10.9-8.1-17.5-19.9-19.4-35.1l-0.2-1.4l-0.9,1.1c-0.9,1.1-1.8,2.2-2.6,3.4
			l0,0.1l0,0.1c0,0.1,0,6.2,3.3,14.6C151.2,152.7,157.7,163.8,171.7,173.2z"/>
		<path class="st2" d="M130.5,432.6l-1.8,1.1c-11.7,7.1-31.5,12.6-42,15.2c7.9-24.8,3.4-43.1-1.8-54.2C79.1,382.3,71.1,376,71,376
			l-0.2-0.2l-0.7,2.6l0.1,0.1c0.1,0.2,12,17.7,15.1,38.9c3,20.9-10.9,37.4-11.3,37.9l-1.8,1.5c5.9-6.1,8.7-13.1,8.8-13.2l0.3-0.9
			l-0.7,0.6c-16.7,15.7-32.8,14.9-43.3,11.4C25.6,451,18,443.5,17.9,443.4l-1.2-1.2l0.8,1.4c0.1,0.2,13,21.9,33.4,22.4
			c0.2,0,0.4,0,0.7,0c5.5,0,10.1-1.7,14-4.1l-0.9,0.7l1-0.3c0.2-0.1,24.1-6.8,35.6-10.2c11.5-3.4,27.4-18.1,27.6-18.2L130.5,432.6z"
			/>
		<path class="st2" d="M163.7,423.3l0.3-0.5c0,0-14.1-28.2-15.8-35.4l-0.2-0.6l-3.1,7.6l-1.9-2.9c-10.3-15.9-11.6-44.8-11.5-60.6
			l0-0.9l-3.4,6.4l-1.5-3.2c-8.5-18.2-7-45.1-5.3-59.6l0.1-0.9l-3.2,4.9l0,0.1c-1.6,10.2-6,45.1,7.5,69.1l0.2,0.3l2.8-3.5
			c-0.1,2.5-0.5,11.8,0.8,22.6c1.5,11.6,5.4,27.4,15.6,36.6l0.2,0.2l2.3-4.5c0.5,3.6,3.1,20.4,11.8,30.2c-6,2.6-21.5,8.9-34.5,10.1
			l-0.1,0l-0.1,0.1c-0.1,0.1-5.7,6.2-8.2,6.4l0,0.4c0.3,0,30.4-1.1,44.4-11.5l0.1,0l1.3-6.8C162.2,427.2,163,424.3,163.7,423.3z"/>
		<path class="st2" d="M193,160.8l0.3,0.2v-5.8c2.6,2.5,18.7,17.5,32,19l2,0.2l-1.9-0.6c-7.8-2.6-15.3-7.2-21.8-13.4
			c-5.1-4.9-8.9-9.7-11.7-14.7l-0.3-0.5l-0.1,0.6c-0.4,2.3-0.8,4.5-1.2,6.8l-2.5-2.1c-10.3-8.2-17.2-20.4-19.2-33.5
			c-0.4-2.7-0.6-5.2-0.7-7.6l0-0.5l-4.3,4.6l0,0.1C164.6,121.2,169.6,147.5,193,160.8z"/>
		<path class="st2" d="M365.3,438.7L365.3,438.7l-0.1-0.1c-13-1.2-28.5-7.5-34.5-10.1c8.6-9.8,11.3-26.6,11.8-30.2l2.3,4.5l0.2-0.2
			c10.2-9.2,14.1-24.9,15.6-36.6c1.4-10.7,1-20,0.8-22.6l2.8,3.5l0.2-0.3c13.5-23.9,9.1-58.9,7.5-69.1l-3.3-5l0.1,0.9
			c1.7,14.4,3.2,41.4-5.3,59.6l-1.5,3.2l-3.4-6.4l0,0.9c0.1,15.8-1.2,44.7-11.5,60.6l-1.9,2.9l-3.1-7.6l-0.2,0.6
			c-1.8,7.1-6,21.2-14.4,35.5l-0.1,0.1l0.1,0.1c0.7,1,1.3,2.2,1.8,3.4c0.2,0.5,0.4,1,0.6,1.5c-1-0.5-1.6-0.7-1.6-0.7l-0.4-0.2
			l1.3,6.8l0.1,0c13.9,10.4,44.1,11.5,44.4,11.5l0-0.4C371,444.9,365.4,438.8,365.3,438.7z"/>
		<path class="st2" d="M472.1,443.4c-0.1,0.1-7.7,7.7-19.2,11.4c-10.6,3.5-26.7,4.3-43.3-11.4l-0.7-0.6l0.3,0.9
			c0,0.1,2.8,7.1,8.8,13.2l-1.8-1.5c-0.5-0.6-14.3-17.1-11.3-37.9c3.1-21.2,14.9-38.7,15.1-38.9l0.1-0.1l-0.7-2.6L419,376
			c-0.1,0.1-8.1,6.4-13.9,18.7c-5.2,11.1-9.7,29.4-1.8,54.2c-10.5-2.6-30.3-8.1-42-15.2l-1.8-1.1l1.5,1.4c0.2,0.1,16,14.8,27.6,18.2
			c11.5,3.4,35.4,10.1,35.6,10.2l1,0.3l-0.9-0.7c3.9,2.4,8.5,4.1,14,4.1c0.2,0,0.4,0,0.7,0c20.5-0.5,33.3-22.2,33.4-22.4l0.8-1.4
			L472.1,443.4z"/>
		<path class="st2" d="M297,160.8c23.4-13.3,28.4-39.6,29.3-47.3l0-0.1l-4.3-4.6l0,0.5c0,2.4-0.3,4.9-0.7,7.6
			c-1.9,13.1-8.9,25.3-19.2,33.5l-2.5,2.1c-0.4-2.1-0.8-4.3-1.2-6.5l-0.2-0.9l-0.3,0.5c-2.8,5-6.6,9.8-11.7,14.7
			c-6.5,6.2-14,10.8-21.8,13.4l-1.9,0.6l2-0.2c13.4-1.5,29.4-16.4,32-19v5.8L297,160.8z"/>
		<path class="st2" d="M226.2,432l-0.2,2c0,0.5-0.1,1-0.3,1.6c-0.2,0.8-0.4,1.6-0.7,2.2c-0.4,1-1.5,2.8-3.3,3.3
			c-4.2,1.2-6.4-5.6-6.5-5.7l-0.3-0.9l-0.1,1c-0.3,2.3-1.5,8.5-3.5,9c-1.6,0.4-3.1,0.2-4.4-0.7c-3.8-2.5-5.2-9.4-5.2-9.5l-0.2-1.1
			l-0.2,1.1c0,0.1-2.2,11.8-7.7,11.8c-0.1,0-0.1,0-0.2,0c-5-0.1-6.5-11.9-6.5-12.1l-0.1-1l-0.3,0.9c0,0.1-1.9,6.1-3.8,8.2
			c-2.5,2.8-5.2,3.9-7,3c-2.5-1.3-1.9-8.6-1.9-8.7l0.1-0.8l-0.5,0.7c0,0-3.2,4.8-6.2,4.9c-1,0-1.9-0.5-2.6-1.5
			c-1.2-1.6-2-3.6-2.2-5.8l-0.2-1.7l-0.2,1.7c-0.5,4.4,0.4,8.5,2.3,10.9c1,1.2,2.4,2,3.9,2.2l0.4,0l3.9-6.6l0.6,8.3l0,0.1
			c0.7,0.8,1.5,1.3,2.4,1.5c2.7,0.8,6.2-1.2,9-5l1.9-5.3l0.8,6l0.1,0.1c1.6,3.3,3.7,5.1,6,5.2c2.4,0,4.8-2.1,6.5-5.8l1.5-5.6
			l1.6,5.1l0.1,0.1c2.6,3.4,5.6,5.1,8.2,4.5c1.5-0.4,2.8-1.5,3.8-3.3l0.5-5.6l2.4,4.7l0.2,0.1c1.2,0.7,2.4,1,3.5,0.7
			c1.8-0.4,2.9-2.2,3.5-3.5c0.3-0.7,0.6-1.5,0.7-2.3c0.2-1.1,0.4-2.2,0.4-3.5c0-0.2,0-0.4,0-0.5c0-0.8,0-1.7-0.1-2.5L226.2,432z"/>
		<path class="st2" d="M327.7,432.3l-0.2,1.7c-0.3,2.1-1.1,4.1-2.2,5.8c-0.7,1-1.6,1.5-2.6,1.5c-3-0.1-6.1-4.9-6.2-4.9l-0.5-0.7
			l0.1,0.8c0,0.1,0.6,7.3-1.9,8.7c-1.8,0.9-4.4-0.2-7-3c-1.9-2.1-3.8-8.1-3.8-8.2l-0.3-0.9l-0.1,1c0,0.1-1.5,12-6.5,12.1
			c-0.1,0-0.1,0-0.2,0c-5.4,0-7.6-11.6-7.6-11.8l-0.2-1.1l-0.2,1.1c0,0.1-1.4,7-5.2,9.5c-1.3,0.8-2.8,1.1-4.4,0.7
			c-2-0.5-3.2-6.7-3.5-9l-0.1-1l-0.3,0.9c0,0.1-2.2,6.9-6.5,5.7c-1.8-0.5-2.8-2.3-3.3-3.3c-0.3-0.7-0.5-1.4-0.7-2.2
			c-0.1-0.6-0.2-1.1-0.3-1.6l-0.2-1.9l-0.2,1.9c-0.1,0.8-0.1,1.7-0.1,2.5c0,0.2,0,0.4,0,0.5c0,1.3,0.2,2.4,0.4,3.5
			c0.2,0.8,0.4,1.6,0.7,2.3c0.6,1.4,1.7,3.1,3.6,3.5c1.1,0.2,2.3,0,3.5-0.7l0.2-0.1l2.4-4.7l0.5,5.5l0,0.1c1,1.8,2.2,2.9,3.8,3.3
			c2.5,0.6,5.6-1.1,8.2-4.5l0.1-0.2l1.6-5l1.5,5.7c1.8,3.6,4.1,5.7,6.6,5.7c2.2,0,4.4-1.9,6-5.2l0-0.2l0.8-5.9l1.9,5.3l0,0.1
			c2.8,3.9,6.3,5.8,9,5c0.9-0.2,1.7-0.7,2.4-1.5l0-0.1l0.6-8.3l3.9,6.6l0.4,0c1.5-0.2,2.9-0.9,3.9-2.2c2-2.3,2.9-6.4,2.3-10.9
			L327.7,432.3z"/>
		<path class="st2" d="M312.2,27.2c5,4-4.3,23.3-4.4,23.5l0.4,0.2l9.1-9.4l0-0.1c0.4-0.9,8.7-21.3,5.2-26c-0.5-0.7-1.3-1-2.3-0.9
			c-8.1,0.8-31.3,16.6-32.3,17.3l-0.5,0.5C287.7,32.2,307.2,23.2,312.2,27.2z"/>
		<path class="st2" d="M181.9,51l0.5,0c-0.1-0.2-9.6-19.8-4.6-23.8c5-4,23.8,4.7,24,4.8l0.6,0.3c-1-0.7-24.5-16.9-32.6-17.7
			c-1-0.1-1.8,0.2-2.3,0.9c-3.4,4.6,4.9,25.1,5.2,26L181.9,51z"/>
		<path class="st2" d="M198.7,62.4c-0.7,0.9-1.3,1.8-2.3,2.7c-2,1.9-3.8,3.3-6.5,4.2l-0.5,0.2l0.4,0.2c0.7,0.4,1.3,0.8,1.9,1.2
			c0.8,0.5,1.6,1,2.5,1.5c1.8,1,3,2.6,4.3,4.3c0.7,0.9,1.4,1.9,2.2,2.7c2.6,2.6,6.2,4.1,9.9,4.1c0.6,0,1.2,0,1.9-0.1
			c3.4-0.5,7.9-3,10.3-7.6c1.1-2.1,5.7-5.5,5.7-5.5l0.2-0.1l-0.2-0.2c0,0-3.1-3.2-3.8-4.3c-0.4-0.5-0.8-1.2-1.2-1.9
			c-0.7-1.2-1.5-2.4-2.1-3.2c-4.5-5.6-12.4-6.8-17.9-2.9C201,59.3,199.8,60.9,198.7,62.4z"/>
		<path class="st2" d="M267.4,75.7c2.3,4.6,6.8,7.1,10.3,7.6c0.6,0.1,1.2,0.1,1.9,0.1c3.7,0,7.3-1.5,9.9-4.1
			c0.8-0.8,1.5-1.8,2.2-2.7c1.3-1.7,2.5-3.3,4.3-4.3c0.9-0.5,1.7-1,2.5-1.5c0.6-0.4,1.3-0.8,1.9-1.2l0.4-0.2l-0.5-0.2
			c-2.7-0.9-4.5-2.3-6.5-4.2c-0.9-0.9-1.6-1.8-2.3-2.7c-1.1-1.5-2.3-3.1-4.8-4.9c-5.5-3.9-13.4-2.7-17.9,2.9c-0.7,0.8-1.4,2-2.1,3.2
			c-0.4,0.7-0.9,1.4-1.2,1.9c-0.8,1.1-3.8,4.3-3.8,4.3l-0.2,0.2l0.2,0.1C261.7,70.3,266.3,73.7,267.4,75.7z"/>
		<path class="st2" d="M217,125.1c0,18.9,12.6,34.3,28,34.3c15.4,0,28-15.4,28-34.3s-12.6-34.3-28-34.3
			C229.6,90.9,217,106.3,217,125.1z"/>
		<path class="st2" d="M263.7,429l4.3-7.4l-0.2-0.1c-21.2-8.8-43.8-1.1-44-1.1l-0.2,0.1l4.1,8.5l0.2-0.1c12.1-7.5,35.4-0.1,35.6,0
			L263.7,429z"/>
	</g>
	<g>
		<path class="st3" d="M269.1,71.6l3.6,4.1c0.2,0.2,0.4,0.4,0.6,0.6c1.7,1.6,4,2.5,6.3,2.5c0.1,0,0.2,0,0.3,0
			c2.5-0.1,4.7-1.1,6.4-2.9c1.7-1.8,2.6-4.1,2.5-6.6c-0.1-2.5-1.1-4.7-2.9-6.4c-1.7-1.6-3.9-2.5-6.3-2.5c-2.6,0-5,1-6.7,2.9
			c-0.8,0.9-1.4,1.9-1.9,3l-2,5.1l-0.2-0.1L269.1,71.6l-0.3,0.5L269.1,71.6z M272.1,66.8c0.2-0.3,0.4-0.6,0.6-0.9
			c2.1-2.3,5.7-2.5,8-0.5c-0.8,0.2-1.6,0.7-2.2,1.3c-0.9,0.9-1.3,2.1-1.3,3.3c0,1.2,0.6,2.4,1.5,3.3c0.6,0.6,1.3,0.9,2.1,1.1
			c-2.1,1.8-5.1,1.9-7.4,0.3l-4.4-3.3L272.1,66.8z"/>
		<path class="st3" d="M221,71.4l-1.9-5.1c-0.4-1.1-1.1-2.2-1.9-3c-3.5-3.7-9.3-3.9-13-0.4c-3.7,3.5-3.9,9.3-0.4,13
			c1.7,1.8,4,2.8,6.4,2.9c0.1,0,0.2,0,0.3,0c2.4,0,4.6-0.9,6.3-2.5c0.2-0.2,0.4-0.4,0.6-0.6l3.6-4.1l0.2,0.3L221,71.4l0.2-0.2
			L221,71.4z M216.5,74.8L216.5,74.8c-2.2,1.7-5.3,1.5-7.4-0.3c0.8-0.2,1.5-0.6,2.1-1.1c1.9-1.8,2-4.7,0.2-6.6
			c-0.6-0.6-1.3-1.1-2.2-1.3c1.1-0.9,2.5-1.4,3.9-1.3c1.6,0.1,3,0.7,4.1,1.9c0.2,0.3,0.5,0.5,0.7,0.9l3,4.6L216.5,74.8z"/>
		<path class="st3" d="M278.4,179.9l5.1,11.2l0.2-0.1c0.1,0,9.3-3.9,17.9-11.3c7.7-6.6,16.4-17.3,15.1-31.6l4.9,12.1l0.2-0.2
			c0.1-0.1,7.5-6.8,13-17.6c4.9-9.7,9-24.8,1.7-42l10.8,12.7l0-0.6c0-0.1,0.1-10.2-3.3-22.5c-3.1-11.4-9.9-27.1-24.5-37.3l-0.1-0.1
			l-2.8,1.8l2.2,0.3c1.1,1.2,18.8,20.8,22.7,47.6c-0.9-0.8-3.3-2.6-5.6-3.4l-0.6-1.3l0.2,1.1l-0.4-0.1l0.4,0.5
			c0.2,1.7,5,38.2-11.5,53.3c-0.6-1.1-3.5-5.5-7.4-6.1l-0.1-0.9l-0.2,0.8l-0.2,0l0.1,0.3c-0.4,1.5-8.3,28.7-30.3,38.8
			c-0.5-1.3-3.3-7.8-7.6-6.9l-0.1-0.3l-0.3,0.4l-0.2,0l0.1,0.1c-0.8,1.2-9.2,13.3-22.2,16.7c-8,2.1-10.2,4.4-10.7,5.5
			c-0.6-1.1-2.7-3.3-10.7-5.5c-13-3.4-21.4-15.6-22.2-16.7l0.1-0.1l-0.2,0l-0.3-0.4l-0.1,0.3c-4.4-0.9-7.1,5.6-7.6,6.9
			c-22-10.1-29.8-37.3-30.3-38.8l0.1-0.3l-0.2,0l-0.2-0.8l-0.1,0.9c-3.9,0.6-6.7,5-7.4,6.1c-16.6-15.1-11.8-51.6-11.5-53.3l0.4-0.5
			l-0.4,0.1l0.2-1.1l-0.6,1.3c-2.3,0.8-4.7,2.6-5.6,3.4c3.9-26.8,21.6-46.4,22.7-47.6l2.2-0.3l-2.8-1.8l-0.1,0.1
			C155.9,63,149.1,78.7,146,90.1c-3.4,12.3-3.3,22.4-3.3,22.5l0,0.6l10.8-12.7c-7.4,17.2-3.2,32.3,1.7,42
			c5.4,10.8,12.9,17.5,13,17.6l0.2,0.2l4.9-12.1c-1.3,14.2,7.4,25,15.1,31.6c8.6,7.4,17.9,11.3,17.9,11.3l0.2,0.1l5.1-11.2
			c0.2,7.8,13.9,18.9,19.2,20.3c5.2,1.3,12.7,7.2,14,8.2l0,0.4l0.3-0.2l0.3,0.2l0-0.4c1.2-1,8.7-6.9,14-8.2
			C264.5,198.8,278.2,187.7,278.4,179.9z"/>
		<path class="st3" d="M368.9,208.8l10.3,8.4l-0.1-0.5c0-0.5-5.1-45.7-15.7-59.3l-18.7-30v4.8l0,0.1c0.2,0.4,23.8,36.7,28.2,73.6
			l-10.9-5.5l0.1,0.5c0.1,0.4,10.6,39.2,9.4,63.7l-9.8-9.8l0.1,0.6c0.1,0.4,5.4,42-0.5,66.4l-7.6-8.9l0,0.6c0,0.4,0.4,42.4-7.8,66.6
			l-5.4-7.4l-0.1,0.5c0,0.2-3,20.1-18.3,45.8l-0.1,0.1l3.9,3.9l0.1-0.3c0.6-1.3,14.8-30.4,15.9-40.9l2.7,7.8l4.8-5l0,0l0-0.1
			c0.1-0.4,9.3-39.8,7.4-58.8l4.9,6.3l0.1-0.3c0.1-0.2,6.6-15.9,6.6-32.3c0-14.2-1.3-29-1.7-32.7l6.7,10.5l0.1-0.5
			c0.1-0.3,5.7-26.9-1.5-50.5L368.9,208.8z"/>
		<path class="st3" d="M416.3,341.3l-11.5-22.1l8.6,3.1l-10.2-27.2l0,0l-17.9-25.1l-8.3-6.8v2.7l0,0.1c0.3,0.3,25.5,31.9,29.2,48.8
			l-10.2-0.9l0.2,0.4c0.1,0.2,12.3,19.9,14.7,28.3c-2.6-1.5-15-8.5-22.7-7.4l-0.7,0.1l0.7,0.3c0.2,0.1,23.9,10.8,30.7,19.8l0.6,0.8
			L416.3,341.3L416.3,341.3z"/>
		<path class="st3" d="M485.8,375.4c-0.4-2.4-1.5-9.5-6.7-10.3c-1.7-0.3-4,0.4-5.6,1l-0.6-0.8c-2.6-3.6-6.8-6.7-10.8-4.6l-1.2,0.7
			c-0.8-1.4-1.7-2.9-2.9-3.9c-1.2-1.1-2.6-1.6-4.1-1.5c-1.7,0.1-3.5,1-4.7,2.4l-1,1l-1-1.1c-2.3-2.5-5.8-2-8.1-0.8
			c-0.9,0.4-1.8,1.1-2.6,1.7l-0.2,0.1c-0.1,0-0.1,0.1-0.2,0.1l-0.8-1.2c-1.5-1.7-3.3-2.4-5.5-1.9c-4.1,0.9-8.4,6.2-9.3,10.2
			c-0.2,1.3-0.2,2.6,0,3.9l0.2,0.9l0.2-0.9c1-3.8,5.1-8.8,9-9.7c1.9-0.4,3.7,0.2,5,1.8l1.1,1.5l0.2-0.1c0.1-0.1,0.2-0.2,0.4-0.3
			l0.2-0.1c0.8-0.6,1.7-1.3,2.6-1.6c2.2-1.1,5.4-1.6,7.6,0.8l1.3,1.4l1.3-1.4c1.2-1.3,2.8-2.2,4.4-2.3c1.4-0.1,2.7,0.4,3.8,1.4
			c1.1,0.9,2,2.4,2.8,3.8l0.2,0.3l1.5-0.9c3.7-1.9,7.7,1.1,10.2,4.5l0.8,1.1l0.2-0.1c2.5-0.9,4.3-1.3,5.5-1.1c4.9,0.8,6,7.7,6.4,10
			c0,0,0,0,0,0.1l0.3,1.1l0.2-1.1C486,378.3,486,376.8,485.8,375.4z"/>
		<path class="st3" d="M321.4,422c-1.4-0.4-3.2,0-5,1.1l-0.2,0.1l-0.9,3.1l-1.1-2.8l-0.3-0.4c-2.8-3.6-6.1-5.4-8.8-4.7
			c-0.4,0.1-0.7,0.3-1.1,0.5l-0.2,0.1l-1.1,3.9l-1.7-4.4l-0.1-0.1c-1.1-1.5-2.9-3.3-5.1-3.3h-0.1c-1.6,0-3.1,1-4.5,2.8l-1.6,4.8
			l-1.4-4.3l-0.2-0.1c-0.6-0.4-1.2-0.7-1.8-0.9c-1.3-0.3-2.6,0-4.1,0.8c-0.4,0.2-0.8,0.4-1.2,0.8c-0.5,0.4-1.1,0.9-1.6,1.5l-1.1,1.2
			l-1-1.3c-0.7-0.9-1.6-1.5-2.5-1.7c-2.2-0.5-5,1.1-7.3,4.3c-1.5,2.2-2.7,4.9-3.4,7.8c-0.5,2.1-0.7,4.2-0.7,6.2l0,0.6l0.4,0
			c0.1-1.4,0.3-2.9,0.7-4.3c0.7-2.9,1.9-4.8,3.3-6.9c2.1-3,4.7-4.6,6.8-4.1c0.8,0.2,1.6,0.7,2.2,1.6l1.3,1.7l1.5-1.5
			c0.5-0.5,1.1-1,1.6-1.4c0.4-0.3,0.8-0.5,1.1-0.7c1.3-0.7,2.6-1,3.8-0.7c2.1,0.5,3.2,5.6,3.2,5.6l0.2,1l0.2-1
			c0-0.1,1.8-7.6,5.9-7.9h0.1c4.5,0,6.7,8,6.7,8.1l0.2,0.7l0.2-0.7c0.3-1.2,1.4-4.3,2.4-4.8c1-0.6,2.1-0.7,3.1-0.3
			c3.8,1.3,6.7,8.5,6.7,8.5l0.2,0.6l0.2-0.6c0,0,1-3.4,3.2-4.5c0.8-0.4,1.6-0.5,2.5-0.2c2.4,0.8,3.9,3.8,4.6,5.6
			c1,2.5,1.5,4.1,1.7,6.5l0.4,0c0.2-3.2-0.4-6.7-1.7-9.9C325.4,425.5,323.8,422.7,321.4,422z"/>
		<path class="st3" d="M179.9,59.1l1.2,0.6c-18.7-20.1-16.6-44.7-16.6-44.9c0.3-3.2,0.8-5.4,2.4-6.2c2.5-1.3,8,0.7,17.7,6.4
			c20.6,12.1,33.1,13.3,33.1,13.3l-1.2-0.7l-3.5-2.3c1.6-0.2,37.8-5.6,64.1-0.1l-5.6,3.4l0.4-0.1c0.1,0,12.9-1.3,33.5-13.4
			c9.8-5.7,15.2-7.7,17.7-6.4c1.6,0.8,2.1,3,2.4,6.2c0,0.2,2.3,24.6-16.4,44.7l1.4-0.7c0.2-0.1,18.8-12.5,20.4-37.9
			c0.6-9.1-1-15-4.8-17.4c-4.4-2.9-10.3,0-10.4,0.1l-35.4,19.8l1.4-1.1l-0.5-0.1c-0.5-0.1-47.1-9-71.7,0.5l-0.4,0.2l2.4,1.6
			L174.2,3.5c-0.1,0-5.9-3-10.4-0.1c-3.8,2.5-5.4,8.4-4.8,17.4C160.7,46.3,179.7,59,179.9,59.1z"/>
		<path class="st3" d="M164.1,423.1l3.9-3.9l-0.1-0.1c-15.3-25.7-18.3-45.6-18.3-45.8l-0.1-0.5l-5.4,7.4
			c-8.2-24.2-7.8-66.2-7.8-66.6l0-0.6l-7.6,8.9c-5.8-24.4-0.5-66-0.5-66.4l0.1-0.6l-9.8,9.8c-1.2-24.6,9.3-63.3,9.4-63.7l0.1-0.5
			l-10.9,5.5c4.3-36.9,27.9-73.2,28.2-73.6l0-0.1v-4.8l-18.7,30c-10.6,13.6-15.7,58.9-15.7,59.3l-0.1,0.5l10.3-8.4l-3.3,17.4
			c-7.3,23.6-1.6,50.3-1.5,50.5l0.1,0.5l6.7-10.5c-0.4,3.7-1.7,18.5-1.7,32.7c0,16.3,6.5,32.1,6.6,32.3l0.1,0.3l4.9-6.3
			c-1.8,19,7.3,58.4,7.4,58.8l0,0.1l4.9,5.1l2.7-7.8c1,10.5,15.2,39.6,15.9,40.9L164.1,423.1z"/>
		<path class="st3" d="M104.7,270.1l-17.9,25.1l-10.2,27.2l8.6-3.1l-11.4,22.1l-3.2,14.9l0.6-0.8c6.7-9,30.4-19.7,30.7-19.8l0.7-0.3
			l-0.7-0.1c-7.6-1.1-20.1,5.9-22.7,7.4c2.3-8.4,14.5-28.1,14.7-28.3l0.2-0.4l-10.2,0.9c3.6-16.9,28.9-48.5,29.2-48.8l0-0.1v-2.7
			L104.7,270.1L104.7,270.1z"/>
		<path class="st3" d="M60.1,356.4c-2.1-0.5-4,0.2-5.5,1.9l-0.8,1.1c-0.1,0-0.1-0.1-0.2-0.1l-0.2-0.1c-0.8-0.6-1.8-1.3-2.6-1.7
			c-2.3-1.2-5.8-1.7-8.1,0.8l-1,1.1l-1-1c-1.3-1.4-3-2.3-4.7-2.4c-1.5-0.1-2.9,0.4-4.1,1.5c-1.2,0.9-2.1,2.5-2.9,3.9l-1.2-0.7
			c-4-2-8.2,1-10.7,4.6l-0.6,0.8c-1.6-0.6-3.9-1.3-5.6-1c-5.2,0.8-6.3,8-6.7,10.3c-0.2,1.4-0.2,2.8,0,4.2l0.2,1.1l0.3-1.1
			c0,0,0,0,0-0.1c0.4-2.3,1.5-9.2,6.4-10c1.2-0.2,3.1,0.2,5.5,1.1l0.2,0.1l0.8-1.1c2.5-3.4,6.5-6.4,10.2-4.5l1.5,0.9l0.2-0.3
			c0.8-1.4,1.7-2.9,2.8-3.8c1.1-1,2.4-1.5,3.8-1.4c1.6,0.1,3.2,0.9,4.4,2.3l1.3,1.4l1.3-1.4c2.1-2.3,5.4-1.9,7.6-0.7
			c0.8,0.4,1.7,1,2.6,1.6l0.2,0.1c0.1,0.1,0.2,0.2,0.4,0.3l0.2,0.1l1.1-1.5c1.3-1.6,3.1-2.2,5-1.8c3.9,0.9,7.9,5.8,9,9.7l0.2,0.9
			l0.2-0.9c0.3-1.3,0.3-2.6,0-3.9C68.4,362.7,64.1,357.4,60.1,356.4z"/>
		<path class="st3" d="M222.5,422.9c-2.2-3.2-5-4.8-7.3-4.3c-0.9,0.2-1.8,0.8-2.5,1.7l-1,1.3l-1.1-1.2c-0.5-0.6-1.1-1.1-1.6-1.5
			c-0.4-0.3-0.8-0.6-1.2-0.8c-1.4-0.8-2.8-1.1-4.1-0.8c-0.6,0.1-1.2,0.4-1.8,0.9l-0.2,0.1l-1.4,4.3l-1.6-4.7l0-0.1
			c-1.4-1.8-2.9-2.8-4.5-2.8h-0.1c-2.2,0-4,1.8-5.1,3.4l-1.8,4.5l-1.1-3.9l-0.2-0.1c-0.4-0.2-0.7-0.4-1.1-0.5
			c-2.6-0.7-6,1.1-8.8,4.7l-0.2,0.3l-1.1,2.8l-0.9-3.1l-0.2-0.1c-1.8-1.2-3.5-1.5-5-1.1c-2.4,0.7-4,3.6-4.9,5.8
			c-1.3,3.2-1.9,6.7-1.7,9.9l0.4,0c0.1-2.4,0.7-4.1,1.7-6.5c0.7-1.8,2.3-4.8,4.6-5.6c0.9-0.3,1.8-0.2,2.5,0.2
			c2.1,1.1,3.2,4.5,3.2,4.5l0.2,0.6l0.2-0.6c0-0.1,2.9-7.2,6.7-8.5c1.1-0.4,2.1-0.3,3.1,0.3c0.9,0.5,2,3.7,2.4,4.8l0.2,0.7l0.2-0.7
			c0-0.1,2.2-8.1,6.7-8.1l0.1,0c4.1,0.3,5.9,7.8,6,7.9l0.2,1l0.2-1c0-0.1,1.1-5.2,3.2-5.6c1.2-0.3,2.4,0,3.8,0.7
			c0.4,0.2,0.7,0.4,1.1,0.7c0.5,0.4,1.1,0.9,1.6,1.4l1.5,1.5l1.3-1.7c0.7-0.8,1.4-1.4,2.2-1.6c2.1-0.5,4.7,1.1,6.8,4.1
			c1.4,2,2.6,4,3.3,6.9c0.3,1.4,0.6,2.9,0.7,4.3l0.4,0l0-0.6c0-2-0.2-4.1-0.7-6.2C225.2,427.9,224,425.1,222.5,422.9z"/>
	</g>
	<path class="st4" d="M466.8,378.4c0.5,3.1,3.2,5.3,6.3,4.9C472.7,380.2,469.9,378.1,466.8,378.4z M455.6,372c1.6,2.8,5,3.9,7.9,2.6
		C461.9,371.7,458.5,370.6,455.6,372z M39.8,371.4c2.2,2.3,5.8,2.5,8.3,0.5C45.9,369.6,42.3,369.4,39.8,371.4z M69.2,405.2
		c-3.1-11-9.6-19.8-18.1-24c-5.9-3-12.3-3.4-18-1.2c-12.5,4.8-19.4,21.4-16.1,38.6c3.4,17.6,16,30.3,29.4,30.3c0.9,0,1.8,0,2.7-0.2
		c6.5-0.8,12.2-4.6,16.2-10.5C71,429.6,72.5,417.2,69.2,405.2z M26.5,374.6c2.9,1.3,6.3,0.2,7.9-2.6
		C31.5,370.6,28.1,371.7,26.5,374.6z M456.9,380c-5.7-2.2-12.1-1.7-18,1.2c-8.4,4.2-15,13-18.1,24c-3.3,12-1.9,24.3,3.9,33
		c4,6,9.7,9.7,16.2,10.5c0.9,0.1,1.8,0.2,2.7,0.2c13.4,0,26.1-12.7,29.4-30.3C476.3,401.4,469.4,384.8,456.9,380z M473.2,383.3
		c-0.5-3.1-3.2-5.2-6.3-4.9C467.3,381.5,470,383.6,473.2,383.3z M463.5,374.6c-1.6-2.8-5-3.9-7.9-2.6
		C457.1,374.8,460.5,375.9,463.5,374.6z M450.2,371.4c-2.5-2-6-1.8-8.3,0.5C444.4,373.9,448,373.7,450.2,371.4z M437.9,372.9
		c-2.8-1.4-6.2-0.4-7.8,2.3C432.9,376.6,436.3,375.7,437.9,372.9z M149.4,373.2L149.4,373.2c0,0.1,0,0.4,0.1,0.8L149.4,373.2z
		 M136.1,313.6l0-0.1l0,0V313.6z M127.7,200.8L127.7,200.8L127.7,200.8C127.7,200.7,127.7,200.8,127.7,200.8z M69.2,405.2
		c-3.1-11-9.6-19.8-18.1-24c-5.9-3-12.3-3.4-18-1.2c-12.5,4.8-19.4,21.4-16.1,38.6c3.4,17.6,16,30.3,29.4,30.3c0.9,0,1.8,0,2.7-0.2
		c6.5-0.8,12.2-4.6,16.2-10.5C71,429.6,72.5,417.2,69.2,405.2z M59.9,375.2c-1.6-2.7-4.9-3.7-7.7-2.3
		C53.7,375.7,57.1,376.6,59.9,375.2z M48.1,371.9c-2.2-2.3-5.8-2.5-8.3-0.5C42,373.7,45.6,373.9,48.1,371.9z M34.4,372
		c-2.9-1.3-6.3-0.2-7.9,2.6C29.5,375.9,32.9,374.8,34.4,372z M23.2,378.4c-3.1-0.3-5.9,1.8-6.3,4.9C20,383.6,22.7,381.5,23.2,378.4z
		 M324.3,18.5c-0.5-3.9-2.7-7-7-5.7c-5.1,1.6-9.4,4.4-13.9,7.1c-5.7,3.7-11.3,7.4-16,12.4l0,0c0,0,0.1,0,0.1-0.1
		c0.1,0,0.1,0,0.2-0.1c0,0,0.1,0,0.1-0.1c0.1,0,0.2-0.1,0.3-0.1c0.2-0.1,0.5-0.2,0.7-0.3c0.1-0.1,0.3-0.1,0.4-0.2c0,0,0,0,0,0
		c8.4-4,16-9.7,24.4-13.6c1.9-0.8,3.7-1.7,5.6-1.8c0.2,0,0.4,0.3,0.7,1c1,2.6,0.7,6.1,0.3,8.9c-1.4,9.8-6.9,18.1-13.4,25.6
		C318.4,47.1,325.8,30.1,324.3,18.5z M289.8,65.6c-0.6-1.5-1.5-2.9-2.7-4c-4.4-4.1-11.4-3.9-15.6,0.5c-1.4,1.5-2.3,3.2-2.7,5.1
		c-1.7,2.5-4.2,3-4.2,3c2.2,0.3,3.6,1.5,4.3,2.5c0.5,1.9,1.5,3.6,3.1,5c2.1,1.9,4.7,3,7.5,3c0.1,0,0.2,0,0.4,0
		c2.9-0.1,5.7-1.3,7.7-3.5c1.1-1.1,1.8-2.5,2.3-3.9c2.4-3,6.1-3.6,6.1-3.6C293.1,69.1,291,67,289.8,65.6z M281.8,74.5
		c0.1-0.2,0.3-0.3,0.4-0.5c-1,0-2.1-0.3-3-1.1c-1.6-1.5-1.7-4.1-0.2-5.7c0.8-0.9,1.9-1.3,3-1.3c-0.2-0.2-0.4-0.4-0.6-0.6
		c-2.6-2.5-6.8-2.3-9.2,0.3c-0.3,0.3-0.5,0.6-0.7,0.9c0.4-1,1-2,1.7-2.8c1.7-1.8,4-2.7,6.3-2.7c2.1,0,4.2,0.8,5.9,2.3
		c1.7,1.6,2.6,3.7,2.7,6c0.1,2.3-0.7,4.5-2.3,6.2c-1.6,1.7-3.7,2.6-6,2.7c-2.3,0.1-4.5-0.7-6.2-2.3c-0.2-0.2-0.4-0.4-0.6-0.6
		C275.8,77.2,279.5,76.9,281.8,74.5z M262.8,149.8c-4.7,4.4-11.3,6.6-17.7,5.9c-1.6,0.1-3.4,0.2-5.1-0.1
		c-12.5-1.4-19.1-11.6-22.2-22.9c-0.1-0.2-0.1-0.4-0.2-0.6c0.1,3.5,0.7,7,1.8,10.4c3.5,11.1,13.8,18.2,25.5,17.2
		c3.7,0.3,7.4-0.2,10.9-1.5c10.8-3.9,16.2-15.2,16.4-26.1c0,0.2-0.1,0.3-0.1,0.5C270.3,139,267.7,145.2,262.8,149.8z M239.2,134.6
		c-1.5,1.3-3.7,1.5-5.6,1.5c-3.7-0.2-6.4-2-8.9-5.3c0.2,5.7,5.4,9.6,10.9,9.3c4.5,0.1,7.5-2.2,9.3-5.6c1.8,3.3,4.9,5.7,9.3,5.6
		c5.6,0.2,10.8-3.6,10.9-9.3c-2.5,3.3-5.2,5.1-8.9,5.3c-1.9,0-4.1-0.2-5.6-1.5c-2.5-2.3-3.2-5.9-3.6-9.3c0-1-0.1-1.9-0.2-2.8
		c3.9-0.2,12.3-1.7,14.4-12c2.8-13.6-16.5-13.6-16.5-13.6h0c0,0-19.3,0-16.5,13.6c2.1,10.3,10.5,11.9,14.4,12
		c-0.1,0.9-0.2,1.9-0.2,2.8C242.5,128.8,241.7,132.3,239.2,134.6z M221,72.5c0.8-1,2.2-2.2,4.3-2.5c0,0-2.5-0.5-4.2-2.9
		c-0.4-1.9-1.3-3.6-2.7-5.1c-4.2-4.4-11.1-4.7-15.6-0.5c-1.2,1.2-2.1,2.5-2.7,4c-1.2,1.5-3.3,3.5-6.2,4c0,0,3.7,0.6,6.1,3.6
		c0.5,1.4,1.3,2.7,2.3,3.9c2,2.2,4.7,3.4,7.7,3.5c0.1,0,0.2,0,0.4,0c2.8,0,5.5-1,7.5-3C219.4,76.2,220.5,74.5,221,72.5z M216.7,63.7
		c0.8,0.8,1.4,1.8,1.8,2.8c-0.2-0.3-0.5-0.7-0.7-1c-2.5-2.6-6.6-2.8-9.2-0.3c-0.2,0.2-0.4,0.4-0.6,0.6c1.1,0,2.2,0.4,3,1.3
		c1.5,1.6,1.4,4.2-0.2,5.7c-0.8,0.8-1.9,1.1-2.9,1.1c0.1,0.2,0.3,0.3,0.4,0.5c2.3,2.4,6,2.7,8.6,0.8c-0.2,0.2-0.4,0.4-0.6,0.6
		c-1.7,1.6-3.9,2.4-6.2,2.3c-2.3-0.1-4.4-1-6-2.7c-3.2-3.5-3.1-8.9,0.4-12.1C208,60.1,213.5,60.2,216.7,63.7z M170.5,16.2
		c0,0,0,0,0.1,0c0.1,0,0.2,0,0.3,0c1.8,0.2,3.5,1,5.3,1.8c8.5,3.9,16,9.5,24.4,13.6c0,0,0,0,0,0c0.1,0.1,0.3,0.1,0.4,0.2
		c0.2,0.1,0.5,0.2,0.7,0.3c0.1,0.1,0.2,0.1,0.3,0.1c0,0,0.1,0,0.1,0.1c0.1,0,0.1,0.1,0.2,0.1c0,0,0.1,0,0.1,0.1l0,0
		c-4.7-5-10.3-8.8-16-12.4c-4.4-2.7-8.7-5.6-13.9-7.1c-4.3-1.3-6.5,1.8-7,5.7c-1.4,11.6,5.9,28.6,17.3,33.1
		c-7.5-8.5-13.7-18.7-13.7-30.3C169.3,19.5,169.4,17.2,170.5,16.2z M482.7,362.7c-2.5-1.2-5.6-0.9-8.1,0.1c-3-3.5-7.8-6.4-12.4-5
		c-3.5-4.7-9.3-5.9-14-2.2c-3.3-2.3-7.9-1.8-11.4,0.2c-1.2-1.1-2.8-1.8-4.4-2c-3.7-0.3-7,1.3-9.7,3.9c-3.3-15.8-10.6-28.7-15.1-35.5
		l8.3,2.8l-0.9-3.6c-5.9-23.8-20.7-43.2-29.7-53.3c-4-4.5-6.8-7.1-7.2-7.4l-0.2,0.2c0.3-14.3-2.1-28.3-4.6-38.5
		c-0.8-3.4-1.6-6.4-2.4-8.8l9.8,8.4l-0.3-4.8c-3.4-54.8-33.6-90.6-38-95.5c0.1-3.2,0.1-6.1-0.1-8.5l5.7,6.8l0.3-5
		C350.8,78.5,327,56,321,51c7.3-8.4,11-20.5,11.4-31.4c0.1-6.1-0.6-17.1-7.7-19.4c-1.8-0.5-3.8,0-5.1,0.6c-2.5,1.1-4.9,2.2-7.2,3.4
		c-10.1,5-20.2,9.9-29.6,16c-10.9-4.3-34.3-4.3-37.7-4.3c-3.5,0-26.9-0.1-37.7,4.3c-9.4-6.1-19.5-11-29.6-16
		c-2.4-1.2-4.8-2.3-7.2-3.4c-1.3-0.6-3.2-1.1-5.1-0.6c-4.8,1.5-6.4,7-7.2,11.2c-2,12.9,1.8,29.1,10.9,39.6c-5.9,5-29.9,27.4-27.4,64
		l0.3,5l5.7-6.8c-0.2,2.4-0.2,5.3-0.1,8.5c-4.4,4.9-34.6,40.7-38,95.5l-0.3,4.8l9.8-8.4c-2.9,9.7-7.4,28.3-7,47.3l-0.2-0.2
		c-1.2,1.1-28.4,26.4-36.9,60.8l-0.9,3.6l8.3-2.8c-4.5,6.8-11.8,19.6-15.1,35.5c-2.7-2.6-6.1-4.2-9.7-3.9c-1.6,0.2-3.2,0.9-4.4,2
		c-3.5-2-8.1-2.5-11.4-0.2c-4.7-3.6-10.5-2.5-14,2.2c-4.5-1.4-9.4,1.5-12.4,5c-2.5-1-5.6-1.4-8.1-0.1c-6.4,3.2-8.4,12.7-6.8,19.1
		c0.6,2.9,2.3,5.3,4.4,6.9c-1.5,8.7-1.1,25.3,0.3,33.6c4.4,25.3,24.8,45,46,45c0.7,0,1.3,0,2-0.1c2.7-0.2,5.3-0.7,7.9-1.5
		c3.1-0.6,6.2-1.2,9.4-1.8c14.7-3.2,29.4-7.9,42.5-15.3c24-1.2,40-7.7,45.7-10.4c0.3,3.4,1.4,6.5,3.2,8.8c2.1,2.5,5.1,3.7,8.4,3.4
		c1.2,1.6,2.8,2.7,4.6,3.2c3.5,1,7.4-0.5,10.8-4c2.1,3.2,4.9,5.1,7.8,5.1c0,0,0.1,0,0.2,0c3.2,0,6.2-2.1,8.5-5.8
		c3.1,3.3,6.8,4.8,10.1,4c2.2-0.5,4-1.8,5.4-3.9c1.7,0.7,3.4,1,5,0.6c2.6-0.6,4.6-2.5,5.9-5.5c0.4-0.9,0.7-1.9,0.9-2.9
		c0.3-1.2,0.4-2.6,0.5-4.1c0.1-2.3-0.2-4.7-0.8-7.1c0,0,0,0,0-0.1c5.2-2.3,10.9-2.9,16-2.7c7.6,0.2,13.9,2.2,15.7,2.7c0,0,0,0,0,0
		c-0.5,2.2-0.8,4.4-0.8,6.5c0,0.2,0,0.4,0,0.6c0,1.5,0.2,2.9,0.5,4.1c0.2,1,0.5,2,0.9,3c1.3,3,3.4,4.9,5.9,5.5
		c1.6,0.4,3.3,0.2,5-0.6c1.4,2.1,3.2,3.4,5.4,3.9c3.4,0.8,7-0.7,10.1-4c2.3,3.7,5.3,5.8,8.5,5.7h0.2c3-0.1,5.7-1.9,7.8-5.1
		c3.4,3.5,7.3,5,10.8,4c1.8-0.5,3.3-1.6,4.6-3.2c3.3,0.3,6.3-0.8,8.4-3.4c1.9-2.2,3-5.3,3.2-8.8c5.7,2.7,21.6,9.2,45.7,10.4
		c13.1,7.4,27.8,12,42.5,15.3c3.1,0.6,6.2,1.2,9.4,1.8c2.5,0.8,5.2,1.3,7.9,1.5c0.7,0,1.3,0.1,2,0.1c21.2,0,41.5-19.8,46-45
		c1.5-8.3,1.8-24.9,0.3-33.6c2.2-1.5,3.8-4,4.4-6.9C491.1,375.4,489.1,365.9,482.7,362.7z M478.2,388.4c-0.8,0.1-1.7,0.2-2.6,0.2
		c1.9,1.3,3.8,1.7,5.6,1.5c1.2,8.4,0.9,23.7-0.5,31.4c-1.5,8.4-4.9,16.4-9.9,23.2c-1.9,2.6-4,4.9-6.3,7.1
		c-8.3,7.9-18.1,11.9-27.6,11.3c-8.9-0.5-16.8-5.2-22.3-13.2c-0.9-1.3-1.8-2.7-2.6-4.2c-6.3-11.9-7.3-27.8-2.5-43.4
		c3.2-10.5,9.6-19.8,12.2-23.3c1.8,1.2,3.9,2,6,2.2c-3.3-3.1-6.5-7-6.7-11.5c0-0.7,0-1.5,0.1-2.3c1.2-5,9-13.6,13.7-8l1.2,1.6
		c1-0.7,2.3-1.7,3.4-2.2c2.4-1.2,5.4-1.4,7.4,0.7l1.4,1.5l1.5-1.5c2.1-2.4,5.5-3.1,7.9-0.9c1.2,1,2.2,2.8,3.1,4.2l1.7-1
		c3.8-2,7.7,1.3,9.9,4.4l0.9,1.2c1.7-0.7,4.1-1.4,5.7-1.2c4.2,0.7,5.6,6.1,6.2,9.8c0.1,0.6,0.1,1.2,0.1,1.7
		C485.4,382.7,483.2,387.7,478.2,388.4z M305.8,445l-2.7-7.5l-1.2,8.4c-1.5,3-3.5,4.8-5.4,4.8h-0.1c-1.1,0-2.1-0.5-3.1-1.4
		c-1-0.9-2-2.2-2.8-3.9l-2.1-7.6l-2.3,7c-2.4,3.2-5.2,4.8-7.5,4.3c-1.6-0.4-2.7-1.7-3.4-2.9l-0.6-7.5l-3.3,6.5
		c-0.9,0.5-2,0.9-3.1,0.7c-1.6-0.4-2.6-1.9-3.1-3.2c-0.3-0.7-0.5-1.4-0.7-2.3c-0.2-1-0.3-2.1-0.4-3.3c0-0.2,0-0.4,0-0.5
		c0-0.3,0-0.6,0-0.9v0c0-0.6,0.1-1.1,0.1-1.7c0.1-1,0.3-2,0.5-2.9c0.7-2.8,1.8-5.5,3.3-7.6c2.1-3,4.6-4.5,6.6-4.1
		c0.8,0.2,1.5,0.7,2.1,1.5l1.4,1.9l1.6-1.7c0.5-0.5,1-1,1.6-1.4c0.4-0.3,0.8-0.5,1.1-0.7c1.3-0.7,2.5-1,3.6-0.7
		c0.6,0.1,1.1,0.4,1.6,0.7l1.9,6l2.1-6.4c1-1.3,2.3-2.5,4-2.6h0.1c2,0,3.6,1.7,4.6,3.1l2.4,6l1.6-5.4c0.3-0.2,0.6-0.3,0.9-0.4
		c2.4-0.7,5.5,1.1,8.1,4.5l0.2,0.3l1.8,4.4l1.4-4.6c1.3-0.8,2.9-1.5,4.5-1.1c2.1,0.6,3.6,3.3,4.5,5.5c0.9,2.2,1.4,4.5,1.6,6.7
		c0,0.3,0,0.5,0.1,0.8c0,0.3,0,0.6,0,0.9c0,3.3-0.8,6.2-2.3,8c-1,1.1-2.1,1.8-3.5,2l-4.7-8l-0.7,10c-0.6,0.7-1.3,1.1-2.1,1.3
		C311.7,450.5,308.5,448.6,305.8,445z M242,423.2c-0.2,0-0.5,0-0.7,0c-0.1,0-0.5,0-0.6,0c-0.2,0-0.5,0-0.7,0.1c-0.3,0-0.7,0.1-1,0.1
		c-0.1,0-1.3,0.1-1.4,0.2c-0.1,0-1.7,0.2-2.4,0.4c-0.3,0.1-0.5,0.1-0.8,0.2c0,0-0.1,0-0.1,0c-0.2,0.1-0.5,0.1-0.8,0.2
		c-0.3,0.1-0.6,0.1-0.9,0.2c-0.3,0.1-0.6,0.2-0.9,0.2c-0.3,0.1-0.6,0.2-0.9,0.3c-0.3,0.1-0.5,0.2-0.8,0.3c0,0-0.1,0-0.1,0
		c-0.6,0.2-1.3,0.5-1.9,0.7c-0.7-1.8-1.6-3.6-2.7-5.1c-1.9-2.8-4.3-4.6-6.6-5.4c-0.6-2.7-1.1-5.5-1.5-8.3c-0.4-2.6-0.7-5.2-1-7.9
		c-0.1-0.9-0.2-1.8-0.3-2.7c-0.1-1-0.2-2.1-0.3-3.1c-0.1-0.9-0.2-1.9-0.2-2.8c-0.1-1-0.2-1.9-0.2-2.9c2.6,5.3,5.6,11.2,6.6,13.2
		l1-6.1c1.5-9.7,0.8-19.4-0.4-29.1c-0.9-6.8-2-13.4-3.4-20.1c2.8,2.8,5.9,5.4,9.1,7.6l5.1,3.4c-2.5-6.9-5-14.3-6.5-21.6
		c-2.8-13.9-3.9-28.2-3.6-42.4c1.3,2.6,2.6,5.2,3.7,7.8c1.1,2.6,2.4,6,3.4,8.6c0,0,2.1-3.4,2.1-3.4c5.7-8.3,8.1-18.5,9-28.3
		c0.6-9.8,1-19.9-2.7-29.2c-0.6,4.9-0.8,9.6-0.8,14.5c-0.3,12.6-1.7,25.5-7,37c-0.1-0.3-0.2-0.5-0.3-0.8c-2.2-5-4.4-9.7-7.5-14.3
		l-3.3-4.8l-0.3,5.8c-0.8,16.9,0.1,33.7,3.4,50.3c0.7,3.4,1.6,6.7,2.6,10c-2-1.7-3.9-3.6-5.6-5.5c-2.2-2.4-7.1-10.2-9.2-12.9
		c3.2,12.5,6.3,25.9,7.9,38.7c0.8,7,1.5,14.1,1.1,21.1c-3.2-6.5-7.4-14.8-9.4-18.8c0.1,1.9,0.2,3.9,0.3,5.8c0.1,1.9,0.2,3.9,0.3,5.8
		c0,0.1,0,0.1,0,0.2c0,0.9,0.1,1.8,0.2,2.7c0.1,1.1,0.1,2.2,0.2,3.3c0.6,9.6,1.6,19.2,3.5,28.6h0c-1,0.2-2,0.7-2.9,1.4
		c-0.2-0.2-0.4-0.3-0.6-0.5c-0.6-0.4-1.1-0.7-1.5-1c-2.2-1.2-4.4-1.6-6.5-1.1c-0.8,0.2-1.5,0.5-2.2,0.9c-1.9-2.1-4-3.2-6.4-3.2
		c-2.7-0.1-5.2,1.3-7.4,3.9c-0.4-0.2-0.8-0.3-1.2-0.5c-3.6-1-7.7,0.7-11.2,4.5c-2.4-1.3-4.7-1.6-6.9-1c0,0-0.1,0-0.1,0
		c-0.8,0.2-1.6,0.7-2.4,1.2c-11.4-19.9-14.6-39.4-14.6-39.6l-1-6.2l0-0.1l-0.1-0.8l0,0l-5.2,12.7c-11-21.7-8.6-62.9-8.6-63.4l0.5-9
		l0-0.1l0,0l-7.7,14.2c-8.9-24.3-2.2-62.1-2.1-62.5l1.8-9.7l0-0.1l-11.1,17c-4.5-29.7,7.9-64,8-64.3l2.6-7.2l0-0.1l0,0L114,212.6
		c3.7-39.8,21.7-68.7,31.1-81.4c0,0,0,0,0,0c1.1-1.5,2.1-2.7,2.9-3.8c1.5,11.6,6.3,25.7,19.6,35.5l3.4,2.5l-0.2-4.2
		c0-1,0.1-2.9,0.5-4.8c2.9,9.4,11.6,28.6,36.4,37.9l4.3,1.6l-1.7-4.2c-0.1-0.2-1.4-3.7,0.3-6.6c2.7,4.2,9.4,12.9,20.6,17
		c8.6,3.1,11.8,9.2,11.9,9.3l1.8,3.5l0.1-0.1l0,0l1.7-3.3c0-0.1,3.3-6.2,12-9.3c11.2-4.1,17.9-12.7,20.6-17c1.8,2.9,0.4,6.4,0.3,6.6
		l-1.7,4.3l4.3-1.6c24.7-9.3,33.5-28.5,36.4-37.9c0.5,1.9,0.5,3.8,0.5,4.8l-0.2,4.2l3.4-2.5c13.3-9.9,18.2-23.9,19.6-35.5
		c0.8,1,1.8,2.3,2.9,3.8c0,0,0,0,0,0c9.5,12.7,27.4,41.6,31.1,81.4l-13.7-11.9l0,0l2.7,7.3c0.1,0.1,2.1,5.7,4.2,14.3
		c3.2,12.8,6.5,32.2,3.8,50l-11.1-17l0,0.1l1.8,9.7c0.1,0.4,6.8,38.2-2.1,62.5l-7.7-14.2l0.5,9.1c0,0.4,2.4,41.6-8.6,63.4l-5.2-12.7
		l-0.1,0.7l-1,6.4c0,0.2-3.2,19.7-14.6,39.6c-0.7-0.5-1.5-1-2.4-1.2c0,0-0.1,0-0.1,0c-2.2-0.6-4.5-0.3-6.9,1
		c-3.5-3.8-7.6-5.5-11.2-4.5c-0.4,0.1-0.8,0.3-1.2,0.5c-2.1-2.6-4.7-4-7.4-3.9c-2.4,0-4.5,1.2-6.4,3.2c-0.7-0.4-1.5-0.7-2.2-0.9
		c-2.1-0.5-4.4-0.1-6.5,1.1c-0.5,0.3-1,0.6-1.5,1c-0.2,0.1-0.4,0.3-0.6,0.5c-0.9-0.7-1.8-1.1-2.9-1.4c0,0,0,0,0,0
		c0.5-2.5,0.9-5,1.3-7.5c1-6.6,1.6-13.4,2.1-20.2c0.2-3,0.4-6.1,0.5-9.1c0.1-1.5,0.2-3,0.2-4.5c0.1-1.7,0.2-3.5,0.2-5.2l-4.2,8.5
		l-5.1,10.3c-0.4-7,0.3-14.2,1.1-21.1c1.5-12.8,4.6-26.2,7.8-38.7c-1.9,2.7-7,10.5-9.2,12.9c-1.7,2-3.6,3.8-5.6,5.5
		c1-3.3,1.9-6.7,2.6-10c3.3-16.5,4.2-33.4,3.4-50.3l-0.3-5.8L267,285c-3.1,4.5-5.4,9.3-7.5,14.3c-0.1,0.3-0.2,0.5-0.3,0.8
		c-3.3-7.2-5-15-6-22.9c-1.3-9.5-0.6-19.1-1.8-28.7c-3.7,9.2-3.3,19.4-2.7,29.2c0.9,9.9,3.3,20,9,28.3c0,0,2.1,3.4,2.1,3.4
		c1-2.6,2.3-6,3.4-8.6c1.1-2.6,2.3-5.2,3.7-7.8v0c0.1,4.3,0,8.6-0.1,12.9v0.1c0,0.5,0,0.9-0.1,1.3c0,0.1,0,0.2,0,0.3
		c-0.3,7.7-1.1,15.4-2.5,23c-0.1,0.4-0.1,0.8-0.2,1.2c-1,5.4-2.3,10.7-4,15.9c-0.3,1.1-0.7,2.2-1.1,3.2l-2.1,5.8c0,0,0,0,0,0
		c4.3-2.9,9.3-6.2,13-9.9c0.4-0.4,0.8-0.8,1.2-1.2c0,0,0,0,0,0.1c-1.4,6.6-2.5,13.3-3.4,20c-0.1,0.7-0.2,1.5-0.2,2.2
		c-0.9,8-1.4,15.9-0.5,23.9c0.1,1,0.2,1.9,0.4,2.9l1,6.1c0.2-0.4,0.5-0.9,0.8-1.5c0.2-0.3,0.3-0.7,0.5-1.1c1.4-2.8,3.4-6.9,5.3-10.7
		c0,0,0,0,0,0.1c-0.1,1-0.1,2-0.2,2.9c0,0.2,0,0.3,0,0.5c0,0.5-0.1,0.9-0.1,1.4c-0.1,0.7-0.1,1.4-0.2,2.1c-0.1,1-0.2,1.9-0.3,2.9
		c-0.1,0.6-0.1,1.2-0.2,1.8c0,0.2,0,0.4-0.1,0.6c-0.2,1.6-0.4,3.2-0.6,4.8c0,0.3-0.1,0.7-0.1,1c-0.5,3.2-1,6.5-1.7,9.7
		c-2.4,0.8-4.7,2.7-6.6,5.4c-1.1,1.5-2,3.3-2.7,5.1v0c-0.4-0.1-1-0.3-1.7-0.5c0,0,0,0,0,0c-0.1,0-0.3-0.1-0.4-0.1
		c-0.4-0.1-0.8-0.2-1.3-0.4c-0.4-0.1-0.8-0.2-1.2-0.3c-0.1,0-0.2,0-0.3-0.1c-0.3-0.1-0.6-0.1-1-0.2c-0.3-0.1-0.6-0.1-0.9-0.2
		c0,0-0.1,0-0.1,0c0,0,0,0-0.1,0c-0.1,0-0.1,0-0.2,0c-0.6-0.1-1.2-0.2-1.8-0.3c-0.2,0-0.4-0.1-0.5-0.1c-1.3-0.2-2.7-0.4-4.1-0.5
		c-0.4,0-0.8-0.1-1.3-0.1c-0.6,0-3.7-0.1-4.5-0.1C242.3,423.2,242.1,423.2,242,423.2z M218.6,445l-3.3-6.5l-0.6,7.5
		c-0.7,1.2-1.7,2.6-3.4,2.9c-2.3,0.5-5.1-1.1-7.5-4.3l-2.3-7l-2.1,7.6c-1.7,3.4-3.8,5.3-6,5.3c-2,0-3.9-1.8-5.4-4.8l-1.2-8.4
		l-2.7,7.5c-2.7,3.6-5.9,5.5-8.3,4.8l0,0c-1.2-0.3-2.1-1.4-2.1-2.6l-0.6-8.7l-4,6.7c-0.5,0.9-1.6,1.2-2.5,0.8
		c-0.7-0.3-1.2-0.8-1.8-1.4c-1.7-2-2.5-5.3-2.3-9c0,0,0,0,0,0c0-0.2,0-0.5,0.1-0.7c0.2-2.2,0.7-4.5,1.6-6.7c0.9-2.2,2.4-4.9,4.5-5.5
		c1.5-0.5,3.2,0.2,4.5,1.1l1.4,4.6l1.8-4.4l0.2-0.3c2.6-3.4,5.7-5.1,8.1-4.5c0.3,0.1,0.7,0.2,1,0.4l1.6,5.4l2.4-6
		c1-1.4,2.6-3.1,4.6-3.1h0.1c1.7,0,3.1,1.3,4,2.6l2.1,6.4l1.9-6c0.5-0.4,1-0.6,1.6-0.8c1.1-0.3,2.3,0,3.7,0.7
		c0.3,0.2,0.7,0.4,1.1,0.7c0.5,0.4,1.1,0.9,1.6,1.4l1.6,1.7l1.4-1.9c0.6-0.8,1.3-1.3,2.1-1.5c2-0.5,4.5,1.1,6.6,4.1
		c1.5,2.1,2.6,4.8,3.3,7.6c0.2,1,0.4,2,0.5,3c0.1,0.6,0.1,1.1,0.1,1.7c0,0.5,0,0.9,0,1.4c0,1.2-0.2,2.3-0.4,3.3
		c-0.2,0.8-0.4,1.5-0.7,2.2c-0.5,1.2-1.5,2.8-3.1,3.2C220.6,446,219.5,445.6,218.6,445z M9.2,421.6c-1.3-7.7-1.7-23.1-0.5-31.4
		c1.8,0.2,3.8-0.2,5.6-1.5c-0.9,0-1.8-0.1-2.6-0.2c-5-0.7-7.2-5.8-7.1-10.4c0-0.6,0.1-1.1,0.1-1.7c0.6-3.7,2-9.1,6.2-9.8
		c1.6-0.3,4,0.5,5.7,1.2l0.9-1.2c2.2-3.1,6.1-6.4,9.9-4.4l1.7,1c0.8-1.4,1.8-3.2,3.1-4.2c2.4-2.2,5.8-1.5,7.9,0.9l1.5,1.5l1.5-1.5
		c1.9-2.1,5-1.9,7.4-0.7c1.1,0.5,2.4,1.6,3.4,2.2l1.2-1.6c4.7-5.7,12.5,2.9,13.7,8c0.1,0.8,0.2,1.5,0.1,2.3
		c-0.2,4.5-3.4,8.5-6.7,11.5c2.1-0.2,4.2-0.9,6-2.2c2.6,3.5,9,12.9,12.2,23.3c4.8,15.6,3.8,31.5-2.5,43.4c-0.8,1.5-1.6,2.9-2.5,4.2
		c-5.5,8-13.5,12.6-22.3,13.2c-9.5,0.6-19.3-3.5-27.6-11.3c-2.3-2.2-4.4-4.6-6.3-7.1c0,0,0,0,0,0C14.1,438,10.7,430,9.2,421.6z
		 M115.1,282.8l3.3-5.1l2.7-4.2c-1.6,14.1-3.3,41.4,5.3,59.7l1.7,3.6l3.2-6c-0.1,14.7,1,44.6,11.5,60.7l2.1,3.2l3-7.4
		c1.9,7.8,6.1,21.5,14.4,35.6c-0.7,1-1.3,2.2-1.8,3.5c-0.1,0.4-0.3,0.7-0.4,1.1c0,0,0,0,0,0c-0.1,0.3-0.2,0.6-0.3,0.9
		c0,0.1-0.1,0.2-0.1,0.2c-0.5,1.7-0.9,3.4-1.1,5c-1.9,1-15.9,8.1-38.5,10.4c2.2-1.6,4.3-3.4,6-5.5c1.1-1.4,2.1-3,2.7-4.9
		c-5.8,3.8-11.5,7.9-17.7,11.1c-3.2,1.7-7.2,3.4-10.5,4.8c-1.4,0.5-5.2,2-6.5,2.5c-6.8,2.4-13.8,4.5-20.8,6.3
		c1.5-1.4,2.9-2.9,4.2-4.5c0.4-0.5,0.8-1.1,1.2-1.6c0.4-0.6,0.8-1.1,1.1-1.7c8.2-13.2,9.9-31.4,4.4-49.4
		c-3.5-11.5-10.5-21.5-13-24.9c0,0,0,0,0,0c1.5-2,2.4-4.4,2.2-6.9c-0.3-2.5-1.2-5.1-2.6-7.5c0.6-1.1,1.2-2.1,1.9-3.1
		c7.3-10.6,18.8-16.3,29-23.5c-9.3,0.9-20.9,7.3-28.4,15.4c5.6-18.2,15.8-31.1,16-31.2l4.3-5.3l0-0.1h0l-13.6,4.6
		c7.5-25.8,26-46.3,32.5-52.9c0,0.1,0,0.3,0,0.4c0.3,4,0.8,7.9,1.7,11.8L115.1,282.8z M377.7,265.9c1.8,1.8,4.5,4.7,7.6,8.4
		c8.2,9.9,19.4,25.8,24.9,44.5l-13.7-4.6l0,0.1l4.3,5.3c0.1,0.2,10.3,13,16,31.2c-7.6-8.1-19.1-14.5-28.4-15.4c0,0,0,0,0,0
		c10.3,7.2,21.8,13,29,23.5c0.7,1,1.3,2,1.9,3.1c-1.4,2.4-2.4,5-2.6,7.5c-0.2,2.6,0.6,5,2.2,6.9c0,0,0,0,0,0
		c-2.6,3.4-9.5,13.4-13,24.9c-5.5,17.9-3.8,36.2,4.4,49.4c0.4,0.6,0.7,1.2,1.1,1.7c0.4,0.6,0.8,1.1,1.2,1.6c1.3,1.7,2.7,3.2,4.2,4.6
		c-6.3-1.6-12.5-3.4-18.6-5.6c-6.4-2.2-13.2-5-19.3-8.1c-4.8-2.5-9.3-5.5-13.7-8.5c-1.3-0.9-2.6-1.7-3.9-2.6c0,0,0,0,0,0
		c0,0,0,0,0,0c0.3,0.9,0.7,1.8,1.2,2.6c0.4,0.8,0.9,1.5,1.5,2.3c1.6,2.1,3.7,3.9,6,5.5c-15-1.5-26.2-5.2-32.6-7.7
		c-3.2-1.3-5.3-2.3-5.9-2.7c-0.2-1.7-0.5-3.4-1.1-5.1c0-0.1,0-0.1-0.1-0.2c-0.2-0.7-0.5-1.3-0.7-2c-0.5-1.3-1.1-2.5-1.8-3.5
		c8.2-14,12.5-27.7,14.4-35.5c0,0,0,0,0,0l3,7.3l0,0l2.1-3.2c10.5-16.2,11.6-45.9,11.5-60.7v-0.1l3.2,5.9l0,0l1.7-3.6
		c8.6-18.3,6.9-45.5,5.3-59.6c0,0,0,0,0-0.1l6,9.3l1-4.7c0.9-3.9,1.4-7.8,1.7-11.8C377.7,266.2,377.7,266,377.7,265.9z M145.5,109.5
		v-0.1c0.1-30.5,19.5-49.6,25.5-54.7c0,0,0.1,0,0.1-0.1c-6.6,10.8-11.1,22.9-13,35.5c-1.4,9.2-0.7,18.7,1.7,27.8
		c0.7-0.7,2.2-2.4,4.1-4.3c1.3-1.4,2.6-2.8,3.9-4.2c0,2.6,0.3,5.1,0.7,7.7c1.9,13.1,8.9,25.4,19.3,33.7l2.8,2.3
		c0.4-2.3,0.9-4.7,1.3-7.1c3,5.5,7.2,10.4,11.7,14.7c6.2,6,13.7,10.8,21.9,13.5c-6.4-5.3-13.1-10.4-19-16.4
		c-5.3-5.5-10-11.6-12.9-18.7c-0.2-0.4-2.9-10.2-3.2-10.9c-0.8,4.9-1.9,11.3-2.8,16.8c-13-11.9-17.9-29.2-14.8-46.7
		c-2.1,2.2-7.1,7.5-10.6,11.3c-2.9-18.4,3.1-37.4,12.6-53.1c2,1.4,4.1,2.6,6.3,3.5c0,0,0,0,0,0c0,0,0,0,0,0
		c-7.7-7.1-13.6-15.4-16.8-25.3c-2.3-7.2-3.5-15-2.4-22.4c0.6-3.2,1.5-7,4.4-8.2c0.9-0.2,1.7,0,2.6,0.4c2.3,1.1,4.7,2.3,7,3.5
		c14.1,7.3,27.3,15.8,42.6,20.8c0,0,0,0,0,0c-1.5-1.3-3-2.5-4.6-3.6c-0.8-0.6-1.6-1.2-2.5-1.8c10.6-3,29.3-3.1,33.2-3.1l0.7,0v0
		c3.9,0,22.6,0.1,33.2,3.1c-0.7,0.5-1.5,1.1-2.2,1.6c-1.6,1.2-3.2,2.5-4.8,3.8C286.8,23.4,300,15,314.1,7.7c2.3-1.2,4.7-2.4,7-3.5
		c0.9-0.4,1.7-0.7,2.6-0.4c2.9,1.2,3.8,5.1,4.4,8.2c1.1,7.5-0.1,15.3-2.4,22.4c-3.2,9.9-9.1,18.3-16.8,25.3c2.3-0.9,4.4-2.1,6.4-3.5
		c1.1,1.7,2.1,3.6,3.1,5.4c3.5,6.8,6.3,14,8.1,21.4c2.1,8.6,2.8,17.6,1.4,26.3c-3.5-3.7-8.5-9.1-10.6-11.3
		c3.1,17.5-1.7,34.8-14.8,46.7c-0.9-5.5-2-11.9-2.8-16.8c-0.2,0.7-3,10.5-3.2,10.9c-2.8,7.1-7.6,13.3-12.9,18.7
		c-5.9,5.9-12.6,11-19,16.4c0.9-0.3,1.7-0.6,2.6-0.9c0.3-0.1,0.5-0.2,0.8-0.3c0.8-0.3,1.5-0.6,2.2-1c0.4-0.2,0.7-0.3,1.1-0.5
		s0.7-0.4,1.1-0.5c1.6-0.8,3.1-1.7,4.6-2.7c0.5-0.3,1.1-0.7,1.6-1.1c0,0,0,0,0.1,0c0.3-0.2,0.6-0.4,0.9-0.6c0.3-0.2,0.5-0.4,0.8-0.6
		c0.4-0.3,0.8-0.6,1.2-0.9c0.1-0.1,0.2-0.2,0.3-0.3c1.9-1.5,3.7-3.1,5.4-4.8c0.3-0.3,0.6-0.5,0.8-0.8c3-3,5.7-6.2,8-9.8
		c0.2-0.3,0.3-0.5,0.5-0.8c0.2-0.4,0.5-0.8,0.7-1.1c0.3-0.5,0.5-0.9,0.8-1.4c0,0,0,0,0,0c0.2,1.2,0.4,2.4,0.7,3.6
		c0.2,1.2,0.4,2.4,0.7,3.5c0.9-0.7,1.9-1.5,2.8-2.3c0.2-0.1,0.3-0.2,0.5-0.4c2.1-1.8,4.2-3.8,6.1-5.9c0.2-0.2,0.4-0.4,0.6-0.7
		c0.7-0.8,1.4-1.7,2.1-2.6c1.7-2.2,3.2-4.6,4.5-7.1c0.1-0.1,0.1-0.3,0.2-0.4c0.2-0.4,0.4-0.9,0.7-1.3c0.4-0.7,0.7-1.5,1-2.2
		c0.4-1,0.8-2,1.2-3.1l0.3-0.9c0.1-0.3,0.2-0.7,0.3-1c0.4-1.4,0.8-2.7,1.1-4.1c0.1-0.3,0.1-0.5,0.2-0.8c0.1-0.3,0.1-0.6,0.2-0.9
		c0.1-0.3,0.1-0.7,0.2-1c0.2-1,0.3-2.1,0.5-3.1c0.1-0.6,0.1-1.2,0.2-1.9c0-0.2,0-0.5,0.1-0.7c0.1-1.1,0.1-2.1,0.1-3.2l0,0l3.9,4.2
		l1.5,1.6l2.6,2.8l0.8-3.7c4.6-20.5-1.5-41.9-12.1-59.5c0,0,0,0,0,0c5.9,5.1,25.4,24.2,25.5,54.8v0.1l-8.7-10.4l1.7,7.9
		c0.1,0.3,6.5,31.5-14.6,50.2c-0.4-2.6-1.3-5.8-3.6-8l-2.8-2.7l0,0l-0.6,3.8c0,0.3-4.2,26.5-31.7,38.7c0.1-2.9-0.7-6.5-4.1-9
		l-1.9-1.4l0,0l-1.1,2.1c-0.1,0.1-6.5,12.6-19.8,17.4c-6.4,2.3-10.2,6-12.3,8.5c0,0,0,0-0.1,0.1c0,0,0,0,0,0
		c-2-2.5-5.9-6.3-12.3-8.6c-13.3-4.8-19.7-17.3-19.8-17.4l-1-2l-0.1-0.2l0,0v0l-1.9,1.4c-3.4,2.5-4.2,6-4.1,9
		c-27.4-12.2-31.6-38.5-31.7-38.7l-0.5-3.8l0,0l0-0.1l0,0l-2.8,2.7c-2.2,2.2-3.2,5.4-3.6,8c-21.1-18.6-14.7-49.8-14.6-50.2l1.7-7.8
		l0-0.1l0-0.1l0,0l0,0L145.5,109.5z M456.9,380c-5.7-2.2-12.1-1.7-18,1.2c-8.4,4.2-15,13-18.1,24c-3.3,12-1.9,24.3,3.9,33
		c4,6,9.7,9.7,16.2,10.5c0.9,0.1,1.8,0.2,2.7,0.2c13.4,0,26.1-12.7,29.4-30.3C476.3,401.4,469.4,384.8,456.9,380z M473.2,383.3
		c-0.5-3.1-3.2-5.2-6.3-4.9C467.3,381.5,470,383.6,473.2,383.3z M463.5,374.6c-1.6-2.8-5-3.9-7.9-2.6
		C457.1,374.8,460.5,375.9,463.5,374.6z M450.2,371.4c-2.5-2-6-1.8-8.3,0.5C444.4,373.9,448,373.7,450.2,371.4z M437.9,372.9
		c-2.8-1.4-6.2-0.4-7.8,2.3C432.9,376.6,436.3,375.7,437.9,372.9z M287.8,32.2c0,0,0.1,0,0.1-0.1c0.1,0,0.2-0.1,0.3-0.1
		c0.2-0.1,0.5-0.2,0.7-0.3c0.1-0.1,0.3-0.1,0.4-0.2c0,0,0,0,0,0c8.4-4,16-9.7,24.4-13.6c1.9-0.8,3.7-1.7,5.6-1.8
		c0.2,0,0.4,0.3,0.7,1c1,2.6,0.7,6.1,0.3,8.9c-1.4,9.8-6.9,18.1-13.4,25.6c11.3-4.4,18.7-21.4,17.3-33.1c-0.5-3.9-2.7-7-7-5.7
		c-5.1,1.6-9.4,4.4-13.9,7.1c-5.7,3.7-11.3,7.4-16,12.4l0,0c0,0,0.1,0,0.1-0.1C287.7,32.3,287.7,32.2,287.8,32.2z M269,72.6
		c0.5,1.9,1.5,3.6,3.1,5c2.1,1.9,4.7,3,7.5,3c0.1,0,0.2,0,0.4,0c2.9-0.1,5.7-1.3,7.7-3.5c1.1-1.1,1.8-2.5,2.3-3.9
		c2.4-3,6.1-3.6,6.1-3.6c-2.9-0.5-5-2.5-6.2-4c-0.6-1.5-1.5-2.9-2.7-4c-4.4-4.1-11.4-3.9-15.6,0.5c-1.4,1.5-2.3,3.2-2.7,5.1
		c-1.7,2.5-4.2,3-4.2,3C266.9,70.4,268.2,71.6,269,72.6z M279.6,61c2.1,0,4.2,0.8,5.9,2.3c1.7,1.6,2.6,3.7,2.7,6
		c0.1,2.3-0.7,4.5-2.3,6.2c-1.6,1.7-3.7,2.6-6,2.7c-2.3,0.1-4.5-0.7-6.2-2.3c-0.2-0.2-0.4-0.4-0.6-0.6c2.6,2,6.4,1.7,8.6-0.8
		c0.1-0.2,0.3-0.3,0.4-0.5c-1,0-2.1-0.3-3-1.1c-1.6-1.5-1.7-4.1-0.2-5.7c0.8-0.9,1.9-1.3,3-1.3c-0.2-0.2-0.4-0.4-0.6-0.6
		c-2.6-2.5-6.8-2.3-9.2,0.3c-0.3,0.3-0.5,0.6-0.7,0.9c0.4-1,1-2,1.7-2.8C275,61.9,277.3,61,279.6,61z M245,159.8
		c3.7,0.3,7.4-0.2,10.9-1.5c10.8-3.9,16.2-15.2,16.4-26.1c0,0.2-0.1,0.3-0.1,0.5c-1.8,6.4-4.5,12.6-9.3,17.2
		c-4.7,4.4-11.3,6.6-17.7,5.9c-1.6,0.1-3.4,0.2-5.1-0.1c-12.5-1.4-19.1-11.6-22.2-22.9c-0.1-0.2-0.1-0.4-0.2-0.6
		c0.1,3.5,0.7,7,1.8,10.4C223.1,153.7,233.3,160.7,245,159.8z M239.2,134.6c-1.5,1.3-3.7,1.5-5.6,1.5c-3.7-0.2-6.4-2-8.9-5.3
		c0.2,5.7,5.4,9.6,10.9,9.3c4.5,0.1,7.5-2.2,9.3-5.6c1.8,3.3,4.9,5.7,9.3,5.6c5.6,0.2,10.8-3.6,10.9-9.3c-2.5,3.3-5.2,5.1-8.9,5.3
		c-1.9,0-4.1-0.2-5.6-1.5c-2.5-2.3-3.2-5.9-3.6-9.3c0-1-0.1-1.9-0.2-2.8c3.9-0.2,12.3-1.7,14.4-12c2.8-13.6-16.5-13.6-16.5-13.6h0
		c0,0-19.3,0-16.5,13.6c2.1,10.3,10.5,11.9,14.4,12c-0.1,0.9-0.2,1.9-0.2,2.8C242.5,128.8,241.7,132.3,239.2,134.6z M221,72.5
		c0.8-1,2.2-2.2,4.3-2.5c0,0-2.5-0.5-4.2-2.9c-0.4-1.9-1.3-3.6-2.7-5.1c-4.2-4.4-11.1-4.7-15.6-0.5c-1.2,1.2-2.1,2.5-2.7,4
		c-1.2,1.5-3.3,3.5-6.2,4c0,0,3.7,0.6,6.1,3.6c0.5,1.4,1.3,2.7,2.3,3.9c2,2.2,4.7,3.4,7.7,3.5c0.1,0,0.2,0,0.4,0c2.8,0,5.5-1,7.5-3
		C219.4,76.2,220.5,74.5,221,72.5z M216.7,63.7c0.8,0.8,1.4,1.8,1.8,2.8c-0.2-0.3-0.5-0.7-0.7-1c-2.5-2.6-6.6-2.8-9.2-0.3
		c-0.2,0.2-0.4,0.4-0.6,0.6c1.1,0,2.2,0.4,3,1.3c1.5,1.6,1.4,4.2-0.2,5.7c-0.8,0.8-1.9,1.1-2.9,1.1c0.1,0.2,0.3,0.3,0.4,0.5
		c2.3,2.4,6,2.7,8.6,0.8c-0.2,0.2-0.4,0.4-0.6,0.6c-1.7,1.6-3.9,2.4-6.2,2.3c-2.3-0.1-4.4-1-6-2.7c-3.2-3.5-3.1-8.9,0.4-12.1
		C208,60.1,213.5,60.2,216.7,63.7z M200.7,31.5c0.1,0.1,0.3,0.1,0.4,0.2c0.2,0.1,0.5,0.2,0.7,0.3c0.1,0.1,0.2,0.1,0.3,0.1
		c0,0,0.1,0,0.1,0.1c0.1,0,0.1,0.1,0.2,0.1c0,0,0.1,0,0.1,0.1l0,0c-4.7-5-10.3-8.8-16-12.4c-4.4-2.7-8.7-5.6-13.9-7.1
		c-4.3-1.3-6.5,1.8-7,5.7c-1.4,11.6,5.9,28.6,17.3,33.1c-7.5-8.5-13.7-18.7-13.7-30.3c0.1-1.8,0.2-4.1,1.3-5.1c0,0,0,0,0.1,0
		c0.1,0,0.2,0,0.3,0c1.8,0.2,3.5,1,5.3,1.8C184.7,21.8,192.2,27.5,200.7,31.5C200.6,31.5,200.7,31.5,200.7,31.5z M46.4,449
		c0.9,0,1.8,0,2.7-0.2c6.5-0.8,12.2-4.6,16.2-10.5c5.8-8.7,7.2-21.1,3.9-33c-3.1-11-9.6-19.8-18.1-24c-5.9-3-12.3-3.4-18-1.2
		c-12.5,4.8-19.4,21.4-16.1,38.6C20.4,436.2,33,449,46.4,449z M59.9,375.2c-1.6-2.7-4.9-3.7-7.7-2.3
		C53.7,375.7,57.1,376.6,59.9,375.2z M48.1,371.9c-2.2-2.3-5.8-2.5-8.3-0.5C42,373.7,45.6,373.9,48.1,371.9z M34.4,372
		c-2.9-1.3-6.3-0.2-7.9,2.6C29.5,375.9,32.9,374.8,34.4,372z M23.2,378.4c-3.1-0.3-5.9,1.8-6.3,4.9C20,383.6,22.7,381.5,23.2,378.4z
		 M456.9,380c-5.7-2.2-12.1-1.7-18,1.2c-8.4,4.2-15,13-18.1,24c-3.3,12-1.9,24.3,3.9,33c4,6,9.7,9.7,16.2,10.5
		c0.9,0.1,1.8,0.2,2.7,0.2c13.4,0,26.1-12.7,29.4-30.3C476.3,401.4,469.4,384.8,456.9,380z M430.1,375.2c2.8,1.4,6.2,0.5,7.8-2.3
		C435.1,371.5,431.7,372.5,430.1,375.2z M441.9,371.9c2.5,2,6,1.8,8.3-0.5C447.7,369.4,444.1,369.6,441.9,371.9z M16.8,383.3
		c3.1,0.3,5.9-1.8,6.3-4.9C20.1,378.1,17.3,380.2,16.8,383.3z M256.4,136.1c-1.9,0-4.1-0.2-5.6-1.5c-2.5-2.3-3.2-5.9-3.6-9.3
		c0-1-0.1-1.9-0.2-2.8c3.9-0.2,12.3-1.7,14.4-12c2.8-13.6-16.5-13.6-16.5-13.6h0c0,0-19.3,0-16.5,13.6c2.1,10.3,10.5,11.9,14.4,12
		c-0.1,0.9-0.2,1.9-0.2,2.8c-0.3,3.4-1.1,7-3.6,9.3c-1.5,1.3-3.7,1.5-5.6,1.5c-3.7-0.2-6.4-2-8.9-5.3c0.2,5.7,5.4,9.6,10.9,9.3
		c4.5,0.1,7.5-2.2,9.3-5.6c1.8,3.3,4.9,5.7,9.3,5.6c5.6,0.2,10.8-3.6,10.9-9.3C262.8,134.1,260,135.9,256.4,136.1z M289.8,65.6
		c-0.6-1.5-1.5-2.9-2.7-4c-4.4-4.1-11.4-3.9-15.6,0.5c-1.4,1.5-2.3,3.2-2.7,5.1c-1.7,2.5-4.2,3-4.2,3c2.2,0.3,3.6,1.5,4.3,2.5
		c0.5,1.9,1.5,3.6,3.1,5c2.1,1.9,4.7,3,7.5,3c0.1,0,0.2,0,0.4,0c2.9-0.1,5.7-1.3,7.7-3.5c1.1-1.1,1.8-2.5,2.3-3.9
		c2.4-3,6.1-3.6,6.1-3.6C293.1,69.1,291,67,289.8,65.6z M281.8,74.5c0.1-0.2,0.3-0.3,0.4-0.5c-1,0-2.1-0.3-3-1.1
		c-1.6-1.5-1.7-4.1-0.2-5.7c0.8-0.9,1.9-1.3,3-1.3c-0.2-0.2-0.4-0.4-0.6-0.6c-2.6-2.5-6.8-2.3-9.2,0.3c-0.3,0.3-0.5,0.6-0.7,0.9
		c0.4-1,1-2,1.7-2.8c1.7-1.8,4-2.7,6.3-2.7c2.1,0,4.2,0.8,5.9,2.3c1.7,1.6,2.6,3.7,2.7,6c0.1,2.3-0.7,4.5-2.3,6.2
		c-1.6,1.7-3.7,2.6-6,2.7c-2.3,0.1-4.5-0.7-6.2-2.3c-0.2-0.2-0.4-0.4-0.6-0.6C275.8,77.2,279.5,76.9,281.8,74.5z M202.5,32.3
		c-4.7-5-10.3-8.8-16-12.4c-4.4-2.7-8.7-5.6-13.9-7.1c-4.3-1.3-6.5,1.8-7,5.7c-1.4,11.6,5.9,28.6,17.3,33.1
		c-7.5-8.5-13.7-18.7-13.7-30.3c0.1-1.8,0.2-4.1,1.3-5.1c0,0,0,0,0.1,0c0.1,0,0.2,0,0.3,0c1.8,0.2,3.5,1,5.3,1.8
		c8.5,3.9,16,9.5,24.4,13.6c0,0,0,0,0,0c0.1,0.1,0.3,0.1,0.4,0.2c0.2,0.1,0.5,0.2,0.7,0.3c0.1,0.1,0.2,0.1,0.3,0.1
		c0,0,0.1,0,0.1,0.1c0.1,0,0.1,0.1,0.2,0.1C202.4,32.3,202.5,32.3,202.5,32.3L202.5,32.3z M324.3,18.5c-0.5-3.9-2.7-7-7-5.7
		c-5.1,1.6-9.4,4.4-13.9,7.1c-5.7,3.7-11.3,7.4-16,12.4l0,0c0,0,0.1,0,0.1-0.1c0.1,0,0.1,0,0.2-0.1c0,0,0.1,0,0.1-0.1
		c0.1,0,0.2-0.1,0.3-0.1c0.2-0.1,0.5-0.2,0.7-0.3c0.1-0.1,0.3-0.1,0.4-0.2c0,0,0,0,0,0c8.4-4,16-9.7,24.4-13.6
		c1.9-0.8,3.7-1.7,5.6-1.8c0.2,0,0.4,0.3,0.7,1c1,2.6,0.7,6.1,0.3,8.9c-1.4,9.8-6.9,18.1-13.4,25.6
		C318.4,47.1,325.8,30.1,324.3,18.5z M272.1,132.6c-1.8,6.4-4.5,12.6-9.3,17.2c-4.7,4.4-11.3,6.6-17.7,5.9c-1.6,0.1-3.4,0.2-5.1-0.1
		c-12.5-1.4-19.1-11.6-22.2-22.9c-0.1-0.2-0.1-0.4-0.2-0.6c0.1,3.5,0.7,7,1.8,10.4c3.5,11.1,13.8,18.2,25.5,17.2
		c3.7,0.3,7.4-0.2,10.9-1.5c10.8-3.9,16.2-15.2,16.4-26.1C272.2,132.3,272.2,132.4,272.1,132.6z M221.1,67.1
		c-0.4-1.9-1.3-3.6-2.7-5.1c-4.2-4.4-11.1-4.7-15.6-0.5c-1.2,1.2-2.1,2.5-2.7,4c-1.2,1.5-3.3,3.5-6.2,4c0,0,3.7,0.6,6.1,3.6
		c0.5,1.4,1.3,2.7,2.3,3.9c2,2.2,4.7,3.4,7.7,3.5c0.1,0,0.2,0,0.4,0c2.8,0,5.5-1,7.5-3c1.5-1.4,2.5-3.1,3.1-5.1
		c0.8-1,2.2-2.2,4.3-2.5C225.3,70.1,222.8,69.6,221.1,67.1z M216.7,63.7c0.8,0.8,1.4,1.8,1.8,2.8c-0.2-0.3-0.5-0.7-0.7-1
		c-2.5-2.6-6.6-2.8-9.2-0.3c-0.2,0.2-0.4,0.4-0.6,0.6c1.1,0,2.2,0.4,3,1.3c1.5,1.6,1.4,4.2-0.2,5.7c-0.8,0.8-1.9,1.1-2.9,1.1
		c0.1,0.2,0.3,0.3,0.4,0.5c2.3,2.4,6,2.7,8.6,0.8c-0.2,0.2-0.4,0.4-0.6,0.6c-1.7,1.6-3.9,2.4-6.2,2.3c-2.3-0.1-4.4-1-6-2.7
		c-3.2-3.5-3.1-8.9,0.4-12.1C208,60.1,213.5,60.2,216.7,63.7z M52.1,372.9c1.6,2.7,4.9,3.7,7.7,2.3
		C58.3,372.5,54.9,371.5,52.1,372.9z M408.1,389c-9.4,18-10.5,30.9-7,50.8c-8.1-11.6-7.7-27.6-1.4-39.9
		C401.8,395.8,404.4,391.8,408.1,389L408.1,389z M333.4,429.9c4.2,0.8,7.8,2.4,11.9,3.4c4,1.3,7.8,2.3,11.6,4.4
		C349.8,439.7,338,435.5,333.4,429.9L333.4,429.9z M370.8,200.8c-4.3-10.8-7.7-21.7-12.2-32.3c-3.4-8.6-7.4-17.1-11.4-25.5
		c-0.9-1.9-2-4-2.8-5.9c12.3,12.6,19,29.7,23.5,46.4C369.5,189.2,370.7,194.9,370.8,200.8L370.8,200.8z M81.7,389
		c3.7,2.8,6.3,6.7,8.4,10.9c6.3,12.3,6.7,28.3-1.4,39.9C92.3,419.9,91.1,407,81.7,389L81.7,389z M156.4,429.9
		c-4.6,5.6-16.4,9.8-23.4,7.8c3.8-2.1,7.6-3.1,11.6-4.4C148.6,432.3,152.2,430.7,156.4,429.9L156.4,429.9z M119,200.8
		c0.2-5.9,1.4-11.6,2.8-17.2c4.5-16.8,11.2-33.8,23.5-46.4c-0.8,2-1.9,4-2.8,5.9c-3.9,8.4-7.9,16.9-11.4,25.5
		C126.7,179.1,123.3,190,119,200.8L119,200.8z"/>
</g>
</svg>
