<?xml version="1.0" encoding="utf-8"?>
<!-- Generator: Adobe Illustrator 28.3.0, SVG Export Plug-In . SVG Version: 6.00 Build 0)  -->
<svg version="1.1" id="hedgehog_00000063625220429508968220000011060338046393669564_"
	 xmlns="http://www.w3.org/2000/svg" xmlns:xlink="http://www.w3.org/1999/xlink" x="0px" y="0px" viewBox="0 0 490 316.813"
	 enable-background="new 0 0 490 316.813" xml:space="preserve">
<g id="hedgehog">
	<path fill="#727272" d="M115.085,230.371l-3.639,7.967c-0.584,1.304-5.756,13.077-7.383,24.987l-0.146,1.063l0.814-0.701
		c8.626-7.447,31.039-24.694,52.737-23.905l2.313,0.084l-0.863,2.15c-0.306,0.745-3.143,7.474-8.546,14.074l-0.775,0.946
		l1.187-0.295c13.645-3.393,46.171-13.786,53.454-36.952l3.071-9.8l0.098,10.263c0,0.136,0.162,15.002,1.529,26.86l0.132,1.141
		l0.615-0.971c7.55-11.925,27.422-39.401,48.878-37.077l1.299,0.143l0.136,1.293c0.047,0.408,1.071,10.115-4.738,19.233
		l-0.616,0.967l1.088-0.364c11.538-3.863,38.904-15.826,43.796-43.426l1.611-9.104l1.585,9.113
		c0.027,0.155,2.704,15.598-0.165,26.902l-0.237,0.932l0.833-0.48c8.297-4.786,24.795-16.924,26.537-29.987
		c0,0-15.607-6.976-12.06-20.573c6.585-25.241,32.869-12.769,32.869-12.769c11.602,10.484,27.868,8.061,34.961,6.63l1.149-0.232
		l-1.046-0.528c-11.174-5.644-14.05-18.969-14.167-19.535l-0.435-2.06l2.09,0.098c15.27,0.699,30.089,9.368,37.564,14.474
		l1.074,0.733l-0.465-1.213c-4.266-11.127-17.948-21.423-18.539-21.864l-3.69-2.703l4.566-0.228
		c14.518-0.74,30.331,12.68,38.467,20.752l0.793,0.787l-0.102-1.112c-0.622-6.736-3.227-18.483-13.691-21.474l-2.065-0.591
		l1.136-1.823c0.544-0.864,5.55-8.623,13.829-14.957l1.83-1.4l-2.198,0.69c-6.201,1.948-12.958,5.426-20.085,10.342l-5.204,3.599
		l2.826-5.657c0.047-0.093,4.641-9.453,4.452-23.728l-0.029-2.123l-0.757,1.983c-3.314,8.683-8.629,19.68-15.135,22.767l-2.5,1.195
		l0.181-2.762c0.023-0.294,1.649-29.922-20.974-49.677l-1.16-1.013l0.51,1.453c3.911,11.15,9.885,31.188,5.947,40.134l-1.513,3.443
		l-1.468-3.461c-0.216-0.515-22.007-51.637-60.45-60.085l-1.271-0.279l0.887,0.952c6.622,7.114,22.306,24.708,24.916,34.404
		l0.883,3.273l-3.104-1.369c-1.864-0.822-45.851-20.415-63.268-45.068l-1.009-1.428l0.276,1.726
		c1.127,7.037,3.806,17.756,10.175,28.859l6.075,10.577l-8.633-8.618c-0.381-0.389-39.606-39.178-74.191-46.367l-1.727-0.359
		l1.396,1.078c7.46,5.757,20.277,16.831,22.312,26.308l0.527,2.47l-2.461-0.539c-5.229-1.162-51.688-11.917-72.493-31.609
		l-1.25-1.183l0.589,1.617c2.616,7.177,7.897,17.597,18.2,26.479l9.982,8.599l-11.777-5.924c-0.135-0.067-13.676-6.76-31.896-9.127
		c-21.892-2.848-41.156,1.327-57.262,12.411l-1.139,0.783l1.381-0.043c8.384-0.262,24.067,0.139,34.978,5.769l6.526,3.363
		l-7.341-0.305c-0.605-0.034-60.395-2.074-85.28,34.778l-0.782,1.158l1.281-0.558c11.299-4.922,33.25-12.389,53.328-7.1l6.268,1.65
		l-6.303,1.499c-0.216,0.048-22.459,5.488-43.287,20.015c-25.925,18.08-38.724,41.661-38.038,70.088L3.7,182.23l0.714-1.098
		c5.621-8.631,16.753-24.156,28.155-31.155l7.215-4.435l-5.065,6.785c-0.33,0.439-32.914,44.298-23.685,84.931l0.312,1.376
		l0.466-1.331c3.452-9.844,11.265-27.997,24.81-38.958l5.991-4.848l-3.519,6.852c-0.216,0.408-21.076,41.694-2.536,74.309l0.454,0.8
		l0.285-0.875c2.507-7.718,10.443-26.278,29.95-31.916l2.618-0.754l-0.578,2.657c-0.22,0.998-2.338,10.025-8.882,19.244l-0.77,1.084
		l1.244-0.469c11.804-4.452,33.729-14.001,47.953-27.934L115.085,230.371z M113.517,251.718c8.07-9.613,21.098-17.44,34.213-17.44
		c1.685,0,3.371,0.129,5.048,0.4C137.465,236.056,124.014,244.118,113.517,251.718z M172.529,54.381
		c-14.448-6.673-31.357-10.025-50.504-10.025c-5.16,0-10.484,0.243-15.964,0.731C129.78,39.066,154.939,42.598,172.529,54.381z
		 M277.055,72.232c-10.031-10.624-21.771-19.492-33.153-28.089c-2.78-2.1-5.63-4.253-8.451-6.427
		C250.81,45.216,268.368,58.078,277.055,72.232z M268.77,219.823c10.628-9.56,21.409-21.18,25.75-35.931
		c-0.043,1.149-0.155,2.318-0.335,3.498C291.948,200.293,282.105,212.752,268.77,219.823z M355.152,81.265
		c-2.687-3.714-5.495-7.415-8.21-10.994c-2.042-2.691-4.135-5.451-6.193-8.236c10.185,8.778,24.209,25.101,26.975,39.605
		c-3.157-7.13-7.683-13.497-12.077-19.679l-0.493-0.693L355.152,81.265z M34.727,261.414c-4.182-18.589-0.916-41.242,8.65-59.786
		c-0.072,0.23-0.145,0.46-0.218,0.688c-0.408,1.286-0.83,2.617-1.188,3.949C36.383,225.338,33.951,243.867,34.727,261.414z
		 M84.487,97.37c-1.23,0.389-3.115,0.976-3.911,1.222c-31.52,10.682-53.869,35.067-67.84,55.45
		c15.324-29.394,42.625-51.302,70.988-56.521C83.963,97.47,84.219,97.419,84.487,97.37z"/>
	<g>
		<path fill="#FFCEA6" d="M354.786,259.244c0.109-0.125,0.222-0.24,0.33-0.367l0.318-0.373l-0.427-0.243
			c-0.957-0.545-1.727-1.01-2.423-1.465l-0.32-0.21l-0.228,0.308c-0.199,0.269-0.423,0.522-0.639,0.78
			C352.522,258.205,353.662,258.71,354.786,259.244z"/>
		<path fill="#FFCEA6" d="M477.912,235.687c-0.781-0.568-1.573-1.111-2.33-1.63c-1.155-0.791-2.245-1.539-3.082-2.232
			c-6.817-5.114-13.9-10.744-19.022-18.343c-2.378-3.525-4.128-7.851-5.063-12.515c-0.228-1.097-0.434-2.176-0.638-3.245
			c-0.607-3.178-1.182-6.181-2.22-9.279c-5.451-18.012-13.801-32.886-24.816-44.21c-5.584-5.735-11.502-10.234-17.591-13.372
			c-1.007-0.508-1.973-0.944-2.733-1.232c-0.085-0.029-0.18-0.057-0.266-0.076l-1.523-0.348l1.16,1.046
			c5.577,5.02,15.059,14.955,15.905,25.075l0.312,3.776l-2.946-2.369c-0.176-0.145-18.424-14.61-37.232-16.785l-0.649-0.075
			l0.22,0.615c1.538,4.306,6.285,14.521,17.107,16.367l5.535,0.942l-5.177,2.156c-0.184,0.075-19.075,7.03-35.532-1.481l-0.94-0.486
			l0.374,0.99c0.285,0.753,0.665,1.622,1.068,2.542c1.511,3.456,3.583,8.188,3.583,13.417v2.606l-2.323-1.136
			c-0.073-0.04-8.25-3.955-16.654-3.955h-0.784l0.453,0.64c2.258,3.197,6.13,9.72,6.682,17.487l0.11,1.604l-1.641,0.126
			c-0.176,0.013-0.711,0.053-1.507,0.053c-2.699,0-9.432-0.412-13.638-4.223l-0.575-0.521l-0.101,0.769
			c-1.533,11.737,1.343,22.579,7.882,29.737c3.344,3.909,8.331,6.529,12.95,8.821c-0.22,0.053-0.462,0.112-0.718,0.174
			c-1.518,0.367-4.058,0.983-4.472,0.998c-5.211,0.442-10.583-1.059-16.417-4.604l-1.311-0.796l0.745,1.341
			c3.698,6.655,8.96,12.165,15.216,15.935c2.108,1.285,4.406,2.483,7.116,3.703c-3.058-0.288-6.097-1.063-9.062-2.313l-1.072-0.452
			l0.558,1.021c7.343,13.427,24.238,19.984,39.369,19.983c3.685,0,7.269-0.389,10.581-1.163c15.939-3.716,30.523-1.663,43.408,0.152
			l0.1,0.014c0.998,0.142,1.989,0.283,2.971,0.416c6.941,0.956,11.954-1.043,14.935-2.89l1.043-0.647l-1.223-0.102
			c-3.405-0.286-6.739-0.934-9.91-1.925c-3.655-1.132-6.767-2.512-9.433-4.188c7.12,2.186,14.674,3.062,22.502,2.602
			c4.79-0.32,11.003-0.914,16.573-2.682l0.799-0.254l-0.694-0.469c-2.742-1.855-3.481-6.614-3.637-7.934
			c3.916-1.056,7.61-6.387,7.771-6.62l0.224-0.326L477.912,235.687z M456.618,245.914c0,0.931-0.758,1.689-1.689,1.689
			c-0.926,0-1.68-0.758-1.68-1.689c0-0.927,0.754-1.681,1.68-1.681C455.86,244.233,456.618,244.987,456.618,245.914z
			 M452.607,236.393c-6.334-0.49-12.797-1.503-18.911-2.547c-5.739-1.074-12.249-2.349-18.598-4.139
			c6.31,0.495,12.767,1.503,18.88,2.542C440.088,233.384,446.507,234.668,452.607,236.393z M433.821,240.286
			c5.239-0.059,11.286-0.035,17.442,0.531c-6.184,0.765-12.204,0.982-17.409,1.086C428.185,241.949,428.459,240.42,433.821,240.286z
			 M401.563,195.999c3.113-1.125,6.482-0.975,9.483,0.424c3.005,1.404,5.278,3.889,6.401,6.998c0.711,1.957,0.921,4.066,0.605,6.1
			l-0.009,0.059l0.008,0.059c0.157,1.161,0.676,3.17,2.368,4.863c-1.324-0.079-3.358,0.111-5.421,1.475l-0.075,0.064
			c-1.337,1.454-3.031,2.583-4.9,3.263c-3.037,1.109-6.468,0.978-9.474-0.426c-3.002-1.399-5.275-3.883-6.399-6.997
			c-0.554-1.523-0.803-3.108-0.744-4.79c-0.298-1.864-1.14-5.106-3.5-7.55c1.813,0.265,4.951,0.352,7.923-1.38
			C398.957,197.217,400.214,196.489,401.563,195.999z M462.854,243.827c0,0.927-0.754,1.681-1.68,1.681
			c-0.931,0-1.689-0.754-1.689-1.681c0-0.931,0.758-1.689,1.689-1.689C462.1,242.138,462.854,242.896,462.854,243.827z
			 M464.949,236.681c0,0.927-0.758,1.681-1.689,1.681c-0.926,0-1.68-0.754-1.68-1.681c0-0.931,0.754-1.689,1.68-1.689
			C464.191,234.992,464.949,235.75,464.949,236.681z"/>
		<path fill="#FFCEA6" d="M357.479,172.204l0.603,0.228l-0.055-0.642c-0.504-5.961-4.401-11.302-5.583-12.797
			c-6.262-7.9-16.404-9.836-22.213-7.098c-6.427,3.033-10.447,8.233-11.027,14.265c-0.52,5.41,1.959,10.685,6.632,14.111
			c2.98,2.186,5.907,2.963,6.706,3.145c2.231,4.647,8.666,5.549,12.336,5.671l0.493,0.016l-0.079-0.487
			c-1.466-9.062-7.714-16.084-7.987-16.386l-2.045-2.215l2.982-0.488C345.663,168.321,353.478,170.686,357.479,172.204z
			 M326.923,165.716L326.923,165.716c-1.211,5.337,2.758,10.683,4.544,13.048c-3.928-1.976-6.729-5.689-7.422-9.941
			c-0.668-4.097,0.747-7.861,3.994-10.609c2.379-2.155,5.011-3.24,7.851-3.24c0.749,0,1.513,0.075,2.29,0.227
			c5.583,1.087,10.433,5.744,13.247,10.422c-4.437-3.787-9.819-8.02-15.85-7.544C331.59,158.567,327.789,161.921,326.923,165.716z"
			/>
		<path fill="#FFCEA6" d="M301.361,292.797c-10.872,2.825-19.191,1.877-24.718-2.815c-5.576-4.741-6.731-12.013-6.923-15.927
			l-0.026-0.544l-0.514,0.181c-4.623,1.626-9.291,2.872-13.872,3.702l-0.344,0.063l0.01,0.349
			c0.259,8.861,2.304,20.971,10.579,28.339c3.434,3.064,8.107,4.919,14.276,5.668c3.108,0.463,6.771,0.932,10.495,0.932
			c0.1,0,0.201,0,0.301-0.001c1.963-0.009,3.685-0.202,5.118-0.573c1.754-0.454,2.856-1.157,3.372-2.152
			c0.717-1.434-0.072-3.508-0.329-4.105c-1.192-2.882-4.192-3.924-7.003-4.225c3.235-0.963,7.318-0.149,9.185,2.971
			c1.485,2.149,1.832,4.786,0.905,6.881l-0.226,0.511l0.555,0.057c1.78,0.186,3.438,0.167,4.92-0.048
			c3.086-0.359,5.696-2.017,6.649-4.224c0.536-1.242,0.803-3.223-0.971-5.607c-1.339-1.794-3.178-3.222-5.174-4.576
			c4.107,0.588,7.311,2.662,8.733,5.723c1.246,2.68,0.909,5.691-0.902,8.058l-0.573,0.749l0.937-0.098
			c2.245-0.234,4.049-0.892,5.361-1.956c4.155-3.362,5.584-8.326,3.558-12.354C322.364,293.061,314.975,289.276,301.361,292.797z"/>
		<path fill="#FFCEA6" d="M158.776,292.792c-11.085,3.166-18.978,2.78-23.453-1.149c-1.723-1.519-2.869-3.506-3.404-5.907
			l-0.124-0.554l-2.293,1.401l-0.339-2.464c-0.006-0.041-0.569-4.153,0.872-8.92l0.247-0.818l-0.791,0.324
			c-3.809,1.566-9.782,3.761-16.607,5.331l-0.354,0.082l0.042,0.362c1.265,10.809,5.961,29.224,23.182,31.105
			c3.808,0.607,7.859,1.158,11.889,1.158c0.396,0,0.793-0.006,1.189-0.017c2.507-0.132,4.91-0.357,6.752-1.651
			c1.424-1.019,1.587-2.944,0.457-5.423c-1.252-2.678-4.17-3.664-6.89-3.96c3.12-0.941,7.02-0.24,8.961,2.633
			c1.558,2.034,2.058,4.84,1.242,6.982l-0.19,0.5l0.534,0.048c1.668,0.15,3.221,0.136,4.618-0.043
			c3.546-0.444,7.637-2.331,7.49-6.22c-0.398-3.621-3.568-5.932-6.528-7.939c4.227,0.638,8.591,3.117,9.38,7.591
			c0.396,1.993-0.201,4.122-1.683,5.994l-0.563,0.712l0.906-0.055c2.184-0.132,3.947-0.728,5.24-1.77l0.001-0.001
			c4.227-3.416,5.606-8.516,3.434-12.691C179.526,292.686,172.132,288.971,158.776,292.792z"/>
		<path fill="#FFCEA6" d="M351.763,256.671c-6.681-4.603-11.538-10.918-14.047-18.262l-0.044-0.128l-0.111-0.076
			c-5.376-3.668-9.637-8.863-12.012-14.654c-1.12-2.302-1.742-6.02-2.242-9.008c-0.058-0.347-0.115-0.685-0.17-1.013l3.444,3.144
			c4.965,3.924,9.169,6.292,13.23,7.453l1.823,0.521l-1.45-1.221c-4.469-3.768-7.839-8.529-9.747-13.773
			c-1.347-3.651-2.194-7.571-2.519-11.65l-0.104-1.314l-0.653,1.145c-7.986,14.008-26.456,22.615-27.238,22.975l-4.255,1.954
			l2.131-4.17c0.346-0.676,0.657-1.407,0.921-2.167c1.929-5.358,2.063-12.475,1.834-17.501l-0.083-1.845l-0.698,1.709
			c-0.535,1.312-1.14,2.617-1.796,3.882c-4.982,9.662-13.089,17.814-24.099,24.229c-12.17,7.097-23.5,9.495-23.615,9.519
			l-5.522,1.163l4.061-3.925c7.219-6.963,8.017-16.261,8.025-19.935l0.001-0.385l-0.385-0.021c-0.153-0.009-0.316-0.009-0.469-0.009
			c-23.546,0-46.201,40.083-46.422,40.486l-2.234,4.021l-0.787-4.527c-1.268-7.271-1.863-17.179-2.137-24.209l-0.053-1.349
			l-0.7,1.154c-15.112,24.919-56.871,32.143-58.641,32.438l-5.404,0.91l4.033-3.702c5.488-5.04,9.207-11.49,10.935-14.886
			l0.317-0.623l-0.699,0.034c-24.724,1.191-49.991,25.449-51.056,26.482l-2.904,2.839l0.143-4.062
			c0.3-8.418,2.895-17.395,5.02-23.444l0.469-1.335l-1.105,0.883c-6.611,5.282-19.309,13.315-32.775,19.355l-0.856,0.385
			l0.867,0.361c8.48,3.527,17.835,2.109,17.89,2.097l2.611-0.416l-0.812,2.521c-1.046,3.249-2.841,6.045-5.336,8.31l-0.574,0.521
			l0.755,0.175c20.403,4.727,46.195-7.999,46.454-8.128l5.261-2.638l-3.17,4.963c-1.911,2.986-2.519,6.232-2.693,8.43l-0.06,0.757
			l0.663-0.37c21.718-12.143,46.677-14.801,47.729-14.908l4.502-0.468l-3.184,3.229c-2.936,2.961-3.482,6.859-3.423,9.609
			l0.016,0.718l0.607-0.384c21.271-13.433,35.993-11.241,36.61-11.14l2.636,0.421l-1.592,2.143c-1.798,2.43-5.115,5.423-9.86,8.895
			l-1.522,1.113l1.845-0.388c22.895-4.817,47.986-21.193,48.237-21.358l4.239-2.793l-1.837,4.735
			c-2.489,6.414-7.206,11.307-10.724,14.283l-0.982,0.83l1.281-0.116c25.735-2.335,44.304-16.992,44.487-17.139l6.871-5.455
			l-4.469,7.554c-2.626,4.451-4.502,8.809-5.573,12.95l-0.36,1.393l1.036-1c15.153-14.626,36.667-16.525,37.576-16.599l2.305-0.194
			l-0.603,2.235c-0.882,3.266-4.347,6.893-7.099,9.361l-0.925,0.829l1.236-0.123c19.498-1.943,27.053-8.176,29.821-11.718
			l0.266-0.339L351.763,256.671z M294.669,247.742c-8.681,9.502-21.464,16.899-33.817,19.569
			C271.789,261.583,283.141,255.013,294.669,247.742z M214.468,261.993c-9.951,1.889-19.685,4.983-28.97,9.208
			c-0.618,0.256-1.22,0.536-1.824,0.818c-0.198,0.093-0.399,0.186-0.601,0.278c7.193-6.667,17.409-10.594,26.988-10.594
			C211.55,261.703,213.024,261.798,214.468,261.993z"/>
	</g>
	<g>
		<path fill="#D69A72" d="M477.91,235.69c-0.78-0.568-1.567-1.112-2.331-1.632c-1.153-0.796-2.241-1.543-3.078-2.233
			c-5.208-3.906-10.556-8.118-15.074-13.273l1.651-0.125l-9.759-18.109l-5.512-20.654l-1.576-0.9c0,0,12.34,46.913-15.167,38.913
			c0,0,2.654,7.326,0.585,13.552c2.135,0.326,4.256,0.666,6.329,1.018c6.106,1.137,12.53,2.42,18.628,4.15
			c-6.334-0.495-12.798-1.502-18.912-2.55c-2.1-0.392-4.31-0.819-6.571-1.283c-2.8,6.037-10.549,15.445-28.85,7.294
			c0,6.813,7.698,9.312,7.698,9.312s-20.216-3.211-30.642,2.104c0,0,8.262,0.138,11.151,3.045c-1.87,0.77-3.737,1.54-5.609,2.24
			c-5.246,1.957-10.296,1.73-15.51,2.688c5.481,1.803,11.295,2.688,16.858,2.688c3.687,0,7.268-0.39,10.581-1.161
			c15.94-3.719,30.524-1.665,43.411,0.146l0.097,0.016c0.999,0.146,1.989,0.284,2.972,0.414c6.943,0.958,11.953-1.039,14.933-2.883
			l1.048-0.65l-1.226-0.105c-3.402-0.284-6.74-0.934-9.907-1.925c-3.654-1.129-6.772-2.509-9.436-4.182
			c7.121,2.184,14.673,3.061,22.501,2.598c4.791-0.317,11.003-0.918,16.574-2.68l0.804-0.26l-0.698-0.463
			c-2.745-1.86-3.484-6.618-3.638-7.934c3.914-1.064,7.609-6.391,7.771-6.626l0.227-0.325L477.91,235.69z M454.929,247.603
			c-0.926,0-1.681-0.755-1.681-1.689c0-0.926,0.755-1.681,1.681-1.681c0.934,0,1.689,0.755,1.689,1.681
			C456.618,246.847,455.863,247.603,454.929,247.603z M461.174,245.508c-0.934,0-1.689-0.755-1.689-1.681
			c0-0.934,0.755-1.689,1.689-1.689c0.926,0,1.681,0.755,1.681,1.689C462.854,244.752,462.099,245.508,461.174,245.508z
			 M463.26,238.362c-0.926,0-1.681-0.755-1.681-1.681c0-0.934,0.755-1.689,1.681-1.689c0.934,0,1.689,0.755,1.689,1.689
			C464.95,237.607,464.194,238.362,463.26,238.362z"/>
		<path fill="#D69A72" d="M399.492,157.63c0,0-21.015,14.056-40.536,4.905l-0.422-0.219c-0.244-0.56-0.479-1.096-0.698-1.608
			c-0.406-0.926-0.788-1.795-1.072-2.542l-0.373-0.991l0.942,0.487c12.992,6.715,27.495,3.8,33.123,2.233
			C391.591,160.342,399.492,157.63,399.492,157.63z"/>
		<path fill="#D69A72" d="M416.488,160.009c-0.179-0.138-20.228-13.829-39.034-16.005l-0.146-0.016
			c-0.885-1.673-1.51-3.191-1.908-4.312l-0.219-0.617l0.65,0.073c18.807,2.176,37.053,16.647,37.232,16.785l2.948,2.371
			L416.488,160.009z"/>
		<path fill="#D69A72" d="M445.136,186.262c-5.408-15.234-13.057-27.983-22.769-37.97c-5.27-5.408-12.035-9.862-17.76-12.964
			c-2.127-2.395-4.23-4.184-5.976-5.759v-1.18l1.518,0.349c0.089,0.024,0.179,0.049,0.268,0.081
			c0.763,0.284,1.721,0.723,2.736,1.226c6.082,3.143,12.002,7.641,17.589,13.374C431.47,154.455,439.679,168.86,445.136,186.262z"/>
		<path fill="#D69A72" d="M104.75,244.419c-7.966,6.366-17.986,12.327-29.785,17.71l-0.56,0.252l0.455,0.414
			c0.158,0.144,0.319,0.282,0.477,0.424c1.443-1.553,5.893,0.535,6.027,0.714c8.562-4.3,16.045-8.928,22.315-13.806
			c0.568-1.908,1.153-3.679,1.705-5.254l0.471-1.34L104.75,244.419z"/>
		<path fill="#D69A72" d="M154.884,243.023l-0.317,0.625c-0.593,1.177-1.437,2.72-2.501,4.442
			c-24.028,2.395-51.702,25.1-51.702,25.1c0.016-0.333,0.024-0.666,0.049-1.007l2.712-2.647c1.064-1.031,26.334-25.287,51.06-26.48
			L154.884,243.023z"/>
		<path fill="#D69A72" d="M256.827,213.343v0.382c-0.008,1.08-0.073,2.631-0.349,4.466h-0.033c-0.154-0.008-0.317-0.008-0.471-0.008
			c-23.549,0-48.86,40.837-48.86,40.837c-1.267-7.268-2.444-18.035-2.72-25.067l-0.057-1.348l-0.698,1.153
			c-18.138,30.043-65.328,29.103-65.328,29.103c0.78-0.723,6.845-0.926,7.552-1.689c6.334-1.186,43.663-9.022,57.776-32.286
			l0.698-1.153l0.057,1.348c0.276,7.032,0.869,16.939,2.136,24.207l0.788,4.531l2.233-4.02c0.219-0.406,22.875-40.488,46.424-40.488
			c0.154,0,0.317,0,0.471,0.008L256.827,213.343z"/>
		<path fill="#D69A72" d="M300.595,204.857c-0.016-0.357-0.024-0.715-0.041-1.056l-0.081-1.835l-0.698,1.697
			c-4.669,11.36-13.382,20.812-25.896,28.112c-12.172,7.097-30.435,6.496-30.435,6.496s6.805-1.226,7.422-1.998
			c2.501-0.593,12.44-3.207,23.013-9.371c12.513-7.3,21.226-16.752,25.896-28.112l0.698-1.697l0.081,1.835
			C300.635,200.74,300.668,202.77,300.595,204.857z"/>
		<path fill="#D69A72" d="M341.635,224.647l-1.827-0.52c-1.803-0.52-3.63-1.267-5.546-2.298c-9.122-10.382-7.92-17.736-7.92-17.736
			c-10.107,16.363-31.569,19.53-31.569,19.53c0.333-0.658,3.662-1.518,3.922-2.249l1.226-0.56c0.78-0.365,19.253-8.973,27.235-22.98
			l0.658-1.145l0.106,1.316c0.325,4.076,1.169,7.998,2.517,11.653c1.908,5.238,5.278,10.004,9.744,13.772L341.635,224.647z"/>
		<path fill="#D69A72" d="M75.338,263.218c1.004-1.078,2.624-1.179,3.99-0.709c-0.637-0.497-1.269-1.004-1.894-1.525
			c-0.812,0.382-1.632,0.763-2.469,1.145l-0.56,0.252l0.455,0.414C75.017,262.94,75.179,263.076,75.338,263.218z"/>
		<path fill="#D69A72" d="M354.783,259.243c0.11-0.125,0.223-0.242,0.331-0.369l0.317-0.374l-0.422-0.236
			c-0.755-0.439-2.161-1.313-2.745-1.679c-0.345,0.346-0.695,0.677-1.046,1.004C352.401,258.152,353.601,258.681,354.783,259.243z"
			/>
		<path fill="#D69A72" d="M332.437,179.641c0,0-7.455-28.185,20.395-12.275c0,0-7.362-10.894-17.685-10.191
			s-9.364,8.455-9.364,8.455S327.157,176.923,332.437,179.641z"/>
		<path fill="#D69A72" d="M156.995,310.023c-0.503,0.991-1.608,1.697-3.362,2.144c-1.437,0.374-3.159,0.568-5.124,0.577h-0.3
			c-3.711,0-7.381-0.471-10.491-0.934c-6.171-0.747-10.841-2.598-14.275-5.668c-6.212-5.522-9.842-14.69-10.508-26.505l-0.032-0.642
			l0.333,0.138c1.137,10.102,4.637,17.995,10.207,22.948c3.435,3.069,8.104,4.921,14.275,5.668c3.11,0.463,6.78,0.934,10.491,0.934
			h0.3c1.965-0.008,3.687-0.203,5.124-0.577c1.567-0.398,2.623-1.007,3.175-1.843C157.125,307.1,157.621,308.797,156.995,310.023z"
			/>
		<path fill="#D69A72" d="M171.401,308.578c-1.088,1.9-3.37,3.264-5.944,3.565c-1.584,0.26-3.354,0.26-5.392,0.008l-0.552-0.073
			l0.227-0.503c0.479-1.056,0.633-2.257,0.463-3.467c1.981,0.235,3.703,0.227,5.254-0.024c2.574-0.3,4.856-1.665,5.944-3.565
			c0.097-0.17,0.187-0.341,0.26-0.52C172.302,305.598,172.205,307.165,171.401,308.578z"/>
		<path fill="#D69A72" d="M179.066,310.129c-1.381,1.121-3.167,1.819-5.303,2.079l-0.942,0.114l0.568-0.763
			c0.836-1.112,1.364-2.339,1.559-3.614c1.616-0.341,3.004-0.966,4.117-1.876c2.249-1.819,3.703-4.125,4.223-6.504
			C184.142,303.243,182.599,307.27,179.066,310.129z"/>
		<path fill="#D69A72" d="M298.979,310.023c-0.503,0.991-1.608,1.697-3.362,2.144c-1.437,0.374-3.159,0.568-5.124,0.577h-0.3
			c-3.711,0-7.381-0.471-10.491-0.934c-6.171-0.747-10.841-2.598-14.275-5.668c-6.212-5.522-9.842-14.69-10.508-26.505l-0.032-0.642
			l0.333,0.138c1.137,10.102,4.637,17.995,10.207,22.948c3.435,3.069,8.104,4.921,14.275,5.668c3.11,0.463,6.78,0.934,10.491,0.934
			h0.3c1.965-0.008,3.687-0.203,5.124-0.577c1.567-0.398,2.623-1.007,3.175-1.843C299.109,307.1,299.604,308.797,298.979,310.023z"
			/>
		<path fill="#D69A72" d="M313.384,308.578c-1.088,1.9-3.37,3.264-5.944,3.565c-1.584,0.26-3.354,0.26-5.392,0.008l-0.552-0.073
			l0.227-0.503c0.479-1.056,0.633-2.257,0.463-3.467c1.981,0.235,3.703,0.227,5.254-0.024c2.574-0.3,4.856-1.665,5.944-3.565
			c0.097-0.17,0.187-0.341,0.26-0.52C314.286,305.598,314.188,307.165,313.384,308.578z"/>
		<path fill="#D69A72" d="M321.05,310.129c-1.38,1.121-3.167,1.819-5.303,2.079l-0.942,0.114l0.568-0.763
			c0.836-1.112,1.364-2.339,1.559-3.614c1.616-0.341,3.004-0.966,4.117-1.876c2.249-1.819,3.703-4.125,4.223-6.504
			C326.125,303.243,324.582,307.27,321.05,310.129z"/>
		<path fill="#D69A72" d="M352.118,256.917l-0.268,0.341c-2.769,3.54-10.321,9.777-29.818,11.718l-1.234,0.122l0.926-0.828
			c1.194-1.072,2.517-2.363,3.719-3.752c13.788-1.86,20.877-5.968,24.45-9.233c0.609,0.487,1.226,0.95,1.868,1.389L352.118,256.917z
			"/>
		<path fill="#D69A72" d="M327.116,256.868c-0.91,0.073-22.42,1.973-37.573,16.598l-1.039,0.999l0.365-1.397
			c0.365-1.421,0.828-2.866,1.389-4.336c15.104-14.007,38.813-12.438,39.706-12.511L327.116,256.868z"/>
		<path fill="#D69A72" d="M292.036,258.021c-0.187,0.146-18.75,14.803-44.491,17.142l-1.275,0.114l0.983-0.828
			c1.21-1.031,2.574-2.29,3.93-3.76c23.833-3.289,49.013-19.669,49.192-19.807L292.036,258.021z"/>
		<path fill="#D69A72" d="M255.576,258.224c-0.252,0.162-25.343,16.541-48.243,21.356l-1.843,0.39l1.518-1.112
			c2.314-1.697,4.288-3.272,5.912-4.726c21.21-5.969,47.501-19.594,47.728-19.741L255.576,258.224z"/>
		<path fill="#D69A72" d="M219.188,267.521c0,0-3.068-0.665-3.531-0.153c-1.786-0.236-16.127-1.657-36.436,11.165l-0.609,0.39
			l-0.016-0.723c-0.024-1.039,0.041-2.249,0.3-3.516l0.325-0.211c1.437-0.909,2.842-1.746,4.223-2.509
			c-0.13,0.106-0.252,0.219-0.374,0.333c0.203-0.089,0.406-0.187,0.601-0.276c0.609-0.284,1.202-0.581,1.827-0.82
			C209.793,261.89,219.188,267.521,219.188,267.521z"/>
		<path fill="#D69A72" d="M180.942,265.808l-0.244,0.024c-1.048,0.105-26.009,2.761-47.731,14.909l-0.658,0.365l0.057-0.755
			c0.081-1.039,0.268-2.314,0.642-3.695c21.714-12.124,52.233-11.706,53.281-11.811C186.289,264.846,181.251,265.37,180.942,265.808
			z"/>
		<path fill="#D69A72" d="M91.002,266.434l-1.129,0.179c-0.057,0.016-9.411,1.437-17.889-2.095l-0.869-0.357l0.861-0.39
			c1.405-0.633,2.81-1.283,4.19-1.957c7.105,1.746,16.861,3.901,16.909,3.885C93.076,265.698,91.254,265.857,91.002,266.434z"/>
		<path fill="#D69A72" d="M132.968,269.6c-0.26,0.13-26.05,12.854-46.448,8.128l-0.755-0.179l0.568-0.52
			c0.974-0.877,1.843-1.843,2.59-2.883c19.96,3.281,50.193-8.087,50.444-8.209L132.968,269.6z"/>
		<path fill="#D69A72" d="M420.605,209.894c0.376-2.429,0.141-4.934-0.723-7.318c-1.35-3.734-4.085-6.716-7.679-8.397
			c-3.604-1.676-7.644-1.857-11.378-0.507c-1.661,0.602-3.162,1.491-4.482,2.59c-4.869,2.831-10.189,1.25-10.545,1.134
			c3.679,2.791,4.858,7.253,5.245,9.677c-0.075,1.897,0.216,3.815,0.883,5.652c1.35,3.739,4.075,6.721,7.679,8.397
			c2.003,0.934,4.141,1.405,6.284,1.405c1.717,0,3.433-0.291,5.084-0.893c2.284-0.833,4.286-2.183,5.877-3.915
			c3.724-2.464,7.408-1.456,7.624-1.395C421.644,214.346,420.831,211.565,420.605,209.894z"/>
	</g>
	<g>
		<path fill="#FFFFFF" d="M378.703,70.401c14.357,13.686,15.99,44.915,15.974,45.174c0,0,10.658-1.577,15.477-12.822
			c-1.232,6.814-4.953,18.953-4.953,18.953s13.737-6.796,16.645-8.356c-4.098,6.215-5.512,10.913-5.512,10.913
			s12.846,6.525,15.981,21.86c2.112,1.701,0.655-3.999,2.619-2.132c-0.96-7.242-4.111-17.878-14.185-21.389
			c1.574-2.312,6.013-8.342,12.659-13.426l12.804-7.224l-15.382,2.254c-5.775,1.814-11.986,4.888-18.494,9.152
			c1.432-3.848,3.787-11.813,3.649-22.305l-1.263-12.075l-4.234,11.099c-4.069,10.66-8.536,17.931-12.715,20.75
			c0.016-6.461-1.289-32.252-21.836-50.193l-8.12-7.089l3.569,10.17c5.839,16.644,8.19,29.67,6.637,36.426
			c-4.485-9.61-26.022-51.829-61.299-59.581l-8.895-1.954l6.204,6.666c12.395,13.315,21.073,24.903,23.761,31.648
			c-8.467-3.912-45.218-21.757-60.561-43.474l-7.059-9.996l1.932,12.084c1.008,6.295,3.224,15.455,8.095,25.249
			c-10.668-9.841-42.746-37.537-71.767-43.569l-8.798,0.03l6.482,5.003c11.46,8.844,19.034,17.359,21.077,23.633
			c-9.142-2.123-50.895-12.59-70.03-30.7l-4.812-2.848l0.188,5.885c2.399,6.582,6.958,15.793,15.37,24.212
			c-5.547-2.238-15.857-5.824-28.258-7.434c-22.504-2.929-42.343,1.385-58.957,12.82l-7.968,5.482l9.667-0.299
			c7.274-0.228,20.175,0.049,30.274,3.933c-13.994,0.193-61.513,3.332-83.486,35.874l-5.472,8.103l8.963-3.907
			c10.422-4.54,30.124-11.311,48.627-7.69c-6.988,2.068-24.439,7.98-40.986,19.522c-26.638,18.577-39.787,42.85-39.08,72.145
			l0.222,9.165l5.001-7.683c4.898-7.52,14.043-20.367,23.738-27.869c-7.687,11.63-29.415,48.508-21.535,83.204
			c0,0,2.465-1.081,2.757-0.785c-3.191-42.306,29.962-92.926,29.962-92.926s-15.196,1.766-35.172,30.058
			c1.371-24.578,13.758-45.179,36.893-61.313c20.513-14.309,49.867-23.493,49.867-23.493s-19.442-12.871-55.258,0.407
			c12.668-14.318,31.329-21.133,45.523-24.364c18.003-4.1,42.411-5.203,42.411-5.203s-9.207-10.837-36.192-12.061
			c14.315-7.923,30.953-10.709,49.572-8.29c17.69,2.299,30.991,8.826,31.115,8.887l15.636,5.593l-11.155-12.289
			c-6.652-5.735-11.128-12.138-14.113-17.818c35.689,24.089,70.466,25.429,70.466,25.429s1.364-7.779-6.934-17.637l-4.686-4.851
			c-0.92-0.881-1.856-1.744-2.801-2.585c31.268,10.968,63.495,42.773,63.855,43.135l12.223,9.335l-5.831-14.23
			c-4.068-7.092-6.587-14.024-8.146-19.884c37.419,34.237,62.962,38.376,62.962,38.376s2.528-9.059-19.125-33.959
			c35.593,16.395,55.622,60.18,55.622,60.18S386.845,101.64,378.703,70.401z"/>
		<path fill="#FFFFFF" d="M478.007,236.242l0.227-0.325l-0.325-0.227c-0.78-0.568-1.567-1.112-2.331-1.632
			c-1.153-0.796-2.241-1.543-3.078-2.233c-6.821-5.116-13.902-10.743-19.026-18.344c-2.371-3.524-4.125-7.852-5.059-12.513
			c-0.227-1.096-0.43-2.176-0.641-3.248c-0.601-3.175-1.177-6.179-2.217-9.273c-5.449-18.019-13.804-32.887-24.816-44.215
			c-5.587-5.733,16.829,23.991,21.567,45.839c0.692,3.19,1.616,6.098,2.217,9.273c0.211,1.072,0.414,2.152,0.641,3.248
			c0.934,4.661,2.688,8.989,5.059,12.513C455.351,222.706,477.946,236.33,478.007,236.242z"/>
		<path fill="#FFFFFF" d="M358.086,172.433l-0.333-0.122c-1.039-5.156-4.255-9.549-5.311-10.881
			c-6.261-7.901-16.403-9.834-22.209-7.097c-6.431,3.029-10.451,8.234-11.027,14.267c-0.008,0.065-0.008,0.122-0.016,0.187
			c-0.073-0.869-0.065-1.746,0.016-2.623c0.577-6.033,4.596-11.239,11.027-14.267c5.806-2.737,15.948-0.804,22.209,7.097
			c1.186,1.494,5.083,6.837,5.587,12.798L358.086,172.433z"/>
		<path fill="#FFFFFF" d="M415.919,203.971c-0.98-2.703-2.955-4.861-5.56-6.075c-2.565-1.209-5.498-1.354-8.237-0.371
			c-2.71,0.988-4.871,2.966-6.084,5.568c-1.22,2.608-1.349,5.534-0.363,8.235c0.98,2.705,2.956,4.863,5.56,6.077
			c1.448,0.68,2.998,1.021,4.556,1.021c1.237,0,2.48-0.216,3.681-0.65c2.696-0.978,4.857-2.955,6.084-5.568
			C416.775,209.599,416.904,206.675,415.919,203.971z"/>
	</g>
	<path fill="#231F20" d="M181.277,273.5c1.534-0.57,2.916-1.322,4.381-1.923c9.976-4.545,20.318-7.738,31.149-9.6
		C204.425,259.351,189.943,264.432,181.277,273.5z M258.225,268.221c14.283-2.294,29.387-11.155,38.572-22.306
		C284.38,253.83,271.29,261.49,258.225,268.221z M434.052,231.848c-7.357-1.249-15.013-2.428-22.47-2.769
		c7.124,2.26,14.698,3.793,22.038,5.167c7.366,1.257,15.017,2.437,22.47,2.769C448.979,234.747,441.392,233.213,434.052,231.848z
		 M433.815,239.88c-6.843,0.173-13.942,0.462-20.707,1.551c6.809,0.86,13.894,0.933,20.75,0.877
		c6.934-0.138,13.838-0.471,20.716-1.542C447.67,239.906,440.753,239.798,433.815,239.88z M463.262,234.587
		c-1.154,0-2.087,0.942-2.087,2.095c0,1.149,0.933,2.087,2.087,2.087c1.154,0,2.095-0.938,2.095-2.087
		C465.357,235.529,464.415,234.587,463.262,234.587z M463.262,234.587c-1.154,0-2.087,0.942-2.087,2.095
		c0,1.149,0.933,2.087,2.087,2.087c1.154,0,2.095-0.938,2.095-2.087C465.357,235.529,464.415,234.587,463.262,234.587z
		 M461.175,241.733c-1.154,0-2.095,0.933-2.095,2.095c0,1.153,0.942,2.087,2.095,2.087c1.154,0,2.087-0.933,2.087-2.087
		C463.262,242.666,462.329,241.733,461.175,241.733z M454.928,243.828c-1.153,0-2.087,0.933-2.087,2.087
		c0,1.154,0.933,2.095,2.087,2.095c1.162,0,2.095-0.942,2.095-2.095C457.023,244.762,456.09,243.828,454.928,243.828z
		 M456.09,237.015c-7.111-2.268-14.698-3.802-22.038-5.167c-7.357-1.249-15.013-2.428-22.47-2.769
		c7.124,2.26,14.698,3.793,22.038,5.167C440.986,235.503,448.638,236.683,456.09,237.015z M433.815,239.88
		c-6.843,0.173-13.942,0.462-20.707,1.551c6.809,0.86,13.894,0.933,20.75,0.877c6.934-0.138,13.838-0.471,20.716-1.542
		C447.67,239.906,440.753,239.798,433.815,239.88z M258.225,268.221c14.283-2.294,29.387-11.155,38.572-22.306
		C284.38,253.83,271.29,261.49,258.225,268.221z M181.277,273.5c1.534-0.57,2.916-1.322,4.381-1.923
		c9.976-4.545,20.318-7.738,31.149-9.6C204.425,259.351,189.943,264.432,181.277,273.5z M327.765,157.915
		c-7.811,6.61-4.156,18.214,4.67,21.727c1.154,0.458-6.709-6.817-5.115-13.834c0.842-3.703,4.588-6.869,8.308-7.327
		c6.61-0.501,12.408,4.77,17.203,8.887C348.472,158.334,336.941,149.599,327.765,157.915z M338.5,59.65
		c5.362,7.396,10.987,14.477,16.322,21.852c5.236,7.375,10.507,14.659,13.721,23.217C367.351,88.76,350.705,69.271,338.5,59.65z
		 M266.239,221.527c13.479-6.195,25.758-19.122,28.345-34.07c0.333-2.169,0.449-4.372,0.294-6.532
		C291.003,197.752,278.85,210.467,266.239,221.527z M279.14,75.104c-8.58-16.698-29.914-31.737-46.806-39.293
		C248.414,48.413,265.457,59.771,279.14,75.104z M111.353,253.813c13.09-9.768,27.697-18.391,44.434-18.91
		C139.335,230.552,120.983,240.709,111.353,253.813z M101.455,45.959c25.464-2.86,52.09-1.236,75.125,10.874
		C156.21,40.688,125.709,38.489,101.455,45.959z M9.662,159.414c16.996-26.518,40.732-50.167,71.043-60.436
		c0.998-0.311,3.759-1.171,4.718-1.478c1.071-0.268,3.681-0.994,4.791-1.292c-1.884,0.233-4.735,0.51-6.575,0.916
		C50.977,103.134,23.132,129.851,9.662,159.414z M35.376,265.546c-1.478-19.964,1.374-40.023,6.986-59.171
		c0.747-2.787,1.754-5.482,2.476-8.282C33.73,217.47,29.012,243.906,35.376,265.546z M481.817,234.099
		c2.726-0.912,5.599-1.884,8.183-2.942c-2.272,0.138-4.532,0.359-6.787,0.626c-1.106,0.156-2.476,0.285-3.802,0.488
		c-1.167-0.847-2.355-1.698-3.556-2.566c4.467-3.232,8.632-6.887,12.853-10.416c-5.007,2.873-10.131,5.651-14.901,8.913
		c-8.144-6.022-16.249-12.909-20.098-22.103c-2.329-5.927-2.54-12.658-4.662-18.716c-3.91-12.849-9.842-25.749-18.024-36.761
		c1.218,1.249,1.923,2.039,1.957,2.078l3.258,3.685l0.289-4.903c0.065-0.981,1.179-22.85-13.885-29.443
		c2.899-3.957,9.997-12.529,19.731-16.858l6.433-2.851l-6.969-1.015c-0.436-0.056-10.075-1.292-27.235,9.168
		c1.836-6.139,3.819-16.607,1.715-29.555l-1.46-8.96l-2.501,8.731c-1.754,6.139-7.172,21.372-13.414,27.585
		c-0.423-10.118-3.94-36.632-28.108-53.122l-5.521-3.776l2.493,6.204c3.089,7.656,9.664,26.868,9.487,38.252
		c-2.86-5.642-7.945-14.728-15.147-24.099c-15.41-20.05-33.193-31.581-51.433-33.366l-5.56-0.544l3.914,3.983
		c0.225,0.22,19.528,19.96,26.211,32.549c-7.608-3.702-23.152-11.777-36.938-22.103c-10.719-8.031-20.383-17.428-24.461-27.213
		l-3.741-8.982l-0.164,9.738c-0.009,0.657-0.13,13.821,6.61,30.004c-14.931-13.246-47.683-39.263-76.314-40.926l-7.47-0.432
		l6.221,4.152c0.225,0.147,20.638,13.868,26.177,25.529c-13.306-3.322-59.888-16.175-72.65-36.29L147.57,0l1.249,9.198
		c0.108,0.739,2.281,15.778,14.641,30.225c-5.815-2.039-13.967-4.368-23.515-5.621c-17.54-2.303-43.142-1.184-65.547,17.234
		l-5.245,4.32l6.753-0.73c0.199-0.026,15.627-1.616,29.317,1.378c-6.701,0.445-15.769,1.495-25.615,3.906
		c-26.315,6.442-45.35,19.67-55.027,38.256l-3.063,5.863l5.824-3.145c0.277-0.143,24.79-13.186,48.396-11.116
		c-8.533,2.895-22.379,8.502-36.023,18.003C11.04,127.721-2.552,155.314,0.395,187.587l0.579,6.299l3.197-5.465
		c0.121-0.203,9.349-15.864,20.422-27.144c-2.994,5.141-6.519,11.825-9.716,19.536C5,204.592,3.117,226.75,9.424,244.891
		l2.195,6.308l1.689-6.463c0.065-0.242,5.69-21.364,18.504-36.515c-1.719,4.726-3.638,10.952-4.968,18.076
		c-3.94,21.053-0.786,39.829,9.129,54.297l2.709,3.957l0.95-4.696c0.06-0.259,5.15-24.198,25.01-32.406
		c-1.564,4.58-5.016,12.676-11.552,19.519l-5.409,5.66l7.47-2.311c3.914-1.02,8.001-2.424,12.097-4.078
		c7.046,4.117,15.134,4.51,19.662,4.307c-2.277,4.035-5.56,5.621-5.72,5.694l-4.502,2.056l4.649,1.698
		c8.77,3.206,18.681,2.886,27.559,1.279c0.186,3.154,0.592,6.308,1.3,9.423c2.415,11.488,9.79,22.569,22.107,24.729
		c6.442,1.015,17.143,2.7,23.632-0.363c3.785,1.11,8.083,1.352,11.933,0.052c0.976,0.199,2.601,0.462,4.48,0.462
		c2.717-0.004,5.958-0.544,8.507-2.605c5.612-4.541,7.375-11.462,4.381-17.225c-3.132-6.027-11.993-10.896-27.464-6.472
		c-9.643,2.761-16.56,2.64-20.003-0.354c-1.858-1.616-2.372-3.793-2.488-5.279c15.557-8.537,33.167-12.205,41.272-13.531
		c-2.722,5.724-1.227,11.764-1.145,12.08l0.721,2.795l2.385-1.62c14.732-9.997,26.54-12.097,32.502-12.429
		c-5.124,4.744-13.142,9.699-13.242,9.759l-6.969,4.286l8.165-0.531c18.88-1.227,41-12.732,51.891-19.065
		c-4.709,6.251-10.965,9.898-11.047,9.945l-6.632,3.793h7.643c3.594,0,7.072-0.251,10.421-0.687
		c-0.229,7.388,0.968,14.685,4.113,21.463c3.292,7.357,10.135,13.462,18.106,15.225c6.783,1.283,18.003,3.024,24.842,0.069
		c2.951,0.95,6.182,1.357,9.457,0.864c0.795-0.143,1.534-0.333,2.225-0.557c0.657,0.117,2.117,0.328,3.944,0.328
		c2.89,0,6.675-0.536,9.548-2.856c5.53-4.471,7.349-11.237,4.523-16.84c-3.016-5.988-11.842-10.943-27.559-6.869
		c-9.643,2.501-16.853,1.81-21.416-2.052c-5.128-4.338-5.681-11.712-5.686-14.65c5.889-2.372,10.758-4.999,14.317-7.159
		c-3.677,8.584-3.361,13.916-3.344,14.192l0.376,5.292l3.253-4.191c10.572-13.609,27.892-18.193,35.586-19.61
		c-2.342,3.024-6.359,6.407-9.042,8.308l-5.642,3.983l6.899-0.298c26.609-1.154,36.131-9.647,39.263-13.92
		c7.435,4.13,16.711,6.459,27.382,6.39c4.005-0.022,7.828-0.419,11.246-1.214c15.277-3.569,29.512-1.56,42.062,0.207
		c1.041,0.147,2.065,0.294,3.08,0.432c12.114,1.663,19.303-4.424,21.593-6.779c3.448-0.203,6.882-0.799,10.213-1.815
		c6.001-1.957,15.868-4.35,17.281-11.626C488.41,240.221,485.127,236.752,481.817,234.099z M60.736,264.047
		c6.74-9.492,8.844-18.914,8.952-19.394l0.721-3.318l-3.275,0.942c-19.415,5.608-27.438,23.606-30.22,32.178
		c-18.409-32.381,2.311-73.488,2.54-73.916l4.402-8.567l-7.487,6.057c-13.669,11.06-21.519,29.387-24.937,39.137
		c-9.111-40.114,23.265-84.133,23.61-84.596l6.334-8.485l-9.021,5.547c-11.522,7.072-22.807,22.872-28.281,31.279
		c-0.683-28.294,12.023-51.727,37.863-69.747c20.863-14.551,42.926-19.904,43.142-19.951l7.885-1.875l-7.833-2.065
		c-20.465-5.392-42.991,2.501-53.597,7.124c24.738-36.632,84.297-34.636,84.924-34.601l9.185,0.38l-8.161-4.204
		c-10.891-5.621-26.358-6.092-35.176-5.815c16.02-11.03,35.15-15.186,56.976-12.343c18.258,2.372,31.637,9.021,31.767,9.086
		l14.724,7.405l-12.481-10.749c-10.239-8.826-15.484-19.182-18.085-26.311c21.381,20.236,70.382,31.197,72.685,31.711l3.08,0.674
		l-0.661-3.089c-2.035-9.492-14.525-20.422-22.457-26.544c34.532,7.18,73.566,45.83,73.981,46.253l10.792,10.775l-7.591-13.22
		c-6.269-10.93-8.973-21.515-10.127-28.721c5.759,8.148,14.374,15.73,23.429,22.275c18.422,13.315,38.628,22.323,40.006,22.932
		l3.884,1.711l-1.106-4.091c-2.584-9.595-17.571-26.587-25.01-34.575c37.945,8.338,59.935,59.3,60.164,59.845l1.836,4.329
		l1.888-4.303c4.031-9.15-2.182-29.737-5.932-40.429c22.465,19.618,20.858,49.022,20.837,49.338l-0.229,3.461l3.128-1.495
		c6.722-3.193,12.131-14.585,15.337-22.988c0.186,14.088-4.351,23.425-4.411,23.541l-3.53,7.072l6.502-4.502
		c8.351-5.755,15.065-8.744,19.977-10.287c-8.576,6.563-13.648,14.624-13.924,15.065l-1.421,2.281l2.579,0.739
		c10.2,2.916,12.775,14.348,13.402,21.122c-7.236-7.18-23.714-21.649-38.775-20.871l-5.711,0.285l4.614,3.378
		c0.164,0.121,14.088,10.434,18.4,21.679c-7.275-4.968-22.323-13.838-37.777-14.542l-2.614-0.121l0.544,2.575
		c0.138,0.665,3.128,14.127,14.382,19.813c-7.522,1.516-17.242,1.102-31.564-5.638c-5.271-3.378-14.965-7.306-22.025-5.651
		c-11.332,2.657-17.839,11.418-16.776,21.731c0.929,8.973,5.335,13.868,12.766,17.152c-1.745,13.078-17.216,24.755-24.833,29.149
		c2.86-11.263,0.302-26.341,0.173-27.071l-1.983-11.393l-2.013,11.384c-0.22,1.24-0.488,2.445-0.786,3.62
		c-6.424,24.613-31.136,35.608-42.741,39.487c5.832-9.15,4.856-19.001,4.8-19.493l-0.168-1.616l-1.624-0.181
		c-21.761-2.363-41.851,25.554-49.264,37.267c-1.365-11.833-1.529-26.643-1.529-26.816l-0.121-12.836l-3.841,12.252
		c-7.211,22.941-39.384,33.253-53.165,36.679c5.603-6.848,8.463-13.821,8.61-14.179l1.08-2.687l-2.89-0.104
		c-21.83-0.782-44.175,16.37-53.019,24.003c1.689-12.369,7.293-24.742,7.357-24.889l4.536-9.941l-7.811,7.651
		C94.21,250.248,71.87,259.848,60.736,264.047z M337.006,172.505c0.073,0.082,6.407,7.042,7.885,16.175
		c-3.417-0.112-9.988-0.955-12.067-5.616c0,0-3.361-0.635-6.748-3.119c-9.859-7.228-8.679-21.541,4.329-27.68
		c5.236-2.471,15.354-1.05,21.722,6.982c1.689,2.134,5.033,7.115,5.495,12.576c-4.173-1.581-11.976-3.914-19.446-2.696l-3.728,0.609
		L337.006,172.505z M158.889,293.179c13.116-3.754,20.349-0.169,22.742,4.441c2.078,4.001,0.739,8.9-3.331,12.192
		c-1.413,1.145-3.266,1.577-5.007,1.681c1.413-1.784,2.221-4.039,1.763-6.325c-0.933-5.297-6.532-7.859-11.328-8.075
		c3.124,2.147,7.232,4.571,7.677,8.546c0.13,3.668-3.966,5.374-7.141,5.772c-1.473,0.186-2.994,0.181-4.532,0.039
		c0.916-2.38,0.272-5.327-1.296-7.366c-2.398-3.547-7.591-3.979-11.064-2.091c3.223,0.048,6.912,0.855,8.304,3.828
		c0.713,1.568,1.274,3.78-0.324,4.925c-1.81,1.266-4.217,1.452-6.541,1.577c-4.316,0.121-8.714-0.458-12.995-1.132
		c-15.527-1.702-21.221-16.944-22.841-30.756c6.817-1.564,12.749-3.733,16.672-5.353c-1.447,4.787-0.916,8.87-0.886,9.099
		l0.423,3.072l2.342-1.43c0.436,1.97,1.413,4.255,3.534,6.122C139.642,295.974,147.66,296.393,158.889,293.179z M276.383,290.289
		c5.625,4.778,14.067,5.755,25.079,2.903c13.376-3.465,20.608,0.19,22.915,4.765c1.94,3.854,0.553,8.619-3.452,11.855
		c-1.456,1.175-3.361,1.681-5.145,1.866c4.26-5.56,0.514-14.093-9.725-14.585c2.35,1.542,4.8,3.201,6.42,5.379
		c3.422,4.597-0.51,8.61-5.4,9.181c-1.555,0.233-3.18,0.225-4.83,0.056c1.007-2.277,0.566-5.094-0.942-7.28
		c-2.285-3.819-7.72-4.411-11.306-2.437c3.327,0.043,7.111,0.916,8.416,4.074c0.475,1.119,0.86,2.73,0.337,3.772
		c-0.549,1.063-1.853,1.616-3.111,1.94c-1.534,0.393-3.266,0.549-5.016,0.562c-3.564,0.026-7.185-0.397-10.736-0.924
		c-5.072-0.618-10.217-2.139-14.063-5.573c-7.707-6.856-10.153-18.037-10.446-28.052c5.02-0.912,9.695-2.221,13.933-3.711
		C269.523,278.218,270.741,285.502,276.383,290.289z M321.993,268.571c2.998-2.692,6.334-6.277,7.219-9.556l0.752-2.795
		l-2.882,0.242c-1.007,0.086-22.647,2.065-37.82,16.715c0.834-3.236,2.445-7.621,5.53-12.849l5.582-9.448l-8.593,6.83
		c-0.199,0.16-18.845,14.741-44.27,17.048c3.733-3.162,8.368-8.066,10.844-14.447l2.294-5.919l-5.305,3.491
		c-0.281,0.181-25.282,16.499-48.089,21.299c3.659-2.674,7.755-6.018,9.945-8.978l1.987-2.683l-3.296-0.527
		c-0.648-0.104-15.536-2.29-36.891,11.194c-0.056-2.609,0.449-6.424,3.305-9.315l3.983-4.027l-5.634,0.583
		c-1.106,0.112-26.164,2.817-47.882,14.952c0.177-2.26,0.799-5.37,2.631-8.239l3.966-6.204l-6.584,3.292
		c-0.277,0.138-25.935,12.797-46.171,8.101c1.935-1.758,4.156-4.497,5.448-8.485l1.011-3.15l-3.266,0.518
		c-0.108,0.017-9.302,1.408-17.67-2.069c13.402-6.014,26.233-14.114,32.864-19.411c-2.177,6.195-4.744,15.138-5.042,23.567
		l-0.181,5.072l3.633-3.547c0.268-0.259,26.008-25.174,50.789-26.367c-1.81,3.556-5.465,9.824-10.848,14.771l-5.042,4.627
		l6.757-1.136c1.948-0.324,43.769-7.643,58.92-32.627c0.277,7.055,0.868,16.957,2.143,24.263l0.985,5.66l2.791-5.024
		c0.229-0.415,22.63-40.278,46.067-40.278c0.147,0,0.298,0,0.445,0.009c-0.009,3.72-0.834,12.831-7.902,19.644l-5.072,4.904
		l6.899-1.452c0.471-0.099,11.622-2.501,23.736-9.569c11.094-6.463,19.286-14.754,24.258-24.392c0.665-1.283,1.266-2.584,1.81-3.914
		c0.251,5.547,0.017,12.27-1.81,17.346c-0.264,0.747-0.562,1.452-0.903,2.121l-2.666,5.21l3.569-1.637l1.754-0.808
		c0.989-0.454,19.398-9.068,27.421-23.139c0.315,3.992,1.136,7.949,2.54,11.756c1.966,5.4,5.465,10.235,9.868,13.946
		c-4.8-1.374-9.258-4.355-13.09-7.383l-4.303-3.931c0.609,3.275,1.218,8.351,2.657,11.306c2.458,6.001,6.804,11.164,12.144,14.81
		c2.549,7.461,7.435,13.803,14.205,18.465C349.124,260.094,341.797,266.596,321.993,268.571z M469.798,242.554
		c0,0,0.462,6.29,3.849,8.58c-5.297,1.681-11.116,2.307-16.478,2.666c-8.291,0.484-16.802-0.523-25.01-3.469
		c3.482,2.687,7.599,4.532,11.846,5.845c3.249,1.015,6.61,1.659,9.997,1.944c-3.076,1.905-7.958,3.759-14.663,2.834
		c-1.015-0.138-2.039-0.285-3.072-0.432c-12.909-1.819-27.538-3.88-43.557-0.147c-15.54,3.629-39.937-1.128-49.502-18.62
		c3.62,1.529,7.504,2.406,11.449,2.471c-3.223-1.365-6.282-2.843-9.133-4.579c-6.334-3.819-11.501-9.358-15.073-15.786
		c5.05,3.067,10.714,5.171,16.663,4.662c0.652-0.026,5.578-1.283,6.351-1.439c-4.847-2.398-10.287-5.076-13.838-9.224
		c-7.128-7.807-9.133-19.1-7.785-29.421c4.238,3.841,10.887,4.329,13.907,4.329c0.886,0,1.465-0.048,1.577-0.056l2.005-0.156
		l-0.138-2.005c-0.544-7.66-4.212-14.097-6.753-17.696h0.073c8.265,0,16.296,3.858,16.383,3.906l2.925,1.43v-3.258
		c0-6.731-3.344-12.576-4.679-16.102c16.65,8.606,35.673,1.586,35.876,1.495l6.472-2.696l-6.917-1.179
		c-10.425-1.776-15.095-11.349-16.793-16.102c18.75,2.169,36.835,16.542,37.021,16.698l3.685,2.964l-0.389-4.718
		c-0.842-10.105-10.01-19.921-16.037-25.347c0.074,0.017,0.156,0.043,0.229,0.069c0.812,0.307,1.793,0.76,2.679,1.21
		c6.537,3.37,12.352,8.023,17.484,13.289c11.872,12.205,19.804,27.814,24.716,44.045c1.387,4.143,1.957,8.187,2.851,12.49
		c0.886,4.42,2.579,8.891,5.124,12.658c5.05,7.496,12.023,13.125,19.113,18.443c1.374,1.136,3.426,2.419,5.418,3.862
		C477.497,236.277,473.656,241.781,469.798,242.554z M463.262,234.587c-1.154,0-2.087,0.942-2.087,2.095
		c0,1.149,0.933,2.087,2.087,2.087c1.154,0,2.095-0.938,2.095-2.087C465.357,235.529,464.415,234.587,463.262,234.587z
		 M461.175,241.733c-1.154,0-2.095,0.933-2.095,2.095c0,1.153,0.942,2.087,2.095,2.087c1.154,0,2.087-0.933,2.087-2.087
		C463.262,242.666,462.329,241.733,461.175,241.733z M454.928,243.828c-1.153,0-2.087,0.933-2.087,2.087
		c0,1.154,0.933,2.095,2.087,2.095c1.162,0,2.095-0.942,2.095-2.095C457.023,244.762,456.09,243.828,454.928,243.828z
		 M456.09,237.015c-7.111-2.268-14.698-3.802-22.038-5.167c-7.357-1.249-15.013-2.428-22.47-2.769
		c7.124,2.26,14.698,3.793,22.038,5.167C440.986,235.503,448.638,236.683,456.09,237.015z M433.815,239.88
		c-6.843,0.173-13.942,0.462-20.707,1.551c6.809,0.86,13.894,0.933,20.75,0.877c6.934-0.138,13.838-0.471,20.716-1.542
		C447.67,239.906,440.753,239.798,433.815,239.88z M368.544,104.719C367.351,88.76,350.705,69.271,338.5,59.65
		c5.362,7.396,10.987,14.477,16.322,21.852C360.059,88.877,365.329,96.161,368.544,104.719z M327.765,157.915
		c-7.811,6.61-4.156,18.214,4.67,21.727c1.154,0.458-6.709-6.817-5.115-13.834c0.842-3.703,4.588-6.869,8.308-7.327
		c6.61-0.501,12.408,4.77,17.203,8.887C348.472,158.334,336.941,149.599,327.765,157.915z M266.239,221.527
		c13.479-6.195,25.758-19.122,28.345-34.07c0.333-2.169,0.449-4.372,0.294-6.532C291.003,197.752,278.85,210.467,266.239,221.527z
		 M296.797,245.915c-12.417,7.915-25.507,15.575-38.572,22.306C272.508,265.927,287.612,257.066,296.797,245.915z M279.14,75.104
		c-8.58-16.698-29.914-31.737-46.806-39.293C248.414,48.413,265.457,59.771,279.14,75.104z M181.277,273.5
		c1.534-0.57,2.916-1.322,4.381-1.923c9.976-4.545,20.318-7.738,31.149-9.6C204.425,259.351,189.943,264.432,181.277,273.5z
		 M155.787,234.903c-16.452-4.351-34.804,5.806-44.434,18.91C124.443,244.044,139.05,235.421,155.787,234.903z M101.455,45.959
		c25.464-2.86,52.09-1.236,75.125,10.874C156.21,40.688,125.709,38.489,101.455,45.959z M9.662,159.414
		c16.996-26.518,40.732-50.167,71.043-60.436c0.998-0.311,3.759-1.171,4.718-1.478c1.071-0.268,3.681-0.994,4.791-1.292
		c-1.884,0.233-4.735,0.51-6.575,0.916C50.977,103.134,23.132,129.851,9.662,159.414z M35.376,265.546
		c-1.478-19.964,1.374-40.023,6.986-59.171c0.747-2.787,1.754-5.482,2.476-8.282C33.73,217.47,29.012,243.906,35.376,265.546z
		 M461.175,241.733c-1.154,0-2.095,0.933-2.095,2.095c0,1.153,0.942,2.087,2.095,2.087c1.154,0,2.087-0.933,2.087-2.087
		C463.262,242.666,462.329,241.733,461.175,241.733z M454.928,243.828c-1.153,0-2.087,0.933-2.087,2.087
		c0,1.154,0.933,2.095,2.087,2.095c1.162,0,2.095-0.942,2.095-2.095C457.023,244.762,456.09,243.828,454.928,243.828z
		 M327.765,157.915c-7.811,6.61-4.156,18.214,4.67,21.727c1.154,0.458-6.709-6.817-5.115-13.834
		c0.842-3.703,4.588-6.869,8.308-7.327c6.61-0.501,12.408,4.77,17.203,8.887C348.472,158.334,336.941,149.599,327.765,157.915z
		 M111.353,253.813c13.09-9.768,27.697-18.391,44.434-18.91C139.335,230.552,120.983,240.709,111.353,253.813z M44.838,198.094
		c-11.107,19.377-15.825,45.812-9.461,67.453c-1.478-19.964,1.374-40.023,6.986-59.171
		C43.109,203.589,44.116,200.893,44.838,198.094z M232.334,35.811c16.08,12.602,33.124,23.96,46.806,39.293
		C270.56,58.406,249.226,43.367,232.334,35.811z M338.5,59.65c5.362,7.396,10.987,14.477,16.322,21.852
		c5.236,7.375,10.507,14.659,13.721,23.217C367.351,88.76,350.705,69.271,338.5,59.65z M294.878,180.925
		c-3.875,16.827-16.028,29.542-28.639,40.602c13.479-6.195,25.758-19.122,28.345-34.07
		C294.917,185.289,295.034,183.085,294.878,180.925z M83.638,97.124c-32.661,6.01-60.506,32.726-73.976,62.29
		c16.996-26.518,40.732-50.167,71.043-60.436c0.998-0.311,3.759-1.171,4.718-1.478c1.071-0.268,3.681-0.994,4.791-1.292
		C88.33,96.442,85.478,96.718,83.638,97.124z M101.455,45.959c25.464-2.86,52.09-1.236,75.125,10.874
		C156.21,40.688,125.709,38.489,101.455,45.959z M418.452,209.581c0.324-2.091,0.121-4.247-0.622-6.299
		c-1.162-3.214-3.517-5.781-6.61-7.228c-3.102-1.443-6.58-1.598-9.794-0.436c-1.43,0.518-2.722,1.283-3.858,2.229
		c-4.191,2.437-8.77,1.076-9.077,0.976c3.167,2.402,4.182,6.243,4.515,8.33c-0.065,1.633,0.186,3.283,0.76,4.865
		c1.162,3.219,3.508,5.785,6.61,7.228c1.724,0.804,3.564,1.21,5.409,1.21c1.478,0,2.955-0.251,4.377-0.769
		c1.966-0.717,3.69-1.879,5.059-3.37c3.206-2.121,6.377-1.253,6.562-1.201C419.346,213.414,418.646,211.02,418.452,209.581z
		 M416.08,208.964c-0.039-0.739-0.181-1.482-0.449-2.216c-1.456-3.996-5.871-6.057-9.868-4.605
		c-0.238,0.082-0.454,0.173-0.674,0.277c1.128,0.523,2.061,1.473,2.519,2.73c0.907,2.493-0.376,5.245-2.869,6.148
		c-1.322,0.48-2.713,0.341-3.871-0.268c0.069,0.324,0.16,0.657,0.281,0.981c1.452,3.988,5.854,6.048,9.842,4.614
		c-0.523,0.307-1.076,0.562-1.655,0.773c-2.609,0.942-5.418,0.817-7.928-0.359c-2.51-1.171-4.411-3.249-5.353-5.845
		c-0.951-2.609-0.817-5.426,0.35-7.928c1.171-2.51,3.249-4.407,5.854-5.357c1.153-0.415,2.35-0.626,3.543-0.626
		c1.495,0,2.99,0.324,4.385,0.981c2.51,1.171,4.407,3.249,5.349,5.85C416.11,205.689,416.292,207.348,416.08,208.964z"/>
</g>
</svg>
