<?xml version="1.0" encoding="utf-8"?>
<!-- Generator: Adobe Illustrator 28.3.0, SVG Export Plug-In . SVG Version: 6.00 Build 0)  -->
<svg version="1.1" id="killer_whale" xmlns="http://www.w3.org/2000/svg" xmlns:xlink="http://www.w3.org/1999/xlink" x="0px"
	 y="0px" viewBox="0 0 490 474.3" style="enable-background:new 0 0 490 474.3;" xml:space="preserve">
<style type="text/css">
	.st0{fill:#4C4C4C;}
	.st1{fill:#FFFFFF;}
	.st2{fill:#5B5B5B;}
	.st3{fill:#231F20;}
</style>
<g id="killer_whale_00000139989890764582152920000004871545879603667875_">
	<path class="st0" d="M486,175.5c-1-4.4-3.2-8.7-7-13.9l0,0c-7.3-9.9-15.3-18.1-23.3-23.6c-4.8-3.5-9.4-6.9-14-9.9
		c-39-26.1-89.1-40.1-153.1-42.9c0,0-1.3,0.1-2.9-0.1c-7.2-0.2-14.1-0.3-21.1-0.3c0,0,0,0,0,0l-2.4-0.1c-3.7-0.1-7.4-0.2-11.2-0.6
		c7.6-1.4,15.3-1.7,21.3-1.7l2.5,0l-2.3-0.9c-10.3-4.2-25.9-13.6-41.4-34.1c-13.9-18.5-23.4-26.9-33.6-35.2
		c-8.9-7.2-16-10.2-18.9-7.9c-3.4,2.5-2.3,11.8,3,24.9c0.8,1.9,1.5,3.7,2.3,5.5c0.5,1.2,1,2.4,1.5,3.6l0.4,0.9
		c7.7,18.6,13.3,32.1,12.7,43.7c-0.6,12.3-8,22-24.7,32.4C127.6,144,80.9,180.8,61.5,285.6c-6.2,33.3-19,53.3-31.4,72.6
		C13,384.8-1.8,407.7,5.1,459.4c0.7,3.1,3.6,11.2,7.9,11.5c0.1,0,0.1,0,0.2,0c2,0,6.1-1.8,12-13.3l0-0.1c1.5-8.1,2.5-19.6,2.9-33.1
		c0.7-26,27.8-80.8,39.1-97c2.5-3.7,5.4-5.7,8.6-6c4.9-0.5,9.7,3.1,12.9,6.2l0.4,0.4l0.3-0.5c11.8-17.3,25.5-32.3,37.7-41.1
		c2.6-1.9,5.4-3.9,8.3-6.1l3-2.3c7.6-5.7,16.3-12.1,25.5-18.3l0.1-0.1l0.1-0.2c1.4-4.7,1.3-8-0.3-9.8c-1.2-1.4-3.3-1.9-6.2-1.4
		c-3.9,0.6-10.7,4.1-18.7,8.2c-13.3,6.8-29.9,15.2-35.2,10.9c-2.1-1.7-2.3-5.6-0.7-11.4c4.4-15.5,15-42.8,36.1-52.2
		c11.5-5.1,24.5-4.2,38.8,2.8c33.1,16.1,46.5,11.8,57.2,8.4c3.4-1.1,6.6-2.1,10.1-2.4c7.1-0.4,14,8.5,16.7,12.3l0.1,0.2h2l0.1-0.1
		c9.8-6.6,19.4-12.9,29.7-18c-9.2,8.4-19.4,15.2-29.1,21.5c-1.5,1-3,2-4.6,3c-1,0.7-2.9,1.9-4.8,3.1c-1.9,1.2-3.7,2.4-4.7,3
		c-4.8,2.7-7.3,5.2-7.4,7.6c-0.1,1.5,0.8,2.8,2.6,4c7.8,4.8,19.1,3.8,28.1,2.5c19.5-3.4,39.2-12.3,60.3-27.3
		c12.1-8.3,21.1-15.8,28.5-23.6c6.4-6.8,11.9-14.2,16.5-20.9c-1.3,4.1-3,8-5.3,11.8l-1.2,1.9l1.9-1.3c9.8-6.6,35.4-21.5,61-17.6
		c5.9,0.9,11.3,1.9,16.6,2.9c16.7,3.2,28.7,5.5,33.6-1.6l0.1-0.2L486,175.5z M328.2,222c-0.5,0.6-1,1.3-1.7,1.9l0,0
		c-3.3,3.5-7.4,6.1-11.3,8.4c-10,5.9-21.8,10.5-35.2,13.5c-4.4,1.1-10.1,2.3-16,2.2c3.4-1.1,6.9-2,10.5-3c1.7-0.4,3.3-0.9,5-1.3
		c6.2-1.7,11.9-3.6,17.6-5.8c6.1-2.3,11.6-4.8,16.9-7.6c2.4-1.3,4.9-2.8,7.2-4.2C323.5,224.7,325.8,223.3,328.2,222z M224.6,48.2
		c-1.4-1.6-3.1-3.4-4.7-5.3c-1.6-1.8-3.3-3.7-4.7-5.3c-1.6-1.7-3.2-3.5-4.7-5.2c-1.6-1.8-3.2-3.5-4.8-5.3c-2.6-2.8-5.4-5.8-7.8-9.1
		c3.7,2.2,6.7,5.1,9.3,7.7c3,3,6.6,6.5,9.9,10.2l1,1.2c5.2,6.1,10.6,12.3,14.5,19.5c-2.8-2.6-5.3-5.4-7.9-8.3L224.6,48.2z
		 M79.2,234.1c0.5-3.1,1.4-6,2.2-8.5c9.3-23.4,22.8-45.1,40.2-64.5c0.8-0.8,1.6-1.7,2.4-2.6c5.1-5.6,10.4-11.3,16.8-15.4
		c-2.7,3.3-5.7,6.5-8.6,9.5c-3,3.1-6,6.4-8.8,9.9c-2.2,2.5-5.1,6.3-7.5,9.3l-1.5,2c-9.5,12.6-17.8,25.9-24.8,39.6
		c-1.5,2.9-3,6.2-4.5,9.4c-1.1,2.3-2.2,4.7-3.2,6.9C80.9,231.3,80,232.8,79.2,234.1z M9.6,451.4c0.2,2.5,0.4,5,0.5,7.6
		c-1-2.2-1.7-4.6-2.2-7.3c-2.4-14.9-1.1-31.5,3.9-49.3c1.6-5.8,3.4-11.4,6.4-16.3c-0.6,3.7-1.6,7.3-2.5,10.9c-0.5,2-1,4-1.5,6
		c-1.5,6.3-2.7,12.8-3.6,19.2c-0.9,6.6-1.4,13.2-1.4,19.5C9.1,444.9,9.4,448.2,9.6,451.4z"/>
	<g>
		<path class="st1" d="M484.9,173.9c-0.3,0.4-5.9-6.2-8.7-10.1c-6.4-8.7-12.8-17-21.6-23.2c-4.5-3.3-9.2-6.5-14-9.4
			c-89.9-54.5-182-40.7-193-46.9c2.9-0.6,14,0.9,16.9,1c7-0.1,14.1,0,21.1,0.3c1.7,0.2,3,0.1,3,0.1C342,88,396.7,98.6,441.4,128.5
			c4.7,3,9.4,6.6,14,9.9c8.8,6.2,16.7,14.8,23.2,23.5C481.6,166,483.9,168.9,484.9,173.9z"/>
		<path class="st1" d="M272.2,81.9c-10.6-1.8-28.8-14.8-42.1-32.4c-14-18.6-23.3-27.2-33.4-35.5c-10.2-8.3-16.6-9-18.8-7.4
			c-0.3,0.2-0.5,0.5-0.7,0.8c0.3-1.5,0.8-2.5,1.5-3c2.2-1.6,8.2-0.4,18.3,7.9c10.1,8.2,19.5,16.6,33.5,35.1
			C245.9,67.9,261.2,77.4,272.2,81.9z"/>
		<path class="st1" d="M81.2,222.9c23.4-58.2,59-85,94.2-106.9c4.3-2.7,12.1-9.1,13.7-12.2c-3.8,3.9-8.8,7.8-15.2,11.7
			c-46,28.7-92.6,65.4-112,170.1c-6.2,33.4-19.1,53.5-31.5,72.8C13.4,385-1.3,407.8,5.6,459.3c0.7,2.9,3.5,10.8,7.4,11.1
			c0.1,0,0.2,0,0.3,0c-3.9-2-6.1-8.3-6.7-10.7c-6.9-51.5,8.2-74.3,25.2-100.8c12.4-19.4,25.3-39.4,31.5-72.8
			c4.4-23.4,10.1-43.5,16.8-60.8C80.3,225.3,81,223.3,81.2,222.9z"/>
		<path class="st1" d="M64.5,419.3c-2.4,3.2-5.7,5-10.1,5.5c-18.4,2.2-24.5,20.8-25,22.5c-1.6,4.1-3.2,7.4-4.6,10.2
			c1.5-8.1,2.5-19.4,2.9-33c0.7-25.9,27.5-80.5,39.2-97.3c7.6-11,16.8-5.2,22.3,0.1c-14.3,21.2-24,43.8-21.9,56.1
			C70.1,401.1,69.3,412.9,64.5,419.3z"/>
		<path class="st1" d="M262.2,224.6c-38.4-0.7-71.5,16.5-98.5,34.8c1.6-5.3,2.1-11.9-6-10.6c-13.1,2.1-64.4,39.5-55.1,7
			s32-70.9,75.6-49.7s52.5,7,67.1,6C252,211.6,258.5,219.2,262.2,224.6z"/>
		<path class="st1" d="M482.2,182c-6.3,5.9-15.3,8.4-23.5,11.2c-32.6,10.1-66.7,14.9-100.7,17.5c6.2-5.5,11.9-11.8,16.1-19
			c10.4-7,35.7-21.6,61.4-17.7c24.3,3.6,43.5,10.5,49.7,1.5v0.1C485.1,178.1,484,180.2,482.2,182z"/>
		<path class="st1" d="M419.7,149c-1,5.8-25.2,3.7-38.7,1.3s-23.6-8.9-22.6-14.7s12.8-8.6,26.3-6.2
			C398.1,131.7,420.7,143.2,419.7,149z"/>
		<path class="st1" d="M446.9,162.1c0,0-2.2-0.1-3.7,1.3c-3,2.7-4.4,6.2-10.5,5.1c-5.8-1-6.4-5.2-8.6-8.4c-1.5-2.2-3.3-3.3-3.3-3.3
			s2.5-0.4,4.7-2.2c2.8-2.3,5.3-6.2,10.4-5.1c5.2,1.1,6.9,5.2,8,8.1C444.6,159.5,446.9,162.1,446.9,162.1z"/>
	</g>
	<g>
		<path class="st2" d="M329.7,105.7c3.9,1.3,8.2,3.8,8.5,8c0.3,3.7-3,7-6.6,8s-37.5,0.6-53.6,0.7c-5.1,0.1-39.9-1.8-41.2-9.2
			c-0.9-5.2,16.4-9.6,19.5-10.1C279.6,99.5,307.2,98,329.7,105.7z"/>
		<path class="st2" d="M332.9,194.9c-6.4,4.7-13.3,9.9-15.5,17.6c-0.1,0.3-0.2,0.6,0,0.9c0.2,0.5,0.8,0.6,1.4,0.7
			c4.1,0.3,8.1-0.9,11.9-2.4c11.6-4.7,27-14.9,32.1-27C371,164.8,337.4,191.6,332.9,194.9z"/>
		<path class="st2" d="M104.5,295.7c7.7-7.9,14.8-10.5,14-15.2c-0.5-3.1-11.4-0.2-16.8,4c-5.9,4.5-12.1,15.6-13.4,23.3
			C86.2,320.5,97.2,303.3,104.5,295.7z"/>
		<path class="st2" d="M226,108.8c5.8-2,16.8-6.4,15.7-10.2c-0.1-0.4-0.5-0.7-0.9-0.8c-3-1.1-6.2-1.2-9.4-0.9
			c-9.7,0.8-23.3,4.8-29.8,12.7C191,122.4,221.9,110.2,226,108.8z"/>
		<path class="st2" d="M73,272.2c-1.2,4.9-3.1,14.3,0,15.2c0.3,0.1,0.7,0,1-0.2c2.1-1.5,3.6-3.7,4.8-6c3.8-7,7.1-18.1,4.6-26
			C79.3,242.3,73.9,268.8,73,272.2z"/>
		<path class="st2" d="M167.2,139.3c5.6-4.3,11.5-8.3,17.5-12.1c6.3-3.9,13.2-7.6,20.7-7.6c2.1,0,4.5,0.5,5.6,2.3
			c1,1.6,0.5,3.7-0.2,5.5c-2.8,6.8-8.8,11.8-15.2,15.3s-13.6,5.5-20.4,8.2c-7.2,2.8-14.2,6.4-20.8,10.5c-8,5.1-3.9-4.8-1.7-7.9
			C156.5,147.8,161.9,143.4,167.2,139.3z"/>
	</g>
	<path class="st3" d="M442.9,158.6c-0.1-1.4-0.5-2.7-1.3-4c-1.2-1.9-3.1-3.2-5.4-3.7c-2.2-0.5-4.5-0.1-6.4,1.2
		c-1.2,0.8-2.2,1.9-2.9,3.2c-1.1,0.9-2.7,1.8-4.7,1.8c0,0,2.4,0.8,3.8,3c0.1,1.3,0.6,2.6,1.3,3.8c0.9,1.3,2,2.4,3.4,3.1
		c0.6,0.3,1.3,0.5,1.9,0.7c2.2,0.5,4.5,0.1,6.4-1.2c1.5-1,2.6-2.3,3.2-3.8c0.7-0.5,1.8-1,3.2-1L442.9,158.6z M437.8,164.5
		c-2.9,1.9-6.8,1-8.7-1.9c-0.9-1.4-1.2-3.1-0.9-4.7c0.4-1.6,1.3-3,2.7-4c1.4-0.9,3.1-1.2,4.7-0.9c0.5,0.1,1,0.3,1.4,0.5
		c1,0.5,1.9,1.3,2.5,2.3c0.2,0.4,0.4,0.7,0.6,1.1c0-0.1-0.1-0.1-0.1-0.2c-1.5-2.3-4.5-2.9-6.8-1.5c-0.2,0.1-0.4,0.3-0.5,0.4
		c0.8,0.1,1.6,0.6,2.1,1.4c0.9,1.4,0.5,3.3-0.9,4.2c-0.7,0.5-1.6,0.6-2.3,0.4c0.1,0.1,0.2,0.3,0.2,0.4c1.5,2.3,4.5,2.9,6.8,1.5
		c0.4-0.3,0.7-0.6,1-0.9C439.2,163.4,438.6,164,437.8,164.5z M11.3,402.2c1.8-6.4,3.8-12.9,7.7-18.3c-0.9,6.6-2.9,12.8-4.4,19.2
		c-1.5,6.3-2.7,12.7-3.6,19.2c-0.9,6.4-1.4,12.9-1.4,19.4c0,6.6,1,12.9,1,19.6c-1.6-3-2.6-6.2-3.2-9.5
		C4.7,435.2,6.8,418.2,11.3,402.2z M143,141.3c-6,7.6-13.1,14-19.3,21.5c-2.7,3.1-6.4,7.9-9,11.2c-9.3,12.4-17.7,25.7-24.8,39.5
		c-2.6,5-5.2,11.2-7.6,16.3c-1.1,2.1-2.3,4.3-3.8,6.3c0.4-3.7,1.4-7.2,2.5-10.7c9.4-23.7,23.3-45.7,40.3-64.7
		C128,153.7,134.4,146,143,141.3z M313.9,229.8c5.4-2.9,10.4-6.4,16.1-9.3c-0.9,1.3-1.9,2.6-3,3.7c-3.3,3.5-7.3,6.1-11.4,8.5
		c-10.9,6.5-23,10.8-35.3,13.6c-6.1,1.5-12.4,2.6-18.8,2.1c5.9-2.1,11.9-3.5,18-5.2c6-1.7,11.8-3.6,17.6-5.8
		C302.8,235.1,308.5,232.7,313.9,229.8z M217.5,35.6c6.2,7.2,12.6,14.4,16.8,23.1c-3.7-3.1-6.8-6.6-10-10.2
		c-2.7-3.1-6.7-7.4-9.4-10.5c-3.2-3.5-6.3-7-9.5-10.5c-3.2-3.4-6.4-6.9-9.1-10.9c4.4,2.2,7.9,5.4,11.3,8.8
		C211,28.6,214.3,32,217.5,35.6z M479.6,159.2c-6.9-10.4-9.5-15.6-21.1-23.8c-4.6-3.4-11.8-8.1-16.9-11.3
		c-46.4-28.8-98.5-40.4-153-42V82c-0.3,0-27.7-0.7-54.9-36.7c-14.3-18.9-23.9-27.4-34.2-35.8C189,0.8,181-2,176.4,1.4
		c-5,3.7-4.3,13.6,2,28.9c1.3,3.2,2.6,6.2,3.8,9.1c7.7,18.6,13.3,32.1,12.8,43.1s-7.4,19.9-23.1,29.7
		c-21.5,13.4-44.2,28.6-64.7,54.6c-23.8,30.1-39.9,68.7-49,118.1c-6.1,32.7-18.7,52.4-31,71.4C10.4,382.4-5.4,407,1.8,459.9v0.2
		c0.3,1.3,2.9,11.6,9.1,13.8c0.6,0.2,1.2,0.3,1.8,0.4c6.4,0.5,13-7.9,20.2-25.7v-0.1v-0.1c0.1-0.2,5.5-17.8,21.8-19.8
		c5.5-0.7,9.8-3,12.8-7.1c5.5-7.4,6.6-19.7,3.3-38.9c-1.5-9.2,4.8-26.7,16.5-45.8C99.4,317,115,299.2,129,289.1
		c3.5-2.5,7.2-5.3,11.2-8.2c29.4-22,69.3-51.7,117.8-52.5c-2.1,1.4-4.1,2.8-6.2,4.1c-1,0.6-3.7,2.4-4.7,3
		c-12.2,7.1-8.3,16.7,4.1,19.3c12.7,2.6,25.7,0,37.9-3.7c16.9-5.3,32.5-14,46.9-24.2c5.5-3.8,11.5-7.8,16.8-12
		c24.1-1.2,47.9-4.1,71.6-8.6c18-3.7,36.2-7.7,52.9-15.6c6.1-3,12.3-8.1,12.5-15.5C487.9,166.5,484.6,166.7,479.6,159.2z
		 M458.8,193.2c-32.6,10.1-66.7,14.9-100.7,17.5c10.2-9.1,19.1-20.4,22.3-33.8c-5.7,8.4-11.4,16.2-18.1,23.3
		c-8.4,8.9-18.2,16.5-28.4,23.5c-18,12.8-38.2,23.4-60.1,27.2c-8.7,1.3-20.1,2.3-27.8-2.4c-5.9-4,1.1-8.5,4.8-10.7
		c2-1.2,7.5-4.7,9.5-6.1c12.6-8.2,25.2-16.3,36.1-26.7c-11.7,5.3-22.2,12.4-32.7,19.5C211.5,223,169,254.7,138,277.8
		c-3.9,2.9-7.6,5.7-11.1,8.2c-30.5,22-63.4,75.6-59.8,97.3c3,17.8,2.2,29.5-2.6,35.9c-1.2,1.6-2.6,2.9-4.4,3.8
		c0.1-0.3,0.2-0.6,0.3-0.8c0.5-1.4,0.8-2.8,1.1-4.2c0.3-1.4,0.5-2.8,0.7-4.2c0.2-1.4,0.3-2.8,0.3-4.2c0.1-2.8,0.2-5.7,0-8.5
		s-0.5-5.6-1.1-8.4c-0.2,2.8-0.3,5.6-0.5,8.4c-0.1,2.8-0.2,5.6-0.5,8.3c-0.2,2.8-0.6,5.5-1.1,8.2c-0.5,2.2-1,4.5-1.9,6.5
		c-1,0.3-2,0.5-3.2,0.7c-0.4,0.1-0.9,0.1-1.3,0.2c0.2-0.5,0.3-0.9,0.5-1.4c0.3-0.9,0.5-1.9,0.8-2.8c0.2-0.9,0.5-1.9,0.7-2.8
		c0.4-1.9,0.7-3.8,1-5.7c0.3-1.9,0.5-3.8,0.6-5.7c-0.6,1.8-1.1,3.7-1.7,5.5l-1.6,5.5c-0.6,1.8-1.1,3.6-1.7,5.4
		c-0.3,0.9-0.6,1.7-0.9,2.5c-15.5,4.1-20.9,20.2-21.3,21.7c-0.6,1.5-1.2,2.8-1.7,4.1c0.1-1.2,0.1-2.4,0.1-3.6c0-1-0.1-2.1-0.2-3.1
		l-0.1-1.5l-0.1-1.5c-0.4-8,0.5-16.1,1.9-24c1.5-7.9,3.6-15.8,6.1-23.5c0.6-1.9,1.2-3.9,1.9-5.8s1.3-3.8,2-5.7
		c0.7-1.9,1.4-3.8,2.1-5.7c0.7-1.9,1.5-3.8,2.3-5.7c-3.8,7.2-7,14.7-9.7,22.4c-2.7,7.7-5,15.6-6.6,23.6s-2.6,16.2-2.2,24.5l0.1,1.5
		l0.1,1.5c0.1,1,0.2,2,0.2,3c0,2-0.1,3.9-0.4,5.9c-0.3,1.8-0.7,3.6-1.3,5.4c-5.6,10.3-9.3,11.4-10.8,11.3c-3.9-0.3-6.7-8.2-7.4-11.1
		c-6.9-51.5,7.8-74.4,24.8-100.8C42.8,339,55.7,319,61.9,285.6c19.4-104.6,66-141.4,112-170.1c16.9-10.5,24.3-20.3,24.9-32.8
		c0.5-11.9-5.2-25.7-13.1-44.8c-1.2-2.9-2.5-6-3.8-9.1c-6.2-15.1-5.7-22.5-3.2-24.3c2.2-1.6,8.2-0.4,18.3,7.9
		c10,8.2,19.5,16.6,33.5,35.1c15.3,20.3,30.6,29.8,41.6,34.3c-8.3,0.1-16.6,0.7-24.6,2.4c5.7,0.8,11.3,0.8,16.9,1.1
		c7-0.1,24.1,0.4,24.1,0.4c53.4,2.3,105.5,15.3,152,43.4c4.8,2.9,12.1,7.8,16.6,11.1c8.8,6.2,13.4,13.6,19.8,22.3
		c2.7,3.7,6.3,7.1,7.8,11.4c-3.7,3.9-11.7,3.3-16.6,3c-6.4-0.5-15.5-1.5-21.9-1c7,2.6,14.2,3.7,21.6,4.5c4.8,0.6,12.1,0.7,16.8-2.2
		c-0.5,1.4-1.4,2.7-2.5,3.9C475.9,187.9,467,190.4,458.8,193.2z"/>
</g>
</svg>
