<?xml version="1.0" encoding="utf-8"?>
<!-- Generator: Adobe Illustrator 28.3.0, SVG Export Plug-In . SVG Version: 6.00 Build 0)  -->
<svg version="1.1" id="lion_00000014621727846618722850000017994784657040473513_"
	 xmlns="http://www.w3.org/2000/svg" xmlns:xlink="http://www.w3.org/1999/xlink" x="0px" y="0px" viewBox="0 0 308.26 490"
	 enable-background="new 0 0 308.26 490" xml:space="preserve">
<g id="lion">
	<g>
		<path fill="#D69A72" d="M206.669,451.876c-1.024-2.486-2.433-4.709-4.078-6.431c-2.492-2.584-5.174-3.646-7.164-2.847
			c-0.857,0.337-1.535,0.969-2.075,1.936l-0.521,0.944l-0.851-0.67c-0.565-0.444-1.122-0.806-1.635-1.066
			c-1.853-0.998-3.585-1.23-5.011-0.671c-0.767,0.305-1.441,0.841-2.004,1.595l-0.664,0.892l-0.755-0.818
			c-1.628-1.775-3.351-2.601-4.985-2.397l-0.057,0.009c-1.633,0.312-5.638,4.529-5.646,9.056l-0.001,0.563l0.501,0.258
			c1.414,0.728,2.762,1.857,4.007,3.356l0.069,0.074c0.252,0.31,0.446,0.559,0.625,0.802c1.712,2.344,3.049,5.237,3.868,8.37
			c0.585,2.193,0.882,4.428,0.882,6.649c0,0.387-0.015,0.791-0.049,1.308c-0.004,0.046-0.006,0.097-0.006,0.156l-0.231,1.649
			l1.54-0.727c1.837-0.866,3.319-3.146,4.174-6.42l0.416-1.606l1.14,1.199c2.91,3.067,6.066,4.333,8.438,3.39
			c1.499-0.593,2.608-2.022,3.206-4.133l0.306-1.079l1.003,0.513c1.026,0.526,2.561,1.034,4.034,0.457
			c1.315-0.515,2.273-1.796,2.772-3.703l0.001-0.005c0.384-1.502,0.455-3.32,0.205-5.263
			C207.88,455.415,207.391,453.618,206.669,451.876z"/>
		<path fill="#D69A72" d="M178.513,465.294c-0.765-2.916-2.003-5.596-3.58-7.75c-1.672-2.278-3.456-3.377-4.37-3.83l-0.035-0.016
			c-1.153-0.512-2.242-0.644-3.232-0.391c-1.023,0.253-1.915,0.892-2.647,1.893l-0.64,0.864l-0.756-0.771
			c-0.547-0.555-1.123-1.044-1.707-1.453c-0.467-0.331-0.843-0.566-1.167-0.731c-1.539-0.821-3.003-1.066-4.351-0.73
			c-0.606,0.15-1.18,0.429-1.755,0.853l-0.25,0.185l-1.064,3.643l-1.43-4.024l-0.108-0.128c-1.426-1.687-2.969-2.543-4.585-2.543
			c-1.81,0-3.578,1.114-5.112,3.222l-1.042,1.463h0.484l-0.965,2.591l-1.022-3.255l-0.35-0.175c-0.374-0.187-0.717-0.318-1.047-0.4
			c-4.858-1.234-10.709,4.986-13.041,13.864c-1.541,5.87-1.181,11.741,0.939,15.325c0.963,1.619,2.191,2.628,3.651,2.999
			c2.792,0.709,6.122-1.129,8.908-4.913l0.086-0.116l1.482-4.42l0.799,5.037l0.077,0.14c1.712,3.125,3.897,4.846,6.155,4.846
			c2.522,0,4.972-2.185,6.721-5.994l0.633-1.378l-0.427,0.021l0.811-3.295l1.536,4.4l0.103,0.126
			c2.639,3.224,5.733,4.764,8.277,4.117c1.531-0.392,2.798-1.473,3.765-3.214l0.102-0.183l0.278-4.652l2.112,3.883l0.251,0.13
			c1.267,0.655,2.479,0.844,3.6,0.561c1.574-0.395,2.859-1.701,3.715-3.781c0.274-0.677,0.496-1.434,0.66-2.252l0.032-0.142
			c0.04-0.213,0.078-0.433,0.106-0.629c0.013-0.054,0.025-0.11,0.033-0.168c0.077-0.537,0.132-1.117,0.163-1.728
			c0.004-0.087,0.006-0.174,0.009-0.261c0.001-0.069,0.003-0.137,0.006-0.206l0.001-0.043c0-0.065,0.002-0.127,0.004-0.188
			c0.002-0.078,0.004-0.156,0.004-0.238c0-1.009-0.077-2.094-0.23-3.229C178.96,467.215,178.761,466.227,178.513,465.294z"/>
		<path fill="#D69A72" d="M107.231,453.808c-0.328,0.082-0.66,0.209-1.043,0.401l-0.35,0.175l-1.022,3.254l-0.965-2.591h0.506
			l-1.065-1.463c-1.534-2.107-3.302-3.222-5.112-3.222c-1.622,0-3.162,0.857-4.58,2.546l-0.106,0.127l-1.436,4.028l-1.065-3.647
			l-0.25-0.185c-0.575-0.424-1.149-0.703-1.754-0.853c-1.352-0.335-2.806-0.095-4.308,0.707c-0.351,0.179-0.711,0.4-1.213,0.748
			c-0.595,0.424-1.169,0.915-1.707,1.46l-0.755,0.769l-0.637-0.86c-0.736-1.005-1.627-1.643-2.637-1.893
			c-0.983-0.259-2.114-0.123-3.302,0.411c-0.726,0.359-2.603,1.452-4.356,3.832c-1.572,2.15-2.807,4.827-3.572,7.743
			c-0.357,1.368-0.601,2.782-0.728,4.235c-0.003,0.055-0.009,0.111-0.015,0.165c-0.009,0.083-0.017,0.165-0.02,0.217
			c-0.018,0.213-0.024,0.426-0.028,0.639l-0.013,0.4c-0.007,0.172-0.014,0.346-0.014,0.519c0.008,1.275,0.118,2.438,0.325,3.442
			c0.159,0.847,0.391,1.655,0.695,2.414c0.857,2.069,2.141,3.372,3.712,3.766c1.122,0.283,2.334,0.094,3.601-0.561l0.251-0.13
			l2.112-3.883l0.278,4.652l0.102,0.183c0.968,1.741,2.235,2.822,3.766,3.214c2.591,0.661,5.608-0.838,8.277-4.111l0.103-0.126
			l1.538-4.41l0.816,3.301l-0.432-0.02l0.631,1.374c1.749,3.81,4.199,5.994,6.722,5.994c2.257,0,4.443-1.721,6.155-4.846l0.077-0.14
			l0.799-5.037l1.482,4.42l0.086,0.116c2.786,3.786,6.116,5.622,8.908,4.913c1.459-0.371,2.688-1.381,3.65-2.999l0.001-0.003
			c2.117-3.586,2.476-9.457,0.937-15.323C117.945,458.801,112.091,452.583,107.231,453.808z"/>
		<path fill="#D69A72" d="M68.594,456.46c0.197-0.269,0.409-0.537,0.646-0.82l0.047-0.059c0.007-0.009,0.015-0.019,0.022-0.028
			c1.243-1.485,2.584-2.603,3.987-3.325l0.5-0.258l-0.001-0.563c-0.008-4.533-4.025-8.748-5.663-9.056l-0.057-0.009
			c-2.054-0.258-3.835,1.162-4.967,2.395l-0.757,0.82l-0.665-0.893c-0.567-0.758-1.244-1.293-2-1.585
			c-1.419-0.571-3.139-0.349-4.951,0.63c-0.569,0.288-1.125,0.648-1.7,1.099l-0.85,0.67l-0.523-0.947
			c-0.538-0.964-1.216-1.596-2.068-1.931c-1.999-0.8-4.682,0.266-7.18,2.855c-1.637,1.714-3.043,3.934-4.067,6.42
			c-0.725,1.755-1.214,3.555-1.454,5.352c-0.249,1.933-0.179,3.749,0.207,5.258c0.502,1.907,1.46,3.187,2.772,3.702
			c1.472,0.576,3.005,0.069,4.032-0.457l1.004-0.514l0.306,1.079c0.598,2.111,1.707,3.541,3.204,4.133
			c2.374,0.943,5.53-0.322,8.439-3.388l1.141-1.199l0.417,1.608c0.854,3.264,2.335,5.543,4.17,6.417l1.518,0.723l-0.205-1.642l0,0
			c0-0.055-0.002-0.11-0.007-0.166c-0.034-0.515-0.049-0.914-0.049-1.307c0-2.186,0.297-4.423,0.883-6.653
			C65.55,461.678,66.887,458.788,68.594,456.46z"/>
		<path fill="#D69A72" d="M131.571,453.237l2.011-0.804c1.617-0.647,3.185-0.783,4.664-0.404c0.378,0.094,0.761,0.229,1.138,0.401
			l0.663,0.302l0.446-0.576c1.843-2.378,4.037-3.635,6.343-3.635c2.034,0,3.923,0.929,5.614,2.76l0.518,0.562l0.648-0.406
			c0.619-0.388,1.278-0.672,1.96-0.844c1.783-0.45,3.738-0.144,5.665,0.89c0.421,0.217,0.879,0.502,1.362,0.845
			c0.214,0.152,0.421,0.304,0.628,0.469l0.587,0.47l0.578-0.482c0.742-0.619,1.563-1.044,2.449-1.267
			c0.263-0.069,0.547-0.115,0.869-0.143l0.942-0.081l-0.105-0.939c-3.063-27.309,13.518-90.236,18.673-108.872l0.667-2.413
			l-2.071,1.406c-3.989,2.707-8.353,5.087-12.972,7.075l-0.318,0.137l-0.149,0.313c-0.57,1.196-1.18,2.417-1.806,3.619
			c-4.202,7.781-9.745,14.362-16.039,19.039l-1.542,1.173v-1.855l-0.015-0.165c-0.107-0.586-0.179-1.203-0.215-1.832l-0.127-2.228
			l-1.481,1.669c-2.587,2.917-6.856,7.274-12.506,11.465l-0.45,0.333l0.089,0.553c1.099,6.808,5.979,42.25-5.902,71.458
			L131.571,453.237z"/>
		<path fill="#D69A72" d="M106.817,379.221l-0.45-0.333c-5.648-4.189-9.918-8.547-12.506-11.465l-1.481-1.67l-0.127,2.229
			c-0.036,0.627-0.108,1.243-0.215,1.832l-0.015,2.019l-1.55-1.18c-6.273-4.66-11.816-11.242-16.025-19.021
			c-0.631-1.209-1.24-2.43-1.812-3.63l-0.149-0.313l-0.318-0.137c-4.632-1.997-8.996-4.377-12.973-7.075l-2.072-1.406l0.667,2.413
			c5.155,18.636,21.736,81.563,18.673,108.872l-0.105,0.94l0.942,0.08c0.322,0.027,0.606,0.074,0.876,0.144
			c0.881,0.224,1.704,0.65,2.443,1.266l0.578,0.481l0.587-0.47c0.195-0.156,0.405-0.313,0.629-0.47
			c0.489-0.348,0.943-0.629,1.404-0.867c1.894-1.017,3.838-1.317,5.622-0.869c0.682,0.172,1.342,0.456,1.96,0.844l0.648,0.406
			l0.518-0.562c1.69-1.832,3.579-2.76,5.613-2.76c2.307,0,4.5,1.257,6.343,3.635l0.446,0.576l0.663-0.302
			c0.389-0.177,0.758-0.309,1.131-0.402c1.495-0.375,3.068-0.237,4.676,0.411l2.016,0.812l-0.819-2.013
			c-11.889-29.207-7.009-64.656-5.91-71.465L106.817,379.221z"/>
		<path fill="#D69A72" d="M225.053,79.321l1.215,0.023l-0.307-1.176c-6.347-24.336-16.28-35.888-23.494-41.293
			c-4.167-3.131-7.964-4.618-10.413-5.312c-2.726-0.779-4.454-0.801-4.652-0.801l-3.939,0.041l16.551-8.391l-1.595-0.826
			c-27.73-14.368-46.559-4.55-46.743-4.451l-3.359,1.794L159.778,2.38l-1.605-0.119c-20.798-1.543-34.461,9.059-35.032,9.511
			l-0.632,0.496l-0.89-0.693h-0.006c-2.021-1.512-15.257-10.757-34.768-9.315l-1.606,0.118l11.496,16.588l-3.39-1.831
			c-0.187-0.101-19.032-9.919-46.746,4.449l-1.595,0.827l16.639,8.431l-4.149-0.083l-0.03,0.008
			c-1.322,0.059-7.612,0.63-14.913,6.108c-7.215,5.406-17.148,16.958-23.495,41.294l-0.307,1.176l1.215-0.023
			c2.53-0.048,7.341-0.331,11.133-1.681l2.861-1.02l-1.821,2.446c-0.315,0.441-7.627,11.048,0.033,31.825l0.794,2.155l0.914-2.107
			c1.069-2.465,2.317-4.673,3.731-6.606c-4.381,11.734-7.502,24.763-4.82,40.266c0.674,3.973,1.704,8.049,3.062,12.114l0.187,0.561
			l-0.008,0.003l0.29,0.826c1.115,3.182,2.466,6.457,4.014,9.737l1.422,3.013l0.327-3.315c0.325-3.298,1.022-6.416,2.072-9.309
			c-0.377,4.085-0.512,7.867-0.403,11.471l0.058,1.931l1.463-1.261c11.158-9.62,27.322-15.424,45.515-16.342l1.311-0.066
			l-0.509-1.21c-0.476-1.133-0.969-2.302-1.471-3.451l0.02,0.002l-0.658-1.444c-1.515-3.322-3.486-7.144-6.644-10.335
			c-0.389-0.366-0.783-0.731-1.177-1.096c-2.031-1.882-4.131-3.827-5.75-6.098c-1.961-2.628-3.606-5.64-4.887-8.95
			c-1.249-3.246-1.12-6.704-0.984-10.365c0.045-1.198,0.091-2.428,0.084-3.655c0.537,0.539,1.21,1.28,1.799,1.929
			c2.395,2.639,5.375,5.924,7.865,6.461l1.826,0.394l-0.799-1.688c-5.057-10.681-9.248-25.632-5.841-35.572
			c1.389-4.221,3.202-7.835,5.543-11.05l0.026-0.037c0.134-0.204,0.329-0.462,0.562-0.754l-0.076,0.201
			c-0.081,0.238-0.19,0.47-0.306,0.715c-0.148,0.314-0.301,0.638-0.425,1.035c-0.516,1.756-0.431,4.875-0.363,7.381
			c0.02,0.732,0.039,1.423,0.037,1.949l-0.013,4.012l1.761-3.605c0.289-0.591,0.639-1.366,1.011-2.187
			c1.022-2.259,2.422-5.353,3.501-6.703c6.366-7.886,16.244-13.639,29.357-17.098c2.54-0.651,4.615-1.08,6.717-1.385h0.401
			c11.109,1.882,26.359,6.618,36.081,18.48c0.939,1.174,2.184,4.327,3.185,6.86c0.559,1.414,1.041,2.636,1.431,3.433l1.761,3.605
			l-0.013-4.012c-0.002-0.598,0.037-1.494,0.081-2.532c0.114-2.631,0.252-5.845-0.099-7.705c0.102,0.165,0.204,0.332,0.306,0.503
			l0.02,0.032c4.705,7.194,6.797,14.672,6.396,22.867c-0.246,5.726-3.439,15.148-6.318,21.105l-1.463,3.026l2.8-1.858
			c3.376-2.24,6.526-6.68,8.363-10.302c0.012,0.506,0.002,1.077-0.042,1.714c-0.045,1.39-0.023,2.78-0.002,4.124
			c0.06,3.74,0.116,7.273-1.195,10.68c-1.283,3.312-2.927,6.324-4.9,8.968c-1.607,2.255-3.707,4.201-5.739,6.083
			c-0.394,0.365-0.787,0.729-1.176,1.095l-0.027,0.027c-2.008,2.051-3.82,4.657-5.375,7.729c-0.413,0.77-0.825,1.616-1.259,2.584
			l-0.326,0.727h-0.004l-0.098,0.226l-0.217,0.484l0.01-0.001c-0.39,0.908-0.774,1.832-1.144,2.729l-0.801,1.933l0.72,0.036
			c-0.865,2.066-1.792,4.322-2.947,6.423c1.305-3.066,3.682-10.639,1.868-16.215c-1.056-3.248-3.314-5.328-6.711-6.186
			c-1.925-1.133-3.142-3.046-4.547-5.256c-2.865-4.505-6.79-10.674-18.496-9.608c-0.218,0.019-0.436,0.052-0.648,0.097
			c-0.211-0.045-0.425-0.077-0.639-0.096c-11.72-1.068-15.645,5.102-18.51,9.607c-1.431,2.25-2.667,4.193-4.655,5.318
			c-3.296,1.866-5.616,4.32-6.906,7.301l-0.413-0.037l-0.586,3.517l0.08,0.224c0.477,1.344,4.641,12.95,7.127,15.845l0.005,0.019
			c-2.933-2.765-5.862-11.653-5.906-11.764c-16.542,2.291-34.129,7.163-47.629,17.157c0.088,1.757,0.826,4.277,1.05,6.011
			c0.935,7.27,3.138,14.322,7.233,21.046c5.819,9.685,14.244,17.331,23.628,23.576c-1.193-4.581,6.019,10.363,13.988,19.356
			c1.628,1.834,6.83,5.635,8.568,7.381c-0.059-4.736,2.965-11.918,2.825-9.944l0.155-0.029c0.029,0.162,3.388,16.675,20.917,27.959
			c17.529-11.284,24.901-16.977,26.529-18.811c7.969-8.993,21.117-30.492,19.924-25.911c9.383-6.246,17.809-13.891,23.628-23.576
			c3.882-6.375,6.651-13.309,7.94-20.306c0.398-2.147,0.655-4.301,0.762-6.448c-0.018-0.013-0.037-0.026-0.055-0.04l0.029-0.906
			c0.114-3.574-0.021-7.356-0.402-11.471c1.05,2.893,1.746,6.011,2.071,9.307l0.327,3.315l1.422-3.013
			c1.549-3.283,2.899-6.559,4.014-9.737l0.29-0.826l-0.009-0.004l0.187-0.561c1.357-4.064,2.387-8.139,3.061-12.111
			c2.681-15.508-0.439-28.536-4.819-40.269c1.413,1.933,2.661,4.141,3.73,6.606l0.914,2.107l0.794-2.155
			c7.727-20.959,0.097-31.735,0.022-31.838l-1.748-2.408l2.8,0.995C217.515,78.922,221.958,79.262,225.053,79.321z M190.996,35.466
			c8.587,2.511,17.716,11.006,22.048,20.134c-3.118-3.766-6.155-7.333-9.752-10.627c-3.583-3.547-7.438-6.184-11.52-8.975
			C191.516,35.822,191.256,35.645,190.996,35.466z M53.258,36.003c-4.081,2.79-7.936,5.426-11.512,8.971
			c-3.599,3.302-6.638,6.87-9.759,10.637c4.327-9.134,13.46-17.634,22.055-20.144C53.779,35.646,53.518,35.825,53.258,36.003z
			 M136.296,152.399c0-0.122,0.102-0.221,0.228-0.221c0.126,0,0.228,0.099,0.228,0.221c0,0.126-0.102,0.228-0.228,0.228
			C136.399,152.627,136.296,152.525,136.296,152.399z M111.761,136.853c1.156-0.487,4.547-1.187,10.472-0.741l0.276,0.02l0.277-0.02
			c5.951-0.449,9.347,0.261,10.472,0.731c-0.287,0.355-1.031,0.718-3.067,1.409c-2.475,0.84-6.019,2.042-7.681,5.493
			c-1.663-3.452-5.207-4.654-7.682-5.494C112.791,137.561,112.047,137.198,111.761,136.853z M114.083,155.22
			c0.126,0,0.228,0.099,0.228,0.221c0,0.126-0.102,0.228-0.228,0.228s-0.228-0.102-0.228-0.228
			C113.854,155.319,113.957,155.22,114.083,155.22z M131.163,155.441c0,0.126-0.102,0.228-0.228,0.228s-0.228-0.102-0.228-0.228
			c0-0.122,0.102-0.221,0.228-0.221S131.163,155.319,131.163,155.441z M108.271,152.399c0-0.122,0.099-0.221,0.221-0.221
			c0.126,0,0.228,0.099,0.228,0.221c0,0.126-0.102,0.228-0.228,0.228C108.371,152.627,108.271,152.525,108.271,152.399z
			 M147.312,165.039l0.022-0.095c0.406-0.418,0.794-0.853,1.19-1.336l0.103-0.134c0.255-0.348,0.595-0.76,0.971-1.205
			c-0.324,0.488-0.663,0.963-1.024,1.413C148.206,164.163,147.778,164.619,147.312,165.039z"/>
	</g>
	<g>
		<path fill="#AD704E" d="M127.669,458.678l0.066-0.105c15.197-28.435,10.608-68.688,9.534-76.469l-0.199-1.44l-1.217,0.795
			c-2.733,1.785-6.177,3.141-9.374,3.771c4.247-2.048,8.062-4.469,11.406-6.955l-1.245,1.124l3.248,6.561l10.052-9.015l0.557,3.15
			l1.173-0.784c0.765-0.511,18.646-12.589,23.792-26.834l12.403-6.775l1.81-3.819c-4.954,17.925-19.643,73.676-19.245,103.04
			l0.038,2.838l1.635-2.32c0.053-0.075,0.104-0.15,0.155-0.225c0.076-0.112,0.151-0.224,0.239-0.338
			c1.123-1.482,3.002-3.29,4.596-3.502c1.798-0.229,3.571,0.357,5.269,1.738l0.575,0.467l0.579-0.462
			c0.474-0.378,0.993-0.678,1.548-0.895c1.945-0.772,4.197-0.518,6.514,0.734l0.04,0.02c0.147,0.071,0.295,0.155,0.449,0.245
			l0.628,0.367l0.502-0.525c0.572-0.598,1.211-1.029,1.959-1.321c1.847-0.737,4.092-0.393,6.323,0.97l0.646,0.394l0.512-0.557
			c6.761-7.355,29.499-34.279,38.231-71.925c4.177-17.983,2.423-31.112-5.214-39.022c-9.772-10.112-26.571-8.702-31.486-8.028
			l-0.42,0.058l-0.229,0.357c-3.042,4.732-6.914,9.094-11.518,12.981l0.133-0.28l-16.73,8.447l1.029-0.591
			c4.616-2.65,8.827-5.534,12.509-8.568c14.4-11.655,21.54-27.122,21.725-47.152c0.51,2.133,0.825,4.351,0.942,6.636l0.117,2.132
			l0.621-0.653l4.26,7.511l0.831-1.229c13.43-19.858,1.565-53.317,1.444-53.65l-1.991-5.552l13.383,17.438l0.481-1.808
			c6.686-25.133-0.238-44.308-0.306-44.484l-1.928-5.19l7.908,9.665l0.108-2.404c1.782-39.656-14.278-67.509-19.243-75.101
			l-1.371-2.097l-0.313,2.486c-0.648,5.147-11.614,31.492-12.29,32.947l-0.101,0.154l-0.017,0.24
			c-0.519,7.316-2.36,14.605-5.181,20.52c-7.475,15.455-21.022,24.995-31.071,30.277l-0.284,0.149l-0.129,0.294
			c-1.514,3.434-3.627,7.017-6.278,10.646c-3.745,5.1-8.609,9.896-15.207,14.978l0.361-2.299l-0.005-0.096
			c-0.044-0.82-0.08-1.632-0.11-2.451l-0.133-3.737l-1.617,3.372c-2.976,6.205-8.879,15.055-20.101,21.972l-0.229,0.139h-0.605
			l-0.223-0.135c-11.227-6.92-17.131-15.77-20.106-21.976l-1.617-3.371l-0.134,3.737c-0.029,0.819-0.058,1.639-0.102,2.451
			l-0.005,0.096l0.357,2.301c-6.6-5.089-11.465-9.885-15.21-14.977c-2.653-3.632-4.766-7.215-6.279-10.648l-0.13-0.294l-0.284-0.149
			c-10.049-5.282-23.597-14.823-31.069-30.272c-3.051-6.405-4.918-13.379-5.4-20.167l-0.017-0.24l-0.132-0.201
			c-0.119-0.181-0.231-0.361-0.344-0.542l-0.467-0.747c-2.813-4.554-5.172-9.381-7.013-14.346l-0.401-1.092
			c-1.823-5.144-3.081-10.407-3.74-15.643l-0.313-2.486l-1.371,2.097c-6.374,9.747-21.016,36.491-19.314,74.213l0.109,2.406
			l7.921-9.691l-1.944,5.204c-0.072,0.186-6.991,19.349-0.311,44.494l0.48,1.809l13.384-17.438l-1.99,5.549
			c-0.121,0.336-11.986,33.794,1.444,53.653l0.831,1.229l4.267-7.525l0.623,0.638l0.107-2.103c0.117-2.286,0.432-4.504,0.942-6.638
			c0.186,20.026,7.326,35.494,21.719,47.148c3.241,2.67,6.887,5.221,10.855,7.598l-13.631-6.882l0.399,0.842
			c-4.902-4.027-9.005-8.58-12.195-13.542l-0.229-0.357l-0.42-0.058c-4.917-0.674-21.714-2.084-31.486,8.028
			c-7.636,7.91-9.39,21.039-5.214,39.022c8.732,37.648,31.47,64.57,38.232,71.925l0.512,0.557l0.646-0.394
			c2.23-1.363,4.478-1.706,6.328-0.97c0.753,0.303,1.409,0.746,1.95,1.318l0.508,0.537l0.634-0.38
			c0.183-0.11,0.339-0.195,0.478-0.262l0.038-0.02c2.297-1.239,4.537-1.487,6.483-0.711c0.551,0.215,1.07,0.515,1.543,0.893
			l0.58,0.462l0.575-0.468c1.698-1.38,3.467-1.966,5.257-1.739c1.605,0.213,3.486,2.02,4.613,3.508
			c0.083,0.108,0.158,0.219,0.233,0.331c0.051,0.076,0.103,0.152,0.157,0.228l1.634,2.316l0.038-2.834
			c0.415-30.627-15.583-89.961-19.828-105.137l2.804,5.916l12.404,6.775c5.145,14.245,23.027,26.323,23.792,26.834l1.173,0.784
			l0.557-3.15l10.052,9.015l2.364-4.777l-0.127,0.921c-1.075,7.788-5.671,48.075,9.505,76.461l0.066,0.105
			c1.606,2.22,2.946,4.959,3.874,7.919l0.877,2.796l0.879-2.795C124.725,463.632,126.065,460.897,127.669,458.678z M91.51,363.062
			l-1.28,6.904l-6.067-8.421c1.355,1.68,2.77,3.316,4.253,4.893l1.639,1.743l-0.048-2.392c-0.019-0.975-0.013-1.979-0.006-2.949
			c0.003-0.499,0.007-0.998,0.006-1.483c0.022-1.623,0.019-3.285,0.015-4.892c-0.001-0.28-0.001-0.562-0.002-0.845
			c0.104,0.263,0.206,0.531,0.306,0.804c0.636,1.936,1.295,4.002,1.75,6.095l0.042,0.195l0.12,0.16
			c0.437,0.585,1.292,1.69,2.534,3.133L91.51,363.062z M58.652,330.747c-7.506-4.868-14.222-14.261-16.016-22.521
			c0.131,0.217,0.261,0.43,0.387,0.63l0.162,0.279c2.183,3.771,4.44,7.671,7.05,11.256
			C52.801,324.121,55.644,327.392,58.652,330.747z M187.205,330.743c3.006-3.353,5.845-6.622,8.392-10.33
			c2.568-3.519,4.775-7.321,6.91-10.998l0.307-0.53c0.136-0.218,0.27-0.437,0.403-0.656
			C201.421,316.482,194.709,325.872,187.205,330.743z M218.701,289.404c0.728-10.353-0.748-20.732-2.183-30.827l-0.338-2.382
			c-0.046-0.311-0.089-0.614-0.128-0.911C220.014,265.068,221.497,279.458,218.701,289.404z M29.803,255.271
			c-0.04,0.301-0.083,0.608-0.13,0.924l-0.338,2.387c-1.434,10.091-2.909,20.467-2.187,30.816
			C24.359,279.448,25.845,265.057,29.803,255.271z M173.239,346.231l-0.201,0.101l-17.026,23.634l-1.28-6.904l-5.351,4.832
			c2.168-2.361,3.6-4.2,4.212-5.019l0.119-0.16l0.043-0.195c0.455-2.093,1.114-4.159,1.74-6.066c0.104-0.283,0.209-0.56,0.316-0.831
			c0,0.282-0.001,0.563-0.002,0.843c-0.004,1.607-0.008,3.268,0.015,4.879c0,0.498,0.003,0.997,0.006,1.496
			c0.006,0.971,0.013,1.975-0.006,2.949l-0.048,2.392l1.639-1.743c4.365-4.641,8.19-9.752,11.368-15.186
			c2.568-4.325,4.586-8.866,6.537-13.259c0.742-1.67,1.499-3.374,2.292-5.081c-0.26,3.283-1.087,6.755-2.499,10.511l-0.863,2.296
			L173.239,346.231z M70.718,343.424c-1.412-3.756-2.24-7.228-2.499-10.511c0.793,1.706,1.55,3.409,2.292,5.079
			c1.952,4.393,3.97,8.935,6.535,13.255c0.57,0.975,1.169,1.936,1.78,2.889l-5.491-7.621l-0.131-0.183l-1.718-0.868L70.718,343.424z
			 M109.574,379.455c3.006,2.114,6.359,4.142,10.028,5.892c-3.253-0.535-6.519-1.851-9.59-3.885l-1.078-0.714L109.574,379.455z"/>
		<path fill="#AD704E" d="M305.141,207.713l0.014-1.313l-1.239,0.434c-10.922,3.829-20.972,10.841-28.299,19.743
			c-7.971,9.691-12.471,21.674-13.376,35.614c-0.757,11.659,0.984,24.477,5.169,38.089c1.892,6.405,4.591,13.159,7.202,19.691
			c0.958,2.397,1.863,4.661,2.728,6.905c0.224,0.667,0.461,1.364,0.705,2.08c1.023,3.003,2.182,6.407,2.903,9.284l1.231,4.623
			c0.412,1.738,0.772,3.599,1.121,5.398c0.183,0.946,0.365,1.885,0.553,2.8c0.167,1.238,0.554,4.234,0.738,5.648l0.04,0.307
			c0.205,1.442,0.287,3.127,0.366,4.758c0.041,0.848,0.08,1.649,0.135,2.407c0.085,1.286,0.031,3.181-0.017,4.852
			c-0.025,0.858-0.048,1.669-0.051,2.334c-1.44,31.548-24.121,56.946-59.188,66.286c-6.965,1.799-13.209,2.597-19.099,2.431
			l-0.464-0.013l-0.286,0.365c-0.019,0.024-1.899,2.42-2.458,3.036l-0.551,0.607l0.539,0.617c0.184,0.212,0.397,0.288,0.784,0.427
			c0.04,0.014,0.08,0.028,0.116,0.041c1.308,1.397,2.472,3.078,3.429,4.938l-0.513,5.967c-0.348,4.058-1.306,6.538-2.697,6.982
			c-1.633,0.523-4.003-1.717-4.704-2.541l-1.329-1.57l-0.285,2.037c-0.535,3.825-1.593,6.095-2.978,6.393
			c-2.303,0.493-6.04-3.882-7.855-6.757l-1.165-1.845l-0.509,2.121c-1.86,7.744-4.061,8.001-4.203,8.007l-3.124-0.675l-0.156,0.957
			c-1.181,7.241-2.92,8.245-3.612,8.34c-1.856,0.246-4.635-3.826-6.022-6.806l-1.325-2.845l-0.423,3.109
			c-1.209,8.897-3.039,10.049-3.77,10.131c-2.258,0.25-5.815-6.411-7.621-11.225l-0.969-2.581l-0.776,2.645
			c-3.591,12.226-6.105,13.042-6.789,12.99c-2.253-0.144-4.504-7.768-5.316-12.876l-0.566-3.563l-1.21,3.399
			c-3.879,10.897-6.996,12.549-8.527,12.548c-0.01,0-0.02,0-0.03,0c-2.862-0.041-5.21-5.357-5.872-7.403l-1.471-4.538l-0.323,4.759
			c-0.46,6.763,0.812,10.963,3.779,12.483c4.01,2.055,9.718-1.591,11.929-3.206c1.356,2.48,3.14,3.888,5.315,4.189
			c0.291,0.041,0.581,0.06,0.872,0.06c4.139-0.001,8.267-3.862,9.895-5.575c2.075,2.227,4.36,3.367,6.806,3.391
			c3.594,0.037,6.446-2.392,7.513-3.454c2.308,0.812,4.448,0.774,6.366-0.115c3.073-1.424,4.622-4.616,5.127-5.862
			c3.169-0.847,6.55-4.378,7.891-5.898c1.778,1.293,3.687,1.862,5.688,1.696c3.624-0.303,6.409-2.954,7.286-3.888
			c2.234-0.109,3.997-0.94,5.246-2.473c3.055-3.751,1.794-10.362,1.739-10.642l-1.056-5.351c0.225,0.465,0.442,0.936,0.641,1.42
			c0.785,1.901,1.315,3.845,1.577,5.778l0.003,0.043c0.005,0.084,0.012,0.17,0.027,0.261l0.137,0.821l0.831-0.054
			c4.391-0.286,20.009-1.756,36.605-8.672c26.358-10.975,42.956-29.738,49.335-55.767c8.078-32.959-2.802-56.535-12.402-77.337
			c-8.04-17.426-14.641-34.53-7.186-52.148l0.612-1.447l-1.562,0.174c-0.059,0.006-0.116,0.013-0.171,0.019
			c0.352-0.22,0.785-0.479,1.393-0.811l1.417,0.169l0.274-0.169c0.165-0.101,16.676-11.335,19.923-30.218l0.581-3.378l-2.195,2.632
			c-3.484,4.177-6.898,7.032-10.366,8.653c1.709-2.193,3.516-4.157,5.282-6.076C300.926,225.627,305.048,216.61,305.141,207.713z"/>
		<path fill="#AD704E" d="M121.915,475.265l-0.323-4.759l-1.471,4.538c-0.663,2.045-3.01,7.362-5.872,7.403h-0.03
			c-1.531,0-4.648-1.651-8.527-12.548l-1.21-3.399l-0.566,3.563c-0.812,5.107-3.063,12.731-5.316,12.876
			c-0.684,0.051-3.199-0.764-6.789-12.99l-0.776-2.645l-0.969,2.581c-1.806,4.814-5.364,11.474-7.621,11.225
			c-0.731-0.082-2.561-1.234-3.77-10.131l-0.423-3.109l-1.325,2.845c-1.387,2.98-4.166,7.052-6.022,6.806
			c-0.693-0.096-2.431-1.099-3.612-8.34l-0.156-0.957l-3.124,0.675c-0.142-0.006-2.343-0.263-4.203-8.007l-0.509-2.121l-1.164,1.845
			c-1.815,2.875-5.552,7.25-7.855,6.757c-1.385-0.298-2.443-2.569-2.978-6.393l-0.285-2.037l-1.329,1.57
			c-0.701,0.824-3.071,3.064-4.704,2.541c-1.39-0.444-2.348-2.924-2.697-6.982l-0.228-2.652c-0.102,0.273-0.202,0.548-0.295,0.825
			c-0.095,0.283-0.403,0.288-0.581,0.141c-0.168,0.196-0.335,0.393-0.492,0.598c-0.014,0.019-0.026,0.038-0.04,0.057l-0.184,0.931
			c-0.055,0.28-1.316,6.891,1.739,10.642c1.249,1.533,3.012,2.364,5.246,2.473c0.876,0.934,3.662,3.584,7.286,3.888
			c2.001,0.166,3.91-0.403,5.688-1.696c1.341,1.521,4.722,5.051,7.891,5.898c0.505,1.247,2.054,4.438,5.127,5.862
			c1.919,0.889,4.058,0.927,6.366,0.115c1.067,1.062,3.919,3.491,7.513,3.454c2.446-0.024,4.731-1.164,6.806-3.391
			c1.628,1.714,5.756,5.575,9.895,5.575c0.291,0,0.582-0.019,0.872-0.06c2.175-0.301,3.958-1.709,5.315-4.189
			c2.211,1.615,7.918,5.261,11.929,3.206C121.102,486.228,122.374,482.028,121.915,475.265z"/>
		<path fill="#AD704E" d="M74.887,48.703c-2.816,3.301-9.872,12.695-9.723,23.785l0.031,2.307l1.566-1.694
			c0.098-0.107,9.955-9.891,18.549-12.499c-2.198,3.941-7.172,13.336-3.991,22.744l0.538,1.592l-0.279,1.117l-1.051-2.307
			c-0.862-2.12-1.31-4.479-1.332-7.009l-0.038-4.287l-1.726,3.925c-4.188,9.523-4.266,20.608-0.225,30.385
			c1.942,5.142,5.295,10.097,8.583,14.617l-2.852-1.174c-3.885-1.783-7.251-4.762-10.005-8.855l-2.425-3.604l0.755,4.278
			c0.365,2.066,0.855,4.059,1.459,5.97l-4.255-7.301l-0.242,3.196c0.536,13.592,6.247,20.484,11.61,26.565
			c0.996,1.129,1.937,2.196,2.825,3.284c2.256,2.765,3.75,6.466,5.332,10.384c1.743,4.316,3.716,9.201,7.058,13.575
			c0.233,1.085,1.4,5.764,4.975,10.412c3.563,4.633,10.253,10.044,22.061,10.043c0.425,0,0.858-0.007,1.296-0.021l0.173-0.008
			c0.214,0.003,0.424,0.005,0.634,0.005c11.874-0.001,18.463-5.479,21.916-10.138c3.409-4.599,4.469-9.203,4.683-10.3
			c3.339-4.372,5.31-9.254,7.052-13.567c1.582-3.918,3.077-7.618,5.333-10.383c1.002-1.229,2.072-2.407,3.205-3.655
			c5.175-5.701,10.672-12.162,11.196-25.434l-0.245-3.124l-4.573,7.561c0.766-2.23,1.371-4.586,1.807-7.063l0.752-4.274l-2.423,3.6
			c-2.703,4.016-5.994,6.961-9.784,8.755l-1.056-0.08l0.925-1.139l0.024-0.031c4.625-6.215,7.586-13.322,8.564-20.552
			c1.005-7.425-0.087-15.018-3.158-21.959l-1.726-3.9l-0.037,4.265c-0.022,2.554-0.475,4.927-1.331,7.021l-1.058,2.324l-0.107-0.426
			l0.756-2.359c3.031-9.457-2.091-18.784-4.352-22.689c8.635,2.471,18.645,12.109,18.745,12.214l1.593,1.669l-0.006-2.307
			c-0.028-11.091-7.231-20.372-10.099-23.628c8.337-1.156,18.025,5.202,18.128,5.27l3.27,2.174l-1.963-3.401
			C183.7,41.278,175.373,36.347,169.535,34.2c-3.015-1.109-5.673-1.613-7.657-1.834c6.428-3.034,11.943-4.487,12.006-4.504
			l2.376-0.618l-2.197-1.097c-9.095-4.541-22.288-1.057-27.717,0.723l15.36-25.545l-1.323-0.231
			c-13.794-2.404-33.897,7.519-37.106,9.166c-6.433-3.006-26.226-11.541-38.75-9.151L83.208,1.36l15.768,25.3
			c-5.458-1.693-18.706-4.967-27.726-0.283l-2.179,1.131l2.385,0.58c0.064,0.016,5.601,1.381,12.077,4.312
			c-1.98,0.253-4.63,0.799-7.627,1.956c-5.803,2.239-14.051,7.301-20.389,18.697l-1.912,3.438l3.239-2.232
			C56.946,54.19,66.519,47.677,74.887,48.703z M150.292,157.089l-5.518,9.208l0.331,1.46c-3.839,12.787-13.97,15.693-18.523,16.126
			l-1.96-0.249l-1.844,0.248c-0.043,0.003-4.903,0.051-9.675-1.819c-6.323-2.478-9.404-5.8-11.411-12.486l-1.24-1.985l-5.028-13.253
			l-0.09-1.145c-0.078-1.001-0.042-1.965,0.108-2.866l0.024-0.135c0.546-3.02,2.424-5.458,5.583-7.247
			c2.988-1.69,4.657-4.315,6.271-6.853c2.717-4.271,5.285-8.304,14.212-7.493c0.16,0.014,1.94,0.014,2.104,0
			c8.924-0.811,11.492,3.222,14.209,7.493c1.614,2.538,3.283,5.163,6.271,6.853C149.297,145.877,152.124,150.879,150.292,157.089z
			 M88.223,95.609c0.733-0.037,7.335-0.316,12.855,1.199c5.925,1.624,6.245,8.545,5.585,11.98l-0.055,0.281l-0.465-0.319h-0.102
			c-0.454-0.173-1.426-0.445-3.165-0.515c-0.44-0.015-0.902-0.022-1.375-0.03c-2.269-0.028-5.092-0.063-7.4-1.682
			c-2.171-1.524-2.685-3.366-3.184-5.156c-0.181-0.653-0.349-1.242-0.572-1.843c-0.825-2.159-2.09-3.442-2.241-3.591l-0.312-0.299
			L88.223,95.609z M155.484,99.532c-0.219,0.589-0.381,1.156-0.572,1.843c-0.497,1.782-1.01,3.624-3.183,5.149
			c-2.301,1.618-5.128,1.653-7.403,1.681c-0.47,0.007-0.932,0.015-1.38,0.03c-1.855,0.079-3.065,0.395-3.532,0.703l-0.002-0.003
			l-0.196,0.135l-0.048-0.281c-0.66-3.434-0.342-10.358,5.586-11.983c3.857-1.062,8.251-1.243,10.794-1.243
			c1.09,0,1.84,0.033,2.062,0.044l0.426,0.024l-0.428,0.403l-0.013,0.026C157.139,96.556,156.168,97.742,155.484,99.532z
			 M159.26,138.306c0.296-0.525,0.641-1.022,1.046-1.49L159.26,138.306z"/>
	</g>
	<g>
		<path fill="#844C30" d="M213.792,220.379c0,0-5.487-7.13-9.744-6.636c3.951,15.423,7.66,32.761-0.457,46.46
			c1.201-6.157-1.591-12.904-6.783-16.417c-0.464,9.995-0.961,20.181-4.46,29.557c-3.495,9.376-10.551,17.979-20.163,20.748
			c1.62-4.25,2.136-8.919,1.48-13.427c-8.227,1.473-14.407,8.816-16.962,16.771c-2.563,7.954-2.173,16.52-1.76,24.865
			c-7.524-5.472-12.396-14.429-12.911-23.716c-0.582,11.567-2.777,19.684-6.143,26.29c-3.366,6.607-7.899,11.7-13.165,17.224
			c0,0,0,0-0.004,0c-10.529-11.048-18.137-20.38-19.308-43.514c-0.516,9.288-5.384,18.244-12.911,23.716
			c0.412-8.345,0.803-16.911-1.76-24.865c-2.556-7.955-8.735-15.298-16.962-16.771c-0.655,4.508-0.14,9.177,1.48,13.427
			c-9.612-2.769-16.668-11.372-20.159-20.748c-3.499-9.376-3.999-19.562-4.463-29.557c-5.193,3.513-7.984,10.26-6.783,16.417
			c-8.117-13.699-4.404-31.037-0.457-46.46c-4.257-0.493-9.744,6.636-9.744,6.636c-1.746-16.215,5.296-38.06,13.95-43.164
			c0.935,7.27,3.138,14.322,7.233,21.046c5.819,9.685,14.244,17.331,23.628,23.576c-1.193-4.581-1.318-9.288,0.412-13.736
			c0.619,12.285,7.328,23.26,15.298,32.253c1.628,1.834,3.322,3.609,5.06,5.355c-0.059-4.736,0.935-9.464,2.998-13.744
			c0.965-1.922,2.254-3.734,3.918-5.053c-0.773,1.974-1.274,3.889-1.62,5.833s-0.545,3.911-0.685,5.885l0.155-0.029
			c0.029,0.162,3.388,16.675,20.917,27.959c17.529-11.284,20.888-27.797,20.917-27.959l0.155,0.029
			c-0.133-1.974-0.339-3.94-0.685-5.885c-0.346-1.944-0.847-3.859-1.62-5.833c1.665,1.318,2.953,3.13,3.918,5.053
			c2.062,4.279,3.057,9.008,2.998,13.744c1.738-1.746,3.432-3.521,5.06-5.355c7.969-8.993,14.686-19.967,15.298-32.253
			c1.731,4.449,1.606,9.155,0.412,13.736c9.383-6.246,17.809-13.891,23.628-23.576c3.882-6.375,6.651-13.309,7.94-20.306
			C209.079,184.163,215.464,204.849,213.792,220.379z"/>
		<path fill="#844C30" d="M101.494,94.469c-7.149-1.962-15.642-1.514-16-1.496l-3.082,0.179l2.231,2.141
			c0.018,0.018,1.496,1.451,2.455,3.96c0.26,0.699,0.457,1.397,0.663,2.141c0.627,2.249,1.335,4.802,4.309,6.889
			c3.091,2.168,6.719,2.213,9.631,2.249c0.564,0.009,1.12,0.018,1.648,0.036c2.679,0.107,3.655,0.627,3.664,0.627l1.684,1.156
			l0.394-2.016C109.96,105.81,109.503,96.663,101.494,94.469z"/>
		<path fill="#844C30" d="M144.43,94.469c7.149-1.962,15.642-1.514,16-1.496l3.082,0.179l-2.231,2.141
			c-0.018,0.018-1.496,1.451-2.455,3.96c-0.26,0.699-0.457,1.397-0.663,2.141c-0.627,2.249-1.335,4.802-4.309,6.889
			c-3.091,2.168-6.719,2.213-9.631,2.249c-0.564,0.009-1.12,0.018-1.648,0.036c-2.679,0.107-3.655,0.627-3.664,0.627l-1.684,1.156
			l-0.394-2.016C135.964,105.81,136.421,96.663,144.43,94.469z"/>
		<path fill="#844C30" d="M261.352,266.56c0,0,7.285,1.356,22.455-5.621c0,0,14.865-14.263,16.642-30.371l3.772-11.224l1.853-14.654
			c0,0-29.16,9.327-39.522,33.454S261.352,266.56,261.352,266.56z"/>
		<path fill="#844C30" d="M122.919,58.172c0,0,33.877,1.88,40.593,33.966c0,0,1.982-1.963,4.901-8.899
			c0,0,4.879,21.718-11.057,40.242c0,0,9.505-1.575,12.713-4.117l-13.14,20.839l14.367-13.973l4.763-18.96l-11.155,8.181
			c0,0,11.907-16.545,7.27-30.457s-5.891-12.784-5.891-12.784l-2.256,10.779c0,0-3.885-15.918-19.553-22.811
			s-21.562-7.144-21.562-7.144L122.919,58.172z"/>
		<path fill="#844C30" d="M123.296,58.172c0,0-33.877,1.88-40.593,33.966c0,0-1.982-1.963-4.901-8.899
			c0,0-4.879,21.718,11.057,40.242c0,0-9.505-1.575-12.713-4.117l13.093,21.352l-14.32-14.486l-4.763-18.96l11.155,8.181
			c0,0-11.907-16.545-7.27-30.457s5.891-12.784,5.891-12.784l2.256,10.779c0,0,3.885-15.918,19.553-22.811
			s21.562-7.144,21.562-7.144L123.296,58.172z"/>
		<path fill="#844C30" d="M139.606,410.065c-0.478-19.821-2.026-29.373-2.026-29.373l-4.135,2.166c0,0,5.368,44.207-10.53,72.666
			h-0.193c-15.898-28.46-10.53-72.666-10.53-72.666l-4.135-2.166c0,0-1.548,9.552-2.026,29.373
			c-0.478,19.821,7.642,42.078,7.642,42.078l9.053,18.314l-0.004,0.383l0.097-0.196l0.097,0.196l-0.004-0.383l9.053-18.314
			C131.965,452.143,140.084,429.886,139.606,410.065z"/>
		<path fill="#844C30" d="M210.688,454.819c0,0,68.133,0.304,87.02-66.748c0,0-4.654,37.308-33.089,55.051
			c-28.436,17.744-54.774,15.87-54.774,15.87L210.688,454.819z"/>
	</g>
	<g>
		<path fill="#FFFFFF" d="M88.473,95.509c0,0,20.787-2.806,17.981,13.178l-8.374-0.935l-4.973-2.083l-2.848-6.121L88.473,95.509z"/>
		<path fill="#FFFFFF" d="M156.796,95.509c0,0-20.787-2.806-17.981,13.178l8.374-0.935l4.973-2.083l2.848-6.121L156.796,95.509z"/>
		<path fill="#FFFFFF" d="M127.986,462.783c0,0,9.947-10.457,12.498,0.765c0,0,6.376-18.237,12.753,0c0,0,4.081-12.88,11.988-2.04
			c0,0,2.806-7.85,10.967-2.012l-4.85-7.935l1.208,0.708c0,0,5.81-10.782,11.421-1.345c0,0,3.316-8.034,10.457-1.148
			c0,0,2.933-7.269,9.82-1.53c0,0-2.933-7.795-11.095-4.153c0,0-5.219-1.73-10.585,0.818c0,0-6.384-5.21-11.226,2.442l-1.654,4.791
			l-5.725,2.223c0,0-4.977-3.294-10.471-1.031c0,0-4.895-5.866-11.605-0.397l-10.585,2.575L127.986,462.783z"/>
		<path fill="#FFFFFF" d="M117.511,462.783c0,0-9.947-10.457-12.498,0.765c0,0-6.376-18.237-12.753,0c0,0-4.081-12.88-11.988-2.04
			c0,0-2.806-7.85-10.967-2.012l4.85-7.935l-1.208,0.708c0,0-5.81-10.782-11.421-1.345c0,0-3.316-8.034-10.457-1.148
			c0,0-2.933-7.269-9.82-1.53c0,0,2.933-7.795,11.095-4.153c0,0,5.219-1.73,10.585,0.818c0,0,6.384-5.21,11.226,2.442l1.654,4.791
			l5.725,2.223c0,0,4.977-3.294,10.471-1.031c0,0,4.895-5.866,11.605-0.397l10.585,2.575L117.511,462.783z"/>
		<path fill="#FFFFFF" d="M275.827,265.676c0,0-9.941,8.526-1.306,34.118c2.543,7.537,9.862,22.468,14.602,33.043
			c5.982,13.346,10.225,30.237,8.585,55.235c0,0,8.381-16.95-1.628-45.973C286.07,313.075,269.833,292.362,275.827,265.676z"/>
		<path fill="#FFFFFF" d="M274.507,264.572c0,0,20.818-17.312,21.132-31.225l-6.504,4.797c0,0,13.142-17.635,11.858-26.795
			c0,0-23.048,6.803-37.109,37.11c0,0,7.652-35.773,41.32-43.042c0,0,1.409,14.343-4.211,21.617
			C300.993,227.034,295.461,261.555,274.507,264.572z"/>
		<path fill="#FFFFFF" d="M122.838,16.658c0,0,15.051-12.77,32.009-10.781l-8.617,16.014c0,0,24.868-11.509,48.021,1.406
			l-14.313,9.327c0,0,31.434-1.752,43.004,44.44l-13.903-1.419c0,0,10.294,14.524,1.476,33.993l2.109,4.518
			c0,0,8.886-15.633,2.862-33.571h12.199c0,0-5.121-23.962-17.621-37.066c-12.501-13.103-22.612-13.254-22.612-13.254l14.37-7.531
			c0,0-27.627-14.157-48.474-6.928L161.87,2.1c0,0-23.212-2.109-38.565,9.037l-1.296,0.151L122.838,16.658z"/>
		<path fill="#FFFFFF" d="M204.295,324.488c0,0,60.827-7.368,23.492,79.364c0,0,19.396-29.239,16.256-58.546
			C240.903,315.999,204.295,324.488,204.295,324.488z"/>
		<path fill="#FFFFFF" d="M185.724,345.822c0,0-23.732,66.545-19.676,107.117l3.741-1.016c0,0,0.939-38.822,9.03-67.457
			c8.09-28.635,10.702-44.639,10.702-44.639L185.724,345.822z"/>
		<path fill="#FFFFFF" d="M122.771,16.658c0,0-15.051-12.77-32.009-10.781L99.3,21.464c0,0-24.789-11.082-47.942,1.833l14.313,9.327
			c0,0-31.434-1.752-43.004,44.44l13.903-1.419c0,0-10.294,14.524-1.476,33.993l-2.109,4.518c0,0-8.886-15.633-2.862-33.571H17.925
			c0,0,5.121-23.962,17.621-37.066s22.612-13.254,22.612-13.254l-14.37-7.531c0,0,27.627-14.157,48.474-6.928l-8.52-13.705
			c0,0,23.212-2.109,38.565,9.037l1.296,0.151L122.771,16.658z"/>
		<path fill="#FFFFFF" d="M215.054,136.837c-0.486-15.064-6.818-28.833-6.818-28.833s9.043,34.532-5.492,57.017l-1.733-4.597
			c0,0,3.613,38.07-32.017,58.658c0,0-15.334,21.271-21.479,23.906l-3.171-9.4c0,0-6.36,21.324-21.537,29.516
			c-15.178-8.193-21.537-29.516-21.537-29.516l-3.171,9.4c-6.145-2.635-21.479-23.906-21.479-23.906
			c-35.63-20.589-32.017-58.658-32.017-58.658l-1.733,4.597c-14.535-22.485-5.492-57.017-5.492-57.017s-6.333,13.768-6.818,28.833
			c-0.486,15.064,8.423,31.47,8.423,31.47l4.049,2.224c0,0-2.754,7.61,4.859,24.942s31.338,28.671,31.338,28.671
			c3.478,8.099,17.904,24.783,17.904,24.783l3.887-5.183c3.078,11.177,21.68,24.621,21.68,24.621l0.108-0.718l0.108,0.718
			c0,0,18.603-13.444,21.68-24.621l3.887,5.183c0,0,14.426-16.684,17.904-24.783c0,0,23.725-11.339,31.338-28.671
			c7.613-17.332,4.859-24.942,4.859-24.942l4.049-2.224C206.631,168.307,215.54,151.901,215.054,136.837z"/>
		<path fill="#FFFFFF" d="M233.939,180.846c-4.45-15.112-16.873-39.773-16.873-39.773l-0.618,2.458c0,0,19.214,36.086,17.393,67.899
			l-8.105-6.31c0,0,9.477,29.102,3.238,49.712l-14.934-16.038c0,0,14.154,40.547,2.68,59.932l-4.617-7.35
			c0,0-7.269,37.207-35.935,48.682c0,0-14.458,18.735-20.276,22.615l-1.194-3.915c0,0-12.288,16.517-31.893,24.069
			c-19.604-7.552-31.893-24.069-31.893-24.069l-1.194,3.915c-5.818-3.88-20.276-22.615-20.276-22.615
			c-28.665-11.475-35.935-48.682-35.935-48.682l-4.617,7.35c-11.475-19.385,2.68-59.932,2.68-59.932l-14.934,16.038
			c-6.239-20.61,3.238-49.712,3.238-49.712l-8.105,6.31c-1.821-31.812,17.393-67.899,17.393-67.899l-0.618-2.458
			c0,0-12.423,24.661-16.873,39.773s-3.059,40.422-3.059,40.422l4.728-4.728c0,0-1.854,7.417-2.318,18.45s4.265,27.535,4.265,27.535
			l7.973-8.993c0,0-2.503,12.887-2.132,27.35c0.371,14.463,7.51,24.29,7.51,24.29l5.099-5.655
			c1.391,8.066,11.404,25.959,11.404,25.959c6.953,10.476,26.701,20.211,26.701,20.211c0.661,4.743,17.615,22.807,17.615,22.807
			l2.027-3.645c3.027,5.916,27.791,20.853,31.427,23.024l0.007,0.199c0,0,0.067-0.04,0.162-0.098
			c0.18,0.107,0.279,0.166,0.279,0.166l-0.028-0.318c3.423-2.083,27.762-17.037,30.799-22.973l2.027,3.645
			c0,0,16.954-18.064,17.615-22.807c0,0,19.748-9.735,26.701-20.211c0,0,10.013-17.893,11.403-25.959l5.099,5.655
			c0,0,7.139-9.827,7.51-24.29c0.371-14.463-2.132-27.35-2.132-27.35l7.973,8.993c0,0,4.728-16.503,4.265-27.535
			c-0.464-11.033-2.318-18.45-2.318-18.45l4.728,4.728C236.998,221.268,238.389,195.958,233.939,180.846z"/>
		<path fill="#FFFFFF" d="M41.314,324.488c0,0-60.827-7.368-23.492,79.364c0,0-19.396-29.239-16.256-58.546
			S41.314,324.488,41.314,324.488z"/>
		<path fill="#FFFFFF" d="M59.885,345.822c0,0,23.732,66.545,19.676,107.117l-3.741-1.016c0,0-0.939-38.822-9.03-67.457
			c-8.09-28.635-10.702-44.639-10.702-44.639L59.885,345.822z"/>
	</g>
	<path fill="#231F20" d="M88.048,225.491c2.364,4.309,4.787,8.301,7.196,12.654c-4.552-2.283-7.498-6.761-10.172-10.915
		c-1.304-2.121-2.372-4.368-3.351-6.644c-0.965-2.283-1.716-4.67-1.827-7.306c0.987,0.899,1.775,1.878,2.497,2.88
		C84.506,219.135,86.215,222.368,88.048,225.491z M51.752,183.118c-0.854-1.709-1.466-3.462-2.438-5.134
		c-0.066,1.392,0.066,2.953,0.177,4.338c1.289,8.109,5.362,15.622,10.621,21.845c3.719,4.331,8.043,8.411,13.272,10.834
		c-6.312-6.901-12.182-13.906-16.778-22.007C54.809,189.821,53.247,186.426,51.752,183.118z M203.065,46.499
		c4.876,4.463,8.838,9.59,13.125,14.709c-0.027-0.101-0.059-0.203-0.087-0.304c0.03,0.036,0.06,0.072,0.09,0.108
		c-2.93-11.113-14.748-23.812-26.17-26.175c-0.856-0.143-1.702-0.289-2.567-0.336c0.102,0.073,0.203,0.144,0.305,0.216
		c-0.103-0.008-0.206-0.019-0.31-0.024C192.945,38.626,198.314,41.793,203.065,46.499z M42.789,46.499
		c4.743-4.706,10.12-7.873,15.614-11.807c-0.869,0.044-1.716,0.192-2.57,0.339C44.409,37.388,32.588,50.1,29.664,61.207
		C33.95,56.089,37.913,50.97,42.789,46.499z M185.742,204.168c5.259-6.224,9.332-13.736,10.621-21.845
		c0.085-1.077,0.181-2.253,0.191-3.372c0.007-0.395,0.005-0.784-0.012-1.16c-0.492,0.858-0.886,1.723-1.283,2.58
		c-1.844,4.143-3.786,8.474-6.011,12.433c-4.591,8.104-10.465,15.109-16.774,22.006c0.104-0.048,0.205-0.101,0.308-0.15
		c-0.104,0.114-0.208,0.229-0.312,0.343C177.699,212.58,182.022,208.499,185.742,204.168z M28.802,295.638
		c-2.187-13.11-0.052-26.287,1.782-39.309c0.28-1.886,0.479-3.793,0.479-5.782C24.677,261.566,21.886,284.524,28.802,295.638z
		 M215.269,256.33c1.367,9.708,2.901,19.501,2.684,29.289c-0.08,3.278-0.357,6.555-0.904,9.828c0.012-0.019,0.022-0.039,0.033-0.058
		c-0.014,0.083-0.025,0.166-0.039,0.249c2.624-4.211,3.85-10.121,4.017-16.437c0.31-10.415-2.283-21.97-6.272-28.845
		c0,0.072,0.005,0.141,0.006,0.213c-0.004-0.007-0.008-0.015-0.012-0.022C214.791,252.536,214.989,254.444,215.269,256.33z
		 M50.994,319.87c-2.659-3.653-4.905-7.557-7.174-11.475c-0.818-1.304-1.539-2.659-2.57-3.948
		c0.206,11.203,11.1,25.462,21.44,29.417C58.565,329.239,54.47,324.923,50.994,319.87z M204.604,304.447
		c-0.003,0.004-0.006,0.008-0.009,0.011c0.002-0.068,0.008-0.137,0.01-0.204c-1.029,1.29-1.749,2.645-2.569,3.946
		c-2.272,3.921-4.513,7.823-7.177,11.478c-3.474,5.051-7.569,9.37-11.693,13.993c0.091-0.035,0.182-0.076,0.272-0.112
		c-0.092,0.102-0.183,0.203-0.274,0.306C193.512,329.901,204.398,315.642,204.604,304.447z M287.403,315.764
		c9.788,21.216,20.884,45.262,12.575,79.152c-8.234,33.586-32.318,49.919-51.072,57.706c-17.215,7.148-32.816,8.568-37.533,8.843
		c-0.067,0.829-0.179,1.629-0.372,2.377l-0.002,0.009c-0.723,2.753-2.297,4.732-4.432,5.574c-1.362,0.537-2.856,0.594-4.399,0.177
		c-0.935,1.959-2.343,3.346-4.14,4.062c-2.802,1.114-6.141,0.333-9.285-2.08c-1.515,3.519-3.891,5.679-6.754,6.048
		c-0.077,0.01-0.153,0.007-0.23,0.014c-0.14,0.481-0.3,0.944-0.48,1.383c-1.205,2.924-3.137,4.792-5.592,5.41
		c-1.598,0.401-3.28,0.228-4.946-0.5c-1.305,2.059-3.09,3.445-5.157,3.972c-3.267,0.831-6.87-0.57-9.992-3.788
		c-2.176,3.77-5.125,5.878-8.344,5.878c-2.902,0-5.636-1.761-7.752-4.919c-3.217,3.562-6.99,5.135-10.436,4.259
		c-2.167-0.546-4.019-2.024-5.348-4.273c-0.293-0.496-0.556-1.026-0.793-1.58c-0.237,0.554-0.5,1.084-0.793,1.58
		c-1.33,2.249-3.181,3.727-5.353,4.274c-3.446,0.878-7.215-0.699-10.432-4.26c-2.115,3.158-4.848,4.919-7.751,4.919
		c-3.219,0-6.167-2.107-8.343-5.879c-3.122,3.219-6.722,4.621-9.991,3.789c-2.068-0.527-3.852-1.913-5.158-3.972
		c-1.666,0.728-3.348,0.901-4.946,0.5c-2.454-0.619-4.388-2.487-5.59-5.403c-0.18-0.443-0.341-0.907-0.481-1.39
		c-0.073-0.007-0.145-0.004-0.218-0.013c-2.872-0.371-5.251-2.531-6.766-6.05c-3.142,2.413-6.485,3.194-9.284,2.081
		c-1.798-0.716-3.206-2.104-4.142-4.062c-1.543,0.416-3.037,0.36-4.399-0.177c-2.135-0.842-3.709-2.821-4.432-5.574l-0.002-0.009
		c-0.478-1.857-0.57-3.979-0.271-6.307c0.272-2.031,0.822-4.061,1.638-6.041c1.152-2.799,2.753-5.318,4.628-7.283
		c0.056-0.058,0.113-0.111,0.17-0.168c-6.555-7.171-29.851-34.729-38.728-72.981c-4.402-18.97-2.405-32.96,5.935-41.58
		c9.316-9.63,23.829-9.787,31.016-9.165c-2.911-5.574-4.953-11.782-5.678-18.074l-3.898,6.858l-1.7-2.06
		c-11.916-14.436-9.158-36.688-6.258-49.222l-7.182,9.356l-1.055-3.394c-5.517-17.752-4.394-32.758-2.773-41.523l-3.478,4.254
		l-0.363-4.563c-3.77-47.378,17.995-78.915,22.066-84.355c-0.275-6.549,0.394-13.126,2.178-19.518
		c0.149-0.552,0.31-1.103,0.477-1.653c-7.519-17.36-5.368-28.86-3.22-34.435c-5.106,0.967-10.154,0.765-10.422,0.754l-2.24-0.098
		l0.531-2.178c5.251-21.555,13.788-36.811,25.375-45.343c4.07-2.997,7.818-4.604,10.709-5.465l-12.699-6.435l2.971-1.695
		c21.679-12.375,38.469-10.585,46.784-8.295l-8.55-12.342l3-0.388c20.744-2.687,35.115,6.127,39.122,8.967
		c4.008-2.839,18.379-11.65,39.122-8.967l3,0.388l-8.551,12.342c8.315-2.291,25.104-4.083,46.785,8.295l2.971,1.695l-12.699,6.435
		c2.892,0.861,6.639,2.468,10.709,5.465c11.587,8.532,20.124,23.788,25.375,45.343l0.531,2.178l-2.24,0.098
		c-0.268,0.013-5.316,0.214-10.423-0.754c2.148,5.575,4.299,17.075-3.22,34.435c0.167,0.55,0.328,1.102,0.477,1.653
		c1.784,6.391,2.453,12.969,2.178,19.517c4.071,5.44,25.836,36.977,22.066,84.355l-0.363,4.563l-3.478-4.254
		c1.621,8.765,2.744,23.772-2.773,41.523l-1.055,3.394l-7.182-9.356c2.9,12.534,5.658,34.786-6.258,49.222l-1.7,2.06l-3.898-6.858
		c-0.725,6.293-2.767,12.501-5.678,18.075c7.187-0.622,21.7-0.464,31.016,9.165c8.34,8.62,10.337,22.61,5.935,41.58
		c-7.23,31.157-24.026,55.215-33.55,66.945c29.124-1.465,59.897-20.456,68.963-48.886c2.584-7.994,3.67-16.663,3.392-25.079
		c-0.156-2.173-0.18-4.814-0.488-6.954c-0.132-1.046-0.631-4.878-0.748-5.774c-0.546-2.621-1.026-5.409-1.636-8.002
		c-0.431-1.583-1.399-5.269-1.807-6.778c-0.802-2.582-2.065-6.334-2.938-8.896c-3.3-8.552-7.394-17.972-9.983-26.742
		c-5.764-19.104-8.292-40.314-1.013-59.382c6.845-18.426,23.102-32.594,41.764-38.301l2.075-0.582c0,0.004,0.211,2.12,0.211,2.124
		c1.492,7.604-0.846,15.578-4.945,21.985c-0.128,22.414-19.211,35.65-22.539,37.785
		C271.702,281.735,278.983,297.516,287.403,315.764z M204.296,324.295c-3.443,5.361-7.794,10.042-12.724,14.036
		c-2.749,9.724-20.656,74.374-20.215,106.39c0.136-0.198,0.263-0.399,0.41-0.593c1.287-1.703,3.332-3.609,5.212-3.856
		c2.043-0.261,4.08,0.406,5.966,1.931c0.546-0.432,1.142-0.777,1.785-1.031c2.205-0.874,4.728-0.602,7.293,0.783
		c0.167,0.085,0.338,0.178,0.512,0.279c0.653-0.68,1.416-1.194,2.281-1.538c2.201-0.876,4.698-0.493,7.154,1.025
		c6.057-6.587,29.235-33.694,38.007-71.493c4.1-17.664,2.423-30.508-4.982-38.174C225.487,322.213,208.975,323.653,204.296,324.295z
		 M186.743,341.908c-4.144,2.809-8.573,5.196-13.124,7.159c-0.589,1.238-1.2,2.461-1.824,3.662
		c-4.025,7.443-9.47,14.265-16.295,19.333l-3.018,2.293v-3.71c-0.116-0.65-0.19-1.299-0.231-1.947
		c-2.824,3.194-7.08,7.474-12.644,11.599c1.126,6.978,6.003,42.546-5.961,71.95c1.731-0.697,3.508-0.881,5.23-0.446
		c0.446,0.115,0.878,0.268,1.295,0.458c2.007-2.585,4.472-3.987,7.076-3.987c2.292,0,4.439,1.049,6.289,3.054
		c0.694-0.438,1.436-0.757,2.22-0.955c2.018-0.509,4.2-0.175,6.313,0.961c0.439,0.226,0.934,0.531,1.479,0.916
		c0.223,0.157,0.446,0.324,0.667,0.501c0.838-0.7,1.785-1.193,2.804-1.453c0.338-0.085,0.681-0.136,1.026-0.169
		C164.979,423.809,181.35,361.428,186.743,341.908z M33.445,111.243c1.739-4.011,4.093-7.746,7.314-10.709
		c-6.103,14.984-9.435,28.486-6.653,44.576c0.695,4.08,1.728,8.072,3.028,11.979c2.881-1.4,5.869-2.623,8.943-3.666
		c0.018-0.032,0.035-0.065,0.053-0.098c-0.004,0.028-0.007,0.055-0.011,0.083c13.712-4.647,29.047-5.84,43.47-4.45
		c-0.44-0.997-0.887-1.935-1.355-2.778c-1.433-2.833-3.155-5.453-5.286-7.639c-2.438-2.3-5.036-4.515-6.995-7.272
		c-2.077-2.778-3.722-5.856-4.964-9.059c-2.449-6.461-3.431-13.249-2.836-20.165l0.692-7.217l2.154,6.91
		c1.411,4.342,3.714,8.568,6.932,11.831c-3.436-6.219-5.733-13.088-6.042-20.231c-0.417-8.503,2.006-17.072,6.658-24.185
		c1.311-2.193,5.386-6.592,7.057-8.61c-1.33,4.356-3.874,10.088-4.018,14.633c-0.033,0.844-0.023,1.701,0.037,2.556
		c5.841-13.454,20.426-21.366,34.239-24.862c2.248-0.575,4.464-1.062,6.831-1.403h0.452c16.177,2.621,34.274,10.656,41.066,26.298
		c0.158-2.141-0.035-4.322-0.49-6.396c-0.585-2.643-2.679-8.192-3.489-10.826c1.713,2.041,5.737,6.434,7.057,8.61
		c4.651,7.113,7.075,15.682,6.658,24.185c-0.309,7.139-2.604,14.004-6.037,20.22c3.216-3.263,5.512-7.447,6.926-11.821l2.154-6.91
		l0.692,7.217c0.596,6.916-0.387,13.705-2.836,20.165c-1.241,3.203-2.887,6.281-4.964,9.059c-1.959,2.756-4.557,4.973-6.995,7.272
		c-2.131,2.187-3.853,4.806-5.286,7.639c-0.479,0.91-0.916,1.839-1.335,2.777c14.422-1.389,29.741-0.196,43.45,4.452
		c-0.004-0.028-0.007-0.055-0.011-0.083c0.019,0.032,0.035,0.066,0.054,0.098c3.073,1.043,6.06,2.267,8.942,3.666
		c1.3-3.907,2.333-7.899,3.028-11.98c2.782-16.097-0.551-29.592-6.653-44.576c3.221,2.963,5.575,6.698,7.314,10.709
		c7.523-20.419,0.221-30.871,0.141-30.981l-3.491-4.813l5.594,1.989c3.583,1.278,8.151,1.577,10.844,1.632
		c-6.26-24.006-15.989-35.422-23.154-40.793c-7.826-5.866-14.319-5.926-14.505-5.926c-0.002,0-0.003,0-0.004,0l-7.879,0.078
		l18.466-9.361c-27.297-14.159-45.695-4.558-45.884-4.455l-6.777,3.664l12.77-18.433c-20.803-1.544-34.251,9.203-34.39,9.317
		l-1.205,0.752l-1.205-0.75c0-0.001-0.001-0.001-0.002-0.002c-0.241-0.193-13.722-10.839-34.39-9.317l12.77,18.432l-6.777-3.664
		c-0.186-0.1-18.692-9.636-45.883,4.455l18.634,9.442l-8.056-0.158c-0.001,0-0.001-0.001-0.003-0.001
		c-0.163,0-6.661,0.054-14.498,5.927c-7.165,5.37-16.894,16.787-23.154,40.793c2.694-0.055,7.26-0.354,10.844-1.632l5.72-2.04
		l-3.624,4.872C33.224,80.373,25.921,90.824,33.445,111.243z M201.011,155.845c1.791,3.856,2.83,8.011,3.247,12.272
		c1.488-3.155,2.829-6.371,3.979-9.651C205.858,157.494,203.447,156.624,201.011,155.845z M169.375,221.643
		c9.377-6.244,17.807-13.89,23.628-23.576c5.072-8.327,7.238-17.154,7.696-26.281c-13.612-10.076-30.233-14.641-46.907-16.911
		c-1.349,3.219-2.836,6.39-5.1,9.239c-0.449,0.589-0.982,1.136-1.572,1.627c-0.403,3.585-3.391,20.15-24.156,20.202h-0.091
		c-20.882-0.053-23.787-16.807-24.163-20.265c-2.969-2.544-4.954-6.684-6.671-10.803c-16.671,2.271-33.291,6.836-46.9,16.91
		c0.458,9.126,2.624,17.95,7.696,26.281c5.821,9.687,14.25,17.332,23.628,23.576c-1.19-4.576-1.318-9.281,0.417-13.736
		c0.614,12.291,7.326,23.262,15.299,32.255c1.622,1.833,3.321,3.606,5.056,5.355c-0.055-4.735,0.935-9.466,3.002-13.745
		c0.964-1.919,2.248-3.736,3.917-5.051c-0.775,1.971-1.274,3.887-1.625,5.835c-0.342,1.945-0.545,3.908-0.685,5.879l0.158-0.03
		c0.032,0.168,3.389,16.675,20.918,27.962c17.528-11.287,20.885-27.794,20.918-27.962l0.158,0.03
		c-0.14-1.971-0.343-3.935-0.685-5.879c-0.35-1.948-0.85-3.864-1.625-5.835c1.669,1.315,2.953,3.131,3.917,5.051
		c2.067,4.28,3.057,9.01,3.002,13.745c1.735-1.749,3.433-3.522,5.055-5.355c7.973-8.992,14.685-19.965,15.299-32.255
		C170.693,212.361,170.565,217.067,169.375,221.643z M87.424,122.462l-4.733-1.954c-4.803-2.21-8.544-6.107-11.219-10.631
		c0.903,6.892,3.297,13.639,7.438,19.18c1.872,2.655,4.356,4.686,6.677,6.931c2.452,2.558,4.31,5.559,5.803,8.615
		c0.795,1.543,1.472,3.16,2.113,4.796c2.712,0.353,5.385,0.794,7.996,1.323c-2.54-0.183-5.091-0.327-7.649-0.429
		c0.429,1.121,0.848,2.246,1.279,3.361c2.149-0.019,4.278,0.03,6.37,0.154c-2.014,0.184-4.035,0.395-6.059,0.635
		c1.097,2.766,2.314,5.439,4.04,7.762c1.903,2.351,4.154,3.698,7.357,5.305c-1.531,0.583-3.248,0.582-4.858,0.078
		c1.063,4.964,5.471,15.131,20.756,15.396c15.315-0.265,20.073-10.462,21.129-15.418c-1.582,0.516-3.277,0.579-4.863-0.056
		c3.203-1.607,5.454-2.953,7.357-5.305c1.726-2.324,2.943-4.997,4.04-7.762c-2.023-0.24-4.045-0.45-6.058-0.635
		c2.091-0.124,4.22-0.174,6.369-0.155c0.432-1.114,0.85-2.24,1.279-3.36c-2.557,0.102-5.109,0.246-7.649,0.429
		c2.612-0.529,5.284-0.969,7.996-1.322c0.64-1.636,1.318-3.253,2.113-4.796c1.492-3.056,3.35-6.057,5.803-8.615
		c1.158-1.219,2.464-2.209,3.623-3.402c5.594-5.564,8.882-13.081,10.197-20.818c0.107-0.614,0.196-1.242,0.282-1.87
		c-2.675,4.514-6.411,8.402-11.206,10.609l-4.733,1.954l3.023-4.175c9.676-12.987,12.866-29.119,5.717-43.495
		c0.005,0.079,0.014,0.158,0.018,0.237c0.111,2.965-0.179,5.962-1.348,8.734l-1.707,3.822l-1.029-4.096
		c-3.816-15.476-19.38-24.095-33.841-27.789c-2.088-0.537-4.249-1.004-6.321-1.31c-16.599,2.773-35.668,11.421-40.174,29.099
		l-1.029,4.096l-1.707-3.822c-1.16-2.85-1.522-5.92-1.327-8.966c-7.259,14.556-3.809,30.695,5.714,43.49
		C84.402,118.287,87.424,122.462,87.424,122.462z M90.115,150.178c-14.948-0.336-30.028,0.948-44.264,5.34
		c-0.603,5.005-0.918,9.956-0.769,14.824c12.397-10.693,29.883-15.825,46.496-16.59C91.078,152.53,90.597,151.325,90.115,150.178z
		 M200.757,170.342c0.15-4.869-0.166-9.82-0.769-14.824c-14.233-4.39-29.308-5.675-44.252-5.34c-0.505,1.185-0.988,2.38-1.478,3.574
		C170.869,154.516,188.359,159.648,200.757,170.342z M37.6,158.466c1.15,3.279,2.49,6.496,3.979,9.651
		c0.417-4.261,1.457-8.416,3.248-12.272C42.391,156.624,39.98,157.494,37.6,158.466z M57.47,335.071
		c3.847,3.168,8.016,5.972,12.388,8.485c-1.794-4.781-2.928-9.775-2.581-14.911c3.747,7.418,6.369,14.874,10.568,21.944
		c3.176,5.426,6.948,10.46,11.247,15.029c-0.035-1.486,0.001-2.979-0.005-4.465c0.046-3.233-0.01-6.516,0.034-9.774
		c0.827,1.46,1.508,2.996,2.081,4.564c0.664,2.021,1.316,4.088,1.776,6.185c2.177,2.916,12.943,16.461,29.939,23.501
		c17.031-7.053,27.765-20.581,29.938-23.499c0.461-2.097,1.113-4.165,1.777-6.187c0.573-1.568,1.254-3.104,2.081-4.564
		c0.044,3.256-0.012,6.542,0.035,9.774c-0.006,1.486,0.03,2.979-0.005,4.465c4.299-4.57,8.072-9.603,11.247-15.029
		c4.2-7.071,6.82-14.525,10.568-21.944c0.347,5.136-0.787,10.13-2.581,14.911c4.372-2.514,8.541-5.317,12.389-8.485
		c16.722-13.537,22.44-31.359,21.233-52.498c1.786,4.037,2.713,8.314,2.932,12.649l0.004-0.002l4.145,7.293
		c13.104-19.384,1.463-52.476,1.339-52.821l-3.982-11.091l15.829,20.621c6.635-24.924-0.204-43.731-0.277-43.927l-3.899-10.431
		l9.927,12.14c1.69-37.433-12.723-63.842-19.167-73.673c-0.676,5.384-1.964,10.705-3.785,15.841
		c0.354,0.201,0.711,0.398,1.061,0.605c2.911,1.772,5.66,3.791,8.204,6.022c-3.123-2.059-6.336-3.898-9.671-5.522
		c-1.882,5.068-4.273,9.947-7.093,14.514c0.835,0.97,1.635,1.966,2.38,3.001c-0.879-0.866-1.77-1.71-2.674-2.534
		c-0.176,0.28-0.35,0.561-0.529,0.839c-0.511,7.16-2.527,14.287-5.489,20.502c-6.542,13.516-18.402,23.819-31.474,30.686
		c-1.732,3.927-4.045,7.626-6.378,10.824c-4.722,6.428-10.85,11.809-17.212,16.541l0.697-4.459
		c-0.044-0.818-0.078-1.639-0.108-2.461c-3.105,6.477-9.123,15.377-20.453,22.356l-0.445,0.273l-0.562,0.304l-0.564-0.304
		l-0.445-0.273c-11.331-6.979-17.348-15.879-20.454-22.356c-0.03,0.822-0.064,1.643-0.108,2.461l0.697,4.459
		c-6.364-4.735-12.488-10.11-17.211-16.541c-2.334-3.198-4.646-6.897-6.378-10.824c-13.072-6.867-24.932-17.17-31.474-30.686
		c-2.963-6.216-4.978-13.342-5.49-20.502c-0.179-0.278-0.354-0.559-0.529-0.839c-0.904,0.824-1.795,1.668-2.674,2.534
		c0.745-1.034,1.545-2.031,2.38-3c-2.82-4.568-5.211-9.446-7.093-14.514c-3.335,1.624-6.548,3.463-9.671,5.522
		c2.544-2.231,5.293-4.25,8.204-6.022c0.35-0.207,0.707-0.404,1.061-0.605c-1.82-5.133-3.108-10.451-3.784-15.832
		c-6.442,9.849-20.851,36.291-19.167,73.664l9.927-12.139l-3.899,10.431c-0.073,0.195-6.89,19.064-0.277,43.926l15.829-20.621
		l-3.982,11.092c-0.124,0.345-11.765,33.437,1.339,52.821l4.145-7.293l0.003,0.002c0.219-4.335,1.147-8.612,2.932-12.649
		C35.031,303.725,40.75,321.533,57.47,335.071z M106.23,380.297c-5.565-4.125-9.821-8.405-12.644-11.599
		c-0.041,0.648-0.115,1.297-0.231,1.948v3.71l-3.018-2.293c-6.825-5.068-12.269-11.89-16.294-19.333
		c-0.623-1.202-1.235-2.424-1.824-3.662c-4.55-1.963-8.98-4.349-13.123-7.158c5.393,19.519,21.764,81.899,18.697,109.217
		c0.343,0.033,0.685,0.084,1.022,0.169c1.021,0.26,1.969,0.754,2.808,1.454c0.222-0.178,0.447-0.346,0.673-0.504
		c0.539-0.382,1.034-0.687,1.505-0.929c2.082-1.12,4.265-1.451,6.28-0.945c0.785,0.198,1.527,0.518,2.221,0.956
		c1.851-2.005,3.998-3.054,6.29-3.054c2.603,0,5.069,1.402,7.075,3.987c0.415-0.19,0.844-0.342,1.287-0.456
		c1.726-0.434,3.506-0.248,5.241,0.451C100.225,422.849,105.104,387.276,106.23,380.297z M43.877,441.732
		c2.457-1.501,4.982-1.897,7.148-1.034c0.864,0.342,1.626,0.857,2.279,1.537c0.186-0.108,0.37-0.209,0.553-0.301
		c2.524-1.364,5.046-1.634,7.254-0.76c0.642,0.253,1.238,0.598,1.782,1.03c1.887-1.526,3.914-2.189,5.958-1.933
		c1.888,0.248,3.934,2.155,5.22,3.857c0.147,0.194,0.274,0.395,0.41,0.593c0.441-32.016-17.466-96.665-20.215-106.39
		c-4.93-3.994-9.281-8.676-12.724-14.037c-4.677-0.642-21.19-2.083-30.698,7.759c-7.406,7.666-9.082,20.51-4.982,38.175
		C14.638,408.048,37.835,435.164,43.877,441.732z M68.263,456.584c0.224-0.305,0.453-0.594,0.685-0.875
		c0.013-0.016,0.027-0.031,0.04-0.047c1.332-1.602,2.794-2.813,4.297-3.584c-0.007-4.135-3.783-7.941-4.912-8.155
		c-1.659-0.214-3.19,1.029-4.18,2.106l-1.506,1.637l-1.327-1.785c-0.453-0.61-0.993-1.042-1.603-1.282
		c-1.472-0.583-3.091,0.004-4.192,0.598c-0.522,0.265-1.029,0.596-1.548,1.004l-1.701,1.338l-1.048-1.893
		c-0.425-0.767-0.949-1.266-1.603-1.525c-1.615-0.645-3.982,0.366-6.174,2.64c-1.556,1.631-2.9,3.754-3.88,6.135
		c-0.696,1.689-1.164,3.41-1.393,5.118c-0.234,1.824-0.17,3.524,0.186,4.908c0.296,1.123,0.921,2.566,2.22,3.077
		c1.146,0.453,2.415,0.02,3.278-0.421l1.998-1.022l0.612,2.159c0.36,1.27,1.114,2.913,2.663,3.529
		c1.981,0.787,4.827-0.428,7.429-3.167l2.284-2.404l0.834,3.209c0.776,2.988,2.11,5.073,3.673,5.819
		c-0.004-0.052-0.003-0.11-0.006-0.162c-0.028-0.448-0.049-0.905-0.053-1.386v-0.014c0-2.266,0.307-4.58,0.912-6.88
		C65.093,462.016,66.482,459.015,68.263,456.584z M119.798,468.576c-2.167-8.244-7.649-14.289-11.936-13.205
		c-0.003,0.001-0.006,0.001-0.009,0.002c-0.524,0.137-0.918,0.573-1.081,1.09l-1.471,4.683l-2.28-6.118
		c-0.067-0.179-0.149-0.348-0.253-0.508c-0.468-0.719-1.915-2.608-4.179-2.565c-1.162,0.022-2.178,0.581-3.015,1.322
		c-0.538,0.477-0.934,1.093-1.174,1.771l-2.015,5.671l-1.466-5.015c-0.245-0.838-0.88-1.541-1.726-1.758
		c-0.005-0.001-0.01-0.003-0.015-0.004c-1.127-0.282-2.358-0.07-3.668,0.634c-0.346,0.178-0.695,0.395-1.096,0.68
		c-0.537,0.376-1.067,0.831-1.583,1.355l-1.512,1.536l-1.281-1.733c-0.606-0.821-1.324-1.342-2.133-1.548
		c-0.818-0.207-1.735-0.07-2.678,0.361c-0.74,0.37-2.412,1.378-3.996,3.536c-1.509,2.06-2.694,4.63-3.426,7.431
		c-0.229,0.869-0.399,1.738-0.529,2.603c-0.019,0.128-0.047,0.256-0.064,0.384c-0.041,0.308-0.064,0.614-0.093,0.921
		c-0.017,0.188-0.044,0.376-0.056,0.563c-0.017,0.259-0.017,0.516-0.027,0.774c-0.009,0.257-0.026,0.518-0.023,0.776
		c0.014,1.174,0.118,2.25,0.309,3.198c0.159,0.824,0.375,1.569,0.643,2.23c0.513,1.243,1.467,2.82,3.081,3.227
		c0.395,0.101,0.789,0.12,1.173,0.081c1.017-0.104,1.891-0.771,2.38-1.669l2.914-5.359l0.37,6.161
		c0.089,1.482,0.798,2.904,2.042,3.715c0.369,0.24,0.779,0.43,1.235,0.546c1.771,0.452,3.831-0.344,5.81-2.165
		c0.968-0.891,1.669-2.036,2.103-3.278l1.932-5.536l1.441,6.357c0.191,0.844,0.484,1.668,0.909,2.423
		c1.493,2.649,3.37,4.176,5.231,4.176c1.696,0,3.398-1.25,4.826-3.488c0.337-0.528,0.559-1.126,0.657-1.745l1.229-7.721l2.282,6.799
		c0.251,0.747,0.634,1.448,1.143,2.049c2.343,2.763,4.985,4.114,7.141,3.562c1.22-0.307,2.257-1.175,3.088-2.579
		C120.951,479.818,121.274,474.217,119.798,468.576z M126.932,457.93c14.565-27.259,10.755-64.711,9.296-75.263
		c-3.722,2.463-7.922,4.775-12.582,6.642l-0.329,0.132h-0.794l-0.329-0.132c-4.66-1.867-8.859-4.179-12.581-6.641
		c-1.458,10.559-5.261,48.036,9.3,75.274c1.634,2.264,3.021,5.039,4.007,8.18C123.907,462.976,125.295,460.196,126.932,457.93z
		 M178.823,472.127c-0.001-1.947-0.267-3.942-0.791-5.932c-0.734-2.805-1.919-5.375-3.427-7.435
		c-1.583-2.157-3.255-3.165-4.002-3.537c-0.942-0.428-1.857-0.564-2.675-0.357c-0.805,0.205-1.523,0.726-2.129,1.547l-1.281,1.733
		l-1.512-1.536c-0.516-0.524-1.047-0.979-1.577-1.352c-0.407-0.288-0.756-0.505-1.07-0.666c-1.341-0.721-2.575-0.933-3.7-0.65
		l-0.015,0.004c-0.811,0.206-1.453,0.825-1.687,1.628l-1.503,5.144l-1.875-5.278c-0.404-1.138-1.13-2.161-2.151-2.807
		c-0.65-0.411-1.379-0.679-2.178-0.679c-0.945,0-2.031,0.709-2.881,1.419c-0.911,0.76-1.591,1.76-2.005,2.872l-1.827,4.901
		l-1.468-4.674c-0.164-0.522-0.562-0.962-1.092-1.1c-0.003-0.001-0.006-0.002-0.009-0.002c-4.296-1.095-9.76,4.963-11.928,13.209
		c-1.475,5.639-1.152,11.24,0.843,14.614c0.831,1.405,1.868,2.272,3.083,2.579c2.263,0.578,5.056-0.932,7.479-3.969
		c0.313-0.392,0.542-0.844,0.701-1.319l2.39-7.121l1.203,7.558c0.116,0.727,0.369,1.432,0.773,2.048
		c1.41,2.151,3.076,3.35,4.737,3.35c1.997,0,4.011-1.756,5.55-4.771c0.23-0.45,0.388-0.933,0.499-1.425l1.532-6.759l2.111,6.048
		c0.28,0.803,0.719,1.549,1.311,2.158c2.157,2.217,4.502,3.263,6.424,2.773c0.76-0.194,1.392-0.591,1.917-1.087
		c0.834-0.789,1.283-1.904,1.352-3.05l0.378-6.285l2.873,5.284c0.564,1.037,1.626,1.769,2.806,1.763
		c0.26-0.001,0.523-0.032,0.787-0.1c1.614-0.406,2.568-1.983,3.083-3.235c0.266-0.653,0.481-1.398,0.637-2.206
		c0.177-0.878,0.275-1.853,0.302-2.906C178.815,472.389,178.821,472.261,178.823,472.127z M207.619,458.003
		c-0.227-1.698-0.695-3.419-1.391-5.107c-0.979-2.381-2.323-4.505-3.887-6.143c-2.186-2.267-4.551-3.278-6.164-2.635
		c-0.657,0.26-1.181,0.76-1.606,1.526l-1.047,1.892l-1.701-1.336c-0.521-0.41-1.028-0.74-1.507-0.983
		c-1.142-0.616-2.762-1.203-4.231-0.621c-0.613,0.242-1.153,0.674-1.607,1.284l-1.327,1.784l-1.505-1.636
		c-0.99-1.076-2.51-2.325-4.196-2.104c-1.115,0.212-4.89,4.019-4.896,8.154c1.501,0.77,2.962,1.979,4.292,3.578
		c0.015,0.018,0.03,0.035,0.045,0.053c0.232,0.281,0.461,0.569,0.684,0.873c1.781,2.432,3.171,5.432,4.02,8.678
		c0.604,2.297,0.911,4.611,0.911,6.877v0.014c-0.004,0.478-0.024,0.934-0.053,1.381c-0.004,0.055-0.003,0.115-0.006,0.17
		c1.559-0.742,2.896-2.829,3.673-5.822l0.834-3.209l2.284,2.404c2.603,2.739,5.449,3.952,7.431,3.166
		c1.547-0.616,2.301-2.258,2.661-3.528l0.611-2.159l1.999,1.022c0.863,0.442,2.133,0.875,3.278,0.421
		c1.299-0.512,1.924-1.955,2.22-3.077C207.791,461.536,207.855,459.837,207.619,458.003z M284.059,317.307
		c-8.41-18.226-15.726-34.104-8.227-51.821c-2.517,0.275-5.01,0.408-7.567,0.545c3.194-1.29,6.528-2.652,9.533-4.274l0.166-0.1
		c0.193-0.117,17.543-10.819,20.724-29.322c-3.708,4.44-8.247,8.501-13.622,9.984c2.234-3.277,4.68-5.933,7.145-8.614
		c6.55-7.239,11.91-16.286,12.009-26.192c-10.794,3.784-20.627,10.64-27.892,19.459c-16.961,20.621-15.472,48.663-8.033,72.859
		c2.562,8.676,6.654,18.084,9.917,26.548c1.176,3.512,2.729,7.846,3.63,11.437l1.238,4.646c0.63,2.671,1.128,5.564,1.687,8.257
		c0.176,1.312,0.614,4.729,0.777,5.983c0.318,2.232,0.347,4.983,0.507,7.232c0.134,2.004-0.057,5.316-0.061,7.265
		c-1.59,34.881-27.139,59.343-59.713,68.021c-6.248,1.61-12.647,2.74-19.287,2.558c0,0,0.006-0.151,0.007-0.166
		c-0.842,0.972-1.57,1.786-2.162,2.434c0.054,0.055,0.109,0.105,0.163,0.161c1.883,1.973,3.483,4.491,4.634,7.29
		c0.817,1.979,1.368,4.009,1.638,6.032c0.011,0.085,0.012,0.164,0.022,0.248c4.639-0.299,19.908-1.766,36.31-8.599
		c26.073-10.86,42.491-29.411,48.799-55.137C304.403,361.399,293.595,337.974,284.059,317.307z M116.56,156.112
		c0-1.141-0.925-2.067-2.067-2.067c-1.141,0-2.067,0.925-2.067,2.067s0.925,2.067,2.067,2.067
		C115.635,158.179,116.56,157.253,116.56,156.112z M110.97,153.069c0-1.141-0.925-2.067-2.067-2.067s-2.067,0.925-2.067,2.067
		s0.925,2.067,2.067,2.067S110.97,154.21,110.97,153.069z M87.47,96.406l-1.835-1.757l2.533-0.147
		c0.293-0.015,7.275-0.391,13.159,1.226c6.582,1.808,6.96,9.326,6.24,13.048l-0.32,1.656l-1.39-0.956
		c0.001,0,0.001,0.001,0.001,0.001c-0.006,0-0.807-0.421-3.012-0.513c-0.433-0.018-0.885-0.024-1.349-0.03
		c-2.398-0.031-5.383-0.069-7.923-1.85c-2.446-1.715-3.028-3.814-3.541-5.665c-0.169-0.609-0.328-1.185-0.547-1.76
		C88.699,97.598,87.482,96.418,87.47,96.406z M105.436,104.96c-0.525,0.722-1.162,1.334-1.875,1.835
		c0.826,0.061,1.488,0.165,1.998,0.282c0.051-0.632,0.078-1.448,0.013-2.336C105.524,104.813,105.487,104.89,105.436,104.96z
		 M94.62,105.1c0.076,0.058,0.141,0.117,0.223,0.175c1.427,1,3.066,1.293,4.734,1.392c0.13-0.014,0.26-0.024,0.389-0.045
		c1.695-0.28,3.179-1.191,4.179-2.566c0.428-0.589,0.737-1.234,0.937-1.909c-0.299-0.917-0.755-1.8-1.433-2.544
		c0.222,1.307-0.111,2.698-1.043,3.799c-1.699,2.008-4.728,2.283-6.767,0.618c-0.117-0.096-0.228-0.192-0.336-0.299
		c0.774-0.064,1.524-0.423,2.058-1.055c1.057-1.249,0.889-3.103-0.38-4.138c-0.675-0.551-1.521-0.76-2.331-0.645
		c0.11-0.173,0.236-0.345,0.373-0.507c0.131-0.154,0.272-0.295,0.417-0.429c-0.685-0.072-1.352-0.13-1.989-0.17
		C91.77,99.418,92.228,102.998,94.62,105.1z M90.451,96.667c0.265,0.423,0.537,0.917,0.79,1.472c0.153-0.498,0.356-0.982,0.61-1.446
		C91.347,96.678,90.868,96.669,90.451,96.667z M129.278,156.112c0,1.141,0.925,2.067,2.067,2.067c1.141,0,2.067-0.925,2.067-2.067
		s-0.925-2.067-2.067-2.067S129.278,154.97,129.278,156.112z M157.807,225.298c-2.367,4.306-4.789,8.303-7.199,12.652
		c0.048-0.023,0.097-0.051,0.145-0.075c-0.05,0.09-0.101,0.179-0.151,0.27c6.872-3.248,15.077-17.331,15.357-24.865
		c-0.005,0.005-0.009,0.009-0.014,0.014c0.004-0.067,0.011-0.137,0.014-0.203C162.383,216.567,160.35,221.117,157.807,225.298z
		 M138.27,108.775c-0.719-3.722-0.341-11.239,6.241-13.048c5.884-1.617,12.866-1.241,13.159-1.226l2.566,0.146l-1.871,1.761
		c-0.009,0.009-1.226,1.189-2.012,3.25c-0.219,0.575-0.378,1.151-0.547,1.759c-0.514,1.852-1.095,3.95-3.541,5.666
		c-2.54,1.781-5.525,1.819-7.923,1.85c-0.465,0.006-0.916,0.012-1.349,0.03c-2.256,0.093-3.042,0.532-3.05,0.537l-1.39,0.955
		L138.27,108.775z M153.988,96.693c0.254,0.465,0.457,0.948,0.61,1.447c0.253-0.555,0.525-1.05,0.79-1.473
		C154.97,96.669,154.491,96.678,153.988,96.693z M140.755,102.146c0.2,0.674,0.509,1.32,0.937,1.909
		c1,1.375,2.484,2.287,4.179,2.566c0.13,0.021,0.259,0.031,0.389,0.045c1.669-0.099,3.308-0.391,4.734-1.392
		c0.081-0.057,0.146-0.116,0.222-0.174c2.392-2.101,2.851-5.682,0.969-8.325c-0.637,0.04-1.304,0.098-1.989,0.17
		c0.145,0.134,0.286,0.274,0.417,0.428c0.138,0.163,0.264,0.334,0.373,0.507c-0.81-0.114-1.656,0.094-2.331,0.645
		c-1.269,1.036-1.437,2.889-0.38,4.138c0.535,0.632,1.285,0.991,2.058,1.055c-0.108,0.107-0.219,0.203-0.336,0.299
		c-2.039,1.665-5.068,1.39-6.767-0.618c-0.932-1.101-1.265-2.492-1.043-3.799C141.51,100.346,141.054,101.229,140.755,102.146z
		 M140.279,107.077c0.51-0.117,1.172-0.22,1.998-0.282c-0.713-0.501-1.35-1.113-1.875-1.835c-0.051-0.07-0.088-0.147-0.136-0.219
		C140.2,105.629,140.228,106.445,140.279,107.077z M120.017,147.288c0.293,1.46,0.769,2.372,1.249,2.942
		c-0.332,4.461-0.967,9.422-4.217,12.452c-2.152,1.685-5.073,2.001-7.588,0.858c-1.071-0.462-2.105-1.192-3.218-2.016
		c0.318,1.34,1.006,2.623,2.084,3.644c3.454,3.361,9.48,2.03,12.409-1.433c0.922-1.164,1.64-2.4,2.191-3.688
		c1.763,4.208,5.083,7.414,10.482,7.024c3.025-0.287,5.562-2.698,6.186-5.547c-1.977,1.503-3.985,2.739-6.375,2.692
		c-6.988-0.177-8.196-7.989-8.653-13.981c0.482-0.57,0.96-1.483,1.254-2.948c1.232-6.143,10.836-3.646,11.674-9.718
		c0.73-5.294-11.443-4.699-14.576-4.459c-3.133-0.239-15.306-0.834-14.576,4.459C109.181,143.642,118.785,141.145,120.017,147.288z
		 M136.935,151.002c-1.141,0-2.067,0.925-2.067,2.067s0.925,2.067,2.067,2.067c1.141,0,2.067-0.925,2.067-2.067
		S138.076,151.002,136.935,151.002z"/>
</g>
</svg>
