<?xml version="1.0" encoding="utf-8"?>
<!-- Generator: Adobe Illustrator 28.3.0, SVG Export Plug-In . SVG Version: 6.00 Build 0)  -->
<svg version="1.1" id="lynx_00000168835694501622161240000015822708079448573592_"
	 xmlns="http://www.w3.org/2000/svg" xmlns:xlink="http://www.w3.org/1999/xlink" x="0px" y="0px" viewBox="0 0 232.479 490"
	 enable-background="new 0 0 232.479 490" xml:space="preserve">
<g id="lynx">
	<g>
		<path fill="#D69A72" d="M173.229,122.411c-0.064-1.865-1.208-9.969,4.138-8.554c2.165,0.572,1.787,5.324,1.751,7.311
			c-0.05,2.909-0.486,5.867,0.179,8.697c0.422,1.794,1.279,3.53,1.165,5.36c-0.107,1.586-0.922,3.023-1.272,4.567
			c-0.843,3.73,0.936,8.211-1.529,11.141c-1.408,1.672-3.809,2.208-5.288,3.816c-0.958,1.043-1.436,2.423-2.173,3.63
			c-1.558,2.58-6.732,6.16-10.92,3.38c-2.058-1.365,0.672-5.76,2.951-6.696c4.452-1.815,3.895-5.438,5.517-8.769
			c0.622-1.265,5.689-3.702,2.423-13.056C168.419,128.228,173.393,127.706,173.229,122.411z"/>
		<path fill="#D69A72" d="M210.554,314.756c-4.402,31.559-15.15,75.266-39.334,131.344c2.065-0.958,4.81-1.143,7.061,0.229
			c0.579-0.486,1.215-0.865,1.908-1.143c2.23-0.872,4.738-0.6,7.289,0.786c0.179,0.093,0.364,0.193,0.557,0.3
			c0.658-0.693,1.429-1.222,2.308-1.565c1.365-0.55,2.873-0.586,4.424-0.164c3.352-4.166,6.446-8.469,8.94-13.214
			c2.323-4.202,5.017-10.755,7.061-15.186c0.357,3.738-0.143,7.447-1.208,11.027c17.816-15.958,12.328-45.065,12.27-45.387
			l-1.644-8.29l7.525,10.72C233.366,350.088,217.486,324.154,210.554,314.756z M214.542,417.428
			c0.179-5.381,1.101-10.398,1.715-15.665c0.8-5.245,1.501-10.369,3.166-15.493C221.81,395.41,219.787,409.546,214.542,417.428z
			 M226.04,372.828c-1.987-6.167-2.952-12.328-4.488-18.559c-1.251-6.31-3.116-12.313-2.887-18.909
			C224.218,342.656,227.87,363.802,226.04,372.828z"/>
		<path fill="#D69A72" d="M21.925,314.756c-6.932,9.398-22.811,35.339-17.159,69.456l7.525-10.72l-1.644,8.29
			c-0.057,0.322-5.546,29.436,12.27,45.387c-1.065-3.58-1.565-7.289-1.208-11.027c2.058,4.466,4.724,10.962,7.061,15.186
			c2.494,4.745,5.589,9.047,8.94,13.221c1.551-0.429,3.066-0.386,4.431,0.157c0.872,0.35,1.644,0.872,2.301,1.565
			c0.207-0.121,0.415-0.229,0.615-0.329c2.494-1.358,5.01-1.629,7.218-0.765c0.7,0.279,1.344,0.665,1.922,1.151
			c2.251-1.372,4.995-1.186,7.061-0.236C37.075,390.022,26.327,346.315,21.925,314.756z M10.927,354.268
			c-1.536,6.232-2.501,12.385-4.488,18.559c-1.83-8.997,1.815-30.151,7.375-37.469C14.043,341.948,12.177,347.958,10.927,354.268z
			 M13.056,386.27c1.665,5.124,2.366,10.248,3.166,15.493c0.615,5.267,1.536,10.284,1.715,15.665
			C12.699,409.574,10.669,395.396,13.056,386.27z"/>
		<path fill="#D69A72" d="M94.44,406.401c-2.394,0.3-4.902-0.386-6.789-1.894c-0.65-0.522-1.265-1.208-1.344-2.037
			c-0.093-1.051,0.686-1.972,1.494-2.651c1.208-1.015,4.102-3.001,6.053-2.787c-0.279-5.474-0.429-10.82-0.486-15.915
			c-3.259,2.623-9.297,2.801-10.026-1.251c-0.343-1.894,0.55-3.873,2.015-5.124c1.458-1.251,3.402-1.822,5.324-1.908
			c0.893-0.036,1.865,0.079,2.666,0.45c0.021-3.495,0.086-6.839,0.172-9.983c-1.636,1.408-4.016,1.494-6.182,1.443
			c-1.844-0.043-3.709-0.136-5.453-0.715c-0.972-0.322-1.98-0.886-2.315-1.851c-0.157-0.45-0.15-0.943-0.136-1.422
			c0.05-1.587,0.2-3.244,1.05-4.588c0.943-1.479,2.63-2.365,4.352-2.708c1.729-0.35,3.509-0.221,5.26-0.086
			c1.479,0.121,2.758,0.665,3.723,1.465c0.414-9.233,0.986-15.865,1.229-18.466c-1.851-2.43-3.409-4.724-4.624-6.639l-0.222,5.01
			l-2.544-1.465c-7.868-4.524-13.292-11.313-16.508-16.322l0.071,3.402l-2.794-1.722c-11.07-6.825-16.265-19.331-18.495-26.856
			l-1.165,3.452l-2.044-2.173c-5.896-6.274-8.561-15.222-9.755-21.361l-2.258,5.689l-1.779-3.602
			c-7.339-14.829-5.639-29.836-4.073-37.183l-1.036,0.679c-1.258,3.609-6.267,20.217-4.845,50.961
			c0.064,1.344,0.143,2.737,0.236,4.159c3.423,0.686,7.532,3.459,9.205,5.967c1.444,2.158,1.951,4.86,3.545,6.918
			c1.858,2.408,4.874,3.545,7.446,5.16c2.58,1.615,5.002,4.359,4.402,7.347c-2.151,1.536-5.188,0.858-7.504-0.414
			c-2.323-1.272-4.395-3.08-6.939-3.816c-2.608-0.75-5.646-0.365-7.804-2.008c-0.193-0.15-0.364-0.307-0.529-0.472
			c0.736,5.71,1.679,11.834,2.894,18.402c2.151-0.715,5.981-0.457,7.489-0.472c1.586-0.021,3.202,0.036,4.674,0.622
			c3.73,1.465,5.51,5.76,8.847,7.975c1.329,0.886,2.916,1.444,3.988,2.623c0.3,0.329,0.557,0.707,0.657,1.143
			c0.307,1.258-0.758,2.465-1.937,3.016c-2.151,0.993-4.659,0.593-6.982,0.129c-3.244-0.65-6.468-1.408-9.669-2.258
			c-1.572-0.422-3.187-0.886-4.452-1.915c-0.193-0.157-0.379-0.336-0.55-0.514c6.267,29.457,17.559,66.519,37.361,111.298
			c1.008-0.172,2.001-0.143,2.966,0.1c1.043,0.264,1.994,0.758,2.837,1.479c0.236-0.193,0.472-0.364,0.707-0.536
			c0.579-0.4,1.058-0.693,1.515-0.929c2.065-1.115,4.238-1.451,6.26-0.943c0.8,0.2,1.558,0.529,2.265,0.979
			c1.851-2.022,4.009-3.087,6.31-3.087c2.601,0,5.074,1.415,7.089,4.016c0.422-0.193,0.872-0.357,1.329-0.472
			c0.986-0.25,2.008-0.3,3.03-0.164C97.777,437.245,95.583,421.523,94.44,406.401z M42.685,369.533
			c-0.364-0.086-0.729-0.193-1.043-0.4c-0.429-0.286-0.707-0.743-0.915-1.215c-2.015-4.609,2.58-8.797,6.732-9.562
			c2.237-0.414,4.624,0.043,6.546,1.258c0.943,0.593,1.815,1.422,2.108,2.494c0.35,1.265-0.157,2.616-0.908,3.68
			c-1.322,1.901-3.402,3.216-5.646,3.809C47.323,370.198,44.936,370.098,42.685,369.533z M58.214,399.169
			c-1.136,0.743-2.58,0.8-3.931,0.736c-0.736-0.029-1.522-0.107-2.108-0.55c-0.765-0.579-0.993-1.629-1.015-2.58
			c-0.043-2.194,0.736-5.338,2.73-6.582c1.787-1.115,6.482-1.494,7.804,0.514c0.493,0.743,0.486,1.729,0.221,2.58
			c-0.264,0.858-0.757,1.615-1.186,2.401C60.03,396.954,59.422,398.369,58.214,399.169z M69.291,421.309
			c-0.364,0.493-0.929,0.786-1.486,1.036c-1.122,0.5-2.315,0.886-3.545,0.908c-1.229,0.014-2.501-0.379-3.359-1.265
			c-4.574-4.717,5.203-10.277,8.183-5.446c0.443,0.722,0.586,1.586,0.643,2.437C69.791,419.779,69.763,420.659,69.291,421.309z"/>
		<path fill="#D69A72" d="M204.666,237.282l-1.043-0.679c1.565,7.347,3.266,22.354-4.073,37.183l-1.779,3.602l-2.258-5.689
			c-1.194,6.139-3.859,15.086-9.755,21.361l-2.044,2.173l-1.165-3.452c-2.23,7.525-7.425,20.031-18.495,26.856l-2.794,1.722
			l0.071-3.402c-3.216,5.01-8.64,11.799-16.508,16.322l-2.551,1.465l-0.214-5.01c-1.215,1.915-2.773,4.209-4.624,6.646
			c0.243,2.594,0.815,9.226,1.229,18.459c0.965-0.8,2.244-1.344,3.723-1.465c1.751-0.136,3.53-0.264,5.26,0.086
			c1.722,0.343,3.409,1.229,4.352,2.708c0.85,1.344,1.001,3.002,1.05,4.588c0.014,0.479,0.021,0.972-0.136,1.422
			c-0.336,0.965-1.343,1.529-2.315,1.851c-1.744,0.579-3.609,0.672-5.453,0.715c-2.165,0.05-4.545-0.036-6.182-1.443
			c0.086,3.144,0.15,6.489,0.164,9.983c0.808-0.372,1.779-0.486,2.673-0.45c1.922,0.086,3.866,0.658,5.324,1.908
			c1.465,1.251,2.358,3.23,2.015,5.124c-0.729,4.052-6.768,3.873-10.026,1.251c-0.064,5.095-0.207,10.441-0.486,15.915
			c1.951-0.214,4.845,1.772,6.053,2.787c0.808,0.679,1.586,1.601,1.494,2.651c-0.079,0.829-0.693,1.515-1.344,2.037
			c-1.887,1.508-4.395,2.194-6.789,1.894c-1.143,15.122-3.337,30.844-7.225,45.172c1.022-0.136,2.037-0.086,3.023,0.164
			c0.464,0.114,0.908,0.279,1.336,0.479c2.015-2.609,4.488-4.023,7.089-4.023c2.301,0,4.459,1.065,6.31,3.087
			c0.707-0.45,1.465-0.779,2.265-0.979c2.015-0.507,4.195-0.172,6.296,0.965c0.422,0.214,0.9,0.507,1.472,0.9
			c0.236,0.172,0.479,0.35,0.715,0.543c0.843-0.722,1.787-1.215,2.837-1.479c0.965-0.243,1.958-0.271,2.966-0.1
			c19.803-44.779,31.094-81.841,37.361-111.298c-0.172,0.179-0.357,0.357-0.55,0.514c-1.265,1.029-2.88,1.494-4.452,1.915
			c-3.202,0.85-6.425,1.608-9.669,2.258c-2.323,0.465-4.831,0.865-6.982-0.129c-1.179-0.55-2.244-1.758-1.937-3.016
			c0.1-0.436,0.357-0.815,0.657-1.143c1.072-1.179,2.658-1.737,3.988-2.623c3.337-2.215,5.117-6.51,8.847-7.975
			c1.472-0.586,3.087-0.643,4.674-0.622c1.508,0.014,5.338-0.243,7.489,0.472c1.215-6.568,2.158-12.692,2.894-18.402
			c-0.164,0.164-0.336,0.322-0.529,0.472c-2.158,1.644-5.195,1.258-7.811,2.008c-2.537,0.736-4.609,2.544-6.932,3.816
			c-2.315,1.272-5.353,1.951-7.504,0.414c-0.6-2.987,1.822-5.731,4.402-7.347c2.573-1.615,5.588-2.751,7.447-5.16
			c1.594-2.058,2.101-4.759,3.545-6.918c1.672-2.508,5.781-5.281,9.205-5.967c0.093-1.422,0.172-2.816,0.236-4.159
			C210.926,257.506,205.916,240.905,204.666,237.282z M171.578,421.988c-0.858,0.886-2.13,1.279-3.359,1.265
			c-1.229-0.021-2.423-0.407-3.545-0.908c-0.557-0.25-1.122-0.543-1.486-1.036c-0.472-0.65-0.5-1.529-0.436-2.33
			c0.057-0.85,0.2-1.715,0.643-2.437C166.375,411.711,176.151,417.271,171.578,421.988z M180.304,399.355
			c-0.586,0.443-1.372,0.522-2.108,0.55c-1.358,0.064-2.794,0.007-3.931-0.736c-1.208-0.801-1.815-2.215-2.515-3.48
			c-0.429-0.786-0.922-1.544-1.186-2.401c-0.264-0.85-0.271-1.837,0.222-2.58c1.322-2.008,6.017-1.629,7.804-0.514
			c1.994,1.243,2.773,4.388,2.73,6.582C181.297,397.726,181.068,398.776,180.304,399.355z M185.02,358.356
			c4.152,0.765,8.747,4.952,6.732,9.562c-0.207,0.472-0.486,0.929-0.915,1.215c-0.314,0.207-0.679,0.314-1.043,0.4
			c-2.251,0.565-4.638,0.665-6.875,0.064c-2.244-0.593-4.324-1.908-5.646-3.809c-0.75-1.065-1.258-2.415-0.908-3.68
			c0.293-1.072,1.165-1.901,2.108-2.494C180.396,358.399,182.783,357.942,185.02,358.356z"/>
		<path fill="#D69A72" d="M201.4,209.468l-4.231-7.196l13.807,9.812c-2.844-15.987-13.035-25.984-13.142-26.092l-6.353-6.125
			l15.222,5.86c-5.631-17.744-14.293-26.399-18.109-29.522c-0.786,2.423-1.865,4.76-3.294,6.961
			c-0.565-0.515-1.608-1.451-2.587-2.323c-0.472,0.922-0.986,1.808-1.558,2.73c-3.33,5.381-8.14,9.783-13.914,12.492
			c-0.236-0.65-0.779-2.094-1.301-3.466c-7.475,7.639-18.438,11.527-29.05,11.22c-3.859-0.086-7.69-0.629-11.406-1.536
			c0,0,0.029-0.129,0.036-0.136c-2.887,1.315-6.139,1.865-9.283,1.651c-3.137,0.214-6.389-0.336-9.276-1.651
			c0.021,0.086,0.036,0.136,0.036,0.136c-3.716,0.908-7.547,1.451-11.406,1.536c-10.612,0.307-21.575-3.588-29.057-11.22
			c-0.507,1.372-1.043,2.823-1.293,3.466c-6.753-3.166-12.12-8.647-15.472-15.229c-0.972,0.872-2.015,1.822-2.587,2.33l-1.101-1.901
			c-0.915-1.629-1.644-3.316-2.208-5.045c-3.823,3.13-12.471,11.784-18.095,29.507l15.272-5.881l-6.403,6.146
			c-0.107,0.107-10.298,10.105-13.142,26.092l13.807-9.812l-4.231,7.196c-0.071,0.129-7.204,12.428-8.24,26.799l12.299-8.047
			l-1.686,4.924c-0.064,0.186-5.817,17.523,0.993,35.21l4.71-11.877l0.45,8.118c0.007,0.157,0.865,14.171,7.754,23.626l3.495-10.384
			l1.136,7.196c0.029,0.2,3.087,18.724,15.508,28.593l-0.293-13.106l3.637,8.49c0.05,0.129,5.303,12.113,16.051,19.56l0.507-11.692
			l3.08,5.917c0.114,0.207,10.755,20.382,25.756,27.95c15.007-7.568,25.648-27.742,25.763-27.95l3.08-5.917l0.507,11.692
			c10.748-7.447,16.001-19.431,16.058-19.56l3.63-8.447l-0.293,13.064c12.42-9.876,15.479-28.393,15.508-28.593l1.136-7.196
			l3.495,10.384c6.889-9.455,7.747-23.469,7.754-23.626l0.45-8.118l4.709,11.877c6.811-17.687,1.058-35.025,0.993-35.21
			l-1.679-4.917l12.292,8.04C208.603,221.896,201.471,209.597,201.4,209.468z M59.629,178.31c3.166,0.014,7.59,2.094,10.377,4.688
			c1.101,1.015,1.922,2.28,2.465,3.673c0.979,2.494,2.787,7.039-2.594,8.454c-3.337,0.872-10.734-5.167-13.542-11.299
			C55.091,181.111,56.535,178.195,59.629,178.31z M39.791,191.331c10.384-9.976,17.623,5.51,21.311,8.461
			c1.272,1.015,2.53,3.466,3.266,4.917c0.736,1.444,0.9,3.28,0.043,4.659c-1.544,2.516-5.26,2.287-8.083,1.415
			C52.211,209.511,33.145,197.719,39.791,191.331z M49.053,237.289c-0.2,0.586-0.622,1.079-1.079,1.501
			c-1.536,1.415-4.381,2.158-7.046,0.565c-3.223-1.929-5.153-9.648,5.267-5.853C47.895,234.123,49.639,235.574,49.053,237.289z
			 M44.936,225.262c-2.53-1.801-2.73-5.167,0.107-6.668c2.859-1.622,7.911-2.037,11.756-1.143c1.508,0.343,2.909,1.058,4.109,2.03
			c2.165,1.737,6.146,4.888,2.03,8.94C60.394,230.929,50.625,229.314,44.936,225.262z M61.587,247.294
			c-3.687-0.35-9.633-3.195-7.018-7.99c1.894-3.473,9.419-3.445,12.456-2.115c2.301,1.008,4.102,3.516,3.552,5.96
			c-0.4,1.765-1.922,3.116-3.623,3.723C65.254,247.487,63.388,247.466,61.587,247.294z M73.379,286.192
			c-0.815,0.236-1.679,0.372-2.508,0.193c-1.644-0.357-2.959-1.093-3.709-4.116c0,0,0.529-8.118,8.418-10.155
			c1.151-0.293,2.451,0.164,3.337,0.958c0.565,0.493,0.922,1.186,1.165,1.901C81.647,279.589,78.067,284.863,73.379,286.192z
			 M87.422,291.051c-0.493,3.144-3.316,5.767-6.489,6.032c-0.314,0.029-0.65,0.029-0.951-0.086c-0.8-0.3-2.68-3.495-0.643-5.853
			c2.673-3.087,4.631-3.087,4.631-3.087c0.615-0.05,2.051-0.05,2.58,0.264C87.422,288.836,87.579,290.044,87.422,291.051z
			 M97.498,312.083c-0.9,1.744-3.294,3.223-5.045,2.337c-1.687-0.85-1.544-3.237-0.965-4.759c0.264-0.686,1.772-2.33,3.816-2.008
			C97.248,307.967,98.406,310.332,97.498,312.083z M140.026,314.42c-1.751,0.886-4.145-0.593-5.045-2.337
			c-0.908-1.751,0.25-4.116,2.194-4.431c2.044-0.322,3.552,1.322,3.816,2.008C141.57,311.183,141.713,313.57,140.026,314.42z
			 M192.688,191.331c6.646,6.389-12.42,18.18-16.537,19.452c-2.823,0.872-6.539,1.101-8.083-1.415
			c-0.858-1.379-0.693-3.216,0.043-4.659c0.736-1.451,1.994-3.902,3.266-4.917C175.065,196.84,182.304,181.354,192.688,191.331z
			 M160.008,186.671c0.543-1.394,1.365-2.658,2.465-3.673c2.787-2.594,7.211-4.674,10.377-4.688
			c3.094-0.114,4.538,2.801,3.294,5.517c-2.808,6.132-10.205,12.17-13.542,11.299C157.221,193.71,159.029,189.165,160.008,186.671z
			 M152.497,296.997c-0.3,0.114-0.636,0.114-0.95,0.086c-3.173-0.264-5.996-2.887-6.489-6.032c-0.157-1.008,0-2.215,0.872-2.73
			c0.529-0.314,1.965-0.314,2.58-0.264c0,0,1.958,0,4.631,3.087C155.177,293.503,153.297,296.697,152.497,296.997z M161.609,286.385
			c-0.829,0.179-1.694,0.043-2.508-0.193c-4.688-1.329-8.268-6.603-6.703-11.22c0.243-0.715,0.6-1.408,1.165-1.901
			c0.886-0.793,2.187-1.251,3.337-0.958c7.89,2.037,8.418,10.155,8.418,10.155C164.567,285.291,163.252,286.027,161.609,286.385z
			 M170.892,247.294c-1.801,0.172-3.666,0.193-5.367-0.422c-1.701-0.607-3.223-1.958-3.623-3.723
			c-0.55-2.444,1.251-4.952,3.552-5.96c3.037-1.329,10.562-1.358,12.456,2.115C180.525,244.1,174.579,246.944,170.892,247.294z
			 M169.541,228.42c-4.116-4.052-0.136-7.204,2.03-8.94c1.201-0.972,2.601-1.687,4.109-2.03c3.845-0.893,8.897-0.479,11.756,1.143
			c2.837,1.501,2.637,4.867,0.107,6.668C181.854,229.314,172.085,230.929,169.541,228.42z M191.552,239.354
			c-2.666,1.594-5.51,0.85-7.046-0.565c-0.457-0.422-0.879-0.915-1.079-1.501c-0.586-1.715,1.158-3.166,2.859-3.788
			C196.704,229.707,194.775,237.425,191.552,239.354z"/>
		<path fill="#D69A72" d="M190.165,120.688c-1.615-5.746-4.302-11.256-7.697-16.101l-2.473-3.437c1.615,0.229,4.509,0.643,6.975,1
			c-0.036-0.086-0.071-0.164-0.107-0.25c-3.423-7.154-8.854-12.914-13.835-19.052c3.244,1.515,6.267,3.552,8.94,5.989
			c-1.158-14.457,1.122-28.843,2.037-43.172c0.272-6.953,0.336-16.565-8.411-17.63c-13.449-2.001-23.44,10.198-30.644,19.974
			c-3.187,4.452-5.696,9.062-9.64,13.049c0.472-5.052,2.816-9.397,5.424-13.585c-8.833,3.387-20.331,4.045-23.94,4.166v0.029
			c-0.071,0-0.264-0.007-0.557-0.014c-0.286,0.007-0.479,0.014-0.55,0.014V51.64c-3.609-0.122-15.107-0.779-23.94-4.166
			c2.608,4.188,4.952,8.533,5.424,13.585c-3.945-3.988-6.453-8.597-9.64-13.049c-7.196-9.776-17.194-21.975-30.644-19.974
			c-8.747,1.065-8.683,10.67-8.411,17.63c0.915,14.329,3.194,28.714,2.037,43.172c2.666-2.43,5.696-4.466,8.94-5.989
			C54.47,88.987,49.038,94.747,45.615,101.9c-0.036,0.086-0.072,0.164-0.107,0.25c2.466-0.357,5.353-0.772,6.975-1l-2.473,3.437
			c-3.402,4.845-6.082,10.355-7.697,16.101c1.186-0.407,2.366-0.815,3.152-1.072c-1.436,6.053-2.444,12.378-2.265,18.631
			c1.329-0.886,2.737-1.822,3.623-2.408c-1.322,7.025-1.622,14.986,1.344,21.632c1.058-0.95,2.215-1.994,2.901-2.608
			c1.408,3.902,3.523,7.74,6.289,10.862c1.751,2.022,3.773,3.788,5.996,5.203c0.693-1.851,1.529-4.095,2.008-5.36
			c4.538,6.746,11.734,11.52,19.595,13.5c5.831,1.508,11.956,1.494,17.895,0.436c-1.179-0.986-2.265-2.115-3.173-3.359
			c-0.85-0.272-1.865-0.522-2.616-0.858c-7.933-2.973-12.735-9.691-11.67-18.273c1.101-8.247,5.31-16.129,11.777-21.361
			c-5.102,11.777-14.707,27.621,0.2,35.496c-0.186-0.908-0.264-1.844-0.2-2.808c1.672,1.787,3.052,3.409,4.466,4.967
			c2.723,3.109,6.224,5.295,10.234,6.139c1.422,0.293,2.88,0.45,4.374,0.507c1.487-0.057,2.944-0.214,4.367-0.507
			c4.009-0.843,7.511-3.03,10.234-6.139c1.415-1.558,2.794-3.18,4.467-4.967c0.064,0.965-0.014,1.901-0.2,2.808
			c14.907-7.875,5.303-23.726,0.2-35.496c6.467,5.231,10.677,13.114,11.777,21.361c1.065,8.583-3.738,15.3-11.67,18.273
			c-0.743,0.343-1.772,0.6-2.623,0.865c-0.9,1.236-1.994,2.365-3.166,3.352c5.939,1.058,12.063,1.072,17.895-0.436
			c7.861-1.979,15.058-6.753,19.595-13.5c0.472,1.258,1.315,3.516,2.008,5.36c2.23-1.415,4.245-3.18,5.996-5.203
			c2.766-3.123,4.881-6.961,6.289-10.862c0.672,0.615,1.837,1.658,2.901,2.608c2.966-6.646,2.666-14.607,1.344-21.632
			c0.879,0.593,2.294,1.529,3.623,2.408c0.179-6.253-0.829-12.585-2.265-18.631C187.793,119.881,188.979,120.281,190.165,120.688z
			 M153.962,49.567c1.258-1.365,2.58-2.709,4.388-3.745c0.665-0.386,1.558-0.722,2.351-0.843c0.386-0.057,0.965-0.207,1.193-0.414
			c0.143-0.122,0.207-0.2,0.271-0.386c0.343-0.95-0.143-2.787,0.629-4.138c0.743-1.515,2.766-1.808,4.188-1.637
			c0.808,0.043,1.394-0.2,2.037-0.858c1.122-1.122,2.037-3.373,4.016-3.78c2.801-0.45,5.031,2.315,6.296,4.402
			c3.495,6.818,1.644,14.865,0.908,22.025c-0.45,3.516-0.865,7.011-1.015,10.484c-0.186,3.488-0.322,6.868-0.293,10.534
			c-1.93-3.152-2.494-6.968-2.523-10.598c0.021-3.645,0.379-7.232,0.729-10.777c0.422-6.403,2.587-16.801-2.115-21.746
			c-0.343-0.372-0.95-0.893-1.315-1.015c-0.836,0.715-1.351,1.815-2.365,2.787c-1.122,1.236-3.137,1.994-4.895,1.729
			c-0.414-0.043-0.743,0-0.943,0.043c-0.172,0.643,0.043,2.201-0.522,3.659c-0.443,1.258-1.858,2.215-3.066,2.437
			c-0.8,0.172-1.487,0.186-2.223,0.607c-4.438,2.587-6.932,7.361-11.134,10.67C149.438,55.363,151.482,52.304,153.962,49.567z
			 M149.703,91.152c-5.496,4.045-9.691,9.326-15.015,13.557C136.982,98.885,143.192,91.896,149.703,91.152z M58.772,37.076
			c-0.357,0.129-0.972,0.636-1.315,1.015c-4.702,4.945-2.537,15.336-2.115,21.746c0.35,3.545,0.707,7.132,0.729,10.777
			c-0.029,3.63-0.593,7.446-2.523,10.598c0.029-3.666-0.107-7.046-0.293-10.534c-0.15-3.473-0.565-6.968-1.015-10.484
			c-0.736-7.161-2.587-15.208,0.908-22.025c1.265-2.087,3.495-4.852,6.296-4.402c1.98,0.407,2.894,2.658,4.016,3.78
			c0.643,0.657,1.229,0.9,2.037,0.858c1.422-0.172,3.445,0.121,4.188,1.637c0.772,1.351,0.293,3.187,0.629,4.138
			c0.064,0.186,0.129,0.264,0.272,0.386c0.229,0.207,0.808,0.357,1.193,0.414c0.793,0.122,1.687,0.457,2.351,0.843
			c1.808,1.036,3.13,2.38,4.388,3.745c2.48,2.737,4.524,5.796,5.403,9.44c-4.195-3.302-6.696-8.083-11.134-10.67
			c-0.736-0.422-1.422-0.436-2.223-0.607c-1.215-0.222-2.623-1.179-3.066-2.437c-0.565-1.451-0.35-3.023-0.522-3.659
			c-0.236-0.086-0.886-0.057-1.286-0.014c-1.658,0.179-3.509-0.629-4.552-1.758C60.122,38.898,59.601,37.783,58.772,37.076z
			 M97.791,104.709c-5.324-4.231-9.519-9.512-15.015-13.557C89.287,91.896,95.497,98.878,97.791,104.709z M73.2,161.759
			c-4.188,2.78-9.362-0.8-10.92-3.38c-0.736-1.208-1.215-2.587-2.173-3.63c-1.479-1.608-3.881-2.144-5.288-3.816
			c-2.465-2.93-0.686-7.411-1.529-11.141c-0.35-1.544-1.165-2.98-1.272-4.567c-0.114-1.83,0.743-3.566,1.165-5.36
			c0.665-2.83,0.229-5.789,0.179-8.697c-0.036-1.987-0.414-6.739,1.751-7.311c5.345-1.415,4.202,6.689,4.138,8.554
			c-0.164,5.295,4.81,5.817,3.059,10.827c-3.266,9.355,1.801,11.792,2.416,13.056c1.629,3.33,1.072,6.953,5.524,8.769
			C72.529,155.999,75.259,160.394,73.2,161.759z M81.94,126.356c-2.33,0.186-4.981-1.701-6.517-3.373
			c-1.558-1.694-2.544-4.052-2.158-6.317c0.379-2.18,2.558-1.601,3.409-0.565c2.358,2.873,1.179,4.302,3.366,5.924
			C81.619,123.197,84.949,126.113,81.94,126.356z M100.35,125.205c-0.014,0-1.608-0.379-4.366-0.114
			c-0.479,0.043-0.979,0.107-1.494,0.172c-2.616,0.329-5.874,0.743-8.912-0.843c-3.209-1.672-4.831-4.831-6.139-7.375
			c-0.221-0.436-0.436-0.85-0.65-1.243c-1.258-2.308-2.551-3.638-2.566-3.652l-0.493-0.5c-2.165,0.207-3.888,0.35-4.474,0.35
			c-0.85,0.007-1.729,0-2.537-0.172c-0.815-0.172-1.558-0.55-1.772-1.065c-0.229-0.557,0.193-1.129,0.693-1.615
			c0.536-0.529,1.229-1.036,2.172-1.258c0.55-0.129,1.151-0.143,1.729-0.121c1.822,0.071,9.347,0.693,14.114,1.429
			c2.251,0.121,4.674,0.614,6.925,1.794c7.053,3.673,8.997,12.578,9.083,12.956l0.35,1.679L100.35,125.205z M101.364,105.717
			c-3.445-6.953-6.282-14.264-10.991-20.489c7.361,4.181,11.806,15.415,12.549,23.519
			C102.336,107.753,101.85,106.731,101.364,105.717z M125.098,173.029c-2.737,1.929-6.775,1.258-8.876-1.329
			c-1.379,1.651-3.316,2.687-5.817,2.423c-3.102-0.307-5.674-2.937-6.253-5.781c2.566,1.594,5.274,3.344,7.982,1.901
			c0.986-0.672,1.601-1.729,2.015-2.93c-0.343-1.515-0.407-3.094-0.272-4.552c0,0-5.881-4.009-6.417-6.975
			c-1.308-7.232,5.674-5.774,8.783-4.788c3.102-0.986,10.084-2.444,8.776,4.788c-0.536,2.966-6.417,6.975-6.417,6.975
			c0.193,1.422,0.1,3.016-0.271,4.552c0.593,1.772,1.622,3.23,3.602,3.452c2.337,0.093,4.209-1.015,6.396-2.423
			C127.935,170.17,126.82,171.871,125.098,173.029z M129.557,108.754c0.743-8.104,5.188-19.345,12.549-23.526
			c-4.709,6.224-7.547,13.535-10.991,20.489C130.629,106.731,130.143,107.753,129.557,108.754z M146.901,124.419
			c-3.037,1.586-6.296,1.172-8.912,0.843c-0.515-0.064-1.015-0.129-1.494-0.172c-2.758-0.265-4.352,0.114-4.366,0.114l-1.658,0.407
			l0.343-1.665c0.086-0.379,2.03-9.283,9.083-12.956c0.915-0.479,1.865-0.843,2.816-1.122c3.059-0.986,15.065-2.008,17.423-2.101
			c0.586-0.021,1.186-0.007,1.737,0.121c0.943,0.222,1.637,0.729,2.173,1.258c0.493,0.486,0.922,1.058,0.693,1.615
			c-0.214,0.515-0.958,0.893-1.772,1.065c-0.808,0.172-1.687,0.179-2.544,0.172c-0.507,0-1.915-0.107-3.738-0.279l-0.429,0.436
			c-0.014,0.007-1.308,1.336-2.566,3.645c-0.214,0.393-0.429,0.815-0.65,1.243C151.732,119.588,150.11,122.747,146.901,124.419z
			 M150.539,126.356c-3.009-0.243,0.322-3.159,1.894-4.331c2.194-1.622,1.015-3.052,3.373-5.924c0.85-1.036,3.03-1.615,3.409,0.565
			c0.386,2.265-0.6,4.624-2.158,6.317C155.52,124.655,152.868,126.541,150.539,126.356z M180.461,135.224
			c-0.107,1.586-0.922,3.023-1.272,4.567c-0.843,3.73,0.936,8.211-1.529,11.141c-1.408,1.672-3.809,2.208-5.288,3.816
			c-0.958,1.043-1.436,2.423-2.173,3.63c-1.558,2.58-6.732,6.16-10.92,3.38c-2.058-1.365,0.672-5.76,2.951-6.696
			c4.452-1.815,3.895-5.438,5.517-8.769c0.622-1.265,5.689-3.702,2.423-13.056c-1.751-5.01,3.223-5.531,3.059-10.827
			c-0.064-1.865-1.208-9.969,4.138-8.554c2.165,0.572,1.787,5.324,1.751,7.311c-0.05,2.909-0.486,5.867,0.179,8.697
			C179.717,131.658,180.575,133.395,180.461,135.224z"/>
	</g>
	<g>
		<polygon fill="#FFFFFF" points="77.588,111.334 81.888,118.054 83.969,110.84 		"/>
		<polygon fill="#FFFFFF" points="97.687,117.083 101.033,124.228 94.721,124.228 96.24,121.384 97.877,118.956 		"/>
		<polygon fill="#FFFFFF" points="155.015,111.334 150.714,118.054 148.633,110.84 		"/>
		<polygon fill="#FFFFFF" points="134.915,117.083 131.569,124.228 137.882,124.228 136.362,121.384 134.725,118.956 		"/>
		<path fill="#FFFFFF" d="M203.386,464.166c0,1.036-0.107,1.994-0.329,2.83c-0.3,1.143-0.929,2.616-2.265,3.137
			c-1.172,0.465-2.473,0.021-3.352-0.429l-1.944-0.993l-0.586,2.101c-0.364,1.286-1.129,2.959-2.709,3.58
			c-2.015,0.808-4.902-0.422-7.547-3.194l-2.215-2.323l-0.808,3.109c-0.929,3.609-2.68,5.917-4.645,6.174
			c-0.05,0-0.121,0.007-0.2,0.014c0.665-2.208,0.757-3.223,0.722-3.752c0.021-0.193,0.029-0.407,0.05-0.615
			c0.007-0.143,0.029-0.286,0.036-0.436c0.021-0.336,0.029-0.693,0.036-1.058c0-0.057,0.007-0.114,0.007-0.179v-0.014
			c0-2.28-0.307-4.602-0.915-6.896c-0.85-3.244-2.237-6.253-4.031-8.711c-0.757-1.022-1.558-1.915-2.401-2.673l-0.136-0.122
			c-0.414-0.372-0.472-0.657-0.429-0.986c0.157-1.172,1.708-2.773,2.93-3.366c1.351-0.658,3.252-0.722,4.467,0.593l1.458,1.594
			l1.286-1.729c0.465-0.622,1.022-1.072,1.644-1.315c1.508-0.593,3.152,0,4.324,0.636c0.464,0.229,0.965,0.55,1.522,0.986
			l1.651,1.293l1.008-1.837c0.436-0.786,0.972-1.293,1.651-1.565c1.644-0.657,4.045,0.364,6.26,2.666
			c1.579,1.651,2.937,3.795,3.916,6.189c0.707,1.715,1.172,3.452,1.401,5.153C203.344,462.772,203.386,463.487,203.386,464.166z"/>
		<path fill="#FFFFFF" d="M174.065,472.105c0,0.15-0.014,0.293-0.014,0.443c-0.014,0.479-0.043,0.936-0.093,1.365
			c-0.007,0.107-0.014,0.222-0.029,0.322v0.014c-0.05,0.4-0.107,0.786-0.186,1.186c-0.157,0.822-0.372,1.572-0.643,2.222
			c-0.522,1.272-1.494,2.88-3.151,3.287c-1.036,0.264-2.065-0.029-2.923-0.45l-3.58-6.589l-0.472,7.84
			c-0.665,1.158-1.672,2.315-3.173,2.694c-2.165,0.55-4.745-0.715-7.096-3.423h0.021l-2.558-7.332l-1.587,6.425
			c-1.608,3.959-3.973,6.317-6.317,6.317c-1.901,0-3.809-1.536-5.338-4.266l-1.408-8.811l-2.708,8.083
			c-2.53,3.366-5.517,5.06-7.933,4.445c-1.722-0.436-2.887-1.887-3.559-3.023c-2.094-3.537-2.53-9.026-1.143-14.336
			c2.337-8.883,8.669-14.35,12.778-13.321c0.286,0.072,0.557,0.179,0.822,0.307l1.744,5.567l2.38-6.389h-0.1
			c0.979-1.351,2.53-2.916,4.467-2.916c1.572,0,2.88,1.015,3.838,2.123l2.401,6.746l1.815-6.203c0.436-0.314,0.9-0.543,1.394-0.665
			c1.151-0.293,2.401-0.071,3.766,0.665c0.307,0.157,0.65,0.364,1.079,0.665c0.543,0.386,1.079,0.843,1.586,1.358l1.458,1.501
			l1.251-1.679c0.636-0.85,1.351-1.372,2.18-1.586c1.415-0.35,3.087,0.243,4.731,1.679c0.036,0.036,0.071,0.064,0.107,0.1
			l0.007,0.007c0.672,0.593,1.322,1.322,1.937,2.151c1.522,2.087,2.716,4.681,3.452,7.504c0.129,0.5,0.25,1,0.35,1.501
			C173.915,469.133,174.065,470.633,174.065,472.105z"/>
		<path fill="#FFFFFF" d="M111.162,482.854c-0.672,1.136-1.837,2.587-3.566,3.023c-2.401,0.615-5.396-1.079-7.925-4.445
			l-2.709-8.083l-1.408,8.819c-1.529,2.723-3.437,4.259-5.338,4.259c-2.344,0-4.709-2.358-6.317-6.317l-1.587-6.425l-2.558,7.332
			h0.021c-2.351,2.708-4.931,3.973-7.096,3.423c-1.501-0.379-2.508-1.536-3.173-2.694l-0.472-7.84l-3.587,6.589
			c-0.85,0.429-1.887,0.715-2.93,0.45c-1.644-0.407-2.616-2.015-3.137-3.28c-0.272-0.657-0.486-1.408-0.643-2.237
			c-0.079-0.393-0.143-0.779-0.186-1.193c-0.086-0.65-0.129-1.365-0.136-2.122c0-0.3,0.021-0.607,0.029-0.915
			c0.014-0.186,0.007-0.379,0.021-0.565c0.021-0.35,0.064-0.708,0.107-1.058c0.014-0.143,0.021-0.293,0.043-0.443
			c0.057-0.4,0.129-0.8,0.2-1.201c0.021-0.1,0.029-0.2,0.05-0.3c0.1-0.507,0.221-1.008,0.35-1.508
			c0.736-2.816,1.93-5.41,3.452-7.489c0.615-0.843,1.265-1.565,1.937-2.158v-0.007c0.021-0.021,0.043-0.036,0.064-0.057
			c0.014-0.014,0.036-0.029,0.05-0.043c1.644-1.436,3.323-2.03,4.724-1.679c0.836,0.214,1.551,0.736,2.187,1.586l1.251,1.679
			l1.465-1.501c0.5-0.515,1.036-0.972,1.572-1.351c0.436-0.307,0.779-0.515,1.129-0.693c1.322-0.715,2.573-0.936,3.723-0.643
			c0.493,0.122,0.958,0.35,1.394,0.665l1.815,6.203l2.401-6.746c0.958-1.108,2.265-2.123,3.838-2.123
			c1.937,0,3.487,1.565,4.466,2.916h-0.107l2.387,6.389l1.744-5.567c0.264-0.129,0.536-0.236,0.815-0.307
			c4.109-1.036,10.448,4.438,12.785,13.321C113.692,473.828,113.256,479.316,111.162,482.854z"/>
		<path fill="#FFFFFF" d="M62.324,453.718l-0.136,0.122c-0.836,0.75-1.644,1.651-2.401,2.68c-1.794,2.444-3.18,5.453-4.023,8.697
			c-0.615,2.301-0.922,4.624-0.922,6.903v0.014c0.007,0.429,0.021,0.836,0.043,1.243c0.007,0.143,0.021,0.272,0.036,0.415
			c0.014,0.214,0.029,0.429,0.05,0.629c-0.036,0.529,0.057,1.544,0.722,3.752c-0.064,0-0.121-0.007-0.164-0.014
			c-2.001-0.257-3.752-2.566-4.681-6.174l-0.808-3.109l-2.215,2.323c-2.644,2.773-5.531,4.002-7.547,3.194
			c-1.579-0.622-2.344-2.294-2.708-3.58l-0.586-2.101l-1.944,0.993c-0.879,0.45-2.173,0.893-3.352,0.429
			c-1.336-0.522-1.965-1.994-2.266-3.137c-0.364-1.386-0.429-3.102-0.186-4.96c0.222-1.708,0.693-3.445,1.401-5.16
			c0.979-2.394,2.337-4.531,3.916-6.182c2.223-2.308,4.624-3.323,6.267-2.666c0.672,0.264,1.208,0.772,1.644,1.558l1.008,1.837
			l1.651-1.293c0.557-0.436,1.058-0.757,1.586-1.022c1.108-0.6,2.751-1.193,4.252-0.607c0.629,0.25,1.179,0.7,1.651,1.322
			l1.286,1.729l1.458-1.594c1.215-1.322,3.116-1.251,4.466-0.593c1.222,0.593,2.773,2.194,2.93,3.366
			C62.795,453.06,62.738,453.346,62.324,453.718z"/>
		<path fill="#FFFFFF" d="M126.691,453.046c-4.316,2.523-8.226,7.911-9.976,14.564c-0.186,0.729-0.343,1.458-0.479,2.187
			c-0.129-0.729-0.286-1.458-0.472-2.187c-1.751-6.646-5.66-12.042-9.976-14.564c-11.977-41.478-8.819-96.241-7.504-112.649
			c4.738,5.524,10.805,11.106,17.802,14.236l0.15-0.343l0.157,0.343c6.996-3.13,13.064-8.711,17.802-14.236
			C135.51,356.805,138.669,411.568,126.691,453.046z"/>
		<path fill="#FFFFFF" d="M145.443,122.604c-0.808,0.422-1.679,0.679-2.558,0.772c-0.121,0.007-0.243,0.014-0.357,0.021
			c-0.843,0.043-1.694-0.057-2.516-0.314c-1.822-0.572-3.309-1.815-4.188-3.502c-0.193-0.379-0.343-0.765-0.465-1.158
			c0.422-0.707,0.908-1.429,1.465-2.115c0.007,0.95,0.257,1.908,0.793,2.773c1.551,2.508,4.831,3.273,7.332,1.729
			c0.15-0.093,0.286-0.179,0.422-0.286c-0.843-0.186-1.608-0.707-2.094-1.493c-0.965-1.558-0.486-3.602,1.072-4.567
			c0.829-0.507,1.787-0.614,2.658-0.364c-0.093-0.207-0.2-0.422-0.329-0.622c-0.5-0.815-1.186-1.436-1.972-1.865
			c0.865-0.157,1.729-0.25,2.566-0.279c0.472,0.486,0.879,1.036,1.201,1.651C150.289,116.472,148.931,120.788,145.443,122.604z"/>
		<path fill="#FFFFFF" d="M97.119,118.423c-0.122,0.393-0.272,0.779-0.465,1.158c-0.879,1.687-2.366,2.93-4.188,3.502
			c-0.822,0.257-1.672,0.357-2.516,0.314c-0.114-0.007-0.236-0.014-0.357-0.021c-0.879-0.093-1.751-0.35-2.558-0.772
			c-3.488-1.815-4.845-6.132-3.03-9.619c0.322-0.615,0.736-1.165,1.201-1.651c0.843,0.029,1.701,0.114,2.566,0.279
			c-0.786,0.429-1.472,1.05-1.972,1.865c-0.129,0.2-0.236,0.414-0.329,0.622c0.872-0.25,1.829-0.143,2.659,0.364
			c1.558,0.965,2.037,3.009,1.072,4.567c-0.486,0.786-1.251,1.308-2.094,1.493c0.136,0.107,0.272,0.193,0.422,0.286
			c2.501,1.544,5.781,0.779,7.332-1.729c0.536-0.865,0.786-1.83,0.793-2.773C96.212,116.994,96.698,117.715,97.119,118.423z"/>
		<path fill="#FFFFFF" d="M46.823,135.839c0,0,12.121,29.13,40.398,22.036c0,0,1.719-9.663,4.499-12.989
			c0,0-5.254,15.099,19.459,10.081l5.061,11.312v15.744l-11.016-1.768c0,0-23.795,6.735-39.171-10.305l-1.325,3.527
			c0,0-12.343-8.668-13.882-14.96l-2.739,1.996C48.106,160.512,39.027,146.019,46.823,135.839z"/>
		<path fill="#FFFFFF" d="M70.917,110.84c0,0,5.574,5.176,6.671,9.932c1.096,4.756,7.451,8.107,18.653,5.596
			c1.42-0.318,3.644-0.848,5.774-0.742c0,0-3.221-1.791-11.642-0.891s-11.002-9.559-11.002-9.559l-2.761-4.784L70.917,110.84z"/>
		<path fill="#FFFFFF" d="M54.209,80c0,0,4.47-4.889,4.47-14.93s3.065-17.522,4.289-17.522c1.224,0,4.374,5.709,1.421,8.663
			c0,0,2.228,2.166,6.528-0.984c0,0,1.409,3.938,0,5.119c0,0,7.925,3.232,13.003-1.337l-9.992-11.46l-4.864-1.969l-1.56-5.316
			h-3.509l-5.513-5.119l-4.273,4.528l-2.201,11.616C52.008,51.289,55.251,76.227,54.209,80z"/>
		<path fill="#FFFFFF" d="M85.054,109.108c0,0,9.838-0.773,13.941,3.961c3.346,3.861,2.826,4.986,3.019,12.558l-1.491-1.84
			c0,0-0.424-3.649-2.647-6.298S90.78,108.666,85.054,109.108z"/>
		<path fill="#FFFFFF" d="M91.745,47.473c0,0,23.7,15.44,48.989,0C140.734,47.473,100.074,50.74,91.745,47.473z"/>
		<path fill="#FFFFFF" d="M59.451,82.848l-11.999,19.99h-3.79C43.662,102.839,53.977,84.207,59.451,82.848z"/>
		<path fill="#FFFFFF" d="M52.483,101.15c0,0-5.66,10.184-7.211,19.302l-5.371,1.233C39.9,121.685,44.591,105.237,52.483,101.15z"/>
		<path fill="#FFFFFF" d="M117.061,356.442c74.599-81.09,49.87-188.549,49.87-188.549c-16.59,22.557-43.063,13.67-49.87,13.627
			c0,0-0.287,0.488-0.821,0.502c-0.534-0.014-0.821-1.004-0.821-1.004c-6.807,0.042-33.28,10.121-49.87-12.436
			c0,0-24.729,106.77,49.87,187.859H117.061z"/>
		<path fill="#FFFFFF" d="M61.259,446.093c-2.065-0.951-3.096,1.588-3.796,1.309c-1.293-0.507-2.154,0.518-3.591,0.79
			c-7.163-9.875-14.71-23.223-18.582-34.229l-0.995,6.708c-8.724-14.571-8.957-36.39-8.957-36.39l-2.614,6.595
			c-7.723-32.668,6.073-46.219,6.073-46.219C35.093,370.962,45.287,409.06,61.259,446.093z"/>
		<path fill="#FFFFFF" d="M46.823,135.839c-2.938-8.119-1.551-15.386-1.551-15.386s-4.846,11.96-3.271,19.484L46.823,135.839z"/>
		<path fill="#FFFFFF" d="M46.192,156.732c0,0-13.1,10.287-17.681,28.436l12.538-5.322c0,0-15.105,17.773-16.555,31.044
			l10.816-8.618c0,0-10.259,21.778-9.478,33.041l-4.328,2.788c0,0,0.76-20.854,6.782-27.434l-9.033,4.572
			c0,0,5.241-22.973,12.044-29.33l-7.36,2.112c0,0,7.098-29.1,19.831-32.892L46.192,156.732z"/>
		<path fill="#FFFFFF" d="M35.139,228.22c0,0-5.124,25.597,1.385,36.823l2.632-8.567c0,0,3.784,22.451,10.014,29.99l1.685-8.629
			c0,0,4.707,21.538,17.561,32.276l-1.21-9.594c0,0,11.021,18.38,20.271,24.888l1.765,6.02c0,0-13.534-9.437-18.564-18.223
			l-3.516,2.278c0,0-14.367-13.736-16.157-27.451l-3.58,3.37c0,0-8.298-13.505-10.251-23.43l-3.952,3.254
			C33.222,271.227,25.13,247.857,35.139,228.22z"/>
		<path fill="#FFFFFF" d="M21.925,314.756c0,0-22.3,37.564-14.626,67.147l4.993-8.41c0,0-4.318,35.34,10.432,49.761l-1.013-7.111
			c0,0,13.278,24.848,22.733,30.129v1.92c0,0-4.382-3.757-8.426-1.863l-10.949-18.851l-2.344,1.873c0,0-18.13-15.197-14.801-43.08
			h-4.35C3.573,386.27-4.479,344.172,21.925,314.756z"/>
		<path fill="#FFFFFF" d="M49.143,54.203c0,0-1.031-16.7,4.752-21.365c4.45-3.59,19.22-4.417,38.284,22.034
			c0,0-11.522-32.114-38.111-28.464C54.069,26.408,43.418,29.993,49.143,54.203z"/>
		<path fill="#FFFFFF" d="M28.966,241.878c0,0-23.004,65.733,41.383,210.832h-5.621c0,0-29.96-77.53-33.623-98.617
			c0,0-24.186-98.803-0.972-119.484L28.966,241.878z"/>
		<path fill="#FFFFFF" d="M209.761,288.243c-0.064,1.344-0.143,2.737-0.236,4.159c-0.043,0.007-1.036,12.027-1.894,18.752
			c0.021-0.021,0.05-0.05,0.071-0.071c-0.736,5.71-1.679,11.834-2.894,18.402c-0.007,0-0.021-0.007-0.029-0.007
			c-0.608,3.352-1.286,6.81-2.044,10.362l0.007-0.007c-0.136,0.65-0.279,1.308-0.429,1.972c-0.164,0.765-0.336,1.536-0.507,2.315
			c-0.1,0.443-0.193,0.879-0.3,1.322c-0.429,1.901-0.886,3.83-1.358,5.796c-0.707,2.944-1.465,5.953-2.28,9.019
			c-1.301,4.967-2.737,10.098-4.316,15.386c-0.407,1.365-0.822,2.737-1.251,4.116c-0.314,1.029-0.636,2.065-0.965,3.109
			c-0.214,0.686-0.429,1.379-0.657,2.072c-0.322,1.029-0.658,2.073-1.001,3.116c-0.322,1.008-0.65,2.015-0.993,3.03
			c-0.029,0.093-0.057,0.186-0.086,0.279c-0.707,2.123-1.436,4.274-2.18,6.446c-0.743,2.158-1.508,4.345-2.301,6.56
			c-0.014,0.007-0.014,0.014-0.014,0.029c-4.352,12.185-9.405,25.12-15.272,38.805c-0.536,1.243-1.079,2.494-1.622,3.752
			c-0.607,1.386-1.215,2.773-1.83,4.174c-0.079-0.014-0.164-0.029-0.243-0.029c-0.4-0.064-0.793-0.086-1.186-0.071
			c-0.293,0-0.572,0.021-0.858,0.064c0.007-0.007,0.007-0.021,0.014-0.029c19.26-43.672,30.579-80.09,36.997-109.647
			c0.922-4.245,1.744-8.354,2.473-12.32c1.079-5.867,1.958-11.427,2.658-16.68c0.943-7.003,1.579-13.464,1.98-19.388
			c1.536-22.954-0.472-37.933-2.001-45.437c-0.007-0.007-0.007-0.014-0.007-0.021c-0.143-4.345-0.715-8.061-1.286-10.777
			c-0.014-0.064-0.029-0.129-0.043-0.193l1.036,0.679C206.173,240.891,211.183,257.499,209.761,288.243z"/>
		<path fill="#FFFFFF" d="M185.674,135.839c0,0-12.121,29.13-40.398,22.036c0,0-1.719-9.663-4.499-12.989
			c0,0,5.254,15.099-19.459,10.081l-5.061,11.312v15.744l11.016-1.768c0,0,23.795,6.735,39.171-10.305l1.325,3.527
			c0,0,12.343-8.668,13.882-14.96l2.739,1.996C184.39,160.512,193.47,146.019,185.674,135.839z"/>
		<path fill="#FFFFFF" d="M161.58,110.84c0,0-5.574,5.176-6.671,9.932c-1.096,4.756-7.451,8.107-18.653,5.596
			c-1.42-0.318-3.644-0.848-5.774-0.742c0,0,3.221-1.791,11.642-0.891s11.002-9.559,11.002-9.559l2.761-4.784L161.58,110.84z"/>
		<path fill="#FFFFFF" d="M178.288,80c0,0-4.47-4.889-4.47-14.93s-3.065-17.522-4.289-17.522s-4.374,5.709-1.421,8.663
			c0,0-2.228,2.166-6.528-0.984c0,0-1.41,3.938,0,5.119c0,0-7.925,3.232-13.003-1.337l9.992-11.46l4.864-1.969l1.56-5.316h3.509
			l5.513-5.119l4.273,4.528l2.201,11.616C180.489,51.289,177.246,76.227,178.288,80z"/>
		<path fill="#FFFFFF" d="M147.442,109.108c0,0-9.838-0.773-13.941,3.961c-3.346,3.861-2.826,4.986-3.019,12.558l1.491-1.84
			c0,0,0.424-3.649,2.647-6.298S141.717,108.666,147.442,109.108z"/>
		<path fill="#FFFFFF" d="M140.752,47.473c0,0-23.7,15.44-48.989,0C91.763,47.473,132.423,50.74,140.752,47.473z"/>
		<path fill="#FFFFFF" d="M173.046,82.848l11.999,19.99h3.79C188.835,102.839,178.52,84.207,173.046,82.848z"/>
		<path fill="#FFFFFF" d="M180.014,101.15c0,0,5.66,10.184,7.211,19.302l5.371,1.233
			C192.596,121.685,187.906,105.237,180.014,101.15z"/>
		<path fill="#FFFFFF" d="M171.238,446.093c2.065-0.951,3.096,1.588,3.796,1.309c1.293-0.507,2.154,0.518,3.591,0.79
			c7.163-9.875,14.71-23.223,18.582-34.229l0.995,6.708c8.724-14.571,8.957-36.39,8.957-36.39l2.614,6.595
			c7.723-32.668-6.073-46.219-6.073-46.219C197.404,370.962,187.21,409.06,171.238,446.093z"/>
		<path fill="#FFFFFF" d="M185.674,135.839c2.938-8.119,1.551-15.386,1.551-15.386s4.846,11.96,3.271,19.484L185.674,135.839z"/>
		<path fill="#FFFFFF" d="M186.305,156.732c0,0,13.1,10.287,17.681,28.436l-12.538-5.322c0,0,15.105,17.773,16.555,31.044
			l-10.816-8.618c0,0,10.259,21.778,9.478,33.041l4.328,2.788c0,0-0.76-20.854-6.782-27.434l9.033,4.572
			c0,0-5.241-22.973-12.044-29.33l7.36,2.112c0,0-7.098-29.1-19.831-32.892L186.305,156.732z"/>
		<path fill="#FFFFFF" d="M197.358,228.22c0,0,5.124,25.597-1.385,36.823l-2.632-8.567c0,0-3.784,22.451-10.014,29.99l-1.685-8.629
			c0,0-4.707,21.538-17.561,32.276l1.21-9.594c0,0-11.021,18.38-20.271,24.888l-1.765,6.02c0,0,13.534-9.437,18.564-18.223
			l3.516,2.278c0,0,14.367-13.736,16.157-27.451l3.58,3.37c0,0,8.298-13.505,10.251-23.43l3.952,3.254
			C199.275,271.227,207.366,247.857,197.358,228.22z"/>
		<path fill="#FFFFFF" d="M210.572,314.756c0,0,22.3,37.564,14.626,67.147l-4.993-8.41c0,0,4.318,35.34-10.432,49.761l1.013-7.111
			c0,0-13.278,24.848-22.733,30.129v1.92c0,0,4.382-3.757,8.426-1.863l10.949-18.851l2.344,1.873c0,0,18.13-15.197,14.801-43.08
			h4.35C228.924,386.27,236.976,344.172,210.572,314.756z"/>
		<path fill="#FFFFFF" d="M183.354,54.203c0,0,1.031-16.7-4.752-21.365c-4.45-3.59-19.22-4.417-38.284,22.034
			c0,0,11.522-32.114,38.11-28.464C178.428,26.408,189.079,29.993,183.354,54.203z"/>
	</g>
	<g>
		<path fill="#AAAAAA" d="M112.831,478.173c0,0-10.077,14.871-16.42-8.376c0,0-5.381,29.811-14.427,0.764
			c0,0-9.006,26.433-13.096,0.1c0,0-6.492,16.383-10.97,0.905l-2.267,3.819c0,0-4.623-0.905-5.829-10.955
			c0,0-8.945,16.081-12.563,0.503c0,0-6.432,9.247-9.347-2.513c0,0-1.005,11.86,6.432,9.046c0,0,5.729,9.649,14.372,1.91
			c0,0,2.211,7.538,8.543,6.633c0,0,4.422,5.729,9.347,2.312c0,0,5.427,9.347,14.573-0.503c0,0,8.543,13.367,16.081,1.307
			C97.262,483.125,109.002,496.94,112.831,478.173z"/>
		<path fill="#AAAAAA" d="M119.152,478.173c0,0,10.077,14.871,16.42-8.376c0,0,5.381,29.811,14.427,0.764
			c0,0,9.006,26.433,13.096,0.1c0,0,6.492,16.383,10.97,0.905l2.267,3.819c0,0,4.623-0.905,5.829-10.955
			c0,0,8.945,16.081,12.563,0.503c0,0,6.432,9.247,9.347-2.513c0,0,1.005,11.86-6.432,9.046c0,0-5.729,9.649-14.372,1.91
			c0,0-2.211,7.538-8.543,6.633c0,0-4.422,5.729-9.347,2.312c0,0-5.427,9.347-14.573-0.503c0,0-8.543,13.367-16.081,1.307
			C134.722,483.125,122.981,496.94,119.152,478.173z"/>
		<path fill="#AAAAAA" d="M96.907,387.642c0,0,8.099,56.966,11.863,63.489c0,0,5.303,3.176,7.469,7.464v15.433
			c0,0-4.439-15.864-12.551-19.761C103.689,454.266,92.949,399.499,96.907,387.642z"/>
		<path fill="#AAAAAA" d="M135.572,387.642c0,0-8.099,56.966-11.863,63.489c0,0-5.303,3.176-7.469,7.464v15.433
			c0,0,4.439-15.864,12.551-19.761C128.79,454.266,139.531,399.499,135.572,387.642z"/>
		<path fill="#AAAAAA" d="M116.24,352.783l-18.427-15.79v6.874c0,0,10.271,11.894,18.427,14.34
			c8.156-2.446,18.427-14.34,18.427-14.34v-6.874L116.24,352.783z"/>
		<path fill="#AAAAAA" d="M61.259,446.093c-1.301-0.6-2.187,0.186-2.844,0.779c-18.852-41.492-27.964-75.373-32.366-98.435
			c1.522-2.573,2.751-3.78,2.751-3.78C35.096,370.962,45.287,409.06,61.259,446.093z"/>
		<path fill="#AAAAAA" d="M169.511,172.614l-1.994-4.016c-0.007-0.007-0.007-0.014-0.007-0.014c-0.207,0.3-0.429,0.593-0.672,0.886
			c-4.254,5.128-13.945,9.163-19.897,11.28c-9.67,1.764-17.433,0.033-19.744-0.591c-0.325-0.127-0.494-0.205-0.494-0.205
			l-0.131,0.026c-0.05-0.016-0.081-0.026-0.081-0.026l-8.34,1.629l-1.429,0.279l-0.194,0.037l-0.194-0.037l-1.429-0.279l-8.34-1.629
			c0,0-0.032,0.01-0.082,0.026l-0.131-0.026c0,0-0.168,0.078-0.494,0.205c-2.311,0.624-10.074,2.355-19.744,0.591
			c-5.952-2.117-15.643-6.152-19.897-11.28c-0.243-0.293-0.464-0.586-0.672-0.886c0,0,0,0.007-0.007,0.014l-1.994,4.016
			c0.522,0.393,0.9,0.665,1.072,0.786c-0.257,1.501-0.55,3.337-0.843,5.474c0.829,0.536,1.687,1.036,2.558,1.501l1.837-4.366
			c0,0,8.54,9.004,22.94,10.398V186.4c0.828,0.104,1.685,0.173,2.555,0.225c0.006,0.001,0.013,0.001,0.02,0.001
			c0.554,0.033,1.116,0.055,1.688,0.066c0.293,0.007,0.589,0.008,0.886,0.009c0.263-0.001,0.527-0.004,0.794-0.01
			c3.156-0.055,6.563-0.456,10.242-1.333c0.535,0.204,4.091,1.497,8.358,1.509c0.289,0.004,0.581,0.001,0.877-0.008
			c0.295,0.009,0.588,0.012,0.876,0.008c4.267-0.012,7.824-1.305,8.358-1.509c3.678,0.877,7.086,1.278,10.242,1.333
			c0.266,0.006,0.531,0.009,0.793,0.01c0.297,0,0.594-0.002,0.886-0.009c0.572-0.01,1.134-0.033,1.688-0.066
			c0.007,0,0.013-0.001,0.02-0.001c0.871-0.052,1.728-0.122,2.555-0.225v0.007c14.4-1.394,22.94-10.398,22.94-10.398l1.837,4.366
			c0.872-0.464,1.729-0.965,2.558-1.501c-0.293-2.137-0.586-3.973-0.843-5.474C168.611,173.279,168.989,173.007,169.511,172.614z"/>
		<path fill="#AAAAAA" d="M171.222,446.093c1.301-0.6,2.187,0.186,2.844,0.779c18.852-41.492,27.964-75.373,32.366-98.435
			c-1.522-2.573-2.751-3.78-2.751-3.78C197.385,370.962,187.195,409.06,171.222,446.093z"/>
	</g>
	<g>
		<path fill="#AD704E" d="M29.267,344.126l-7.343-29.37c0,0,0,12.106,4.123,33.681c1.302-2.2,2.382-3.394,2.67-3.696
			C28.805,344.474,28.988,344.244,29.267,344.126z"/>
		<path fill="#AD704E" d="M27.502,250.538c0,0-2.794,18.119,8.68,32.462l0.533-4.356c0,0,2.123,12.961,13.172,21.46l0.106-3.005
			c0,0,4.249,19.578,23.576,28.82l-0.629-3.293c0,0,5.789,10.837,19.107,16.487c0,0,3.222,1.798,4.433,2.195l1.332-4.315
			l-8.571-12.795l-1.765,5.942c0,0-9.427-6.683-17.127-20.464l-1.625,6.668c0,0-15.558-13.08-18.225-29.877l-3.074,4.936
			c0,0-9.054-16.533-10.251-23.43l-2.827,4.052L27.502,250.538z"/>
		<path fill="#AD704E" d="M64.618,173.4c-0.257,1.501-0.55,3.337-0.843,5.474c-8.133-5.246-14.214-13.428-14.214-13.428
			l-1.436,2.037c-3.688-4.495-3.552-9.119-3.545-9.333c0,0,0,0,0.007-0.007l2.415,0.336c0.636,1.286,1.108,2.037,1.108,2.037
			l2.165-1.587l1.229,1.336c1.837,3.68,6.346,7.79,9.59,10.434l2.208,2.401l0.243-0.486C64.067,173.007,64.446,173.279,64.618,173.4
			z"/>
		<path fill="#AD704E" d="M92.102,335.824c0,0-6.342,67.882,7.181,116.919l4.405,1.523c0,0-13.554-73.519-6.782-114.341
			L92.102,335.824z"/>
		<path fill="#AD704E" d="M203.204,344.126l7.343-29.37c0,0,0,12.106-4.123,33.681c-1.302-2.2-2.382-3.394-2.67-3.696
			C203.666,344.474,203.483,344.244,203.204,344.126z"/>
		<path fill="#AD704E" d="M204.969,250.538c0,0,2.794,18.119-8.68,32.462l-0.533-4.356c0,0-2.123,12.961-13.172,21.46l-0.106-3.005
			c0,0-4.249,19.578-23.576,28.82l0.629-3.293c0,0-5.789,10.837-19.107,16.487c0,0-3.222,1.798-4.433,2.195l-1.332-4.315
			l8.571-12.795l1.765,5.942c0,0,9.427-6.683,17.127-20.464l1.625,6.668c0,0,15.558-13.08,18.225-29.877l3.074,4.936
			c0,0,9.054-16.533,10.251-23.43l2.827,4.052L204.969,250.538z"/>
		<path fill="#AD704E" d="M167.853,173.4c0.257,1.501,0.55,3.337,0.843,5.474c8.133-5.246,14.214-13.428,14.214-13.428l1.436,2.037
			c3.688-4.495,3.552-9.119,3.545-9.333c0,0,0,0-0.007-0.007l-2.415,0.336c-0.636,1.286-1.108,2.037-1.108,2.037l-2.165-1.587
			l-1.229,1.336c-1.837,3.68-6.346,7.79-9.59,10.434l-2.208,2.401l-0.243-0.486C168.404,173.007,168.025,173.279,167.853,173.4z"/>
		<path fill="#AD704E" d="M140.368,335.824c0,0,6.342,67.882-7.181,116.919l-4.405,1.523c0,0,13.554-73.519,6.782-114.341
			L140.368,335.824z"/>
	</g>
	<path fill="#231F20" d="M128.523,160.512c0-1.102,0.893-1.996,1.996-1.996c1.102,0,1.996,0.893,1.996,1.996
		s-0.893,1.996-1.996,1.996C129.417,162.508,128.523,161.614,128.523,160.512z M123.125,163.451c0,1.102,0.894,1.996,1.996,1.996
		c1.102,0,1.996-0.893,1.996-1.996c0-1.102-0.894-1.996-1.996-1.996C124.019,161.455,123.125,162.349,123.125,163.451z
		 M99.826,160.512c0,1.102,0.893,1.996,1.996,1.996c1.102,0,1.996-0.893,1.996-1.996s-0.893-1.996-1.996-1.996
		C100.719,158.517,99.826,159.41,99.826,160.512z M107.219,165.446c1.102,0,1.996-0.893,1.996-1.996
		c0-1.102-0.893-1.996-1.996-1.996c-1.102,0-1.996,0.893-1.996,1.996C105.224,164.553,106.117,165.446,107.219,165.446z
		 M33.366,313.563c2.544,0.736,4.617,2.544,6.939,3.816c2.315,1.272,5.353,1.951,7.504,0.414c0.6-2.987-1.822-5.731-4.402-7.347
		c-2.573-1.615-5.589-2.751-7.446-5.16c-1.594-2.058-2.101-4.759-3.545-6.918c-1.308-1.958-4.095-4.081-6.889-5.238
		c0.4,5.924,1.036,12.385,1.98,19.381C29.35,313.069,31.473,313.019,33.366,313.563z M40.091,329.635
		c-1.472-0.586-3.087-0.643-4.674-0.622c-1.065,0.007-3.287-0.114-5.267,0.057v0.007c0.736,4.009,1.565,8.154,2.501,12.456
		c0.765,0.293,1.558,0.522,2.344,0.729c3.202,0.85,6.425,1.608,9.669,2.258c2.323,0.465,4.831,0.865,6.982-0.129
		c1.179-0.55,2.244-1.758,1.937-3.016c-0.1-0.436-0.357-0.815-0.657-1.143c-1.072-1.179-2.658-1.737-3.988-2.623
		C45.601,335.395,43.822,331.1,40.091,329.635z M200.063,298.369c-1.444,2.158-1.951,4.86-3.545,6.918
		c-1.858,2.408-4.874,3.545-7.447,5.16c-2.58,1.615-5.002,4.359-4.402,7.347c2.151,1.536,5.188,0.858,7.504-0.414
		c2.323-1.272,4.395-3.08,6.932-3.816c1.994-0.572,4.231-0.486,6.132-1.143c0.943-7.003,1.579-13.464,1.98-19.388
		C204.337,294.16,201.407,296.347,200.063,298.369z M197.062,329.013c-1.586-0.021-3.202,0.036-4.674,0.622
		c-3.73,1.465-5.51,5.76-8.847,7.975c-1.329,0.886-2.916,1.444-3.988,2.623c-0.3,0.329-0.557,0.707-0.657,1.143
		c-0.307,1.258,0.757,2.465,1.937,3.016c2.151,0.993,4.659,0.593,6.982,0.129c3.244-0.65,6.467-1.408,9.669-2.258
		c0.886-0.236,1.779-0.486,2.623-0.843c0.922-4.245,1.744-8.354,2.473-12.32C200.549,328.884,198.177,329.02,197.062,329.013z
		 M134.688,104.709c5.324-4.231,9.519-9.512,15.015-13.557C143.192,91.896,136.982,98.885,134.688,104.709z M159.693,48.338
		c0.736-0.422,1.422-0.436,2.223-0.607c1.208-0.222,2.623-1.179,3.066-2.437c0.565-1.458,0.35-3.016,0.522-3.659
		c0.2-0.043,0.529-0.086,0.943-0.043c1.758,0.264,3.773-0.493,4.895-1.729c1.015-0.972,1.529-2.072,2.365-2.787
		c0.364,0.122,0.972,0.643,1.315,1.015c4.702,4.945,2.537,15.343,2.115,21.746c-0.35,3.545-0.707,7.132-0.729,10.777
		c0.029,3.63,0.593,7.446,2.523,10.598c-0.029-3.666,0.107-7.046,0.293-10.534c0.15-3.473,0.565-6.968,1.015-10.484
		c0.736-7.161,2.587-15.208-0.908-22.025c-1.265-2.087-3.495-4.852-6.296-4.402c-1.98,0.407-2.894,2.658-4.016,3.78
		c-0.643,0.657-1.229,0.9-2.037,0.858c-1.422-0.172-3.444,0.121-4.188,1.637c-0.772,1.351-0.286,3.187-0.629,4.138
		c-0.064,0.186-0.129,0.264-0.271,0.386c-0.229,0.207-0.808,0.357-1.193,0.414c-0.793,0.122-1.687,0.457-2.351,0.843
		c-1.808,1.036-3.13,2.38-4.388,3.745c-2.48,2.737-4.524,5.796-5.403,9.44C152.761,55.699,155.255,50.925,159.693,48.338z
		 M142.106,85.228c-7.361,4.181-11.806,15.422-12.549,23.526c0.586-1,1.072-2.022,1.558-3.037
		C134.559,98.763,137.396,91.452,142.106,85.228z M164.045,109.147c0.493,0.486,0.922,1.058,0.693,1.615
		c-0.214,0.515-0.958,0.893-1.772,1.065c-0.808,0.172-1.687,0.179-2.544,0.172c-0.507,0-1.915-0.107-3.738-0.279l-0.429,0.436
		c-0.014,0.007-1.308,1.336-2.566,3.645c-0.214,0.393-0.429,0.815-0.65,1.243c-1.308,2.544-2.93,5.703-6.139,7.375
		c-3.037,1.586-6.296,1.172-8.912,0.843c-0.515-0.064-1.015-0.129-1.494-0.172c-2.758-0.265-4.352,0.114-4.366,0.114l-1.658,0.407
		l0.343-1.665c0.086-0.379,2.03-9.283,9.083-12.956c0.915-0.479,1.865-0.843,2.816-1.122c3.059-0.986,15.065-2.008,17.423-2.101
		c0.586-0.021,1.186-0.007,1.737,0.121C162.816,108.111,163.509,108.618,164.045,109.147z M136.239,122.918
		c-0.779-0.693-1.436-1.515-1.937-2.465c-0.422,0.929-0.743,1.772-0.958,2.437c0.364-0.021,0.779-0.036,1.251-0.036
		C135.081,122.854,135.646,122.875,136.239,122.918z M148.473,112.985c-0.322-0.615-0.729-1.165-1.201-1.651
		c-0.836,0.029-1.701,0.121-2.566,0.279c0.786,0.429,1.472,1.05,1.972,1.865c0.129,0.2,0.236,0.414,0.329,0.622
		c-0.872-0.25-1.829-0.143-2.658,0.364c-1.558,0.965-2.037,3.009-1.072,4.567c0.486,0.786,1.251,1.308,2.094,1.493
		c-0.136,0.107-0.271,0.193-0.422,0.286c-2.501,1.544-5.782,0.779-7.332-1.729c-0.536-0.865-0.786-1.822-0.793-2.773
		c-0.557,0.686-1.043,1.408-1.465,2.115c0.122,0.393,0.272,0.779,0.465,1.158c0.879,1.687,2.365,2.93,4.188,3.502
		c0.822,0.257,1.672,0.357,2.516,0.314c0.114-0.007,0.236-0.014,0.357-0.021c0.879-0.093,1.751-0.35,2.558-0.772
		C148.931,120.788,150.289,116.472,148.473,112.985z M153.604,111.984c-1-0.236-2.423-0.5-4.052-0.615
		c0.172,0.257,0.336,0.522,0.479,0.8c0.672,1.279,1.008,2.673,1.008,4.073c0.029-0.057,0.064-0.121,0.093-0.179
		c0.229-0.45,0.457-0.879,0.672-1.286C152.44,113.613,153.083,112.67,153.604,111.984z M185.02,358.356
		c-2.237-0.414-4.624,0.043-6.546,1.258c-0.943,0.593-1.815,1.422-2.108,2.494c-0.35,1.265,0.157,2.616,0.908,3.68
		c1.322,1.901,3.402,3.216,5.646,3.809c2.237,0.6,4.624,0.5,6.875-0.064c0.364-0.086,0.729-0.193,1.043-0.4
		c0.429-0.286,0.707-0.743,0.915-1.215C193.767,363.309,189.172,359.121,185.02,358.356z M163.395,416.542
		c-0.443,0.722-0.586,1.586-0.643,2.437c-0.064,0.8-0.036,1.679,0.436,2.33c0.364,0.493,0.929,0.786,1.486,1.036
		c1.122,0.5,2.315,0.886,3.545,0.908c1.229,0.014,2.501-0.379,3.359-1.265C176.151,417.271,166.375,411.711,163.395,416.542z
		 M178.588,390.193c-1.787-1.115-6.482-1.494-7.804,0.514c-0.493,0.743-0.486,1.729-0.222,2.58c0.264,0.858,0.758,1.615,1.186,2.401
		c0.7,1.265,1.308,2.68,2.515,3.48c1.136,0.743,2.573,0.8,3.931,0.736c0.736-0.029,1.522-0.107,2.108-0.55
		c0.765-0.579,0.993-1.629,1.015-2.58C181.361,394.581,180.582,391.437,178.588,390.193z M100.35,125.205
		c-0.014,0-1.608-0.379-4.366-0.114c-0.479,0.043-0.979,0.107-1.494,0.172c-2.616,0.329-5.874,0.743-8.912-0.843
		c-3.209-1.672-4.831-4.831-6.139-7.375c-0.221-0.436-0.436-0.85-0.65-1.243c-1.258-2.308-2.551-3.638-2.566-3.652l-0.493-0.5
		c-2.165,0.207-3.888,0.35-4.474,0.35c-0.85,0.007-1.729,0-2.537-0.172c-0.815-0.172-1.558-0.55-1.772-1.065
		c-0.229-0.557,0.193-1.129,0.693-1.615c0.536-0.529,1.229-1.036,2.172-1.258c0.55-0.129,1.151-0.143,1.729-0.121
		c1.822,0.071,9.347,0.693,14.114,1.429c2.251,0.121,4.674,0.614,6.925,1.794c7.053,3.673,8.997,12.578,9.083,12.956l0.35,1.679
		L100.35,125.205z M82.927,111.369c-1.629,0.114-3.052,0.379-4.052,0.615c0.522,0.686,1.165,1.629,1.801,2.794
		c0.221,0.407,0.443,0.836,0.672,1.286c0.029,0.057,0.064,0.122,0.093,0.179c0-1.401,0.336-2.794,1.008-4.073
		C82.591,111.891,82.755,111.627,82.927,111.369z M96.655,119.581c0.193-0.379,0.343-0.765,0.465-1.158
		c-0.422-0.707-0.908-1.429-1.465-2.115c-0.007,0.943-0.257,1.908-0.793,2.773c-1.551,2.508-4.831,3.273-7.332,1.729
		c-0.15-0.093-0.286-0.179-0.422-0.286c0.843-0.186,1.608-0.707,2.094-1.493c0.965-1.558,0.486-3.602-1.072-4.567
		c-0.829-0.507-1.787-0.614-2.659-0.364c0.093-0.207,0.2-0.422,0.329-0.622c0.5-0.815,1.186-1.436,1.972-1.865
		c-0.865-0.164-1.722-0.25-2.566-0.279c-0.464,0.486-0.879,1.036-1.201,1.651c-1.815,3.487-0.457,7.804,3.03,9.619
		c0.807,0.422,1.679,0.679,2.558,0.772c0.122,0.007,0.243,0.014,0.357,0.021c0.843,0.043,1.694-0.057,2.516-0.314
		C94.289,122.511,95.776,121.267,96.655,119.581z M99.135,122.889c-0.214-0.665-0.529-1.508-0.958-2.437
		c-0.5,0.95-1.158,1.772-1.937,2.465C97.412,122.832,98.391,122.839,99.135,122.889z M51.161,396.775
		c0.021,0.951,0.25,2.001,1.015,2.58c0.586,0.443,1.372,0.522,2.108,0.55c1.351,0.064,2.794,0.007,3.931-0.736
		c1.208-0.801,1.815-2.215,2.516-3.48c0.429-0.786,0.922-1.544,1.186-2.401c0.264-0.85,0.272-1.837-0.221-2.58
		c-1.322-2.008-6.017-1.629-7.804-0.514C51.897,391.437,51.118,394.581,51.161,396.775z M80.039,122.025
		c-2.187-1.622-1.008-3.052-3.366-5.924c-0.85-1.036-3.03-1.615-3.409,0.565c-0.386,2.265,0.6,4.624,2.158,6.317
		c1.536,1.672,4.188,3.559,6.517,3.373C84.949,126.113,81.619,123.197,80.039,122.025z M230.428,389.079l-0.858,4.009l-3.416-4.867
		c0.214,3.573,0.229,8.218-0.429,13.292c-1.858,14.35-8.311,25.377-18.674,32.009c-1.229,2.508-2.68,4.91-4.231,7.161
		c-1.386,1.972-3.002,3.788-4.738,5.46c0.822,0.572,1.637,1.258,2.416,2.072c1.894,1.98,3.502,4.502,4.652,7.304
		c0.815,2.001,1.372,4.038,1.636,6.046c0.3,2.351,0.207,4.481-0.272,6.332c-0.715,2.744-2.287,4.724-4.416,5.56
		c-1.372,0.543-2.873,0.593-4.431,0.164c-0.929,1.98-2.344,3.38-4.152,4.095c-2.809,1.115-6.167,0.322-9.333-2.13
		c-1.508,3.559-3.888,5.739-6.768,6.117c-0.236,0.029-1.458,0.114-2.43,0.114h-0.207c-1.079,1.329-2.416,2.215-3.952,2.594
		c-1.601,0.407-3.295,0.229-4.974-0.515c-1.308,2.08-3.094,3.48-5.174,4.009c-3.28,0.836-6.904-0.593-10.041-3.852
		c-2.18,3.809-5.138,5.946-8.376,5.946c-2.916,0-5.66-1.787-7.783-4.981c-3.23,3.609-7.025,5.203-10.484,4.316
		c-2.301-0.579-4.295-2.194-5.76-4.667c-0.929-1.579-1.594-3.416-2.001-5.41c-0.4,1.994-1.065,3.83-1.994,5.41
		c-1.465,2.473-3.459,4.088-5.767,4.674c-3.459,0.886-7.246-0.715-10.477-4.324c-2.123,3.194-4.867,4.981-7.782,4.981
		c-3.237,0-6.196-2.137-8.376-5.946c-3.137,3.259-6.753,4.681-10.041,3.852c-2.08-0.529-3.873-1.93-5.174-4.009
		c-1.679,0.743-3.38,0.922-4.981,0.515c-1.536-0.386-2.866-1.265-3.945-2.594h-0.214c-0.972,0-2.18-0.086-2.394-0.107
		c-2.901-0.379-5.288-2.566-6.796-6.125c-3.166,2.451-6.525,3.245-9.333,2.13c-1.808-0.715-3.223-2.115-4.152-4.095
		c-1.551,0.429-3.059,0.379-4.431-0.164c-2.13-0.836-3.702-2.809-4.416-5.56c-0.479-1.851-0.572-3.981-0.272-6.325
		c0.264-2.015,0.815-4.052,1.637-6.053c1.151-2.801,2.759-5.324,4.645-7.296c0.786-0.815,1.601-1.508,2.423-2.08
		c-1.737-1.672-3.352-3.488-4.738-5.46c-1.551-2.251-3.001-4.652-4.231-7.161c-10.362-6.632-16.816-17.659-18.674-32.009
		c-0.657-5.074-0.643-9.719-0.429-13.292l-3.416,4.867l-0.858-4.009c-5.238-24.576,0.543-45.158,6.317-58.093
		c4.924-11.041,10.562-18.423,12.892-21.225c-1.001-8.111-1.586-15.358-1.872-21.725c-1.1-24.698,1.801-40.27,3.766-47.709
		l-4.009,2.623v-3.302c0-10.205,3.151-19.61,5.696-25.556l-7.782,5.531l0.35-3.866c1.108-12.17,6.289-21.468,10.212-26.906
		l-7.246,2.794l0.943-3.416c6.453-23.419,17.98-33.209,21.589-35.789c-0.586-3.052-0.743-6.189-0.579-9.319
		c-0.85,0.572-1.672,1.115-2.237,1.494c-0.457-4.259-0.686-8.669-0.264-12.913c0.2-2.265,0.486-4.474,0.865-6.682l-0.322,0.107
		l-3.001,1.022l0.672-3.066c1.294-6.125,3.673-11.913,6.911-17.244c-1.887,0.272-3.852,0.55-4.845,0.693
		c0.65-1.865,1.179-4.409,1.965-6.21c1.158-2.53,2.63-4.917,4.359-7.111c2.165-15.679-0.529-31.58-1.522-47.388
		c-0.157-2.859-0.164-5.882,0.236-8.733C40.191,19.381,43.014,0,43.014,0c5.081,11.613,14.9,20.053,21.189,24.562
		c9.333,1.687,17.251,8.847,23.14,16.522c7.511,6.039,25.398,6.889,28.893,6.996c3.473-0.107,21.382-0.958,28.9-6.996
		c5.881-7.675,13.807-14.843,23.14-16.522c6.289-4.509,16.108-12.956,21.189-24.562c0,0,2.823,19.381-2.13,37.09
		c0.407,2.851,0.393,5.874,0.236,8.733c-0.993,15.808-3.687,31.709-1.522,47.388c1.729,2.194,3.209,4.581,4.359,7.111
		c0.779,1.801,1.315,4.324,1.965,6.21c-0.972-0.136-2.93-0.422-4.81-0.686c3.773,6.224,6.232,13.121,7.547,20.303
		c-0.822-0.279-2.087-0.707-3.33-1.136c0.958,5.496,1.379,11.048,0.879,16.63l-0.272,2.973l-2.23-1.486
		c0.164,3.123-0.014,6.253-0.6,9.297c3.588,2.558,15.136,12.349,21.604,35.803l0.943,3.416l-7.247-2.794
		c3.923,5.438,9.105,14.736,10.212,26.906l0.35,3.866l-7.782-5.531c2.544,5.946,5.696,15.351,5.696,25.556v3.302l-4.009-2.623
		c1.965,7.439,4.867,23.011,3.766,47.709c-0.286,6.367-0.872,13.614-1.872,21.725c2.33,2.801,7.968,10.184,12.892,21.225
		C229.885,343.921,235.667,364.502,230.428,389.079z M204.666,237.282l-0.743-0.486l-0.3-0.193
		c1.565,7.347,3.266,22.354-4.073,37.183l-1.779,3.602l-2.258-5.689c-1.194,6.139-3.859,15.086-9.755,21.361l-2.044,2.173
		l-1.165-3.452c-2.23,7.525-7.425,20.031-18.495,26.856l-2.794,1.722l0.071-3.402c-3.216,5.01-8.64,11.799-16.508,16.322
		l-2.551,1.465l-0.214-5.01c-1.215,1.915-2.773,4.209-4.624,6.646c0.243,2.594,0.815,9.226,1.229,18.459
		c0.965-0.8,2.244-1.344,3.723-1.465c1.751-0.136,3.53-0.264,5.26,0.086c1.722,0.343,3.409,1.229,4.352,2.708
		c0.85,1.344,1.001,3.002,1.05,4.588c0.014,0.479,0.021,0.972-0.136,1.422c-0.336,0.965-1.343,1.529-2.315,1.851
		c-1.744,0.579-3.609,0.672-5.453,0.715c-2.165,0.05-4.545-0.036-6.182-1.443c0.086,3.144,0.15,6.489,0.164,9.983
		c0.808-0.372,1.779-0.486,2.673-0.45c1.922,0.086,3.866,0.658,5.324,1.908c1.465,1.251,2.358,3.23,2.015,5.124
		c-0.729,4.052-6.768,3.873-10.026,1.251c-0.064,5.095-0.207,10.441-0.486,15.915c1.951-0.214,4.845,1.772,6.053,2.787
		c0.808,0.679,1.586,1.601,1.494,2.651c-0.079,0.829-0.693,1.515-1.344,2.037c-1.887,1.508-4.395,2.194-6.789,1.894
		c-1.143,15.122-3.337,30.844-7.225,45.172c1.022-0.136,2.037-0.086,3.023,0.164c0.464,0.114,0.908,0.279,1.336,0.479
		c2.015-2.609,4.488-4.023,7.089-4.023c2.301,0,4.459,1.065,6.31,3.087c0.707-0.45,1.465-0.779,2.265-0.979
		c2.015-0.507,4.195-0.172,6.296,0.965c0.422,0.214,0.9,0.507,1.472,0.9c0.236,0.172,0.479,0.35,0.715,0.543
		c0.843-0.722,1.787-1.215,2.837-1.479c0.314-0.079,0.629-0.136,0.951-0.164c0.279-0.036,0.557-0.05,0.843-0.036
		c0.386,0,0.772,0.036,1.172,0.1c0.001,0,0.001-0.001,0.002-0.001c19.803-44.777,31.091-81.84,37.359-111.297l2.065-10.348
		c1.211-6.549,2.147-12.658,2.888-18.353c0.945-7.257,1.829-18.73,1.829-18.73c0.093-1.422,0.172-2.816,0.236-4.159
		C210.926,257.506,205.916,240.905,204.666,237.282z M45.465,119.616c-1.436,6.053-2.444,12.378-2.265,18.631
		c1.329-0.886,2.737-1.822,3.623-2.408c-1.322,7.025-1.622,14.986,1.344,21.632c1.058-0.95,2.215-1.994,2.901-2.608
		c0.955,2.647,2.243,5.258,3.831,7.642c2.623-1.233,5.374-2.239,8.203-3.045c-0.331-0.367-0.611-0.733-0.822-1.081
		c-0.736-1.208-1.215-2.587-2.173-3.63c-1.479-1.608-3.881-2.144-5.288-3.816c-2.465-2.93-0.686-7.411-1.529-11.141
		c-0.35-1.544-1.165-2.98-1.272-4.567c-0.114-1.83,0.743-3.566,1.165-5.36c0.665-2.83,0.229-5.789,0.179-8.697
		c-0.036-1.987-0.414-6.739,1.751-7.311c5.345-1.415,4.202,6.689,4.138,8.554c-0.164,5.295,4.81,5.817,3.059,10.827
		c-3.266,9.355,1.801,11.792,2.416,13.056c1.629,3.33,1.072,6.953,5.524,8.769c0.929,0.381,1.927,1.339,2.651,2.43
		c4.15-0.508,8.354-0.638,12.488-0.441c0.002-0.013,0.002-0.026,0.003-0.039c1.101-8.247,5.31-16.129,11.777-21.361
		c-2.885,6.659-7.206,14.617-7.725,21.7c3.28,0.331,6.487,0.865,9.552,1.588c-3.178-0.199-6.386-0.322-9.601-0.337
		c-0.011,1.528,0.176,3.008,0.616,4.417c2.233-0.067,4.438-0.014,6.581,0.16c-2.07,0.237-4.147,0.517-6.222,0.84
		c1.127,2.742,3.311,5.18,6.999,7.129c-0.186-0.908-0.264-1.844-0.2-2.808c1.672,1.787,3.052,3.409,4.466,4.967
		c2.723,3.109,6.224,5.295,10.234,6.139c1.422,0.293,2.88,0.45,4.374,0.507c1.487-0.057,2.944-0.214,4.367-0.507
		c4.009-0.843,7.511-3.03,10.234-6.139c1.415-1.558,2.794-3.18,4.467-4.967c0.064,0.965-0.014,1.901-0.2,2.808
		c3.679-1.944,5.86-4.374,6.99-7.108c-2.118-0.332-4.238-0.619-6.351-0.86c2.186-0.178,4.437-0.228,6.718-0.155
		c0.441-1.41,0.629-2.891,0.618-4.421c-3.261,0.012-6.515,0.134-9.739,0.336c3.108-0.733,6.362-1.271,9.69-1.601
		c-0.523-7.082-4.841-15.035-7.725-21.687c6.467,5.231,10.677,13.114,11.777,21.361c0.001,0.011,0.001,0.021,0.003,0.032
		c4.132-0.19,8.332-0.051,12.478,0.465c0.725-1.098,1.729-2.064,2.663-2.448c4.452-1.815,3.895-5.438,5.517-8.769
		c0.622-1.265,5.689-3.702,2.423-13.056c-1.751-5.01,3.223-5.531,3.059-10.827c-0.064-1.865-1.208-9.969,4.138-8.554
		c2.165,0.572,1.787,5.324,1.751,7.311c-0.05,2.909-0.486,5.867,0.179,8.697c0.422,1.794,1.279,3.53,1.165,5.36
		c-0.107,1.586-0.922,3.023-1.272,4.567c-0.843,3.73,0.936,8.211-1.529,11.141c-1.408,1.672-3.809,2.208-5.288,3.816
		c-0.958,1.043-1.436,2.423-2.173,3.63c-0.216,0.358-0.508,0.735-0.852,1.113c2.829,0.812,5.578,1.826,8.199,3.065
		c1.604-2.398,2.904-5.028,3.865-7.694c0.672,0.615,1.837,1.658,2.901,2.608c2.966-6.646,2.666-14.607,1.344-21.632
		c0.879,0.593,2.294,1.529,3.623,2.408c0.179-6.253-0.829-12.585-2.265-18.631c0.779,0.264,1.965,0.665,3.152,1.072
		c-1.615-5.746-4.302-11.256-7.697-16.101l-2.473-3.437c1.615,0.229,4.509,0.643,6.975,1c-0.036-0.086-0.071-0.164-0.107-0.25
		c-3.423-7.154-8.854-12.914-13.835-19.052c3.244,1.515,6.267,3.552,8.94,5.989c-1.158-14.457,1.122-28.843,2.037-43.172
		c0.272-6.953,0.336-16.565-8.411-17.63c-13.449-2.001-23.44,10.198-30.644,19.974c-3.187,4.452-5.696,9.062-9.64,13.049
		c0.472-5.052,2.816-9.397,5.424-13.585c-8.833,3.387-20.331,4.045-23.94,4.166v0.029c-0.071,0-0.264-0.007-0.557-0.014
		c-0.286,0.007-0.479,0.014-0.55,0.014V51.64c-3.609-0.122-15.107-0.779-23.94-4.166c2.608,4.188,4.952,8.533,5.424,13.585
		c-3.945-3.988-6.453-8.597-9.64-13.049c-7.196-9.776-17.194-21.975-30.644-19.974c-8.747,1.065-8.683,10.67-8.411,17.63
		c0.915,14.329,3.194,28.714,2.037,43.172c2.666-2.43,5.696-4.466,8.94-5.989C54.47,88.987,49.038,94.747,45.615,101.9
		c-0.036,0.086-0.072,0.164-0.107,0.25c2.466-0.357,5.353-0.772,6.975-1l-2.473,3.437c-3.402,4.845-6.082,10.355-7.697,16.101
		C43.5,120.281,44.679,119.874,45.465,119.616z M135.417,175.287c-0.743,0.343-1.772,0.6-2.623,0.865
		c-0.9,1.236-1.994,2.365-3.166,3.352c5.939,1.058,12.063,1.072,17.895-0.436c6.061-1.526,11.721-4.719,16.078-9.191
		c-5.506-2.351-11.343-3.966-17.269-5.105C144.662,169.588,140.753,173.287,135.417,175.287z M169.574,170.619
		c2.049-1.362,3.918-3.01,5.548-4.894c0.499-0.564,0.97-1.158,1.427-1.765c-2.982-1.146-6.034-2.076-9.136-2.817
		c-2.29,1.541-5.417,2.419-8.134,0.615c-0.71-0.471-0.841-1.304-0.627-2.229c-3.782-0.499-7.606-0.769-11.433-0.871
		c0.062,1.633-0.101,3.186-0.455,4.652c6.276,0.638,12.614,2.249,18.337,4.919c0.718-0.85,1.396-1.735,2.019-2.661
		c0.41,1.092,1.099,2.938,1.727,4.612C169.091,170.323,169.332,170.471,169.574,170.619z M55.9,163.92
		c0.466,0.621,0.947,1.229,1.457,1.805c1.613,1.864,3.466,3.495,5.484,4.849c0.276-0.167,0.55-0.337,0.831-0.499
		c0.617-1.648,1.282-3.432,1.689-4.507c0.612,0.909,1.275,1.779,1.979,2.615c5.738-2.662,12.089-4.26,18.373-4.885
		c-0.353-1.464-0.514-3.014-0.452-4.644c-3.828,0.099-7.652,0.366-11.437,0.86c0.219,0.932,0.09,1.771-0.624,2.245
		c-2.731,1.813-5.876,0.916-8.169-0.639C61.931,161.855,58.881,162.78,55.9,163.92z M68.838,169.835
		c4.362,4.493,10.038,7.702,16.118,9.232c5.831,1.508,11.956,1.494,17.895,0.436c-1.179-0.986-2.265-2.115-3.173-3.359
		c-0.85-0.272-1.865-0.522-2.616-0.858c-5.345-2.003-9.259-5.712-10.925-10.541C80.203,165.88,74.355,167.49,68.838,169.835z
		 M35.139,228.22l-1.686,4.924c-0.064,0.186-5.817,17.523,0.993,35.21l4.71-11.877l0.45,8.118
		c0.007,0.157,0.865,14.171,7.754,23.626l3.495-10.384l1.136,7.196c0.029,0.2,3.087,18.724,15.508,28.593l-0.293-13.106l3.637,8.49
		c0.05,0.129,5.303,12.113,16.051,19.56l0.507-11.692l3.08,5.917c0.114,0.207,10.755,20.382,25.756,27.95
		c15.007-7.568,25.648-27.742,25.763-27.95l3.08-5.917l0.507,11.692c10.748-7.447,16.001-19.431,16.058-19.56l3.63-8.447
		l-0.293,13.064c12.42-9.876,15.479-28.393,15.508-28.593l1.136-7.196l3.495,10.384c6.889-9.455,7.747-23.469,7.754-23.626
		l0.45-8.118l4.709,11.877c6.811-17.687,1.058-35.025,0.993-35.21l-1.679-4.917l12.292,8.04c-1.036-14.371-8.168-26.67-8.24-26.799
		l-4.231-7.196l13.807,9.812c-2.844-15.987-13.035-25.984-13.142-26.092l-6.353-6.125l15.222,5.86
		c-5.631-17.744-14.293-26.399-18.109-29.522c-0.786,2.423-1.865,4.76-3.294,6.961c-0.565-0.515-1.608-1.451-2.587-2.323
		c-0.472,0.922-0.986,1.808-1.558,2.73c-0.134,0.216-0.285,0.42-0.423,0.633c3.193,1.814,6.148,3.996,8.771,6.577
		c-2.059-1.373-4.106-2.712-6.278-3.831c-1.078-0.564-2.171-1.084-3.272-1.581c-2.003,2.817-4.437,5.306-7.206,7.371
		c3.441,2.554,6.432,5.637,8.749,9.279c-1.882-1.91-3.778-3.713-5.906-5.297c-1.397-1.054-2.84-2.026-4.319-2.928
		c-1.282,0.848-2.626,1.611-4.03,2.269c-0.236-0.65-0.779-2.094-1.301-3.466c-7.475,7.639-18.438,11.527-29.05,11.22
		c-3.859-0.086-7.69-0.629-11.406-1.536c0,0,0.029-0.129,0.036-0.136c-2.887,1.315-6.139,1.865-9.283,1.651
		c-3.137,0.214-6.389-0.336-9.276-1.651c0.021,0.086,0.036,0.136,0.036,0.136c-3.716,0.908-7.547,1.451-11.406,1.536
		c-10.612,0.307-21.575-3.588-29.057-11.22c-0.507,1.372-1.043,2.823-1.293,3.466c-1.43-0.67-2.794-1.45-4.094-2.317
		c-1.506,0.915-2.973,1.904-4.394,2.976c-2.129,1.584-4.025,3.388-5.906,5.298c2.331-3.665,5.346-6.762,8.814-9.325
		c-2.754-2.07-5.163-4.567-7.164-7.37c-1.137,0.51-2.267,1.045-3.379,1.627c-2.172,1.119-4.219,2.458-6.278,3.831
		c2.647-2.605,5.632-4.803,8.858-6.627c-0.7-1.07-1.347-2.178-1.929-3.321c-0.972,0.872-2.015,1.822-2.587,2.33l-1.101-1.901
		c-0.915-1.629-1.644-3.316-2.208-5.045c-3.823,3.13-12.471,11.784-18.095,29.507l15.272-5.881l-6.403,6.146
		c-0.107,0.107-10.298,10.105-13.142,26.092l13.807-9.812l-4.231,7.196c-0.071,0.129-7.204,12.428-8.24,26.799L35.139,228.22z
		 M22.976,288.243c0.064,1.344,0.143,2.737,0.236,4.159c0.043,0.007,1.036,12.027,1.894,18.752c-0.021-0.021-0.05-0.05-0.071-0.071
		c0.736,5.71,1.679,11.834,2.894,18.402c0.007,0,0.021-0.007,0.029-0.007c0.607,3.352,1.286,6.81,2.044,10.362l-0.007-0.007
		c0.136,0.65,0.279,1.308,0.429,1.972c0.164,0.765,0.336,1.536,0.507,2.315c0.1,0.443,0.193,0.879,0.3,1.322
		c0.429,1.901,0.886,3.83,1.358,5.796c0.708,2.944,1.465,5.953,2.28,9.019c1.301,4.967,2.737,10.098,4.316,15.386
		c0.407,1.365,0.822,2.737,1.251,4.116c0.314,1.029,0.636,2.065,0.965,3.109c0.214,0.686,0.429,1.379,0.658,2.072
		c0.322,1.029,0.657,2.073,1.001,3.116c0.322,1.008,0.65,2.015,0.993,3.03c0.029,0.093,0.057,0.186,0.086,0.279
		c0.707,2.123,1.436,4.274,2.18,6.446c0.743,2.158,1.508,4.345,2.301,6.56c0.014,0.007,0.014,0.014,0.014,0.029
		c4.352,12.185,9.405,25.12,15.272,38.805c0.536,1.243,1.079,2.494,1.622,3.752c0.608,1.386,1.215,2.773,1.83,4.174
		c1.008-0.172,2.001-0.143,2.966,0.1c1.043,0.264,1.994,0.758,2.837,1.479c0.236-0.193,0.472-0.364,0.707-0.536
		c0.579-0.4,1.058-0.693,1.515-0.929c2.065-1.115,4.238-1.451,6.26-0.943c0.8,0.2,1.558,0.529,2.265,0.979
		c1.851-2.022,4.009-3.087,6.31-3.087c2.601,0,5.074,1.415,7.089,4.016c0.422-0.193,0.872-0.357,1.329-0.472
		c0.986-0.25,2.008-0.3,3.03-0.164c-3.888-14.328-6.082-30.051-7.225-45.172c-2.394,0.3-4.902-0.386-6.789-1.894
		c-0.65-0.522-1.265-1.208-1.344-2.037c-0.093-1.051,0.686-1.972,1.494-2.651c1.208-1.015,4.102-3.001,6.053-2.787
		c-0.279-5.474-0.429-10.82-0.486-15.915c-3.259,2.623-9.297,2.801-10.026-1.251c-0.343-1.894,0.55-3.873,2.015-5.124
		c1.458-1.251,3.402-1.822,5.324-1.908c0.893-0.036,1.865,0.079,2.666,0.45c0.021-3.495,0.086-6.839,0.172-9.983
		c-1.636,1.408-4.016,1.494-6.182,1.443c-1.844-0.043-3.709-0.136-5.453-0.715c-0.972-0.322-1.98-0.886-2.315-1.851
		c-0.157-0.45-0.15-0.943-0.136-1.422c0.05-1.587,0.2-3.244,1.05-4.588c0.943-1.479,2.63-2.365,4.352-2.708
		c1.729-0.35,3.509-0.221,5.26-0.086c1.479,0.121,2.758,0.665,3.723,1.465c0.414-9.233,0.986-15.865,1.229-18.466
		c-1.851-2.43-3.409-4.724-4.624-6.639l-0.222,5.01l-2.544-1.465c-7.868-4.524-13.292-11.313-16.508-16.322l0.071,3.402
		l-2.794-1.722c-11.07-6.825-16.265-19.331-18.495-26.856l-1.165,3.452l-2.044-2.173c-5.896-6.274-8.561-15.222-9.755-21.361
		l-2.258,5.689l-1.779-3.602c-7.339-14.829-5.639-29.836-4.073-37.183l-1.036,0.679C26.563,240.891,21.553,257.499,22.976,288.243z
		 M37.711,444.549c1.551-0.429,3.066-0.386,4.431,0.157c0.872,0.35,1.644,0.872,2.301,1.565c0.207-0.121,0.415-0.229,0.615-0.329
		c2.494-1.358,5.01-1.629,7.218-0.765c0.7,0.279,1.344,0.665,1.922,1.151c2.251-1.372,4.995-1.186,7.061-0.236
		c-24.183-56.071-34.932-99.778-39.334-131.337c-6.932,9.398-22.811,35.339-17.159,69.456l7.525-10.72l-1.644,8.29
		c-0.057,0.322-5.546,29.436,12.27,45.387c-1.065-3.58-1.565-7.289-1.208-11.027c2.058,4.466,4.724,10.962,7.061,15.186
		C31.265,436.073,34.36,440.375,37.711,444.549z M59.787,456.519c0.758-1.029,1.565-1.93,2.401-2.68l0.136-0.122
		c0.415-0.372,0.472-0.657,0.429-0.986c-0.157-1.172-1.708-2.773-2.93-3.366c-1.351-0.658-3.252-0.729-4.466,0.593l-1.458,1.594
		l-1.286-1.729c-0.472-0.622-1.022-1.072-1.651-1.322c-1.501-0.586-3.145,0.007-4.252,0.607c-0.529,0.265-1.029,0.586-1.586,1.022
		l-1.651,1.293l-1.008-1.837c-0.436-0.786-0.972-1.293-1.644-1.558c-1.644-0.657-4.045,0.357-6.267,2.666
		c-1.579,1.651-2.937,3.788-3.916,6.182c-0.707,1.715-1.179,3.452-1.401,5.16c-0.243,1.858-0.179,3.573,0.186,4.96
		c0.3,1.143,0.929,2.616,2.266,3.137c1.179,0.465,2.473,0.021,3.352-0.429l1.944-0.993l0.586,2.101
		c0.364,1.286,1.129,2.959,2.708,3.58c2.015,0.808,4.902-0.422,7.547-3.194l2.215-2.323l0.808,3.109
		c0.929,3.609,2.68,5.917,4.681,6.174c0.043,0.007,0.1,0.014,0.164,0.014c-0.665-2.208-0.757-3.223-0.722-3.752
		c-0.021-0.2-0.036-0.414-0.05-0.629c-0.014-0.143-0.029-0.272-0.036-0.415c-0.021-0.407-0.036-0.815-0.043-1.243v-0.014
		c0-2.28,0.307-4.602,0.922-6.903C56.606,461.972,57.993,458.963,59.787,456.519z M112.306,468.518
		c-2.337-8.883-8.676-14.357-12.785-13.321c-0.279,0.072-0.55,0.179-0.815,0.307l-1.744,5.567l-2.387-6.389h0.107
		c-0.979-1.351-2.53-2.916-4.466-2.916c-1.572,0-2.88,1.015-3.838,2.123l-2.401,6.746l-1.815-6.203
		c-0.436-0.314-0.9-0.543-1.394-0.665c-1.151-0.293-2.401-0.071-3.723,0.643c-0.35,0.179-0.693,0.386-1.129,0.693
		c-0.536,0.379-1.072,0.836-1.572,1.351l-1.465,1.501l-1.251-1.679c-0.636-0.85-1.351-1.372-2.187-1.586
		c-1.401-0.35-3.08,0.243-4.724,1.679c-0.014,0.014-0.036,0.029-0.05,0.043c-0.021,0.021-0.043,0.036-0.064,0.057v0.007
		c-0.672,0.593-1.322,1.315-1.937,2.158c-1.522,2.08-2.716,4.674-3.452,7.489c-0.129,0.5-0.25,1-0.35,1.508
		c-0.021,0.1-0.029,0.2-0.05,0.3c-0.072,0.4-0.143,0.8-0.2,1.201c-0.021,0.15-0.029,0.3-0.043,0.443
		c-0.043,0.35-0.086,0.707-0.107,1.058c-0.014,0.186-0.007,0.379-0.021,0.565c-0.007,0.307-0.029,0.615-0.029,0.915
		c0.007,0.757,0.05,1.472,0.136,2.122c0.043,0.414,0.107,0.8,0.186,1.193c0.157,0.829,0.372,1.579,0.643,2.237
		c0.522,1.265,1.493,2.873,3.137,3.28c1.043,0.264,2.08-0.021,2.93-0.45l3.587-6.589l0.472,7.84
		c0.665,1.158,1.672,2.315,3.173,2.694c2.165,0.55,4.745-0.715,7.096-3.423h-0.021l2.558-7.332l1.587,6.425
		c1.608,3.959,3.973,6.317,6.317,6.317c1.901,0,3.809-1.536,5.338-4.259l1.408-8.819l2.709,8.083c2.53,3.366,5.524,5.06,7.925,4.445
		c1.729-0.436,2.894-1.887,3.566-3.023C113.256,479.316,113.692,473.828,112.306,468.518z M126.691,453.046
		c11.977-41.478,8.819-96.241,7.504-112.649c-4.738,5.524-10.805,11.106-17.802,14.236l-0.157,0.073l-0.15-0.073
		c-6.996-3.13-13.064-8.711-17.802-14.236c-1.315,16.408-4.474,71.171,7.504,112.649c4.316,2.523,8.226,7.918,9.976,14.564
		c0.186,0.729,0.343,1.458,0.472,2.187c0.136-0.729,0.293-1.458,0.479-2.187C118.466,460.957,122.375,455.569,126.691,453.046z
		 M174.065,472.105c0-1.472-0.15-2.973-0.45-4.474c-0.1-0.5-0.221-1-0.35-1.501c-0.736-2.823-1.929-5.417-3.452-7.504
		c-0.615-0.829-1.265-1.558-1.937-2.151l-0.007-0.007c-0.036-0.036-0.071-0.064-0.107-0.1c-1.644-1.436-3.316-2.03-4.731-1.679
		c-0.829,0.214-1.544,0.736-2.18,1.586l-1.251,1.679l-1.458-1.501c-0.507-0.515-1.043-0.972-1.586-1.358
		c-0.429-0.3-0.772-0.507-1.079-0.665c-1.365-0.736-2.616-0.957-3.766-0.665c-0.493,0.122-0.958,0.35-1.394,0.665l-1.815,6.203
		l-2.401-6.746c-0.958-1.108-2.265-2.123-3.838-2.123c-1.937,0-3.488,1.565-4.467,2.916h0.1l-2.38,6.389l-1.744-5.567
		c-0.264-0.129-0.536-0.236-0.822-0.307c-4.109-1.029-10.441,4.438-12.778,13.321c-1.386,5.31-0.95,10.798,1.143,14.336
		c0.672,1.136,1.837,2.587,3.559,3.023c2.415,0.615,5.403-1.079,7.933-4.445l2.708-8.083l1.408,8.811
		c1.529,2.73,3.437,4.266,5.338,4.266c2.344,0,4.709-2.358,6.317-6.317l1.587-6.425l2.558,7.332h-0.021
		c2.351,2.708,4.931,3.973,7.096,3.423c1.501-0.379,2.508-1.536,3.173-2.694l0.472-7.84l3.58,6.589
		c0.858,0.422,1.887,0.715,2.923,0.45c1.658-0.407,2.63-2.015,3.151-3.287c0.272-0.65,0.486-1.401,0.643-2.222
		c0.079-0.4,0.136-0.786,0.186-1.186v-0.014c0.014-0.1,0.021-0.214,0.029-0.322c0.05-0.429,0.079-0.886,0.093-1.365
		C174.05,472.398,174.065,472.256,174.065,472.105z M197.926,450.688c-2.215-2.301-4.617-3.323-6.26-2.666
		c-0.679,0.272-1.215,0.779-1.651,1.565l-1.008,1.837l-1.651-1.293c-0.557-0.436-1.058-0.757-1.522-0.986
		c-1.172-0.636-2.816-1.229-4.324-0.636c-0.622,0.243-1.179,0.693-1.644,1.315l-1.286,1.729l-1.458-1.594
		c-1.215-1.315-3.116-1.251-4.467-0.593c-1.222,0.593-2.773,2.194-2.93,3.366c-0.043,0.329,0.014,0.615,0.429,0.986l0.136,0.122
		c0.843,0.757,1.644,1.651,2.401,2.673c1.794,2.458,3.18,5.467,4.031,8.711c0.607,2.294,0.915,4.617,0.915,6.896v0.014
		c0,0.064-0.007,0.122-0.007,0.179c-0.007,0.364-0.014,0.722-0.036,1.058c-0.007,0.15-0.029,0.293-0.036,0.436
		c-0.021,0.207-0.029,0.422-0.05,0.615c0.036,0.529-0.057,1.544-0.722,3.752c0.079-0.007,0.15-0.014,0.2-0.014
		c1.965-0.257,3.716-2.566,4.645-6.174l0.808-3.109l2.215,2.323c2.644,2.773,5.531,4.002,7.547,3.194
		c1.579-0.622,2.344-2.294,2.709-3.58l0.586-2.101l1.944,0.993c0.879,0.45,2.18,0.893,3.352,0.429
		c1.336-0.522,1.965-1.994,2.265-3.137c0.221-0.836,0.329-1.794,0.329-2.83c0-0.679-0.043-1.394-0.143-2.137
		c-0.229-1.701-0.693-3.437-1.401-5.153C200.864,454.482,199.506,452.339,197.926,450.688z M210.554,314.756
		c-4.402,31.559-15.15,75.266-39.334,131.344c2.065-0.958,4.81-1.143,7.061,0.229c0.579-0.486,1.215-0.865,1.908-1.143
		c2.23-0.872,4.738-0.6,7.289,0.786c0.179,0.093,0.364,0.193,0.557,0.3c0.658-0.693,1.429-1.222,2.308-1.565
		c1.365-0.55,2.873-0.586,4.424-0.164c3.352-4.166,6.446-8.469,8.94-13.214c2.323-4.202,5.017-10.755,7.061-15.186
		c0.357,3.738-0.143,7.447-1.208,11.027c17.816-15.958,12.328-45.065,12.27-45.387l-1.644-8.29l7.525,10.72
		C233.366,350.088,217.486,324.154,210.554,314.756z M219.423,386.27c-1.665,5.124-2.365,10.248-3.166,15.493
		c-0.615,5.267-1.536,10.284-1.715,15.665C219.787,409.546,221.81,395.41,219.423,386.27z M47.459,358.356
		c-4.152,0.765-8.747,4.952-6.732,9.562c0.207,0.472,0.486,0.929,0.915,1.215c0.314,0.207,0.679,0.314,1.043,0.4
		c2.251,0.565,4.638,0.665,6.875,0.064c2.244-0.593,4.324-1.908,5.646-3.809c0.75-1.065,1.258-2.415,0.908-3.68
		c-0.293-1.072-1.165-1.901-2.108-2.494C52.083,358.399,49.696,357.942,47.459,358.356z M155.806,116.1
		c-2.358,2.873-1.179,4.302-3.373,5.924c-1.572,1.172-4.903,4.088-1.894,4.331c2.33,0.186,4.981-1.701,6.518-3.373
		c1.558-1.694,2.544-4.052,2.158-6.317C158.836,114.485,156.656,115.064,155.806,116.1z M226.04,372.828
		c1.829-9.026-1.822-30.172-7.375-37.469c-0.229,6.596,1.637,12.599,2.887,18.909C223.089,360.5,224.054,366.66,226.04,372.828z
		 M151.546,297.083c0.314,0.029,0.65,0.029,0.95-0.086c0.8-0.3,2.68-3.495,0.643-5.853c-2.673-3.087-4.631-3.087-4.631-3.087
		c-0.615-0.05-2.051-0.05-2.58,0.264c-0.872,0.515-1.029,1.722-0.872,2.73C145.55,294.196,148.373,296.819,151.546,297.083z
		 M159.1,286.192c0.815,0.236,1.679,0.372,2.508,0.193c1.644-0.357,2.959-1.093,3.709-4.116c0,0-0.529-8.118-8.418-10.155
		c-1.151-0.293-2.451,0.164-3.337,0.958c-0.565,0.493-0.922,1.186-1.165,1.901C150.832,279.589,154.412,284.863,159.1,286.192z
		 M110.405,174.122c2.501,0.264,4.438-0.772,5.817-2.423c2.101,2.587,6.139,3.259,8.876,1.329c1.722-1.158,2.837-2.859,3.23-4.688
		c-2.187,1.408-4.059,2.515-6.396,2.423c-1.98-0.222-3.009-1.679-3.602-3.452c0.372-1.536,0.464-3.13,0.271-4.552
		c0,0,5.881-4.009,6.417-6.975c1.308-7.232-5.674-5.774-8.776-4.788c-3.109-0.986-10.091-2.444-8.783,4.788
		c0.243,1.358,1.215,2.608,2.466,3.709c1.815,1.808,3.952,3.266,3.952,3.266c-0.136,1.458-0.071,3.037,0.272,4.552
		c-0.414,1.201-1.029,2.258-2.015,2.93c-2.708,1.444-5.417-0.307-7.982-1.901C104.73,171.185,107.303,173.815,110.405,174.122z
		 M69.877,195.125c5.381-1.415,3.573-5.96,2.594-8.454c-0.543-1.394-1.365-2.658-2.465-3.673c-2.787-2.594-7.211-4.674-10.377-4.688
		c-3.094-0.114-4.538,2.801-3.294,5.517C59.143,189.958,66.54,195.997,69.877,195.125z M162.602,195.125
		c3.337,0.872,10.734-5.167,13.542-11.299c1.243-2.716-0.2-5.631-3.294-5.517c-3.166,0.014-7.589,2.094-10.377,4.688
		c-1.1,1.015-1.922,2.28-2.465,3.673C159.029,189.165,157.221,193.71,162.602,195.125z M171.378,199.792
		c-1.272,1.015-2.53,3.466-3.266,4.917c-0.736,1.444-0.9,3.28-0.043,4.659c1.544,2.516,5.26,2.287,8.083,1.415
		c4.116-1.272,23.183-13.064,16.537-19.452C182.304,181.354,175.065,196.84,171.378,199.792z M67.162,282.268
		c0.75,3.023,2.065,3.759,3.709,4.116c0.829,0.179,1.694,0.043,2.508-0.193c4.688-1.329,8.268-6.603,6.703-11.22
		c-0.243-0.715-0.6-1.408-1.165-1.901c-0.886-0.793-2.187-1.251-3.337-0.958C67.69,274.15,67.162,282.268,67.162,282.268z
		 M186.285,233.501c-1.701,0.622-3.445,2.072-2.859,3.788c0.2,0.586,0.622,1.079,1.079,1.501c1.537,1.415,4.381,2.158,7.046,0.565
		C194.775,237.425,196.704,229.707,186.285,233.501z M79.339,291.144c-2.037,2.358-0.157,5.553,0.643,5.853
		c0.3,0.114,0.636,0.114,0.951,0.086c3.173-0.264,5.996-2.887,6.489-6.032c0.157-1.008,0-2.215-0.872-2.73
		c-0.529-0.314-1.965-0.314-2.58-0.264C83.97,288.057,82.012,288.057,79.339,291.144z M70.578,243.149
		c0.55-2.444-1.251-4.952-3.552-5.96c-3.037-1.329-10.562-1.358-12.456,2.115c-2.616,4.795,3.33,7.64,7.018,7.99
		c1.801,0.172,3.666,0.193,5.367-0.422C68.655,246.265,70.177,244.914,70.578,243.149z M62.938,228.42
		c4.116-4.052,0.136-7.204-2.03-8.94c-1.201-0.972-2.601-1.687-4.109-2.03c-3.845-0.893-8.897-0.479-11.756,1.143
		c-2.837,1.501-2.637,4.867-0.107,6.668C50.625,229.314,60.394,230.929,62.938,228.42z M92.453,314.42
		c1.751,0.886,4.145-0.593,5.045-2.337c0.908-1.751-0.25-4.116-2.194-4.431c-2.044-0.322-3.552,1.322-3.816,2.008
		C90.909,311.183,90.766,313.57,92.453,314.42z M140.026,314.42c1.687-0.85,1.544-3.237,0.965-4.759
		c-0.264-0.686-1.772-2.33-3.816-2.008c-1.944,0.314-3.102,2.68-2.194,4.431C135.881,313.827,138.275,315.306,140.026,314.42z
		 M65.689,41.621c0.4-0.043,1.051-0.072,1.286,0.014c0.172,0.636-0.043,2.208,0.522,3.659c0.443,1.258,1.851,2.215,3.066,2.437
		c0.8,0.172,1.487,0.186,2.223,0.607c4.438,2.587,6.939,7.368,11.134,10.67c-0.879-3.645-2.923-6.703-5.403-9.44
		c-1.258-1.365-2.58-2.709-4.388-3.745c-0.665-0.386-1.558-0.722-2.351-0.843c-0.386-0.057-0.965-0.207-1.193-0.414
		c-0.143-0.122-0.207-0.2-0.272-0.386c-0.336-0.95,0.143-2.787-0.629-4.138c-0.743-1.515-2.766-1.808-4.188-1.637
		c-0.808,0.043-1.394-0.2-2.037-0.858c-1.122-1.122-2.037-3.373-4.016-3.78c-2.801-0.45-5.031,2.315-6.296,4.402
		c-3.495,6.818-1.644,14.865-0.908,22.025c0.45,3.516,0.865,7.011,1.015,10.484c0.186,3.488,0.322,6.868,0.293,10.534
		c1.93-3.152,2.494-6.968,2.523-10.598c-0.021-3.645-0.379-7.232-0.729-10.777c-0.422-6.41-2.587-16.801,2.115-21.746
		c0.343-0.379,0.958-0.886,1.315-1.015c0.829,0.707,1.351,1.822,2.366,2.787C62.181,40.992,64.032,41.799,65.689,41.621z
		 M60.901,421.988c0.858,0.886,2.13,1.279,3.359,1.265c1.229-0.021,2.423-0.407,3.545-0.908c0.557-0.25,1.122-0.543,1.486-1.036
		c0.472-0.65,0.5-1.529,0.436-2.33c-0.057-0.85-0.2-1.715-0.643-2.437C66.104,411.711,56.328,417.271,60.901,421.988z
		 M13.814,335.359c-5.56,7.318-9.205,28.471-7.375,37.469c1.987-6.174,2.951-12.328,4.488-18.559
		C12.177,347.958,14.043,341.948,13.814,335.359z M97.791,104.709c-2.294-5.831-8.504-12.814-15.015-13.557
		C88.272,95.197,92.467,100.478,97.791,104.709z M187.436,218.594c-2.859-1.622-7.911-2.037-11.756-1.143
		c-1.508,0.343-2.909,1.058-4.109,2.03c-2.165,1.737-6.146,4.888-2.03,8.94c2.544,2.508,12.313,0.893,18.002-3.159
		C190.073,223.461,190.273,220.095,187.436,218.594z M102.922,108.747c-0.743-8.104-5.188-19.338-12.549-23.519
		c4.71,6.224,7.547,13.535,10.991,20.489C101.85,106.731,102.336,107.753,102.922,108.747z M13.056,386.27
		c-2.387,9.126-0.357,23.304,4.881,31.158c-0.179-5.381-1.1-10.398-1.715-15.665C15.422,396.518,14.721,391.394,13.056,386.27z
		 M165.453,237.189c-2.301,1.008-4.102,3.516-3.552,5.96c0.4,1.765,1.922,3.116,3.623,3.723c1.701,0.615,3.566,0.593,5.367,0.422
		c3.688-0.35,9.633-3.195,7.018-7.99C176.016,235.831,168.49,235.86,165.453,237.189z M56.328,210.783
		c2.823,0.872,6.539,1.101,8.083-1.415c0.858-1.379,0.693-3.216-0.043-4.659c-0.736-1.451-1.994-3.902-3.266-4.917
		c-3.687-2.951-10.927-18.438-21.311-8.461C33.145,197.719,52.211,209.511,56.328,210.783z M40.927,239.354
		c2.666,1.594,5.51,0.85,7.046-0.565c0.457-0.422,0.879-0.915,1.079-1.501c0.586-1.715-1.158-3.166-2.859-3.788
		C35.775,229.707,37.704,237.425,40.927,239.354z"/>
</g>
</svg>
