<?xml version="1.0" encoding="utf-8"?>
<!-- Generator: Adobe Illustrator 28.3.0, SVG Export Plug-In . SVG Version: 6.00 Build 0)  -->
<svg version="1.1" id="ostrich" xmlns="http://www.w3.org/2000/svg" xmlns:xlink="http://www.w3.org/1999/xlink" x="0px" y="0px"
	 viewBox="0 0 337.465 490" enable-background="new 0 0 337.465 490" xml:space="preserve">
<g id="ostrich_00000158011016038581088960000003425561848238352570_">
	<g>
		<path fill="#D6D6D6" d="M206.22,342.961l-0.084-0.216c-0.367-1.213-1.656-5.258-6.02-18.95l-2.612-8.195l-0.805-0.207
			c-8.686-2.232-16.705-5.686-23.834-10.263l-0.423-0.271l-0.502,0.038c-4.08,0.311-8.211,0.211-12.28-0.304l-3.332-0.42
			l1.911,2.762c4.003,5.786,8.419,11.376,12.696,16.792c4.213,5.333,8.568,10.848,12.508,16.524
			c5.75,8.416,11.389,18.441,9.613,28.996c-1.334,8.64-2.349,17.441-3.333,25.979c-1.252,10.874-2.546,22.118-4.519,33.102
			l-0.06,0.311c-1.128,5.887-2.733,14.266-5.3,22.05l-5.358,7.033c-6.06,7.956-11.048,12.108-24.584,15.687l-0.826,0.216
			c-1.466,0.378-3.291,0.848-4.565,1.445c-3.56,1.563-6.76,4.04-8.78,6.798c-0.272,0.374-0.671,1.017-0.898,1.596l-0.604,1.533
			l1.583,0.457c1.815,0.523,3.729,0.618,5.579,0.709l0.888,0.047c3.426,0.104,7.112-0.018,11.273-0.374
			c2.898-0.247,5.842-0.607,8.748-1.071l0.197-0.031l0.503-0.262c0.14-0.083,0.278-0.168,0.337-0.21
			c1.302-0.79,2.719-1.537,4.14-2.286c1.549-0.814,3.125-1.644,4.632-2.577c-2.297,1.914-5.131,3.544-7.811,4.961l-0.673,0.355
			l-0.332,0.209l0.008,0.035l-3.161,2.064l3.67,0.641c2.51,0.438,5.046,0.661,7.538,0.661c2.329,0,4.599-0.195,6.742-0.578
			c8.945-1.543,14.463-8.319,16.399-20.138c0.845-4.897,1.073-9.776,1.185-13.888c1.36-23.936,5.554-47.917,9.609-71.109
			c0.706-4.038,1.412-8.076,2.103-12.107l0.266-1.426c0.764-4.079,1.554-8.297,1.343-12.423
			C208.898,352.53,208.016,348.179,206.22,342.961z"/>
		<path fill="#D6D6D6" d="M335.023,160.991l-1.593-3.771l-1.222,3.908c-0.424,1.364-10.826,33.292-49.057,25.969
			c-1.415-0.711-17.359-8.445-37.746-7.804l-0.142-0.117c-5.03-4.172-10.378-7.369-15.891-9.502
			c-12.477-4.967-27.229-5.9-43.848-2.768c-4.052,0.793-8.078,1.804-11.971,2.781c-2.392,0.601-4.843,1.216-7.317,1.785
			c5.896-3.585,12.534-5.419,17.835-6.634l1.32-0.303l-1.2-0.628c-1.17-0.612-2.458-1.182-3.832-1.694
			c-7.048-2.56-15.284-3.612-25.16-3.202c-18.404,1.135-35.006,8.435-45.545,20.025c-0.154,0.168-0.305,0.34-0.454,0.511
			l-0.153,0.167c-11.281,12.602-14.014,29.522-14.801,43.658c-2.006-9.606-0.722-20.573,3.716-31.274
			c0.976-2.428,2.186-4.841,3.596-7.171l0.878-1.451l-1.524,0.743c-7.74,3.77-15.854,5.88-23.449,6.104
			c-4.554-0.012-9.659-0.023-13.463-2.765c0.89,0.045,1.789,0.107,2.747,0.176l1.538,0.109l-1.182-0.991
			c-6.069-5.091-7.897-13.312-8.885-20.678c-0.051-0.418-0.094-0.838-0.139-1.276c-0.022-0.204-0.043-0.41-0.06-0.632
			c-0.039-0.37-0.075-0.739-0.104-1.137c-0.008-0.056-0.011-0.108-0.015-0.174l-0.091-1.178c-0.658-9.269-0.036-18.441,0.658-26.188
			c1.747-17.95,4.847-35.887,7.871-52.713c0.471-2.45,0.963-4.906,1.456-7.369c2.94-14.68,5.98-29.86,4.812-44.957
			c-0.763-8.106-2.787-13.951-6.406-18.434C61.178,7.123,52.595,1.699,44.956,2.859c-2.736,0.428-5.373,1.968-7.411,4.323
			L36.213,8.6c-2.764,2.842-5.688,5.316-8.689,7.354l-0.489,0.332l1.226,1.284c3.773,3.963,7.677,8.061,12.609,10.344l2.759,1.061
			l-3.158,1.107c-3.811,1.305-7.411,2.538-11.237,3.415l-1.502,0.344l1.418,0.604c2.554,1.087,5.271,2.049,8.3,2.938l0.267,0.083
			c4.368,1.36,9.318,2.901,11.126,7.426c0.015,0.039,0.028,0.079,0.043,0.119c-0.486-0.49-0.979-0.95-1.541-1.356
			c-0.3-0.233-0.608-0.438-0.93-0.642l-1.152-0.732l0.407,1.304c2.287,7.306,5.032,24.015-2.274,53.831
			c-0.586,2.396-1.195,4.834-1.815,7.316l-0.128,0.512c-4.882,19.536-10.414,41.68-10.763,63.324
			c-0.087,5.462,0.163,10.749,0.746,15.714c0.053,0.449,0.108,0.903,0.168,1.352c0.655,5.054,1.687,9.959,3.066,14.578
			c0.137,0.454,0.273,0.904,0.417,1.35c0.386,1.229,0.807,2.464,1.273,3.729c0.178,0.475,0.356,0.95,0.542,1.422l0.107,0.274
			c0.217,0.551,0.438,1.097,0.667,1.645c0.27,0.638,0.546,1.271,0.831,1.906c0.241,0.535,0.487,1.065,0.739,1.59
			c0.935,1.963,1.987,3.949,3.128,5.905c0.539,0.919,1.101,1.839,1.684,2.747c0.586,0.911,1.188,1.818,1.818,2.717
			c0.418,0.6,0.849,1.198,1.29,1.788c1.104,1.491,2.279,2.973,3.493,4.404c0.494,0.579,0.996,1.153,1.511,1.724
			c0.257,0.289,0.519,0.575,0.78,0.86l1.042,1.137l-0.177-1.532c-0.362-3.123-0.315-5.732,0.154-8.071
			c1.244,3.496,1.882,6.93,2.552,10.539l0.178,0.953c0.897,4.441,2.021,8.785,3.342,12.912
			c4.416,13.828,10.801,25.498,18.973,34.683c6.898,7.869,15.8,14.312,25.742,18.63l2.139,0.929l-1.569-1.725
			c-4.926-5.409-8.648-11.692-10.766-18.167l-2.345-7.227c2.147,3.198,5.087,7.576,6.158,8.737
			c4.466,5.258,10.175,9.911,16.969,13.831c5.849,3.356,12.345,5.979,19.311,7.796l1.366,0.356l-0.838-1.137
			c-3.115-4.229-6.684-9.345-9.527-15.229l-2.562-5.449c0.039,0.038,0.078,0.077,0.117,0.116c2.218,2.195,5.255,5.203,6.453,6.117
			c10.775,8.785,24.331,13.524,38.094,13.441l1.497-0.013l-1.204-0.89c-0.953-0.704-1.932-1.468-2.91-2.272
			c-3.874-3.158-8.504-7.402-11.17-12.95c0.778,0.713,1.587,1.458,2.413,2.22c3.317,3.058,7.077,6.524,10.146,8.998
			c13.417,10.784,31.168,16.972,49.984,17.423l0.854,0.021l-0.401-0.755c-0.818-1.541-1.776-3.338-2.662-4.998l-0.084-0.156
			l-0.164-0.069c-3.598-1.513-7.275-3.346-11.179-5.572c4.524,0.822,9.232,2.028,14.305,3.662c1.209,0.41,2.188,0.766,3.124,1.135
			c6.356,1.88,12.721,3.787,19.058,5.69l0.919,0.276l-0.301-0.911c-1.414-4.289-4.298-10.042-10.028-13.109l-0.33-0.151
			l-0.115,0.002c-0.772,0.018-1.547,0.018-2.308,0c-2.316-0.039-4.934-0.107-7.597-0.38c2.587-0.84,5.141-1.424,7.372-1.894
			c2.239-0.436,4.786-0.929,7.382-0.871c7.418-0.615,15.132,0.374,22.297,2.871l0.962,0.336l-0.322-0.966
			c-1.09-3.261-3.1-6.294-5.663-8.544c-0.733-0.636-1.564-1.242-2.47-1.804l-0.169-0.104l-0.195,0.039
			c-7.801,1.597-16.469,2.344-25.747,2.201c-7.464-0.124-16.045-0.641-24.108-3.343c3.916,0.006,7.856,0.135,11.691,0.259
			c8.444,0.275,17.178,0.56,25.752-0.456c21.279-2.169,37.091-9.231,46.996-20.991c2.211-2.621,4.192-5.58,5.888-8.793l0.49-0.93
			l-1.03,0.206c-5.164,1.031-10.172,0.807-14.646-0.642c12.089-0.123,24.269-2.293,33.357-13.883
			c3.809-4.935,6.744-10.952,8.975-18.396l0.392-1.304l-1.143,0.74c-6.626,4.3-12.838,6.315-18.531,6.032
			c3.112-1.146,5.985-2.286,8.729-3.465c0.407-0.168,0.798-0.351,1.189-0.533l0.401-0.188c6.587-2.289,12.583-6.816,17.787-13.418
			l0.268-0.275l0.142-0.222v-0.032c2.812-3.642,5.452-7.959,7.864-12.87l0.07-0.181
			C333.889,198.701,341.053,175.268,335.023,160.991z M228.433,285.628c3.617-1.042,7.273-1.904,10.83-2.743
			c5.114-1.207,10.403-2.454,15.504-4.221c8.688-2.7,16.729-6.45,24.512-11.437c-0.955,1.237-2.111,2.452-3.492,3.67
			c-7.959,6.59-19.377,11.095-34.905,13.771C237.397,285.271,232.984,285.888,228.433,285.628z M230.359,174.013
			c-0.732-0.139-1.462-0.278-2.188-0.418c-5.876-1.126-11.427-2.189-17.352-2.589c-4.02-0.412-8.105-0.539-12.058-0.662
			c-2.561-0.079-5.187-0.161-7.805-0.32c11.584-3.319,29.474-1.684,39.15,3.839C230.19,173.912,230.274,173.962,230.359,174.013z
			 M205.896,311.94c-12.913-0.521-31.504-8.137-40.314-18.908c1.003,0.589,2.016,1.189,3.035,1.794
			c3.704,2.196,7.534,4.467,11.228,6.349c6.737,3.502,14.287,6.649,23.079,9.622c0.741,0.271,1.484,0.521,2.229,0.771
			c0.379,0.127,0.762,0.256,1.146,0.388C206.162,311.95,206.027,311.945,205.896,311.94z M136.77,166.259
			c-1.771,1.104-3.534,2.076-5.251,3.022c-1.197,0.659-2.386,1.313-3.568,2.008c-3.171,1.878-6.364,4.178-9.491,6.837
			c-2.896,2.459-5.722,5.23-8.397,8.235c-1.057,1.162-2.013,2.385-2.936,3.566c-1.189,1.522-2.327,2.978-3.669,4.327
			c0.832-2.951,2.666-5.488,4.447-7.954l0.764-1.062c5.982-8.042,16.154-17.218,26.759-18.853
			C135.851,166.324,136.297,166.281,136.77,166.259z M51.361,17.76c0.023,0.944-0.214,1.88-0.685,2.707
			c-0.691,1.219-1.82,2.095-3.179,2.466c-1.334,0.371-2.774,0.187-3.992-0.501c-0.998-0.572-1.764-1.436-2.215-2.496l-0.071-0.168
			l-0.162-0.082c-0.226-0.115-0.458-0.205-0.695-0.271c0.159-0.17,0.317-0.369,0.464-0.6l0.095-0.15L40.9,18.487
			c-0.137-1.131,0.086-2.247,0.646-3.228c1.437-2.521,4.653-3.399,7.169-1.966c0.903,0.521,1.625,1.282,2.086,2.202l0.066,0.131
			l0.126,0.075c0.497,0.294,0.997,0.509,1.496,0.644c-0.35,0.287-0.72,0.657-1.039,1.12l-0.092,0.133L51.361,17.76z M58.141,37.809
			c2.183-1.155,3.724-3.031,4.456-5.426c0.614-2.01,0.587-4.213-0.047-6.286c1.894,2.369,2.247,6.156,0.569,8.98
			c-1.631,2.869-5.121,4.435-8.135,3.933C56.1,38.764,57.157,38.361,58.141,37.809z"/>
	</g>
	<g>
		<path fill="#424242" d="M324.553,212.527c0,0-8.81,13.364-25.549,13.862c-15.732,0.469-30.015-10.14-34.228-13.779
			c3.253,0.441,10.182,0.974,11.896-2.136c1.198-2.174-0.287-5.431-4.541-9.958c-13.023-13.847-44.295-14.186-51.779-14.059
			c3.473-2.418,7.931-4.131,13.864-5.345c3.319-0.613,6.832-0.958,10.739-1.053l1.335-0.032l-1.027-0.853
			c-5.03-4.172-10.378-7.369-15.891-9.502c-12.477-4.967-27.229-5.9-43.848-2.768c-4.052,0.793-8.078,1.804-11.971,2.781
			c-2.392,0.601-4.843,1.216-7.317,1.785c5.896-3.585,12.534-5.419,17.835-6.634l1.32-0.303l-1.2-0.628
			c-1.17-0.612-2.458-1.182-3.832-1.694c-7.048-2.56-15.276-3.612-25.161-3.202c-18.403,1.135-35.005,8.435-45.544,20.025
			c-0.154,0.168-0.305,0.34-0.454,0.511l-0.153,0.166c-11.281,12.603-14.014,29.523-14.801,43.659
			c-2.006-9.606-0.722-20.573,3.716-31.274c0.976-2.428,2.186-4.841,3.596-7.171l0.878-1.451l-1.524,0.743
			c-7.74,3.77-15.854,5.88-23.449,6.104c-4.554-0.012-9.659-0.024-13.463-2.765c0.89,0.045,1.789,0.107,2.747,0.176l1.538,0.109
			l-1.182-0.991c-6.069-5.091-7.897-13.312-8.885-20.678c-0.051-0.418-0.094-0.838-0.139-1.276c-0.022-0.204-0.043-0.41-0.06-0.632
			c-0.039-0.37-0.075-0.739-0.104-1.137c-0.008-0.056-0.011-0.108-0.015-0.181c-0.036-0.391-0.066-0.78-0.092-1.182
			c-0.007-0.077-0.015-0.153-0.019-0.229l-0.041-0.88l-0.734,0.486c-2.631,1.742-7.553,4.133-10.941,0.556l-0.383-0.403l-0.36,0.423
			c-0.082,0.096-8.264,9.553-13.9,6.417l-0.729-0.407l-0.014,0.836c-0.087,5.462,0.163,10.749,0.746,15.714
			c0.053,0.449,0.108,0.903,0.168,1.352c0.655,5.054,1.687,9.959,3.066,14.577c0.137,0.455,0.273,0.905,0.417,1.351
			c0.386,1.229,0.807,2.464,1.273,3.729c0.178,0.475,0.356,0.95,0.542,1.422l0.107,0.274c0.217,0.551,0.438,1.097,0.667,1.645
			c0.27,0.638,0.546,1.271,0.831,1.906c0.241,0.535,0.487,1.065,0.739,1.59c0.935,1.963,1.987,3.949,3.128,5.905
			c0.539,0.919,1.101,1.839,1.684,2.747c0.586,0.911,1.188,1.818,1.818,2.717c0.418,0.6,0.849,1.198,1.29,1.788
			c1.104,1.491,2.279,2.973,3.493,4.404c0.493,0.579,0.999,1.152,1.511,1.724c0.257,0.289,0.519,0.575,0.78,0.86l1.042,1.137
			l-0.177-1.532c-0.362-3.124-0.315-5.732,0.154-8.071c1.244,3.496,1.882,6.93,2.552,10.539l0.178,0.953
			c0.897,4.441,2.021,8.785,3.342,12.912c4.416,13.828,10.801,25.498,18.973,34.683c6.898,7.869,15.8,14.312,25.742,18.63
			l2.139,0.929l-1.569-1.725c-4.926-5.409-8.648-11.692-10.766-18.167l-2.345-7.227c2.147,3.198,5.087,7.576,6.158,8.737
			c4.466,5.258,10.175,9.911,16.969,13.831c5.849,3.356,12.345,5.979,19.311,7.796l1.366,0.356l-0.838-1.137
			c-3.115-4.229-6.684-9.345-9.527-15.229l-2.562-5.449c0.039,0.038,0.078,0.077,0.117,0.116c2.218,2.195,5.255,5.203,6.453,6.117
			c10.646,8.68,23.979,13.443,37.597,13.443c0.166,0,0.332-0.001,0.497-0.002l1.497-0.013l-1.204-0.89
			c-0.953-0.704-1.932-1.468-2.91-2.272c-3.874-3.158-8.504-7.402-11.17-12.95c0.778,0.713,1.587,1.458,2.413,2.22
			c3.317,3.058,7.077,6.524,10.146,8.998c13.417,10.784,31.168,16.972,49.984,17.423l0.854,0.021l-0.401-0.755
			c-0.818-1.541-1.776-3.338-2.662-4.998l-0.084-0.156l-0.164-0.069c-3.598-1.513-7.275-3.345-11.179-5.572
			c4.524,0.822,9.232,2.028,14.305,3.662c1.209,0.41,2.188,0.766,3.124,1.135c6.356,1.88,12.721,3.787,19.058,5.69l0.919,0.276
			l-0.301-0.911c-1.414-4.289-4.298-10.042-10.028-13.109l-0.33-0.151l-0.115,0.002c-0.772,0.018-1.547,0.018-2.308,0
			c-2.316-0.039-4.934-0.107-7.597-0.38c2.587-0.84,5.141-1.424,7.372-1.894c2.238-0.437,4.769-0.92,7.382-0.871
			c7.418-0.615,15.132,0.374,22.297,2.871l0.962,0.336l-0.322-0.966c-1.09-3.261-3.1-6.294-5.663-8.544
			c-0.733-0.636-1.564-1.242-2.47-1.804l-0.169-0.104l-0.195,0.039c-7.801,1.597-16.469,2.344-25.747,2.201
			c-7.465-0.124-16.044-0.64-24.108-3.343c3.916,0.006,7.856,0.135,11.691,0.259c8.442,0.274,17.177,0.561,25.752-0.456
			c21.279-2.169,37.091-9.231,46.996-20.991c2.211-2.621,4.192-5.58,5.888-8.793l0.49-0.93l-1.03,0.206
			c-5.164,1.031-10.172,0.807-14.646-0.642c12.089-0.123,24.269-2.293,33.357-13.883c3.809-4.935,6.744-10.952,8.975-18.396
			l0.392-1.304l-1.143,0.74c-6.627,4.3-12.847,6.33-18.531,6.031c3.112-1.145,5.985-2.285,8.729-3.464
			C313.576,224.245,319.866,219.237,324.553,212.527z M129.602,233.703c1.656-0.467,3.478-1.908,3.562-3.97
			c0.043-1.101-0.483-1.923-0.948-2.648c-0.218-0.341-0.429-0.67-0.578-1.015c1.771,0.247,4.127,1.369,5.307,2.589
			c0.764,0.793,1.345,2.11,0.921,3.269c-0.436,1.184-1.763,1.848-2.799,2.197c-2.552,0.856-5.426,0.782-7.97-0.142
			C127.931,234.008,128.776,233.938,129.602,233.703z M131.519,169.281c-1.197,0.659-2.386,1.313-3.568,2.008
			c-3.171,1.878-6.364,4.178-9.492,6.837c-2.896,2.46-5.723,5.231-8.395,8.233c-1.058,1.163-2.014,2.386-2.938,3.568
			c-1.189,1.522-2.327,2.978-3.669,4.327c0.832-2.951,2.666-5.488,4.447-7.954l0.764-1.062c5.982-8.042,16.154-17.218,26.759-18.853
			c0.424-0.062,0.87-0.105,1.343-0.128C134.999,167.363,133.236,168.335,131.519,169.281z M262.992,232.799
			c1.316,0.247,3.003,1.073,3.838,1.938c0.567,0.589,1,1.565,0.688,2.419c-0.319,0.875-1.318,1.371-2.101,1.634
			c-1.742,0.588-3.685,0.605-5.464,0.098c0.434-0.024,0.87-0.088,1.298-0.208l0.001-0.001c1.324-0.377,2.777-1.534,2.838-3.183
			c0.034-0.888-0.383-1.54-0.75-2.115C263.214,233.184,263.092,232.992,262.992,232.799z M228.433,285.628
			c3.617-1.042,7.273-1.904,10.83-2.743c5.114-1.207,10.403-2.454,15.504-4.221c8.688-2.7,16.729-6.45,24.512-11.437
			c-0.955,1.237-2.111,2.452-3.491,3.67c-7.96,6.59-19.378,11.095-34.906,13.771C237.397,285.271,232.984,285.888,228.433,285.628z
			 M226.64,227.489c2.437-0.69,5.112-2.802,5.229-5.806c0.061-1.593-0.683-2.755-1.401-3.878c-0.423-0.661-0.828-1.294-1.056-1.993
			c2.791,0.254,6.738,2.077,8.66,4.067c1.22,1.266,2.144,3.377,1.459,5.243c-0.697,1.898-2.79,2.954-4.423,3.506
			c-4.437,1.493-9.506,1.158-13.762-0.822C223.088,227.974,224.898,227.984,226.64,227.489z M233.592,252.622
			c1.323-0.376,2.776-1.532,2.842-3.183c0.034-0.888-0.384-1.541-0.752-2.117c-0.126-0.195-0.248-0.386-0.349-0.579
			c1.316,0.248,3.002,1.074,3.836,1.938c0.569,0.591,1.003,1.566,0.688,2.418c-0.321,0.877-1.318,1.372-2.101,1.634
			c-1.739,0.588-3.679,0.604-5.464,0.098C232.729,252.807,233.165,252.743,233.592,252.622z M159.502,214.385
			c0.034-0.889-0.384-1.542-0.752-2.118c-0.125-0.195-0.247-0.386-0.348-0.579c1.316,0.248,3.001,1.074,3.835,1.938
			c0.569,0.592,1.004,1.566,0.689,2.415c-0.322,0.879-1.32,1.376-2.102,1.638c-1.744,0.588-3.688,0.604-5.47,0.097
			c0.437-0.025,0.875-0.09,1.305-0.213C157.984,217.191,159.437,216.037,159.502,214.385z M157.395,242.582
			c2.435-0.691,5.108-2.803,5.225-5.805c0.063-1.591-0.681-2.753-1.399-3.876c-0.424-0.662-0.829-1.295-1.058-1.995
			c2.79,0.254,6.738,2.077,8.66,4.066c1.222,1.269,2.146,3.383,1.459,5.248c-0.692,1.895-2.787,2.95-4.423,3.502
			c-4.438,1.494-9.51,1.157-13.768-0.822C153.835,243.066,155.655,243.076,157.395,242.582z M160.445,263.638
			c1.933-0.548,4.055-2.228,4.146-4.62c0.05-1.275-0.539-2.195-1.108-3.085c-0.291-0.455-0.571-0.894-0.752-1.362
			c2.137,0.25,5.058,1.621,6.499,3.114c0.926,0.962,1.629,2.562,1.111,3.968c-0.528,1.438-2.125,2.24-3.372,2.659
			c-3.218,1.085-6.873,0.921-10.035-0.371C158.096,264.009,159.29,263.965,160.445,263.638z M205.896,311.94
			c-12.913-0.521-31.504-8.137-40.314-18.908c1.003,0.589,2.016,1.189,3.035,1.794c3.704,2.196,7.534,4.467,11.228,6.349
			c6.737,3.502,14.287,6.649,23.079,9.622c0.741,0.271,1.484,0.521,2.229,0.771c0.379,0.127,0.762,0.256,1.146,0.388
			C206.162,311.95,206.027,311.945,205.896,311.94z M190.957,170.024c11.585-3.319,29.477-1.685,39.146,3.837
			c0.084,0.05,0.169,0.101,0.256,0.152c-0.732-0.139-1.462-0.278-2.188-0.418c-5.876-1.126-11.427-2.189-17.352-2.589
			c-4.02-0.412-8.105-0.539-12.058-0.662C196.201,170.265,193.574,170.183,190.957,170.024z M204.259,263.111
			c1.656-0.472,3.477-1.915,3.561-3.974c0.043-1.097-0.482-1.918-0.946-2.642c-0.219-0.343-0.431-0.674-0.58-1.021
			c1.774,0.249,4.13,1.373,5.306,2.594c0.766,0.788,1.348,2.104,0.922,3.264c-0.436,1.187-1.763,1.851-2.799,2.2
			c-2.554,0.857-5.431,0.782-7.975-0.145C202.587,263.416,203.434,263.346,204.259,263.111z M203.349,212.979
			c1.933-0.547,4.056-2.227,4.151-4.62c0.05-1.275-0.539-2.195-1.108-3.085c-0.291-0.456-0.571-0.894-0.752-1.362
			c2.135,0.25,5.054,1.621,6.496,3.115c0.928,0.959,1.632,2.559,1.116,3.969c-0.528,1.434-2.127,2.237-3.374,2.66
			c-3.226,1.084-6.88,0.918-10.037-0.374C201.002,213.353,202.196,213.305,203.349,212.979z M209.184,240.455
			c1.324-0.377,2.777-1.533,2.838-3.184c0.034-0.888-0.383-1.54-0.751-2.115c-0.125-0.195-0.247-0.386-0.348-0.579
			c1.313,0.246,3,1.07,3.838,1.937c0.567,0.589,1.001,1.564,0.688,2.418c-0.319,0.875-1.318,1.371-2.101,1.634
			c-1.742,0.588-3.683,0.606-5.461,0.102C208.321,240.642,208.755,240.577,209.184,240.455z M187.83,223.112
			c0.034-0.889-0.384-1.541-0.752-2.117c-0.126-0.196-0.248-0.387-0.349-0.58c1.316,0.248,3.001,1.074,3.836,1.938
			c0.569,0.591,1.003,1.566,0.688,2.415c-0.32,0.875-1.319,1.373-2.1,1.638c-1.744,0.585-3.686,0.604-5.467,0.097
			c0.437-0.025,0.872-0.089,1.301-0.212C186.311,225.918,187.764,224.765,187.83,223.112z M186.537,249.498
			c1.657-0.471,3.478-1.915,3.56-3.973c0.044-1.099-0.481-1.921-0.945-2.646c-0.219-0.342-0.431-0.672-0.58-1.018
			c1.774,0.25,4.131,1.374,5.308,2.594c0.765,0.79,1.346,2.104,0.919,3.264c-0.436,1.187-1.762,1.852-2.798,2.201
			c-2.554,0.856-5.431,0.78-7.974-0.145C184.86,249.791,185.713,249.733,186.537,249.498z"/>
		<path fill="#424242" d="M167.255,483.71c8.844-5.776,11.165-12.908,11.165-12.908c-13.262,15.317-40.928,10.43-41.186,10.381
			l0.087-1.169l-2.554,5.079l7.039,1.727h1.865c0.993,0.084,9.924-0.023,17.447-1.246l-0.176,2.724
			c0.22,0.039,5.468,0.936,11.446,0.936c4.737-0.001,8.012-1.327,10.99-2.413c9.22-3.362,10.128-14.383,10.134-14.884l0.18-12.48
			l-0.809,11.559C190.183,481.435,174.595,485.274,167.255,483.71z"/>
	</g>
	<g>
		<path fill="#F4463D" d="M32.659,29.824c-1.864,0.551-3.746,1.046-5.629,1.407c-3.417-0.602-6.871-1.318-10.231-2.174
			c-1.376-0.355-2.738-0.754-4.07-1.179c2.212,0.013,4.424,0.051,6.63,0.298C23.797,28.544,28.253,29.082,32.659,29.824z"/>
		<path fill="#F4463D" d="M34.624,27.187c-5.02-0.678-10.028-1.185-15.093-1.477c-3.296-0.19-6.675-0.273-9.952-0.241
			c-1.832-0.063-3.784,0.006-5.61-0.254c6.725-2.054,14.909-4.26,22.053-6.117c1.895,2.054,3.841,3.993,5.927,5.863
			C32.843,25.729,33.717,26.477,34.624,27.187z"/>
	</g>
	<g>
		<path fill="#FFFFFF" d="M52.082,14.811c-0.574-1.149-1.484-2.148-2.685-2.834c-3.245-1.85-7.392-0.716-9.241,2.528
			c-0.746,1.313-0.999,2.767-0.828,4.162c-0.671,1.059-1.604,1.469-1.604,1.469c0.858-0.082,1.559,0.119,2.103,0.395
			c0.559,1.313,1.529,2.454,2.857,3.215c1.037,0.589,2.185,0.895,3.349,0.895c0.597,0,1.201-0.082,1.797-0.246
			c1.745-0.477,3.2-1.604,4.095-3.177c0.627-1.104,0.91-2.305,0.88-3.491c0.999-1.447,2.476-2.051,2.476-2.051
			C54.036,15.751,52.925,15.311,52.082,14.811z"/>
		<path fill="#FFFFFF" d="M49.463,19.777c-0.906,1.585-2.77,2.276-4.45,1.781c1.084-0.025,2.13-0.59,2.707-1.604
			c0.051-0.089,0.101-0.171,0.14-0.266c-0.494,0.139-1.046,0.089-1.528-0.19c-0.957-0.539-1.293-1.756-0.748-2.713
			c0.292-0.507,0.767-0.837,1.299-0.951c-0.108-0.089-0.228-0.165-0.355-0.235c-1.293-0.742-2.884-0.463-3.873,0.564
			c0.032-0.07,0.063-0.14,0.108-0.209c0.71-1.249,2.016-1.946,3.353-1.946c0.647,0,1.306,0.165,1.908,0.507
			C49.869,15.568,50.515,17.926,49.463,19.777z"/>
		<path fill="#FFFFFF" d="M32.659,139.052c0,0,3.77,13.471,9.996,7.646c0,0,11.525,12.601,16.105-7.646c0,0-2.155,16.52,0,21.435
			c0,0-8.032,6.853-13.051,1.558c0,0-9.536,11.17-15.61,5.741C30.099,167.785,29.752,145.498,32.659,139.052z"/>
		<path fill="#FFFFFF" d="M152.621,285.887c0,0,42.967,20.195,43.56,2.662c0,0,32.58,6.825,53.423,0.662
			c0,0,9.587,6.354,8.914,12.717c0,0-20.507-2.266-24.429-1.37l7.508,16.361l-24.653-6.836l2.914,8.405
			c0,0-32.61-2.577-46.954-13.447S152.621,285.887,152.621,285.887z"/>
		<path fill="#FFFFFF" d="M27.803,16.367c0,0,4.916-0.908,13.457-9.667c6.043-6.198,22.824,2.622,27.376,13.99
			c10.954,27.356-33.859,144.054-1.855,166.546c0,0-14.354-21.789-6.03-59.709s13.18-92.489,13.18-92.489s2.8-31.909-27.619-33.527
			L40.866,3.2L32.66,9.835L27.803,16.367z"/>
		<path fill="#FFFFFF" d="M62.54,187.001c0,0,13.559,12.885,38.22-0.521l1.873-2.671C102.633,183.809,73.93,194.325,62.54,187.001z"
			/>
		<path fill="#FFFFFF" d="M129.312,169.274c24.337-13.81,44.56-6.909,54.648-4.921c0.488,0.096,0-1.991,0-1.991
			s-16.594-10.176-49.058-0.788s-38.484,39.702-38.484,39.702S94.763,188.878,129.312,169.274z"/>
		<path fill="#FFFFFF" d="M164.287,172.421c0,0,51.917-15.584,79.316,8.308l4.43-0.102
			C248.034,180.626,217.866,149.286,164.287,172.421z"/>
		<path fill="#FFFFFF" d="M218.792,187.001c0,0,34.603-5.828,56.584,3.265c20.99,8.683,47.121,5.147,57.705-25.33
			c0,0-10.456,16.772-19.014,21.229s-24.248,4.636-35.125,0.891S244.581,176.069,218.792,187.001z"/>
		<path fill="#FFFFFF" d="M137.838,481.645c0,0,11.356-5.01,21.196-6.612s16.648-16.401,16.648-16.401s-10.403,11.539-19.017,13.284
			S139.339,475.931,137.838,481.645z"/>
		<path fill="#FFFFFF" d="M192.013,315.617c0,0,15.221,35.53,13.573,43.46s-15.587,83.953-13.573,112.838l3.186-4.659
			c0,0,2.839-32.827,3.564-38.795c0.726-5.968,10.797-69.01,10.797-69.01l-2.032-12.87l-9.532-30.964H192.013z"/>
		<polygon fill="#FFFFFF" points="3.969,25.216 28.447,20.238 26.266,17.862 		"/>
	</g>
	<path fill="#231F20" d="M61.26,24.284c2.466,4.621,1.388,10.573-3.353,13.083c-1.464,0.824-3.157,1.337-5.084,1.42
		c3.645,2.009,8.678,0.158,10.732-3.461C65.678,31.751,64.803,26.464,61.26,24.284z M51.244,15.27
		c-0.488-0.976-1.261-1.826-2.282-2.409c-2.757-1.572-6.282-0.609-7.854,2.149c-0.634,1.116-0.849,2.352-0.704,3.537
		c-0.571,0.9-1.363,1.249-1.363,1.249c0.729-0.07,1.325,0.101,1.788,0.336c0.475,1.116,1.299,2.085,2.428,2.732
		c0.881,0.501,1.857,0.761,2.846,0.761c0.507,0,1.02-0.07,1.528-0.209c1.483-0.406,2.719-1.363,3.48-2.7
		c0.533-0.938,0.773-1.959,0.748-2.967c0.849-1.23,2.104-1.743,2.104-1.743C52.905,16.069,51.961,15.695,51.244,15.27z
		 M49.463,19.777c-0.906,1.585-2.77,2.276-4.45,1.781c1.084-0.025,2.13-0.59,2.707-1.604c0.051-0.089,0.101-0.171,0.14-0.266
		c-0.494,0.139-1.046,0.089-1.528-0.19c-0.957-0.539-1.293-1.756-0.748-2.713c0.292-0.507,0.767-0.837,1.299-0.951
		c-0.108-0.089-0.228-0.165-0.355-0.235c-1.293-0.742-2.884-0.463-3.873,0.564c0.032-0.07,0.063-0.14,0.108-0.209
		c0.71-1.249,2.016-1.946,3.353-1.946c0.647,0,1.306,0.165,1.908,0.507C49.869,15.568,50.515,17.926,49.463,19.777z M230.36,173.43
		c-10.7-6.111-30.477-7.448-41.957-3.087c7.473,0.621,14.928,0.399,22.363,1.16c7.511,0.507,14.567,2.111,22.027,3.474
		C232.008,174.419,231.191,173.924,230.36,173.43z M135.354,165.893c-10.56,1.629-20.886,10.713-27.086,19.048
		c-2.371,3.328-5.008,6.58-5.635,10.776c3.106-2.719,5.084-6.034,7.803-9.02c2.605-2.929,5.388-5.68,8.348-8.19
		c2.96-2.516,6.092-4.817,9.42-6.789c3.36-1.965,6.776-3.632,10.262-5.958C137.42,165.715,136.374,165.741,135.354,165.893z
		 M254.619,278.185c-9.439,3.271-19.181,4.678-28.784,7.702c5.071,0.672,10.136,0.14,15.131-0.723
		c12.202-2.104,25.444-5.851,35.142-13.882c1.927-1.699,3.689-3.626,4.982-5.844C272.76,271.047,264.121,275.231,254.619,278.185z
		 M230.36,173.43c-10.7-6.111-30.477-7.448-41.957-3.087c7.473,0.621,14.928,0.399,22.363,1.16
		c7.511,0.507,14.567,2.111,22.027,3.474C232.008,174.419,231.191,173.924,230.36,173.43z M203.09,310.323
		c-7.885-2.662-15.638-5.756-23.016-9.591c-5.413-2.757-11.08-6.332-16.367-9.369c8.101,11.873,28.062,20.506,42.166,21.077
		c1.078,0.044,2.149,0.07,3.226,0.038C207.116,311.635,205.094,311.058,203.09,310.323z M135.354,165.893
		c-10.56,1.629-20.886,10.713-27.086,19.048c-2.371,3.328-5.008,6.58-5.635,10.776c3.106-2.719,5.084-6.034,7.803-9.02
		c2.605-2.929,5.388-5.68,8.348-8.19c2.96-2.516,6.092-4.817,9.42-6.789c3.36-1.965,6.776-3.632,10.262-5.958
		C137.42,165.715,136.374,165.741,135.354,165.893z M61.26,24.284c2.466,4.621,1.388,10.573-3.353,13.083
		c-1.464,0.824-3.157,1.337-5.084,1.42c3.645,2.009,8.678,0.158,10.732-3.461C65.678,31.751,64.803,26.464,61.26,24.284z
		 M51.244,15.27c-0.488-0.976-1.261-1.826-2.282-2.409c-2.757-1.572-6.282-0.609-7.854,2.149c-0.634,1.116-0.849,2.352-0.704,3.537
		c-0.571,0.9-1.363,1.249-1.363,1.249c0.729-0.07,1.325,0.101,1.788,0.336c0.475,1.116,1.299,2.085,2.428,2.732
		c0.881,0.501,1.857,0.761,2.846,0.761c0.507,0,1.02-0.07,1.528-0.209c1.483-0.406,2.719-1.363,3.48-2.7
		c0.533-0.938,0.773-1.959,0.748-2.967c0.849-1.23,2.104-1.743,2.104-1.743C52.905,16.069,51.961,15.695,51.244,15.27z
		 M49.463,19.777c-0.906,1.585-2.77,2.276-4.45,1.781c1.084-0.025,2.13-0.59,2.707-1.604c0.051-0.089,0.101-0.171,0.14-0.266
		c-0.494,0.139-1.046,0.089-1.528-0.19c-0.957-0.539-1.293-1.756-0.748-2.713c0.292-0.507,0.767-0.837,1.299-0.951
		c-0.108-0.089-0.228-0.165-0.355-0.235c-1.293-0.742-2.884-0.463-3.873,0.564c0.032-0.07,0.063-0.14,0.108-0.209
		c0.71-1.249,2.016-1.946,3.353-1.946c0.647,0,1.306,0.165,1.908,0.507C49.869,15.568,50.515,17.926,49.463,19.777z M51.244,15.27
		c-0.488-0.976-1.261-1.826-2.282-2.409c-2.757-1.572-6.282-0.609-7.854,2.149c-0.634,1.116-0.849,2.352-0.704,3.537
		c-0.571,0.9-1.363,1.249-1.363,1.249c0.729-0.07,1.325,0.101,1.788,0.336c0.475,1.116,1.299,2.085,2.428,2.732
		c0.881,0.501,1.857,0.761,2.846,0.761c0.507,0,1.02-0.07,1.528-0.209c1.483-0.406,2.719-1.363,3.48-2.7
		c0.533-0.938,0.773-1.959,0.748-2.967c0.849-1.23,2.104-1.743,2.104-1.743C52.905,16.069,51.961,15.695,51.244,15.27z
		 M49.463,19.777c-0.906,1.585-2.77,2.276-4.45,1.781c1.084-0.025,2.13-0.59,2.707-1.604c0.051-0.089,0.101-0.171,0.14-0.266
		c-0.494,0.139-1.046,0.089-1.528-0.19c-0.957-0.539-1.293-1.756-0.748-2.713c0.292-0.507,0.767-0.837,1.299-0.951
		c-0.108-0.089-0.228-0.165-0.355-0.235c-1.293-0.742-2.884-0.463-3.873,0.564c0.032-0.07,0.063-0.14,0.108-0.209
		c0.71-1.249,2.016-1.946,3.353-1.946c0.647,0,1.306,0.165,1.908,0.507C49.869,15.568,50.515,17.926,49.463,19.777z M61.26,24.284
		c2.466,4.621,1.388,10.573-3.353,13.083c-1.464,0.824-3.157,1.337-5.084,1.42c3.645,2.009,8.678,0.158,10.732-3.461
		C65.678,31.751,64.803,26.464,61.26,24.284z M135.354,165.893c-10.56,1.629-20.886,10.713-27.086,19.048
		c-2.371,3.328-5.008,6.58-5.635,10.776c3.106-2.719,5.084-6.034,7.803-9.02c2.605-2.929,5.388-5.68,8.348-8.19
		c2.96-2.516,6.092-4.817,9.42-6.789c3.36-1.965,6.776-3.632,10.262-5.958C137.42,165.715,136.374,165.741,135.354,165.893z
		 M203.09,310.323c-7.885-2.662-15.638-5.756-23.016-9.591c-5.413-2.757-11.08-6.332-16.367-9.369
		c8.101,11.873,28.062,20.506,42.166,21.077c1.078,0.044,2.149,0.07,3.226,0.038C207.116,311.635,205.094,311.058,203.09,310.323z
		 M230.36,173.43c-10.7-6.111-30.477-7.448-41.957-3.087c7.473,0.621,14.928,0.399,22.363,1.16
		c7.511,0.507,14.567,2.111,22.027,3.474C232.008,174.419,231.191,173.924,230.36,173.43z M254.619,278.185
		c-9.439,3.271-19.181,4.678-28.784,7.702c5.071,0.672,10.136,0.14,15.131-0.723c12.202-2.104,25.444-5.851,35.142-13.882
		c1.927-1.699,3.689-3.626,4.982-5.844C272.76,271.047,264.121,275.231,254.619,278.185z M254.619,278.185
		c-9.439,3.271-19.181,4.678-28.784,7.702c5.071,0.672,10.136,0.14,15.131-0.723c12.202-2.104,25.444-5.851,35.142-13.882
		c1.927-1.699,3.689-3.626,4.982-5.844C272.76,271.047,264.121,275.231,254.619,278.185z M230.36,173.43
		c-10.7-6.111-30.477-7.448-41.957-3.087c7.473,0.621,14.928,0.399,22.363,1.16c7.511,0.507,14.567,2.111,22.027,3.474
		C232.008,174.419,231.191,173.924,230.36,173.43z M203.09,310.323c-7.885-2.662-15.638-5.756-23.016-9.591
		c-5.413-2.757-11.08-6.332-16.367-9.369c8.101,11.873,28.062,20.506,42.166,21.077c1.078,0.044,2.149,0.07,3.226,0.038
		C207.116,311.635,205.094,311.058,203.09,310.323z M135.354,165.893c-10.56,1.629-20.886,10.713-27.086,19.048
		c-2.371,3.328-5.008,6.58-5.635,10.776c3.106-2.719,5.084-6.034,7.803-9.02c2.605-2.929,5.388-5.68,8.348-8.19
		c2.96-2.516,6.092-4.817,9.42-6.789c3.36-1.965,6.776-3.632,10.262-5.958C137.42,165.715,136.374,165.741,135.354,165.893z
		 M61.26,24.284c2.466,4.621,1.388,10.573-3.353,13.083c-1.464,0.824-3.157,1.337-5.084,1.42c3.645,2.009,8.678,0.158,10.732-3.461
		C65.678,31.751,64.803,26.464,61.26,24.284z M51.244,15.27c-0.488-0.976-1.261-1.826-2.282-2.409
		c-2.757-1.572-6.282-0.609-7.854,2.149c-0.634,1.116-0.849,2.352-0.704,3.537c-0.571,0.9-1.363,1.249-1.363,1.249
		c0.729-0.07,1.325,0.101,1.788,0.336c0.475,1.116,1.299,2.085,2.428,2.732c0.881,0.501,1.857,0.761,2.846,0.761
		c0.507,0,1.02-0.07,1.528-0.209c1.483-0.406,2.719-1.363,3.48-2.7c0.533-0.938,0.773-1.959,0.748-2.967
		c0.849-1.23,2.104-1.743,2.104-1.743C52.905,16.069,51.961,15.695,51.244,15.27z M49.463,19.777
		c-0.906,1.585-2.77,2.276-4.45,1.781c1.084-0.025,2.13-0.59,2.707-1.604c0.051-0.089,0.101-0.171,0.14-0.266
		c-0.494,0.139-1.046,0.089-1.528-0.19c-0.957-0.539-1.293-1.756-0.748-2.713c0.292-0.507,0.767-0.837,1.299-0.951
		c-0.108-0.089-0.228-0.165-0.355-0.235c-1.293-0.742-2.884-0.463-3.873,0.564c0.032-0.07,0.063-0.14,0.108-0.209
		c0.71-1.249,2.016-1.946,3.353-1.946c0.647,0,1.306,0.165,1.908,0.507C49.869,15.568,50.515,17.926,49.463,19.777z M51.244,15.27
		c-0.488-0.976-1.261-1.826-2.282-2.409c-2.757-1.572-6.282-0.609-7.854,2.149c-0.634,1.116-0.849,2.352-0.704,3.537
		c-0.571,0.9-1.363,1.249-1.363,1.249c0.729-0.07,1.325,0.101,1.788,0.336c0.475,1.116,1.299,2.085,2.428,2.732
		c0.881,0.501,1.857,0.761,2.846,0.761c0.507,0,1.02-0.07,1.528-0.209c1.483-0.406,2.719-1.363,3.48-2.7
		c0.533-0.938,0.773-1.959,0.748-2.967c0.849-1.23,2.104-1.743,2.104-1.743C52.905,16.069,51.961,15.695,51.244,15.27z
		 M49.463,19.777c-0.906,1.585-2.77,2.276-4.45,1.781c1.084-0.025,2.13-0.59,2.707-1.604c0.051-0.089,0.101-0.171,0.14-0.266
		c-0.494,0.139-1.046,0.089-1.528-0.19c-0.957-0.539-1.293-1.756-0.748-2.713c0.292-0.507,0.767-0.837,1.299-0.951
		c-0.108-0.089-0.228-0.165-0.355-0.235c-1.293-0.742-2.884-0.463-3.873,0.564c0.032-0.07,0.063-0.14,0.108-0.209
		c0.71-1.249,2.016-1.946,3.353-1.946c0.647,0,1.306,0.165,1.908,0.507C49.869,15.568,50.515,17.926,49.463,19.777z M61.26,24.284
		c2.466,4.621,1.388,10.573-3.353,13.083c-1.464,0.824-3.157,1.337-5.084,1.42c3.645,2.009,8.678,0.158,10.732-3.461
		C65.678,31.751,64.803,26.464,61.26,24.284z M135.354,165.893c-10.56,1.629-20.886,10.713-27.086,19.048
		c-2.371,3.328-5.008,6.58-5.635,10.776c3.106-2.719,5.084-6.034,7.803-9.02c2.605-2.929,5.388-5.68,8.348-8.19
		c2.96-2.516,6.092-4.817,9.42-6.789c3.36-1.965,6.776-3.632,10.262-5.958C137.42,165.715,136.374,165.741,135.354,165.893z
		 M203.09,310.323c-7.885-2.662-15.638-5.756-23.016-9.591c-5.413-2.757-11.08-6.332-16.367-9.369
		c8.101,11.873,28.062,20.506,42.166,21.077c1.078,0.044,2.149,0.07,3.226,0.038C207.116,311.635,205.094,311.058,203.09,310.323z
		 M230.36,173.43c-10.7-6.111-30.477-7.448-41.957-3.087c7.473,0.621,14.928,0.399,22.363,1.16
		c7.511,0.507,14.567,2.111,22.027,3.474C232.008,174.419,231.191,173.924,230.36,173.43z M254.619,278.185
		c-9.439,3.271-19.181,4.678-28.784,7.702c5.071,0.672,10.136,0.14,15.131-0.723c12.202-2.104,25.444-5.851,35.142-13.882
		c1.927-1.699,3.689-3.626,4.982-5.844C272.76,271.047,264.121,275.231,254.619,278.185z M254.619,278.185
		c-9.439,3.271-19.181,4.678-28.784,7.702c5.071,0.672,10.136,0.14,15.131-0.723c12.202-2.104,25.444-5.851,35.142-13.882
		c1.927-1.699,3.689-3.626,4.982-5.844C272.76,271.047,264.121,275.231,254.619,278.185z M230.36,173.43
		c-10.7-6.111-30.477-7.448-41.957-3.087c7.473,0.621,14.928,0.399,22.363,1.16c7.511,0.507,14.567,2.111,22.027,3.474
		C232.008,174.419,231.191,173.924,230.36,173.43z M180.074,300.732c-5.413-2.757-11.08-6.332-16.367-9.369
		c8.101,11.873,28.062,20.506,42.166,21.077c1.078,0.044,2.149,0.07,3.226,0.038c-1.984-0.843-4.006-1.42-6.009-2.155
		C195.205,307.66,187.453,304.567,180.074,300.732z M135.354,165.893c-10.56,1.629-20.886,10.713-27.086,19.048
		c-2.371,3.328-5.008,6.58-5.635,10.776c3.106-2.719,5.084-6.034,7.803-9.02c2.605-2.929,5.388-5.68,8.348-8.19
		c2.96-2.516,6.092-4.817,9.42-6.789c3.36-1.965,6.776-3.632,10.262-5.958C137.42,165.715,136.374,165.741,135.354,165.893z
		 M61.26,24.284c2.466,4.621,1.388,10.573-3.353,13.083c-1.464,0.824-3.157,1.337-5.084,1.42c3.645,2.009,8.678,0.158,10.732-3.461
		C65.678,31.751,64.803,26.464,61.26,24.284z M51.244,15.27c-0.488-0.976-1.261-1.826-2.282-2.409
		c-2.757-1.572-6.282-0.609-7.854,2.149c-0.634,1.116-0.849,2.352-0.704,3.537c-0.571,0.9-1.363,1.249-1.363,1.249
		c0.729-0.07,1.325,0.101,1.788,0.336c0.475,1.116,1.299,2.085,2.428,2.732c0.881,0.501,1.857,0.761,2.846,0.761
		c0.507,0,1.02-0.07,1.528-0.209c1.483-0.406,2.719-1.363,3.48-2.7c0.533-0.938,0.773-1.959,0.748-2.967
		c0.849-1.23,2.104-1.743,2.104-1.743C52.905,16.069,51.961,15.695,51.244,15.27z M49.463,19.777
		c-0.906,1.585-2.77,2.276-4.45,1.781c1.084-0.025,2.13-0.59,2.707-1.604c0.051-0.089,0.101-0.171,0.14-0.266
		c-0.494,0.139-1.046,0.089-1.528-0.19c-0.957-0.539-1.293-1.756-0.748-2.713c0.292-0.507,0.767-0.837,1.299-0.951
		c-0.108-0.089-0.228-0.165-0.355-0.235c-1.293-0.742-2.884-0.463-3.873,0.564c0.032-0.07,0.063-0.14,0.108-0.209
		c0.71-1.249,2.016-1.946,3.353-1.946c0.647,0,1.306,0.165,1.908,0.507C49.869,15.568,50.515,17.926,49.463,19.777z M335.546,158.28
		l-1.185-6.504c-5.147,20.17-20.842,38.679-43.307,35.871c-5.464-0.602-12.304-3.049-17.616-4.558
		c-2.307-0.513-5.806-1.458-8.133-1.838c-1.471-0.254-3.676-0.634-5.141-0.875c-1.395-0.165-4.83-0.513-6.231-0.659
		c-1.382-0.076-2.764-0.127-4.152-0.158c-5.401-5.534-11.93-10.079-19.162-12.976c-13.261-5.47-28.081-5.756-42.064-3.182
		c-9.42-6.96-22.142-8.253-33.501-7.993c-5.939,0.152-11.917,1.299-17.616,2.973c-12.335,3.379-23.834,10.288-31.916,20.1
		c-2.77,1.401-5.546,2.764-8.412,3.955c-0.919,0.355-3.233,1.249-4.127,1.597c-5.052,1.731-10.364,3.068-15.689,3.467
		c-0.704,0.057-1.407,0.089-2.105,0.108c-2.187-0.361-4.247-1.179-5.984-2.498c-15.568-12.075-6.529-61.03-3.955-79.286
		c1.591-9.819,3.271-20.094,5.293-29.862c2.922-14.934,6.035-30.274,4.786-45.658C74.676,23.23,72.8,15.56,67.932,9.994
		C63.609,5.823,58.5,2.54,52.713,0.803C47.426-0.845,41.094-0.04,36.986,3.941c-0.875,0.754-1.908,2.028-2.694,2.846
		c-3.993,4.209-8.602,7.981-13.666,10.833c-6.37,2.06-12.893,4.006-19.194,5.927c-2.187,1.002-1.743,3.131,0.456,3.613
		c1.116,0.228,2.231,0.38,3.353,0.482c0.862,0.894,1.737,1.331,2.751,1.832c2.586,1.185,5.312,1.94,8.019,2.65
		c2.352,0.596,4.703,1.116,7.074,1.591c4.031,2.973,8.862,4.9,13.635,6.155c1.185,0.336,3.949,1.084,5.268,1.559
		c0.463,0.926,8.139,17.299-1.185,55.351c-0.628,2.542-1.274,5.141-1.94,7.784c-5.211,20.842-11.118,44.467-10.833,67.724
		c0.323,26.839,8.893,48.137,26.179,65.106c0.748,3.949,1.673,7.866,2.808,11.733c7.664,26.965,26.249,50.349,54.146,57.658
		l8.272,2.25c-1.997-1.509-7.721-5.458-9.388-7.264c-3.315-3.195-6.275-6.814-8.671-10.757c0.634,0.577,1.274,1.154,1.927,1.718
		c11.074,9.477,25.019,14.928,39.25,17.47c-3.651-4.691-7.391-9.553-10.586-14.662c4.767,3.283,10.022,5.857,15.498,7.759
		c2.516,0.862,5.09,1.553,7.695,2.079c4.101,6.199,8.602,12.082,13.159,17.869c8.488,11.15,20.31,23.847,23.023,37.767
		c0.463,2.65,0.501,5.306,0.063,7.955c-3.017,19.644-4.456,39.592-7.784,59.109c-1.268,7.385-2.719,14.782-4.881,21.926
		c-4.272,5.61-8.19,11.79-14.053,15.714c-4.501,3.024-9.92,4.735-15.2,6.104c-1.876,0.456-3.867,0.906-5.629,1.705
		c-3.962,1.693-10.389,6.18-10.96,10.801c-0.095,2.073,1.756,2.732,3.436,3.03c7.657,1.128,15.365,0.628,22.959-0.45
		c0.12,0.647,0.513,1.242,1.021,1.54c1.141,0.71,2.428,0.805,3.651,1.008c13.356,1.769,25.679-0.222,30.407-14.529
		c2.307-6.821,2.757-14.129,2.967-21.203c1.692-28.981,7.366-57.759,12.316-86.366c1.857-8.431,1.103-16.779-1.832-24.873
		l-7.904-24.791c7.518,1.61,15.245,2.288,22.908,2.066c-0.583-1.128-2.136-4.12-3.505-6.764c0.716,0.241,1.433,0.482,2.161,0.697
		l0.019-0.057c7.847,2.377,15.714,4.729,23.555,7.106c-0.621-2.878-1.261-6.136-2.39-8.862c-1.496-3.816-3.778-7.461-6.833-10.25
		c0.672-0.038,1.344-0.063,2.003-0.082c8.133-0.241,16.253,1.547,23.656,4.881l-0.387-2.998c-0.811-5.249-3.594-10.142-7.695-13.514
		c-0.095-0.082-0.196-0.152-0.292-0.228c12.703-3.239,24.442-9.305,32.81-19.777c2.884-3.677,5.204-7.778,6.935-12.101
		c0,0-0.032-0.013-0.07-0.032c4.013-1.299,7.803-3.296,11.048-5.819c9.109-7.119,14.085-18.408,16.158-29.488
		c0,0-0.171-0.038-0.196-0.044C338.215,207.298,339.705,180.276,335.546,158.28z M9.579,25.469c-1.832-0.063-3.784,0.006-5.61-0.254
		c6.725-2.054,14.909-4.26,22.053-6.117c1.895,2.054,3.841,3.993,5.927,5.863c0.894,0.767,1.769,1.515,2.675,2.225
		c-5.02-0.678-10.028-1.185-15.093-1.477C16.235,25.52,12.856,25.437,9.579,25.469z M16.799,29.057
		c-1.376-0.355-2.738-0.754-4.07-1.179c2.212,0.013,4.424,0.051,6.63,0.298c4.437,0.368,8.893,0.906,13.299,1.648
		c-1.864,0.551-3.746,1.046-5.629,1.407C23.613,30.629,20.159,29.913,16.799,29.057z M204.802,343.449
		c1.477,4.291,2.586,8.69,2.694,13.242c0.228,4.475-0.78,9.166-1.585,13.546c-4.741,27.675-10.136,55.274-11.733,83.4
		c-0.127,4.64-0.393,9.236-1.166,13.717c-1.49,9.096-5.401,17.229-15.175,18.915c-4.393,0.786-9.229,0.71-13.768-0.082
		c0.019-0.013,0.032-0.019,0.051-0.032c0.311-0.051,0.894-0.412,0.881-0.469c5.8-3.068,13.445-7.569,13.419-14.884
		c-3.036,6.466-10.104,8.684-15.86,12.177c-0.158,0.108-0.33,0.203-0.494,0.304c-2.865,0.456-5.749,0.811-8.64,1.059
		c-3.702,0.317-7.423,0.482-11.099,0.368c-2.066-0.114-4.19-0.146-6.098-0.697c0.165-0.418,0.475-0.932,0.716-1.262
		c1.997-2.726,5.052-4.938,8.171-6.307c1.42-0.666,3.651-1.179,5.172-1.585c13.527-3.575,18.966-7.79,25.393-16.227
		c-1.673,4.076-3.664,8.025-6.098,11.784c10.554-7.283,14.75-29.577,17.096-41.804c3.531-19.669,4.824-39.478,7.86-59.135
		c1.845-10.966-3.911-21.368-9.857-30.071c-7.98-11.499-17.292-21.882-25.209-33.323c4.171,0.526,8.393,0.634,12.583,0.311
		c7.454,4.786,15.689,8.247,24.271,10.453C196.853,318.5,204.802,343.43,204.802,343.449z M305.672,226.948
		c-3.467,1.49-6.985,2.852-10.757,4.196c7.467,1.185,14.807-1.851,21.019-5.882c-1.965,6.554-4.71,12.817-8.893,18.237
		c-9.223,11.759-21.463,13.85-35.662,13.686c5.458,2.447,11.575,2.808,17.444,1.635c-1.635,3.1-3.569,6.028-5.825,8.703
		c-11.454,13.597-29.52,19.067-46.666,20.817c-13.349,1.578-26.743,0.013-40.15,0.209c8.5,3.423,17.774,4.177,26.857,4.329
		c8.443,0.12,17.299-0.463,25.856-2.212c0.849,0.526,1.661,1.109,2.409,1.756c2.516,2.212,4.45,5.134,5.515,8.323
		c-7.201-2.51-14.909-3.531-22.503-2.897c-2.516-0.057-4.938,0.393-7.435,0.881c-3.207,0.672-6.371,1.445-9.457,2.618
		c3.258,0.475,6.504,0.589,9.768,0.647c0.767,0.013,1.547,0.013,2.326,0c0.139,0.063,0.228,0.101,0.228,0.101
		c4.932,2.643,8.025,7.55,9.762,12.811c-6.339-1.902-12.703-3.81-19.061-5.692c-1.027-0.406-2.06-0.773-3.106-1.128
		c-5.578-1.794-11.258-3.252-17.064-4.127c4.367,2.605,8.893,5.001,13.584,6.973c0.887,1.661,1.845,3.455,2.662,4.995
		c-17.85-0.425-35.688-6.06-49.684-17.311c-4.355-3.512-9.977-8.906-14.218-12.728c2.288,6.237,7.144,11.118,12.202,15.239
		c0.957,0.786,1.933,1.553,2.928,2.288c-13.628,0.114-27.206-4.716-37.773-13.331c-1.667-1.268-6.947-6.649-8.526-8.152l3.746,7.968
		c2.669,5.515,6.003,10.459,9.578,15.315c-6.7-1.75-13.185-4.304-19.188-7.746c-6.301-3.638-12.126-8.177-16.836-13.724
		c-1.49-1.616-6.732-9.667-8.101-11.606l3.429,10.573c2.231,6.827,6.047,13.052,10.871,18.351
		c-9.749-4.234-18.535-10.484-25.564-18.503c-8.798-9.889-14.858-21.932-18.871-34.502c-1.35-4.215-2.453-8.513-3.328-12.861
		c-0.818-4.374-1.547-8.684-3.322-13.064c-0.944,3.201-0.932,6.523-0.552,9.8c-33.843-36.721-21.419-86.417-11.372-126.599
		c0.659-2.65,1.312-5.249,1.933-7.797c7.448-30.388,4.399-47.294,2.269-54.102c0.304,0.196,0.602,0.393,0.887,0.615
		c1.046,0.754,1.864,1.724,2.814,2.669c-0.139-0.659-0.298-1.344-0.539-1.997c-1.94-4.856-7.156-6.396-11.714-7.816
		c-2.852-0.837-5.591-1.788-8.253-2.922c3.987-0.913,7.809-2.238,11.682-3.562l4.05-1.426l-4.025-1.547
		c-5.173-2.396-9.299-6.954-13.248-11.08c3.169-2.149,6.092-4.665,8.767-7.416l1.337-1.426c1.857-2.142,4.336-3.733,7.125-4.171
		c7.397-1.122,15.72,4.051,20.817,9.122c4.114,5.096,5.648,11.594,6.263,18.123c1.356,17.52-2.96,35.016-6.263,52.187
		c-3.15,17.521-6.149,35.009-7.879,52.758c-0.913,10.193-1.439,20.455-0.247,30.693c1.014,7.562,2.922,15.853,9.058,21
		c-1.395-0.101-2.795-0.196-4.241-0.235c3.981,3.753,9.787,3.81,14.922,3.822c8.183-0.241,16.329-2.58,23.669-6.155
		c-1.388,2.295-2.612,4.71-3.632,7.245c-4.52,10.903-6.32,23.409-2.909,34.857c0.628-16.576,3.48-34.046,14.833-46.723
		c0.006,0,0.006,0,0.006,0c0.197-0.222,0.393-0.45,0.596-0.672c11.27-12.392,28.702-18.845,45.208-19.866
		c8.38-0.342,17.032,0.298,24.956,3.176c1.293,0.482,2.561,1.033,3.772,1.667c-7.144,1.635-14.237,3.886-20.259,8.196
		c7.435-1.585,14.522-3.702,21.92-5.154c14.402-2.713,29.837-2.726,43.567,2.745c5.737,2.219,11.011,5.483,15.758,9.419
		c-3.626,0.089-7.239,0.399-10.82,1.065c-5.426,1.109-10.953,2.865-15.334,6.377c10.25-3.467,21.07-5.052,31.865-4.38
		c1.192,0.082,2.833,0.133,4.025,0.311c1.496,0.203,4.532,0.507,6.009,0.824c0.982,0.184,2.998,0.558,3.974,0.735
		c1.28,0.19,4.653,1.097,5.914,1.401l1.965,0.488l1.933,0.602l7.847,2.453c5.439,1.61,11.201,2.415,16.893,1.864
		c15.435-1.179,27.441-12.817,33.862-26.363c0.678,7.505,0.843,15.01-0.089,22.471C330.982,204.908,322.495,220.039,305.672,226.948
		z M225.834,285.887c5.071,0.672,10.136,0.14,15.131-0.723c12.202-2.104,25.444-5.851,35.142-13.882
		c1.927-1.699,3.689-3.626,4.982-5.844c-8.329,5.61-16.969,9.793-26.471,12.747C245.18,281.456,235.437,282.863,225.834,285.887z
		 M230.36,173.43c-10.7-6.111-30.477-7.448-41.957-3.087c7.473,0.621,14.928,0.399,22.363,1.16
		c7.511,0.507,14.567,2.111,22.027,3.474C232.008,174.419,231.191,173.924,230.36,173.43z M163.708,291.363
		c8.101,11.873,28.062,20.506,42.166,21.077c1.078,0.044,2.149,0.07,3.226,0.038c-1.984-0.843-4.006-1.42-6.009-2.155
		c-7.885-2.662-15.638-5.756-23.016-9.591C174.661,297.975,168.994,294.4,163.708,291.363z M135.354,165.893
		c-10.56,1.629-20.886,10.713-27.086,19.048c-2.371,3.328-5.008,6.58-5.635,10.776c3.106-2.719,5.084-6.034,7.803-9.02
		c2.605-2.929,5.388-5.68,8.348-8.19c2.96-2.516,6.092-4.817,9.42-6.789c3.36-1.965,6.776-3.632,10.262-5.958
		C137.42,165.715,136.374,165.741,135.354,165.893z M63.554,35.326c2.123-3.575,1.249-8.862-2.295-11.042
		c2.466,4.621,1.388,10.573-3.353,13.083c-1.464,0.824-3.157,1.337-5.084,1.42C56.467,40.796,61.501,38.946,63.554,35.326z
		 M51.244,15.27c-0.488-0.976-1.261-1.826-2.282-2.409c-2.757-1.572-6.282-0.609-7.854,2.149c-0.634,1.116-0.849,2.352-0.704,3.537
		c-0.571,0.9-1.363,1.249-1.363,1.249c0.729-0.07,1.325,0.101,1.788,0.336c0.475,1.116,1.299,2.085,2.428,2.732
		c0.881,0.501,1.857,0.761,2.846,0.761c0.507,0,1.02-0.07,1.528-0.209c1.483-0.406,2.719-1.363,3.48-2.7
		c0.533-0.938,0.773-1.959,0.748-2.967c0.849-1.23,2.104-1.743,2.104-1.743C52.905,16.069,51.961,15.695,51.244,15.27z
		 M49.463,19.777c-0.906,1.585-2.77,2.276-4.45,1.781c1.084-0.025,2.13-0.59,2.707-1.604c0.051-0.089,0.101-0.171,0.14-0.266
		c-0.494,0.139-1.046,0.089-1.528-0.19c-0.957-0.539-1.293-1.756-0.748-2.713c0.292-0.507,0.767-0.837,1.299-0.951
		c-0.108-0.089-0.228-0.165-0.355-0.235c-1.293-0.742-2.884-0.463-3.873,0.564c0.032-0.07,0.063-0.14,0.108-0.209
		c0.71-1.249,2.016-1.946,3.353-1.946c0.647,0,1.306,0.165,1.908,0.507C49.869,15.568,50.515,17.926,49.463,19.777z M51.244,15.27
		c-0.488-0.976-1.261-1.826-2.282-2.409c-2.757-1.572-6.282-0.609-7.854,2.149c-0.634,1.116-0.849,2.352-0.704,3.537
		c-0.571,0.9-1.363,1.249-1.363,1.249c0.729-0.07,1.325,0.101,1.788,0.336c0.475,1.116,1.299,2.085,2.428,2.732
		c0.881,0.501,1.857,0.761,2.846,0.761c0.507,0,1.02-0.07,1.528-0.209c1.483-0.406,2.719-1.363,3.48-2.7
		c0.533-0.938,0.773-1.959,0.748-2.967c0.849-1.23,2.104-1.743,2.104-1.743C52.905,16.069,51.961,15.695,51.244,15.27z
		 M49.463,19.777c-0.906,1.585-2.77,2.276-4.45,1.781c1.084-0.025,2.13-0.59,2.707-1.604c0.051-0.089,0.101-0.171,0.14-0.266
		c-0.494,0.139-1.046,0.089-1.528-0.19c-0.957-0.539-1.293-1.756-0.748-2.713c0.292-0.507,0.767-0.837,1.299-0.951
		c-0.108-0.089-0.228-0.165-0.355-0.235c-1.293-0.742-2.884-0.463-3.873,0.564c0.032-0.07,0.063-0.14,0.108-0.209
		c0.71-1.249,2.016-1.946,3.353-1.946c0.647,0,1.306,0.165,1.908,0.507C49.869,15.568,50.515,17.926,49.463,19.777z M61.26,24.284
		c2.466,4.621,1.388,10.573-3.353,13.083c-1.464,0.824-3.157,1.337-5.084,1.42c3.645,2.009,8.678,0.158,10.732-3.461
		C65.678,31.751,64.803,26.464,61.26,24.284z M135.354,165.893c-10.56,1.629-20.886,10.713-27.086,19.048
		c-2.371,3.328-5.008,6.58-5.635,10.776c3.106-2.719,5.084-6.034,7.803-9.02c2.605-2.929,5.388-5.68,8.348-8.19
		c2.96-2.516,6.092-4.817,9.42-6.789c3.36-1.965,6.776-3.632,10.262-5.958C137.42,165.715,136.374,165.741,135.354,165.893z
		 M203.09,310.323c-7.885-2.662-15.638-5.756-23.016-9.591c-5.413-2.757-11.08-6.332-16.367-9.369
		c8.101,11.873,28.062,20.506,42.166,21.077c1.078,0.044,2.149,0.07,3.226,0.038C207.116,311.635,205.094,311.058,203.09,310.323z
		 M230.36,173.43c-10.7-6.111-30.477-7.448-41.957-3.087c7.473,0.621,14.928,0.399,22.363,1.16
		c7.511,0.507,14.567,2.111,22.027,3.474C232.008,174.419,231.191,173.924,230.36,173.43z M254.619,278.185
		c-9.439,3.271-19.181,4.678-28.784,7.702c5.071,0.672,10.136,0.14,15.131-0.723c12.202-2.104,25.444-5.851,35.142-13.882
		c1.927-1.699,3.689-3.626,4.982-5.844C272.76,271.047,264.121,275.231,254.619,278.185z M254.619,278.185
		c-9.439,3.271-19.181,4.678-28.784,7.702c5.071,0.672,10.136,0.14,15.131-0.723c12.202-2.104,25.444-5.851,35.142-13.882
		c1.927-1.699,3.689-3.626,4.982-5.844C272.76,271.047,264.121,275.231,254.619,278.185z M230.36,173.43
		c-10.7-6.111-30.477-7.448-41.957-3.087c7.473,0.621,14.928,0.399,22.363,1.16c7.511,0.507,14.567,2.111,22.027,3.474
		C232.008,174.419,231.191,173.924,230.36,173.43z M203.09,310.323c-7.885-2.662-15.638-5.756-23.016-9.591
		c-5.413-2.757-11.08-6.332-16.367-9.369c8.101,11.873,28.062,20.506,42.166,21.077c1.078,0.044,2.149,0.07,3.226,0.038
		C207.116,311.635,205.094,311.058,203.09,310.323z M135.354,165.893c-10.56,1.629-20.886,10.713-27.086,19.048
		c-2.371,3.328-5.008,6.58-5.635,10.776c3.106-2.719,5.084-6.034,7.803-9.02c2.605-2.929,5.388-5.68,8.348-8.19
		c2.96-2.516,6.092-4.817,9.42-6.789c3.36-1.965,6.776-3.632,10.262-5.958C137.42,165.715,136.374,165.741,135.354,165.893z
		 M61.26,24.284c2.466,4.621,1.388,10.573-3.353,13.083c-1.464,0.824-3.157,1.337-5.084,1.42c3.645,2.009,8.678,0.158,10.732-3.461
		C65.678,31.751,64.803,26.464,61.26,24.284z M51.244,15.27c-0.488-0.976-1.261-1.826-2.282-2.409
		c-2.757-1.572-6.282-0.609-7.854,2.149c-0.634,1.116-0.849,2.352-0.704,3.537c-0.571,0.9-1.363,1.249-1.363,1.249
		c0.729-0.07,1.325,0.101,1.788,0.336c0.475,1.116,1.299,2.085,2.428,2.732c0.881,0.501,1.857,0.761,2.846,0.761
		c0.507,0,1.02-0.07,1.528-0.209c1.483-0.406,2.719-1.363,3.48-2.7c0.533-0.938,0.773-1.959,0.748-2.967
		c0.849-1.23,2.104-1.743,2.104-1.743C52.905,16.069,51.961,15.695,51.244,15.27z M49.463,19.777
		c-0.906,1.585-2.77,2.276-4.45,1.781c1.084-0.025,2.13-0.59,2.707-1.604c0.051-0.089,0.101-0.171,0.14-0.266
		c-0.494,0.139-1.046,0.089-1.528-0.19c-0.957-0.539-1.293-1.756-0.748-2.713c0.292-0.507,0.767-0.837,1.299-0.951
		c-0.108-0.089-0.228-0.165-0.355-0.235c-1.293-0.742-2.884-0.463-3.873,0.564c0.032-0.07,0.063-0.14,0.108-0.209
		c0.71-1.249,2.016-1.946,3.353-1.946c0.647,0,1.306,0.165,1.908,0.507C49.869,15.568,50.515,17.926,49.463,19.777z M51.244,15.27
		c-0.488-0.976-1.261-1.826-2.282-2.409c-2.757-1.572-6.282-0.609-7.854,2.149c-0.634,1.116-0.849,2.352-0.704,3.537
		c-0.571,0.9-1.363,1.249-1.363,1.249c0.729-0.07,1.325,0.101,1.788,0.336c0.475,1.116,1.299,2.085,2.428,2.732
		c0.881,0.501,1.857,0.761,2.846,0.761c0.507,0,1.02-0.07,1.528-0.209c1.483-0.406,2.719-1.363,3.48-2.7
		c0.533-0.938,0.773-1.959,0.748-2.967c0.849-1.23,2.104-1.743,2.104-1.743C52.905,16.069,51.961,15.695,51.244,15.27z
		 M49.463,19.777c-0.906,1.585-2.77,2.276-4.45,1.781c1.084-0.025,2.13-0.59,2.707-1.604c0.051-0.089,0.101-0.171,0.14-0.266
		c-0.494,0.139-1.046,0.089-1.528-0.19c-0.957-0.539-1.293-1.756-0.748-2.713c0.292-0.507,0.767-0.837,1.299-0.951
		c-0.108-0.089-0.228-0.165-0.355-0.235c-1.293-0.742-2.884-0.463-3.873,0.564c0.032-0.07,0.063-0.14,0.108-0.209
		c0.71-1.249,2.016-1.946,3.353-1.946c0.647,0,1.306,0.165,1.908,0.507C49.869,15.568,50.515,17.926,49.463,19.777z M61.26,24.284
		c2.466,4.621,1.388,10.573-3.353,13.083c-1.464,0.824-3.157,1.337-5.084,1.42c3.645,2.009,8.678,0.158,10.732-3.461
		C65.678,31.751,64.803,26.464,61.26,24.284z M135.354,165.893c-10.56,1.629-20.886,10.713-27.086,19.048
		c-2.371,3.328-5.008,6.58-5.635,10.776c3.106-2.719,5.084-6.034,7.803-9.02c2.605-2.929,5.388-5.68,8.348-8.19
		c2.96-2.516,6.092-4.817,9.42-6.789c3.36-1.965,6.776-3.632,10.262-5.958C137.42,165.715,136.374,165.741,135.354,165.893z
		 M203.09,310.323c-7.885-2.662-15.638-5.756-23.016-9.591c-5.413-2.757-11.08-6.332-16.367-9.369
		c8.101,11.873,28.062,20.506,42.166,21.077c1.078,0.044,2.149,0.07,3.226,0.038C207.116,311.635,205.094,311.058,203.09,310.323z
		 M230.36,173.43c-10.7-6.111-30.477-7.448-41.957-3.087c7.473,0.621,14.928,0.399,22.363,1.16
		c7.511,0.507,14.567,2.111,22.027,3.474C232.008,174.419,231.191,173.924,230.36,173.43z M254.619,278.185
		c-9.439,3.271-19.181,4.678-28.784,7.702c5.071,0.672,10.136,0.14,15.131-0.723c12.202-2.104,25.444-5.851,35.142-13.882
		c1.927-1.699,3.689-3.626,4.982-5.844C272.76,271.047,264.121,275.231,254.619,278.185z M254.619,278.185
		c-9.439,3.271-19.181,4.678-28.784,7.702c5.071,0.672,10.136,0.14,15.131-0.723c12.202-2.104,25.444-5.851,35.142-13.882
		c1.927-1.699,3.689-3.626,4.982-5.844C272.76,271.047,264.121,275.231,254.619,278.185z M230.36,173.43
		c-10.7-6.111-30.477-7.448-41.957-3.087c7.473,0.621,14.928,0.399,22.363,1.16c7.511,0.507,14.567,2.111,22.027,3.474
		C232.008,174.419,231.191,173.924,230.36,173.43z M203.09,310.323c-7.885-2.662-15.638-5.756-23.016-9.591
		c-5.413-2.757-11.08-6.332-16.367-9.369c8.101,11.873,28.062,20.506,42.166,21.077c1.078,0.044,2.149,0.07,3.226,0.038
		C207.116,311.635,205.094,311.058,203.09,310.323z M135.354,165.893c-10.56,1.629-20.886,10.713-27.086,19.048
		c-2.371,3.328-5.008,6.58-5.635,10.776c3.106-2.719,5.084-6.034,7.803-9.02c2.605-2.929,5.388-5.68,8.348-8.19
		c2.96-2.516,6.092-4.817,9.42-6.789c3.36-1.965,6.776-3.632,10.262-5.958C137.42,165.715,136.374,165.741,135.354,165.893z
		 M61.26,24.284c2.466,4.621,1.388,10.573-3.353,13.083c-1.464,0.824-3.157,1.337-5.084,1.42c3.645,2.009,8.678,0.158,10.732-3.461
		C65.678,31.751,64.803,26.464,61.26,24.284z M51.244,15.27c-0.488-0.976-1.261-1.826-2.282-2.409
		c-2.757-1.572-6.282-0.609-7.854,2.149c-0.634,1.116-0.849,2.352-0.704,3.537c-0.571,0.9-1.363,1.249-1.363,1.249
		c0.729-0.07,1.325,0.101,1.788,0.336c0.475,1.116,1.299,2.085,2.428,2.732c0.881,0.501,1.857,0.761,2.846,0.761
		c0.507,0,1.02-0.07,1.528-0.209c1.483-0.406,2.719-1.363,3.48-2.7c0.533-0.938,0.773-1.959,0.748-2.967
		c0.849-1.23,2.104-1.743,2.104-1.743C52.905,16.069,51.961,15.695,51.244,15.27z M49.463,19.777
		c-0.906,1.585-2.77,2.276-4.45,1.781c1.084-0.025,2.13-0.59,2.707-1.604c0.051-0.089,0.101-0.171,0.14-0.266
		c-0.494,0.139-1.046,0.089-1.528-0.19c-0.957-0.539-1.293-1.756-0.748-2.713c0.292-0.507,0.767-0.837,1.299-0.951
		c-0.108-0.089-0.228-0.165-0.355-0.235c-1.293-0.742-2.884-0.463-3.873,0.564c0.032-0.07,0.063-0.14,0.108-0.209
		c0.71-1.249,2.016-1.946,3.353-1.946c0.647,0,1.306,0.165,1.908,0.507C49.869,15.568,50.515,17.926,49.463,19.777z
		 M254.619,278.185c-9.439,3.271-19.181,4.678-28.784,7.702c5.071,0.672,10.136,0.14,15.131-0.723
		c12.202-2.104,25.444-5.851,35.142-13.882c1.927-1.699,3.689-3.626,4.982-5.844C272.76,271.047,264.121,275.231,254.619,278.185z
		 M203.09,310.323c-7.885-2.662-15.638-5.756-23.016-9.591c-5.413-2.757-11.08-6.332-16.367-9.369
		c8.101,11.873,28.062,20.506,42.166,21.077c1.078,0.044,2.149,0.07,3.226,0.038C207.116,311.635,205.094,311.058,203.09,310.323z"
		/>
</g>
</svg>
