<?xml version="1.0" encoding="utf-8"?>
<!-- Generator: Adobe Illustrator 28.3.0, SVG Export Plug-In . SVG Version: 6.00 Build 0)  -->
<svg version="1.1" id="parrot" xmlns="http://www.w3.org/2000/svg" xmlns:xlink="http://www.w3.org/1999/xlink" x="0px" y="0px"
	 viewBox="0 0 372.69 490" enable-background="new 0 0 372.69 490" xml:space="preserve">
<g id="parrot_00000145024086637195454950000018062879034596832132_">
	<g>
		<path fill="#2C8CDB" d="M273.911,329.165l-1.749-1.883c-2.422-2.609-4.739-5.396-6.887-8.285l-0.077-0.104l-0.119-0.054
			c-5.781-2.604-11.277-6.146-16.325-10.517c-8.907-8.151-14.862-16.25-18.111-24.652c7.354,10.525,16.707,21.95,30.153,30.497
			l1.9,1.208l-1.21-1.898c-5.105-8.009-8.826-16.531-11.099-25.4c14.98,34.907,38.031,55.98,72.155,66.109
			c3.432,0.981,6.781,1.775,9.962,2.36l0.607,0.113c0.148,0.027,0.297,0.055,0.429,0.074c0.379,0.071,0.753,0.134,1.133,0.192
			l0.777,0.12l-0.222-0.755c-1.406-4.8-3.101-10.484-5.008-16.258c-29.302-90.661-84.235-170.729-154.684-225.452l-0.306,0.395l0,0
			l0.216-0.47c-4.964-3.933-9.125-7.385-12.89-10.697c2.62,1.18,5.308,2.623,8.148,4.374c0.388,0.236,0.771,0.472,1.153,0.716
			l0.838,0.535l-0.07-0.992c-0.97-13.653-8.286-38.116-25.716-62.128c-13.972-19.261-37.783-42.355-71.875-43
			C54.831,2.926,39.524,7.999,29.544,18.416c-0.643,0.672-1.246,1.345-1.789,1.996c-0.193,0.226-0.381,0.456-0.559,0.68
			c-0.366,0.454-0.72,0.912-1.057,1.373c-0.171,0.233-0.337,0.462-0.497,0.69c-0.146,0.205-0.288,0.41-0.425,0.612
			c-0.78,1.145-1.517,2.356-2.188,3.594c-0.121,0.217-0.237,0.438-0.355,0.661c-0.332,0.639-0.643,1.274-0.937,1.912
			c-0.087,0.188-0.175,0.379-0.257,0.564c-0.199,0.44-0.386,0.877-0.575,1.338c-0.13,0.321-0.259,0.641-0.379,0.958
			c-0.253,0.656-0.486,1.303-0.7,1.943c-0.043,0.124-0.085,0.251-0.122,0.368c-0.211,0.643-0.402,1.273-0.58,1.898l-0.177,0.645
			c-0.071,0.248-0.134,0.491-0.198,0.742l-0.032,0.128c-0.072,0.292-0.144,0.58-0.208,0.863l-0.179,0.788
			c-0.958,4.416-1.146,8.061-1.173,9.84l-0.006,0.434l0.429,0.067c5.483,0.858,18.88,4.49,24.831,19.636l0.272,0.694l0.539-0.516
			c0.448-0.429,0.964-0.93,1.422-1.439c0.89-0.944,1.673-1.898,2.507-2.965c-0.018,0.461-0.07,0.9-0.158,1.313
			c-0.373,1.768-1.061,3.397-2.046,4.842l-0.364,0.534l0.609,0.218c7.04,2.522,23.341,10.206,23.055,27.115
			c-7.555,9.524-11.982,18.386-13.534,27.083c-0.375,2.102-0.458,3.936-0.251,5.6c-0.399,0.773-0.738,1.588-1.009,2.427l-0.284,0.9
			c-0.63,1.27-1.071,2.636-1.257,3.879c-0.571,1.823-0.654,3.672-0.257,5.41c0.032,0.712,0.141,1.429,0.324,2.132
			c-2.07,8.463-5.004,31.185,11.344,62.014c0.302,0.565,0.607,1.131,0.917,1.687c0.24,0.443,0.488,0.882,0.741,1.321
			c0.218,0.379,0.441,0.762,0.664,1.141c21.486,36.426,51.29,54.508,63.107,60.592l0.995,0.513l-0.283-1.083
			c-1.21-4.642-1.311-8.887-0.304-12.649c2.623,14.994,7.976,24.92,18.183,33.899c4.093,3.664,8.805,7.017,14.83,10.553l0.176,0.103
			l0.197-0.049c4.505-1.117,8.427-2.951,11.658-5.452c3.529-2.749,6.171-6.147,7.641-9.828l0.115-0.291l-0.211-0.231
			c-7.651-8.379-13.845-17.064-18.407-25.814l-0.105-0.138c-1.34-1.226-2.636-2.507-3.853-3.808l-0.104-0.11l-0.147-0.034
			c-5.771-1.357-11.049-3.339-15.69-5.891c-4.092-2.209-7.976-5.041-11.544-8.416l-0.111-0.079c-2.757-1.447-5.371-2.92-7.564-4.259
			c-39.049-23.65-53.917-65.917-36.151-102.794c0.097-0.215,0.199-0.43,0.302-0.647c12.385-26.512,34.272-25.893,50.451-20.709
			l0.086,0.024c7.97,2.564,16.273,6.807,24.306,12.393c-10.592-5.435-22.357-10.537-33.698-12.078
			c-15.907-2.159-27.811,3.363-35.41,16.421c-10.56,18.425-12.84,38.348-6.595,57.616c5.708,17.608,18.41,33.807,35.768,45.611
			l2.293,1.56l-1.604-2.262c-2.551-3.597-4.766-7.497-6.585-11.594l-0.396-0.799l-0.243,0.369
			c-16.816-9.909-25.7-33.163-26.232-51.923c4.134,17.408,9.299,33.796,21.505,45.722c0.789,0.75,1.647,1.508,2.625,2.314
			l1.405,1.16l-0.616-1.715c-2.964-8.242-4.381-16.894-4.162-25.27c4.66,25.612,14.184,43.208,29.039,53.701
			c4.136,3.007,8.978,5.59,14.393,7.678l1.692,0.652l-1.119-1.428c-3.385-4.316-6.264-9.014-8.559-13.965
			c-5.149-10.946-7.604-22.158-7.186-32.688c4.857,27.438,15.856,46.727,33.551,58.891c5.007,3.407,10.579,6.346,16.562,8.734
			l1.508,0.602l-0.908-1.346c-1.013-1.503-2.011-3.133-2.966-4.846l-0.086-0.154l-0.163-0.066c-2.016-0.814-4.379-1.825-6.627-3.156
			c-13.697-7.811-24.984-22.505-29.074-37.47c6.455,12.366,16.617,28.14,33.082,37.287l1.362,0.756l-0.667-1.407
			c-0.972-2.05-1.835-4.142-2.568-6.221c-2.896-8.017-3.984-15.525-3.247-22.371c4.315,26.303,16.922,45.536,38.463,58.727
			c4.353,2.697,9.159,5.22,14.285,7.496l1.885,0.837l-1.292-1.607c-1.601-1.991-3.106-4.064-4.474-6.163
			c-5.039-7.709-10.712-19.29-10.656-32.295c5.239,23.675,19.08,42.953,40.216,55.924c4.303,2.69,8.969,5.218,13.867,7.514
			L273.911,329.165z M74.357,49.138c-1.526,5.331-6.784,8.6-12.234,7.602c-0.345-0.063-0.691-0.146-1.036-0.244
			c-1.703-0.488-3.268-1.398-4.525-2.631l-0.111-0.082c-0.768-0.418-2.08-0.963-3.704-0.963c-0.446,0-0.917,0.042-1.405,0.138
			l2.126-5.021l-0.021-0.139c-0.236-1.569-0.142-3.107,0.281-4.571c0.789-2.75,2.603-5.031,5.107-6.425
			c2.499-1.386,5.399-1.715,8.163-0.934c1.268,0.363,2.456,0.961,3.6,1.821c1.457,0.766,4.109,1.846,7.023,1.561
			c-1.146,1.25-2.635,3.401-2.876,6.316C74.817,46.774,74.687,47.977,74.357,49.138z M114.942,258.301
			c-23.525-13.278-42.682-37.909-50.696-65.201C76.501,219.498,93.88,241.847,114.942,258.301z"/>
		<path fill="#2C8CDB" d="M368.9,479.745l-0.013-0.246c-0.021-0.392-0.051-0.793-0.094-1.225l-0.022-0.218
			c-0.049-0.46-0.108-0.931-0.181-1.414c-0.699-4.647-2.533-10.636-5.449-17.798c-0.227-0.564-0.461-1.13-0.7-1.698
			c-3.896-9.285-9.61-20.697-16.982-33.917c-0.703-1.27-1.413-2.535-2.131-3.796l-0.003-0.37h-0.208
			c-0.481-0.852-0.964-1.703-1.451-2.551l-0.004-0.368h-0.208c-0.297-0.523-0.599-1.045-0.897-1.563l-0.007-0.374h-0.21
			c-0.3-0.522-0.601-1.043-0.903-1.562l-0.003-0.367h-0.212c-8.862-15.255-17.873-29.604-23.847-39.115l-2.479-3.937l0.617-0.373
			l-2.128-1.255c-1.611-0.94-3.365-1.951-5.314-3.057l-4.504-2.531l1.686,2.827c14.526,24.359,28.357,48.828,41.109,72.729
			l0.797,1.509c1.482,2.807,3.014,5.708,4.477,8.671c0.54,1.092,1.072,2.192,1.584,3.294l0.68,1.492
			c0.268,0.589,0.537,1.181,0.803,1.775c0.757,1.706,1.312,3.035,1.801,4.308c0.403,1.049,0.771,2.105,1.094,3.139l0.041,0.132
			l0.103,0.092c0.085,0.077,8.569,7.851,10.626,23.151v0.996l0.799-0.595c0.062-0.047,0.122-0.094,0.166-0.133
			c0.232-0.19,0.44-0.407,0.614-0.64c0.09-0.117,0.175-0.245,0.259-0.387c0.07-0.128,0.141-0.257,0.207-0.398
			c0.124-0.279,0.228-0.582,0.308-0.9c0.059-0.236,0.104-0.491,0.135-0.771c0.005-0.05,0.008-0.102,0.009-0.153l-0.495-0.106l0,0
			l0.498,0.041c0.025-0.303,0.042-0.613,0.05-0.94l0.005-0.277C368.923,480.506,368.917,480.136,368.9,479.745z"/>
		<path fill="#2C8CDB" d="M334.752,422.613l-2.495-4.392c-0.56-0.976-1.115-1.955-1.674-2.938l-0.269-0.474
			c-0.286-0.499-0.572-0.999-0.857-1.506l-2.246-3.929c-0.845-1.478-1.69-2.955-2.532-4.434
			c-4.729-8.269-9.442-16.483-13.909-24.259L299.332,360.8l-0.218-0.13c-2.264-1.241-4.655-2.522-7.176-3.861l-2.781-1.488
			l1.615,2.72c1.884,3.144,3.788,6.328,5.692,9.555c0.579,0.977,1.157,1.957,1.736,2.942c1.066,1.813,2.138,3.644,3.208,5.486
			c0.711,1.227,1.42,2.458,2.13,3.692c8.145,14.179,14.877,26.789,20.574,38.537l0.303,0.679c0.13,0.294,0.252,0.579,0.374,0.866
			c0.695,1.622,1.254,3.101,1.709,4.522c0.155,0.473,0.295,0.933,0.424,1.39l0.003,0.413l0.479,0.021
			c0.238,0.01,5.925,0.354,13.8,9.88l0.821-0.563l-2.455-4.353C337.988,428.311,336.379,425.473,334.752,422.613z"/>
		<path fill="#2C8CDB" d="M309.835,394.004l-0.497-0.864c-0.026-0.052-0.057-0.104-0.083-0.148l-6.791-11.808
			c-1.679-2.911-3.341-5.8-4.975-8.646c-1.639-2.845-3.247-5.652-4.814-8.394l-2.708-4.731c-0.676-1.188-1.353-2.378-2.021-3.569
			l1.035-0.593l-5.294-2.752c-2.292-1.18-4.638-2.375-6.987-3.551l-0.131-0.068c-2.108-1.061-4.257-2.133-6.443-3.203
			c-0.827-0.411-1.657-0.819-2.497-1.227l-1.318-0.639l29.553,59.404l0.005-2.117c0-0.06,0.053-5.964,3.461-7.6
			c2.582-1.237,6.461,0.188,11.533,4.237l2.037,1.627l-1.291-2.266C311.02,396.067,310.429,395.037,309.835,394.004z"/>
	</g>
	<g>
		<path fill="#F7B626" d="M169.315,344.286c-2.718-4.761-6.025-9.148-9.828-13.035l-0.539-0.551l-0.108,0.763
			c-0.322,2.271-0.554,4.51-0.8,6.881c-0.058,0.562-0.116,1.127-0.176,1.694c-3.542-10.344,0.136-21.317,2.735-27.084
			c0.672-1.4,1.345-2.667,2.057-3.873l0.433-0.733l-0.835,0.168c-0.078,0.016-0.156,0.035-0.234,0.055
			c-3.08-1.388-6.059-2.983-8.858-4.741l-0.377-0.236l-8.46,19.875l0.425,0.111c1.388,0.364,2.663,0.805,3.865,1.34
			c-1.433,0.173-2.998,0.291-4.824,0.365l-0.236,0.01l-0.035,0.078l-0.158-0.068l-0.085,0.003c-1.62,0.056-3.263,0.07-4.853,0.082
			c-2.076,0.017-4.222,0.034-6.366,0.146c-12.495,0.63-29.223,4.14-37.963,17.278l-1.041,1.565l1.566-1.038
			c6.647-4.405,14.79-7.672,23.548-9.448c5.68-1.13,10.713-1.454,15.312-0.982c-0.663,0.165-1.328,0.331-1.994,0.496
			c-15.096,3.745-30.706,7.618-41.814,18.761c-2.273,2.25-4.302,4.812-6.031,7.615l-0.785,1.274l1.297-0.745
			c1.723-0.989,3.558-1.97,5.775-3.088c26.568-13.545,55.612-14.58,77.695-2.764c2.362,1.228,4.71,2.622,7.177,4.26l0.874,0.581
			l-0.3-1.006C173.981,353.628,171.943,348.915,169.315,344.286z"/>
		<path fill="#F7B626" d="M366.865,485.124v0.004h-0.004c-0.694,0.505-1.605,0.759-2.751,0.759c-0.636,0-1.347-0.078-2.139-0.238
			c-3.005-0.628-6.339-1.843-10.197-3.719c-16.864-8.592-30.461-24.586-42.797-50.339c-0.591-1.277-1.17-2.549-1.745-3.814
			c-2.348-5.152-4.577-10.05-7.225-14.972c1.219,9.413,5.242,18.117,9.623,26.926c1.691,3.276,3.334,6.265,5.021,9.122l0.792,1.351
			l-1.322-0.837c-14.241-8.982-24.755-22.657-34.866-35.974c6.983,15.107,21.717,32.986,38.13,40.051l0.111,0.045l0.062,0.099
			c2.028,3.169,4.155,6.199,6.318,8.999l1.026,1.322l-1.494-0.751c-6.49-3.268-12.242-6.679-17.587-10.427
			c-13.223-9.208-24.492-21.048-32.592-34.242c-2.816-4.606-5.173-9.438-7.451-14.106c-1.149-2.352-2.332-4.774-3.576-7.18
			c0.345,8.317,4.208,15.904,8.165,22.981c1.326,2.328,2.775,4.631,4.421,7.045l1.178,1.724l-1.708-1.199
			c-6.638-4.66-15.904-12.357-22.337-22.567c-10.333-16.392-32.136-71.321-38.573-87.762l-0.435-1.121l1.002,0.665
			c2.668,1.769,5.415,3.506,8.161,5.16l0.115,0.07l0.045,0.131c3.982,11.45,8.617,23.503,14.171,36.849
			c1.051,2.365,2.09,4.811,3.095,7.176c3.904,9.175,7.927,18.63,13.802,26.807c-2.549-6.466-5.226-12.907-7.825-19.159
			c-2.151-5.185-4.38-10.546-6.515-15.875c-1.334-3.313-2.833-7.061-4.393-10.973c-3.013-7.541-6.125-15.333-8.892-22.119
			l-0.415-1.022l0.952,0.55c5.916,3.383,12.189,6.614,18.654,9.606c7.87,3.65,15.399,7.238,22.538,10.731l27.957,56.197
			c0,0,0.016-16.359,15.805-3.752c-0.755-1.326-1.519-2.652-2.283-3.982c4.959,8.638,9.869,17.25,14.364,25.35
			c1.141,1.946,2.586,4.393,4.167,6.926v0.004c0,0,0,0,0.004,0c0.185,0.008,6.113,0.324,14.163,10.062
			c4.54,8.042,8.777,15.621,12.468,22.32c0.292,0.517,0.583,1.035,0.874,1.548c0.378,0.669,0.764,1.347,1.141,2.032
			C356.073,461.605,364.755,469.401,366.865,485.124z"/>
		<path fill="#F7B626" d="M333.652,378.797l1.312,0.956l-11.534-22.071l-0.165-0.042c-16.546-4.157-32.027-12.438-44.77-23.946
			l-0.136-0.079c-8.846-2.916-17.299-6.927-25.121-11.921c-5.503-3.597-10.534-7.669-14.954-12.103l-0.067-0.067l-0.089-0.028
			c-18.042-5.641-33.815-16.046-44.414-29.297l-0.078-0.096l-0.119-0.033c-8.088-2.196-15.593-5.555-22.306-9.986l-1.504-0.993
			l0.976,1.515c10.82,16.798,32.695,40.984,75.462,60.814C297.241,355.101,321.934,370.254,333.652,378.797z"/>
		<path fill="#F7B626" d="M162.899,264.027c-1.347-1.232-2.636-2.504-3.879-3.834c-5.481-1.289-10.854-3.21-15.814-5.936
			c-4.257-2.299-8.153-5.185-11.651-8.494c-2.558-1.342-5.218-2.824-7.591-4.274c-35.884-21.733-55.454-63.771-36.348-103.428
			c0.099-0.218,0.201-0.435,0.304-0.653c8.012-16.624,30.503-25.882,51.08-20.968c0.001-0.001,0.001-0.001,0.002-0.001
			c-1.605-14.816-21.651-51.985-41.775-54.92c-0.92-0.135-1.782-0.185-2.586-0.156c0,0-10.103,5.181-2.59,14.705
			c0.304,0.386,0.636,0.78,1.002,1.182c5.768,6.339,9.389,13.478,5.242,20.543c-11.538,19.653-34.466,17.587-44.482,45.028
			c-0.02,0.056-0.47,1.172-0.472,1.231c-0.073,2.069-7.392,28.861,8.695,65.121c0.258,0.582,2.332,1.104,2.644,1.662
			c0.238,0.439,0.484,0.874,0.735,1.31c0.218,0.378,0.439,0.759,0.661,1.137c21.627,36.664,51.981,54.777,62.905,60.401
			c-1.285-4.926-1.519-10.083,0.341-14.877c2.287,14.816,7.045,25.678,18.355,35.63c4.503,4.031,9.496,7.41,14.75,10.493
			c4.138-1.026,8.108-2.759,11.47-5.361c3.227-2.512,5.965-5.813,7.484-9.619C172.218,279.914,166.434,270.804,162.899,264.027z
			 M62.209,187.303c12.513,29.25,31.951,55.589,57.913,74.256C91.583,247.946,69.279,217.912,62.209,187.303z M62.899,112.821
			c-0.053,0.123-0.107,0.25-0.16,0.378c0.066-0.152,0.131-0.304,0.193-0.452C62.92,112.772,62.911,112.797,62.899,112.821z"/>
	</g>
	<g>
		<path fill="#44A2E2" d="M132.949,139.351c-4.557-0.128-9.321,0.227-13.258,2.526c-3.091,1.805-5.428,4.677-7.276,7.743
			c-3.623,6.011-5.606,13.317-3.956,20.139c1.649,6.822,7.514,12.823,14.519,13.263c2.039,0.128,4.247-0.271,5.69-1.717
			c0.802-0.804,1.296-1.855,1.855-2.844c2.61-4.622,7.151-8.296,12.394-9.126c5.243-0.829,11.045,1.559,13.583,6.221
			c3.089,5.672,0.935,12.643,1.308,19.091c0.515,8.892,6.469,17.247,14.705,20.637c-4.77-2.166-7.647-7.854-6.565-12.98
			c1.082-5.126,6.011-9.167,11.25-9.221c4.751-0.049,9.2,2.918,11.787,6.904c2.587,3.986,3.516,8.852,3.576,13.603
			c0.056,4.481-0.609,8.975-0.143,13.431c0.466,4.457,2.322,9.087,6.15,11.418c-4.32-3.742-3.087-11.538,1.63-14.766
			c4.717-3.228,11.426-2.312,16.054,1.042s9.49,8.548,11.271,13.979c1.781,5.431,2.833,9.916,2.273,16.722
			c3.198-5.711,9.976-22.447-0.039-32.942c10.899-1.757,21.098,4.393,26.086,14.243c4.988,9.849,6.037,21.136,8.303,31.941
			c3.391,16.171,11.125,33.26,26.365,39.643c-6.378-9.49-7.185-21.505-10.139-32.551c-2.725-10.189-5.428-21.365-10.24-30.75
			c-7.434-14.499-14.609-27.42-32.267-35.761c-5.907-2.79-12.145-5.026-17.494-8.775c-5.35-3.749-11.157-11.013-9.471-17.324
			c5.047-3.028,10.557-1.055,10.557-1.055c-9.707-14.026-28.717-20.851-45.128-16.202c0.025-3.052,3.404-4.723,5.766-6.656
			c3.667-3.001,5.465-8.117,4.48-12.752c-0.985-4.635-4.707-8.578-9.277-9.828c3.293,0.901,3.278,9.436-1.092,11.235
			c-4.076,1.678-10.353,0.964-14.912-1.015C151.829,142.758,143.599,139.65,132.949,139.351z"/>
		<path fill="#44A2E2" d="M76.535,45.455c0.082,1.375-0.057,2.796-0.456,4.204c-1.798,6.289-8.096,10.099-14.401,8.95
			c-0.402-0.074-0.813-0.172-1.215-0.287c-2.081-0.595-3.888-1.679-5.329-3.099c-1.248-0.677-3.609-1.564-6.445-0.575l2.779-6.564
			c-0.267-1.749-0.189-3.572,0.333-5.378c0.928-3.235,3.067-5.924,6.01-7.562c2.952-1.638,6.367-2.02,9.606-1.096
			c1.548,0.443,2.943,1.17,4.155,2.09c1.802,0.944,5.583,2.504,9.471,1.314C80.821,37.618,76.946,40.566,76.535,45.455z"/>
	</g>
	<g>
		<path fill="#FFFFFF" d="M72.325,41.585c-1.231-2.216-3.247-3.819-5.677-4.514l-0.002,0c-2.398-0.67-5.012-0.387-7.197,0.825
			c-2.217,1.232-3.822,3.247-4.517,5.676c-0.696,2.435-0.404,4.995,0.823,7.207c1.229,2.212,3.245,3.813,5.677,4.51
			c0.306,0.087,0.612,0.159,0.917,0.215c4.729,0.864,9.45-1.994,10.807-6.714C73.85,46.359,73.555,43.8,72.325,41.585z"/>
		<path fill="#FFFFFF" d="M94.689,54.959c-0.46-5.325-2.213-10.468-4.939-15.058c-2.032-3.424-4.577-6.552-7.48-9.278
			c-1.137-1.071-2.328-2.135-3.625-3.009C48.464,11.012,36.361,40.907,36.361,40.907c-12.382-0.608-18.704,9.11-18.704,9.11
			c5.665,0.887,19.192,4.606,25.219,19.948c0.484-0.464,0.965-0.932,1.404-1.42c1.199-1.273,2.225-2.595,3.325-4.027
			c0.09,0.932,0.074,1.897-0.123,2.82c-0.378,1.794-1.092,3.51-2.122,5.021c0.209-0.308,5.222,2.209,5.661,2.43
			c2.418,1.215,4.742,2.631,6.889,4.282c4.967,3.818,8.917,8.978,10.284,15.177c0.497,2.258,0.398,4.442,0.542,6.716
			c0.866-0.016,2.028-0.772,2.8-1.186c0.981-0.521,1.917-1.125,2.8-1.798c1.72-1.318,3.485-2.927,4.635-4.77
			c2.18-3.502,3.284-7.665,3.945-11.741c0.661-4.072,0.981-8.194,2.726-11.934c1.063-2.27,2.319-4.393,4.339-5.895
			c1.006-0.751,2.127-1.338,3.325-1.712c1.416-0.439,1.396-0.87,1.466-2.356C94.845,58.034,94.82,56.495,94.689,54.959z
			 M76.535,45.455c0.082,1.375-0.057,2.796-0.456,4.204c-1.798,6.289-8.096,10.099-14.401,8.95
			c-0.402-0.074-0.813-0.172-1.215-0.287c-2.081-0.595-3.888-1.679-5.329-3.099c-1.248-0.677-3.609-1.564-6.445-0.575l2.779-6.564
			c-0.267-1.749-0.189-3.572,0.333-5.378c0.928-3.235,3.067-5.924,6.01-7.562c2.952-1.638,6.367-2.02,9.606-1.096
			c1.548,0.443,2.943,1.17,4.155,2.09c1.802,0.944,5.583,2.504,9.471,1.314C80.821,37.618,76.946,40.566,76.535,45.455z"/>
		<path fill="#FFFFFF" d="M334.749,356.43c-0.585-0.091-1.161-0.19-1.746-0.296c-1.283-4.319-2.593-8.634-4.016-12.912
			C275.351,181.889,165.63,111.996,159.99,102.187c3.606,1.397,13.337,11.28,15.243,12.791
			c73.093,56.78,126.154,137.465,154.514,225.208C331.523,345.568,333.155,350.995,334.749,356.43z"/>
		<path fill="#FFFFFF" d="M172.128,108.48c-0.387-0.243-0.774-0.486-1.161-0.721c-2.012-14.931-10.48-37.517-25.608-58.362
			C131.452,30.229,108.152,6.73,74.266,6.093C54.18,5.698,39.772,10.739,29.904,21.039c-5.625,5.86-9.436,13.383-11.083,19.235
			c1.397-6.445,4.456-14.605,11.083-21.513C39.772,8.461,54.939,3.421,75.025,3.815c33.886,0.638,57.577,23.623,71.484,42.79
			C162.966,69.28,171.081,93.73,172.128,108.48z"/>
		<path fill="#FFFFFF" d="M368.354,482.251v0.008c-0.159,1.298-0.66,2.262-1.488,2.869c-0.205-1.533-1.233-6.129-1.233-6.129
			c2.79-18.526-56.608-110.938-57.405-112.213l1.873,0.653c0.653,0.372,1.283,0.744,1.89,1.101l0.547,0.319l-0.334,0.205
			c0.797,1.275,1.7,2.71,2.687,4.274C331.462,399.722,370.282,461.504,368.354,482.251z"/>
		<path fill="#FFFFFF" d="M149.925,325.125c-1.435,0.175-3.683,1.351-18.544,2.977c-12.072,1.32-25.194,4.351-37.864,15.97
			l-0.463,0.304l1.04-1.564c8.745-13.14,25.468-16.647,37.962-17.277c2.148-0.114,4.297-0.129,6.369-0.144
			C140.011,325.376,148.877,324.662,149.925,325.125z"/>
		<polygon fill="#FFFFFF" points="152.786,303.593 144.325,323.468 146.904,324.423 155.335,304.752 		"/>
		<path fill="#FFFFFF" d="M158.552,333.763c0,0,12.15,13.719,17.124,25.538c0,0-3.384-18.375-16.728-28.6L158.552,333.763z"/>
		<path fill="#FFFFFF" d="M17.271,109.079c-29.349-22.772-1.503-55.45-0.924-56.119C-5.833,88.536,14.18,106.595,17.271,109.079z"/>
	</g>
	<path fill="#231F20" d="M50.708,64.988c7.775,4.836,22.004,9.409,30.129,3.44c1.215-0.973,2.2-2.213,2.763-3.6
		C76.543,73.137,59.797,67.103,50.708,64.988z M37.838,42.693c0.456,1.191,1.026,2.176,1.441,3.157
		c0.636,1.445,1.002,2.714,0.87,4.22c-0.222,1.7-0.809,3.329-0.891,5.082c1.125-1.466,2.151-2.948,2.841-4.635
		C43.229,47.254,40.88,43.764,37.838,42.693z M44.912,37.697c-0.562-0.788-1.158-1.597-1.991-2.122
		c0.431,0.854,0.71,1.728,0.965,2.611c1.893,6.076,1.995,12.488-1.129,18.199C48.492,52.094,48.775,43.333,44.912,37.697z
		 M62.211,187.305c7.065,30.605,29.369,60.643,57.913,74.252C94.163,242.894,74.72,216.551,62.211,187.305z M62.211,187.305
		c7.065,30.605,29.369,60.643,57.913,74.252C94.163,242.894,74.72,216.551,62.211,187.305z M59.785,63.108
		c9.495,2.369,19.718-1.827,22.772-11.548c0.714-2.18,1.092-4.43,1.166-6.679c-0.579,2.172-1.244,4.294-2.213,6.256
		c-3.777,8.371-12.554,11.696-21.253,9.894c-0.94-0.156-2.196-0.595-3.112-0.891c-5.46-1.617-11.285-1.732-16.864-1.244
		c5.538,0.653,11.035,1.248,16.224,3.108C57.466,62.369,58.788,62.895,59.785,63.108z M80.837,68.429
		c1.215-0.973,2.2-2.213,2.763-3.6c-7.057,8.309-23.802,2.274-32.891,0.16C58.484,69.824,72.713,74.398,80.837,68.429z
		 M56.214,54.22c1.281,1.26,2.886,2.225,4.737,2.755c0.357,0.103,0.723,0.189,1.08,0.255c5.612,1.026,11.207-2.365,12.804-7.956
		c0.357-1.252,0.48-2.512,0.406-3.74c0.365-4.347,3.814-6.967,4.011-7.119c-3.461,1.059-6.823-0.324-8.42-1.166
		c-1.08-0.817-2.324-1.466-3.699-1.86c-2.878-0.817-5.916-0.48-8.543,0.977c-2.619,1.453-4.516,3.847-5.341,6.724
		c-0.464,1.605-0.534,3.227-0.296,4.783l-2.471,5.834C53.003,52.829,55.105,53.621,56.214,54.22z M65.668,37.204
		c0.3,0.053,0.591,0.123,0.883,0.205c4.84,1.383,7.652,6.445,6.269,11.281c-1.392,4.84-6.441,7.652-11.289,6.261
		c-0.985-0.283-1.893-0.727-2.709-1.297c0.337,0.164,0.69,0.308,1.067,0.415c3.588,1.026,7.336-1.055,8.362-4.647
		c0.062-0.209,0.111-0.406,0.148-0.624c-0.952,0.542-2.11,0.714-3.243,0.386c-2.233-0.636-3.535-2.972-2.898-5.205
		c0.345-1.186,1.162-2.106,2.196-2.615c-0.271-0.123-0.558-0.226-0.85-0.308c-3.592-1.026-7.336,1.055-8.362,4.643
		c-0.156,0.546-0.234,1.092-0.25,1.634c-0.156-1.211-0.07-2.455,0.279-3.666c0.669-2.336,2.213-4.278,4.347-5.464
		C61.476,37.171,63.599,36.826,65.668,37.204z M44.912,37.697c-0.562-0.788-1.158-1.597-1.991-2.122
		c0.431,0.854,0.71,1.728,0.965,2.611c1.893,6.076,1.995,12.488-1.129,18.199C48.492,52.094,48.775,43.333,44.912,37.697z
		 M39.259,55.152c1.125-1.466,2.151-2.948,2.841-4.635c1.129-3.264-1.219-6.753-4.261-7.825c0.456,1.191,1.026,2.176,1.441,3.157
		c0.636,1.445,1.002,2.714,0.87,4.22C39.928,51.769,39.341,53.399,39.259,55.152z M21.992,48.071c3.227,1.893,5.76,2.898,9.52,3.116
		C31.208,46.765,24.792,44.507,21.992,48.071z M323.249,379.567c-1.359-2.102-2.726-4.191-4.101-6.269
		c15.046,9.344,19.246,13.769,19.319,13.847l10.066,11.187l-20.51-39.23c3.03,0.599,6.08,1.071,9.155,1.388l2.627,0.246
		l-0.714-2.566c-20.436-77.269-60.508-149.522-116.606-206.589c-14.048-14.217-28.959-27.653-45.043-39.534
		c-0.464-0.333-0.94-0.653-1.404-0.977c-0.205-14.939-8.494-41.944-26.454-66.694c-9.389-12.944-20.042-23.314-31.639-30.806
		C104.479,4.863,90.053,0.302,75.094,0.018C53.915-0.359,37.76,5.052,27.128,16.173C15.005,28.85,13.872,44.897,13.847,50.107
		l-0.25,0.296C12.87,51.26-4.302,71.701,1.022,92.264c3.157,12.217,13.556,21.705,30.9,28.211l6.688,2.504l-4.561-5.497
		c-0.386-0.472-5.649-7.008-5.513-16.573c10.378,6.659,26.783,4.442,34.517,2.865c-7.316,13.896-28.922,62.823-0.242,111.433
		c25.005,42.403,61.509,60.598,67.872,63.529c0.468,1.17,0.985,2.324,1.523,3.432c4.031,8.014,10.271,14.644,17.542,19.82
		l-8.711,20.485c-2.993-0.402-6.051-0.456-9.081-0.439c-18.769-0.037-38.934,7.225-44.784,26.811
		c-4.413,4.335-7.866,9.565-9.771,15.744l-2.18,5.747l5.078-3.567c21.302-14.106,48.84-21.705,73.846-14.13
		c8.235,2.467,15.933,6.577,22.797,11.745l3.892,2.931c-2.221-15.28-9.578-29.726-20.822-40.33c0.275-1.26,0.579-2.529,0.965-3.797
		c1.609-5.669,4.208-11.228,7.365-16.183c6.724-2.755,12.693-7.517,15.859-14.061c6.396,6.63,14.278,13.589,23.942,20.498
		c2.664,6.913,28.798,74.367,40.893,93.567c10.329,16.396,27.009,26.315,31.972,29.024c7.213,8.551,15.736,15.994,25.132,22.017
		c7.365,4.737,15.214,8.691,23.367,11.758c5.883,6.31,12.615,11.749,20.448,15.768c6.975,3.469,20.358,9.04,22.567-2.574
		C375.603,461.763,335.856,399.494,323.249,379.567z M16.347,52.96c-22.181,35.576-2.168,53.635,0.924,56.119
		C-12.078,86.307,15.768,53.629,16.347,52.96z M160.257,312.791c-4.011,8.896-6.031,19.582-2.188,28.868
		c0.283-2.558,0.517-5.058,0.809-7.521c0.103-0.879,0.213-1.749,0.337-2.619c3.789,3.871,7.077,8.235,9.771,12.956
		c2.18,3.834,4.056,7.927,5.464,12.152c0.197,0.587,0.386,1.182,0.562,1.778c-2.328-1.548-4.729-2.993-7.209-4.282
		c-24.332-13.018-54.148-9.422-78.045,2.763c-1.971,0.993-3.9,2.012-5.793,3.099c1.687-2.734,3.682-5.279,5.977-7.545
		c12.016-12.057,29.619-15.616,45.573-19.648c-5.797-0.911-11.696-0.411-17.419,0.731c-7.743,1.568-15.69,4.458-22.579,8.793
		c-0.369,0.23-0.739,0.468-1.104,0.71c8.1-12.176,23.667-16.405,37.666-17.111c3.744-0.197,15.543-0.476,17.78-0.78
		c0.025-0.004,0.045-0.004,0.066-0.008c-0.915-0.472-1.851-0.87-2.804-1.211c-0.747-0.271-1.507-0.501-2.274-0.702l8.116-19.061
		c0.69,0.431,1.388,0.854,2.09,1.26c2.254,1.314,4.573,2.5,6.934,3.559c0.115-0.033,0.23-0.062,0.341-0.086
		C161.583,310.147,160.902,311.448,160.257,312.791z M173.895,299.568c-3.362,2.603-7.332,4.335-11.47,5.357
		c-5.251-3.083-10.247-6.458-14.746-10.489c-11.31-9.951-16.072-20.814-18.355-35.634c-1.86,4.799-1.626,9.951-0.345,14.877
		c-10.92-5.624-41.278-23.737-62.905-60.401c-30.568-51.829-1.897-104.101,1.975-110.707l0.661-1.515
		c0.004-0.103,0.012-0.209,0.012-0.312c0.103-2.168-0.062-4.191-0.443-6.076c-0.066-0.349-0.144-0.69-0.23-1.026
		c-0.045-0.185-0.094-0.365-0.144-0.546c-1.56-5.694-5.111-10.046-9.077-13.297c-0.304-0.25-0.608-0.497-0.92-0.731
		c-0.267-0.205-0.538-0.411-0.813-0.608c-0.25-0.181-0.501-0.361-0.755-0.534c-0.037-0.029-0.078-0.057-0.119-0.086
		c-0.222-0.148-0.443-0.3-0.665-0.447c-0.094-0.062-0.193-0.127-0.291-0.189c-0.234-0.148-0.464-0.296-0.698-0.439
		c-0.255-0.156-0.509-0.312-0.764-0.464c-0.037-0.021-0.07-0.041-0.107-0.062c-0.283-0.164-0.571-0.328-0.858-0.493
		c-0.008-0.004-0.016-0.008-0.025-0.012c-0.296-0.164-0.591-0.324-0.891-0.484c-0.012-0.008-0.025-0.016-0.037-0.021
		c-0.365-0.193-0.727-0.382-1.084-0.554c-0.082-0.045-0.164-0.082-0.242-0.119c-0.107-0.057-0.209-0.107-0.312-0.156
		c-1.868-0.899-3.563-1.572-4.885-2.049h-0.004c0.021-0.029,0.041-0.057,0.057-0.086c1.014-1.486,2.012-3.071,2.324-4.84
		c0.423-2.385,0.489-3.637,0.489-3.637c-0.193,0.25-0.398,0.517-0.62,0.796c-0.723,0.924-1.572,1.971-2.361,2.878
		c-0.033,0.041-0.066,0.078-0.099,0.115c-0.209,0.242-0.419,0.48-0.64,0.714c-0.078,0.086-0.156,0.168-0.23,0.25
		c-0.111,0.123-0.222,0.242-0.337,0.361c-0.115,0.119-0.234,0.242-0.349,0.357c-0.234,0.238-0.476,0.472-0.718,0.702
		c-3.391-8.629-9.155-13.58-14.553-16.421c-0.599-0.316-1.195-0.608-1.782-0.87c-0.004-0.004-0.004,0-0.004,0
		c-0.296-0.135-0.583-0.263-0.874-0.382c-0.144-0.062-0.287-0.119-0.431-0.177c-0.571-0.234-1.133-0.439-1.679-0.628
		c-0.004,0-0.004,0-0.004,0c-1.367-0.472-2.644-0.817-3.765-1.067c-0.004-0.004-0.004,0-0.004,0
		c-0.788-0.181-1.498-0.308-2.118-0.406v-0.004c0.029-1.999,0.246-5.78,1.297-10.341c0.086-0.382,0.181-0.768,0.279-1.158
		c0.312-1.227,0.681-2.5,1.129-3.806c0.066-0.185,0.127-0.374,0.197-0.558c0.398-1.125,0.85-2.27,1.367-3.424
		c0.086-0.193,0.172-0.386,0.263-0.579c0.365-0.792,0.764-1.593,1.195-2.389c0.185-0.345,0.374-0.69,0.571-1.035
		c0.234-0.402,0.476-0.809,0.727-1.215c0.234-0.382,0.48-0.768,0.739-1.149c0.123-0.189,0.25-0.374,0.382-0.562
		c0.09-0.131,0.181-0.263,0.275-0.394c0.115-0.16,0.23-0.324,0.349-0.484c1.03-1.416,2.184-2.808,3.473-4.15
		c9.869-10.3,25.038-15.341,45.121-14.947c33.885,0.636,57.576,23.622,71.485,42.789c16.458,22.673,24.57,47.124,25.621,61.875
		c-0.39-0.242-0.776-0.484-1.162-0.723c-3.448-2.122-7.02-4.023-10.805-5.501c-0.057-0.025-0.115-0.049-0.172-0.07
		c4.922,4.45,9.943,8.58,15.042,12.628c0.066,0.057,0.135,0.111,0.201,0.164c73.094,56.78,126.155,137.465,154.514,225.207
		c1.773,5.382,3.407,10.809,5,16.245c-0.489-0.078-0.977-0.16-1.47-0.246c-0.09-0.016-0.185-0.033-0.275-0.049
		c-3.473-0.62-6.963-1.466-10.325-2.43c-37.641-11.17-59.966-35.182-74.026-71.177c2.081,11.269,6.4,21.783,12.41,31.221
		c-13.404-8.527-22.916-19.849-32.07-33.355c3.317,11.166,10.945,20.543,19.426,28.298c4.935,4.274,10.505,7.927,16.458,10.608
		c2.155,2.898,4.462,5.678,6.922,8.326c-4.758-2.233-9.385-4.713-13.814-7.484c-21.893-13.437-36.27-34.139-40.782-59.551
		c-1.252,12.936,3.522,25.892,10.538,36.619c1.396,2.147,2.898,4.212,4.499,6.199c-4.91-2.176-9.676-4.643-14.225-7.459
		c-23.182-14.196-35.1-34.874-38.721-61.649c-1.724,8.642-0.197,17.673,2.771,25.888c0.76,2.139,1.626,4.228,2.59,6.261
		c-16.154-8.97-26.602-24.299-34.731-40.708c3.112,16.704,15.518,33.376,30.227,41.763c2.135,1.26,4.405,2.262,6.687,3.19
		c0.936,1.671,1.93,3.301,2.993,4.881c-5.801-2.315-11.343-5.193-16.466-8.687c-21.15-14.533-30.305-38.027-34.016-62.667
		c-1.449,12.673,1.511,25.609,6.917,37.095c2.315,4.996,5.214,9.725,8.613,14.056c-5.078-1.958-9.91-4.438-14.278-7.611
		c-18.617-13.157-26.188-35.983-29.566-57.691c-0.948,9.881,0.472,20.223,3.925,29.833c-0.887-0.739-1.761-1.498-2.595-2.295
		c-13.391-13.079-18.273-31.849-22.324-49.604c-0.846,20.136,8.691,46.439,26.865,56.837l0.021-0.037
		c1.831,4.113,4.056,8.038,6.634,11.684c-33.893-23.055-51.291-63.701-29.02-102.57c17.049-29.291,51.279-13.482,74.293-1.063
		c-26.134-20.465-64.149-32.403-81.215,5.21c-19.106,39.653,0.464,81.695,36.344,103.428c2.377,1.449,5.033,2.927,7.591,4.274
		c3.502,3.309,7.394,6.191,11.655,8.494c4.955,2.722,10.329,4.643,15.809,5.936c1.244,1.326,2.537,2.603,3.879,3.83
		c3.539,6.782,9.323,15.891,18.486,25.925C179.864,293.75,177.122,297.055,173.895,299.568z M171.005,270.404
		c6.901,4.553,14.529,7.894,22.415,10.033c11.22,14.028,27.481,24.073,44.6,29.422c4.553,4.569,9.623,8.633,15.013,12.152
		c7.874,5.029,16.388,9.056,25.21,11.967c12.698,11.47,28.314,19.857,44.928,24.032l10.707,20.481
		c-10.592-7.722-34.911-23.01-87.569-47.416C203.548,311.247,181.74,287.063,171.005,270.404z M362.048,485.278
		c-3.44-0.718-6.917-2.139-10.107-3.687c-20.017-10.202-33.117-30.326-42.621-50.162c-3.19-6.921-6.133-13.732-9.898-20.481
		c0.911,10.349,5.312,19.792,9.869,28.954c1.585,3.071,3.256,6.133,5.029,9.147c-15.075-9.512-25.958-24.307-36.668-38.397
		c6.778,16.708,22.686,35.868,39.587,43.138c1.979,3.099,4.089,6.121,6.334,9.027c-6.084-3.067-11.963-6.49-17.534-10.399
		c-12.973-9.036-24.209-20.641-32.489-34.131c-4.487-7.34-7.681-14.997-11.749-22.673c-0.123,8.966,3.978,17.139,8.235,24.755
		c1.379,2.422,2.87,4.774,4.442,7.073c-6.848-4.803-15.904-12.41-22.234-22.46c-10.271-16.29-31.631-70.048-38.54-87.697
		c2.611,1.728,5.329,3.453,8.174,5.169c4.327,12.447,9.118,24.705,14.18,36.869c5.489,12.386,10.165,25.535,18.613,36.291
		c-4.926-12.698-10.3-25.013-15.354-37.629c-3.842-9.557-9.048-22.702-13.285-33.097c5.747,3.288,11.963,6.515,18.679,9.627
		c16.93,7.849,30.913,14.758,42.444,20.769c-0.107,0.062-0.402,0.234-0.402,0.234c1.7,3.03,3.428,6.051,5.16,9.064
		c9.877,17.283,21.384,36.976,31.007,54.313c1.761,3.005,3.555,5.998,5.435,8.937c-0.727-3.44-2.003-6.757-3.444-9.947
		c-10.029-20.678-21.565-40.597-33.384-60.302c2.512,1.338,4.902,2.619,7.164,3.859c15.933,27.715,40.059,69.576,55.035,96.769
		c1.215,2.176,2.496,4.319,3.568,6.593c-1.026-4.947-3.202-9.561-5.275-14.134c-2.126-4.553-4.479-8.978-6.823-13.404
		c-13.133-24.623-26.898-48.91-41.188-72.881c1.466,0.825,2.874,1.626,4.224,2.402c1.236,0.71,2.426,1.404,3.572,2.077
		c-0.078,0.045-0.123,0.074-0.123,0.074c13.58,21.729,58.344,91.289,56.296,113.273c-0.14,1.17-0.562,1.966-1.174,2.484
		C365.669,485.647,363.887,485.643,362.048,485.278z M62.211,187.305c7.065,30.605,29.369,60.643,57.913,74.252
		C94.163,242.894,74.72,216.551,62.211,187.305z M59.785,63.108c9.495,2.369,19.718-1.827,22.772-11.548
		c0.714-2.18,1.092-4.43,1.166-6.679c-0.579,2.172-1.244,4.294-2.213,6.256c-3.777,8.371-12.554,11.696-21.253,9.894
		c-0.94-0.156-2.196-0.595-3.112-0.891c-5.46-1.617-11.285-1.732-16.864-1.244c5.538,0.653,11.035,1.248,16.224,3.108
		C57.466,62.369,58.788,62.895,59.785,63.108z M80.837,68.429c1.215-0.973,2.2-2.213,2.763-3.6
		c-7.057,8.309-23.802,2.274-32.891,0.16C58.484,69.824,72.713,74.398,80.837,68.429z M56.214,54.22
		c1.281,1.26,2.886,2.225,4.737,2.755c0.357,0.103,0.723,0.189,1.08,0.255c5.612,1.026,11.207-2.365,12.804-7.956
		c0.357-1.252,0.48-2.512,0.406-3.74c0.365-4.347,3.814-6.967,4.011-7.119c-3.461,1.059-6.823-0.324-8.42-1.166
		c-1.08-0.817-2.324-1.466-3.699-1.86c-2.878-0.817-5.916-0.48-8.543,0.977c-2.619,1.453-4.516,3.847-5.341,6.724
		c-0.464,1.605-0.534,3.227-0.296,4.783l-2.471,5.834C53.003,52.829,55.105,53.621,56.214,54.22z M65.668,37.204
		c0.3,0.053,0.591,0.123,0.883,0.205c4.84,1.383,7.652,6.445,6.269,11.281c-1.392,4.84-6.441,7.652-11.289,6.261
		c-0.985-0.283-1.893-0.727-2.709-1.297c0.337,0.164,0.69,0.308,1.067,0.415c3.588,1.026,7.336-1.055,8.362-4.647
		c0.062-0.209,0.111-0.406,0.148-0.624c-0.952,0.542-2.11,0.714-3.243,0.386c-2.233-0.636-3.535-2.972-2.898-5.205
		c0.345-1.186,1.162-2.106,2.196-2.615c-0.271-0.123-0.558-0.226-0.85-0.308c-3.592-1.026-7.336,1.055-8.362,4.643
		c-0.156,0.546-0.234,1.092-0.25,1.634c-0.156-1.211-0.07-2.455,0.279-3.666c0.669-2.336,2.213-4.278,4.347-5.464
		C61.476,37.171,63.599,36.826,65.668,37.204z M44.912,37.697c-0.562-0.788-1.158-1.597-1.991-2.122
		c0.431,0.854,0.71,1.728,0.965,2.611c1.893,6.076,1.995,12.488-1.129,18.199C48.492,52.094,48.775,43.333,44.912,37.697z
		 M39.259,55.152c1.125-1.466,2.151-2.948,2.841-4.635c1.129-3.264-1.219-6.753-4.261-7.825c0.456,1.191,1.026,2.176,1.441,3.157
		c0.636,1.445,1.002,2.714,0.87,4.22C39.928,51.769,39.341,53.399,39.259,55.152z M21.992,48.071c3.227,1.893,5.76,2.898,9.52,3.116
		C31.208,46.765,24.792,44.507,21.992,48.071z M81.51,51.137c-3.777,8.371-12.554,11.696-21.253,9.894
		c-0.94-0.156-2.196-0.595-3.112-0.891c-5.46-1.617-11.285-1.732-16.864-1.244c5.538,0.653,11.035,1.248,16.224,3.108
		c0.961,0.365,2.283,0.891,3.28,1.104c9.495,2.369,19.718-1.827,22.772-11.548c0.714-2.18,1.092-4.43,1.166-6.679
		C83.144,47.053,82.479,49.175,81.51,51.137z M21.992,48.071c3.227,1.893,5.76,2.898,9.52,3.116
		C31.208,46.765,24.792,44.507,21.992,48.071z M79.252,38.415c-3.461,1.059-6.823-0.324-8.42-1.166
		c-1.08-0.817-2.324-1.466-3.699-1.86c-2.878-0.817-5.916-0.48-8.543,0.977c-2.619,1.453-4.516,3.847-5.341,6.724
		c-0.464,1.605-0.534,3.227-0.296,4.783l-2.471,5.834c2.521-0.879,4.623-0.086,5.731,0.513c1.281,1.26,2.886,2.225,4.737,2.755
		c0.357,0.103,0.723,0.189,1.08,0.255c5.612,1.026,11.207-2.365,12.804-7.956c0.357-1.252,0.48-2.512,0.406-3.74
		C75.607,41.186,79.055,38.567,79.252,38.415z M61.53,54.951c-0.985-0.283-1.893-0.727-2.709-1.297
		c0.337,0.164,0.69,0.308,1.067,0.415c3.588,1.026,7.336-1.055,8.362-4.647c0.062-0.209,0.111-0.406,0.148-0.624
		c-0.952,0.542-2.11,0.714-3.243,0.386c-2.233-0.636-3.535-2.972-2.898-5.205c0.345-1.186,1.162-2.106,2.196-2.615
		c-0.271-0.123-0.558-0.226-0.85-0.308c-3.592-1.026-7.336,1.055-8.362,4.643c-0.156,0.546-0.234,1.092-0.25,1.634
		c-0.156-1.211-0.07-2.455,0.279-3.666c0.669-2.336,2.213-4.278,4.347-5.464c1.86-1.03,3.982-1.375,6.051-0.998
		c0.3,0.053,0.591,0.123,0.883,0.205c4.84,1.383,7.652,6.445,6.269,11.281C71.428,53.531,66.378,56.343,61.53,54.951z"/>
</g>
</svg>
