<?xml version="1.0" encoding="utf-8"?>
<!-- Generator: Adobe Illustrator 28.3.0, SVG Export Plug-In . SVG Version: 6.00 Build 0)  -->
<svg version="1.1" id="peacock_00000112612198099333193400000010795881234867389368_"
	 xmlns="http://www.w3.org/2000/svg" xmlns:xlink="http://www.w3.org/1999/xlink" x="0px" y="0px" viewBox="0 0 490 286.649"
	 enable-background="new 0 0 490 286.649" xml:space="preserve">
<g id="peacock">
	<g>
		<path fill="#2C8CDB" d="M465.619,30.856c0,0-16.559-19.238-32.001-2.257c0,0-11.393,12.888-12.63,37.822
			s-12.534,22.144-22.752,19.703c-10.219-2.441-31.586-2.258-39.86,1.535c0,0,39.748-0.663,44.198,14.507
			c4.45,15.17-7.058,34.873-48.382,34.873h-3.836c0,0-25.108,15.867-53.007,10.811l-39.406,5.802l18.483,8.997l-9.764,3.509
			c0,0,12.243,3.314,40.278,2.626l-28.944,12.767l21.098,3.351c0,0,11.508,8.343,11.857,13.108c0.349,4.765-1.221,4.697-1.221,4.697
			s17.611-7.256,21.796-11.789l-7.846,13.252c0,0,19.967-1.896,24.585-4.647c0,0,39.232-11.647,65.735-45.871
			c0,0,53.616-18.007,35.264-81.127c0,0-4.828-20.153,1.212-24.639c0,0,11.234-1.887,13.253-4.697l-1.748-6.355L465.619,30.856z"/>
		<path fill="#2C8CDB" d="M255.179,184.901c0,8.011-6.495,14.506-14.506,14.506s-14.506-6.495-14.506-14.506
			c0-8.011,6.495-14.506,14.506-14.506c4.65,0,8.793,2.188,11.445,5.593c-3.215-3.693-8.888-4.519-11.445-4.519
			c-3.028,0-5.487,2.455-5.487,5.487c0,3.028,2.458,6.82,5.487,6.82c1.677,0-0.486,8.362,7.186,7.799
			c7.723-0.566,6.305-11.971,5.764-13.209c-0.018-0.044-0.04-0.088-0.062-0.132C254.595,180.232,255.179,182.497,255.179,184.901z"
			/>
		<path fill="#2C8CDB" d="M190.897,160.601c-7.595,0-13.75,6.155-13.75,13.75c0,7.591,6.155,13.75,13.75,13.75
			c7.591,0,13.75-6.159,13.75-13.75C204.647,166.756,198.488,160.601,190.897,160.601z M195.934,181.27
			c-6.51-0.53-3.602-7.266-5.012-7.485c-2.542-0.395-4.11-3.898-3.715-6.44c0.395-2.543,2.776-4.285,5.322-3.89
			c2.542,0.395,8.621,2.342,9.969,7.478C202.791,172.042,202.491,181.803,195.934,181.27z"/>
		<path fill="#2C8CDB" d="M185.103,212.66c-7.591,0-13.746,6.155-13.746,13.75c0,7.595,6.155,13.75,13.746,13.75
			c7.595,0,13.75-6.155,13.75-13.75C198.853,218.816,192.698,212.66,185.103,212.66z M190.922,232.259
			c-6.513,0.479-4.676-6.627-6.101-6.627c-2.575,0-4.661-3.218-4.661-5.794c0-2.575,2.086-4.661,4.661-4.661
			c2.572,0,8.881,0.99,10.999,5.859C196.281,222.089,197.483,231.776,190.922,232.259z"/>
		<path fill="#2C8CDB" d="M138.644,195.264c-6.382,0-11.555,5.173-11.555,11.555c0,6.378,5.173,11.551,11.555,11.551
			c6.382,0,11.555-5.173,11.555-11.551C150.198,200.437,145.026,195.264,138.644,195.264z M143.247,213.066
			c-5.728-0.464-3.171-6.393-4.409-6.583c-2.239-0.351-3.617-3.43-3.269-5.67c0.347-2.236,2.444-3.77,4.683-3.423
			c2.236,0.347,7.587,2.06,8.771,6.579C149.278,204.949,149.018,213.533,143.247,213.066z"/>
		<path fill="#2C8CDB" d="M69.488,247.291c-6.382,0-11.555,5.173-11.555,11.555c0,6.382,5.173,11.555,11.555,11.555
			c6.378,0,11.551-5.173,11.551-11.555C81.039,252.464,75.866,247.291,69.488,247.291z M71.464,268.687
			c-5.425,1.096-10.729-2.437-11.821-7.865c-1.089-5.425,2.44-10.729,7.865-11.818c0.665-0.135,1.333-0.201,1.998-0.201
			c0.161,0,0.321,0.011,0.482,0.018c-1.125,0.42-2.115,1.176-2.798,2.174c-0.873,1.271-1.187,2.791-0.884,4.278
			c0.292,1.414,1.1,2.652,2.276,3.481c0.168,0.121,0.216,0.351,0.106,0.522c-0.84,1.341-1.078,2.926-0.669,4.46
			c0.661,2.491,3.006,4.172,5.56,4.172c0.077,0,0.157-0.011,0.237-0.015C73.075,268.248,72.29,268.522,71.464,268.687z
			 M73.375,266.276c-5.626-1.184-2.342-6.743-3.547-7.087c-2.177-0.628-3.156-3.858-2.528-6.035
			c0.625-2.177,2.897-3.434,5.074-2.806c2.177,0.625,7.266,2.996,7.876,7.631C80.378,258.981,79.037,267.467,73.375,266.276z"/>
		<path fill="#2C8CDB" d="M126.198,239.528c-6.382,0-11.555,5.173-11.555,11.555c0,6.382,5.173,11.555,11.555,11.555
			c6.382,0,11.555-5.173,11.555-11.555C137.752,244.701,132.58,239.528,126.198,239.528z M130.735,257.293
			c-5.728-0.468-3.171-6.393-4.409-6.586c-2.239-0.347-3.62-3.43-3.269-5.666c0.347-2.239,2.444-3.77,4.68-3.423
			c2.239,0.347,7.587,2.06,8.771,6.579C136.766,249.176,136.503,257.761,130.735,257.293z"/>
		<path fill="#2C8CDB" d="M73.817,267.894c-0.742,0.354-1.527,0.628-2.353,0.793c-5.425,1.096-10.729-2.437-11.821-7.865
			c-1.089-5.425,2.44-10.729,7.865-11.818c0.665-0.135,1.333-0.201,1.998-0.201c0.161,0,0.321,0.011,0.482,0.018
			c-1.125,0.42-2.115,1.176-2.798,2.174c-0.873,1.271-1.187,2.791-0.884,4.278c0.292,1.414,1.1,2.652,2.276,3.481
			c0.168,0.121,0.216,0.351,0.106,0.522c-0.84,1.341-1.078,2.926-0.669,4.46c0.661,2.491,3.006,4.172,5.56,4.172
			C73.656,267.909,73.737,267.898,73.817,267.894z"/>
	</g>
	<path fill="#31AD63" d="M135.374,247.773c-0.186-0.774-0.479-1.523-0.906-2.236c-0.727-1.202-1.75-2.06-2.915-2.707
		c-0.942-0.526-1.98-0.913-3.021-1.231c-1.162-0.351-2.459-0.11-3.5,0.533c-0.055,0.033-0.106,0.069-0.161,0.102
		c-0.442,0.3-0.829,0.672-1.136,1.103c-0.208,0.3-0.38,0.625-0.497,0.975c-0.04,0.113-0.073,0.23-0.099,0.347
		c-0.486,2.133,0.486,4.219,2.404,5.133c0.223,0.34,0.489,0.647,0.8,0.917c0.073,0.066,0.153,0.132,0.234,0.19l0.004,0.004
		c0.084,0.066,0.172,0.128,0.263,0.186c-0.026,0.289-0.062,0.577-0.099,0.866c-0.004,0.026-0.007,0.048-0.007,0.073
		c-0.022,0.212-0.015,0.427,0.011,0.643c0.219,1.593,1.735,3.178,3.215,3.514c1.761,0.398,4.132-0.219,4.95-2.016
		C135.864,252.084,136.182,249.896,135.374,247.773z M202.499,170.658c-1.348-5.136-7.427-7.083-9.969-7.478
		c-2.546-0.395-4.928,1.348-5.322,3.89c-0.047,0.307-0.066,0.628-0.058,0.957c0.055,2.385,1.538,5.136,3.774,5.483
		c1.41,0.219-1.498,6.955,5.012,7.485c5.523,0.449,6.608-6.404,6.638-9.242C202.575,171.224,202.546,170.833,202.499,170.658z
		 M195.821,220.763c-2.119-4.869-8.428-5.859-10.999-5.859c-2.575,0-4.661,2.086-4.661,4.661c0,0.047,0,0.091,0.004,0.139
		c0.069,2.55,2.126,5.655,4.658,5.655c1.425,0-0.413,7.105,6.101,6.627c4.296-0.318,5.264-4.581,5.29-7.781
		C196.227,222.516,195.978,221.124,195.821,220.763z M202.499,170.658c-1.348-5.136-7.427-7.083-9.969-7.478
		c-2.546-0.395-4.928,1.348-5.322,3.89c-0.047,0.307-0.066,0.628-0.058,0.957c0.055,2.385,1.538,5.136,3.774,5.483
		c1.41,0.219-1.498,6.955,5.012,7.485c5.523,0.449,6.608-6.404,6.638-9.242C202.575,171.224,202.546,170.833,202.499,170.658z
		 M195.821,220.763c-2.119-4.869-8.428-5.859-10.999-5.859c-2.575,0-4.661,2.086-4.661,4.661c0,0.047,0,0.091,0.004,0.139
		c0.069,2.55,2.126,5.655,4.658,5.655c1.425,0-0.413,7.105,6.101,6.627c4.296-0.318,5.264-4.581,5.29-7.781
		C196.227,222.516,195.978,221.124,195.821,220.763z M149.022,203.696c-1.184-4.519-6.535-6.232-8.771-6.579
		c-2.239-0.347-4.336,1.187-4.683,3.423c-0.044,0.292-0.062,0.595-0.051,0.906v0.011c0.08,2.082,1.374,4.449,3.321,4.753
		c1.238,0.19-1.319,6.119,4.409,6.583c4.851,0.395,5.808-5.611,5.834-8.117C149.091,204.2,149.062,203.853,149.022,203.696z
		 M135.374,247.773c-0.186-0.774-0.479-1.523-0.906-2.236c-0.727-1.202-1.75-2.06-2.915-2.707c-0.942-0.526-1.98-0.913-3.021-1.231
		c-1.162-0.351-2.459-0.11-3.5,0.533c-0.055,0.033-0.106,0.069-0.161,0.102c-0.442,0.3-0.829,0.672-1.136,1.103
		c-0.208,0.3-0.38,0.625-0.497,0.975c-0.04,0.113-0.073,0.23-0.099,0.347c-0.486,2.133,0.486,4.219,2.404,5.133
		c0.223,0.34,0.489,0.647,0.8,0.917c0.073,0.066,0.153,0.132,0.234,0.19l0.004,0.004c0.084,0.066,0.172,0.128,0.263,0.186
		c-0.026,0.289-0.062,0.577-0.099,0.866c-0.004,0.026-0.007,0.048-0.007,0.073c-0.022,0.212-0.015,0.427,0.011,0.643
		c0.219,1.593,1.735,3.178,3.215,3.514c1.761,0.398,4.132-0.219,4.95-2.016C135.864,252.084,136.182,249.896,135.374,247.773z
		 M277.992,181.273l8.603-3.518l22.598-9.246l-34.792-1.008l-2.316-0.066l-0.289-0.3l-2.027-2.097l-0.197-0.205l6.528-2.345
		l0.325-0.117l-18.053-8.786l-0.431-0.212l-3.182-0.449l-8.216-1.154l-15.474-1.425l-6.696-0.617l8.289-4.734l7.818-4.464
		l4.234-2.418c0,0-50.445,4.599-63.504,12.168c-0.015,0.007-0.026,0.015-0.04,0.026c-2.148,1.242-4.292,2.67-6.375,4.183
		c-2.042,1.479-4.022,3.043-5.892,4.603c-3.043,2.535-5.786,5.063-8.007,7.2c-3.496,3.364-5.691,5.779-5.691,5.779
		s-1.421,0.153-3.909,0.84c-6.02,1.658-18.298,6.437-31.858,19.73c-4.384,4.296-8.906,9.487-13.392,15.748l-2.63,4.698
		l-7.438,13.293c0,0-0.241-0.015-0.69-0.033h-0.029c-1.227-0.051-3.931-0.113-7.456,0.077c-9.187,0.497-23.938,2.7-32.527,11.321
		c-0.004,0.004-0.011,0.011-0.015,0.015c-7.638,7.675-17.936,15.916-27.292,20.837c-6.736,3.543-12.983,5.363-17.403,4.018
		c0,0,45.162,31.135,88.224,14.104l5.805-1.626c0,0,38.466,4.303,58.624-16.534c0,0,56.012-6.174,72.699-41.981
		c0,0,35.493-9.655,51.438-33.546c0.058-0.08,0.113-0.161,0.168-0.245l-9.074-1.443L277.992,181.273z M138.644,218.096
		c-6.334,0-11.478-5.1-11.555-11.412v-0.139c0-6.382,5.173-11.555,11.555-11.555c6.382,0,11.555,5.173,11.555,11.555v0.139
		C150.122,212.996,144.978,218.096,138.644,218.096z M190.897,187.827c-7.547,0-13.673-6.082-13.75-13.611v-0.139
		c0-7.595,6.155-13.75,13.75-13.75c7.591,0,13.75,6.155,13.75,13.75v0.139C204.57,181.745,198.44,187.827,190.897,187.827z
		 M185.103,239.886c-7.544,0-13.67-6.079-13.746-13.611v-0.139c0-7.595,6.155-13.75,13.746-13.75c7.595,0,13.75,6.155,13.75,13.75
		v0.139C198.776,233.808,192.65,239.886,185.103,239.886z M126.198,262.363c-6.334,0-11.478-5.1-11.555-11.416v-0.139
		c0-6.382,5.173-11.555,11.555-11.555c6.382,0,11.555,5.173,11.555,11.555v0.139C137.676,257.264,132.532,262.363,126.198,262.363z
		 M240.673,199.133c-7.964,0-14.429-6.422-14.506-14.367v-0.139c0-8.011,6.495-14.506,14.506-14.506
		c4.65,0,8.793,2.188,11.445,5.593c-0.504-0.577-1.063-1.085-1.666-1.527c-0.004-0.004-0.007-0.007-0.011-0.007
		c-3.244-2.396-7.613-2.985-9.768-2.985c-3.028,0-5.487,2.455-5.487,5.487c0,0.048,0,0.091,0.004,0.139
		c0.073,3.003,2.502,6.681,5.483,6.681c1.677,0-0.486,8.362,7.186,7.799c5.067-0.373,6.199-5.41,6.225-9.18
		c0.011-1.425-0.135-2.67-0.292-3.412c-0.055-0.285-0.117-0.497-0.168-0.617c0.997,1.965,1.556,4.183,1.556,6.535v0.172
		C255.088,192.729,248.626,199.133,240.673,199.133z M67.508,249.004c0.665-0.135,1.333-0.201,1.998-0.201
		c0.161,0,0.321,0.011,0.482,0.018c-1.125,0.42-2.115,1.176-2.798,2.174c-0.873,1.271-1.187,2.791-0.884,4.278
		c0.292,1.414,1.1,2.652,2.276,3.481c0.168,0.121,0.216,0.351,0.106,0.522c-0.84,1.341-1.078,2.926-0.669,4.46
		c0.661,2.491,3.006,4.172,5.56,4.172c0.077,0,0.157-0.011,0.237-0.015c-0.742,0.354-1.527,0.628-2.353,0.793
		c-5.425,1.096-10.729-2.437-11.821-7.865C58.555,255.397,62.083,250.093,67.508,249.004z M192.53,163.18
		c-2.546-0.395-4.928,1.348-5.322,3.89c-0.047,0.307-0.066,0.628-0.058,0.957c0.055,2.385,1.538,5.136,3.774,5.483
		c1.41,0.219-1.498,6.955,5.012,7.485c5.523,0.449,6.608-6.404,6.638-9.242c0.004-0.53-0.026-0.921-0.073-1.096
		C201.151,165.521,195.072,163.574,192.53,163.18z M184.822,214.903c-2.575,0-4.661,2.086-4.661,4.661c0,0.047,0,0.091,0.004,0.139
		c0.069,2.55,2.126,5.655,4.658,5.655c1.425,0-0.413,7.105,6.101,6.627c4.296-0.318,5.264-4.581,5.29-7.781
		c0.015-1.688-0.234-3.08-0.391-3.441C193.702,215.893,187.393,214.903,184.822,214.903z M140.251,197.116
		c-2.239-0.347-4.336,1.187-4.683,3.423c-0.044,0.292-0.062,0.595-0.051,0.906v0.011c0.08,2.082,1.374,4.449,3.321,4.753
		c1.238,0.19-1.319,6.119,4.409,6.583c4.851,0.395,5.808-5.611,5.834-8.117c0.011-0.475-0.018-0.822-0.058-0.979
		C147.838,199.177,142.487,197.464,140.251,197.116z M134.468,245.537c-0.727-1.202-1.75-2.06-2.915-2.707
		c-0.942-0.526-1.98-0.913-3.021-1.231c-1.162-0.351-2.459-0.11-3.5,0.533c-0.055,0.033-0.106,0.069-0.161,0.102
		c-0.442,0.3-0.829,0.672-1.136,1.103c-0.208,0.3-0.38,0.625-0.497,0.975c-0.04,0.113-0.073,0.23-0.099,0.347
		c-0.486,2.133,0.486,4.219,2.404,5.133c0.223,0.34,0.489,0.647,0.8,0.917c0.073,0.066,0.153,0.132,0.234,0.19l0.004,0.004
		c0.084,0.066,0.172,0.128,0.263,0.186c-0.026,0.289-0.062,0.577-0.099,0.866c-0.004,0.026-0.007,0.048-0.007,0.073
		c-0.022,0.212-0.015,0.427,0.011,0.643c0.219,1.593,1.735,3.178,3.215,3.514c1.761,0.398,4.132-0.219,4.95-2.016
		c0.95-2.086,1.268-4.274,0.46-6.396C135.188,246.999,134.896,246.25,134.468,245.537z M149.022,203.696
		c-1.184-4.519-6.535-6.232-8.771-6.579c-2.239-0.347-4.336,1.187-4.683,3.423c-0.044,0.292-0.062,0.595-0.051,0.906v0.011
		c0.08,2.082,1.374,4.449,3.321,4.753c1.238,0.19-1.319,6.119,4.409,6.583c4.851,0.395,5.808-5.611,5.834-8.117
		C149.091,204.2,149.062,203.853,149.022,203.696z"/>
	<g>
		<path fill="#FFC82C" d="M261.714,180.422c0,0-1.191-18.104-23.653-16.57c-22.466,1.531-28.421,47.179-28.421,47.179
			C266.65,215.495,261.714,180.422,261.714,180.422z M240.673,199.407c-8.011,0-14.506-6.495-14.506-14.506
			c0-8.011,6.495-14.506,14.506-14.506c4.65,0,8.793,2.188,11.445,5.593c0.004,0.004,0.007,0.007,0.011,0.011
			c0.541,0.698,1.023,1.447,1.432,2.236c1.034,1.998,1.618,4.263,1.618,6.667C255.179,192.912,248.684,199.407,240.673,199.407z"/>
		<path fill="#FFC82C" d="M194.86,155.68c-22.612-4.252-37.787,32.881-37.787,32.881c35.588,14.503,51.234-4.289,51.234-4.289
			S217.469,159.936,194.86,155.68z M190.897,188.101c-7.595,0-13.75-6.159-13.75-13.75c0-7.595,6.155-13.75,13.75-13.75
			c7.591,0,13.75,6.155,13.75,13.75C204.647,181.942,198.488,188.101,190.897,188.101z"/>
		<path fill="#FFC82C" d="M185.812,207.162c-21.443-1.447-31.35,39.95-30.609,40.118c44.271,10.082,49.331-18.419,49.331-18.419
			S207.255,208.609,185.812,207.162z M185.103,240.16c-7.591,0-13.746-6.155-13.746-13.75c0-7.595,6.155-13.75,13.746-13.75
			c7.595,0,13.75,6.155,13.75,13.75C198.853,234.005,192.698,240.16,185.103,240.16z"/>
		<path fill="#FFC82C" d="M146.162,191.575c-21.443-9.545-36.081,28.289-36.081,28.289c7.149,2.579,21.783,4.062,30.634,3.843
			C149.563,223.491,167.605,201.12,146.162,191.575z M138.644,218.37c-6.382,0-11.555-5.173-11.555-11.551
			c0-6.382,5.173-11.555,11.555-11.555c6.382,0,11.555,5.173,11.555,11.555C150.198,213.197,145.026,218.37,138.644,218.37z"/>
		<path fill="#FFC82C" d="M132.876,235.813c-22.137-9.385-34.879,30.32-34.879,30.32c7.321,3.061,28.424,2.042,32.848,1.388
			C135.268,266.868,155.009,245.198,132.876,235.813z M126.198,262.637c-6.382,0-11.555-5.173-11.555-11.555
			c0-6.382,5.173-11.555,11.555-11.555c6.382,0,11.555,5.173,11.555,11.555C137.752,257.465,132.58,262.637,126.198,262.637z"/>
		<path fill="#FFC82C" d="M78.767,243.839c-18.039-10.722-40.333,21.06-40.333,21.06c21.272,16.296,40.333,7.872,40.333,7.872
			C95.954,259.496,78.767,243.839,78.767,243.839z M66.306,255.273c0.292,1.414,1.1,2.652,2.276,3.481
			c0.168,0.121,0.216,0.351,0.106,0.522c-0.84,1.341-1.078,2.926-0.669,4.46c0.661,2.491,3.006,4.172,5.56,4.172
			c0.077,0,0.157-0.011,0.237-0.015c-0.742,0.354-1.527,0.628-2.353,0.793c-5.425,1.096-10.729-2.437-11.821-7.865
			c-1.089-5.425,2.44-10.729,7.865-11.818c0.665-0.135,1.333-0.201,1.998-0.201c0.161,0,0.321,0.011,0.482,0.018
			c-1.125,0.42-2.115,1.176-2.798,2.174C66.317,252.266,66.003,253.786,66.306,255.273z M73.375,266.276
			c-5.626-1.184-2.342-6.743-3.547-7.087c-2.177-0.628-3.156-3.858-2.528-6.035c0.625-2.177,2.897-3.434,5.074-2.806
			c2.177,0.625,7.266,2.996,7.876,7.631C80.378,258.981,79.037,267.467,73.375,266.276z"/>
	</g>
	<g>
		<circle fill="#FFFFFF" cx="435.723" cy="4.024" r="2.612"/>
		<circle fill="#FFFFFF" cx="429.472" cy="6.01" r="2.612"/>
		<circle fill="#FFFFFF" cx="449.262" cy="33.702" r="3.698"/>
		<circle fill="#FFFFFF" cx="423.792" cy="9.702" r="2.612"/>
		<circle fill="#FFFFFF" cx="419.516" cy="15.176" r="2.612"/>
		<circle fill="#FFFFFF" cx="417.418" cy="21.277" r="2.612"/>
		<polygon fill="#FFFFFF" points="466.246,30.571 460.654,38.776 464.143,43.784 481.073,38.339 478.354,34.909 		"/>
		<polygon fill="#FFFFFF" points="333.86,204.168 333.86,273.722 322.935,276.039 318.466,281.833 337.998,284.151 358.193,281.336 
			372.263,284.151 367.463,278.357 367.629,275.212 361.781,273.06 342.302,272.067 340.481,241.443 346.797,200.191 		"/>
		<path fill="#FFFFFF" d="M227.565,148.564c0,0,21.266-9.153,35.958-24.082c14.692-14.929,48.722-27.189,60.309-28.476l10.506-3.318
			c0,0,52.702-13.823,68.236,8.294c15.534,22.117-33.506,39.212-48.382,36.056c0,0-32.482,15.553-53.538,11.313
			C300.653,148.351,241.608,158.546,227.565,148.564z"/>
		<path fill="#FFFFFF" d="M465.279,31.415c0,0-16.646-14.152-28.098-2.601c-8.072,8.142-12.256,15.585-14.326,45.75
			c-1.434,20.898-17.722,16.136-23.974,14.546c-8.185-2.082-23.044-3.673-28.174-2.169c-5.129,1.504-1.232-1.837-1.232-1.837
			s23.444-3.594,41.192,3.318l6.75-6.221l8.623-43.424C426.041,38.776,441.321,5.791,465.279,31.415z"/>
		<path fill="#FFFFFF" d="M150.458,183.268c0,0,4.209-3.014,12.664-13.785c10.663-13.583,23.6-18.029,30.761-19.581
			c17.879-3.875,42.745-5.154,42.745-5.154l4.045-4.428c0,0-55.473,1.583-66.669,15.023l-10.971,8.055l-9.223,12.46L150.458,183.268
			z"/>
		<path fill="#FFFFFF" d="M90.639,235.813c4.642-1.436,6.755-6.878,17.932-23.152c18.546-27.005,30.925-32.671,45.49-37.436
			l1.141-2.881c0,0-19.007,0.52-38.416,23.266S90.639,235.813,90.639,235.813z"/>
		<path fill="#FFFFFF" d="M454.814,33.766c0.015-1.17-0.327-2.353-1.068-3.369c-1.821-2.498-5.335-3.049-7.835-1.228v0.001
			c-0.84,0.613-1.454,1.42-1.838,2.313c-1.258,0.776-2.603,0.73-2.603,0.73c0.987,0.376,1.683,1.101,2.15,1.775
			c0.052,1.053,0.398,2.103,1.064,3.017c0.883,1.211,2.183,2.005,3.663,2.237c0.294,0.046,0.588,0.068,0.88,0.068
			c1.178,0,2.322-0.371,3.292-1.078c1.003-0.731,1.686-1.736,2.034-2.837c0.874-0.596,1.735-0.588,1.735-0.588
			C455.597,34.573,455.132,34.168,454.814,33.766z"/>
		<path fill="#FFFFFF" d="M15.018,264.899c0,0,10.734,1.798,22.043-7.589s22.204-20.27,32.419-23.614
			c13.847-4.532,24.264-3.57,24.264-3.57l1.621-3.976c0,0-23.165-1.509-44.141,14.45S22.952,264.025,15.018,264.899z"/>
	</g>
	<path fill="#231F20" d="M343.358,107.575c-0.23-1.922,0.949-3.734,2.304-5.116c3.696-3.771,9.167-5.723,14.415-5.141
		c-2.252,0.768-4.576,1.578-6.322,3.195c-1.746,1.617-2.761,4.276-1.766,6.437c1.002,2.177,3.515,2.371,4.815,4.167
		c-2.415,1.233-7.03,1.482-9.738,0.546C345.232,111.03,343.589,109.502,343.358,107.575z M293.74,124.18
		c2.108,0.728,5.701,0.534,7.581-0.425c-1.012-1.398-2.968-1.549-3.748-3.244c-0.775-1.682,0.016-3.753,1.375-5.011
		c1.359-1.259,3.168-1.889,4.921-2.487c-4.085-0.453-8.344,1.066-11.221,4.002c-1.055,1.076-1.972,2.486-1.793,3.983
		C291.033,122.497,292.313,123.687,293.74,124.18z M328.128,133.631c1.78,0.614,4.812,0.451,6.398-0.359
		c-0.854-1.18-2.505-1.307-3.164-2.738c-0.654-1.42,0.013-3.167,1.16-4.229c1.147-1.062,2.674-1.594,4.154-2.099
		c-3.448-0.382-7.043,0.9-9.471,3.378c-0.89,0.908-1.665,2.099-1.514,3.362C325.843,132.211,326.923,133.215,328.128,133.631z
		 M328.733,113.345c1.779,0.614,4.812,0.451,6.398-0.359c-0.854-1.18-2.505-1.307-3.164-2.738c-0.654-1.42,0.013-3.167,1.16-4.23
		c1.147-1.062,2.674-1.594,4.154-2.099c-3.448-0.382-7.043,0.9-9.471,3.378c-0.89,0.908-1.665,2.099-1.514,3.362
		C326.449,111.924,327.529,112.929,328.733,113.345z M349.759,124.477c0.889-0.823,2.073-1.236,3.22-1.627
		c-2.673-0.296-5.459,0.697-7.341,2.618c-0.69,0.704-1.29,1.627-1.173,2.606c0.117,0.981,0.955,1.76,1.889,2.082
		c1.379,0.476,3.73,0.35,4.96-0.278c-0.662-0.914-1.942-1.013-2.452-2.122C348.353,126.655,348.87,125.3,349.759,124.477z
		 M311.891,126.136c1.379,0.476,3.73,0.35,4.96-0.278c-0.662-0.914-1.942-1.013-2.452-2.122c-0.507-1.101,0.01-2.455,0.899-3.278
		c0.889-0.823,2.073-1.236,3.22-1.627c-2.673-0.296-5.459,0.697-7.341,2.618c-0.69,0.704-1.29,1.627-1.173,2.606
		C310.119,125.035,310.957,125.813,311.891,126.136z M368.346,106.104c1.379,0.476,3.73,0.35,4.96-0.278
		c-0.662-0.914-1.942-1.013-2.452-2.122c-0.507-1.101,0.01-2.455,0.899-3.278c0.889-0.823,2.073-1.236,3.22-1.627
		c-2.673-0.296-5.459,0.697-7.341,2.618c-0.69,0.704-1.29,1.627-1.173,2.606C366.575,105.003,367.412,105.781,368.346,106.104z
		 M276.903,134.075c1.379,0.476,3.73,0.35,4.96-0.278c-0.662-0.914-1.942-1.013-2.452-2.122c-0.507-1.101,0.01-2.455,0.899-3.278
		c0.889-0.823,2.073-1.236,3.22-1.627c-2.673-0.296-5.459,0.697-7.341,2.618c-0.69,0.704-1.29,1.627-1.173,2.606
		C275.132,132.974,275.969,133.753,276.903,134.075z M398.236,113.075c-2.279,2.086-4.387,3.741-6.678,5.381
		c-7.058,4.997-15.379,7.755-22.861,12.077C377.866,130.858,396.705,123.183,398.236,113.075z M141.99,242.082
		c4.866,8.709,1.739,19.756-6.974,24.618c-5.268,2.944-11.986,3.854-18.272,3.854c-9.841,0-18.641-2.228-19.237-2.382l-1.531-0.395
		l0.475-1.512c0.3-0.964,7.547-23.69,20.921-31.157c4.216-2.36,9.103-2.93,13.75-1.615
		C135.776,234.812,139.634,237.859,141.99,242.082z M139.363,243.55c-1.965-3.518-5.184-6.06-9.06-7.16
		c-3.88-1.096-7.949-0.621-11.463,1.344c-10.422,5.823-17.125,22.689-18.988,27.887c5.381,1.158,23.164,4.333,33.696-1.549
		C140.81,260.018,143.418,250.809,139.363,243.55z M252.863,174.358c2.816,3.258,4.197,7.419,3.887,11.712
		c-0.314,4.296-2.279,8.212-5.534,11.029h-0.004c-3.039,2.63-6.795,3.92-10.532,3.92c-4.522,0-9.023-1.889-12.205-5.567
		c-5.816-6.725-5.074-16.928,1.648-22.74c3.258-2.817,7.408-4.194,11.712-3.887C246.131,169.138,250.047,171.103,252.863,174.358z
		 M252.567,190.391c-0.208,0.223-0.416,0.446-0.643,0.654c-1.341,1.238-3.058,1.856-4.756,1.856c-1.757,0-3.496-0.661-4.782-1.973
		c-1.326-1.359-2.013-3.145-1.925-5.034c0.018-0.471-0.332-0.877-0.804-0.924c-1.717-0.175-3.28-0.986-4.413-2.283
		c-1.191-1.366-1.761-3.131-1.6-4.968c0.164-1.885,1.103-3.653,2.579-4.848c0.237-0.19,0.479-0.358,0.723-0.526
		c-1.735,0.511-3.397,1.381-4.851,2.641c-5.469,4.731-6.071,13.023-1.344,18.495c4.727,5.465,13.023,6.068,18.495,1.341
		C250.682,193.58,251.796,192.068,252.567,190.391z M251.146,177.043c-0.183-0.241-0.362-0.482-0.559-0.712
		c-0.226-0.263-0.471-0.5-0.712-0.738c-1.71-1.582-3.894-2.393-6.097-2.393c-1.987,0-3.985,0.661-5.659,2.013
		c-0.844,0.683-1.381,1.691-1.476,2.769c-0.088,1.012,0.219,1.98,0.869,2.725c0.628,0.72,1.498,1.169,2.448,1.268
		c2.057,0.208,3.598,1.987,3.507,4.051c-0.048,1.048,0.332,2.042,1.07,2.795c1.403,1.436,3.803,1.436,5.344,0.011h0.004
		C253.25,185.726,253.733,180.707,251.146,177.043z M312.327,173.306c-2.944,1.37-5.827,2.871-8.461,5.059
		c3.423-0.216,6.554-1.206,9.6-2.382c3.065-1.143,6.115-2.331,9.096-3.682c2.992-1.337,5.907-2.853,8.767-4.486
		c2.849-1.607,5.677-3.507,7.679-6.349c-5.629,1.626-12.574,5.301-17.914,7.635C318.161,170.457,315.257,171.903,312.327,173.306z
		 M258.04,169.887c3.934,4.544,5.859,10.353,5.425,16.351c-0.438,5.995-3.178,11.463-7.726,15.394
		c-11.956,10.342-33.944,11.397-42.426,11.397c-1.951,0-3.185-0.055-3.423-0.069l-1.582-0.077l0.157-1.574
		c0.128-1.268,3.284-31.146,17.83-43.727c4.548-3.931,10.356-5.856,16.351-5.421C248.64,162.595,254.109,165.339,258.04,169.887z
		 M255.764,171.856c-3.405-3.942-8.143-6.316-13.337-6.692c-5.206-0.376-10.225,1.29-14.163,4.698
		c-11.796,10.199-15.734,33.761-16.599,40.136c6.411,0.084,30.181-0.332,42.105-10.641c3.938-3.405,6.312-8.143,6.692-13.337
		C260.838,180.824,259.168,175.794,255.764,171.856z M201.943,213.979c3.255,4.406,4.599,9.816,3.785,15.233
		c-0.815,5.417-3.69,10.196-8.095,13.447c-8.625,6.375-21.951,7.668-31.336,7.668c-6.057,0-10.47-0.541-10.915-0.595l-1.571-0.201
		l0.278-1.556c0.205-1.136,5.129-27.931,19.171-38.306c4.406-3.255,9.816-4.592,15.233-3.785
		C193.91,206.698,198.689,209.573,201.943,213.979z M199.522,215.769c-2.776-3.759-6.853-6.214-11.474-6.908
		c-4.628-0.694-9.239,0.453-12.998,3.229c-11.218,8.289-16.391,28.921-17.67,34.817c5.987,0.526,27.135,1.699,38.466-6.667
		C203.606,234.505,205.253,223.528,199.522,215.769z M455.004,34.615c-0.04,0-0.734,0.007-1.432,0.486
		c-0.289,0.913-0.855,1.743-1.684,2.349c-0.8,0.584-1.75,0.891-2.722,0.891c-0.241,0-0.486-0.018-0.727-0.058
		c-1.224-0.19-2.301-0.848-3.028-1.848c-0.552-0.756-0.837-1.626-0.88-2.495c-0.387-0.559-0.961-1.158-1.779-1.469
		c0,0,1.111,0.037,2.152-0.603c0.318-0.742,0.826-1.406,1.52-1.914c0.822-0.599,1.779-0.888,2.729-0.888
		c1.432,0,2.846,0.658,3.752,1.903c0.614,0.84,0.895,1.819,0.884,2.787C454.051,34.089,454.434,34.421,455.004,34.615z
		 M448.469,31.776c0.062-0.055,0.128-0.102,0.194-0.153c0.774-0.566,1.761-0.625,2.579-0.259c-1.078-0.957-2.718-1.078-3.931-0.194
		c-1.395,1.016-1.702,2.981-0.683,4.376c1.016,1.395,2.977,1.702,4.376,0.687c0.055-0.044,0.099-0.095,0.153-0.139
		c-1.074,0.438-2.345,0.117-3.061-0.862c-0.069-0.095-0.132-0.19-0.183-0.289c0.431,0.088,0.891,0.004,1.275-0.274
		c0.716-0.526,0.873-1.531,0.351-2.247C449.272,32.058,448.881,31.839,448.469,31.776z M490,41.146
		c-2.279-0.409-4.585-0.749-6.897-1.041c-6.375,0.796-12.643,2.835-18.594,5.202c0,0-0.004-0.004-0.007-0.004
		c-4.048,2.532-9.096,4.19-14.112,4.46c-0.869,1.706-3.434,8.395,1.048,21.761c3.39,10.112,17.286,61.254-38.203,85.097
		c-0.771,1.067-1.538,2.126-2.298,3.182c-14.181,18.842-33.973,33.564-56.41,41.002c-2.075,0.727-4.205,1.308-6.378,1.695
		c-5.472,19.116-6.429,39.343-5.388,59.124c0,0,0.53,7.226,0.621,8.49c0.004,0.007,0.004,0.011,0.007,0.018
		c2.553,3.196,9.388,0.146,12.968,0.11c2.922-0.219,6.115,0.15,8.924,1.71c2.754,1.527,4.888,4.121,5.805,7.142
		c2.195,2.027,3.448,4.964,4.712,7.554l-3.2-1.1c-6.48-1.958-13.834-2.97-20.472-1.37c-1.074,0.3-2.477,0.763-3.562,0.957
		c-6.09,1.352-12.618,0.029-18.36-1.063c-4.431-0.804-8.943-1.275-13.082,0.533l-4.402,1.856l1.998-4.318
		c3.185-6.459,10.418-10.006,17.418-10.104c-0.595-21.787-1.096-43.855-0.259-65.777c-3.098,0.497-6.239,0.701-9.352,0.621
		l-4.621-0.128l3.207-3.047c2.086-2.393,3.971-4.968,5.724-7.635c-3.934,2.897-8.081,5.494-12.497,7.675
		c-3.883,2.002-8.902,3.324-13.151,4.515l3.251-4.596c1.111-1.512,2.426-3.138,3.777-4.771c-3.2-7.752-9.768-11.854-11.909-13.023
		c-1.648,0.11-3.299,0.15-4.954,0.121c-1.786,0.435-3.485,1.22-5.074,2.378c-2.999,2.075-5.717,4.932-8.588,7.693
		c-5.706,5.68-12.124,11.007-19.292,14.846c-5.721,3.142-13.381,6.002-21.319,7.869c-8.745,13.359-20.731,24.961-35.358,31.749
		c-8.102,3.806-16.771,6.378-25.495,7.909c-3.971,0.621-7.982,1.311-11.997,1.629c-14.207,15.255-36.527,19.292-56.52,17.955
		c-1.936-0.139-3.872-0.296-5.794-0.519c-9.334,4.376-19.81,6.568-31.098,6.568c-10.345,0-21.367-1.841-32.812-5.527
		c-18.046-5.812-30.609-14.006-31.135-14.349L0,259.675l8.157,1.085c15.409,2.049,23.92-5.571,33.776-14.393
		c11.788-10.557,25.162-22.484,53.174-21.852c1.775-3.229,4.219-7.511,6.097-10.586c5.838-9.673,12.369-19.102,20.45-27.051
		c6.265-6.287,13.893-11.346,22.17-14.583c4.164-1.604,8.493-2.762,12.804-3.697c15.204-22.097,36.351-26.901,61.985-28.826
		c8.205-0.723,16.303-1.344,24.256-3.397c1.118-0.274,5.772-1.337,6.798-2.071c1.677-1.238,4.08-3.171,5.713-4.526
		c13.261-11.233,27.04-22.452,43.365-28.998c9.29-3.843,19.116-6.32,29.049-7.606l0.015,0.106c3.934-1.447,8.084-2.7,12.347-3.719
		c14.828-4.818,30.408-7.306,46.025-6.963c1.132,0.073,3.989,0.252,5.081,0.321c1.081,0.139,3.964,0.526,5.078,0.679
		c7.551,1.414,17.626,6.002,20.472-4.431c1.191-4.055,1.458-8.508,1.852-12.778c0.734-8.939,1.691-18.126,5.264-26.536
		c2.433-5.662,5.79-10.612,9.801-14.203l-12.643-2.499c-0.701,1.366-2.111,2.258-3.664,2.258c-0.267,0-0.537-0.026-0.804-0.077
		c-1.085-0.216-2.02-0.837-2.634-1.753c-0.614-0.921-0.837-2.02-0.621-3.105c0.285-1.439,1.29-2.55,2.564-3.047
		c-0.676-1.191-0.749-2.689-0.058-3.985c0.515-0.975,1.385-1.688,2.44-2.009c0.552-0.168,1.118-0.212,1.673-0.15
		c-0.223-0.541-0.343-1.125-0.321-1.724c0.04-1.107,0.504-2.13,1.311-2.882c1.213-1.132,2.933-1.381,4.376-0.793
		c0.004-0.479,0.077-0.961,0.252-1.425c0.384-1.037,1.151-1.859,2.155-2.316c1.403-0.643,2.981-0.427,4.15,0.42
		c0.548-1.326,1.768-2.331,3.288-2.528c2.265-0.296,4.336,1.308,4.628,3.569c0.142,1.096-0.15,2.181-0.826,3.054
		c-0.435,0.566-1.008,0.983-1.648,1.257l1.805,13.962c6.988-3.576,15.27-3.218,23.854,3.558c1.158,0.942,2.228,1.863,3.222,2.904
		c0.11,0.029,0.212,0.066,0.303,0.117l0.311,0.124c0.391,0.146,1.447,0.599,1.848,0.76c5.772,2.521,11.602,4.822,16.819,8.457
		L490,41.146z M465.108,31.926c0.051,0.026,0.106,0.044,0.172,0.058C465.203,31.959,465.134,31.933,465.108,31.926z M433.864,4.375
		c0.062,0.497,0.318,0.939,0.716,1.246c0.395,0.307,0.88,0.438,1.385,0.373c0.497-0.062,0.939-0.318,1.246-0.712
		c0.303-0.398,0.438-0.891,0.373-1.388c-0.121-0.942-0.932-1.633-1.859-1.633c-0.08,0-0.161,0.004-0.241,0.015
		c-0.497,0.066-0.939,0.318-1.246,0.716C433.933,3.385,433.798,3.878,433.864,4.375z M432.151,9.044l4.278,9.359l-1.315-10.185
		c-0.654-0.095-1.275-0.351-1.823-0.749C433.046,8.068,432.658,8.613,432.151,9.044z M427.767,6.68
		c0.431,0.939,1.545,1.355,2.488,0.928c0.939-0.431,1.355-1.545,0.924-2.488c-0.208-0.457-0.581-0.804-1.052-0.979
		c-0.212-0.077-0.435-0.117-0.654-0.117c-0.267,0-0.53,0.058-0.778,0.172c-0.457,0.208-0.804,0.581-0.979,1.048
		C427.54,5.716,427.559,6.223,427.767,6.68z M422.419,10.98c0.343,0.365,0.807,0.577,1.308,0.595c0.504,0.022,0.979-0.161,1.344-0.5
		c0.365-0.343,0.577-0.807,0.595-1.308c0.018-0.5-0.161-0.979-0.504-1.344c-0.369-0.395-0.869-0.595-1.37-0.595
		c-0.46,0-0.921,0.164-1.279,0.504C421.754,9.033,421.714,10.224,422.419,10.98z M417.783,19.436
		c-0.124-0.022-0.245-0.037-0.365-0.037c-0.877,0-1.662,0.621-1.841,1.512c-0.095,0.493,0.004,0.994,0.281,1.406
		c0.281,0.42,0.705,0.701,1.195,0.796c1.023,0.205,2.005-0.46,2.206-1.476C419.46,20.627,418.795,19.637,417.783,19.436z
		 M421.173,16.266c0.234-0.442,0.281-0.95,0.139-1.428c-0.146-0.479-0.471-0.873-0.913-1.107c-0.278-0.146-0.577-0.223-0.88-0.223
		c-0.183,0-0.369,0.029-0.548,0.084c-0.482,0.146-0.873,0.471-1.111,0.91c-0.234,0.446-0.285,0.953-0.139,1.432
		c0.146,0.479,0.471,0.873,0.913,1.107c0.442,0.237,0.95,0.285,1.428,0.139C420.541,17.033,420.936,16.708,421.173,16.266z
		 M431.095,22.826l-8.614-4.585c-0.416,0.435-0.921,0.767-1.494,0.986c0.307,0.53,0.486,1.111,0.533,1.71L431.095,22.826z
		 M433.097,21.336l-7.43-7.971c-0.577,0.296-1.209,0.471-1.87,0.471c-0.051,0-0.099-0.004-0.15-0.004
		c-0.113-0.004-0.227-0.033-0.34-0.044c0.055,0.128,0.121,0.252,0.164,0.391c0.208,0.683,0.215,1.388,0.069,2.068L433.097,21.336z
		 M434.426,19.451l-4.329-9.469c-0.208,0.029-0.413,0.051-0.617,0.051c-0.541,0-1.07-0.113-1.567-0.314
		c0,0.044,0.011,0.084,0.011,0.128c-0.026,0.712-0.248,1.384-0.606,1.98L434.426,19.451z M231.438,148.845
		c5.732,0.8,11.536,1.271,17.297,1.534c19.887,0.884,39.884-1.56,58.832-7.722c3.85-1.074,7.642-2.327,11.657-3.28
		c-4.281,3.182-9.027,5.589-13.98,7.481c12.113,0.588,24.406-1.834,35.588-6.429c8.585-3.427,15.883-8.559,24.158-12.961
		c-2.25,2.849-4.837,5.363-7.642,7.609c12.022-0.862,39.303-4.778,44.494-22.561c1.688-5.783,0.453-10.601-3.675-14.324
		c-11.467-10.334-44.004-10.773-69.517-1.216c-3.105,1.341-6.144,2.82-9.103,4.442c-3.894,2.122-7.496,4.698-11.734,6.166
		c2.586-3.785,6.411-6.418,10.378-8.588c0.398-0.223,0.807-0.435,1.209-0.654c-21.305,4.391-39.201,15.098-55.928,29.593
		c-3.335,2.769-8.139,6.864-11.587,9.41C245.458,141.941,238.605,145.671,231.438,148.845z M283.366,185.259
		c-0.844-0.142-1.688-0.3-2.532-0.486c-3.273-0.734-7.854-2.502-11.109-3.467l5.754-1.746c5.885-1.797,11.781-3.755,17.56-5.881
		c2.495-0.979,5.081-1.929,7.613-2.992c-12.216,1.29-26.576,1.531-36.107-3.149c-0.004,0-4.409-1.673-4.409-1.673
		c3.573-1.41,7.628-2.868,11.449-3.912l-18.404-6.977c-11.85-0.252-23.664-1.874-35.117-5.03c4.186-1.374,8.354-2.974,12.428-4.796
		c2.356-1.056,4.683-2.181,6.97-3.383c-6.082,1.26-12.311,1.9-18.419,2.543c-24.874,2.155-45.382,6.155-60.399,27.953
		c-2.444,3.617-4.701,7.306-7.843,10.74c-0.197,0.219-0.398,0.431-0.603,0.647c0.314-2.754,1.129-5.388,2.261-7.891
		c0.365-0.818,0.767-1.622,1.198-2.411c-2.356,0.679-4.72,1.439-6.897,2.316c-18.978,6.97-31.734,23.748-42.437,40.22
		c-1.965,2.977-4.541,7.204-6.382,10.298c-2.009,3.357-4.044,6.703-7.039,9.545c-0.099,0.099-0.201,0.194-0.303,0.289
		c0.011-0.066,0.026-0.135,0.04-0.201c0.384-2.002,0.983-3.912,1.735-5.757c0.248-0.614,0.511-1.216,0.793-1.812
		c-25.305-0.058-37.721,11.072-48.724,20.928c-8.307,7.438-16.234,14.535-28.304,15.562c0,0-0.004,0-0.007,0
		c-0.237,0.022-0.475,0.04-0.716,0.055c0.029,0.015,0.058,0.029,0.088,0.047c0.091,0.048,0.183,0.099,0.278,0.146
		c14.243,7.569,48.322,22.452,79.198,11.321c-2.415-0.595-4.785-1.406-7.069-2.546c8.369-0.818,16.57,0.829,24.903,0.552
		c11.343-0.216,22.894-1.991,33.279-6.594c4.402-1.969,8.53-4.493,12.252-7.511c-2.342-0.091-4.676-0.384-6.996-0.975
		c7.909-2.995,16.004-3.05,24.074-4.899c23.8-4.796,41.436-15.836,56.03-34.408c-7.178,1.224-14.258,1.509-20.033,0.329
		c7.591-2.462,15.518-2.922,23.2-4.891c11.31-2.692,22.145-7.449,31.244-14.725C272.107,195.882,276.856,189.949,283.366,185.259z
		 M344.605,202.95c-0.537,0.04-1.074,0.062-1.615,0.073c-2.36,1.045-4.811,1.863-7.317,2.477
		c-0.241,6.572-0.311,13.176-0.318,19.781c-0.026,15.905,0.27,31.833,0.672,47.738c0.011,0.248-0.026,0.486-0.088,0.716
		c-0.416,3.131-4.541,4.354-7.299,4.172c0.665-0.621,1.45-1.26,2.115-1.954c-3.5,0.322-6.937,1.644-9.571,3.909
		c0.745-0.069,1.49-0.106,2.225-0.095c7.218,0.121,14.24,3.244,21.235,2.842c2.261-0.069,4.577-0.555,6.751-1.187
		c5.944-1.421,11.916-0.756,17.794,0.46c-1.582-1.268-3.492-2.097-5.549-2.557c-3.631-0.789-7.222-0.723-11.072-1.089
		c3.251-2.473,7.591-3.313,11.606-2.546c-0.234-0.161-0.471-0.311-0.72-0.449c-1.958-1.092-4.376-1.432-6.831-1.246
		c-2.711,0.168-5.253,1.125-8.022,1.282c-3.167,0.307-7.686-0.53-8.848-4.128c-1.045-10.229-1.319-21.162-0.95-31.409
		c0.354-7.328,1.016-14.784,2.247-22.024C341.975,212.697,342.856,207.754,344.605,202.95z M461.331,42.611
		c-1.027-1.381-2.305-2.59-3.536-3.806c0,0,0.018-0.018,0.047-0.047h-0.044l2.703-3.193c1.238-1.392,2.689-3.047,3.193-4.848
		c0.022-0.11,0.026-0.175,0.026-0.263c-0.007-0.073,0.004-0.15,0.007-0.227v-0.011c-5.209-5.158-12.906-8.775-19.847-6.689
		c-2.079,0.647-3.985,1.658-5.732,2.93l-0.015,0.062l-0.055-0.011c-4.902,3.598-8.501,9.257-10.857,14.733
		c-4.329,10.108-4.446,21.308-5.659,32.143c-1.297,12.424-6.429,18.346-19.46,15.193c-2.093-0.526-4.278-1.045-6.382-1.505
		c-1.074-0.153-3.777-0.541-4.811-0.687c-6.437-0.541-12.913-0.515-19.365,0.004c0.603,0.026,1.198,0.058,1.786,0.099
		c0.004-0.004,0.007-0.004,0.011,0c12.154,0.763,21.739,3.858,27.339,8.91c5.22,4.705,6.868,10.988,4.771,18.174
		c-7.28,24.943-49.827,25.509-53.623,25.509h-0.172c-5.648,3.511-11.876,6.188-18.112,8.318
		c-10.535,3.401-21.849,4.658-32.841,3.149c-1.494-0.223-2.871-0.479-4.343-0.847c-3.704,1.056-7.467,1.892-11.24,2.663
		c-7.145,1.319-14.386,2.155-21.652,2.488l14.616,5.542c3.467-0.778,6.952-1.381,10.565-1.041c-3.375,2.546-7.2,3.785-11.091,5.133
		c-1.786,0.588-3.664,1.184-5.56,1.724c13.45,3.346,32.987,0.427,45.188-1.746l-5.487,4.475c-5.26,3.927-11.372,5.907-17.359,8.27
		c-3.744,1.377-7.5,2.667-11.281,3.898c3.189,0.53,6.429,0.745,9.67,0.665c0.457-0.033,0.91-0.051,1.363-0.047
		c1.063-0.051,2.13-0.124,3.189-0.237c15.894-1.721,30.843-8.851,44.264-17.363c4.406-2.912,9.155-6.049,13.951-8.439
		c-4.281,6.148-10.499,10.276-16.651,14.302c-11.01,7.032-23.624,13.085-36.709,15.211c2.853,2.192,6.334,5.611,8.753,10.484
		c0.869-1.052,1.717-2.079,2.48-3.054c1.023-1.235,1.962-2.495,2.999-3.931c0.296,1.761-0.033,3.551-0.526,5.213
		c-0.753,2.364-1.936,4.537-3.346,6.546c0.066-0.033,0.135-0.062,0.201-0.091c4.844-2.36,9.399-5.366,13.684-8.65
		c4.172-3.087,10.718-9.374,14.598-12.91c-4.303,7.803-8.691,16.621-14.207,23.902c14.261-1.732,24.3-6.912,34.01-18.788
		c-0.953,5.812-4.767,10.484-9.377,14.061c0.614-0.237,1.227-0.479,1.841-0.72c21.323-8.084,39.869-22.55,54.164-40.216
		c5.991-7.142,10.123-15.116,16.38-22.199c-0.771,5.724-3.288,10.839-6.356,15.653C463.227,127,450.953,81.914,447.87,72.723
		c-4.059-12.11-2.806-19.482-1.527-23.051c-2.042-0.216-4.029-0.687-5.889-1.469C447.658,46.944,454.697,45.592,461.331,42.611z
		 M474.014,39.214c-3.741-0.259-7.489-0.391-11.215-0.438c0.76,0.913,1.461,1.87,2.031,2.904c2.963-0.946,5.958-1.779,9.001-2.429
		C473.89,39.24,473.952,39.229,474.014,39.214z M476.707,36.357c-3.178-1.359-6.44-2.59-9.688-3.752
		c-0.354,0.939-0.837,1.801-1.399,2.612C469.335,35.488,473.024,35.879,476.707,36.357z M332.371,199.52
		c6.301,0.055,12.457-3.006,17.224-6.966c1.618-1.414,3.017-3.039,3.964-4.994c-2.082,0.749-3.828,1.713-5.604,2.645
		C343.049,192.978,336.839,196.064,332.371,199.52z M197.582,218.593c4.051,6.455,2.513,15.062-3.715,19.664
		c-2.627,1.94-5.695,2.875-8.734,2.875c-4.519,0-8.983-2.064-11.865-5.969c-2.338-3.167-3.306-7.05-2.721-10.941
		c0.584-3.894,2.648-7.324,5.816-9.662c6.228-4.599,14.908-3.54,19.887,2.228c0.183,0.201,0.351,0.416,0.522,0.636
		c0.062,0.077,0.132,0.15,0.19,0.23c0.066,0.088,0.113,0.179,0.175,0.267C197.293,218.143,197.447,218.363,197.582,218.593z
		 M194.86,232.894c-1.173,0.899-2.568,1.341-3.949,1.341c-1.797,0-3.569-0.742-4.775-2.181c-1.129-1.348-1.637-3.047-1.425-4.786
		c0.044-0.347-0.194-0.668-0.544-0.731c-1.567-0.281-2.959-1.143-3.912-2.422c-1.001-1.344-1.403-3.014-1.121-4.698
		c0.278-1.702,1.249-3.244,2.659-4.241c-1.279,0.376-2.513,0.968-3.646,1.805c-2.517,1.859-4.161,4.588-4.625,7.686
		c-0.464,3.094,0.303,6.188,2.163,8.705c1.863,2.517,4.592,4.161,7.686,4.625c3.098,0.46,6.188-0.303,8.705-2.163
		C193.205,235.002,194.126,233.998,194.86,232.894z M194.992,220.123c-0.091-0.142-0.186-0.285-0.285-0.427
		c-0.055-0.084-0.106-0.168-0.168-0.252c-0.106-0.146-0.23-0.278-0.343-0.413c-0.095-0.117-0.19-0.23-0.285-0.34
		c-1.549-1.644-3.66-2.51-5.801-2.51c-1.567,0-3.149,0.464-4.544,1.425c-0.774,0.533-1.311,1.374-1.461,2.301
		c-0.146,0.869,0.058,1.724,0.566,2.411c0.497,0.665,1.216,1.11,2.031,1.257c1.918,0.343,3.237,2.126,2.999,4.058
		c-0.11,0.902,0.153,1.786,0.742,2.484c1.118,1.333,3.189,1.494,4.625,0.362C196.259,227.959,197.03,223.546,194.992,220.123z
		 M82.281,256.277c0.687,3.416,0,6.897-1.929,9.797c-1.932,2.9-4.877,4.88-8.296,5.564c-0.862,0.175-1.724,0.259-2.575,0.259
		c-6.086,0-11.544-4.292-12.789-10.481c-1.417-7.058,3.171-13.947,10.225-15.365c3.416-0.687,6.897-0.004,9.797,1.929
		C79.618,249.914,81.594,252.858,82.281,256.277z M73.817,267.894c-0.08,0.004-0.161,0.015-0.237,0.015
		c-2.553,0-4.899-1.68-5.56-4.172c-0.409-1.534-0.172-3.12,0.669-4.46c0.11-0.172,0.062-0.402-0.106-0.522
		c-1.176-0.829-1.984-2.068-2.276-3.481c-0.303-1.487,0.011-3.006,0.884-4.278c0.683-0.997,1.673-1.753,2.798-2.174
		c-0.161-0.007-0.321-0.018-0.482-0.018c-0.665,0-1.333,0.066-1.998,0.201c-5.425,1.089-8.954,6.393-7.865,11.818
		c1.092,5.428,6.396,8.961,11.821,7.865C72.29,268.522,73.075,268.248,73.817,267.894z M79.406,257.395
		c-0.026-0.175-0.044-0.351-0.077-0.526c-0.044-0.216-0.106-0.424-0.161-0.632c-0.866-2.89-3.503-4.829-6.477-4.829
		c-0.376,0-0.756,0.029-1.14,0.095c-0.76,0.128-1.447,0.563-1.881,1.198c-0.405,0.592-0.552,1.29-0.413,1.969
		c0.135,0.661,0.511,1.238,1.063,1.626c1.469,1.041,1.874,3.05,0.921,4.577c-0.395,0.628-0.504,1.37-0.314,2.09
		c0.365,1.366,1.841,2.203,3.295,1.859C77.638,264.022,79.83,260.818,79.406,257.395z M190.926,189.062
		c-5.691,0-11.127-3.321-13.535-8.866c-1.564-3.613-1.633-7.613-0.186-11.273c1.447-3.66,4.23-6.539,7.839-8.106
		c7.102-3.079,15.317-0.095,18.875,6.641c0.179,0.325,0.347,0.661,0.5,1.012c0.153,0.351,0.285,0.705,0.398,1.059
		c2.488,7.2-0.95,15.237-8.051,18.316C194.864,188.671,192.88,189.062,190.926,189.062z M189.436,167.319
		c-0.336,0.815-0.332,1.695,0.011,2.477c0.332,0.76,0.935,1.355,1.695,1.684c1.794,0.767,2.674,2.798,2.009,4.628
		c-0.307,0.855-0.248,1.775,0.164,2.59c0.785,1.545,2.773,2.17,4.424,1.392c3.927-1.856,5.648-6.433,3.92-10.422
		c-1.311-3.021-4.227-4.829-7.317-4.829c-0.986,0-1.987,0.183-2.963,0.57C190.502,165.755,189.794,166.449,189.436,167.319z
		 M195.569,185.083c1.275-0.552,2.407-1.319,3.39-2.247c-0.873,0.398-1.79,0.592-2.696,0.592c-2.32,0-4.548-1.238-5.629-3.368
		c-0.8-1.564-0.91-3.332-0.311-4.979c0.117-0.329-0.04-0.698-0.365-0.837c-1.469-0.628-2.627-1.779-3.269-3.24
		c-0.672-1.538-0.687-3.255-0.037-4.833c0.658-1.589,1.94-2.868,3.532-3.525c-1.326,0.08-2.656,0.376-3.942,0.935
		c-2.871,1.246-5.089,3.532-6.236,6.444c-1.151,2.915-1.1,6.097,0.146,8.972C182.725,184.923,189.64,187.655,195.569,185.083z
		 M87.578,255.214c1.965,9.779-4.395,19.336-14.174,21.301c-1.637,0.329-3.328,0.479-5.049,0.479
		c-14.243,0-30.353-10.079-31.109-10.557l-1.341-0.847l0.913-1.293c0.584-0.826,14.44-20.242,29.458-23.259
		c4.731-0.95,9.56-0.004,13.586,2.674C83.888,246.389,86.628,250.476,87.578,255.214z M84.626,255.806
		c-0.793-3.949-3.076-7.354-6.433-9.586c-3.354-2.232-7.375-3.028-11.324-2.232c-11.701,2.353-23.248,16.355-26.612,20.738
		c4.771,2.747,20.727,11.211,32.556,8.837C80.966,271.927,86.266,263.96,84.626,255.806z M260.184,148.538
		c4.559-0.069,9.118-0.321,13.659-0.804c4.541-0.475,9.052-1.268,13.527-2.195c4.471-0.924,8.928-2.21,12.935-4.606
		c-4.665,0.205-9.027,1.008-13.461,1.724c-4.438,0.639-8.895,1.125-13.359,1.553c-4.471,0.413-8.943,0.793-13.432,1.096
		c-4.574,0.303-9.034,0.398-13.509,1.768C251.048,148.67,255.636,148.601,260.184,148.538z M146.699,223.031
		c-4.296,2.024-9.396,2.732-14.433,2.732c-11.379,0-22.426-3.62-23.091-3.839l-1.501-0.501l0.577-1.476
		c0.369-0.942,9.158-23.116,23.01-29.648c4.373-2.06,9.282-2.298,13.83-0.665c4.552,1.633,8.19,4.943,10.254,9.312
		C159.601,207.973,155.722,218.775,146.699,223.031z M152.62,200.232c-1.717-3.646-4.753-6.404-8.544-7.763
		c-3.788-1.359-7.887-1.165-11.529,0.552c-10.809,5.1-18.645,21.462-20.859,26.517c5.29,1.523,22.81,5.914,33.725,0.771
		C152.934,216.759,156.167,207.754,152.62,200.232z M150.838,202.176c2.404,6.305-0.416,13.52-6.619,16.442
		c-1.794,0.848-3.682,1.246-5.545,1.246c-4.899,0-9.6-2.765-11.825-7.481c-1.487-3.153-1.655-6.696-0.479-9.976
		c1.18-3.28,3.565-5.907,6.718-7.39c6.199-2.93,13.56-0.515,16.895,5.352c0.117,0.194,0.219,0.402,0.325,0.606
		c0.048,0.091,0.102,0.179,0.146,0.278c0.047,0.095,0.077,0.194,0.121,0.289C150.666,201.752,150.761,201.964,150.838,202.176z
		 M145.026,214.56c-0.537,0.157-1.085,0.241-1.629,0.241c-2.027,0-3.985-1.048-4.994-2.886c-0.763-1.388-0.913-2.985-0.42-4.486
		c0.062-0.201-0.037-0.405-0.23-0.482c-1.341-0.526-2.422-1.534-3.043-2.835c-0.654-1.37-0.712-2.922-0.172-4.365
		c0.424-1.129,1.198-2.097,2.188-2.776c-0.804,0.161-1.596,0.409-2.356,0.767c-2.426,1.143-4.259,3.163-5.165,5.688
		c-0.906,2.524-0.774,5.249,0.369,7.675c2.36,5.005,8.351,7.156,13.359,4.796C143.703,215.535,144.397,215.078,145.026,214.56z
		 M147.995,203.173c-0.029-0.073-0.058-0.146-0.091-0.219c-0.055-0.139-0.106-0.281-0.172-0.42c-1.162-2.458-3.58-3.905-6.126-3.905
		c-0.906,0-1.823,0.183-2.711,0.566c-0.709,0.303-1.268,0.891-1.538,1.611c-0.252,0.672-0.226,1.385,0.069,2.013
		c0.292,0.606,0.796,1.078,1.425,1.322c1.677,0.658,2.55,2.513,1.991,4.223c-0.23,0.705-0.161,1.45,0.197,2.104
		c0.683,1.238,2.316,1.695,3.642,1.012h0.004C147.762,209.909,149.132,206.359,147.995,203.173z M137.27,244.712
		c1.702,3.047,2.111,6.568,1.162,9.922c-0.946,3.353-3.149,6.137-6.192,7.836c-1.973,1.103-4.143,1.666-6.342,1.666
		c-1.195,0-2.396-0.168-3.576-0.5c-3.353-0.95-6.137-3.149-7.836-6.192c-1.702-3.043-2.115-6.568-1.165-9.922
		c0.95-3.354,3.149-6.137,6.192-7.836c5.987-3.342,13.491-1.447,17.224,4.175C136.927,244.135,137.106,244.416,137.27,244.712z
		 M132.77,258.36c-0.654,0.241-1.337,0.373-2.016,0.373c-1.881,0-3.715-0.902-4.775-2.55c-0.858-1.333-1.118-2.915-0.731-4.449
		c0.051-0.201-0.062-0.402-0.259-0.464c-1.374-0.435-2.521-1.363-3.229-2.619c-0.745-1.322-0.913-2.864-0.471-4.343
		c0.347-1.158,1.052-2.181,1.995-2.922c-0.785,0.212-1.556,0.515-2.301,0.928c-4.833,2.7-6.568,8.829-3.869,13.662
		c2.7,4.829,8.826,6.568,13.659,3.869C131.517,259.426,132.178,258.922,132.77,258.36z M135.517,249.512
		c0-0.91-0.186-1.83-0.566-2.707c-0.099-0.208-0.194-0.416-0.307-0.625c-1.249-2.232-3.54-3.489-5.918-3.489
		c-1.056,0-2.122,0.245-3.127,0.763c-0.687,0.354-1.205,0.979-1.428,1.713c-0.205,0.69-0.128,1.399,0.212,2.002
		c0.332,0.588,0.866,1.023,1.509,1.224c1.721,0.541,2.722,2.334,2.276,4.077c-0.179,0.716-0.058,1.458,0.343,2.082
		c0.763,1.191,2.426,1.531,3.704,0.763C134.337,254.042,135.517,251.813,135.517,249.512z M156.69,190.366l-1.487-0.548l0.621-1.458
		c0.453-1.059,11.284-26.057,27.299-33.005c5.027-2.181,10.597-2.272,15.693-0.263c5.096,2.013,9.103,5.889,11.284,10.915
		c4.501,10.375-0.278,22.477-10.652,26.978c-4.431,1.921-9.56,2.627-14.689,2.627C171.134,195.611,157.471,190.651,156.69,190.366z
		 M159.269,188.064c5.721,1.863,26.057,7.763,38.982,2.159c8.851-3.839,12.928-14.166,9.089-23.018
		c-1.859-4.289-5.279-7.595-9.626-9.312c-4.347-1.717-9.103-1.637-13.392,0.223C171.539,163.662,161.848,182.607,159.269,188.064z"
		/>
</g>
</svg>
