<?xml version="1.0" encoding="utf-8"?>
<!-- Generator: Adobe Illustrator 28.3.0, SVG Export Plug-In . SVG Version: 6.00 Build 0)  -->
<svg version="1.1" id="petrel_00000089546250465357770390000004104632410388420242_"
	 xmlns="http://www.w3.org/2000/svg" xmlns:xlink="http://www.w3.org/1999/xlink" x="0px" y="0px" viewBox="0 0 490 449.9"
	 style="enable-background:new 0 0 490 449.9;" xml:space="preserve">
<style type="text/css">
	.st0{fill:#686868;}
	.st1{fill:#4C4C4C;}
	.st2{fill:#FFCEA6;}
	.st3{fill:#FFFFFF;}
	.st4{fill:#231F20;}
</style>
<g id="petrel">
	<g>
		<path class="st0" d="M346.8,425l-1.1,0c-3.5-0.2-7-0.3-10.6-0.6c7.4-1.6,15-1.6,24-1.1c4.5,0.4,8.4,0.8,12,1.4l3.1,0.5l-2.4-2
			c-8-6.7-24.5-8.6-49.2-5.5c-12.6,1.5-20.8-4.8-25.5-10.5l-1.6-2l0.1,2.6c0.1,1.4,0.1,2.9,0.2,4.3c-1.1-3.2-1.9-6.7-2.4-10.4
			c-1.6-13.4,1.3-29.9,7.7-43c0.5-1,1.1-2.1,1.6-3l0.9-1.6l-1.8,0.3c-1.5,0.3-3.1,0.3-4.8,0.3l-0.2,0c-0.8,0-1.6,0-2.4,0
			c-2.7,0.1-5.7,0.3-9.1,0.7l-0.7,0.1l-0.2,1.3c-1.9,16.3-3.9,33.2-4.5,49.9c-0.1,3.2-0.2,6.8,0.9,10.2
			c6.9,21.7,41.2,25.6,52.5,26.9l3.6,0.4c10.9,1.1,22.1,2.3,33.2,2.8l2.1,0.1l-1.4-1.6c-1.4-1.6-3.1-4-2.8-6.2
			c0.1-1.3,0.9-2.4,2.1-3.3c4-2.5,8.7-2.8,13.2-3l6-0.4l-4.3-1.4C374.5,427.5,362.7,425.7,346.8,425z"/>
		<path class="st0" d="M297,351.5c1.5,0,3,0,4.4-0.2c7.1-1.4,12.5-6.7,16.5-11.2c5.5-6.5,10.4-14.3,14.7-24l0.4-1
			c1.5-3.2,3-6.5,4.8-9.8c-0.4,3.7-1.4,7.5-3,11.7c-0.1,0.3-0.3,0.7-0.4,1l-1,2.4l1.8-1.7c9.1-8.8,26.4-26.8,39.9-47.6
			c51.6-79.7,27.6-111.5,8.3-137c-8.1-10.7-15.1-19.9-15.5-31.1c-0.8-22.8,28.4-38,37.4-42.1l0.5-0.2l-0.3-0.5
			c-1.3-2.2-4.1-6.4-8.7-10.6l-0.1-0.1l-3.1-0.2c0.2-0.1,0.4-0.3,0.6-0.4c2-1.4,4.3-3,5.5-4.9c2.3-3.4,3.7-7.9,4-13.1l0-0.2
			l-0.1-0.2c-9.5-10.5-28.5-27.9-48-27.4c-13.4,0.2-25.2,2.4-34.8,6.5l-1.2,0.5l1.2,0.4c1.5,0.5,2.8,1.2,4.1,1.9l3.2,2
			c-4.8,0.4-10.1,1-14.8,2.5c-1.9,0.6-3.7,1.2-5.3,2l-1.7,0.8l1.8,0.2c1.9,0.2,3.7,0.4,5.5,0.5c2,0.1,10.4,0.1,16.2,0
			c-0.2,0.1-0.5,0.1-0.7,0.2c-6.5,1.4-15.4,3.3-19.6,4.9c-7.9,2.8-13.6,6-17.9,9.9l-1,0.9l1.4-0.1c3.4-0.2,6.3-0.6,8.7-1.1l6.8-1.7
			c0,0-0.1,0.1-0.1,0.1c-3.4,2.3-7.5,5.2-9.7,7.3c-4,3.5-7.5,7.5-10.5,11.9c-2.9,4.2-5.1,8.7-6.7,13.4l-0.5,1.4l1.2-0.9
			c0.8-0.6,1.7-1.1,2.5-1.6c1.3-0.7,3.3-1.5,5.1-2.2c0.4-0.1,0.8-0.3,1.1-0.4c-7.4,12.9-10.4,28.6-8.1,43.4l0.2,1.2l0.7-0.9
			c0.8-1.1,1.5-1.9,2.3-2.6l1.5-1.3c1.4,3.3,2.2,6.2,2.3,9.1c0.5,7-2.4,14.4-7.7,19.9c-5.4,5.7-11.9,9.9-18.2,14
			c-1.4,0.9-2.9,1.8-4.3,2.8c-30.4,18.9-57,44.4-79.1,75.9c-9,12.6-18.1,27.1-29.2,47c-9.7,16.7-20.2,32.2-31.4,46
			c-10.9,13.6-23.8,27.2-38.3,40.4l-5.1,4.7c-1.7,1.5-3.4,3.2-4.8,4.8c-0.3,0.4-0.7,0.8-1,1.2c-0.2,0.3-0.4,0.7-0.5,0.9l-0.2,0.4
			l0.4,0.2c1.8,0.9,4.3,1,6.7,0.9l0.2,0l0.1,0l0,0l0.2,0c3.7-0.3,7.8-1.1,12.8-2.8c16.3-5.5,32.4-14.4,47.9-26.3l2.6-1.9
			c2.2-1.6,4.4-3.3,6.7-5.1c-2,3.7-5.1,6.7-7.6,9c-6,5-12.7,9.5-20.3,13.9l-1.4,0.8l1.6,0.1c13.3,0.9,31.5-10.6,41.3-16.9
			c9.9-6.5,20.2-14.1,31.4-23.2c2.9-2.3,6-4.7,9.6-6.5c-2.2,3.6-5.1,6.4-7.8,8.7c-3.3,2.8-6.7,5.7-10.1,8.5
			c-3.5,2.8-8.7,6.9-14.7,11.2l-0.8,0.6l1,0.3c3.2,0.9,6.6,1.4,10.2,1.4c24-0.4,49.5-16.4,71.3-32.1c3.4-2.3,6.6-5,9.8-7.5
			c4.6-3.7,9.2-7.5,14.4-10.5c-2.8,4.2-6.5,7.5-9.7,10.3c-4.2,3.6-8.5,7-12.6,10.2c-9.4,7.1-23.7,17.4-39.1,24.5l-1.7,0.8l1.9,0.2
			c0.6,0.1,1.2,0.1,1.9,0.1c10.4,0.1,20.5-3.5,29-7c40.8-18.1,82.8-53.7,107-90.7c13.4-21.1,17.9-40.2,13.4-56.7
			c-4.7-17.2-21.7-26.7-36.6-28.5c-8.6-1.1-17.3-0.5-26.4,1.7c16.8-8.9,40.8-5.7,55.2,7.9c20.4,19.4,9.9,49.9,6.2,58.8
			c-17.6,40.6-59,73.8-82.1,89.9c-20.2,13.4-43.8,27.2-65.9,27.3c-2.8-0.1-5.4-0.5-7.7-1.2l-0.2,0l-0.2,0.1
			c-13.7,5.4-25.9,7-36.3,4.7c-1.8-0.4-3.6-1-5.4-1.8l-0.3-0.1l-0.2,0.2c-18.9,13-34.3,19.3-45.6,18.6c-1.9-0.2-3.6-0.6-5.2-1.2
			l-0.2-0.1l-0.2,0.1c-3.4,1.8-6.8,3.5-10.2,5.1c-8,3.6-16.7,7.1-26,8.1l-0.2,0l-0.1,0.1c-26,24.2-47,41.5-68.2,56.2l-3.4,2.3
			c-0.6,0.4-1.1,0.7-1.6,1.2l-1,0.8l1.7,0.1c8.5-0.2,16.9-2.6,25-4.8l2.6-0.7c26.5-8,48.4-17.6,67-29.6c6.6-4.4,13.3-9.2,19.9-14.4
			c3.2-2.4,6.4-4.9,9.4-7.4c4.7-3.8,9.5-7.6,14.6-11.2c-5.3,8-13,14-20.5,19.9l-1.5,1.2c-6.4,4.8-13.8,9.7-20.4,14
			c-11.1,7.1-23.2,13.4-36.9,19.1l-2.5,1l2.7-0.1c27.4-0.6,54.8-7.5,79.2-20.2c6.8-3.6,13.5-7.9,19.4-11.7
			c13.7-8.8,26-16.7,38.7-24.2c0.7-0.4,1.4-0.8,2.2-1.3c5.3-3.1,10.7-6.3,16.7-8c-4,3.7-8.7,6.5-13.3,9.3c-1.3,0.8-2.7,1.6-4,2.4
			c-8.4,5-17.3,10.9-26,16.6c-2.7,1.8-5.4,3.6-8.1,5.3l-1.7,1.1l2-0.2c32.3-3.1,63.9-16.7,89.1-38.2c9-6.4,16.8-9.1,23.7-8.3
			c-4.5,1.3-8.9,3.1-13.5,5.4c-3.7,2-6.3,3.7-8.6,5.6c-0.3,0.2-0.6,0.5-0.8,0.7l-2,1.7l2-0.5c13.7-3.2,25-4.9,35.3-5.4
			C295.3,351.4,296.2,351.4,297,351.5z M375.2,36l0,0.1c-0.6,1.7-1.7,3.2-3.2,4.3c-2,1.4-4.4,2-6.8,1.7h0c-0.7-0.1-1.4-0.3-2.1-0.6
			c-1.5-0.6-2.9-1.7-3.9-3c-0.9-1.2-1.4-2.5-1.6-4l0-0.1l-0.1-0.1c-0.9-1.3-2.2-2.2-3.1-2.7c1.3-0.4,2.6-1.1,3.8-2.2l0.1-0.2
			c0.7-1.4,1.7-2.7,2.9-3.6c2-1.4,4.4-2,6.8-1.7c2.4,0.4,4.5,1.7,6,3.6c0.9,1.2,1.5,2.6,1.7,4.1l0,0.2l2.5,2.6c-1,0.2-2,0.6-2.8,1.3
			L375.2,36z M275.9,307.7c2.2-1.8,4.5-3.5,6.7-5.2c4.5-3.5,9.2-7,13.5-10.8c7.5-6.3,15.1-13.4,22.4-21.1
			c4.8-4.9,10.7-11.5,15.4-17.2c4.7-5.5,9-11.4,13.2-17.1c2.6-3.5,5.3-7.2,8-10.8c-1.8,4-3.9,7.6-5.7,10.5
			c-10.1,15.3-21.8,29.3-34.6,41.7C300.4,291.5,288.2,300.9,275.9,307.7z M212.9,328.5c-3.8,2-8.7,4.3-14,5.9
			c4.5-2.9,9.3-5.5,13.9-8c5-2.7,10.1-5.5,14.9-8.7c5.6-3.4,10.7-6.6,15.5-9.6c0.9-0.6,1.9-1.2,2.9-1.9c3.5-2.3,7.4-4.9,10.9-6.5
			c-3.1,3.5-6.9,6.2-10.6,8.8c-0.7,0.5-1.4,0.9-2,1.4C234.7,316.6,224.1,322.9,212.9,328.5z M251.7,161.5
			c-23.1,16.9-41.7,33.8-56.9,51.8c-1.3,1.4-3.9,4.3-5.1,5.8c-1,1.2-2,2.2-2.9,3.2c5.8-10.4,13.9-19.4,21.9-27.7
			c11.9-12.3,25.9-24.1,41.6-35l1.4-0.9c7.1-4.8,14.4-9.7,22.5-13c-4.1,3.1-8.5,6.1-12.8,9C258.3,156.9,254.9,159.2,251.7,161.5
			L251.7,161.5z M149,281.6c-0.9,2.6-2.1,5.4-3.8,8.6c-9.4,16.8-21.1,32.3-34.6,46.1c-5,5-11,10.6-17.8,15.1
			c2.1-2.2,4.3-4.3,6.4-6.4c2.6-2.6,5.4-5.3,7.9-7.9c13.1-13.7,25.4-29.7,36.7-47.8C145.2,287,147,284.3,149,281.6z M121.6,405.2
			c2.3-1.1,4.6-2.1,6.9-3c2.2-0.9,4.4-1.8,6.6-2.8c7.1-3.3,13.8-7.6,20.3-11.8c5.4-3.5,11-7.1,16.8-10.1c2.1-1,4.1-1.8,6-2.5
			c-0.5,0.4-1.1,0.9-1.7,1.3l0,0c-2.4,1.9-5,3.6-7.6,5.2c-1,0.7-2.1,1.3-3.1,2c-1.3,0.9-2.5,1.7-3.8,2.6c-8.2,5.5-16.7,11.3-26,15
			C130.5,403.4,125.9,404.7,121.6,405.2z M118.3,379.1c-0.7,0.9-1.4,1.8-2.1,2.5c-2.8,3.1-6.4,5.7-10,8.3c-0.7,0.5-1.4,1-2,1.5
			c-10.7,7.7-22.8,14.5-36,20.4c-1.3,0.5-2.7,1.1-4,1.7c-4.4,1.9-9,3.9-13.8,4.5c3.3-2.2,7-3.9,10.6-5.4c2-0.9,4.2-1.8,6.2-2.9
			c13.6-6.6,25.2-13.2,35.7-20.1c2.1-1.4,4.3-3,6.4-4.5c2-1.5,4.1-3,6.1-4.3C116.3,380.2,117.3,379.6,118.3,379.1z"/>
	</g>
	<g>
		<path class="st1" d="M403.7,30.4C380.9,4.7,365.2,1.8,354,2.1c-11.1,0.2-21.6,2.6-33.2,7.5l-1.2,0.5l1.2,0.4
			c1.5,0.5,2.8,1.2,4.1,1.9l3.2,2c-4.7,0.4-10,1-14.8,2.5c-1.9,0.6-3.6,1.2-5.3,2l-1.7,0.8l1.8,0.2c2,0.2,3.8,0.4,5.5,0.5
			c2,0.1,10.4,0.1,16.2,0c-0.2,0.1-0.5,0.1-0.8,0.2c-6.5,1.4-15.3,3.3-19.6,4.9c-7.9,2.8-13.6,6-17.9,9.9l-1,0.9l1.4-0.1
			c3.4-0.2,6.3-0.6,8.7-1.1l6.8-1.7c-0.1,0-0.1,0.1-0.2,0.1c-3.3,2.3-7.5,5.2-9.7,7.2c-4,3.5-7.5,7.5-10.5,11.9
			c-2.9,4.2-5.1,8.7-6.6,13.4l-0.5,1.4l1.2-0.9c0.8-0.6,1.7-1.1,2.5-1.6c1.3-0.7,3.3-1.5,5.1-2.2c0.4-0.1,0.8-0.3,1.2-0.4
			c-7.4,12.9-10.4,28.6-8.1,43.4l0.2,1.2l0.7-0.9c0.8-1.1,1.5-1.9,2.3-2.6l1.5-1.3c1.4,3.3,2.2,6.2,2.3,9.1c0.5,7-2.4,14.4-7.7,19.9
			c-5.4,5.7-11.9,9.9-18.2,14c-1.4,0.9-2.8,1.8-4.2,2.8c-30.4,18.9-57,44.4-79.1,75.9c-9,12.6-18.1,27.1-29.2,47
			c-9.7,16.7-20.2,32.2-31.4,46c-10.9,13.6-23.8,27.2-38.3,40.4l-5.1,4.7c-1.6,1.5-3.3,3.1-4.8,4.8c-0.4,0.4-0.7,0.8-1,1.2
			c-0.2,0.3-0.4,0.7-0.5,0.9l-0.2,0.4l0.4,0.2c1.8,0.9,4.3,1,6.7,0.9l0.2,0l0.1,0l0,0l0.2,0c3.7-0.3,7.8-1.1,12.8-2.7
			c16.3-5.5,32.4-14.4,47.9-26.3l2.7-2.1c2.1-1.6,4.3-3.3,6.5-5c-2,3.7-5.1,6.7-7.6,9c-6,5-12.6,9.5-20.3,14l-1.4,0.8l1.6,0.1
			c13.3,0.9,31.5-10.6,41.3-16.9c9.9-6.5,20.2-14.1,31.4-23.2c2.9-2.4,6-4.7,9.6-6.5c-2.2,3.6-5.1,6.4-7.8,8.7
			c-3.4,2.9-6.8,5.8-10.1,8.5c-5.3,4.3-10.2,7.9-14.7,11.2l-0.8,0.6l1,0.3c3.2,0.9,6.6,1.4,10.2,1.4c24-0.4,49.5-16.4,71.3-32.1
			c3.4-2.3,6.6-5,9.8-7.5c4.5-3.7,9.2-7.5,14.4-10.5c-2.8,4.2-6.5,7.5-9.7,10.3c-4.2,3.6-8.5,7-12.6,10.2
			c-9.4,7.1-23.7,17.4-39.1,24.5l-1.7,0.8l1.9,0.2c0.6,0.1,1.2,0.1,1.9,0.1c10.4,0.1,20.5-3.5,29-7c40.7-18.1,82.8-53.7,107-90.7
			c13.4-21.1,17.9-40.2,13.4-56.7c-4.1-15.1-18.5-26.3-36.6-28.5c-8.6-1.1-17.3-0.5-26.4,1.7c16.8-8.9,40.8-5.7,55.2,7.9
			c20.4,19.4,9.9,49.9,6.2,58.8c-17.6,40.6-59,73.8-82.1,89.9c-19,12.6-43.7,27.2-65.9,27.3c-2.8-0.1-5.4-0.5-7.7-1.2l-0.2,0
			l-0.2,0.1c-13.7,5.4-25.9,7-36.3,4.7c-1.8-0.4-3.6-1-5.4-1.8l-0.3-0.1l-0.2,0.2c-18.9,13-34.3,19.3-45.6,18.6
			c-1.9-0.2-3.6-0.6-5.2-1.2l-0.2-0.1l-0.2,0.1c-3.4,1.8-6.8,3.5-10.2,5.1c-8,3.6-16.6,7.1-26,8.1l-0.2,0l-0.1,0.1
			c-26,24.2-47,41.6-68.2,56.2l-3.4,2.3c-0.5,0.4-1.1,0.7-1.6,1.2l-1,0.8l1.3,0.1c0.1,0,0.2,0,0.4,0c8.5-0.2,16.9-2.6,25-4.8
			l2.6-0.7c26.5-8,48.4-17.6,67-29.6c6.6-4.4,13.3-9.2,19.9-14.4c3.2-2.4,6.4-4.9,9.4-7.4c4.7-3.8,9.5-7.6,14.6-11.2
			c-5.3,8-13,14-20.5,19.9l-1.6,1.2c-6.4,4.8-14.2,9.9-20.4,14c-11.1,7.1-23.2,13.4-36.9,19.1l-2.5,1l2.7-0.1
			c27.4-0.6,54.8-7.5,79.2-20.2c6.8-3.6,13.5-7.9,19.4-11.7c13.7-8.8,26.1-16.8,38.7-24.2c0.7-0.4,1.4-0.8,2.2-1.3
			c5.3-3.1,10.7-6.3,16.7-8c-4,3.7-8.7,6.5-13.3,9.3c-1.3,0.8-2.7,1.6-4,2.4c-8.4,5.1-17.4,11-26.1,16.7c-2.7,1.8-5.3,3.5-8,5.3
			l-1.7,1.1l2-0.2c32.3-3.1,63.9-16.7,89.1-38.2c9-6.4,16.7-9.1,23.7-8.3c-4.5,1.3-8.9,3.1-13.5,5.4c-3.7,2-6.3,3.7-8.6,5.6
			c-0.2,0.2-0.5,0.4-0.7,0.6l-2.1,1.8l2-0.5c13.7-3.2,24.9-4.9,35.3-5.4c0.8,0,1.7,0,2.5,0c1.4,0,3,0,4.4-0.2
			c7.1-1.4,12.5-6.7,16.5-11.2c5.5-6.5,10.4-14.3,14.7-24l0.4-0.9c1.5-3.3,3.1-6.6,4.8-9.9c-0.4,3.7-1.4,7.5-3,11.7
			c-0.2,0.4-0.3,0.8-0.5,1.1l-1,2.3l1.8-1.7c9.1-8.8,26.4-26.8,39.9-47.6c26.1-40.3,21.6-72.9,13.3-93.1
			c-5.6-13.5-17.5-24.3-32.7-38c-4.6-4.2-9.4-8.5-14.5-13.3c-18.9-17.9-27.8-37.7-25.9-57.3c1.9-19.3,14.2-35.3,24.8-42
			c21.1-13.3,44.6-11.9,62.9,3.7L403.7,30.4z M124.1,336.1c1.2,1.9,3.8,2.2,5.6,1.7c1-0.3,2-0.8,2.8-1.4c-1.9,2.5-4.7,4.3-7.8,5h0
			c-1.2,0.3-2.9,0.4-4-0.5c-1.1-0.9-1.3-2.5-1-3.7c0.4-1.9,2.1-4.4,3.7-5.6c0.1,0.4,0.1,0.9,0,1.4
			C123.4,334.1,123.4,335.1,124.1,336.1z M288.8,281.6c-1.6,0.3-3.8,0.5-5.3-0.7c-1.5-1.2-1.7-3.3-1.4-4.9c0.6-2.5,2.9-5.9,5-7.5
			c0.1,0.7,0.1,1.4,0.1,2.1c0,1.3-0.1,2.6,0.8,3.8c1.6,2.4,4.8,2.8,7.1,2.2c1.6-0.4,3-1.3,4.3-2.2C296.9,278,293,280.7,288.8,281.6z
			 M275.9,307.7c2.2-1.8,4.5-3.5,6.7-5.2c4.5-3.5,9.1-7,13.5-10.8c7.5-6.3,15.1-13.4,22.4-21.1c4.8-4.9,10.7-11.5,15.4-17.2
			c4.7-5.5,9-11.4,13.2-17.1c2.6-3.5,5.3-7.2,8-10.8c-1.8,4-3.9,7.7-5.7,10.5c-10.1,15.3-21.8,29.3-34.6,41.7
			C300.4,291.5,288.2,300.9,275.9,307.7z M212.9,328.5c-3.8,2-8.7,4.3-14,5.9c4.5-2.9,9.3-5.5,13.9-8c5-2.7,10.1-5.5,14.9-8.7
			c5.7-3.5,10.7-6.6,15.5-9.6c0.9-0.6,1.9-1.2,2.9-1.9c3.5-2.3,7.4-4.9,10.9-6.5c-3.1,3.5-6.9,6.2-10.6,8.8c-0.7,0.5-1.4,1-2,1.4
			C234.7,316.6,224.1,322.9,212.9,328.5z M183.3,309.2c1.2,1.9,3.8,2.2,5.6,1.7c1-0.3,2-0.8,2.8-1.4c-1.9,2.5-4.7,4.3-7.8,5
			c-1.2,0.3-2.9,0.4-4-0.5c-1.1-0.9-1.3-2.5-1-3.7c0.4-1.9,2.1-4.4,3.7-5.6c0.1,0.4,0.1,0.9,0,1.4
			C182.6,307.1,182.6,308.2,183.3,309.2z M262,264.5c-1.2,0.3-2.9,0.4-4-0.5c-1.1-0.9-1.3-2.5-1-3.7c0.4-1.9,2.1-4.4,3.7-5.6
			c0.1,0.4,0.1,0.9,0,1.4c0,0.9-0.1,2,0.6,3c1.2,1.9,3.8,2.2,5.6,1.7c1-0.3,2-0.8,2.8-1.4C267.9,262,265.1,263.8,262,264.5
			L262,264.5z M217.2,270.4c1.2,1.9,3.8,2.2,5.6,1.7c1-0.3,2-0.8,2.8-1.4c-1.9,2.5-4.7,4.3-7.8,5c-1.2,0.3-2.9,0.4-4-0.5
			c-1.1-0.9-1.3-2.5-1-3.7c0.4-1.9,2.1-4.4,3.7-5.6c0.1,0.4,0.1,0.9,0,1.4C216.5,268.3,216.5,269.4,217.2,270.4z M216.1,306.5
			c0.6-2.5,2.9-5.9,5-7.5c0.1,0.7,0.1,1.4,0.1,2.1c0,1.3-0.1,2.6,0.8,3.8c1.6,2.4,4.8,2.8,7.1,2.2c1.6-0.4,3-1.3,4.3-2.2
			c-2.5,3.6-6.4,6.3-10.6,7.2c-1.6,0.3-3.8,0.5-5.3-0.7C216,310.3,215.7,308.1,216.1,306.5z M243.8,292.6c-2.5,0.5-5.9,0.8-8.2-1.1
			c-2.3-1.8-2.7-5.2-2.2-7.8c0.9-4,4.6-9.4,8-11.7c0.3,1.2,0.3,2.4,0.3,3.6c-0.1,1.9-0.1,3.8,1.1,5.7c2.3,3.5,7.1,4.1,10.5,3.2
			c2.9-0.8,5.4-2.5,7.7-4.2C257.2,286.4,250.8,291,243.8,292.6z M251.8,161.5c-23.1,16.9-41.7,33.8-56.9,51.8
			c-1.3,1.4-3.9,4.4-5.1,5.8c-1,1.2-2,2.2-2.9,3.2c5.8-10.4,13.9-19.4,21.9-27.7c11.8-12.3,25.9-24.1,41.6-35l1.4-0.9
			c7.1-4.8,14.4-9.7,22.5-13c-4.1,3.1-8.5,6.1-12.8,9C258.3,156.9,254.9,159.2,251.8,161.5L251.8,161.5z M194.7,290.6
			c0.6-2.5,2.9-5.9,5-7.5c0.1,0.7,0.1,1.4,0.1,2.1c0,1.3-0.1,2.6,0.8,3.8c1.6,2.4,4.8,2.8,7.1,2.2c1.6-0.4,3-1.3,4.3-2.2
			c-2.5,3.6-6.4,6.3-10.6,7.2c-1.6,0.3-3.8,0.5-5.3-0.7C194.7,294.4,194.4,292.2,194.7,290.6z M160.2,298.7c-1.8-1.4-2.1-4-1.6-5.9
			c0.7-3.1,3.5-7.1,6-9c0.2,0.8,0.2,1.7,0.2,2.6c0,1.5-0.1,3,0.9,4.5c1.8,2.8,5.6,3.3,8.3,2.5c2.1-0.6,3.9-1.7,5.5-2.9
			c-2.9,4.5-7.7,7.9-12.9,9C164.6,299.9,162,300.1,160.2,298.7z M149,281.6c-0.9,2.6-2.1,5.4-3.8,8.6c-9.4,16.8-21.1,32.3-34.6,46.1
			c-5,5-11,10.6-17.8,15.1c2.1-2.2,4.3-4.3,6.5-6.4c2.6-2.6,5.3-5.2,7.9-7.9c13.1-13.7,25.4-29.8,36.7-47.8
			C145.1,287.2,146.9,284.4,149,281.6z M139.2,324.2c-2.3-1.9-2.7-5.2-2.2-7.8c0.9-4,4.6-9.4,8-11.7c0.3,1.2,0.3,2.3,0.3,3.6
			c-0.1,1.9-0.1,3.8,1.1,5.7c2.3,3.5,7.1,4.1,10.5,3.2c2.9-0.8,5.4-2.5,7.7-4.2c-3.7,6.2-10.1,10.8-17.1,12.3
			C145,325.8,141.6,326.1,139.2,324.2z M157.5,365.9c-0.3,1.2-0.5,2.4,0,3.7c1,2.5,3.9,3.5,6.2,3.3c1.5-0.1,2.9-0.6,4.3-1.2
			c-2.9,2.8-7,4.6-11,4.7c-1.5,0-3.6-0.2-4.7-1.5c-1.1-1.3-1-3.4-0.4-4.8h0c1-2.2,3.7-4.9,5.9-6
			C157.8,364.6,157.7,365.2,157.5,365.9z M121.6,405.2c2.3-1.1,4.6-2.1,6.9-3c2.2-0.9,4.4-1.8,6.6-2.8c7.1-3.3,13.8-7.6,20.3-11.8
			c5.4-3.5,11-7.1,16.8-10.1c2.1-1,4.1-1.8,6-2.5c-0.5,0.4-1.1,0.9-1.7,1.3l0,0c-2.4,1.9-5,3.6-7.6,5.2c-1,0.7-2.1,1.3-3.1,2
			c-1.3,0.9-2.6,1.7-3.9,2.6c-8.2,5.5-16.7,11.3-26,15C130.5,403.4,125.9,404.7,121.6,405.2z M139.2,384.7c0.8,2,3.2,2.8,5,2.6
			c1-0.1,1.9-0.4,2.8-0.7c-2.2,2-5.2,3.2-8.1,3.3c-1.2,0-2.8-0.1-3.7-1.2c-0.9-1-0.8-2.6-0.3-3.7h0c0.7-1.7,2.7-3.7,4.4-4.6
			c0,0.4-0.1,0.9-0.2,1.3C139,382.6,138.7,383.6,139.2,384.7z M118.3,379.1c-0.7,0.9-1.5,1.8-2.1,2.5c-2.8,3.1-6.5,5.7-10,8.3
			c-0.7,0.5-1.3,1-2,1.5c-10.7,7.7-22.8,14.5-36,20.4c-1.3,0.5-2.7,1.1-4,1.7c-4.4,1.9-9,3.9-13.8,4.5c3.3-2.2,7-3.9,10.6-5.4
			c2-0.9,4.1-1.8,6.2-2.9c13.6-6.6,25.3-13.2,35.7-20.1c2.1-1.4,4.3-3,6.4-4.5c2-1.5,4.1-3,6.1-4.3
			C116.3,380.2,117.3,379.6,118.3,379.1z M65.7,397.8c1,2,3.5,2.6,5.4,2.3c1.1-0.2,2-0.6,3-1c-2.2,2.3-5.2,3.8-8.3,4.1
			c-1.2,0.1-2.9,0.1-3.9-0.9c-1-1-1-2.6-0.6-3.8c0.6-1.8,2.6-4.1,4.3-5.2c0,0.5,0,0.9-0.1,1.4C65.3,395.7,65.1,396.7,65.7,397.8z
			 M84.7,384.5c1.4,2.5,4.5,3.2,6.9,2.7c1.6-0.3,3.1-1,4.5-1.9c-2.8,3.4-6.9,5.7-11.2,6.3c-1.6,0.2-3.8,0.2-5.2-1.1
			c-1.4-1.3-1.4-3.4-0.9-5v0c0.8-2.5,3.3-5.6,5.6-7c0.1,0.7,0,1.4-0.1,2.1C84.1,381.8,84,383.1,84.7,384.5z"/>
		<path class="st1" d="M368.6,21L368.6,21c-3.2-0.5-6.5,0.3-9.1,2.2c-1.6,1.2-2.9,2.8-3.8,4.6c-1.2,1-3,2.2-5.3,2.3l-6,0.3l5.7,1.6
			c0,0,2.7,0.8,4.5,3.1c0.3,1.8,1.1,3.5,2.2,5.1c1.3,1.8,3.1,3.2,5.2,4.1c0.9,0.4,1.8,0.6,2.8,0.8c0.6,0.1,1.3,0.1,1.9,0.1
			c2.6,0,5.1-0.8,7.2-2.4c1.9-1.4,3.3-3.3,4.2-5.4c1-0.7,2.1-1.1,3.3-1.2l2.2,0l-4.9-5.2c-0.3-1.9-1.1-3.7-2.2-5.2
			C374.6,23.2,371.8,21.5,368.6,21z"/>
		<path class="st1" d="M368.5,441.6c-59-1.9-81.7-17.4-81.9-17.6l-3.2-2.3l1.7,3.5c10.7,21.7,84.3,22.9,87.5,22.9l2.3,0l-6-6.6
			L368.5,441.6z"/>
	</g>
	<g>
		<path class="st2" d="M454.8,52.2c-18.8-0.4-37.2-1.4-52.6-2.3l-0.9-0.1l0.6,0.7c3.5,3.7,5.6,7.2,6.5,8.9l0.1,0.2l0.3,0
			c4.2-0.7,15.3-2.3,27.8-2.5c4.9-0.1,10.1,0.1,15.1,0.2l0.4,0c10.6,0.3,21.6,0.5,27.8-1.2l1.1-0.3l-1.1-0.4
			C472,52.6,462.8,52.3,454.8,52.2z"/>
		<path class="st2" d="M486.3,54.4c-0.8-6.4-3.4-11.1-7.7-14.1c-8.3-5.7-21.5-4.2-33.9-1.5c3.5-1.6,7.4-2.9,11.3-3.7l0.4-0.1
			l-0.1-0.4c-1.4-4.3-6.5-5.4-8.6-5.7c-4.9-0.7-10.2,0.1-13.7,0.8c-8.5,1.6-17,2.1-27.1,2.3l-0.3,0l0,0.3c-0.4,5.2-1.9,9.6-4.4,13.2
			c-0.2,0.3-0.4,0.5-0.6,0.8l-0.5,0.7l0.7,0c15.9,0.9,34.7,1.9,53.3,2.3c3.6,0.1,7.7,0.1,11.6,0.5c4,0.4,7.9,1.1,11.5,2
			c2.4,0.7,5.2,1.6,7.8,2.9l0.6,0.3L486.3,54.4z"/>
	</g>
	<g>
		<path class="st3" d="M456.4,35c0,0-2.6-2.9-8.8-3.9c-4.9-0.8-10.2,0.1-13.7,0.8c-8.5,1.6-27.5,0.5-27.5,0.5l0.4-0.3
			c10.1-0.3,18.6-0.7,27.1-2.3c3.5-0.7,8.8-1.5,13.7-0.8c2.1,0.3,7.2,1.5,8.6,5.7L456.4,35z"/>
		<path class="st3" d="M486.4,55.1l-0.4-0.2c-1.1-5.5-3.6-9.7-7.4-12.4c-8.2-5.7-24.4-5.4-36.8-2.7c3.5-1.6,14.5-3,14.5-3
			c8.6-1,16.6-0.5,22.3,3.5c4.3,3,6.9,7.7,7.7,14.1L486.4,55.1z"/>
		<path class="st3" d="M291.4,61.5c0,1.5-6.1,12.3-7.7,28.1c-1.1,10.4-1.1,16.3-1.1,16.3c-3.8-10.1,1.2-31.8,6.8-41.8
			C289.7,63.9,291,61.6,291.4,61.5z"/>
		<path class="st3" d="M310.1,32.3c-2.6,2.8-14.9,11.6-21.7,22c-2.3,3.6-4.4,7.3-5.9,11.3c-0.2,0.2-1.2,0.5-1.5,0.6
			c1.6-4.7,3.8-9.2,6.6-13.3c3-4.3,6.5-8.3,10.4-11.8c2-1.8,5.7-4.4,8.8-6.6L310.1,32.3z"/>
		<path class="st3" d="M334.8,19.8c-1.9,1.4-19.5,5.5-25.1,7.6c-5.6,2-11.2,4.5-15.8,8.2c-0.6,0.1-1.3,0.1-1.9,0.1
			c5-4.6,11.4-7.5,17.7-9.8c3.9-1.5,11.6-3.2,17.9-4.5C327.6,21.4,332.4,20.1,334.8,19.8z"/>
		<path class="st3" d="M329.7,14.8c-5.3,1.2-11.1,2.4-16.2,4.1c-0.8,0.2-1.5,0.5-2.3,0.8c-1-0.1-2-0.2-2.9-0.3
			c1.7-0.8,3.4-1.4,5.2-1.9c4.4-1.4,9.4-2.1,14.1-2.4L329.7,14.8z"/>
		<path class="st3" d="M403.3,29.8c0,0.5,2.1,0,0,0.9C391.2,20.4,373.4,4.5,355.7,5c-11.1,0.2-22.4,1.7-32.8,5.7
			c-0.6-0.3-1.2-0.5-1.8-0.7c10.8-4.6,23.1-7.3,34.8-7.5C373.6,2,391.6,17,403.3,29.8z"/>
		<path class="st3" d="M283.6,132.5c-6.6,7-15.2,11.7-23,16.9c-19.6,12.2-44.2,29.6-71.1,64.9c-2.4,3.1-6.4,7.9-8.6,11.1
			c-10.6,14.8-19,29.4-27.9,45.3c-1.5,2.6-8.9,14.8-10.8,17.9c-10.6,17-22.5,32.3-36.3,46.8c-5.5,5.8-34.8,34.2-35.8,33.7
			c0.1-0.2,0.3-0.5,0.5-0.8c0.3-0.4,0.6-0.8,0.9-1.2c1.4-1.6,3.1-3.2,4.7-4.8l5.1-4.7c13.8-12.5,26.7-25.9,38.4-40.4
			c11.7-14.5,22.1-30,31.4-46.1c8.9-15.9,18.6-32.1,29.2-46.9c21.1-30.2,47.6-56.3,78.9-75.8c7.8-5.2,16-9.9,22.6-16.9
			c5.1-5.4,8.3-12.8,7.8-20.3c-0.1-2.3-1.7-7.3-2.5-9.5c0,0,2.9,4.3,3.6,10.4C291.1,119.6,288.7,127.2,283.6,132.5z"/>
		<path class="st3" d="M4.9,433.4c-0.1,0-0.2,0-0.4,0c0.5-0.4,1-0.8,1.5-1.1l3.4-2.3c24.3-16.7,46.7-36.1,68.3-56.2
			C67.1,388,23.1,425.1,4.9,433.4z"/>
		<path class="st3" d="M372.6,424.9c0,0-7.2-4.1-17.5-5.7c-9.7-1.5-22.1-0.6-32.7,0.7c-12.8,1.6-25.9-7.8-26.2-13.3
			c0,0,13.8,13,26.6,11.5c24.5-3,40.9-1.2,48.8,5.4L372.6,424.9z"/>
		<path class="st3" d="M302.8,354.6l-0.4,0.7c-0.6,1-1.1,2-1.6,3.1c-6.4,13.2-9.4,29.8-7.7,43.3c0.2,2,0.6,3.9,1,5.7l0,0.3
			c0.1,2.3,2.8,6.5,2.8,8.9c-3.3-3.8-5.1-10.8-5.7-15.7c-1.7-13.5,2.2-35.9,10.8-46.2L302.8,354.6z"/>
		<path class="st3" d="M367.5,103c-0.8-22.7,28.2-38.1,37.1-42.3c-11.6,3-39.7,19.2-38.9,42c0.4,11.4,7.1,20.9,15.2,31.7
			c19.2,25.4,43.1,57-8.4,136.4c-11.9,18.3-37.5,47.2-37.6,47.5c9.4-9.1,26.4-26.9,39.8-47.5c51.4-79.4,27.6-111,8.4-136.4
			C374.9,123.6,367.8,114.3,367.5,103z"/>
		<path class="st3" d="M372.5,36.3c-0.3,0.4-0.7,0.7-1,1c-1.1,0.8-2.5,1.2-3.9,0.9c-1.3-0.2-2.4-0.9-3.3-1.9c0.8,0,1.5-0.3,2.1-0.7
			c1.7-1.3,2.1-3.7,0.8-5.4c-0.5-0.7-1.2-1.1-1.9-1.4c2.3-1.7,5.5-1.2,7.2,1.1l0.2,0.2l0.6-0.4c-0.2-0.5-0.5-0.9-0.8-1.3
			c-0.8-1.1-1.9-2-3.2-2.5c-0.5-0.2-1.1-0.4-1.7-0.5c-2-0.3-3.9,0.2-5.6,1.4c-1.6,1.2-2.7,2.9-3,4.9c-0.3,2,0.2,3.9,1.4,5.6
			c1.5,2,3.7,3,6,3c1.5,0,3.1-0.5,4.4-1.4c0.9-0.6,1.6-1.5,2.1-2.4L372.5,36.3z"/>
		<path class="st3" d="M298.7,158.3c0,0,41.1-8.3,57.2,13.4c17,22.9,5.9,50.7-11.1,77.5c0,0,23.7-22.8,23.7-50.8
			S352.7,162,352.7,162S324.8,144.7,298.7,158.3z"/>
	</g>
	<path class="st4" d="M295.8,291.3c7.9-6.5,15.3-13.6,22.4-21c4.9-5.1,10.8-11.7,15.4-17.2c8.4-9.8,15.3-20.5,23.4-30.6
		c-1.8,4.9-4.4,9.5-7.1,13.9c-9.9,15-21.7,29.3-34.7,41.8c-13.1,12.5-27.2,24.3-43.5,32.4C279.6,303.9,288,298,295.8,291.3z
		 M227.6,317.2c-10.3,6.6-21.4,11.7-31.5,18.4c5.9-1.4,11.7-4,17.1-6.7c11-5.5,21.6-11.7,31.6-18.7c5-3.6,10.2-6.9,14-11.9
		c-5.1,1.9-11.2,6.4-15.8,9.3C237.9,310.9,232.8,314.1,227.6,317.2z M106.7,336.8c-5.5,5.8-11.6,11.3-17,17.2
		c7.9-4.6,14.8-10.8,21.3-17.3c13.6-13.7,25.3-29.4,34.7-46.2c1.9-3.6,3.6-7.3,4.7-11.3c-2.6,3.2-4.8,6.6-7,9.9
		C132.6,306.1,120.5,322.3,106.7,336.8z M250.2,159.3c-14.9,10.3-29.1,22-41.7,35c-9,9.3-17.8,19.2-23.6,30.9
		c1.9-1.8,3.6-3.8,5.3-5.7c1.2-1.5,3.8-4.4,5.1-5.8c16.5-19.6,36.1-36.6,56.8-51.8c8.1-5.9,17.4-11.6,25.2-17.9
		C267.4,147.5,258.8,153.5,250.2,159.3z M376.1,31.7l3.1,3.3c-1.6,0-2.8,0.7-3.6,1.3c-0.6,1.7-1.8,3.3-3.4,4.5
		c-2.1,1.5-4.6,2.2-7.2,1.8c-0.8-0.1-1.5-0.3-2.2-0.6c-1.6-0.7-3-1.8-4.1-3.2c-0.9-1.3-1.5-2.7-1.7-4.2c-1.7-2.4-4.4-3.2-4.4-3.2
		c2.2-0.1,4-1.3,5.2-2.3c0.7-1.5,1.7-2.8,3.1-3.8c2.1-1.5,4.6-2.2,7.2-1.8c2.5,0.4,4.8,1.8,6.3,3.8
		C375.3,28.7,375.9,30.2,376.1,31.7z M373,30.1c-0.2-0.4-0.4-0.8-0.7-1.2c-0.8-1.1-1.8-1.9-3-2.4c-0.5-0.2-1.1-0.4-1.6-0.4
		c-1.9-0.3-3.8,0.2-5.3,1.3c-1.5,1.1-2.5,2.8-2.8,4.7c-0.3,1.9,0.2,3.8,1.3,5.3c2.3,3.2,6.8,3.8,9.9,1.5c0.8-0.6,1.5-1.4,2-2.3
		c-0.3,0.4-0.7,0.8-1.1,1.1c-2.5,1.8-6,1.3-7.8-1.2c-0.1-0.1-0.2-0.3-0.3-0.4c0.9,0.1,1.8-0.1,2.6-0.6c1.5-1.1,1.9-3.3,0.8-4.8
		c-0.6-0.8-1.5-1.3-2.4-1.4c0.2-0.2,0.4-0.3,0.6-0.5c2.5-1.8,6-1.3,7.8,1.2L373,30.1z M102.7,389.1c-11.4,7.5-23.4,14.1-35.6,20.1
		c-6.1,3.1-12.8,5.2-18.3,9.4c7-0.3,13.4-3.8,19.7-6.4c12.7-5.6,24.8-12.3,36.1-20.4c4-3,8.7-6.2,12.1-9.9c1.2-1.3,2.3-2.6,3.3-4.1
		c-1.6,0.7-3.1,1.6-4.6,2.5C111.2,383,106.9,386.4,102.7,389.1z M490,61.8l-3.2-2.6l-0.2-0.1c-0.1-0.1-0.2-0.1-0.2-0.2
		c-0.6-0.4-1.3-0.8-2-1.2c-6,3.5-18.4,3.2-32.6,2.8c-5.1-0.1-10.3-0.3-15.2-0.2c-14.3,0.2-26.7,2.3-28.4,2.6
		c-2.8,1.2-37.9,16.9-37.1,39.8c0.4,10.2,7.1,19.1,14.8,29.4c9.8,12.9,20.9,27.6,23,49.5c2.4,25.2-7.8,55-31.2,91.1
		c-18.6,28.7-44.1,51.9-47.2,54.6c-5.4,10.4-13.1,21.2-23,25.9c-7.6,14.2-11.5,30.5-11.2,46.7c0,0.4,0,0.7,0,1.1
		c1.8,3.4,9.7,15.8,26,13.8c29.8-3.7,48.2-0.2,54.9,10.2c6.4,1.5,12.7,3.7,18.4,7.2l5.1,3.4c-3.5-0.4-16.1-1.1-24.9,1
		c-1.8,0.5-3.9,1-4.7,2.5c-1,3.8,10.3,10.8,10.3,10.8c-5.3-0.1-11.3-0.2-16.5-0.6c-10.6-0.7-21.1-1.8-31.6-2.9
		c-19.3-2.2-48.2-7.6-54.9-28.9c-1.1-3.6-1.1-7.4-1-11c0.1-3.6,0.3-7.1,0.5-10.6c1-13.2,2.4-26.2,4-39.3c-0.4,0.1-0.8,0.1-1.2,0.2
		c-9.4,1.2-18.8,3-28,5l0,0c-12.7,9.8-26.9,17.6-42,23.2c-15.4,5.5-31.5,9.1-47.9,9.3c-4.1,2.6-8.2,5.2-12.2,7.6
		c-15,8.7-31.4,14.8-48.4,18.6c-13.2,2.8-26.6,4.4-40.1,4.2c-1.9,0-3.8-0.1-5.8-0.3c0,0,0-0.4,0-0.5c-7.5,2.9-15.2,5.4-22.9,7.7
		c-5.3,1.4-30.3,9-33.1,3.9c-1.5-2.8,1.7-4.9,3.6-6.2l3.4-2.3c15.8-10.7,30.6-22.8,45.1-35.3c6.7-5.8,13.4-11.8,19.9-17.9
		c-5-0.6-9.3-3.1-4-9.3c2.6-3,7.2-7.1,10.1-9.8c13.6-12.4,26.3-25.7,37.8-40.1c11.5-14.4,21.8-29.6,31-45.6
		c9-16,18.7-32.3,29.4-47.2c21.3-30.5,48.4-57.1,80.2-76.7c3.9-2.5,7.8-5,11.5-7.6c5.5-3.9,10.8-8,14.2-13.7c2.6-4.5,3.6-9.9,2.6-15
		c-1.6,2.1-3.2,4.6-4.7,6.6l-1-4.3c-3-13.8-1.8-28.6,3.6-41.7c0,0,0,0,0,0c-2.8,1.8-6.4,6.3-8.7,8.7c1.1-5.6,2.3-12.3,4.7-17.4
		c3.6-8.2,8.9-15.5,15.5-21.5c-0.1,0-0.2,0-0.2,0c-3.4,0.3-7.4,0.4-10.8,0.3c1.5-1.8,3.7-4.7,5.5-6.3c5.2-4.7,11.5-8,18-10.3
		c-3.3-0.4-6.5-0.8-9.7-1.2l3.9-2.7c4.9-3.2,10.4-5.2,16.1-6.3c-0.7-0.2-1.3-0.3-2-0.5l-4.7-0.9C323.2,3.5,338,0.7,352.4,0.1
		l3.2-0.1c12.1-0.4,23.4,5.7,32.9,12.6c6.5,4.8,12.5,10.2,18,16.2c4.3-0.1,8.5-0.3,12.8-0.6c4.7-0.3,9.4-0.8,14-1.7
		c4.9-0.9,9.8-1.5,14.8-0.8c4.7,0.6,10,3.5,11.3,8.4c9.9-1.4,20.1,0.4,25.9,8.5C489.3,48.2,489.9,55.2,490,61.8z M302.1,355.1
		c-2.5,0.5-5,0.2-7.5,0.3c-3,0.1-6,0.3-9,0.7c-2,16.8-4,33.6-4.6,50.4c-0.1,3.3-0.1,6.7,0.8,9.9c6.1,19.3,34.1,24.3,51.8,26.3
		c12.2,1.2,24.5,2.6,36.8,3.2c-3-3.4-4.9-7.7-0.5-10.9c4.6-2.9,10-2.9,15.1-3.2c-12.2-4-25.2-5.4-38.1-5.9
		c-5.4-0.3-10.8-0.5-16.4-1.2c9.4-2.9,19.2-2.8,28.9-2.3c4,0.3,8.1,0.8,12.1,1.4c-6.1-5.1-19.5-8.9-48.5-5.3
		c-13.2,1.6-21.7-5.3-26.2-10.8c0.1,2.9,0.2,5.9,0.3,8.9c-2.2-4.5-3.6-9.6-4.2-14.9v0c-1.8-14.7,1.8-31.3,7.8-43.5
		C301,357.1,301.5,356.1,302.1,355.1z M405.2,60.4c-1.3-2.2-4.1-6.4-8.6-10.4l-4.4-0.3c2.2-1.7,5.6-3.7,7.2-6
		c2.6-3.7,3.7-8.4,3.9-12.9C391.6,17.9,373.4,3,355.7,3.5C343.9,3.7,331.9,5.4,321,10c1.4,0.5,2.8,1.1,4.2,2l4.5,2.8
		c-5.3,0.4-11.1,1-16.2,2.6c-1.8,0.5-3.5,1.2-5.2,1.9c1.8,0.2,3.7,0.4,5.5,0.5c2.7,0.2,18.1,0,21.1-0.1c-6,1.4-19.5,4-25.1,6.1
		c-6.3,2.3-12.7,5.3-17.7,9.8c2.9-0.2,5.9-0.5,8.6-1.1l9.4-2.3c-3.1,2.2-9.2,6.3-12,8.8c-3.9,3.5-7.4,7.5-10.4,11.8
		c-2.8,4.1-5,8.6-6.6,13.3c0.8-0.6,1.7-1.1,2.6-1.6c1.9-1.1,5.6-2.3,7.7-3.2c-8,13.2-11.1,29.2-8.8,44.4c0.7-0.9,1.5-1.8,2.3-2.7
		l2-1.7c1.4,3.1,2.5,6.5,2.6,9.8c0.5,7.5-2.7,15-7.8,20.3c-6.6,7-14.7,11.7-22.6,16.9c-31.3,19.4-57.8,45.6-78.9,75.8
		c-10.6,14.8-20.3,31-29.2,46.9c-9.3,16.1-19.7,31.6-31.4,46.1c-11.6,14.5-24.6,28-38.4,40.4l-5.1,4.7c-1.7,1.6-3.3,3.1-4.7,4.8
		c-0.3,0.4-0.7,0.8-0.9,1.2c-0.2,0.3-0.4,0.6-0.5,0.8c1.8,0.9,4.3,0.9,6.4,0.9c0.1-0.1,0.2-0.2,0.3-0.3l0.2,0.2
		c4.2-0.3,8.5-1.4,12.7-2.7c17.3-5.8,33.4-15.1,47.8-26.3c3.6-2.8,7.2-5.4,10.9-8.4c-1.9,4.4-5.2,8-8.7,11.1
		c-6.4,5.3-13.2,9.9-20.3,14c13.1,0.9,31.3-10.6,41-16.8c10.9-7.1,21.3-15,31.4-23.2c3.4-2.8,6.9-5.4,11.1-7.2
		c-2.1,4.1-5.2,7.2-8.6,10.1c-3.3,2.9-6.7,5.7-10.1,8.5c-4.2,3.3-9.2,7.3-14.7,11.2c3.2,0.9,6.6,1.4,10.1,1.4
		c24.7-0.4,51.4-17.9,71-32c8.8-6.1,16.4-13.9,26-19c-2.8,4.8-6.7,8.5-10.9,12.1c-4.1,3.5-8.3,6.9-12.6,10.2
		c-10.8,8.2-24.6,17.8-39.2,24.5c0.6,0.1,1.2,0.1,1.8,0.1c10,0.1,19.6-3.2,28.8-7c40.3-18,82.5-53.5,106.8-90.5
		c10.4-16.4,18.7-36.8,13.4-56.3c-4.4-16.2-20.1-26.2-36.1-28.1c-10-1.2-19.8-0.2-29.6,2.6c17.4-11.5,43.8-8.1,58.8,6.1
		c16.4,15.6,14.4,40.1,6.3,59.4c-15.6,36-50.5,67.9-82.3,90.1c-18.5,12.3-43.4,27.2-66.2,27.4c-2.6-0.1-5.3-0.4-7.8-1.2
		c-12.3,4.8-24.9,7.3-36.6,4.7c-1.9-0.4-3.7-1.1-5.5-1.8c-14.6,10.1-32,19.5-46,18.7c-1.8-0.2-3.6-0.6-5.4-1.2
		c-3.4,1.8-6.8,3.5-10.3,5.2c-8.4,3.7-16.9,7.2-26.2,8.1c-21.6,20.1-44,39.5-68.3,56.2l-3.4,2.3c-0.5,0.4-1.1,0.7-1.5,1.1
		c0.1,0,0.2,0,0.4,0c9.3-0.3,18.5-3,27.5-5.5c23.4-7,46.3-16.3,66.9-29.6c6.8-4.5,13.4-9.3,19.9-14.3c8.7-6.6,16.9-13.8,26-19.9
		c-5.6,9.6-14.8,16.5-23.4,23.3c-6.3,4.7-13.8,9.7-20.4,14.1c-11.7,7.5-24.1,13.8-37,19.1c27.4-0.6,54.7-7.6,79-20.2
		c6.7-3.5,13-7.6,19.3-11.7c12.8-8.2,25.6-16.5,38.7-24.2c6.5-3.8,13.2-8.1,20.7-9.7c-5.4,5.5-12.3,9.1-18.7,13.1
		c-10.9,6.6-22.6,14.4-34.1,21.9c32.5-3.1,64.1-17,88.8-38.1c7.4-5.3,16.9-10.2,26.2-8c-5.5,1.5-10.5,3.4-15.5,6
		c-3,1.6-5.9,3.4-8.5,5.5c-0.4,0.4-0.8,0.7-1.3,1.1c11.6-2.7,23.4-4.8,35.4-5.4c2.3-0.1,4.6,0.2,6.8-0.2c6.6-1.3,11.8-6,16.2-11
		c6.1-7.1,10.8-15.3,14.6-23.9c2-4.3,4-8.6,6.4-12.8c-0.2,4.9-1.5,9.7-3.2,14.2c-0.2,0.4-0.3,0.8-0.5,1.1
		c9.4-9.1,26.4-26.9,39.8-47.5c51.4-79.4,27.6-111,8.4-136.4c-8.1-10.8-15.2-20.1-15.6-31.4C366.6,79.6,397.1,64.1,405.2,60.4z
		 M479.8,55.7c-7.8-2.8-16.9-3.1-24.9-3.2c-17.6-0.4-35.1-1.3-52.6-2.3c3.4,3.7,5.6,7.2,6.5,8.9c3.8-0.6,15.2-2.3,27.9-2.5
		c5-0.1,10.2,0.1,15.3,0.2C462.6,57.2,473.6,57.4,479.8,55.7z M485.9,54.4c-2.9-22.3-26.4-18.7-44.1-14.6c4-2.2,8.9-4,14.1-5.1
		c-1.1-3.3-4.8-5-8.3-5.5c-4.4-0.6-9.1-0.1-13.6,0.8c-9,1.7-18.1,2.1-27.2,2.3c-0.4,4.8-1.7,9.4-4.4,13.3c-0.2,0.3-0.5,0.6-0.7,0.9
		c17.7,1,35.5,1.9,53.2,2.3c3.8,0.1,7.7,0.2,11.6,0.5c3.9,0.4,7.8,1,11.6,2C480.8,52.2,483.5,53.1,485.9,54.4z M134.9,398.9
		c-5.2,2.5-10.6,4.3-15.7,7c5.9-0.2,11.5-2,16.9-4.3c10.8-4.4,20.4-11.3,30-17.7c3.6-2.4,7.3-4.6,10.7-7.2c1.2-0.9,2.3-1.8,3.4-2.8
		c-2.9,0.7-5.6,1.8-8.2,3.1C159.1,383.6,147.9,392.8,134.9,398.9z"/>
</g>
</svg>
