<?xml version="1.0" encoding="utf-8"?>
<!-- Generator: Adobe Illustrator 28.3.0, SVG Export Plug-In . SVG Version: 6.00 Build 0)  -->
<svg version="1.1" id="raccoon_00000175324991579920756440000016200047110787351226_"
	 xmlns="http://www.w3.org/2000/svg" xmlns:xlink="http://www.w3.org/1999/xlink" x="0px" y="0px" viewBox="0 0 340.5 490"
	 style="enable-background:new 0 0 340.5 490;" xml:space="preserve">
<style type="text/css">
	.st0{fill:#A3A3A3;}
	.st1{fill:#4C4C4C;}
	.st2{fill:#FFFFFF;}
	.st3{fill:#231F20;}
</style>
<g id="raccoon_00000048502801709828653960000001508992123179370423_">
	<g>
		<path class="st0" d="M173.4,146.6l-0.2,1.2c-0.1,1-0.3,1.9-0.6,2.7c-0.2,0.7-0.5,1.4-0.9,2.2l-0.8,1.7l1.9-0.2
			c3.9-0.4,7.8-1,11.8-1.7l3.6-0.7l-3.4-1.3c-3.7-1.5-7.1-2.6-10.1-3.6L173.4,146.6z"/>
		<path class="st0" d="M95.4,448.7l0.6-0.6l-0.5-0.7c-2.2-2.8-4.8-3.8-7.8-3.1c-0.4,0.1-0.7,0.3-1.1,0.4L86,445l-0.9,3l-1.3-3.5
			l-0.1-0.2c-1.1-1.6-2.9-3.4-5.3-3.4c-1.7,0-3.3,0.9-4.8,2.8l-0.1,0.1l-1.3,3.7l-1-3.3l-0.3-0.2c-0.6-0.5-1.2-0.8-1.9-0.9
			c-1.4-0.3-2.9-0.1-4.4,0.7c-0.4,0.2-0.8,0.5-1.2,0.8c-0.6,0.4-1.2,0.9-1.8,1.5l-0.7,0.8l-0.6-0.9c-0.8-1-1.7-1.7-2.7-1.9
			c-2.4-0.6-5.4,1.1-7.8,4.3c-1.6,2.2-2.9,4.9-3.6,7.9c-0.6,2.1-0.8,4.2-0.8,6.3c0,1.3,0.1,2.5,0.3,3.5c0.2,0.9,0.4,1.7,0.7,2.5
			c0.6,1.5,1.8,3.3,3.8,3.9c1.2,0.3,2.5,0.1,3.8-0.6l0.3-0.1l1.9-3.6l0.2,4l0.1,0.3l0.1,0.1c1,1.9,2.3,3,3.9,3.4
			c2.7,0.7,5.9-0.9,8.6-4.3l0.1-0.1l1.4-4.1l0.7,3h-0.4l0.7,1.5c1.6,3.6,3.9,5.8,6.3,6.1l0.8,0.1l0.3-0.8c1.3-3.6,2.4-6.4,3.7-8.9
			C85.9,461.3,90.2,454.8,95.4,448.7z"/>
		<path class="st0" d="M53.4,442.5l0.7-0.2c1.3-0.5,2.6-0.6,3.8-0.2c0.9,0.2,1.7,0.6,2.4,1.3l0.6,0.5l0.7-0.5
			c0.2-0.2,0.4-0.3,0.6-0.5c0.5-0.4,1-0.6,1.4-0.9c1.9-1,3.9-1.3,5.7-0.9c0.7,0.2,1.3,0.5,2,0.8l0.7,0.4l0.6-0.6
			c1.7-1.8,3.6-2.8,5.7-2.8c2.3,0,4.6,1.3,6.4,3.6l0.5,0.6l0.7-0.3c0.3-0.2,0.7-0.3,1.1-0.4c2-0.5,5.9-0.8,9.3,3.2l0.8,0.9l0.8-0.8
			c3.3-3.6,7-6.9,10.8-9.9c4-3.2,9-6.5,14.3-9.6l0.2-0.1l0.1-0.2c19.3-28.6,47.3-36.3,67.3-37.7c20.3-1.5,36.2,2.8,39.2,3.7l0.3,0.1
			l0.3-0.1c11.9-2.9,24-3.1,35-0.6l0.9,0.2l0.3-0.9c3-10.1,4.6-20.9,4.8-32.3l0.1-5.3l5.9,17.8l1-3c5-15.6,5.5-32.6,1.5-47.9
			c-4.6-17.2-14.6-31.3-29-40.6l-1-0.6l-0.5,1c-2.5,4.9-5.7,9.9-9.6,14.9l-1,1.3l-0.5-1.6l-1.4-4.1l-0.8,3.4
			c-3.8,16.2-13.5,28.2-29.5,36.7c-14.5,7.6-20.3,20.8-25.9,33.5l-0.5,1.2c-0.4,1-0.9,2-1.3,3c-5.6,12.5-10.8,14.1-14.7,14.1
			c-2.1,0-4.3-0.6-6.2-1.1c-0.9-0.3-1.7-0.5-2.5-0.7l-0.2,0l-0.2,0c-2,0.4-4.1,0.4-6.2,0.2c-1.4-0.1-2.9-0.4-4.4-0.8l-0.3-0.1
			l-0.5,0.1c-0.1,0-0.3,0.1-0.4,0.1c-0.7,0.2-1.5,0-2.2-0.5l-0.6-0.5l-0.6,0.5c-0.6,0.5-1.5,0.7-2.2,0.5c-0.1,0-0.3-0.1-0.4-0.1
			l-0.5-0.1l-0.3,0.1c-1.5,0.4-2.9,0.6-4.4,0.8c-2.3,0.2-4.6,0.1-6.8-0.3l-0.2,0l-0.2,0.1c-0.8,0.2-1.5,0.4-2.3,0.7
			c-1.8,0.6-4,1.2-6.1,1.2c-3.7,0-8.6-1.6-14.2-14c-0.6-1.4-1.2-2.7-1.8-4.1c-5.6-12.7-11.3-25.8-25.9-33.5
			c-16.1-8.4-25.7-20.4-29.6-36.7l-0.8-3.4l-1.2,3.3c-0.1,0.2-0.2,0.5-0.3,0.7l-0.5,1.6l-1-1.3c-3.5-4.5-6.5-9-8.8-13.4l-0.6-1
			l-1,0.7C2,301.5-0.7,340.2,5.8,367.1l0.9,3.5l5.8-17.5l0.1,5.3c0.4,22,6.4,42.6,16.7,58.1l1.6,2.4l1.6-16.2l1.3,4.6
			c4.2,14.7,14.8,29.1,19.2,34.6L53.4,442.5z"/>
		<path class="st0" d="M26.2,242.4l2.6-4.2l-0.9,4.8c-3.1,16.2,1,31.7,12.6,47.6l1.1,1.6l0.7-1.8c0.6-1.5,1.1-3,1.4-4.5l1.2-5.1
			l0.6,5.2c2.3,19.4,12.1,33.4,29.9,42.7c15.1,7.9,21.3,22,26.7,34.4c0.6,1.4,1.2,2.7,1.8,4.1c4.5,10.1,8.3,13,12.5,13
			c0.9,0,1.9-0.1,2.9-0.4l2.5-0.6l-2.2-1.3c-0.7-0.4-1.2-0.8-1.8-1.2c-1.1-0.8-2.4-2.1-3.2-3.9c0.9,0.5,1.8,1,2.6,1.5
			c2.4,1.5,4.7,2.8,7.9,3.3c0.8,0.1,1.5,0.2,2.4,0.3l4.3,0.3l-3.7-2.2c-1.3-0.8-2.6-1.7-3.9-2.7c-2.2-1.7-3.7-3.4-4.8-5.2
			c1.8,0.9,3.4,2,5.1,3.2l0.8,0.6c2.7,1.8,5.6,3.3,8.7,4.3l4.2,1.4l-8.1-8.1c-0.4-0.4-0.9-0.9-1.3-1.3l-0.1-0.1c-2.1-2-4-4-5.4-6.4
			c2.5,1.2,4.7,3.1,6.9,5c0.5,0.4,0.9,0.8,1.4,1.2c0.7,0.6,1.4,1.2,2.1,1.8l1.7,1.5l0-2.3c0.1-5.5-1.9-8.9-7.7-13.1
			c-1.6-1.3-3.2-2.5-4.8-3.8c-5.9-4.5-11.9-9.2-16-15.4c-1.3-2-2.1-4.3-2.9-6.6c-0.2-0.5-0.4-1-0.6-1.5c1.3,0.3,2.7,0.5,4.1,0.7
			l1.5,0.2l-0.4-1.5c-2.2-8.6-5.5-16.4-9.9-23.2l-1.6-2.5c1.1,0.5,2.3,1,3.5,1.5l8.6,3.8l-0.3-1.9c-1.7-11.6-7.9-22.1-14.1-32.1
			c3.4,2.4,7.6,5.3,11,7.6l2.2,1.5l-0.6-2.6c-0.4-1.9-1-3.8-1.7-5.6c-1.2-3-2.9-6-5.1-8.9c-2.5-3.4-5.6-6.3-8.6-9.1
			c-0.7-0.7-1.5-1.4-2.2-2c-0.4-0.4-0.8-0.8-1.2-1.2c0.5,0.2,1,0.4,1.5,0.7c11.2,5.9,18.7,17.6,19.7,30.5l0.2,1.9L101,280l2,3.8
			c5,9.3,7.6,17.3,8.2,25.1l0.1,1.5l-9.3-4.1l1.4,2.6c1.4,2.5,2.6,5.1,3.6,7.6c1.8,4.4,3.2,9.1,4.5,15c-0.8-0.1-1.6-0.2-2.4-0.3
			l-2.8-0.3l0.7,1.8c1.2,3.1,3.3,5.6,5.8,8.3c3.5,3.5,7.9,7,12.2,10.3c1.3,1,2.7,2.1,4,3.1c3.7,2.8,7.6,6.3,8.2,11.6
			c0.2,1.8,0.2,3.6-0.1,6l-0.1,0.5l1,0.9c0.3,0.3,0.7,0.6,0.9,0.9c0.1,0.1,0.3,0.3,0.5,0.5c0.2,0.1,0.3,0.3,0.4,0.4l1.8,1.8v-2
			l1.2-1.1c0.3-0.3,0.6-0.6,0.9-0.9l0.4-0.4l-0.1-0.5c-1-7.8,1.2-12.7,8.2-17.6c1.5-1.3,3.2-2.5,4.7-3.7l0.1-0.1
			c5.7-4.4,11.6-8.9,15.5-14.9c0.5-0.7,1-1.7,1.6-3.2l0.6-1.6l-2,0.2c-0.6,0.1-1.3,0.1-1.9,0.2l-1.3,0.2c1.8-8.4,4.5-15.9,8.1-22.6
			l1.4-2.6l-3.2,1.4c-2.2,1-4.5,2-6,2.6l0.1-1.5c0.6-7.8,3.1-15.8,8.2-25.1l2-3.8l-9.2,6.4l0.2-1.9c0.7-7.5,3.4-14.7,7.6-20.1
			c4.4-5.5,8.9-9.1,13.6-11c-1.3,1.4-2.7,2.7-4.1,4c-2.7,2.6-5.5,5.2-7.8,8.3c-3.3,4.3-5.7,9.3-6.8,14.5l-0.6,2.6l2.2-1.5
			c2.7-1.9,5.9-4.1,8.8-6.1l2.2-1.5c-3.8,6.2-7.7,12.6-10.3,18.9c-1.9,4.5-3.1,8.9-3.8,13.2l-0.3,1.9l1.7-0.8
			c3.1-1.4,7.2-3.2,10.3-4.5l-1.6,2.5c-4.4,6.8-7.7,14.6-9.9,23.2l-0.4,1.5l1.5-0.2c1.4-0.2,2.8-0.4,4.1-0.7l-0.6,1.6l0,0.1
			c-2.7,9.2-10.9,15.6-18.1,21.2l-5.6,4.4l-0.7,0.6c-2.4,1.9-4.8,3.8-6,6.8c-0.7,1.7-1,3.6-1,5.7l0,2.3l2-1.8c0.6-0.5,1.2-1,1.7-1.5
			c0.5-0.4,0.9-0.8,1.4-1.2c2.2-1.9,4.3-3.8,6.9-5c-1.4,2.4-3.3,4.4-5.4,6.4l0,0c-0.4,0.4-0.9,0.9-1.3,1.3c-1,1-3.2,3.2-4.9,4.9
			l-3.2,3.1l4.2-1.4c3.1-1,6-2.5,8.7-4.3l0.8-0.5c1.7-1.2,3.3-2.3,5.1-3.2c-1.1,1.9-2.6,3.5-4.8,5.2c-1.3,1-2.6,1.9-3.9,2.7
			l-3.7,2.2l4.3-0.3c0.8-0.1,1.6-0.2,2.4-0.3c3.2-0.5,5.5-1.9,7.9-3.3c0.8-0.5,1.7-1,2.6-1.5c-0.7,1.8-2.1,3.1-3.2,3.9
			c-0.6,0.5-1.2,0.9-2,1.3l-2.4,1.4l2.7,0.5c0.9,0.2,1.6,0.2,2.4,0.2c5.1,0,9.2-4,13.2-13c0.5-1.2,1.1-2.4,1.6-3.6l0.2-0.5
			c5.4-12.4,11.6-26.4,26.7-34.3c17.8-9.4,27.6-23.3,29.9-42.8l0.6-5.2l1.2,5.1c0.4,1.5,0.9,3.1,1.4,4.5l0.7,1.8l1.1-1.6
			c11.6-15.9,15.7-31.4,12.6-47.6l-0.9-4.8l2.6,4.2c1.1,1.7,2.2,3.5,3.2,5.1l0.1,0.2c0.1,0.2,0.2,0.3,0.3,0.5l2.4,3.9l-0.4-4.5
			c-1.8-18.3-7.6-34.7-16.9-47.3l-1.9-2.5l2.9,1.1c2.4,0.9,4.8,1.9,7.2,2.8l2,0.8l-0.7-2.1c-2.2-6.7-7.5-19.6-17.6-31.2l-2.7-3.1
			l11.6,5.1l-1-2.4c-2.5-5.9-8.3-17.2-18.5-26.7l-0.5-0.5l-0.6,0.3c-9.5,4.4-19.5,7.9-29.5,10.4l-2.5,0.6l2.2,1.3
			c0.1,0.1,0.2,0.1,0.3,0.2c-1-0.4-2-0.8-3-1.2l-0.3-0.1l-0.3,0.1c-6.9,1.5-13.9,2.6-20.8,3.2l-0.4,0l-0.3,0.3
			c-5.3,6.3-14,9.4-18.7,10.7c-1.2,0.3-4.5,0.5-8.5,0.5l0.2-1.5c2.4,0.2,5.1,0,7.9-0.7c4.4-1.2,10.8-3.5,16-8.3
			c3-2.8,4.8-6.4,5.1-10.6l0.1-0.9l-0.8-0.2c-1.3-0.3-2.5-0.6-3.7-0.9c1.1,0.1,2.2,0.2,3.3,0.4l1.3,0.2l-0.1-1.3
			c-0.1-1-0.2-2-0.4-2.9c-0.1-0.6-0.3-1.2-0.4-1.7l-0.2-0.7l-0.8,0c-1-0.1-2-0.1-2.9-0.1c0.7-0.1,1.5-0.2,2.2-0.2l1.3-0.1l-0.4-1.3
			c-1.7-4.8-4.4-9.3-7.1-13.6l0-0.1c-0.5-0.8-1-1.7-1.6-2.6c5.1,4.2,9.3,10.4,11.2,16.7l0.2,0.7l0.7,0c8.8,0.1,17.1,2.4,22.4,4.3
			c-0.6-0.1-1.3-0.2-1.9-0.4l-0.2,0c-6.4-1.2-12.9-2.4-19.4-3.1l-1.4-0.1l0.3,1.4c0.3,1.6,0.5,3.2,0.5,4.7v0.8l0.8,0.2
			c4.7,1.1,9.6,3,14.6,5.4l0.3,0.2l0.4-0.1c12.1-2.6,23.9-6.7,35.1-12l0.7-0.3c11-5.3,18.6-10.5,22.2-13.1l1.5-1.1l-1.6-0.7
			c-6.8-3-12.4-7.8-13.1-8.3l-2.4-2.1l25.4,4.1l-1.3-2c-5.3-8.1-16.8-13.9-16.9-14l-6.6-3.3l23.3,5.3l-0.8-1.8
			c-10.2-25-29.6-40.9-33.3-43.8l-0.7-0.6l-0.6,0.7c-0.2,0.3-0.5,0.5-0.7,0.8c1.3-2.1,2.5-4.1,3.8-6.1c5.3-8.6,10.9-17.5,14.3-27.4
			c1.7-5.1,4.8-14.6-1.2-20l-0.1,0c-12-8.7-36.3,5.9-54,16.5c-2.9,1.8-5.6,3.4-8,4.7c0.9-0.8,1.8-1.6,2.8-2.5l2.4-2l-14.7,0.9
			l2.7-7.6l-16.2,4.6c-6.9,1.9-14.1,1.9-21,0l-16.2-4.6l2.7,7.6l-14.6-0.9l2.4,2c1,0.8,1.9,1.7,2.8,2.5c-2.4-1.4-5-3-8-4.7l-0.1,0
			c-17.7-10.6-42-25.2-54-16.5l-0.1,0c-5.9,5.3-2.8,14.9-1.2,20c3.4,9.9,9,18.8,14.3,27.4c1.3,2,2.5,4.1,3.8,6.2
			c-0.2-0.3-0.5-0.5-0.7-0.8l-0.6-0.7l-0.7,0.6c-3.8,2.9-23.2,18.8-33.3,43.8l-0.7,1.8l23.3-5.2l-6.5,3.3c-0.1,0.1-11.6,5.9-16.9,14
			l-1.3,2l25.4-4.1l-2.4,2.1c-0.1,0.1-6,5.2-13,8.3l-1.6,0.7l1.5,1.1c7.4,5.4,27.9,18.8,57.5,25.3l0.4,0.1l0.3-0.2
			c5.2-2.6,10.3-4.4,15.2-5.5l0.8-0.2l0-0.8c0-1.5,0.2-3,0.5-4.6l0.3-1.4l-1.4,0.1c-6.8,0.6-13.6,1.9-20.1,3.1l-0.2,0
			c-0.7,0.1-1.3,0.3-2,0.4c7.9-2.7,16.2-4.3,23.2-4.3l0.8,0l0.2-0.7c2-6.4,6.2-12.5,11.2-16.7c-0.5,0.9-1.1,1.7-1.6,2.6l0,0.1
			c-2.6,4.3-5.4,8.8-7.1,13.6l-0.4,1.2l1.3,0.1c0.5,0,1,0.1,1.4,0.2c-0.7,0-1.4,0-2.1,0.1l-0.8,0l-0.2,0.7c-0.2,0.6-0.3,1.1-0.4,1.7
			c-0.2,0.9-0.3,1.8-0.4,2.8l-0.1,1.3l1.3-0.2c0.9-0.1,1.7-0.2,2.6-0.3c-1,0.2-2,0.5-3,0.7l-0.8,0.2l0.1,0.9c0.3,4.2,2.1,8,5.1,10.8
			c5.2,4.8,11.5,7.2,16,8.3c2.8,0.7,5.5,0.9,7.9,0.7l0.2,1.5c-4,0-7.3-0.2-8.5-0.5c-4.7-1.3-13.5-4.4-18.7-10.7l-0.3-0.3l-0.4,0
			c-7.2-0.6-14.3-1.8-21.3-3.3l-0.3-0.1l-2.3,0.9c-0.5,0.2-0.9,0.4-1.4,0.6c0.2-0.1,0.4-0.2,0.6-0.4l2.2-1.3l-2.5-0.6
			c-10.1-2.5-20-6.1-29.5-10.5l-0.6-0.3l-0.5,0.5c-10.4,9.5-16.3,21-18.8,26.9l-1,2.4l11.6-5.1l-2.7,3.1
			c-10.1,11.6-15.4,24.5-17.6,31.2l-0.7,2.1l2.1-0.8c2.4-0.9,4.8-1.8,7.2-2.8l2.9-1.1l-1.9,2.5c-9.4,12.8-15.1,28.7-16.9,47.3
			l-0.4,4.3l2.7-4.1C24,245.9,25.1,244.2,26.2,242.4z M79.8,19.3l0.4,0.2c4.9,3,10,6.1,14.4,9.9c-2.7-1.4-5.3-3-7.8-4.6
			c-2.5-1.5-5-3.1-7.7-4.5l0,0c-0.3-0.2-0.7-0.4-1.1-0.6l-0.1,0c-5.7-3-19-10-24.9-6.7c-1.8,1-2.8,2.9-2.9,5.4
			c-0.1,3.9,1.4,7.8,3,11.1c1.5,3.3,3.4,6.7,5.9,10.4l0.6,0.9c1.2,1.8,2.5,3.7,3.6,5.7c-2.1-1.9-3.7-4.1-5.1-6.1
			c-2.6-3.7-4.6-7.1-6.3-10.3c-1.8-3.6-3.4-7.5-3.4-11.8c0.3-3.3,1.4-5.7,3.5-6.9c1.3-0.7,2.9-1.1,4.8-1.1c4.5,0,9.6,2,12.2,3.2
			C73.2,15.5,77,17.7,79.8,19.3z M100.8,102c-1.1-1-2-2.1-2.7-3.4L98,98.4c-1.5-1.8-3.2-3.1-5-4c1.5-0.8,3.2-2.1,4.5-4.2l0.1-0.2
			c0.4-1.3,1.1-2.4,1.9-3.4c1.9-2.2,4.5-3.6,7.4-3.8c0.2,0,0.4,0,0.5,0c2.6,0,5,0.9,6.9,2.6c1.4,1.2,2.5,2.8,3.2,4.5l0.2,0.3
			c0.6,0.8,1.6,1.8,3.1,2.5c-0.9,0.7-1.9,1.7-2.7,3.1l-0.1,0.3c-0.4,1.7-1.2,3.4-2.3,4.8c-1.9,2.2-4.5,3.6-7.4,3.8
			c-0.2,0-0.5,0-0.7,0C105.1,104.5,102.8,103.6,100.8,102z M134.2,150.1c1.9-0.4,2.9-2.7,3.5-4.3c0.6-1.5,1-3.1,1.3-4.5l0.2-1.1
			l-1.1-0.2c-1.4-0.2-2.6-0.8-3.7-1.6c-2.1-1.6-3.1-3.3-3-5.2c0.2-4.6,6.5-9,9.2-10.7l0.3-0.2l0.2,0.1c2.7,1.7,9,6.2,9.2,10.8
			c0.1,1.9-0.9,3.6-3,5.2c-1.2,0.9-2.7,1.5-4.3,1.7l-1.2,0.1l0.3,1.2c0.3,1.3,0.7,3,1.4,4.5c0.7,1.7,1.8,3.6,3.4,4.1
			c3.4,1,6.1,0,8.5-1.4c-0.4,0.8-1,1.5-1.7,2.1c-1.9,1.5-4.8,2-7.4,1.5c-2.1-0.6-3.7-2.2-4.8-4.7l-1-2.2l-0.9,2.2
			c-1.1,2.5-2.6,4.1-4.6,4.7c-2.4,0.6-5.2,0-7-1.4c-0.6-0.5-1.3-1.2-1.7-2.1C128.5,149.9,131,150.9,134.2,150.1z M153.8,140.6
			c-0.2,0.2-0.6,0.2-0.8,0c-0.1-0.1-0.2-0.2-0.2-0.4c0-0.1,0.1-0.3,0.1-0.4l0,0c0.2-0.2,0.6-0.2,0.8,0
			C154,140,154,140.4,153.8,140.6z M151.6,145.1c-0.2,0.2-0.6,0.2-0.8,0c-0.2-0.2-0.2-0.6,0-0.8c0.1-0.1,0.2-0.2,0.4-0.2h0
			c0.1,0,0.3,0.1,0.4,0.2c0.1,0.1,0.2,0.2,0.2,0.4C151.8,144.9,151.8,145,151.6,145.1z M130.3,145.1c-0.2,0.2-0.6,0.2-0.8,0
			c-0.1-0.1-0.2-0.3-0.2-0.4c0-0.2,0.1-0.3,0.2-0.4c0.1-0.1,0.2-0.2,0.4-0.2l0-0.6l0,0.6c0.2,0,0.3,0.1,0.4,0.2
			C130.5,144.6,130.5,144.9,130.3,145.1z M127.3,139.8L127.3,139.8c0.2-0.2,0.6-0.2,0.8,0c0.1,0.1,0.2,0.2,0.2,0.4
			c0,0.2-0.1,0.3-0.2,0.4c-0.1,0.1-0.3,0.2-0.4,0.2c-0.2,0-0.3-0.1-0.4-0.2c-0.1-0.1-0.2-0.3-0.2-0.4
			C127.2,140.1,127.2,139.9,127.3,139.8z M175.1,82.8c2.9,0.3,5.5,1.6,7.4,3.8c0.8,1,1.5,2.2,1.9,3.4l0.1,0.2c1.2,2,2.9,3.4,4.5,4.2
			c-1.8,0.8-3.5,2.2-5,4l-0.1,0.2c-0.6,1.3-1.5,2.4-2.7,3.4c-1.8,1.5-3.9,2.4-6.2,2.5c-0.2,0-0.3,0-0.5,0c-0.3,0-0.6,0-0.9,0
			c-2.9-0.2-5.5-1.6-7.4-3.8c-1.2-1.4-2-3-2.3-4.8l-0.1-0.3c-0.8-1.4-1.7-2.4-2.7-3.1c1.4-0.7,2.4-1.7,3.1-2.5l0.2-0.3
			c0.7-1.8,1.7-3.3,3.2-4.5c1.9-1.6,4.3-2.5,6.8-2.6C174.5,82.8,174.8,82.8,175.1,82.8z M231,24.3c1.4-5.3,0.9-8.9-1.5-10.8
			c-1.1-0.9-2.7-1.3-4.6-1.3c-8.1,0-21.8,7.6-32.4,13.8c10.5-7.7,26.2-16.9,34.8-15.1c2.6,0.5,4.3,2.1,5.3,4.5
			c2.5,7.1-3.8,18.3-10.3,26.4C225.7,36.2,229,30.5,231,24.3z"/>
		<path class="st0" d="M111,154.5l-0.8-1.7c-0.3-0.6-0.6-1.4-0.9-2.2c-0.3-0.9-0.5-1.9-0.6-3l-0.2-1.2l-1.2,0.4
			c-3.2,1-6.5,2.2-10.6,3.7l-3.4,1.3l3.6,0.7c4.2,0.8,8.3,1.4,12.3,1.8L111,154.5z"/>
		<path class="st0" d="M333.2,371.5l-0.2-0.5c-0.2-0.6-0.4-1.3-0.7-1.9c-8.6-24.2-27.3-45.1-51.3-57.4l-2.3-1.2l0.9,2.5
			c5.8,16,6.3,35.2,1.4,52.6l-0.1,0.1v0.2c-0.2,0.7-0.4,1.3-0.6,1.9l0,0.1c-0.2,0.6-0.4,1.3-0.6,1.9l0,0.1c-0.2,0.7-0.4,1.3-0.7,1.9
			l0,0.1c-0.2,0.7-0.5,1.3-0.8,2l-0.9,2.3l-4.1-12.5l-0.5,4.9c-0.1,1.4-0.3,2.9-0.5,4.6c-0.8,5.8-2,11.6-3.5,17l-0.1,0.4
			c0,0.2-0.1,0.3-0.1,0.5l-0.3,1l1.3,0.4c1.6,0.5,3.5,1,5.3,1.9c1.5,0.7,2.7,1.4,3.7,2.2c0.1,0.1,0.2,0.2,0.3,0.3
			c-2.1-0.3-4.1-0.8-5.8-1.3l-1.4-0.4c-1.5-0.4-3.2-0.8-5-1.2c-1-0.2-1.8-0.3-2.6-0.5c-0.2,0-0.3,0-0.5-0.1l-0.3,0
			c-0.3,0-0.7-0.1-1-0.1c-0.3,0-0.7-0.1-1-0.1c-0.3,0-0.6-0.1-1-0.1l-0.2,0c-0.3,0-0.5-0.1-0.8-0.1c-0.6-0.1-1.1-0.1-1.7-0.2
			c-0.2,0-0.4,0-0.7-0.1l-0.2,0c-0.4,0-0.8-0.1-1.2-0.1c-0.3,0-0.6,0-0.8-0.1c-0.5,0-1-0.1-1.5-0.1l-0.6,0c-0.6,0-1.2,0-1.8,0
			c-0.2,0-0.4,0-0.7,0c-0.5,0-1,0-1.5,0l-0.5,0c-0.7,0-1.3,0-2,0l-0.4,0c-0.6,0-1.1,0-1.7,0.1l-0.5,0c-0.6,0-1.2,0.1-1.9,0.1l-0.2,0
			c-0.7,0.1-1.4,0.1-2,0.2l-0.8,0.1c-0.2,0-0.3,0-0.5,0l-5.1,0.6l0.4,0.1c-1.9,0.3-3.7,0.6-5.5,1c-1.5,0.2-3.5,0.7-4.5,1
			c-1.5,0.3-3,0.7-4.4,1c-1.1,0.3-2.3,0.5-3.4,0.8c2.3-1.2,4.7-2.2,7.3-3.1l3.6-1.2l-3.8-0.8c-7.4-1.5-18.9-3-31.9-2.1
			c-10.7,0.8-20.6,3.1-29.5,6.8l-0.4,0.2c-0.4,0.2-0.8,0.4-1.3,0.5l-0.2,0.1c-0.8,0.3-1.6,0.7-2.3,1.1l-0.5,0.2
			c-0.3,0.2-0.7,0.3-1,0.5c-0.2,0.1-0.4,0.2-0.6,0.3c-0.3,0.2-0.6,0.3-1,0.5c-0.2,0.1-0.4,0.2-0.6,0.3l-0.2,0.1
			c-0.5,0.3-1,0.5-1.5,0.8l-0.1,0.1c-0.2,0.1-0.4,0.3-0.7,0.4c-0.3,0.2-0.6,0.3-0.8,0.5c-0.3,0.2-0.5,0.3-0.8,0.5l-0.2,0.1
			c-0.2,0.1-0.4,0.2-0.6,0.4c-0.5,0.3-0.9,0.6-1.4,0.9c-0.2,0.1-0.3,0.2-0.5,0.3l-0.2,0.2c-0.3,0.2-0.6,0.4-0.9,0.6
			c-0.2,0.2-0.5,0.3-0.7,0.5c-0.3,0.2-0.6,0.4-0.9,0.6l-0.2,0.2c-0.1,0.1-0.3,0.2-0.4,0.3c-0.5,0.3-0.9,0.7-1.3,1.1
			c-0.1,0.1-0.3,0.2-0.4,0.4l-0.2,0.2c-0.3,0.2-0.6,0.5-0.9,0.7c-0.2,0.2-0.4,0.4-0.6,0.5c-0.3,0.3-0.6,0.5-0.9,0.8l-0.2,0.2
			c-0.1,0.1-0.2,0.2-0.4,0.3c-0.4,0.4-0.9,0.8-1.3,1.2c-0.1,0.1-0.3,0.3-0.4,0.4l-0.1,0.1c-0.3,0.3-0.5,0.5-0.8,0.8
			c-0.2,0.2-0.4,0.4-0.6,0.6c-0.3,0.3-0.6,0.6-0.9,0.9c-0.2,0.2-0.4,0.4-0.6,0.7c-0.4,0.4-0.7,0.8-1,1.1c-0.1,0.2-0.3,0.3-0.4,0.5
			l-0.1,0.1c-0.3,0.3-0.5,0.6-0.7,0.9l-0.1,0.1c-0.2,0.2-0.3,0.4-0.5,0.6c-0.3,0.4-0.6,0.7-0.9,1.1l-0.1,0.2
			c-0.1,0.1-0.1,0.1-0.2,0.2L127,424l0,0l-0.2,0.2l4.1-2c2.9-1.4,5.7-2.6,8.5-3.6c5-1.9,9.7-3.2,13.8-3.7c-2.1,0.9-4.2,1.7-6.3,2.5
			l-0.1,0c-4.4,1.7-9,3.5-13.4,5.7h-0.1l-0.1,0.1c-0.7,0.3-1.4,0.7-2.1,1c-0.2,0.1-0.5,0.2-0.7,0.4l-0.3,0.1
			c-0.4,0.2-0.8,0.4-1.2,0.6c-0.4,0.2-0.7,0.4-1.1,0.6c-0.3,0.2-0.6,0.4-1,0.5c-0.4,0.2-0.8,0.5-1.2,0.7c-0.2,0.1-0.4,0.2-0.5,0.3
			l-0.2,0.1c-9.5,5.5-17.8,12.1-24.7,19.4c-8.4,8.8-15,19.2-19.6,30.9l-0.8,2l2.1-0.6c2.1-0.6,4.3-1.2,6.7-1.8
			c17.6-3.8,36.5-3.9,54.5-0.3c3,0.6,7.6,1.7,10.6,2.6c4.8,1.5,9.6,2.8,14.4,3.9l0.1,0c2.2,0.5,4.5,0.9,6.7,1.3l0.1,0
			c1.7,0.3,3.4,0.5,5.1,0.7l0.1,0c0.8,0.1,1.6,0.2,2.5,0.3l0.3,0c1.7,0.2,3.4,0.3,5,0.4l0.4,0c0.8,0,1.6,0.1,2.4,0.1l0.4,0
			c1,0,1.8,0,2.5,0c2.2,0,4.5-0.1,6.7-0.2c10.9-0.7,21-3.4,30-7.8c0.6-0.3,1.3-0.6,1.9-1c0.1-0.1,0.3-0.2,0.4-0.2l0.2-0.1
			c1.6-0.9,3.2-1.9,5-3c1-0.6,2-1.3,3-1.9c0.5-0.3,0.9-0.6,1.4-0.9c-0.9,1.2-1.9,2.3-3.2,3.4c-1.7,1.5-3.7,2.9-6,4.2l-0.2,0.1l0,0
			c-0.2,0.1-0.5,0.3-0.7,0.4l-3.3,1.7l3.1,0.5c6.4,1.1,19.3,2.7,33.7,0.8c19.5-2.6,35.4-10.2,47.6-22.8l-0.3,0.6l3.5-4.1
			c4.2-4.9,7.9-10.5,11-16.7C338.7,417.6,340.6,394.1,333.2,371.5z M281,368L281,368L281,368L281,368z"/>
		<path class="st0" d="M194.7,94.7c-4.1,0.5-7,3.4-8.5,5.1c-0.8,1.6-1.9,3-3.4,4.3c-2.5,2.1-5.6,3.2-8.8,3.2c-0.4,0-0.8,0-1.2-0.1
			c-3.6-0.3-6.9-2-9.3-4.8c-1.5-1.7-2.5-3.8-2.9-6c-1.9-3.6-5.3-4.4-5.3-4.4c3.1-0.3,5-2,5.9-3.2c0.8-2.2,2.2-4.1,4-5.6
			c5.7-4.8,14.4-4.1,19.2,1.6c1.1,1.3,1.9,2.8,2.4,4.3C189.6,93.6,194.7,94.7,194.7,94.7z"/>
		<path class="st0" d="M126.2,92.1c0,0-3.4,0.8-5.3,4.4c-0.5,2.2-1.4,4.2-2.9,6c-2.4,2.8-5.6,4.5-9.3,4.8c-0.4,0-0.8,0.1-1.2,0.1
			c-3.2,0-6.3-1.1-8.8-3.2c-1.4-1.2-2.6-2.7-3.4-4.3c-1.5-1.8-4.4-4.6-8.5-5.1c0,0,5.1-1.1,7.8-5.5c0.5-1.5,1.3-3,2.4-4.3
			c4.8-5.7,13.5-6.5,19.2-1.6c1.8,1.5,3.1,3.5,4,5.6C121.3,90.1,123.2,91.8,126.2,92.1z"/>
	</g>
	<g>
		<path class="st1" d="M228.7,237.6l-0.3-5.3c-0.6-11.1-3.2-27.1-11.9-41c1.7,0.7,3.5,1.5,5.2,2.2l2.4,1l-0.7-2.5
			c-1.2-4.4-4.7-15.5-12.4-25.9c1.2,0.6,2.8,1.3,4.1,2l2.2,1.1l-0.4-2.4c-0.5-3-2.3-10.8-7.1-18.4l-0.5-0.9l-0.9,0.3
			c-4.5,1.6-9.2,3-13.9,4.2l-3,0.8l0.7,0.4l-0.9-0.4l-0.4,0.1c-1.9,0.4-3.8,0.8-5.8,1.2c-0.3,0.1-0.5,0.1-0.8,0.2
			c-4.7,0.9-9.7,1.5-14.6,2l-0.5,0l-0.3,0.4c-5.2,6.3-13.9,9.4-18.6,10.6c-1,0.2-3.3,0.4-6.2,0.5c-0.6,0-1.3,0-2,0
			c-0.1,0-0.2,0-0.3,0c-0.2,0-0.3,0-0.5,0l-0.6,0c-0.2,0-0.3,0-0.5,0c-0.1,0-0.2,0-0.3,0c-0.7,0-1.4,0-2,0c-2.9-0.1-5.2-0.3-6.1-0.5
			c-4.7-1.3-13.4-4.4-18.6-10.6l-0.3-0.4l-0.5,0c-5-0.4-9.9-1.1-14.7-2c-0.3,0-0.5-0.1-0.8-0.2c-2-0.4-3.9-0.8-5.8-1.2l-0.4-0.1
			l-0.9,0.4l0.6-0.4l-3-0.8c-4.7-1.2-9.4-2.6-13.9-4.2l-0.9-0.3l-0.5,0.9c-4.7,7.6-6.5,15.4-7.1,18.4l-0.4,2.4l2.2-1.1
			c1.3-0.6,2.9-1.4,4.1-2C63,176.5,59.4,187.7,58.2,192l-0.7,2.5l2.4-1c2-0.8,3.7-1.5,5.2-2.2c-8.7,13.9-11.3,29.9-11.9,41l-0.3,5.3
			l4.3-7.5c0.4-0.7,0.8-1.4,1.2-2.1c-1.6,13,1.9,25.6,10.8,38.4l1.4,2.1l1.1-3.1c0.3-0.8,0.5-1.6,0.8-2.4c2.1,6.2,11.1,15,26.6,26.1
			l0.3,0.2l0.4,0c0.8,0,1.5-0.1,2.2-0.1h2l-0.9-1.8c-2.2-4.5-4.9-8.9-7.4-13.1c3.2,2.2,7,4.9,10.1,7l2.6,1.8l-0.7-3.1
			c-0.4-2-1-3.8-1.7-5.6c-1.2-3-2.9-6-5.1-9c-2.5-3.4-5.6-6.3-8.6-9.1l-0.1,0c-0.7-0.7-1.5-1.4-2.2-2c-0.1-0.1-0.3-0.3-0.4-0.4
			c0.2,0.1,0.3,0.2,0.5,0.2c11.1,5.9,18.6,17.5,19.6,30.3l0.1,1.5l-9.6-6.6l2.5,4.6c0.9,1.6,1.7,3.2,2.4,4.8l0.1,0.2
			c0.2,0.4,0.4,0.8,0.6,1.3c0.8,1.7,1.4,3.3,2,4.8c0.3,0.9,0.6,1.6,0.8,2.5c1.2,3.9,2,7.8,2.3,11.5l0.1,1.2l-9.6-4.2l1.7,3.2
			c1.4,2.5,2.6,5.1,3.6,7.6c1.8,4.3,3.2,8.9,4.4,14.6c-0.6-0.1-1.3-0.2-1.9-0.2l-3.3-0.4l0.8,2.1c1.3,3.2,3.4,5.7,5.8,8.4
			c3.5,3.5,7.9,7,12.1,10.3l0.3,0.2c1.3,1,2.5,2,3.7,2.9c3.7,2.7,7.5,6.2,8.1,11.5c0.2,1.7,0.2,3.6-0.1,5.9l-0.1,0.6l1.1,1
			c0.3,0.3,0.7,0.6,0.9,0.8c0.1,0.1,0.3,0.3,0.5,0.5c0.2,0.1,0.3,0.3,0.4,0.4l0.2,0.2v1.9l1-0.9l1,1v-2l0.2-0.2
			c0.1-0.1,0.2-0.2,0.3-0.3l0.1-0.1c0.2-0.1,0.3-0.3,0.4-0.4c0.3-0.3,0.6-0.6,0.9-0.9l1-1l-0.1-0.6c-0.3-2.3-0.3-4.2-0.1-5.9
			c0.6-5.3,4.4-8.8,8.1-11.5c1.1-0.9,2.2-1.8,3.4-2.6l0.6-0.5c4.3-3.3,8.7-6.7,12.2-10.3c2.4-2.7,4.6-5.2,5.8-8.4l0.8-2.1l-3.4,0.4
			c-0.6,0.1-1.2,0.1-1.9,0.2c1.3-5.7,2.7-10.3,4.4-14.6c1-2.5,2.2-5.1,3.6-7.6l1.7-3.2l-9.6,4.2l0.1-1.2c0.3-3.7,1-7.6,2.3-11.5
			c0.2-0.7,0.5-1.5,0.8-2.4c0.5-1.5,1.2-3.1,2-4.8c0.2-0.3,0.3-0.7,0.5-1.1l0.2-0.4c0.7-1.6,1.5-3.2,2.4-4.8l2.5-4.6l-9.6,6.6
			l0.1-1.5c1-12.8,8.5-24.4,19.6-30.3c0.2-0.1,0.3-0.2,0.5-0.2c-0.1,0.1-0.3,0.3-0.4,0.4c-0.5,0.5-1.1,1-1.6,1.5l-0.6,0.6
			c-3,2.8-6.1,5.7-8.6,9.1c-2.2,2.9-3.9,5.9-5.1,9c-0.7,1.8-1.3,3.7-1.7,5.6l-0.7,3.1l12.7-8.8c-2.6,4.2-5.2,8.6-7.4,13.1l-0.9,1.8
			h2c0.7,0,1.4,0,2.2,0.1l0.4,0l0.3-0.2c15.5-11.2,24.5-20,26.6-26.1c0.2,0.8,0.5,1.6,0.8,2.4l1,3.1l1.4-2.1
			c8.8-12.8,12.3-25.4,10.8-38.4c0.4,0.7,0.8,1.4,1.2,2.1L228.7,237.6z M170.4,226.5c0-3.3-0.9-6.2-2.7-8.3c-1.5-1.8-4-2.9-6.5-3
			l-0.1,0c-2,0-3.8,0.7-5,2.1c-1.9,2-2.3,5.3-1.3,8.6c0.6,1.9,1.5,3.6,2.4,5.2c0.4,0.7,0.8,1.5,1.2,2.3c4.8,9.7,3.3,22.2-3.5,30.8
			c1.9-5.1,1.6-9.1-0.7-11.9c-4-4.9-12-3.5-17.5,0.7c-2.6,2-6.9,6.2-7.1,11.7c-0.1,4.3,2.1,7.9,4.3,11.5c0.6,1,1.3,2.1,1.9,3.2
			c2.3,4.2,3.6,9,3.8,13.9c-1.4-2.5-3.6-4.7-5.8-6.9c-0.5-0.5-1-1-1.4-1.5c-5-5.2-8.9-11.5-11.2-18.3c-2.1-6.3-2.3-11.6-0.5-15.9
			c1.2-3,3.4-5.5,5.6-7.9c0.3-0.4,0.7-0.8,1-1.2c2.6-3,5.1-6.4,5.7-10.5c0.6-4-1.5-9.1-5.8-10.2c-0.6-0.2-1.2-0.2-1.8-0.2
			c-2.4,0-5,1.2-6.8,3.3c-1.9,2.1-2.8,4.7-3.4,6.7c-5.4-5.9-7.3-14.6-4.9-22.2c4.3-13.3,20.2-17.9,33.7-17.6
			c10.1,0.2,19.6,4.8,24.7,12.2C173.4,209.8,174.1,219.4,170.4,226.5z"/>
		<path class="st1" d="M230,125.1c-2.2-1-4.2-1.9-6.1-2.9l-0.5-0.2c-0.4-0.2-0.9-0.5-1.3-0.7c-13.2-7.1-15.9-12.3-16.4-13.5l8.9-0.1
			l-0.4-0.4c-5.6-5.3-14.2-7-16.5-7.3l5.1-3.1l-0.3-0.2c-1.1-0.7-2.8-2.2-4.7-3.9c-4.2-3.7-9.6-10-15.7-12.8
			c-7.2-3.4-13.4-1.7-18.1,2.7c-1.4,1.3-2.7,2.4-3.8,3.2c-0.5,0.3-0.9,0.6-1.2,0.8c-0.4,0.3-0.8,0.5-1.3,0.7
			c-0.4,0.2-0.9,0.4-1.4,0.6c-1.9,0.7-5.9,2.1-7,2.5c0-0.3,0-0.7,0-1.2c0-1.6-0.1-4.3-0.2-7.7c0,0,0.1,0,0.1,0l0.2,0l0-0.2
			c-0.2-7.9-0.6-15.2-0.9-21.7c0-0.3,0-0.4,0.2-0.5c0.5-0.3,2.2,0.8,3.3,1.6l0.3,0.3l0-0.4c0.3-5.2-1.8-9.1-3.4-12
			c-0.7-1.3-1.3-2.4-1.4-3.2c0-0.1,0-0.2,0-0.2c0.3-0.2,1.8,0.6,3,1.4L151,47l0-0.5c-0.4-3.9-2.1-6.9-3.3-9c-0.7-1.1-1.2-2-1.3-2.7
			c0-0.1,0-0.2,0.1-0.2c0.3-0.2,1.5,0.1,2.2,0.3l0.3,0.1l0-0.4c-0.2-1.8-1.3-3.2-2.3-4.6c-0.6-0.8-1.2-1.6-1.5-2.4
			c-0.7-1.5-1.2-3-1.6-4.1c-0.8-2.2-1.2-3.5-2.3-3.4c-0.1,0-0.2,0-0.3,0c-0.1,0-0.2,0-0.3,0c-0.2,0-0.4,0-0.6,0.1
			c-0.7,0.4-1.1,1.5-1.7,3.3c-0.4,1.1-0.9,2.6-1.6,4.1c-0.4,0.8-0.9,1.6-1.5,2.4c-1,1.4-2,2.8-2.3,4.6l0,0.4l0.3-0.1
			c0,0,0.9-0.3,1.6-0.4c0.1,0,0.1,0,0.2,0c0.3,0,0.4,0,0.5,0.1c0,0,0,0.1,0,0.2c-0.1,0.5-0.4,1.2-0.7,1.7c-0.2,0.3-0.3,0.6-0.5,1
			c-1.2,2.1-2.9,5.1-3.3,9l0,0.5l0.4-0.3c0,0,0.5-0.4,1.1-0.7c0.9-0.5,1.6-0.8,1.9-0.8c0.1,0,0.1,0,0.1,0.1c0,0,0,0.1,0,0.2
			c-0.1,0.8-0.7,1.8-1.4,3.2l-0.3,0.5c-0.2,0.4-0.4,0.8-0.6,1.2c-0.6,1.1-1.4,2.9-1.9,4.9c-0.5,1.8-0.6,3.6-0.5,5.3l0,0.4l0.3-0.3
			c0,0,0.4-0.3,0.9-0.6c0.5-0.4,1-0.6,1.4-0.8c0.5-0.2,0.8-0.3,1-0.2c0.1,0,0.2,0.1,0.2,0.5l-0.1,1.4c0,0.2,0,0.5,0,0.7
			c0,0.3,0,0.5,0,0.8l0,0.1c0,0.2,0,0.4,0,0.6l-0.1,2.2c0,0.2,0,0.4,0,0.6l0,0.8c0,0.2,0,0.4,0,0.6c0,0.3,0,0.5,0,0.8l-0.1,2.7
			c0,0.2,0,0.4,0,0.6l-0.2,3.9c-0.1,1.7-0.1,3.3-0.2,4.9c-0.1,3.8,0,6.6,0.1,8.3c0,0.6,0,1,0,1.4c-1.1-0.5-5-2.1-6.9-2.8
			c-0.2-0.1-0.3-0.1-0.5-0.1c-0.3-0.1-0.6-0.2-0.9-0.3c-0.2-0.1-0.4-0.3-0.6-0.4c-0.2-0.1-0.4-0.3-0.6-0.4c-0.2-0.1-0.5-0.2-0.8-0.3
			c-0.3-0.1-0.7-0.2-0.9-0.3c-0.7-0.5-1.4-1.2-2.3-2c-0.4-0.4-0.8-0.8-1.3-1.3c-10.9-10.3-26.4,3.4-34.7,10.8c-2,1.8-3.6,3.2-4.8,4
			L78,97l5.1,3.1c-2.4,0.4-10.9,2-16.5,7.3l-0.4,0.4l8.9,0.1c-0.5,1.2-3.1,6.5-16.4,13.5c-0.4,0.2-0.9,0.5-1.3,0.7l-0.5,0.2
			c-1.9,1-3.9,1.9-6.1,2.9l-0.3,0.1l0.2,0.2c0.1,0.1,8.5,10.4,23.7,19c3.5,2,7.2,3.7,10.9,5.2l0.1,0c0,0,0.1,0,0.1,0l0.1,0
			c1.6,0.4,3.3,0.8,5.6,1.3l0.2,0l0.2-0.1c1.4-0.7,2.7-1.3,4-1.8c0,0.1,0,0.2,0,0.3l0,0.1c0,0.3-0.1,0.7-0.1,1.1c0,0.2,0,0.3,0,0.5
			c0,0.4,0,0.7,0,1.1c0,0.2,0,0.4,0,0.6l0,0.2l0.4,0.1c1,0.3,2.1,0.5,3.4,0.8c1.2,0.3,2.3,0.5,3.4,0.7c0.4,0.1,0.9,0.2,1.3,0.2
			l0.2,0c0.4,0.1,0.7,0.1,1.1,0.2c0.5,0.1,0.9,0.1,1.4,0.2c0.4,0.1,0.9,0.1,1.3,0.1c0.7,0,1.4-0.1,2.1-0.3c0.1,0,0.2-0.1,0.3-0.1
			c0.3-0.1,0.6-0.2,1-0.4l0.2-0.1c0.1-0.1,0.2-0.1,0.3-0.2c0,0,0.1,0,0.1-0.1c0,0,0,0,0.1,0l0.1-0.1l0-0.1c0-0.2-0.1-0.3-1.1-1.3
			c-0.3-0.3-0.9-0.9-1-1c0-0.4,0-1.5-0.3-5.6c-0.2-2.3-0.4-5-0.4-5.7c0.8-0.3,1.1-2.4,1.1-3.1l0-0.2l-0.2,0c-0.2,0-0.3,0-0.3,0
			c0,0,0,0-0.1,0c1.2-3.4,3.1-6.2,5.5-9.4c0.1-0.1,0.2-0.3,0.4-0.6c0.8-1.3,2.6-3.9,4.6-5.2l0-0.1l0.1,0.1l0,0h0c0,0,0,0,0,0v0
			c0.1-0.1,0.4-0.5,0.8-1.1c0.3-0.4,0.5-0.8,0.6-0.9c1.3-1.1,17.3,3.5,18.1,4.3l0.1,0.1h0.5l0.1,0l0.1-0.1
			c0.8-0.9,16.9-5.4,18.1-4.3l1,0.9l-0.8-1.4c2.2,1.6,4.3,3.5,6.2,5.8c0,0,0.1,0.1,0.1,0.1c0.4,0.4,0.8,1,1.4,1.7
			c2.3,3.1,4.2,6.6,5.4,10.1l-0.3,0c-0.4,0-0.8,0.1-1.3,0.1l-0.2,0l0,0.2c0.1,0.7,0.3,2.8,1.1,3.1c0,0.7-0.2,3.4-0.4,5.7
			c-0.3,4.2-0.4,5.3-0.3,5.6c-0.1,0.2-0.6,0.7-1,1c-1,1-1.1,1.1-1.1,1.3l0,0.1l0.1,0.1c0,0,0,0,0,0c0,0,0.1,0,0.1,0
			c0.1,0.1,0.2,0.1,0.4,0.2l0.2,0.1c0.3,0.2,0.7,0.3,0.9,0.4c0.1,0,0.2,0.1,0.3,0.1c0.7,0.2,1.4,0.3,2.1,0.3c0.5,0,0.9,0,1.3-0.1
			c0.5-0.1,0.9-0.1,1.4-0.2c0.4-0.1,0.7-0.1,1.1-0.2l0.2,0c0.4-0.1,0.9-0.2,1.3-0.2c1.1-0.2,2.2-0.4,3.4-0.7
			c1.3-0.3,2.4-0.6,3.4-0.8l0.4-0.1l0-0.2c0-0.2,0-0.4,0-0.7c0-0.4,0-0.7,0-1.1l0-0.1c0-0.2,0-0.3,0-0.5c0-0.4-0.1-0.7-0.1-1.1
			c0-0.1,0-0.2,0-0.2c1.3,0.5,2.6,1.1,4,1.8l0.2,0.1l0.2,0c2.2-0.5,4-0.9,5.6-1.3l0.1,0c0,0,0.1,0,0.1,0l0.1,0
			c3.7-1.5,7.4-3.2,10.9-5.2c15.2-8.5,23.7-18.9,23.7-19l0.2-0.2L230,125.1z M120.9,96.5c-0.5,2.2-1.4,4.2-2.9,6
			c-2.4,2.8-5.6,4.5-9.3,4.8c-0.4,0-0.8,0.1-1.2,0.1c-3.2,0-6.3-1.1-8.8-3.2c-1.4-1.2-2.6-2.7-3.4-4.3c-1.5-1.8-4.4-4.6-8.5-5.1
			c0,0,5.1-1.1,7.8-5.5c0.5-1.5,1.3-3,2.4-4.3c4.8-5.7,13.5-6.5,19.2-1.6c1.8,1.5,3.1,3.5,4,5.6c1,1.2,2.9,3,5.9,3.2
			C126.2,92.1,122.8,92.9,120.9,96.5z M186.2,99.8c-0.8,1.6-1.9,3-3.4,4.3c-2.5,2.1-5.6,3.2-8.8,3.2c-0.4,0-0.8,0-1.2-0.1
			c-3.6-0.3-6.9-2-9.3-4.8c-1.5-1.7-2.5-3.8-2.9-6c-1.9-3.6-5.3-4.4-5.3-4.4c3.1-0.3,5-2,5.9-3.2c0.8-2.2,2.2-4.1,4-5.6
			c5.7-4.8,14.4-4.1,19.2,1.6c1.1,1.3,1.9,2.8,2.4,4.3c2.7,4.5,7.8,5.5,7.8,5.5C190.6,95.2,187.7,98.1,186.2,99.8z"/>
		<path class="st1" d="M229.8,313l-1-1.7l-1.1,1.6c-5,6.9-12,12.7-20.8,17.3c-14.6,7.7-20.4,20.8-26,33.6c-0.6,1.4-1.2,2.8-1.8,4.1
			c-5.5,12.3-10.4,13.9-14,13.9c-2,0-4.2-0.6-6-1.2c-0.8-0.2-1.5-0.5-2.3-0.7l-0.3-0.1l-0.3,0.1c-2.2,0.5-4.5,0.6-6.8,0.3
			c-1.4-0.1-2.8-0.4-4.3-0.8l-0.3-0.1l-0.3,0.1l-0.3-0.1l-0.6,0.1c-0.1,0-0.2,0.1-0.4,0.1c-0.1,0-0.1,0-0.2,0
			c-0.5-0.1-0.9-0.2-1.2-0.5l-0.8-0.6l-0.3,0.2l-0.3-0.2l-0.8,0.6c-0.4,0.3-0.8,0.5-1.2,0.5c-0.1,0-0.2,0-0.2,0
			c-0.1,0-0.2-0.1-0.4-0.1l-0.5-0.1l-0.3,0.1l-0.3-0.1l-0.3,0.1c-1.5,0.4-2.9,0.6-4.4,0.8c-2.3,0.2-4.6,0.1-6.8-0.3l-0.3-0.1
			l-0.3,0.1c-0.8,0.2-1.6,0.4-2.3,0.7c-1.8,0.6-4,1.2-6,1.2c-3.6,0-8.5-1.6-14-13.9c-0.6-1.4-1.2-2.7-1.8-4.1
			c-5.6-12.7-11.4-25.9-26-33.6c-8.8-4.6-15.8-10.5-20.8-17.3l-1.1-1.6l-1,1.7c-10.2,17.7-12,43-4.8,65.9l1.2,3.9l3.8-12.8
			c1.1,14.5,5.2,35,18.4,52.1l2,2.6l0.8-11.3c4.6,12.7,14,24.4,17.9,28.9l0.2,0.3l0.4,0.1c1.7,0.5,3.3,1.5,4.6,3.1l0.9,1.1l1-1
			c3.3-3.6,7-6.9,10.8-9.9c3.9-3.1,9-6.5,14.3-9.5l0.3-0.1l0.2-0.2c4.9-7.2,10.7-13.6,17.2-18.8c0.1,0.1,0.3,0.2,0.4,0.3l0.7,0.5
			l0.5-0.6c0.1-0.1,0.1-0.1,0.2-0.2c2.6-2.5,5.8-4,8.6-5.1c2.1-0.9,4.3-1.8,6.3-2.8l0.1,0c1.1-0.5,2.2-1,3.4-1.5
			c5.7-2.5,13.3-5.5,21.4-6.8c13.1-2,27.7-1.1,42.2,2.7l0.8,0.2l0.2-0.8c2.1-7.3,3.5-15.1,4.1-23.2l3.8,12.8l1.2-3.9
			C241.8,356,240,330.7,229.8,313z"/>
		<path class="st1" d="M71.8,460.2l-0.3-3.2l-1.3,2.9c-2.9,6.5-7.1,12.9-8.8,12.3c-2.1-0.8-2.7-7.2-2.5-11.5l0.2-3.3l-1.8,2.8
			c-2.2,3.5-5.4,7.4-6.7,7.4c-1.2,0-2.7-3.7-3.5-7.1l-0.5-2.4l-2.9,5.8l1.4,6.4l5.5,4.3l3.8-1.8l0.8,3.3l8.2,1.5l0.1,0l6.7-3.6
			l2.1,3.5l6.8,2l1.4-5.9l-0.9-0.2C73.1,472.1,71.8,460.3,71.8,460.2z"/>
		<path class="st1" d="M182.6,33.9c11.9-5.2,31.7-11.9,34.4-7.5c3.9,6.2-1.8,23.3-1.8,23.4l-1.6,4.8l3.1-4
			c0.6-0.8,14.6-18.8,16-26.4c1.4-7.6,0-10.6-0.1-10.7l-0.1-0.3l-7.5-3l-14.5,4.4L197.5,22l-15.9,10.4l0.8,1.5L182.6,33.9z"/>
		<path class="st1" d="M65.2,50.6l3.1,4l-1.6-4.8c-0.1-0.2-5.7-17.2-1.8-23.4c2.7-4.4,22.5,2.3,34.4,7.5l0.2,0.1l0.8-1.5L84.4,22
			l-13-7.3l-14.6-4.5l-7.5,3l-0.1,0.3c-0.1,0.1-1.5,3.1-0.1,10.7C50.6,31.8,64.6,49.8,65.2,50.6z"/>
	</g>
	<g>
		<path class="st2" d="M56.8,142.9c0,0-12.2,17-14.4,22.4l9.6-2c0,0-17,24.5-19.5,33.4l9.8-1.3c0,0-16.9,28.5-17.3,42.9l5.9-5.4
			c0,0-6.4,33.1,9.7,52.4l4.4-9.8c0,0,1.8,33.8,31.7,52.8h-4.7l-19.9-18.4l-7.8-20l-2.6,3.5c0,0-11.8-14.7-14.7-28.4
			c-2.9-13.7-1-19.9-1-19.9l-6.1,8.6c0,0,1.5-32.1,14.7-51.3l-8.6,1c0,0,10.1-27,15.6-32.4l-6.3,1.3
			C35.2,172.2,45.1,145.4,56.8,142.9z"/>
		<path class="st2" d="M31.4,281.7c0,0-31.8,26.6-24,76.4l5.9-11.1c0,0,3.3,44.4,15,61.6l3.6-11.4c0,0,11.6,30.6,26.3,43.8l-3.2,1.9
			l-3.5-1.1l-17.9-30.6l-1.3,8.2l-7-7.4l-11.8-30.3L12,364.3l-5.8,6.6l-2.7-8.6c0,0-8.2-37.9,7.9-60.2S31.4,281.7,31.4,281.7z"/>
		<path class="st2" d="M48.4,451.2c0,0,9.1-8.4,12,0c0,0,4.9-5.6,6.9-4.5c2,1.1,4.2,7.6,4.2,7.6s4.8-12.7,7.8-9.2s5.5,10.3,5.5,10.3
			s3-9.4,5.8-7.5c2.8,1.9,3.5,2,3.5,2l2.2-2.6l-6.3-4.6l-5.1,2.4l-3.9-4.3h-5.5l-2.6,2.8l-4.8-2.1l-6.4,3.2l-6.6-1.7L48.4,451.2z"/>
		<path class="st2" d="M222.6,393.5c-14.3-2.4-27.5-1.7-39.2,0.8c-32,6.7-52.4,26-53.2,26.7c34-41.3,75.1-33,88.2-29
			C221.1,392.9,222.6,393.5,222.6,393.5z"/>
		<g>
			<path class="st2" d="M169.1,30.9c0,0,6.4-2.2,14.1-6c6-3,14.1-6.4,20.2-9.6C222.3,5.2,229.8,6,233,10c5.6,7.1,0,21.8-8.4,35.2
				c-7.3,11.7-9.1,19-9.1,19s20.3-22.9,25.1-43.9c4.9-21.1-20.4-18-20.4-18l-36.5,18.2L169.1,30.9z"/>
			<path class="st2" d="M112.8,30.9c0,0-6.4-2.2-14.1-6c-6-3-14.1-6.4-20.2-9.6C59.6,5.2,52.1,6,48.9,10c-5.6,7.1,0,21.8,8.4,35.2
				c7.3,11.7,9.1,19,9.1,19S46.2,41.3,41.3,20.2s20.4-18,20.4-18l36.5,18.2L112.8,30.9z"/>
			<path class="st2" d="M103.1,23.3l9.7,7.5l-2.9-5.3l8.6-1.2l-0.3-4.9c0,0,2.6,1,6.6,2.1c8.4,2.4,19.8,6,38.9-2.4l-0.3,5.1l7.7,1.4
				l-2,5l11.5-7.8l-13.6-1.6l2-6.5l-24.6,6l-7.7-0.1l-24-6.3l2.6,6.5L103.1,23.3z"/>
			<path class="st2" d="M221.1,59.1c0,0,24.3,25.5,28.5,39.6l-25-2.8l24.7,17.2l-20.8-0.8l29.5,7.5l-1.4-4.5l-11.8-11.6l3.9-0.4
				l9.3,1.9C258,105.2,239.2,62.2,221.1,59.1z"/>
			<path class="st2" d="M60.8,59.1c0,0-24.3,25.5-28.5,39.6l25-2.8l-24.7,17.2l20.8-0.8l-29.5,7.5l1.4-4.5L37,103.6l-3.9-0.4
				l-9.3,1.9C23.9,105.2,42.7,62.2,60.8,59.1z"/>
			<path class="st2" d="M224.2,142.9c0,0,12.2,17,14.4,22.4l-9.6-2c0,0,17,24.5,19.5,33.4l-9.8-1.3c0,0,16.9,28.5,17.3,42.9
				l-5.9-5.4c0,0,6.4,33.1-9.7,52.4l-4.4-9.8c0,0-1.8,33.8-31.7,52.8h4.7l19.9-18.4l7.8-20l2.6,3.5c0,0,11.8-14.7,14.7-28.4
				c2.9-13.7,1-19.9,1-19.9l6.1,8.6c0,0-1.5-32.1-14.7-51.3l8.6,1c0,0-10.1-27-15.6-32.4l6.3,1.3
				C245.9,172.2,235.9,145.4,224.2,142.9z"/>
			<path class="st2" d="M250.4,280.2c0,0,38.2,25.1,26.9,80.4l-6.6-13.6c0,0-3.9,33.4-8.5,43.1l4.9,3.7l5.8-32.9l4.6,12.5
				c0,0,9.7-27.4,4.5-47.2c-5.2-19.7-11.2-29-11.2-29S258.1,281.1,250.4,280.2z"/>
		</g>
		<g>
			<path class="st2" d="M171,138.4c0-11.2-10.9-21.5-17.9-22.9c-8.5-1.6-12.1,5.7-12.1,5.7s-5-7.5-12.7-5.5
				c-9.1,2.3-16.7,15.1-17.3,22.7c-0.4,4.4-0.6,10.9,1,14.6c4.1,9.7,19,14,29.1,14c10.1,0,25-4.3,29.1-14
				C171.6,149.3,171,142.8,171,138.4z"/>
			<path class="st2" d="M132.7,67.8c0,0-17.1-0.9-30.6,4.7C83.4,80.2,72,90.8,64.9,97l-1.8,1.5l2.4-0.2c1.6-0.1,4.1,0,5.5,0.6
				c-2.7,1-8.8,3.8-13,9.1l-0.5,0.7l0.7,0.5c2.9,1.9,5,2.7,7.9,3.6c-1.6,1.9-5.4,6.5-6.8,8.2l-1.2,1.4c0.6-0.3,1.2-0.6,1.8-0.9
				c15.4-8.2,16.6-13.9,16.6-13.9l-8.7,0c6.5-6.2,17-7.3,17-7.3l-5.4-3.2c5.9-3.9,24.1-28,38.2-14c1.4,1.4,2.7,2.5,3.8,3.3
				c4.6,3.8,11.8,4.6,11.8,4.6S137,72.9,132.7,67.8z"/>
			<path class="st2" d="M149,67.9c0,0,17.1-0.9,30.6,4.7c18.7,7.7,30,18.3,37.2,24.5l1.8,1.5l-2.4-0.2c-1.6-0.1-4.1,0-5.5,0.6
				c2.7,1,8.8,3.8,13,9.1l0.5,0.7l-0.7,0.5c-2.9,1.9-5,2.7-7.9,3.6c1.6,1.9,5.4,6.5,6.8,8.2l1.2,1.4c-0.6-0.3-1.2-0.6-1.8-0.9
				c-15.4-8.2-16.6-13.9-16.6-13.9l8.7,0c-6.5-6.2-17-7.3-17-7.3l5.4-3.2c-5.9-3.9-23.9-28.2-38.2-14c-1.4,1.4-2.7,2.5-3.8,3.3
				c-4.6,3.8-11.8,4.6-11.8,4.6S144.7,72.9,149,67.9z"/>
		</g>
		<g>
			<path class="st2" d="M174.5,83.7c-2.4,0-4.6,0.8-6.4,2.3c-0.4,0.4-0.8,0.8-1.2,1.2l0.5,0.5c2.8-2.3,7-2,9.4,0.7
				c-1,0.1-1.9,0.5-2.7,1.1c-1,0.8-1.6,2-1.7,3.3c-0.1,1.3,0.3,2.5,1.1,3.5c0.7,0.8,1.6,1.4,2.7,1.6c0,0-0.1,0-0.1,0.1
				c-1.4,1.2-3.1,1.7-4.9,1.6c-1.8-0.2-3.4-1-4.6-2.4c-0.4-0.5-0.8-1-1-1.7l-0.7,0.2c0.4,1.5,1.1,2.9,2.1,4.1c1.7,2,4.1,3.3,6.8,3.5
				c0.3,0,0.6,0,0.9,0c2.3,0,4.6-0.8,6.4-2.4c2-1.7,3.3-4.1,3.5-6.8v0c0.2-2.7-0.6-5.2-2.3-7.3C180.2,85,177.4,83.7,174.5,83.7z"/>
			<path class="st2" d="M101,101.3c1.8,1.5,4.1,2.4,6.4,2.4c0.3,0,0.6,0,0.9,0c2.7-0.2,5.1-1.5,6.8-3.5c1-1.2,1.7-2.6,2.1-4.1
				l-0.7-0.2c-0.3,0.6-0.6,1.2-1,1.7c-1.2,1.4-2.8,2.2-4.6,2.4c-1.8,0.1-3.5-0.4-4.9-1.6c0,0-0.1,0-0.1-0.1c1-0.2,2-0.8,2.7-1.6
				c0.8-1,1.2-2.2,1.1-3.5c-0.1-1.3-0.7-2.5-1.7-3.3c-0.8-0.7-1.7-1.1-2.7-1.1c2.4-2.7,6.6-3.1,9.4-0.7l0.5-0.6
				c-0.4-0.5-0.8-0.9-1.2-1.2c-1.8-1.5-4.1-2.4-6.4-2.4c-2.9,0-5.7,1.3-7.6,3.5C96.3,91.4,96.8,97.7,101,101.3z"/>
		</g>
		<path class="st2" d="M280.1,397.8c-5.6,0-18.2-2.5-31.3-2.4h0c-0.4,0-0.7,0-1.1,0c-16.7,0.3-28.5,1.9-31,2.3c0,0,0,0,0,0
			c-0.3,0.1-0.5,0.1-0.5,0.1C252.5,381.6,280.1,397.8,280.1,397.8z"/>
		<path class="st2" d="M323.2,447.9c-30.8,50-88.4,35.3-88.4,35.3l-2.5-2.3c4.2,0.3,8.3,0.4,12.2,0.3c39.8-0.4,62.6-16.1,75.2-34.6
			c7.9-11.7,11.8-24.4,13.3-35.1c3-20.8-1.4-38.5-8.7-52.8c-15.3-30-43.4-45.5-44-45.8c1.5,0.4,2.9,1,4.3,1.5
			c27.1,11.1,44.7,45.3,44.7,45.3S354.1,397.9,323.2,447.9z"/>
		<path class="st2" d="M244.6,469.3c-0.3,0.3-11.3,10.4-28.3,15.8c-17.3,5.5-47,0.5-73.6-6.5c-26.5-7-64.4,3.5-64.4,3.5l1.2-1.4
			l-1.2,0.4l9.3-19.7c21.4-34.1,68.6-47.3,69.5-47.6c-13.6,5.4-24.7,11.5-33.7,17.8c-27.1,18.9-36,39-37.5,42.9
			c24.4-8.8,43-4.4,70.8,1.8c0.5,0.1,0.9,0.2,1.4,0.3c4.5,1,9.3,2.1,14.3,3.3C208.8,488.5,244,469.6,244.6,469.3z"/>
	</g>
	<path class="st3" d="M172.4,453.1c-17.1-1.9-31.8-0.4-42.1,4.6c0,0,7.7-1.4,15.3,5.8c4.7,4.5,7.2,8.8,12.5,13.2
		c-0.5-0.1-1-0.2-1.4-0.3c-27.8-6.2-46.4-10.7-70.8-1.8c1.5-3.8,10.4-24,37.5-42.9c3.1-0.3,6.7-0.3,10,0.5
		c-8.6,3.6-16.1,9.7-21.4,17.3C131.6,442.9,151.1,440.1,172.4,453.1z M230,24c-3,9.4-9,17.6-14,26c7.6-6.7,21.3-24.5,17.6-35.1
		c-6.6-16.9-43.9,10.5-51.3,18.1C190.6,29.1,237.2-3.1,230,24z M154.5,141.3c0.6-0.6,0.6-1.6,0-2.3c-0.6-0.6-1.6-0.6-2.3,0
		c-0.6,0.6-0.6,1.6,0,2.3C152.9,142,153.9,142,154.5,141.3z M158.2,92.3c2.7-0.2,4.3-1.8,5.2-2.8c0.7-1.9,1.9-3.6,3.5-4.9
		c2.4-2.1,5.5-3,8.7-2.8c3.2,0.3,6,1.8,8.1,4.2c1,1.1,1.7,2.4,2.1,3.8c2.3,3.9,6.8,4.8,6.8,4.8c-3.6,0.4-6.1,2.9-7.4,4.5
		c-0.7,1.4-1.7,2.7-2.9,3.7c-2.2,1.8-4.9,2.8-7.7,2.8c-0.3,0-0.7,0-1,0c-3.2-0.3-6-1.8-8.1-4.2c-1.3-1.5-2.2-3.3-2.6-5.2
		C161.2,93,158.2,92.3,158.2,92.3z M165.2,95.9c0.3,1.4,1,2.8,2,4c1.6,2,4,3.1,6.5,3.4c2.5,0.2,5-0.6,7-2.2c2-1.6,3.1-4,3.4-6.5
		c0.2-2.5-0.6-5-2.2-7c-1.9-2.2-4.6-3.4-7.3-3.4c-2.2,0-4.4,0.7-6.2,2.3c-0.4,0.4-0.8,0.8-1.2,1.2c3-2.5,7.5-2.1,10,0.9
		c0.1,0.2,0.3,0.3,0.4,0.5c-1.1-0.1-2.3,0.2-3.3,1c-1.9,1.6-2.1,4.4-0.5,6.3c0.8,1,2,1.5,3.2,1.6c-0.2,0.2-0.4,0.5-0.7,0.7
		c-3,2.5-7.5,2.2-10.1-0.8C165.8,97.1,165.4,96.5,165.2,95.9z M150.1,143.6c-0.6,0.6-0.6,1.6,0,2.3c0.6,0.6,1.6,0.6,2.3,0
		c0.6-0.6,0.6-1.6,0-2.3C151.7,143,150.7,143,150.1,143.6z M135.3,153.1c2.7-0.8,4.3-2.8,5.4-5.3c1.1,2.5,2.8,4.5,5.5,5.3
		c4.9,1.1,10.8-1.4,11-6.8c-3.3,2.4-6.1,3.7-9.9,2.7c-1.3-0.4-2.2-2.2-2.8-3.5c-0.5-1.3-1-2.8-1.3-4.3c1.8-0.2,3.5-0.8,4.9-1.9
		c9-6.9-2-15-6.3-17.7l-0.8-0.4l-0.8,0.4c-4.3,2.7-15.3,10.8-6.3,17.7c1.2,0.9,2.6,1.5,4.1,1.8c-0.4,1.5-0.7,3-1.3,4.3
		c-0.6,1.4-1.4,3.3-2.8,3.7c-3.5,0.9-6-0.5-9.2-2.8C124.8,151.5,130.5,154.3,135.3,153.1z M330.1,440.8
		c-16.3,32.2-43.8,42-64.1,44.7c-5.1,0.7-9.9,0.9-14.4,0.9c-13,0-22.8-2.2-25.3-2.8c-6.1,2.5-12.5,4.2-18.9,5.2
		c-14.7,2.3-29.7,1.1-44.1-2.4c-7-1.8-13.9-4.2-20.9-5.5c-16.6-3.4-33.8-3.7-50.5-0.8c-5.6,1-11.4,2.3-16.7,4.5
		c0.4-1.4,0.9-2.8,1.4-4.2c-2.6-0.6-5-2.6-6.8-5.7c-3.2,3.3-6.9,4.7-10.2,3.8c-2.1-0.5-3.9-1.9-5.3-4c-1.7,0.7-3.4,0.9-5,0.5
		c-2.5-0.6-4.5-2.6-5.7-5.5c-0.4-0.9-0.7-1.9-0.9-3c-0.2-1.2-0.4-2.6-0.4-4.1c0-2.3,0.3-4.7,0.9-7c0.9-3.3,2.3-6.4,4.1-8.9
		c0.9-1.3,1.9-2.3,3-3.2c-3.7-4.7-11.4-15-16.4-26.8l-1,10l-3-3.9c-13.2-17.3-18.1-37.4-19.7-53.7L6.6,380l-1.8-5.8
		c-9.7-31.4-5.9-74.3,24.9-96c-4.2-9-6-17.9-5.7-27c-1.1,1.7-2.1,3.4-3.2,5.1l-3.9,6.3l0.3-7.4c0.5-14,3.5-33.7,14.5-51.4
		c-1.2,0.5-2.5,0.9-3.7,1.4l-4.9,1.9l0.9-3.6c0.2-0.7,3.8-15.2,14.4-29.9c-1,0.4-1.9,0.8-2.6,1.1l-3.9,1.7l1.3-4
		c0.2-0.8,5.6-17.6,20.1-31.5c-14.9-7.4-23.4-14.5-23.6-14.6l-2.7-2.3l3.4-1.1c3.2-1,6.3-2.7,8.9-4.3l-19.1,3.1l1.2-3.2
		c2-5.1,6.5-9.6,10.7-12.9l-10.5,2.4l1.2-3.3c9.9-27.6,31-45,35.4-48.4c-1.4-1.7-2.8-3.5-4.1-5.4C47,40.4,31.3,14.2,43.6,3.5
		c12.7-9.8,39.3,3.2,56.4,16l12.8,0.8l-3.1-8.8l21.6,6.1c6.4,1.8,13.1,1.8,19.4,0l21.6-6.1l-3.1,8.8l12.8-0.8
		c17.1-12.8,43.7-25.8,56.4-16c12.3,10.8-3.4,37-10.6,47.4c-1.3,1.8-2.6,3.7-4.1,5.4c4.3,3.4,25.4,20.7,35.4,48.4l1.2,3.3l-10.5-2.4
		c4.2,3.3,8.7,7.8,10.7,12.9l1.2,3.2l-19.1-3.1c2.6,1.6,5.7,3.3,8.9,4.3l3.4,1.1l-2.7,2.3c-0.2,0.1-8.9,7.4-24.2,14.9
		c14.3,13.8,19.6,30.4,19.9,31.2l1.3,4l-3.9-1.7c-0.7-0.3-1.7-0.7-2.6-1.1c10.6,14.7,14.3,29.3,14.4,29.9l0.9,3.6l-4.9-1.9
		c-1.2-0.5-2.5-0.9-3.7-1.4c11,17.7,14,37.4,14.5,51.4l0.3,7.4l-3.9-6.3c-1-1.7-2.1-3.4-3.2-5.1c0.4,8.6-1.3,17.1-5,25.5
		c12.4,7.9,21,18.6,26.4,30.6c26.3,12.1,47.4,34.8,56.7,60.9C343.7,392.3,342,417.4,330.1,440.8z M92,150.4
		c4.8-2.4,10.1-4.4,15.4-5.6c0-1.6,0.2-3.2,0.5-4.8c-8.5,0.8-16.9,2.6-25.3,4.1c-7.2,1.4-7.3,1.6-0.4-1.5c7.6-3,17.3-5.4,26.5-5.4
		c2.6-8.3,8.8-16.1,15.5-20c-3.6,6.8-8.5,13-11,20.2c3.7,0.4,7.2,1.2,10.4,2.6c-3.7-0.4-7.4-0.5-11.1-0.3c-0.1,0.6-0.3,1.1-0.4,1.7
		c-0.2,0.9-0.3,1.8-0.4,2.6c4.1-0.5,8.1-0.5,11.8,0.4c-4,0.4-8,1.1-11.8,2.1c0.3,3.8,1.9,7.4,4.8,10.1c4.3,4,9.9,6.6,15.5,8.1
		c2.9,0.7,14.8,0.7,17.7,0c5.6-1.5,11.2-4.1,15.5-8.1c2.9-2.7,4.5-6.2,4.8-9.9c-4.1-1.1-8.3-1.9-12.6-2.3c4-0.9,8.3-0.9,12.6-0.3
		c-0.1-0.9-0.2-1.8-0.4-2.7c-0.1-0.6-0.2-1.1-0.4-1.6c-3.9-0.2-7.9-0.2-11.9,0.3c3.4-1.5,7.2-2.4,11.1-2.7
		c-2.5-7.2-7.3-13.4-10.9-20.1c6.6,3.9,12.9,11.7,15.5,20c9,0.1,18.3,2.5,25.7,5.4c6.9,3,6.7,2.9-0.4,1.5c-8.1-1.5-16.3-3.2-24.5-4
		c0.3,1.6,0.5,3.3,0.5,4.9c5.1,1.2,10.2,3.2,14.8,5.5c13.7-3,25.5-7.5,34.9-11.9l0.5-0.5c0.1,0.1,0.2,0.1,0.2,0.2
		c10.7-5.2,18.3-10.3,22.1-13c-7.1-3.1-13-8.2-13.3-8.5l-5.1-4.5l26.6,4.3c-5.2-7.8-16.4-13.6-16.5-13.6l-14-7.1l29.5,6.7
		c-10.1-24.9-29.8-40.9-33-43.4c-1.7,1.8-3.6,3.5-5.6,5c7.3-13,16.3-24.7,21.2-38.8c1.9-5.9,4.3-14.2-0.9-18.9
		c-15.1-10.9-51.7,17.4-66.7,24.4c1.8-2.2,4.3-4.6,7.4-7.3l-13.1,0.8l2.6-7.2l-14.3,4.1c-7,2-14.5,2-21.5,0l-14.3-4.1l2.6,7.2
		l-13.1-0.8c3.1,2.6,5.6,5.1,7.4,7.3c-14.9-7-51.6-35.3-66.7-24.4c-5.2,4.7-2.8,13-0.9,18.9c4.9,14.1,13.9,25.9,21.2,38.8
		c-2-1.5-3.9-3.2-5.6-5c-3.3,2.5-22.9,18.5-33,43.4l29.5-6.7l-14,7.1c-0.1,0.1-11.4,5.8-16.5,13.6l26.6-4.3l-5.1,4.5
		c-0.3,0.2-6.2,5.4-13.3,8.5C42,130.4,62.5,143.9,92,150.4z M174.2,148c-0.1,1-0.4,2-0.7,2.9c-0.3,0.8-0.6,1.6-1,2.4
		c4-0.4,7.9-1,11.7-1.7C181,150.3,177.6,149.1,174.2,148z M108.3,150.9c-0.3-1-0.5-2.1-0.7-3.1c-3.6,1.1-7.1,2.4-10.5,3.7
		c3.9,0.7,8,1.4,12.2,1.8C108.9,152.5,108.6,151.7,108.3,150.9z M41.3,290c0.6-1.5,1.1-2.9,1.4-4.4l2.5-10.9l1.3,11.1
		c2.3,19,11.9,32.8,29.4,42c15.4,8.1,21.7,22.3,27.1,34.8c0.6,1.4,1.2,2.7,1.8,4.1c5.5,12.3,9.6,13.1,14.3,12
		c-0.7-0.4-1.3-0.8-1.9-1.3c-2.1-1.6-3.8-3.8-4.1-6.6c4.7,2,7.4,5,12.2,5.7c0.8,0.1,1.5,0.2,2.3,0.3c-1.4-0.9-2.7-1.8-4-2.8
		c-2.7-2.1-5-4.6-6.2-8c3.4,1.2,5.7,2.9,8.5,4.8c2.6,1.8,5.5,3.2,8.5,4.2c-1.7-1.7-3.9-3.9-4.9-4.9c-3.1-3.2-6.5-6-8-10.4
		c4.5,1.3,7.6,4.4,11,7.3c0.7,0.6,1.4,1.2,2.1,1.8c0.1-5.4-2.1-8.5-7.3-12.3c-7.3-6-15.7-11.4-21-19.4c-1.9-3-2.9-6.8-4.3-10.1
		c1.9,0.4,3.9,0.8,5.9,1.1c-2.1-8.1-5.3-15.8-9.8-22.9l-3.5-5.4c2.8,1.2,9.1,4,13.5,5.9c-1.9-13.1-9.7-24.8-16.5-35.9
		c3.4,2.4,10.1,7,15,10.4c-0.4-1.9-0.9-3.7-1.6-5.4c-1.2-3.1-2.9-6-5-8.7c-3-4.1-6.9-7.5-10.6-11c-1.3-1.2-2.5-2.5-3.7-4
		c1.9,0.4,3.6,1,5.2,1.8c11.7,6.2,19.2,18.2,20.3,31.3c0,0,0.4,4.2,0.4,4.2l-3.4-2.4l-4.1-2.8c4.3,7.9,7.6,16.4,8.3,25.5l0.2,3.2
		l-3-1.3l-5.2-2.3c1.3,2.5,2.6,5.1,3.6,7.7c2.2,5.4,3.7,11,4.9,16.6c-1.6-0.3-3.3-0.4-4.9-0.6l0.1,0.2c1.2,3.1,3.4,5.5,5.6,8
		c4.6,4.6,10.8,9.1,16,13.3c4.2,3.1,8,6.8,8.6,12.3c0.3,2.1,0.2,4.2-0.1,6.2c0.5,0.5,1,1,1.6,1.4c0.2,0.2,0.7,0.7,0.9,0.8
		c0,0,0,0,0,0c0,0,0,0,0,0c0.2-0.2,0.7-0.7,0.9-0.8c0.5-0.5,1-0.9,1.5-1.4c-1.1-8.4,1.4-13.5,8.5-18.6c7-5.7,15.2-11,20.1-18.5
		c0.5-0.7,1-1.8,1.5-3c-0.7,0.1-1.4,0.2-2.1,0.2l-2.8,0.4c1.7-8.4,4.4-16.7,8.5-24.3c-3.3,1.4-6.9,3-8.1,3.6l0.2-3.2
		c0.6-9.1,4-17.6,8.3-25.5l-4.1,2.8l-3.4,2.4l0.4-4.2c0.7-7.4,3.2-14.8,7.8-20.6c4.6-5.7,10.4-10.9,17.7-12.5
		c-4.4,5.4-10.3,9.4-14.3,15.1c-3.2,4.2-5.5,9-6.6,14.1c4.9-3.4,11.6-8.1,15-10.4c-4.4,7.2-9.6,15.2-12.8,23
		c-1.7,4.2-3.1,8.5-3.7,12.9c4.4-1.9,10.6-4.6,13.5-5.9l-3.5,5.4c-4.5,7-7.7,14.8-9.8,22.9c2-0.3,4-0.6,5.9-1.1c0,0-1.3,3.3-1.3,3.3
		c-2.8,9.6-11,16-18.5,21.8c0,0-5.5,4.3-5.5,4.3c-2.5,2-5.2,3.9-6.4,6.9c-0.7,1.7-0.9,3.5-0.9,5.3c0.7-0.6,1.4-1.2,2.1-1.8
		c3.4-2.9,6.5-6,11-7.3c-1.6,4.4-5,7.2-8,10.4c-1,1-3.2,3.2-4.9,4.9c3-1,5.8-2.4,8.5-4.2c2.7-1.9,5.1-3.6,8.5-4.8
		c-1.1,3.4-3.4,5.9-6.2,8c-1.3,1-2.6,1.9-4,2.8c0.8-0.1,1.5-0.1,2.3-0.3c4.8-0.7,7.6-3.7,12.2-5.7c-0.3,2.8-2,5-4.1,6.6
		c-0.7,0.5-1.4,1-2.1,1.4c4.4,0.8,9.1-0.3,14.5-12.2c0.6-1.3,1.2-2.7,1.8-4.1c5.5-12.5,11.7-26.7,27.1-34.8
		c17.5-9.2,27.1-22.9,29.4-42l1.3-11.1l2.5,10.9c0.3,1.4,0.8,2.9,1.4,4.4c11.4-15.6,15.5-31,12.4-46.8l-2-10.4l5.6,9
		c1.1,1.8,2.2,3.5,3.3,5.3c0.1,0.2,0.2,0.3,0.3,0.5c-1.4-14-5.6-31.6-16.7-46.8l-4-5.4l6.2,2.4c2.4,0.9,4.8,1.9,7.2,2.8
		c-2.1-6.2-7.3-19.2-17.4-30.8l-5.7-6.6l8,3.5c0,0,2.7,1.2,5.5,2.4c-2.5-5.9-8.2-17.1-18.3-26.3c-8.3,3.8-18.3,7.6-29.7,10.5
		c1.1,0.6,2.1,1.2,3.1,1.9c6.1,4.3,6,4.1-0.7,1.4c-2-0.8-3.9-1.6-5.9-2.4c-6.6,1.5-13.6,2.6-21,3.3c-4.7,5.7-12.4,9.2-19.3,11
		c-3.1,0.8-16.3,0.8-19.4,0c-6.9-1.9-14.5-5.4-19.3-11c-7.6-0.7-14.8-1.8-21.5-3.4c-2.1,0.8-4.1,1.7-6.2,2.5c-6.8,2.8-6.9,3-0.7-1.4
		c1-0.7,2.1-1.3,3.3-2c-11.4-2.9-21.4-6.7-29.7-10.6c-10.2,9.3-16,20.6-18.6,26.6c2.8-1.2,5.5-2.4,5.5-2.4l8-3.5l-5.7,6.6
		c-10.1,11.6-15.3,24.6-17.4,30.8c2.4-0.9,4.8-1.8,7.2-2.8l6.2-2.4l-4,5.4C27.2,216,23,233.6,21.6,247.6c0.1-0.2,0.2-0.4,0.3-0.5
		c1.1-1.8,2.2-3.5,3.3-5.3l5.6-9l-2,10.4C25.8,259.1,29.9,274.4,41.3,290z M53.8,441.3c1.5-0.5,3-0.6,4.4-0.3c1,0.3,2,0.8,2.8,1.5
		c0.2-0.2,0.4-0.3,0.6-0.5c0.6-0.4,1.1-0.7,1.5-1c2.1-1.1,4.4-1.5,6.5-1c0.8,0.2,1.5,0.5,2.2,1c1.9-2,4.1-3.1,6.4-3.1
		c2.7,0,5.2,1.4,7.2,4c0.4-0.2,0.8-0.3,1.3-0.4c2.3-0.6,6.6-0.8,10.4,3.5c3.4-3.6,7-7,10.9-10c3.9-3.1,8.9-6.5,14.5-9.6
		c19.6-28.9,47.8-36.7,68.1-38.2c20.5-1.5,36.9,3,39.6,3.8c11.6-2.8,23.8-3.2,35.5-0.6l0,0c2.9-10,4.5-20.7,4.8-32l0.2-11.4
		l6.8,20.6c9.5-29.6,3.4-67.5-27.1-87.4c-2.5,5-5.7,10-9.7,15l-2.2,2.8l-1.1-3.4c-0.1-0.2-0.2-0.5-0.3-0.7
		c-3.9,16.5-13.8,28.8-30.1,37.3c-14.2,7.5-19.9,20.4-25.4,33c-0.6,1.4-1.2,2.8-1.8,4.1c-5.2,11.6-10.4,14.7-15.7,14.7
		c-2.1,0-4.3-0.5-6.4-1.1c-0.8-0.2-1.6-0.5-2.4-0.6c-2.1,0.4-4.3,0.4-6.4,0.2c-1.5-0.1-3.1-0.4-4.5-0.8c-0.2,0.1-0.4,0.1-0.7,0.2
		c-1.1,0.3-2.2,0-3.1-0.7c-0.9,0.7-2,1-3.1,0.7c-0.2-0.1-0.4-0.1-0.7-0.2c-1.5,0.4-3,0.6-4.5,0.8c-2.4,0.2-4.8,0.1-7.1-0.4
		c-0.7,0.2-1.5,0.4-2.3,0.7c-2.2,0.7-4.3,1.2-6.4,1.2c-5.1,0-10-3.1-15.2-14.6c-0.6-1.4-1.2-2.7-1.8-4.1
		c-5.5-12.5-11.2-25.5-25.4-33c-16.3-8.6-26.2-20.8-30.1-37.3c-0.1,0.2-0.2,0.5-0.3,0.7l-1.1,3.4l-2.2-2.8c-3.6-4.5-6.5-9-8.9-13.5
		c-26.9,19.2-31.7,56-24.7,85.1l6.5-19.8l0.2,11.4c0.4,21.9,6.3,42.2,16.5,57.6l1.9-18.8l2.8,9.9C38.9,421.7,49.6,436.1,53.8,441.3z
		 M77.9,476.7c1.1-3.1,2.3-6.1,3.8-9c3.4-7.1,7.7-13.7,12.9-19.6c-1.9-2.4-4.4-3.9-6.7-2.7c-2,1-2.6,5.8-2.6,5.8s-1.6-4.8-2.4-6.3
		c-0.8-1.5-2.5-3-4.5-3c-4.2,0-6.3,8.9-6.3,8.9s-1.2-5.6-3.3-6.8c-1-0.6-2.4-0.1-3.7,0.6c-0.4,0.2-0.7,0.4-1.1,0.7
		c-0.5,0.4-1.1,0.8-1.6,1.4l-1.6,1.6l-1.4-1.8c-0.6-0.8-1.3-1.3-2.1-1.6c-2-0.5-4.6,1-6.7,3.9c-1.5,2.1-2.7,4.7-3.5,7.6
		c-0.5,2-0.8,4.1-0.8,6c0,1.2,0.1,2.3,0.3,3.3c0.2,0.8,0.4,1.6,0.7,2.3c0.5,1.3,1.5,2.8,3.1,3.3c0.1,0,0.3,0.1,0.4,0.1
		c1.4,0.2,2.7-0.6,3.3-1.9l2.8-5.2l0.4,6.2c0.1,1.4,0.7,2.7,1.7,3.6c0.5,0.4,1,0.7,1.6,0.8c1.8,0.5,4-0.4,6.1-2.4
		c0.9-0.9,1.6-2,2-3.2l1.9-5.6C70.6,463.6,71.4,475.2,77.9,476.7z M331.4,369.4c-8.3-23.4-26.6-44-49.6-56.1
		c-0.4-0.1-0.8-0.3-1.2-0.4c0,0,0,0.1,0,0.1c3.9,2.2,29.3,17.6,43.5,45.6c-8.4-9.3-19.2-16.5-31.2-20.3c1,10.1-3.2,20.5-10.9,27.1
		c-0.8,3-1.8,6-3,8.9l-2,5l-3.5-10.5c-0.8,7.8-2.2,15.4-4.3,22.6c4.5,1.3,9.1,2.9,12.1,6.8c-6.4-0.5-11.7-2.8-17.8-3.7
		c-11.8-1.9-24-1.4-35.7,1c-1.3,0.2-3.1,0.7-4.4,1c-1,0.2-2,0.4-3,0.7c5.3-0.6,14.9-1.6,27.2-1.8c0.4,0,0.7,0,1.1,0h0
		c5.9,1.3,12.9,3.4,20.3,6.7c-3.4,3-14.2,8.9-14.2,8.9c16.1,6.2,28.6,5.7,39,1c0.4,4.1-5.6,8.1-6.7,8.5c-0.1,0-0.1,0-0.2,0
		c0,0.1,0.1,0.1,0.2,0c7.4,1,15.3,0.3,21.7-3.4c6.5-3.8,11.3-11.1,10.7-18.6c4.9,15.5,4.8,32.5,0,48.1
		c-12.6,18.5-35.4,34.3-75.2,34.6c15.7-11.9,23.3-24.6,24.7-39.8c-19.6,14.4-50.8,24.1-76,7.6c13.9-7.3,30.8-13.8,32.7-30.6
		c-3.8,6.6-12.3,6.6-19.6,4.7c-11.9-3.1-21.1-3-30.6-1.3c0.9-12.1,12.1-20.9,24-23.4c-5.2-2-10.6-3.3-16.1-4
		c11.4-2.4,24.4-3.2,38.4-0.9c0.1,0,0.2-0.1,0.3-0.1c-0.3-0.1-0.7-0.3-1.2-0.5c-7.1-1.3-17.9-2.6-30-1.7
		c-25.4,1.9-45.6,12-60.3,30.1c9.7-4.7,20.1-8.1,28.4-7.8c-8.4,3.9-17,6.6-25.2,10.6c-12.1,6-23.4,13.8-32.7,23.6
		c-8.4,8.8-14.9,19.2-19.4,30.5c2.3-0.7,4.5-1.3,6.8-1.8c18-3.9,36.9-3.9,54.9-0.3c3.2,0.7,7.7,1.7,10.7,2.6
		c25.1,8.1,53.8,10.5,77.8-2.1c4.7-2.6,8.9-5.5,13.6-8.5c-2.3,5.3-6.9,9.1-11.8,11.8c-0.5,0.3-1,0.5-1.5,0.8
		c6.8,1.2,19.4,2.6,33.4,0.8c28-3.7,48.6-18,61-42.5C338,416.6,339.7,392.6,331.4,369.4z M78.7,21.4c7.1,3.8,13.5,8.5,21,11.7
		c-5.4-6.3-12.4-10.5-19.3-14.6c-3.5-2-7.1-4-10.9-5.6c-7.9-3.6-21-7-22,5.7c0,4.5,1.6,8.5,3.5,12.3c1.9,3.7,4,7.2,6.4,10.5
		c2.3,3.3,4.8,6.6,8.5,8.7c-1.5-4-3.8-7.2-6-10.5c-2.2-3.3-4.2-6.7-5.8-10.3c-1.5-3.3-2.9-7.1-2.9-10.7
		C51.8,6.5,73.1,18.5,78.7,21.4z M128.7,145.9c0.6,0.6,1.6,0.6,2.3,0c0.6-0.6,0.6-1.6,0-2.3c-0.6-0.6-1.6-0.6-2.3,0
		S128.1,145.2,128.7,145.9z M115.1,84.6c1.6,1.3,2.8,3,3.5,4.9c0.8,1.1,2.5,2.6,5.2,2.8c0,0-3,0.7-4.7,3.9c-0.4,1.9-1.3,3.7-2.6,5.2
		c-2.1,2.4-4.9,3.9-8.1,4.2c-0.3,0-0.7,0-1,0c-2.8,0-5.5-1-7.7-2.8c-1.3-1.1-2.2-2.3-2.9-3.7c-1.3-1.5-3.8-4-7.4-4.5
		c0,0,4.4-0.9,6.8-4.8c0.5-1.3,1.2-2.6,2.1-3.7C102.6,81,110.1,80.3,115.1,84.6z M100.1,87.5c-3.4,4-2.9,10.1,1.1,13.5
		c2,1.6,4.4,2.4,7,2.2c2.5-0.2,4.9-1.4,6.5-3.4c1-1.2,1.7-2.6,2-4c-0.3,0.6-0.6,1.2-1.1,1.8c-2.5,3-7,3.4-10.1,0.8
		c-0.2-0.2-0.5-0.4-0.7-0.7c1.2,0,2.4-0.6,3.2-1.6c1.6-1.9,1.3-4.7-0.5-6.3c-0.9-0.8-2.1-1.1-3.3-1c0.1-0.2,0.3-0.4,0.4-0.5
		c2.5-3,7-3.4,10-0.9c-0.4-0.4-0.7-0.8-1.2-1.2c-1.8-1.5-4-2.3-6.2-2.3C104.7,84.1,102,85.3,100.1,87.5z M128.8,141.4
		c0.6-0.6,0.6-1.6,0-2.3c-0.6-0.6-1.6-0.6-2.3,0c-0.6,0.6-0.6,1.6,0,2.3C127.2,142,128.2,142,128.8,141.4z"/>
</g>
</svg>
