<?xml version="1.0" encoding="utf-8"?>
<!-- Generator: Adobe Illustrator 28.3.0, SVG Export Plug-In . SVG Version: 6.00 Build 0)  -->
<svg version="1.1" id="seal_00000026878771331349217560000013213249330399966103_"
	 xmlns="http://www.w3.org/2000/svg" xmlns:xlink="http://www.w3.org/1999/xlink" x="0px" y="0px" viewBox="0 0 490 164.3"
	 style="enable-background:new 0 0 490 164.3;" xml:space="preserve">
<style type="text/css">
	.st0{fill:#C6C6C6;}
	.st1{fill:#939393;}
	.st2{fill:#6D6D6D;}
	.st3{fill:#FFFFFF;}
	.st4{fill:#231F20;}
</style>
<g id="seal">
	<path class="st0" d="M462.3,99.1c1.3-0.1,2.6-0.2,3.9-0.2c7.4-0.4,13.1-1.7,17.9-4.1l0.5-0.3l-0.5-0.3c-17.6-9.2-28.1-7.7-44.1-5.5
		c-3.7,0.5-7.5,1.1-11.8,1.5c-13.4,1.3-25.4,1.2-36.7-0.1c-21.4-2.7-39.1-15.5-56.3-27.8c-2.7-1.9-5.5-4-8.2-5.9
		c-23.8-17.5-49.9-28.1-77.5-31.4c-26.4-3.1-54.4,0.4-83.3,10.4c-6.3,2.2-12.4,3.4-18.1,3.6c-7.7,0.3-15.5-0.9-22.5-3.5l-1.2-0.4
		l0.8,0.9c2.8,3.1,5.6,5.2,8.7,6.7c0.8,0.4,1.7,0.8,2.7,1.3c2.6,1.2,5.4,2.6,7.6,3.9c-1.7-0.1-3.4-0.4-5.3-0.8
		c-6.2-1.3-12.2-5-16.6-10.1c-1-1.2-2.1-2.4-3.1-3.5c-4.7-5.3-9.1-10.4-14-15.3c-2.6-2.7-5.7-5.7-9.3-8.2c-11.5-8-25.6-8.5-40.8-1.4
		c-0.9,0.4-1.8,0.8-2.7,1.3c-1.1,0.5-2.3,1.1-3.5,1.6l-0.3,0.1C48,12,47,12.4,46.4,12.6c-8.6,3.1-20,7.1-27.1,9.5
		c-0.4,0.1-0.8,0.3-1.3,0.5l-0.3,0.1l0.1,0.3c1.8,4.6,2.4,8,1.7,9.3c-1.1,2.2-6.2,4.1-7.7,4.6L11.6,37l0.2,0.3
		c0.4,0.5,0.8,1.1,1.3,1.7c7.7,9.3,15.7,10,26.5,10.7c-3.5,1.9-7.5,1.9-10.3,1.6l-1.6-0.2l1.4,0.8c3.4,1.9,7.4,2.7,10,3.3
		c0.4,0.1,0.8,0.2,1.2,0.3C60.3,60,68.6,82.3,68.9,83.3c13.3,29.6,38.3,43.8,57.1,50.6c14,5.1,26.7,6.8,33.1,7.4l1.1,0.1l-1.8-1.2
		c-0.6-0.4-1.1-0.8-1.7-1.2c-1.3-0.8-2.6-1.7-3.8-2.5c-4.1-2.7-8.3-5.4-12.3-8.4c8.3,2.5,15.6,7.2,23.5,12.6
		c4.7,3.3,8.1,5.9,11.3,8.6c2,1.7,3.8,3,5.4,4.1c7.7,4.9,16.8,7.4,26.2,7.4c7.9,0,15.9-1.8,23.5-5.3l1.4-0.6l-1.5,0.1
		c-2.1,0.1-4.3,0-6.3-0.4c5.9-0.3,10.4-1.4,14.1-3.4c0.1-0.1,0.2-0.1,0.3-0.2c0,0,0,0,0.1,0l0,0l0.2-0.1c1.3-0.8,2.5-1.7,3.5-2.7
		c0.8-0.8,1.5-1.7,2.2-2.7l0.4-0.6l-0.7,0.2c-2.6,0.6-5.9,0.7-8.4,0.4c0.8-0.2,1.5-0.5,2.3-0.7c1.9-0.5,3.7-1.1,5.4-1.7
		c0.2-0.1,0.3-0.1,0.5-0.2c0.9-0.4,1.9-0.8,2.5-1.6l0.1-0.2l-0.1-0.2c-0.8-1.4-2.8-2.3-4.1-2.9l-1-0.5l-1-0.4
		c-3.7-1.4-8-1.6-13.4-0.7c-1.3,0.2-2.7,0.5-4,0.8c-3.8,0.7-7.7,1.5-11.5,1.3c-4.2-0.3-8.7-1.9-12.6-4.6c-2.2-1.5-4.1-3.1-5.7-4.9
		c2.3,1.5,4.4,2.7,6.4,3.7c3.4,1.7,7.6,3.5,12,3.6c3.5,0,6.8-0.7,10.2-1.5c1.5-0.4,3.1-0.7,4.7-1c3.9-0.8,9.7-1.2,14.8,0.8l1.2,0.4
		l1.1,0.6c1.1,0.6,3.6,1.3,3.8,1.4c4.3,0.6,9.1,1,15.1,1.4c35.3,2,70.9-0.9,105.6-8.6c3.9-0.9,7.8-2.3,11.6-3.6
		c5.8-2,11.7-4.1,17.9-4.7c10.8-1,21.4,1.5,30.5,4c5,1.4,9.9,2.3,14.7,2.7c12.8,1,25.4-2,35.6-8.6c0,0,0,0,0.1-0.1l1.3-0.8l-1.5,0.3
		c-3.3,0.6-6.9,1-10.7,1.2c-6.1,0.3-12.8,0-19.3-0.9c1.7-0.1,3.4-0.3,5.2-0.4c2.7-0.2,5.5-0.4,8.2-0.7l1.8-0.2l-1.7-0.4
		c-3.5-0.9-7.3-1.1-10.4-1.3c-0.6,0-1.1-0.1-1.6-0.1c-15.3-1-24.2-6.6-24.6-6.8l-3.2-2.1l3.8-0.1c1.5-0.1,2.9,0,4.5,0l0.1,0
		c4.4,0,10.5,0.1,24.7-1.4c4.8-0.5,8.7-1.5,11.5-3l1.1-0.6l-1.3,0c-4.6,0.2-9.5,0-14.2-0.2l-2-0.1l-0.6,0c-1.1,0-2.2,0-3.3,0.1
		c1.2-0.6,2.6-0.9,3.9-1.2C453.9,99.6,458.2,99.4,462.3,99.1z M308.9,133.1c6.5-0.9,13.1-1.6,19.4-2.3l4.8-0.5
		c5.7-0.6,11.7-1.2,17.6-1.6c-6.1,1.7-12.8,2.8-20.8,3.7v0C321.6,133.3,314.9,133.5,308.9,133.1z M182.2,149.4
		c5.4,1.9,10.6,3.4,15.8,4.6l0,0c4.8,1.1,9.6,1.7,14.1,2.2C202.1,157.6,190.5,155,182.2,149.4z M120.9,127.9
		c-17.9-5.3-34.7-22.5-44.8-38.9c11,13.3,24.1,27.7,40.7,36.9C118.1,126.6,119.5,127.3,120.9,127.9z M63.2,26.2l0-0.1
		c-0.3-0.7-1-1.6-2-2.2c0.7-0.2,1.8-0.6,2.7-1.5l0.1-0.1c0.6-1.3,1.5-2.4,2.7-3.2c1.7-1.2,3.8-1.7,5.9-1.3c2.1,0.4,3.9,1.5,5.1,3.3
		c0.7,1,1.1,2.1,1.3,3.3l0,0.1c0.6,1.1,1.5,2.6,3.1,3.5c-1.1,0.1-2.7,0.5-4.1,1.7l-0.1,0.1c-0.6,0.9-1.3,1.8-2.2,2.4
		c-1.3,0.9-2.9,1.4-4.5,1.4c-2.6,0-5.1-1.3-6.5-3.4v0C63.8,29,63.3,27.6,63.2,26.2z M51.9,52.2c-7.6-5.3-16.1-10.4-26.5-16
		c9.6,3.2,18.8,8.7,26.2,15.6C51.7,52,51.8,52.1,51.9,52.2z M56.6,36.3c-8.5-2.4-17.2-3.7-25.7-5c-1.3-0.2-2.6-0.4-3.8-0.6
		C36.2,30.5,47.6,31.9,56.6,36.3z"/>
	<path class="st1" d="M462.3,99.1c1.3-0.1,2.6-0.2,3.9-0.2c7.4-0.4,13.1-1.7,17.9-4.1l0.5-0.3l-0.5-0.3c-17.6-9.2-28.1-7.7-44.1-5.5
		c-3.7,0.5-7.5,1.1-11.8,1.5c-13.4,1.3-25.4,1.2-36.7-0.1c-21.4-2.7-39.1-15.5-56.3-27.8c-2.7-1.9-5.5-3.9-8.2-5.9
		c-23.8-17.5-49.9-28.1-77.5-31.4c-26.4-3.1-54.4,0.4-83.3,10.4c-6.3,2.2-12.4,3.4-18.1,3.6c-7.7,0.3-15.5-0.9-22.5-3.5l-1.2-0.4
		l0.8,0.9c2.8,3.1,5.6,5.2,8.7,6.7c0.8,0.4,1.7,0.8,2.7,1.3c2.6,1.2,5.4,2.6,7.6,3.9c-1.7-0.1-3.4-0.4-5.3-0.8
		c-6.2-1.3-12.2-5-16.6-10.1c-1-1.2-2.1-2.4-3.1-3.5c-4.7-5.3-9.1-10.4-14-15.3c-2.6-2.7-5.7-5.7-9.3-8.2c-11.5-8-25.6-8.5-40.8-1.4
		c-0.9,0.4-1.8,0.8-2.7,1.3c-1.1,0.5-2.3,1.1-3.5,1.6l-0.3,0.1C48,12,47,12.4,46.4,12.6c-8.6,3.1-20,7.1-27.1,9.5
		c-0.4,0.1-0.8,0.3-1.3,0.5l-0.3,0.1l0.1,0.3c1.6,4.1,2.3,7.3,1.9,8.9c14,2,28.3,7.6,40.3,16.7c12.3,9.3,10.1,11.3,31.6,32.8
		c41,41,90.5,9.2,163.1,15.8c66,6,91.8,29.9,126.9,28.1c5-1.7,10.2-3.4,15.6-3.9c10.8-1,21.4,1.5,30.5,4c5,1.4,9.9,2.3,14.7,2.7
		c12.8,1,25.4-2,35.6-8.6c0,0,0,0,0.1-0.1l1.3-0.8l-1.5,0.3c-3.3,0.6-6.9,1-10.7,1.2c-6.1,0.3-12.8,0-19.3-0.9
		c1.7-0.1,3.4-0.3,5.2-0.4c2.7-0.2,5.5-0.4,8.2-0.7l1.8-0.2l-1.7-0.4c-3.5-0.9-7.3-1.1-10.4-1.3c-0.6,0-1.1-0.1-1.6-0.1
		c-15.3-1-24.2-6.6-24.6-6.8l-3.2-2.1l3.8-0.2c1.5-0.1,2.9,0,4.5,0h0.1c4.4,0,10.5,0.1,24.7-1.4c4.8-0.5,8.7-1.5,11.5-3l1.1-0.6
		l-1.3,0c-4.6,0.2-9.5,0-14.2-0.2l-2-0.1l-0.6,0c-1.1,0-2.2,0-3.3,0.1c1.2-0.6,2.6-0.9,3.9-1.2C453.9,99.6,458.2,99.4,462.3,99.1z
		 M78,29.7L78,29.7c-0.6,1-1.4,1.8-2.3,2.5c-1.3,0.9-2.9,1.4-4.5,1.4c-2.6,0-5.1-1.3-6.5-3.4v0c-0.8-1.2-1.3-2.6-1.4-4l0-0.1
		c-0.3-0.7-1-1.6-2-2.2c0.7-0.2,1.8-0.6,2.7-1.5l0.1-0.1c0.6-1.3,1.5-2.4,2.7-3.2c1.7-1.2,3.8-1.7,5.9-1.3c2.1,0.4,3.9,1.5,5.1,3.3
		c0.7,1,1.1,2.1,1.3,3.3l0,0.1c0.6,1.1,1.5,2.6,3.1,3.5C81,28.2,79.4,28.6,78,29.7z M27.1,30.6c8.4-0.2,18.9,1.1,27.6,4.7
		c0.7,0.3,1.3,0.6,2,0.9c-0.7-0.2-1.3-0.4-2-0.5c-7.8-2.1-15.9-3.3-23.7-4.5C29.6,31,28.4,30.8,27.1,30.6z"/>
	<g>
		<path class="st2" d="M231.8,154.8l-1.4,0.6c-7.5,3.6-15.6,5.3-23.5,5.3c-9.4,0-18.5-2.5-26.2-7.4c-1.7-1.1-3.4-2.4-5.4-4.1
			c-3.1-2.7-6.6-5.3-11.3-8.6c-5.4-3.7-10.5-7-15.8-9.6c0,0,0,0,0,0c-2.6-1.7-6.6-1.8-9.1-3.7c8.2,1.2,16.3,4.8,24.9,10.9
			c4.6,3.3,8.1,5.9,11.3,8.6c2,1.7,3.8,3,5.4,4.1c7.7,4.9,16.8,7.4,26.2,7.4c6.5,0,13-1.2,19.3-3.6c1.3,0.1,2.7,0.1,4,0.1
			L231.8,154.8z"/>
		<path class="st2" d="M80.8,24.1c-0.2-1.4-0.8-2.8-1.6-4.1c-1.5-2.2-3.8-3.6-6.4-4.1c-2.6-0.5-5.2,0.1-7.4,1.6
			c-1.5,1-2.6,2.4-3.3,4c-1.9,1.9-4.3,1.8-4.3,1.8c1.9,0.7,2.9,2,3.4,3c0.1,1.8,0.7,3.5,1.7,5c1.9,2.8,5,4.2,8.2,4.2
			c2,0,3.9-0.6,5.7-1.8c1.2-0.8,2.1-1.8,2.8-3c2.7-2.2,6-2.1,6-2.1C83,27.8,81.5,25.6,80.8,24.1z"/>
		<path class="st2" d="M160.2,141.4l-1.1-0.1c-6.3-0.6-19-2.3-33.1-7.4c-18.7-6.8-43.8-21-57.1-50.6c-0.3-1-8.6-23.3-28.7-27.9
			c-0.3-0.1-0.7-0.2-1.2-0.3c-2.6-0.6-6.6-1.4-10-3.3l-1.4-0.8l1.6,0.2c1.3,0.2,2.9,0.3,4.6,0.1c1.9,0.6,3.8,1,5.2,1.3
			c0.4,0.1,0.8,0.2,1.2,0.3c20.1,4.6,28.3,26.9,28.7,27.9c13.3,29.6,38.4,43.8,57.1,50.6c12.1,4.4,23.2,6.2,30.1,7
			c0.2,0.1,0.4,0.3,0.7,0.4c0.6,0.4,1.1,0.8,1.7,1.2L160.2,141.4z"/>
		<path class="st2" d="M479.4,118.5l-1.3,0.8c-0.1,0-0.1,0.1-0.1,0.1c-10.2,6.6-22.8,9.7-35.6,8.6c-4.8-0.4-9.8-1.3-14.7-2.7
			c-9.1-2.5-19.7-5-30.5-4c-6.2,0.6-12.1,2.6-17.9,4.7c-3.8,1.3-7.7,2.7-11.6,3.6c-34.7,7.6-70.3,10.5-105.6,8.6
			c-6-0.4-10.7-0.8-15.1-1.4c-0.2,0-2.7-0.8-3.8-1.4l-1.1-0.6l-1.2-0.4c-5.1-2-10.8-1.6-14.8-0.8c-1.6,0.3-3.2,0.7-4.8,1
			c-1.8,0.4-3.6,0.8-5.4,1.1c-1.7,0.2-3.2,0.5-4.8,0.4c-4.2-0.3-9.6-1.6-20-8.7c6.8,3.9,15.5,6.2,20,6.3c3.5,0,6.8-0.7,10.2-1.5
			c1.5-0.4,3.1-0.7,4.8-1c3.9-0.8,9.7-1.2,14.8,0.8l1.2,0.4l1.1,0.6c1.1,0.6,3.6,1.3,3.8,1.4c4.3,0.6,9.1,1,15.1,1.4
			c35.3,2,70.9-0.9,105.6-8.6c3.9-0.9,7.8-2.3,11.6-3.6c5.8-2,11.7-4.1,17.9-4.7c10.8-1,21.4,1.5,30.5,4c5,1.4,9.9,2.3,14.7,2.7
			c11.1,0.9,22.1-1.3,31.5-6.2c1.4-0.2,2.8-0.4,4.1-0.6L479.4,118.5z"/>
		<path class="st2" d="M140.7,65.4c1.3,0.9,2.8,1.5,4.3,1.8c12.3,3-6,16.1-13.2,7.7C122.4,64.8,132.3,59.7,140.7,65.4z"/>
		<path class="st2" d="M184.9,82.7c0.4,6.5-10.2,4-14.4,5C138.3,98.4,178.7,62.1,184.9,82.7z"/>
		<path class="st2" d="M170.1,53.6c2.7-1.1,5.8-0.1,8,1.9c3.8,3.4,1.4,9.6-3.7,9.8c-11.1,0.4-25.5-8.6-7.8-10.7
			C167.8,54.5,169,54.1,170.1,53.6z"/>
		<path class="st2" d="M199.8,61.7c-9.1,4.5,3.5,17.4,10.7,13c3.9-2.7,20.9-19,7.1-18.5C211.8,56.3,205,59.2,199.8,61.7z"/>
		<path class="st2" d="M256.7,65.9c6.8,0.9,27.7,9.2,11,14.7c-8.2,3.8-13-1.5-18.3-6c-1.4-1.2-3.1-2-4.9-2.3
			C232.8,69.9,252.1,64.4,256.7,65.9z"/>
		<path class="st2" d="M214.1,82.9c-12.1,5.3,3.9,9.9,10.5,6.5c1.6-0.8,2.5-2.6,2.3-4.3c-0.6-4.3-7.4-2.7-11.1-2.5
			C215.2,82.5,214.6,82.7,214.1,82.9z"/>
		<path class="st2" d="M214.5,42c1.5,8.8-28.4,4.6-12.7-2.7c0.5-0.2,1.1-0.4,1.6-0.4l6.7-0.3C212.2,38.5,214.1,40,214.5,42z"/>
		<path class="st2" d="M242.4,35.6c18.7,2,20.3,17.4-1.9,15.7C227.2,51.5,230.4,34.7,242.4,35.6z"/>
		<path class="st2" d="M310,66.1c-8.3,4.2-29.4-10.3-20.9-15.7c1.9-1.2,4.2-1.2,6.2-0.2C301.8,53.4,314.2,63.1,310,66.1z"/>
		<path class="st2" d="M299,82.8c10.4,2.7,4.3,8.9-3.2,10.1c-3.6,0.6-7.3-0.6-9.8-3.2c-5.7-6,2.5-11.5,11.2-7.5
			C297.8,82.4,298.4,82.6,299,82.8z"/>
		<path class="st2" d="M325.9,89.3c13.4-5.2,6.2-11.5-0.5-11.8c-2.3-0.1-4.1,1.9-3.9,4.1l0.4,5.2C322.1,88.7,324.1,90,325.9,89.3z"
			/>
		<path class="st2" d="M345.1,92.5c-6,5.9,22,4.8,8.5-1.1c-0.8-0.3-1.6-0.5-2.4-0.6l-1-0.1C348.3,90.5,346.4,91.2,345.1,92.5z"/>
	</g>
	<g>
		<path class="st3" d="M82,28c-1.1,0.1-2.7,0.5-4.1,1.7l-0.1,0.1c-0.6,0.9-1.3,1.8-2.2,2.4c-1.3,0.9-2.9,1.4-4.5,1.4
			c-2.6,0-5.1-1.3-6.5-3.4v0c-0.8-1.2-1.3-2.6-1.4-4l0-0.1c-0.3-0.7-1-1.6-2-2.2c0.7-0.2,1.8-0.6,2.7-1.5l0.1-0.1
			c0.6-1.3,1.5-2.4,2.7-3.2c1.7-1.2,3.8-1.7,5.9-1.3c2.1,0.4,3.9,1.5,5.1,3.3c0.7,1,1.1,2.1,1.3,3.3l0,0.1
			C79.6,25.6,80.5,27.1,82,28z"/>
		<path class="st3" d="M484.7,94.6l-0.5,0.3c-0.6,0.3-1.3,0.6-2,0.9c-16.4-8.1-26.8-6.6-42.1-4.5c-3.7,0.5-7.5,1.1-11.8,1.5
			c-13.4,1.3-25.4,1.2-36.7-0.1c-21.4-2.7-39.1-15.5-56.3-27.8c-2.7-1.9-5.5-3.9-8.2-5.9c-23.8-17.5-49.9-28.1-77.5-31.4
			c-26.4-3.1-54.4,0.4-83.3,10.4c-6.3,2.2-12.4,3.4-18.1,3.6c-6.8,0.3-13.7-0.6-20-2.6c-0.9-0.8-1.9-1.7-2.8-2.8l-0.8-0.9l1.2,0.4
			c7,2.6,14.8,3.8,22.5,3.5c5.8-0.2,11.9-1.5,18.1-3.6c28.9-10,56.9-13.5,83.3-10.4c27.6,3.3,53.7,13.8,77.5,31.4
			c2.7,1.9,5.5,3.9,8.2,5.9c17.1,12.4,34.8,25.1,56.3,27.8c11.3,1.3,23.3,1.4,36.7,0.1c4.3-0.5,8.1-1,11.8-1.5
			c16-2.3,26.5-3.8,44.1,5.5L484.7,94.6z"/>
		<path class="st3" d="M145.4,48.5c-1.7-0.1-12.2,3.3-22.9-8.9c-1-1.2-2.1-2.4-3.1-3.5c-4.7-5.3-9.1-10.4-14-15.3
			c-2.6-2.7-5.7-5.7-9.3-8.2c-11.5-8-25.6-8.5-40.8-1.4c-0.9,0.4-1.8,0.8-2.7,1.3c-1.1,0.5-2.3,1.1-3.5,1.6l-0.3,0.1
			C48,14.4,47,14.8,46.4,15c-8.6,3.1-20,7.1-27.1,9.5c-0.2,0.1-0.5,0.2-0.7,0.3c-0.2-0.6-0.4-1.2-0.7-1.8l-0.1-0.3l0.3-0.1
			c0.5-0.2,0.9-0.3,1.3-0.5c7.1-2.4,18.5-6.3,27.1-9.5c0.6-0.2,1.6-0.6,2.3-0.9l0.3-0.1c1.2-0.5,2.4-1.1,3.5-1.6
			c0.9-0.4,1.8-0.9,2.7-1.3c15.2-7.1,29.3-6.6,40.8,1.4c3.7,2.5,6.8,5.5,9.3,8.2c4.9,5,9.3,10,14,15.3c1,1.2,2.1,2.4,3.1,3.5
			c3.9,4.6,9.2,8.1,14.8,9.7c0,0,0,0,0,0C139.7,48,143.4,47.2,145.4,48.5z"/>
	</g>
	<path class="st4" d="M24,30.5c11.9,1.9,23.8,3.3,35.3,7C49.6,31.6,35.3,29.8,24,30.5z M51.8,51.7C43.7,44,33.2,38,22.4,35
		c11,5.8,21.7,11.9,31.7,19.2C53.4,53.4,52.6,52.5,51.8,51.7z M79.3,24.4c-0.2-1.2-0.7-2.4-1.4-3.4c-1.3-1.8-3.2-3-5.3-3.4
		c-2.2-0.4-4.4,0.1-6.2,1.4c-1.2,0.8-2.2,2-2.8,3.3c-1.6,1.6-3.6,1.5-3.6,1.5c1.6,0.6,2.4,1.7,2.8,2.5c0.1,1.5,0.6,2.9,1.5,4.2
		c1.6,2.3,4.2,3.5,6.8,3.5c1.6,0,3.3-0.5,4.7-1.5c1-0.7,1.7-1.5,2.3-2.5c2.2-1.9,5-1.7,5-1.7C81.1,27.4,79.9,25.6,79.3,24.4z
		 M74.8,31c-1.4,1-3.1,1.4-4.8,1.1c-1.7-0.3-3.2-1.2-4.2-2.7c-0.2-0.3-0.4-0.7-0.6-1c1.5,2.2,4.6,2.7,6.8,1.2
		c0.1-0.1,0.3-0.2,0.4-0.3c-0.8-0.1-1.5-0.6-2-1.3c-1-1.4-0.6-3.3,0.8-4.2c0.7-0.5,1.6-0.7,2.4-0.5c-0.1-0.2-0.2-0.4-0.3-0.6
		c-1.5-2.2-4.6-2.8-6.8-1.2c-0.3,0.2-0.6,0.5-0.8,0.7c0.5-0.7,1.1-1.4,1.8-1.9c1.1-0.8,2.4-1.2,3.7-1.2c0.4,0,0.8,0,1.1,0.1
		c1.7,0.3,3.2,1.2,4.2,2.7C78.4,24.9,77.7,28.9,74.8,31z M117,125.6c-17.4-9.6-30.8-24.7-43.1-39.9c10.2,18.1,29.7,39.2,50.8,43.4
		C122,128.1,119.5,127,117,125.6z M198,153.6c-6-1.4-11.9-3.1-17.7-5.3c9.1,7,22.6,10.1,33.9,7.7C208.7,155.5,203.4,154.8,198,153.6
		z M329.7,130.4c-7.9,0.9-15.7,1.7-23.6,2.8c7.9,0.8,15.9,0.4,23.8-0.4c7.9-0.9,15.8-2.2,23.4-4.5
		C345.5,128.7,337.6,129.5,329.7,130.4z M329.7,130.4c-7.9,0.9-15.7,1.7-23.6,2.8c7.9,0.8,15.9,0.4,23.8-0.4
		c7.9-0.9,15.8-2.2,23.4-4.5C345.5,128.7,337.6,129.5,329.7,130.4z M180.3,148.4c9.1,7,22.6,10.1,33.9,7.7
		c-5.5-0.6-10.8-1.3-16.1-2.5C192,152.3,186.1,150.5,180.3,148.4z M73.9,85.8c10.2,18.1,29.7,39.2,50.8,43.4c-2.7-1-5.2-2.2-7.7-3.5
		C99.6,116.1,86.2,101,73.9,85.8z M78.2,30c2.2-1.9,5-1.7,5-1.7c-2.1-0.8-3.3-2.7-3.9-3.9c-0.2-1.2-0.7-2.4-1.4-3.4
		c-1.3-1.8-3.2-3-5.3-3.4c-2.2-0.4-4.4,0.1-6.2,1.4c-1.2,0.8-2.2,2-2.8,3.3c-1.6,1.6-3.6,1.5-3.6,1.5c1.6,0.6,2.4,1.7,2.8,2.5
		c0.1,1.5,0.6,2.9,1.5,4.2c1.6,2.3,4.2,3.5,6.8,3.5c1.6,0,3.3-0.5,4.7-1.5C76.8,31.8,77.6,30.9,78.2,30z M74.8,31
		c-1.4,1-3.1,1.4-4.8,1.1c-1.7-0.3-3.2-1.2-4.2-2.7c-0.2-0.3-0.4-0.7-0.6-1c1.5,2.2,4.6,2.7,6.8,1.2c0.1-0.1,0.3-0.2,0.4-0.3
		c-0.8-0.1-1.5-0.6-2-1.3c-1-1.4-0.6-3.3,0.8-4.2c0.7-0.5,1.6-0.7,2.4-0.5c-0.1-0.2-0.2-0.4-0.3-0.6c-1.5-2.2-4.6-2.8-6.8-1.2
		c-0.3,0.2-0.6,0.5-0.8,0.7c0.5-0.7,1.1-1.4,1.8-1.9c1.1-0.8,2.4-1.2,3.7-1.2c0.4,0,0.8,0,1.1,0.1c1.7,0.3,3.2,1.2,4.2,2.7
		C78.4,24.9,77.7,28.9,74.8,31z M22.4,35c11,5.8,21.7,11.9,31.7,19.2c-0.7-0.8-1.6-1.8-2.4-2.6C43.7,44,33.2,38,22.4,35z M24,30.5
		c11.9,1.9,23.8,3.3,35.3,7C49.6,31.6,35.3,29.8,24,30.5z M467.8,117c-5.1-3-11.7-3.3-16.6-3.6c-0.6,0-1.1-0.1-1.6-0.1
		c-7.5-0.5-13.4-2.1-17.4-3.6c4.4,0,10.7-0.1,22.9-1.4c10.2-1,14.6-4.1,16.4-6.3c6-0.7,11.9-2.4,16.7-6.2l1.9-1.4
		c-7.9-4.4-16.3-8.3-25.3-9.6c-12.3-1.7-24.5,1.9-36.6,2.9c-8,0.8-16.1,1-24.1,0.8c-12-0.1-23.9-2.5-34.7-7.7
		c-14.6-6.9-27.3-17.2-40.5-26.4c-27.4-19.9-57-31.4-91-32.9c-25.6-1.4-51,4.3-75.1,12.4c-2.8,0.9-5.8,1.6-8.7,2
		c-11.1,1.7-23,0-32.9-5.2c-4.2-5-8.5-10-13.1-14.7C95,1.4,78.3-3.8,59.8,2.9c-4.3,1.5-8.3,3.7-12.5,5.5c-6.5,2.5-16.6,6-23.2,8.3
		c-3.4,1.3-8.1,2.6-11.3,4.7c-1.2-3.4-2.6-6.8-4.9-9.6c0.4,3.8,1.7,7.3,3.3,10.7c-0.9,0.7-1.6,1.4-2.3,2.2c-2.7-2.3-5.9-4.2-9.1-5.8
		c2.4,2.7,5,5.3,8,7.4C5.3,30.8,6.5,36.3,10.6,41c3.2,3.9,7.4,7,12,8.9c3.9,5.4,11.6,7,15.9,7.9c0.4,0.1,0.8,0.2,1.1,0.2
		C58.4,62.4,66.3,84,66.4,84.2l0,0.1c13.7,30.5,39.5,45.2,58.7,52.1c19.6,7.1,36.1,7.7,38.5,7.8c3.2,2.4,6.4,4.9,9.4,7.6
		c14.6,13.3,36.8,15.9,54.7,8.2c4.4-1.9,8.6-4.3,12.5-7.3c0,0,0,0-0.1-0.1c3.8-1.9,6.8-5.1,7.8-9.6c0.4-0.4,0.7-0.9,0.9-1.4
		c0.2-0.8,0.1-1.5-0.1-2.1c34.8,3.8,70.1,1.5,104.6-4.4c4.9-0.9,10.2-1.8,15-3c17.2-4.5,24.7-10.8,43.9-7.6c4.9,0.8,9.8,2,14.7,3.3
		c19.7,5.9,43.2,3.2,58.8-11.2l4.2-4.1C482.8,114.9,475.3,116.2,467.8,117z M477.9,119.1c-10.4,6.7-23.1,9.6-35.4,8.6
		c-5-0.4-9.9-1.3-14.7-2.7c-9.9-2.7-20.2-5-30.6-4c-10.3,1-19.6,5.9-29.5,8.3c-34.5,7.6-70.2,10.5-105.5,8.5c-5-0.3-10.1-0.7-15-1.4
		c0,0-2.6-0.8-3.7-1.3l-1.1-0.6l-1.2-0.5c-4.7-1.9-10.2-1.7-15-0.8c-5.1,0.9-9.8,2.6-14.9,2.5c-4.2-0.1-8.1-1.7-11.9-3.6
		c-2.8-1.4-5.4-3.1-8.1-4.9c2,2.6,4.5,4.7,7.1,6.5c3.7,2.5,8.2,4.3,12.7,4.6c5.2,0.4,10.6-1.2,15.6-2c4.5-0.8,9-0.9,13.2,0.6l1,0.4
		l1,0.5c1.4,0.7,3.2,1.6,4,2.8c-0.6,0.9-1.8,1.2-2.8,1.7c-2.8,1.1-5.9,1.8-9,2.8c2.3,0.4,6.5,0.6,9.8-0.3c-0.6,1-1.3,1.9-2.1,2.7
		c-1,1-2.2,1.9-3.4,2.7c0,0,0,0,0,0c-0.2,0.1-0.4,0.3-0.6,0.4c-4.9,2.7-10.8,3.4-16.4,3.5c2.7,0.7,5.8,1.1,8.8,0.9
		c-15.6,7.4-34.7,7.4-49.3-2.1c-1.9-1.2-3.7-2.6-5.4-4.1c-3.6-3.1-7.4-5.9-11.3-8.6c-7.8-5.3-15.8-10.6-25.1-13
		c5.6,4.4,11.5,8,17.4,11.9c0.8,0.6,1.7,1.2,2.5,1.7c-6.6-0.6-19.1-2.3-33-7.3c-18.7-6.7-43.7-21-56.9-50.4
		c-0.6-1.6-8.8-23.4-28.9-28c-0.3-0.1-0.7-0.2-1.2-0.3c-2.6-0.5-6.6-1.4-9.9-3.3c3.9,0.5,8,0.1,11.4-2.1
		c-11.5-0.7-19.4-1.2-27.3-10.7c-0.5-0.6-0.9-1.1-1.2-1.7c1.8-0.6,6.7-2.5,7.8-4.8c1-2-0.7-6.9-1.7-9.6c0.4-0.2,0.8-0.3,1.2-0.5
		c8-2.7,19.2-6.6,27.1-9.5c0.7-0.3,1.9-0.7,2.6-1c2.2-0.9,4.1-2,6.2-2.9c13.5-6.3,27.8-7.4,40.5,1.4c3.4,2.3,6.4,5.2,9.3,8.1
		c6,6.1,11.4,12.4,17.1,18.9c4.3,5,10.2,8.8,16.7,10.2c2.1,0.5,4.2,0.8,6.5,0.9c-3-2.1-8-4.2-11.3-5.8c-3.4-1.6-6.1-3.9-8.6-6.6
		c7.2,2.7,15,3.8,22.6,3.5c6.2-0.3,12.4-1.6,18.2-3.7c56.5-19.6,111.7-15,160.5,21c19.8,13.9,39.7,30.6,64.6,33.7
		c12.2,1.4,24.6,1.3,36.8,0.1c23.4-2.6,34.2-7.4,55.7,3.9c-5.5,2.7-11.7,3.7-17.8,4c-5.4,0.4-11.1,0.5-16.5,1.7
		c-1.8,0.4-3.7,0.9-5.3,2c1.8-0.3,3.6-0.2,5.5-0.2c5.2,0.2,11,0.5,16.2,0.3c-2.2,1.2-5.8,2.4-11.4,3c-14.2,1.5-20.2,1.4-24.7,1.4
		c-1.7,0-3.1,0-4.7,0l-4.8,0.2l4,2.6c0.4,0.2,9.3,5.9,24.7,6.9c0.5,0,1.1,0.1,1.6,0.1c3.1,0.2,6.8,0.4,10.3,1.3
		c-5.3,0.5-10.7,0.9-16,1.3c6.6,1,14.4,1.6,21.9,1.2c3.7-0.2,7.3-0.6,10.8-1.2C478,119.1,478,119.1,477.9,119.1z M306.1,133.2
		c7.9,0.8,15.9,0.4,23.8-0.4c7.9-0.9,15.8-2.2,23.4-4.5c-7.9,0.4-15.8,1.3-23.7,2.1C321.8,131.2,314,132,306.1,133.2z M214.2,156.1
		c-5.5-0.6-10.8-1.3-16.1-2.5c-6-1.4-11.9-3.1-17.7-5.3C189.4,155.4,202.9,158.5,214.2,156.1z M73.9,85.8
		c10.2,18.1,29.7,39.2,50.8,43.4c-2.7-1-5.2-2.2-7.7-3.5C99.6,116.1,86.2,101,73.9,85.8z M78.2,30c2.2-1.9,5-1.7,5-1.7
		c-2.1-0.8-3.3-2.7-3.9-3.9c-0.2-1.2-0.7-2.4-1.4-3.4c-1.3-1.8-3.2-3-5.3-3.4c-2.2-0.4-4.4,0.1-6.2,1.4c-1.2,0.8-2.2,2-2.8,3.3
		c-1.6,1.6-3.6,1.5-3.6,1.5c1.6,0.6,2.4,1.7,2.8,2.5c0.1,1.5,0.6,2.9,1.5,4.2c1.6,2.3,4.2,3.5,6.8,3.5c1.6,0,3.3-0.5,4.7-1.5
		C76.8,31.8,77.6,30.9,78.2,30z M74.8,31c-1.4,1-3.1,1.4-4.8,1.1c-1.7-0.3-3.2-1.2-4.2-2.7c-0.2-0.3-0.4-0.7-0.6-1
		c1.5,2.2,4.6,2.7,6.8,1.2c0.1-0.1,0.3-0.2,0.4-0.3c-0.8-0.1-1.5-0.6-2-1.3c-1-1.4-0.6-3.3,0.8-4.2c0.7-0.5,1.6-0.7,2.4-0.5
		c-0.1-0.2-0.2-0.4-0.3-0.6c-1.5-2.2-4.6-2.8-6.8-1.2c-0.3,0.2-0.6,0.5-0.8,0.7c0.5-0.7,1.1-1.4,1.8-1.9c1.1-0.8,2.4-1.2,3.7-1.2
		c0.4,0,0.8,0,1.1,0.1c1.7,0.3,3.2,1.2,4.2,2.7C78.4,24.9,77.7,28.9,74.8,31z M22.4,35c11,5.8,21.7,11.9,31.7,19.2
		c-0.7-0.8-1.6-1.8-2.4-2.6C43.7,44,33.2,38,22.4,35z M24,30.5c11.9,1.9,23.8,3.3,35.3,7C49.6,31.6,35.3,29.8,24,30.5z M24,30.5
		c11.9,1.9,23.8,3.3,35.3,7C49.6,31.6,35.3,29.8,24,30.5z M51.8,51.7C43.7,44,33.2,38,22.4,35c11,5.8,21.7,11.9,31.7,19.2
		C53.4,53.4,52.6,52.5,51.8,51.7z M79.3,24.4c-0.2-1.2-0.7-2.4-1.4-3.4c-1.3-1.8-3.2-3-5.3-3.4c-2.2-0.4-4.4,0.1-6.2,1.4
		c-1.2,0.8-2.2,2-2.8,3.3c-1.6,1.6-3.6,1.5-3.6,1.5c1.6,0.6,2.4,1.7,2.8,2.5c0.1,1.5,0.6,2.9,1.5,4.2c1.6,2.3,4.2,3.5,6.8,3.5
		c1.6,0,3.3-0.5,4.7-1.5c1-0.7,1.7-1.5,2.3-2.5c2.2-1.9,5-1.7,5-1.7C81.1,27.4,79.9,25.6,79.3,24.4z M74.8,31
		c-1.4,1-3.1,1.4-4.8,1.1c-1.7-0.3-3.2-1.2-4.2-2.7c-0.2-0.3-0.4-0.7-0.6-1c1.5,2.2,4.6,2.7,6.8,1.2c0.1-0.1,0.3-0.2,0.4-0.3
		c-0.8-0.1-1.5-0.6-2-1.3c-1-1.4-0.6-3.3,0.8-4.2c0.7-0.5,1.6-0.7,2.4-0.5c-0.1-0.2-0.2-0.4-0.3-0.6c-1.5-2.2-4.6-2.8-6.8-1.2
		c-0.3,0.2-0.6,0.5-0.8,0.7c0.5-0.7,1.1-1.4,1.8-1.9c1.1-0.8,2.4-1.2,3.7-1.2c0.4,0,0.8,0,1.1,0.1c1.7,0.3,3.2,1.2,4.2,2.7
		C78.4,24.9,77.7,28.9,74.8,31z M117,125.6c-17.4-9.6-30.8-24.7-43.1-39.9c10.2,18.1,29.7,39.2,50.8,43.4
		C122,128.1,119.5,127,117,125.6z M198,153.6c-6-1.4-11.9-3.1-17.7-5.3c9.1,7,22.6,10.1,33.9,7.7C208.7,155.5,203.4,154.8,198,153.6
		z M329.7,130.4c-7.9,0.9-15.7,1.7-23.6,2.8c7.9,0.8,15.9,0.4,23.8-0.4c7.9-0.9,15.8-2.2,23.4-4.5
		C345.5,128.7,337.6,129.5,329.7,130.4z M117,125.6c-17.4-9.6-30.8-24.7-43.1-39.9c10.2,18.1,29.7,39.2,50.8,43.4
		C122,128.1,119.5,127,117,125.6z M329.7,130.4c-7.9,0.9-15.7,1.7-23.6,2.8c7.9,0.8,15.9,0.4,23.8-0.4c7.9-0.9,15.8-2.2,23.4-4.5
		C345.5,128.7,337.6,129.5,329.7,130.4z M198,153.6c-6-1.4-11.9-3.1-17.7-5.3c9.1,7,22.6,10.1,33.9,7.7
		C208.7,155.5,203.4,154.8,198,153.6z M24,30.5c11.9,1.9,23.8,3.3,35.3,7C49.6,31.6,35.3,29.8,24,30.5z M51.8,51.7
		C43.7,44,33.2,38,22.4,35c11,5.8,21.7,11.9,31.7,19.2C53.4,53.4,52.6,52.5,51.8,51.7z M79.3,24.4c-0.2-1.2-0.7-2.4-1.4-3.4
		c-1.3-1.8-3.2-3-5.3-3.4c-2.2-0.4-4.4,0.1-6.2,1.4c-1.2,0.8-2.2,2-2.8,3.3c-1.6,1.6-3.6,1.5-3.6,1.5c1.6,0.6,2.4,1.7,2.8,2.5
		c0.1,1.5,0.6,2.9,1.5,4.2c1.6,2.3,4.2,3.5,6.8,3.5c1.6,0,3.3-0.5,4.7-1.5c1-0.7,1.7-1.5,2.3-2.5c2.2-1.9,5-1.7,5-1.7
		C81.1,27.4,79.9,25.6,79.3,24.4z M74.8,31c-1.4,1-3.1,1.4-4.8,1.1c-1.7-0.3-3.2-1.2-4.2-2.7c-0.2-0.3-0.4-0.7-0.6-1
		c1.5,2.2,4.6,2.7,6.8,1.2c0.1-0.1,0.3-0.2,0.4-0.3c-0.8-0.1-1.5-0.6-2-1.3c-1-1.4-0.6-3.3,0.8-4.2c0.7-0.5,1.6-0.7,2.4-0.5
		c-0.1-0.2-0.2-0.4-0.3-0.6c-1.5-2.2-4.6-2.8-6.8-1.2c-0.3,0.2-0.6,0.5-0.8,0.7c0.5-0.7,1.1-1.4,1.8-1.9c1.1-0.8,2.4-1.2,3.7-1.2
		c0.4,0,0.8,0,1.1,0.1c1.7,0.3,3.2,1.2,4.2,2.7C78.4,24.9,77.7,28.9,74.8,31z"/>
</g>
</svg>
