<?xml version="1.0" encoding="utf-8"?>
<!-- Generator: Adobe Illustrator 28.3.0, SVG Export Plug-In . SVG Version: 6.00 Build 0)  -->
<svg version="1.1" id="tiger_00000049219557042938637180000011732458321831502230_"
	 xmlns="http://www.w3.org/2000/svg" xmlns:xlink="http://www.w3.org/1999/xlink" x="0px" y="0px" viewBox="0 0 302.338 490"
	 enable-background="new 0 0 302.338 490" xml:space="preserve">
<g id="tiger">
	<g>
		<path fill="#F99128" d="M190.479,158.125l2.353,1.297l-1.308-2.347c-0.678-1.216-1.404-2.511-2.125-3.747l-0.617-1.058
			l-0.687,1.014c-0.458,0.677-0.915,1.322-1.358,1.918l-0.56,0.754l0.849,0.402C188.192,156.91,189.354,157.505,190.479,158.125z"/>
		<path fill="#F99128" d="M61.85,152.299l-0.613,1.068c-0.769,1.339-1.447,2.539-2.075,3.668l-1.304,2.347l2.35-1.297
			c1.084-0.599,2.222-1.179,3.381-1.725l0.85-0.4l-0.558-0.756c-0.457-0.617-0.907-1.252-1.339-1.887L61.85,152.299z"/>
		<path fill="#F99128" d="M291.18,306.234l-1.148-3.696l-0.355,3.854c-0.446,4.845-2.393,12.448-9.019,21.616
			c1.195-7.111,3.926-24.931,4.117-40.2l0.001-0.145l-0.051-0.135c-4.767-12.681-9.753-24.054-13.759-33.193l-0.056-0.129
			c-3.225-7.358-5.773-13.17-7.022-16.945c-0.17-0.516-0.326-1.018-0.482-1.526l-0.658-2.144l-0.799,2.095
			c-3.504,9.188-4.95,17.181-5.546,22.121c-3.268-16.226,3.974-33.745,4.051-33.928l0.087-0.206l-0.037-0.221
			c-1.256-7.461-1.637-14.438-1.974-20.592l-0.005-0.087c-0.447-8.217-0.834-15.313-3.489-17.62
			c-0.525-0.447-1.427-1.023-3.227-0.866c-2.257,0.201-3.916,2.318-4.91,4.057c-3.051,5.331-4.68,15.476-4.356,27.139l0.15,5.387
			l1.367-5.213c0.872-3.328,2.292-6.739,4.23-10.165c-1.361,6.8-3.563,19.792-3.25,31.367l0.012,0.096
			c2.248,11.256,5.848,22.157,10.7,32.402c1.567,3.305,3.082,6.585,4.501,9.748l1.14,2.542l0.328-2.767
			c0.494-4.168,2.069-8.528,4.687-12.983c-0.465,5.376-1.196,15.896-0.824,25.636l0.005,0.134l0.05,0.123
			c8.706,21.855,9.64,33.005,9.955,45.31c0.278,10.82-1.008,20.975-3.824,30.182l-0.873,2.854l2.146-2.075
			c4.271-4.13,11.598-11.961,15.645-20.521c-0.52,3.051-1.4,6.911-2.885,11.083c-3.117,8.756-9.627,20.719-22.943,27.988
			l-0.168,0.092l-0.105,0.159c-4.005,6.049-8.909,11.48-14.576,16.143c-11.454,9.397-22.866,13.355-27.242,14.62l-1.934,0.56
			l1.814,0.875c2.841,1.37,13.486,5.528,33.198,2.771c-5.347,3.919-20.019,12.649-42.999,11.298l-0.455-0.027l-0.242,0.385
			c-1.471,2.336-2.625,4.098-3.334,5.164l-0.473,0.713l0.758,0.397c1.263,0.661,2.501,1.614,3.678,2.83
			c1.898,1.99,3.52,4.542,4.689,7.38c0.434,1.051,0.795,2.137,1.105,3.321l0.225,0.856l0.816-0.34
			c29.731-12.367,51.96-29.592,66.069-51.196l1.974-3.023l-3.036,1.953c-6.177,3.973-16.146,8.21-28.954,6.278
			c6.892-3.106,29.68-14.047,41.183-27.695l0.088-0.104l0.047-0.128c0.75-2.058,1.453-4.193,2.091-6.349
			C301.939,357.127,299.955,334.48,291.18,306.234z"/>
		<path fill="#F99128" d="M227.883,398.142l-2.824,2.309c-4.642,3.796-10.219,5.467-16.6,4.98
			c5.041-1.378,14.166-5.036,22.803-14.498l0.131-0.196c3.573-7.744,6.63-15.239,9.085-22.275l1.681-4.816l-3.028,4.105
			c-6.473,8.773-16.077,14.129-28.564,15.934c18.338-12.13,30.571-25.314,36.37-39.2l0.048-0.164
			c1.367-7.782,1.282-14.835-0.252-20.964l-1.115-4.456l-0.4,4.576c-0.952,10.888-7.467,26.399-32.807,39.143
			c6.976-7.514,23.748-27.384,29.26-49.966l0.087-0.354l-0.219-0.291c-0.052-0.07-0.102-0.141-0.152-0.215
			c-0.069-0.1-0.139-0.202-0.212-0.298c-2.281-3.039-5.165-5.718-8.571-7.964l-1.296-0.854l0.103,1.548
			c0.482,7.239-1.259,21.294-17.881,35.44c3.295-6.304,10.369-21.703,11.493-39.499l0.035-0.563l-0.525-0.204
			c-3.153-1.228-5.924-1.905-7.694-2.257l-0.871-0.174l-0.049,0.887c-1.283,23.067-12.476,56.123-22.351,85.288l-0.029,0.085
			c-7.527,22.226-14.638,43.219-16.742,57.494l-0.368,2.497l1.7-1.866c1.379-1.513,2.813-2.465,3.933-2.612
			c1.928-0.245,3.837,0.408,5.671,1.937l0.495,0.413l0.494-0.414c0.528-0.443,1.118-0.795,1.755-1.046
			c2.045-0.81,4.421-0.54,6.88,0.787c0.201,0.101,0.412,0.219,0.625,0.351l0.542,0.335l0.43-0.469
			c0.621-0.675,1.351-1.181,2.172-1.505c0.876-0.35,1.838-0.475,2.861-0.367l0.462,0.047l0.258-0.386
			c2.671-3.991,12.116-18.454,21.526-37.03L227.883,398.142z"/>
		<path fill="#F99128" d="M57.074,383.21l-0.366,0.121l0.365-0.123l-0.021-0.063c-9.875-29.166-21.068-62.223-22.351-85.288
			l-0.049-0.886l-0.87,0.173c-1.75,0.347-4.506,1.021-7.699,2.257l-0.526,0.204l0.035,0.563c1.119,17.797,8.19,33.194,11.485,39.498
			c-16.627-14.153-18.361-28.198-17.874-35.431l0.105-1.55l-1.297,0.855c-3.404,2.243-6.285,4.92-8.562,7.953
			c-0.085,0.111-0.165,0.228-0.244,0.344c-0.046,0.067-0.092,0.135-0.138,0.199l-0.208,0.289l0.085,0.345
			c5.517,22.577,22.283,42.443,29.255,49.954C12.88,349.893,6.359,334.389,5.395,323.503l-0.404-4.565l-1.111,4.446
			c-1.532,6.129-1.612,13.187-0.237,20.978l0.048,0.163c5.807,13.875,18.034,27.045,36.352,39.159
			c-12.478-1.805-22.078-7.152-28.547-15.907l-3.032-4.102l1.685,4.815c2.476,7.077,5.533,14.569,9.085,22.267l0.131,0.197
			c8.632,9.443,17.748,13.097,22.784,14.475c-6.379,0.484-11.949-1.183-16.583-4.966l-2.821-2.304l1.646,3.249
			c9.341,18.431,18.833,32.992,21.519,37.016l0.258,0.386l0.462-0.047c1.028-0.107,1.991,0.017,2.865,0.368
			c0.818,0.322,1.548,0.828,2.168,1.503l0.434,0.473l0.544-0.342c0.221-0.139,0.455-0.262,0.682-0.379
			c2.414-1.306,4.771-1.568,6.819-0.756c0.635,0.25,1.225,0.602,1.753,1.044l0.494,0.415l0.495-0.413
			c1.83-1.526,3.736-2.175,5.662-1.938c1.128,0.148,2.565,1.1,3.943,2.613l1.7,1.865l-0.368-2.496
			C71.718,426.443,64.605,405.443,57.074,383.21z"/>
		<path fill="#F99128" d="M191.764,382.582l0.016-0.047c11.563-34.132,24.668-72.817,22.056-95.072
			c-1.69-14.422-2.6-30.53-3.065-41.504l-0.205-4.827l-1.307,4.651c-1.109,3.947-2.362,7.926-3.575,11.782
			c-1.062,3.375-2.16,6.865-3.15,10.298c-1.175,3.997-2.361,8.332-3.199,13.161c-0.018-0.146-0.033-0.289-0.046-0.43
			c-0.47-3.84-0.097-8.054,1.173-13.256c0.978-3.702,2.063-7.417,3.113-11.009c2.198-7.521,4.47-15.297,5.822-23.217
			c1.244-7.134,1.789-12.485,1.765-17.356c-0.511-20.067-9.938-40.37-18.095-55.817l-0.108-0.204l-0.201-0.111
			c-1.985-1.092-4.114-2.134-6.327-3.094l-0.537-0.233l-0.369,0.455c-6.919,8.528-16.276,14.267-26.352,16.16
			c-4.518,0.924-9.473,1.194-14.724,0.802l-0.322-0.024l-0.243,0.212c-0.059,0.052-0.118,0.105-0.18,0.162
			c-0.089,0.082-0.178,0.165-0.29,0.249c-5.298,4.271-12.731,4.569-18.068,4.064l-0.109,0.003
			c-5.295,0.502-12.724,0.204-18.034-4.062c-0.088-0.071-0.172-0.148-0.268-0.236c-0.066-0.061-0.132-0.122-0.199-0.18l-0.243-0.212
			l-0.322,0.024c-5.256,0.39-10.212,0.12-14.736-0.805c-10.065-1.897-19.422-7.638-26.347-16.165l-0.369-0.454l-0.536,0.233
			c-2.183,0.947-4.301,1.983-6.293,3.081l-0.199,0.109l-0.107,0.199c-10.537,19.479-16.404,36.332-17.938,51.525
			c-0.335,3.666-0.223,8.162,0.323,12.999c0.845,7.845,2.526,16.043,5.29,25.792c0.65,2.483,1.429,5.015,2.183,7.466
			c2.064,6.71,4.198,13.649,4.075,20.674c-0.035,0.891-0.114,1.77-0.237,2.631c-0.838-4.819-2.021-9.146-3.193-13.133
			c-0.989-3.429-2.085-6.912-3.145-10.28l-0.012-0.039c-1.21-3.845-2.461-7.821-3.569-11.765l-1.308-4.651l-0.204,4.827
			c-0.465,10.974-1.374,27.082-3.065,41.504c-2.612,22.254,10.493,60.938,22.056,95.071l0.018,0.053
			c9.639,28.47,17.963,53.058,17.454,66.782l-0.031,0.832l0.832-0.033c0.624-0.024,1.241,0.036,1.833,0.182
			c0.99,0.255,1.898,0.741,2.699,1.443l0.487,0.427l0.504-0.406c0.328-0.264,0.575-0.453,0.8-0.612
			c0.575-0.4,1.045-0.689,1.487-0.913c1.984-1.069,4.03-1.383,5.913-0.912c0.774,0.197,1.516,0.527,2.206,0.98l0.553,0.363
			l0.443-0.493c1.783-1.984,3.866-3.033,6.025-3.033c2.476,0,4.82,1.368,6.778,3.956l0.382,0.505l0.569-0.277
			c0.42-0.204,0.859-0.366,1.337-0.494c1.97-0.494,4.119-0.126,6.216,1.061l1.741,0.986l-0.709-2.137
			c-2.301-7.258-3.923-14.617-4.82-21.867c-0.306-2.701-0.551-5.518-0.788-8.242l-0.006-0.066c-0.186-2.133-0.378-4.338-0.597-6.456
			c-2.055-19.896-4.393-39.295-10.359-57.91c-0.639-1.798-1.296-3.564-1.942-5.303c-0.741-1.994-1.504-4.046-2.241-6.158
			c2.259,2.025,3.633,4.893,4.778,7.733l1.531,3.799l-0.046-4.095c-0.142-12.766-3.657-25.561-6.942-36.556
			c-1.132-3.598-2.301-7.416-3.213-11.425c1.861,2.937,3.514,6.413,5.131,10.768c2.094,5.776,3.573,10.538,4.655,14.986
			c2.066,8.489,4.147,19.653,1.878,30.727l-0.04,0.194l0.058,0.189c0.856,2.776,1.655,5.658,2.441,8.808
			c3.085,12.614,5.243,26.181,6.998,43.993c0.243,2.335,0.437,4.775,0.625,7.135c0.199,2.503,0.405,5.091,0.67,7.58
			c0.818,7.432,2.263,14.673,4.295,21.522c0.765,2.624,1.489,4.826,2.212,6.73l0.094,0.175c1.571,2.193,2.859,4.766,3.829,7.649
			l0.73,2.172l0.731-2.171c0.969-2.882,2.257-5.455,3.828-7.649l0.094-0.175c0.721-1.901,1.445-4.102,2.211-6.727
			c2.032-6.851,3.478-14.094,4.295-21.528c0.266-2.5,0.472-5.083,0.671-7.58l0.004-0.049c0.187-2.343,0.38-4.765,0.621-7.088
			c1.754-17.807,3.912-31.373,6.997-43.985c0.785-3.149,1.583-6.031,2.441-8.812l0.058-0.189l-0.04-0.193
			c-2.269-11.074-0.188-22.239,1.878-30.728c1.084-4.454,2.563-9.215,4.653-14.98c1.617-4.357,3.271-7.835,5.133-10.773
			c-0.912,4.008-2.081,7.829-3.216,11.435c-3.282,10.989-6.796,23.782-6.939,36.546l-0.045,4.096l1.531-3.799
			c1.144-2.84,2.517-5.707,4.778-7.733c-0.737,2.111-1.5,4.163-2.247,6.174c-0.604,1.623-1.288,3.462-1.944,5.311
			c-5.959,18.594-8.297,37.992-10.352,57.887c-0.221,2.141-0.415,4.367-0.602,6.52c-0.237,2.725-0.482,5.543-0.787,8.236
			c-0.897,7.257-2.519,14.615-4.817,21.863l-0.035,0.096c-0.02,0.051-0.038,0.102-0.055,0.152l-0.634,1.9l1.744-0.984
			c2.102-1.188,4.247-1.556,6.2-1.064c0.496,0.131,0.941,0.293,1.361,0.496l0.569,0.276l0.383-0.504
			c1.958-2.588,4.302-3.956,6.778-3.956c2.158,0,4.242,1.049,6.025,3.033l0.443,0.493l0.554-0.364
			c0.689-0.453,1.431-0.783,2.204-0.979c1.881-0.475,3.938-0.153,5.958,0.933c0.411,0.209,0.895,0.51,1.439,0.894
			c0.269,0.19,0.54,0.395,0.804,0.608l0.505,0.407l0.487-0.427c0.801-0.703,1.707-1.188,2.689-1.441
			c0.6-0.147,1.221-0.208,1.842-0.184l0.831,0.033l-0.031-0.832C173.799,435.644,182.124,411.054,191.764,382.582z M150.318,290.07
			c3.694-9.038,11.518-22.402,27.816-34.742c11.411-8.637,17.121-20.319,19.902-28.597c1.097-3.265,1.834-6.273,2.326-8.747
			c0.119,3.742,0.059,8.487-0.524,13.593c-1.179,10.321-4.814,24.255-15.436,32.025c-20.52,15.003-27.575,25.301-35.046,36.205
			c-0.944,1.379-1.914,2.794-2.921,4.233C146.847,301.018,147.855,296.095,150.318,290.07z M139.862,256.605
			c3.231-11.49,10.876-27.782,28.95-40.144c14.141-9.675,21.097-18.519,24.442-24.234c1.513-2.585,2.447-4.772,3.023-6.454
			c0.174,2.361,0.146,5.85-0.781,9.947c-1.686,7.458-6.739,18.563-21.235,29.122c-20.905,15.223-33.043,40.401-37.183,50.215
			C137.153,270.966,137.686,264.346,139.862,256.605z M167.755,194.698c-3.758,2.256-8.256,4.107-13.023,6.069
			c-6.639,2.732-13.485,5.549-18.262,9.602c2.197-5.436,7.661-15.483,19.036-19.483c11.932-4.206,22.983-14.038,28.312-19.301
			C181.245,177.545,175.068,190.31,167.755,194.698z M189.004,276.186c-1.889,8.016-8.983,34.068-23.785,46.305
			C167.546,315.128,176.007,290.463,189.004,276.186z M84.057,322.491c-14.802-12.237-21.896-38.289-23.785-46.305
			C73.266,290.461,81.729,315.128,84.057,322.491z M65.458,171.586c5.329,5.263,16.382,15.094,28.318,19.3
			c11.369,4,16.831,14.046,19.028,19.481c-4.773-4.051-11.617-6.867-18.255-9.599c-4.764-1.961-9.264-3.812-13.021-6.07
			C74.21,190.31,68.033,177.546,65.458,171.586z M53.78,195.719c-0.927-4.099-0.956-7.587-0.782-9.948
			c0.576,1.682,1.511,3.87,3.024,6.455c3.346,5.715,10.303,14.559,24.447,24.234c18.07,12.362,25.714,28.654,28.945,40.144
			c2.176,7.74,2.709,14.361,2.783,18.451c-4.14-9.815-16.277-34.992-37.176-50.215C60.52,214.282,55.466,203.176,53.78,195.719z
			 M102.848,304.04c-1.014-1.447-1.985-2.865-2.932-4.246c-7.471-10.9-14.527-21.194-35.041-36.193
			c-10.618-7.767-14.254-21.693-15.435-32.008c-0.585-5.114-0.646-9.868-0.526-13.616c0.493,2.476,1.231,5.486,2.328,8.753
			c2.781,8.279,8.491,19.96,19.899,28.597c16.298,12.341,24.124,25.705,27.819,34.743
			C101.426,296.096,102.435,301.019,102.848,304.04z"/>
		<path fill="#F99128" d="M155.955,160.584l-0.172,0.131c-2.17,1.655-4.366,2.68-6.527,3.046l-0.589,0.1l-0.05,0.595
			c-0.187,2.201-0.923,4.393-2.128,6.34l-0.7,1.131l1.33,0.045c0.643,0.021,1.29,0.032,1.922,0.032c3.424,0,6.709-0.315,9.756-0.936
			c9.268-1.728,17.994-6.947,24.571-14.695l0.704-0.831l-1.018-0.388c-2.458-0.937-5.066-1.8-7.751-2.563l-0.449-0.128l-0.321,0.338
			c-4.202,4.42-10.037,6.886-18.364,7.76L155.955,160.584z"/>
		<path fill="#F99128" d="M184.719,154.708c1.629-2.106,3.079-4.339,4.311-6.637l0.494-0.923l-1.029-0.198
			c-2.714-0.522-5.561-0.958-8.462-1.297l-0.513-0.06l-0.251,0.451c-0.803,1.445-1.906,3.333-3.322,5.124l-0.716,0.906l1.111,0.314
			c2.582,0.73,5.097,1.592,7.476,2.562l0.543,0.221L184.719,154.708z"/>
		<path fill="#F99128" d="M172.049,151.317l0.431,0.095l0.3-0.324c1.308-1.414,2.494-2.993,3.526-4.694l0.644-1.063l-1.239-0.104
			c-3.229-0.271-6.551-0.434-9.872-0.482l-0.666-0.01l-0.106,0.658c-0.193,1.2-0.507,2.428-0.933,3.651l-0.313,0.899l0.945,0.119
			C167.191,150.365,169.641,150.787,172.049,151.317z"/>
		<path fill="#F99128" d="M163.564,150.53c-0.996,2.348-2.369,4.569-4.079,6.601l-1.438,1.708l2.186-0.458
			c2.743-0.575,6.857-2.021,10.882-5.65l1.089-0.982l-1.426-0.34c-2.006-0.479-4.148-0.929-6.363-1.337l-0.608-0.112L163.564,150.53
			z"/>
		<path fill="#F99128" d="M85.551,145.386l-0.106-0.659l-0.668,0.011c-3.358,0.056-6.683,0.221-9.883,0.489l-1.243,0.104l0.65,1.065
			c1.055,1.729,2.243,3.308,3.533,4.694l0.3,0.322l0.43-0.094c2.408-0.529,4.858-0.952,7.282-1.256l0.94-0.118l-0.307-0.897
			C86.054,147.808,85.742,146.576,85.551,145.386z"/>
		<path fill="#F99128" d="M66.259,155.171l0.542-0.221c2.405-0.98,4.917-1.842,7.469-2.562l1.112-0.313l-0.717-0.907
			c-1.401-1.771-2.516-3.669-3.33-5.125l-0.251-0.449l-0.511,0.06c-2.848,0.333-5.69,0.767-8.447,1.289l-1.031,0.196l0.496,0.925
			c1.239,2.312,2.689,4.547,4.311,6.644L66.259,155.171z"/>
		<path fill="#F99128" d="M78.411,151.751l1.087,0.982c4.01,3.622,8.135,5.071,10.889,5.65l2.193,0.461l-1.446-1.712
			c-1.679-1.988-3.09-4.271-4.08-6.6l-0.241-0.569l-0.607,0.112c-2.208,0.406-4.352,0.856-6.37,1.337L78.411,151.751z"/>
		<path fill="#F99128" d="M91.812,171.066c3.058,0.622,6.341,0.938,9.76,0.938c0.629,0,1.275-0.011,1.921-0.033l1.326-0.045
			l-0.695-1.13c-1.201-1.951-1.935-4.144-2.122-6.342l-0.051-0.595l-0.589-0.1c-2.16-0.366-4.356-1.391-6.526-3.046l-0.172-0.131
			l-0.215-0.023c-8.339-0.875-14.176-3.34-18.37-7.76l-0.321-0.338l-0.449,0.128c-2.669,0.759-5.275,1.621-7.744,2.563l-1.017,0.388
			l0.704,0.83C73.819,164.118,82.541,169.336,91.812,171.066z"/>
		<path fill="#F99128" d="M43.245,85.514c1.882-1.264,3.737-2.51,5.281-3.542c-2.135,3.11-4.387,6.423-4.706,7.065
			c-3.468,6.335-4.84,13.927-3.863,21.379l0.098,0.745l0.548-0.514c2.32-2.175,5.239-4.912,7.227-6.771
			c-0.068,0.261-0.137,0.527-0.208,0.799c-0.773,2.961-1.649,6.318-1.973,8.908c-1.509,10.633-0.443,19.414,3.169,26.103
			c1.408,2.571,3.262,4.796,5.51,6.615l0.328,0.265l1.929-2.887c0.788-1.18,1.57-2.352,2.161-3.232
			c0.618,1.882,1.364,3.74,2.225,5.536l0.13,0.272l0.295-0.061c2.715-0.562,5.497-1.002,8.268-1.308l0.567-0.063l-0.48-0.896
			c-1.585-2.962-3.082-5.76-5.289-8.188c-3.267-3.576-5.731-7.568-7.325-11.866l-0.433-1.166l-0.303,1.206
			c-1.23,4.905-1.461,9.792-1.491,12.204c-4.917-9.967-2.352-25.093-0.965-31.332l0.02-0.088l-0.021-0.087
			c-2.443-9.93-0.882-18.621-0.867-18.703c4.685-23.88,18.404-32.219,23.693-34.595c-6.342,5.663-11.343,13.17-14.532,21.846
			c-2.952,8.032-4.321,17-3.855,25.253c0.528,9.343,3.279,16.475,7.36,19.078c11.8,7.533,14.427,19.436,14.999,23.696
			c-1.405-2.071-4.684-6.455-11.179-13.115l-0.806-0.826l0.148,1.145c0.793,6.15,2.36,11.502,4.657,15.908l0.116,0.223l0.251-0.017
			c2.555-0.171,5.156-0.244,7.767-0.214l0.018,0.033l-0.001-0.033c0.959,0.011,1.92,0.034,2.879,0.072l0.434,0.017l-0.035-0.433
			c-0.247-3.043,0.234-5.914,1.431-8.531c0.834-1.813,2.224-3.437,3.568-5.008l0.447-0.524c3.606-4.309,6.61-9.054,9.515-13.642
			c1.648-2.602,3.349-5.29,5.156-7.893c-2.672,8.833-7.955,16.584-12.809,23.032c-0.256,0.332-0.572,0.711-0.9,1.106
			c-0.646,0.777-1.314,1.58-1.735,2.25c-1.774,2.745-2.472,5.928-2.075,9.462l0.036,0.319l0.32,0.022
			c2.327,0.162,4.651,0.401,6.954,0.716c-2.303-0.089-4.547-0.136-6.715-0.141l-0.467-0.001l0.087,0.458
			c0.227,1.195,0.563,2.373,0.998,3.504l0.104,0.27l0.288-0.025c2.226-0.191,4.448-0.295,6.65-0.313
			c-2.144,0.261-4.196,0.55-6.189,0.87l-0.499,0.08l0.21,0.46c1.398,3.069,3.523,5.996,5.987,8.243
			c1.931,1.715,3.892,2.864,5.826,3.416l0.43,0.122l0.058-0.443c0.18-1.375,0.587-2.645,1.214-3.79
			c0.042,0.274,0.084,0.545,0.125,0.814c1.059,6.91,1.895,12.368,9.464,15.357c4.12,1.605,8.365,1.849,12.725,1.972l0.246,0
			c4.349-0.123,8.594-0.367,12.716-1.973c7.566-2.989,8.403-8.451,9.463-15.365c0.041-0.266,0.082-0.534,0.124-0.805
			c0.624,1.14,1.031,2.41,1.214,3.79l0.059,0.442l0.429-0.122c1.91-0.545,3.924-1.726,5.827-3.42c2.48-2.275,4.607-5.201,5.99-8.239
			l0.21-0.461l-0.5-0.079c-2.01-0.318-4.092-0.609-6.229-0.87c2.213,0.016,4.447,0.121,6.683,0.313l0.289,0.025l0.104-0.27
			c0.455-1.183,0.794-2.363,1.005-3.505l0.085-0.457l-0.465,0.001c-2.201,0.006-4.429,0.052-6.717,0.14
			c2.298-0.314,4.618-0.553,6.945-0.715l0.322-0.022l0.035-0.321c0.298-2.772-0.067-5.368-1.087-7.719
			c-0.684-1.547-1.84-2.945-2.959-4.296c-0.225-0.273-0.447-0.541-0.654-0.796c-4.893-6.503-10.167-14.26-12.827-23.057
			c1.813,2.611,3.522,5.31,5.176,7.923c2.904,4.586,5.907,9.328,9.508,13.635l0.427,0.499c1.351,1.576,2.748,3.205,3.585,5.03
			c1.199,2.617,1.682,5.487,1.434,8.532l-0.035,0.433l0.434-0.017c0.956-0.037,1.913-0.061,2.868-0.072l-0.001,0.03l0.017-0.03
			c2.611-0.028,5.213,0.043,7.765,0.214l0.251,0.017l0.116-0.223c2.294-4.385,3.861-9.737,4.657-15.908l0.148-1.145l-0.806,0.827
			c-6.492,6.661-9.771,11.046-11.176,13.117c0.571-4.259,3.195-16.164,14.996-23.698c4.081-2.603,6.832-9.735,7.36-19.077
			c0.467-8.253-0.902-17.221-3.853-25.253c-3.189-8.677-8.189-16.184-14.531-21.847c5.289,2.376,19.011,10.714,23.689,34.592
			c0.016,0.087,1.577,8.777-0.866,18.707l-0.022,0.087l0.02,0.088c1.387,6.238,3.951,21.362-0.963,31.329
			c-0.029-2.413-0.256-7.298-1.485-12.201l-0.301-1.203l-0.433,1.162c-1.606,4.304-4.073,8.297-7.335,11.868
			c-2.231,2.463-3.746,5.306-5.35,8.317l-0.408,0.767l0.565,0.062c2.768,0.306,5.551,0.746,8.272,1.308l0.295,0.061l0.131-0.272
			c0.868-1.813,1.614-3.669,2.224-5.53c1.226,1.839,3.223,4.807,3.868,5.764l0.236,0.35l0.327-0.266
			c2.249-1.831,4.1-4.056,5.502-6.616c3.612-6.695,4.677-15.476,3.164-26.094c-0.327-2.648-1.271-6.25-2.03-9.144
			c-0.05-0.191-0.1-0.38-0.148-0.565c1.985,1.856,4.911,4.594,7.227,6.766l0.549,0.514l0.097-0.745
			c0.974-7.455-0.399-15.05-3.856-21.365c-0.287-0.608-2.267-3.503-4.447-6.673c-0.096-0.14-0.19-0.276-0.28-0.407
			c3.034,2.032,7.278,4.875,10.564,7.072l0.65,0.434l-0.051-0.78c-0.28-4.268-1.348-8.643-3.091-12.652
			c-2.136-4.906-5.464-9.367-9.629-12.905c-0.788-0.655-1.614-1.323-2.449-1.999c-1.376-1.113-2.798-2.264-4.101-3.397l-0.319-0.279
			c-5.812-5.101-11.808-10.363-15.865-17.005c2.588,2.013,5.119,4.142,8.006,6.626l0.706,0.607l-0.07-0.929
			c-0.358-4.719-0.049-9.676,1.001-16.072c0.052-0.307,0.124-1.015,0.183-1.585c0.022-0.216,0.041-0.406,0.057-0.545
			c0.4-4.988,0.417-17.232-8.037-23.19c-3.708-2.571-8.408-1.72-11.427,2.065c-0.632,0.774-1.24,1.618-1.828,2.435
			c-0.581,0.807-1.182,1.641-1.804,2.405c-2.978,3.838-6.511,7.705-10.502,11.492c-2.313,2.168-5.408,4.778-9.263,6.273
			c1.819-2.516,3.862-4.736,5.658-6.608l0.284-0.296l-0.313-0.265c-6.642-5.621-13.298-6.698-17.712-6.615l-0.129,0.003l-0.102,0.08
			c-0.871,0.687-2.13,1.906-3.178,3.817l-0.316,0.577l0.658-0.006c3.537-0.032,9.735,0.357,13.634,3.172
			c-3.354-0.345-12.176-0.938-15.636,1.91l-0.121,0.1l-0.017,0.156c-0.193,1.759-0.154,3.664,0.117,5.662l0.043,0.318l0.321,0.015
			c5.39,0.254,23.43,2.043,35.013,14.357c-5.299-2.118-22.855-8.739-33.343-7.974l-0.452,0.033l0.105,0.441
			c0.528,2.205,0.838,4.478,0.922,6.756l0.013,0.347l0.347,0.023c5.162,0.346,30.848,2.943,41.789,20.551
			c-5.086-3.454-22.752-14.266-42.516-12.653l-0.29,0.024l-0.056,0.285c-0.389,1.956-0.939,3.934-1.634,5.88l-0.161,0.449
			l0.473,0.062c5.975,0.786,25.414,3.748,30.181,9.453c-3.14,0.614-18.387,3.078-32.929-3.585l-0.161-0.074l-0.16,0.074
			c-14.543,6.664-29.787,4.199-32.925,3.585c4.767-5.706,24.2-8.667,30.173-9.453l0.473-0.062l-0.161-0.449
			c-0.683-1.911-1.23-3.889-1.626-5.88l-0.057-0.285l-0.29-0.024c-19.761-1.612-37.436,9.2-42.523,12.653
			c10.948-17.608,36.634-20.204,41.796-20.551l0.348-0.023l0.012-0.348c0.075-2.263,0.383-4.536,0.914-6.755l0.106-0.441
			l-0.452-0.033C110.45,37.677,92.891,44.3,87.59,46.418c11.59-12.314,29.627-14.103,35.016-14.357l0.321-0.015l0.043-0.319
			c0.272-2.035,0.31-3.94,0.113-5.663l-0.018-0.155l-0.12-0.099c-3.46-2.847-12.281-2.256-15.636-1.91
			c3.899-2.816,10.1-3.209,13.634-3.172l0.658,0.006l-0.317-0.577c-1.063-1.937-2.341-3.168-3.226-3.86l-0.101-0.079l-0.129-0.002
			c-4.373-0.083-10.992,1.003-17.654,6.658l-0.312,0.265l0.283,0.296c1.808,1.887,3.859,4.117,5.66,6.608
			c-3.86-1.497-6.95-4.106-9.258-6.272c-4.002-3.797-7.537-7.664-10.513-11.5c-0.615-0.756-1.216-1.591-1.797-2.398
			c-0.588-0.816-1.196-1.661-1.823-2.432c-3.026-3.786-7.727-4.637-11.432-2.066c-8.445,5.952-8.437,18.199-8.038,23.219
			c0.029,0.18,0.065,0.551,0.1,0.91c0.046,0.469,0.093,0.955,0.138,1.187c1.052,6.375,1.362,11.332,1.006,16.073l-0.07,0.928
			l0.705-0.607c2.379-2.047,5.104-4.369,7.998-6.622c-4.076,6.664-10.091,11.94-15.923,17.055l-0.256,0.224
			c-1.275,1.108-2.665,2.233-4.009,3.321c-0.867,0.702-1.725,1.396-2.542,2.078c-4.157,3.528-7.486,7.989-9.629,12.902
			c-1.739,4.001-2.807,8.379-3.087,12.659l-0.051,0.78l0.65-0.435C39.586,87.971,41.428,86.734,43.245,85.514z M165.762,26.742
			c-0.666,0.17-1.295,0.33-1.782,0.821l-0.068,0.089c-0.044,0.065-0.084,0.134-0.102,0.254l-0.005,0.03l0,0.03
			c0.011,0.837,1.209,2.052,1.644,2.4l0.05,0.04l0.917,0.33l-0.897,1.088c-2.523,2.979-6.868,3.399-10.581,2.487
			c3.263-0.537,5.848-1.507,8.037-3.006l0.357-0.244l-0.284-0.326c-0.804-0.924-1.155-1.762-1.207-2.887
			c0.374-3.275,5.327-3.551,9.019-3.473l0.684,0.014l-0.342-0.592c-1.539-2.666-1.957-5.183-1.145-6.907
			c0.675-1.434,2.175-2.357,4.464-2.744c3.428-0.627,5.993-0.034,7.625,1.764c2.951,3.251,3.022,10.738,0.225,21.16
			c-0.626-2.819-0.477-5.789-0.332-8.675c0.097-1.941,0.198-3.949,0.062-5.881c-0.079-1.349-0.277-3.299-1.082-4.661
			c-0.729-1.284-1.924-1.924-3.666-1.956c-1.584,0.021-3.375,0.147-4.663,0.938c-0.613,0.419-0.978,0.995-1.085,1.712
			c-0.366,2.455,2.499,6.04,4.049,7.976l-2.163-0.103c-2.639-0.124-5.201-0.197-7.527,0.269L165.762,26.742z M165.606,117.837
			c0.546-1.102,1.111-2.241,1.455-3.346c0.289-0.932,0.532-2.123,0.789-3.384c0.5-2.453,1.123-5.506,2.148-6.111
			c0.11-0.065,0.222-0.097,0.341-0.097c0.076,0,0.155,0.013,0.239,0.039c0.975,0.303,1.94,1.904,2.517,4.18
			c0.57,2.248,0.634,4.683,0.161,6.204c-1.02,3.278-6.169,7.465-8.349,6.79c-0.376-0.117-0.49-0.296-0.543-0.42
			C164.054,120.968,164.843,119.376,165.606,117.837z M177.74,100.783c1.799-2.787,1.862-5.409,1.904-7.144
			c0.021-0.872,0.04-1.626,0.287-1.836c0.065-0.055,0.168-0.083,0.308-0.083c0.059,0,0.126,0.005,0.198,0.015
			c2.104,0.296,4.69,6.495,4.192,10.05v0c-0.27,1.939-1.189,3.669-2.461,4.629c-0.793,0.599-1.659,0.853-2.507,0.734
			c-0.956-0.133-1.818-0.846-2.304-1.909C176.71,103.822,176.852,102.157,177.74,100.783z M180.271,85.605
			c-0.178,0.258-0.342,0.3-0.451,0.309c-0.821,0.069-2.256-1.421-3.786-2.997c-1.322-1.361-2.821-2.904-4.409-4
			c-2.474-1.71-6.213-4.293-6.56-6.204c-0.074-0.409,0.006-0.775,0.245-1.119l0.001-0.001c0.247-0.359,0.604-0.576,1.092-0.665
			c0.164-0.03,0.342-0.045,0.532-0.045c1.801,0,4.743,1.331,8.221,3.737c2.896,2.001,4.894,5.71,5.371,8.338
			C180.738,84.122,180.648,85.062,180.271,85.605z M138.81,150.844c0,0.812-0.659,1.472-1.468,1.472
			c-0.812,0-1.472-0.66-1.472-1.472c0-0.812,0.66-1.472,1.472-1.472C138.152,149.372,138.81,150.032,138.81,150.844z
			 M132.79,138.954c-3.053,1.354-5.696,2.526-5.696,4.62l-0.38,0.628l0.005,0.117c0.129,2.938,0.426,6.759,1.584,10.258
			c1.378,4.131,3.867,5.923,7.592,5.482c2.531-0.268,4.577-1.246,6.396-2.353c-0.78,2.418-2.952,4.285-5.869,4.978
			c-3.598,0.855-7.153-0.257-9.06-2.839c-0.658-0.854-1.236-1.805-1.717-2.827l-0.348-0.738l-0.349,0.737
			c-0.901,1.902-2.1,3.431-3.552,4.535c-2.351,1.641-5.785,1.891-8.749,0.637c-2.208-0.934-3.761-2.542-4.377-4.491
			c2.588,1.566,6.173,3.165,9.892,2.007c5.039-2.031,5.473-11.148,5.682-15.529l0.005-0.115l-0.288-0.486
			c0-2.095-2.645-3.268-5.699-4.622c-4.453-1.974-9.501-4.212-8.868-9.791c0.208-1.817,0.914-2.991,2.161-3.587
			c4.404-2.109,13.847,3.809,13.942,3.869l0.094,0.06h0.262l0.094-0.06c0.095-0.06,9.541-5.98,13.946-3.869
			c1.246,0.597,1.951,1.77,2.157,3.587C142.288,134.741,137.242,136.979,132.79,138.954z M114.735,150.844
			c0,0.812-0.66,1.472-1.472,1.472c-0.809,0-1.468-0.66-1.468-1.472c0-0.812,0.659-1.472,1.468-1.472
			C114.075,149.372,114.735,150.032,114.735,150.844z M109.714,148.112c0,0.812-0.66,1.472-1.472,1.472
			c-0.812,0-1.472-0.66-1.472-1.472s0.66-1.472,1.472-1.472C109.054,146.64,109.714,147.3,109.714,148.112z M140.891,148.112
			c0-0.812,0.66-1.472,1.472-1.472s1.472,0.66,1.472,1.472s-0.66,1.472-1.472,1.472S140.891,148.924,140.891,148.112z
			 M78.425,106.639c0.495-0.941,1.052-1.529,1.609-1.701l0.002-0.001c0.083-0.026,0.161-0.039,0.236-0.039
			c0.118,0,0.229,0.032,0.338,0.097c1.022,0.602,1.644,3.654,2.144,6.106c0.258,1.263,0.501,2.456,0.791,3.39
			c0.344,1.106,0.91,2.245,1.457,3.347c0.763,1.538,1.553,3.128,1.243,3.852c-0.054,0.125-0.168,0.304-0.546,0.421
			c-2.18,0.675-7.331-3.512-8.35-6.79C76.657,113.098,77.16,109.041,78.425,106.639z M70.167,91.735
			c0.073-0.01,0.139-0.015,0.199-0.015c0.14,0,0.243,0.028,0.308,0.083c0.248,0.211,0.266,0.964,0.287,1.836
			c0.042,1.735,0.105,4.357,1.904,7.145c0.888,1.374,1.031,3.039,0.383,4.455c-0.487,1.063-1.348,1.777-2.304,1.909l-0.001,0
			c-1.079,0.152-2.186-0.306-3.117-1.289c-0.965-1.017-1.62-2.464-1.846-4.074C65.485,98.229,68.068,92.03,70.167,91.735z
			 M78.981,78.917c-1.582,1.094-3.077,2.633-4.396,3.992c-1.534,1.58-2.981,3.08-3.796,3.005c-0.11-0.009-0.276-0.051-0.455-0.31
			c-1.374-1.99,1.134-8.229,5.124-10.986c3.542-2.451,6.41-3.74,8.19-3.74c0.76,0,1.322,0.235,1.654,0.714
			C86.579,73.44,83.04,76.112,78.981,78.917z M79.406,23.796l-0.345,0.595l0.687-0.016c3.244-0.074,6.786,0.11,8.497,2.041
			c0.952,1.098,0.438,2.933-0.312,3.85c-0.127,0.171-0.246,0.324-0.372,0.476l-0.269,0.325l0.348,0.239
			c2.19,1.499,4.774,2.469,8.038,3.006c-3.708,0.912-8.051,0.491-10.578-2.482l-0.898-1.092l0.914-0.329l0.049-0.039
			c0.436-0.347,1.637-1.559,1.647-2.439c-0.024-0.274-0.267-0.473-0.366-0.544c-1.395-0.868-3.138-0.946-4.824-1.021
			c-0.218-0.01-0.435-0.019-0.66-0.031c-1.475-0.036-3.227,0.054-4.921,0.14c-0.367,0.019-0.727,0.037-1.076,0.054
			c1.863-2.331,4.851-6.127,3.892-8.547c-0.404-1.02-1.449-1.657-3.091-1.892c-2.414-0.441-4.078-0.219-5.235,0.697
			c-1.245,0.987-1.867,2.753-2.017,5.727c-0.138,1.939-0.037,3.949,0.062,5.892c0.145,2.882,0.295,5.849-0.331,8.665
			c-1.763-6.592-3.65-16.889,0.231-21.162c1.211-1.334,2.934-2.004,5.144-2.004c0.768,0,1.594,0.081,2.478,0.243
			c2.289,0.388,3.791,1.313,4.464,2.749C81.371,18.62,80.95,21.135,79.406,23.796z M100.574,106.192
			c-0.644-0.032-1.311-0.039-1.982-0.047c-3.472-0.045-7.408-0.097-10.824-2.492c-3.255-2.283-4.01-5.006-4.74-7.642l-0.041-0.144
			c-0.224-0.798-0.456-1.623-0.761-2.436c-1.035-2.71-2.55-4.4-3.033-4.895l-0.47-0.446l1.958-0.041l-0.03-0.031l1.594-0.09
			c1.539-0.071,9.561-0.336,16.331,1.522c4.924,1.358,6.696,5.397,7.317,8.555c0.031,0.141,0.055,0.284,0.079,0.425l0.008,0.044
			c0.03,0.152,0.052,0.304,0.074,0.455c0.03,0.209,0.056,0.422,0.078,0.656l0.005,0.044c0.022,0.196,0.036,0.395,0.053,0.614
			c0.011,0.151,0.019,0.302,0.026,0.451c0.065,1.476-0.041,3.026-0.298,4.364l-0.225,1.154l-0.09,0.35
			c-0.057,0.221-0.116,0.439-0.176,0.659l-0.05,0.19c-0.011,0.04-0.022,0.079-0.033,0.119l-0.12-0.073
			C104.511,107.028,102.96,106.292,100.574,106.192z M145.466,107.581l-0.152,0.1l-0.189-1.154l-0.07,0.005l-0.011-0.053l0.07-0.021
			l-0.116-0.532l-0.063,0.036l-0.192-0.902c-0.859-4.465-0.43-13.473,7.342-15.609c7.469-2.048,16.285-1.526,16.375-1.52
			l1.542,0.087c0.094,0.009,0.182,0.013,0.24,0.013l0.414,0.026c0.032,0.002,0.061,0.004,0.085,0.005
			c0.031,0.004,0.058,0.005,0.079,0.005l1.344,0.024l-0.433,0.408l-0.037,0.038c-0.455,0.464-1.988,2.159-3.03,4.896
			c-0.324,0.855-0.564,1.723-0.804,2.592c-0.733,2.63-1.491,5.35-4.736,7.629c-3.416,2.396-7.352,2.447-10.85,2.493
			c-0.647,0.008-1.316,0.015-1.954,0.047C147.775,106.3,146.186,107.108,145.466,107.581z"/>
	</g>
	<g>
		<path fill="#FFFFFF" d="M105.757,80.633c-0.056-4.742-3.661-7.654-11.641-2.312c-9.138,6.117-10.326,10.44-10.326,10.44
			c20.664-2.459,22.679,10.863,22.679,10.863C106.343,91.334,105.823,86.21,105.757,80.633z"/>
		<path fill="#FFFFFF" d="M213.015,450.988c-1.048-2.542-2.48-4.81-4.152-6.557c-2.412-2.501-4.94-3.563-6.756-2.837
			c-0.747,0.295-1.336,0.856-1.809,1.713l-0.973,1.761l-1.583-1.24c-0.562-0.445-1.11-0.802-1.631-1.062
			c-1.247-0.672-3.021-1.309-4.659-0.665c-0.685,0.267-1.288,0.754-1.795,1.432l-1.233,1.658l-1.398-1.521
			c60.845-118.273,22.679-112.915,22.679-112.915s-2.271,7.25-5.517,17.399c0.003-0.011,12.475-43.308,11.043-55.552
			c-1.433-12.246-3.908-51.848-3.908-51.848l-3.865,8.932c0,0,2.004,25.836,3.274,40.372c1.038,11.881-3.749,35.646-13.637,66.401
			c-11.708,36.415-26.301,73.809-26.271,94.535l4.613,0.539c0,0,0.42-2.938,1.113-7.277l5.416-4.256l2.228,1.615
			c-0.568-0.212-1.169-0.321-1.791-0.241c-0.315,0.041-1.637,0.76-3.083,2.686c-0.74,0.987-2.336,3.453-2.288,6.29
			c1.603,0.795,3.172,2.083,4.597,3.796c0,0,0,0.007,0.007,0.007c0.247,0.301,0.5,0.617,0.74,0.945
			c1.864,2.542,3.316,5.68,4.207,9.078c0.63,2.405,0.952,4.83,0.952,7.201v0.014c0,0.055-0.007,0.103-0.007,0.158
			c0,0.308-0.007,0.61-0.027,0.898c0,0.13-0.014,0.26-0.021,0.384c-0.014,0.185-0.021,0.377-0.041,0.555
			c1.864-0.658,3.467-2.994,4.364-6.44l0.774-2.987l2.124,2.234c2.809,2.96,5.913,4.262,8.092,3.398
			c1.72-0.685,2.549-2.487,2.946-3.871l0.569-2.014l1.857,0.952c0.959,0.487,2.364,0.966,3.652,0.459
			c1.459-0.576,2.158-2.172,2.48-3.412c0.384-1.487,0.452-3.309,0.199-5.269C214.255,454.619,213.755,452.783,213.015,450.988z
			 M204.189,348.155c-4.139,12.945-9.864,30.605-14.489,43.98C196.099,372.524,204.183,348.174,204.189,348.155z M181.624,417.919
			c0.342-1.361,0.686-2.633,1.03-3.777c0.001-0.003,0.002-0.007,0.003-0.01C182.3,415.412,181.955,416.676,181.624,417.919z"/>
		<path fill="#FFFFFF" d="M179.614,457.12c-2.254-3.069-4.68-3.974-4.755-3.994c-0.884-0.322-1.74-0.397-2.535-0.199
			c-0.904,0.233-1.706,0.808-2.377,1.72l-1.192,1.61l-1.405-1.425c-0.555-0.562-1.124-1.055-1.699-1.453
			c-0.438-0.315-0.808-0.548-1.151-0.719c-1.466-0.788-2.823-1.021-4.07-0.706c-0.008,0.002-0.016,0.004-0.024,0.006
			c-0.796,0.202-1.399,0.855-1.629,1.643l-1.67,5.723l-1.894-5.805c-0.344-1.055-0.969-2.015-1.863-2.671
			c-0.807-0.591-1.744-1-2.793-1c-1.699,0-3.412,1.137-4.885,3.213l-2.199,6.714l-0.773-5.546c-0.247-0.116-1.618-0.709-1.878-0.771
			c-4.645-1.178-10.551,5.282-12.867,14.1c-0.514,1.966-0.815,3.919-0.925,5.796c0.048,1.014,0.048,2.007,0,2.974
			c0.164,2.665,0.781,5.036,1.836,6.831c0.911,1.535,2.055,2.487,3.398,2.823c2.494,0.644,5.57-1.021,8.208-4.364l3.001-8.948
			l1.535,9.613h-0.041c1.61,2.741,3.597,4.289,5.591,4.289c2.377,0,4.762-2.227,6.468-6.002l1.535-7.9l2.167,6.796
			c0.208,0.652,0.556,1.255,1.02,1.758c2.413,2.616,5.035,3.823,7.262,3.251c0.954-0.243,1.725-0.771,2.345-1.42
			c0.695-0.728,1.061-1.71,1.109-2.716l0.335-7.086l2.252,7.016c0.884,0.404,3.565,0.808,4.627,0.541
			c1.795-0.452,2.85-2.179,3.412-3.549c0.288-0.706,0.521-1.5,0.685-2.371c0.185-0.932,0.295-1.966,0.322-3.076
			c0.007-0.151,0.014-0.295,0.014-0.445c0-2.076-0.288-4.2-0.843-6.324C182.485,462.06,181.224,459.319,179.614,457.12z"/>
		<path fill="#FFFFFF" d="M169.68,30.393l-1.776-1.662l10.976-0.517l-3.315-6.274c-0.388-0.997,0.291-2.155,1.36-2.171
			c0.691-0.01,1.431,0.449,1.94,2.053c1.398,4.406,1.59,15.545,3.503,16.707c0,0,3.285-18.883,0-20.399
			c-3.285-1.515-6.613-5.657-10.819-1.45c-4.206,4.206,2.411,8.413,2.411,8.413s-9.131-0.291-10.05,1.595
			c-0.919,1.886-0.84,2.214,1.771,4.179c0,0-5.223,4.091-12.521,3.298C153.161,34.164,161.622,39.929,169.68,30.393z"/>
		<path fill="#FFFFFF" d="M156.447,77.636c-7.98-5.341-11.585-2.43-11.641,2.312c-0.066,5.576-0.586,11.386-0.713,19.675
			c0,0,2.016-13.322,22.679-10.863C166.772,88.761,165.585,83.752,156.447,77.636z"/>
		<path fill="#FFFFFF" d="M165.324,14.463c2.376-2.695,7.653-10.867,12.668-7.16c4.751,3.511,6.91,7.709,7.628,14.782
			c0.711,7-2.41,20.859,0.872,25.6c2.716,3.924,2.406-18.396,2.406-18.396l0.31-11.66L183.15,6.001l-11.236-3.42
			c0,0-13.19,15.242-13.874,15.438c-0.684,0.195-4.76,4.988-4.76,4.988S157.647,23.171,165.324,14.463z"/>
		<path fill="#FFFFFF" d="M198.729,64.981c8.774,7.781,11.282,18.652,11.282,18.652l-9.37-3.091
			c9.199,12.804,7.663,27.971,7.663,27.971l2.066,5.026c0,0,2.27-3.267,2.488-12.585c0.194-8.284-9.606-17.966-11.784-20.014
			l12.328,11.392c0,0,3.13-13.062-4.558-21.837c-7.688-8.775-22.888-19.527-22.888-19.527S190.486,57.67,198.729,64.981z"/>
		<path fill="#FFFFFF" d="M149.723,24.871l2.335-2.709c0,0-13.357-7.005-19.054-6.538l-1.926,2.639
			C131.078,18.264,141.597,17.773,149.723,24.871z"/>
		<path fill="#FFFFFF" d="M166.302,89.545c-0.74,0-1.637,0.007-2.651,0.041c0.521,0.863,0.898,1.788,1.13,2.747
			C165.26,91.203,165.802,90.264,166.302,89.545z"/>
		<path fill="#FFFFFF" d="M146.693,100.384c-0.178-0.247-0.343-0.5-0.493-0.76c-0.158,1.535-0.082,2.939,0.014,3.892
			c0.747-0.199,1.829-0.397,3.337-0.48C148.447,102.357,147.481,101.46,146.693,100.384z"/>
		<path fill="#FFFFFF" d="M159.656,101.117c3.645-2.556,4.481-7.55,1.877-11.134c-0.075-0.096-0.151-0.192-0.226-0.281
			c-0.843,0.055-1.727,0.13-2.631,0.233c0.329,0.254,0.637,0.541,0.911,0.87c0.178,0.206,0.336,0.425,0.473,0.644
			c-1.021-0.144-2.09,0.117-2.939,0.815c-1.603,1.309-1.816,3.645-0.48,5.221c0.671,0.802,1.617,1.254,2.597,1.336
			c-0.137,0.13-0.274,0.253-0.425,0.377c-2.576,2.103-6.399,1.754-8.544-0.781c-1.343-1.59-1.706-3.652-1.158-5.495
			c-0.993,0.925-1.672,2.055-2.131,3.248c0.226,1.089,0.665,2.138,1.343,3.076c1.268,1.733,3.138,2.884,5.283,3.241
			C155.73,102.837,157.895,102.35,159.656,101.117z"/>
		<path fill="#FFFFFF" d="M215.674,297.7l0.274,1.454l0.212,1.132c0,0,10.387,0.992,18.689,8.468
			c6.918,6.231,12.389,16.963,9.19,35.379c-1.413,8.138-4.003,16.809-7.236,25.473c-11.862,31.777-32.412,63.439-35.554,68.197
			c-0.267,0.404-0.408,0.614-0.408,0.614l2.466,0.658l0.002-0.003l2.295,0.609c0,0,31.377-46.79,39.372-80.371
			c7.995-33.581,0-46.031,0-46.031s-15.555-18.947-29.629-17.323L215.674,297.7L215.674,297.7z"/>
		<path fill="#FFFFFF" d="M288.818,295.856c-8.249-16.897-25.622-61.82-25.622-61.82l-5.231-46.538c0,0-5.474-8.856-11.053,0
			c-5.579,8.856-4.398,24.813-3.6,27.963c0,0,2.68-28.351,8.804-27.196c6.121,1.155,1.075,16.027,6.88,40.925
			c7.051,30.242,35.564,68.508,37.622,122.409c1.239,32.44-18.048,59.838-43.427,77.576s-37.845,21.315-37.845,21.315l1.05,4.731
			c0,0,28.498-12.027,48.629-29.544c20.132-17.517,32.783-48.908,35.034-59.349S297.067,312.753,288.818,295.856z"/>
		<path fill="#FFFFFF" d="M64.071,464.177c0.891-3.398,2.343-6.536,4.207-9.078c0.24-0.329,0.493-0.644,0.74-0.945
			c0.007,0,0.007-0.007,0.007-0.007c1.425-1.713,2.994-3.001,4.597-3.796c0.048-2.836-1.548-5.303-2.288-6.29
			c-1.446-1.925-2.768-2.645-3.083-2.686c-0.623-0.08-1.223,0.029-1.791,0.241l2.228-1.615l5.416,4.256
			c0.693,4.34,1.113,7.277,1.113,7.277l4.613-0.539c0.03-20.726-14.563-58.12-26.271-94.535
			c-9.888-30.755-14.674-54.52-13.637-66.401c1.269-14.536,3.274-40.372,3.274-40.372l-3.865-8.932c0,0-2.475,39.603-3.908,51.848
			c-1.433,12.244,11.039,55.541,11.043,55.552c-3.245-10.149-5.517-17.399-5.517-17.399S2.78,325.398,63.625,443.67l-1.398,1.521
			l-1.233-1.658c-0.507-0.678-1.11-1.165-1.795-1.432c-1.638-0.644-3.412-0.007-4.659,0.665c-0.521,0.26-1.069,0.617-1.631,1.062
			l-1.583,1.24l-0.973-1.761c-0.473-0.856-1.062-1.418-1.809-1.713c-1.816-0.726-4.344,0.336-6.756,2.837
			c-1.672,1.747-3.104,4.015-4.152,6.557c-0.74,1.795-1.24,3.631-1.48,5.447c-0.254,1.96-0.185,3.782,0.199,5.269
			c0.322,1.24,1.021,2.836,2.48,3.412c1.288,0.507,2.693,0.027,3.652-0.459l1.857-0.952l0.569,2.014
			c0.397,1.384,1.226,3.186,2.946,3.871c2.179,0.863,5.282-0.439,8.092-3.398l2.124-2.234l0.774,2.987
			c0.898,3.446,2.501,5.783,4.364,6.44c-0.021-0.178-0.027-0.37-0.041-0.555c-0.007-0.123-0.021-0.254-0.021-0.384
			c-0.021-0.288-0.027-0.589-0.027-0.898c0-0.055-0.007-0.103-0.007-0.158v-0.014C63.118,469.007,63.44,466.582,64.071,464.177z
			 M69.029,417.92c-0.332-1.243-0.676-2.507-1.033-3.787c0.001,0.003,0.002,0.007,0.003,0.01
			C68.343,415.286,68.688,416.558,69.029,417.92z M60.954,392.138c-4.626-13.375-10.351-31.037-14.49-43.983
			C46.47,348.174,54.555,372.526,60.954,392.138z"/>
		<path fill="#FFFFFF" d="M122.699,467.561c-2.316-8.818-8.222-15.279-12.867-14.1c-0.26,0.062-2.276,0.336-2.523,0.452
			l-0.128,5.865l-2.199-6.714c-1.473-2.076-3.186-3.213-4.885-3.213c-1.747,0-3.186,1.137-4.227,2.357l-2.323,7.119l-1.973-6.763
			c-0.432-0.281-0.877-0.493-1.35-0.61c-1.247-0.315-2.604-0.082-4.07,0.706c-0.343,0.171-0.713,0.404-1.151,0.719
			c-0.576,0.397-1.144,0.891-1.699,1.453l-1.405,1.425l-1.192-1.61c-0.671-0.911-1.473-1.487-2.377-1.72
			c-0.795-0.199-1.651-0.123-2.535,0.199c-0.075,0.021-2.501,0.925-4.755,3.994c-1.61,2.199-2.871,4.94-3.652,7.927
			c-0.555,2.124-0.843,4.248-0.843,6.324c0,0.151,0.007,0.295,0.014,0.445c0.027,1.11,0.137,2.144,0.322,3.076
			c0.164,0.87,0.397,1.665,0.685,2.371c0.562,1.37,1.617,3.097,3.412,3.549c0.011,0.003,0.021,0.005,0.032,0.008
			c1.462,0.354,2.968-0.422,3.686-1.743l3.161-5.822l0.351,7.421c0.034,0.714,0.277,1.407,0.726,1.963
			c0.674,0.836,1.56,1.546,2.711,1.839c2.453,0.63,5.385-0.898,7.989-4.09l2.46-7.715l1.535,7.9c1.706,3.775,4.09,6.002,6.468,6.002
			c1.994,0,3.981-1.548,5.591-4.289h-0.041l1.535-9.613l3.001,8.948c2.638,3.344,5.714,5.008,8.208,4.364
			c1.343-0.336,2.487-1.288,3.398-2.823c1.055-1.795,1.672-4.166,1.836-6.831c-0.048-0.966-0.048-1.96,0-2.974
			C123.514,471.481,123.213,469.528,122.699,467.561z"/>
		<path fill="#FFFFFF" d="M84.971,30.867c2.611-1.965,2.69-2.293,1.771-4.179c-0.919-1.886-10.05-1.595-10.05-1.595
			s6.618-4.206,2.411-8.413c-4.206-4.206-7.534-0.065-10.819,1.45c-3.285,1.515,0,20.399,0,20.399
			c1.913-1.162,2.105-12.301,3.503-16.707c0.509-1.604,1.249-2.063,1.94-2.053c1.069,0.016,1.749,1.174,1.36,2.171l-3.315,6.274
			l10.976,0.517l-1.776,1.662c8.058,9.536,16.52,3.772,16.52,3.772C90.193,34.958,84.971,30.867,84.971,30.867z"/>
		<path fill="#FFFFFF" d="M125.368,471.66c0.546-1.738,3.756-11.749,7.302-18.562l7.158-24.083c0,0,11.896-62.151,25.854-89.685
			c0,0,27.24-36.801,21.674-62.444c-5.565-25.643,18.268-78.553-16.759-108.672c0,0-10.566,7.978-26.378,4.555
			c0,0,31.285,1.502,44.372-20.511l-1.235,3.405c0,0,15.794,23.422,20.102,53.872c2.553,18.05-7.291,42.428-8.978,64.144
			c0,0,13.183-35.132,14.377-51.272c1.194-16.141-6.779-39.06-6.779-39.06l-16.835-32.233c1.276-2.337,2.353-4.923,3.176-7.79
			l3.626,4.788c0,0,17.739-15.411,6.041-45.418c0,0-13.344-15.618-22.986-3.069c-5.649,7.351-7.246,20.779-10.606,27.279
			c-1.098,2.123-6.235,7.245-6.235,7.245l-13.939-17.709c0.116,4.699,7.871,12.946,6.693,21.45
			c-1.633,11.79-16.298,24.339-29.647,9.583v-0.086c-0.014,0.015-0.027,0.028-0.041,0.043c-0.014-0.015-0.027-0.028-0.041-0.043
			v0.086c-13.349,14.756-28.014,2.207-29.647-9.583c-1.177-8.504,6.577-16.75,6.693-21.45l-13.939,17.709
			c0,0-5.137-5.123-6.235-7.245c-3.361-6.5-4.958-19.927-10.606-27.279c-9.642-12.549-22.986,3.069-22.986,3.069
			c-11.698,30.008,6.041,45.418,6.041,45.418l3.626-4.788c0.823,2.867,1.901,5.452,3.176,7.79l-16.835,32.233
			c0,0-7.974,22.919-6.779,39.06c1.194,16.141,14.377,51.272,14.377,51.272c-1.687-21.716-11.531-46.094-8.978-64.144
			c4.308-30.451,20.102-53.872,20.102-53.872l-1.235-3.405c13.087,22.013,44.372,20.511,44.372,20.511
			c-15.812,3.423-26.378-4.555-26.378-4.555c-35.027,30.119-11.193,83.029-16.759,108.672
			c-5.565,25.643,21.674,62.444,21.674,62.444c13.958,27.534,25.854,89.685,25.854,89.685l7.158,24.083
			c3.546,6.813,6.755,16.823,7.302,18.562l0.001,0.265c0,0,0.014-0.045,0.041-0.132c0.027,0.086,0.041,0.132,0.041,0.132
			L125.368,471.66z M137.044,177.17c-2.683,0.864-6.208,1.392-10.677,1.032l0-0.137C128.385,178.172,132.904,178.247,137.044,177.17
			z M125.326,178.096c-0.192-0.021-0.376-0.034-0.571-0.058c0.294-0.019,0.492-0.037,0.571-0.044
			c0.08,0.007,0.278,0.024,0.571,0.044C125.703,178.062,125.518,178.075,125.326,178.096z M113.609,177.17
			c4.14,1.077,8.658,1.002,10.677,0.895l0,0.137C119.817,178.563,116.292,178.034,113.609,177.17z"/>
		<path fill="#FFFFFF" d="M64.161,47.684c3.282-4.74,0.16-18.6,0.872-25.6c0.719-7.073,2.877-11.271,7.628-14.782
			c5.016-3.707,10.292,4.465,12.668,7.16c7.677,8.708,12.045,8.543,12.045,8.543s-4.077-4.792-4.76-4.988S78.739,2.581,78.739,2.581
			l-11.236,3.42l-6.058,11.627l0.31,11.66C61.755,29.288,61.445,51.608,64.161,47.684z"/>
		<path fill="#FFFFFF" d="M49.58,80.941c-2.178,2.048-11.978,11.729-11.784,20.014c0.218,9.318,2.488,12.585,2.488,12.585
			l2.066-5.026c0,0-1.537-15.168,7.663-27.971l-9.37,3.091c0,0,2.509-10.871,11.282-18.652C60.167,57.67,64.697,50.97,64.697,50.97
			s-15.2,10.752-22.888,19.527c-7.688,8.775-4.558,21.837-4.558,21.837L49.58,80.941z"/>
		<path fill="#FFFFFF" d="M119.575,18.264l-1.926-2.639c-5.698-0.467-19.054,6.538-19.054,6.538l2.335,2.709
			C109.056,17.773,119.575,18.264,119.575,18.264z"/>
		<path fill="#FFFFFF" d="M87.003,89.586c-1.014-0.034-1.912-0.041-2.651-0.041c0.5,0.719,1.041,1.658,1.521,2.789
			C86.105,91.374,86.482,90.449,87.003,89.586z"/>
		<path fill="#FFFFFF" d="M104.453,99.623c-0.151,0.26-0.315,0.514-0.493,0.76c-0.788,1.076-1.754,1.973-2.857,2.652
			c1.507,0.082,2.59,0.281,3.337,0.48C104.536,102.563,104.611,101.158,104.453,99.623z"/>
		<path fill="#FFFFFF" d="M91.977,89.935c-0.904-0.103-1.788-0.178-2.631-0.233c-0.075,0.089-0.151,0.185-0.226,0.281
			c-2.604,3.583-1.768,8.578,1.877,11.134c1.761,1.233,3.926,1.72,6.05,1.37c2.144-0.356,4.015-1.507,5.283-3.241
			c0.678-0.939,1.117-1.987,1.343-3.076c-0.459-1.192-1.137-2.323-2.131-3.248c0.548,1.843,0.185,3.905-1.158,5.495
			c-2.144,2.535-5.968,2.884-8.544,0.781c-0.151-0.123-0.288-0.247-0.425-0.377c0.98-0.082,1.925-0.534,2.597-1.336
			c1.336-1.576,1.124-3.912-0.48-5.221c-0.85-0.699-1.918-0.959-2.939-0.815c0.137-0.219,0.295-0.439,0.473-0.644
			C91.34,90.477,91.648,90.189,91.977,89.935z"/>
		<path fill="#FFFFFF" d="M47.344,439.07l0.002,0.003l2.466-0.658c0,0-0.141-0.21-0.408-0.614
			c-3.169-4.798-24.04-36.958-35.852-69.003c-0.113-0.306-0.228-0.613-0.339-0.919c-0.001-0.002-0.001-0.004-0.002-0.006
			c-2.936-8.085-5.278-16.146-6.597-23.742c-3.203-18.441,2.287-29.178,9.219-35.404c8.297-7.452,18.66-8.442,18.66-8.442
			l0.216-1.15l0.27-1.436l-0.001,0l0.328-1.745c-14.074-1.624-29.629,17.323-29.629,17.323s-7.995,12.451,0,46.031
			c7.995,33.581,39.372,80.371,39.372,80.371L47.344,439.07z"/>
	</g>
	<g>
		<path fill="#B26024" d="M144.359,106.673l0.9,2.051l0.393-0.325c0.007-0.005,0.09-0.074,0.235-0.175
			c0.654-0.429,2.104-1.163,4.467-1.263c0.626-0.031,1.288-0.039,1.954-0.046c3.584-0.047,7.646-0.1,11.257-2.632
			c3.472-2.438,4.267-5.293,5.045-8.083c0.227-0.823,0.462-1.674,0.774-2.495c0.993-2.607,2.444-4.207,2.864-4.635l1.82-1.715
			l-3.352,0.322l-1.877,1.381c-0.283,0.288-1.743,1.85-2.707,4.366c-0.288,0.765-0.502,1.539-0.715,2.312
			c-0.646,2.317-1.315,4.712-4.174,6.714c-3.007,2.111-6.477,2.158-9.538,2.199l-0.041,0.001c-0.575,0.008-1.17,0.015-1.725,0.043
			c-2.648,0.11-3.879,0.586-4.203,0.782l-0.002-0.003l-1.423,0.851l0.042,0.258L144.359,106.673z"/>
		<path fill="#B26024" d="M78.638,89.071c0.421,0.428,1.872,2.027,2.868,4.634c0.292,0.78,0.519,1.589,0.739,2.371l0.04,0.143
			c0.766,2.765,1.559,5.624,5.04,8.066c3.611,2.532,7.673,2.585,11.283,2.632c0.638,0.007,1.299,0.015,1.931,0.046
			c2.218,0.093,3.638,0.763,4.287,1.155l0.31,0.187l0.206-0.297c0.276-0.399,0.56-0.794,0.844-1.189l0.228-0.318l-1.584-1.102
			h-0.035c-0.391-0.176-1.578-0.601-4.063-0.705c-0.57-0.028-1.161-0.035-1.732-0.043l-0.041-0.001
			c-3.063-0.041-6.536-0.088-9.542-2.199c-2.86-2.005-3.53-4.405-4.181-6.738c-0.207-0.748-0.421-1.523-0.709-2.289
			c-0.945-2.472-2.31-3.966-2.69-4.345l-1.886-1.396l-3.133-0.326l1.798,1.693L78.638,89.071z"/>
		<path fill="#B26024" d="M34.398,300.083l-0.525-0.626l-0.149,0.803c-0.067,0.358-1.575,9.017,3.312,30.986l0.091,0.41l0.401-0.126
			c1.864-0.588,3.352-0.393,3.366-0.391l0.313,0.043l0.929-2.646l-0.024-0.108C41.874,327.364,36.276,302.325,34.398,300.083z"/>
		<path fill="#B26024" d="M216.9,300.26l-0.149-0.803l-0.525,0.626c-1.878,2.242-7.476,27.281-7.713,28.346l-0.024,0.108
			l0.929,2.646l0.312-0.043c0.015-0.002,1.503-0.197,3.366,0.391l0.401,0.126l0.091-0.41
			C218.475,309.278,216.967,300.618,216.9,300.26z"/>
		<path fill="#B26024" d="M105.718,171.942l-0.131-0.112l-0.171,0.023c-0.233,0.032-23.472,2.969-39.447-15.866l-0.217-0.256
			l-3.006,1.916l0.173,0.316c0.042,0.077,4.339,7.8,13.509,13.772l0.265,0.173l0.221-0.227c0.956-0.981,1.994-1.958,3.168-2.98
			c1.393,0.949,8.339,5.295,18.565,5.295c2.387,0,4.953-0.237,7.669-0.809l0.89-0.188l-0.754-0.509
			C106.164,172.298,105.924,172.118,105.718,171.942z"/>
		<path fill="#B26024" d="M184.764,155.988c-15.975,18.835-39.214,15.898-39.447,15.866l-0.171-0.023l-0.131,0.112
			c-0.207,0.177-0.447,0.356-0.733,0.549L143.526,173l0.891,0.188c2.717,0.572,5.281,0.809,7.669,0.809
			c10.225-0.001,17.172-4.347,18.566-5.295c1.171,1.021,2.21,1.997,3.168,2.98l0.221,0.227l0.265-0.173
			c9.17-5.972,13.466-13.695,13.508-13.772l0.173-0.316l-3.006-1.916L184.764,155.988z"/>
	</g>
	<g>
		<path fill="#AAAAAA" d="M215.36,455.835l-0.482-2.442l-0.279,2.474c-0.006,0.053-0.627,5.288-3.412,6.367
			c-1.481,0.573-3.363-0.127-5.597-2.082l-0.599-0.524l-0.039,0.796c-0.002,0.048-0.266,4.791-2.994,5.822
			c-2.245,0.85-5.709-1.046-10.017-5.477l-0.54-0.555l-0.117,0.765c-0.012,0.079-1.221,7.72-4.517,9.056l-2.495-2.151l-0.12,0.664
			c-0.414,2.298-2.102,8.351-4.894,8.761c-1.972,0.289-4.364-2.239-6.941-7.307l-0.692-1.36l-0.037,1.526
			c-0.073,3.005-0.854,10.927-3.549,11.486c-1.52,0.318-4.4-1.6-9.463-12.53l-0.48-1.037l-0.246,1.116
			c-0.862,3.914-3.821,14.077-7.119,14.095c-0.003,0-0.006,0-0.008,0c-1.595,0-4.059-2.456-6.759-14.128l-0.323-1.396l-0.421,1.369
			c-0.042,0.136-4.23,13.563-9.642,13.898c-2.371,0.151-4.712-2.309-6.951-7.3l-0.584-1.304l-0.15,1.421
			c-0.032,0.304-0.745,7.476,2.748,10.857c1.442,1.396,3.388,1.935,5.787,1.603c3.629-0.504,6.169-1.75,7.547-3.703
			c0.621-0.881,0.901-1.762,1.017-2.488c1.257,2.33,4.06,6.604,7.752,6.727c0.055,0.002,0.109,0.003,0.163,0.003
			c2.784,0,5.457-2.392,7.952-7.115c1.539,1.348,7.376,6.1,11.712,4.755c1.94-0.601,3.292-2.327,4.023-5.134
			c1.112,0.71,3.979,2.237,6.803,1.261c2.346-0.811,4.056-3.144,5.085-6.937c1.075-0.338,5.726-2.069,7.365-7.05
			c1.172,1.209,4.348,4.068,7.831,3.64c2.35-0.289,4.348-2.017,5.943-5.139c0.992,0.237,4.058,0.756,6.18-1.158
			C215.806,464.169,216.33,460.756,215.36,455.835z"/>
		<path fill="#AAAAAA" d="M132.059,455.352c0.058-0.16,5.763-16.36,7.933-44.567c2.163-28.125,6.913-49.603,6.96-49.816l0.705-3.156
			l-1.427,2.902c-0.101,0.205-10.139,21.113-14.121,71.631c-0.211,2.67-3.003,14.191-6.763,20.313
			c-4.274-6.241-6.532-17.831-6.727-20.313c-3.965-50.358-14.02-71.423-14.121-71.63l-1.435-2.936l0.712,3.189
			c0.048,0.214,4.797,21.687,6.961,49.816c2.17,28.207,7.876,44.407,7.933,44.567l6.317,10.3l0.042,1.164l0.337-0.548l0.33,0.538
			l0.047-1.153l6.283-10.23L132.059,455.352z"/>
		<path fill="#AAAAAA" d="M47.729,367.896c14.92,42.796,21.601,71.587,21.666,71.873l0.025,0.108l6.183,6.183v-0.93l-0.007-0.112
			l-0.019-0.038c-0.262-1.2-5.289-24.119-11.967-46.382l-0.004-0.108l-0.049-0.049c-0.238-0.699-0.482-1.398-0.726-2.098
			c-8.146-23.042-21.383-65.276-21.516-65.699l-0.073-0.233l-0.241-0.034c-0.067-0.009-1.665-0.224-3.705,0.418l-0.337,0.106
			l0.076,0.345C39.443,342.121,43.041,354.452,47.729,367.896z"/>
		<path fill="#AAAAAA" d="M181.228,439.769c0.066-0.286,6.747-29.077,21.667-71.873c4.688-13.444,8.286-25.775,10.694-36.651
			l0.076-0.345l-0.337-0.106c-2.04-0.642-3.637-0.427-3.705-0.418l-0.241,0.034l-0.073,0.233
			c-0.133,0.424-13.37,42.657-21.517,65.701l-0.038,0.109c-0.231,0.663-0.462,1.326-0.688,1.988l-0.056,0.057v0.109
			c-6.701,22.345-11.713,45.222-11.964,46.377l-0.026,0.053v1.024l6.183-6.183L181.228,439.769z"/>
		<path fill="#AAAAAA" d="M105.864,178.52c0.945,0.737,6.921,5.12,15.393,5.12c1.312,0,2.686-0.107,4.109-0.347
			c1.423,0.24,2.796,0.347,4.109,0.347c8.471,0,14.448-4.383,15.393-5.12c10.957,1.07,20.861-1.211,29.437-6.784l0.394-0.256
			l-0.328-0.336c-1.035-1.062-2.161-2.116-3.443-3.222l-0.236-0.203l-0.248,0.187c-0.103,0.078-10.513,7.763-25.868,4.528
			l-0.156-0.033l-0.134,0.087c-0.134,0.087-0.276,0.175-0.415,0.261c-5.561,3.403-17.782,4.775-18.505,4.854
			c-0.723-0.079-12.944-1.451-18.503-4.853c-0.141-0.087-0.283-0.175-0.417-0.262l-0.134-0.087l-0.156,0.033
			c-15.338,3.231-25.765-4.45-25.868-4.528l-0.249-0.187l-0.235,0.203c-1.284,1.109-2.41,2.163-3.443,3.222l-0.328,0.336
			l0.394,0.256C85.003,177.308,94.906,179.59,105.864,178.52z"/>
		<path fill="#AAAAAA" d="M124.577,474.436l-0.585,1.304c-2.238,4.99-4.581,7.452-6.95,7.3c-5.413-0.335-9.601-13.762-9.643-13.898
			l-0.421-1.369l-0.323,1.396c-2.7,11.672-5.165,14.128-6.759,14.128c-0.003,0-0.005,0-0.008,0
			c-3.298-0.018-6.257-10.18-7.119-14.095l-0.246-1.116l-0.48,1.037c-5.062,10.928-7.937,12.845-9.463,12.53
			c-2.693-0.559-3.475-8.481-3.549-11.486l-0.037-1.525l-0.691,1.36c-2.576,5.069-4.971,7.592-6.941,7.307
			c-2.792-0.411-4.479-6.464-4.894-8.761l-0.12-0.664l-2.495,2.151c-3.295-1.336-4.505-8.977-4.517-9.056l-0.117-0.765l-0.54,0.555
			c-4.308,4.432-7.773,6.324-10.017,5.477c-2.728-1.031-2.992-5.774-2.994-5.822l-0.039-0.796l-0.6,0.525
			c-2.234,1.955-4.117,2.656-5.597,2.082c-2.784-1.079-3.406-6.314-3.412-6.367l-0.279-2.474l-0.482,2.442
			c-0.971,4.921-0.446,8.334,1.559,10.143c2.122,1.914,5.187,1.395,6.179,1.158c1.594,3.122,3.593,4.85,5.943,5.139
			c3.484,0.427,6.66-2.431,7.831-3.64c1.639,4.981,6.29,6.712,7.366,7.05c1.028,3.793,2.738,6.126,5.085,6.937
			c2.822,0.975,5.69-0.552,6.803-1.261c0.732,2.807,2.084,4.533,4.024,5.134c4.337,1.344,10.172-3.407,11.712-4.755
			c2.495,4.724,5.168,7.116,7.953,7.115c0.054,0,0.109-0.001,0.163-0.003c3.693-0.123,6.495-4.397,7.752-6.727
			c0.116,0.725,0.396,1.607,1.017,2.488c1.378,1.953,3.917,3.199,7.547,3.703c2.397,0.332,4.344-0.206,5.787-1.602
			c3.494-3.381,2.781-10.554,2.749-10.857L124.577,474.436z"/>
	</g>
	<path fill="#231F20" d="M173.475,26.806c-2.453-0.116-5.07-0.212-7.434,0.26c-0.726,0.192-1.336,0.315-1.788,0.767
		c-0.041,0.069-0.055,0.075-0.062,0.13c0.004,0.376,0.395,0.954,0.817,1.435c0.361,0.411,0.823,0.719,1.337,0.904l0.716,0.258
		l-1.247,1.514c-3.049,3.597-8.564,3.618-12.655,2.09c3.522-0.391,6.79-1.254,9.599-3.179c-0.726-0.829-1.247-1.747-1.302-3.152
		c0.384-3.645,5.577-3.926,9.414-3.844c-2.419-4.186-2.754-9.153,3.583-10.222c14.518-2.658,10.264,16.519,7.913,24.761
		c-1.665-5.152-0.281-10.743-0.651-15.991c-0.096-1.651-0.336-3.316-1.035-4.495c-0.713-1.254-1.884-1.733-3.323-1.761
		c-1.48,0.021-3.248,0.13-4.453,0.87c-3.042,2.083,2.069,7.852,3.576,9.798L173.475,26.806z M74.136,26.95
		c2.083-0.082,4.762-0.281,6.817-0.233c1.802,0.096,3.803,0.069,5.289,0.994c0.075,0.055,0.178,0.164,0.185,0.254
		c-0.007,0.589-0.959,1.672-1.501,2.103l-1.37,0.493l1.247,1.514c3.049,3.59,8.564,3.618,12.655,2.09
		c-3.522-0.391-6.79-1.254-9.599-3.179c0.13-0.158,0.254-0.315,0.384-0.493c0.815-0.993,1.398-3.056,0.295-4.33
		c-1.857-2.097-5.625-2.247-8.797-2.172c2.425-4.186,2.761-9.147-3.577-10.222C61.652,11.102,65.9,30.3,68.25,38.529
		c1.665-5.152,0.274-10.743,0.651-15.991c0.247-4.926,1.795-6.982,6.797-6.07C82.227,17.399,76.219,24.305,74.136,26.95z
		 M123.172,143.678l0.288,0.48c-0.24,5.015-0.815,13.326-5.44,15.19c-3.604,1.124-7.187-0.439-10.339-2.473
		c0.952,5.865,9.174,8.318,13.936,4.995c1.638-1.247,2.823-2.871,3.679-4.686c0.48,1.014,1.062,1.987,1.761,2.898
		c4.118,5.577,14.655,3.686,15.834-3.207c-2.323,1.501-4.454,2.528-7.037,2.802c-3.94,0.466-6.002-1.679-7.187-5.221
		c-1.062-3.213-1.185-10.777-1.185-10.777c-0.226-4.707,15.676-4.707,14.553-14.559c-1.117-9.852-16.69,0-16.69,0h-0.041
		c0,0-15.567-9.852-16.69,0C107.496,138.971,123.398,138.971,123.172,143.678z M168.152,195.359
		c10.024-6.016,17.636-26.508,17.869-27.146c-0.404,0.439-14.929,16.361-30.77,21.945c-15.82,5.563-20.459,22.541-20.596,23.069
		C141.918,204.862,157.971,201.471,168.152,195.359z M168.378,215.824c-35.381,24.199-31.996,63.054-31.996,63.054
		s12.298-34.456,38.334-53.414c28.482-20.746,21.726-43.685,21.726-43.685S195.524,197.25,168.378,215.824z M177.669,254.713
		c-31.853,24.117-32.271,52.119-32.271,52.119c9.852-13.689,15.019-24.741,39.458-42.609c21-15.361,15.745-53.599,15.745-53.599
		S199.456,238.222,177.669,254.713z M190.344,273.678c-16.896,16.656-26.563,50.893-26.563,50.893
		C183.348,310.587,190.344,273.678,190.344,273.678z M140.506,148.111c0,1.028,0.836,1.857,1.857,1.857
		c1.028,0,1.857-0.829,1.857-1.857s-0.829-1.857-1.857-1.857C141.342,146.255,140.506,147.084,140.506,148.111z M135.484,150.845
		c0,1.028,0.829,1.857,1.857,1.857s1.857-0.829,1.857-1.857s-0.829-1.857-1.857-1.857S135.484,149.817,135.484,150.845z
		 M171.406,79.233c4.111,2.836,7.667,8.79,9.181,6.591c1.521-2.192-1.11-8.688-5.214-11.524c-4.104-2.837-8.866-5.125-10.38-2.926
		C163.472,73.567,167.302,76.397,171.406,79.233z M177.415,100.576c-1.912,2.96-0.302,6.605,2.193,6.954
		c2.501,0.349,4.919-2.199,5.406-5.694c0.486-3.494-2.028-10.133-4.522-10.483C177.997,91.004,180.704,95.478,177.415,100.576z
		 M170.694,104.57c-2.453-0.767-2.953,6.427-4.001,9.804c-1.048,3.371-4.344,7.345-1.898,8.105c2.446,0.761,7.783-3.672,8.832-7.043
		C174.674,112.066,173.14,105.331,170.694,104.57z M94.032,190.159c-15.847-5.584-30.373-21.507-30.777-21.945
		c0.233,0.637,7.845,21.13,17.875,27.146c10.174,6.111,26.234,9.503,33.49,17.869C114.484,212.7,109.846,195.722,94.032,190.159z
		 M80.905,215.824c-27.152-18.574-28.07-34.045-28.07-34.045s-6.756,22.939,21.733,43.685
		c26.029,18.958,38.327,53.414,38.327,53.414S116.279,240.024,80.905,215.824z M71.608,254.713
		c-21.781-16.491-22.932-44.089-22.932-44.089s-5.255,38.238,15.745,53.599c24.439,17.869,29.605,28.92,39.465,42.609
		C103.885,306.833,103.46,278.831,71.608,254.713z M85.496,324.571c0,0-9.667-34.237-26.563-50.893
		C58.932,273.678,65.928,310.587,85.496,324.571z M108.242,149.968c1.028,0,1.857-0.829,1.857-1.857s-0.829-1.857-1.857-1.857
		c-1.028,0-1.857,0.829-1.857,1.857S107.215,149.968,108.242,149.968z M115.121,150.845c0-1.028-0.829-1.857-1.857-1.857
		c-1.021,0-1.857,0.829-1.857,1.857s0.836,1.857,1.857,1.857C114.292,152.702,115.121,151.873,115.121,150.845z M70.018,85.824
		c1.521,2.199,5.077-3.755,9.181-6.591c4.104-2.837,7.934-5.666,6.42-7.859c-1.521-2.199-6.276,0.089-10.38,2.926
		C71.135,77.137,68.504,83.632,70.018,85.824z M70.114,91.354c-2.494,0.349-5.002,6.988-4.515,10.483
		c0.487,3.494,2.905,6.043,5.399,5.694c2.494-0.349,4.104-3.994,2.192-6.954C69.902,95.478,72.608,91.004,70.114,91.354z
		 M76.979,115.437c1.048,3.371,6.386,7.804,8.831,7.043c2.453-0.76-0.85-4.734-1.898-8.105c-1.048-3.378-1.548-10.572-3.994-9.804
		C77.466,105.331,75.931,112.066,76.979,115.437z M25.168,395.463c1.425,2.891,2.871,5.714,4.31,8.434
		c4.447,2.213,10.099,3.172,17.238,1.638C46.716,405.535,36.412,404.918,25.168,395.463z M8.204,351.682
		c0.075,0.308,0.151,0.617,0.233,0.925c0.185,0.726,0.377,1.452,0.576,2.179c0.199,0.726,0.404,1.459,0.617,2.192
		c0.116,0.397,0.233,0.802,0.349,1.199c0.185,0.603,0.37,1.206,0.555,1.816c0.178,0.562,0.356,1.131,0.541,1.692
		c0.377,1.172,0.774,2.35,1.185,3.528c0.192,0.555,0.384,1.117,0.589,1.672c0.117,0.329,0.233,0.665,0.356,0.993
		c0.075,0.212,0.151,0.425,0.233,0.63c0.233,0.651,0.473,1.295,0.719,1.939c0.308,0.829,0.63,1.651,0.952,2.473
		c0.027,0.075,0.062,0.158,0.089,0.233c6.125,5.872,14.991,10.435,27.817,11.661C44.113,384.919,20.633,372.388,8.204,351.682z
		 M41.735,365.173c0,0-23.453-22.493-31.318-49.947c-0.151,0.247-0.295,0.493-0.439,0.74c-0.144,0.253-0.281,0.507-0.418,0.767
		c-0.137,0.26-0.274,0.521-0.404,0.788c-0.137,0.267-0.26,0.534-0.391,0.815c-0.247,0.548-0.486,1.117-0.713,1.699
		c-0.116,0.288-0.226,0.589-0.329,0.891c-0.041,0.13-0.089,0.26-0.137,0.39c-0.041,0.13-0.089,0.267-0.13,0.404
		c-0.014,0.027-0.027,0.062-0.034,0.089v0.007c-0.007,0.021-0.014,0.041-0.021,0.062c-0.007,0.034-0.021,0.062-0.027,0.096
		c-0.075,0.233-0.144,0.473-0.219,0.713c-0.103,0.356-0.206,0.719-0.295,1.089c-0.068,0.254-0.13,0.514-0.192,0.781
		c-0.034,0.137-0.062,0.274-0.089,0.411c-0.062,0.26-0.117,0.528-0.164,0.795c-0.055,0.26-0.103,0.528-0.144,0.802
		c-0.027,0.116-0.048,0.24-0.068,0.363c-0.034,0.24-0.075,0.486-0.11,0.733c-0.014,0.117-0.034,0.233-0.048,0.349
		c-0.041,0.322-0.082,0.658-0.117,0.987c-0.041,0.37-0.075,0.747-0.11,1.13v0.007C9.136,342.097,19.16,354.841,41.735,365.173z
		 M39.693,342.769c0,0-11.113-17.732-13.162-40.451c-0.671,0.254-1.37,0.541-2.09,0.863c-0.034,0.014-0.069,0.027-0.103,0.048
		c-0.254,0.116-0.514,0.233-0.774,0.363c-0.048,0.021-0.096,0.041-0.144,0.069c-0.144,0.068-0.295,0.144-0.439,0.219
		c-0.151,0.069-0.295,0.151-0.445,0.226c-0.343,0.178-0.685,0.363-1.035,0.562c-0.178,0.103-0.349,0.199-0.521,0.302
		c-0.185,0.103-0.363,0.212-0.541,0.329c-0.493,0.301-0.987,0.617-1.48,0.959c-0.199,0.137-0.397,0.274-0.596,0.418
		C18.44,316.267,22.688,329.71,39.693,342.769z M221.175,403.877c1.439-2.727,2.884-5.557,4.316-8.455
		c-11.257,9.496-21.596,10.113-21.596,10.113C211.049,407.077,216.722,406.104,221.175,403.877z M235.468,373.093
		c2.837-7.215,5.269-14.484,6.989-21.493c-12.422,20.753-35.963,33.319-34.86,33.216
		C220.47,383.583,229.342,378.999,235.468,373.093z M244.813,330.059c-0.507-6.118-2.234-10.99-4.611-14.868
		c-7.845,27.468-31.332,49.982-31.332,49.982C231.501,354.814,241.524,342.036,244.813,330.059z M232.247,306.661
		c-2.775-2.014-5.639-3.398-8.167-4.351c-2.049,22.72-13.169,40.458-13.169,40.458C227.924,329.71,232.165,316.253,232.247,306.661z
		 M278.738,404.965c3.541-4.635,5.869-8.409,7.959-12.233c1.715-3.139,3.645-7.156,4.599-9.878
		c-14.826,12.509-40.261,25.278-40.261,25.278C263.023,410.639,272.379,407.677,278.738,404.965z M279.351,331.005
		c5.982-6.054,9.246-15.008,10.715-19.95c-1.127-4.7-4.398-14.286-6.306-19.169C282.578,308.575,279.351,331.005,279.351,331.005z
		 M256.789,262.291c0,0,0.952-10.321,5.166-23.06c-2.25-6.22-3.091-11.059-3.451-12.249
		C255.413,234.358,252.703,249.966,256.789,262.291z M299.625,374.299c-6.07,20.5-17.581,38.444-34.216,53.332
		c-12.867,11.51-28.831,21.226-47.467,28.913c0.005,0.046,0.005,0.09,0.009,0.136c0.048,0.496,0.084,0.984,0.098,1.461
		c0.002,0.05-0.001,0.098,0.001,0.148c0.01,0.47,0.01,0.933-0.014,1.382c-0.009,0.183-0.034,0.356-0.049,0.536
		c-0.027,0.31-0.047,0.624-0.091,0.923c-0.071,0.494-0.163,0.974-0.282,1.436v0.007c-0.049,0.184-0.113,0.35-0.168,0.527
		c-0.055,0.176-0.105,0.357-0.168,0.526c-0.081,0.223-0.176,0.429-0.269,0.638c-0.051,0.115-0.099,0.234-0.154,0.345
		c-0.032,0.066-0.058,0.141-0.091,0.205l-0.003-0.033c-0.869,1.678-2.13,2.903-3.693,3.52c-1.446,0.569-3.035,0.603-4.68,0.123
		c-0.966,2.11-2.439,3.597-4.33,4.351c-2.946,1.165-6.488,0.288-9.811-2.35c-1.555,3.796-4.049,6.132-7.071,6.523
		c-0.13,0.014-0.254,0.014-0.384,0.021c-0.158,0.562-0.336,1.096-0.541,1.603c-1.24,3.008-3.227,4.926-5.742,5.563
		c-1.685,0.425-3.474,0.219-5.248-0.596c-1.35,2.234-3.2,3.693-5.413,4.262c-3.439,0.87-7.249-0.665-10.538-4.159
		c-2.268,4.07-5.371,6.358-8.756,6.358c-3.056,0-5.94-1.918-8.153-5.337c-3.378,3.85-7.358,5.57-10.976,4.645
		c-2.234-0.562-4.138-2.083-5.509-4.406c-0.219-0.37-0.418-0.767-0.61-1.172l-0.014-0.678l-0.01,0.733
		c-0.185,0.384-0.37,0.761-0.582,1.117c-1.37,2.323-3.275,3.844-5.509,4.406c-3.618,0.925-7.598-0.795-10.976-4.645
		c-2.213,3.419-5.098,5.337-8.153,5.337c-3.385,0-6.488-2.288-8.756-6.358c-3.289,3.494-7.098,5.029-10.537,4.159
		c-2.213-0.569-4.063-2.028-5.413-4.262c-1.774,0.815-3.563,1.021-5.248,0.596c-2.515-0.637-4.501-2.556-5.742-5.563
		c-0.205-0.507-0.384-1.041-0.541-1.603c-0.13-0.007-0.254-0.007-0.384-0.021c-3.022-0.391-5.515-2.727-7.071-6.523
		c-3.323,2.638-6.865,3.515-9.811,2.35c-1.891-0.754-3.364-2.24-4.33-4.351c-1.644,0.48-3.234,0.445-4.68-0.123
		c-2.186-0.863-3.796-2.898-4.543-5.728v-0.007c-0.5-1.932-0.589-4.145-0.281-6.571c0.281-2.124,0.856-4.248,1.713-6.317
		c1.206-2.926,2.878-5.557,4.837-7.612c1.247-1.295,2.562-2.295,3.885-2.987c-6.995-10.572-34.977-54.716-42.075-93.886
		c-2.61-14.436-0.507-26.316,6.255-35.319c8.462-11.264,21.61-14.58,26.467-15.45c-0.034-2.569,0.069-5.002,0.336-7.269
		c2.508-21.356,3.289-46.33,3.481-54.003c-1.028-5.666-1.864-11.661-1.877-17.416c0.384-18.102,7.537-35.313,15.731-51.167
		c-0.281,0.199-0.569,0.404-0.843,0.61c-2.062,1.562-3.974,3.316-5.844,5.145c1.521-2.124,3.275-4.104,5.193-5.913
		c0.932-0.85,1.905-1.658,2.905-2.439c2.165-3.94,4.447-7.804,6.934-11.6c-0.363-0.644-0.706-1.288-1.041-1.946
		c-0.685,0.158-1.363,0.322-2.049,0.486l-0.329,0.493l-0.959,1.432c-0.569-0.356-1.124-0.74-1.672-1.137
		c-3.734,1.048-7.4,2.323-10.99,3.864c-3.809,1.685-7.42,3.693-10.914,5.981c2.282-2.008,4.748-3.83,7.365-5.426
		c3.994-2.371,8.297-4.289,12.785-5.803c-2.364-2.021-4.406-4.426-5.865-7.16c-3.734-6.851-4.543-14.779-4.104-22.391
		c0.13-2.001,0.336-3.953,0.63-5.906c-1.836,1.72-3.734,3.501-4.515,4.234l-0.644-2.953c-1.569-7.119-1.13-14.71,1.377-21.575
		c0.082-0.219,0.171-0.432,0.26-0.651c-1.953,1.315-3.816,2.597-4.543,3.152c-0.582-3.919-0.726-8.009-0.014-11.894
		c1.432-8.852,6.207-17.156,13.23-22.747l6.728-5.221c2.186-1.733,4.296-3.515,6.386-5.303c-0.103-0.014-0.165-0.027-0.165-0.027
		c0.226-1.912,0.254-3.885,0.199-5.865c-0.137-4.207-0.671-8.455-1.48-12.593c-0.11-0.541-0.267-1.898-0.349-2.467
		c-0.767-7.585,0.288-15.669,4.748-22.062c4.241-6.29,12.388-9.469,18.855-4.316c3.419,2.665,5.2,6.694,7.982,9.928
		c2.199,2.96,4.741,5.584,7.297,8.201c12.141-10.449,24.35-7.29,27.248-6.317l0.024,0.007c2.85-0.959,15.101-4.172,27.276,6.31
		c2.556-2.617,5.098-5.241,7.297-8.201c2.782-3.234,4.563-7.262,7.982-9.928c6.468-5.152,14.614-1.973,18.855,4.316
		c4.46,6.392,5.515,14.477,4.748,22.062c-0.082,0.569-0.24,1.925-0.349,2.467c-0.809,4.138-1.343,8.386-1.48,12.593
		c-0.055,1.98-0.027,3.953,0.199,5.865c0,0-0.062,0.014-0.164,0.027c2.09,1.788,4.2,3.57,6.386,5.303l6.728,5.221
		c7.023,5.591,11.798,13.895,13.23,22.747c0.713,3.885,0.569,7.975-0.014,11.894c-0.726-0.555-2.59-1.836-4.542-3.152
		c0.089,0.219,0.178,0.432,0.26,0.651c2.508,6.865,2.946,14.457,1.377,21.575l-0.644,2.953c-0.781-0.733-2.679-2.515-4.515-4.234
		c0.295,1.953,0.5,3.905,0.63,5.906c0.438,7.612-0.37,15.539-4.104,22.391c-1.459,2.734-3.501,5.139-5.865,7.16
		c4.488,1.514,8.791,3.433,12.785,5.803c2.617,1.596,5.084,3.419,7.365,5.426c-3.494-2.288-7.105-4.296-10.914-5.981
		c-3.59-1.542-7.256-2.816-10.99-3.864c-0.548,0.397-1.103,0.781-1.672,1.137l-0.959-1.432l-0.329-0.493
		c-0.685-0.164-1.363-0.329-2.049-0.486c-0.336,0.658-0.678,1.302-1.041,1.946c2.487,3.796,4.769,7.66,6.934,11.6
		c1,0.781,1.973,1.59,2.905,2.439c1.918,1.809,3.672,3.789,5.193,5.913c-1.87-1.829-3.782-3.583-5.844-5.145
		c-0.274-0.206-0.562-0.411-0.843-0.61c8.194,15.854,15.347,33.065,15.731,51.167c-0.014,5.755-0.85,11.75-1.877,17.416
		c0.192,7.674,0.973,32.647,3.481,54.003c0.267,2.268,0.37,4.7,0.336,7.269c4.858,0.87,18.006,4.186,26.467,15.45
		c6.762,9.003,8.866,20.883,6.256,35.319c-4.064,22.425-14.972,46.477-24.868,64.93l0.014-0.012
		c-0.774,1.439-1.542,2.843-2.295,4.207c5.159-1.768,14.703-5.748,24.055-13.456c18.287-15.08,27.207-36.505,26.502-63.691
		c-0.418-16.183-2.007-29.571-19.582-66.679c-16.711-35.265-15.827-71.132-8.763-83.465c2.377-4.152,5.111-5.221,6.982-5.385
		c2.09-0.185,3.837,0.322,5.2,1.514c3.508,3.035,3.885,9.941,4.406,19.492c0.521,9.613,1.172,21.582,5.221,33.771
		c1.226,3.679,3.768,9.496,6.995,16.855C286.34,282.811,310.43,337.788,299.625,374.299z M194.294,383.391
		c-7.482,22.089-14.642,43.219-16.738,57.443c1.268-1.391,2.898-2.658,4.412-2.857c2.138-0.267,4.275,0.459,6.256,2.11
		c0.596-0.5,1.254-0.891,1.966-1.172c2.268-0.898,4.858-0.617,7.468,0.795c0.24,0.123,0.486,0.254,0.726,0.404
		c0.699-0.761,1.501-1.329,2.439-1.699h0.014c1.007-0.404,2.097-0.534,3.227-0.418c3.001-4.495,12.25-18.739,21.473-36.936
		c1.5-3.248,3.556-7.167,5.145-10.627c3.282-7.112,6.399-14.601,9.058-22.199c2.055-5.372,4.652-13.511,6.475-24.008
		c0.617-3.494,0.939-6.817,0.959-9.969v-0.151c0.027-3.768-0.699-8.366-1.185-10.538c-1.439-6.481-5.303-11.442-5.433-11.613
		c-2.453-3.268-5.378-5.803-8.372-7.776c-2.912-1.877-7.201-4.282-13.587-5.858c-0.048-0.007-0.096-0.021-0.137-0.034
		c-0.665-0.158-1.261-0.288-1.775-0.391c-0.041,0.802-0.103,1.61-0.171,2.432C214.629,323.324,203.934,354.923,194.294,383.391z
		 M61.317,145.816c2.734-0.569,5.509-1.007,8.304-1.315c-1.624-3.028-3.172-6.002-5.447-8.503c-3.7-4.056-5.995-8.201-7.4-11.99
		c-1.727,6.886-1.473,13.641-1.473,13.641c-6.022-10.14-3.069-26.933-1.733-32.949c-2.494-10.133-0.87-18.869-0.87-18.869
		c5.796-29.557,25.433-35.518,26.049-35.696c-24.837,20.109-23.473,60.218-12.799,67.028c14.854,9.483,15.334,25.59,15.334,25.59
		s-2.734-4.919-11.997-14.416c0.856,6.632,2.535,11.785,4.618,15.779c3.57-0.24,7.153-0.281,10.702-0.144
		c-0.24-2.939,0.178-5.906,1.466-8.722c0.952-2.069,2.61-3.905,4.07-5.618c6.022-7.201,10.209-15.382,15.731-23.042l-1.165-0.808
		c-0.007,0-1.041-0.582-3.994-0.706c-0.555-0.027-1.124-0.034-1.72-0.041c-3.131-0.041-6.68-0.082-9.798-2.268
		c-2.98-2.09-3.666-4.563-4.33-6.954c-0.206-0.74-0.418-1.507-0.699-2.254c-1.035-2.713-2.617-4.22-2.631-4.241l-1.74-1.638
		l2.384-0.137c0.37-0.014,9.126-0.486,16.498,1.535c8.05,2.213,8.503,11.469,7.619,16.053l-0.233,1.185c0.007,0,0.007,0,0.007,0
		c0,0.007-0.007,0.021-0.007,0.034l-0.068,0.322l-0.021-0.014c-2.384,9.27-7.681,17.389-13.374,24.953
		c-0.747,0.966-1.987,2.329-2.617,3.33c-1.829,2.83-2.371,6.022-2.014,9.208c4.659,0.322,9.229,0.952,13.621,1.85
		c-4.447-0.308-8.927-0.493-13.408-0.507c0.219,1.158,0.548,2.316,0.98,3.439c4.214-0.363,8.393-0.411,12.428-0.158
		c-3.94,0.37-7.913,0.843-11.874,1.48c1.418,3.111,3.522,5.954,5.892,8.112c1.685,1.5,3.631,2.754,5.673,3.337
		c0.226-1.713,0.802-3.357,1.816-4.83c1.24,7.715,1.501,13.737,9.51,16.903c4.015,1.562,8.235,1.822,12.586,1.946h0.23
		c4.351-0.123,8.571-0.384,12.586-1.946c8.009-3.165,8.27-9.188,9.51-16.903c1.014,1.473,1.59,3.117,1.816,4.83
		c2.042-0.582,3.987-1.836,5.673-3.337c2.371-2.158,4.474-5.002,5.892-8.112c-3.96-0.637-7.934-1.11-11.874-1.48
		c4.036-0.254,8.215-0.206,12.429,0.158c0.432-1.124,0.76-2.282,0.98-3.439c-4.481,0.014-8.962,0.199-13.408,0.507
		c4.392-0.898,8.962-1.528,13.621-1.85c0.356-3.186-0.185-6.379-2.014-9.208c-0.63-1-1.87-2.364-2.617-3.33
		c-5.694-7.564-10.99-15.683-13.374-24.953l-0.021,0.014l-0.068-0.322c0-0.014-0.007-0.027-0.007-0.034c0,0,0,0,0.007,0
		l-0.233-1.185c-0.884-4.584-0.432-13.84,7.619-16.053c7.372-2.021,16.128-1.548,16.498-1.535l2.384,0.137l-1.74,1.638
		c-0.014,0.021-1.596,1.528-2.631,4.241c-0.281,0.747-0.493,1.514-0.699,2.254c-0.665,2.391-1.35,4.865-4.33,6.954
		c-3.117,2.186-6.666,2.227-9.798,2.268c-0.596,0.007-1.165,0.014-1.72,0.041c-2.953,0.123-3.987,0.706-3.994,0.706l-1.165,0.808
		c5.522,7.66,9.709,15.841,15.731,23.042c1.459,1.713,3.117,3.549,4.07,5.618c1.288,2.816,1.706,5.783,1.466,8.722
		c3.549-0.137,7.132-0.096,10.702,0.144c2.083-3.994,3.761-9.147,4.618-15.779c-9.263,9.496-11.997,14.416-11.997,14.416
		s0.48-16.108,15.334-25.59c10.675-6.81,12.038-46.919-12.799-67.028c0.617,0.178,20.253,6.139,26.049,35.696
		c0,0,1.624,8.736-0.87,18.869c1.336,6.016,4.289,22.809-1.733,32.949c0,0,0.254-6.756-1.473-13.641
		c-1.405,3.789-3.7,7.934-7.4,11.99c-2.275,2.501-3.823,5.474-5.447,8.503c2.795,0.308,5.57,0.747,8.304,1.315
		c0.966-2.021,1.788-4.111,2.446-6.249c0.952,1.411,2.898,4.337,4.303,6.434c2.199-1.781,4.042-3.994,5.413-6.502
		c4.207-7.79,4.351-17.231,3.124-25.864c-0.404-3.227-1.706-7.79-2.501-10.942c1.898,1.768,5.461,5.111,8.194,7.674
		c0.945-7.228-0.315-14.744-3.823-21.151c-0.425-0.87-5.145-7.694-5.817-8.674c2.96,1.966,8.277,5.55,12.216,8.187
		c-0.281-4.303-1.35-8.605-3.056-12.531c-2.145-4.919-5.426-9.284-9.524-12.764c-2.09-1.74-4.46-3.576-6.557-5.399
		c-6.434-5.646-13.086-11.428-17.225-19.054c3.337,2.514,6.461,5.152,9.551,7.811c-0.411-5.433,0.123-10.791,1.007-16.163
		c0.082-0.411,0.171-1.672,0.24-2.097c0.644-8.126-0.843-17.882-7.879-22.843c-3.734-2.59-8.16-1.446-10.908,1.994
		c-1.247,1.528-2.377,3.302-3.624,4.83c-3.2,4.125-6.776,7.961-10.545,11.538c-3.069,2.878-6.44,5.454-10.531,6.756
		c1.884-2.782,4.097-5.248,6.386-7.639c-6.42-5.447-12.792-6.653-17.396-6.564c-0.829,0.644-2.083,1.836-3.124,3.741
		c3.94-0.041,11.038,0.445,14.888,4.09c0,0-12.504-1.733-16.642,1.672c-0.185,1.617-0.171,3.467,0.11,5.57
		c4.995,0.233,24.679,2.042,36.409,15.731c0,0-22.281-9.489-34.723-8.578c0.562,2.35,0.85,4.638,0.925,6.831
		c5.748,0.384,32.572,3.193,43,22.274c0,0-20.253-15.526-43.719-13.607c-0.445,2.227-1.035,4.227-1.644,5.933
		c5.68,0.747,26.604,3.878,30.797,10.085c0,0-17.211,4.097-33.757-3.487h-0.007l-0.024,0.007
		c-16.54,7.578-33.737,3.481-33.737,3.481c4.193-6.207,25.117-9.339,30.797-10.085c-0.61-1.706-1.199-3.707-1.644-5.933
		C97.232,52.41,76.979,67.935,76.979,67.935c10.428-19.081,37.251-21.891,43-22.274c0.075-2.193,0.363-4.481,0.925-6.831
		c-12.442-0.911-34.723,8.578-34.723,8.578c11.73-13.689,31.414-15.498,36.409-15.731c0.281-2.103,0.295-3.953,0.11-5.57
		c-4.138-3.405-16.642-1.672-16.642-1.672c3.851-3.645,10.949-4.131,14.888-4.09c-1.041-1.905-2.295-3.097-3.124-3.741
		c-4.604-0.089-10.976,1.117-17.396,6.564c2.288,2.391,4.501,4.858,6.386,7.639c-4.09-1.302-7.461-3.878-10.531-6.756
		c-3.768-3.576-7.345-7.413-10.544-11.538c-1.247-1.528-2.378-3.302-3.624-4.83C79.364,4.244,74.937,3.1,71.203,5.69
		c-7.036,4.96-8.523,14.717-7.879,22.843c0.069,0.425,0.158,1.685,0.24,2.097c0.884,5.372,1.418,10.729,1.007,16.163
		c3.09-2.658,6.214-5.296,9.551-7.811c-4.138,7.626-10.791,13.408-17.225,19.054c-2.097,1.823-4.467,3.659-6.557,5.399
		c-4.097,3.481-7.379,7.845-9.523,12.764c-1.706,3.926-2.775,8.229-3.056,12.531c3.94-2.638,9.256-6.221,12.216-8.187
		c-0.672,0.98-5.392,7.804-5.817,8.674c-3.508,6.406-4.769,13.922-3.823,21.151c2.734-2.562,6.296-5.906,8.194-7.674
		c-0.795,3.152-2.097,7.715-2.501,10.942c-1.226,8.633-1.083,18.074,3.124,25.864c1.37,2.508,3.213,4.721,5.413,6.502
		c1.405-2.097,3.35-5.022,4.303-6.434C59.529,141.705,60.351,143.795,61.317,145.816z M164.271,150.831
		c-1.041,2.453-2.487,4.769-4.2,6.797c2.48-0.521,6.564-1.884,10.531-5.467C168.505,151.66,166.395,151.222,164.271,150.831z
		 M172.218,150.564c1.199-1.288,2.357-2.795,3.439-4.57c-3.268-0.274-6.55-0.432-9.832-0.486c-0.205,1.281-0.534,2.549-0.959,3.789
		C167.327,149.605,169.786,150.03,172.218,150.564z M156.248,161.328c-2.021,1.542-4.316,2.761-6.865,3.193
		c-0.199,2.336-0.993,4.666-2.234,6.68c3.864,0.13,7.735-0.123,11.504-0.891c9.517-1.775,17.937-7.139,24.124-14.436
		c-2.514-0.959-5.077-1.802-7.68-2.542C171.403,157.224,165.915,160.314,156.248,161.328z M184.106,154.236
		c1.589-2.055,3.015-4.248,4.241-6.536c-2.782-0.528-5.577-0.952-8.393-1.281c-1,1.788-2.076,3.556-3.398,5.228
		C179.132,152.373,181.653,153.236,184.106,154.236z M187.353,155.662c1.165,0.548,2.309,1.131,3.426,1.747
		c-0.685-1.233-1.377-2.453-2.069-3.659C188.271,154.394,187.819,155.031,187.353,155.662z M149.067,92.923
		c-0.993,0.925-1.672,2.055-2.131,3.248c0.226,1.089,0.665,2.138,1.343,3.076c1.267,1.733,3.138,2.884,5.282,3.241
		c2.124,0.349,4.289-0.137,6.05-1.37c3.638-2.556,4.481-7.55,1.877-11.134c-0.075-0.096-0.151-0.185-0.226-0.281
		c-0.843,0.055-1.727,0.13-2.631,0.233c0.329,0.254,0.637,0.541,0.911,0.87c0.178,0.206,0.336,0.425,0.473,0.644
		c-1.021-0.144-2.09,0.116-2.939,0.815c-1.603,1.309-1.816,3.645-0.48,5.221c0.671,0.802,1.617,1.254,2.597,1.336
		c-0.137,0.13-0.274,0.254-0.425,0.377c-2.576,2.103-6.399,1.754-8.544-0.781C148.882,96.828,148.519,94.766,149.067,92.923z
		 M146.649,100.384c-0.178-0.247-0.343-0.5-0.493-0.76c-0.158,1.535-0.082,2.939,0.014,3.892c0.74-0.199,1.829-0.397,3.337-0.48
		C148.403,102.357,147.43,101.46,146.649,100.384z M164.737,92.333c0.48-1.13,1.021-2.069,1.514-2.789
		c-0.733,0-1.631,0.007-2.645,0.041C164.127,90.449,164.504,91.374,164.737,92.333z M66.51,154.236c2.453-1,4.974-1.864,7.55-2.59
		c-1.322-1.672-2.398-3.439-3.398-5.228c-2.816,0.329-5.611,0.754-8.393,1.281C63.495,149.989,64.921,152.181,66.51,154.236z
		 M61.906,153.75c-0.692,1.206-1.384,2.425-2.069,3.659c1.117-0.617,2.261-1.199,3.426-1.747
		C62.797,155.031,62.344,154.394,61.906,153.75z M67.839,155.874c6.187,7.297,14.607,12.662,24.124,14.436
		c3.768,0.767,7.64,1.021,11.504,0.891c-1.24-2.014-2.035-4.344-2.234-6.68c-2.549-0.432-4.844-1.651-6.865-3.193
		c-9.667-1.014-15.155-4.104-18.848-7.996C72.916,154.072,70.354,154.915,67.839,155.874z M85.749,149.297
		c-0.425-1.24-0.754-2.508-0.959-3.789c-3.282,0.055-6.564,0.212-9.832,0.486c1.082,1.775,2.24,3.282,3.439,4.57
		C80.83,150.03,83.289,149.605,85.749,149.297z M80.014,152.161c3.967,3.583,8.05,4.947,10.531,5.467
		c-1.713-2.028-3.159-4.344-4.2-6.797C84.221,151.222,82.111,151.66,80.014,152.161z M90.6,91.45
		c0.137-0.219,0.295-0.439,0.473-0.644c0.274-0.329,0.582-0.617,0.911-0.87c-0.904-0.103-1.788-0.178-2.631-0.233
		c-0.075,0.096-0.151,0.185-0.226,0.281c-2.604,3.583-1.761,8.578,1.877,11.134c1.761,1.233,3.926,1.72,6.05,1.37
		c2.145-0.356,4.015-1.507,5.283-3.241c0.678-0.939,1.117-1.987,1.343-3.076c-0.459-1.192-1.137-2.323-2.131-3.248
		c0.548,1.843,0.185,3.905-1.158,5.495c-2.144,2.535-5.968,2.884-8.544,0.781c-0.151-0.123-0.288-0.247-0.425-0.377
		c0.98-0.082,1.925-0.534,2.597-1.336c1.336-1.576,1.124-3.912-0.48-5.221C92.69,91.566,91.621,91.306,90.6,91.45z M101.11,103.035
		c1.507,0.082,2.597,0.281,3.337,0.48c0.096-0.952,0.171-2.357,0.014-3.892c-0.151,0.26-0.315,0.514-0.493,0.76
		C103.186,101.46,102.213,102.357,101.11,103.035z M84.365,89.545c0.493,0.719,1.035,1.658,1.514,2.789
		c0.233-0.959,0.61-1.884,1.13-2.747C85.996,89.552,85.098,89.545,84.365,89.545z M46.552,437.997
		c1.131-0.116,2.22,0.014,3.227,0.418h0.014c0.939,0.37,1.74,0.939,2.439,1.699c0.24-0.151,0.487-0.281,0.726-0.404
		c2.61-1.411,5.2-1.692,7.468-0.795c0.712,0.281,1.37,0.671,1.966,1.172c1.98-1.651,4.118-2.377,6.255-2.11
		c1.514,0.199,3.145,1.466,4.412,2.857c-2.097-14.224-9.256-35.354-16.738-57.443c-9.64-28.468-20.335-60.067-22.219-83.06
		c-0.069-0.822-0.13-1.631-0.171-2.432c-0.514,0.103-1.11,0.233-1.775,0.391c-0.041,0.014-0.089,0.027-0.137,0.034
		c-6.379,1.576-10.675,3.981-13.586,5.858c-2.994,1.973-5.92,4.508-8.372,7.776c-0.13,0.171-3.988,5.132-5.433,11.613
		c-0.486,2.172-1.213,6.769-1.185,10.538v0.151c0.021,3.152,0.343,6.475,0.959,9.969c1.829,10.496,4.426,18.636,6.475,24.008
		c2.658,7.598,5.776,15.087,9.058,22.199c1.589,3.46,3.652,7.379,5.145,10.627C34.301,419.258,43.551,433.503,46.552,437.997z
		 M68.244,455.099c0.24-0.329,0.493-0.644,0.74-0.946c0.007,0,0.007,0,0.007-0.007c1.425-1.713,2.994-3.001,4.597-3.796
		c0.048-2.836-1.548-5.303-2.288-6.29c-1.446-1.925-2.768-2.645-3.09-2.686c-1.857-0.24-3.535,1.117-4.618,2.295l-1.398,1.521
		l-1.233-1.658c-0.507-0.678-1.11-1.165-1.795-1.432c-1.638-0.651-3.412-0.007-4.618,0.644c-0.562,0.281-1.11,0.637-1.665,1.083
		l-1.583,1.24l-0.98-1.761c-0.473-0.856-1.062-1.418-1.809-1.713c-1.816-0.726-4.351,0.336-6.762,2.843
		c-1.665,1.74-3.097,4.008-4.145,6.543c-0.74,1.802-1.24,3.638-1.48,5.461c-0.253,1.953-0.185,3.782,0.199,5.269
		c0.329,1.233,1.021,2.83,2.48,3.398c1.288,0.514,2.693,0.034,3.652-0.452l1.857-0.952l0.569,2.014
		c0.397,1.384,1.226,3.186,2.946,3.871c2.179,0.863,5.282-0.439,8.092-3.398l2.124-2.234l0.774,2.987
		c0.897,3.439,2.494,5.776,4.364,6.44c-0.007-0.048-0.007-0.096-0.007-0.137c-0.055-0.596-0.082-1.22-0.089-1.857v-0.014
		c0-2.371,0.322-4.796,0.952-7.201C64.927,460.778,66.38,457.641,68.244,455.099z M123.59,473.358
		c-0.11-1.877-0.411-3.837-0.925-5.796c-2.316-8.818-8.246-15.365-12.874-14.1c-1.654,0.452-2.645,6.317-2.645,6.317l-1.884-5.751
		c-0.227-0.692-0.568-1.347-1.047-1.895c-1.294-1.482-2.729-2.281-4.153-2.281c-1.058,0-2.003,0.417-2.816,1.017
		c-0.877,0.648-1.493,1.59-1.831,2.626l-1.903,5.832l-1.666-5.708c-0.232-0.796-0.84-1.456-1.643-1.66
		c-0.005-0.001-0.009-0.002-0.014-0.004c-1.247-0.315-2.604-0.082-4.036,0.685c-0.377,0.192-0.754,0.425-1.185,0.733
		c-0.575,0.404-1.144,0.898-1.699,1.459l-1.405,1.425l-1.192-1.61c-0.671-0.911-1.473-1.487-2.384-1.72
		c-0.678-0.171-1.411-0.144-2.158,0.075l-0.377,0.123c-0.007,0-0.007,0-0.007,0c-0.007,0.007-2.467,0.898-4.741,4.001
		c-1.61,2.193-2.871,4.933-3.652,7.92c-0.404,1.548-0.665,3.097-0.774,4.625c-0.007,0.041-0.014,0.089-0.014,0.137
		c-0.02,0.295-0.02,0.596-0.034,0.891c-0.007,0.226-0.021,0.452-0.021,0.672c0.014,1.288,0.123,2.467,0.329,3.508
		c0.171,0.884,0.404,1.679,0.692,2.391c0.562,1.363,1.617,3.09,3.412,3.542l0.032,0.008c1.421,0.351,2.899-0.301,3.598-1.587
		l3.249-5.978l0.351,7.422c0.034,0.713,0.277,1.405,0.725,1.961c0.674,0.836,1.56,1.547,2.713,1.84
		c2.007,0.516,4.335-0.413,6.541-2.517c0.926-0.883,1.587-2.009,1.975-3.228l1.932-6.06l1.333,6.86
		c0.147,0.758,0.398,1.498,0.762,2.179c1.647,3.079,3.78,4.862,5.907,4.862c1.323,0,3.335-1.889,4.538-3.16
		c0.656-0.693,1.082-1.569,1.233-2.512l1.314-8.23l2.646,7.89c0.252,0.751,0.65,1.45,1.182,2.036
		c2.437,2.682,5.137,3.958,7.374,3.386c1.35-0.336,2.494-1.288,3.405-2.823c1.055-1.795,1.672-4.166,1.836-6.831
		C123.542,475.365,123.542,474.372,123.59,473.358z M129.239,456.606c0.808-2.131,1.535-4.419,2.192-6.673
		c2.069-6.975,3.474-14.169,4.268-21.39c0.514-4.824,0.795-9.894,1.295-14.71c1.459-14.813,3.474-29.612,7.016-44.096
		c0.74-2.967,1.548-5.92,2.453-8.852c-2.124-10.366-0.582-20.931,1.884-31.065c1.247-5.125,2.891-10.133,4.68-15.066
		c1.836-4.947,4.063-9.756,7.345-13.957c-0.939,5.262-2.419,10.188-3.967,15.108c-3.508,11.743-6.769,24.021-6.906,36.333
		c1.507-3.741,3.405-7.448,6.995-9.469c-1.583,4.782-3.302,9.078-4.96,13.744c-5.974,18.643-8.311,38.293-10.318,57.731
		c-0.5,4.837-0.843,9.935-1.391,14.772c-0.925,7.482-2.576,14.84-4.851,22.014c-0.027,0.082-0.055,0.164-0.082,0.247
		c2.213-1.254,4.542-1.699,6.783-1.137c0.514,0.137,1.007,0.315,1.487,0.548c2.09-2.761,4.673-4.262,7.393-4.262
		c2.405,0,4.659,1.13,6.598,3.289c0.761-0.5,1.576-0.863,2.439-1.083c2.076-0.521,4.316-0.178,6.468,0.98
		c0.486,0.247,1,0.569,1.562,0.959c0.281,0.199,0.562,0.418,0.843,0.644c0.891-0.781,1.898-1.322,3.015-1.61
		c0.671-0.164,1.363-0.233,2.055-0.205c-0.514-13.874,7.879-38.656,17.512-67.11c11.538-34.059,24.61-72.667,22.021-94.735
		c-1.679-14.32-2.59-30.242-3.069-41.561c-2.09,7.434-4.611,14.751-6.728,22.089c-1.651,5.618-3.035,11.052-3.768,17.06
		c-0.706-2.165-1.083-4.467-1.172-6.742c-0.171-9.777,3.864-19.129,6.283-28.365c2.398-8.462,4.33-16.964,5.269-25.679
		c0.466-4.125,0.699-8.722,0.322-12.847c-1.768-17.512-9.243-35.319-17.848-51.229c-2.028-1.117-4.111-2.131-6.228-3.049
		c-6.756,8.318-16.19,14.436-26.803,16.437c-4.926,1.007-9.969,1.185-14.936,0.815c-0.164,0.144-0.322,0.301-0.493,0.438
		c-5.159,4.145-12.285,4.823-18.588,4.227l-0.024-0.295v0.295c-6.297,0.596-13.408-0.089-18.561-4.227
		c-0.171-0.137-0.329-0.295-0.493-0.438c-4.967,0.37-10.01,0.192-14.936-0.815c-10.613-2.001-20.047-8.119-26.803-16.437
		c-2.117,0.918-4.2,1.932-6.228,3.049c-8.606,15.909-16.08,33.716-17.848,51.229c-0.377,4.125-0.144,8.722,0.322,12.847
		c0.939,8.715,2.871,17.218,5.269,25.679c2.419,9.236,6.454,18.588,6.283,28.365c-0.089,2.275-0.466,4.577-1.172,6.742
		c-0.733-6.009-2.117-11.442-3.768-17.06c-2.117-7.338-4.638-14.655-6.728-22.089c-0.48,11.319-1.391,27.241-3.069,41.561
		c-2.59,22.069,10.483,60.677,22.021,94.735c9.633,28.454,18.026,53.236,17.512,67.11c0.692-0.027,1.384,0.041,2.055,0.205
		c1.117,0.288,2.124,0.829,3.015,1.61c0.281-0.226,0.562-0.445,0.843-0.644c0.562-0.391,1.076-0.713,1.562-0.959
		c2.151-1.158,4.392-1.501,6.468-0.98c0.863,0.219,1.679,0.582,2.439,1.083c1.939-2.158,4.193-3.289,6.598-3.289
		c2.72,0,5.303,1.5,7.393,4.262c0.48-0.233,0.973-0.411,1.487-0.548c2.24-0.562,4.57-0.116,6.783,1.137
		c-0.027-0.082-0.055-0.164-0.082-0.247c-2.275-7.173-3.926-14.532-4.851-22.014c-0.548-4.837-0.891-9.935-1.391-14.772
		c-2.008-19.438-4.344-39.088-10.318-57.731c-1.658-4.666-3.378-8.962-4.96-13.744c3.59,2.021,5.488,5.728,6.995,9.469
		c-0.137-12.312-3.398-24.59-6.906-36.333c-1.548-4.919-3.028-9.846-3.967-15.108c3.282,4.2,5.509,9.01,7.345,13.957
		c1.788,4.933,3.433,9.941,4.68,15.066c2.467,10.133,4.008,20.698,1.884,31.065c0.904,2.932,1.713,5.885,2.453,8.852
		c3.542,14.484,5.557,29.283,7.016,44.096c0.5,4.817,0.781,9.887,1.295,14.71c0.795,7.221,2.199,14.415,4.269,21.39
		c0.658,2.254,1.384,4.543,2.192,6.673c1.407,1.962,2.85,4.355,3.855,6.978C126.263,460.946,127.819,458.588,129.239,456.606z
		 M184.106,471.371c0-0.219-0.014-0.445-0.021-0.672c-0.014-0.295-0.014-0.596-0.034-0.891c0-0.048-0.007-0.096-0.014-0.137
		c-0.11-1.528-0.37-3.076-0.774-4.625c-0.781-2.987-2.042-5.728-3.652-7.92c-2.275-3.104-4.734-3.994-4.741-4.001c0,0,0,0-0.007,0
		l-0.377-0.123c-0.747-0.219-1.48-0.247-2.158-0.075c-0.911,0.233-1.713,0.808-2.384,1.72l-1.192,1.61l-1.404-1.425
		c-0.555-0.562-1.124-1.055-1.699-1.459c-0.432-0.308-0.808-0.541-1.185-0.733c-1.432-0.767-2.788-1-4.035-0.685
		c-0.005,0.001-0.009,0.002-0.014,0.004c-0.803,0.204-1.411,0.865-1.643,1.66l-1.666,5.708l-1.854-5.684
		c-0.409-1.253-1.195-2.378-2.317-3.07c-0.708-0.437-1.505-0.721-2.378-0.721c-1.294,0-2.596,0.66-3.794,1.891
		c-0.685,0.704-1.175,1.577-1.48,2.511l-1.81,5.526c0,0-1.115-5.971-2.645-6.317c-4.679-1.059-10.558,5.283-12.874,14.1
		c-0.514,1.96-0.815,3.919-0.925,5.796c0.048,1.014,0.048,2.007,0,2.974c0.164,2.665,0.781,5.036,1.836,6.831
		c0.911,1.535,2.055,2.487,3.405,2.823c2.226,0.569,4.911-0.691,7.338-3.346c0.559-0.611,0.973-1.344,1.236-2.129l2.628-7.837
		l1.396,8.743c0.102,0.64,0.329,1.254,0.684,1.797c0.854,1.304,2.655,3.508,5.004,3.362c2.23-0.139,4.475-1.984,6.153-5.339
		c0.218-0.436,0.362-0.905,0.455-1.383l1.395-7.18l1.933,6.064c0.388,1.216,1.047,2.34,1.971,3.221
		c2.207,2.106,4.536,3.036,6.544,2.52c0.795-0.202,1.463-0.603,2.022-1.107c0.899-0.81,1.382-1.985,1.439-3.194l0.328-6.923
		c0,0,3.188,8.297,6.879,7.557c1.815-0.364,2.85-2.179,3.412-3.542c0.288-0.713,0.521-1.507,0.692-2.391
		C183.982,473.837,184.092,472.659,184.106,471.371z M214.492,456.441c-0.24-1.823-0.74-3.659-1.48-5.461
		c-1.048-2.535-2.48-4.803-4.145-6.543c-2.412-2.508-4.947-3.57-6.762-2.843c-0.747,0.295-1.336,0.856-1.809,1.713l-0.98,1.761
		l-1.583-1.24c-0.555-0.445-1.103-0.802-1.665-1.083c-1.206-0.651-2.98-1.295-4.618-0.644c-0.685,0.267-1.288,0.754-1.795,1.432
		l-1.233,1.658l-1.398-1.521c-1.083-1.178-2.761-2.535-4.618-2.295c-0.322,0.041-1.644,0.76-3.09,2.686
		c-0.74,0.987-2.336,3.453-2.288,6.29c1.603,0.795,3.172,2.083,4.597,3.796c0,0.007,0,0.007,0.007,0.007
		c0.247,0.301,0.5,0.617,0.74,0.946c1.864,2.542,3.316,5.68,4.207,9.078c0.63,2.405,0.952,4.83,0.952,7.201v0.014
		c-0.007,0.637-0.034,1.261-0.089,1.857c0,0.041,0,0.089-0.007,0.137c1.87-0.665,3.467-3.001,4.365-6.44l0.774-2.987l2.124,2.234
		c2.809,2.96,5.913,4.262,8.092,3.398c1.72-0.685,2.549-2.487,2.946-3.871l0.569-2.014l1.857,0.952
		c0.959,0.487,2.364,0.966,3.652,0.452c1.459-0.569,2.151-2.165,2.48-3.398C214.677,460.224,214.746,458.394,214.492,456.441z
		 M290.444,306.463c-2.24-7.494-4.776-14.575-6.602-19.09c-4.687-12.425-9.654-23.766-13.582-32.727
		c-2.748-6.269-5.006-11.419-6.408-15.178c-3.624-10.715-4.109-15.887-4.109-15.887c-1.268-7.53-1.651-14.607-1.987-20.746
		c-0.439-8.05-0.815-15.005-3.22-17.094c-0.418-0.356-1.144-0.815-2.658-0.685c-1.918,0.171-3.405,2.09-4.31,3.672
		c-2.871,5.015-4.59,14.648-4.255,26.734c1.041-3.974,3.021-8.749,6.66-14.148c-0.13,0.562-4.597,19.451-4.166,35.491
		c2.062,10.325,5.488,21.342,10.64,32.223c1.638,3.453,3.131,6.694,4.508,9.763c0.473-3.988,2.096-9.482,6.523-16.026
		c0,0-1.644,15.121-1.124,28.742c8.633,21.671,9.681,32.771,10.01,45.576c0.301,11.73-1.22,21.801-3.857,30.427
		c4.789-4.632,15.025-15.512,17.684-26.351c0,0-0.754,31.825-26.961,46.131c-4.591,6.934-9.825,12.278-14.731,16.313
		c-11.6,9.517-23.206,13.518-27.516,14.765c3.069,1.48,14.34,5.81,35.587,2.268c0,0-15.841,15.025-45.768,13.264
		c-1.363,2.165-2.501,3.912-3.344,5.18c1.322,0.692,2.631,1.692,3.878,2.98c1.966,2.062,3.638,4.693,4.844,7.619
		c0.06,0.147,0.106,0.295,0.164,0.441c0.163,0.413,0.321,0.827,0.461,1.244c0.012,0.038,0.022,0.076,0.035,0.113
		c0.178,0.538,0.337,1.078,0.477,1.62c0,0,0.001,0,0.001,0.001c29.562-12.297,51.88-29.018,65.551-50.65
		c3.406-5.39,7.197-11.405,11.391-22.819c0.754-2.069,1.446-4.173,2.076-6.303C301.989,354.245,297.645,329.641,290.444,306.463z"/>
</g>
</svg>
