<?xml version="1.0" encoding="utf-8"?>
<!-- Generator: Adobe Illustrator 28.3.0, SVG Export Plug-In . SVG Version: 6.00 Build 0)  -->
<svg version="1.1" id="turtle_00000076573304039123164900000003815860666908928149_"
	 xmlns="http://www.w3.org/2000/svg" xmlns:xlink="http://www.w3.org/1999/xlink" x="0px" y="0px" viewBox="0 0 490 216.173"
	 enable-background="new 0 0 490 216.173" xml:space="preserve">
<g id="turtle">
	<g>
		<path fill="#D69A72" d="M440.556,165.889l-0.002-0.001c-5.718-8.607-9.127-15.729-10.327-18.392l-1.612-3.568l-2.482,3.027
			c-1.201,1.466-2.538,2.838-4.031,4.348c-11.206,11.222-27.662,16.957-44.03,15.338l-0.682-0.066l-0.607,0.296
			c-1.472,0.708-2.846,1.354-4.201,1.974l-6.908,3.158l7.459,1.437c6.489,1.249,16.985,5.477,30.145,18.523
			c8.789,8.71,17.145,10.538,22.605,10.538c5.135,0,9.969-1.65,13.611-4.647C446.142,192.393,450.41,180.745,440.556,165.889z"/>
		<path fill="#D69A72" d="M310.233,186.052c-12.72,1.288-25.294,1.205-37.368-0.242c-30.511-3.784-74.616-12.139-105.236-40.879
			c-3.177-3.027-6.234-6.36-9.106-9.926l3.64-1.864l-6.608-1.45c-0.991-0.218-2.047-0.469-3.315-0.783
			c-10.02-2.547-18.427-6.167-24.984-10.756l-0.729-0.514l-0.794,0.073l-2.863-2.512c-3.406-2.99-6.178-6.351-8.255-10.006
			l2.13-1.069l-4.078-1.733c-2.217-0.941-4.415-2.295-6.345-3.903c-2.414-2.054-4.534-4.718-6.3-7.916l-0.476-0.863l-0.967-0.167
			c-7.916-1.388-15.472-4.94-22.783-8.379c-5.081-2.39-10.333-4.859-15.676-6.601c-10.6-3.644-21.389-3.757-31.219-0.32
			C26.759,77.015,7.86,84.01,3.721,90.964L3.656,91.09c-1.335,2.852-1.442,5.776-0.318,8.691
			c2.184,5.663,8.761,10.113,14.226,12.405c1.084,0.421,2.176,0.773,3.273,1.064c-1.413-0.346-2.773-0.771-4.06-1.277l-6.959-2.734
			l4.588,5.902c4.98,6.409,14.87,9.004,29.439,7.698l1.764-0.2c2.407-0.224,4.667-0.829,6.847-1.553l-2.303,1.186l7.001,0.646
			c7.104,0.66,16.01,2.313,22.948,6.277l-0.39,0.178c-2.811,1.277-12.015,6.028-12.439,13.562
			c-0.329,5.838,4.636,11.923,14.755,18.084l5.384,3.283l-0.811-2.74c6.696,16.738,22.933,35.235,39.406,44.418
			c6.78,3.731,17.015,8.181,27.276,8.181c4.097-0.001,7.96-0.707,11.536-2.123c5.027-2.226,8.027-5.829,8.917-10.71
			c1.137-6.237-1.601-13.886-5.636-20.916c5.332,3.155,23.458,12.939,40.935,11.519l7.84-0.635c2.858,0.865,5.654,1.632,8.433,2.312
			c26.777,6.44,56.456,5.472,85.827-2.803l1.812-0.512l-0.847-4.432L310.233,186.052z"/>
		<path fill="#D69A72" d="M177.422,48.381c1.067,0.402,2.112,0.764,3.208,0.776c1.655,0,2.942-0.904,3.534-2.48
			c0.509-1.348,0.459-2.814-0.14-4.13c-0.597-1.311-1.667-2.313-3.02-2.825c-2.783-1.04-5.901,0.382-6.949,3.17
			C172.67,46.596,176.001,47.847,177.422,48.381z"/>
		<path fill="#D69A72" d="M208.78,37.067c0,3.904,3.171,7.08,7.07,7.08s7.07-3.176,7.07-7.08c0-4.92-4.293-4.92-6.6-4.92
			C213.873,32.147,208.78,32.147,208.78,37.067z"/>
		<path fill="#D69A72" d="M202.881,36.067c4.604,0,8.35-3.055,8.35-6.81c0-5.11-4.606-5.11-7.08-5.11c-2.379,0-9.62,0-9.62,5.11
			C194.53,33.012,198.276,36.067,202.881,36.067z"/>
		<path fill="#D69A72" d="M226.751,33.747c6.798,0,7.67-4.725,7.67-8.84c0-4.269-0.929-8.22-7.67-8.22c-3.554,0-10.17,0-10.17,6.89
			C216.581,29.185,221.143,33.747,226.751,33.747z"/>
		<path fill="#D69A72" d="M261.541,20.077c3.783,0,9.58-3.23,9.58-7.21c0-3.595-3.338-6.52-7.44-6.52c-4.108,0-7.45,2.925-7.45,6.52
			C256.231,14.65,256.231,20.077,261.541,20.077z"/>
		<path fill="#D69A72" d="M276.751,27.267c0.48,0,1.128,0.075,1.816,0.16l0.206,0.024c0.734,0.086,1.494,0.176,2.228,0.176
			c1.358,0,2.369-0.315,3.074-0.948c0.71-0.617,1.086-1.483,1.086-2.502c0-3.561-5.709-8.44-8.95-8.44
			c-3.648,0-5.74,1.914-5.74,5.25C270.47,24.45,273.288,27.267,276.751,27.267z"/>
		<path fill="#D69A72" d="M250.481,43.227c0.391,0,0.803,0,1.207-0.01c0.849-0.01,1.766-0.01,2.705,0.001
			c0.368,0.004,0.734,0.009,1.095,0.009c2.255,0,4.329-0.175,5.777-1.612c1.007-0.993,1.497-2.353,1.497-4.158
			c0-2.37-0.892-7.88-9.15-7.88c-6.396,0-10.37,3.02-10.37,7.88c0,1.772,0.498,3.168,1.49,4.161
			C246.244,43.102,248.492,43.227,250.481,43.227z"/>
		<path fill="#D69A72" d="M268.764,42.529c-0.477-0.489-1.346-1.072-2.773-1.072c-3.314,0-6.01,2.696-6.01,6.01
			s2.696,6.01,6.01,6.01c1.27,0,2.223-0.344,2.91-1.047c1.076-1.094,1.053-2.529,1.03-3.917l-0.001-0.039
			c-0.009-0.21-0.008-0.429-0.008-0.657c0-0.22,0-0.439,0.01-0.705C269.953,45.534,269.978,43.744,268.764,42.529z"/>
		<path fill="#D69A72" d="M250.871,46.057c-3.843,0-6.97,3.131-6.97,6.98c0,3.838,3.127,6.96,6.97,6.96
			c0.404,0,0.817,0.018,1.36,0.04c0.497,0.021,1.003,0.04,1.5,0.04c1.522,0,3.239-0.155,4.436-1.306
			c0.755-0.722,1.154-1.712,1.154-2.865C259.32,52.376,255.062,46.057,250.871,46.057z"/>
		<path fill="#D69A72" d="M282.53,44.288c0,4.119,3.351,7.47,7.47,7.47c2.819,0,4.014-1.488,4.52-2.735
			c0.372-0.917,0.478-1.931,0.508-3.059l0.012-2.854l-0.019,0c-0.047-1.094-0.215-1.931-0.815-2.677
			c-1.061-1.285-2.805-1.285-4.207-1.285C287.39,39.147,282.53,39.147,282.53,44.288z"/>
		<path fill="#D69A72" d="M301.68,43.207c1.145,0,4.63,0,4.63-3.55c0-2.559-2.077-4.64-4.63-4.64c-2.558,0-4.64,2.082-4.64,4.64
			C297.041,43.207,300.533,43.207,301.68,43.207z"/>
		<path fill="#D69A72" d="M321.398,43.983c-1.892-1.878-4.949-1.859-7.907-1.835h-0.99c-7.73,0-7.73,6.676-7.73,8.87
			c0,6.616,4.046,7.17,8.19,7.17c5.508,0,9.99-4.481,9.99-9.99C322.95,46.418,322.427,44.999,321.398,43.983z"/>
		<path fill="#D69A72" d="M316.57,27.747c3.314,0,6.01-2.696,6.01-6.01c0-0.442,0-1.786-1.09-2.649
			c-1.116-0.896-2.381-0.616-3.445-0.381c-0.513,0.121-1.011,0.23-1.475,0.23c-0.455,0-0.933-0.104-1.525-0.243
			c-1.018-0.223-2.284-0.5-3.386,0.387c-1.1,0.87-1.1,2.214-1.1,2.656C310.56,25.051,313.257,27.747,316.57,27.747z"/>
		<path fill="#D69A72" d="M335.26,28.217c0.317,0,0.663,0.01,1.021,0.02c0.413,0.011,0.826,0.021,1.249,0.021
			c1.687,0,3.578-0.162,4.828-1.367c0.721-0.704,1.103-1.642,1.103-2.713c0-3.517-5.546-8.96-9.13-8.96
			c-3.102,0-9.14,2.28-9.14,6.46C325.191,25.925,332.338,28.217,335.26,28.217z"/>
		<path fill="#D69A72" d="M356.78,30.747c-5.381,0-9.76,3.75-9.76,8.36c0,4.615,4.378,8.37,9.76,8.37
			c5.285,0,11.54-5.708,11.54-10.53C368.32,32.833,364.438,30.747,356.78,30.747z"/>
		<path fill="#D69A72" d="M373.82,49.087c0.386,0,0.911,0.059,1.466,0.122l0.321,0.036c0.753,0.098,1.626,0.203,2.453,0.203
			c0.871,0,2.14-0.099,3.09-0.952c0.7-0.626,1.07-1.49,1.07-2.498c0-3.639-5.623-8.43-8.94-8.43c-3.647,0-5.74,1.91-5.74,5.24
			C367.541,46.27,370.358,49.087,373.82,49.087z"/>
		<path fill="#D69A72" d="M390.694,70.973c0.232,0.064,0.46,0.094,0.717,0.094c1.029,0,1.822-0.568,2.522-1.07l0.089-0.064
			c0.402-0.289,0.817-0.587,1.255-0.772c0.442-0.196,0.992-0.296,1.435-0.377c0.984-0.182,2.332-0.43,3.004-1.702
			c0.439-0.823,0.428-1.79-0.04-2.883c-0.644-1.476-1.817-2.611-3.296-3.193c-1.489-0.597-3.123-0.577-4.604,0.056
			c-1.485,0.644-2.626,1.818-3.206,3.298c-0.601,1.495-0.577,3.132,0.062,4.6C388.803,69.361,389.329,70.586,390.694,70.973z"/>
		<path fill="#D69A72" d="M376.916,63.17c-0.312,0.32-0.777,0.695-1.271,1.093l-0.105,0.085c-1.511,1.217-3.224,2.595-3.319,4.5
			c-0.037,0.937,0.323,1.803,1.041,2.502c1.343,1.312,3.623,1.587,5.298,1.587c2.446,0,5.553-0.652,6.981-2.11l0.005-0.005
			c2.544-2.621,2.635-5.453,0.25-7.77C383.316,60.637,379.332,60.69,376.916,63.17z"/>
		<path fill="#D69A72" d="M348.6,61.597c-3.585,0-10.26,0-10.26,6.351c0,5.271,4.284,9.56,9.55,9.56c5.277,0,9.57-4.288,9.57-9.56
			C357.461,61.597,352.34,61.597,348.6,61.597z"/>
		<path fill="#D69A72" d="M333.561,60.026c-1.814-0.976-3.903-1.183-5.882-0.585c-4.076,1.227-6.393,5.546-5.165,9.627
			c0.449,1.495,1.172,2.486,2.206,3.025c0.558,0.295,1.181,0.444,1.852,0.444c1.022,0,2.068-0.333,3.174-0.686l0.111-0.036
			c0.207-0.07,0.417-0.137,0.632-0.205l0.749-0.224c0.191-0.054,0.381-0.107,0.556-0.16c2.089-0.601,4.25-1.221,5.271-3.063
			l0.004-0.009c0.558-1.022,0.639-2.219,0.239-3.562C336.711,62.621,335.379,60.997,333.561,60.026z"/>
		<path fill="#D69A72" d="M295.452,79.123c0.441,0.515,0.919,1.236,1.425,2.001l0.188,0.283c1.511,2.277,3.073,4.633,5.43,4.963
			c0.148,0.015,0.297,0.026,0.446,0.026c0.896,0,1.77-0.343,2.515-0.981c1.662-1.397,2.688-4.375,2.814-8.168
			c0.048-1.359,0.048-5.958-1.977-8.363c-4.179-4.908-7.999-2.928-9.904-1.31C292.953,70.497,292.53,75.674,295.452,79.123z"/>
		<path fill="#D69A72" d="M287.41,73.767c3.648,0,5.74-1.91,5.74-5.24c0-3.463-2.817-6.279-6.28-6.279
			c-0.455,0-1.066-0.077-1.713-0.159l-0.12-0.015c-1.917-0.225-4.091-0.479-5.506,0.765c-0.701,0.625-1.071,1.485-1.071,2.489
			C278.461,68.888,284.17,73.767,287.41,73.767z"/>
		<path fill="#D69A72" d="M272.461,78.387c0.837,0,1.648-0.17,2.413-0.506c3.037-1.332,4.423-4.888,3.089-7.931
			c-0.504-1.142-1.223-1.895-2.127-2.234c-1.438-0.548-2.741,0.05-4.018,0.636c-0.202,0.096-0.414,0.192-0.604,0.279l-0.232,0.1
			c-0.155,0.066-0.307,0.131-0.416,0.182c-1.454,0.604-3.102,1.288-3.739,2.89c-0.262,0.63-0.454,1.659,0.124,2.993
			C267.918,76.977,270.081,78.387,272.461,78.387z"/>
		<path fill="#D69A72" d="M231.83,76.581c-0.506,4.503,2.644,12.124,7.355,12.66c0.248,0.023,0.508,0.036,0.756,0.036
			c1.862,0,3.69-0.77,5.154-2.173c1.571-1.521,2.578-3.635,2.837-5.949v-0.001c0.259-2.322-0.254-4.604-1.446-6.43
			c-1.28-1.949-3.164-3.156-5.312-3.398c-1.816-0.198-3.731-0.305-5.424,0.245C233.473,72.306,232.118,74.038,231.83,76.581z"/>
		<path fill="#D69A72" d="M226.021,61.597c-3.678,0-6.67,2.996-6.67,6.68c0,4.73,4.674,4.73,6.67,4.73s6.67,0,6.67-4.73
			C232.691,64.593,229.698,61.597,226.021,61.597z"/>
		<path fill="#D69A72" d="M192.744,69.33c0.512,0.118,1.07,0.178,1.657,0.178c1.799,0,3.948-0.527,6.059-1.487
			c1.838-0.85,5.025-2.696,5.709-5.531l0.001-0.005c1.021-4.294-1.636-8.616-5.916-9.635c-2.076-0.5-4.224-0.162-6.043,0.957
			c-1.829,1.112-3.107,2.872-3.602,4.964c-0.112,0.484-0.251,0.978-0.413,1.551c-0.663,2.359-1.415,5.033-0.23,7.045
			C190.548,68.356,191.504,69.034,192.744,69.33z"/>
	</g>
	<g>
		<path fill="#AD704E" d="M444.051,181.28c-0.368,4.765-2.49,8.966-5.975,11.827c-1.582,1.293-3.413,2.309-5.45,3.022
			c-0.965,0.385-1.992,0.65-3.064,0.791c-0.026,0.005-0.052,0.012-0.11,0.014c-1.153,0.204-2.355,0.307-3.57,0.307
			c-5.042,0-12.783-1.715-21.032-9.886c-8.086-8.017-15.213-12.739-20.898-15.521c1.176,0.11,2.678,0.202,4.432,0.202
			c2.759,0,6.127-0.227,9.772-0.969c8.648-1.759,20.674-6.853,28.852-21.129l0.436-0.761l-0.705,0.521
			c-0.289,0.214-29.139,21.337-48.501,17.052l-0.063-0.014l-5.103,2.492l1.962,0.542c-0.574,0.269-1.132,0.527-1.68,0.776
			l-1.597,0.732l1.723,0.327c6.748,1.301,17.623,5.66,31.111,19.034c8.337,8.258,16.18,9.992,21.29,9.992
			c4.694,0,9.107-1.498,12.427-4.218h0c4.323-3.545,6.55-9.061,6.109-15.131L444.051,181.28z"/>
		<path fill="#AD704E" d="M310.588,187.892L310.588,187.892l-0.167,0.017c-0.004,0-0.008,0.001-0.011,0.001
			c-1.02,0.102-2.041,0.196-3.061,0.281c-0.076,0.006-0.152,0.012-0.229,0.019c-1.003,0.083-2.006,0.158-3.006,0.225
			c-0.006,0-0.012,0.001-0.018,0.001c-2.075,0.137-4.141,0.238-6.189,0.304c-8.578,0.27-17.039-0.088-25.272-1.08
			c-30.766-3.81-75.259-12.244-106.298-41.374c-3.766-3.596-7.362-7.601-10.69-11.909l1.04-0.526l-1.531-0.337
			c-1.129-0.248-2.27-0.524-3.377-0.792c-4.734-1.205-11.495-5.031-16.928-8.106c-5.909-3.343-9.027-5.051-9.775-4.314
			c-0.278,0.274-0.195,0.788,0.259,1.615c2.373,4.321,14.214,10.721,24.845,13.428l0.049,0.012c1.061,0.256,2.156,0.52,3.243,0.761
			l0.213,0.529l0.025,0.043c3.377,4.389,7.032,8.469,10.865,12.128c31.117,29.204,75.687,37.656,106.506,41.472
			c3.802,0.457,7.654,0.777,11.54,0.966c-19.607,2.387-38.987,1.442-56.787-2.837c-5.491-1.346-12.847-3.454-19.961-5.492
			c-5.54-1.587-10.772-3.086-14.663-4.092l-1.233-0.319l1.092,0.655c3.981,2.386,7.816,3.652,11.525,4.877
			c2.051,0.677,4.172,1.378,6.323,2.264l0.751,0.309l-0.792,0.069l0.806,0.283c5.61,1.97,10.865,3.548,16.066,4.824
			c11.527,2.772,23.599,4.154,35.961,4.154c14.338,0,29.065-1.866,43.766-5.571c0.575-0.144,1.147-0.289,1.714-0.437
			c0.245-0.064,0.49-0.129,0.735-0.194c0.915-0.243,1.823-0.488,2.712-0.74l0.163-0.046L310.588,187.892L310.588,187.892z"/>
		<path fill="#AD704E" d="M204.209,186.816l-0.075-0.019c-16.58-0.508-32.722-9.974-35.781-11.861l-0.049-0.034l-0.028-0.04
			c-5.359-8.716-13.115-16.453-24.41-24.352c-4.745-3.171-10.001-4.917-14.799-4.917h-0.529l0.415,0.328
			c1.578,1.249,3.59,1.86,5.535,2.452c1.857,0.565,3.611,1.098,5.024,2.149c1.339,0.751,2.735,1.613,4.146,2.558
			c10.401,7.273,18.578,15.683,24.31,25.005l0.053,0.075l0.13,0.104c3.4,2.092,20.328,11.942,37.362,11.942
			c1.125,0,2.251-0.043,3.373-0.134l2.325-0.191l-2.157-0.887C207.456,188.337,205.826,187.605,204.209,186.816z"/>
		<path fill="#AD704E" d="M171.705,196.662c-0.039,0.445-0.093,0.852-0.164,1.244c-0.751,4.114-3.317,7.165-7.62,9.068
			c-3.245,1.279-6.822,1.928-10.634,1.928c-9.781,0-19.646-4.296-26.199-7.899c-17.384-9.694-34.502-29.999-39.819-47.229
			c-0.649-2.187-1.038-4.3-1.156-6.28l-0.367-0.002c-0.205,2.942,0.189,6.107,1.171,9.41c5.342,17.312,22.534,37.708,39.993,47.444
			c6.592,3.624,16.519,7.945,26.378,7.945c3.858,0,7.481-0.657,10.776-1.956c4.428-1.958,7.065-5.101,7.84-9.341
			c0.245-1.335,0.301-2.792,0.169-4.331L171.705,196.662z"/>
		<path fill="#AD704E" d="M87.877,132.992l0.137,0.154l0.137-0.154c5.909-6.642,15.945-11.211,29.828-13.58
			c1.078-0.172,2.242-0.332,3.558-0.49l0.408-0.049l-0.308-0.272c-0.482-0.425-0.621-0.687-0.783-0.991
			c-0.131-0.246-0.278-0.522-0.622-0.9c0.001-0.015,0.001-0.033-0.002-0.051c-0.028-0.181-0.214-0.155-0.284-0.145
			c-0.025,0.004-0.065,0.009-0.105,0.024c-15.809,2.709-26.517,7.345-31.833,13.783c-6.546-7.209-18.564-10.208-27.525-11.455
			l-0.075-0.01l-0.06,0.045c-1.048,0.78-1.497,1.006-2.39,1.458c-0.205,0.103-0.433,0.218-0.696,0.354l-0.559,0.289l0.627,0.058
			C67.242,121.98,80.589,124.797,87.877,132.992z"/>
		<path fill="#AD704E" d="M83.149,156.137l-0.017-0.077l-0.067-0.041c-8.065-4.931-12.582-9.66-13.426-14.053l-0.177-0.922
			l-0.184,0.921c-0.069,0.344-0.116,0.705-0.139,1.075c-0.284,5.1,4.38,10.615,13.864,16.389l1.246,0.752l-0.415-1.392
			C83.551,157.83,83.327,156.963,83.149,156.137z"/>
		<path fill="#AD704E" d="M59.985,117.598c1.513-0.363,2.645-0.846,4.843-2.065l0.451-0.25l-0.507-0.092
			c-3.369-0.61-7.219,0.349-11.294,1.365c-2.653,0.661-5.396,1.345-8.078,1.594l-1.801,0.204c-7.52,0.669-15.375-0.384-21.011-2.818
			l-0.04-0.012c-2.295-0.421-4.466-1.03-6.453-1.811l-0.624-0.245l0.411,0.529c3.777,4.86,10.817,7.308,20.98,7.308
			c2.122,0,4.381-0.107,6.774-0.32l1.801-0.203c4.997-0.462,9.415-1.721,14.091-3.053L59.985,117.598z"/>
		<path fill="#AD704E" d="M421.08,68.397c-45.89-57.24-102.92-61.89-102.92-61.89c-17.69-4.59-44.99-6.5-79.93-1.75
			c-34.94,4.76-69.89,33.2-97.24,51.15c-27.35,17.95-46.03,14.04-46.03,14.04c0,30.47,18.35,34.52,18.35,34.52
			c10.2,20.52,41.34,28.49,44.23,29.19c0.15,0.03,0.22,0.05,0.22,0.05c21.3,26.53,50.89,41.31,102.95,50.84
			c54.17,9.92,117.53-17.8,117.53-17.8c26.58,3.46,50.65-21.15,50.65-21.15c30.57,7.83,56.34-18.55,56.34-18.55
			C448.1,124.197,421.08,68.397,421.08,68.397z M312.59,20.257c0.56-0.45,1.3-0.28,2.17-0.09c0.55,0.13,1.17,0.27,1.81,0.27
			c0.64,0,1.27-0.14,1.82-0.27c0.86-0.19,1.6-0.36,2.16,0.09c0.48,0.38,0.53,1.03,0.53,1.48c0,2.49-2.02,4.51-4.51,4.51
			s-4.51-2.02-4.51-4.51C312.06,21.287,312.111,20.637,312.59,20.257z M301.681,36.517c1.73,0,3.13,1.41,3.13,3.14
			c0,2.05-1.88,2.05-3.13,2.05s-3.14,0-3.14-2.05C298.54,37.927,299.95,36.517,301.681,36.517z M263.681,7.847
			c3.27,0,5.94,2.25,5.94,5.02c0,2.94-5.04,5.71-8.08,5.71c-3.81,0-3.81-3.86-3.81-5.71C257.73,10.097,260.4,7.847,263.681,7.847z
			 M182.761,46.147c-0.37,0.99-1.11,1.51-2.13,1.51h-0.04c-0.8-0.01-1.71-0.33-2.64-0.68c-1.57-0.59-3.35-1.26-2.49-3.56
			c0.76-2.02,3.01-3.04,5.02-2.29C182.491,41.887,183.52,44.137,182.761,46.147z M204.71,62.137c-0.56,2.32-3.6,3.93-4.88,4.52
			c-1.91,0.87-3.87,1.35-5.43,1.35c-0.48,0-0.93-0.05-1.32-0.14c-0.84-0.2-1.45-0.63-1.82-1.26c-0.86-1.46-0.23-3.71,0.38-5.88
			c0.16-0.57,0.31-1.1,0.43-1.62c0.4-1.69,1.44-3.12,2.92-4.02c1.48-0.91,3.22-1.19,4.91-0.78
			C203.39,55.137,205.541,58.647,204.71,62.137z M202.881,34.567c-3.78,0-6.85-2.38-6.85-5.31c0-3.61,6.11-3.61,8.12-3.61
			c3.16,0,5.58,0.27,5.58,3.61C209.731,32.187,206.65,34.567,202.881,34.567z M215.851,42.647c-3.07,0-5.57-2.5-5.57-5.58
			c0-3.42,3.49-3.42,6.04-3.42c2.51,0,5.1,0,5.1,3.42C221.421,40.147,218.921,42.647,215.851,42.647z M226.02,71.507
			c-2.18,0-5.17,0-5.17-3.23c0-2.86,2.32-5.18,5.17-5.18c2.85,0,5.17,2.32,5.17,5.18C231.19,71.507,228.2,71.507,226.02,71.507z
			 M226.75,32.247c-4.78,0-8.67-3.89-8.67-8.67c0-5.39,5.01-5.39,8.67-5.39c5.19,0,6.17,2.36,6.17,6.72
			C232.921,29.307,231.871,32.247,226.75,32.247z M246.44,80.987c-0.22,1.97-1.07,3.76-2.39,5.04c-1.19,1.14-2.63,1.75-4.11,1.75
			c-0.2,0-0.41-0.01-0.61-0.03c-3.69-0.42-6.44-7.17-6.01-11c0.22-1.94,1.19-3.2,2.89-3.75c1.45-0.47,3.24-0.35,4.8-0.18
			c1.69,0.19,3.19,1.16,4.22,2.73C246.231,77.077,246.661,79.017,246.44,80.987z M257.13,57.687c-0.77,0.74-2.03,0.89-3.4,0.89
			c-0.49,0-0.99-0.02-1.48-0.04c-0.49-0.02-0.94-0.04-1.38-0.04c-3.02,0-5.47-2.45-5.47-5.46c0-3.02,2.45-5.48,5.47-5.48
			c3.2,0,6.95,5.52,6.95,8.35C257.82,56.647,257.59,57.247,257.13,57.687z M260.21,40.547c-1.25,1.24-3.4,1.2-5.88,1.17
			c-0.87-0.01-1.8-0.01-2.66,0c-0.41,0.01-0.81,0.01-1.19,0.01c-1.97,0-3.65-0.15-4.7-1.18c-0.7-0.7-1.04-1.71-1.04-3.09
			c0-4,3.31-6.38,8.87-6.38c6.32,0,7.65,3.47,7.65,6.38C261.26,38.837,260.921,39.847,260.21,40.547z M265.991,51.977
			c-2.49,0-4.51-2.02-4.51-4.51c0-2.49,2.02-4.51,4.51-4.51c0.73,0,1.3,0.21,1.7,0.62c0.78,0.78,0.76,2.11,0.74,3.52
			c-0.01,0.24-0.01,0.48-0.01,0.72c0,0.25,0,0.49,0.01,0.72c0.02,1.23,0.03,2.2-0.6,2.84
			C267.431,51.787,266.83,51.977,265.991,51.977z M274.27,76.507c-0.59,0.26-1.2,0.38-1.81,0.38c-1.73,0-3.39-1.01-4.14-2.7
			c-0.29-0.67-0.33-1.28-0.11-1.81c0.41-1.03,1.63-1.54,2.93-2.08c0.22-0.1,0.44-0.19,0.67-0.29c0.22-0.1,0.44-0.2,0.65-0.3
			c1.11-0.51,2-0.91,2.84-0.59c0.53,0.2,0.95,0.67,1.29,1.44C277.59,72.837,276.551,75.507,274.27,76.507z M276.75,25.767
			c-2.63,0-4.78-2.15-4.78-4.78c0-2.49,1.43-3.75,4.24-3.75c2.5,0,7.45,4.22,7.45,6.94c0,0.58-0.19,1.04-0.57,1.37
			c-0.49,0.44-1.24,0.58-2.09,0.58c-0.71,0-1.49-0.1-2.26-0.19C278.01,25.847,277.32,25.767,276.75,25.767z M287.41,72.267
			c-2.5,0-7.45-4.22-7.45-6.94c0-0.58,0.2-1.04,0.57-1.37c0.91-0.8,2.66-0.59,4.36-0.39c0.72,0.09,1.41,0.18,1.98,0.18
			c2.64,0,4.78,2.14,4.78,4.78C291.65,71.007,290.22,72.267,287.41,72.267z M293.54,44.557c0,1.55,0,2.89-0.41,3.9
			c-0.49,1.21-1.52,1.8-3.13,1.8c-3.29,0-5.97-2.68-5.97-5.97c0-3.64,3.17-3.64,5.97-3.64c1.43,0,2.48,0.05,3.05,0.74
			c0.49,0.61,0.49,1.51,0.49,3.13l-0.55,0.02L293.54,44.557z M306.77,77.197c-0.11,3.32-0.96,5.96-2.28,7.07
			c-0.49,0.42-1.01,0.63-1.55,0.63c-0.1,0-0.2-0.01-0.3-0.02c-1.64-0.23-3.02-2.33-4.36-4.35c-0.59-0.89-1.14-1.74-1.69-2.38
			c-2.38-2.81-2.04-7.04,0.77-9.43c2.66-2.26,5.21-1.89,7.79,1.14C306.48,71.437,306.861,74.687,306.77,77.197z M312.96,56.687
			c-4.53,0-6.69-0.85-6.69-5.67c0-3.65,0.74-7.37,6.23-7.37h0.99c2.78-0.02,5.4-0.04,6.85,1.4c0.75,0.74,1.11,1.77,1.11,3.15
			C321.45,52.877,317.64,56.687,312.96,56.687z M335.75,67.437c-0.72,1.3-2.5,1.81-4.38,2.35c-0.33,0.1-0.67,0.19-1.01,0.29
			c-0.34,0.11-0.67,0.21-0.99,0.32c-1.07,0.34-1.99,0.64-2.8,0.64c-0.41,0-0.79-0.08-1.15-0.27c-0.67-0.35-1.14-1.03-1.47-2.13
			c-0.99-3.29,0.87-6.77,4.16-7.76c1.59-0.48,3.27-0.32,4.74,0.47c1.46,0.78,2.54,2.09,3.02,3.68
			C336.15,65.967,336.111,66.777,335.75,67.437z M336.32,26.737c-0.37-0.01-0.73-0.02-1.06-0.02c-2.47,0-8.57-2.01-8.57-5.04
			c0-2.91,4.95-4.96,7.64-4.96c2.78,0,7.63,4.74,7.63,7.46c0,0.67-0.22,1.22-0.65,1.64c-0.83,0.8-2.29,0.94-3.78,0.94
			C337.121,26.757,336.72,26.747,336.32,26.737z M347.89,76.007c-4.44,0-8.05-3.62-8.05-8.06c0-4.85,5.06-4.85,8.76-4.85
			c3.79,0,7.36,0,7.36,4.85C355.96,72.387,352.34,76.007,347.89,76.007z M356.78,45.977c-4.55,0-8.26-3.08-8.26-6.87
			c0-3.78,3.71-6.86,8.26-6.86c6.66,0,10.04,1.58,10.04,4.7C366.82,40.917,361.19,45.977,356.78,45.977z M369.04,42.807
			c0-2.48,1.42-3.74,4.24-3.74c2.5,0,7.44,4.21,7.44,6.93c0,0.58-0.19,1.04-0.57,1.38c-0.49,0.44-1.24,0.57-2.09,0.57
			c-0.71,0-1.49-0.09-2.26-0.19c-0.73-0.08-1.42-0.17-1.98-0.17C371.181,47.587,369.04,45.447,369.04,42.807z M384.47,69.777
			c-1,1.02-3.55,1.66-5.91,1.66c-1.76,0-3.42-0.35-4.25-1.16c-0.42-0.41-0.61-0.87-0.59-1.37c0.06-1.21,1.43-2.32,2.76-3.39
			c0.57-0.46,1.11-0.89,1.51-1.3c1.84-1.89,4.87-1.93,6.76-0.09C386.53,65.857,386.431,67.757,384.47,69.777z M398.39,66.377
			c-0.33,0.63-1.08,0.77-1.95,0.93c-0.55,0.1-1.18,0.22-1.77,0.48c-0.59,0.25-1.11,0.63-1.57,0.96c-0.6,0.43-1.13,0.82-1.69,0.82
			c-0.11,0-0.21-0.01-0.32-0.04c-0.6-0.17-0.9-0.74-1.08-1.16c-0.48-1.1-0.5-2.33-0.05-3.45c0.44-1.12,1.3-2,2.41-2.48
			c1.1-0.47,2.33-0.49,3.45-0.04c1.12,0.44,2,1.3,2.48,2.4C398.48,65.217,398.681,65.837,398.39,66.377z"/>
	</g>
	<g>
		<path fill="#FFCEA6" d="M335.735,12.469c-0.007,0-0.018-0.004-0.026-0.004c-22.079-2.458-39.784,11.788-39.784,11.788
			c0.026-0.247,0.066-0.489,0.118-0.729c2.211-10.221,26.498-14.982,26.498-14.982l11.645,3.466L335.735,12.469z"/>
		<path fill="#FFCEA6" d="M305.9,123.204l-0.143,0.309c-0.063,0.132-0.121,0.265-0.177,0.401c-0.011,0.018-0.018,0.033-0.022,0.051
			c-0.066,0.14-0.125,0.28-0.18,0.423c-0.011,0.022-0.022,0.044-0.026,0.066c-0.077,0.18-0.147,0.361-0.217,0.541
			c0,0.004-0.004,0.007-0.004,0.011c-3.278-1.954-6.229-3.587-9.047-4.989c-5.861-2.903-10.799-4.662-15.527-5.537
			c-6.24-1.214-11.45-0.346-15.497,2.598c-4.794,3.484-8.021,9.919-9.621,19.129c-0.088-0.121-0.976-3.84-1.087-3.939
			c0.964-6.726,3.511-8.482,6.061-12.43c0.121-0.188,0.247-0.372,0.372-0.556c0.125-0.18,0.25-0.357,0.379-0.533
			c0.121-0.166,0.243-0.327,0.368-0.486c0.022-0.029,0.044-0.059,0.066-0.085c0.103-0.129,0.202-0.254,0.305-0.379
			c0.125-0.147,0.247-0.294,0.372-0.434c0.11-0.129,0.224-0.254,0.346-0.379c0.026-0.033,0.055-0.063,0.081-0.092
			c0.125-0.132,0.25-0.261,0.383-0.386c0.018-0.022,0.04-0.044,0.063-0.066c0.088-0.092,0.18-0.18,0.272-0.261
			c0.522-0.5,1.071-0.953,1.641-1.369c0.537-0.39,1.096-0.747,1.674-1.063c0.386-0.213,0.78-0.408,1.181-0.585
			c0.607-0.269,1.233-0.504,1.876-0.699c0.431-0.129,0.868-0.243,1.317-0.342c1.891-0.412,3.941-0.533,6.137-0.364
			c1.071,0.081,2.174,0.235,3.311,0.456c0.589,0.11,1.181,0.232,1.781,0.372c0.302,0.066,0.603,0.14,0.905,0.217
			c2.116,0.53,4.294,1.244,6.601,2.152c1.976,0.78,4.044,1.711,6.24,2.796c2.954,1.472,6.063,3.194,9.529,5.28L305.9,123.204z"/>
		<path fill="#FFCEA6" d="M344.749,133.352l-0.015,0.136c-0.07,0.666-0.121,1.291-0.151,1.899c-0.004-0.004-0.004-0.007-0.011-0.011
			c-3.727-5.254-9.04-9.544-14.956-12.098c-3.815-1.586-7.962-2.491-11.958-2.62c-5.942-0.732-8.841,4.938-10.037,8.381
			c-1.207,3.385-2.002,7.267-2.498,12.215c-0.327,3.481-0.511,7.097-0.545,10.968c-0.011-1.464,0-2.888,0.029-4.283
			c0.015-0.504,0.029-1.001,0.044-1.497c-0.004-0.018,0-0.033,0-0.048c0.018-0.497,0.037-0.993,0.059-1.483
			c0.011-0.254,0.026-0.508,0.037-0.758c0.015-0.25,0.026-0.504,0.04-0.751c0.029-0.5,0.062-0.997,0.096-1.49
			c0.066-0.986,0.147-1.961,0.239-2.925c0.497-4.949,1.291-8.83,2.498-12.212c0.121-0.353,0.265-0.732,0.423-1.122l0.143-0.342
			c0.074-0.169,0.151-0.342,0.232-0.519c0.361-0.78,0.798-1.586,1.325-2.355c0.044-0.066,0.092-0.136,0.14-0.202
			c0.191-0.276,0.397-0.548,0.622-0.809c0.044-0.059,0.096-0.118,0.147-0.173c0.339-0.397,0.714-0.769,1.115-1.107
			c0.14-0.118,0.28-0.232,0.427-0.335c0.136-0.103,0.276-0.202,0.419-0.294c0.118-0.077,0.239-0.151,0.361-0.221
			c0.063-0.037,0.125-0.07,0.191-0.107c0.121-0.066,0.25-0.129,0.379-0.188c0,0,0-0.004,0.004-0.004
			c0.129-0.059,0.261-0.118,0.394-0.169c0.07-0.026,0.136-0.052,0.206-0.077c0.89-0.32,1.884-0.478,2.988-0.408
			c0.173,0.007,0.346,0.026,0.522,0.048c0.728,0.022,1.461,0.074,2.193,0.147c0.052,0.004,0.103,0.011,0.155,0.018
			c0.475,0.048,0.953,0.11,1.428,0.18c1.77,0.265,3.539,0.673,5.269,1.214c0.99,0.313,1.961,0.666,2.914,1.063
			c0.559,0.239,1.111,0.497,1.659,0.765c2.373,1.177,4.629,2.634,6.7,4.316c0.32,0.258,0.633,0.522,0.942,0.791
			c0.467,0.405,0.92,0.821,1.361,1.247c0.151,0.143,0.294,0.287,0.441,0.43c1.45,1.446,2.774,3.01,3.944,4.669L344.749,133.352z"/>
		<path fill="#FFCEA6" d="M255.037,124.072l-0.107,0.294c-0.092,0.265-0.188,0.53-0.276,0.798c-0.088,0.265-0.177,0.533-0.258,0.802
			c0,0-0.004,0-0.004-0.004c-5.924-3.418-11.38-5.449-16.656-6.203c-11.384-1.564-19.614,4.651-24.957,11.126
			c-0.699,0.846-1.501,1.597-2.377,2.263c-0.585,0.445-1.166,0.89-1.751,1.321c0.136-0.221,0.272-0.449,0.416-0.677
			c0.143-0.224,0.287-0.456,0.438-0.688c0.239-0.372,0.489-0.743,0.747-1.122c0.151-0.217,0.302-0.438,0.456-0.655
			c0.769-1.082,1.615-2.189,2.55-3.278c0.103-0.121,0.206-0.243,0.313-0.364c0.107-0.121,0.213-0.243,0.32-0.361
			c0.107-0.121,0.217-0.243,0.327-0.361c1.004-1.1,2.101-2.174,3.282-3.179c0.136-0.118,0.272-0.232,0.412-0.346
			c0.43-0.357,0.876-0.706,1.332-1.041c0.11-0.081,0.221-0.162,0.331-0.243c0.386-0.28,0.78-0.548,1.185-0.806
			c0.129-0.088,0.261-0.173,0.394-0.254c0.147-0.092,0.294-0.184,0.445-0.272c0.151-0.092,0.302-0.18,0.453-0.265
			c1.523-0.876,3.153-1.619,4.897-2.174c0.125-0.041,0.25-0.081,0.375-0.118c0.235-0.074,0.475-0.14,0.721-0.206
			c0.331-0.088,0.666-0.169,1.008-0.246c0.18-0.04,0.364-0.077,0.548-0.114c0.184-0.037,0.368-0.07,0.556-0.103
			c0.184-0.033,0.372-0.063,0.559-0.092c0.379-0.055,0.758-0.099,1.144-0.14c1.854-0.184,3.815-0.155,5.876,0.129
			c0.504,0.074,1.012,0.158,1.52,0.25c0.85,0.162,1.704,0.353,2.561,0.578c2.064,0.541,4.165,1.273,6.317,2.204
			s4.356,2.06,6.63,3.389L255.037,124.072z"/>
		<path fill="#FFCEA6" d="M213.962,123.226l-0.18,0.18c-0.173,0.173-0.35,0.357-0.515,0.53c-0.96-2.101-1.924-3.918-2.936-5.53
			c-3.4-5.633-7.627-8.933-12.568-9.794c-6.417-1.133-15.655,2.925-27.815,10.99c0.791-0.732,1.593-1.472,2.417-2.2
			c0.206-0.184,0.412-0.364,0.618-0.545c0.21-0.18,0.419-0.361,0.629-0.541c0.419-0.357,0.846-0.71,1.277-1.06
			c1.174-0.949,2.329-1.825,3.462-2.627c0.592-0.419,1.181-0.817,1.762-1.192c0.397-0.261,0.791-0.508,1.181-0.743
			c0.276-0.173,0.552-0.339,0.824-0.493c0.158-0.096,0.316-0.188,0.475-0.276c0.283-0.158,0.563-0.313,0.839-0.46
			c5.269-2.822,10.07-3.871,14.331-3.12c3.241,0.563,6.174,2.178,8.771,4.82c1.361,1.376,2.627,3.039,3.797,4.978
			c0.151,0.243,0.302,0.486,0.453,0.74c0.699,1.174,1.383,2.458,2.06,3.874c0.195,0.405,0.39,0.824,0.585,1.251
			c0.144,0.32,0.291,0.648,0.434,0.982L213.962,123.226z"/>
		<path fill="#FFCEA6" d="M189.395,104.098l-0.43,0.129c-0.118,0.033-0.239,0.066-0.357,0.107c-0.074,0.022-0.147,0.048-0.217,0.074
			c0,0,0-0.004-0.004-0.004c-0.835-1.549-1.74-2.995-2.701-4.338c-2.531-3.595-7.8-9.404-14.599-7.918
			c-2.498,0.552-5.166,2.02-7.513,3.3l-0.802,0.441c-6.063,3.389-19.474,13.098-21.049,13.79c-0.239,0.107-0.478,0.191-0.721,0.287
			c-0.004,0-0.007,0.004-0.011,0.004c0.401-0.361,0.802-0.721,1.196-1.078c0.202-0.184,0.408-0.368,0.611-0.552
			c1.023-0.924,2.075-1.862,3.15-2.767c0.43-0.361,0.868-0.717,1.306-1.067c0.125-0.103,0.254-0.206,0.383-0.313
			c0.258-0.206,0.519-0.419,0.787-0.637c0.195-0.155,0.39-0.309,0.589-0.471c0.155-0.121,0.309-0.243,0.467-0.368
			c0.121-0.099,0.247-0.195,0.375-0.294c0.221-0.177,0.445-0.353,0.673-0.53c0.147-0.114,0.294-0.228,0.442-0.342
			c0.298-0.228,0.6-0.46,0.905-0.692c0.305-0.232,0.618-0.467,0.931-0.699c1.608-1.196,3.326-2.414,5.129-3.595
			c1.556-1.019,3.172-2.013,4.838-2.943l0.802-0.438c0.147-0.081,0.294-0.162,0.445-0.243c1.192-0.651,2.458-1.332,3.734-1.902
			c0.272-0.121,0.545-0.239,0.821-0.346c0.843-0.346,1.689-0.626,2.513-0.809c4.721-1.034,8.702,1.45,11.542,4.264
			c0.228,0.224,0.449,0.453,0.662,0.684c0.957,1.027,1.762,2.064,2.395,2.965c0.478,0.67,0.942,1.365,1.394,2.086
			c0.298,0.482,0.592,0.975,0.879,1.479c0.427,0.754,0.839,1.534,1.236,2.333L189.395,104.098z"/>
		<path fill="#FFCEA6" d="M165.969,88.703h-0.004l-0.394,0.191h-0.004c-0.151,0.074-0.305,0.147-0.456,0.224
			c-0.121,0.059-0.239,0.121-0.361,0.184c0-0.004-0.004-0.004-0.004-0.007c-12.598-17.48-34.817,3.425-40.193,5.066
			c0.405-0.346,0.813-0.692,1.222-1.041c0.114-0.096,0.232-0.195,0.346-0.294c0.511-0.442,1.027-0.887,1.553-1.328
			c0.272-0.228,0.548-0.456,0.828-0.681c0.158-0.132,0.32-0.261,0.482-0.386c0.283-0.224,0.57-0.449,0.861-0.666
			c0.188-0.14,0.375-0.28,0.567-0.416c1.553-1.166,3.069-2.222,4.544-3.168c0.247-0.158,0.489-0.313,0.736-0.464
			c0.729-0.456,1.45-0.883,2.163-1.284c0.475-0.269,0.942-0.522,1.409-0.765c0.464-0.243,0.927-0.475,1.383-0.692
			c0.228-0.11,0.456-0.217,0.681-0.32c0.677-0.309,1.347-0.592,2.005-0.846c0.438-0.173,0.872-0.331,1.302-0.475
			c0.861-0.294,1.704-0.537,2.528-0.729c4.294-1.015,8.098-0.71,11.406,0.916c0.272,0.132,0.541,0.272,0.806,0.427
			c0.397,0.224,0.787,0.471,1.166,0.74c0.383,0.265,0.754,0.552,1.122,0.861c1.1,0.916,2.13,2.02,3.094,3.3
			c0.114,0.125,0.235,0.269,0.353,0.427c0.121,0.154,0.243,0.327,0.364,0.504c0.04,0.059,0.081,0.118,0.121,0.177
			c0.04,0.063,0.081,0.121,0.121,0.184l0.151,0.213L165.969,88.703z"/>
		<path fill="#FFCEA6" d="M382.881,115.077l-0.121,0.412v0.004c-0.081,0.287-0.155,0.578-0.224,0.872
			c-0.07,0.294-0.136,0.592-0.199,0.894c-4.721-0.677-11.715-1.402-18.389-0.029c-9.57,1.865-15.104,8.15-16.45,18.669l-0.015,0.136
			v0.007l-0.007,0.063c-0.143,1.218-0.243,2.491-0.272,3.808c-0.004-0.077-0.004-0.158-0.004-0.236
			c-0.007-0.269-0.011-0.533-0.011-0.798c0-0.901,0.022-1.784,0.074-2.642c0.026-0.408,0.055-0.809,0.088-1.203
			c0.015-0.202,0.037-0.405,0.059-0.607c0.018-0.199,0.044-0.394,0.066-0.589l0.007-0.063v-0.007l0.015-0.136
			c0.758-5.916,2.84-10.493,6.218-13.698c0.004-0.004,0.004,0,0.004,0c2.064-1.961,4.614-3.407,7.642-4.331
			c0.828-0.25,1.689-0.464,2.587-0.64c0.206-0.04,0.408-0.081,0.614-0.121c0.316-0.055,0.633-0.11,0.949-0.162
			c0.173-0.026,0.346-0.052,0.522-0.077c0.519-0.074,1.041-0.136,1.564-0.191c0,0,0,0,0.004,0c0.346-0.033,0.692-0.066,1.038-0.092
			c2.951-0.224,5.843-0.14,8.455,0.074c0.438,0.037,0.868,0.074,1.291,0.118c0,0,0,0,0.004,0c1.475,0.143,2.848,0.324,4.062,0.5
			l0.427,0.066H382.881z"/>
		<path fill="#FFCEA6" d="M408.909,106.066c-0.232,0.059-1.015-0.118-1.015-0.118c-5.927,0.103-10.423,0.979-14.128,2.771
			c-6.693,3.12-8.86,9.401-9.088,15.747c-0.118-3.72,0.331-7.546,1.873-10.847c0.478-1.019,1.06-1.991,1.762-2.892
			c0,0,0,0,0.004-0.004c0.316-0.408,0.662-0.802,1.03-1.181c0,0,0.004,0,0.004-0.004c0.074-0.074,0.147-0.151,0.224-0.224
			c1.144-1.119,2.528-2.086,4.191-2.862c2.314-1.118,4.941-1.88,8.028-2.318c0.464-0.066,0.938-0.125,1.424-0.177
			c0.648-0.07,1.31-0.125,1.998-0.169c0.173-0.011,0.346-0.022,0.522-0.029c0.346-0.018,0.699-0.033,1.06-0.048
			c0.357-0.015,0.725-0.022,1.096-0.029l0.294-0.007l0.077,0.287c0.103,0.383,0.217,0.765,0.335,1.148
			c0.059,0.191,0.121,0.383,0.184,0.574C408.824,105.812,408.865,105.937,408.909,106.066z"/>
		<path fill="#FFCEA6" d="M482.314,127.877l-0.614,0.567c-0.258,0.235-0.515,0.471-0.78,0.703c-0.07,0.063-0.14,0.125-0.21,0.184
			c-0.21,0.184-0.423,0.368-0.64,0.548c-20.159-2.741-34.718-19.644-41.69-29.626c-1.781-2.517-3.525-5.166-5.324-8.094
			l-0.088-0.155l-0.177-0.022c-4.996-0.791-10.777-1.523-16.001-0.28c-2.877,0.717-4.842,2.222-5.832,4.456
			c-0.397,0.909-0.626,1.899-0.725,2.954c-0.129-1.715,0.015-3.33,0.537-4.754c0.059-0.158,0.121-0.313,0.188-0.464
			c0.372-0.839,0.879-1.575,1.52-2.204c0.324-0.313,0.677-0.603,1.063-0.865c0.261-0.173,0.533-0.335,0.82-0.486
			c0.287-0.151,0.589-0.287,0.905-0.416c0.475-0.188,0.982-0.35,1.523-0.486c1.012-0.243,2.049-0.412,3.094-0.515
			c2.487-0.258,5.041-0.169,7.524,0.074c0.408,0.041,0.82,0.085,1.225,0.132c0.206,0.026,0.408,0.048,0.611,0.074
			c0.405,0.052,0.806,0.107,1.203,0.162c0.199,0.029,0.397,0.055,0.596,0.085c0.394,0.059,0.784,0.118,1.17,0.177
			c0.195,0.033,0.386,0.063,0.578,0.092l0.155,0.018l0.018,0.004h0.004l0.085,0.147l0.004,0.004
			c1.799,2.929,3.543,5.581,5.324,8.094c2.675,3.83,6.464,8.679,11.262,13.359c0.798,0.776,1.626,1.553,2.484,2.318
			c1.924,1.718,3.985,3.389,6.181,4.941c0.732,0.515,1.475,1.023,2.237,1.512c0.762,0.489,1.538,0.964,2.325,1.424
			c0.53,0.302,1.06,0.6,1.6,0.89c5.122,2.741,10.81,4.724,17.013,5.357L482.314,127.877z"/>
		<path fill="#FFCEA6" d="M143.805,80.223c0,0,0.14-0.541,0.121-1.446c-0.026-2.002-0.802-5.791-5.464-9.459
			c-6.593-5.184-18.246-0.986-18.246-0.986l1.906-1.03l6.476-3.492c14.96-1.972,18.658,15.207,18.658,15.207L143.805,80.223z"/>
		<path fill="#FFCEA6" d="M413.589,60.914l-0.011-0.004l-2.414-0.449l-0.136-0.015c-23.669-3.628-38.463-1.299-42.768,6.718
			c-0.857,1.597-1.31,3.37-1.428,5.258c-0.026-0.397-0.037-0.791-0.037-1.177c0-0.611,0.029-1.21,0.096-1.795
			c0.04-0.357,0.092-0.71,0.158-1.056c0.007-0.051,0.015-0.103,0.029-0.155c0.099-0.508,0.228-1.004,0.39-1.49
			c0.085-0.254,0.177-0.504,0.276-0.754c0.151-0.372,0.324-0.736,0.515-1.093c0.511-0.957,1.174-1.832,1.983-2.623
			c0.074-0.074,0.147-0.147,0.224-0.217c0.762-0.706,1.641-1.35,2.638-1.924c0.199-0.114,0.405-0.224,0.611-0.335
			c0.659-0.342,1.361-0.659,2.112-0.946c0.202-0.081,0.412-0.158,0.625-0.235c0.368-0.129,0.751-0.254,1.141-0.375
			c0.357-0.107,0.721-0.21,1.096-0.309c0.07-0.018,0.143-0.037,0.213-0.055c0.206-0.055,0.419-0.107,0.633-0.155
			c0.066-0.015,0.132-0.033,0.199-0.048c1.085-0.247,2.237-0.456,3.459-0.626c0.048-0.007,0.096-0.015,0.143-0.022
			c1.398-0.188,2.888-0.324,4.459-0.412c0.04,0,0.081-0.004,0.118-0.007c6.354-0.331,14.088,0.184,23.113,1.567l0.136,0.015
			l0.088,0.099c0.397,0.434,0.791,0.868,1.177,1.306c0.269,0.298,0.533,0.596,0.791,0.898
			C413.346,60.638,413.467,60.774,413.589,60.914z"/>
		<path fill="#FFCEA6" d="M366.266,63.835L366.1,64.17c-0.25,0.497-0.46,1.004-0.644,1.523l-0.004-0.004
			c-19.441-9.555-33.934-10.88-43.073-3.907c-9.055,6.902-12.33,23.556-11.686,19.167c0.327-2.237,0.382-4.213,0.96-6.34
			c0.103-0.383,0.628-2.191,0.742-2.57c1.538-5.155,4.715-7.7,8.306-11.096c0.265-0.25,0.537-0.497,0.817-0.732
			c0.28-0.239,0.567-0.471,0.861-0.695c0.843-0.64,1.729-1.214,2.66-1.715c0.265-0.14,0.533-0.28,0.806-0.408
			c0,0,0-0.004,0.004-0.004c5.214-2.509,11.759-2.936,19.589-1.288c1.77,0.368,3.602,0.846,5.501,1.431
			c0.515,0.158,1.034,0.324,1.56,0.5c0.18,0.059,0.364,0.118,0.548,0.184c0.865,0.291,1.744,0.607,2.634,0.942
			c3.249,1.225,6.663,2.726,10.247,4.503L366.266,63.835z"/>
		<path fill="#FFCEA6" d="M313.589,66.904l-0.143,0.294c-0.121,0.247-0.243,0.497-0.357,0.747c-0.118,0.25-0.232,0.5-0.342,0.758
			c-0.07,0.169-0.144,0.338-0.213,0.511c0,0-0.004,0-0.004-0.004c-16.255-10.692-29.467-13.356-39.284-7.929
			c-6.615,3.665-11.759,10.997-15.302,21.796c0,0-1.759,4.64-2.296,5.519l-0.004,0.004c-0.394,0.637-0.132-0.747,1.954-7.454
			l0.052-0.173h0.004l0.493-0.199h0.004l-0.243-0.581l0.037-0.136c0.11-0.335,0.221-0.67,0.339-0.997
			c0.11-0.335,0.228-0.662,0.346-0.986c0.232-0.648,0.471-1.28,0.721-1.902c0,0,0,0,0-0.004c0.246-0.618,0.497-1.225,0.758-1.818
			c0,0-0.004,0,0-0.004c0.258-0.592,0.522-1.17,0.795-1.733c0.132-0.283,0.269-0.563,0.408-0.843
			c0.276-0.552,0.559-1.089,0.85-1.612v-0.004c0.291-0.522,0.585-1.034,0.887-1.531c0.151-0.247,0.302-0.493,0.456-0.736
			c0.46-0.725,0.935-1.417,1.424-2.079c0.324-0.441,0.655-0.868,0.993-1.28c0.673-0.828,1.372-1.597,2.097-2.311
			c0.541-0.537,1.096-1.041,1.663-1.512c1.137-0.942,2.325-1.759,3.565-2.447c0.618-0.342,1.251-0.651,1.895-0.931
			c0.644-0.276,1.299-0.522,1.972-0.732c3.836-1.223,8.109-1.396,12.801-0.524c1.563,0.29,3.172,0.697,4.827,1.219
			c2.439,0.765,4.978,1.784,7.612,3.058c0.526,0.254,1.056,0.519,1.589,0.795c0.221,0.11,0.442,0.224,0.662,0.342
			c0.419,0.221,0.843,0.445,1.269,0.684c0.442,0.235,0.887,0.486,1.336,0.743c0.662,0.379,1.328,0.773,2.002,1.177
			c0.004,0,0.004,0.004,0.004,0.004c1.347,0.813,2.712,1.685,4.102,2.616l0.103,0.074L313.589,66.904z"/>
		<path fill="#FFCEA6" d="M255.46,80.223l-0.022,0.077l-0.015,0.059c-0.28,0.894-0.552,1.799-0.795,2.697
			c0-0.004-0.004-0.007-0.004-0.011c-6.336-14.824-13.801-22.981-22.778-23.684c-14.419-1.13-34.243,22.929-35.266,23.536
			c0.191-0.261,0.386-0.526,0.578-0.791c0.206-0.276,0.416-0.556,0.625-0.835c0.21-0.28,0.423-0.559,0.637-0.843
			c0.364-0.475,0.732-0.949,1.107-1.428c0.445-0.567,0.898-1.133,1.358-1.7c0.155-0.188,0.309-0.379,0.464-0.567
			c0.309-0.375,0.625-0.754,0.942-1.133c0.32-0.375,0.64-0.751,0.968-1.126c0.162-0.188,0.324-0.375,0.489-0.563
			c0.166-0.188,0.331-0.372,0.497-0.559c0.331-0.372,0.666-0.739,1.004-1.107c0.169-0.184,0.338-0.368,0.511-0.552
			c0.342-0.364,0.684-0.729,1.034-1.089c0.346-0.357,0.699-0.714,1.052-1.071c0.14-0.14,0.283-0.283,0.427-0.427
			c0.43-0.419,0.865-0.839,1.306-1.255c0.14-0.129,0.28-0.261,0.419-0.39c0.18-0.169,0.364-0.335,0.548-0.5
			c2.929-2.656,6.016-5,9.184-6.759c0.18-0.103,0.361-0.202,0.541-0.298c0.018-0.007,0.037-0.018,0.052-0.026
			c0.199-0.107,0.397-0.21,0.6-0.309c0.081-0.044,0.166-0.085,0.25-0.125c0.147-0.077,0.298-0.147,0.449-0.221
			c0.754-0.357,1.508-0.681,2.27-0.964c0.114-0.044,0.232-0.085,0.346-0.129c0.118-0.041,0.239-0.081,0.361-0.125
			c0.136-0.044,0.272-0.092,0.408-0.132c1.015-0.327,2.035-0.581,3.057-0.758c0.088-0.015,0.177-0.029,0.269-0.044
			c0.14-0.022,0.28-0.044,0.419-0.063c0.21-0.026,0.419-0.052,0.633-0.074c0.074-0.007,0.147-0.015,0.217-0.022
			c0.125-0.011,0.247-0.022,0.372-0.029c0.026,0,0.052-0.004,0.077-0.007c0.169-0.007,0.339-0.018,0.504-0.022
			c0.574-0.022,1.148-0.015,1.722,0.018c2.112,0.125,4.154,0.651,6.13,1.575c0.261,0.121,0.526,0.25,0.784,0.39
			c0.132,0.066,0.261,0.136,0.39,0.21c0.651,0.361,1.291,0.765,1.924,1.214c0.254,0.18,0.504,0.364,0.754,0.559
			c0.125,0.096,0.25,0.195,0.375,0.294c0.375,0.302,0.747,0.618,1.115,0.949c4.294,3.874,8.194,9.897,11.66,18.029L255.46,80.223z"
			/>
		<path fill="#FFCEA6" d="M216.324,59.655v0.004l-0.269,0.173c-0.269,0.173-0.534,0.353-0.798,0.537
			c-0.265,0.18-0.873,0.505-1.134,0.693c-0.184-0.188-0.36-0.553-0.36-0.553c-2.807-6.207-6.891-9.872-12.164-10.88
			c-7.59-1.457-16.847,2.561-25.376,8.065c0.25-0.169,0.497-0.339,0.747-0.508c0.048-0.029,0.092-0.063,0.14-0.096
			c1.166-0.776,2.344-1.534,3.536-2.255c0.044-0.026,0.085-0.048,0.125-0.074c0.515-0.309,1.027-0.614,1.542-0.909
			c0.258-0.147,0.519-0.294,0.776-0.438c0.258-0.143,0.515-0.283,0.776-0.423c0.258-0.14,0.515-0.28,0.776-0.416
			c0.519-0.272,1.038-0.534,1.556-0.787c0.519-0.254,1.038-0.497,1.556-0.732c0.188-0.085,0.375-0.166,0.563-0.25
			c0.453-0.195,0.905-0.386,1.354-0.567c0.302-0.121,0.603-0.239,0.901-0.35c0.096-0.037,0.191-0.074,0.283-0.107
			c0.206-0.077,0.408-0.151,0.614-0.221c0.063-0.022,0.121-0.04,0.18-0.063c0.239-0.081,0.475-0.162,0.714-0.239
			c0.32-0.103,0.644-0.202,0.96-0.298c0.191-0.055,0.383-0.11,0.574-0.162c0.82-0.224,1.63-0.412,2.432-0.563
			c0.202-0.04,0.405-0.074,0.603-0.107c0.478-0.081,0.949-0.143,1.42-0.191c0.221-0.022,0.442-0.044,0.662-0.059
			c0.092-0.011,0.184-0.015,0.276-0.018c0.155-0.011,0.305-0.018,0.456-0.026c0.096-0.004,0.191-0.007,0.283-0.011
			c0.184-0.004,0.364-0.007,0.545-0.007c1.126,0,2.222,0.096,3.289,0.302c4.702,0.898,8.466,3.907,11.214,8.955
			c0.199,0.361,0.39,0.732,0.574,1.115c0.188,0.379,0.368,0.773,0.545,1.174l0.088,0.202L216.324,59.655z"/>
		<path fill="#FFCEA6" d="M194.34,46.344l-0.482,0.121c-0.291,0.077-0.581,0.155-0.872,0.239c-0.445,0.121-0.898,0.258-1.35,0.405
			c-2.34-3.896-5.383-6.479-9.062-7.697c-5.604-1.851-11.402-0.21-14.581,1.056c0.618-0.445,1.222-0.883,1.81-1.313l0.077-0.044
			c0.199-0.081,0.412-0.166,0.633-0.254c0.151-0.059,0.302-0.114,0.464-0.173c0.177-0.066,0.364-0.132,0.556-0.199
			c0.125-0.044,0.258-0.088,0.39-0.129c0.052-0.018,0.099-0.033,0.151-0.051c0.121-0.037,0.247-0.077,0.372-0.118
			c0.055-0.015,0.114-0.033,0.169-0.052c0.132-0.037,0.269-0.077,0.405-0.118c0.53-0.147,1.089-0.291,1.674-0.416
			c0.169-0.037,0.339-0.07,0.511-0.107c1.619-0.313,3.403-0.493,5.247-0.397c0.221,0.011,0.442,0.026,0.662,0.048
			c0.004,0,0.004,0,0.004,0c0.335,0.029,0.673,0.07,1.008,0.118c0.004,0,0.004,0,0.004,0c0.224,0.033,0.449,0.074,0.673,0.114
			c0.004,0,0.004,0,0.004,0c0.681,0.129,1.358,0.302,2.035,0.526c0.118,0.04,0.235,0.081,0.353,0.121
			c0.199,0.07,0.397,0.147,0.592,0.224c0.298,0.121,0.592,0.254,0.883,0.397c0.188,0.088,0.372,0.184,0.552,0.28
			c0.11,0.059,0.217,0.121,0.324,0.18c0.217,0.125,0.427,0.254,0.637,0.386c0.316,0.202,0.625,0.416,0.927,0.64
			c0.603,0.453,1.185,0.953,1.737,1.505c0.184,0.184,0.364,0.372,0.548,0.567c0,0-0.004,0,0,0.004c0.177,0.195,0.353,0.394,0.53,0.6
			c0.085,0.103,0.173,0.206,0.258,0.313c0.169,0.21,0.339,0.427,0.504,0.648c0.081,0.11,0.162,0.224,0.247,0.338
			c0.162,0.228,0.32,0.46,0.478,0.699c0.232,0.357,0.464,0.725,0.684,1.107L194.34,46.344z"/>
		<path fill="#FFCEA6" d="M373.153,28.407h-0.004c-25.295-4.224-35.093,15.817-35.093,15.817c0.471-2.134,1.104-4.044,1.865-5.754
			c7.848-17.69,29.412-13.963,29.412-13.963L373.153,28.407z"/>
		<path fill="#FFCEA6" d="M244.535,29.488c0,0-0.567-2.109,0.666-2.51c6.025-1.961,25.359-5.743,30.248,11.625
			c5.889,20.921-7.154,19.862-1.885,17.305C273.564,55.908,279.74,19.433,244.535,29.488z"/>
		<path fill="#FFCEA6" d="M232.126,41.369c0.004-0.004,0.007-0.007,0.007-0.011C256.185,14.466,225.5,9.996,225.5,9.996l0.092-0.416
			l0.427-1.895c0,0,13.632-1.317,18.036,9.842C248.396,28.529,232.564,41.027,232.126,41.369z"/>
		<path fill="#FFCEA6" d="M343.447,53.434l-3.871,0.147c-0.147-0.21-0.298-0.419-0.449-0.625
			c-24.556-34.063-58.593-14.872-61.694-13.021c-0.151,0.092-0.228,0.14-0.228,0.14l-1.196-3.109c0,0,9.592-6.494,30.236-7.668
			C326.89,28.124,343.447,53.434,343.447,53.434z"/>
		<path fill="#FFCEA6" d="M295.506,28.852l-3.815,0.405c-0.011-0.07-0.022-0.136-0.033-0.206
			c-2.925-18.058-22.775-23.996-27.882-25.236c-0.762-0.184-1.196-0.265-1.196-0.265l5.442-1.141
			C290.767,2.744,295.506,28.852,295.506,28.852z"/>
	</g>
	<g>
		<circle fill="#FFFFFF" cx="41.902" cy="92.184" r="6.109"/>
		<path fill="#FFFFFF" d="M98.225,92.051c-13.753-2.409-25.791-10.83-38.773-15.059c-9.75-3.353-20.157-3.723-29.854-0.332
			c-6.132,2.22-20.874,8.398-24.084,13.79c-0.929,1.994-1.08,3.912-0.672,5.717c0.144-0.634,0.37-1.284,0.672-1.941
			c3.21-5.392,17.951-11.57,24.084-13.79c9.697-3.391,20.104-3.021,29.854,0.332c12.956,4.221,27.222,12.687,40.94,15.115
			C101.928,96.24,98.882,93.241,98.225,92.051z"/>
		<path fill="#FFFFFF" d="M438.947,195.515c-0.015,0.008-0.023,0.023-0.038,0.03c4.531-5.528,6.321-15.097-1.571-27.014
			c-5.808-8.73-9.274-15.973-10.49-18.684l-0.151-0.325c0.619-0.665,1.208-1.329,1.775-2.024l0.385-0.468l0.257,0.551
			c1.216,2.711,4.682,9.954,10.49,18.684C448.697,179.988,444.936,190.599,438.947,195.515z"/>
		<path fill="#FFFFFF" d="M91.541,139.267c-3.618,5.354-4.358,11.774-2.182,19.092c4.743,15.361,18.835,33.154,34.143,43.734
			c-16.169-10.331-31.432-29.121-36.409-45.245c-2.175-7.318-1.435-13.737,2.182-19.092c8.187-12.114,28.283-15.218,36.545-15.995
			l0.038,0.378C117.596,122.916,99.728,127.153,91.541,139.267z"/>
		<path fill="#FFFFFF" d="M96.092,71.979c0,0,11.986,8.163,48.947-13.846s44.521-35.845,85.327-47.221
			c29.005-8.086,62.199-4.775,75.536-2.372c21.799,3.929,47.127,9.577,72.185,26.295c15.174,10.123,32.373,19.96,54.962,59.837
			c7.615,13.442,28.82,35.551,48.433,33.115c0,0-30.804-6.855-44.56-35.116s-50.132-62.064-60.294-64.483
			c0,0-64.806-35.981-126.054-24.639c0,0-30.986-1.04-77.296,31.286C173.277,34.836,116.57,74.962,96.092,71.979z"/>
	</g>
	<path fill="#1E1B1B" d="M48.494,88.411c-0.68-1.231-1.684-2.266-2.945-2.976c-1.798-1.02-3.889-1.276-5.891-0.725
		c-1.994,0.551-3.655,1.85-4.675,3.648c-0.793,1.397-1.125,2.976-0.974,4.539C33.239,94.331,32,94.875,32,94.875
		c1.133-0.113,2.047,0.204,2.704,0.582c0.68,1.458,1.782,2.666,3.202,3.474c1.178,0.672,2.485,1.012,3.814,1.012
		c0.687,0,1.39-0.098,2.077-0.287c1.994-0.551,3.655-1.85,4.675-3.648c0.665-1.163,0.997-2.447,1.012-3.746
		c1.156-1.888,3.059-2.674,3.059-2.674C50.926,89.687,49.514,89.06,48.494,88.411z M46.508,94.89
		c-0.725,1.276-1.903,2.19-3.315,2.583c-1.178,0.325-2.402,0.249-3.512-0.204c1.684,0.174,3.391-0.642,4.274-2.213
		c0.068-0.121,0.136-0.242,0.189-0.37c-0.68,0.196-1.442,0.128-2.107-0.249c-1.314-0.748-1.782-2.417-1.035-3.738
		c0.393-0.695,1.05-1.156,1.782-1.322c-0.151-0.113-0.317-0.219-0.483-0.317c-1.964-1.118-4.418-0.551-5.717,1.223
		c0.098-0.272,0.219-0.544,0.37-0.808c0.718-1.276,1.896-2.19,3.308-2.583c0.491-0.136,0.982-0.204,1.473-0.204
		c0.936,0,1.865,0.242,2.696,0.717c1.276,0.725,2.198,1.903,2.59,3.315C47.406,92.134,47.225,93.614,46.508,94.89z M415.981,86.266
		c-8.156,2.069-9.848,8.058-8.776,14.666c-2.031-0.053-4.086,0-6.147,0.234c-6.684,0.733-11.419,3.119-14.568,6.601
		c-5.422-6.314-24.65-30.118-17.899-42.685c3.995-7.441,17.255-9.863,38.53-7.077l-3.345-3.441
		c-18.729-2.004-30.92,0.304-36.356,6.893c-8.511-4.252-16.162-6.993-22.928-8.217l0.076-0.045c-2.047-3.308-4.222-6.291-6.51-8.972
		c4.478-15.484,16.769-18.225,24.838-18.242l-5.264-2.529c-8.058,1.2-17.562,5.478-21.922,18.173
		c-6.774-7.054-14.508-11.547-23.117-13.405c-5.581-1.208-10.943-1.186-15.807-0.521c-0.242-1.201-0.529-2.349-0.861-3.444
		c2.144-2.599,9.953-11.066,22.318-13.318l-6.62-1.334c-8.313,3.017-14.062,8.341-16.839,11.382
		c-2.96-7.247-7.781-11.937-12.862-14.966L274.684,5.8c7.671,2.773,16.316,8.903,19.111,22.397
		c-8.353,1.646-14.84,4.984-17.687,6.638c-1.518-3.391-3.633-6.102-6.344-8.073c-8.141-5.921-19.054-3.512-23.359-2.198
		c0.294-1.707,0.287-3.353-0.023-4.932c-0.984-5.011-4.782-8.371-8.578-10.536l-4.688,1.085c4.006,1.658,9.277,4.794,10.297,10.04
		c1.148,5.853-2.742,16.366-27.369,33.358c-2.998-4.433-6.903-7.137-11.683-8.051c-2.394-0.461-4.909-0.446-7.492-0.06
		c-2.741-5.135-6.51-8.534-11.23-10.09c-1.74-0.569-3.481-0.848-5.164-0.927l-4.686,3.328c2.7-0.463,5.855-0.536,8.928,0.476
		c3.7,1.223,6.736,3.867,9.047,7.847c-19.688,5.015-41.831,28.834-42.934,30.027l-0.974,0.941c-0.357,0.035-0.715,0.079-1.073,0.131
		c-0.978-8.128-6.53-12.357-12.228-14.305l-5.24,2.633c4.881,0.714,12.857,3.295,13.759,12.488
		c-5.868,1.722-11.653,5.347-16.418,9.327c-3.867,3.346-8.066,6.465-9.954,11.457c4.682-2.281,7.824-6.004,11.925-8.942
		c10.014-7.514,24.484-15.021,33.826-2.583c0.317,0.347,0.634,0.808,0.952,1.276c-2.183,1.035-4.252,2.281-6.351,3.527
		c-4.841,2.991-9.402,6.495-13.677,10.226c-4.765,4.358-9.924,8.458-12.793,14.576c5.77-3.361,9.916-8.119,14.9-12.083
		c4.886-3.972,9.969-7.771,15.467-10.845c2.53-1.375,5.483-3.096,8.217-3.701c5.966-1.306,10.928,3.111,14.206,7.764
		c1.299,1.813,2.477,3.814,3.482,5.845c-5.4,1.578-10.815,4.969-15.716,9.327c-4.486,3.972-8.896,8.209-11.268,13.851
		c4.848-3.504,8.655-7.786,13.246-11.487c11.751-9.508,25.519-14.734,34.883,0.785c1.344,2.137,2.485,4.441,3.512,6.804
		c-2.968,2.976-5.679,6.676-8.066,11.124c-3.059,5.83-5.989,12.061-5.762,18.79c3.368-5.641,5.302-11.623,8.587-17.204
		c6.246-10.951,16.124-19.809,29.408-17.989c5.891,0.846,11.585,3.27,16.894,6.374c-2.266,6.253-2.862,13.005-3.482,19.636
		c-0.393,4.539-0.657,9.085-0.823,13.632c-0.189,4.539-0.136,9.123,1.261,13.639c1.307-4.524,1.601-8.995,1.812-13.496
		c0.393-6.737,1.005-13.458,1.941-20.134c1.797-14.832,7.824-28.328,25.194-24.93c5.377,0.997,10.475,3.051,15.437,5.506
		c3.232,1.609,6.389,3.391,9.5,5.264c-2.205,4.781-2.998,10.732-3.474,15.338c-0.755,8.677-0.348,17.347,0.423,25.987
		c0.363,4.29,0.853,8.617,2.945,12.657c0.876-4.448,0.468-8.655,0.128-12.906c-0.574-8.451-0.74-16.992,0.06-25.406
		c0.415-4.169,1.118-8.322,2.477-12.121c1.533-4.426,4.531-8.768,9.637-8.134c4.01,0.128,8.149,1.05,11.857,2.59
		c5.891,2.538,11.185,6.835,14.885,12.091c-0.098,0.952-0.174,1.918-0.212,2.938c-0.234,7.258,1.186,14.379,3.149,21.29
		c1.027,3.451,2.432,6.805,4.833,9.576c-0.438-7.046-3.195-13.564-3.965-20.527c-0.612-4.297-0.816-8.723-0.31-12.846
		c0.008-0.008,0.106-0.06,0.106-0.06c-0.023-0.045-0.053-0.098-0.083-0.144c1.125-8.813,5.505-16.267,16.147-18.344
		c5.989-1.231,12.272-0.831,18.374,0.053c-1.669,5.936-1.057,13.088,1.095,20.232c1.654,5.543,3.587,11.139,7.718,15.406
		c-0.974-5.619-3.232-10.807-4.584-16.252c-2.492-9.674-3.308-23.034,7.295-27.981c4.267-2.054,9.183-2.651,13.979-2.734
		c1.533,5.596,4.577,11.268,7.016,15.112c3.232,5.128,6.412,10.339,11.494,13.896c-2.205-5.687-5.793-10.309-8.708-15.535
		c-3.882-7.212-13.443-24.59-0.823-27.724c4.236-1.013,8.837-0.709,13.294-0.099l-2.197-3.643
		C423.99,85.492,419.938,85.356,415.981,86.266z M311.981,31.173c11.147,2.417,20.784,9.659,28.668,21.524
		c-8.043-0.808-14.689,0.77-19.877,4.728c-2.5,1.903-4.539,4.275-6.193,6.956c-13.911-9.274-25.859-12.944-35.646-10.973
		c0.219-6.132-0.355-11.374-1.729-15.701C281.055,35.44,295.812,27.676,311.981,31.173z M245.516,27.805
		c0,0,13.653-5.015,22.466,1.397c5.845,4.252,8.489,12.673,7.884,25.028c-1.344,0.461-2.643,1.027-3.904,1.722
		c-7.295,4.04-12.182,11.585-15.452,20.134c-6.548-13.941-14.628-21.289-24.076-21.848c-4.743-0.279-9.463,1.178-13.987,3.701
		c-0.272-0.612-0.559-1.193-0.853-1.752C233.182,45.446,242.502,36.014,245.516,27.805z M170.454,86.719
		c-0.717,0.181-1.42,0.393-2.1,0.634c-0.408-0.733-0.846-1.48-1.276-2.016c-3.685-5.256-8.202-7.696-12.99-8.247
		c5.543-5.717,32.104-31.968,49.708-28.6c5.249,1.004,9.297,4.713,12.053,11.026c-14.085,9.221-25.828,27.83-29.589,34.211
		C182.461,89.022,176.699,85.269,170.454,86.719z M215.955,120.907c-0.853-2.16-1.843-4.29-3.036-6.329
		c-5.687-9.833-13.329-12.718-21.221-11.374c-0.967-2.371-2.13-4.599-3.512-6.767c3.466-6.011,24.197-40.374,44.067-39.188
		c8.866,0.529,16.532,8.27,22.807,22.996c-4.72,14.999-5.128,31.779-5.09,38.131C237.434,112.049,225.531,112.948,215.955,120.907z
		 M306.921,120.636c-7.922-5.158-16.381-9.833-25.768-11.706c-8.73-1.865-17.785,0.393-22.943,8.096
		c-1.027,1.503-1.881,3.066-2.606,4.667c-0.868-0.582-1.729-1.133-2.59-1.646c-0.068-3.995-0.083-22.626,4.947-38.788
		c0,0,0.461-0.808,0.347-1.08c3.021-9.221,7.741-17.498,15.119-21.584c9.848-5.445,23.2-2.605,39.679,8.436
		c-9.184,18.556-3.255,48.326-2.885,50.131C308.93,118.09,307.835,119.269,306.921,120.636z M383.318,112.766
		c-17.242-3.723-34.249-0.831-38.282,16.6c-0.295-0.378-0.589-0.755-0.891-1.125c-4.335-5.143-9.999-9.206-16.433-11.321
		c-1.08-0.31-2.16-0.634-3.255-0.921l-3.323-0.604c-1.699-0.151-3.444-0.363-5.151-0.332c-1.072,0.098-2.054,0.317-2.968,0.634
		c-1.118-6.185-7.039-43.191,9.591-55.878c9.093-6.933,23.608-5.521,43.153,4.184c-7.446,14.848,13.828,40.487,18.873,46.249
		C384.134,111.052,383.696,111.89,383.318,112.766z M485.824,124.616c-19.039-0.03-34.226-13.76-44.671-28.592
		c-2.704-3.814-5.211-7.779-7.545-11.849c-1.677-2.908-3.58-6.472-5.423-9.282c-10.226-16.335-24.174-30.11-39.943-41.091
		C335.664-3.061,250.046-12.478,193.118,19.112c-10.301,5.687-19.93,13.435-29.431,20.323c-2.636,1.79-7.635,5.286-10.211,7.016
		c-1.125,0.68-6.17,3.927-7.469,4.705c-12.975,7.733-30.481,17.687-45.743,17.513c-6.458-0.27-8.158-1.448-8.158-1.448l0.19,1.969
		c0.151,5.876,1.057,11.864,2.915,17.521c0.272,0.816,0.582,1.616,0.899,2.409c-5.339-1.473-10.445-3.814-15.474-6.246
		c-17.098-8.753-33.063-16.041-52.571-9.266c-7.001,2.522-13.413,5.536-19.696,9.516C3.74,86.13,0.153,89.4,0.002,95.396
		c-0.106,6.699,4.962,12.008,10.218,15.429c1.261,5.981,5.853,9.916,10.732,12.106c7.484,3.202,15.384,3.089,23.155,2.16
		c1.503-0.174,3.104-0.446,4.652-0.823c3.587-0.015,17.393,0.287,27.935,5.113c-4.086,2.258-10.384,6.797-10.762,13.473
		c-0.408,7.137,6.117,14.41,19.386,21.622c3.572,8.232,9.274,15.935,14.311,22.158c14.349,17.06,38.471,33.516,61.814,28.683
		c12.015-2.877,17.189-12.959,13.171-24.476c-0.785-2.326-1.714-4.592-2.764-6.789c7.318,3.814,20.285,9.387,33.569,9.387
		c3.451,0,6.925-0.378,10.331-1.261l-0.03-0.121c3.066,1.027,6.17,1.933,9.259,2.772c31.946,8.436,66.278,5.513,97.166-5.709
		c3.701-1.276,7.703-2.908,11.389-4.463c1.677-0.378,3.346-0.778,5.007-1.201c9.221-2.379,18.269-5.385,27.074-8.972
		c3.534-0.536,17.128-0.982,36.711,18.435c7.9,7.831,16.237,10.935,23.525,10.935c5.717,0,10.792-1.911,14.493-4.954
		c7.084-5.823,11.683-18.155,1.329-33.758c-4.63-6.971-7.756-13.027-9.418-16.494c4.169,0.514,8.398,0.619,12.589,0.234
		c14.749-1.329,28.645-8.3,39.483-18.231c1.835-1.601,3.927-4.086,5.672-5.944L485.824,124.616z M57.345,120.877
		c2.726-1.405,5.249-3.119,7.394-5.506c-6.865,0.657-12.574,4.599-19.318,5.226l-1.805,0.204c-9.04,0.808-21.69,0.672-27.588-6.918
		c10.958,4.305,25.972,2.915,35.752-2.266c0.702-0.385,1.397-0.793,2.054-1.254c0-0.015,0.008-0.023,0.008-0.023
		c0.015,0,0.03,0.098,0.015-0.166c-0.038,0.008-0.053,0.008-0.06,0.015c-0.015-0.06-0.015,0.045-0.03-0.008l-0.34,0.038l-0.672,0.06
		c-11.358,0.929-23.449,4.267-34.445-0.008c-6.842-2.87-16.705-9.954-12.793-18.314c3.21-5.392,17.951-11.57,24.084-13.79
		c9.697-3.391,20.104-3.021,29.854,0.332c12.982,4.229,25.02,12.65,38.773,15.059c1.76,3.187,3.972,6.11,6.767,8.489
		c1.994,1.661,4.35,3.157,6.872,4.229c-0.03,0.015-0.045,0.023-0.045,0.023c2.402,4.864,5.747,8.972,9.697,12.438
		c-1.193,0.143-2.379,0.302-3.565,0.491c-10.535,1.797-22.634,5.43-29.937,13.639C80.553,124.48,66.71,121.746,57.345,120.877z
		 M83.234,140.671c-2.1,6.019-1.729,12.227,0.06,18.276c-9.176-5.589-13.866-11.026-13.594-15.875
		c0.347-6.163,8.458-10.324,11.019-11.487c1.888,1.223,3.58,2.658,4.954,4.327C84.714,137.379,83.891,138.957,83.234,140.671z
		 M225.879,191.248c-11.985-2.938-23.366-7.303-34.717-12.235c5.241,4.531,11.298,7.869,17.68,10.498
		c-17.921,1.458-36.938-9.599-40.396-11.729c-6.155-10.007-14.863-18.45-24.461-25.164c-4.554-3.043-9.523-5.657-14.915-6.842
		c4.297,3.466,8.564,6.601,12.816,9.788c4.267,3.142,8.36,6.533,12.061,10.293c9.236,9.093,28.328,35.797,9.893,43.961
		c-11.947,4.72-25.874-0.03-36.658-5.966c-16.501-9.199-34.121-28.963-39.724-47.118c-7.182-24.174,19.273-32.807,38.403-34.596
		c7.681,5.377,16.902,8.866,25.783,11.124c1.125,0.279,2.258,0.551,3.391,0.8c-0.03,0.015-0.211,0.159-0.211,0.159
		c3.383,4.433,7.091,8.617,11.132,12.469c28.645,26.885,68.725,36.832,106.614,41.529c12.582,1.51,25.315,1.525,37.912,0.249
		C283.026,196.202,253.701,197.939,225.879,191.248z M438.532,167.232c8.957,13.503,5.286,23.925-0.581,28.743
		c-7.152,5.883-20.519,6.593-32.965-5.74c-13.307-13.194-24.137-17.785-31.394-19.183c1.42-0.649,2.832-1.314,4.244-1.994
		c16.675,1.646,34.075-4.116,45.985-16.041c1.427-1.442,2.885-2.93,4.191-4.524C429.364,151.494,432.808,158.615,438.532,167.232z
		 M472.766,134.894c-8.458,5.558-18.155,9.327-28.26,10.226c-4.599,0.423-9.236,0.219-13.805-0.498
		c0.982-1.76,1.699-3.663,1.986-5.762c-4.418,3.504-7.431,7.658-11.555,11.283c-7.869,7.031-17.559,11.812-27.905,13.813
		c-2.409,0.468-4.856,0.793-7.318,0.997c4.569-2.439,9.312-4.909,12.189-9.417c-5.687,1.042-10.09,4.063-15.059,6.578
		c-14.455,7.416-29.808,13.163-45.577,17.045c-31.689,8.375-64.835,6.215-96.426-1.201c-26.145-5.966-52.321-15.859-72.266-34.264
		c-2.991-2.741-5.808-5.664-8.443-8.738c2.47,0.264,4.969,0.279,7.484-0.151c-5.045-2.107-10.173-3.096-15.338-4.584
		c-12.37-3.716-24.847-9.244-33.532-19.054c-0.967-1.133-1.865-2.319-2.704-3.542c3.149,0.589,6.374,0.355,9.327-1.163
		c-4.501-1.088-8.587-1.918-12.627-3.889c-11.124-5.891-14.734-18.812-16.471-30.646l0.687,0.159
		c0.332,0.083,0.649,0.121,0.974,0.151l0.967,0.106l0.967,0.098h0.952c7.394,0.098,14.636-2.296,21.425-4.848
		c1.797-0.74,3.572-1.525,5.339-2.326c0,0,2.8-1.427,6.344-3.066c12.62-6.434,24.454-14.402,35.903-22.739
		c2.417-1.889,6.593-4.864,6.593-4.864c0.249-0.189,0.506-0.378,0.763-0.566c15.384-11.993,33.282-20.391,52.148-25.096
		c2.571-0.655,5.468-1.246,5.468-1.246c4.365-0.914,8.768-1.654,13.201-2.175c6.495-0.785,13.05-1.276,19.62-1.48
		c4.721-0.075,10.075-0.075,10.075-0.075c13.088,0.196,26.183,1.571,39.007,4.154c0,0,4.555,0.949,10.414,2.386
		c11.978,3.081,23.653,7.25,34.785,12.567c0,0,3.528,1.713,6.691,3.383c9.04,4.796,17.672,10.362,25.76,16.758
		c4.584,3.678,8.965,7.62,13.08,11.819c1.037,1.102,3.346,3.527,3.346,3.527c5.204,5.694,9.924,11.819,14.017,18.352
		c1.76,2.772,3.731,6.261,5.339,9.153c0.091,0.151,0.181,0.302,0.264,0.446c0.276,0.451,2.137,3.587,2.137,3.587
		c1.692,2.757,3.467,5.475,5.339,8.119c10.135,14.523,25.141,28.102,43.372,29.959C478.747,130.642,475.802,132.893,472.766,134.894
		z M139.165,158.729c4.214,1.45,7.643,4.214,10.875,7.091c8.677,7.582,19.477,21.327,18.488,33.479
		c-2.054-3.942-3.602-7.711-5.498-11.426c-1.918-3.693-4.207-7.182-6.721-10.497c-2.515-3.338-5.256-6.517-8.194-9.531
		C145.086,164.801,141.952,162.059,139.165,158.729z M426.418,197.577c2.356-1.231,4.509-2.424,6.329-3.904
		c5.876-4.697,6.963-12.408,6.88-19.568C444.536,184.58,439.446,198.468,426.418,197.577z"/>
</g>
</svg>
