<?xml version="1.0" encoding="utf-8"?>
<!-- Generator: Adobe Illustrator 28.3.0, SVG Export Plug-In . SVG Version: 6.00 Build 0)  -->
<svg version="1.1" id="whale_00000025427356160402833150000003172407322910885765_"
	 xmlns="http://www.w3.org/2000/svg" xmlns:xlink="http://www.w3.org/1999/xlink" x="0px" y="0px" viewBox="0 0 490 312.6"
	 style="enable-background:new 0 0 490 312.6;" xml:space="preserve">
<style type="text/css">
	.st0{fill:#D2E4FF;}
	.st1{fill:#6186AD;}
	.st2{fill:#90AFD6;}
	.st3{fill:#FFFFFF;}
	.st4{fill:#231F20;}
</style>
<g id="whale">
	<path class="st0" d="M341.4,251.7l-1,0.4c-8.3,3.9-16.8,7.9-25.8,10.3c3.8-1.9,7.6-3.6,11.3-5.3c4.8-2.2,9.8-4.5,14.6-7
		c4.5-2.3,9.3-4.8,14.5-7.8c18.1-10.3,33.2-21.2,46.4-33.2l-0.6-0.8c-12.9,9.3-28.3,17.8-48.5,26.6l-2.6,1.1
		c-6.5,2.8-13.3,5.6-20.3,7.3c4.3-2.2,8.7-4.1,13-5.9c3-1.3,6.2-2.6,9.2-4.1c22.5-10.6,40.8-20.4,56.7-33.6l-0.6-0.8
		c-16.7,9.9-40.8,18-69.7,23.5c-20.4,3.9-36.2,10.5-45.8,15.3l-2.1,1l2.3-0.1c6.8-0.2,12.4,0.7,17,2.8c1.8,0.8,4.1,2.5,4.8,4.6
		c0.3,1,0.2,2-0.3,3c-2.4,3.3-6,5.4-9.5,7.6l-1.3,0.8c-3,1.7-6.1,3.3-9,4.9c-2.5,1.3-5.2,2.7-7.7,4.1c-6.3,3.8-13.5,6.6-21.3,8.2
		c-20.1,4.2-43.2,2.1-68.8-6.3c-3.3-1.1-7.2-2.5-10.5-4.8l-0.2-0.1l-0.2,0.1c-11.5,3-24.8,0.6-33.9-2l-0.1,0l-0.1,0
		c-6.9,1.9-14.6,0.2-19.9-1.6c-5.1-1.6-10.1-3.8-15-5.9c-4.7-2-9.5-4.1-14.4-5.7c-4.4-1.4-10.2-2.9-16.1-1.7
		c-1.6,0.3-3.2,0.6-4.8,0.9c-3.8,0.7-7.7,1.4-11.5,2l-2,0.3l1.9,0.7c20.2,7.4,37.1,11.8,53.4,13.9c1.1,0.2,2.3,0.4,3.4,0.6
		c0.9,0.1,1.7,0.3,2.6,0.4c-7.9,0.8-15.9-0.7-23.7-2.1l-0.2,0c-8.3-1.7-17.1-4-26.1-7.1c-5.5-1.9-10.5-3.8-15.1-5.8l-0.1-0.1l-0.1,0
		c-0.8,0.1-1.6,0.2-2.5,0.2c-3.1,0.2-6.5,0.3-10.3,0.2l-2.4-0.1l2.1,1c29.9,14.5,63,22.9,95.9,24.3l2,0.1c3.5,0.1,7.1,0.3,10.7,0.7
		c-3.9,0.7-8.1,0.9-12.8,0.8c-30.8-0.6-62.5-8.1-91.5-21.5c-4.5-2.1-8-3.9-11.3-5.8l-0.2-0.1c-2.1-0.2-4.2-0.5-6.3-0.7
		c-2.3-0.3-4.6-0.7-6.8-1l-3.8-0.6l2,1.3c39.9,26.4,90.8,39,139.6,34.7c2.7-0.2,5.4-0.5,8-0.7c3.3-0.3,6.6-0.7,10-0.9
		c-0.5,0.1-1,0.3-1.4,0.4c-6.7,1.8-13.9,2.6-21.9,3.3c-35.3,2.6-71-3.5-103.2-17.5c-14.6-6.5-26.7-13.3-36.9-21l-0.1-0.1l-0.1,0
		c-2.8-0.3-5.3-0.5-7.7-0.5l-1.2,0l0.8,0.8c10.2,10.4,24,19.3,42.1,27.2c29.7,12.7,65.5,18.4,106.2,17.2c1.4,0,3.2-0.1,4.9-0.2
		c0.7,0,1.4-0.1,1.9-0.1c4.4-0.1,15.4-1.1,20.1-1.6l0.3,0c1.6-0.2,3.1-0.4,4.7-0.6c6-0.7,12.1-1.5,18.2-1.8c-7.6,2-15.4,3.1-22.7,4
		l-13.6,1.3c-1.3,0.1-3.7,0.2-5.9,0.4c-1.7,0.1-3.4,0.2-4.4,0.3c-26,1.3-50-0.2-71.4-4.7c-30.1-6.2-55.1-17.4-74.3-33.2
		c-3.8-3.2-6.6-5.9-9-8.6l-0.2-0.2l-0.3,0c-3.3,0.4-5.5,1.3-6.6,2.6l-3.2,3.8l2.2-1.8v0.5l-0.4,0.1l0.1,0.5c0.2,0.8,0.6,1.6,1,2.4
		c21.8,35.1,69.9,47.7,106.5,52.1c15.9,1.9,31,2.5,43.5,2.5c18.2,0,30.8-1.2,31.7-1.3c1-0.1,102.6-12.5,179.6-63.3
		c13.3-8.8,25.6-19.6,36.5-32.2l-0.7-0.7C385.2,226.9,365,240.2,341.4,251.7z M5.2,250.3C5.2,250.3,5.2,250.3,5.2,250.3
		c8.3,9.1,19.2,17.6,33.5,25.6c27.4,15.4,60.4,24,97.9,25.8c3,0.2,6.2,0.2,9.2,0.3c4.7,0.1,9.5,0.2,14.2,0.6
		c-8.4,1.3-16.8,1.2-23.4,0.9c-44.1-1.3-83.1-13.2-112.8-34.3C15.2,263,9.3,257.7,4.4,252l0,0l-0.1-0.1l-0.1,0l-0.4-0.5L5.2,250.3z"
		/>
	<g>
		<path class="st1" d="M311.9,246.8L311.9,246.8l-0.5,0.2c0,0,0,0,0,0l0,0c-2.5,0.9-9.3,4.1-27.1,13.8c-3.1,1.7-6.5,3.2-10.3,4.5
			l0,0c-9.7,3.3-21,5.1-33.8,5.2c-19.6,0.2-35.8-3.5-37.5-3.9l0,0l-4.4-1l4,1.9c12.3,5.9,25.2,8.9,38.7,8.9c15.7,0,32-4,49-12.1
			c15-7.1,23.4-13.1,23.6-16.9c0.1-0.2,0-0.4-0.1-0.5C313.2,246.5,312.8,246.5,311.9,246.8z"/>
		<path class="st1" d="M433.8,37.9c-6.1-6.9-10.7-16.6-12.8-21.7l-0.4-1l-0.5,1c-4.3,8.5-13.8,30.1-9.8,48.2
			c4.4,19.7,10.7,33.9,14,40.6l0.4,0.8l0.5-0.8c3-5,5.8-10.4,8.4-16l0-0.1l0-0.1c-0.1-1.5,0-3.1,0.1-4.6c0.7-8.9,3.7-17.9,8.9-26.8
			l0.1-0.2C442.8,54.6,442.4,47.8,433.8,37.9z M430.5,83.7c-0.1,1.2-0.2,2.4-0.4,3.5c-3.1-7.6-0.8-17.4,3-24.1
			c1.5-2.6,3-4.5,4.8-5.7c-0.7,2.2-1.6,4.2-2.4,6.3l-0.2,0.5l0,0c-2.4,5.9-3.9,12-4.5,18.2L430.5,83.7z"/>
		<path class="st1" d="M151.8,240.5c-0.8-1.5-1.9-2.8-3.2-3.8c-2.3-1.6-5-2.3-7.8-1.8c-2.7,0.4-5.1,1.9-6.8,4.2
			c-1.1,1.6-1.8,3.4-1.9,5.3c-1.1,1.8-2.8,2.4-2.8,2.4l-2.9,0.9l3.1,0c1.3,0,2.4,0.4,3.4,1.2c0.7,1.8,2,3.4,3.6,4.6
			c1.8,1.3,3.9,1.9,6.1,1.9c3.3,0,6.5-1.6,8.5-4.3c0.9-1.3,1.5-2.7,1.8-4.2c1.6-2.4,4.3-3.2,4.3-3.2l2.8-0.8l-3-0.1
			C154.7,242.6,152.9,241.4,151.8,240.5z"/>
	</g>
	<g>
		<path class="st2" d="M410.3,61.4l0.6-3c0-0.2,4.3-22.2,9.4-32.7c1.5,3.2,4.9,9.7,11.6,16.3c4.9,4.9,9.8,16.7,9.9,16.8l0.7,1.8
			l3.4-5.2l-0.2-0.5c-0.2-0.5-4.5-13.4-11.7-20.5c-6.8-6.7-12.2-22.1-12.2-22.3L421,9.9L420,12c-0.7,1.4-17,33.9-11,46.6L410.3,61.4
			z"/>
		<path class="st2" d="M291.5,276.4c-7.1,2.1-14.2,4.4-21.1,6.6c-42.4,13.5-86.2,27.4-157.6,20C31.2,294.6,5.2,252.4,4.9,251.9
			l-2.3-3.8l0.4,4.4c1.9,20.9,43.6,40.2,45.4,41c33.7,14.9,76.9,18,107.3,18c0,0,0,0,0,0c20.7,0,35.1-1.5,35.2-1.5
			c21.5-1.5,66.8-14,120.9-33.4c63.7-22.8,94.8-67.1,95.1-67.5l3.1-4.6l-10.2,7.2C363.6,249.8,292.8,275.9,291.5,276.4z"/>
		<path class="st2" d="M485.5,13.5c-0.1-1-0.3-2-0.5-3L484.8,9l-0.7,1.3c-2.2,4.2-5,8.4-8.5,12.9c-4,5.1-9.2,10.8-14,15
			c-15.6,15.9-23.9,30.9-25.5,46c-0.4,5-0.2,10.1,0.6,15.8c-1-1.5-1.7-3.3-2.2-5.2l-0.3-1.3l-0.6,1.2
			c-31.3,64.2-84.8,68.2-141.4,72.4l-0.2,0c-15,1.1-30.5,2.3-45.7,4.6c-35.8,5.5-57.4,13.3-80.4,21.6c-23.4,8.4-47.6,17.1-89.5,25.1
			c-47.6,9.1-64.9,19-71,25.7c-0.3,0.3-0.5,0.6-0.7,0.9l-1.3,1.8l1.9-1c1-0.5,2.1-0.9,3.2-1.2c7.5-1.6,15.2-0.4,22.6,0.7
			c3.1,0.5,6.2,1,9.3,1.2c15.4,2.2,30.2-0.1,41.4-2.4c0.5-0.1,1.1-0.2,1.7-0.3c1.2-0.2,2.5-0.5,3.5-0.6c10.3-1.3,20.9,3.6,31.2,8.2
			c8,3.6,16.2,7.4,24.3,8.3c0.4,0,0.8,0.1,1.2,0.1c3.8,0.3,7.6-0.2,11.2-1.4c1.8-0.6,3.5-1.4,5.1-2.2c-2.2,2.5-5,4.3-8.4,5.2
			l-1.7,0.5l1.7,0.5c9.3,2.6,22.7,5.1,34.4,2l1-0.3l-0.9-0.6c-0.2-0.1-0.3-0.2-0.5-0.4c0.9,0.1,1.9,0.3,2.8,0.5
			c3.2,0.6,6.1,1.5,8.9,2.4c1.6,0.5,3.3,1,5,1.4l0.2,0c1.7,0.4,17.1,3.9,36,3.9c0.6,0,1.1,0,1.7,0l0-1c-4-0.3-7.6-0.9-10.7-1.7
			c2.7-0.1,5.3-0.1,7.9,0c4.3,0,8.8,0,13.3-0.3c4.3-0.2,8.2-0.5,11.9-1c1.3-0.2,2.6-0.3,3.9-0.5c2.5-0.4,5.1-0.7,7.7-0.9l0.1,0.2
			c3.7-1.3,7.2-2.8,10.4-4.6c17.7-9.6,24.4-12.8,27-13.7l0.4-0.2l-0.1-0.4c-0.9-3.4-8.3-4.8-9.8-5.1c-5.4-0.9-11.4-0.8-18.2,0.3
			l-0.1,0c-1.6,0.3-3.2,0.6-5.1,1c-10,2.1-20.5,2.4-31.4,0.8c-4.5-0.7-8.1-1.8-11.1-3.4c3.7,0.3,7.2,0.7,10.7,1.1l0.7,0.1
			c9.4,1.1,18.5,0.9,27.2-0.7c1.3-0.2,2.6-0.5,4-0.8c3.2-0.6,6.5-1.3,9.8-1.6c1.6-0.1,2.9-0.2,4.1-0.3l0.2-0.1
			c9.6-4.8,25.3-11.3,45.6-15.2c29-5.5,53.2-13.7,70-23.7c3.9-3.2,7.6-6.6,11-10.1c7.6-11.8,14.2-24.6,19.6-38
			c8.9-21.9,12.9-40.6,14.4-49.7l0.3-1.6l-2.4,2.6c-4.3,4.4-7.6,9.6-10,15.3c-0.4,0.9-0.8,1.8-1.1,2.7c-0.2,0.4-0.3,0.8-0.5,1.2
			c0-5.3,2-10.9,5.8-15.9c2.4-3.4,5.4-6.5,8.2-9.5l1.5-1.6c5.7-6.1,9.9-10.9,13.6-15.8c4-5.4,8.1-11.2,10.9-17.5
			C485.9,48.1,487.9,31.3,485.5,13.5z M481.2,46.2c-0.3,2.7-1,5.6-2.3,8.9c-2.7,6.8-6.5,13.3-11.2,19.5c-1.6,2.1-3.7,4.7-6.4,6.9
			c1.8-4,4-7.6,6.2-11.2c1.3-2.1,2.7-4.3,3.9-6.6c2.1-3.5,4-7,5.8-10.4C478.5,51,479.8,48.6,481.2,46.2z M155.2,243.5
			c-1,0.6-2.3,1.5-3.3,3l-0.1,0.2c-0.2,1.4-0.8,2.8-1.6,3.9c-1.8,2.5-4.6,3.9-7.6,3.9c-2,0-3.9-0.6-5.5-1.8
			c-1.5-1.1-2.6-2.5-3.3-4.2l0-0.1l-0.1-0.1c-0.8-0.6-1.6-1.1-2.5-1.3c0.6-0.5,1.4-1.2,2-2.2l0.1-0.1l0-0.1c0.1-1.8,0.7-3.5,1.7-4.9
			c1.5-2,3.6-3.4,6.1-3.8c2.5-0.4,5,0.2,7,1.6c1.3,0.9,2.3,2.1,3,3.5l0.1,0.2C152,242,153.4,243,155.2,243.5z M202.6,267.1
			L202.6,267.1L202.6,267.1L202.6,267.1z"/>
	</g>
	<g>
		<path class="st3" d="M5.7,244.5c0,0,25.7-15.5,62.1-21.9c36.5-6.4,73.9-15.9,102.3-27.7c23.3-9.7,73.1-22.3,116.9-23.9
			c62.5-2.4,125.3-13.4,147-76c0,0-24.2,50.4-80,63.2c0,0-42.8,7-74.6,8.7c0,0-68.9,4.9-120.2,27.8c0,0-60.3,18.9-82.4,22.1
			C76.8,216.9,14.4,228.9,5.7,244.5z"/>
		
			<ellipse transform="matrix(0.2896 -0.9571 0.9571 0.2896 -208.7595 265.7304)" class="st3" cx="74.6" cy="273.5" rx="6.1" ry="9"/>
		
			<ellipse transform="matrix(0.9037 -0.4281 0.4281 0.9037 -73.1965 164.7135)" class="st3" cx="329.6" cy="245.1" rx="9" ry="6.1"/>
		
			<ellipse transform="matrix(0.1859 -0.9826 0.9826 0.1859 -187.2946 340.6161)" class="st3" cx="111.9" cy="283.3" rx="7.6" ry="11.3"/>
		<path class="st3" d="M159,285c0,2.4-2.8,4.3-6.3,4.3s-6.3-1.9-6.3-4.3c0-2.4,2.8-4.3,6.3-4.3S159,282.6,159,285z"/>
		<ellipse class="st3" cx="349.4" cy="235.7" rx="6.3" ry="4.3"/>
		<ellipse class="st3" cx="213.5" cy="289.2" rx="6.3" ry="4.3"/>
		
			<ellipse transform="matrix(0.9487 -0.3162 0.3162 0.9487 -80.2063 57.362)" class="st3" cx="136.7" cy="275.8" rx="4.3" ry="2.9"/>
		
			<ellipse transform="matrix(0.9958 -9.131132e-02 9.131132e-02 0.9958 -26.3131 16.7951)" class="st3" cx="170.4" cy="296" rx="4.2" ry="2.8"/>
		
			<ellipse transform="matrix(0.9958 -9.131132e-02 9.131132e-02 0.9958 -22.4027 29.6677)" class="st3" cx="313" cy="259.7" rx="4.2" ry="2.8"/>
		
			<ellipse transform="matrix(0.9958 -9.131132e-02 9.131132e-02 0.9958 -25.2448 18.1397)" class="st3" cx="185.6" cy="285" rx="4.2" ry="2.8"/>
		
			<ellipse transform="matrix(0.9958 -9.131132e-02 9.131132e-02 0.9958 -25.0307 22.8205)" class="st3" cx="236.9" cy="285" rx="4.2" ry="2.8"/>
		
			<ellipse transform="matrix(0.9037 -0.4281 0.4281 0.9037 -62.1314 180.3508)" class="st3" cx="369.9" cy="228.3" rx="4.2" ry="2.8"/>
		
			<ellipse transform="matrix(0.9958 -9.131132e-02 9.131132e-02 0.9958 -24.0934 9.9884)" class="st3" cx="97.1" cy="268.3" rx="6.3" ry="4.3"/>
		<ellipse transform="matrix(0.442 -0.897 0.897 0.442 -207.7636 240.6418)" class="st3" cx="89.5" cy="287.3" rx="4.3" ry="6.3"/>
		<ellipse transform="matrix(0.442 -0.897 0.897 0.442 -186.6909 286.1636)" class="st3" cx="136.7" cy="293.1" rx="4.3" ry="6.3"/>
		<circle class="st3" cx="142.8" cy="245.1" r="7.1"/>
		<path class="st3" d="M234,240.4c0,0,11.5,12,40.6,6.7c29.3-5.3,36.9,0.4,36.9,0.4s2.9-9.2-27.5-6
			C253.7,244.6,250.3,245.5,234,240.4z"/>
		<path class="st3" d="M436.8,97.6c0,0,0.2-27.2,17.1-45.8c17-18.6,25.9-26.2,29.6-32.8c0,0,2,41-18.3,64c0,0,16.7-11.8,20.7-34.2
			S486,6,486,6s-14.9,24-25.9,30.5C449.1,43,430.8,73.9,436.8,97.6z"/>
	</g>
	<g>
		<path class="st4" d="M431.1,82.4c0.6-6.2,2.1-12.3,4.5-18.1c1.1-2.6,2.2-5.1,3.1-8.1c-2.7,1.5-4.6,4-6.1,6.6
			c-4.2,7.4-6.4,18.1-2.3,26C430.7,86.7,430.9,84.5,431.1,82.4z"/>
		<path class="st4" d="M486.9,4.6L485.6,0l-2,4.3c-4.3,9-10.6,16.9-17.5,24.2c-2.3,2.5-4.8,4.9-7.3,7.1c-5,5.1-9.7,10.6-13.8,16.6
			c-0.9-4-3.2-9.5-9.2-16.3c-8.1-9.2-13.6-24.1-13.7-24.2l-1.3-3.5l-1.9,3.2c-0.7,1.2-17.1,29.8-11.9,53.6
			c5.1,22.9,12.6,38.3,15.3,43.2c-31.3,48.6-79.8,52.3-130.8,56.1c-15.1,1.1-30.7,2.3-46.1,4.6c-36,5.5-57.9,13.4-80.9,21.7
			c-23.3,8.4-47.4,17.1-89,25c-38.3,7.3-63.4,16.5-72.6,26.6c-3.6,4-4.1,9.8-1.3,14.4c9.9,16,25.9,28.8,47.4,38.1
			c17.1,7.4,37.7,12.6,61.3,15.4c16,1.9,31.3,2.5,43.8,2.5c18.9,0,31.8-1.3,32-1.4c0.3,0,26.1-3.1,61.1-12.5
			c32.3-8.6,79.3-24.5,119.8-51.2c40.7-26.8,63-66.3,74.5-94.7c11.3-27.9,14.8-50.9,15.3-55.1c3.1-3.1,6.1-6.3,9-9.6
			c6.5-7.6,12.6-15.6,16.9-24.6C491.2,45.1,491.7,23.9,486.9,4.6z M410.7,64.3c-4-18,5.7-39.8,9.8-47.9c2.2,5.2,6.8,14.9,12.9,21.8
			c8.6,9.8,8.9,16.5,8.7,18.8c-4.8,8.3-8.2,17.3-9,27c-0.1,1.5-0.1,3.1-0.1,4.7c-2.6,5.8-5.4,11.1-8.3,16
			C421.6,98.6,415.2,84.3,410.7,64.3z M479.2,61.7c-2.8,6.2-6.8,11.9-10.9,17.4c-4.2,5.5-8.7,10.6-13.5,15.7
			c-3.4,3.6-6.9,7.2-9.8,11.2c-3.9,5.2-6.5,11.8-5.8,18.3c0.9-2,1.6-3.9,2.5-5.8c2.3-5.6,5.7-10.8,9.9-15.2c0.4-0.5,0.9-0.9,1.3-1.4
			c-1.5,8.9-5.5,27.7-14.4,49.6c-4.6,11.4-11,24.6-19.6,38c-18.8,19.4-43.3,32.1-67.5,43.5c-8.4,3.9-17.1,7-25.3,11.6
			c9.3-1.6,17.8-5.5,26.4-9.1c16.9-7.4,33.6-15.9,48.6-26.7c-14.1,12.8-29.8,23.7-46.3,33.1c-4.8,2.7-9.6,5.3-14.4,7.8
			c-9.8,5-19.9,9.1-29.7,14.2c10.9-2.2,20.9-7,30.9-11.7c21.6-10.5,42.4-23.5,60.2-39.7c-10,11.6-22.1,22.7-36.4,32.2
			C288.6,295.2,187,307.7,186,307.8c-0.4,0-35.4,3.6-75.1-1.2c-36.5-4.4-84.5-17-106.1-51.9c-0.4-0.7-0.8-1.5-1-2.2l0.3-0.1
			c0,0.1,0,0,0-0.1v0c5.6,6.7,12.4,12.2,19.4,17.3c32.7,23.3,73.3,33.2,113.1,34.4c9,0.3,18.2,0.2,27.1-1.5c-8.9-1.1-18-0.9-27-1.3
			c-33.8-1.6-68-9.1-97.7-25.7c-12.3-7-24.2-15.3-33.6-26c0,0-0.2,0.1-0.5,0.4c1.3-1.5,3.9-2.2,6.3-2.5c2.8,3.2,5.8,5.9,9,8.6
			c21.3,17.5,47.8,27.8,74.6,33.3c23.4,4.8,47.7,5.9,71.5,4.7c2.3-0.2,7.8-0.5,10.2-0.7l13.6-1.3c9-1.1,18.1-2.5,26.8-5.2
			c-9.1,0.2-18.1,1.5-27.1,2.5c-4.6,0.4-15.8,1.5-20.3,1.6c-2,0.1-4.8,0.3-6.8,0.3c-35.9,1.1-72.7-3-106-17.1
			c-15.2-6.6-30.2-15.1-41.9-27c2.6,0,5.1,0.2,7.7,0.5c11.4,8.6,24,15.3,37,21c32.4,14.2,68.1,20.1,103.4,17.6
			c7.3-0.6,14.9-1.4,22-3.3c1.8-0.5,3.6-1,5.4-1.6c-7.4,0.2-14.7,1.3-22,1.8c-48,4.3-98.9-7.9-139.2-34.6c2.8,0.5,5.5,0.9,8.3,1.3
			c2.1,0.3,4.2,0.5,6.3,0.7c3.7,2.1,7.5,4,11.3,5.8c28.7,13.3,60.1,20.9,91.7,21.6c5.3,0.2,10.6-0.1,15.8-1.4
			c-5.3-0.9-10.5-1-15.7-1.2c-32.8-1.4-66.1-9.9-95.7-24.3c3.4,0.1,6.9,0.1,10.3-0.2c0.8-0.1,1.7-0.1,2.5-0.2c5,2.1,10,4,15.1,5.8
			c8.6,2.9,17.3,5.3,26.2,7.1c8.9,1.6,18,3.4,27,1.8c-3-0.7-5.9-1-8.9-1.6c-18.3-2.4-36-7.5-53.3-13.8c5.5-0.8,10.9-1.9,16.4-2.8
			c5.3-1.1,10.6,0,15.8,1.7c9.8,3.2,19.4,8.4,29.4,11.6c10.2,3.4,23.5,4.5,30.3-5.6c-2.3,1.2-4.6,2.4-7,3.2c-3.9,1.3-8,1.7-12.2,1.2
			c-18.3-2-37.2-18.8-55.6-16.5c-1.5,0.2-3.8,0.6-5.3,0.9c-13.8,2.8-27.3,4.3-41.3,2.4c-10.6-1-21.4-4.2-32.1-1.9
			c-1.1,0.2-2.3,0.6-3.3,1.2c0.2-0.3,0.4-0.6,0.7-0.9c6.1-6.7,23.2-16.5,70.7-25.5c41.9-8,66.1-16.7,89.6-25.2
			c22.9-8.3,44.6-16.1,80.3-21.5c15.3-2.3,30.8-3.5,45.8-4.6c56.7-4.2,110.4-8.2,141.9-72.7c0.7,2.6,1.8,5,3.5,7
			c-1-6-1.4-11.7-0.9-17.7c1.9-17.9,13.1-33.2,25.4-45.7c4.6-4.1,9.9-9.8,14-15.1c3.2-4.1,6.2-8.4,8.6-13c0.2,1,0.3,2,0.5,3
			C487.2,29.7,486,46.7,479.2,61.7z"/>
		<path class="st4" d="M271.8,266.8c0.9-0.4,1.9-0.9,2.8-1.4c-4.1,0.2-8,1-12,1.5c-3.9,0.5-7.9,0.8-11.9,1c-8,0.6-16,0.1-24.1,0.4
			C238.4,272.8,260.3,271.8,271.8,266.8z"/>
		<path class="st4" d="M460.1,83c3.3-2.2,5.7-5.1,8-8.1c4.6-6,8.4-12.6,11.3-19.6c1.4-3.5,2.4-7.3,2.4-11.2
			c-3.8,6.5-6.8,13-10.8,19.4C467.4,70.1,462.9,75.9,460.1,83z"/>
		<path class="st4" d="M309.8,241.2c-6.7-3.1-14.2-3.2-21.4-2.6c-4.7,0.4-9.2,1.5-13.8,2.4c-8.9,1.6-18,1.7-27,0.7
			c-4.5-0.5-9-1-13.7-1.3c4,2.5,8.7,3.7,13.3,4.5c10.4,1.6,21.2,1.4,31.6-0.8c7.6-1.7,15.6-2.6,23.3-1.4c2.6,0.5,8.8,2,9.4,4.8
			c0,0.2-0.2,0.4-0.4,0.6c-2.6,2.8-6,4.8-9.3,6.8c-5.9,3.5-12.3,6.4-18.2,9.9c-13.9,7.7-30.2,9.5-45.9,8.4
			c-13.6-0.9-27.1-3.7-40.2-7.6c-4.4-1.4-8.7-2.7-13.5-3c3.6,3.2,8,4.9,12.5,6.4c22.1,7.2,46,11.1,69,6.3c7.5-1.6,14.8-4.3,21.4-8.3
			c5.5-3.1,11.2-5.7,16.7-9c3.9-2.4,8.1-4.7,10.9-8.5C316.6,245.8,312.8,242.5,309.8,241.2z"/>
		<path class="st4" d="M147.5,238.3c-1.8-1.3-4-1.8-6.2-1.5c-2.2,0.4-4.1,1.6-5.4,3.4c-0.9,1.3-1.5,2.8-1.5,4.4
			c-1,1.8-2.7,2.3-2.7,2.3c1.5,0,2.5,0.6,3.2,1.2c0.6,1.5,1.6,2.8,2.9,3.8c1.5,1.1,3.2,1.6,4.9,1.6c2.6,0,5.2-1.2,6.8-3.5
			c0.8-1.1,1.2-2.2,1.4-3.5c1.5-2.2,3.9-2.9,3.9-2.9c-2-0.1-3.6-1.2-4.7-2.1C149.5,240.2,148.6,239.1,147.5,238.3z M147.7,248.7
			c-2,2.8-5.9,3.4-8.7,1.4c0,0,0,0,0,0c2,0.8,4.4,0.2,5.8-1.7c0.1-0.1,0.2-0.2,0.3-0.4c-0.8,0.1-1.6,0-2.3-0.5
			c-1.4-1-1.7-2.9-0.7-4.2c0.5-0.7,1.3-1.1,2.1-1.2c-0.2-0.1-0.3-0.3-0.5-0.4c-2.2-1.6-5.2-1.1-6.8,1.1c-0.1,0.1-0.1,0.2-0.2,0.2
			c0.2-0.6,0.5-1.1,0.9-1.7c1-1.4,2.4-2.3,4.1-2.5c0.3-0.1,0.7-0.1,1-0.1c1.3,0,2.6,0.4,3.6,1.2c1.4,1,2.3,2.4,2.5,4.1
			C149,245.7,148.7,247.4,147.7,248.7z"/>
	</g>
</g>
</svg>
