<?xml version="1.0" encoding="utf-8"?>
<!-- Generator: Adobe Illustrator 28.3.0, SVG Export Plug-In . SVG Version: 6.00 Build 0)  -->
<svg version="1.1" id="сingulata_00000110464602063810615110000017077149092575981234_"
	 xmlns="http://www.w3.org/2000/svg" xmlns:xlink="http://www.w3.org/1999/xlink" x="0px" y="0px" viewBox="0 0 490 183.388"
	 enable-background="new 0 0 490 183.388" xml:space="preserve">
<g id="сingulata">
	<g>
		<path fill="#FFCEA6" d="M264.436,47.007c2.208-21.268-1.996-31.065-5.912-35.538c-2.635-3.007-5.348-3.933-6.73-4.217
			l-0.076-0.016l-0.075,0.023c-30.908,9.385-48.501,28.011-57.818,41.983c-10.749,16.119-13.985,30.663-14.524,33.414l-0.014,0.071
			l0.019,0.069c0.851,3.143,8.998,31.078,32.68,43.89c7.993,4.323,16.889,6.485,26.615,6.485c8.825,0,18.334-1.78,28.469-5.342
			c1.566-0.553,3.294-1.036,5.285-1.475l0.575-0.127l-0.434-0.399C258.66,113.113,260.221,87.568,264.436,47.007z M244.656,128.811
			c-4.094,0.469-8.269,0.454-12.455-0.047l-0.002-0.001c-15.257-1.754-29.106-10.832-36.27-23.504
			c6.574,8.373,15.382,15.034,25.141,18.951C227.97,126.944,235.714,128.458,244.656,128.811z"/>
		<path fill="#FFCEA6" d="M412.069,70.088c-9.477-16.032-29.223-32.64-54.172-45.56l-0.684-0.354l0.253,0.728
			c2.206,6.339,4.981,19.797-1.217,38.711c-2.629,8.04-6.687,15.909-10.611,23.519l-0.037,0.072
			c-6.994,13.557-13.6,26.362-13.335,40.558l0.005,0.258l0.256,0.039c16.825,2.559,29.884,5.606,30.462,5.74
			c3.369,0.447,6.662,0.665,9.862,0.665c17.844-0.001,32.715-6.826,40.85-19.109C422.137,102.611,421.543,86.112,412.069,70.088z
			 M402.096,120.608c-0.107,0.112-0.216,0.222-0.328,0.331c-10.896,9.885-39.634,6.729-54.876,3.137
			c1.277,0.1,2.606,0.208,3.975,0.319c15.048,1.225,35.658,2.902,47.403-1.629C399.735,122.172,401.013,121.45,402.096,120.608z"/>
	</g>
	<g>
		<path fill="#D69A72" d="M276.966,49.923c5.346-32.134-10.125-43.634-13.281-45.613l-0.104-0.065l-0.12,0.024
			c-2.607,0.529-5.189,1.139-7.893,1.864l-0.747,0.201l0.682,0.366c1.588,0.854,3.042,2.019,4.323,3.463
			c6.108,6.881,8.274,19.342,6.436,37.039c-4.269,41.118-5.798,66.919,8.929,78.504l0.107,0.084l0.134-0.022
			c0.964-0.161,1.991-0.309,3.05-0.44l0.506-0.062l-0.292-0.418C267.786,109.234,270.931,86.204,276.966,49.923z"/>
		<path fill="#D69A72" d="M286.349,64.626l0.14-0.702c1.074-5.389,2.185-10.96,3.286-16.986
			c4.911-27.04-10.927-41.387-14.153-43.989l-0.09-0.073l-0.115,0.005c-3.007,0.124-5.88,0.39-8.54,0.789l-0.696,0.104l0.55,0.439
			c2.657,2.12,5,4.803,6.964,7.974c4.102,6.638,8.315,18.625,5.09,38.039c-6.038,36.283-9.181,59.349,1.973,74.356l-0.746,0.566
			l1.075-0.102c1.639-0.156,3.182-0.267,4.717-0.337l0.486-0.022l-0.228-0.429C277.592,108.369,281.265,90.021,286.349,64.626z"/>
		<path fill="#D69A72" d="M296.654,67.451c1.872-6.369,3.807-12.956,5.089-19.546c4.742-24.374-9.801-41.42-12.764-44.589
			l-0.08-0.086l-0.118-0.01c-3.345-0.284-6.611-0.415-9.699-0.419l-0.766,0.001l0.555,0.528c2.67,2.538,5.04,5.49,7.045,8.776
			c4.236,6.955,8.658,18.701,5.668,35.164c-1.163,6.388-2.367,12.409-3.43,17.72c-5.296,26.453-8.794,43.93,0.12,59.461l0.091,0.159
			l0.184-0.005c1.878-0.054,3.873-0.067,5.929-0.043l0.477,0.006l-0.192-0.436C285.909,104.042,291.372,85.44,296.654,67.451z"/>
		<path fill="#D69A72" d="M311.075,56.872c9.719-29.976-4.527-48.165-7.483-51.505l-0.069-0.079l-0.103-0.02
			c-3.782-0.72-7.507-1.29-11.071-1.691l-0.75-0.085l0.478,0.584c4.876,5.953,15.756,22.174,11.475,44.178
			c-1.294,6.642-3.235,13.253-5.112,19.647l-0.019,0.064c-5.528,18.825-10.749,36.606-1.5,56.469l0.08,0.173l0.19,0.005
			c1.555,0.04,3.173,0.104,4.946,0.195l0.44,0.023l-0.131-0.421C296.909,106.693,300.817,88.516,311.075,56.872z"/>
		<path fill="#D69A72" d="M317.788,69.071c3.23-8.891,6.28-17.288,7.056-25.417c1.868-19.529-6.425-32.083-9.011-35.465
			l-0.064-0.083l-0.101-0.027c-2.862-0.766-5.706-1.452-8.454-2.041l-0.795-0.17l0.485,0.653c1.633,2.2,3.984,5.873,5.914,10.878
			c3.222,8.338,5.84,22.052,0.013,40.039c-10.271,31.676-14.14,49.828-8.346,67.314l0.065,0.197l0.207,0.013
			c1.649,0.099,3.341,0.224,5.173,0.38l0.417,0.035l-0.091-0.408C305.392,103.174,311.971,85.076,317.788,69.071z"/>
		<path fill="#D69A72" d="M330.495,66.897l1.277-2.811c11.619-25.595,0.833-47.3-1.448-51.392l-0.056-0.102l-0.11-0.038
			c-3.599-1.263-7.217-2.421-10.752-3.442l-0.783-0.226l0.44,0.686c3.539,5.527,9.234,17.328,7.612,34.257
			c-0.793,8.361-3.885,16.869-7.17,25.905c-5.793,15.926-12.358,33.978-7.283,55.599l0.05,0.215l0.22,0.02
			c1.656,0.153,3.305,0.325,4.949,0.503l0.422,0.046l-0.089-0.415C313.272,104.678,321.636,86.332,330.495,66.897z"/>
		<path fill="#D69A72" d="M343.961,86.361c3.903-7.567,7.94-15.392,10.539-23.326c7.114-21.719,1.964-36.14,0.215-40.042
			l-0.045-0.101l-0.099-0.049c-2.913-1.444-5.891-2.838-8.85-4.142l-1.254-0.552l0.355,0.749c3.37,7.111,7.937,22.555,0.653,46.088
			c-2.127,6.887-5.2,12.368-8.194,17.711c-6.188,11.032-12.034,21.457-10.354,43.905l-1.829,0.146l-0.009-0.12
			c-1.695-22.945,4.548-34.074,10.607-44.874c2.924-5.214,5.947-10.606,8.02-17.311c8.562-27.664-0.143-44.317-1.976-47.374
			l-0.052-0.087l-0.094-0.038c-2.678-1.119-5.389-2.186-8.058-3.171l-0.707-0.261l0.324,0.681
			c3.581,7.537,10.778,27.561,0.292,50.654l-1.277,2.817c-8.833,19.376-17.176,37.679-12.412,58.467l0.049,0.212l0.215,0.025
			c1.55,0.179,3.138,0.376,4.72,0.588l0.375,0.05l0-0.004l1.632,0.224c1.117,0.153,2.226,0.307,3.318,0.466l0.354,0.052
			l-0.003-0.358C330.29,112.844,337.24,99.381,343.961,86.361z"/>
		<path fill="#D69A72" d="M414.181,68.837c0.176,0.291,0.34,0.583,0.503,0.879l0.113,0.205l0.228-0.055
			c5.507-1.324,23.357-6.843,21.82-22.265c-0.49-4.982-0.286-12.26-0.12-16.154l0.025-0.6l-0.501,0.331
			c-19.616,12.932-24.433,28.011-25.442,32.323l-0.031,0.135l0.08,0.113C412.07,65.45,413.189,67.161,414.181,68.837z
			 M431.699,41.361l0.079,1.301c0.189,3.046,0.333,6.645,0.406,10.097c-0.345,3.502-5.104,6.746-9.185,8.908
			c0.861-0.679,1.728-1.388,2.578-2.127c1.382-1.196,3.121-2.794,4.323-4.566c0.367-0.572,0.718-1.202,0.801-1.923
			c0.028-0.213-0.043-1.059-0.203-2.756c-0.049-0.524-0.09-0.953-0.097-1.098c-0.134-1.518-0.24-3.062-0.343-4.561l-0.035-0.502
			l-0.43,0.26c-2.886,1.741-5.34,4.546-7.515,7.031c-2.064,2.454-4.025,5.052-5.887,7.598c2.461-5.169,7.553-14.158,14.33-17.171
			L431.699,41.361z"/>
		<path fill="#D69A72" d="M480.195,128.71l3.8-2.689l-0.539-0.204c-4.49-1.702-8.441-4.35-11.429-7.661
			c-5.059-5.471-7.923-12.127-10.06-17.922c-1.94-5.077-4.328-9.687-7.099-13.702c-5.261-7.648-12.137-13.435-19.885-16.736
			c-2.92-1.229-5.514-1.999-7.915-2.35l0.104-0.4l-0.626,0.345c-3.916,2.157-7.844,3.422-10.45,4.103l-0.373,0.097l0.178,0.342
			c8.257,15.839,8.2,32.159-0.156,44.776c-1.672,2.528-3.684,4.898-5.981,7.047l-0.55,0.515l0.753,0.016
			c2.719,0.056,7.98,0.062,17.599-0.239c4.717-0.137,9.621,2.266,14.849,4.822c5.18,2.535,10.526,5.152,15.437,4.881l1.102-0.062
			l-0.976-0.516c-5.136-2.716-9.976-6.419-14.406-11.018c3.7,1.625,7.19,3.487,10.612,5.657c5.637,4.41,10.88,6.412,17.043,6.412
			c1.015,0,2.057-0.055,3.128-0.161c3-0.34,5.612-0.951,7.764-1.819l0.558-0.225l-0.509-0.32
			C480.946,130.93,480.364,129.277,480.195,128.71z"/>
		<path fill="#D69A72" d="M179.009,81.284c0,0,13.591,29.363,33.272,39.608c13.989,7.282,22.836,13.217,55.408,3.192
			s95.171,6.545,95.171,6.545s35.931,9.051,54.622-22.779c0,0-1.484,5.845-1.222,6.894c0.262,1.049-10.807,12.073-12.642,12.335
			c-0.536,0.077-9.212,7.077-19.731,8.05c-17.296,1.6-77.386-13.871-100.357-8.745c-38.873,8.674-48.174,10.691-63.236,5.682
			c-13.401-4.456-32.909-22.185-35.367-32.438c-0.661-2.758-7.16-16.489-7.16-16.489L179.009,81.284z"/>
		<path fill="#D69A72" d="M179.601,87.074c0,0-5.175,27.196-46.293,54.392c0,0-42.14,24.213-73.447,29.075l-47.574,9.312
			l8.445,1.689c0,0,56.035,1.768,83.032-7.26c0,0,43.812-13.676,56.154-22.173s41.124-31.031,41.124-31.031
			S181.34,97.239,179.601,87.074z"/>
		<path fill="#D69A72" d="M244.01,48.693c-11.327-5.256-25.747-3-34.868,5.53s-12.329,22.827-7.645,34.403
			s16.993,19.634,29.473,19.209c9.138-0.311,18.885-6.197,20.047-15.267c-3.802,3.51-9.427,4.192-14.592,3.866
			c-2.978-0.188-6.046-0.693-8.529-2.347s-4.232-4.708-3.577-7.619c0.655-2.911,4.289-4.984,6.857-3.465
			c1.233,1.083,0.84,3.441-0.679,4.065c4.342,0.694,9.286,1.237,12.677-1.563c2.424-2.001,3.424-5.561,2.397-8.532
			c-1.027-2.97-4.012-5.152-7.154-5.229C253.553,72.114,258.177,55.267,244.01,48.693z"/>
		<path fill="#D69A72" d="M367.495,73.049c2.795-1.644,6.004-2.302,9.18-2.481c6.809-0.384,13.931,1.505,19.071,6.363
			c5.14,4.858,8.389,11.351,7.344,19.926c-0.641,5.261-3.946,10.601-9.394,14.415c-4.098,2.869-26.59,7.41-32.031-7.788
			c-1.096-3.06-0.903-6.855,1.232-9.195c3.744,12.616,15.271,8.715,17.48,6.396c2.239-2.349,2.484-6.481,0.713-9.251
			c-3.303-5.167-9.619-1.998-9.779-2.226c-1.377-1.972-0.982-4.961,0.495-6.846c1.477-1.885,3.789-2.795,6.06-3.035
			c-5.314-4.828-13.354-0.768-16.002,0.517C362.472,76.92,365.162,74.421,367.495,73.049z"/>
		<path fill="#D69A72" d="M235.622,142.168c5.588-2.619,10.153-4.963,13.571-6.967l1.335-0.783l-1.533,0.215
			c-14.176,1.983-26.989-0.057-38.08-6.06c-1.28-0.694-2.556-1.451-3.791-2.247l-0.306-0.197l-0.143,0.334
			c-3.96,9.245-4.637,17.011-2.009,23.091c1.28,2.695,2.484,5.516,3.647,8.243c0.722,1.691,1.468,3.44,2.219,5.126
			c1.384,3.047,2.972,6.221,5.196,8.795c6.156,7.136,16.215,7.689,25.178,7.631l0.666-0.004l-0.436-0.504
			c-0.2-0.231-0.398-0.465-0.596-0.698c-0.606-0.713-1.233-1.452-1.904-2.122c-1.623-1.623-3.219-2.794-4.945-3.618
			c0.038-0.001,0.076-0.001,0.113-0.001c4.233,0,8.329,2.727,10.687,5.676c0.216,0.263,0.438,0.623,0.662,1.072l0.084,0.168
			l5.02,0.05l-0.274-0.468c-2.08-3.544-6.682-9.768-14.135-11.632c-6.617-1.65-11.388-6.115-11.873-11.111
			C223.676,153.108,224.791,147.241,235.622,142.168z"/>
		<path fill="#D69A72" d="M381.964,178.898c-2.08-3.543-6.682-9.766-14.142-11.632c-6.459-1.614-10.872-5.467-11.518-10.057
			c-0.502-3.607,1.034-9.137,11.204-14.999c3.158-1.82,5.887-3.523,8.11-5.059l0.864-0.596l-1.049,0.037
			c-0.768,0.028-1.68,0.056-2.616,0.056c-3.312,0-6.712-0.23-10.083-0.681l-0.14-0.029c-0.083-0.019-8.515-1.976-20.744-4.097
			l-0.182-0.032l-0.113,0.146c-4.075,5.263-3.659,9.497-2.487,15.859c0.331,1.458,0.635,2.998,0.957,4.629
			c1.537,7.79,3.279,16.619,9.06,21.453c4.868,4.001,11.666,4.948,17.675,5.347c1.58,0.092,3.244,0.137,5.056,0.137
			c0.437,0,0.882-0.002,1.337-0.008l0.651-0.008l-0.542-0.641c-1.982-2.349-4.033-4.778-6.97-6.127
			c-0.098-0.047-0.199-0.094-0.303-0.14c0.734,0.043,1.485,0.17,2.223,0.378c3.119,0.936,6.024,2.826,8.171,5.312
			c0.271,0.338,0.509,0.674,0.728,1.026l0.089,0.143l5.037,0.05L381.964,178.898z"/>
	</g>
	<g>
		<path fill="#AD704E" d="M212.426,166.852c0,0,7.684,11.434,37.296,10.044l2.81,3.554h-24.653l-11.589-5.254L212.426,166.852z"/>
		<path fill="#AD704E" d="M343.658,166.852c0,0,7.684,11.434,37.296,10.044l2.81,3.554H359.11l-11.589-5.254L343.658,166.852z"/>
		<path fill="#AD704E" d="M205.69,128.911c0,0,10.303,11.494,40.859,9.507l5.278-4.307l-11.965,0.267l-17.886-2.569l-15.172-6.66
			L205.69,128.911z"/>
		<path fill="#AD704E" d="M339.949,134.378c0,0,21.741,6.152,34.039,5.237l4.241-4.368c0,0-17.227-0.077-17.22-0.235
			c0.007-0.158-19.587-4.37-19.587-4.37L339.949,134.378z"/>
		<path fill="#AD704E" d="M20.851,179.795c0,0,55.347,0.114,99.158-15.378s77.258-47.551,77.258-47.551l3.775,4.211
			c0,0-31.202,29.525-62.297,41c0,0-42.219,16.612-60.893,17.189c-18.674,0.578-28.868,2.144-28.868,2.144
			S22.206,182.68,20.851,179.795z"/>
		<path fill="#AD704E" d="M414.818,61.564c0,0,7.678-9.278,11.949-9.493c4.27-0.215-6.308,11.206-6.308,11.206
			s8.588-4.795,10.355-8.286c1.767-3.492,0-11.872,0-11.872l-6.827,4.801L414.818,61.564z"/>
		<path fill="#AD704E" d="M410.775,121.749c0,0,22.521-2.71,31.647,3.969s15.379,6.09,15.379,6.09l3.424,2.062l-7.194,1.304
			l-10.213-4.533c0,0-7.99-5.378-18.976-4.924c-10.986,0.454-19.083,0-19.083,0L410.775,121.749z"/>
		<path fill="#AD704E" d="M485.617,125.15c0,0-13.252-5.735-16.716-13.483c-3.467-7.748-13.592-29.369-15.566-30.384
			c-1.971-1.015-10.144-8.253-10.144-8.253l-16.139-8.012l-11.977,4.499l4.551,15.645v17.336c0,0,18.931-2.798,30.924,11.71
			c14.548,17.599,36.903,14.943,36.903,14.943L485.617,125.15z M446.015,102.452c-1.091,0.745-2.356,1.229-3.708,1.394
			c-0.359,0.049-0.712,0.072-1.061,0.072c-1.865,0-3.671-0.616-5.168-1.786c-1.78-1.381-2.913-3.378-3.187-5.613
			c-0.218-1.697,0.082-3.372,0.84-4.861c-0.059-0.89-0.353-2.02-1.292-3.045l3.925-0.016c1.124-0.801,2.439-1.322,3.853-1.503
			c2.238-0.274,4.453,0.336,6.229,1.72c1.78,1.384,2.917,3.378,3.197,5.616c0.178,1.46-0.023,2.907-0.564,4.235
			c0.046,1.374,0.379,3.217,1.628,4.7C450.599,103.303,448.523,102.109,446.015,102.452z"/>
		<path fill="#D69A72" d="M450.708,103.365c-0.109-0.063-2.185-1.256-4.693-0.913c-1.091,0.745-2.356,1.229-3.708,1.394
			c-0.359,0.049-0.712,0.072-1.061,0.072c-1.865,0-3.671-0.616-5.168-1.786c-1.78-1.381-2.913-3.378-3.187-5.613
			c-0.218-1.697,0.082-3.372,0.84-4.861c-0.059-0.89-0.353-2.02-1.292-3.045l3.925-0.016c1.124-0.801,2.439-1.322,3.853-1.503
			c2.238-0.274,4.453,0.336,6.229,1.72c1.78,1.384,2.917,3.378,3.197,5.616c0.178,1.46-0.023,2.907-0.564,4.235
			C449.126,100.04,449.459,101.882,450.708,103.365z"/>
		<path fill="#AD704E" d="M431.465,64.079l-0.651,0.539l0.846,0.004c0.025,0,0.05,0,0.076,0c2.8,0,7.317-0.69,13.064-3.937
			c6.524-3.686,8.534-13.203,9.151-18.547l0.08-0.697l-0.566,0.414c-5.852,4.278-12.064,5.878-14.463,6.367l-0.258,0.053
			l0.013,0.263C439.04,54.607,436.587,59.836,431.465,64.079z"/>
	</g>
	<g>
		<path fill="#FFFFFF" d="M356.701,159.876c0,0,1.605,5.96,9.415,8.81c7.81,2.85,14.064,8.243,14.064,8.243l3.139,2.451
			c0,0-4.516-8.599-7.377-9.752s-9.932-4.109-9.932-4.109l-5.869-4.433L356.701,159.876z"/>
		<path fill="#FFFFFF" d="M224.652,159.876c0,0,1.605,5.96,9.415,8.81c7.81,2.85,14.064,8.243,14.064,8.243l3.139,2.451
			c0,0-4.516-8.599-7.377-9.752c-2.861-1.154-9.932-4.109-9.932-4.109l-5.869-4.433L224.652,159.876z"/>
		<path fill="#FFFFFF" d="M415.546,53.031c0,0,12.561-14.661,18.432-17.238l2.157,21.62l1.852-7.028V29.064l-11.221,8.018
			l-11.221,13.373V53.031z"/>
		<path fill="#FFFFFF" d="M17.728,179.964c0,0,40.828-1.774,82.765-18.234s67.891-39.639,82.124-67.107l-2.398-4.741
			c0,0-4.77,9.659-14.273,21.318c-10.039,12.317-25.255,26.879-41.706,35.17c-19.546,9.851-45.758,19.312-68.667,24.544
			C40.709,174.31,27.552,179.49,17.728,179.964z"/>
		<path fill="#FFFFFF" d="M423.208,68.238c0,0,18.632,1.029,30.822,20.213c8.827,13.89,10.578,26.505,18.084,32.156
			c6.262,4.714,11.348,5.446,11.348,5.446v-1.598c0,0-13.035-4.6-16.673-16.606c-3.638-12.005-12.76-23.473-12.76-23.473
			s-13.515-18.868-27.264-18.034L423.208,68.238z"/>
		<path fill="#FFFFFF" d="M179.601,82.716c0,0,28.731-91.766,123.085-74.778c72.065,12.975,113.507,61.631,116.941,84.997
			l1.878-4.438c0,0-6.377-22.641-17.219-31.356s-31.824-26.293-31.824-26.293S326.94,4.184,303.011,3.493
			c-23.929-0.691-45.783-2.252-63.22,5.913s-32.603,21.442-32.603,21.442S174.933,67.94,179.601,82.716z"/>
		<path fill="#FFFFFF" d="M437.258,91.207c0,0,3.47-3.27,7.283-1.126s2.754,6.168,2.754,6.168s-1.1,4.627-4.521,5.189
			s-5.655-1.807-6.021-2.121s-1.319-4.056-1.319-4.056L437.258,91.207z"/>
	</g>
	<path fill="#231F20" d="M398.27,122.433c-13.727,5.296-39.579,2.066-54.7,1.035c14.455,4.011,46.777,8.315,58.53-2.35
		c0.976-0.949,1.793-2.063,2.307-3.292C402.891,120.03,400.65,121.474,398.27,122.433z M221.307,123.88
		c-10.955-4.4-20.506-12.112-27.21-21.838c6.723,14.884,22.118,25.13,38.185,26.979c5.379,0.646,10.82,0.491,16.083-0.481
		C239.072,128.484,229.926,127.294,221.307,123.88z M432.2,42.596l-0.099-1.73l-1.579,0.656
		c-7.096,3.154-12.814,13.134-15.704,20.042c2.452-3.408,4.927-6.789,7.617-9.986c2.188-2.505,4.584-5.247,7.439-6.967
		c0.099,1.523,0.204,3.042,0.339,4.561c0.02,0.402,0.346,3.464,0.303,3.793c-0.076,0.639-0.382,1.213-0.755,1.796
		c-1.104,1.628-2.666,3.115-4.265,4.502c-1.608,1.397-3.309,2.712-5.039,4.014c3.873-1.783,11.693-5.87,12.152-10.537
		C432.54,49.455,432.405,45.859,432.2,42.596z M398.27,122.433c-13.727,5.296-39.579,2.066-54.7,1.035
		c14.455,4.011,46.777,8.315,58.53-2.35c0.976-0.949,1.793-2.063,2.307-3.292C402.891,120.03,400.65,121.474,398.27,122.433z
		 M221.307,123.88c-10.955-4.4-20.506-12.112-27.21-21.838c6.723,14.884,22.118,25.13,38.185,26.979
		c5.379,0.646,10.82,0.491,16.083-0.481C239.072,128.484,229.926,127.294,221.307,123.88z M432.2,42.596l-0.099-1.73l-1.579,0.656
		c-7.096,3.154-12.814,13.134-15.704,20.042c2.452-3.408,4.927-6.789,7.617-9.986c2.188-2.505,4.584-5.247,7.439-6.967
		c0.099,1.523,0.204,3.042,0.339,4.561c0.02,0.402,0.346,3.464,0.303,3.793c-0.076,0.639-0.382,1.213-0.755,1.796
		c-1.104,1.628-2.666,3.115-4.265,4.502c-1.608,1.397-3.309,2.712-5.039,4.014c3.873-1.783,11.693-5.87,12.152-10.537
		C432.54,49.455,432.405,45.859,432.2,42.596z M489.217,125.808c-0.732-0.824-1.539-1.186-2.419-1.582
		c-2.073-0.863-4.14-1.585-6.051-2.66c-7.729-4.215-12.283-12.135-15.395-20.223c-2.093-5.741-4.696-11.321-8.193-16.36
		c-5.576-8.088-13.552-14.992-22.856-18.394c2.976-0.349,6.944-1.407,11.674-4.083c9.943-5.619,10.454-22.438,10.471-23.153
		l0.066-2.788l-2.099,1.836c-5.777,5.056-12.629,6.987-15.421,7.6c-0.471-6.76,0.109-16.746,0.115-16.851l0.138-2.363l-2.01,1.246
		c-19.761,12.234-26.033,26.775-27.892,32.971c-12.939-16.693-35.522-33.04-62.392-44.878C316.16,2.562,284.827-2.909,263.137,1.491
		c-38.903,7.89-60.349,29.464-71.488,46.17c-12.076,18.11-14.9,34.134-15.016,34.807l-0.053,0.313l0.076,0.31
		c0.079,0.326,0.633,2.511,1.829,5.824c-29.547,66.433-120.17,81.531-158.988,87.994c-4.067,0.679-7.58,1.262-10.54,1.816L0,180.402
		l9.011,1.348c0.181,0.026,11.265,1.638,28.65,1.638c10.965,0,24.441-0.639,39.262-2.726c22.517-3.164,43.715-8.991,63.008-17.313
		c23.304-10.052,43.863-23.802,61.173-40.874c1.048,0.877,2.139,1.727,3.269,2.548c-2.65,5.978-4.354,12.333-3.948,18.977
		c0.152,1.879,0.521,3.767,1.183,5.583c0.629,1.658,1.496,3.306,2.195,4.937c1.424,3.203,2.742,6.476,4.212,9.749
		c2.178,4.904,5.138,10.191,9.887,13.252c7.847,4.963,17.53,4.96,26.567,4.746v0.013l10.131,0.105l-0.92-2.159
		c-0.214-0.511-5.438-12.494-17.164-15.428c-5.402-1.348-9.429-4.927-9.795-8.698c-0.389-4.011,3.187-7.996,10.072-11.225
		c13.704-6.42,18.09-9.66,19.494-11.061c3.843-0.87,7.785-2.014,11.815-3.431c16.64-5.85,48.299-2.264,70.348,1.397
		c-0.31,0.451-0.613,0.91-0.896,1.397c-2.834,4.594-2.152,10.329-1.203,15.342c2.946,13.77,4.146,28.311,20.285,32.239
		c6.503,1.651,13.16,1.707,19.788,1.519l10.154,0.105l-0.919-2.159c-0.218-0.511-5.438-12.494-17.168-15.428
		c-5.267-1.315-8.978-4.364-9.452-7.762c-0.547-3.905,2.95-8.246,9.848-12.221c7.389-4.255,10.883-6.99,12.231-8.154
		c4.841-0.59,9.456-1.701,13.717-3.332c4.367-1.668,8.332-3.863,11.815-6.496c2.702,0.29,10.167,0.267,21.119-0.072
		c4.001-0.138,8.645,2.139,13.546,4.535c5.26,2.574,10.649,5.214,15.922,5.214c1.816,0,3.619-0.32,5.398-1.058
		c3.889,1.249,8.061,1.585,12.095,1.187c4.495-0.465,12.939-2.422,14.953-6.99C490.166,128.51,490.16,126.79,489.217,125.808z
		 M439.184,48.476c2.498-0.508,8.694-2.116,14.584-6.417c-0.564,4.825-2.495,14.633-9.001,18.311
		c-5.801,3.279-10.309,3.912-12.989,3.896C436.139,60.657,439.51,55.558,439.184,48.476z M436.541,31.39
		c-0.165,3.767-0.382,11.146,0.122,16.192c1.523,15.342-16.766,20.777-21.591,21.937c-0.168-0.297-0.333-0.593-0.508-0.887
		c-1.005-1.701-2.126-3.405-3.342-5.108C412.103,59.774,416.789,44.405,436.541,31.39z M20.852,179.795
		c3.207-0.534,6.746-1.127,10.553-1.799c-0.043,0.353-0.063,0.722-0.02,1.114c0.046,0.396,0.142,0.778,0.28,1.147
		C27.562,180.168,23.927,179.993,20.852,179.795z M40.624,180.306c-2.116,0.023-4.146,0.02-6.087-0.003
		c-0.943-1.074-0.814-2.093-0.527-2.772c2.159-0.389,4.387-0.801,6.687-1.243C40.294,177.568,40.142,179.001,40.624,180.306z
		 M43.478,180.26c-1.322-1.322-0.484-3.428,0.115-4.538c1.74-0.346,3.513-0.709,5.319-1.088c-0.412,1.598-0.662,3.691,0.072,5.458
		C47.097,180.168,45.261,180.224,43.478,180.26z M51.829,179.964c-1.486-1.516-0.699-4.453-0.168-5.916
		c1.299-0.28,2.61-0.57,3.935-0.87c-0.422,1.546-0.682,3.55-0.04,5.372c0.148,0.419,0.336,0.804,0.56,1.163
		C54.664,179.809,53.233,179.894,51.829,179.964z M59.274,179.489c-0.679-0.445-1.14-1.022-1.401-1.75
		c-0.633-1.786,0.049-4.021,0.521-5.207c1.147-0.27,2.307-0.547,3.474-0.831c-0.58,2.093-0.946,5.066,0.478,7.534
		C61.311,179.328,60.286,179.413,59.274,179.489z M65.227,178.968c-2.32-2.33-1.193-6.262-0.537-7.969
		c1.272-0.32,2.554-0.656,3.843-0.995c-0.616,2.287-1.008,5.649,0.669,8.543C67.863,178.698,66.538,178.84,65.227,178.968z
		 M71.98,178.22c-2.472-2.92-1.282-7.195-0.62-8.978c0.979-0.267,1.961-0.54,2.943-0.817c-0.396,2.35-0.537,5.985,1.262,9.327
		C74.362,177.917,73.166,178.072,71.98,178.22z M78.205,177.376c-2.36-3.51-1.684-7.864-1.229-9.723
		c1.163-0.339,2.333-0.689,3.507-1.048c-0.257,2.683-0.293,7.112,1.661,10.161C80.812,176.981,79.5,177.189,78.205,177.376z
		 M84.912,176.299c-2.406-2.363-2.271-7.617-1.872-10.487c1.434-0.455,2.871-0.916,4.308-1.394
		c-0.142,2.805,0.125,7.551,2.953,10.886C88.475,175.659,86.679,175.992,84.912,176.299z M93.201,174.713
		c-3.675-2.937-3.546-8.79-3.322-11.156c1.714-0.587,3.428-1.2,5.141-1.826c-0.409,2.897-0.231,7.593,3.698,11.769
		C96.856,173.932,95.017,174.334,93.201,174.713z M101.556,172.828c-5.237-4.538-4.426-10.019-3.863-12.099
		c1.747-0.662,3.494-1.348,5.237-2.06c-0.115,3.124,0.409,8.529,4.621,12.613C105.534,171.83,103.533,172.344,101.556,172.828z
		 M110.395,170.495c-5.29-4.044-5.194-10.441-4.934-12.873c1.572-0.662,3.121-1.341,4.654-2.027
		c-0.359,3.207,0.165,8.483,5.712,13.289C114.004,169.447,112.194,169.984,110.395,170.495z M118.634,167.997
		c-7.244-5.398-6.423-11.479-5.83-13.631c1.618-0.755,3.213-1.523,4.785-2.304c0.026,3.424,0.982,9.489,6.651,14.043
		C122.362,166.764,120.49,167.397,118.634,167.997z M127.019,165.106c-7.069-4.706-7.172-11.779-6.957-14.3
		c1.638-0.847,3.256-1.704,4.838-2.581c0.148,3.757,1.275,10.715,7.149,14.973C130.367,163.857,128.69,164.497,127.019,165.106z
		 M134.843,162.077c-7.116-3.998-7.57-12.382-7.504-15.233c1.549-0.89,3.072-1.796,4.565-2.716
		c0.158,3.909,1.364,11.156,7.623,15.968C137.964,160.779,136.402,161.438,134.843,162.077z M142.13,158.937
		c-7.462-4.822-7.87-13.49-7.788-16.337c1.585-1.015,3.131-2.053,4.65-3.105c0.158,4.192,1.549,11.917,9.073,16.647
		C146.085,157.111,144.107,158.043,142.13,158.937z M150.702,154.827c-9.235-4.789-9.442-14.165-9.268-17.059
		c1.361-0.982,2.703-1.974,4.008-2.986c0.445,4.413,2.386,12.83,10.533,17.27C154.219,153.011,152.462,153.934,150.702,154.827z
		 M158.592,150.602c-9.851-4.281-10.78-14.557-10.83-17.659c1.348-1.091,2.66-2.202,3.948-3.329
		c0.514,5.118,2.792,13.938,12.109,17.939C162.083,148.604,160.339,149.619,158.592,150.602z M166.469,145.922
		c-11.133-3.639-12.399-14.281-12.458-18.364c1.239-1.137,2.455-2.284,3.635-3.454c0.185,4.868,2.304,13.183,13.348,18.895
		C169.491,144,167.982,144.972,166.469,145.922z M173.338,141.416c-13.925-6.522-13.579-16.953-13.167-19.897
		c1.45-1.526,2.848-3.075,4.199-4.654c0.933,5.148,4.159,14.9,15.273,20.035C177.553,138.463,175.45,139.966,173.338,141.416z
		 M181.88,135.2c-13.354-5.415-15.161-17.563-15.401-20.875c1.411-1.75,2.762-3.533,4.054-5.342
		c1.078,5.669,4.726,16.284,16.973,21.709C185.644,132.244,183.769,133.744,181.88,135.2z M189.605,128.909
		c-14.795-5.863-16.772-19.366-17.036-22.886c1.229-1.849,2.403-3.728,3.51-5.639c1.579,6.1,6.1,18.041,18.074,24.484
		C192.647,126.249,191.135,127.597,189.605,128.909z M196.055,123.098c-13.78-6.974-17.458-22.194-18.17-25.944
		c0.751-1.404,1.463-2.828,2.149-4.265c3.233,7.732,9.08,18.644,18.766,27.569C197.891,121.352,196.975,122.228,196.055,123.098z
		 M235.492,142.099c-10.995,5.155-12.128,11.173-11.825,14.3c0.498,5.118,5.362,9.693,12.105,11.38
		c7.409,1.852,11.977,8.131,13.948,11.489l-4.291-0.046c-0.218-0.428-0.452-0.824-0.702-1.127c-2.824-3.533-7.699-6.348-12.31-5.688
		c2.373,0.896,4.265,2.307,6.002,4.044c0.88,0.877,1.671,1.856,2.485,2.805c-8.899,0.049-18.924-0.55-24.946-7.524
		c-2.146-2.492-3.708-5.563-5.148-8.727c-1.951-4.377-3.787-8.984-5.863-13.371c-3.101-7.172-1.038-15.717,2.014-22.84
		c1.223,0.791,2.492,1.549,3.81,2.261c11.186,6.058,24.003,8.088,38.27,6.091C246.23,136.796,241.962,139.066,235.492,142.099z
		 M267.089,127.492c-21.218,7.458-39.668,7.083-54.835-1.124c-23.499-12.708-31.653-40.452-32.536-43.699
		c0.461-2.327,3.711-17.194,14.557-33.419c9.627-14.396,27.19-32.516,57.574-41.744c1.348,0.277,3.991,1.18,6.562,4.12
		c3.876,4.423,8.035,14.139,5.837,35.304c-4.186,40.287-5.735,66.308,8.157,79.079C270.517,126.421,268.734,126.912,267.089,127.492
		z M275.496,125.415c-14.58-11.469-13.058-37.321-8.806-78.232c1.846-17.784-0.346-30.324-6.516-37.272
		c-1.493-1.684-3.026-2.788-4.406-3.526c2.541-0.682,5.158-1.312,7.87-1.865c3.53,2.211,18.423,13.582,13.147,45.307
		c-6.021,36.194-9.182,59.459,1.776,75.147C277.517,125.106,276.495,125.251,275.496,125.415z M281.178,124.69l0.129-0.096
		c-11.295-14.897-8.157-37.964-2.103-74.366c3.246-19.504-0.999-31.564-5.132-38.251c-2.419-3.915-5.056-6.483-7.033-8.052
		c2.706-0.405,5.55-0.666,8.513-0.784c3.721,2.986,18.888,17.009,14.037,43.695c-1.144,6.285-2.3,12.079-3.424,17.685
		c-5.072,25.351-8.773,43.853-0.254,59.831C284.296,124.433,282.717,124.545,281.178,124.69z M288.66,124.252
		c-8.856-15.431-5.366-32.882-0.086-59.248c1.124-5.616,2.284-11.42,3.431-17.728c3.009-16.558-1.44-28.377-5.705-35.373
		c-2.469-4.051-5.118-6.964-7.102-8.839c3.118-0.007,6.348,0.135,9.676,0.419c3.18,3.398,17.385,20.187,12.689,44.318
		c-1.279,6.562-3.213,13.147-5.082,19.514c-5.3,18.058-10.771,36.715-1.879,56.895C292.588,124.183,290.604,124.199,288.66,124.252z
		 M297.321,124.259c-9.195-19.748-3.994-37.486,1.516-56.252c1.885-6.42,3.836-13.061,5.135-19.738
		c4.288-22.022-6.45-38.221-11.538-44.43c3.592,0.405,7.28,0.966,11.047,1.684c3.108,3.51,17.062,21.475,7.425,51.206
		c-10.24,31.583-14.182,49.974-8.632,67.728C300.61,124.371,298.959,124.305,297.321,124.259z M304.895,124.605
		c-5.764-17.392-1.902-35.509,8.345-67.118c5.86-18.074,3.227-31.863-0.013-40.248c-1.908-4.934-4.209-8.589-5.959-10.949
		c2.782,0.597,5.596,1.279,8.437,2.037c2.271,2.979,10.823,15.665,8.955,35.248c-0.775,8.101-3.826,16.495-7.056,25.377
		c-5.827,16.027-12.409,34.157-7.528,56.035C308.345,124.842,306.618,124.713,304.895,124.605z M312.64,125.214
		c-5.049-21.521,1.493-39.526,7.274-55.422c3.283-9.037,6.387-17.57,7.191-25.984c1.631-17.105-4.179-29.003-7.666-34.447
		c3.55,1.025,7.132,2.172,10.738,3.434c2.356,4.232,12.969,25.714,1.437,51.117l-1.279,2.805
		c-8.869,19.458-17.263,37.872-12.745,59.001C315.949,125.537,314.297,125.369,312.64,125.214z M320.18,126.012
		c-4.739-20.681,3.579-38.953,12.389-58.276l1.279-2.808c10.527-23.186,3.335-43.27-0.297-50.916
		c2.679,0.992,5.366,2.047,8.052,3.167c2.099,3.487,10.408,19.765,1.941,47.126c-2.07,6.687-5.092,12.079-8.015,17.293
		c-6.064,10.807-12.326,21.986-10.626,45.004C323.344,126.397,321.769,126.2,320.18,126.012z M326.91,126.872l0.468-0.036
		c-1.753-22.566,4.097-32.997,10.289-44.038c2.989-5.326,6.077-10.83,8.223-17.767c7.409-23.94,2.508-39.605-0.669-46.309
		c0.165,0.072,0.33,0.142,0.494,0.214c3.006,1.322,5.952,2.706,8.839,4.136c1.526,3.411,6.931,17.972-0.224,39.823
		c-2.591,7.907-6.625,15.721-10.523,23.278c-6.743,13.068-13.707,26.567-13.579,41.167
		C329.135,127.182,328.028,127.024,326.91,126.872z M367.356,142.161c-10.322,5.946-11.871,11.604-11.354,15.302
		c0.659,4.716,5.161,8.668,11.746,10.316c7.412,1.852,11.98,8.131,13.951,11.489l-4.331-0.046c-0.227-0.376-0.475-0.715-0.748-1.058
		c-2.175-2.518-5.132-4.449-8.319-5.412c-1.285-0.359-2.63-0.494-3.909-0.346c0.616,0.194,1.203,0.412,1.763,0.676
		c2.94,1.351,4.967,3.797,6.994,6.199c-2.132,0.02-4.258-0.013-6.371-0.135c-6.104-0.402-12.712-1.341-17.501-5.273
		c-6.891-5.764-7.996-17.494-9.91-25.918c-1.223-6.628-1.424-10.622,2.429-15.602c12.03,2.09,20.49,4.044,20.727,4.097l0.145,0.026
		c3.438,0.461,6.829,0.689,10.151,0.689c0.88,0,1.753-0.02,2.62-0.053C373.559,138.411,370.935,140.098,367.356,142.161z
		 M363.151,133.447c-1.572-0.369-14.271-3.279-30.46-5.741c-0.264-14.116,6.328-26.897,13.298-40.406
		c3.945-7.646,8.022-15.549,10.675-23.644c6.272-19.155,3.349-32.763,1.21-38.9c24.761,12.817,44.503,29.293,54.051,45.439
		c9.413,15.919,10.009,32.302,1.638,44.944C404.031,129.532,385.189,136.37,363.151,133.447z M482.131,131.915
		c-2.442,0.982-5.138,1.506-7.689,1.796c-7.933,0.794-13.803-1.384-19.949-6.189c-3.826-2.429-7.804-4.509-12.033-6.275
		c2.06,2.287,4.311,4.308,6.631,6.245c2.294,2.001,4.835,3.592,7.481,5.102c0.445,0.274,0.91,0.544,1.381,0.807
		c-4.825,0.264-10.128-2.33-15.289-4.858c-5.25-2.567-10.194-4.996-14.986-4.848c-9.403,0.293-14.666,0.303-17.586,0.241
		c2.297-2.152,4.321-4.525,6.028-7.102c8.496-12.827,8.513-29.102,0.175-45.093c2.323-0.603,6.42-1.872,10.517-4.13
		c-0.003,0.026-0.003,0.043-0.003,0.043c2.775,0.366,5.576,1.282,8.174,2.376c8.052,3.434,14.798,9.429,19.755,16.627
		c2.907,4.219,5.237,8.849,7.063,13.638c2.38,6.456,5.303,12.807,10.118,18.021c3.115,3.451,7.208,6.094,11.545,7.738l-3.503,2.485
		C479.959,128.54,480.516,130.903,482.131,131.915z M429.873,44.61c0.099,1.523,0.204,3.042,0.339,4.561
		c0.02,0.402,0.346,3.464,0.303,3.793c-0.076,0.639-0.382,1.213-0.755,1.796c-1.104,1.628-2.666,3.115-4.265,4.502
		c-1.608,1.397-3.309,2.712-5.039,4.014c3.873-1.783,11.693-5.87,12.152-10.537c-0.069-3.286-0.204-6.882-0.409-10.144l-0.099-1.73
		l-1.579,0.656c-7.096,3.154-12.814,13.134-15.704,20.042c2.452-3.408,4.927-6.789,7.617-9.986
		C424.623,49.072,427.019,46.33,429.873,44.61z M398.27,122.433c-13.727,5.296-39.579,2.066-54.7,1.035
		c14.455,4.011,46.777,8.315,58.53-2.35c0.976-0.949,1.793-2.063,2.307-3.292C402.891,120.03,400.65,121.474,398.27,122.433z
		 M194.098,102.042c6.723,14.884,22.118,25.13,38.185,26.979c5.379,0.646,10.82,0.491,16.083-0.481
		c-9.294-0.056-18.44-1.246-27.058-4.66C210.352,119.48,200.801,111.768,194.098,102.042z M447.816,98.126
		c0.452-1.104,0.62-2.307,0.468-3.52c-0.231-1.862-1.177-3.52-2.656-4.673c-1.48-1.15-3.319-1.658-5.181-1.427
		c-1.177,0.148-2.271,0.58-3.207,1.249l-3.263,0.01c0.781,0.857,1.025,1.796,1.074,2.538c-0.629,1.236-0.88,2.63-0.702,4.041
		c0.231,1.859,1.173,3.52,2.653,4.67c1.246,0.972,2.745,1.483,4.298,1.483c0.293,0,0.587-0.016,0.883-0.056
		c1.124-0.138,2.175-0.544,3.085-1.163c2.086-0.283,3.813,0.709,3.905,0.761C448.132,100.803,447.855,99.273,447.816,98.126z
		 M446.359,96.656c0.007-0.227,0-0.461-0.03-0.695c-0.277-2.225-2.307-3.797-4.528-3.52c-0.128,0.013-0.254,0.033-0.379,0.063
		c0.521,0.399,0.887,0.999,0.976,1.697c0.171,1.384-0.807,2.647-2.192,2.821c-0.735,0.089-1.437-0.142-1.958-0.593
		c-0.003,0.175,0.007,0.356,0.03,0.537c0.264,2.129,2.139,3.665,4.248,3.543c-0.188,0.046-0.376,0.082-0.57,0.105
		c-1.374,0.171-2.729-0.201-3.823-1.051c-1.091-0.85-1.786-2.076-1.958-3.447c-0.353-2.834,1.664-5.428,4.499-5.781
		c0.217-0.03,0.432-0.043,0.646-0.043c2.574,0,4.812,1.925,5.138,4.542C446.534,95.454,446.501,96.067,446.359,96.656z"/>
</g>
</svg>
